<?xml version="1.0" encoding="UTF-8" standalone="no"?>
<!DOCTYPE svg PUBLIC "-//W3C//DTD SVG 1.1//EN"
 "http://www.w3.org/Graphics/SVG/1.1/DTD/svg11.dtd">
<!-- Generated by graphviz version 2.47.0 (20210327.0129)
 -->
<!-- Pages: 1 -->
<svg width="820pt" height="469pt"
 viewBox="0.00 0.00 820.09 468.81" xmlns="http://www.w3.org/2000/svg" xmlns:xlink="http://www.w3.org/1999/xlink">
<g id="graph0" class="graph" transform="scale(1 1) rotate(0) translate(4 464.81)">
<polygon fill="white" stroke="transparent" points="-4,4 -4,-464.81 816.09,-464.81 816.09,4 -4,4"/>
<g id="clust1" class="cluster">
<title>cluster64</title>
<path fill="none" stroke="black" d="M432.79,-243.91C432.79,-243.91 522.79,-243.91 522.79,-243.91 528.79,-243.91 534.79,-249.91 534.79,-255.91 534.79,-255.91 534.79,-345.86 534.79,-345.86 534.79,-351.86 528.79,-357.86 522.79,-357.86 522.79,-357.86 432.79,-357.86 432.79,-357.86 426.79,-357.86 420.79,-351.86 420.79,-345.86 420.79,-345.86 420.79,-255.91 420.79,-255.91 420.79,-249.91 426.79,-243.91 432.79,-243.91"/>
<text text-anchor="middle" x="517.29" y="-251.71" font-family="Times-Roman" font-size="14.00">64</text>
</g>
<g id="clust2" class="cluster">
<title>cluster64 x 10</title>
<path fill="none" stroke="black" d="M139.79,-243.91C139.79,-243.91 229.79,-243.91 229.79,-243.91 235.79,-243.91 241.79,-249.91 241.79,-255.91 241.79,-255.91 241.79,-345.86 241.79,-345.86 241.79,-351.86 235.79,-357.86 229.79,-357.86 229.79,-357.86 139.79,-357.86 139.79,-357.86 133.79,-357.86 127.79,-351.86 127.79,-345.86 127.79,-345.86 127.79,-255.91 127.79,-255.91 127.79,-249.91 133.79,-243.91 139.79,-243.91"/>
<text text-anchor="middle" x="206.79" y="-251.71" font-family="Times-Roman" font-size="14.00">64 x 10</text>
</g>
<g id="clust3" class="cluster">
<title>cluster4</title>
<path fill="none" stroke="black" d="M561.79,-243.91C561.79,-243.91 651.79,-243.91 651.79,-243.91 657.79,-243.91 663.79,-249.91 663.79,-255.91 663.79,-255.91 663.79,-345.86 663.79,-345.86 663.79,-351.86 657.79,-357.86 651.79,-357.86 651.79,-357.86 561.79,-357.86 561.79,-357.86 555.79,-357.86 549.79,-351.86 549.79,-345.86 549.79,-345.86 549.79,-255.91 549.79,-255.91 549.79,-249.91 555.79,-243.91 561.79,-243.91"/>
<text text-anchor="middle" x="650.79" y="-251.71" font-family="Times-Roman" font-size="14.00">4</text>
</g>
<g id="clust4" class="cluster">
<title>cluster1,443</title>
<path fill="none" stroke="black" d="M454.79,-8C454.79,-8 558.79,-8 558.79,-8 564.79,-8 570.79,-14 570.79,-20 570.79,-20 570.79,-212.93 570.79,-212.93 570.79,-218.93 564.79,-224.93 558.79,-224.93 558.79,-224.93 454.79,-224.93 454.79,-224.93 448.79,-224.93 442.79,-218.93 442.79,-212.93 442.79,-212.93 442.79,-20 442.79,-20 442.79,-14 448.79,-8 454.79,-8"/>
<text text-anchor="middle" x="542.29" y="-15.8" font-family="Times-Roman" font-size="14.00">1,443</text>
</g>
<g id="clust5" class="cluster">
<title>cluster192</title>
<path fill="none" stroke="black" d="M648.79,-121.95C648.79,-121.95 778.79,-121.95 778.79,-121.95 784.79,-121.95 790.79,-127.95 790.79,-133.95 790.79,-133.95 790.79,-223.91 790.79,-223.91 790.79,-229.91 784.79,-235.91 778.79,-235.91 778.79,-235.91 648.79,-235.91 648.79,-235.91 642.79,-235.91 636.79,-229.91 636.79,-223.91 636.79,-223.91 636.79,-133.95 636.79,-133.95 636.79,-127.95 642.79,-121.95 648.79,-121.95"/>
<text text-anchor="middle" x="768.79" y="-129.75" font-family="Times-Roman" font-size="14.00">192</text>
</g>
<!-- μ_d -->
<g id="node1" class="node">
<title>μ_d</title>
<ellipse fill="none" stroke="black" cx="48.79" cy="-423.34" rx="48.58" ry="37.45"/>
<text text-anchor="middle" x="48.79" y="-434.64" font-family="Times-Roman" font-size="14.00">μ_d</text>
<text text-anchor="middle" x="48.79" y="-419.64" font-family="Times-Roman" font-size="14.00">~</text>
<text text-anchor="middle" x="48.79" y="-404.64" font-family="Times-Roman" font-size="14.00">Normal</text>
</g>
<!-- d -->
<g id="node9" class="node">
<title>d</title>
<ellipse fill="none" stroke="black" cx="184.79" cy="-312.38" rx="48.58" ry="37.45"/>
<text text-anchor="middle" x="184.79" y="-323.68" font-family="Times-Roman" font-size="14.00">d</text>
<text text-anchor="middle" x="184.79" y="-308.68" font-family="Times-Roman" font-size="14.00">~</text>
<text text-anchor="middle" x="184.79" y="-293.68" font-family="Times-Roman" font-size="14.00">Normal</text>
</g>
<!-- μ_d&#45;&gt;d -->
<g id="edge4" class="edge">
<title>μ_d&#45;&gt;d</title>
<path fill="none" stroke="black" d="M82.06,-395.68C100.58,-380.84 123.81,-362.24 143.48,-346.48"/>
<polygon fill="black" stroke="black" points="145.78,-349.12 151.39,-340.14 141.4,-343.66 145.78,-349.12"/>
</g>
<!-- σ_η -->
<g id="node2" class="node">
<title>σ_η</title>
<ellipse fill="none" stroke="black" cx="613.79" cy="-423.34" rx="69.09" ry="37.45"/>
<text text-anchor="middle" x="613.79" y="-434.64" font-family="Times-Roman" font-size="14.00">σ_η</text>
<text text-anchor="middle" x="613.79" y="-419.64" font-family="Times-Roman" font-size="14.00">~</text>
<text text-anchor="middle" x="613.79" y="-404.64" font-family="Times-Roman" font-size="14.00">HalfNormal</text>
</g>
<!-- η -->
<g id="node10" class="node">
<title>η</title>
<ellipse fill="none" stroke="black" cx="606.79" cy="-312.38" rx="48.58" ry="37.45"/>
<text text-anchor="middle" x="606.79" y="-323.68" font-family="Times-Roman" font-size="14.00">η</text>
<text text-anchor="middle" x="606.79" y="-308.68" font-family="Times-Roman" font-size="14.00">~</text>
<text text-anchor="middle" x="606.79" y="-293.68" font-family="Times-Roman" font-size="14.00">Normal</text>
</g>
<!-- σ_η&#45;&gt;η -->
<g id="edge6" class="edge">
<title>σ_η&#45;&gt;η</title>
<path fill="none" stroke="black" d="M611.44,-385.75C610.91,-377.58 610.35,-368.8 609.8,-360.27"/>
<polygon fill="black" stroke="black" points="613.28,-359.81 609.15,-350.06 606.29,-360.26 613.28,-359.81"/>
</g>
<!-- σ_σ -->
<g id="node3" class="node">
<title>σ_σ</title>
<ellipse fill="none" stroke="black" cx="742.79" cy="-312.38" rx="69.09" ry="37.45"/>
<text text-anchor="middle" x="742.79" y="-323.68" font-family="Times-Roman" font-size="14.00">σ_σ</text>
<text text-anchor="middle" x="742.79" y="-308.68" font-family="Times-Roman" font-size="14.00">~</text>
<text text-anchor="middle" x="742.79" y="-293.68" font-family="Times-Roman" font-size="14.00">HalfNormal</text>
</g>
<!-- σ -->
<g id="node13" class="node">
<title>σ</title>
<ellipse fill="none" stroke="black" cx="713.79" cy="-190.43" rx="69.09" ry="37.45"/>
<text text-anchor="middle" x="713.79" y="-201.73" font-family="Times-Roman" font-size="14.00">σ</text>
<text text-anchor="middle" x="713.79" y="-186.73" font-family="Times-Roman" font-size="14.00">~</text>
<text text-anchor="middle" x="713.79" y="-171.73" font-family="Times-Roman" font-size="14.00">HalfNormal</text>
</g>
<!-- σ_σ&#45;&gt;σ -->
<g id="edge10" class="edge">
<title>σ_σ&#45;&gt;σ</title>
<path fill="none" stroke="black" d="M734.01,-275.07C731.14,-263.21 727.92,-249.87 724.9,-237.4"/>
<polygon fill="black" stroke="black" points="728.29,-236.52 722.54,-227.62 721.49,-238.16 728.29,-236.52"/>
</g>
<!-- μ_η -->
<g id="node4" class="node">
<title>μ_η</title>
<ellipse fill="none" stroke="black" cx="749.79" cy="-423.34" rx="48.58" ry="37.45"/>
<text text-anchor="middle" x="749.79" y="-434.64" font-family="Times-Roman" font-size="14.00">μ_η</text>
<text text-anchor="middle" x="749.79" y="-419.64" font-family="Times-Roman" font-size="14.00">~</text>
<text text-anchor="middle" x="749.79" y="-404.64" font-family="Times-Roman" font-size="14.00">Normal</text>
</g>
<!-- μ_η&#45;&gt;η -->
<g id="edge5" class="edge">
<title>μ_η&#45;&gt;η</title>
<path fill="none" stroke="black" d="M715.43,-396.34C699.94,-384.6 681.43,-370.55 664.79,-357.86 659.69,-353.97 654.35,-349.89 649.05,-345.83"/>
<polygon fill="black" stroke="black" points="650.88,-342.82 640.81,-339.52 646.62,-348.38 650.88,-342.82"/>
</g>
<!-- σ_d -->
<g id="node5" class="node">
<title>σ_d</title>
<ellipse fill="none" stroke="black" cx="184.79" cy="-423.34" rx="69.09" ry="37.45"/>
<text text-anchor="middle" x="184.79" y="-434.64" font-family="Times-Roman" font-size="14.00">σ_d</text>
<text text-anchor="middle" x="184.79" y="-419.64" font-family="Times-Roman" font-size="14.00">~</text>
<text text-anchor="middle" x="184.79" y="-404.64" font-family="Times-Roman" font-size="14.00">HalfNormal</text>
</g>
<!-- σ_d&#45;&gt;d -->
<g id="edge3" class="edge">
<title>σ_d&#45;&gt;d</title>
<path fill="none" stroke="black" d="M184.79,-385.75C184.79,-377.58 184.79,-368.8 184.79,-360.27"/>
<polygon fill="black" stroke="black" points="188.29,-360.06 184.79,-350.06 181.29,-360.06 188.29,-360.06"/>
</g>
<!-- σ_h -->
<g id="node6" class="node">
<title>σ_h</title>
<ellipse fill="none" stroke="black" cx="341.79" cy="-423.34" rx="69.09" ry="37.45"/>
<text text-anchor="middle" x="341.79" y="-434.64" font-family="Times-Roman" font-size="14.00">σ_h</text>
<text text-anchor="middle" x="341.79" y="-419.64" font-family="Times-Roman" font-size="14.00">~</text>
<text text-anchor="middle" x="341.79" y="-404.64" font-family="Times-Roman" font-size="14.00">HalfNormal</text>
</g>
<!-- h -->
<g id="node8" class="node">
<title>h</title>
<ellipse fill="none" stroke="black" cx="477.79" cy="-312.38" rx="48.58" ry="37.45"/>
<text text-anchor="middle" x="477.79" y="-323.68" font-family="Times-Roman" font-size="14.00">h</text>
<text text-anchor="middle" x="477.79" y="-308.68" font-family="Times-Roman" font-size="14.00">~</text>
<text text-anchor="middle" x="477.79" y="-293.68" font-family="Times-Roman" font-size="14.00">Normal</text>
</g>
<!-- σ_h&#45;&gt;h -->
<g id="edge1" class="edge">
<title>σ_h&#45;&gt;h</title>
<path fill="none" stroke="black" d="M380.04,-391.7C397.61,-377.62 418.5,-360.89 436.44,-346.51"/>
<polygon fill="black" stroke="black" points="438.84,-349.08 444.45,-340.09 434.46,-343.61 438.84,-349.08"/>
</g>
<!-- μ_h -->
<g id="node7" class="node">
<title>μ_h</title>
<ellipse fill="none" stroke="black" cx="477.79" cy="-423.34" rx="48.58" ry="37.45"/>
<text text-anchor="middle" x="477.79" y="-434.64" font-family="Times-Roman" font-size="14.00">μ_h</text>
<text text-anchor="middle" x="477.79" y="-419.64" font-family="Times-Roman" font-size="14.00">~</text>
<text text-anchor="middle" x="477.79" y="-404.64" font-family="Times-Roman" font-size="14.00">Normal</text>
</g>
<!-- μ_h&#45;&gt;h -->
<g id="edge2" class="edge">
<title>μ_h&#45;&gt;h</title>
<path fill="none" stroke="black" d="M477.79,-385.75C477.79,-377.58 477.79,-368.8 477.79,-360.27"/>
<polygon fill="black" stroke="black" points="481.29,-360.06 477.79,-350.06 474.29,-360.06 481.29,-360.06"/>
</g>
<!-- μ -->
<g id="node11" class="node">
<title>μ</title>
<polygon fill="none" stroke="black" points="562.79,-216.93 450.79,-216.93 450.79,-163.93 562.79,-163.93 562.79,-216.93"/>
<text text-anchor="middle" x="506.79" y="-201.73" font-family="Times-Roman" font-size="14.00">μ</text>
<text text-anchor="middle" x="506.79" y="-186.73" font-family="Times-Roman" font-size="14.00">~</text>
<text text-anchor="middle" x="506.79" y="-171.73" font-family="Times-Roman" font-size="14.00">Deterministic</text>
</g>
<!-- h&#45;&gt;μ -->
<g id="edge7" class="edge">
<title>h&#45;&gt;μ</title>
<path fill="none" stroke="black" d="M486.49,-275.39C490.18,-260.14 494.46,-242.41 498.15,-227.19"/>
<polygon fill="black" stroke="black" points="501.63,-227.65 500.58,-217.11 494.83,-226.01 501.63,-227.65"/>
</g>
<!-- d&#45;&gt;μ -->
<g id="edge9" class="edge">
<title>d&#45;&gt;μ</title>
<path fill="none" stroke="black" d="M228.22,-295.21C282.92,-274.83 377.43,-239.62 441.01,-215.93"/>
<polygon fill="black" stroke="black" points="442.4,-219.15 450.55,-212.38 439.96,-212.59 442.4,-219.15"/>
</g>
<!-- η&#45;&gt;μ -->
<g id="edge8" class="edge">
<title>η&#45;&gt;μ</title>
<path fill="none" stroke="black" d="M581.04,-280.49C566.79,-263.4 549.07,-242.14 534.51,-224.68"/>
<polygon fill="black" stroke="black" points="537.16,-222.4 528.07,-216.96 531.79,-226.88 537.16,-222.4"/>
</g>
<!-- lfc -->
<g id="node12" class="node">
<title>lfc</title>
<ellipse fill="lightgrey" stroke="black" cx="509.79" cy="-76.48" rx="48.58" ry="37.45"/>
<text text-anchor="middle" x="509.79" y="-87.78" font-family="Times-Roman" font-size="14.00">lfc</text>
<text text-anchor="middle" x="509.79" y="-72.78" font-family="Times-Roman" font-size="14.00">~</text>
<text text-anchor="middle" x="509.79" y="-57.78" font-family="Times-Roman" font-size="14.00">Normal</text>
</g>
<!-- μ&#45;&gt;lfc -->
<g id="edge11" class="edge">
<title>μ&#45;&gt;lfc</title>
<path fill="none" stroke="black" d="M507.48,-163.75C507.79,-152.02 508.18,-137.75 508.54,-124.22"/>
<polygon fill="black" stroke="black" points="512.04,-124.16 508.81,-114.07 505.04,-123.98 512.04,-124.16"/>
</g>
<!-- σ&#45;&gt;lfc -->
<g id="edge12" class="edge">
<title>σ&#45;&gt;lfc</title>
<path fill="none" stroke="black" d="M665.96,-163.18C633.45,-145.34 590.6,-121.82 558.01,-103.94"/>
<polygon fill="black" stroke="black" points="559.56,-100.8 549.11,-99.05 556.19,-106.93 559.56,-100.8"/>
</g>
</g>
</svg>
