<?xml version="1.0" encoding="UTF-8" standalone="no"?>
<!DOCTYPE svg PUBLIC "-//W3C//DTD SVG 1.1//EN"
 "http://www.w3.org/Graphics/SVG/1.1/DTD/svg11.dtd">
<!-- Generated by graphviz version 2.47.0 (20210327.0129)
 -->
<!-- Pages: 1 -->
<svg width="811pt" height="469pt"
 viewBox="0.00 0.00 810.59 468.81" xmlns="http://www.w3.org/2000/svg" xmlns:xlink="http://www.w3.org/1999/xlink">
<g id="graph0" class="graph" transform="scale(1 1) rotate(0) translate(4 464.81)">
<polygon fill="white" stroke="transparent" points="-4,4 -4,-464.81 806.59,-464.81 806.59,4 -4,4"/>
<g id="clust1" class="cluster">
<title>cluster64</title>
<path fill="none" stroke="black" d="M160.3,-243.91C160.3,-243.91 250.3,-243.91 250.3,-243.91 256.3,-243.91 262.3,-249.91 262.3,-255.91 262.3,-255.91 262.3,-345.86 262.3,-345.86 262.3,-351.86 256.3,-357.86 250.3,-357.86 250.3,-357.86 160.3,-357.86 160.3,-357.86 154.3,-357.86 148.3,-351.86 148.3,-345.86 148.3,-345.86 148.3,-255.91 148.3,-255.91 148.3,-249.91 154.3,-243.91 160.3,-243.91"/>
<text text-anchor="middle" x="244.8" y="-251.71" font-family="Times-Roman" font-size="14.00">64</text>
</g>
<g id="clust2" class="cluster">
<title>cluster64 x 10</title>
<path fill="none" stroke="black" d="M300.3,-243.91C300.3,-243.91 390.3,-243.91 390.3,-243.91 396.3,-243.91 402.3,-249.91 402.3,-255.91 402.3,-255.91 402.3,-345.86 402.3,-345.86 402.3,-351.86 396.3,-357.86 390.3,-357.86 390.3,-357.86 300.3,-357.86 300.3,-357.86 294.3,-357.86 288.3,-351.86 288.3,-345.86 288.3,-345.86 288.3,-255.91 288.3,-255.91 288.3,-249.91 294.3,-243.91 300.3,-243.91"/>
<text text-anchor="middle" x="367.3" y="-251.71" font-family="Times-Roman" font-size="14.00">64 x 10</text>
</g>
<g id="clust3" class="cluster">
<title>cluster4</title>
<path fill="none" stroke="black" d="M552.3,-243.91C552.3,-243.91 642.3,-243.91 642.3,-243.91 648.3,-243.91 654.3,-249.91 654.3,-255.91 654.3,-255.91 654.3,-345.86 654.3,-345.86 654.3,-351.86 648.3,-357.86 642.3,-357.86 642.3,-357.86 552.3,-357.86 552.3,-357.86 546.3,-357.86 540.3,-351.86 540.3,-345.86 540.3,-345.86 540.3,-255.91 540.3,-255.91 540.3,-249.91 546.3,-243.91 552.3,-243.91"/>
<text text-anchor="middle" x="641.3" y="-251.71" font-family="Times-Roman" font-size="14.00">4</text>
</g>
<g id="clust4" class="cluster">
<title>cluster1,443</title>
<path fill="none" stroke="black" d="M266.3,-8C266.3,-8 370.3,-8 370.3,-8 376.3,-8 382.3,-14 382.3,-20 382.3,-20 382.3,-212.93 382.3,-212.93 382.3,-218.93 376.3,-224.93 370.3,-224.93 370.3,-224.93 266.3,-224.93 266.3,-224.93 260.3,-224.93 254.3,-218.93 254.3,-212.93 254.3,-212.93 254.3,-20 254.3,-20 254.3,-14 260.3,-8 266.3,-8"/>
<text text-anchor="middle" x="353.8" y="-15.8" font-family="Times-Roman" font-size="14.00">1,443</text>
</g>
<g id="clust5" class="cluster">
<title>cluster192</title>
<path fill="none" stroke="black" d="M32.3,-121.95C32.3,-121.95 162.3,-121.95 162.3,-121.95 168.3,-121.95 174.3,-127.95 174.3,-133.95 174.3,-133.95 174.3,-223.91 174.3,-223.91 174.3,-229.91 168.3,-235.91 162.3,-235.91 162.3,-235.91 32.3,-235.91 32.3,-235.91 26.3,-235.91 20.3,-229.91 20.3,-223.91 20.3,-223.91 20.3,-133.95 20.3,-133.95 20.3,-127.95 26.3,-121.95 32.3,-121.95"/>
<text text-anchor="middle" x="152.3" y="-129.75" font-family="Times-Roman" font-size="14.00">192</text>
</g>
<!-- σ_σ -->
<g id="node1" class="node">
<title>σ_σ</title>
<ellipse fill="none" stroke="black" cx="69.3" cy="-312.38" rx="69.09" ry="37.45"/>
<text text-anchor="middle" x="69.3" y="-323.68" font-family="Times-Roman" font-size="14.00">σ_σ</text>
<text text-anchor="middle" x="69.3" y="-308.68" font-family="Times-Roman" font-size="14.00">~</text>
<text text-anchor="middle" x="69.3" y="-293.68" font-family="Times-Roman" font-size="14.00">HalfNormal</text>
</g>
<!-- σ -->
<g id="node13" class="node">
<title>σ</title>
<ellipse fill="none" stroke="black" cx="97.3" cy="-190.43" rx="69.09" ry="37.45"/>
<text text-anchor="middle" x="97.3" y="-201.73" font-family="Times-Roman" font-size="14.00">σ</text>
<text text-anchor="middle" x="97.3" y="-186.73" font-family="Times-Roman" font-size="14.00">~</text>
<text text-anchor="middle" x="97.3" y="-171.73" font-family="Times-Roman" font-size="14.00">HalfNormal</text>
</g>
<!-- σ_σ&#45;&gt;σ -->
<g id="edge10" class="edge">
<title>σ_σ&#45;&gt;σ</title>
<path fill="none" stroke="black" d="M77.77,-275.07C80.49,-263.43 83.54,-250.38 86.4,-238.11"/>
<polygon fill="black" stroke="black" points="89.89,-238.57 88.75,-228.04 83.07,-236.98 89.89,-238.57"/>
</g>
<!-- μ_h -->
<g id="node2" class="node">
<title>μ_h</title>
<ellipse fill="none" stroke="black" cx="52.3" cy="-423.34" rx="48.58" ry="37.45"/>
<text text-anchor="middle" x="52.3" y="-434.64" font-family="Times-Roman" font-size="14.00">μ_h</text>
<text text-anchor="middle" x="52.3" y="-419.64" font-family="Times-Roman" font-size="14.00">~</text>
<text text-anchor="middle" x="52.3" y="-404.64" font-family="Times-Roman" font-size="14.00">Normal</text>
</g>
<!-- h -->
<g id="node8" class="node">
<title>h</title>
<ellipse fill="none" stroke="black" cx="205.3" cy="-312.38" rx="48.58" ry="37.45"/>
<text text-anchor="middle" x="205.3" y="-323.68" font-family="Times-Roman" font-size="14.00">h</text>
<text text-anchor="middle" x="205.3" y="-308.68" font-family="Times-Roman" font-size="14.00">~</text>
<text text-anchor="middle" x="205.3" y="-293.68" font-family="Times-Roman" font-size="14.00">Normal</text>
</g>
<!-- μ_h&#45;&gt;h -->
<g id="edge2" class="edge">
<title>μ_h&#45;&gt;h</title>
<path fill="none" stroke="black" d="M88.73,-398.33C106.55,-386.4 128.23,-371.63 147.3,-357.86 152.5,-354.11 157.9,-350.1 163.23,-346.09"/>
<polygon fill="black" stroke="black" points="165.65,-348.65 171.5,-339.82 161.42,-343.07 165.65,-348.65"/>
</g>
<!-- μ_η -->
<g id="node3" class="node">
<title>μ_η</title>
<ellipse fill="none" stroke="black" cx="597.3" cy="-423.34" rx="48.58" ry="37.45"/>
<text text-anchor="middle" x="597.3" y="-434.64" font-family="Times-Roman" font-size="14.00">μ_η</text>
<text text-anchor="middle" x="597.3" y="-419.64" font-family="Times-Roman" font-size="14.00">~</text>
<text text-anchor="middle" x="597.3" y="-404.64" font-family="Times-Roman" font-size="14.00">Normal</text>
</g>
<!-- η -->
<g id="node10" class="node">
<title>η</title>
<ellipse fill="none" stroke="black" cx="597.3" cy="-312.38" rx="48.58" ry="37.45"/>
<text text-anchor="middle" x="597.3" y="-323.68" font-family="Times-Roman" font-size="14.00">η</text>
<text text-anchor="middle" x="597.3" y="-308.68" font-family="Times-Roman" font-size="14.00">~</text>
<text text-anchor="middle" x="597.3" y="-293.68" font-family="Times-Roman" font-size="14.00">Normal</text>
</g>
<!-- μ_η&#45;&gt;η -->
<g id="edge6" class="edge">
<title>μ_η&#45;&gt;η</title>
<path fill="none" stroke="black" d="M597.3,-385.75C597.3,-377.58 597.3,-368.8 597.3,-360.27"/>
<polygon fill="black" stroke="black" points="600.8,-360.06 597.3,-350.06 593.8,-360.06 600.8,-360.06"/>
</g>
<!-- σ_d -->
<g id="node4" class="node">
<title>σ_d</title>
<ellipse fill="none" stroke="black" cx="345.3" cy="-423.34" rx="69.09" ry="37.45"/>
<text text-anchor="middle" x="345.3" y="-434.64" font-family="Times-Roman" font-size="14.00">σ_d</text>
<text text-anchor="middle" x="345.3" y="-419.64" font-family="Times-Roman" font-size="14.00">~</text>
<text text-anchor="middle" x="345.3" y="-404.64" font-family="Times-Roman" font-size="14.00">HalfNormal</text>
</g>
<!-- d -->
<g id="node9" class="node">
<title>d</title>
<ellipse fill="none" stroke="black" cx="345.3" cy="-312.38" rx="48.58" ry="37.45"/>
<text text-anchor="middle" x="345.3" y="-323.68" font-family="Times-Roman" font-size="14.00">d</text>
<text text-anchor="middle" x="345.3" y="-308.68" font-family="Times-Roman" font-size="14.00">~</text>
<text text-anchor="middle" x="345.3" y="-293.68" font-family="Times-Roman" font-size="14.00">Normal</text>
</g>
<!-- σ_d&#45;&gt;d -->
<g id="edge3" class="edge">
<title>σ_d&#45;&gt;d</title>
<path fill="none" stroke="black" d="M345.3,-385.75C345.3,-377.58 345.3,-368.8 345.3,-360.27"/>
<polygon fill="black" stroke="black" points="348.8,-360.06 345.3,-350.06 341.8,-360.06 348.8,-360.06"/>
</g>
<!-- σ_h -->
<g id="node5" class="node">
<title>σ_h</title>
<ellipse fill="none" stroke="black" cx="188.3" cy="-423.34" rx="69.09" ry="37.45"/>
<text text-anchor="middle" x="188.3" y="-434.64" font-family="Times-Roman" font-size="14.00">σ_h</text>
<text text-anchor="middle" x="188.3" y="-419.64" font-family="Times-Roman" font-size="14.00">~</text>
<text text-anchor="middle" x="188.3" y="-404.64" font-family="Times-Roman" font-size="14.00">HalfNormal</text>
</g>
<!-- σ_h&#45;&gt;h -->
<g id="edge1" class="edge">
<title>σ_h&#45;&gt;h</title>
<path fill="none" stroke="black" d="M194,-385.75C195.31,-377.4 196.71,-368.42 198.07,-359.71"/>
<polygon fill="black" stroke="black" points="201.55,-360.1 199.63,-349.68 194.63,-359.03 201.55,-360.1"/>
</g>
<!-- σ_η -->
<g id="node6" class="node">
<title>σ_η</title>
<ellipse fill="none" stroke="black" cx="733.3" cy="-423.34" rx="69.09" ry="37.45"/>
<text text-anchor="middle" x="733.3" y="-434.64" font-family="Times-Roman" font-size="14.00">σ_η</text>
<text text-anchor="middle" x="733.3" y="-419.64" font-family="Times-Roman" font-size="14.00">~</text>
<text text-anchor="middle" x="733.3" y="-404.64" font-family="Times-Roman" font-size="14.00">HalfNormal</text>
</g>
<!-- σ_η&#45;&gt;η -->
<g id="edge5" class="edge">
<title>σ_η&#45;&gt;η</title>
<path fill="none" stroke="black" d="M695.05,-391.7C677.47,-377.62 656.59,-360.89 638.65,-346.51"/>
<polygon fill="black" stroke="black" points="640.63,-343.61 630.64,-340.09 636.25,-349.08 640.63,-343.61"/>
</g>
<!-- μ_d -->
<g id="node7" class="node">
<title>μ_d</title>
<ellipse fill="none" stroke="black" cx="481.3" cy="-423.34" rx="48.58" ry="37.45"/>
<text text-anchor="middle" x="481.3" y="-434.64" font-family="Times-Roman" font-size="14.00">μ_d</text>
<text text-anchor="middle" x="481.3" y="-419.64" font-family="Times-Roman" font-size="14.00">~</text>
<text text-anchor="middle" x="481.3" y="-404.64" font-family="Times-Roman" font-size="14.00">Normal</text>
</g>
<!-- μ_d&#45;&gt;d -->
<g id="edge4" class="edge">
<title>μ_d&#45;&gt;d</title>
<path fill="none" stroke="black" d="M448.03,-395.68C429.5,-380.84 406.28,-362.24 386.6,-346.48"/>
<polygon fill="black" stroke="black" points="388.69,-343.66 378.69,-340.14 384.31,-349.12 388.69,-343.66"/>
</g>
<!-- μ -->
<g id="node12" class="node">
<title>μ</title>
<polygon fill="none" stroke="black" points="374.3,-216.93 262.3,-216.93 262.3,-163.93 374.3,-163.93 374.3,-216.93"/>
<text text-anchor="middle" x="318.3" y="-201.73" font-family="Times-Roman" font-size="14.00">μ</text>
<text text-anchor="middle" x="318.3" y="-186.73" font-family="Times-Roman" font-size="14.00">~</text>
<text text-anchor="middle" x="318.3" y="-171.73" font-family="Times-Roman" font-size="14.00">Deterministic</text>
</g>
<!-- h&#45;&gt;μ -->
<g id="edge9" class="edge">
<title>h&#45;&gt;μ</title>
<path fill="none" stroke="black" d="M233.52,-281.42C249.88,-264.06 270.5,-242.17 287.31,-224.33"/>
<polygon fill="black" stroke="black" points="289.94,-226.63 294.25,-216.95 284.85,-221.83 289.94,-226.63"/>
</g>
<!-- d&#45;&gt;μ -->
<g id="edge7" class="edge">
<title>d&#45;&gt;μ</title>
<path fill="none" stroke="black" d="M337.2,-275.39C333.76,-260.14 329.77,-242.41 326.35,-227.19"/>
<polygon fill="black" stroke="black" points="329.69,-226.1 324.08,-217.11 322.86,-227.63 329.69,-226.1"/>
</g>
<!-- η&#45;&gt;μ -->
<g id="edge8" class="edge">
<title>η&#45;&gt;μ</title>
<path fill="none" stroke="black" d="M555.23,-293.3C509.77,-273.75 436.76,-242.36 383.79,-219.59"/>
<polygon fill="black" stroke="black" points="385.04,-216.32 374.47,-215.58 382.28,-222.75 385.04,-216.32"/>
</g>
<!-- lfc -->
<g id="node11" class="node">
<title>lfc</title>
<ellipse fill="lightgrey" stroke="black" cx="314.3" cy="-76.48" rx="48.58" ry="37.45"/>
<text text-anchor="middle" x="314.3" y="-87.78" font-family="Times-Roman" font-size="14.00">lfc</text>
<text text-anchor="middle" x="314.3" y="-72.78" font-family="Times-Roman" font-size="14.00">~</text>
<text text-anchor="middle" x="314.3" y="-57.78" font-family="Times-Roman" font-size="14.00">Normal</text>
</g>
<!-- μ&#45;&gt;lfc -->
<g id="edge12" class="edge">
<title>μ&#45;&gt;lfc</title>
<path fill="none" stroke="black" d="M317.38,-163.75C316.96,-152.02 316.45,-137.75 315.97,-124.22"/>
<polygon fill="black" stroke="black" points="319.46,-123.94 315.6,-114.07 312.46,-124.19 319.46,-123.94"/>
</g>
<!-- σ&#45;&gt;lfc -->
<g id="edge11" class="edge">
<title>σ&#45;&gt;lfc</title>
<path fill="none" stroke="black" d="M146.54,-164.03C182.01,-145.73 229.67,-121.14 265.12,-102.85"/>
<polygon fill="black" stroke="black" points="267.03,-105.8 274.32,-98.1 263.82,-99.58 267.03,-105.8"/>
</g>
</g>
</svg>
