<?xml version="1.0" encoding="UTF-8" standalone="no"?>
<!DOCTYPE svg PUBLIC "-//W3C//DTD SVG 1.1//EN"
 "http://www.w3.org/Graphics/SVG/1.1/DTD/svg11.dtd">
<!-- Generated by graphviz version 2.42.3 (20191010.1750)
 -->
<!-- Title: %3 Pages: 1 -->
<svg width="534pt" height="260pt"
 viewBox="0.00 0.00 533.98 259.91" xmlns="http://www.w3.org/2000/svg" xmlns:xlink="http://www.w3.org/1999/xlink">
<g id="graph0" class="graph" transform="scale(1 1) rotate(0) translate(4 255.91)">
<title>%3</title>
<polygon fill="white" stroke="transparent" points="-4,4 -4,-255.91 529.98,-255.91 529.98,4 -4,4"/>
<g id="clust1" class="cluster">
<title>cluster12</title>
<path fill="none" stroke="black" d="M20,-129.95C20,-129.95 172,-129.95 172,-129.95 178,-129.95 184,-135.95 184,-141.95 184,-141.95 184,-231.91 184,-231.91 184,-237.91 178,-243.91 172,-243.91 172,-243.91 20,-243.91 20,-243.91 14,-243.91 8,-237.91 8,-231.91 8,-231.91 8,-141.95 8,-141.95 8,-135.95 14,-129.95 20,-129.95"/>
<text text-anchor="middle" x="169" y="-137.75" font-family="Times,serif" font-size="14.00">12</text>
</g>
<g id="clust2" class="cluster">
<title>cluster3</title>
<path fill="none" stroke="black" d="M204,-129.95C204,-129.95 280,-129.95 280,-129.95 286,-129.95 292,-135.95 292,-141.95 292,-141.95 292,-231.91 292,-231.91 292,-237.91 286,-243.91 280,-243.91 280,-243.91 204,-243.91 204,-243.91 198,-243.91 192,-237.91 192,-231.91 192,-231.91 192,-141.95 192,-141.95 192,-135.95 198,-129.95 204,-129.95"/>
<text text-anchor="middle" x="280.5" y="-137.75" font-family="Times,serif" font-size="14.00">3</text>
</g>
<g id="clust3" class="cluster">
<title>cluster3 x 40</title>
<path fill="none" stroke="black" d="M312,-129.95C312,-129.95 388,-129.95 388,-129.95 394,-129.95 400,-135.95 400,-141.95 400,-141.95 400,-231.91 400,-231.91 400,-237.91 394,-243.91 388,-243.91 388,-243.91 312,-243.91 312,-243.91 306,-243.91 300,-237.91 300,-231.91 300,-231.91 300,-141.95 300,-141.95 300,-135.95 306,-129.95 312,-129.95"/>
<text text-anchor="middle" x="374.5" y="-137.75" font-family="Times,serif" font-size="14.00">3 x 40</text>
</g>
<g id="clust4" class="cluster">
<title>cluster1,044</title>
<path fill="none" stroke="black" d="M204,-8C204,-8 280,-8 280,-8 286,-8 292,-14 292,-20 292,-20 292,-109.95 292,-109.95 292,-115.95 286,-121.95 280,-121.95 280,-121.95 204,-121.95 204,-121.95 198,-121.95 192,-115.95 192,-109.95 192,-109.95 192,-20 192,-20 192,-14 198,-8 204,-8"/>
<text text-anchor="middle" x="268.5" y="-15.8" font-family="Times,serif" font-size="14.00">1,044</text>
</g>
<!-- o_i -->
<g id="node1" class="node">
<title>o_i</title>
<ellipse fill="none" stroke="black" cx="134" cy="-198.43" rx="41.94" ry="37.45"/>
<text text-anchor="middle" x="134" y="-209.73" font-family="Times,serif" font-size="14.00">o_i</text>
<text text-anchor="middle" x="134" y="-194.73" font-family="Times,serif" font-size="14.00">~</text>
<text text-anchor="middle" x="134" y="-179.73" font-family="Times,serif" font-size="14.00">Normal</text>
</g>
<!-- D_ij -->
<g id="node6" class="node">
<title>D_ij</title>
<ellipse fill="lightgrey" stroke="black" cx="242" cy="-76.48" rx="41.94" ry="37.45"/>
<text text-anchor="middle" x="242" y="-87.78" font-family="Times,serif" font-size="14.00">D_ij</text>
<text text-anchor="middle" x="242" y="-72.78" font-family="Times,serif" font-size="14.00">~</text>
<text text-anchor="middle" x="242" y="-57.78" font-family="Times,serif" font-size="14.00">Normal</text>
</g>
<!-- o_i&#45;&gt;D_ij -->
<g id="edge4" class="edge">
<title>o_i&#45;&gt;D_ij</title>
<path fill="none" stroke="black" d="M157.14,-166.87C166.42,-155.06 177.41,-141.62 188,-129.95 193.69,-123.69 199.95,-117.25 206.13,-111.11"/>
<polygon fill="black" stroke="black" points="208.61,-113.57 213.31,-104.07 203.72,-108.57 208.61,-113.57"/>
</g>
<!-- q_i -->
<g id="node2" class="node">
<title>q_i</title>
<ellipse fill="none" stroke="black" cx="45" cy="-198.43" rx="28.98" ry="37.45"/>
<text text-anchor="middle" x="45" y="-209.73" font-family="Times,serif" font-size="14.00">q_i</text>
<text text-anchor="middle" x="45" y="-194.73" font-family="Times,serif" font-size="14.00">~</text>
<text text-anchor="middle" x="45" y="-179.73" font-family="Times,serif" font-size="14.00">Beta</text>
</g>
<!-- q_i&#45;&gt;D_ij -->
<g id="edge3" class="edge">
<title>q_i&#45;&gt;D_ij</title>
<path fill="none" stroke="black" d="M57.51,-164.4C63.59,-152.13 71.99,-139.01 83,-129.95 113.72,-104.68 157.03,-91.43 190.69,-84.58"/>
<polygon fill="black" stroke="black" points="191.64,-87.96 200.81,-82.65 190.33,-81.08 191.64,-87.96"/>
</g>
<!-- h_k -->
<g id="node3" class="node">
<title>h_k</title>
<ellipse fill="none" stroke="black" cx="242" cy="-198.43" rx="41.94" ry="37.45"/>
<text text-anchor="middle" x="242" y="-209.73" font-family="Times,serif" font-size="14.00">h_k</text>
<text text-anchor="middle" x="242" y="-194.73" font-family="Times,serif" font-size="14.00">~</text>
<text text-anchor="middle" x="242" y="-179.73" font-family="Times,serif" font-size="14.00">Normal</text>
</g>
<!-- h_k&#45;&gt;D_ij -->
<g id="edge5" class="edge">
<title>h_k&#45;&gt;D_ij</title>
<path fill="none" stroke="black" d="M242,-160.79C242,-149.38 242,-136.65 242,-124.63"/>
<polygon fill="black" stroke="black" points="245.5,-124.31 242,-114.31 238.5,-124.31 245.5,-124.31"/>
</g>
<!-- g_kj -->
<g id="node4" class="node">
<title>g_kj</title>
<ellipse fill="none" stroke="black" cx="350" cy="-198.43" rx="41.94" ry="37.45"/>
<text text-anchor="middle" x="350" y="-209.73" font-family="Times,serif" font-size="14.00">g_kj</text>
<text text-anchor="middle" x="350" y="-194.73" font-family="Times,serif" font-size="14.00">~</text>
<text text-anchor="middle" x="350" y="-179.73" font-family="Times,serif" font-size="14.00">Normal</text>
</g>
<!-- g_kj&#45;&gt;D_ij -->
<g id="edge1" class="edge">
<title>g_kj&#45;&gt;D_ij</title>
<path fill="none" stroke="black" d="M326.86,-166.87C317.58,-155.06 306.59,-141.62 296,-129.95 290.31,-123.69 284.05,-117.25 277.87,-111.11"/>
<polygon fill="black" stroke="black" points="280.28,-108.57 270.69,-104.07 275.39,-113.57 280.28,-108.57"/>
</g>
<!-- epsilon -->
<g id="node5" class="node">
<title>epsilon</title>
<ellipse fill="none" stroke="black" cx="468" cy="-198.43" rx="57.97" ry="37.45"/>
<text text-anchor="middle" x="468" y="-209.73" font-family="Times,serif" font-size="14.00">epsilon</text>
<text text-anchor="middle" x="468" y="-194.73" font-family="Times,serif" font-size="14.00">~</text>
<text text-anchor="middle" x="468" y="-179.73" font-family="Times,serif" font-size="14.00">Exponential</text>
</g>
<!-- epsilon&#45;&gt;D_ij -->
<g id="edge2" class="edge">
<title>epsilon&#45;&gt;D_ij</title>
<path fill="none" stroke="black" d="M442.74,-164.48C431.94,-152.22 418.48,-139.08 404,-129.95 369.89,-108.45 326.14,-94.96 292.71,-87.05"/>
<polygon fill="black" stroke="black" points="293.21,-83.58 282.69,-84.78 291.66,-90.41 293.21,-83.58"/>
</g>
</g>
</svg>
