<?xml version="1.0" encoding="UTF-8" standalone="no"?>
<!DOCTYPE svg PUBLIC "-//W3C//DTD SVG 1.1//EN"
 "http://www.w3.org/Graphics/SVG/1.1/DTD/svg11.dtd">
<!-- Generated by graphviz version 2.42.3 (20191010.1750)
 -->
<!-- Title: %3 Pages: 1 -->
<svg width="416pt" height="363pt"
 viewBox="0.00 0.00 416.00 362.86" xmlns="http://www.w3.org/2000/svg" xmlns:xlink="http://www.w3.org/1999/xlink">
<g id="graph0" class="graph" transform="scale(1 1) rotate(0) translate(4 358.86)">
<title>%3</title>
<polygon fill="white" stroke="transparent" points="-4,4 -4,-358.86 412,-358.86 412,4 -4,4"/>
<g id="clust1" class="cluster">
<title>cluster103</title>
<path fill="none" stroke="black" d="M20,-232.91C20,-232.91 172,-232.91 172,-232.91 178,-232.91 184,-238.91 184,-244.91 184,-244.91 184,-334.86 184,-334.86 184,-340.86 178,-346.86 172,-346.86 172,-346.86 20,-346.86 20,-346.86 14,-346.86 8,-340.86 8,-334.86 8,-334.86 8,-244.91 8,-244.91 8,-238.91 14,-232.91 20,-232.91"/>
<text text-anchor="middle" x="165.5" y="-240.71" font-family="Times,serif" font-size="14.00">103</text>
</g>
<g id="clust2" class="cluster">
<title>cluster26</title>
<path fill="none" stroke="black" d="M204,-232.91C204,-232.91 280,-232.91 280,-232.91 286,-232.91 292,-238.91 292,-244.91 292,-244.91 292,-334.86 292,-334.86 292,-340.86 286,-346.86 280,-346.86 280,-346.86 204,-346.86 204,-346.86 198,-346.86 192,-340.86 192,-334.86 192,-334.86 192,-244.91 192,-244.91 192,-238.91 198,-232.91 204,-232.91"/>
<text text-anchor="middle" x="277" y="-240.71" font-family="Times,serif" font-size="14.00">26</text>
</g>
<g id="clust3" class="cluster">
<title>cluster26 x 10</title>
<path fill="none" stroke="black" d="M312,-232.91C312,-232.91 388,-232.91 388,-232.91 394,-232.91 400,-238.91 400,-244.91 400,-244.91 400,-334.86 400,-334.86 400,-340.86 394,-346.86 388,-346.86 388,-346.86 312,-346.86 312,-346.86 306,-346.86 300,-340.86 300,-334.86 300,-334.86 300,-244.91 300,-244.91 300,-238.91 306,-232.91 312,-232.91"/>
<text text-anchor="middle" x="371" y="-240.71" font-family="Times,serif" font-size="14.00">26 x 10</text>
</g>
<g id="clust4" class="cluster">
<title>cluster2,266</title>
<path fill="none" stroke="black" d="M146,-8C146,-8 230,-8 230,-8 236,-8 242,-14 242,-20 242,-20 242,-209.93 242,-209.93 242,-215.93 236,-221.93 230,-221.93 230,-221.93 146,-221.93 146,-221.93 140,-221.93 134,-215.93 134,-209.93 134,-209.93 134,-20 134,-20 134,-14 140,-8 146,-8"/>
<text text-anchor="middle" x="218.5" y="-15.8" font-family="Times,serif" font-size="14.00">2,266</text>
</g>
<!-- o_i -->
<g id="node1" class="node">
<title>o_i</title>
<ellipse fill="none" stroke="black" cx="134" cy="-301.38" rx="41.94" ry="37.45"/>
<text text-anchor="middle" x="134" y="-312.68" font-family="Times,serif" font-size="14.00">o_i</text>
<text text-anchor="middle" x="134" y="-297.68" font-family="Times,serif" font-size="14.00">~</text>
<text text-anchor="middle" x="134" y="-282.68" font-family="Times,serif" font-size="14.00">Normal</text>
</g>
<!-- mu -->
<g id="node6" class="node">
<title>mu</title>
<polygon fill="none" stroke="black" points="233.5,-213.93 142.5,-213.93 142.5,-160.93 233.5,-160.93 233.5,-213.93"/>
<text text-anchor="middle" x="188" y="-198.73" font-family="Times,serif" font-size="14.00">mu</text>
<text text-anchor="middle" x="188" y="-183.73" font-family="Times,serif" font-size="14.00">~</text>
<text text-anchor="middle" x="188" y="-168.73" font-family="Times,serif" font-size="14.00">Deterministic</text>
</g>
<!-- o_i&#45;&gt;mu -->
<g id="edge2" class="edge">
<title>o_i&#45;&gt;mu</title>
<path fill="none" stroke="black" d="M150.2,-266.79C156.82,-253.08 164.46,-237.23 171.14,-223.38"/>
<polygon fill="black" stroke="black" points="174.39,-224.69 175.59,-214.16 168.09,-221.65 174.39,-224.69"/>
</g>
<!-- q_i -->
<g id="node2" class="node">
<title>q_i</title>
<ellipse fill="none" stroke="black" cx="45" cy="-301.38" rx="28.98" ry="37.45"/>
<text text-anchor="middle" x="45" y="-312.68" font-family="Times,serif" font-size="14.00">q_i</text>
<text text-anchor="middle" x="45" y="-297.68" font-family="Times,serif" font-size="14.00">~</text>
<text text-anchor="middle" x="45" y="-282.68" font-family="Times,serif" font-size="14.00">Beta</text>
</g>
<!-- q_i&#45;&gt;mu -->
<g id="edge4" class="edge">
<title>q_i&#45;&gt;mu</title>
<path fill="none" stroke="black" d="M57.91,-267.81C64.03,-255.6 72.37,-242.4 83,-232.91 97.2,-220.22 115.55,-210.79 132.93,-203.95"/>
<polygon fill="black" stroke="black" points="134.3,-207.18 142.45,-200.42 131.86,-200.62 134.3,-207.18"/>
</g>
<!-- h_k -->
<g id="node3" class="node">
<title>h_k</title>
<ellipse fill="none" stroke="black" cx="242" cy="-301.38" rx="41.94" ry="37.45"/>
<text text-anchor="middle" x="242" y="-312.68" font-family="Times,serif" font-size="14.00">h_k</text>
<text text-anchor="middle" x="242" y="-297.68" font-family="Times,serif" font-size="14.00">~</text>
<text text-anchor="middle" x="242" y="-282.68" font-family="Times,serif" font-size="14.00">Normal</text>
</g>
<!-- h_k&#45;&gt;mu -->
<g id="edge1" class="edge">
<title>h_k&#45;&gt;mu</title>
<path fill="none" stroke="black" d="M225.8,-266.79C219.18,-253.08 211.54,-237.23 204.86,-223.38"/>
<polygon fill="black" stroke="black" points="207.91,-221.65 200.41,-214.16 201.61,-224.69 207.91,-221.65"/>
</g>
<!-- g_kj -->
<g id="node4" class="node">
<title>g_kj</title>
<ellipse fill="none" stroke="black" cx="350" cy="-301.38" rx="41.94" ry="37.45"/>
<text text-anchor="middle" x="350" y="-312.68" font-family="Times,serif" font-size="14.00">g_kj</text>
<text text-anchor="middle" x="350" y="-297.68" font-family="Times,serif" font-size="14.00">~</text>
<text text-anchor="middle" x="350" y="-282.68" font-family="Times,serif" font-size="14.00">Normal</text>
</g>
<!-- g_kj&#45;&gt;mu -->
<g id="edge3" class="edge">
<title>g_kj&#45;&gt;mu</title>
<path fill="none" stroke="black" d="M331.31,-267.6C322.29,-254.74 310.31,-241.13 296,-232.91 274.96,-220.82 264.61,-233.69 242,-224.91 237.85,-223.3 233.71,-221.32 229.66,-219.13"/>
<polygon fill="black" stroke="black" points="231.39,-216.08 220.99,-214.05 227.85,-222.12 231.39,-216.08"/>
</g>
<!-- D_ij -->
<g id="node5" class="node">
<title>D_ij</title>
<ellipse fill="lightgrey" stroke="black" cx="190" cy="-76.48" rx="41.94" ry="37.45"/>
<text text-anchor="middle" x="190" y="-87.78" font-family="Times,serif" font-size="14.00">D_ij</text>
<text text-anchor="middle" x="190" y="-72.78" font-family="Times,serif" font-size="14.00">~</text>
<text text-anchor="middle" x="190" y="-57.78" font-family="Times,serif" font-size="14.00">Normal</text>
</g>
<!-- mu&#45;&gt;D_ij -->
<g id="edge6" class="edge">
<title>mu&#45;&gt;D_ij</title>
<path fill="none" stroke="black" d="M188.47,-160.89C188.67,-149.98 188.91,-136.89 189.14,-124.35"/>
<polygon fill="black" stroke="black" points="192.65,-124.06 189.33,-114 185.65,-123.94 192.65,-124.06"/>
</g>
<!-- epsilon -->
<g id="node7" class="node">
<title>epsilon</title>
<ellipse fill="none" stroke="black" cx="309" cy="-187.43" rx="57.97" ry="37.45"/>
<text text-anchor="middle" x="309" y="-198.73" font-family="Times,serif" font-size="14.00">epsilon</text>
<text text-anchor="middle" x="309" y="-183.73" font-family="Times,serif" font-size="14.00">~</text>
<text text-anchor="middle" x="309" y="-168.73" font-family="Times,serif" font-size="14.00">Exponential</text>
</g>
<!-- epsilon&#45;&gt;D_ij -->
<g id="edge5" class="edge">
<title>epsilon&#45;&gt;D_ij</title>
<path fill="none" stroke="black" d="M276.17,-156.37C260.68,-142.19 242.15,-125.22 226.25,-110.66"/>
<polygon fill="black" stroke="black" points="228.42,-107.9 218.68,-103.73 223.69,-113.07 228.42,-107.9"/>
</g>
</g>
</svg>
