<?xml version="1.0" encoding="UTF-8" standalone="no"?>
<!DOCTYPE svg PUBLIC "-//W3C//DTD SVG 1.1//EN"
 "http://www.w3.org/Graphics/SVG/1.1/DTD/svg11.dtd">
<!-- Generated by graphviz version 2.42.3 (20191010.1750)
 -->
<!-- Title: %3 Pages: 1 -->
<svg width="524pt" height="399pt"
 viewBox="0.00 0.00 524.00 398.86" xmlns="http://www.w3.org/2000/svg" xmlns:xlink="http://www.w3.org/1999/xlink">
<g id="graph0" class="graph" transform="scale(1 1) rotate(0) translate(4 394.86)">
<title>%3</title>
<polygon fill="white" stroke="transparent" points="-4,4 -4,-394.86 520,-394.86 520,4 -4,4"/>
<g id="clust1" class="cluster">
<title>cluster103</title>
<path fill="none" stroke="black" d="M20,-268.91C20,-268.91 172,-268.91 172,-268.91 178,-268.91 184,-274.91 184,-280.91 184,-280.91 184,-370.86 184,-370.86 184,-376.86 178,-382.86 172,-382.86 172,-382.86 20,-382.86 20,-382.86 14,-382.86 8,-376.86 8,-370.86 8,-370.86 8,-280.91 8,-280.91 8,-274.91 14,-268.91 20,-268.91"/>
<text text-anchor="middle" x="165.5" y="-276.71" font-family="Times,serif" font-size="14.00">103</text>
</g>
<g id="clust2" class="cluster">
<title>cluster26</title>
<path fill="none" stroke="black" d="M204,-268.91C204,-268.91 280,-268.91 280,-268.91 286,-268.91 292,-274.91 292,-280.91 292,-280.91 292,-370.86 292,-370.86 292,-376.86 286,-382.86 280,-382.86 280,-382.86 204,-382.86 204,-382.86 198,-382.86 192,-376.86 192,-370.86 192,-370.86 192,-280.91 192,-280.91 192,-274.91 198,-268.91 204,-268.91"/>
<text text-anchor="middle" x="277" y="-276.71" font-family="Times,serif" font-size="14.00">26</text>
</g>
<g id="clust3" class="cluster">
<title>cluster26 x 86</title>
<path fill="none" stroke="black" d="M312,-268.91C312,-268.91 388,-268.91 388,-268.91 394,-268.91 400,-274.91 400,-280.91 400,-280.91 400,-370.86 400,-370.86 400,-376.86 394,-382.86 388,-382.86 388,-382.86 312,-382.86 312,-382.86 306,-382.86 300,-376.86 300,-370.86 300,-370.86 300,-280.91 300,-280.91 300,-274.91 306,-268.91 312,-268.91"/>
<text text-anchor="middle" x="371" y="-276.71" font-family="Times,serif" font-size="14.00">26 x 86</text>
</g>
<g id="clust4" class="cluster">
<title>cluster103 x 86</title>
<path fill="none" stroke="black" d="M420,-268.91C420,-268.91 496,-268.91 496,-268.91 502,-268.91 508,-274.91 508,-280.91 508,-280.91 508,-370.86 508,-370.86 508,-376.86 502,-382.86 496,-382.86 496,-382.86 420,-382.86 420,-382.86 414,-382.86 408,-376.86 408,-370.86 408,-370.86 408,-280.91 408,-280.91 408,-274.91 414,-268.91 420,-268.91"/>
<text text-anchor="middle" x="475.5" y="-276.71" font-family="Times,serif" font-size="14.00">103 x 86</text>
</g>
<g id="clust5" class="cluster">
<title>cluster100</title>
<path fill="none" stroke="black" d="M200,-44C200,-44 284,-44 284,-44 290,-44 296,-50 296,-56 296,-56 296,-245.93 296,-245.93 296,-251.93 290,-257.93 284,-257.93 284,-257.93 200,-257.93 200,-257.93 194,-257.93 188,-251.93 188,-245.93 188,-245.93 188,-56 188,-56 188,-50 194,-44 200,-44"/>
<text text-anchor="middle" x="277.5" y="-51.8" font-family="Times,serif" font-size="14.00">100</text>
</g>
<!-- o_i -->
<g id="node1" class="node">
<title>o_i</title>
<ellipse fill="none" stroke="black" cx="134" cy="-337.38" rx="41.94" ry="37.45"/>
<text text-anchor="middle" x="134" y="-348.68" font-family="Times,serif" font-size="14.00">o_i</text>
<text text-anchor="middle" x="134" y="-333.68" font-family="Times,serif" font-size="14.00">~</text>
<text text-anchor="middle" x="134" y="-318.68" font-family="Times,serif" font-size="14.00">Normal</text>
</g>
<!-- mu -->
<g id="node6" class="node">
<title>mu</title>
<polygon fill="none" stroke="black" points="287.5,-249.93 196.5,-249.93 196.5,-196.93 287.5,-196.93 287.5,-249.93"/>
<text text-anchor="middle" x="242" y="-234.73" font-family="Times,serif" font-size="14.00">mu</text>
<text text-anchor="middle" x="242" y="-219.73" font-family="Times,serif" font-size="14.00">~</text>
<text text-anchor="middle" x="242" y="-204.73" font-family="Times,serif" font-size="14.00">Deterministic</text>
</g>
<!-- o_i&#45;&gt;mu -->
<g id="edge3" class="edge">
<title>o_i&#45;&gt;mu</title>
<path fill="none" stroke="black" d="M156.39,-305.7C165.66,-293.75 176.83,-280.23 188,-268.91 192.1,-264.75 196.56,-260.59 201.1,-256.57"/>
<polygon fill="black" stroke="black" points="203.48,-259.14 208.78,-249.96 198.92,-253.83 203.48,-259.14"/>
</g>
<!-- q_i -->
<g id="node2" class="node">
<title>q_i</title>
<ellipse fill="none" stroke="black" cx="45" cy="-337.38" rx="28.98" ry="37.45"/>
<text text-anchor="middle" x="45" y="-348.68" font-family="Times,serif" font-size="14.00">q_i</text>
<text text-anchor="middle" x="45" y="-333.68" font-family="Times,serif" font-size="14.00">~</text>
<text text-anchor="middle" x="45" y="-318.68" font-family="Times,serif" font-size="14.00">Beta</text>
</g>
<!-- q_i&#45;&gt;mu -->
<g id="edge2" class="edge">
<title>q_i&#45;&gt;mu</title>
<path fill="none" stroke="black" d="M57.3,-303.09C63.35,-290.79 71.79,-277.7 83,-268.91 112.53,-245.73 153.45,-234.63 186.39,-229.31"/>
<polygon fill="black" stroke="black" points="186.95,-232.77 196.33,-227.84 185.93,-225.84 186.95,-232.77"/>
</g>
<!-- h_k -->
<g id="node3" class="node">
<title>h_k</title>
<ellipse fill="none" stroke="black" cx="242" cy="-337.38" rx="41.94" ry="37.45"/>
<text text-anchor="middle" x="242" y="-348.68" font-family="Times,serif" font-size="14.00">h_k</text>
<text text-anchor="middle" x="242" y="-333.68" font-family="Times,serif" font-size="14.00">~</text>
<text text-anchor="middle" x="242" y="-318.68" font-family="Times,serif" font-size="14.00">Normal</text>
</g>
<!-- h_k&#45;&gt;mu -->
<g id="edge5" class="edge">
<title>h_k&#45;&gt;mu</title>
<path fill="none" stroke="black" d="M242,-299.73C242,-287.07 242,-272.92 242,-260.32"/>
<polygon fill="black" stroke="black" points="245.5,-260.18 242,-250.18 238.5,-260.18 245.5,-260.18"/>
</g>
<!-- g_kj -->
<g id="node4" class="node">
<title>g_kj</title>
<ellipse fill="none" stroke="black" cx="350" cy="-337.38" rx="41.94" ry="37.45"/>
<text text-anchor="middle" x="350" y="-348.68" font-family="Times,serif" font-size="14.00">g_kj</text>
<text text-anchor="middle" x="350" y="-333.68" font-family="Times,serif" font-size="14.00">~</text>
<text text-anchor="middle" x="350" y="-318.68" font-family="Times,serif" font-size="14.00">Normal</text>
</g>
<!-- g_kj&#45;&gt;mu -->
<g id="edge4" class="edge">
<title>g_kj&#45;&gt;mu</title>
<path fill="none" stroke="black" d="M327.61,-305.7C318.34,-293.75 307.17,-280.23 296,-268.91 291.9,-264.75 287.44,-260.59 282.9,-256.57"/>
<polygon fill="black" stroke="black" points="285.08,-253.83 275.22,-249.96 280.52,-259.14 285.08,-253.83"/>
</g>
<!-- beta_ij -->
<g id="node5" class="node">
<title>beta_ij</title>
<ellipse fill="none" stroke="black" cx="458" cy="-337.38" rx="41.94" ry="37.45"/>
<text text-anchor="middle" x="458" y="-348.68" font-family="Times,serif" font-size="14.00">beta_ij</text>
<text text-anchor="middle" x="458" y="-333.68" font-family="Times,serif" font-size="14.00">~</text>
<text text-anchor="middle" x="458" y="-318.68" font-family="Times,serif" font-size="14.00">Normal</text>
</g>
<!-- beta_ij&#45;&gt;mu -->
<g id="edge1" class="edge">
<title>beta_ij&#45;&gt;mu</title>
<path fill="none" stroke="black" d="M439.83,-303.43C430.84,-290.39 418.73,-276.67 404,-268.91 382.71,-257.69 318.74,-268.8 296,-260.91 291.67,-259.41 287.37,-257.47 283.18,-255.27"/>
<polygon fill="black" stroke="black" points="284.66,-252.08 274.25,-250.1 281.15,-258.14 284.66,-252.08"/>
</g>
<!-- D_ij -->
<g id="node7" class="node">
<title>D_ij</title>
<ellipse fill="lightgrey" stroke="black" cx="244" cy="-112.48" rx="41.94" ry="37.45"/>
<text text-anchor="middle" x="244" y="-123.78" font-family="Times,serif" font-size="14.00">D_ij</text>
<text text-anchor="middle" x="244" y="-108.78" font-family="Times,serif" font-size="14.00">~</text>
<text text-anchor="middle" x="244" y="-93.78" font-family="Times,serif" font-size="14.00">Normal</text>
</g>
<!-- mu&#45;&gt;D_ij -->
<g id="edge6" class="edge">
<title>mu&#45;&gt;D_ij</title>
<path fill="none" stroke="black" d="M242.47,-196.89C242.67,-185.98 242.91,-172.89 243.14,-160.35"/>
<polygon fill="black" stroke="black" points="246.65,-160.06 243.33,-150 239.65,-159.94 246.65,-160.06"/>
</g>
<!-- Minibatch -->
<g id="node9" class="node">
<title>Minibatch</title>
<ellipse fill="none" stroke="black" cx="244" cy="-18" rx="47.39" ry="18"/>
<text text-anchor="middle" x="244" y="-14.3" font-family="Times,serif" font-size="14.00">Minibatch</text>
</g>
<!-- D_ij&#45;&gt;Minibatch -->
<g id="edge8" class="edge">
<title>D_ij&#45;&gt;Minibatch</title>
<path fill="none" stroke="black" d="M244,-74.93C244,-65.45 244,-55.41 244,-46.49"/>
<polygon fill="black" stroke="black" points="247.5,-46.27 244,-36.27 240.5,-46.27 247.5,-46.27"/>
</g>
<!-- epsilon -->
<g id="node8" class="node">
<title>epsilon</title>
<ellipse fill="none" stroke="black" cx="363" cy="-223.43" rx="57.97" ry="37.45"/>
<text text-anchor="middle" x="363" y="-234.73" font-family="Times,serif" font-size="14.00">epsilon</text>
<text text-anchor="middle" x="363" y="-219.73" font-family="Times,serif" font-size="14.00">~</text>
<text text-anchor="middle" x="363" y="-204.73" font-family="Times,serif" font-size="14.00">Exponential</text>
</g>
<!-- epsilon&#45;&gt;D_ij -->
<g id="edge7" class="edge">
<title>epsilon&#45;&gt;D_ij</title>
<path fill="none" stroke="black" d="M330.17,-192.37C314.68,-178.19 296.15,-161.22 280.25,-146.66"/>
<polygon fill="black" stroke="black" points="282.42,-143.9 272.68,-139.73 277.69,-149.07 282.42,-143.9"/>
</g>
</g>
</svg>
