<?xml version="1.0" encoding="UTF-8" standalone="no"?>
<!DOCTYPE svg PUBLIC "-//W3C//DTD SVG 1.1//EN"
 "http://www.w3.org/Graphics/SVG/1.1/DTD/svg11.dtd">
<!-- Generated by graphviz version 2.42.3 (20191010.1750)
 -->
<!-- Title: %3 Pages: 1 -->
<svg width="416pt" height="363pt"
 viewBox="0.00 0.00 416.00 362.86" xmlns="http://www.w3.org/2000/svg" xmlns:xlink="http://www.w3.org/1999/xlink">
<g id="graph0" class="graph" transform="scale(1 1) rotate(0) translate(4 358.86)">
<title>%3</title>
<polygon fill="white" stroke="transparent" points="-4,4 -4,-358.86 412,-358.86 412,4 -4,4"/>
<g id="clust1" class="cluster">
<title>cluster103</title>
<path fill="none" stroke="black" d="M20,-232.91C20,-232.91 172,-232.91 172,-232.91 178,-232.91 184,-238.91 184,-244.91 184,-244.91 184,-334.86 184,-334.86 184,-340.86 178,-346.86 172,-346.86 172,-346.86 20,-346.86 20,-346.86 14,-346.86 8,-340.86 8,-334.86 8,-334.86 8,-244.91 8,-244.91 8,-238.91 14,-232.91 20,-232.91"/>
<text text-anchor="middle" x="165.5" y="-240.71" font-family="Times,serif" font-size="14.00">103</text>
</g>
<g id="clust2" class="cluster">
<title>cluster26</title>
<path fill="none" stroke="black" d="M204,-232.91C204,-232.91 280,-232.91 280,-232.91 286,-232.91 292,-238.91 292,-244.91 292,-244.91 292,-334.86 292,-334.86 292,-340.86 286,-346.86 280,-346.86 280,-346.86 204,-346.86 204,-346.86 198,-346.86 192,-340.86 192,-334.86 192,-334.86 192,-244.91 192,-244.91 192,-238.91 198,-232.91 204,-232.91"/>
<text text-anchor="middle" x="277" y="-240.71" font-family="Times,serif" font-size="14.00">26</text>
</g>
<g id="clust3" class="cluster">
<title>cluster26 x 86</title>
<path fill="none" stroke="black" d="M312,-232.91C312,-232.91 388,-232.91 388,-232.91 394,-232.91 400,-238.91 400,-244.91 400,-244.91 400,-334.86 400,-334.86 400,-340.86 394,-346.86 388,-346.86 388,-346.86 312,-346.86 312,-346.86 306,-346.86 300,-340.86 300,-334.86 300,-334.86 300,-244.91 300,-244.91 300,-238.91 306,-232.91 312,-232.91"/>
<text text-anchor="middle" x="371" y="-240.71" font-family="Times,serif" font-size="14.00">26 x 86</text>
</g>
<g id="clust4" class="cluster">
<title>cluster19,982</title>
<path fill="none" stroke="black" d="M152,-8C152,-8 236,-8 236,-8 242,-8 248,-14 248,-20 248,-20 248,-209.93 248,-209.93 248,-215.93 242,-221.93 236,-221.93 236,-221.93 152,-221.93 152,-221.93 146,-221.93 140,-215.93 140,-209.93 140,-209.93 140,-20 140,-20 140,-14 146,-8 152,-8"/>
<text text-anchor="middle" x="221" y="-15.8" font-family="Times,serif" font-size="14.00">19,982</text>
</g>
<!-- q_i -->
<g id="node1" class="node">
<title>q_i</title>
<ellipse fill="none" stroke="black" cx="147" cy="-301.38" rx="28.98" ry="37.45"/>
<text text-anchor="middle" x="147" y="-312.68" font-family="Times,serif" font-size="14.00">q_i</text>
<text text-anchor="middle" x="147" y="-297.68" font-family="Times,serif" font-size="14.00">~</text>
<text text-anchor="middle" x="147" y="-282.68" font-family="Times,serif" font-size="14.00">Beta</text>
</g>
<!-- mu -->
<g id="node5" class="node">
<title>mu</title>
<polygon fill="none" stroke="black" points="239.5,-213.93 148.5,-213.93 148.5,-160.93 239.5,-160.93 239.5,-213.93"/>
<text text-anchor="middle" x="194" y="-198.73" font-family="Times,serif" font-size="14.00">mu</text>
<text text-anchor="middle" x="194" y="-183.73" font-family="Times,serif" font-size="14.00">~</text>
<text text-anchor="middle" x="194" y="-168.73" font-family="Times,serif" font-size="14.00">Deterministic</text>
</g>
<!-- q_i&#45;&gt;mu -->
<g id="edge1" class="edge">
<title>q_i&#45;&gt;mu</title>
<path fill="none" stroke="black" d="M160.59,-268C166.45,-254.04 173.32,-237.69 179.3,-223.45"/>
<polygon fill="black" stroke="black" points="182.63,-224.56 183.27,-213.99 176.17,-221.85 182.63,-224.56"/>
</g>
<!-- o_i -->
<g id="node2" class="node">
<title>o_i</title>
<ellipse fill="none" stroke="black" cx="58" cy="-301.38" rx="41.94" ry="37.45"/>
<text text-anchor="middle" x="58" y="-312.68" font-family="Times,serif" font-size="14.00">o_i</text>
<text text-anchor="middle" x="58" y="-297.68" font-family="Times,serif" font-size="14.00">~</text>
<text text-anchor="middle" x="58" y="-282.68" font-family="Times,serif" font-size="14.00">Normal</text>
</g>
<!-- o_i&#45;&gt;mu -->
<g id="edge4" class="edge">
<title>o_i&#45;&gt;mu</title>
<path fill="none" stroke="black" d="M78.02,-268.05C86.54,-256.02 97.24,-242.87 109,-232.91 118.13,-225.17 128.84,-218.27 139.51,-212.35"/>
<polygon fill="black" stroke="black" points="141.25,-215.39 148.44,-207.61 137.96,-209.21 141.25,-215.39"/>
</g>
<!-- h_k -->
<g id="node3" class="node">
<title>h_k</title>
<ellipse fill="none" stroke="black" cx="242" cy="-301.38" rx="41.94" ry="37.45"/>
<text text-anchor="middle" x="242" y="-312.68" font-family="Times,serif" font-size="14.00">h_k</text>
<text text-anchor="middle" x="242" y="-297.68" font-family="Times,serif" font-size="14.00">~</text>
<text text-anchor="middle" x="242" y="-282.68" font-family="Times,serif" font-size="14.00">Normal</text>
</g>
<!-- h_k&#45;&gt;mu -->
<g id="edge3" class="edge">
<title>h_k&#45;&gt;mu</title>
<path fill="none" stroke="black" d="M227.34,-266.19C221.57,-252.73 214.95,-237.29 209.14,-223.73"/>
<polygon fill="black" stroke="black" points="212.23,-222.06 205.07,-214.25 205.79,-224.82 212.23,-222.06"/>
</g>
<!-- g_kj -->
<g id="node4" class="node">
<title>g_kj</title>
<ellipse fill="none" stroke="black" cx="350" cy="-301.38" rx="41.94" ry="37.45"/>
<text text-anchor="middle" x="350" y="-312.68" font-family="Times,serif" font-size="14.00">g_kj</text>
<text text-anchor="middle" x="350" y="-297.68" font-family="Times,serif" font-size="14.00">~</text>
<text text-anchor="middle" x="350" y="-282.68" font-family="Times,serif" font-size="14.00">Normal</text>
</g>
<!-- g_kj&#45;&gt;mu -->
<g id="edge2" class="edge">
<title>g_kj&#45;&gt;mu</title>
<path fill="none" stroke="black" d="M331.23,-267.72C322.21,-254.89 310.24,-241.26 296,-232.91 277.35,-221.96 268.09,-232.92 248,-224.91 243.87,-223.26 239.73,-221.26 235.69,-219.05"/>
<polygon fill="black" stroke="black" points="237.42,-216.01 227.03,-213.94 233.87,-222.04 237.42,-216.01"/>
</g>
<!-- D_ij -->
<g id="node6" class="node">
<title>D_ij</title>
<ellipse fill="lightgrey" stroke="black" cx="196" cy="-76.48" rx="41.94" ry="37.45"/>
<text text-anchor="middle" x="196" y="-87.78" font-family="Times,serif" font-size="14.00">D_ij</text>
<text text-anchor="middle" x="196" y="-72.78" font-family="Times,serif" font-size="14.00">~</text>
<text text-anchor="middle" x="196" y="-57.78" font-family="Times,serif" font-size="14.00">Normal</text>
</g>
<!-- mu&#45;&gt;D_ij -->
<g id="edge6" class="edge">
<title>mu&#45;&gt;D_ij</title>
<path fill="none" stroke="black" d="M194.47,-160.89C194.67,-149.98 194.91,-136.89 195.14,-124.35"/>
<polygon fill="black" stroke="black" points="198.65,-124.06 195.33,-114 191.65,-123.94 198.65,-124.06"/>
</g>
<!-- epsilon -->
<g id="node7" class="node">
<title>epsilon</title>
<ellipse fill="none" stroke="black" cx="315" cy="-187.43" rx="57.97" ry="37.45"/>
<text text-anchor="middle" x="315" y="-198.73" font-family="Times,serif" font-size="14.00">epsilon</text>
<text text-anchor="middle" x="315" y="-183.73" font-family="Times,serif" font-size="14.00">~</text>
<text text-anchor="middle" x="315" y="-168.73" font-family="Times,serif" font-size="14.00">Exponential</text>
</g>
<!-- epsilon&#45;&gt;D_ij -->
<g id="edge5" class="edge">
<title>epsilon&#45;&gt;D_ij</title>
<path fill="none" stroke="black" d="M282.17,-156.37C266.68,-142.19 248.15,-125.22 232.25,-110.66"/>
<polygon fill="black" stroke="black" points="234.42,-107.9 224.68,-103.73 229.69,-113.07 234.42,-107.9"/>
</g>
</g>
</svg>
