<?xml version="1.0" encoding="UTF-8" standalone="no"?>
<!DOCTYPE svg PUBLIC "-//W3C//DTD SVG 1.1//EN"
 "http://www.w3.org/Graphics/SVG/1.1/DTD/svg11.dtd">
<!-- Generated by graphviz version 2.42.3 (20191010.1750)
 -->
<!-- Title: %3 Pages: 1 -->
<svg width="698pt" height="580pt"
 viewBox="0.00 0.00 698.44 579.77" xmlns="http://www.w3.org/2000/svg" xmlns:xlink="http://www.w3.org/1999/xlink">
<g id="graph0" class="graph" transform="scale(1 1) rotate(0) translate(4 575.77)">
<title>%3</title>
<polygon fill="white" stroke="transparent" points="-4,4 -4,-575.77 694.44,-575.77 694.44,4 -4,4"/>
<g id="clust1" class="cluster">
<title>cluster100</title>
<path fill="none" stroke="black" d="M239.72,-354.86C239.72,-354.86 450.72,-354.86 450.72,-354.86 456.72,-354.86 462.72,-360.86 462.72,-366.86 462.72,-366.86 462.72,-456.81 462.72,-456.81 462.72,-462.81 456.72,-468.81 450.72,-468.81 450.72,-468.81 239.72,-468.81 239.72,-468.81 233.72,-468.81 227.72,-462.81 227.72,-456.81 227.72,-456.81 227.72,-366.86 227.72,-366.86 227.72,-360.86 233.72,-354.86 239.72,-354.86"/>
<text text-anchor="middle" x="444.22" y="-362.66" font-family="Times,serif" font-size="14.00">100</text>
</g>
<g id="clust2" class="cluster">
<title>cluster395</title>
<path fill="none" stroke="black" d="M298.72,-232.91C298.72,-232.91 374.72,-232.91 374.72,-232.91 380.72,-232.91 386.72,-238.91 386.72,-244.91 386.72,-244.91 386.72,-334.86 386.72,-334.86 386.72,-340.86 380.72,-346.86 374.72,-346.86 374.72,-346.86 298.72,-346.86 298.72,-346.86 292.72,-346.86 286.72,-340.86 286.72,-334.86 286.72,-334.86 286.72,-244.91 286.72,-244.91 286.72,-238.91 292.72,-232.91 298.72,-232.91"/>
<text text-anchor="middle" x="368.22" y="-240.71" font-family="Times,serif" font-size="14.00">395</text>
</g>
<g id="clust3" class="cluster">
<title>cluster36</title>
<path fill="none" stroke="black" d="M121.72,-232.91C121.72,-232.91 197.72,-232.91 197.72,-232.91 203.72,-232.91 209.72,-238.91 209.72,-244.91 209.72,-244.91 209.72,-334.86 209.72,-334.86 209.72,-340.86 203.72,-346.86 197.72,-346.86 197.72,-346.86 121.72,-346.86 121.72,-346.86 115.72,-346.86 109.72,-340.86 109.72,-334.86 109.72,-334.86 109.72,-244.91 109.72,-244.91 109.72,-238.91 115.72,-232.91 121.72,-232.91"/>
<text text-anchor="middle" x="194.72" y="-240.71" font-family="Times,serif" font-size="14.00">36</text>
</g>
<g id="clust4" class="cluster">
<title>cluster2</title>
<path fill="none" stroke="black" d="M492.72,-232.91C492.72,-232.91 568.72,-232.91 568.72,-232.91 574.72,-232.91 580.72,-238.91 580.72,-244.91 580.72,-244.91 580.72,-334.86 580.72,-334.86 580.72,-340.86 574.72,-346.86 568.72,-346.86 568.72,-346.86 492.72,-346.86 492.72,-346.86 486.72,-346.86 480.72,-340.86 480.72,-334.86 480.72,-334.86 480.72,-244.91 480.72,-244.91 480.72,-238.91 486.72,-232.91 492.72,-232.91"/>
<text text-anchor="middle" x="569.22" y="-240.71" font-family="Times,serif" font-size="14.00">2</text>
</g>
<g id="clust5" class="cluster">
<title>cluster34,760</title>
<path fill="none" stroke="black" d="M294.72,-8C294.72,-8 378.72,-8 378.72,-8 384.72,-8 390.72,-14 390.72,-20 390.72,-20 390.72,-209.93 390.72,-209.93 390.72,-215.93 384.72,-221.93 378.72,-221.93 378.72,-221.93 294.72,-221.93 294.72,-221.93 288.72,-221.93 282.72,-215.93 282.72,-209.93 282.72,-209.93 282.72,-20 282.72,-20 282.72,-14 288.72,-8 294.72,-8"/>
<text text-anchor="middle" x="363.72" y="-15.8" font-family="Times,serif" font-size="14.00">34,760</text>
</g>
<!-- μ_β -->
<g id="node1" class="node">
<title>μ_β</title>
<ellipse fill="none" stroke="black" cx="41.72" cy="-423.34" rx="41.94" ry="37.45"/>
<text text-anchor="middle" x="41.72" y="-434.64" font-family="Times,serif" font-size="14.00">μ_β</text>
<text text-anchor="middle" x="41.72" y="-419.64" font-family="Times,serif" font-size="14.00">~</text>
<text text-anchor="middle" x="41.72" y="-404.64" font-family="Times,serif" font-size="14.00">Normal</text>
</g>
<!-- β_l -->
<g id="node12" class="node">
<title>β_l</title>
<ellipse fill="none" stroke="black" cx="159.72" cy="-301.38" rx="41.94" ry="37.45"/>
<text text-anchor="middle" x="159.72" y="-312.68" font-family="Times,serif" font-size="14.00">β_l</text>
<text text-anchor="middle" x="159.72" y="-297.68" font-family="Times,serif" font-size="14.00">~</text>
<text text-anchor="middle" x="159.72" y="-282.68" font-family="Times,serif" font-size="14.00">Normal</text>
</g>
<!-- μ_β&#45;&gt;β_l -->
<g id="edge6" class="edge">
<title>μ_β&#45;&gt;β_l</title>
<path fill="none" stroke="black" d="M62.44,-390.67C70.86,-378.85 81.1,-365.69 91.72,-354.86 99.96,-346.46 109.57,-338.25 118.94,-330.92"/>
<polygon fill="black" stroke="black" points="121.24,-333.57 127.06,-324.72 116.99,-328 121.24,-333.57"/>
</g>
<!-- μ_g -->
<g id="node2" class="node">
<title>μ_g</title>
<ellipse fill="none" stroke="black" cx="159.72" cy="-534.29" rx="41.94" ry="37.45"/>
<text text-anchor="middle" x="159.72" y="-545.59" font-family="Times,serif" font-size="14.00">μ_g</text>
<text text-anchor="middle" x="159.72" y="-530.59" font-family="Times,serif" font-size="14.00">~</text>
<text text-anchor="middle" x="159.72" y="-515.59" font-family="Times,serif" font-size="14.00">Normal</text>
</g>
<!-- μ_α -->
<g id="node9" class="node">
<title>μ_α</title>
<ellipse fill="none" stroke="black" cx="277.72" cy="-423.34" rx="41.94" ry="37.45"/>
<text text-anchor="middle" x="277.72" y="-434.64" font-family="Times,serif" font-size="14.00">μ_α</text>
<text text-anchor="middle" x="277.72" y="-419.64" font-family="Times,serif" font-size="14.00">~</text>
<text text-anchor="middle" x="277.72" y="-404.64" font-family="Times,serif" font-size="14.00">Normal</text>
</g>
<!-- μ_g&#45;&gt;μ_α -->
<g id="edge1" class="edge">
<title>μ_g&#45;&gt;μ_α</title>
<path fill="none" stroke="black" d="M188.28,-506.92C204.25,-492.17 224.32,-473.64 241.4,-457.87"/>
<polygon fill="black" stroke="black" points="244.04,-460.2 249.01,-450.85 239.29,-455.06 244.04,-460.2"/>
</g>
<!-- σ_η -->
<g id="node3" class="node">
<title>σ_η</title>
<ellipse fill="none" stroke="black" cx="530.72" cy="-423.34" rx="58.88" ry="37.45"/>
<text text-anchor="middle" x="530.72" y="-434.64" font-family="Times,serif" font-size="14.00">σ_η</text>
<text text-anchor="middle" x="530.72" y="-419.64" font-family="Times,serif" font-size="14.00">~</text>
<text text-anchor="middle" x="530.72" y="-404.64" font-family="Times,serif" font-size="14.00">HalfNormal</text>
</g>
<!-- η_b -->
<g id="node13" class="node">
<title>η_b</title>
<ellipse fill="none" stroke="black" cx="530.72" cy="-301.38" rx="41.94" ry="37.45"/>
<text text-anchor="middle" x="530.72" y="-312.68" font-family="Times,serif" font-size="14.00">η_b</text>
<text text-anchor="middle" x="530.72" y="-297.68" font-family="Times,serif" font-size="14.00">~</text>
<text text-anchor="middle" x="530.72" y="-282.68" font-family="Times,serif" font-size="14.00">Normal</text>
</g>
<!-- σ_η&#45;&gt;η_b -->
<g id="edge8" class="edge">
<title>σ_η&#45;&gt;η_b</title>
<path fill="none" stroke="black" d="M530.72,-385.69C530.72,-374.29 530.72,-361.55 530.72,-349.54"/>
<polygon fill="black" stroke="black" points="534.22,-349.21 530.72,-339.21 527.22,-349.21 534.22,-349.21"/>
</g>
<!-- σ_g -->
<g id="node4" class="node">
<title>σ_g</title>
<ellipse fill="none" stroke="black" cx="277.72" cy="-534.29" rx="58.88" ry="37.45"/>
<text text-anchor="middle" x="277.72" y="-545.59" font-family="Times,serif" font-size="14.00">σ_g</text>
<text text-anchor="middle" x="277.72" y="-530.59" font-family="Times,serif" font-size="14.00">~</text>
<text text-anchor="middle" x="277.72" y="-515.59" font-family="Times,serif" font-size="14.00">HalfNormal</text>
</g>
<!-- σ_g&#45;&gt;μ_α -->
<g id="edge2" class="edge">
<title>σ_g&#45;&gt;μ_α</title>
<path fill="none" stroke="black" d="M277.72,-496.71C277.72,-488.53 277.72,-479.75 277.72,-471.23"/>
<polygon fill="black" stroke="black" points="281.22,-471.01 277.72,-461.01 274.22,-471.01 281.22,-471.01"/>
</g>
<!-- μ_η -->
<g id="node5" class="node">
<title>μ_η</title>
<ellipse fill="none" stroke="black" cx="648.72" cy="-423.34" rx="41.94" ry="37.45"/>
<text text-anchor="middle" x="648.72" y="-434.64" font-family="Times,serif" font-size="14.00">μ_η</text>
<text text-anchor="middle" x="648.72" y="-419.64" font-family="Times,serif" font-size="14.00">~</text>
<text text-anchor="middle" x="648.72" y="-404.64" font-family="Times,serif" font-size="14.00">Normal</text>
</g>
<!-- μ_η&#45;&gt;η_b -->
<g id="edge9" class="edge">
<title>μ_η&#45;&gt;η_b</title>
<path fill="none" stroke="black" d="M628,-390.67C619.58,-378.85 609.34,-365.69 598.72,-354.86 590.48,-346.46 580.86,-338.25 571.5,-330.92"/>
<polygon fill="black" stroke="black" points="573.45,-328 563.37,-324.72 569.2,-333.57 573.45,-328"/>
</g>
<!-- σ -->
<g id="node6" class="node">
<title>σ</title>
<ellipse fill="none" stroke="black" cx="458.72" cy="-187.43" rx="58.88" ry="37.45"/>
<text text-anchor="middle" x="458.72" y="-198.73" font-family="Times,serif" font-size="14.00">σ</text>
<text text-anchor="middle" x="458.72" y="-183.73" font-family="Times,serif" font-size="14.00">~</text>
<text text-anchor="middle" x="458.72" y="-168.73" font-family="Times,serif" font-size="14.00">HalfNormal</text>
</g>
<!-- lfc -->
<g id="node14" class="node">
<title>lfc</title>
<ellipse fill="lightgrey" stroke="black" cx="338.72" cy="-76.48" rx="41.94" ry="37.45"/>
<text text-anchor="middle" x="338.72" y="-87.78" font-family="Times,serif" font-size="14.00">lfc</text>
<text text-anchor="middle" x="338.72" y="-72.78" font-family="Times,serif" font-size="14.00">~</text>
<text text-anchor="middle" x="338.72" y="-57.78" font-family="Times,serif" font-size="14.00">Normal</text>
</g>
<!-- σ&#45;&gt;lfc -->
<g id="edge14" class="edge">
<title>σ&#45;&gt;lfc</title>
<path fill="none" stroke="black" d="M425.61,-156.37C409.99,-142.19 391.31,-125.22 375.27,-110.66"/>
<polygon fill="black" stroke="black" points="377.39,-107.86 367.64,-103.73 372.69,-113.05 377.39,-107.86"/>
</g>
<!-- σ_σ_α -->
<g id="node7" class="node">
<title>σ_σ_α</title>
<ellipse fill="none" stroke="black" cx="412.72" cy="-534.29" rx="58.88" ry="37.45"/>
<text text-anchor="middle" x="412.72" y="-545.59" font-family="Times,serif" font-size="14.00">σ_σ_α</text>
<text text-anchor="middle" x="412.72" y="-530.59" font-family="Times,serif" font-size="14.00">~</text>
<text text-anchor="middle" x="412.72" y="-515.59" font-family="Times,serif" font-size="14.00">HalfNormal</text>
</g>
<!-- σ_α -->
<g id="node10" class="node">
<title>σ_α</title>
<ellipse fill="none" stroke="black" cx="395.72" cy="-423.34" rx="58.88" ry="37.45"/>
<text text-anchor="middle" x="395.72" y="-434.64" font-family="Times,serif" font-size="14.00">σ_α</text>
<text text-anchor="middle" x="395.72" y="-419.64" font-family="Times,serif" font-size="14.00">~</text>
<text text-anchor="middle" x="395.72" y="-404.64" font-family="Times,serif" font-size="14.00">HalfNormal</text>
</g>
<!-- σ_σ_α&#45;&gt;σ_α -->
<g id="edge3" class="edge">
<title>σ_σ_α&#45;&gt;σ_α</title>
<path fill="none" stroke="black" d="M407.01,-496.71C405.72,-488.44 404.34,-479.56 402.99,-470.95"/>
<polygon fill="black" stroke="black" points="406.44,-470.35 401.44,-461.01 399.52,-471.43 406.44,-470.35"/>
</g>
<!-- σ_β -->
<g id="node8" class="node">
<title>σ_β</title>
<ellipse fill="none" stroke="black" cx="159.72" cy="-423.34" rx="58.88" ry="37.45"/>
<text text-anchor="middle" x="159.72" y="-434.64" font-family="Times,serif" font-size="14.00">σ_β</text>
<text text-anchor="middle" x="159.72" y="-419.64" font-family="Times,serif" font-size="14.00">~</text>
<text text-anchor="middle" x="159.72" y="-404.64" font-family="Times,serif" font-size="14.00">HalfNormal</text>
</g>
<!-- σ_β&#45;&gt;β_l -->
<g id="edge7" class="edge">
<title>σ_β&#45;&gt;β_l</title>
<path fill="none" stroke="black" d="M159.72,-385.69C159.72,-374.29 159.72,-361.55 159.72,-349.54"/>
<polygon fill="black" stroke="black" points="163.22,-349.21 159.72,-339.21 156.22,-349.21 163.22,-349.21"/>
</g>
<!-- α_s -->
<g id="node11" class="node">
<title>α_s</title>
<ellipse fill="none" stroke="black" cx="336.72" cy="-301.38" rx="41.94" ry="37.45"/>
<text text-anchor="middle" x="336.72" y="-312.68" font-family="Times,serif" font-size="14.00">α_s</text>
<text text-anchor="middle" x="336.72" y="-297.68" font-family="Times,serif" font-size="14.00">~</text>
<text text-anchor="middle" x="336.72" y="-282.68" font-family="Times,serif" font-size="14.00">Normal</text>
</g>
<!-- μ_α&#45;&gt;α_s -->
<g id="edge4" class="edge">
<title>μ_α&#45;&gt;α_s</title>
<path fill="none" stroke="black" d="M294.31,-388.6C300.97,-375.07 308.71,-359.33 315.75,-345.02"/>
<polygon fill="black" stroke="black" points="318.98,-346.38 320.25,-335.86 312.7,-343.29 318.98,-346.38"/>
</g>
<!-- σ_α&#45;&gt;α_s -->
<g id="edge5" class="edge">
<title>σ_α&#45;&gt;α_s</title>
<path fill="none" stroke="black" d="M378.5,-387.32C372.03,-374.17 364.6,-359.08 357.82,-345.29"/>
<polygon fill="black" stroke="black" points="360.81,-343.43 353.25,-336 354.53,-346.52 360.81,-343.43"/>
</g>
<!-- μ -->
<g id="node15" class="node">
<title>μ</title>
<polygon fill="none" stroke="black" points="382.22,-213.93 291.22,-213.93 291.22,-160.93 382.22,-160.93 382.22,-213.93"/>
<text text-anchor="middle" x="336.72" y="-198.73" font-family="Times,serif" font-size="14.00">μ</text>
<text text-anchor="middle" x="336.72" y="-183.73" font-family="Times,serif" font-size="14.00">~</text>
<text text-anchor="middle" x="336.72" y="-168.73" font-family="Times,serif" font-size="14.00">Deterministic</text>
</g>
<!-- α_s&#45;&gt;μ -->
<g id="edge12" class="edge">
<title>α_s&#45;&gt;μ</title>
<path fill="none" stroke="black" d="M336.72,-263.73C336.72,-251.07 336.72,-236.92 336.72,-224.32"/>
<polygon fill="black" stroke="black" points="340.22,-224.18 336.72,-214.18 333.22,-224.18 340.22,-224.18"/>
</g>
<!-- β_l&#45;&gt;μ -->
<g id="edge11" class="edge">
<title>β_l&#45;&gt;μ</title>
<path fill="none" stroke="black" d="M193.43,-279.06C220.09,-262.2 257.68,-238.43 287.67,-219.46"/>
<polygon fill="black" stroke="black" points="289.73,-222.29 296.31,-213.99 285.99,-216.38 289.73,-222.29"/>
</g>
<!-- η_b&#45;&gt;μ -->
<g id="edge10" class="edge">
<title>η_b&#45;&gt;μ</title>
<path fill="none" stroke="black" d="M494.78,-282.27C466.17,-267.54 425.33,-245.85 390.72,-224.91 387.91,-223.21 385.05,-221.43 382.18,-219.6"/>
<polygon fill="black" stroke="black" points="383.88,-216.54 373.59,-214.04 380.08,-222.41 383.88,-216.54"/>
</g>
<!-- μ&#45;&gt;lfc -->
<g id="edge13" class="edge">
<title>μ&#45;&gt;lfc</title>
<path fill="none" stroke="black" d="M337.19,-160.89C337.39,-149.98 337.63,-136.89 337.86,-124.35"/>
<polygon fill="black" stroke="black" points="341.36,-124.06 338.05,-114 334.37,-123.94 341.36,-124.06"/>
</g>
</g>
</svg>
