<?xml version="1.0" encoding="UTF-8" standalone="no"?>
<!DOCTYPE svg PUBLIC "-//W3C//DTD SVG 1.1//EN"
 "http://www.w3.org/Graphics/SVG/1.1/DTD/svg11.dtd">
<!-- Generated by graphviz version 2.46.1 (20210222.2046)
 -->
<!-- Pages: 1 -->
<svg width="807pt" height="580pt"
 viewBox="0.00 0.00 806.59 579.77" xmlns="http://www.w3.org/2000/svg" xmlns:xlink="http://www.w3.org/1999/xlink">
<g id="graph0" class="graph" transform="scale(1 1) rotate(0) translate(4 575.77)">
<polygon fill="white" stroke="transparent" points="-4,4 -4,-575.77 802.59,-575.77 802.59,4 -4,4"/>
<g id="clust1" class="cluster">
<title>cluster100</title>
<path fill="none" stroke="black" d="M276.3,-354.86C276.3,-354.86 522.3,-354.86 522.3,-354.86 528.3,-354.86 534.3,-360.86 534.3,-366.86 534.3,-366.86 534.3,-456.81 534.3,-456.81 534.3,-462.81 528.3,-468.81 522.3,-468.81 522.3,-468.81 276.3,-468.81 276.3,-468.81 270.3,-468.81 264.3,-462.81 264.3,-456.81 264.3,-456.81 264.3,-366.86 264.3,-366.86 264.3,-360.86 270.3,-354.86 276.3,-354.86"/>
<text text-anchor="middle" x="512.3" y="-362.66" font-family="Times-Roman" font-size="14.00">100</text>
</g>
<g id="clust2" class="cluster">
<title>cluster395</title>
<path fill="none" stroke="black" d="M361.3,-232.91C361.3,-232.91 451.3,-232.91 451.3,-232.91 457.3,-232.91 463.3,-238.91 463.3,-244.91 463.3,-244.91 463.3,-334.86 463.3,-334.86 463.3,-340.86 457.3,-346.86 451.3,-346.86 451.3,-346.86 361.3,-346.86 361.3,-346.86 355.3,-346.86 349.3,-340.86 349.3,-334.86 349.3,-334.86 349.3,-244.91 349.3,-244.91 349.3,-238.91 355.3,-232.91 361.3,-232.91"/>
<text text-anchor="middle" x="441.3" y="-240.71" font-family="Times-Roman" font-size="14.00">395</text>
</g>
<g id="clust3" class="cluster">
<title>cluster36</title>
<path fill="none" stroke="black" d="M548.3,-232.91C548.3,-232.91 638.3,-232.91 638.3,-232.91 644.3,-232.91 650.3,-238.91 650.3,-244.91 650.3,-244.91 650.3,-334.86 650.3,-334.86 650.3,-340.86 644.3,-346.86 638.3,-346.86 638.3,-346.86 548.3,-346.86 548.3,-346.86 542.3,-346.86 536.3,-340.86 536.3,-334.86 536.3,-334.86 536.3,-244.91 536.3,-244.91 536.3,-238.91 542.3,-232.91 548.3,-232.91"/>
<text text-anchor="middle" x="632.8" y="-240.71" font-family="Times-Roman" font-size="14.00">36</text>
</g>
<g id="clust4" class="cluster">
<title>cluster2</title>
<path fill="none" stroke="black" d="M160.3,-232.91C160.3,-232.91 250.3,-232.91 250.3,-232.91 256.3,-232.91 262.3,-238.91 262.3,-244.91 262.3,-244.91 262.3,-334.86 262.3,-334.86 262.3,-340.86 256.3,-346.86 250.3,-346.86 250.3,-346.86 160.3,-346.86 160.3,-346.86 154.3,-346.86 148.3,-340.86 148.3,-334.86 148.3,-334.86 148.3,-244.91 148.3,-244.91 148.3,-238.91 154.3,-232.91 160.3,-232.91"/>
<text text-anchor="middle" x="249.3" y="-240.71" font-family="Times-Roman" font-size="14.00">2</text>
</g>
<g id="clust5" class="cluster">
<title>cluster34,760</title>
<path fill="none" stroke="black" d="M354.3,-8C354.3,-8 458.3,-8 458.3,-8 464.3,-8 470.3,-14 470.3,-20 470.3,-20 470.3,-209.93 470.3,-209.93 470.3,-215.93 464.3,-221.93 458.3,-221.93 458.3,-221.93 354.3,-221.93 354.3,-221.93 348.3,-221.93 342.3,-215.93 342.3,-209.93 342.3,-209.93 342.3,-20 342.3,-20 342.3,-14 348.3,-8 354.3,-8"/>
<text text-anchor="middle" x="437.3" y="-15.8" font-family="Times-Roman" font-size="14.00">34,760</text>
</g>
<!-- σ_η -->
<g id="node1" class="node">
<title>σ_η</title>
<ellipse fill="none" stroke="black" cx="69.3" cy="-423.34" rx="69.09" ry="37.45"/>
<text text-anchor="middle" x="69.3" y="-434.64" font-family="Times-Roman" font-size="14.00">σ_η</text>
<text text-anchor="middle" x="69.3" y="-419.64" font-family="Times-Roman" font-size="14.00">~</text>
<text text-anchor="middle" x="69.3" y="-404.64" font-family="Times-Roman" font-size="14.00">HalfNormal</text>
</g>
<!-- η_b -->
<g id="node13" class="node">
<title>η_b</title>
<ellipse fill="none" stroke="black" cx="205.3" cy="-301.38" rx="48.58" ry="37.45"/>
<text text-anchor="middle" x="205.3" y="-312.68" font-family="Times-Roman" font-size="14.00">η_b</text>
<text text-anchor="middle" x="205.3" y="-297.68" font-family="Times-Roman" font-size="14.00">~</text>
<text text-anchor="middle" x="205.3" y="-282.68" font-family="Times-Roman" font-size="14.00">Normal</text>
</g>
<!-- σ_η&#45;&gt;η_b -->
<g id="edge9" class="edge">
<title>σ_η&#45;&gt;η_b</title>
<path fill="none" stroke="black" d="M105.03,-390.82C123.7,-374.35 146.61,-354.15 165.81,-337.21"/>
<polygon fill="black" stroke="black" points="168.33,-339.66 173.51,-330.42 163.7,-334.41 168.33,-339.66"/>
</g>
<!-- σ_σ_α -->
<g id="node2" class="node">
<title>σ_σ_α</title>
<ellipse fill="none" stroke="black" cx="341.3" cy="-534.29" rx="69.09" ry="37.45"/>
<text text-anchor="middle" x="341.3" y="-545.59" font-family="Times-Roman" font-size="14.00">σ_σ_α</text>
<text text-anchor="middle" x="341.3" y="-530.59" font-family="Times-Roman" font-size="14.00">~</text>
<text text-anchor="middle" x="341.3" y="-515.59" font-family="Times-Roman" font-size="14.00">HalfNormal</text>
</g>
<!-- σ_α -->
<g id="node9" class="node">
<title>σ_α</title>
<ellipse fill="none" stroke="black" cx="341.3" cy="-423.34" rx="69.09" ry="37.45"/>
<text text-anchor="middle" x="341.3" y="-434.64" font-family="Times-Roman" font-size="14.00">σ_α</text>
<text text-anchor="middle" x="341.3" y="-419.64" font-family="Times-Roman" font-size="14.00">~</text>
<text text-anchor="middle" x="341.3" y="-404.64" font-family="Times-Roman" font-size="14.00">HalfNormal</text>
</g>
<!-- σ_σ_α&#45;&gt;σ_α -->
<g id="edge3" class="edge">
<title>σ_σ_α&#45;&gt;σ_α</title>
<path fill="none" stroke="black" d="M341.3,-496.71C341.3,-488.53 341.3,-479.75 341.3,-471.23"/>
<polygon fill="black" stroke="black" points="344.8,-471.01 341.3,-461.01 337.8,-471.01 344.8,-471.01"/>
</g>
<!-- μ_η -->
<g id="node3" class="node">
<title>μ_η</title>
<ellipse fill="none" stroke="black" cx="205.3" cy="-423.34" rx="48.58" ry="37.45"/>
<text text-anchor="middle" x="205.3" y="-434.64" font-family="Times-Roman" font-size="14.00">μ_η</text>
<text text-anchor="middle" x="205.3" y="-419.64" font-family="Times-Roman" font-size="14.00">~</text>
<text text-anchor="middle" x="205.3" y="-404.64" font-family="Times-Roman" font-size="14.00">Normal</text>
</g>
<!-- μ_η&#45;&gt;η_b -->
<g id="edge8" class="edge">
<title>μ_η&#45;&gt;η_b</title>
<path fill="none" stroke="black" d="M205.3,-385.69C205.3,-374.29 205.3,-361.55 205.3,-349.54"/>
<polygon fill="black" stroke="black" points="208.8,-349.21 205.3,-339.21 201.8,-349.21 208.8,-349.21"/>
</g>
<!-- σ -->
<g id="node4" class="node">
<title>σ</title>
<ellipse fill="none" stroke="black" cx="549.3" cy="-187.43" rx="69.09" ry="37.45"/>
<text text-anchor="middle" x="549.3" y="-198.73" font-family="Times-Roman" font-size="14.00">σ</text>
<text text-anchor="middle" x="549.3" y="-183.73" font-family="Times-Roman" font-size="14.00">~</text>
<text text-anchor="middle" x="549.3" y="-168.73" font-family="Times-Roman" font-size="14.00">HalfNormal</text>
</g>
<!-- lfc -->
<g id="node15" class="node">
<title>lfc</title>
<ellipse fill="lightgrey" stroke="black" cx="409.3" cy="-76.48" rx="48.58" ry="37.45"/>
<text text-anchor="middle" x="409.3" y="-87.78" font-family="Times-Roman" font-size="14.00">lfc</text>
<text text-anchor="middle" x="409.3" y="-72.78" font-family="Times-Roman" font-size="14.00">~</text>
<text text-anchor="middle" x="409.3" y="-57.78" font-family="Times-Roman" font-size="14.00">Normal</text>
</g>
<!-- σ&#45;&gt;lfc -->
<g id="edge14" class="edge">
<title>σ&#45;&gt;lfc</title>
<path fill="none" stroke="black" d="M510.3,-156.08C491.97,-141.82 470.1,-124.79 451.4,-110.24"/>
<polygon fill="black" stroke="black" points="453.37,-107.34 443.33,-103.96 449.07,-112.86 453.37,-107.34"/>
</g>
<!-- μ_g -->
<g id="node5" class="node">
<title>μ_g</title>
<ellipse fill="none" stroke="black" cx="477.3" cy="-534.29" rx="48.58" ry="37.45"/>
<text text-anchor="middle" x="477.3" y="-545.59" font-family="Times-Roman" font-size="14.00">μ_g</text>
<text text-anchor="middle" x="477.3" y="-530.59" font-family="Times-Roman" font-size="14.00">~</text>
<text text-anchor="middle" x="477.3" y="-515.59" font-family="Times-Roman" font-size="14.00">Normal</text>
</g>
<!-- μ_α -->
<g id="node10" class="node">
<title>μ_α</title>
<ellipse fill="none" stroke="black" cx="477.3" cy="-423.34" rx="48.58" ry="37.45"/>
<text text-anchor="middle" x="477.3" y="-434.64" font-family="Times-Roman" font-size="14.00">μ_α</text>
<text text-anchor="middle" x="477.3" y="-419.64" font-family="Times-Roman" font-size="14.00">~</text>
<text text-anchor="middle" x="477.3" y="-404.64" font-family="Times-Roman" font-size="14.00">Normal</text>
</g>
<!-- μ_g&#45;&gt;μ_α -->
<g id="edge1" class="edge">
<title>μ_g&#45;&gt;μ_α</title>
<path fill="none" stroke="black" d="M477.3,-496.71C477.3,-488.53 477.3,-479.75 477.3,-471.23"/>
<polygon fill="black" stroke="black" points="480.8,-471.01 477.3,-461.01 473.8,-471.01 480.8,-471.01"/>
</g>
<!-- μ_β -->
<g id="node6" class="node">
<title>μ_β</title>
<ellipse fill="none" stroke="black" cx="593.3" cy="-423.34" rx="48.58" ry="37.45"/>
<text text-anchor="middle" x="593.3" y="-434.64" font-family="Times-Roman" font-size="14.00">μ_β</text>
<text text-anchor="middle" x="593.3" y="-419.64" font-family="Times-Roman" font-size="14.00">~</text>
<text text-anchor="middle" x="593.3" y="-404.64" font-family="Times-Roman" font-size="14.00">Normal</text>
</g>
<!-- β_l -->
<g id="node12" class="node">
<title>β_l</title>
<ellipse fill="none" stroke="black" cx="593.3" cy="-301.38" rx="48.58" ry="37.45"/>
<text text-anchor="middle" x="593.3" y="-312.68" font-family="Times-Roman" font-size="14.00">β_l</text>
<text text-anchor="middle" x="593.3" y="-297.68" font-family="Times-Roman" font-size="14.00">~</text>
<text text-anchor="middle" x="593.3" y="-282.68" font-family="Times-Roman" font-size="14.00">Normal</text>
</g>
<!-- μ_β&#45;&gt;β_l -->
<g id="edge6" class="edge">
<title>μ_β&#45;&gt;β_l</title>
<path fill="none" stroke="black" d="M593.3,-385.69C593.3,-374.29 593.3,-361.55 593.3,-349.54"/>
<polygon fill="black" stroke="black" points="596.8,-349.21 593.3,-339.21 589.8,-349.21 596.8,-349.21"/>
</g>
<!-- σ_g -->
<g id="node7" class="node">
<title>σ_g</title>
<ellipse fill="none" stroke="black" cx="613.3" cy="-534.29" rx="69.09" ry="37.45"/>
<text text-anchor="middle" x="613.3" y="-545.59" font-family="Times-Roman" font-size="14.00">σ_g</text>
<text text-anchor="middle" x="613.3" y="-530.59" font-family="Times-Roman" font-size="14.00">~</text>
<text text-anchor="middle" x="613.3" y="-515.59" font-family="Times-Roman" font-size="14.00">HalfNormal</text>
</g>
<!-- σ_g&#45;&gt;μ_α -->
<g id="edge2" class="edge">
<title>σ_g&#45;&gt;μ_α</title>
<path fill="none" stroke="black" d="M575.05,-502.65C557.47,-488.57 536.59,-471.84 518.65,-457.47"/>
<polygon fill="black" stroke="black" points="520.63,-454.57 510.64,-451.05 516.25,-460.03 520.63,-454.57"/>
</g>
<!-- σ_β -->
<g id="node8" class="node">
<title>σ_β</title>
<ellipse fill="none" stroke="black" cx="729.3" cy="-423.34" rx="69.09" ry="37.45"/>
<text text-anchor="middle" x="729.3" y="-434.64" font-family="Times-Roman" font-size="14.00">σ_β</text>
<text text-anchor="middle" x="729.3" y="-419.64" font-family="Times-Roman" font-size="14.00">~</text>
<text text-anchor="middle" x="729.3" y="-404.64" font-family="Times-Roman" font-size="14.00">HalfNormal</text>
</g>
<!-- σ_β&#45;&gt;β_l -->
<g id="edge7" class="edge">
<title>σ_β&#45;&gt;β_l</title>
<path fill="none" stroke="black" d="M693.56,-390.82C674.89,-374.35 651.98,-354.15 632.78,-337.21"/>
<polygon fill="black" stroke="black" points="634.9,-334.41 625.08,-330.42 630.26,-339.66 634.9,-334.41"/>
</g>
<!-- α_s -->
<g id="node11" class="node">
<title>α_s</title>
<ellipse fill="none" stroke="black" cx="406.3" cy="-301.38" rx="48.58" ry="37.45"/>
<text text-anchor="middle" x="406.3" y="-312.68" font-family="Times-Roman" font-size="14.00">α_s</text>
<text text-anchor="middle" x="406.3" y="-297.68" font-family="Times-Roman" font-size="14.00">~</text>
<text text-anchor="middle" x="406.3" y="-282.68" font-family="Times-Roman" font-size="14.00">Normal</text>
</g>
<!-- σ_α&#45;&gt;α_s -->
<g id="edge4" class="edge">
<title>σ_α&#45;&gt;α_s</title>
<path fill="none" stroke="black" d="M360.45,-387C367.57,-373.84 375.74,-358.78 383.18,-345.04"/>
<polygon fill="black" stroke="black" points="386.27,-346.7 387.95,-336.24 380.11,-343.36 386.27,-346.7"/>
</g>
<!-- μ_α&#45;&gt;α_s -->
<g id="edge5" class="edge">
<title>μ_α&#45;&gt;α_s</title>
<path fill="none" stroke="black" d="M457.52,-388.92C449.43,-375.26 439.98,-359.29 431.41,-344.82"/>
<polygon fill="black" stroke="black" points="434.32,-342.86 426.21,-336.03 428.3,-346.42 434.32,-342.86"/>
</g>
<!-- μ -->
<g id="node14" class="node">
<title>μ</title>
<polygon fill="none" stroke="black" points="462.3,-213.93 350.3,-213.93 350.3,-160.93 462.3,-160.93 462.3,-213.93"/>
<text text-anchor="middle" x="406.3" y="-198.73" font-family="Times-Roman" font-size="14.00">μ</text>
<text text-anchor="middle" x="406.3" y="-183.73" font-family="Times-Roman" font-size="14.00">~</text>
<text text-anchor="middle" x="406.3" y="-168.73" font-family="Times-Roman" font-size="14.00">Deterministic</text>
</g>
<!-- α_s&#45;&gt;μ -->
<g id="edge11" class="edge">
<title>α_s&#45;&gt;μ</title>
<path fill="none" stroke="black" d="M406.3,-263.73C406.3,-251.07 406.3,-236.92 406.3,-224.32"/>
<polygon fill="black" stroke="black" points="409.8,-224.18 406.3,-214.18 402.8,-224.18 409.8,-224.18"/>
</g>
<!-- β_l&#45;&gt;μ -->
<g id="edge10" class="edge">
<title>β_l&#45;&gt;μ</title>
<path fill="none" stroke="black" d="M555,-277.46C526.99,-260.69 488.69,-237.76 457.97,-219.36"/>
<polygon fill="black" stroke="black" points="459.49,-216.2 449.11,-214.06 455.89,-222.2 459.49,-216.2"/>
</g>
<!-- η_b&#45;&gt;μ -->
<g id="edge12" class="edge">
<title>η_b&#45;&gt;μ</title>
<path fill="none" stroke="black" d="M244.53,-278.53C275.05,-261.53 317.76,-237.75 351.63,-218.88"/>
<polygon fill="black" stroke="black" points="353.45,-221.87 360.48,-213.95 350.04,-215.76 353.45,-221.87"/>
</g>
<!-- μ&#45;&gt;lfc -->
<g id="edge13" class="edge">
<title>μ&#45;&gt;lfc</title>
<path fill="none" stroke="black" d="M407,-160.89C407.3,-149.98 407.66,-136.89 408.01,-124.35"/>
<polygon fill="black" stroke="black" points="411.51,-124.09 408.29,-114 404.52,-123.9 411.51,-124.09"/>
</g>
</g>
</svg>
