<?xml version="1.0" encoding="UTF-8" standalone="no"?>
<!DOCTYPE svg PUBLIC "-//W3C//DTD SVG 1.1//EN"
 "http://www.w3.org/Graphics/SVG/1.1/DTD/svg11.dtd">
<!-- Generated by graphviz version 2.46.1 (20210222.2046)
 -->
<!-- Pages: 1 -->
<svg width="943pt" height="580pt"
 viewBox="0.00 0.00 943.09 579.77" xmlns="http://www.w3.org/2000/svg" xmlns:xlink="http://www.w3.org/1999/xlink">
<g id="graph0" class="graph" transform="scale(1 1) rotate(0) translate(4 575.77)">
<polygon fill="white" stroke="transparent" points="-4,4 -4,-575.77 939.09,-575.77 939.09,4 -4,4"/>
<g id="clust1" class="cluster">
<title>cluster100</title>
<path fill="none" stroke="black" d="M139.79,-354.86C139.79,-354.86 385.79,-354.86 385.79,-354.86 391.79,-354.86 397.79,-360.86 397.79,-366.86 397.79,-366.86 397.79,-456.81 397.79,-456.81 397.79,-462.81 391.79,-468.81 385.79,-468.81 385.79,-468.81 139.79,-468.81 139.79,-468.81 133.79,-468.81 127.79,-462.81 127.79,-456.81 127.79,-456.81 127.79,-366.86 127.79,-366.86 127.79,-360.86 133.79,-354.86 139.79,-354.86"/>
<text text-anchor="middle" x="375.79" y="-362.66" font-family="Times-Roman" font-size="14.00">100</text>
</g>
<g id="clust2" class="cluster">
<title>cluster395</title>
<path fill="none" stroke="black" d="M275.79,-232.91C275.79,-232.91 365.79,-232.91 365.79,-232.91 371.79,-232.91 377.79,-238.91 377.79,-244.91 377.79,-244.91 377.79,-334.86 377.79,-334.86 377.79,-340.86 371.79,-346.86 365.79,-346.86 365.79,-346.86 275.79,-346.86 275.79,-346.86 269.79,-346.86 263.79,-340.86 263.79,-334.86 263.79,-334.86 263.79,-244.91 263.79,-244.91 263.79,-238.91 269.79,-232.91 275.79,-232.91"/>
<text text-anchor="middle" x="355.79" y="-240.71" font-family="Times-Roman" font-size="14.00">395</text>
</g>
<g id="clust3" class="cluster">
<title>cluster36</title>
<path fill="none" stroke="black" d="M497.79,-232.91C497.79,-232.91 587.79,-232.91 587.79,-232.91 593.79,-232.91 599.79,-238.91 599.79,-244.91 599.79,-244.91 599.79,-334.86 599.79,-334.86 599.79,-340.86 593.79,-346.86 587.79,-346.86 587.79,-346.86 497.79,-346.86 497.79,-346.86 491.79,-346.86 485.79,-340.86 485.79,-334.86 485.79,-334.86 485.79,-244.91 485.79,-244.91 485.79,-238.91 491.79,-232.91 497.79,-232.91"/>
<text text-anchor="middle" x="582.29" y="-240.71" font-family="Times-Roman" font-size="14.00">36</text>
</g>
<g id="clust4" class="cluster">
<title>cluster2</title>
<path fill="none" stroke="black" d="M684.79,-232.91C684.79,-232.91 774.79,-232.91 774.79,-232.91 780.79,-232.91 786.79,-238.91 786.79,-244.91 786.79,-244.91 786.79,-334.86 786.79,-334.86 786.79,-340.86 780.79,-346.86 774.79,-346.86 774.79,-346.86 684.79,-346.86 684.79,-346.86 678.79,-346.86 672.79,-340.86 672.79,-334.86 672.79,-334.86 672.79,-244.91 672.79,-244.91 672.79,-238.91 678.79,-232.91 684.79,-232.91"/>
<text text-anchor="middle" x="773.79" y="-240.71" font-family="Times-Roman" font-size="14.00">2</text>
</g>
<g id="clust5" class="cluster">
<title>cluster34,760</title>
<path fill="none" stroke="black" d="M490.79,-8C490.79,-8 594.79,-8 594.79,-8 600.79,-8 606.79,-14 606.79,-20 606.79,-20 606.79,-209.93 606.79,-209.93 606.79,-215.93 600.79,-221.93 594.79,-221.93 594.79,-221.93 490.79,-221.93 490.79,-221.93 484.79,-221.93 478.79,-215.93 478.79,-209.93 478.79,-209.93 478.79,-20 478.79,-20 478.79,-14 484.79,-8 490.79,-8"/>
<text text-anchor="middle" x="573.79" y="-15.8" font-family="Times-Roman" font-size="14.00">34,760</text>
</g>
<!-- σ -->
<g id="node1" class="node">
<title>σ</title>
<ellipse fill="none" stroke="black" cx="399.79" cy="-187.43" rx="69.09" ry="37.45"/>
<text text-anchor="middle" x="399.79" y="-198.73" font-family="Times-Roman" font-size="14.00">σ</text>
<text text-anchor="middle" x="399.79" y="-183.73" font-family="Times-Roman" font-size="14.00">~</text>
<text text-anchor="middle" x="399.79" y="-168.73" font-family="Times-Roman" font-size="14.00">HalfNormal</text>
</g>
<!-- lfc -->
<g id="node15" class="node">
<title>lfc</title>
<ellipse fill="lightgrey" stroke="black" cx="538.79" cy="-76.48" rx="48.58" ry="37.45"/>
<text text-anchor="middle" x="538.79" y="-87.78" font-family="Times-Roman" font-size="14.00">lfc</text>
<text text-anchor="middle" x="538.79" y="-72.78" font-family="Times-Roman" font-size="14.00">~</text>
<text text-anchor="middle" x="538.79" y="-57.78" font-family="Times-Roman" font-size="14.00">Normal</text>
</g>
<!-- σ&#45;&gt;lfc -->
<g id="edge14" class="edge">
<title>σ&#45;&gt;lfc</title>
<path fill="none" stroke="black" d="M438.51,-156.08C456.7,-141.82 478.42,-124.79 496.99,-110.24"/>
<polygon fill="black" stroke="black" points="499.29,-112.88 505,-103.96 494.97,-107.37 499.29,-112.88"/>
</g>
<!-- μ_g -->
<g id="node2" class="node">
<title>μ_g</title>
<ellipse fill="none" stroke="black" cx="48.79" cy="-534.29" rx="48.58" ry="37.45"/>
<text text-anchor="middle" x="48.79" y="-545.59" font-family="Times-Roman" font-size="14.00">μ_g</text>
<text text-anchor="middle" x="48.79" y="-530.59" font-family="Times-Roman" font-size="14.00">~</text>
<text text-anchor="middle" x="48.79" y="-515.59" font-family="Times-Roman" font-size="14.00">Normal</text>
</g>
<!-- μ_α -->
<g id="node9" class="node">
<title>μ_α</title>
<ellipse fill="none" stroke="black" cx="184.79" cy="-423.34" rx="48.58" ry="37.45"/>
<text text-anchor="middle" x="184.79" y="-434.64" font-family="Times-Roman" font-size="14.00">μ_α</text>
<text text-anchor="middle" x="184.79" y="-419.64" font-family="Times-Roman" font-size="14.00">~</text>
<text text-anchor="middle" x="184.79" y="-404.64" font-family="Times-Roman" font-size="14.00">Normal</text>
</g>
<!-- μ_g&#45;&gt;μ_α -->
<g id="edge1" class="edge">
<title>μ_g&#45;&gt;μ_α</title>
<path fill="none" stroke="black" d="M82.06,-506.64C100.58,-491.8 123.81,-473.19 143.48,-457.43"/>
<polygon fill="black" stroke="black" points="145.78,-460.08 151.39,-451.09 141.4,-454.61 145.78,-460.08"/>
</g>
<!-- σ_g -->
<g id="node3" class="node">
<title>σ_g</title>
<ellipse fill="none" stroke="black" cx="184.79" cy="-534.29" rx="69.09" ry="37.45"/>
<text text-anchor="middle" x="184.79" y="-545.59" font-family="Times-Roman" font-size="14.00">σ_g</text>
<text text-anchor="middle" x="184.79" y="-530.59" font-family="Times-Roman" font-size="14.00">~</text>
<text text-anchor="middle" x="184.79" y="-515.59" font-family="Times-Roman" font-size="14.00">HalfNormal</text>
</g>
<!-- σ_g&#45;&gt;μ_α -->
<g id="edge2" class="edge">
<title>σ_g&#45;&gt;μ_α</title>
<path fill="none" stroke="black" d="M184.79,-496.71C184.79,-488.53 184.79,-479.75 184.79,-471.23"/>
<polygon fill="black" stroke="black" points="188.29,-471.01 184.79,-461.01 181.29,-471.01 188.29,-471.01"/>
</g>
<!-- μ_η -->
<g id="node4" class="node">
<title>μ_η</title>
<ellipse fill="none" stroke="black" cx="729.79" cy="-423.34" rx="48.58" ry="37.45"/>
<text text-anchor="middle" x="729.79" y="-434.64" font-family="Times-Roman" font-size="14.00">μ_η</text>
<text text-anchor="middle" x="729.79" y="-419.64" font-family="Times-Roman" font-size="14.00">~</text>
<text text-anchor="middle" x="729.79" y="-404.64" font-family="Times-Roman" font-size="14.00">Normal</text>
</g>
<!-- η_b -->
<g id="node13" class="node">
<title>η_b</title>
<ellipse fill="none" stroke="black" cx="729.79" cy="-301.38" rx="48.58" ry="37.45"/>
<text text-anchor="middle" x="729.79" y="-312.68" font-family="Times-Roman" font-size="14.00">η_b</text>
<text text-anchor="middle" x="729.79" y="-297.68" font-family="Times-Roman" font-size="14.00">~</text>
<text text-anchor="middle" x="729.79" y="-282.68" font-family="Times-Roman" font-size="14.00">Normal</text>
</g>
<!-- μ_η&#45;&gt;η_b -->
<g id="edge9" class="edge">
<title>μ_η&#45;&gt;η_b</title>
<path fill="none" stroke="black" d="M729.79,-385.69C729.79,-374.29 729.79,-361.55 729.79,-349.54"/>
<polygon fill="black" stroke="black" points="733.29,-349.21 729.79,-339.21 726.29,-349.21 733.29,-349.21"/>
</g>
<!-- σ_η -->
<g id="node5" class="node">
<title>σ_η</title>
<ellipse fill="none" stroke="black" cx="865.79" cy="-423.34" rx="69.09" ry="37.45"/>
<text text-anchor="middle" x="865.79" y="-434.64" font-family="Times-Roman" font-size="14.00">σ_η</text>
<text text-anchor="middle" x="865.79" y="-419.64" font-family="Times-Roman" font-size="14.00">~</text>
<text text-anchor="middle" x="865.79" y="-404.64" font-family="Times-Roman" font-size="14.00">HalfNormal</text>
</g>
<!-- σ_η&#45;&gt;η_b -->
<g id="edge8" class="edge">
<title>σ_η&#45;&gt;η_b</title>
<path fill="none" stroke="black" d="M830.06,-390.82C811.38,-374.35 788.48,-354.15 769.28,-337.21"/>
<polygon fill="black" stroke="black" points="771.39,-334.41 761.57,-330.42 766.76,-339.66 771.39,-334.41"/>
</g>
<!-- σ_σ_α -->
<g id="node6" class="node">
<title>σ_σ_α</title>
<ellipse fill="none" stroke="black" cx="341.79" cy="-534.29" rx="69.09" ry="37.45"/>
<text text-anchor="middle" x="341.79" y="-545.59" font-family="Times-Roman" font-size="14.00">σ_σ_α</text>
<text text-anchor="middle" x="341.79" y="-530.59" font-family="Times-Roman" font-size="14.00">~</text>
<text text-anchor="middle" x="341.79" y="-515.59" font-family="Times-Roman" font-size="14.00">HalfNormal</text>
</g>
<!-- σ_α -->
<g id="node10" class="node">
<title>σ_α</title>
<ellipse fill="none" stroke="black" cx="320.79" cy="-423.34" rx="69.09" ry="37.45"/>
<text text-anchor="middle" x="320.79" y="-434.64" font-family="Times-Roman" font-size="14.00">σ_α</text>
<text text-anchor="middle" x="320.79" y="-419.64" font-family="Times-Roman" font-size="14.00">~</text>
<text text-anchor="middle" x="320.79" y="-404.64" font-family="Times-Roman" font-size="14.00">HalfNormal</text>
</g>
<!-- σ_σ_α&#45;&gt;σ_α -->
<g id="edge3" class="edge">
<title>σ_σ_α&#45;&gt;σ_α</title>
<path fill="none" stroke="black" d="M334.74,-496.71C333.13,-488.35 331.4,-479.37 329.72,-470.67"/>
<polygon fill="black" stroke="black" points="333.12,-469.79 327.79,-460.64 326.24,-471.12 333.12,-469.79"/>
</g>
<!-- σ_β -->
<g id="node7" class="node">
<title>σ_β</title>
<ellipse fill="none" stroke="black" cx="477.79" cy="-423.34" rx="69.09" ry="37.45"/>
<text text-anchor="middle" x="477.79" y="-434.64" font-family="Times-Roman" font-size="14.00">σ_β</text>
<text text-anchor="middle" x="477.79" y="-419.64" font-family="Times-Roman" font-size="14.00">~</text>
<text text-anchor="middle" x="477.79" y="-404.64" font-family="Times-Roman" font-size="14.00">HalfNormal</text>
</g>
<!-- β_l -->
<g id="node12" class="node">
<title>β_l</title>
<ellipse fill="none" stroke="black" cx="542.79" cy="-301.38" rx="48.58" ry="37.45"/>
<text text-anchor="middle" x="542.79" y="-312.68" font-family="Times-Roman" font-size="14.00">β_l</text>
<text text-anchor="middle" x="542.79" y="-297.68" font-family="Times-Roman" font-size="14.00">~</text>
<text text-anchor="middle" x="542.79" y="-282.68" font-family="Times-Roman" font-size="14.00">Normal</text>
</g>
<!-- σ_β&#45;&gt;β_l -->
<g id="edge6" class="edge">
<title>σ_β&#45;&gt;β_l</title>
<path fill="none" stroke="black" d="M496.94,-387C504.07,-373.84 512.23,-358.78 519.68,-345.04"/>
<polygon fill="black" stroke="black" points="522.76,-346.7 524.45,-336.24 516.6,-343.36 522.76,-346.7"/>
</g>
<!-- μ_β -->
<g id="node8" class="node">
<title>μ_β</title>
<ellipse fill="none" stroke="black" cx="613.79" cy="-423.34" rx="48.58" ry="37.45"/>
<text text-anchor="middle" x="613.79" y="-434.64" font-family="Times-Roman" font-size="14.00">μ_β</text>
<text text-anchor="middle" x="613.79" y="-419.64" font-family="Times-Roman" font-size="14.00">~</text>
<text text-anchor="middle" x="613.79" y="-404.64" font-family="Times-Roman" font-size="14.00">Normal</text>
</g>
<!-- μ_β&#45;&gt;β_l -->
<g id="edge7" class="edge">
<title>μ_β&#45;&gt;β_l</title>
<path fill="none" stroke="black" d="M594.01,-388.92C585.93,-375.26 576.47,-359.29 567.91,-344.82"/>
<polygon fill="black" stroke="black" points="570.81,-342.86 562.71,-336.03 564.79,-346.42 570.81,-342.86"/>
</g>
<!-- α_s -->
<g id="node11" class="node">
<title>α_s</title>
<ellipse fill="none" stroke="black" cx="320.79" cy="-301.38" rx="48.58" ry="37.45"/>
<text text-anchor="middle" x="320.79" y="-312.68" font-family="Times-Roman" font-size="14.00">α_s</text>
<text text-anchor="middle" x="320.79" y="-297.68" font-family="Times-Roman" font-size="14.00">~</text>
<text text-anchor="middle" x="320.79" y="-282.68" font-family="Times-Roman" font-size="14.00">Normal</text>
</g>
<!-- μ_α&#45;&gt;α_s -->
<g id="edge4" class="edge">
<title>μ_α&#45;&gt;α_s</title>
<path fill="none" stroke="black" d="M209.15,-390.51C218.96,-378.67 230.78,-365.53 242.79,-354.86 252.42,-346.31 263.52,-338.04 274.27,-330.7"/>
<polygon fill="black" stroke="black" points="276.41,-333.48 282.79,-325.02 272.53,-327.65 276.41,-333.48"/>
</g>
<!-- σ_α&#45;&gt;α_s -->
<g id="edge5" class="edge">
<title>σ_α&#45;&gt;α_s</title>
<path fill="none" stroke="black" d="M320.79,-385.69C320.79,-374.29 320.79,-361.55 320.79,-349.54"/>
<polygon fill="black" stroke="black" points="324.29,-349.21 320.79,-339.21 317.29,-349.21 324.29,-349.21"/>
</g>
<!-- μ -->
<g id="node14" class="node">
<title>μ</title>
<polygon fill="none" stroke="black" points="598.79,-213.93 486.79,-213.93 486.79,-160.93 598.79,-160.93 598.79,-213.93"/>
<text text-anchor="middle" x="542.79" y="-198.73" font-family="Times-Roman" font-size="14.00">μ</text>
<text text-anchor="middle" x="542.79" y="-183.73" font-family="Times-Roman" font-size="14.00">~</text>
<text text-anchor="middle" x="542.79" y="-168.73" font-family="Times-Roman" font-size="14.00">Deterministic</text>
</g>
<!-- α_s&#45;&gt;μ -->
<g id="edge11" class="edge">
<title>α_s&#45;&gt;μ</title>
<path fill="none" stroke="black" d="M362.13,-281.38C394,-266.52 439.02,-245.08 477.79,-224.91 481.47,-222.99 485.25,-220.98 489.04,-218.94"/>
<polygon fill="black" stroke="black" points="490.78,-221.98 497.88,-214.12 487.43,-215.83 490.78,-221.98"/>
</g>
<!-- β_l&#45;&gt;μ -->
<g id="edge12" class="edge">
<title>β_l&#45;&gt;μ</title>
<path fill="none" stroke="black" d="M542.79,-263.73C542.79,-251.07 542.79,-236.92 542.79,-224.32"/>
<polygon fill="black" stroke="black" points="546.29,-224.18 542.79,-214.18 539.29,-224.18 546.29,-224.18"/>
</g>
<!-- η_b&#45;&gt;μ -->
<g id="edge10" class="edge">
<title>η_b&#45;&gt;μ</title>
<path fill="none" stroke="black" d="M691.5,-277.46C663.49,-260.69 625.18,-237.76 594.46,-219.36"/>
<polygon fill="black" stroke="black" points="595.98,-216.2 585.6,-214.06 592.39,-222.2 595.98,-216.2"/>
</g>
<!-- μ&#45;&gt;lfc -->
<g id="edge13" class="edge">
<title>μ&#45;&gt;lfc</title>
<path fill="none" stroke="black" d="M541.85,-160.89C541.45,-149.98 540.97,-136.89 540.51,-124.35"/>
<polygon fill="black" stroke="black" points="544,-123.87 540.13,-114 537,-124.12 544,-123.87"/>
</g>
</g>
</svg>
