<?xml version="1.0" encoding="UTF-8" standalone="no"?>
<!DOCTYPE svg PUBLIC "-//W3C//DTD SVG 1.1//EN"
 "http://www.w3.org/Graphics/SVG/1.1/DTD/svg11.dtd">
<!-- Generated by graphviz version 2.47.0 (20210316.1410)
 -->
<!-- Pages: 1 -->
<svg width="806pt" height="469pt"
 viewBox="0.00 0.00 806.09 468.81" xmlns="http://www.w3.org/2000/svg" xmlns:xlink="http://www.w3.org/1999/xlink">
<g id="graph0" class="graph" transform="scale(1 1) rotate(0) translate(4 464.81)">
<polygon fill="white" stroke="transparent" points="-4,4 -4,-464.81 802.09,-464.81 802.09,4 -4,4"/>
<g id="clust1" class="cluster">
<title>cluster997 x 36</title>
<path fill="none" stroke="black" d="M411.79,-243.91C411.79,-243.91 501.79,-243.91 501.79,-243.91 507.79,-243.91 513.79,-249.91 513.79,-255.91 513.79,-255.91 513.79,-345.86 513.79,-345.86 513.79,-351.86 507.79,-357.86 501.79,-357.86 501.79,-357.86 411.79,-357.86 411.79,-357.86 405.79,-357.86 399.79,-351.86 399.79,-345.86 399.79,-345.86 399.79,-255.91 399.79,-255.91 399.79,-249.91 405.79,-243.91 411.79,-243.91"/>
<text text-anchor="middle" x="474.29" y="-251.71" font-family="Times-Roman" font-size="14.00">997 x 36</text>
</g>
<g id="clust2" class="cluster">
<title>cluster10</title>
<path fill="none" stroke="black" d="M139.79,-243.91C139.79,-243.91 229.79,-243.91 229.79,-243.91 235.79,-243.91 241.79,-249.91 241.79,-255.91 241.79,-255.91 241.79,-345.86 241.79,-345.86 241.79,-351.86 235.79,-357.86 229.79,-357.86 229.79,-357.86 139.79,-357.86 139.79,-357.86 133.79,-357.86 127.79,-351.86 127.79,-345.86 127.79,-345.86 127.79,-255.91 127.79,-255.91 127.79,-249.91 133.79,-243.91 139.79,-243.91"/>
<text text-anchor="middle" x="224.29" y="-251.71" font-family="Times-Roman" font-size="14.00">10</text>
</g>
<g id="clust3" class="cluster">
<title>cluster2</title>
<path fill="none" stroke="black" d="M540.79,-243.91C540.79,-243.91 630.79,-243.91 630.79,-243.91 636.79,-243.91 642.79,-249.91 642.79,-255.91 642.79,-255.91 642.79,-345.86 642.79,-345.86 642.79,-351.86 636.79,-357.86 630.79,-357.86 630.79,-357.86 540.79,-357.86 540.79,-357.86 534.79,-357.86 528.79,-351.86 528.79,-345.86 528.79,-345.86 528.79,-255.91 528.79,-255.91 528.79,-249.91 534.79,-243.91 540.79,-243.91"/>
<text text-anchor="middle" x="629.79" y="-251.71" font-family="Times-Roman" font-size="14.00">2</text>
</g>
<g id="clust4" class="cluster">
<title>cluster349,184</title>
<path fill="none" stroke="black" d="M433.79,-8C433.79,-8 537.79,-8 537.79,-8 543.79,-8 549.79,-14 549.79,-20 549.79,-20 549.79,-212.93 549.79,-212.93 549.79,-218.93 543.79,-224.93 537.79,-224.93 537.79,-224.93 433.79,-224.93 433.79,-224.93 427.79,-224.93 421.79,-218.93 421.79,-212.93 421.79,-212.93 421.79,-20 421.79,-20 421.79,-14 427.79,-8 433.79,-8"/>
<text text-anchor="middle" x="512.29" y="-15.8" font-family="Times-Roman" font-size="14.00">349,184</text>
</g>
<g id="clust5" class="cluster">
<title>cluster3,957</title>
<path fill="none" stroke="black" d="M627.79,-121.95C627.79,-121.95 757.79,-121.95 757.79,-121.95 763.79,-121.95 769.79,-127.95 769.79,-133.95 769.79,-133.95 769.79,-223.91 769.79,-223.91 769.79,-229.91 763.79,-235.91 757.79,-235.91 757.79,-235.91 627.79,-235.91 627.79,-235.91 621.79,-235.91 615.79,-229.91 615.79,-223.91 615.79,-223.91 615.79,-133.95 615.79,-133.95 615.79,-127.95 621.79,-121.95 627.79,-121.95"/>
<text text-anchor="middle" x="741.29" y="-129.75" font-family="Times-Roman" font-size="14.00">3,957</text>
</g>
<!-- μ_β -->
<g id="node1" class="node">
<title>μ_β</title>
<ellipse fill="none" stroke="black" cx="48.79" cy="-423.34" rx="48.58" ry="37.45"/>
<text text-anchor="middle" x="48.79" y="-434.64" font-family="Times-Roman" font-size="14.00">μ_β</text>
<text text-anchor="middle" x="48.79" y="-419.64" font-family="Times-Roman" font-size="14.00">~</text>
<text text-anchor="middle" x="48.79" y="-404.64" font-family="Times-Roman" font-size="14.00">Normal</text>
</g>
<!-- β -->
<g id="node9" class="node">
<title>β</title>
<ellipse fill="none" stroke="black" cx="184.79" cy="-312.38" rx="48.58" ry="37.45"/>
<text text-anchor="middle" x="184.79" y="-323.68" font-family="Times-Roman" font-size="14.00">β</text>
<text text-anchor="middle" x="184.79" y="-308.68" font-family="Times-Roman" font-size="14.00">~</text>
<text text-anchor="middle" x="184.79" y="-293.68" font-family="Times-Roman" font-size="14.00">Normal</text>
</g>
<!-- μ_β&#45;&gt;β -->
<g id="edge3" class="edge">
<title>μ_β&#45;&gt;β</title>
<path fill="none" stroke="black" d="M82.06,-395.68C100.58,-380.84 123.81,-362.24 143.48,-346.48"/>
<polygon fill="black" stroke="black" points="145.78,-349.12 151.39,-340.14 141.4,-343.66 145.78,-349.12"/>
</g>
<!-- μ_ɑ -->
<g id="node2" class="node">
<title>μ_ɑ</title>
<ellipse fill="none" stroke="black" cx="320.79" cy="-423.34" rx="48.58" ry="37.45"/>
<text text-anchor="middle" x="320.79" y="-434.64" font-family="Times-Roman" font-size="14.00">μ_ɑ</text>
<text text-anchor="middle" x="320.79" y="-419.64" font-family="Times-Roman" font-size="14.00">~</text>
<text text-anchor="middle" x="320.79" y="-404.64" font-family="Times-Roman" font-size="14.00">Normal</text>
</g>
<!-- ɑ -->
<g id="node8" class="node">
<title>ɑ</title>
<ellipse fill="none" stroke="black" cx="456.79" cy="-312.38" rx="48.58" ry="37.45"/>
<text text-anchor="middle" x="456.79" y="-323.68" font-family="Times-Roman" font-size="14.00">ɑ</text>
<text text-anchor="middle" x="456.79" y="-308.68" font-family="Times-Roman" font-size="14.00">~</text>
<text text-anchor="middle" x="456.79" y="-293.68" font-family="Times-Roman" font-size="14.00">Normal</text>
</g>
<!-- μ_ɑ&#45;&gt;ɑ -->
<g id="edge1" class="edge">
<title>μ_ɑ&#45;&gt;ɑ</title>
<path fill="none" stroke="black" d="M354.06,-395.68C372.58,-380.84 395.81,-362.24 415.48,-346.48"/>
<polygon fill="black" stroke="black" points="417.78,-349.12 423.39,-340.14 413.4,-343.66 417.78,-349.12"/>
</g>
<!-- σ_σ -->
<g id="node3" class="node">
<title>σ_σ</title>
<ellipse fill="none" stroke="black" cx="721.79" cy="-312.38" rx="69.09" ry="37.45"/>
<text text-anchor="middle" x="721.79" y="-323.68" font-family="Times-Roman" font-size="14.00">σ_σ</text>
<text text-anchor="middle" x="721.79" y="-308.68" font-family="Times-Roman" font-size="14.00">~</text>
<text text-anchor="middle" x="721.79" y="-293.68" font-family="Times-Roman" font-size="14.00">HalfNormal</text>
</g>
<!-- σ -->
<g id="node13" class="node">
<title>σ</title>
<ellipse fill="none" stroke="black" cx="692.79" cy="-190.43" rx="69.09" ry="37.45"/>
<text text-anchor="middle" x="692.79" y="-201.73" font-family="Times-Roman" font-size="14.00">σ</text>
<text text-anchor="middle" x="692.79" y="-186.73" font-family="Times-Roman" font-size="14.00">~</text>
<text text-anchor="middle" x="692.79" y="-171.73" font-family="Times-Roman" font-size="14.00">HalfNormal</text>
</g>
<!-- σ_σ&#45;&gt;σ -->
<g id="edge10" class="edge">
<title>σ_σ&#45;&gt;σ</title>
<path fill="none" stroke="black" d="M713.01,-275.07C710.14,-263.21 706.92,-249.87 703.9,-237.4"/>
<polygon fill="black" stroke="black" points="707.29,-236.52 701.54,-227.62 700.49,-238.16 707.29,-236.52"/>
</g>
<!-- σ_ɑ -->
<g id="node4" class="node">
<title>σ_ɑ</title>
<ellipse fill="none" stroke="black" cx="456.79" cy="-423.34" rx="69.09" ry="37.45"/>
<text text-anchor="middle" x="456.79" y="-434.64" font-family="Times-Roman" font-size="14.00">σ_ɑ</text>
<text text-anchor="middle" x="456.79" y="-419.64" font-family="Times-Roman" font-size="14.00">~</text>
<text text-anchor="middle" x="456.79" y="-404.64" font-family="Times-Roman" font-size="14.00">HalfNormal</text>
</g>
<!-- σ_ɑ&#45;&gt;ɑ -->
<g id="edge2" class="edge">
<title>σ_ɑ&#45;&gt;ɑ</title>
<path fill="none" stroke="black" d="M456.79,-385.75C456.79,-377.58 456.79,-368.8 456.79,-360.27"/>
<polygon fill="black" stroke="black" points="460.29,-360.06 456.79,-350.06 453.29,-360.06 460.29,-360.06"/>
</g>
<!-- σ_β -->
<g id="node5" class="node">
<title>σ_β</title>
<ellipse fill="none" stroke="black" cx="184.79" cy="-423.34" rx="69.09" ry="37.45"/>
<text text-anchor="middle" x="184.79" y="-434.64" font-family="Times-Roman" font-size="14.00">σ_β</text>
<text text-anchor="middle" x="184.79" y="-419.64" font-family="Times-Roman" font-size="14.00">~</text>
<text text-anchor="middle" x="184.79" y="-404.64" font-family="Times-Roman" font-size="14.00">HalfNormal</text>
</g>
<!-- σ_β&#45;&gt;β -->
<g id="edge4" class="edge">
<title>σ_β&#45;&gt;β</title>
<path fill="none" stroke="black" d="M184.79,-385.75C184.79,-377.58 184.79,-368.8 184.79,-360.27"/>
<polygon fill="black" stroke="black" points="188.29,-360.06 184.79,-350.06 181.29,-360.06 188.29,-360.06"/>
</g>
<!-- μ_η -->
<g id="node6" class="node">
<title>μ_η</title>
<ellipse fill="none" stroke="black" cx="592.79" cy="-423.34" rx="48.58" ry="37.45"/>
<text text-anchor="middle" x="592.79" y="-434.64" font-family="Times-Roman" font-size="14.00">μ_η</text>
<text text-anchor="middle" x="592.79" y="-419.64" font-family="Times-Roman" font-size="14.00">~</text>
<text text-anchor="middle" x="592.79" y="-404.64" font-family="Times-Roman" font-size="14.00">Normal</text>
</g>
<!-- η -->
<g id="node10" class="node">
<title>η</title>
<ellipse fill="none" stroke="black" cx="585.79" cy="-312.38" rx="48.58" ry="37.45"/>
<text text-anchor="middle" x="585.79" y="-323.68" font-family="Times-Roman" font-size="14.00">η</text>
<text text-anchor="middle" x="585.79" y="-308.68" font-family="Times-Roman" font-size="14.00">~</text>
<text text-anchor="middle" x="585.79" y="-293.68" font-family="Times-Roman" font-size="14.00">Normal</text>
</g>
<!-- μ_η&#45;&gt;η -->
<g id="edge5" class="edge">
<title>μ_η&#45;&gt;η</title>
<path fill="none" stroke="black" d="M590.44,-385.75C589.91,-377.58 589.35,-368.8 588.8,-360.27"/>
<polygon fill="black" stroke="black" points="592.28,-359.81 588.15,-350.06 585.29,-360.26 592.28,-359.81"/>
</g>
<!-- σ_η -->
<g id="node7" class="node">
<title>σ_η</title>
<ellipse fill="none" stroke="black" cx="728.79" cy="-423.34" rx="69.09" ry="37.45"/>
<text text-anchor="middle" x="728.79" y="-434.64" font-family="Times-Roman" font-size="14.00">σ_η</text>
<text text-anchor="middle" x="728.79" y="-419.64" font-family="Times-Roman" font-size="14.00">~</text>
<text text-anchor="middle" x="728.79" y="-404.64" font-family="Times-Roman" font-size="14.00">HalfNormal</text>
</g>
<!-- σ_η&#45;&gt;η -->
<g id="edge6" class="edge">
<title>σ_η&#45;&gt;η</title>
<path fill="none" stroke="black" d="M688.97,-392.2C674.71,-381.39 658.52,-369.09 643.79,-357.86 638.69,-353.97 633.35,-349.89 628.05,-345.83"/>
<polygon fill="black" stroke="black" points="629.88,-342.82 619.81,-339.52 625.62,-348.38 629.88,-342.82"/>
</g>
<!-- μ -->
<g id="node12" class="node">
<title>μ</title>
<polygon fill="none" stroke="black" points="541.79,-216.93 429.79,-216.93 429.79,-163.93 541.79,-163.93 541.79,-216.93"/>
<text text-anchor="middle" x="485.79" y="-201.73" font-family="Times-Roman" font-size="14.00">μ</text>
<text text-anchor="middle" x="485.79" y="-186.73" font-family="Times-Roman" font-size="14.00">~</text>
<text text-anchor="middle" x="485.79" y="-171.73" font-family="Times-Roman" font-size="14.00">Deterministic</text>
</g>
<!-- ɑ&#45;&gt;μ -->
<g id="edge9" class="edge">
<title>ɑ&#45;&gt;μ</title>
<path fill="none" stroke="black" d="M465.49,-275.39C469.18,-260.14 473.46,-242.41 477.15,-227.19"/>
<polygon fill="black" stroke="black" points="480.63,-227.65 479.58,-217.11 473.83,-226.01 480.63,-227.65"/>
</g>
<!-- β&#45;&gt;μ -->
<g id="edge8" class="edge">
<title>β&#45;&gt;μ</title>
<path fill="none" stroke="black" d="M227.6,-294.32C277.8,-274.32 361.56,-240.94 420.02,-217.64"/>
<polygon fill="black" stroke="black" points="421.55,-220.8 429.54,-213.85 418.96,-214.3 421.55,-220.8"/>
</g>
<!-- η&#45;&gt;μ -->
<g id="edge7" class="edge">
<title>η&#45;&gt;μ</title>
<path fill="none" stroke="black" d="M560.04,-280.49C545.79,-263.4 528.07,-242.14 513.51,-224.68"/>
<polygon fill="black" stroke="black" points="516.16,-222.4 507.07,-216.96 510.79,-226.88 516.16,-222.4"/>
</g>
<!-- lfc -->
<g id="node11" class="node">
<title>lfc</title>
<ellipse fill="lightgrey" stroke="black" cx="488.79" cy="-76.48" rx="48.58" ry="37.45"/>
<text text-anchor="middle" x="488.79" y="-87.78" font-family="Times-Roman" font-size="14.00">lfc</text>
<text text-anchor="middle" x="488.79" y="-72.78" font-family="Times-Roman" font-size="14.00">~</text>
<text text-anchor="middle" x="488.79" y="-57.78" font-family="Times-Roman" font-size="14.00">Normal</text>
</g>
<!-- μ&#45;&gt;lfc -->
<g id="edge12" class="edge">
<title>μ&#45;&gt;lfc</title>
<path fill="none" stroke="black" d="M486.48,-163.75C486.79,-152.02 487.18,-137.75 487.54,-124.22"/>
<polygon fill="black" stroke="black" points="491.04,-124.16 487.81,-114.07 484.04,-123.98 491.04,-124.16"/>
</g>
<!-- σ&#45;&gt;lfc -->
<g id="edge11" class="edge">
<title>σ&#45;&gt;lfc</title>
<path fill="none" stroke="black" d="M644.96,-163.18C612.45,-145.34 569.6,-121.82 537.01,-103.94"/>
<polygon fill="black" stroke="black" points="538.56,-100.8 528.11,-99.05 535.19,-106.93 538.56,-100.8"/>
</g>
</g>
</svg>
