<?xml version="1.0" encoding="UTF-8" standalone="no"?>
<!DOCTYPE svg PUBLIC "-//W3C//DTD SVG 1.1//EN"
 "http://www.w3.org/Graphics/SVG/1.1/DTD/svg11.dtd">
<!-- Generated by graphviz version 2.47.0 (20210316.1410)
 -->
<!-- Pages: 1 -->
<svg width="949pt" height="702pt"
 viewBox="0.00 0.00 948.59 701.72" xmlns="http://www.w3.org/2000/svg" xmlns:xlink="http://www.w3.org/1999/xlink">
<g id="graph0" class="graph" transform="scale(1 1) rotate(0) translate(4 697.72)">
<polygon fill="white" stroke="transparent" points="-4,4 -4,-697.72 944.59,-697.72 944.59,4 -4,4"/>
<g id="clust1" class="cluster">
<title>cluster2</title>
<path fill="none" stroke="black" d="M602.3,-476.81C602.3,-476.81 848.3,-476.81 848.3,-476.81 854.3,-476.81 860.3,-482.81 860.3,-488.81 860.3,-488.81 860.3,-578.77 860.3,-578.77 860.3,-584.77 854.3,-590.77 848.3,-590.77 848.3,-590.77 602.3,-590.77 602.3,-590.77 596.3,-590.77 590.3,-584.77 590.3,-578.77 590.3,-578.77 590.3,-488.81 590.3,-488.81 590.3,-482.81 596.3,-476.81 602.3,-476.81"/>
<text text-anchor="middle" x="847.3" y="-484.61" font-family="Times-Roman" font-size="14.00">2</text>
</g>
<g id="clust2" class="cluster">
<title>cluster997 x 2</title>
<path fill="none" stroke="black" d="M408.3,-354.86C408.3,-354.86 542.3,-354.86 542.3,-354.86 548.3,-354.86 554.3,-360.86 554.3,-366.86 554.3,-366.86 554.3,-456.81 554.3,-456.81 554.3,-462.81 548.3,-468.81 542.3,-468.81 542.3,-468.81 408.3,-468.81 408.3,-468.81 402.3,-468.81 396.3,-462.81 396.3,-456.81 396.3,-456.81 396.3,-366.86 396.3,-366.86 396.3,-360.86 402.3,-354.86 408.3,-354.86"/>
<text text-anchor="middle" x="519.3" y="-362.66" font-family="Times-Roman" font-size="14.00">997 x 2</text>
</g>
<g id="clust3" class="cluster">
<title>cluster3,957</title>
<path fill="none" stroke="black" d="M249.3,-232.91C249.3,-232.91 427.3,-232.91 427.3,-232.91 433.3,-232.91 439.3,-238.91 439.3,-244.91 439.3,-244.91 439.3,-334.86 439.3,-334.86 439.3,-340.86 433.3,-346.86 427.3,-346.86 427.3,-346.86 249.3,-346.86 249.3,-346.86 243.3,-346.86 237.3,-340.86 237.3,-334.86 237.3,-334.86 237.3,-244.91 237.3,-244.91 237.3,-238.91 243.3,-232.91 249.3,-232.91"/>
<text text-anchor="middle" x="410.8" y="-240.71" font-family="Times-Roman" font-size="14.00">3,957</text>
</g>
<g id="clust4" class="cluster">
<title>cluster997</title>
<path fill="none" stroke="black" d="M170.3,-354.86C170.3,-354.86 376.3,-354.86 376.3,-354.86 382.3,-354.86 388.3,-360.86 388.3,-366.86 388.3,-366.86 388.3,-456.81 388.3,-456.81 388.3,-462.81 382.3,-468.81 376.3,-468.81 376.3,-468.81 170.3,-468.81 170.3,-468.81 164.3,-468.81 158.3,-462.81 158.3,-456.81 158.3,-456.81 158.3,-366.86 158.3,-366.86 158.3,-360.86 164.3,-354.86 170.3,-354.86"/>
<text text-anchor="middle" x="366.3" y="-362.66" font-family="Times-Roman" font-size="14.00">997</text>
</g>
<g id="clust5" class="cluster">
<title>cluster997 x 36</title>
<path fill="none" stroke="black" d="M589.3,-232.91C589.3,-232.91 679.3,-232.91 679.3,-232.91 685.3,-232.91 691.3,-238.91 691.3,-244.91 691.3,-244.91 691.3,-334.86 691.3,-334.86 691.3,-340.86 685.3,-346.86 679.3,-346.86 679.3,-346.86 589.3,-346.86 589.3,-346.86 583.3,-346.86 577.3,-340.86 577.3,-334.86 577.3,-334.86 577.3,-244.91 577.3,-244.91 577.3,-238.91 583.3,-232.91 589.3,-232.91"/>
<text text-anchor="middle" x="651.8" y="-240.71" font-family="Times-Roman" font-size="14.00">997 x 36</text>
</g>
<g id="clust6" class="cluster">
<title>cluster349,184</title>
<path fill="none" stroke="black" d="M407.3,-8C407.3,-8 511.3,-8 511.3,-8 517.3,-8 523.3,-14 523.3,-20 523.3,-20 523.3,-209.93 523.3,-209.93 523.3,-215.93 517.3,-221.93 511.3,-221.93 511.3,-221.93 407.3,-221.93 407.3,-221.93 401.3,-221.93 395.3,-215.93 395.3,-209.93 395.3,-209.93 395.3,-20 395.3,-20 395.3,-14 401.3,-8 407.3,-8"/>
<text text-anchor="middle" x="485.8" y="-15.8" font-family="Times-Roman" font-size="14.00">349,184</text>
</g>
<!-- σ_a -->
<g id="node1" class="node">
<title>σ_a</title>
<ellipse fill="none" stroke="black" cx="667.3" cy="-545.29" rx="69.09" ry="37.45"/>
<text text-anchor="middle" x="667.3" y="-556.59" font-family="Times-Roman" font-size="14.00">σ_a</text>
<text text-anchor="middle" x="667.3" y="-541.59" font-family="Times-Roman" font-size="14.00">~</text>
<text text-anchor="middle" x="667.3" y="-526.59" font-family="Times-Roman" font-size="14.00">HalfNormal</text>
</g>
<!-- a -->
<g id="node3" class="node">
<title>a</title>
<ellipse fill="none" stroke="black" cx="475.3" cy="-423.34" rx="71.34" ry="37.45"/>
<text text-anchor="middle" x="475.3" y="-434.64" font-family="Times-Roman" font-size="14.00">a</text>
<text text-anchor="middle" x="475.3" y="-419.64" font-family="Times-Roman" font-size="14.00">~</text>
<text text-anchor="middle" x="475.3" y="-404.64" font-family="Times-Roman" font-size="14.00">Exponential</text>
</g>
<!-- σ_a&#45;&gt;a -->
<g id="edge1" class="edge">
<title>σ_a&#45;&gt;a</title>
<path fill="none" stroke="black" d="M622.77,-516.47C594.84,-499.02 558.66,-476.42 529.12,-457.96"/>
<polygon fill="black" stroke="black" points="530.92,-454.96 520.59,-452.63 527.21,-460.9 530.92,-454.96"/>
</g>
<!-- η -->
<g id="node2" class="node">
<title>η</title>
<ellipse fill="none" stroke="black" cx="803.3" cy="-545.29" rx="48.58" ry="37.45"/>
<text text-anchor="middle" x="803.3" y="-556.59" font-family="Times-Roman" font-size="14.00">η</text>
<text text-anchor="middle" x="803.3" y="-541.59" font-family="Times-Roman" font-size="14.00">~</text>
<text text-anchor="middle" x="803.3" y="-526.59" font-family="Times-Roman" font-size="14.00">Normal</text>
</g>
<!-- μ -->
<g id="node19" class="node">
<title>μ</title>
<polygon fill="none" stroke="black" points="515.3,-213.93 403.3,-213.93 403.3,-160.93 515.3,-160.93 515.3,-213.93"/>
<text text-anchor="middle" x="459.3" y="-198.73" font-family="Times-Roman" font-size="14.00">μ</text>
<text text-anchor="middle" x="459.3" y="-183.73" font-family="Times-Roman" font-size="14.00">~</text>
<text text-anchor="middle" x="459.3" y="-168.73" font-family="Times-Roman" font-size="14.00">Deterministic</text>
</g>
<!-- η&#45;&gt;μ -->
<g id="edge12" class="edge">
<title>η&#45;&gt;μ</title>
<path fill="none" stroke="black" d="M818.48,-509.56C833.27,-470.34 850.53,-405.42 828.3,-354.86 796.01,-281.45 767.01,-268.81 695.3,-232.91 642.04,-206.24 574.74,-195.49 525.65,-191.19"/>
<polygon fill="black" stroke="black" points="525.71,-187.68 515.46,-190.37 525.15,-194.66 525.71,-187.68"/>
</g>
<!-- q -->
<g id="node15" class="node">
<title>q</title>
<ellipse fill="none" stroke="black" cx="396.3" cy="-301.38" rx="35.21" ry="37.45"/>
<text text-anchor="middle" x="396.3" y="-312.68" font-family="Times-Roman" font-size="14.00">q</text>
<text text-anchor="middle" x="396.3" y="-297.68" font-family="Times-Roman" font-size="14.00">~</text>
<text text-anchor="middle" x="396.3" y="-282.68" font-family="Times-Roman" font-size="14.00">Beta</text>
</g>
<!-- a&#45;&gt;q -->
<g id="edge2" class="edge">
<title>a&#45;&gt;q</title>
<path fill="none" stroke="black" d="M452.45,-387.64C442.85,-373.07 431.64,-356.05 421.78,-341.07"/>
<polygon fill="black" stroke="black" points="424.57,-338.95 416.15,-332.52 418.72,-342.8 424.57,-338.95"/>
</g>
<!-- σ_h -->
<g id="node4" class="node">
<title>σ_h</title>
<ellipse fill="none" stroke="black" cx="341.3" cy="-545.29" rx="69.09" ry="37.45"/>
<text text-anchor="middle" x="341.3" y="-556.59" font-family="Times-Roman" font-size="14.00">σ_h</text>
<text text-anchor="middle" x="341.3" y="-541.59" font-family="Times-Roman" font-size="14.00">~</text>
<text text-anchor="middle" x="341.3" y="-526.59" font-family="Times-Roman" font-size="14.00">HalfNormal</text>
</g>
<!-- h -->
<g id="node17" class="node">
<title>h</title>
<ellipse fill="none" stroke="black" cx="331.3" cy="-423.34" rx="48.58" ry="37.45"/>
<text text-anchor="middle" x="331.3" y="-434.64" font-family="Times-Roman" font-size="14.00">h</text>
<text text-anchor="middle" x="331.3" y="-419.64" font-family="Times-Roman" font-size="14.00">~</text>
<text text-anchor="middle" x="331.3" y="-404.64" font-family="Times-Roman" font-size="14.00">Normal</text>
</g>
<!-- σ_h&#45;&gt;h -->
<g id="edge3" class="edge">
<title>σ_h&#45;&gt;h</title>
<path fill="none" stroke="black" d="M338.24,-507.65C337.27,-496.02 336.19,-483.01 335.17,-470.79"/>
<polygon fill="black" stroke="black" points="338.65,-470.43 334.33,-460.75 331.68,-471.01 338.65,-470.43"/>
</g>
<!-- μ_η -->
<g id="node5" class="node">
<title>μ_η</title>
<ellipse fill="none" stroke="black" cx="735.3" cy="-656.24" rx="48.58" ry="37.45"/>
<text text-anchor="middle" x="735.3" y="-667.54" font-family="Times-Roman" font-size="14.00">μ_η</text>
<text text-anchor="middle" x="735.3" y="-652.54" font-family="Times-Roman" font-size="14.00">~</text>
<text text-anchor="middle" x="735.3" y="-637.54" font-family="Times-Roman" font-size="14.00">Normal</text>
</g>
<!-- μ_η&#45;&gt;η -->
<g id="edge7" class="edge">
<title>μ_η&#45;&gt;η</title>
<path fill="none" stroke="black" d="M755.88,-622.26C762.55,-611.58 770.03,-599.6 777.04,-588.36"/>
<polygon fill="black" stroke="black" points="780.22,-589.88 782.54,-579.54 774.28,-586.17 780.22,-589.88"/>
</g>
<!-- σ_η -->
<g id="node6" class="node">
<title>σ_η</title>
<ellipse fill="none" stroke="black" cx="871.3" cy="-656.24" rx="69.09" ry="37.45"/>
<text text-anchor="middle" x="871.3" y="-667.54" font-family="Times-Roman" font-size="14.00">σ_η</text>
<text text-anchor="middle" x="871.3" y="-652.54" font-family="Times-Roman" font-size="14.00">~</text>
<text text-anchor="middle" x="871.3" y="-637.54" font-family="Times-Roman" font-size="14.00">HalfNormal</text>
</g>
<!-- σ_η&#45;&gt;η -->
<g id="edge8" class="edge">
<title>σ_η&#45;&gt;η</title>
<path fill="none" stroke="black" d="M849.59,-620.47C843.22,-610.25 836.17,-598.97 829.54,-588.35"/>
<polygon fill="black" stroke="black" points="832.36,-586.25 824.1,-579.62 826.42,-589.96 832.36,-586.25"/>
</g>
<!-- σ_o -->
<g id="node7" class="node">
<title>σ_o</title>
<ellipse fill="none" stroke="black" cx="79.3" cy="-423.34" rx="69.09" ry="37.45"/>
<text text-anchor="middle" x="79.3" y="-434.64" font-family="Times-Roman" font-size="14.00">σ_o</text>
<text text-anchor="middle" x="79.3" y="-419.64" font-family="Times-Roman" font-size="14.00">~</text>
<text text-anchor="middle" x="79.3" y="-404.64" font-family="Times-Roman" font-size="14.00">HalfNormal</text>
</g>
<!-- o -->
<g id="node14" class="node">
<title>o</title>
<ellipse fill="none" stroke="black" cx="294.3" cy="-301.38" rx="48.58" ry="37.45"/>
<text text-anchor="middle" x="294.3" y="-312.68" font-family="Times-Roman" font-size="14.00">o</text>
<text text-anchor="middle" x="294.3" y="-297.68" font-family="Times-Roman" font-size="14.00">~</text>
<text text-anchor="middle" x="294.3" y="-282.68" font-family="Times-Roman" font-size="14.00">Normal</text>
</g>
<!-- σ_o&#45;&gt;o -->
<g id="edge16" class="edge">
<title>σ_o&#45;&gt;o</title>
<path fill="none" stroke="black" d="M110.39,-389.56C123.13,-377.47 138.58,-364.4 154.3,-354.86 180.48,-338.96 212.27,-326.57 238.94,-317.83"/>
<polygon fill="black" stroke="black" points="240.05,-321.15 248.51,-314.78 237.92,-314.48 240.05,-321.15"/>
</g>
<!-- σ -->
<g id="node8" class="node">
<title>σ</title>
<ellipse fill="none" stroke="black" cx="278.3" cy="-187.43" rx="69.09" ry="37.45"/>
<text text-anchor="middle" x="278.3" y="-198.73" font-family="Times-Roman" font-size="14.00">σ</text>
<text text-anchor="middle" x="278.3" y="-183.73" font-family="Times-Roman" font-size="14.00">~</text>
<text text-anchor="middle" x="278.3" y="-168.73" font-family="Times-Roman" font-size="14.00">HalfNormal</text>
</g>
<!-- lfc -->
<g id="node20" class="node">
<title>lfc</title>
<ellipse fill="lightgrey" stroke="black" cx="452.3" cy="-76.48" rx="48.58" ry="37.45"/>
<text text-anchor="middle" x="452.3" y="-87.78" font-family="Times-Roman" font-size="14.00">lfc</text>
<text text-anchor="middle" x="452.3" y="-72.78" font-family="Times-Roman" font-size="14.00">~</text>
<text text-anchor="middle" x="452.3" y="-57.78" font-family="Times-Roman" font-size="14.00">Normal</text>
</g>
<!-- σ&#45;&gt;lfc -->
<g id="edge19" class="edge">
<title>σ&#45;&gt;lfc</title>
<path fill="none" stroke="black" d="M323.11,-158.37C348.71,-142.34 380.74,-122.28 406.51,-106.15"/>
<polygon fill="black" stroke="black" points="408.37,-109.11 414.98,-100.84 404.65,-103.18 408.37,-109.11"/>
</g>
<!-- σ_og -->
<g id="node9" class="node">
<title>σ_og</title>
<ellipse fill="none" stroke="black" cx="69.3" cy="-545.29" rx="69.09" ry="37.45"/>
<text text-anchor="middle" x="69.3" y="-556.59" font-family="Times-Roman" font-size="14.00">σ_og</text>
<text text-anchor="middle" x="69.3" y="-541.59" font-family="Times-Roman" font-size="14.00">~</text>
<text text-anchor="middle" x="69.3" y="-526.59" font-family="Times-Roman" font-size="14.00">HalfNormal</text>
</g>
<!-- μ_o -->
<g id="node16" class="node">
<title>μ_o</title>
<ellipse fill="none" stroke="black" cx="215.3" cy="-423.34" rx="48.58" ry="37.45"/>
<text text-anchor="middle" x="215.3" y="-434.64" font-family="Times-Roman" font-size="14.00">μ_o</text>
<text text-anchor="middle" x="215.3" y="-419.64" font-family="Times-Roman" font-size="14.00">~</text>
<text text-anchor="middle" x="215.3" y="-404.64" font-family="Times-Roman" font-size="14.00">Normal</text>
</g>
<!-- σ_og&#45;&gt;μ_o -->
<g id="edge14" class="edge">
<title>σ_og&#45;&gt;μ_o</title>
<path fill="none" stroke="black" d="M104.66,-512.96C117.9,-501.43 133.16,-488.37 147.3,-476.81 152.45,-472.6 162.27,-464.95 172.89,-456.77"/>
<polygon fill="black" stroke="black" points="175.3,-459.32 181.09,-450.45 171.03,-453.78 175.3,-459.32"/>
</g>
<!-- σ_d -->
<g id="node10" class="node">
<title>σ_d</title>
<ellipse fill="none" stroke="black" cx="634.3" cy="-423.34" rx="69.09" ry="37.45"/>
<text text-anchor="middle" x="634.3" y="-434.64" font-family="Times-Roman" font-size="14.00">σ_d</text>
<text text-anchor="middle" x="634.3" y="-419.64" font-family="Times-Roman" font-size="14.00">~</text>
<text text-anchor="middle" x="634.3" y="-404.64" font-family="Times-Roman" font-size="14.00">HalfNormal</text>
</g>
<!-- d -->
<g id="node18" class="node">
<title>d</title>
<ellipse fill="none" stroke="black" cx="634.3" cy="-301.38" rx="48.58" ry="37.45"/>
<text text-anchor="middle" x="634.3" y="-312.68" font-family="Times-Roman" font-size="14.00">d</text>
<text text-anchor="middle" x="634.3" y="-297.68" font-family="Times-Roman" font-size="14.00">~</text>
<text text-anchor="middle" x="634.3" y="-282.68" font-family="Times-Roman" font-size="14.00">Normal</text>
</g>
<!-- σ_d&#45;&gt;d -->
<g id="edge5" class="edge">
<title>σ_d&#45;&gt;d</title>
<path fill="none" stroke="black" d="M634.3,-385.69C634.3,-374.29 634.3,-361.55 634.3,-349.54"/>
<polygon fill="black" stroke="black" points="637.8,-349.21 634.3,-339.21 630.8,-349.21 637.8,-349.21"/>
</g>
<!-- μ_h -->
<g id="node11" class="node">
<title>μ_h</title>
<ellipse fill="none" stroke="black" cx="477.3" cy="-545.29" rx="48.58" ry="37.45"/>
<text text-anchor="middle" x="477.3" y="-556.59" font-family="Times-Roman" font-size="14.00">μ_h</text>
<text text-anchor="middle" x="477.3" y="-541.59" font-family="Times-Roman" font-size="14.00">~</text>
<text text-anchor="middle" x="477.3" y="-526.59" font-family="Times-Roman" font-size="14.00">Normal</text>
</g>
<!-- μ_h&#45;&gt;h -->
<g id="edge4" class="edge">
<title>μ_h&#45;&gt;h</title>
<path fill="none" stroke="black" d="M455.33,-511.45C445.58,-499.06 433.17,-485.79 419.3,-476.81 408.79,-470.01 403.52,-474.36 392.3,-468.81 385.67,-465.54 379.01,-461.55 372.64,-457.32"/>
<polygon fill="black" stroke="black" points="374.39,-454.27 364.18,-451.45 370.4,-460.02 374.39,-454.27"/>
</g>
<!-- μ_og -->
<g id="node12" class="node">
<title>μ_og</title>
<ellipse fill="none" stroke="black" cx="205.3" cy="-545.29" rx="48.58" ry="37.45"/>
<text text-anchor="middle" x="205.3" y="-556.59" font-family="Times-Roman" font-size="14.00">μ_og</text>
<text text-anchor="middle" x="205.3" y="-541.59" font-family="Times-Roman" font-size="14.00">~</text>
<text text-anchor="middle" x="205.3" y="-526.59" font-family="Times-Roman" font-size="14.00">Normal</text>
</g>
<!-- μ_og&#45;&gt;μ_o -->
<g id="edge13" class="edge">
<title>μ_og&#45;&gt;μ_o</title>
<path fill="none" stroke="black" d="M208.35,-507.65C209.32,-496.02 210.41,-483.01 211.42,-470.79"/>
<polygon fill="black" stroke="black" points="214.92,-471.01 212.26,-460.75 207.94,-470.43 214.92,-471.01"/>
</g>
<!-- μ_d -->
<g id="node13" class="node">
<title>μ_d</title>
<ellipse fill="none" stroke="black" cx="770.3" cy="-423.34" rx="48.58" ry="37.45"/>
<text text-anchor="middle" x="770.3" y="-434.64" font-family="Times-Roman" font-size="14.00">μ_d</text>
<text text-anchor="middle" x="770.3" y="-419.64" font-family="Times-Roman" font-size="14.00">~</text>
<text text-anchor="middle" x="770.3" y="-404.64" font-family="Times-Roman" font-size="14.00">Normal</text>
</g>
<!-- μ_d&#45;&gt;d -->
<g id="edge6" class="edge">
<title>μ_d&#45;&gt;d</title>
<path fill="none" stroke="black" d="M745.94,-390.51C736.13,-378.67 724.31,-365.53 712.3,-354.86 702.67,-346.31 691.57,-338.04 680.81,-330.7"/>
<polygon fill="black" stroke="black" points="682.56,-327.65 672.3,-325.02 678.68,-333.48 682.56,-327.65"/>
</g>
<!-- o&#45;&gt;lfc -->
<g id="edge17" class="edge">
<title>o&#45;&gt;lfc</title>
<path fill="none" stroke="black" d="M321.84,-269.98C333.22,-256.66 346.1,-240.53 356.3,-224.91 376.72,-193.63 374.08,-181.36 394.3,-149.95 401.67,-138.51 410.49,-126.72 419,-116.07"/>
<polygon fill="black" stroke="black" points="421.83,-118.14 425.42,-108.17 416.4,-113.73 421.83,-118.14"/>
</g>
<!-- q&#45;&gt;μ -->
<g id="edge9" class="edge">
<title>q&#45;&gt;μ</title>
<path fill="none" stroke="black" d="M414.01,-268.9C422.09,-254.55 431.67,-237.52 439.94,-222.83"/>
<polygon fill="black" stroke="black" points="443.04,-224.46 444.89,-214.03 436.94,-221.03 443.04,-224.46"/>
</g>
<!-- μ_o&#45;&gt;o -->
<g id="edge15" class="edge">
<title>μ_o&#45;&gt;o</title>
<path fill="none" stroke="black" d="M236.88,-389.56C246.2,-375.41 257.21,-358.7 267.08,-343.71"/>
<polygon fill="black" stroke="black" points="270.16,-345.4 272.74,-335.12 264.31,-341.55 270.16,-345.4"/>
</g>
<!-- h&#45;&gt;μ -->
<g id="edge11" class="edge">
<title>h&#45;&gt;μ</title>
<path fill="none" stroke="black" d="M353.28,-389.59C363.6,-376.74 377.02,-363.12 392.3,-354.86 412.48,-343.95 427.52,-363.52 443.3,-346.86 474,-314.42 472.32,-259.83 466.91,-223.97"/>
<polygon fill="black" stroke="black" points="470.33,-223.21 465.22,-213.93 463.43,-224.37 470.33,-223.21"/>
</g>
<!-- d&#45;&gt;μ -->
<g id="edge10" class="edge">
<title>d&#45;&gt;μ</title>
<path fill="none" stroke="black" d="M597.18,-276.64C571.18,-260 536.17,-237.61 507.93,-219.54"/>
<polygon fill="black" stroke="black" points="509.71,-216.53 499.4,-214.09 505.94,-222.43 509.71,-216.53"/>
</g>
<!-- μ&#45;&gt;lfc -->
<g id="edge18" class="edge">
<title>μ&#45;&gt;lfc</title>
<path fill="none" stroke="black" d="M457.66,-160.89C456.95,-149.98 456.11,-136.89 455.31,-124.35"/>
<polygon fill="black" stroke="black" points="458.78,-123.76 454.64,-114 451.79,-124.21 458.78,-123.76"/>
</g>
</g>
</svg>
