<?xml version="1.0" encoding="UTF-8" standalone="no"?>
<!DOCTYPE svg PUBLIC "-//W3C//DTD SVG 1.1//EN"
 "http://www.w3.org/Graphics/SVG/1.1/DTD/svg11.dtd">
<!-- Generated by graphviz version 2.47.0 (20210316.1410)
 -->
<!-- Pages: 1 -->
<svg width="806pt" height="580pt"
 viewBox="0.00 0.00 806.09 579.77" xmlns="http://www.w3.org/2000/svg" xmlns:xlink="http://www.w3.org/1999/xlink">
<g id="graph0" class="graph" transform="scale(1 1) rotate(0) translate(4 575.77)">
<polygon fill="white" stroke="transparent" points="-4,4 -4,-575.77 802.09,-575.77 802.09,4 -4,4"/>
<g id="clust1" class="cluster">
<title>cluster100</title>
<path fill="none" stroke="black" d="M275.79,-354.86C275.79,-354.86 521.79,-354.86 521.79,-354.86 527.79,-354.86 533.79,-360.86 533.79,-366.86 533.79,-366.86 533.79,-456.81 533.79,-456.81 533.79,-462.81 527.79,-468.81 521.79,-468.81 521.79,-468.81 275.79,-468.81 275.79,-468.81 269.79,-468.81 263.79,-462.81 263.79,-456.81 263.79,-456.81 263.79,-366.86 263.79,-366.86 263.79,-360.86 269.79,-354.86 275.79,-354.86"/>
<text text-anchor="middle" x="511.79" y="-362.66" font-family="Times-Roman" font-size="14.00">100</text>
</g>
<g id="clust2" class="cluster">
<title>cluster395</title>
<path fill="none" stroke="black" d="M343.79,-232.91C343.79,-232.91 433.79,-232.91 433.79,-232.91 439.79,-232.91 445.79,-238.91 445.79,-244.91 445.79,-244.91 445.79,-334.86 445.79,-334.86 445.79,-340.86 439.79,-346.86 433.79,-346.86 433.79,-346.86 343.79,-346.86 343.79,-346.86 337.79,-346.86 331.79,-340.86 331.79,-334.86 331.79,-334.86 331.79,-244.91 331.79,-244.91 331.79,-238.91 337.79,-232.91 343.79,-232.91"/>
<text text-anchor="middle" x="423.79" y="-240.71" font-family="Times-Roman" font-size="14.00">395</text>
</g>
<g id="clust3" class="cluster">
<title>cluster36</title>
<path fill="none" stroke="black" d="M139.79,-232.91C139.79,-232.91 229.79,-232.91 229.79,-232.91 235.79,-232.91 241.79,-238.91 241.79,-244.91 241.79,-244.91 241.79,-334.86 241.79,-334.86 241.79,-340.86 235.79,-346.86 229.79,-346.86 229.79,-346.86 139.79,-346.86 139.79,-346.86 133.79,-346.86 127.79,-340.86 127.79,-334.86 127.79,-334.86 127.79,-244.91 127.79,-244.91 127.79,-238.91 133.79,-232.91 139.79,-232.91"/>
<text text-anchor="middle" x="224.29" y="-240.71" font-family="Times-Roman" font-size="14.00">36</text>
</g>
<g id="clust4" class="cluster">
<title>cluster2</title>
<path fill="none" stroke="black" d="M547.79,-232.91C547.79,-232.91 637.79,-232.91 637.79,-232.91 643.79,-232.91 649.79,-238.91 649.79,-244.91 649.79,-244.91 649.79,-334.86 649.79,-334.86 649.79,-340.86 643.79,-346.86 637.79,-346.86 637.79,-346.86 547.79,-346.86 547.79,-346.86 541.79,-346.86 535.79,-340.86 535.79,-334.86 535.79,-334.86 535.79,-244.91 535.79,-244.91 535.79,-238.91 541.79,-232.91 547.79,-232.91"/>
<text text-anchor="middle" x="636.79" y="-240.71" font-family="Times-Roman" font-size="14.00">2</text>
</g>
<g id="clust5" class="cluster">
<title>cluster34,760</title>
<path fill="none" stroke="black" d="M336.79,-8C336.79,-8 440.79,-8 440.79,-8 446.79,-8 452.79,-14 452.79,-20 452.79,-20 452.79,-209.93 452.79,-209.93 452.79,-215.93 446.79,-221.93 440.79,-221.93 440.79,-221.93 336.79,-221.93 336.79,-221.93 330.79,-221.93 324.79,-215.93 324.79,-209.93 324.79,-209.93 324.79,-20 324.79,-20 324.79,-14 330.79,-8 336.79,-8"/>
<text text-anchor="middle" x="419.79" y="-15.8" font-family="Times-Roman" font-size="14.00">34,760</text>
</g>
<!-- μ_β -->
<g id="node1" class="node">
<title>μ_β</title>
<ellipse fill="none" stroke="black" cx="48.79" cy="-423.34" rx="48.58" ry="37.45"/>
<text text-anchor="middle" x="48.79" y="-434.64" font-family="Times-Roman" font-size="14.00">μ_β</text>
<text text-anchor="middle" x="48.79" y="-419.64" font-family="Times-Roman" font-size="14.00">~</text>
<text text-anchor="middle" x="48.79" y="-404.64" font-family="Times-Roman" font-size="14.00">Normal</text>
</g>
<!-- β_l -->
<g id="node12" class="node">
<title>β_l</title>
<ellipse fill="none" stroke="black" cx="184.79" cy="-301.38" rx="48.58" ry="37.45"/>
<text text-anchor="middle" x="184.79" y="-312.68" font-family="Times-Roman" font-size="14.00">β_l</text>
<text text-anchor="middle" x="184.79" y="-297.68" font-family="Times-Roman" font-size="14.00">~</text>
<text text-anchor="middle" x="184.79" y="-282.68" font-family="Times-Roman" font-size="14.00">Normal</text>
</g>
<!-- μ_β&#45;&gt;β_l -->
<g id="edge6" class="edge">
<title>μ_β&#45;&gt;β_l</title>
<path fill="none" stroke="black" d="M73.15,-390.51C82.96,-378.67 94.78,-365.53 106.79,-354.86 116.42,-346.31 127.52,-338.04 138.27,-330.7"/>
<polygon fill="black" stroke="black" points="140.41,-333.48 146.79,-325.02 136.53,-327.65 140.41,-333.48"/>
</g>
<!-- μ_η -->
<g id="node2" class="node">
<title>μ_η</title>
<ellipse fill="none" stroke="black" cx="592.79" cy="-423.34" rx="48.58" ry="37.45"/>
<text text-anchor="middle" x="592.79" y="-434.64" font-family="Times-Roman" font-size="14.00">μ_η</text>
<text text-anchor="middle" x="592.79" y="-419.64" font-family="Times-Roman" font-size="14.00">~</text>
<text text-anchor="middle" x="592.79" y="-404.64" font-family="Times-Roman" font-size="14.00">Normal</text>
</g>
<!-- η_b -->
<g id="node13" class="node">
<title>η_b</title>
<ellipse fill="none" stroke="black" cx="592.79" cy="-301.38" rx="48.58" ry="37.45"/>
<text text-anchor="middle" x="592.79" y="-312.68" font-family="Times-Roman" font-size="14.00">η_b</text>
<text text-anchor="middle" x="592.79" y="-297.68" font-family="Times-Roman" font-size="14.00">~</text>
<text text-anchor="middle" x="592.79" y="-282.68" font-family="Times-Roman" font-size="14.00">Normal</text>
</g>
<!-- μ_η&#45;&gt;η_b -->
<g id="edge8" class="edge">
<title>μ_η&#45;&gt;η_b</title>
<path fill="none" stroke="black" d="M592.79,-385.69C592.79,-374.29 592.79,-361.55 592.79,-349.54"/>
<polygon fill="black" stroke="black" points="596.29,-349.21 592.79,-339.21 589.29,-349.21 596.29,-349.21"/>
</g>
<!-- μ_g -->
<g id="node3" class="node">
<title>μ_g</title>
<ellipse fill="none" stroke="black" cx="184.79" cy="-534.29" rx="48.58" ry="37.45"/>
<text text-anchor="middle" x="184.79" y="-545.59" font-family="Times-Roman" font-size="14.00">μ_g</text>
<text text-anchor="middle" x="184.79" y="-530.59" font-family="Times-Roman" font-size="14.00">~</text>
<text text-anchor="middle" x="184.79" y="-515.59" font-family="Times-Roman" font-size="14.00">Normal</text>
</g>
<!-- μ_α -->
<g id="node9" class="node">
<title>μ_α</title>
<ellipse fill="none" stroke="black" cx="320.79" cy="-423.34" rx="48.58" ry="37.45"/>
<text text-anchor="middle" x="320.79" y="-434.64" font-family="Times-Roman" font-size="14.00">μ_α</text>
<text text-anchor="middle" x="320.79" y="-419.64" font-family="Times-Roman" font-size="14.00">~</text>
<text text-anchor="middle" x="320.79" y="-404.64" font-family="Times-Roman" font-size="14.00">Normal</text>
</g>
<!-- μ_g&#45;&gt;μ_α -->
<g id="edge2" class="edge">
<title>μ_g&#45;&gt;μ_α</title>
<path fill="none" stroke="black" d="M218.06,-506.64C236.58,-491.8 259.81,-473.19 279.48,-457.43"/>
<polygon fill="black" stroke="black" points="281.78,-460.08 287.39,-451.09 277.4,-454.61 281.78,-460.08"/>
</g>
<!-- σ_β -->
<g id="node4" class="node">
<title>σ_β</title>
<ellipse fill="none" stroke="black" cx="184.79" cy="-423.34" rx="69.09" ry="37.45"/>
<text text-anchor="middle" x="184.79" y="-434.64" font-family="Times-Roman" font-size="14.00">σ_β</text>
<text text-anchor="middle" x="184.79" y="-419.64" font-family="Times-Roman" font-size="14.00">~</text>
<text text-anchor="middle" x="184.79" y="-404.64" font-family="Times-Roman" font-size="14.00">HalfNormal</text>
</g>
<!-- σ_β&#45;&gt;β_l -->
<g id="edge7" class="edge">
<title>σ_β&#45;&gt;β_l</title>
<path fill="none" stroke="black" d="M184.79,-385.69C184.79,-374.29 184.79,-361.55 184.79,-349.54"/>
<polygon fill="black" stroke="black" points="188.29,-349.21 184.79,-339.21 181.29,-349.21 188.29,-349.21"/>
</g>
<!-- σ_g -->
<g id="node5" class="node">
<title>σ_g</title>
<ellipse fill="none" stroke="black" cx="320.79" cy="-534.29" rx="69.09" ry="37.45"/>
<text text-anchor="middle" x="320.79" y="-545.59" font-family="Times-Roman" font-size="14.00">σ_g</text>
<text text-anchor="middle" x="320.79" y="-530.59" font-family="Times-Roman" font-size="14.00">~</text>
<text text-anchor="middle" x="320.79" y="-515.59" font-family="Times-Roman" font-size="14.00">HalfNormal</text>
</g>
<!-- σ_g&#45;&gt;μ_α -->
<g id="edge1" class="edge">
<title>σ_g&#45;&gt;μ_α</title>
<path fill="none" stroke="black" d="M320.79,-496.71C320.79,-488.53 320.79,-479.75 320.79,-471.23"/>
<polygon fill="black" stroke="black" points="324.29,-471.01 320.79,-461.01 317.29,-471.01 324.29,-471.01"/>
</g>
<!-- σ_η -->
<g id="node6" class="node">
<title>σ_η</title>
<ellipse fill="none" stroke="black" cx="728.79" cy="-423.34" rx="69.09" ry="37.45"/>
<text text-anchor="middle" x="728.79" y="-434.64" font-family="Times-Roman" font-size="14.00">σ_η</text>
<text text-anchor="middle" x="728.79" y="-419.64" font-family="Times-Roman" font-size="14.00">~</text>
<text text-anchor="middle" x="728.79" y="-404.64" font-family="Times-Roman" font-size="14.00">HalfNormal</text>
</g>
<!-- σ_η&#45;&gt;η_b -->
<g id="edge9" class="edge">
<title>σ_η&#45;&gt;η_b</title>
<path fill="none" stroke="black" d="M693.06,-390.82C674.38,-374.35 651.48,-354.15 632.28,-337.21"/>
<polygon fill="black" stroke="black" points="634.39,-334.41 624.57,-330.42 629.76,-339.66 634.39,-334.41"/>
</g>
<!-- σ_σ_α -->
<g id="node7" class="node">
<title>σ_σ_α</title>
<ellipse fill="none" stroke="black" cx="477.79" cy="-534.29" rx="69.09" ry="37.45"/>
<text text-anchor="middle" x="477.79" y="-545.59" font-family="Times-Roman" font-size="14.00">σ_σ_α</text>
<text text-anchor="middle" x="477.79" y="-530.59" font-family="Times-Roman" font-size="14.00">~</text>
<text text-anchor="middle" x="477.79" y="-515.59" font-family="Times-Roman" font-size="14.00">HalfNormal</text>
</g>
<!-- σ_α -->
<g id="node10" class="node">
<title>σ_α</title>
<ellipse fill="none" stroke="black" cx="456.79" cy="-423.34" rx="69.09" ry="37.45"/>
<text text-anchor="middle" x="456.79" y="-434.64" font-family="Times-Roman" font-size="14.00">σ_α</text>
<text text-anchor="middle" x="456.79" y="-419.64" font-family="Times-Roman" font-size="14.00">~</text>
<text text-anchor="middle" x="456.79" y="-404.64" font-family="Times-Roman" font-size="14.00">HalfNormal</text>
</g>
<!-- σ_σ_α&#45;&gt;σ_α -->
<g id="edge3" class="edge">
<title>σ_σ_α&#45;&gt;σ_α</title>
<path fill="none" stroke="black" d="M470.74,-496.71C469.13,-488.35 467.4,-479.37 465.72,-470.67"/>
<polygon fill="black" stroke="black" points="469.12,-469.79 463.79,-460.64 462.24,-471.12 469.12,-469.79"/>
</g>
<!-- σ -->
<g id="node8" class="node">
<title>σ</title>
<ellipse fill="none" stroke="black" cx="531.79" cy="-187.43" rx="69.09" ry="37.45"/>
<text text-anchor="middle" x="531.79" y="-198.73" font-family="Times-Roman" font-size="14.00">σ</text>
<text text-anchor="middle" x="531.79" y="-183.73" font-family="Times-Roman" font-size="14.00">~</text>
<text text-anchor="middle" x="531.79" y="-168.73" font-family="Times-Roman" font-size="14.00">HalfNormal</text>
</g>
<!-- lfc -->
<g id="node15" class="node">
<title>lfc</title>
<ellipse fill="lightgrey" stroke="black" cx="391.79" cy="-76.48" rx="48.58" ry="37.45"/>
<text text-anchor="middle" x="391.79" y="-87.78" font-family="Times-Roman" font-size="14.00">lfc</text>
<text text-anchor="middle" x="391.79" y="-72.78" font-family="Times-Roman" font-size="14.00">~</text>
<text text-anchor="middle" x="391.79" y="-57.78" font-family="Times-Roman" font-size="14.00">Normal</text>
</g>
<!-- σ&#45;&gt;lfc -->
<g id="edge14" class="edge">
<title>σ&#45;&gt;lfc</title>
<path fill="none" stroke="black" d="M492.79,-156.08C474.47,-141.82 452.59,-124.79 433.89,-110.24"/>
<polygon fill="black" stroke="black" points="435.86,-107.34 425.82,-103.96 431.56,-112.86 435.86,-107.34"/>
</g>
<!-- α_s -->
<g id="node11" class="node">
<title>α_s</title>
<ellipse fill="none" stroke="black" cx="388.79" cy="-301.38" rx="48.58" ry="37.45"/>
<text text-anchor="middle" x="388.79" y="-312.68" font-family="Times-Roman" font-size="14.00">α_s</text>
<text text-anchor="middle" x="388.79" y="-297.68" font-family="Times-Roman" font-size="14.00">~</text>
<text text-anchor="middle" x="388.79" y="-282.68" font-family="Times-Roman" font-size="14.00">Normal</text>
</g>
<!-- μ_α&#45;&gt;α_s -->
<g id="edge4" class="edge">
<title>μ_α&#45;&gt;α_s</title>
<path fill="none" stroke="black" d="M339.91,-388.6C347.52,-375.19 356.36,-359.59 364.42,-345.38"/>
<polygon fill="black" stroke="black" points="367.69,-346.7 369.58,-336.28 361.6,-343.25 367.69,-346.7"/>
</g>
<!-- σ_α&#45;&gt;α_s -->
<g id="edge5" class="edge">
<title>σ_α&#45;&gt;α_s</title>
<path fill="none" stroke="black" d="M436.94,-387.32C429.41,-374.04 420.76,-358.79 412.89,-344.9"/>
<polygon fill="black" stroke="black" points="415.82,-342.97 407.85,-336 409.73,-346.43 415.82,-342.97"/>
</g>
<!-- μ -->
<g id="node14" class="node">
<title>μ</title>
<polygon fill="none" stroke="black" points="444.79,-213.93 332.79,-213.93 332.79,-160.93 444.79,-160.93 444.79,-213.93"/>
<text text-anchor="middle" x="388.79" y="-198.73" font-family="Times-Roman" font-size="14.00">μ</text>
<text text-anchor="middle" x="388.79" y="-183.73" font-family="Times-Roman" font-size="14.00">~</text>
<text text-anchor="middle" x="388.79" y="-168.73" font-family="Times-Roman" font-size="14.00">Deterministic</text>
</g>
<!-- α_s&#45;&gt;μ -->
<g id="edge10" class="edge">
<title>α_s&#45;&gt;μ</title>
<path fill="none" stroke="black" d="M388.79,-263.73C388.79,-251.07 388.79,-236.92 388.79,-224.32"/>
<polygon fill="black" stroke="black" points="392.29,-224.18 388.79,-214.18 385.29,-224.18 392.29,-224.18"/>
</g>
<!-- β_l&#45;&gt;μ -->
<g id="edge11" class="edge">
<title>β_l&#45;&gt;μ</title>
<path fill="none" stroke="black" d="M224.12,-278.8C255.05,-261.82 298.53,-237.96 333.05,-219.02"/>
<polygon fill="black" stroke="black" points="334.99,-221.95 342.07,-214.07 331.62,-215.81 334.99,-221.95"/>
</g>
<!-- η_b&#45;&gt;μ -->
<g id="edge12" class="edge">
<title>η_b&#45;&gt;μ</title>
<path fill="none" stroke="black" d="M553.17,-279.06C525.31,-264.02 487.21,-243.35 453.79,-224.91 450.32,-222.99 446.75,-221.01 443.16,-219.01"/>
<polygon fill="black" stroke="black" points="444.64,-215.83 434.2,-214.02 441.23,-221.95 444.64,-215.83"/>
</g>
<!-- μ&#45;&gt;lfc -->
<g id="edge13" class="edge">
<title>μ&#45;&gt;lfc</title>
<path fill="none" stroke="black" d="M389.49,-160.89C389.79,-149.98 390.15,-136.89 390.5,-124.35"/>
<polygon fill="black" stroke="black" points="394.01,-124.09 390.78,-114 387.01,-123.9 394.01,-124.09"/>
</g>
</g>
</svg>
