<?xml version="1.0" encoding="UTF-8" standalone="no"?>
<!DOCTYPE svg PUBLIC "-//W3C//DTD SVG 1.1//EN"
 "http://www.w3.org/Graphics/SVG/1.1/DTD/svg11.dtd">
<!-- Generated by graphviz version 2.42.3 (20191010.1750)
 -->
<!-- Title: %3 Pages: 1 -->
<svg width="481pt" height="683pt"
 viewBox="0.00 0.00 481.09 682.72" xmlns="http://www.w3.org/2000/svg" xmlns:xlink="http://www.w3.org/1999/xlink">
<g id="graph0" class="graph" transform="scale(1 1) rotate(0) translate(4 678.72)">
<title>%3</title>
<polygon fill="white" stroke="transparent" points="-4,4 -4,-678.72 477.09,-678.72 477.09,4 -4,4"/>
<g id="clust1" class="cluster">
<title>cluster5</title>
<path fill="none" stroke="black" d="M243.98,-457.81C243.98,-457.81 333.98,-457.81 333.98,-457.81 339.98,-457.81 345.98,-463.81 345.98,-469.81 345.98,-469.81 345.98,-559.77 345.98,-559.77 345.98,-565.77 339.98,-571.77 333.98,-571.77 333.98,-571.77 243.98,-571.77 243.98,-571.77 237.98,-571.77 231.98,-565.77 231.98,-559.77 231.98,-559.77 231.98,-469.81 231.98,-469.81 231.98,-463.81 237.98,-457.81 243.98,-457.81"/>
<text text-anchor="middle" x="334.48" y="-465.61" font-family="Times,serif" font-size="14.00">5</text>
</g>
<g id="clust2" class="cluster">
<title>cluster15</title>
<path fill="none" stroke="black" d="M246.98,-232.91C246.98,-232.91 330.98,-232.91 330.98,-232.91 336.98,-232.91 342.98,-238.91 342.98,-244.91 342.98,-244.91 342.98,-434.84 342.98,-434.84 342.98,-440.84 336.98,-446.84 330.98,-446.84 330.98,-446.84 246.98,-446.84 246.98,-446.84 240.98,-446.84 234.98,-440.84 234.98,-434.84 234.98,-434.84 234.98,-244.91 234.98,-244.91 234.98,-238.91 240.98,-232.91 246.98,-232.91"/>
<text text-anchor="middle" x="327.98" y="-240.71" font-family="Times,serif" font-size="14.00">15</text>
</g>
<g id="clust3" class="cluster">
<title>cluster20</title>
<path fill="none" stroke="black" d="M138.98,-232.91C138.98,-232.91 214.98,-232.91 214.98,-232.91 220.98,-232.91 226.98,-238.91 226.98,-244.91 226.98,-244.91 226.98,-334.86 226.98,-334.86 226.98,-340.86 220.98,-346.86 214.98,-346.86 214.98,-346.86 138.98,-346.86 138.98,-346.86 132.98,-346.86 126.98,-340.86 126.98,-334.86 126.98,-334.86 126.98,-244.91 126.98,-244.91 126.98,-238.91 132.98,-232.91 138.98,-232.91"/>
<text text-anchor="middle" x="211.98" y="-240.71" font-family="Times,serif" font-size="14.00">20</text>
</g>
<g id="clust4" class="cluster">
<title>cluster300</title>
<path fill="none" stroke="black" d="M191.98,-8C191.98,-8 275.98,-8 275.98,-8 281.98,-8 287.98,-14 287.98,-20 287.98,-20 287.98,-209.93 287.98,-209.93 287.98,-215.93 281.98,-221.93 275.98,-221.93 275.98,-221.93 191.98,-221.93 191.98,-221.93 185.98,-221.93 179.98,-215.93 179.98,-209.93 179.98,-209.93 179.98,-20 179.98,-20 179.98,-14 185.98,-8 191.98,-8"/>
<text text-anchor="middle" x="269.48" y="-15.8" font-family="Times,serif" font-size="14.00">300</text>
</g>
<!-- sigma_beta -->
<g id="node1" class="node">
<title>sigma_beta</title>
<ellipse fill="none" stroke="black" cx="57.98" cy="-412.34" rx="57.97" ry="37.45"/>
<text text-anchor="middle" x="57.98" y="-423.64" font-family="Times,serif" font-size="14.00">sigma_beta</text>
<text text-anchor="middle" x="57.98" y="-408.64" font-family="Times,serif" font-size="14.00">~</text>
<text text-anchor="middle" x="57.98" y="-393.64" font-family="Times,serif" font-size="14.00">Exponential</text>
</g>
<!-- beta_c -->
<g id="node10" class="node">
<title>beta_c</title>
<ellipse fill="none" stroke="black" cx="176.98" cy="-301.38" rx="41.94" ry="37.45"/>
<text text-anchor="middle" x="176.98" y="-312.68" font-family="Times,serif" font-size="14.00">beta_c</text>
<text text-anchor="middle" x="176.98" y="-297.68" font-family="Times,serif" font-size="14.00">~</text>
<text text-anchor="middle" x="176.98" y="-282.68" font-family="Times,serif" font-size="14.00">Normal</text>
</g>
<!-- sigma_beta&#45;&gt;beta_c -->
<g id="edge7" class="edge">
<title>sigma_beta&#45;&gt;beta_c</title>
<path fill="none" stroke="black" d="M90.82,-381.28C106.3,-367.09 124.83,-350.13 140.74,-335.57"/>
<polygon fill="black" stroke="black" points="143.29,-337.97 148.31,-328.64 138.57,-332.81 143.29,-337.97"/>
</g>
<!-- sigma_alpha -->
<g id="node2" class="node">
<title>sigma_alpha</title>
<ellipse fill="none" stroke="black" cx="412.98" cy="-412.34" rx="60.21" ry="37.45"/>
<text text-anchor="middle" x="412.98" y="-423.64" font-family="Times,serif" font-size="14.00">sigma_alpha</text>
<text text-anchor="middle" x="412.98" y="-408.64" font-family="Times,serif" font-size="14.00">~</text>
<text text-anchor="middle" x="412.98" y="-393.64" font-family="Times,serif" font-size="14.00">Exponential</text>
</g>
<!-- alpha_s -->
<g id="node8" class="node">
<title>alpha_s</title>
<ellipse fill="none" stroke="black" cx="288.98" cy="-301.38" rx="41.94" ry="37.45"/>
<text text-anchor="middle" x="288.98" y="-312.68" font-family="Times,serif" font-size="14.00">alpha_s</text>
<text text-anchor="middle" x="288.98" y="-297.68" font-family="Times,serif" font-size="14.00">~</text>
<text text-anchor="middle" x="288.98" y="-282.68" font-family="Times,serif" font-size="14.00">Normal</text>
</g>
<!-- sigma_alpha&#45;&gt;alpha_s -->
<g id="edge5" class="edge">
<title>sigma_alpha&#45;&gt;alpha_s</title>
<path fill="none" stroke="black" d="M378.77,-381.28C362.51,-366.99 343.03,-349.87 326.37,-335.24"/>
<polygon fill="black" stroke="black" points="328.27,-332.25 318.45,-328.28 323.65,-337.51 328.27,-332.25"/>
</g>
<!-- mu_beta -->
<g id="node3" class="node">
<title>mu_beta</title>
<ellipse fill="none" stroke="black" cx="178.98" cy="-412.34" rx="45.01" ry="37.45"/>
<text text-anchor="middle" x="178.98" y="-423.64" font-family="Times,serif" font-size="14.00">mu_beta</text>
<text text-anchor="middle" x="178.98" y="-408.64" font-family="Times,serif" font-size="14.00">~</text>
<text text-anchor="middle" x="178.98" y="-393.64" font-family="Times,serif" font-size="14.00">Normal</text>
</g>
<!-- mu_beta&#45;&gt;beta_c -->
<g id="edge6" class="edge">
<title>mu_beta&#45;&gt;beta_c</title>
<path fill="none" stroke="black" d="M178.31,-374.75C178.16,-366.58 178,-357.8 177.84,-349.27"/>
<polygon fill="black" stroke="black" points="181.34,-348.99 177.66,-339.06 174.34,-349.12 181.34,-348.99"/>
</g>
<!-- sigma -->
<g id="node4" class="node">
<title>sigma</title>
<ellipse fill="none" stroke="black" cx="354.98" cy="-187.43" rx="57.97" ry="37.45"/>
<text text-anchor="middle" x="354.98" y="-198.73" font-family="Times,serif" font-size="14.00">sigma</text>
<text text-anchor="middle" x="354.98" y="-183.73" font-family="Times,serif" font-size="14.00">~</text>
<text text-anchor="middle" x="354.98" y="-168.73" font-family="Times,serif" font-size="14.00">Exponential</text>
</g>
<!-- logfc -->
<g id="node11" class="node">
<title>logfc</title>
<ellipse fill="lightgrey" stroke="black" cx="235.98" cy="-76.48" rx="41.94" ry="37.45"/>
<text text-anchor="middle" x="235.98" y="-87.78" font-family="Times,serif" font-size="14.00">logfc</text>
<text text-anchor="middle" x="235.98" y="-72.78" font-family="Times,serif" font-size="14.00">~</text>
<text text-anchor="middle" x="235.98" y="-57.78" font-family="Times,serif" font-size="14.00">Normal</text>
</g>
<!-- sigma&#45;&gt;logfc -->
<g id="edge11" class="edge">
<title>sigma&#45;&gt;logfc</title>
<path fill="none" stroke="black" d="M322.15,-156.37C306.66,-142.19 288.13,-125.22 272.23,-110.66"/>
<polygon fill="black" stroke="black" points="274.4,-107.9 264.66,-103.73 269.67,-113.07 274.4,-107.9"/>
</g>
<!-- mu_epsilon -->
<g id="node5" class="node">
<title>mu_epsilon</title>
<ellipse fill="none" stroke="black" cx="217.98" cy="-637.24" rx="56.64" ry="37.45"/>
<text text-anchor="middle" x="217.98" y="-648.54" font-family="Times,serif" font-size="14.00">mu_epsilon</text>
<text text-anchor="middle" x="217.98" y="-633.54" font-family="Times,serif" font-size="14.00">~</text>
<text text-anchor="middle" x="217.98" y="-618.54" font-family="Times,serif" font-size="14.00">Normal</text>
</g>
<!-- epsilon_g -->
<g id="node7" class="node">
<title>epsilon_g</title>
<ellipse fill="none" stroke="black" cx="288.98" cy="-526.29" rx="48.58" ry="37.45"/>
<text text-anchor="middle" x="288.98" y="-537.59" font-family="Times,serif" font-size="14.00">epsilon_g</text>
<text text-anchor="middle" x="288.98" y="-522.59" font-family="Times,serif" font-size="14.00">~</text>
<text text-anchor="middle" x="288.98" y="-507.59" font-family="Times,serif" font-size="14.00">Normal</text>
</g>
<!-- mu_epsilon&#45;&gt;epsilon_g -->
<g id="edge1" class="edge">
<title>mu_epsilon&#45;&gt;epsilon_g</title>
<path fill="none" stroke="black" d="M239.86,-602.66C246.88,-591.9 254.73,-579.86 262.06,-568.61"/>
<polygon fill="black" stroke="black" points="265.01,-570.49 267.54,-560.2 259.15,-566.66 265.01,-570.49"/>
</g>
<!-- sigma_epsilon -->
<g id="node6" class="node">
<title>sigma_epsilon</title>
<ellipse fill="none" stroke="black" cx="359.98" cy="-637.24" rx="67.35" ry="37.45"/>
<text text-anchor="middle" x="359.98" y="-648.54" font-family="Times,serif" font-size="14.00">sigma_epsilon</text>
<text text-anchor="middle" x="359.98" y="-633.54" font-family="Times,serif" font-size="14.00">~</text>
<text text-anchor="middle" x="359.98" y="-618.54" font-family="Times,serif" font-size="14.00">Exponential</text>
</g>
<!-- sigma_epsilon&#45;&gt;epsilon_g -->
<g id="edge2" class="edge">
<title>sigma_epsilon&#45;&gt;epsilon_g</title>
<path fill="none" stroke="black" d="M337.52,-601.77C330.66,-591.24 323.04,-579.56 315.92,-568.62"/>
<polygon fill="black" stroke="black" points="318.73,-566.52 310.33,-560.05 312.86,-570.34 318.73,-566.52"/>
</g>
<!-- mu_alpha -->
<g id="node9" class="node">
<title>mu_alpha</title>
<polygon fill="none" stroke="black" points="334.48,-438.84 243.48,-438.84 243.48,-385.84 334.48,-385.84 334.48,-438.84"/>
<text text-anchor="middle" x="288.98" y="-423.64" font-family="Times,serif" font-size="14.00">mu_alpha</text>
<text text-anchor="middle" x="288.98" y="-408.64" font-family="Times,serif" font-size="14.00">~</text>
<text text-anchor="middle" x="288.98" y="-393.64" font-family="Times,serif" font-size="14.00">Deterministic</text>
</g>
<!-- epsilon_g&#45;&gt;mu_alpha -->
<g id="edge3" class="edge">
<title>epsilon_g&#45;&gt;mu_alpha</title>
<path fill="none" stroke="black" d="M288.98,-488.63C288.98,-475.98 288.98,-461.82 288.98,-449.23"/>
<polygon fill="black" stroke="black" points="292.48,-449.09 288.98,-439.09 285.48,-449.09 292.48,-449.09"/>
</g>
<!-- mu_sgc -->
<g id="node12" class="node">
<title>mu_sgc</title>
<polygon fill="none" stroke="black" points="279.48,-213.93 188.48,-213.93 188.48,-160.93 279.48,-160.93 279.48,-213.93"/>
<text text-anchor="middle" x="233.98" y="-198.73" font-family="Times,serif" font-size="14.00">mu_sgc</text>
<text text-anchor="middle" x="233.98" y="-183.73" font-family="Times,serif" font-size="14.00">~</text>
<text text-anchor="middle" x="233.98" y="-168.73" font-family="Times,serif" font-size="14.00">Deterministic</text>
</g>
<!-- alpha_s&#45;&gt;mu_sgc -->
<g id="edge8" class="edge">
<title>alpha_s&#45;&gt;mu_sgc</title>
<path fill="none" stroke="black" d="M272.48,-266.79C265.75,-253.08 257.96,-237.23 251.15,-223.38"/>
<polygon fill="black" stroke="black" points="254.18,-221.6 246.63,-214.16 247.89,-224.68 254.18,-221.6"/>
</g>
<!-- mu_alpha&#45;&gt;alpha_s -->
<g id="edge4" class="edge">
<title>mu_alpha&#45;&gt;alpha_s</title>
<path fill="none" stroke="black" d="M288.98,-385.79C288.98,-374.88 288.98,-361.79 288.98,-349.25"/>
<polygon fill="black" stroke="black" points="292.48,-348.91 288.98,-338.91 285.48,-348.91 292.48,-348.91"/>
</g>
<!-- beta_c&#45;&gt;mu_sgc -->
<g id="edge9" class="edge">
<title>beta_c&#45;&gt;mu_sgc</title>
<path fill="none" stroke="black" d="M193.93,-267.1C200.97,-253.27 209.14,-237.22 216.26,-223.24"/>
<polygon fill="black" stroke="black" points="219.57,-224.44 220.99,-213.94 213.34,-221.27 219.57,-224.44"/>
</g>
<!-- mu_sgc&#45;&gt;logfc -->
<g id="edge10" class="edge">
<title>mu_sgc&#45;&gt;logfc</title>
<path fill="none" stroke="black" d="M234.45,-160.89C234.65,-149.98 234.89,-136.89 235.12,-124.35"/>
<polygon fill="black" stroke="black" points="238.63,-124.06 235.31,-114 231.63,-123.94 238.63,-124.06"/>
</g>
</g>
</svg>
