<?xml version="1.0" encoding="UTF-8" standalone="no"?>
<!DOCTYPE svg PUBLIC "-//W3C//DTD SVG 1.1//EN"
 "http://www.w3.org/Graphics/SVG/1.1/DTD/svg11.dtd">
<!-- Generated by graphviz version 3.0.0 (0)
 -->
<!-- Pages: 1 -->
<svg width="1876pt" height="674pt"
 viewBox="0.00 0.00 1875.55 673.79" xmlns="http://www.w3.org/2000/svg" xmlns:xlink="http://www.w3.org/1999/xlink">
<g id="graph0" class="graph" transform="scale(1 1) rotate(0) translate(4 669.79)">
<polygon fill="white" stroke="transparent" points="-4,4 -4,-669.79 1871.55,-669.79 1871.55,4 -4,4"/>
<g id="clust4" class="cluster">
<title>clustergene (113) x cancer_gene (31) x lineage (2)</title>
<path fill="none" stroke="black" d="M1298.55,-443.86C1298.55,-443.86 1530.55,-443.86 1530.55,-443.86 1536.55,-443.86 1542.55,-449.86 1542.55,-455.86 1542.55,-455.86 1542.55,-645.79 1542.55,-645.79 1542.55,-651.79 1536.55,-657.79 1530.55,-657.79 1530.55,-657.79 1298.55,-657.79 1298.55,-657.79 1292.55,-657.79 1286.55,-651.79 1286.55,-645.79 1286.55,-645.79 1286.55,-455.86 1286.55,-455.86 1286.55,-449.86 1292.55,-443.86 1298.55,-443.86"/>
<text text-anchor="middle" x="1414.55" y="-451.66" font-family="Times,serif" font-size="14.00">gene (113) x cancer_gene (31) x lineage (2)</text>
</g>
<g id="clust3" class="cluster">
<title>clustergene (113) x lineage (2)</title>
<path fill="none" stroke="black" d="M428.55,-443.86C428.55,-443.86 839.55,-443.86 839.55,-443.86 845.55,-443.86 851.55,-449.86 851.55,-455.86 851.55,-455.86 851.55,-645.79 851.55,-645.79 851.55,-651.79 845.55,-657.79 839.55,-657.79 839.55,-657.79 428.55,-657.79 428.55,-657.79 422.55,-657.79 416.55,-651.79 416.55,-645.79 416.55,-645.79 416.55,-455.86 416.55,-455.86 416.55,-449.86 422.55,-443.86 428.55,-443.86"/>
<text text-anchor="middle" x="777.55" y="-451.66" font-family="Times,serif" font-size="14.00">gene (113) x lineage (2)</text>
</g>
<g id="clust5" class="cluster">
<title>clustergene (113) x screen (2)</title>
<path fill="none" stroke="black" d="M1728.55,-321.91C1728.55,-321.91 1847.55,-321.91 1847.55,-321.91 1853.55,-321.91 1859.55,-327.91 1859.55,-333.91 1859.55,-333.91 1859.55,-423.86 1859.55,-423.86 1859.55,-429.86 1853.55,-435.86 1847.55,-435.86 1847.55,-435.86 1728.55,-435.86 1728.55,-435.86 1722.55,-435.86 1716.55,-429.86 1716.55,-423.86 1716.55,-423.86 1716.55,-333.91 1716.55,-333.91 1716.55,-327.91 1722.55,-321.91 1728.55,-321.91"/>
<text text-anchor="middle" x="1788.05" y="-329.71" font-family="Times,serif" font-size="14.00">gene (113) x screen (2)</text>
</g>
<g id="clust1" class="cluster">
<title>clustersgrna (338)</title>
<path fill="none" stroke="black" d="M1562.55,-332.88C1562.55,-332.88 1646.55,-332.88 1646.55,-332.88 1652.55,-332.88 1658.55,-338.88 1658.55,-344.88 1658.55,-344.88 1658.55,-534.84 1658.55,-534.84 1658.55,-540.84 1652.55,-546.84 1646.55,-546.84 1646.55,-546.84 1562.55,-546.84 1562.55,-546.84 1556.55,-546.84 1550.55,-540.84 1550.55,-534.84 1550.55,-534.84 1550.55,-344.88 1550.55,-344.88 1550.55,-338.88 1556.55,-332.88 1562.55,-332.88"/>
<text text-anchor="middle" x="1619.05" y="-340.68" font-family="Times,serif" font-size="14.00">sgrna (338)</text>
</g>
<g id="clust2" class="cluster">
<title>clustercell_line (10)</title>
<path fill="none" stroke="black" d="M109.55,-443.86C109.55,-443.86 302.55,-443.86 302.55,-443.86 308.55,-443.86 314.55,-449.86 314.55,-455.86 314.55,-455.86 314.55,-645.79 314.55,-645.79 314.55,-651.79 308.55,-657.79 302.55,-657.79 302.55,-657.79 109.55,-657.79 109.55,-657.79 103.55,-657.79 97.55,-651.79 97.55,-645.79 97.55,-645.79 97.55,-455.86 97.55,-455.86 97.55,-449.86 103.55,-443.86 109.55,-443.86"/>
<text text-anchor="middle" x="270.05" y="-451.66" font-family="Times,serif" font-size="14.00">cell_line (10)</text>
</g>
<g id="clust6" class="cluster">
<title>cluster1976</title>
<path fill="none" stroke="black" d="M527.55,-8C527.55,-8 730.55,-8 730.55,-8 736.55,-8 742.55,-14 742.55,-20 742.55,-20 742.55,-412.88 742.55,-412.88 742.55,-418.88 736.55,-424.88 730.55,-424.88 730.55,-424.88 527.55,-424.88 527.55,-424.88 521.55,-424.88 515.55,-418.88 515.55,-412.88 515.55,-412.88 515.55,-20 515.55,-20 515.55,-14 521.55,-8 527.55,-8"/>
<text text-anchor="middle" x="720.55" y="-15.8" font-family="Times,serif" font-size="14.00">1976</text>
</g>
<!-- sigma_b -->
<g id="node1" class="node">
<title>sigma_b</title>
<ellipse fill="none" stroke="black" cx="44.55" cy="-612.31" rx="44.6" ry="37.45"/>
<text text-anchor="middle" x="44.55" y="-623.61" font-family="Times,serif" font-size="14.00">sigma_b</text>
<text text-anchor="middle" x="44.55" y="-608.61" font-family="Times,serif" font-size="14.00">~</text>
<text text-anchor="middle" x="44.55" y="-593.61" font-family="Times,serif" font-size="14.00">Gamma</text>
</g>
<!-- b -->
<g id="node14" class="node">
<title>b</title>
<polygon fill="none" stroke="black" points="197.05,-527.86 106.05,-527.86 106.05,-474.86 197.05,-474.86 197.05,-527.86"/>
<text text-anchor="middle" x="151.55" y="-512.66" font-family="Times,serif" font-size="14.00">b</text>
<text text-anchor="middle" x="151.55" y="-497.66" font-family="Times,serif" font-size="14.00">~</text>
<text text-anchor="middle" x="151.55" y="-482.66" font-family="Times,serif" font-size="14.00">Deterministic</text>
</g>
<!-- sigma_b&#45;&gt;b -->
<g id="edge4" class="edge">
<title>sigma_b&#45;&gt;b</title>
<path fill="none" stroke="black" d="M72.38,-582.97C86.75,-568.34 104.35,-550.42 119.31,-535.19"/>
<polygon fill="black" stroke="black" points="121.9,-537.54 126.41,-527.95 116.91,-532.64 121.9,-537.54"/>
</g>
<!-- sigma_h -->
<g id="node2" class="node">
<title>sigma_h</title>
<ellipse fill="none" stroke="black" cx="904.55" cy="-612.31" rx="44.6" ry="37.45"/>
<text text-anchor="middle" x="904.55" y="-623.61" font-family="Times,serif" font-size="14.00">sigma_h</text>
<text text-anchor="middle" x="904.55" y="-608.61" font-family="Times,serif" font-size="14.00">~</text>
<text text-anchor="middle" x="904.55" y="-593.61" font-family="Times,serif" font-size="14.00">Gamma</text>
</g>
<!-- h -->
<g id="node22" class="node">
<title>h</title>
<polygon fill="none" stroke="black" points="516.05,-527.86 425.05,-527.86 425.05,-474.86 516.05,-474.86 516.05,-527.86"/>
<text text-anchor="middle" x="470.55" y="-512.66" font-family="Times,serif" font-size="14.00">h</text>
<text text-anchor="middle" x="470.55" y="-497.66" font-family="Times,serif" font-size="14.00">~</text>
<text text-anchor="middle" x="470.55" y="-482.66" font-family="Times,serif" font-size="14.00">Deterministic</text>
</g>
<!-- sigma_h&#45;&gt;h -->
<g id="edge10" class="edge">
<title>sigma_h&#45;&gt;h</title>
<path fill="none" stroke="black" d="M874.18,-584.78C868.33,-580.83 861.99,-577.28 855.55,-574.84 717.91,-522.67 662.11,-601.75 525.55,-546.84 518.02,-543.81 510.71,-539.38 504.01,-534.47"/>
<polygon fill="black" stroke="black" points="505.9,-531.51 495.88,-528.08 501.57,-537.01 505.9,-531.51"/>
</g>
<!-- sigma_m -->
<g id="node3" class="node">
<title>sigma_m</title>
<ellipse fill="none" stroke="black" cx="1015.55" cy="-612.31" rx="48.17" ry="37.45"/>
<text text-anchor="middle" x="1015.55" y="-623.61" font-family="Times,serif" font-size="14.00">sigma_m</text>
<text text-anchor="middle" x="1015.55" y="-608.61" font-family="Times,serif" font-size="14.00">~</text>
<text text-anchor="middle" x="1015.55" y="-593.61" font-family="Times,serif" font-size="14.00">Gamma</text>
</g>
<!-- m -->
<g id="node18" class="node">
<title>m</title>
<polygon fill="none" stroke="black" points="625.05,-527.86 534.05,-527.86 534.05,-474.86 625.05,-474.86 625.05,-527.86"/>
<text text-anchor="middle" x="579.55" y="-512.66" font-family="Times,serif" font-size="14.00">m</text>
<text text-anchor="middle" x="579.55" y="-497.66" font-family="Times,serif" font-size="14.00">~</text>
<text text-anchor="middle" x="579.55" y="-482.66" font-family="Times,serif" font-size="14.00">Deterministic</text>
</g>
<!-- sigma_m&#45;&gt;m -->
<g id="edge14" class="edge">
<title>sigma_m&#45;&gt;m</title>
<path fill="none" stroke="black" d="M981.33,-585.72C974.12,-581.41 966.33,-577.48 958.55,-574.84 821.7,-528.31 768.61,-600.86 634.55,-546.84 627.02,-543.8 619.71,-539.37 613.01,-534.46"/>
<polygon fill="black" stroke="black" points="614.91,-531.5 604.88,-528.07 610.58,-537 614.91,-531.5"/>
</g>
<!-- alpha -->
<g id="node4" class="node">
<title>alpha</title>
<ellipse fill="none" stroke="black" cx="793.55" cy="-187.43" rx="43.27" ry="37.45"/>
<text text-anchor="middle" x="793.55" y="-198.73" font-family="Times,serif" font-size="14.00">alpha</text>
<text text-anchor="middle" x="793.55" y="-183.73" font-family="Times,serif" font-size="14.00">~</text>
<text text-anchor="middle" x="793.55" y="-168.73" font-family="Times,serif" font-size="14.00">Gamma</text>
</g>
<!-- ct_final -->
<g id="node33" class="node">
<title>ct_final</title>
<ellipse fill="lightgrey" stroke="black" cx="652.55" cy="-76.48" rx="63.78" ry="37.45"/>
<text text-anchor="middle" x="652.55" y="-87.78" font-family="Times,serif" font-size="14.00">ct_final</text>
<text text-anchor="middle" x="652.55" y="-72.78" font-family="Times,serif" font-size="14.00">~</text>
<text text-anchor="middle" x="652.55" y="-57.78" font-family="Times,serif" font-size="14.00">NegBinomial</text>
</g>
<!-- alpha&#45;&gt;ct_final -->
<g id="edge33" class="edge">
<title>alpha&#45;&gt;ct_final</title>
<path fill="none" stroke="black" d="M761.96,-161.89C756.81,-157.9 751.53,-153.81 746.55,-149.95 731.01,-137.93 714,-124.81 698.78,-113.08"/>
<polygon fill="black" stroke="black" points="700.59,-110.05 690.53,-106.72 696.31,-115.6 700.59,-110.05"/>
</g>
<!-- z -->
<g id="node5" class="node">
<title>z</title>
<ellipse fill="none" stroke="black" cx="793.55" cy="-390.38" rx="41.94" ry="37.45"/>
<text text-anchor="middle" x="793.55" y="-401.68" font-family="Times,serif" font-size="14.00">z</text>
<text text-anchor="middle" x="793.55" y="-386.68" font-family="Times,serif" font-size="14.00">~</text>
<text text-anchor="middle" x="793.55" y="-371.68" font-family="Times,serif" font-size="14.00">Normal</text>
</g>
<!-- eta -->
<g id="node30" class="node">
<title>eta</title>
<polygon fill="none" stroke="black" points="734.05,-313.91 643.05,-313.91 643.05,-260.91 734.05,-260.91 734.05,-313.91"/>
<text text-anchor="middle" x="688.55" y="-298.71" font-family="Times,serif" font-size="14.00">eta</text>
<text text-anchor="middle" x="688.55" y="-283.71" font-family="Times,serif" font-size="14.00">~</text>
<text text-anchor="middle" x="688.55" y="-268.71" font-family="Times,serif" font-size="14.00">Deterministic</text>
</g>
<!-- z&#45;&gt;eta -->
<g id="edge28" class="edge">
<title>z&#45;&gt;eta</title>
<path fill="none" stroke="black" d="M774.85,-356.55C767.1,-344.72 757.38,-331.86 746.55,-321.91 745.25,-320.72 743.91,-319.55 742.52,-318.41"/>
<polygon fill="black" stroke="black" points="744.33,-315.39 734.25,-312.16 740.12,-320.98 744.33,-315.39"/>
</g>
<!-- sigma_k -->
<g id="node6" class="node">
<title>sigma_k</title>
<ellipse fill="none" stroke="black" cx="1126.55" cy="-612.31" rx="44.6" ry="37.45"/>
<text text-anchor="middle" x="1126.55" y="-623.61" font-family="Times,serif" font-size="14.00">sigma_k</text>
<text text-anchor="middle" x="1126.55" y="-608.61" font-family="Times,serif" font-size="14.00">~</text>
<text text-anchor="middle" x="1126.55" y="-593.61" font-family="Times,serif" font-size="14.00">Gamma</text>
</g>
<!-- k -->
<g id="node19" class="node">
<title>k</title>
<polygon fill="none" stroke="black" points="734.05,-527.86 643.05,-527.86 643.05,-474.86 734.05,-474.86 734.05,-527.86"/>
<text text-anchor="middle" x="688.55" y="-512.66" font-family="Times,serif" font-size="14.00">k</text>
<text text-anchor="middle" x="688.55" y="-497.66" font-family="Times,serif" font-size="14.00">~</text>
<text text-anchor="middle" x="688.55" y="-482.66" font-family="Times,serif" font-size="14.00">Deterministic</text>
</g>
<!-- sigma_k&#45;&gt;k -->
<g id="edge12" class="edge">
<title>sigma_k&#45;&gt;k</title>
<path fill="none" stroke="black" d="M1094.57,-585.89C1087.65,-581.51 1080.12,-577.51 1072.55,-574.84 934.17,-525.97 879.7,-601.6 743.55,-546.84 736.02,-543.81 728.71,-539.38 722.01,-534.47"/>
<polygon fill="black" stroke="black" points="723.9,-531.51 713.88,-528.08 719.58,-537.01 723.9,-531.51"/>
</g>
<!-- sigma_f -->
<g id="node7" class="node">
<title>sigma_f</title>
<ellipse fill="none" stroke="black" cx="365.55" cy="-612.31" rx="43.27" ry="37.45"/>
<text text-anchor="middle" x="365.55" y="-623.61" font-family="Times,serif" font-size="14.00">sigma_f</text>
<text text-anchor="middle" x="365.55" y="-608.61" font-family="Times,serif" font-size="14.00">~</text>
<text text-anchor="middle" x="365.55" y="-593.61" font-family="Times,serif" font-size="14.00">Gamma</text>
</g>
<!-- f -->
<g id="node17" class="node">
<title>f</title>
<polygon fill="none" stroke="black" points="306.05,-527.86 215.05,-527.86 215.05,-474.86 306.05,-474.86 306.05,-527.86"/>
<text text-anchor="middle" x="260.55" y="-512.66" font-family="Times,serif" font-size="14.00">f</text>
<text text-anchor="middle" x="260.55" y="-497.66" font-family="Times,serif" font-size="14.00">~</text>
<text text-anchor="middle" x="260.55" y="-482.66" font-family="Times,serif" font-size="14.00">Deterministic</text>
</g>
<!-- sigma_f&#45;&gt;f -->
<g id="edge8" class="edge">
<title>sigma_f&#45;&gt;f</title>
<path fill="none" stroke="black" d="M338.23,-582.97C324.14,-568.34 306.86,-550.42 292.18,-535.19"/>
<polygon fill="black" stroke="black" points="294.67,-532.72 285.21,-527.95 289.63,-537.58 294.67,-532.72"/>
</g>
<!-- sigma_a -->
<g id="node8" class="node">
<title>sigma_a</title>
<ellipse fill="none" stroke="black" cx="1710.55" cy="-501.36" rx="43.68" ry="37.45"/>
<text text-anchor="middle" x="1710.55" y="-512.66" font-family="Times,serif" font-size="14.00">sigma_a</text>
<text text-anchor="middle" x="1710.55" y="-497.66" font-family="Times,serif" font-size="14.00">~</text>
<text text-anchor="middle" x="1710.55" y="-482.66" font-family="Times,serif" font-size="14.00">Gamma</text>
</g>
<!-- a -->
<g id="node13" class="node">
<title>a</title>
<polygon fill="none" stroke="black" points="1650.05,-416.88 1559.05,-416.88 1559.05,-363.88 1650.05,-363.88 1650.05,-416.88"/>
<text text-anchor="middle" x="1604.55" y="-401.68" font-family="Times,serif" font-size="14.00">a</text>
<text text-anchor="middle" x="1604.55" y="-386.68" font-family="Times,serif" font-size="14.00">~</text>
<text text-anchor="middle" x="1604.55" y="-371.68" font-family="Times,serif" font-size="14.00">Deterministic</text>
</g>
<!-- sigma_a&#45;&gt;a -->
<g id="edge2" class="edge">
<title>sigma_a&#45;&gt;a</title>
<path fill="none" stroke="black" d="M1686.1,-470.1C1678.75,-461.42 1670.52,-452.09 1662.55,-443.86 1656.09,-437.2 1648.95,-430.36 1641.96,-423.91"/>
<polygon fill="black" stroke="black" points="1644.21,-421.23 1634.46,-417.09 1639.5,-426.4 1644.21,-421.23"/>
</g>
<!-- sigma_w -->
<g id="node9" class="node">
<title>sigma_w</title>
<ellipse fill="none" stroke="black" cx="1597.55" cy="-612.31" rx="46.84" ry="37.45"/>
<text text-anchor="middle" x="1597.55" y="-623.61" font-family="Times,serif" font-size="14.00">sigma_w</text>
<text text-anchor="middle" x="1597.55" y="-608.61" font-family="Times,serif" font-size="14.00">~</text>
<text text-anchor="middle" x="1597.55" y="-593.61" font-family="Times,serif" font-size="14.00">Gamma</text>
</g>
<!-- w -->
<g id="node27" class="node">
<title>w</title>
<polygon fill="none" stroke="black" points="1460.05,-527.86 1369.05,-527.86 1369.05,-474.86 1460.05,-474.86 1460.05,-527.86"/>
<text text-anchor="middle" x="1414.55" y="-512.66" font-family="Times,serif" font-size="14.00">w</text>
<text text-anchor="middle" x="1414.55" y="-497.66" font-family="Times,serif" font-size="14.00">~</text>
<text text-anchor="middle" x="1414.55" y="-482.66" font-family="Times,serif" font-size="14.00">Deterministic</text>
</g>
<!-- sigma_w&#45;&gt;w -->
<g id="edge16" class="edge">
<title>sigma_w&#45;&gt;w</title>
<path fill="none" stroke="black" d="M1563.64,-586.22C1558.01,-582.29 1552.17,-578.37 1546.55,-574.84 1521.72,-559.22 1493.31,-543.38 1469.22,-530.5"/>
<polygon fill="black" stroke="black" points="1470.69,-527.32 1460.22,-525.72 1467.41,-533.5 1470.69,-527.32"/>
</g>
<!-- sigma_d -->
<g id="node10" class="node">
<title>sigma_d</title>
<ellipse fill="none" stroke="black" cx="1233.55" cy="-612.31" rx="44.6" ry="37.45"/>
<text text-anchor="middle" x="1233.55" y="-623.61" font-family="Times,serif" font-size="14.00">sigma_d</text>
<text text-anchor="middle" x="1233.55" y="-608.61" font-family="Times,serif" font-size="14.00">~</text>
<text text-anchor="middle" x="1233.55" y="-593.61" font-family="Times,serif" font-size="14.00">Gamma</text>
</g>
<!-- d -->
<g id="node21" class="node">
<title>d</title>
<polygon fill="none" stroke="black" points="843.05,-527.86 752.05,-527.86 752.05,-474.86 843.05,-474.86 843.05,-527.86"/>
<text text-anchor="middle" x="797.55" y="-512.66" font-family="Times,serif" font-size="14.00">d</text>
<text text-anchor="middle" x="797.55" y="-497.66" font-family="Times,serif" font-size="14.00">~</text>
<text text-anchor="middle" x="797.55" y="-482.66" font-family="Times,serif" font-size="14.00">Deterministic</text>
</g>
<!-- sigma_d&#45;&gt;d -->
<g id="edge6" class="edge">
<title>sigma_d&#45;&gt;d</title>
<path fill="none" stroke="black" d="M1201.41,-586.1C1194.79,-581.82 1187.66,-577.8 1180.55,-574.84 1070.33,-528.9 930.09,-511.85 853.58,-505.7"/>
<polygon fill="black" stroke="black" points="853.46,-502.18 843.22,-504.9 852.92,-509.16 853.46,-502.18"/>
</g>
<!-- sigma_p -->
<g id="node11" class="node">
<title>sigma_p</title>
<ellipse fill="none" stroke="black" cx="1816.55" cy="-501.36" rx="44.6" ry="37.45"/>
<text text-anchor="middle" x="1816.55" y="-512.66" font-family="Times,serif" font-size="14.00">sigma_p</text>
<text text-anchor="middle" x="1816.55" y="-497.66" font-family="Times,serif" font-size="14.00">~</text>
<text text-anchor="middle" x="1816.55" y="-482.66" font-family="Times,serif" font-size="14.00">Gamma</text>
</g>
<!-- p -->
<g id="node28" class="node">
<title>p</title>
<ellipse fill="none" stroke="black" cx="1787.55" cy="-390.38" rx="41.94" ry="37.45"/>
<text text-anchor="middle" x="1787.55" y="-401.68" font-family="Times,serif" font-size="14.00">p</text>
<text text-anchor="middle" x="1787.55" y="-386.68" font-family="Times,serif" font-size="14.00">~</text>
<text text-anchor="middle" x="1787.55" y="-371.68" font-family="Times,serif" font-size="14.00">Normal</text>
</g>
<!-- sigma_p&#45;&gt;p -->
<g id="edge17" class="edge">
<title>sigma_p&#45;&gt;p</title>
<path fill="none" stroke="black" d="M1807.05,-464.68C1804.7,-455.83 1802.14,-446.24 1799.68,-436.99"/>
<polygon fill="black" stroke="black" points="1803.02,-435.91 1797.06,-427.15 1796.25,-437.71 1803.02,-435.91"/>
</g>
<!-- delta_a -->
<g id="node12" class="node">
<title>delta_a</title>
<ellipse fill="none" stroke="black" cx="1604.55" cy="-501.36" rx="41.94" ry="37.45"/>
<text text-anchor="middle" x="1604.55" y="-512.66" font-family="Times,serif" font-size="14.00">delta_a</text>
<text text-anchor="middle" x="1604.55" y="-497.66" font-family="Times,serif" font-size="14.00">~</text>
<text text-anchor="middle" x="1604.55" y="-482.66" font-family="Times,serif" font-size="14.00">Normal</text>
</g>
<!-- delta_a&#45;&gt;a -->
<g id="edge1" class="edge">
<title>delta_a&#45;&gt;a</title>
<path fill="none" stroke="black" d="M1604.55,-463.77C1604.55,-452.03 1604.55,-439.04 1604.55,-427.35"/>
<polygon fill="black" stroke="black" points="1608.05,-427.04 1604.55,-417.04 1601.05,-427.04 1608.05,-427.04"/>
</g>
<!-- a&#45;&gt;eta -->
<g id="edge26" class="edge">
<title>a&#45;&gt;eta</title>
<path fill="none" stroke="black" d="M1558.81,-384.34C1405.68,-367.46 911.26,-312.96 744.25,-294.55"/>
<polygon fill="black" stroke="black" points="744.52,-291.06 734.2,-293.44 743.75,-298.01 744.52,-291.06"/>
</g>
<!-- cell_line_effect -->
<g id="node29" class="node">
<title>cell_line_effect</title>
<polygon fill="none" stroke="black" points="625.05,-416.88 524.05,-416.88 524.05,-363.88 625.05,-363.88 625.05,-416.88"/>
<text text-anchor="middle" x="574.55" y="-401.68" font-family="Times,serif" font-size="14.00">cell_line_effect</text>
<text text-anchor="middle" x="574.55" y="-386.68" font-family="Times,serif" font-size="14.00">~</text>
<text text-anchor="middle" x="574.55" y="-371.68" font-family="Times,serif" font-size="14.00">Deterministic</text>
</g>
<!-- b&#45;&gt;cell_line_effect -->
<g id="edge23" class="edge">
<title>b&#45;&gt;cell_line_effect</title>
<path fill="none" stroke="black" d="M170.2,-474.6C179.77,-463.33 192.39,-451.06 206.55,-443.86 259.03,-417.18 423.66,-401.87 513.9,-395.28"/>
<polygon fill="black" stroke="black" points="514.26,-398.76 523.99,-394.56 513.76,-391.78 514.26,-398.76"/>
</g>
<!-- delta_b -->
<g id="node15" class="node">
<title>delta_b</title>
<ellipse fill="none" stroke="black" cx="151.55" cy="-612.31" rx="41.94" ry="37.45"/>
<text text-anchor="middle" x="151.55" y="-623.61" font-family="Times,serif" font-size="14.00">delta_b</text>
<text text-anchor="middle" x="151.55" y="-608.61" font-family="Times,serif" font-size="14.00">~</text>
<text text-anchor="middle" x="151.55" y="-593.61" font-family="Times,serif" font-size="14.00">Normal</text>
</g>
<!-- delta_b&#45;&gt;b -->
<g id="edge3" class="edge">
<title>delta_b&#45;&gt;b</title>
<path fill="none" stroke="black" d="M151.55,-574.73C151.55,-562.99 151.55,-550.01 151.55,-538.31"/>
<polygon fill="black" stroke="black" points="155.05,-538.01 151.55,-528.01 148.05,-538.01 155.05,-538.01"/>
</g>
<!-- delta_f -->
<g id="node16" class="node">
<title>delta_f</title>
<ellipse fill="none" stroke="black" cx="260.55" cy="-612.31" rx="41.94" ry="37.45"/>
<text text-anchor="middle" x="260.55" y="-623.61" font-family="Times,serif" font-size="14.00">delta_f</text>
<text text-anchor="middle" x="260.55" y="-608.61" font-family="Times,serif" font-size="14.00">~</text>
<text text-anchor="middle" x="260.55" y="-593.61" font-family="Times,serif" font-size="14.00">Normal</text>
</g>
<!-- delta_f&#45;&gt;f -->
<g id="edge7" class="edge">
<title>delta_f&#45;&gt;f</title>
<path fill="none" stroke="black" d="M260.55,-574.73C260.55,-562.99 260.55,-550.01 260.55,-538.31"/>
<polygon fill="black" stroke="black" points="264.05,-538.01 260.55,-528.01 257.05,-538.01 264.05,-538.01"/>
</g>
<!-- f&#45;&gt;cell_line_effect -->
<g id="edge24" class="edge">
<title>f&#45;&gt;cell_line_effect</title>
<path fill="none" stroke="black" d="M306.26,-482.79C336.34,-471.37 376.65,-456.34 412.55,-443.86 446.06,-432.21 483.75,-419.95 514.34,-410.21"/>
<polygon fill="black" stroke="black" points="515.54,-413.5 524.01,-407.14 513.42,-406.83 515.54,-413.5"/>
</g>
<!-- gene_effect -->
<g id="node31" class="node">
<title>gene_effect</title>
<polygon fill="none" stroke="black" points="734.05,-416.88 643.05,-416.88 643.05,-363.88 734.05,-363.88 734.05,-416.88"/>
<text text-anchor="middle" x="688.55" y="-401.68" font-family="Times,serif" font-size="14.00">gene_effect</text>
<text text-anchor="middle" x="688.55" y="-386.68" font-family="Times,serif" font-size="14.00">~</text>
<text text-anchor="middle" x="688.55" y="-371.68" font-family="Times,serif" font-size="14.00">Deterministic</text>
</g>
<!-- m&#45;&gt;gene_effect -->
<g id="edge18" class="edge">
<title>m&#45;&gt;gene_effect</title>
<path fill="none" stroke="black" d="M604.31,-474.62C613.72,-464.92 624.57,-453.83 634.55,-443.86 640.86,-437.55 647.65,-430.87 654.21,-424.47"/>
<polygon fill="black" stroke="black" points="657.03,-426.61 661.76,-417.13 652.15,-421.59 657.03,-426.61"/>
</g>
<!-- k&#45;&gt;gene_effect -->
<g id="edge19" class="edge">
<title>k&#45;&gt;gene_effect</title>
<path fill="none" stroke="black" d="M688.55,-474.81C688.55,-460.7 688.55,-442.95 688.55,-427.45"/>
<polygon fill="black" stroke="black" points="692.05,-427.15 688.55,-417.15 685.05,-427.15 692.05,-427.15"/>
</g>
<!-- delta_d -->
<g id="node20" class="node">
<title>delta_d</title>
<ellipse fill="none" stroke="black" cx="797.55" cy="-612.31" rx="41.94" ry="37.45"/>
<text text-anchor="middle" x="797.55" y="-623.61" font-family="Times,serif" font-size="14.00">delta_d</text>
<text text-anchor="middle" x="797.55" y="-608.61" font-family="Times,serif" font-size="14.00">~</text>
<text text-anchor="middle" x="797.55" y="-593.61" font-family="Times,serif" font-size="14.00">Normal</text>
</g>
<!-- delta_d&#45;&gt;d -->
<g id="edge5" class="edge">
<title>delta_d&#45;&gt;d</title>
<path fill="none" stroke="black" d="M797.55,-574.73C797.55,-562.99 797.55,-550.01 797.55,-538.31"/>
<polygon fill="black" stroke="black" points="801.05,-538.01 797.55,-528.01 794.05,-538.01 801.05,-538.01"/>
</g>
<!-- d&#45;&gt;gene_effect -->
<g id="edge20" class="edge">
<title>d&#45;&gt;gene_effect</title>
<path fill="none" stroke="black" d="M773.6,-474.81C764.31,-465.03 753.53,-453.83 743.55,-443.86 737.03,-437.35 729.99,-430.49 723.18,-423.96"/>
<polygon fill="black" stroke="black" points="725.57,-421.41 715.92,-417.03 720.74,-426.47 725.57,-421.41"/>
</g>
<!-- h&#45;&gt;gene_effect -->
<g id="edge21" class="edge">
<title>h&#45;&gt;gene_effect</title>
<path fill="none" stroke="black" d="M488.5,-474.75C498.08,-463.22 510.91,-450.68 525.55,-443.86 569.58,-423.34 589.46,-453.93 634.55,-435.86 642.08,-432.84 649.36,-428.37 656,-423.41"/>
<polygon fill="black" stroke="black" points="658.45,-425.93 664.05,-416.94 654.06,-420.48 658.45,-425.93"/>
</g>
<!-- delta_h -->
<g id="node23" class="node">
<title>delta_h</title>
<ellipse fill="none" stroke="black" cx="470.55" cy="-612.31" rx="41.94" ry="37.45"/>
<text text-anchor="middle" x="470.55" y="-623.61" font-family="Times,serif" font-size="14.00">delta_h</text>
<text text-anchor="middle" x="470.55" y="-608.61" font-family="Times,serif" font-size="14.00">~</text>
<text text-anchor="middle" x="470.55" y="-593.61" font-family="Times,serif" font-size="14.00">Normal</text>
</g>
<!-- delta_h&#45;&gt;h -->
<g id="edge9" class="edge">
<title>delta_h&#45;&gt;h</title>
<path fill="none" stroke="black" d="M470.55,-574.73C470.55,-562.99 470.55,-550.01 470.55,-538.31"/>
<polygon fill="black" stroke="black" points="474.05,-538.01 470.55,-528.01 467.05,-538.01 474.05,-538.01"/>
</g>
<!-- delta_m -->
<g id="node24" class="node">
<title>delta_m</title>
<ellipse fill="none" stroke="black" cx="579.55" cy="-612.31" rx="43.27" ry="37.45"/>
<text text-anchor="middle" x="579.55" y="-623.61" font-family="Times,serif" font-size="14.00">delta_m</text>
<text text-anchor="middle" x="579.55" y="-608.61" font-family="Times,serif" font-size="14.00">~</text>
<text text-anchor="middle" x="579.55" y="-593.61" font-family="Times,serif" font-size="14.00">Normal</text>
</g>
<!-- delta_m&#45;&gt;m -->
<g id="edge13" class="edge">
<title>delta_m&#45;&gt;m</title>
<path fill="none" stroke="black" d="M579.55,-574.73C579.55,-562.99 579.55,-550.01 579.55,-538.31"/>
<polygon fill="black" stroke="black" points="583.05,-538.01 579.55,-528.01 576.05,-538.01 583.05,-538.01"/>
</g>
<!-- delta_k -->
<g id="node25" class="node">
<title>delta_k</title>
<ellipse fill="none" stroke="black" cx="688.55" cy="-612.31" rx="41.94" ry="37.45"/>
<text text-anchor="middle" x="688.55" y="-623.61" font-family="Times,serif" font-size="14.00">delta_k</text>
<text text-anchor="middle" x="688.55" y="-608.61" font-family="Times,serif" font-size="14.00">~</text>
<text text-anchor="middle" x="688.55" y="-593.61" font-family="Times,serif" font-size="14.00">Normal</text>
</g>
<!-- delta_k&#45;&gt;k -->
<g id="edge11" class="edge">
<title>delta_k&#45;&gt;k</title>
<path fill="none" stroke="black" d="M688.55,-574.73C688.55,-562.99 688.55,-550.01 688.55,-538.31"/>
<polygon fill="black" stroke="black" points="692.05,-538.01 688.55,-528.01 685.05,-538.01 692.05,-538.01"/>
</g>
<!-- delta_w -->
<g id="node26" class="node">
<title>delta_w</title>
<ellipse fill="none" stroke="black" cx="1414.55" cy="-612.31" rx="41.94" ry="37.45"/>
<text text-anchor="middle" x="1414.55" y="-623.61" font-family="Times,serif" font-size="14.00">delta_w</text>
<text text-anchor="middle" x="1414.55" y="-608.61" font-family="Times,serif" font-size="14.00">~</text>
<text text-anchor="middle" x="1414.55" y="-593.61" font-family="Times,serif" font-size="14.00">Normal</text>
</g>
<!-- delta_w&#45;&gt;w -->
<g id="edge15" class="edge">
<title>delta_w&#45;&gt;w</title>
<path fill="none" stroke="black" d="M1414.55,-574.73C1414.55,-562.99 1414.55,-550.01 1414.55,-538.31"/>
<polygon fill="black" stroke="black" points="1418.05,-538.01 1414.55,-528.01 1411.05,-538.01 1418.05,-538.01"/>
</g>
<!-- w&#45;&gt;gene_effect -->
<g id="edge22" class="edge">
<title>w&#45;&gt;gene_effect</title>
<path fill="none" stroke="black" d="M1368.94,-495.28C1273.67,-484.78 1046.52,-460.27 855.55,-443.86 830.47,-441.71 765.93,-445.19 742.55,-435.86 735.01,-432.85 727.73,-428.39 721.09,-423.43"/>
<polygon fill="black" stroke="black" points="723.03,-420.49 713.04,-416.95 718.64,-425.95 723.03,-420.49"/>
</g>
<!-- p&#45;&gt;eta -->
<g id="edge29" class="edge">
<title>p&#45;&gt;eta</title>
<path fill="none" stroke="black" d="M1755.11,-366.44C1730.87,-350.69 1696.23,-331.04 1662.55,-321.91 1574.15,-297.95 938.56,-290.55 744.6,-288.84"/>
<polygon fill="black" stroke="black" points="744.38,-285.34 734.35,-288.75 744.32,-292.34 744.38,-285.34"/>
</g>
<!-- cell_line_effect&#45;&gt;eta -->
<g id="edge25" class="edge">
<title>cell_line_effect&#45;&gt;eta</title>
<path fill="none" stroke="black" d="M594.36,-363.72C605.37,-350.38 619.8,-334.32 634.55,-321.91 635.25,-321.32 635.96,-320.73 636.69,-320.14"/>
<polygon fill="black" stroke="black" points="638.89,-322.87 644.74,-314.04 634.66,-317.29 638.89,-322.87"/>
</g>
<!-- mu -->
<g id="node32" class="node">
<title>mu</title>
<polygon fill="none" stroke="black" points="715.05,-213.93 624.05,-213.93 624.05,-160.93 715.05,-160.93 715.05,-213.93"/>
<text text-anchor="middle" x="669.55" y="-198.73" font-family="Times,serif" font-size="14.00">mu</text>
<text text-anchor="middle" x="669.55" y="-183.73" font-family="Times,serif" font-size="14.00">~</text>
<text text-anchor="middle" x="669.55" y="-168.73" font-family="Times,serif" font-size="14.00">Deterministic</text>
</g>
<!-- eta&#45;&gt;mu -->
<g id="edge30" class="edge">
<title>eta&#45;&gt;mu</title>
<path fill="none" stroke="black" d="M683.56,-260.66C681.37,-249.41 678.78,-236.03 676.42,-223.86"/>
<polygon fill="black" stroke="black" points="679.85,-223.15 674.51,-214 672.97,-224.48 679.85,-223.15"/>
</g>
<!-- gene_effect&#45;&gt;eta -->
<g id="edge27" class="edge">
<title>gene_effect&#45;&gt;eta</title>
<path fill="none" stroke="black" d="M688.55,-363.64C688.55,-351.65 688.55,-337.19 688.55,-324.17"/>
<polygon fill="black" stroke="black" points="692.05,-324.1 688.55,-314.1 685.05,-324.1 692.05,-324.1"/>
</g>
<!-- mu&#45;&gt;ct_final -->
<g id="edge31" class="edge">
<title>mu&#45;&gt;ct_final</title>
<path fill="none" stroke="black" d="M665.56,-160.89C663.84,-149.87 661.78,-136.63 659.8,-123.97"/>
<polygon fill="black" stroke="black" points="663.25,-123.34 658.25,-114 656.33,-124.42 663.25,-123.34"/>
</g>
<!-- ct_final&#45;&gt;ct_final -->
<g id="edge32" class="edge">
<title>ct_final&#45;&gt;ct_final</title>
<path fill="none" stroke="black" d="M705.94,-97.06C721.83,-96.44 734.19,-89.58 734.19,-76.48 734.19,-66.34 726.79,-59.94 716.09,-57.28"/>
<polygon fill="black" stroke="black" points="716.32,-53.78 705.94,-55.9 715.38,-60.71 716.32,-53.78"/>
</g>
</g>
</svg>
