<?xml version="1.0" encoding="UTF-8" standalone="no"?>
<!DOCTYPE svg PUBLIC "-//W3C//DTD SVG 1.1//EN"
 "http://www.w3.org/Graphics/SVG/1.1/DTD/svg11.dtd">
<!-- Generated by graphviz version 2.48.0 (0)
 -->
<!-- Pages: 1 -->
<svg width="1782pt" height="999pt"
 viewBox="0.00 0.00 1781.54 998.67" xmlns="http://www.w3.org/2000/svg" xmlns:xlink="http://www.w3.org/1999/xlink">
<g id="graph0" class="graph" transform="scale(1 1) rotate(0) translate(4 994.67)">
<polygon fill="white" stroke="transparent" points="-4,4 -4,-994.67 1777.54,-994.67 1777.54,4 -4,4"/>
<g id="clust1" class="cluster">
<title>cluster1,120</title>
<path fill="none" stroke="black" d="M106,-8C106,-8 278,-8 278,-8 284,-8 290,-14 290,-20 290,-20 290,-501.88 290,-501.88 290,-507.88 284,-513.88 278,-513.88 278,-513.88 106,-513.88 106,-513.88 100,-513.88 94,-507.88 94,-501.88 94,-501.88 94,-20 94,-20 94,-14 100,-8 106,-8"/>
<text text-anchor="middle" x="266" y="-15.8" font-family="Times,serif" font-size="14.00">1,120</text>
</g>
<g id="clust2" class="cluster">
<title>cluster160</title>
<path fill="none" stroke="black" d="M20,-543.84C20,-543.84 136,-543.84 136,-543.84 142,-543.84 148,-549.84 148,-555.84 148,-555.84 148,-623.84 148,-623.84 148,-629.84 142,-635.84 136,-635.84 136,-635.84 20,-635.84 20,-635.84 14,-635.84 8,-629.84 8,-623.84 8,-623.84 8,-555.84 8,-555.84 8,-549.84 14,-543.84 20,-543.84"/>
<text text-anchor="middle" x="129.5" y="-551.64" font-family="Times,serif" font-size="14.00">160</text>
</g>
<g id="clust3" class="cluster">
<title>cluster7</title>
<path fill="none" stroke="black" d="M534,-768.74C534,-768.74 682,-768.74 682,-768.74 688,-768.74 694,-774.74 694,-780.74 694,-780.74 694,-848.74 694,-848.74 694,-854.74 688,-860.74 682,-860.74 682,-860.74 534,-860.74 534,-860.74 528,-860.74 522,-854.74 522,-848.74 522,-848.74 522,-780.74 522,-780.74 522,-774.74 528,-768.74 534,-768.74"/>
<text text-anchor="middle" x="682.5" y="-776.54" font-family="Times,serif" font-size="14.00">7</text>
</g>
<g id="clust4" class="cluster">
<title>cluster101 x 7</title>
<path fill="none" stroke="black" d="M168,-543.84C168,-543.84 502,-543.84 502,-543.84 508,-543.84 514,-549.84 514,-555.84 514,-555.84 514,-859.72 514,-859.72 514,-865.72 508,-871.72 502,-871.72 502,-871.72 168,-871.72 168,-871.72 162,-871.72 156,-865.72 156,-859.72 156,-859.72 156,-555.84 156,-555.84 156,-549.84 162,-543.84 168,-543.84"/>
<text text-anchor="middle" x="485" y="-551.64" font-family="Times,serif" font-size="14.00">101 x 7</text>
</g>
<g id="clust5" class="cluster">
<title>cluster101 x 2</title>
<path fill="none" stroke="black" d="M714,-768.74C714,-768.74 911,-768.74 911,-768.74 917,-768.74 923,-774.74 923,-780.74 923,-780.74 923,-970.67 923,-970.67 923,-976.67 917,-982.67 911,-982.67 911,-982.67 714,-982.67 714,-982.67 708,-982.67 702,-976.67 702,-970.67 702,-970.67 702,-780.74 702,-780.74 702,-774.74 708,-768.74 714,-768.74"/>
<text text-anchor="middle" x="894" y="-776.54" font-family="Times,serif" font-size="14.00">101 x 2</text>
</g>
<g id="clust6" class="cluster">
<title>cluster1 x 2</title>
<path fill="none" stroke="black" d="M1211,-757.77C1211,-757.77 1458,-757.77 1458,-757.77 1464,-757.77 1470,-763.77 1470,-769.77 1470,-769.77 1470,-859.72 1470,-859.72 1470,-865.72 1464,-871.72 1458,-871.72 1458,-871.72 1211,-871.72 1211,-871.72 1205,-871.72 1199,-865.72 1199,-859.72 1199,-859.72 1199,-769.77 1199,-769.77 1199,-763.77 1205,-757.77 1211,-757.77"/>
<text text-anchor="middle" x="1448" y="-765.57" font-family="Times,serif" font-size="14.00">1 x 2</text>
</g>
<g id="clust7" class="cluster">
<title>cluster101 x 1</title>
<path fill="none" stroke="black" d="M544,-532.86C544,-532.86 654,-532.86 654,-532.86 660,-532.86 666,-538.86 666,-544.86 666,-544.86 666,-634.81 666,-634.81 666,-640.81 660,-646.81 654,-646.81 654,-646.81 544,-646.81 544,-646.81 538,-646.81 532,-640.81 532,-634.81 532,-634.81 532,-544.86 532,-544.86 532,-538.86 538,-532.86 544,-532.86"/>
<text text-anchor="middle" x="637" y="-540.66" font-family="Times,serif" font-size="14.00">101 x 1</text>
</g>
<g id="clust8" class="cluster">
<title>cluster160 x 7</title>
<path fill="none" stroke="black" d="M310,-410.91C310,-410.91 386,-410.91 386,-410.91 392,-410.91 398,-416.91 398,-422.91 398,-422.91 398,-512.86 398,-512.86 398,-518.86 392,-524.86 386,-524.86 386,-524.86 310,-524.86 310,-524.86 304,-524.86 298,-518.86 298,-512.86 298,-512.86 298,-422.91 298,-422.91 298,-416.91 304,-410.91 310,-410.91"/>
<text text-anchor="middle" x="369" y="-418.71" font-family="Times,serif" font-size="14.00">160 x 7</text>
</g>
<!-- sgrna_idx -->
<g id="node1" class="node">
<title>sgrna_idx</title>
<path fill="lightgrey" stroke="black" d="M270,-505.88C270,-505.88 222,-505.88 222,-505.88 216,-505.88 210,-499.88 210,-493.88 210,-493.88 210,-464.88 210,-464.88 210,-458.88 216,-452.88 222,-452.88 222,-452.88 270,-452.88 270,-452.88 276,-452.88 282,-458.88 282,-464.88 282,-464.88 282,-493.88 282,-493.88 282,-499.88 276,-505.88 270,-505.88"/>
<text text-anchor="middle" x="246" y="-490.68" font-family="Times,serif" font-size="14.00">sgrna_idx</text>
<text text-anchor="middle" x="246" y="-475.68" font-family="Times,serif" font-size="14.00">~</text>
<text text-anchor="middle" x="246" y="-460.68" font-family="Times,serif" font-size="14.00">Data</text>
</g>
<!-- eta -->
<g id="node4" class="node">
<title>eta</title>
<polygon fill="none" stroke="black" points="238.5,-402.91 145.5,-402.91 145.5,-349.91 238.5,-349.91 238.5,-402.91"/>
<text text-anchor="middle" x="192" y="-387.71" font-family="Times,serif" font-size="14.00">eta</text>
<text text-anchor="middle" x="192" y="-372.71" font-family="Times,serif" font-size="14.00">~</text>
<text text-anchor="middle" x="192" y="-357.71" font-family="Times,serif" font-size="14.00">Deterministic</text>
</g>
<!-- sgrna_idx&#45;&gt;eta -->
<g id="edge25" class="edge">
<title>sgrna_idx&#45;&gt;eta</title>
<path fill="none" stroke="black" d="M232.23,-452.64C225.63,-440.3 217.63,-425.33 210.51,-412.01"/>
<polygon fill="black" stroke="black" points="213.54,-410.27 205.74,-403.1 207.37,-413.57 213.54,-410.27"/>
</g>
<!-- mu -->
<g id="node2" class="node">
<title>mu</title>
<polygon fill="none" stroke="black" points="196.5,-302.93 103.5,-302.93 103.5,-249.93 196.5,-249.93 196.5,-302.93"/>
<text text-anchor="middle" x="150" y="-287.73" font-family="Times,serif" font-size="14.00">mu</text>
<text text-anchor="middle" x="150" y="-272.73" font-family="Times,serif" font-size="14.00">~</text>
<text text-anchor="middle" x="150" y="-257.73" font-family="Times,serif" font-size="14.00">Deterministic</text>
</g>
<!-- y -->
<g id="node6" class="node">
<title>y</title>
<ellipse fill="lightgrey" stroke="black" cx="198" cy="-165.48" rx="84.29" ry="37.45"/>
<text text-anchor="middle" x="198" y="-176.78" font-family="Times,serif" font-size="14.00">y</text>
<text text-anchor="middle" x="198" y="-161.78" font-family="Times,serif" font-size="14.00">~</text>
<text text-anchor="middle" x="198" y="-146.78" font-family="Times,serif" font-size="14.00">NegativeBinomial</text>
</g>
<!-- mu&#45;&gt;y -->
<g id="edge30" class="edge">
<title>mu&#45;&gt;y</title>
<path fill="none" stroke="black" d="M161.25,-249.89C166.25,-238.55 172.28,-224.86 178,-211.87"/>
<polygon fill="black" stroke="black" points="181.26,-213.15 182.09,-202.59 174.86,-210.33 181.26,-213.15"/>
</g>
<!-- ct_initial -->
<g id="node3" class="node">
<title>ct_initial</title>
<path fill="lightgrey" stroke="black" d="M269,-302.93C269,-302.93 227,-302.93 227,-302.93 221,-302.93 215,-296.93 215,-290.93 215,-290.93 215,-261.93 215,-261.93 215,-255.93 221,-249.93 227,-249.93 227,-249.93 269,-249.93 269,-249.93 275,-249.93 281,-255.93 281,-261.93 281,-261.93 281,-290.93 281,-290.93 281,-296.93 275,-302.93 269,-302.93"/>
<text text-anchor="middle" x="248" y="-287.73" font-family="Times,serif" font-size="14.00">ct_initial</text>
<text text-anchor="middle" x="248" y="-272.73" font-family="Times,serif" font-size="14.00">~</text>
<text text-anchor="middle" x="248" y="-257.73" font-family="Times,serif" font-size="14.00">Data</text>
</g>
<!-- ct_initial&#45;&gt;y -->
<g id="edge29" class="edge">
<title>ct_initial&#45;&gt;y</title>
<path fill="none" stroke="black" d="M236.28,-249.89C231.07,-238.55 224.79,-224.86 218.83,-211.87"/>
<polygon fill="black" stroke="black" points="221.92,-210.22 214.57,-202.59 215.56,-213.13 221.92,-210.22"/>
</g>
<!-- eta&#45;&gt;mu -->
<g id="edge28" class="edge">
<title>eta&#45;&gt;mu</title>
<path fill="none" stroke="black" d="M180.96,-349.66C176.09,-338.3 170.29,-324.77 165.03,-312.5"/>
<polygon fill="black" stroke="black" points="168.12,-310.81 160.96,-303 161.68,-313.57 168.12,-310.81"/>
</g>
<!-- ct_final -->
<g id="node5" class="node">
<title>ct_final</title>
<path fill="lightgrey" stroke="black" d="M215,-92C215,-92 181,-92 181,-92 175,-92 169,-86 169,-80 169,-80 169,-51 169,-51 169,-45 175,-39 181,-39 181,-39 215,-39 215,-39 221,-39 227,-45 227,-51 227,-51 227,-80 227,-80 227,-86 221,-92 215,-92"/>
<text text-anchor="middle" x="198" y="-76.8" font-family="Times,serif" font-size="14.00">ct_final</text>
<text text-anchor="middle" x="198" y="-61.8" font-family="Times,serif" font-size="14.00">~</text>
<text text-anchor="middle" x="198" y="-46.8" font-family="Times,serif" font-size="14.00">Data</text>
</g>
<!-- y&#45;&gt;ct_final -->
<g id="edge1" class="edge">
<title>y&#45;&gt;ct_final</title>
<path fill="none" stroke="black" d="M198,-127.99C198,-119.58 198,-110.63 198,-102.25"/>
<polygon fill="black" stroke="black" points="201.5,-102.01 198,-92.01 194.5,-102.01 201.5,-102.01"/>
</g>
<!-- cell_line_idx -->
<g id="node7" class="node">
<title>cell_line_idx</title>
<path fill="lightgrey" stroke="black" d="M180,-505.88C180,-505.88 114,-505.88 114,-505.88 108,-505.88 102,-499.88 102,-493.88 102,-493.88 102,-464.88 102,-464.88 102,-458.88 108,-452.88 114,-452.88 114,-452.88 180,-452.88 180,-452.88 186,-452.88 192,-458.88 192,-464.88 192,-464.88 192,-493.88 192,-493.88 192,-499.88 186,-505.88 180,-505.88"/>
<text text-anchor="middle" x="147" y="-490.68" font-family="Times,serif" font-size="14.00">cell_line_idx</text>
<text text-anchor="middle" x="147" y="-475.68" font-family="Times,serif" font-size="14.00">~</text>
<text text-anchor="middle" x="147" y="-460.68" font-family="Times,serif" font-size="14.00">Data</text>
</g>
<!-- cell_line_idx&#45;&gt;eta -->
<g id="edge26" class="edge">
<title>cell_line_idx&#45;&gt;eta</title>
<path fill="none" stroke="black" d="M158.47,-452.64C163.92,-440.42 170.51,-425.62 176.41,-412.39"/>
<polygon fill="black" stroke="black" points="179.68,-413.66 180.55,-403.1 173.28,-410.81 179.68,-413.66"/>
</g>
<!-- sgrna_to_gene_idx -->
<g id="node8" class="node">
<title>sgrna_to_gene_idx</title>
<path fill="lightgrey" stroke="black" d="M127.5,-627.84C127.5,-627.84 28.5,-627.84 28.5,-627.84 22.5,-627.84 16.5,-621.84 16.5,-615.84 16.5,-615.84 16.5,-586.84 16.5,-586.84 16.5,-580.84 22.5,-574.84 28.5,-574.84 28.5,-574.84 127.5,-574.84 127.5,-574.84 133.5,-574.84 139.5,-580.84 139.5,-586.84 139.5,-586.84 139.5,-615.84 139.5,-615.84 139.5,-621.84 133.5,-627.84 127.5,-627.84"/>
<text text-anchor="middle" x="78" y="-612.64" font-family="Times,serif" font-size="14.00">sgrna_to_gene_idx</text>
<text text-anchor="middle" x="78" y="-597.64" font-family="Times,serif" font-size="14.00">~</text>
<text text-anchor="middle" x="78" y="-582.64" font-family="Times,serif" font-size="14.00">Data</text>
</g>
<!-- beta -->
<g id="node31" class="node">
<title>beta</title>
<ellipse fill="none" stroke="black" cx="348" cy="-479.38" rx="41.94" ry="37.45"/>
<text text-anchor="middle" x="348" y="-490.68" font-family="Times,serif" font-size="14.00">beta</text>
<text text-anchor="middle" x="348" y="-475.68" font-family="Times,serif" font-size="14.00">~</text>
<text text-anchor="middle" x="348" y="-460.68" font-family="Times,serif" font-size="14.00">Normal</text>
</g>
<!-- sgrna_to_gene_idx&#45;&gt;beta -->
<g id="edge24" class="edge">
<title>sgrna_to_gene_idx&#45;&gt;beta</title>
<path fill="none" stroke="black" d="M98.07,-574.78C111.54,-559.68 130.68,-541.82 152,-532.86 181.14,-520.62 264.56,-536.37 294,-524.86 300.54,-522.3 306.87,-518.64 312.77,-514.49"/>
<polygon fill="black" stroke="black" points="315.24,-517 321.06,-508.14 310.99,-511.44 315.24,-517"/>
</g>
<!-- cell_line_to_lineage_idx -->
<g id="node9" class="node">
<title>cell_line_to_lineage_idx</title>
<path fill="lightgrey" stroke="black" d="M673.5,-852.74C673.5,-852.74 542.5,-852.74 542.5,-852.74 536.5,-852.74 530.5,-846.74 530.5,-840.74 530.5,-840.74 530.5,-811.74 530.5,-811.74 530.5,-805.74 536.5,-799.74 542.5,-799.74 542.5,-799.74 673.5,-799.74 673.5,-799.74 679.5,-799.74 685.5,-805.74 685.5,-811.74 685.5,-811.74 685.5,-840.74 685.5,-840.74 685.5,-846.74 679.5,-852.74 673.5,-852.74"/>
<text text-anchor="middle" x="608" y="-837.54" font-family="Times,serif" font-size="14.00">cell_line_to_lineage_idx</text>
<text text-anchor="middle" x="608" y="-822.54" font-family="Times,serif" font-size="14.00">~</text>
<text text-anchor="middle" x="608" y="-807.54" font-family="Times,serif" font-size="14.00">Data</text>
</g>
<!-- q -->
<g id="node11" class="node">
<title>q</title>
<polygon fill="none" stroke="black" points="394.5,-738.79 301.5,-738.79 301.5,-685.79 394.5,-685.79 394.5,-738.79"/>
<text text-anchor="middle" x="348" y="-723.59" font-family="Times,serif" font-size="14.00">q</text>
<text text-anchor="middle" x="348" y="-708.59" font-family="Times,serif" font-size="14.00">~</text>
<text text-anchor="middle" x="348" y="-693.59" font-family="Times,serif" font-size="14.00">Deterministic</text>
</g>
<!-- cell_line_to_lineage_idx&#45;&gt;q -->
<g id="edge15" class="edge">
<title>cell_line_to_lineage_idx&#45;&gt;q</title>
<path fill="none" stroke="black" d="M582.11,-799.42C565.33,-784.42 542.16,-766.76 518,-757.77 469.98,-739.89 451.51,-766.25 403,-749.77 398.43,-748.21 393.87,-746.18 389.44,-743.87"/>
<polygon fill="black" stroke="black" points="391.01,-740.73 380.59,-738.81 387.53,-746.81 391.01,-740.73"/>
</g>
<!-- h -->
<g id="node14" class="node">
<title>h</title>
<polygon fill="none" stroke="black" points="505.5,-738.79 412.5,-738.79 412.5,-685.79 505.5,-685.79 505.5,-738.79"/>
<text text-anchor="middle" x="459" y="-723.59" font-family="Times,serif" font-size="14.00">h</text>
<text text-anchor="middle" x="459" y="-708.59" font-family="Times,serif" font-size="14.00">~</text>
<text text-anchor="middle" x="459" y="-693.59" font-family="Times,serif" font-size="14.00">Deterministic</text>
</g>
<!-- cell_line_to_lineage_idx&#45;&gt;h -->
<g id="edge8" class="edge">
<title>cell_line_to_lineage_idx&#45;&gt;h</title>
<path fill="none" stroke="black" d="M573.82,-799.56C552.24,-783.35 524.2,-762.28 501.24,-745.02"/>
<polygon fill="black" stroke="black" points="503.12,-742.06 493.02,-738.85 498.92,-747.66 503.12,-742.06"/>
</g>
<!-- rna_expression_gl -->
<g id="node10" class="node">
<title>rna_expression_gl</title>
<path fill="lightgrey" stroke="black" d="M271.5,-738.79C271.5,-738.79 176.5,-738.79 176.5,-738.79 170.5,-738.79 164.5,-732.79 164.5,-726.79 164.5,-726.79 164.5,-697.79 164.5,-697.79 164.5,-691.79 170.5,-685.79 176.5,-685.79 176.5,-685.79 271.5,-685.79 271.5,-685.79 277.5,-685.79 283.5,-691.79 283.5,-697.79 283.5,-697.79 283.5,-726.79 283.5,-726.79 283.5,-732.79 277.5,-738.79 271.5,-738.79"/>
<text text-anchor="middle" x="224" y="-723.59" font-family="Times,serif" font-size="14.00">rna_expression_gl</text>
<text text-anchor="middle" x="224" y="-708.59" font-family="Times,serif" font-size="14.00">~</text>
<text text-anchor="middle" x="224" y="-693.59" font-family="Times,serif" font-size="14.00">Data</text>
</g>
<!-- mu_beta -->
<g id="node15" class="node">
<title>mu_beta</title>
<polygon fill="none" stroke="black" points="394.5,-627.84 301.5,-627.84 301.5,-574.84 394.5,-574.84 394.5,-627.84"/>
<text text-anchor="middle" x="348" y="-612.64" font-family="Times,serif" font-size="14.00">mu_beta</text>
<text text-anchor="middle" x="348" y="-597.64" font-family="Times,serif" font-size="14.00">~</text>
<text text-anchor="middle" x="348" y="-582.64" font-family="Times,serif" font-size="14.00">Deterministic</text>
</g>
<!-- rna_expression_gl&#45;&gt;mu_beta -->
<g id="edge19" class="edge">
<title>rna_expression_gl&#45;&gt;mu_beta</title>
<path fill="none" stroke="black" d="M253.07,-685.75C270.36,-670.56 292.46,-651.14 310.98,-634.86"/>
<polygon fill="black" stroke="black" points="313.48,-637.33 318.68,-628.1 308.86,-632.07 313.48,-637.33"/>
</g>
<!-- q&#45;&gt;mu_beta -->
<g id="edge20" class="edge">
<title>q&#45;&gt;mu_beta</title>
<path fill="none" stroke="black" d="M348,-685.75C348,-671.64 348,-653.89 348,-638.39"/>
<polygon fill="black" stroke="black" points="351.5,-638.1 348,-628.1 344.5,-638.1 351.5,-638.1"/>
</g>
<!-- h_Δ -->
<g id="node12" class="node">
<title>h_Δ</title>
<ellipse fill="none" stroke="black" cx="459" cy="-826.24" rx="41.94" ry="37.45"/>
<text text-anchor="middle" x="459" y="-837.54" font-family="Times,serif" font-size="14.00">h_Δ</text>
<text text-anchor="middle" x="459" y="-822.54" font-family="Times,serif" font-size="14.00">~</text>
<text text-anchor="middle" x="459" y="-807.54" font-family="Times,serif" font-size="14.00">Normal</text>
</g>
<!-- h_Δ&#45;&gt;h -->
<g id="edge7" class="edge">
<title>h_Δ&#45;&gt;h</title>
<path fill="none" stroke="black" d="M459,-788.59C459,-775.93 459,-761.78 459,-749.18"/>
<polygon fill="black" stroke="black" points="462.5,-749.04 459,-739.04 455.5,-749.04 462.5,-749.04"/>
</g>
<!-- q_Δ -->
<g id="node13" class="node">
<title>q_Δ</title>
<ellipse fill="none" stroke="black" cx="348" cy="-826.24" rx="41.94" ry="37.45"/>
<text text-anchor="middle" x="348" y="-837.54" font-family="Times,serif" font-size="14.00">q_Δ</text>
<text text-anchor="middle" x="348" y="-822.54" font-family="Times,serif" font-size="14.00">~</text>
<text text-anchor="middle" x="348" y="-807.54" font-family="Times,serif" font-size="14.00">Normal</text>
</g>
<!-- q_Δ&#45;&gt;q -->
<g id="edge14" class="edge">
<title>q_Δ&#45;&gt;q</title>
<path fill="none" stroke="black" d="M348,-788.59C348,-775.93 348,-761.78 348,-749.18"/>
<polygon fill="black" stroke="black" points="351.5,-749.04 348,-739.04 344.5,-749.04 351.5,-749.04"/>
</g>
<!-- h&#45;&gt;mu_beta -->
<g id="edge18" class="edge">
<title>h&#45;&gt;mu_beta</title>
<path fill="none" stroke="black" d="M432.98,-685.75C417.64,-670.69 398.07,-651.48 381.58,-635.3"/>
<polygon fill="black" stroke="black" points="383.83,-632.61 374.25,-628.1 378.93,-637.6 383.83,-632.61"/>
</g>
<!-- mu_beta&#45;&gt;beta -->
<g id="edge23" class="edge">
<title>mu_beta&#45;&gt;beta</title>
<path fill="none" stroke="black" d="M348,-574.6C348,-560.82 348,-543.42 348,-527.33"/>
<polygon fill="black" stroke="black" points="351.5,-527 348,-517 344.5,-527 351.5,-527"/>
</g>
<!-- sigma_sigma_q -->
<g id="node16" class="node">
<title>sigma_sigma_q</title>
<ellipse fill="none" stroke="black" cx="1535" cy="-937.2" rx="73.58" ry="37.45"/>
<text text-anchor="middle" x="1535" y="-948.5" font-family="Times,serif" font-size="14.00">sigma_sigma_q</text>
<text text-anchor="middle" x="1535" y="-933.5" font-family="Times,serif" font-size="14.00">~</text>
<text text-anchor="middle" x="1535" y="-918.5" font-family="Times,serif" font-size="14.00">HalfNormal</text>
</g>
<!-- sigma_q -->
<g id="node28" class="node">
<title>sigma_q</title>
<ellipse fill="none" stroke="black" cx="1266" cy="-826.24" rx="59.29" ry="37.45"/>
<text text-anchor="middle" x="1266" y="-837.54" font-family="Times,serif" font-size="14.00">sigma_q</text>
<text text-anchor="middle" x="1266" y="-822.54" font-family="Times,serif" font-size="14.00">~</text>
<text text-anchor="middle" x="1266" y="-807.54" font-family="Times,serif" font-size="14.00">HalfNormal</text>
</g>
<!-- sigma_sigma_q&#45;&gt;sigma_q -->
<g id="edge13" class="edge">
<title>sigma_sigma_q&#45;&gt;sigma_q</title>
<path fill="none" stroke="black" d="M1482.2,-910.99C1472.6,-906.91 1462.6,-902.96 1453,-899.72 1401.93,-882.47 1384.59,-892.85 1335,-871.72 1327.62,-868.58 1320.16,-864.67 1313,-860.48"/>
<polygon fill="black" stroke="black" points="1314.48,-857.29 1304.12,-855.07 1310.84,-863.26 1314.48,-857.29"/>
</g>
<!-- alpha -->
<g id="node17" class="node">
<title>alpha</title>
<ellipse fill="none" stroke="black" cx="358" cy="-276.43" rx="59.29" ry="37.45"/>
<text text-anchor="middle" x="358" y="-287.73" font-family="Times,serif" font-size="14.00">alpha</text>
<text text-anchor="middle" x="358" y="-272.73" font-family="Times,serif" font-size="14.00">~</text>
<text text-anchor="middle" x="358" y="-257.73" font-family="Times,serif" font-size="14.00">Exponential</text>
</g>
<!-- alpha&#45;&gt;y -->
<g id="edge31" class="edge">
<title>alpha&#45;&gt;y</title>
<path fill="none" stroke="black" d="M318.04,-248.22C297.94,-234.53 273.29,-217.75 251.57,-202.96"/>
<polygon fill="black" stroke="black" points="253.33,-199.92 243.1,-197.19 249.39,-205.71 253.33,-199.92"/>
</g>
<!-- sigma_sigma_beta -->
<g id="node18" class="node">
<title>sigma_sigma_beta</title>
<ellipse fill="none" stroke="black" cx="609" cy="-712.29" rx="85.62" ry="37.45"/>
<text text-anchor="middle" x="609" y="-723.59" font-family="Times,serif" font-size="14.00">sigma_sigma_beta</text>
<text text-anchor="middle" x="609" y="-708.59" font-family="Times,serif" font-size="14.00">~</text>
<text text-anchor="middle" x="609" y="-693.59" font-family="Times,serif" font-size="14.00">Exponential</text>
</g>
<!-- sigma_beta -->
<g id="node30" class="node">
<title>sigma_beta</title>
<ellipse fill="none" stroke="black" cx="599" cy="-601.34" rx="59.29" ry="37.45"/>
<text text-anchor="middle" x="599" y="-612.64" font-family="Times,serif" font-size="14.00">sigma_beta</text>
<text text-anchor="middle" x="599" y="-597.64" font-family="Times,serif" font-size="14.00">~</text>
<text text-anchor="middle" x="599" y="-582.64" font-family="Times,serif" font-size="14.00">Exponential</text>
</g>
<!-- sigma_sigma_beta&#45;&gt;sigma_beta -->
<g id="edge21" class="edge">
<title>sigma_sigma_beta&#45;&gt;sigma_beta</title>
<path fill="none" stroke="black" d="M605.64,-674.71C604.89,-666.53 604.09,-657.75 603.3,-649.23"/>
<polygon fill="black" stroke="black" points="606.77,-648.65 602.37,-639.01 599.79,-649.29 606.77,-648.65"/>
</g>
<!-- sigma_mu_q -->
<g id="node19" class="node">
<title>sigma_mu_q</title>
<ellipse fill="none" stroke="black" cx="994" cy="-937.2" rx="62.87" ry="37.45"/>
<text text-anchor="middle" x="994" y="-948.5" font-family="Times,serif" font-size="14.00">sigma_mu_q</text>
<text text-anchor="middle" x="994" y="-933.5" font-family="Times,serif" font-size="14.00">~</text>
<text text-anchor="middle" x="994" y="-918.5" font-family="Times,serif" font-size="14.00">HalfNormal</text>
</g>
<!-- mu_q -->
<g id="node26" class="node">
<title>mu_q</title>
<polygon fill="none" stroke="black" points="803.5,-852.74 710.5,-852.74 710.5,-799.74 803.5,-799.74 803.5,-852.74"/>
<text text-anchor="middle" x="757" y="-837.54" font-family="Times,serif" font-size="14.00">mu_q</text>
<text text-anchor="middle" x="757" y="-822.54" font-family="Times,serif" font-size="14.00">~</text>
<text text-anchor="middle" x="757" y="-807.54" font-family="Times,serif" font-size="14.00">Deterministic</text>
</g>
<!-- sigma_mu_q&#45;&gt;mu_q -->
<g id="edge12" class="edge">
<title>sigma_mu_q&#45;&gt;mu_q</title>
<path fill="none" stroke="black" d="M950.08,-910.2C942.54,-906.34 934.66,-902.68 927,-899.72 877.93,-880.76 859.15,-895.05 812,-871.72 805.19,-868.35 798.46,-864.01 792.17,-859.37"/>
<polygon fill="black" stroke="black" points="793.93,-856.3 783.89,-852.91 789.62,-861.82 793.93,-856.3"/>
</g>
<!-- mu_mu_q -->
<g id="node20" class="node">
<title>mu_mu_q</title>
<ellipse fill="none" stroke="black" cx="1127" cy="-937.2" rx="51.74" ry="37.45"/>
<text text-anchor="middle" x="1127" y="-948.5" font-family="Times,serif" font-size="14.00">mu_mu_q</text>
<text text-anchor="middle" x="1127" y="-933.5" font-family="Times,serif" font-size="14.00">~</text>
<text text-anchor="middle" x="1127" y="-918.5" font-family="Times,serif" font-size="14.00">Normal</text>
</g>
<!-- mu_mu_q&#45;&gt;mu_q -->
<g id="edge11" class="edge">
<title>mu_mu_q&#45;&gt;mu_q</title>
<path fill="none" stroke="black" d="M1090.15,-910.77C1082.46,-906.45 1074.19,-902.47 1066,-899.72 958.35,-863.52 916.83,-915.41 812,-871.72 804.51,-868.6 797.22,-864.12 790.53,-859.2"/>
<polygon fill="black" stroke="black" points="792.42,-856.24 782.4,-852.8 788.09,-861.74 792.42,-856.24"/>
</g>
<!-- mu_mu_h -->
<g id="node21" class="node">
<title>mu_mu_h</title>
<ellipse fill="none" stroke="black" cx="1248" cy="-937.2" rx="51.74" ry="37.45"/>
<text text-anchor="middle" x="1248" y="-948.5" font-family="Times,serif" font-size="14.00">mu_mu_h</text>
<text text-anchor="middle" x="1248" y="-933.5" font-family="Times,serif" font-size="14.00">~</text>
<text text-anchor="middle" x="1248" y="-918.5" font-family="Times,serif" font-size="14.00">Normal</text>
</g>
<!-- mu_h -->
<g id="node27" class="node">
<title>mu_h</title>
<polygon fill="none" stroke="black" points="914.5,-852.74 821.5,-852.74 821.5,-799.74 914.5,-799.74 914.5,-852.74"/>
<text text-anchor="middle" x="868" y="-837.54" font-family="Times,serif" font-size="14.00">mu_h</text>
<text text-anchor="middle" x="868" y="-822.54" font-family="Times,serif" font-size="14.00">~</text>
<text text-anchor="middle" x="868" y="-807.54" font-family="Times,serif" font-size="14.00">Deterministic</text>
</g>
<!-- mu_mu_h&#45;&gt;mu_h -->
<g id="edge2" class="edge">
<title>mu_mu_h&#45;&gt;mu_h</title>
<path fill="none" stroke="black" d="M1210.88,-911.1C1203.52,-906.86 1195.68,-902.83 1188,-899.72 1099.66,-863.98 990.12,-844 924.81,-834.44"/>
<polygon fill="black" stroke="black" points="925.12,-830.95 914.72,-833 924.12,-837.88 925.12,-830.95"/>
</g>
<!-- sigma_mu_h -->
<g id="node22" class="node">
<title>sigma_mu_h</title>
<ellipse fill="none" stroke="black" cx="1381" cy="-937.2" rx="62.87" ry="37.45"/>
<text text-anchor="middle" x="1381" y="-948.5" font-family="Times,serif" font-size="14.00">sigma_mu_h</text>
<text text-anchor="middle" x="1381" y="-933.5" font-family="Times,serif" font-size="14.00">~</text>
<text text-anchor="middle" x="1381" y="-918.5" font-family="Times,serif" font-size="14.00">HalfNormal</text>
</g>
<!-- sigma_mu_h&#45;&gt;mu_h -->
<g id="edge3" class="edge">
<title>sigma_mu_h&#45;&gt;mu_h</title>
<path fill="none" stroke="black" d="M1336.2,-910.86C1327.38,-906.64 1318.06,-902.68 1309,-899.72 1238.5,-876.68 1027.34,-847.63 924.94,-834.4"/>
<polygon fill="black" stroke="black" points="925.15,-830.9 914.78,-833.09 924.25,-837.84 925.15,-830.9"/>
</g>
<!-- sigma_sigma_h -->
<g id="node23" class="node">
<title>sigma_sigma_h</title>
<ellipse fill="none" stroke="black" cx="1700" cy="-937.2" rx="73.58" ry="37.45"/>
<text text-anchor="middle" x="1700" y="-948.5" font-family="Times,serif" font-size="14.00">sigma_sigma_h</text>
<text text-anchor="middle" x="1700" y="-933.5" font-family="Times,serif" font-size="14.00">~</text>
<text text-anchor="middle" x="1700" y="-918.5" font-family="Times,serif" font-size="14.00">HalfNormal</text>
</g>
<!-- sigma_h -->
<g id="node29" class="node">
<title>sigma_h</title>
<ellipse fill="none" stroke="black" cx="1403" cy="-826.24" rx="59.29" ry="37.45"/>
<text text-anchor="middle" x="1403" y="-837.54" font-family="Times,serif" font-size="14.00">sigma_h</text>
<text text-anchor="middle" x="1403" y="-822.54" font-family="Times,serif" font-size="14.00">~</text>
<text text-anchor="middle" x="1403" y="-807.54" font-family="Times,serif" font-size="14.00">HalfNormal</text>
</g>
<!-- sigma_sigma_h&#45;&gt;sigma_h -->
<g id="edge5" class="edge">
<title>sigma_sigma_h&#45;&gt;sigma_h</title>
<path fill="none" stroke="black" d="M1646.05,-911.34C1636.76,-907.31 1627.15,-903.29 1618,-899.72 1567.44,-880 1509.03,-860.52 1465.87,-846.72"/>
<polygon fill="black" stroke="black" points="1466.66,-843.3 1456.07,-843.61 1464.54,-849.97 1466.66,-843.3"/>
</g>
<!-- mu_q_Δ -->
<g id="node24" class="node">
<title>mu_q_Δ</title>
<ellipse fill="none" stroke="black" cx="757" cy="-937.2" rx="45.92" ry="37.45"/>
<text text-anchor="middle" x="757" y="-948.5" font-family="Times,serif" font-size="14.00">mu_q_Δ</text>
<text text-anchor="middle" x="757" y="-933.5" font-family="Times,serif" font-size="14.00">~</text>
<text text-anchor="middle" x="757" y="-918.5" font-family="Times,serif" font-size="14.00">Normal</text>
</g>
<!-- mu_q_Δ&#45;&gt;mu_q -->
<g id="edge10" class="edge">
<title>mu_q_Δ&#45;&gt;mu_q</title>
<path fill="none" stroke="black" d="M757,-899.61C757,-887.88 757,-874.89 757,-863.2"/>
<polygon fill="black" stroke="black" points="760.5,-862.9 757,-852.9 753.5,-862.9 760.5,-862.9"/>
</g>
<!-- mu_h_Δ -->
<g id="node25" class="node">
<title>mu_h_Δ</title>
<ellipse fill="none" stroke="black" cx="867" cy="-937.2" rx="45.92" ry="37.45"/>
<text text-anchor="middle" x="867" y="-948.5" font-family="Times,serif" font-size="14.00">mu_h_Δ</text>
<text text-anchor="middle" x="867" y="-933.5" font-family="Times,serif" font-size="14.00">~</text>
<text text-anchor="middle" x="867" y="-918.5" font-family="Times,serif" font-size="14.00">Normal</text>
</g>
<!-- mu_h_Δ&#45;&gt;mu_h -->
<g id="edge4" class="edge">
<title>mu_h_Δ&#45;&gt;mu_h</title>
<path fill="none" stroke="black" d="M867.34,-899.61C867.44,-887.88 867.56,-874.89 867.67,-863.2"/>
<polygon fill="black" stroke="black" points="871.17,-862.93 867.76,-852.9 864.17,-862.86 871.17,-862.93"/>
</g>
<!-- mu_q&#45;&gt;q -->
<g id="edge16" class="edge">
<title>mu_q&#45;&gt;q</title>
<path fill="none" stroke="black" d="M742.2,-799.58C731.92,-784.45 716.73,-766.58 698,-757.77 668.33,-743.81 434.26,-759.66 403,-749.77 398.33,-748.29 393.69,-746.29 389.19,-743.98"/>
<polygon fill="black" stroke="black" points="390.63,-740.77 380.21,-738.88 387.17,-746.86 390.63,-740.77"/>
</g>
<!-- mu_h&#45;&gt;h -->
<g id="edge9" class="edge">
<title>mu_h&#45;&gt;h</title>
<path fill="none" stroke="black" d="M854.25,-799.61C844.61,-784.49 830.21,-766.62 812,-757.77 782.21,-743.29 545.58,-759.75 514,-749.77 509.33,-748.29 504.69,-746.29 500.19,-743.98"/>
<polygon fill="black" stroke="black" points="501.63,-740.77 491.21,-738.88 498.17,-746.86 501.63,-740.77"/>
</g>
<!-- sigma_q&#45;&gt;q -->
<g id="edge17" class="edge">
<title>sigma_q&#45;&gt;q</title>
<path fill="none" stroke="black" d="M1211.57,-811.24C1144.99,-794.84 1028.59,-768.56 927,-757.77 898.05,-754.69 430.81,-758.38 403,-749.77 398.32,-748.32 393.67,-746.33 389.17,-744.04"/>
<polygon fill="black" stroke="black" points="390.61,-740.83 380.18,-738.95 387.16,-746.92 390.61,-740.83"/>
</g>
<!-- sigma_h&#45;&gt;h -->
<g id="edge6" class="edge">
<title>sigma_h&#45;&gt;h</title>
<path fill="none" stroke="black" d="M1378.53,-792.02C1366.72,-778.75 1351.34,-764.94 1334,-757.77 1291.9,-740.36 557.55,-763.13 514,-749.77 509.13,-748.27 504.29,-746.19 499.62,-743.78"/>
<polygon fill="black" stroke="black" points="501.3,-740.71 490.88,-738.8 497.83,-746.79 501.3,-740.71"/>
</g>
<!-- sigma_beta&#45;&gt;beta -->
<g id="edge22" class="edge">
<title>sigma_beta&#45;&gt;beta</title>
<path fill="none" stroke="black" d="M567.67,-569.24C553.46,-556.52 535.86,-542.55 518,-532.86 480.31,-512.42 433.52,-498.72 398.57,-490.46"/>
<polygon fill="black" stroke="black" points="399.12,-486.99 388.59,-488.17 397.55,-493.81 399.12,-486.99"/>
</g>
<!-- beta&#45;&gt;eta -->
<g id="edge27" class="edge">
<title>beta&#45;&gt;eta</title>
<path fill="none" stroke="black" d="M328.07,-446.06C319,-433.6 307.31,-420.14 294,-410.91 280.37,-401.45 263.88,-394.52 248.18,-389.5"/>
<polygon fill="black" stroke="black" points="249.11,-386.13 238.53,-386.62 247.11,-392.83 249.11,-386.13"/>
</g>
</g>
</svg>
