<?xml version="1.0" encoding="UTF-8" standalone="no"?>
<!DOCTYPE svg PUBLIC "-//W3C//DTD SVG 1.1//EN"
 "http://www.w3.org/Graphics/SVG/1.1/DTD/svg11.dtd">
<!-- Generated by graphviz version 2.48.0 (0)
 -->
<!-- Pages: 1 -->
<svg width="1828pt" height="999pt"
 viewBox="0.00 0.00 1827.94 998.67" xmlns="http://www.w3.org/2000/svg" xmlns:xlink="http://www.w3.org/1999/xlink">
<g id="graph0" class="graph" transform="scale(1 1) rotate(0) translate(4 994.67)">
<polygon fill="white" stroke="transparent" points="-4,4 -4,-994.67 1823.94,-994.67 1823.94,4 -4,4"/>
<g id="clust1" class="cluster">
<title>cluster56</title>
<path fill="none" stroke="black" d="M138.4,-8C138.4,-8 310.4,-8 310.4,-8 316.4,-8 322.4,-14 322.4,-20 322.4,-20 322.4,-501.88 322.4,-501.88 322.4,-507.88 316.4,-513.88 310.4,-513.88 310.4,-513.88 138.4,-513.88 138.4,-513.88 132.4,-513.88 126.4,-507.88 126.4,-501.88 126.4,-501.88 126.4,-20 126.4,-20 126.4,-14 132.4,-8 138.4,-8"/>
<text text-anchor="middle" x="307.4" y="-15.8" font-family="Times,serif" font-size="14.00">56</text>
</g>
<g id="clust2" class="cluster">
<title>cluster8</title>
<path fill="none" stroke="black" d="M65.4,-543.84C65.4,-543.84 181.4,-543.84 181.4,-543.84 187.4,-543.84 193.4,-549.84 193.4,-555.84 193.4,-555.84 193.4,-623.84 193.4,-623.84 193.4,-629.84 187.4,-635.84 181.4,-635.84 181.4,-635.84 65.4,-635.84 65.4,-635.84 59.4,-635.84 53.4,-629.84 53.4,-623.84 53.4,-623.84 53.4,-555.84 53.4,-555.84 53.4,-549.84 59.4,-543.84 65.4,-543.84"/>
<text text-anchor="middle" x="181.9" y="-551.64" font-family="Times,serif" font-size="14.00">8</text>
</g>
<g id="clust3" class="cluster">
<title>cluster7</title>
<path fill="none" stroke="black" d="M579.4,-768.74C579.4,-768.74 727.4,-768.74 727.4,-768.74 733.4,-768.74 739.4,-774.74 739.4,-780.74 739.4,-780.74 739.4,-848.74 739.4,-848.74 739.4,-854.74 733.4,-860.74 727.4,-860.74 727.4,-860.74 579.4,-860.74 579.4,-860.74 573.4,-860.74 567.4,-854.74 567.4,-848.74 567.4,-848.74 567.4,-780.74 567.4,-780.74 567.4,-774.74 573.4,-768.74 579.4,-768.74"/>
<text text-anchor="middle" x="727.9" y="-776.54" font-family="Times,serif" font-size="14.00">7</text>
</g>
<g id="clust4" class="cluster">
<title>cluster4 x 7</title>
<path fill="none" stroke="black" d="M213.4,-543.84C213.4,-543.84 547.4,-543.84 547.4,-543.84 553.4,-543.84 559.4,-549.84 559.4,-555.84 559.4,-555.84 559.4,-859.72 559.4,-859.72 559.4,-865.72 553.4,-871.72 547.4,-871.72 547.4,-871.72 213.4,-871.72 213.4,-871.72 207.4,-871.72 201.4,-865.72 201.4,-859.72 201.4,-859.72 201.4,-555.84 201.4,-555.84 201.4,-549.84 207.4,-543.84 213.4,-543.84"/>
<text text-anchor="middle" x="537.4" y="-551.64" font-family="Times,serif" font-size="14.00">4 x 7</text>
</g>
<g id="clust5" class="cluster">
<title>cluster4 x 2</title>
<path fill="none" stroke="black" d="M759.4,-768.74C759.4,-768.74 956.4,-768.74 956.4,-768.74 962.4,-768.74 968.4,-774.74 968.4,-780.74 968.4,-780.74 968.4,-970.67 968.4,-970.67 968.4,-976.67 962.4,-982.67 956.4,-982.67 956.4,-982.67 759.4,-982.67 759.4,-982.67 753.4,-982.67 747.4,-976.67 747.4,-970.67 747.4,-970.67 747.4,-780.74 747.4,-780.74 747.4,-774.74 753.4,-768.74 759.4,-768.74"/>
<text text-anchor="middle" x="946.4" y="-776.54" font-family="Times,serif" font-size="14.00">4 x 2</text>
</g>
<g id="clust6" class="cluster">
<title>cluster1 x 2</title>
<path fill="none" stroke="black" d="M1257.4,-757.77C1257.4,-757.77 1504.4,-757.77 1504.4,-757.77 1510.4,-757.77 1516.4,-763.77 1516.4,-769.77 1516.4,-769.77 1516.4,-859.72 1516.4,-859.72 1516.4,-865.72 1510.4,-871.72 1504.4,-871.72 1504.4,-871.72 1257.4,-871.72 1257.4,-871.72 1251.4,-871.72 1245.4,-865.72 1245.4,-859.72 1245.4,-859.72 1245.4,-769.77 1245.4,-769.77 1245.4,-763.77 1251.4,-757.77 1257.4,-757.77"/>
<text text-anchor="middle" x="1494.4" y="-765.57" font-family="Times,serif" font-size="14.00">1 x 2</text>
</g>
<g id="clust7" class="cluster">
<title>cluster4 x 1</title>
<path fill="none" stroke="black" d="M589.4,-532.86C589.4,-532.86 699.4,-532.86 699.4,-532.86 705.4,-532.86 711.4,-538.86 711.4,-544.86 711.4,-544.86 711.4,-634.81 711.4,-634.81 711.4,-640.81 705.4,-646.81 699.4,-646.81 699.4,-646.81 589.4,-646.81 589.4,-646.81 583.4,-646.81 577.4,-640.81 577.4,-634.81 577.4,-634.81 577.4,-544.86 577.4,-544.86 577.4,-538.86 583.4,-532.86 589.4,-532.86"/>
<text text-anchor="middle" x="689.4" y="-540.66" font-family="Times,serif" font-size="14.00">4 x 1</text>
</g>
<g id="clust8" class="cluster">
<title>cluster8 x 7</title>
<path fill="none" stroke="black" d="M342.4,-410.91C342.4,-410.91 418.4,-410.91 418.4,-410.91 424.4,-410.91 430.4,-416.91 430.4,-422.91 430.4,-422.91 430.4,-512.86 430.4,-512.86 430.4,-518.86 424.4,-524.86 418.4,-524.86 418.4,-524.86 342.4,-524.86 342.4,-524.86 336.4,-524.86 330.4,-518.86 330.4,-512.86 330.4,-512.86 330.4,-422.91 330.4,-422.91 330.4,-416.91 336.4,-410.91 342.4,-410.91"/>
<text text-anchor="middle" x="408.4" y="-418.71" font-family="Times,serif" font-size="14.00">8 x 7</text>
</g>
<!-- eta -->
<g id="node1" class="node">
<title>eta</title>
<polygon fill="none" stroke="black" points="313.9,-402.91 220.9,-402.91 220.9,-349.91 313.9,-349.91 313.9,-402.91"/>
<text text-anchor="middle" x="267.4" y="-387.71" font-family="Times,serif" font-size="14.00">eta</text>
<text text-anchor="middle" x="267.4" y="-372.71" font-family="Times,serif" font-size="14.00">~</text>
<text text-anchor="middle" x="267.4" y="-357.71" font-family="Times,serif" font-size="14.00">Deterministic</text>
</g>
<!-- mu -->
<g id="node6" class="node">
<title>mu</title>
<polygon fill="none" stroke="black" points="313.9,-302.93 220.9,-302.93 220.9,-249.93 313.9,-249.93 313.9,-302.93"/>
<text text-anchor="middle" x="267.4" y="-287.73" font-family="Times,serif" font-size="14.00">mu</text>
<text text-anchor="middle" x="267.4" y="-272.73" font-family="Times,serif" font-size="14.00">~</text>
<text text-anchor="middle" x="267.4" y="-257.73" font-family="Times,serif" font-size="14.00">Deterministic</text>
</g>
<!-- eta&#45;&gt;mu -->
<g id="edge28" class="edge">
<title>eta&#45;&gt;mu</title>
<path fill="none" stroke="black" d="M267.4,-349.66C267.4,-338.53 267.4,-325.3 267.4,-313.23"/>
<polygon fill="black" stroke="black" points="270.9,-313 267.4,-303 263.9,-313 270.9,-313"/>
</g>
<!-- ct_final -->
<g id="node2" class="node">
<title>ct_final</title>
<path fill="lightgrey" stroke="black" d="M235.4,-92C235.4,-92 201.4,-92 201.4,-92 195.4,-92 189.4,-86 189.4,-80 189.4,-80 189.4,-51 189.4,-51 189.4,-45 195.4,-39 201.4,-39 201.4,-39 235.4,-39 235.4,-39 241.4,-39 247.4,-45 247.4,-51 247.4,-51 247.4,-80 247.4,-80 247.4,-86 241.4,-92 235.4,-92"/>
<text text-anchor="middle" x="218.4" y="-76.8" font-family="Times,serif" font-size="14.00">ct_final</text>
<text text-anchor="middle" x="218.4" y="-61.8" font-family="Times,serif" font-size="14.00">~</text>
<text text-anchor="middle" x="218.4" y="-46.8" font-family="Times,serif" font-size="14.00">Data</text>
</g>
<!-- y -->
<g id="node3" class="node">
<title>y</title>
<ellipse fill="lightgrey" stroke="black" cx="218.4" cy="-165.48" rx="84.29" ry="37.45"/>
<text text-anchor="middle" x="218.4" y="-176.78" font-family="Times,serif" font-size="14.00">y</text>
<text text-anchor="middle" x="218.4" y="-161.78" font-family="Times,serif" font-size="14.00">~</text>
<text text-anchor="middle" x="218.4" y="-146.78" font-family="Times,serif" font-size="14.00">NegativeBinomial</text>
</g>
<!-- y&#45;&gt;ct_final -->
<g id="edge1" class="edge">
<title>y&#45;&gt;ct_final</title>
<path fill="none" stroke="black" d="M218.4,-127.99C218.4,-119.58 218.4,-110.63 218.4,-102.25"/>
<polygon fill="black" stroke="black" points="221.9,-102.01 218.4,-92.01 214.9,-102.01 221.9,-102.01"/>
</g>
<!-- ct_initial -->
<g id="node4" class="node">
<title>ct_initial</title>
<path fill="lightgrey" stroke="black" d="M190.4,-302.93C190.4,-302.93 148.4,-302.93 148.4,-302.93 142.4,-302.93 136.4,-296.93 136.4,-290.93 136.4,-290.93 136.4,-261.93 136.4,-261.93 136.4,-255.93 142.4,-249.93 148.4,-249.93 148.4,-249.93 190.4,-249.93 190.4,-249.93 196.4,-249.93 202.4,-255.93 202.4,-261.93 202.4,-261.93 202.4,-290.93 202.4,-290.93 202.4,-296.93 196.4,-302.93 190.4,-302.93"/>
<text text-anchor="middle" x="169.4" y="-287.73" font-family="Times,serif" font-size="14.00">ct_initial</text>
<text text-anchor="middle" x="169.4" y="-272.73" font-family="Times,serif" font-size="14.00">~</text>
<text text-anchor="middle" x="169.4" y="-257.73" font-family="Times,serif" font-size="14.00">Data</text>
</g>
<!-- ct_initial&#45;&gt;y -->
<g id="edge29" class="edge">
<title>ct_initial&#45;&gt;y</title>
<path fill="none" stroke="black" d="M180.89,-249.89C185.98,-238.55 192.14,-224.86 197.98,-211.87"/>
<polygon fill="black" stroke="black" points="201.25,-213.14 202.16,-202.59 194.86,-210.27 201.25,-213.14"/>
</g>
<!-- cell_line_idx -->
<g id="node5" class="node">
<title>cell_line_idx</title>
<path fill="lightgrey" stroke="black" d="M212.4,-505.88C212.4,-505.88 146.4,-505.88 146.4,-505.88 140.4,-505.88 134.4,-499.88 134.4,-493.88 134.4,-493.88 134.4,-464.88 134.4,-464.88 134.4,-458.88 140.4,-452.88 146.4,-452.88 146.4,-452.88 212.4,-452.88 212.4,-452.88 218.4,-452.88 224.4,-458.88 224.4,-464.88 224.4,-464.88 224.4,-493.88 224.4,-493.88 224.4,-499.88 218.4,-505.88 212.4,-505.88"/>
<text text-anchor="middle" x="179.4" y="-490.68" font-family="Times,serif" font-size="14.00">cell_line_idx</text>
<text text-anchor="middle" x="179.4" y="-475.68" font-family="Times,serif" font-size="14.00">~</text>
<text text-anchor="middle" x="179.4" y="-460.68" font-family="Times,serif" font-size="14.00">Data</text>
</g>
<!-- cell_line_idx&#45;&gt;eta -->
<g id="edge25" class="edge">
<title>cell_line_idx&#45;&gt;eta</title>
<path fill="none" stroke="black" d="M198.72,-452.81C208.72,-439.94 221.34,-424.28 233.4,-410.91 233.54,-410.75 233.69,-410.58 233.84,-410.42"/>
<polygon fill="black" stroke="black" points="236.44,-412.77 240.73,-403.08 231.33,-407.97 236.44,-412.77"/>
</g>
<!-- mu&#45;&gt;y -->
<g id="edge31" class="edge">
<title>mu&#45;&gt;y</title>
<path fill="none" stroke="black" d="M255.91,-249.89C250.81,-238.55 244.65,-224.86 238.81,-211.87"/>
<polygon fill="black" stroke="black" points="241.93,-210.27 234.64,-202.59 235.55,-213.14 241.93,-210.27"/>
</g>
<!-- sgrna_idx -->
<g id="node7" class="node">
<title>sgrna_idx</title>
<path fill="lightgrey" stroke="black" d="M302.4,-505.88C302.4,-505.88 254.4,-505.88 254.4,-505.88 248.4,-505.88 242.4,-499.88 242.4,-493.88 242.4,-493.88 242.4,-464.88 242.4,-464.88 242.4,-458.88 248.4,-452.88 254.4,-452.88 254.4,-452.88 302.4,-452.88 302.4,-452.88 308.4,-452.88 314.4,-458.88 314.4,-464.88 314.4,-464.88 314.4,-493.88 314.4,-493.88 314.4,-499.88 308.4,-505.88 302.4,-505.88"/>
<text text-anchor="middle" x="278.4" y="-490.68" font-family="Times,serif" font-size="14.00">sgrna_idx</text>
<text text-anchor="middle" x="278.4" y="-475.68" font-family="Times,serif" font-size="14.00">~</text>
<text text-anchor="middle" x="278.4" y="-460.68" font-family="Times,serif" font-size="14.00">Data</text>
</g>
<!-- sgrna_idx&#45;&gt;eta -->
<g id="edge26" class="edge">
<title>sgrna_idx&#45;&gt;eta</title>
<path fill="none" stroke="black" d="M275.59,-452.64C274.29,-440.65 272.71,-426.19 271.29,-413.17"/>
<polygon fill="black" stroke="black" points="274.76,-412.66 270.2,-403.1 267.8,-413.42 274.76,-412.66"/>
</g>
<!-- sgrna_to_gene_idx -->
<g id="node8" class="node">
<title>sgrna_to_gene_idx</title>
<path fill="lightgrey" stroke="black" d="M172.9,-627.84C172.9,-627.84 73.9,-627.84 73.9,-627.84 67.9,-627.84 61.9,-621.84 61.9,-615.84 61.9,-615.84 61.9,-586.84 61.9,-586.84 61.9,-580.84 67.9,-574.84 73.9,-574.84 73.9,-574.84 172.9,-574.84 172.9,-574.84 178.9,-574.84 184.9,-580.84 184.9,-586.84 184.9,-586.84 184.9,-615.84 184.9,-615.84 184.9,-621.84 178.9,-627.84 172.9,-627.84"/>
<text text-anchor="middle" x="123.4" y="-612.64" font-family="Times,serif" font-size="14.00">sgrna_to_gene_idx</text>
<text text-anchor="middle" x="123.4" y="-597.64" font-family="Times,serif" font-size="14.00">~</text>
<text text-anchor="middle" x="123.4" y="-582.64" font-family="Times,serif" font-size="14.00">Data</text>
</g>
<!-- beta -->
<g id="node31" class="node">
<title>beta</title>
<ellipse fill="none" stroke="black" cx="380.4" cy="-479.38" rx="41.94" ry="37.45"/>
<text text-anchor="middle" x="380.4" y="-490.68" font-family="Times,serif" font-size="14.00">beta</text>
<text text-anchor="middle" x="380.4" y="-475.68" font-family="Times,serif" font-size="14.00">~</text>
<text text-anchor="middle" x="380.4" y="-460.68" font-family="Times,serif" font-size="14.00">Normal</text>
</g>
<!-- sgrna_to_gene_idx&#45;&gt;beta -->
<g id="edge24" class="edge">
<title>sgrna_to_gene_idx&#45;&gt;beta</title>
<path fill="none" stroke="black" d="M143.48,-574.82C156.96,-559.74 176.1,-541.88 197.4,-532.86 250.29,-510.46 272.96,-545.92 326.4,-524.86 332.93,-522.29 339.26,-518.61 345.15,-514.46"/>
<polygon fill="black" stroke="black" points="347.63,-516.97 353.44,-508.11 343.37,-511.41 347.63,-516.97"/>
</g>
<!-- cell_line_to_lineage_idx -->
<g id="node9" class="node">
<title>cell_line_to_lineage_idx</title>
<path fill="lightgrey" stroke="black" d="M718.9,-852.74C718.9,-852.74 587.9,-852.74 587.9,-852.74 581.9,-852.74 575.9,-846.74 575.9,-840.74 575.9,-840.74 575.9,-811.74 575.9,-811.74 575.9,-805.74 581.9,-799.74 587.9,-799.74 587.9,-799.74 718.9,-799.74 718.9,-799.74 724.9,-799.74 730.9,-805.74 730.9,-811.74 730.9,-811.74 730.9,-840.74 730.9,-840.74 730.9,-846.74 724.9,-852.74 718.9,-852.74"/>
<text text-anchor="middle" x="653.4" y="-837.54" font-family="Times,serif" font-size="14.00">cell_line_to_lineage_idx</text>
<text text-anchor="middle" x="653.4" y="-822.54" font-family="Times,serif" font-size="14.00">~</text>
<text text-anchor="middle" x="653.4" y="-807.54" font-family="Times,serif" font-size="14.00">Data</text>
</g>
<!-- h -->
<g id="node12" class="node">
<title>h</title>
<polygon fill="none" stroke="black" points="302.9,-738.79 209.9,-738.79 209.9,-685.79 302.9,-685.79 302.9,-738.79"/>
<text text-anchor="middle" x="256.4" y="-723.59" font-family="Times,serif" font-size="14.00">h</text>
<text text-anchor="middle" x="256.4" y="-708.59" font-family="Times,serif" font-size="14.00">~</text>
<text text-anchor="middle" x="256.4" y="-693.59" font-family="Times,serif" font-size="14.00">Deterministic</text>
</g>
<!-- cell_line_to_lineage_idx&#45;&gt;h -->
<g id="edge9" class="edge">
<title>cell_line_to_lineage_idx&#45;&gt;h</title>
<path fill="none" stroke="black" d="M628,-799.44C611.24,-784.25 587.9,-766.37 563.4,-757.77 510.74,-739.28 365.63,-766.5 312.4,-749.77 307.54,-748.24 302.7,-746.16 298.02,-743.77"/>
<polygon fill="black" stroke="black" points="299.68,-740.69 289.25,-738.85 296.26,-746.8 299.68,-740.69"/>
</g>
<!-- q -->
<g id="node15" class="node">
<title>q</title>
<polygon fill="none" stroke="black" points="550.9,-738.79 457.9,-738.79 457.9,-685.79 550.9,-685.79 550.9,-738.79"/>
<text text-anchor="middle" x="504.4" y="-723.59" font-family="Times,serif" font-size="14.00">q</text>
<text text-anchor="middle" x="504.4" y="-708.59" font-family="Times,serif" font-size="14.00">~</text>
<text text-anchor="middle" x="504.4" y="-693.59" font-family="Times,serif" font-size="14.00">Deterministic</text>
</g>
<!-- cell_line_to_lineage_idx&#45;&gt;q -->
<g id="edge16" class="edge">
<title>cell_line_to_lineage_idx&#45;&gt;q</title>
<path fill="none" stroke="black" d="M619.21,-799.56C597.63,-783.35 569.6,-762.28 546.63,-745.02"/>
<polygon fill="black" stroke="black" points="548.52,-742.06 538.42,-738.85 544.31,-747.66 548.52,-742.06"/>
</g>
<!-- q_Δ -->
<g id="node10" class="node">
<title>q_Δ</title>
<ellipse fill="none" stroke="black" cx="504.4" cy="-826.24" rx="41.94" ry="37.45"/>
<text text-anchor="middle" x="504.4" y="-837.54" font-family="Times,serif" font-size="14.00">q_Δ</text>
<text text-anchor="middle" x="504.4" y="-822.54" font-family="Times,serif" font-size="14.00">~</text>
<text text-anchor="middle" x="504.4" y="-807.54" font-family="Times,serif" font-size="14.00">Normal</text>
</g>
<!-- q_Δ&#45;&gt;q -->
<g id="edge17" class="edge">
<title>q_Δ&#45;&gt;q</title>
<path fill="none" stroke="black" d="M504.4,-788.59C504.4,-775.93 504.4,-761.78 504.4,-749.18"/>
<polygon fill="black" stroke="black" points="507.9,-749.04 504.4,-739.04 500.9,-749.04 507.9,-749.04"/>
</g>
<!-- mu_beta -->
<g id="node11" class="node">
<title>mu_beta</title>
<polygon fill="none" stroke="black" points="426.9,-627.84 333.9,-627.84 333.9,-574.84 426.9,-574.84 426.9,-627.84"/>
<text text-anchor="middle" x="380.4" y="-612.64" font-family="Times,serif" font-size="14.00">mu_beta</text>
<text text-anchor="middle" x="380.4" y="-597.64" font-family="Times,serif" font-size="14.00">~</text>
<text text-anchor="middle" x="380.4" y="-582.64" font-family="Times,serif" font-size="14.00">Deterministic</text>
</g>
<!-- mu_beta&#45;&gt;beta -->
<g id="edge22" class="edge">
<title>mu_beta&#45;&gt;beta</title>
<path fill="none" stroke="black" d="M380.4,-574.6C380.4,-560.82 380.4,-543.42 380.4,-527.33"/>
<polygon fill="black" stroke="black" points="383.9,-527 380.4,-517 376.9,-527 383.9,-527"/>
</g>
<!-- h&#45;&gt;mu_beta -->
<g id="edge19" class="edge">
<title>h&#45;&gt;mu_beta</title>
<path fill="none" stroke="black" d="M285.47,-685.75C302.76,-670.56 324.86,-651.14 343.38,-634.86"/>
<polygon fill="black" stroke="black" points="345.88,-637.33 351.08,-628.1 341.25,-632.07 345.88,-637.33"/>
</g>
<!-- rna_expression_gl -->
<g id="node13" class="node">
<title>rna_expression_gl</title>
<path fill="lightgrey" stroke="black" d="M427.9,-738.79C427.9,-738.79 332.9,-738.79 332.9,-738.79 326.9,-738.79 320.9,-732.79 320.9,-726.79 320.9,-726.79 320.9,-697.79 320.9,-697.79 320.9,-691.79 326.9,-685.79 332.9,-685.79 332.9,-685.79 427.9,-685.79 427.9,-685.79 433.9,-685.79 439.9,-691.79 439.9,-697.79 439.9,-697.79 439.9,-726.79 439.9,-726.79 439.9,-732.79 433.9,-738.79 427.9,-738.79"/>
<text text-anchor="middle" x="380.4" y="-723.59" font-family="Times,serif" font-size="14.00">rna_expression_gl</text>
<text text-anchor="middle" x="380.4" y="-708.59" font-family="Times,serif" font-size="14.00">~</text>
<text text-anchor="middle" x="380.4" y="-693.59" font-family="Times,serif" font-size="14.00">Data</text>
</g>
<!-- rna_expression_gl&#45;&gt;mu_beta -->
<g id="edge18" class="edge">
<title>rna_expression_gl&#45;&gt;mu_beta</title>
<path fill="none" stroke="black" d="M380.4,-685.75C380.4,-671.64 380.4,-653.89 380.4,-638.39"/>
<polygon fill="black" stroke="black" points="383.9,-638.1 380.4,-628.1 376.9,-638.1 383.9,-638.1"/>
</g>
<!-- h_Δ -->
<g id="node14" class="node">
<title>h_Δ</title>
<ellipse fill="none" stroke="black" cx="256.4" cy="-826.24" rx="41.94" ry="37.45"/>
<text text-anchor="middle" x="256.4" y="-837.54" font-family="Times,serif" font-size="14.00">h_Δ</text>
<text text-anchor="middle" x="256.4" y="-822.54" font-family="Times,serif" font-size="14.00">~</text>
<text text-anchor="middle" x="256.4" y="-807.54" font-family="Times,serif" font-size="14.00">Normal</text>
</g>
<!-- h_Δ&#45;&gt;h -->
<g id="edge7" class="edge">
<title>h_Δ&#45;&gt;h</title>
<path fill="none" stroke="black" d="M256.4,-788.59C256.4,-775.93 256.4,-761.78 256.4,-749.18"/>
<polygon fill="black" stroke="black" points="259.9,-749.04 256.4,-739.04 252.9,-749.04 259.9,-749.04"/>
</g>
<!-- q&#45;&gt;mu_beta -->
<g id="edge20" class="edge">
<title>q&#45;&gt;mu_beta</title>
<path fill="none" stroke="black" d="M475.32,-685.75C458.04,-670.56 435.94,-651.14 417.41,-634.86"/>
<polygon fill="black" stroke="black" points="419.54,-632.07 409.72,-628.1 414.92,-637.33 419.54,-632.07"/>
</g>
<!-- sigma_mu_q -->
<g id="node16" class="node">
<title>sigma_mu_q</title>
<ellipse fill="none" stroke="black" cx="1305.4" cy="-937.2" rx="62.87" ry="37.45"/>
<text text-anchor="middle" x="1305.4" y="-948.5" font-family="Times,serif" font-size="14.00">sigma_mu_q</text>
<text text-anchor="middle" x="1305.4" y="-933.5" font-family="Times,serif" font-size="14.00">~</text>
<text text-anchor="middle" x="1305.4" y="-918.5" font-family="Times,serif" font-size="14.00">HalfNormal</text>
</g>
<!-- mu_q -->
<g id="node25" class="node">
<title>mu_q</title>
<polygon fill="none" stroke="black" points="959.9,-852.74 866.9,-852.74 866.9,-799.74 959.9,-799.74 959.9,-852.74"/>
<text text-anchor="middle" x="913.4" y="-837.54" font-family="Times,serif" font-size="14.00">mu_q</text>
<text text-anchor="middle" x="913.4" y="-822.54" font-family="Times,serif" font-size="14.00">~</text>
<text text-anchor="middle" x="913.4" y="-807.54" font-family="Times,serif" font-size="14.00">Deterministic</text>
</g>
<!-- sigma_mu_q&#45;&gt;mu_q -->
<g id="edge10" class="edge">
<title>sigma_mu_q&#45;&gt;mu_q</title>
<path fill="none" stroke="black" d="M1260.05,-911.11C1251.37,-906.92 1242.23,-902.9 1233.4,-899.72 1143.87,-867.46 1034.91,-846.44 970.01,-835.73"/>
<polygon fill="black" stroke="black" points="970.42,-832.25 959.98,-834.1 969.29,-839.16 970.42,-832.25"/>
</g>
<!-- mu_mu_h -->
<g id="node17" class="node">
<title>mu_mu_h</title>
<ellipse fill="none" stroke="black" cx="1028.4" cy="-937.2" rx="51.74" ry="37.45"/>
<text text-anchor="middle" x="1028.4" y="-948.5" font-family="Times,serif" font-size="14.00">mu_mu_h</text>
<text text-anchor="middle" x="1028.4" y="-933.5" font-family="Times,serif" font-size="14.00">~</text>
<text text-anchor="middle" x="1028.4" y="-918.5" font-family="Times,serif" font-size="14.00">Normal</text>
</g>
<!-- mu_h -->
<g id="node27" class="node">
<title>mu_h</title>
<polygon fill="none" stroke="black" points="848.9,-852.74 755.9,-852.74 755.9,-799.74 848.9,-799.74 848.9,-852.74"/>
<text text-anchor="middle" x="802.4" y="-837.54" font-family="Times,serif" font-size="14.00">mu_h</text>
<text text-anchor="middle" x="802.4" y="-822.54" font-family="Times,serif" font-size="14.00">~</text>
<text text-anchor="middle" x="802.4" y="-807.54" font-family="Times,serif" font-size="14.00">Deterministic</text>
</g>
<!-- mu_mu_h&#45;&gt;mu_h -->
<g id="edge2" class="edge">
<title>mu_mu_h&#45;&gt;mu_h</title>
<path fill="none" stroke="black" d="M992.34,-910.22C985.9,-906.31 979.1,-902.63 972.4,-899.72 924.53,-878.97 905.24,-894.7 858.4,-871.72 851.34,-868.26 844.35,-863.79 837.83,-859.03"/>
<polygon fill="black" stroke="black" points="839.91,-856.21 829.84,-852.89 835.64,-861.76 839.91,-856.21"/>
</g>
<!-- sigma_sigma_beta -->
<g id="node18" class="node">
<title>sigma_sigma_beta</title>
<ellipse fill="none" stroke="black" cx="654.4" cy="-712.29" rx="85.62" ry="37.45"/>
<text text-anchor="middle" x="654.4" y="-723.59" font-family="Times,serif" font-size="14.00">sigma_sigma_beta</text>
<text text-anchor="middle" x="654.4" y="-708.59" font-family="Times,serif" font-size="14.00">~</text>
<text text-anchor="middle" x="654.4" y="-693.59" font-family="Times,serif" font-size="14.00">Exponential</text>
</g>
<!-- sigma_beta -->
<g id="node30" class="node">
<title>sigma_beta</title>
<ellipse fill="none" stroke="black" cx="644.4" cy="-601.34" rx="59.29" ry="37.45"/>
<text text-anchor="middle" x="644.4" y="-612.64" font-family="Times,serif" font-size="14.00">sigma_beta</text>
<text text-anchor="middle" x="644.4" y="-597.64" font-family="Times,serif" font-size="14.00">~</text>
<text text-anchor="middle" x="644.4" y="-582.64" font-family="Times,serif" font-size="14.00">Exponential</text>
</g>
<!-- sigma_sigma_beta&#45;&gt;sigma_beta -->
<g id="edge21" class="edge">
<title>sigma_sigma_beta&#45;&gt;sigma_beta</title>
<path fill="none" stroke="black" d="M651.04,-674.71C650.29,-666.53 649.48,-657.75 648.7,-649.23"/>
<polygon fill="black" stroke="black" points="652.16,-648.65 647.76,-639.01 645.19,-649.29 652.16,-648.65"/>
</g>
<!-- sigma_sigma_h -->
<g id="node19" class="node">
<title>sigma_sigma_h</title>
<ellipse fill="none" stroke="black" cx="1581.4" cy="-937.2" rx="73.58" ry="37.45"/>
<text text-anchor="middle" x="1581.4" y="-948.5" font-family="Times,serif" font-size="14.00">sigma_sigma_h</text>
<text text-anchor="middle" x="1581.4" y="-933.5" font-family="Times,serif" font-size="14.00">~</text>
<text text-anchor="middle" x="1581.4" y="-918.5" font-family="Times,serif" font-size="14.00">HalfNormal</text>
</g>
<!-- sigma_h -->
<g id="node29" class="node">
<title>sigma_h</title>
<ellipse fill="none" stroke="black" cx="1312.4" cy="-826.24" rx="59.29" ry="37.45"/>
<text text-anchor="middle" x="1312.4" y="-837.54" font-family="Times,serif" font-size="14.00">sigma_h</text>
<text text-anchor="middle" x="1312.4" y="-822.54" font-family="Times,serif" font-size="14.00">~</text>
<text text-anchor="middle" x="1312.4" y="-807.54" font-family="Times,serif" font-size="14.00">HalfNormal</text>
</g>
<!-- sigma_sigma_h&#45;&gt;sigma_h -->
<g id="edge5" class="edge">
<title>sigma_sigma_h&#45;&gt;sigma_h</title>
<path fill="none" stroke="black" d="M1528.6,-910.99C1519,-906.91 1508.99,-902.96 1499.4,-899.72 1448.33,-882.47 1430.98,-892.85 1381.4,-871.72 1374.02,-868.58 1366.56,-864.67 1359.4,-860.48"/>
<polygon fill="black" stroke="black" points="1360.88,-857.29 1350.52,-855.07 1357.23,-863.26 1360.88,-857.29"/>
</g>
<!-- alpha -->
<g id="node20" class="node">
<title>alpha</title>
<ellipse fill="none" stroke="black" cx="59.4" cy="-276.43" rx="59.29" ry="37.45"/>
<text text-anchor="middle" x="59.4" y="-287.73" font-family="Times,serif" font-size="14.00">alpha</text>
<text text-anchor="middle" x="59.4" y="-272.73" font-family="Times,serif" font-size="14.00">~</text>
<text text-anchor="middle" x="59.4" y="-257.73" font-family="Times,serif" font-size="14.00">Exponential</text>
</g>
<!-- alpha&#45;&gt;y -->
<g id="edge30" class="edge">
<title>alpha&#45;&gt;y</title>
<path fill="none" stroke="black" d="M99.11,-248.22C119,-234.58 143.38,-217.88 164.9,-203.14"/>
<polygon fill="black" stroke="black" points="167.03,-205.92 173.3,-197.38 163.07,-200.15 167.03,-205.92"/>
</g>
<!-- sigma_mu_h -->
<g id="node21" class="node">
<title>sigma_mu_h</title>
<ellipse fill="none" stroke="black" cx="1161.4" cy="-937.2" rx="62.87" ry="37.45"/>
<text text-anchor="middle" x="1161.4" y="-948.5" font-family="Times,serif" font-size="14.00">sigma_mu_h</text>
<text text-anchor="middle" x="1161.4" y="-933.5" font-family="Times,serif" font-size="14.00">~</text>
<text text-anchor="middle" x="1161.4" y="-918.5" font-family="Times,serif" font-size="14.00">HalfNormal</text>
</g>
<!-- sigma_mu_h&#45;&gt;mu_h -->
<g id="edge4" class="edge">
<title>sigma_mu_h&#45;&gt;mu_h</title>
<path fill="none" stroke="black" d="M1116.69,-910.55C1107.87,-906.36 1098.51,-902.49 1089.4,-899.72 990.44,-869.67 953.82,-911.6 858.4,-871.72 850.91,-868.59 843.59,-864.16 836.84,-859.29"/>
<polygon fill="black" stroke="black" points="838.69,-856.3 828.64,-852.96 834.42,-861.84 838.69,-856.3"/>
</g>
<!-- sigma_sigma_q -->
<g id="node22" class="node">
<title>sigma_sigma_q</title>
<ellipse fill="none" stroke="black" cx="1746.4" cy="-937.2" rx="73.58" ry="37.45"/>
<text text-anchor="middle" x="1746.4" y="-948.5" font-family="Times,serif" font-size="14.00">sigma_sigma_q</text>
<text text-anchor="middle" x="1746.4" y="-933.5" font-family="Times,serif" font-size="14.00">~</text>
<text text-anchor="middle" x="1746.4" y="-918.5" font-family="Times,serif" font-size="14.00">HalfNormal</text>
</g>
<!-- sigma_q -->
<g id="node28" class="node">
<title>sigma_q</title>
<ellipse fill="none" stroke="black" cx="1449.4" cy="-826.24" rx="59.29" ry="37.45"/>
<text text-anchor="middle" x="1449.4" y="-837.54" font-family="Times,serif" font-size="14.00">sigma_q</text>
<text text-anchor="middle" x="1449.4" y="-822.54" font-family="Times,serif" font-size="14.00">~</text>
<text text-anchor="middle" x="1449.4" y="-807.54" font-family="Times,serif" font-size="14.00">HalfNormal</text>
</g>
<!-- sigma_sigma_q&#45;&gt;sigma_q -->
<g id="edge13" class="edge">
<title>sigma_sigma_q&#45;&gt;sigma_q</title>
<path fill="none" stroke="black" d="M1692.44,-911.34C1683.15,-907.31 1673.54,-903.29 1664.4,-899.72 1613.84,-880 1555.43,-860.52 1512.26,-846.72"/>
<polygon fill="black" stroke="black" points="1513.05,-843.3 1502.46,-843.61 1510.93,-849.97 1513.05,-843.3"/>
</g>
<!-- mu_mu_q -->
<g id="node23" class="node">
<title>mu_mu_q</title>
<ellipse fill="none" stroke="black" cx="1438.4" cy="-937.2" rx="51.74" ry="37.45"/>
<text text-anchor="middle" x="1438.4" y="-948.5" font-family="Times,serif" font-size="14.00">mu_mu_q</text>
<text text-anchor="middle" x="1438.4" y="-933.5" font-family="Times,serif" font-size="14.00">~</text>
<text text-anchor="middle" x="1438.4" y="-918.5" font-family="Times,serif" font-size="14.00">Normal</text>
</g>
<!-- mu_mu_q&#45;&gt;mu_q -->
<g id="edge11" class="edge">
<title>mu_mu_q&#45;&gt;mu_q</title>
<path fill="none" stroke="black" d="M1401.12,-910.88C1393.53,-906.6 1385.4,-902.61 1377.4,-899.72 1339.67,-886.08 1085.71,-850.58 970.29,-834.89"/>
<polygon fill="black" stroke="black" points="970.61,-831.4 960.23,-833.52 969.67,-838.34 970.61,-831.4"/>
</g>
<!-- mu_h_Δ -->
<g id="node24" class="node">
<title>mu_h_Δ</title>
<ellipse fill="none" stroke="black" cx="802.4" cy="-937.2" rx="45.92" ry="37.45"/>
<text text-anchor="middle" x="802.4" y="-948.5" font-family="Times,serif" font-size="14.00">mu_h_Δ</text>
<text text-anchor="middle" x="802.4" y="-933.5" font-family="Times,serif" font-size="14.00">~</text>
<text text-anchor="middle" x="802.4" y="-918.5" font-family="Times,serif" font-size="14.00">Normal</text>
</g>
<!-- mu_h_Δ&#45;&gt;mu_h -->
<g id="edge3" class="edge">
<title>mu_h_Δ&#45;&gt;mu_h</title>
<path fill="none" stroke="black" d="M802.4,-899.61C802.4,-887.88 802.4,-874.89 802.4,-863.2"/>
<polygon fill="black" stroke="black" points="805.9,-862.9 802.4,-852.9 798.9,-862.9 805.9,-862.9"/>
</g>
<!-- mu_q&#45;&gt;q -->
<g id="edge15" class="edge">
<title>mu_q&#45;&gt;q</title>
<path fill="none" stroke="black" d="M900,-799.62C890.58,-784.5 876.44,-766.63 858.4,-757.77 828.57,-743.11 591.09,-759.78 559.4,-749.77 554.73,-748.29 550.08,-746.29 545.59,-743.98"/>
<polygon fill="black" stroke="black" points="547.03,-740.77 536.6,-738.88 543.57,-746.86 547.03,-740.77"/>
</g>
<!-- mu_q_Δ -->
<g id="node26" class="node">
<title>mu_q_Δ</title>
<ellipse fill="none" stroke="black" cx="912.4" cy="-937.2" rx="45.92" ry="37.45"/>
<text text-anchor="middle" x="912.4" y="-948.5" font-family="Times,serif" font-size="14.00">mu_q_Δ</text>
<text text-anchor="middle" x="912.4" y="-933.5" font-family="Times,serif" font-size="14.00">~</text>
<text text-anchor="middle" x="912.4" y="-918.5" font-family="Times,serif" font-size="14.00">Normal</text>
</g>
<!-- mu_q_Δ&#45;&gt;mu_q -->
<g id="edge12" class="edge">
<title>mu_q_Δ&#45;&gt;mu_q</title>
<path fill="none" stroke="black" d="M912.73,-899.61C912.84,-887.88 912.96,-874.89 913.07,-863.2"/>
<polygon fill="black" stroke="black" points="916.57,-862.93 913.16,-852.9 909.57,-862.86 916.57,-862.93"/>
</g>
<!-- mu_h&#45;&gt;h -->
<g id="edge8" class="edge">
<title>mu_h&#45;&gt;h</title>
<path fill="none" stroke="black" d="M787.62,-799.53C777.35,-784.37 762.16,-766.5 743.4,-757.77 699.97,-737.56 358.18,-763.83 312.4,-749.77 307.53,-748.27 302.69,-746.22 298,-743.84"/>
<polygon fill="black" stroke="black" points="299.66,-740.76 289.22,-738.93 296.24,-746.87 299.66,-740.76"/>
</g>
<!-- sigma_q&#45;&gt;q -->
<g id="edge14" class="edge">
<title>sigma_q&#45;&gt;q</title>
<path fill="none" stroke="black" d="M1424.92,-792.02C1413.11,-778.75 1397.74,-764.94 1380.4,-757.77 1338.24,-740.34 603,-763.14 559.4,-749.77 554.52,-748.27 549.68,-746.19 545.01,-743.78"/>
<polygon fill="black" stroke="black" points="546.69,-740.71 536.27,-738.8 543.23,-746.79 546.69,-740.71"/>
</g>
<!-- sigma_h&#45;&gt;h -->
<g id="edge6" class="edge">
<title>sigma_h&#45;&gt;h</title>
<path fill="none" stroke="black" d="M1257.81,-811.18C1191.04,-794.74 1074.3,-768.4 972.4,-757.77 935.93,-753.96 347.49,-760.42 312.4,-749.77 307.53,-748.29 302.68,-746.24 297.99,-743.87"/>
<polygon fill="black" stroke="black" points="299.65,-740.79 289.21,-738.97 296.24,-746.9 299.65,-740.79"/>
</g>
<!-- sigma_beta&#45;&gt;beta -->
<g id="edge23" class="edge">
<title>sigma_beta&#45;&gt;beta</title>
<path fill="none" stroke="black" d="M613.16,-569.07C598.96,-556.31 581.35,-542.37 563.4,-532.86 521.57,-510.71 469.27,-496.92 431.31,-489.07"/>
<polygon fill="black" stroke="black" points="431.99,-485.64 421.49,-487.11 430.61,-492.5 431.99,-485.64"/>
</g>
<!-- beta&#45;&gt;eta -->
<g id="edge27" class="edge">
<title>beta&#45;&gt;eta</title>
<path fill="none" stroke="black" d="M359.23,-447C350.05,-434.82 338.61,-421.32 326.4,-410.91 325.07,-409.78 323.7,-408.67 322.3,-407.58"/>
<polygon fill="black" stroke="black" points="324.12,-404.57 313.96,-401.56 320.02,-410.25 324.12,-404.57"/>
</g>
</g>
</svg>
