<?xml version="1.0" encoding="UTF-8" standalone="no"?>
<!DOCTYPE svg PUBLIC "-//W3C//DTD SVG 1.1//EN"
 "http://www.w3.org/Graphics/SVG/1.1/DTD/svg11.dtd">
<!-- Generated by graphviz version 2.47.0 (20210327.0129)
 -->
<!-- Pages: 1 -->
<svg width="1737pt" height="455pt"
 viewBox="0.00 0.00 1736.58 454.84" xmlns="http://www.w3.org/2000/svg" xmlns:xlink="http://www.w3.org/1999/xlink">
<g id="graph0" class="graph" transform="scale(1 1) rotate(0) translate(4 450.84)">
<polygon fill="white" stroke="transparent" points="-4,4 -4,-450.84 1732.58,-450.84 1732.58,4 -4,4"/>
<g id="clust1" class="cluster">
<title>cluster4</title>
<path fill="none" stroke="black" d="M674.79,-129.95C674.79,-129.95 920.79,-129.95 920.79,-129.95 926.79,-129.95 932.79,-135.95 932.79,-141.95 932.79,-141.95 932.79,-331.88 932.79,-331.88 932.79,-337.88 926.79,-343.88 920.79,-343.88 920.79,-343.88 674.79,-343.88 674.79,-343.88 668.79,-343.88 662.79,-337.88 662.79,-331.88 662.79,-331.88 662.79,-141.95 662.79,-141.95 662.79,-135.95 668.79,-129.95 674.79,-129.95"/>
<text text-anchor="middle" x="919.79" y="-137.75" font-family="Times-Roman" font-size="14.00">4</text>
</g>
<g id="clust2" class="cluster">
<title>cluster64 x 10</title>
<path fill="none" stroke="black" d="M117.79,-129.95C117.79,-129.95 221.79,-129.95 221.79,-129.95 227.79,-129.95 233.79,-135.95 233.79,-141.95 233.79,-141.95 233.79,-331.88 233.79,-331.88 233.79,-337.88 227.79,-343.88 221.79,-343.88 221.79,-343.88 117.79,-343.88 117.79,-343.88 111.79,-343.88 105.79,-337.88 105.79,-331.88 105.79,-331.88 105.79,-141.95 105.79,-141.95 105.79,-135.95 111.79,-129.95 117.79,-129.95"/>
<text text-anchor="middle" x="198.79" y="-137.75" font-family="Times-Roman" font-size="14.00">64 x 10</text>
</g>
<g id="clust3" class="cluster">
<title>cluster10</title>
<path fill="none" stroke="black" d="M952.79,-129.95C952.79,-129.95 1056.79,-129.95 1056.79,-129.95 1062.79,-129.95 1068.79,-135.95 1068.79,-141.95 1068.79,-141.95 1068.79,-331.88 1068.79,-331.88 1068.79,-337.88 1062.79,-343.88 1056.79,-343.88 1056.79,-343.88 952.79,-343.88 952.79,-343.88 946.79,-343.88 940.79,-337.88 940.79,-331.88 940.79,-331.88 940.79,-141.95 940.79,-141.95 940.79,-135.95 946.79,-129.95 952.79,-129.95"/>
<text text-anchor="middle" x="1051.29" y="-137.75" font-family="Times-Roman" font-size="14.00">10</text>
</g>
<g id="clust4" class="cluster">
<title>cluster64</title>
<path fill="none" stroke="black" d="M1350.79,-129.95C1350.79,-129.95 1454.79,-129.95 1454.79,-129.95 1460.79,-129.95 1466.79,-135.95 1466.79,-141.95 1466.79,-141.95 1466.79,-331.88 1466.79,-331.88 1466.79,-337.88 1460.79,-343.88 1454.79,-343.88 1454.79,-343.88 1350.79,-343.88 1350.79,-343.88 1344.79,-343.88 1338.79,-337.88 1338.79,-331.88 1338.79,-331.88 1338.79,-141.95 1338.79,-141.95 1338.79,-135.95 1344.79,-129.95 1350.79,-129.95"/>
<text text-anchor="middle" x="1449.29" y="-137.75" font-family="Times-Roman" font-size="14.00">64</text>
</g>
<g id="clust5" class="cluster">
<title>cluster1,443</title>
<path fill="none" stroke="black" d="M734.79,-8C734.79,-8 824.79,-8 824.79,-8 830.79,-8 836.79,-14 836.79,-20 836.79,-20 836.79,-109.95 836.79,-109.95 836.79,-115.95 830.79,-121.95 824.79,-121.95 824.79,-121.95 734.79,-121.95 734.79,-121.95 728.79,-121.95 722.79,-115.95 722.79,-109.95 722.79,-109.95 722.79,-20 722.79,-20 722.79,-14 728.79,-8 734.79,-8"/>
<text text-anchor="middle" x="808.29" y="-15.8" font-family="Times-Roman" font-size="14.00">1,443</text>
</g>
<!-- μ_h -->
<g id="node1" class="node">
<title>μ_h</title>
<ellipse fill="none" stroke="black" cx="48.79" cy="-298.41" rx="48.58" ry="37.45"/>
<text text-anchor="middle" x="48.79" y="-309.71" font-family="Times-Roman" font-size="14.00">μ_h</text>
<text text-anchor="middle" x="48.79" y="-294.71" font-family="Times-Roman" font-size="14.00">~</text>
<text text-anchor="middle" x="48.79" y="-279.71" font-family="Times-Roman" font-size="14.00">Normal</text>
</g>
<!-- h -->
<g id="node14" class="node">
<title>h</title>
<polygon fill="none" stroke="black" points="225.79,-213.95 113.79,-213.95 113.79,-160.95 225.79,-160.95 225.79,-213.95"/>
<text text-anchor="middle" x="169.79" y="-198.75" font-family="Times-Roman" font-size="14.00">h</text>
<text text-anchor="middle" x="169.79" y="-183.75" font-family="Times-Roman" font-size="14.00">~</text>
<text text-anchor="middle" x="169.79" y="-168.75" font-family="Times-Roman" font-size="14.00">Deterministic</text>
</g>
<!-- μ_h&#45;&gt;h -->
<g id="edge5" class="edge">
<title>μ_h&#45;&gt;h</title>
<path fill="none" stroke="black" d="M79.95,-269.35C96.35,-254.59 116.53,-236.41 133.62,-221.03"/>
<polygon fill="black" stroke="black" points="136.13,-223.47 141.22,-214.18 131.45,-218.27 136.13,-223.47"/>
</g>
<!-- σ_d -->
<g id="node2" class="node">
<title>σ_d</title>
<ellipse fill="none" stroke="black" cx="1145.79" cy="-298.41" rx="69.09" ry="37.45"/>
<text text-anchor="middle" x="1145.79" y="-309.71" font-family="Times-Roman" font-size="14.00">σ_d</text>
<text text-anchor="middle" x="1145.79" y="-294.71" font-family="Times-Roman" font-size="14.00">~</text>
<text text-anchor="middle" x="1145.79" y="-279.71" font-family="Times-Roman" font-size="14.00">HalfNormal</text>
</g>
<!-- d -->
<g id="node16" class="node">
<title>d</title>
<polygon fill="none" stroke="black" points="1060.79,-213.95 948.79,-213.95 948.79,-160.95 1060.79,-160.95 1060.79,-213.95"/>
<text text-anchor="middle" x="1004.79" y="-198.75" font-family="Times-Roman" font-size="14.00">d</text>
<text text-anchor="middle" x="1004.79" y="-183.75" font-family="Times-Roman" font-size="14.00">~</text>
<text text-anchor="middle" x="1004.79" y="-168.75" font-family="Times-Roman" font-size="14.00">Deterministic</text>
</g>
<!-- σ_d&#45;&gt;d -->
<g id="edge7" class="edge">
<title>σ_d&#45;&gt;d</title>
<path fill="none" stroke="black" d="M1106.89,-267.35C1087.92,-252.69 1065.09,-235.05 1045.84,-220.18"/>
<polygon fill="black" stroke="black" points="1047.89,-217.33 1037.83,-213.99 1043.61,-222.87 1047.89,-217.33"/>
</g>
<!-- σ_a -->
<g id="node3" class="node">
<title>σ_a</title>
<ellipse fill="none" stroke="black" cx="1543.79" cy="-298.41" rx="69.09" ry="37.45"/>
<text text-anchor="middle" x="1543.79" y="-309.71" font-family="Times-Roman" font-size="14.00">σ_a</text>
<text text-anchor="middle" x="1543.79" y="-294.71" font-family="Times-Roman" font-size="14.00">~</text>
<text text-anchor="middle" x="1543.79" y="-279.71" font-family="Times-Roman" font-size="14.00">HalfNormal</text>
</g>
<!-- a -->
<g id="node19" class="node">
<title>a</title>
<polygon fill="none" stroke="black" points="1458.79,-213.95 1346.79,-213.95 1346.79,-160.95 1458.79,-160.95 1458.79,-213.95"/>
<text text-anchor="middle" x="1402.79" y="-198.75" font-family="Times-Roman" font-size="14.00">a</text>
<text text-anchor="middle" x="1402.79" y="-183.75" font-family="Times-Roman" font-size="14.00">~</text>
<text text-anchor="middle" x="1402.79" y="-168.75" font-family="Times-Roman" font-size="14.00">Deterministic</text>
</g>
<!-- σ_a&#45;&gt;a -->
<g id="edge10" class="edge">
<title>σ_a&#45;&gt;a</title>
<path fill="none" stroke="black" d="M1504.89,-267.35C1485.92,-252.69 1463.09,-235.05 1443.84,-220.18"/>
<polygon fill="black" stroke="black" points="1445.89,-217.33 1435.83,-213.99 1441.61,-222.87 1445.89,-217.33"/>
</g>
<!-- μ_a -->
<g id="node4" class="node">
<title>μ_a</title>
<ellipse fill="none" stroke="black" cx="1679.79" cy="-298.41" rx="48.58" ry="37.45"/>
<text text-anchor="middle" x="1679.79" y="-309.71" font-family="Times-Roman" font-size="14.00">μ_a</text>
<text text-anchor="middle" x="1679.79" y="-294.71" font-family="Times-Roman" font-size="14.00">~</text>
<text text-anchor="middle" x="1679.79" y="-279.71" font-family="Times-Roman" font-size="14.00">Normal</text>
</g>
<!-- μ_a&#45;&gt;a -->
<g id="edge12" class="edge">
<title>μ_a&#45;&gt;a</title>
<path fill="none" stroke="black" d="M1643.73,-272.86C1636.63,-268.57 1629.11,-264.38 1621.79,-260.93 1572.28,-237.59 1513.22,-218.52 1468.92,-205.8"/>
<polygon fill="black" stroke="black" points="1469.7,-202.39 1459.13,-203.03 1467.79,-209.12 1469.7,-202.39"/>
</g>
<!-- σ_h -->
<g id="node5" class="node">
<title>σ_h</title>
<ellipse fill="none" stroke="black" cx="310.79" cy="-298.41" rx="69.09" ry="37.45"/>
<text text-anchor="middle" x="310.79" y="-309.71" font-family="Times-Roman" font-size="14.00">σ_h</text>
<text text-anchor="middle" x="310.79" y="-294.71" font-family="Times-Roman" font-size="14.00">~</text>
<text text-anchor="middle" x="310.79" y="-279.71" font-family="Times-Roman" font-size="14.00">HalfNormal</text>
</g>
<!-- σ_h&#45;&gt;h -->
<g id="edge4" class="edge">
<title>σ_h&#45;&gt;h</title>
<path fill="none" stroke="black" d="M271.89,-267.35C252.92,-252.69 230.09,-235.05 210.84,-220.18"/>
<polygon fill="black" stroke="black" points="212.89,-217.33 202.83,-213.99 208.61,-222.87 212.89,-217.33"/>
</g>
<!-- σ_j -->
<g id="node6" class="node">
<title>σ_j</title>
<ellipse fill="none" stroke="black" cx="467.79" cy="-298.41" rx="69.09" ry="37.45"/>
<text text-anchor="middle" x="467.79" y="-309.71" font-family="Times-Roman" font-size="14.00">σ_j</text>
<text text-anchor="middle" x="467.79" y="-294.71" font-family="Times-Roman" font-size="14.00">~</text>
<text text-anchor="middle" x="467.79" y="-279.71" font-family="Times-Roman" font-size="14.00">HalfNormal</text>
</g>
<!-- j -->
<g id="node13" class="node">
<title>j</title>
<polygon fill="none" stroke="black" points="782.79,-213.95 670.79,-213.95 670.79,-160.95 782.79,-160.95 782.79,-213.95"/>
<text text-anchor="middle" x="726.79" y="-198.75" font-family="Times-Roman" font-size="14.00">j</text>
<text text-anchor="middle" x="726.79" y="-183.75" font-family="Times-Roman" font-size="14.00">~</text>
<text text-anchor="middle" x="726.79" y="-168.75" font-family="Times-Roman" font-size="14.00">Deterministic</text>
</g>
<!-- σ_j&#45;&gt;j -->
<g id="edge2" class="edge">
<title>σ_j&#45;&gt;j</title>
<path fill="none" stroke="black" d="M518.12,-272.65C527.24,-268.51 536.73,-264.44 545.79,-260.93 596.13,-241.45 612.2,-246.26 661.79,-224.93 666.17,-223.05 670.63,-220.95 675.06,-218.75"/>
<polygon fill="black" stroke="black" points="676.8,-221.79 684.08,-214.09 673.59,-215.57 676.8,-221.79"/>
</g>
<!-- μ_j -->
<g id="node7" class="node">
<title>μ_j</title>
<ellipse fill="none" stroke="black" cx="603.79" cy="-298.41" rx="48.58" ry="37.45"/>
<text text-anchor="middle" x="603.79" y="-309.71" font-family="Times-Roman" font-size="14.00">μ_j</text>
<text text-anchor="middle" x="603.79" y="-294.71" font-family="Times-Roman" font-size="14.00">~</text>
<text text-anchor="middle" x="603.79" y="-279.71" font-family="Times-Roman" font-size="14.00">Normal</text>
</g>
<!-- μ_j&#45;&gt;j -->
<g id="edge1" class="edge">
<title>μ_j&#45;&gt;j</title>
<path fill="none" stroke="black" d="M635.15,-269.63C651.81,-254.87 672.4,-236.63 689.84,-221.19"/>
<polygon fill="black" stroke="black" points="692.44,-223.56 697.6,-214.31 687.8,-218.32 692.44,-223.56"/>
</g>
<!-- σ_σ -->
<g id="node8" class="node">
<title>σ_σ</title>
<ellipse fill="none" stroke="black" cx="855.79" cy="-409.36" rx="69.09" ry="37.45"/>
<text text-anchor="middle" x="855.79" y="-420.66" font-family="Times-Roman" font-size="14.00">σ_σ</text>
<text text-anchor="middle" x="855.79" y="-405.66" font-family="Times-Roman" font-size="14.00">~</text>
<text text-anchor="middle" x="855.79" y="-390.66" font-family="Times-Roman" font-size="14.00">HalfNormal</text>
</g>
<!-- σ -->
<g id="node12" class="node">
<title>σ</title>
<ellipse fill="none" stroke="black" cx="855.79" cy="-298.41" rx="69.09" ry="37.45"/>
<text text-anchor="middle" x="855.79" y="-309.71" font-family="Times-Roman" font-size="14.00">σ</text>
<text text-anchor="middle" x="855.79" y="-294.71" font-family="Times-Roman" font-size="14.00">~</text>
<text text-anchor="middle" x="855.79" y="-279.71" font-family="Times-Roman" font-size="14.00">HalfNormal</text>
</g>
<!-- σ_σ&#45;&gt;σ -->
<g id="edge13" class="edge">
<title>σ_σ&#45;&gt;σ</title>
<path fill="none" stroke="black" d="M855.79,-371.78C855.79,-363.6 855.79,-354.82 855.79,-346.3"/>
<polygon fill="black" stroke="black" points="859.29,-346.08 855.79,-336.08 852.29,-346.08 859.29,-346.08"/>
</g>
<!-- i -->
<g id="node9" class="node">
<title>i</title>
<ellipse fill="none" stroke="black" cx="603.79" cy="-187.45" rx="48.58" ry="37.45"/>
<text text-anchor="middle" x="603.79" y="-198.75" font-family="Times-Roman" font-size="14.00">i</text>
<text text-anchor="middle" x="603.79" y="-183.75" font-family="Times-Roman" font-size="14.00">~</text>
<text text-anchor="middle" x="603.79" y="-168.75" font-family="Times-Roman" font-size="14.00">Normal</text>
</g>
<!-- lfc -->
<g id="node20" class="node">
<title>lfc</title>
<ellipse fill="lightgrey" stroke="black" cx="779.79" cy="-76.48" rx="48.58" ry="37.45"/>
<text text-anchor="middle" x="779.79" y="-87.78" font-family="Times-Roman" font-size="14.00">lfc</text>
<text text-anchor="middle" x="779.79" y="-72.78" font-family="Times-Roman" font-size="14.00">~</text>
<text text-anchor="middle" x="779.79" y="-57.78" font-family="Times-Roman" font-size="14.00">Normal</text>
</g>
<!-- i&#45;&gt;lfc -->
<g id="edge17" class="edge">
<title>i&#45;&gt;lfc</title>
<path fill="none" stroke="black" d="M629.82,-155.41C638.41,-146.42 648.42,-137.11 658.79,-129.95 679.15,-115.91 703.87,-104.37 725.64,-95.73"/>
<polygon fill="black" stroke="black" points="727.02,-98.95 735.09,-92.08 724.5,-92.42 727.02,-98.95"/>
</g>
<!-- μ_d -->
<g id="node10" class="node">
<title>μ_d</title>
<ellipse fill="none" stroke="black" cx="1281.79" cy="-298.41" rx="48.58" ry="37.45"/>
<text text-anchor="middle" x="1281.79" y="-309.71" font-family="Times-Roman" font-size="14.00">μ_d</text>
<text text-anchor="middle" x="1281.79" y="-294.71" font-family="Times-Roman" font-size="14.00">~</text>
<text text-anchor="middle" x="1281.79" y="-279.71" font-family="Times-Roman" font-size="14.00">Normal</text>
</g>
<!-- μ_d&#45;&gt;d -->
<g id="edge8" class="edge">
<title>μ_d&#45;&gt;d</title>
<path fill="none" stroke="black" d="M1245.73,-272.86C1238.63,-268.57 1231.11,-264.38 1223.79,-260.93 1174.28,-237.59 1115.22,-218.52 1070.92,-205.8"/>
<polygon fill="black" stroke="black" points="1071.7,-202.39 1061.13,-203.03 1069.79,-209.12 1071.7,-202.39"/>
</g>
<!-- j_offset -->
<g id="node11" class="node">
<title>j_offset</title>
<ellipse fill="none" stroke="black" cx="719.79" cy="-298.41" rx="48.58" ry="37.45"/>
<text text-anchor="middle" x="719.79" y="-309.71" font-family="Times-Roman" font-size="14.00">j_offset</text>
<text text-anchor="middle" x="719.79" y="-294.71" font-family="Times-Roman" font-size="14.00">~</text>
<text text-anchor="middle" x="719.79" y="-279.71" font-family="Times-Roman" font-size="14.00">Normal</text>
</g>
<!-- j_offset&#45;&gt;j -->
<g id="edge3" class="edge">
<title>j_offset&#45;&gt;j</title>
<path fill="none" stroke="black" d="M722.14,-260.82C722.89,-249.09 723.73,-236.1 724.48,-224.41"/>
<polygon fill="black" stroke="black" points="727.99,-224.31 725.14,-214.11 721.01,-223.86 727.99,-224.31"/>
</g>
<!-- σ&#45;&gt;lfc -->
<g id="edge19" class="edge">
<title>σ&#45;&gt;lfc</title>
<path fill="none" stroke="black" d="M843.24,-261.09C830.13,-223.14 809.53,-163.53 795.38,-122.58"/>
<polygon fill="black" stroke="black" points="798.68,-121.43 792.11,-113.12 792.06,-123.71 798.68,-121.43"/>
</g>
<!-- j&#45;&gt;lfc -->
<g id="edge14" class="edge">
<title>j&#45;&gt;lfc</title>
<path fill="none" stroke="black" d="M739.22,-160.9C744.98,-149.04 752,-134.61 758.57,-121.1"/>
<polygon fill="black" stroke="black" points="761.8,-122.47 763.03,-111.94 755.51,-119.41 761.8,-122.47"/>
</g>
<!-- h&#45;&gt;lfc -->
<g id="edge15" class="edge">
<title>h&#45;&gt;lfc</title>
<path fill="none" stroke="black" d="M225.81,-176.44C341.46,-155.78 605.54,-108.61 722.37,-87.73"/>
<polygon fill="black" stroke="black" points="723.31,-91.12 732.54,-85.92 722.08,-84.23 723.31,-91.12"/>
</g>
<!-- h_offset -->
<g id="node15" class="node">
<title>h_offset</title>
<ellipse fill="none" stroke="black" cx="169.79" cy="-298.41" rx="52.15" ry="37.45"/>
<text text-anchor="middle" x="169.79" y="-309.71" font-family="Times-Roman" font-size="14.00">h_offset</text>
<text text-anchor="middle" x="169.79" y="-294.71" font-family="Times-Roman" font-size="14.00">~</text>
<text text-anchor="middle" x="169.79" y="-279.71" font-family="Times-Roman" font-size="14.00">Normal</text>
</g>
<!-- h_offset&#45;&gt;h -->
<g id="edge6" class="edge">
<title>h_offset&#45;&gt;h</title>
<path fill="none" stroke="black" d="M169.79,-260.82C169.79,-249.09 169.79,-236.1 169.79,-224.41"/>
<polygon fill="black" stroke="black" points="173.29,-224.11 169.79,-214.11 166.29,-224.11 173.29,-224.11"/>
</g>
<!-- d&#45;&gt;lfc -->
<g id="edge16" class="edge">
<title>d&#45;&gt;lfc</title>
<path fill="none" stroke="black" d="M978.71,-160.87C966.7,-150.17 951.81,-138.31 936.79,-129.95 905.29,-112.42 866.97,-99.47 836.08,-90.82"/>
<polygon fill="black" stroke="black" points="836.89,-87.42 826.32,-88.17 835.05,-94.17 836.89,-87.42"/>
</g>
<!-- d_offset -->
<g id="node17" class="node">
<title>d_offset</title>
<ellipse fill="none" stroke="black" cx="1004.79" cy="-298.41" rx="52.15" ry="37.45"/>
<text text-anchor="middle" x="1004.79" y="-309.71" font-family="Times-Roman" font-size="14.00">d_offset</text>
<text text-anchor="middle" x="1004.79" y="-294.71" font-family="Times-Roman" font-size="14.00">~</text>
<text text-anchor="middle" x="1004.79" y="-279.71" font-family="Times-Roman" font-size="14.00">Normal</text>
</g>
<!-- d_offset&#45;&gt;d -->
<g id="edge9" class="edge">
<title>d_offset&#45;&gt;d</title>
<path fill="none" stroke="black" d="M1004.79,-260.82C1004.79,-249.09 1004.79,-236.1 1004.79,-224.41"/>
<polygon fill="black" stroke="black" points="1008.29,-224.11 1004.79,-214.11 1001.29,-224.11 1008.29,-224.11"/>
</g>
<!-- a_offset -->
<g id="node18" class="node">
<title>a_offset</title>
<ellipse fill="none" stroke="black" cx="1402.79" cy="-298.41" rx="52.15" ry="37.45"/>
<text text-anchor="middle" x="1402.79" y="-309.71" font-family="Times-Roman" font-size="14.00">a_offset</text>
<text text-anchor="middle" x="1402.79" y="-294.71" font-family="Times-Roman" font-size="14.00">~</text>
<text text-anchor="middle" x="1402.79" y="-279.71" font-family="Times-Roman" font-size="14.00">Normal</text>
</g>
<!-- a_offset&#45;&gt;a -->
<g id="edge11" class="edge">
<title>a_offset&#45;&gt;a</title>
<path fill="none" stroke="black" d="M1402.79,-260.82C1402.79,-249.09 1402.79,-236.1 1402.79,-224.41"/>
<polygon fill="black" stroke="black" points="1406.29,-224.11 1402.79,-214.11 1399.29,-224.11 1406.29,-224.11"/>
</g>
<!-- a&#45;&gt;lfc -->
<g id="edge18" class="edge">
<title>a&#45;&gt;lfc</title>
<path fill="none" stroke="black" d="M1346.68,-176.64C1228.83,-156.02 956.64,-108.41 837.45,-87.56"/>
<polygon fill="black" stroke="black" points="837.88,-84.08 827.43,-85.81 836.67,-90.98 837.88,-84.08"/>
</g>
</g>
</svg>
