<?xml version="1.0" encoding="UTF-8" standalone="no"?>
<!DOCTYPE svg PUBLIC "-//W3C//DTD SVG 1.1//EN"
 "http://www.w3.org/Graphics/SVG/1.1/DTD/svg11.dtd">
<!-- Generated by graphviz version 2.47.0 (20210327.0129)
 -->
<!-- Pages: 1 -->
<svg width="1737pt" height="455pt"
 viewBox="0.00 0.00 1736.59 454.84" xmlns="http://www.w3.org/2000/svg" xmlns:xlink="http://www.w3.org/1999/xlink">
<g id="graph0" class="graph" transform="scale(1 1) rotate(0) translate(4 450.84)">
<polygon fill="white" stroke="transparent" points="-4,4 -4,-450.84 1732.59,-450.84 1732.59,4 -4,4"/>
<g id="clust1" class="cluster">
<title>cluster4</title>
<path fill="none" stroke="black" d="M276.3,-129.95C276.3,-129.95 522.3,-129.95 522.3,-129.95 528.3,-129.95 534.3,-135.95 534.3,-141.95 534.3,-141.95 534.3,-331.88 534.3,-331.88 534.3,-337.88 528.3,-343.88 522.3,-343.88 522.3,-343.88 276.3,-343.88 276.3,-343.88 270.3,-343.88 264.3,-337.88 264.3,-331.88 264.3,-331.88 264.3,-141.95 264.3,-141.95 264.3,-135.95 270.3,-129.95 276.3,-129.95"/>
<text text-anchor="middle" x="521.3" y="-137.75" font-family="Times-Roman" font-size="14.00">4</text>
</g>
<g id="clust2" class="cluster">
<title>cluster64 x 10</title>
<path fill="none" stroke="black" d="M554.3,-129.95C554.3,-129.95 658.3,-129.95 658.3,-129.95 664.3,-129.95 670.3,-135.95 670.3,-141.95 670.3,-141.95 670.3,-331.88 670.3,-331.88 670.3,-337.88 664.3,-343.88 658.3,-343.88 658.3,-343.88 554.3,-343.88 554.3,-343.88 548.3,-343.88 542.3,-337.88 542.3,-331.88 542.3,-331.88 542.3,-141.95 542.3,-141.95 542.3,-135.95 548.3,-129.95 554.3,-129.95"/>
<text text-anchor="middle" x="635.3" y="-137.75" font-family="Times-Roman" font-size="14.00">64 x 10</text>
</g>
<g id="clust3" class="cluster">
<title>cluster10</title>
<path fill="none" stroke="black" d="M952.3,-129.95C952.3,-129.95 1056.3,-129.95 1056.3,-129.95 1062.3,-129.95 1068.3,-135.95 1068.3,-141.95 1068.3,-141.95 1068.3,-331.88 1068.3,-331.88 1068.3,-337.88 1062.3,-343.88 1056.3,-343.88 1056.3,-343.88 952.3,-343.88 952.3,-343.88 946.3,-343.88 940.3,-337.88 940.3,-331.88 940.3,-331.88 940.3,-141.95 940.3,-141.95 940.3,-135.95 946.3,-129.95 952.3,-129.95"/>
<text text-anchor="middle" x="1050.8" y="-137.75" font-family="Times-Roman" font-size="14.00">10</text>
</g>
<g id="clust4" class="cluster">
<title>cluster64</title>
<path fill="none" stroke="black" d="M1350.3,-129.95C1350.3,-129.95 1454.3,-129.95 1454.3,-129.95 1460.3,-129.95 1466.3,-135.95 1466.3,-141.95 1466.3,-141.95 1466.3,-331.88 1466.3,-331.88 1466.3,-337.88 1460.3,-343.88 1454.3,-343.88 1454.3,-343.88 1350.3,-343.88 1350.3,-343.88 1344.3,-343.88 1338.3,-337.88 1338.3,-331.88 1338.3,-331.88 1338.3,-141.95 1338.3,-141.95 1338.3,-135.95 1344.3,-129.95 1350.3,-129.95"/>
<text text-anchor="middle" x="1448.8" y="-137.75" font-family="Times-Roman" font-size="14.00">64</text>
</g>
<g id="clust5" class="cluster">
<title>cluster1,443</title>
<path fill="none" stroke="black" d="M502.3,-8C502.3,-8 592.3,-8 592.3,-8 598.3,-8 604.3,-14 604.3,-20 604.3,-20 604.3,-109.95 604.3,-109.95 604.3,-115.95 598.3,-121.95 592.3,-121.95 592.3,-121.95 502.3,-121.95 502.3,-121.95 496.3,-121.95 490.3,-115.95 490.3,-109.95 490.3,-109.95 490.3,-20 490.3,-20 490.3,-14 496.3,-8 502.3,-8"/>
<text text-anchor="middle" x="575.8" y="-15.8" font-family="Times-Roman" font-size="14.00">1,443</text>
</g>
<!-- i -->
<g id="node1" class="node">
<title>i</title>
<ellipse fill="none" stroke="black" cx="205.3" cy="-187.45" rx="48.58" ry="37.45"/>
<text text-anchor="middle" x="205.3" y="-198.75" font-family="Times-Roman" font-size="14.00">i</text>
<text text-anchor="middle" x="205.3" y="-183.75" font-family="Times-Roman" font-size="14.00">~</text>
<text text-anchor="middle" x="205.3" y="-168.75" font-family="Times-Roman" font-size="14.00">Normal</text>
</g>
<!-- lfc -->
<g id="node20" class="node">
<title>lfc</title>
<ellipse fill="lightgrey" stroke="black" cx="547.3" cy="-76.48" rx="48.58" ry="37.45"/>
<text text-anchor="middle" x="547.3" y="-87.78" font-family="Times-Roman" font-size="14.00">lfc</text>
<text text-anchor="middle" x="547.3" y="-72.78" font-family="Times-Roman" font-size="14.00">~</text>
<text text-anchor="middle" x="547.3" y="-57.78" font-family="Times-Roman" font-size="14.00">Normal</text>
</g>
<!-- i&#45;&gt;lfc -->
<g id="edge14" class="edge">
<title>i&#45;&gt;lfc</title>
<path fill="none" stroke="black" d="M229.58,-154.78C238.29,-145.43 248.82,-136.07 260.3,-129.95 332.44,-91.49 427.71,-80.67 488.25,-77.92"/>
<polygon fill="black" stroke="black" points="488.55,-81.41 498.4,-77.52 488.27,-74.42 488.55,-81.41"/>
</g>
<!-- σ_j -->
<g id="node2" class="node">
<title>σ_j</title>
<ellipse fill="none" stroke="black" cx="69.3" cy="-298.41" rx="69.09" ry="37.45"/>
<text text-anchor="middle" x="69.3" y="-309.71" font-family="Times-Roman" font-size="14.00">σ_j</text>
<text text-anchor="middle" x="69.3" y="-294.71" font-family="Times-Roman" font-size="14.00">~</text>
<text text-anchor="middle" x="69.3" y="-279.71" font-family="Times-Roman" font-size="14.00">HalfNormal</text>
</g>
<!-- j -->
<g id="node11" class="node">
<title>j</title>
<polygon fill="none" stroke="black" points="384.3,-213.95 272.3,-213.95 272.3,-160.95 384.3,-160.95 384.3,-213.95"/>
<text text-anchor="middle" x="328.3" y="-198.75" font-family="Times-Roman" font-size="14.00">j</text>
<text text-anchor="middle" x="328.3" y="-183.75" font-family="Times-Roman" font-size="14.00">~</text>
<text text-anchor="middle" x="328.3" y="-168.75" font-family="Times-Roman" font-size="14.00">Deterministic</text>
</g>
<!-- σ_j&#45;&gt;j -->
<g id="edge3" class="edge">
<title>σ_j&#45;&gt;j</title>
<path fill="none" stroke="black" d="M119.63,-272.65C128.75,-268.51 138.23,-264.44 147.3,-260.93 197.64,-241.45 213.71,-246.26 263.3,-224.93 267.67,-223.05 272.13,-220.95 276.57,-218.75"/>
<polygon fill="black" stroke="black" points="278.31,-221.79 285.59,-214.09 275.09,-215.57 278.31,-221.79"/>
</g>
<!-- μ_h -->
<g id="node3" class="node">
<title>μ_h</title>
<ellipse fill="none" stroke="black" cx="727.3" cy="-298.41" rx="48.58" ry="37.45"/>
<text text-anchor="middle" x="727.3" y="-309.71" font-family="Times-Roman" font-size="14.00">μ_h</text>
<text text-anchor="middle" x="727.3" y="-294.71" font-family="Times-Roman" font-size="14.00">~</text>
<text text-anchor="middle" x="727.3" y="-279.71" font-family="Times-Roman" font-size="14.00">Normal</text>
</g>
<!-- h -->
<g id="node14" class="node">
<title>h</title>
<polygon fill="none" stroke="black" points="662.3,-213.95 550.3,-213.95 550.3,-160.95 662.3,-160.95 662.3,-213.95"/>
<text text-anchor="middle" x="606.3" y="-198.75" font-family="Times-Roman" font-size="14.00">h</text>
<text text-anchor="middle" x="606.3" y="-183.75" font-family="Times-Roman" font-size="14.00">~</text>
<text text-anchor="middle" x="606.3" y="-168.75" font-family="Times-Roman" font-size="14.00">Deterministic</text>
</g>
<!-- μ_h&#45;&gt;h -->
<g id="edge5" class="edge">
<title>μ_h&#45;&gt;h</title>
<path fill="none" stroke="black" d="M696.14,-269.35C679.74,-254.59 659.55,-236.41 642.47,-221.03"/>
<polygon fill="black" stroke="black" points="644.64,-218.27 634.86,-214.18 639.95,-223.47 644.64,-218.27"/>
</g>
<!-- μ_d -->
<g id="node4" class="node">
<title>μ_d</title>
<ellipse fill="none" stroke="black" cx="1125.3" cy="-298.41" rx="48.58" ry="37.45"/>
<text text-anchor="middle" x="1125.3" y="-309.71" font-family="Times-Roman" font-size="14.00">μ_d</text>
<text text-anchor="middle" x="1125.3" y="-294.71" font-family="Times-Roman" font-size="14.00">~</text>
<text text-anchor="middle" x="1125.3" y="-279.71" font-family="Times-Roman" font-size="14.00">Normal</text>
</g>
<!-- d -->
<g id="node16" class="node">
<title>d</title>
<polygon fill="none" stroke="black" points="1060.3,-213.95 948.3,-213.95 948.3,-160.95 1060.3,-160.95 1060.3,-213.95"/>
<text text-anchor="middle" x="1004.3" y="-198.75" font-family="Times-Roman" font-size="14.00">d</text>
<text text-anchor="middle" x="1004.3" y="-183.75" font-family="Times-Roman" font-size="14.00">~</text>
<text text-anchor="middle" x="1004.3" y="-168.75" font-family="Times-Roman" font-size="14.00">Deterministic</text>
</g>
<!-- μ_d&#45;&gt;d -->
<g id="edge7" class="edge">
<title>μ_d&#45;&gt;d</title>
<path fill="none" stroke="black" d="M1094.14,-269.35C1077.74,-254.59 1057.55,-236.41 1040.47,-221.03"/>
<polygon fill="black" stroke="black" points="1042.64,-218.27 1032.86,-214.18 1037.95,-223.47 1042.64,-218.27"/>
</g>
<!-- σ_σ -->
<g id="node5" class="node">
<title>σ_σ</title>
<ellipse fill="none" stroke="black" cx="457.3" cy="-409.36" rx="69.09" ry="37.45"/>
<text text-anchor="middle" x="457.3" y="-420.66" font-family="Times-Roman" font-size="14.00">σ_σ</text>
<text text-anchor="middle" x="457.3" y="-405.66" font-family="Times-Roman" font-size="14.00">~</text>
<text text-anchor="middle" x="457.3" y="-390.66" font-family="Times-Roman" font-size="14.00">HalfNormal</text>
</g>
<!-- σ -->
<g id="node13" class="node">
<title>σ</title>
<ellipse fill="none" stroke="black" cx="457.3" cy="-298.41" rx="69.09" ry="37.45"/>
<text text-anchor="middle" x="457.3" y="-309.71" font-family="Times-Roman" font-size="14.00">σ</text>
<text text-anchor="middle" x="457.3" y="-294.71" font-family="Times-Roman" font-size="14.00">~</text>
<text text-anchor="middle" x="457.3" y="-279.71" font-family="Times-Roman" font-size="14.00">HalfNormal</text>
</g>
<!-- σ_σ&#45;&gt;σ -->
<g id="edge13" class="edge">
<title>σ_σ&#45;&gt;σ</title>
<path fill="none" stroke="black" d="M457.3,-371.78C457.3,-363.6 457.3,-354.82 457.3,-346.3"/>
<polygon fill="black" stroke="black" points="460.8,-346.08 457.3,-336.08 453.8,-346.08 460.8,-346.08"/>
</g>
<!-- σ_d -->
<g id="node6" class="node">
<title>σ_d</title>
<ellipse fill="none" stroke="black" cx="1261.3" cy="-298.41" rx="69.09" ry="37.45"/>
<text text-anchor="middle" x="1261.3" y="-309.71" font-family="Times-Roman" font-size="14.00">σ_d</text>
<text text-anchor="middle" x="1261.3" y="-294.71" font-family="Times-Roman" font-size="14.00">~</text>
<text text-anchor="middle" x="1261.3" y="-279.71" font-family="Times-Roman" font-size="14.00">HalfNormal</text>
</g>
<!-- σ_d&#45;&gt;d -->
<g id="edge9" class="edge">
<title>σ_d&#45;&gt;d</title>
<path fill="none" stroke="black" d="M1209.86,-272.89C1201.04,-268.81 1191.93,-264.69 1183.3,-260.93 1146.07,-244.7 1104.01,-227.61 1070.01,-214.1"/>
<polygon fill="black" stroke="black" points="1071.23,-210.82 1060.65,-210.39 1068.65,-217.33 1071.23,-210.82"/>
</g>
<!-- μ_j -->
<g id="node7" class="node">
<title>μ_j</title>
<ellipse fill="none" stroke="black" cx="205.3" cy="-298.41" rx="48.58" ry="37.45"/>
<text text-anchor="middle" x="205.3" y="-309.71" font-family="Times-Roman" font-size="14.00">μ_j</text>
<text text-anchor="middle" x="205.3" y="-294.71" font-family="Times-Roman" font-size="14.00">~</text>
<text text-anchor="middle" x="205.3" y="-279.71" font-family="Times-Roman" font-size="14.00">Normal</text>
</g>
<!-- μ_j&#45;&gt;j -->
<g id="edge2" class="edge">
<title>μ_j&#45;&gt;j</title>
<path fill="none" stroke="black" d="M236.65,-269.63C253.32,-254.87 273.91,-236.63 291.34,-221.19"/>
<polygon fill="black" stroke="black" points="293.94,-223.56 299.11,-214.31 289.3,-218.32 293.94,-223.56"/>
</g>
<!-- μ_a -->
<g id="node8" class="node">
<title>μ_a</title>
<ellipse fill="none" stroke="black" cx="1523.3" cy="-298.41" rx="48.58" ry="37.45"/>
<text text-anchor="middle" x="1523.3" y="-309.71" font-family="Times-Roman" font-size="14.00">μ_a</text>
<text text-anchor="middle" x="1523.3" y="-294.71" font-family="Times-Roman" font-size="14.00">~</text>
<text text-anchor="middle" x="1523.3" y="-279.71" font-family="Times-Roman" font-size="14.00">Normal</text>
</g>
<!-- a -->
<g id="node19" class="node">
<title>a</title>
<polygon fill="none" stroke="black" points="1458.3,-213.95 1346.3,-213.95 1346.3,-160.95 1458.3,-160.95 1458.3,-213.95"/>
<text text-anchor="middle" x="1402.3" y="-198.75" font-family="Times-Roman" font-size="14.00">a</text>
<text text-anchor="middle" x="1402.3" y="-183.75" font-family="Times-Roman" font-size="14.00">~</text>
<text text-anchor="middle" x="1402.3" y="-168.75" font-family="Times-Roman" font-size="14.00">Deterministic</text>
</g>
<!-- μ_a&#45;&gt;a -->
<g id="edge12" class="edge">
<title>μ_a&#45;&gt;a</title>
<path fill="none" stroke="black" d="M1492.14,-269.35C1475.74,-254.59 1455.55,-236.41 1438.47,-221.03"/>
<polygon fill="black" stroke="black" points="1440.64,-218.27 1430.86,-214.18 1435.95,-223.47 1440.64,-218.27"/>
</g>
<!-- σ_h -->
<g id="node9" class="node">
<title>σ_h</title>
<ellipse fill="none" stroke="black" cx="863.3" cy="-298.41" rx="69.09" ry="37.45"/>
<text text-anchor="middle" x="863.3" y="-309.71" font-family="Times-Roman" font-size="14.00">σ_h</text>
<text text-anchor="middle" x="863.3" y="-294.71" font-family="Times-Roman" font-size="14.00">~</text>
<text text-anchor="middle" x="863.3" y="-279.71" font-family="Times-Roman" font-size="14.00">HalfNormal</text>
</g>
<!-- σ_h&#45;&gt;h -->
<g id="edge6" class="edge">
<title>σ_h&#45;&gt;h</title>
<path fill="none" stroke="black" d="M811.86,-272.89C803.04,-268.81 793.93,-264.69 785.3,-260.93 748.07,-244.7 706.01,-227.61 672.01,-214.1"/>
<polygon fill="black" stroke="black" points="673.23,-210.82 662.65,-210.39 670.65,-217.33 673.23,-210.82"/>
</g>
<!-- σ_a -->
<g id="node10" class="node">
<title>σ_a</title>
<ellipse fill="none" stroke="black" cx="1659.3" cy="-298.41" rx="69.09" ry="37.45"/>
<text text-anchor="middle" x="1659.3" y="-309.71" font-family="Times-Roman" font-size="14.00">σ_a</text>
<text text-anchor="middle" x="1659.3" y="-294.71" font-family="Times-Roman" font-size="14.00">~</text>
<text text-anchor="middle" x="1659.3" y="-279.71" font-family="Times-Roman" font-size="14.00">HalfNormal</text>
</g>
<!-- σ_a&#45;&gt;a -->
<g id="edge11" class="edge">
<title>σ_a&#45;&gt;a</title>
<path fill="none" stroke="black" d="M1607.86,-272.89C1599.04,-268.81 1589.93,-264.69 1581.3,-260.93 1544.07,-244.7 1502.01,-227.61 1468.01,-214.1"/>
<polygon fill="black" stroke="black" points="1469.23,-210.82 1458.65,-210.39 1466.65,-217.33 1469.23,-210.82"/>
</g>
<!-- j&#45;&gt;lfc -->
<g id="edge15" class="edge">
<title>j&#45;&gt;lfc</title>
<path fill="none" stroke="black" d="M379.64,-160.9C415.27,-143.17 462.47,-119.69 497.71,-102.15"/>
<polygon fill="black" stroke="black" points="499.46,-105.19 506.85,-97.6 496.34,-98.92 499.46,-105.19"/>
</g>
<!-- j_offset -->
<g id="node12" class="node">
<title>j_offset</title>
<ellipse fill="none" stroke="black" cx="321.3" cy="-298.41" rx="48.58" ry="37.45"/>
<text text-anchor="middle" x="321.3" y="-309.71" font-family="Times-Roman" font-size="14.00">j_offset</text>
<text text-anchor="middle" x="321.3" y="-294.71" font-family="Times-Roman" font-size="14.00">~</text>
<text text-anchor="middle" x="321.3" y="-279.71" font-family="Times-Roman" font-size="14.00">Normal</text>
</g>
<!-- j_offset&#45;&gt;j -->
<g id="edge1" class="edge">
<title>j_offset&#45;&gt;j</title>
<path fill="none" stroke="black" d="M323.65,-260.82C324.4,-249.09 325.24,-236.1 325.99,-224.41"/>
<polygon fill="black" stroke="black" points="329.5,-224.31 326.65,-214.11 322.51,-223.86 329.5,-224.31"/>
</g>
<!-- σ&#45;&gt;lfc -->
<g id="edge19" class="edge">
<title>σ&#45;&gt;lfc</title>
<path fill="none" stroke="black" d="M471.96,-261.58C487.54,-223.49 512.22,-163.2 529.05,-122.06"/>
<polygon fill="black" stroke="black" points="532.39,-123.14 532.94,-112.56 525.91,-120.49 532.39,-123.14"/>
</g>
<!-- h&#45;&gt;lfc -->
<g id="edge18" class="edge">
<title>h&#45;&gt;lfc</title>
<path fill="none" stroke="black" d="M592.46,-160.9C585.93,-148.83 577.94,-134.08 570.51,-120.36"/>
<polygon fill="black" stroke="black" points="573.57,-118.66 565.73,-111.53 567.42,-121.99 573.57,-118.66"/>
</g>
<!-- h_offset -->
<g id="node15" class="node">
<title>h_offset</title>
<ellipse fill="none" stroke="black" cx="606.3" cy="-298.41" rx="52.15" ry="37.45"/>
<text text-anchor="middle" x="606.3" y="-309.71" font-family="Times-Roman" font-size="14.00">h_offset</text>
<text text-anchor="middle" x="606.3" y="-294.71" font-family="Times-Roman" font-size="14.00">~</text>
<text text-anchor="middle" x="606.3" y="-279.71" font-family="Times-Roman" font-size="14.00">Normal</text>
</g>
<!-- h_offset&#45;&gt;h -->
<g id="edge4" class="edge">
<title>h_offset&#45;&gt;h</title>
<path fill="none" stroke="black" d="M606.3,-260.82C606.3,-249.09 606.3,-236.1 606.3,-224.41"/>
<polygon fill="black" stroke="black" points="609.8,-224.11 606.3,-214.11 602.8,-224.11 609.8,-224.11"/>
</g>
<!-- d&#45;&gt;lfc -->
<g id="edge17" class="edge">
<title>d&#45;&gt;lfc</title>
<path fill="none" stroke="black" d="M948.26,-173.09C860.48,-152.16 691.5,-111.86 603.57,-90.9"/>
<polygon fill="black" stroke="black" points="604.32,-87.48 593.78,-88.56 602.69,-94.28 604.32,-87.48"/>
</g>
<!-- d_offset -->
<g id="node17" class="node">
<title>d_offset</title>
<ellipse fill="none" stroke="black" cx="1004.3" cy="-298.41" rx="52.15" ry="37.45"/>
<text text-anchor="middle" x="1004.3" y="-309.71" font-family="Times-Roman" font-size="14.00">d_offset</text>
<text text-anchor="middle" x="1004.3" y="-294.71" font-family="Times-Roman" font-size="14.00">~</text>
<text text-anchor="middle" x="1004.3" y="-279.71" font-family="Times-Roman" font-size="14.00">Normal</text>
</g>
<!-- d_offset&#45;&gt;d -->
<g id="edge8" class="edge">
<title>d_offset&#45;&gt;d</title>
<path fill="none" stroke="black" d="M1004.3,-260.82C1004.3,-249.09 1004.3,-236.1 1004.3,-224.41"/>
<polygon fill="black" stroke="black" points="1007.8,-224.11 1004.3,-214.11 1000.8,-224.11 1007.8,-224.11"/>
</g>
<!-- a_offset -->
<g id="node18" class="node">
<title>a_offset</title>
<ellipse fill="none" stroke="black" cx="1402.3" cy="-298.41" rx="52.15" ry="37.45"/>
<text text-anchor="middle" x="1402.3" y="-309.71" font-family="Times-Roman" font-size="14.00">a_offset</text>
<text text-anchor="middle" x="1402.3" y="-294.71" font-family="Times-Roman" font-size="14.00">~</text>
<text text-anchor="middle" x="1402.3" y="-279.71" font-family="Times-Roman" font-size="14.00">Normal</text>
</g>
<!-- a_offset&#45;&gt;a -->
<g id="edge10" class="edge">
<title>a_offset&#45;&gt;a</title>
<path fill="none" stroke="black" d="M1402.3,-260.82C1402.3,-249.09 1402.3,-236.1 1402.3,-224.41"/>
<polygon fill="black" stroke="black" points="1405.8,-224.11 1402.3,-214.11 1398.8,-224.11 1405.8,-224.11"/>
</g>
<!-- a&#45;&gt;lfc -->
<g id="edge16" class="edge">
<title>a&#45;&gt;lfc</title>
<path fill="none" stroke="black" d="M1346.13,-175.6C1280.61,-163.23 1168.92,-143.04 1072.3,-129.95 903.7,-107.12 703.4,-89.8 606.14,-82.01"/>
<polygon fill="black" stroke="black" points="606.17,-78.5 595.92,-81.19 605.61,-85.48 606.17,-78.5"/>
</g>
</g>
</svg>
