<?xml version="1.0" encoding="UTF-8" standalone="no"?>
<!DOCTYPE svg PUBLIC "-//W3C//DTD SVG 1.1//EN"
 "http://www.w3.org/Graphics/SVG/1.1/DTD/svg11.dtd">
<!-- Generated by graphviz version 2.47.0 (20210327.0129)
 -->
<!-- Pages: 1 -->
<svg width="1736pt" height="455pt"
 viewBox="0.00 0.00 1735.58 454.84" xmlns="http://www.w3.org/2000/svg" xmlns:xlink="http://www.w3.org/1999/xlink">
<g id="graph0" class="graph" transform="scale(1 1) rotate(0) translate(4 450.84)">
<polygon fill="white" stroke="transparent" points="-4,4 -4,-450.84 1731.58,-450.84 1731.58,4 -4,4"/>
<g id="clust1" class="cluster">
<title>cluster4</title>
<path fill="none" stroke="black" d="M673.79,-129.95C673.79,-129.95 919.79,-129.95 919.79,-129.95 925.79,-129.95 931.79,-135.95 931.79,-141.95 931.79,-141.95 931.79,-331.88 931.79,-331.88 931.79,-337.88 925.79,-343.88 919.79,-343.88 919.79,-343.88 673.79,-343.88 673.79,-343.88 667.79,-343.88 661.79,-337.88 661.79,-331.88 661.79,-331.88 661.79,-141.95 661.79,-141.95 661.79,-135.95 667.79,-129.95 673.79,-129.95"/>
<text text-anchor="middle" x="918.79" y="-137.75" font-family="Times-Roman" font-size="14.00">4</text>
</g>
<g id="clust2" class="cluster">
<title>cluster64 x 10</title>
<path fill="none" stroke="black" d="M951.79,-129.95C951.79,-129.95 1055.79,-129.95 1055.79,-129.95 1061.79,-129.95 1067.79,-135.95 1067.79,-141.95 1067.79,-141.95 1067.79,-331.88 1067.79,-331.88 1067.79,-337.88 1061.79,-343.88 1055.79,-343.88 1055.79,-343.88 951.79,-343.88 951.79,-343.88 945.79,-343.88 939.79,-337.88 939.79,-331.88 939.79,-331.88 939.79,-141.95 939.79,-141.95 939.79,-135.95 945.79,-129.95 951.79,-129.95"/>
<text text-anchor="middle" x="1032.79" y="-137.75" font-family="Times-Roman" font-size="14.00">64 x 10</text>
</g>
<g id="clust3" class="cluster">
<title>cluster10</title>
<path fill="none" stroke="black" d="M1349.79,-129.95C1349.79,-129.95 1453.79,-129.95 1453.79,-129.95 1459.79,-129.95 1465.79,-135.95 1465.79,-141.95 1465.79,-141.95 1465.79,-331.88 1465.79,-331.88 1465.79,-337.88 1459.79,-343.88 1453.79,-343.88 1453.79,-343.88 1349.79,-343.88 1349.79,-343.88 1343.79,-343.88 1337.79,-337.88 1337.79,-331.88 1337.79,-331.88 1337.79,-141.95 1337.79,-141.95 1337.79,-135.95 1343.79,-129.95 1349.79,-129.95"/>
<text text-anchor="middle" x="1448.29" y="-137.75" font-family="Times-Roman" font-size="14.00">10</text>
</g>
<g id="clust4" class="cluster">
<title>cluster64</title>
<path fill="none" stroke="black" d="M117.79,-129.95C117.79,-129.95 221.79,-129.95 221.79,-129.95 227.79,-129.95 233.79,-135.95 233.79,-141.95 233.79,-141.95 233.79,-331.88 233.79,-331.88 233.79,-337.88 227.79,-343.88 221.79,-343.88 221.79,-343.88 117.79,-343.88 117.79,-343.88 111.79,-343.88 105.79,-337.88 105.79,-331.88 105.79,-331.88 105.79,-141.95 105.79,-141.95 105.79,-135.95 111.79,-129.95 117.79,-129.95"/>
<text text-anchor="middle" x="216.29" y="-137.75" font-family="Times-Roman" font-size="14.00">64</text>
</g>
<g id="clust5" class="cluster">
<title>cluster1,443</title>
<path fill="none" stroke="black" d="M733.79,-8C733.79,-8 823.79,-8 823.79,-8 829.79,-8 835.79,-14 835.79,-20 835.79,-20 835.79,-109.95 835.79,-109.95 835.79,-115.95 829.79,-121.95 823.79,-121.95 823.79,-121.95 733.79,-121.95 733.79,-121.95 727.79,-121.95 721.79,-115.95 721.79,-109.95 721.79,-109.95 721.79,-20 721.79,-20 721.79,-14 727.79,-8 733.79,-8"/>
<text text-anchor="middle" x="807.29" y="-15.8" font-family="Times-Roman" font-size="14.00">1,443</text>
</g>
<!-- μ_a -->
<g id="node1" class="node">
<title>μ_a</title>
<ellipse fill="none" stroke="black" cx="48.79" cy="-298.41" rx="48.58" ry="37.45"/>
<text text-anchor="middle" x="48.79" y="-309.71" font-family="Times-Roman" font-size="14.00">μ_a</text>
<text text-anchor="middle" x="48.79" y="-294.71" font-family="Times-Roman" font-size="14.00">~</text>
<text text-anchor="middle" x="48.79" y="-279.71" font-family="Times-Roman" font-size="14.00">Normal</text>
</g>
<!-- a -->
<g id="node19" class="node">
<title>a</title>
<polygon fill="none" stroke="black" points="225.79,-213.95 113.79,-213.95 113.79,-160.95 225.79,-160.95 225.79,-213.95"/>
<text text-anchor="middle" x="169.79" y="-198.75" font-family="Times-Roman" font-size="14.00">a</text>
<text text-anchor="middle" x="169.79" y="-183.75" font-family="Times-Roman" font-size="14.00">~</text>
<text text-anchor="middle" x="169.79" y="-168.75" font-family="Times-Roman" font-size="14.00">Deterministic</text>
</g>
<!-- μ_a&#45;&gt;a -->
<g id="edge12" class="edge">
<title>μ_a&#45;&gt;a</title>
<path fill="none" stroke="black" d="M79.95,-269.35C96.35,-254.59 116.53,-236.41 133.62,-221.03"/>
<polygon fill="black" stroke="black" points="136.13,-223.47 141.22,-214.18 131.45,-218.27 136.13,-223.47"/>
</g>
<!-- μ_h -->
<g id="node2" class="node">
<title>μ_h</title>
<ellipse fill="none" stroke="black" cx="1124.79" cy="-298.41" rx="48.58" ry="37.45"/>
<text text-anchor="middle" x="1124.79" y="-309.71" font-family="Times-Roman" font-size="14.00">μ_h</text>
<text text-anchor="middle" x="1124.79" y="-294.71" font-family="Times-Roman" font-size="14.00">~</text>
<text text-anchor="middle" x="1124.79" y="-279.71" font-family="Times-Roman" font-size="14.00">Normal</text>
</g>
<!-- h -->
<g id="node14" class="node">
<title>h</title>
<polygon fill="none" stroke="black" points="1059.79,-213.95 947.79,-213.95 947.79,-160.95 1059.79,-160.95 1059.79,-213.95"/>
<text text-anchor="middle" x="1003.79" y="-198.75" font-family="Times-Roman" font-size="14.00">h</text>
<text text-anchor="middle" x="1003.79" y="-183.75" font-family="Times-Roman" font-size="14.00">~</text>
<text text-anchor="middle" x="1003.79" y="-168.75" font-family="Times-Roman" font-size="14.00">Deterministic</text>
</g>
<!-- μ_h&#45;&gt;h -->
<g id="edge4" class="edge">
<title>μ_h&#45;&gt;h</title>
<path fill="none" stroke="black" d="M1093.63,-269.35C1077.23,-254.59 1057.05,-236.41 1039.96,-221.03"/>
<polygon fill="black" stroke="black" points="1042.13,-218.27 1032.36,-214.18 1037.45,-223.47 1042.13,-218.27"/>
</g>
<!-- σ_σ -->
<g id="node3" class="node">
<title>σ_σ</title>
<ellipse fill="none" stroke="black" cx="854.79" cy="-409.36" rx="69.09" ry="37.45"/>
<text text-anchor="middle" x="854.79" y="-420.66" font-family="Times-Roman" font-size="14.00">σ_σ</text>
<text text-anchor="middle" x="854.79" y="-405.66" font-family="Times-Roman" font-size="14.00">~</text>
<text text-anchor="middle" x="854.79" y="-390.66" font-family="Times-Roman" font-size="14.00">HalfNormal</text>
</g>
<!-- σ -->
<g id="node12" class="node">
<title>σ</title>
<ellipse fill="none" stroke="black" cx="854.79" cy="-298.41" rx="69.09" ry="37.45"/>
<text text-anchor="middle" x="854.79" y="-309.71" font-family="Times-Roman" font-size="14.00">σ</text>
<text text-anchor="middle" x="854.79" y="-294.71" font-family="Times-Roman" font-size="14.00">~</text>
<text text-anchor="middle" x="854.79" y="-279.71" font-family="Times-Roman" font-size="14.00">HalfNormal</text>
</g>
<!-- σ_σ&#45;&gt;σ -->
<g id="edge13" class="edge">
<title>σ_σ&#45;&gt;σ</title>
<path fill="none" stroke="black" d="M854.79,-371.78C854.79,-363.6 854.79,-354.82 854.79,-346.3"/>
<polygon fill="black" stroke="black" points="858.29,-346.08 854.79,-336.08 851.29,-346.08 858.29,-346.08"/>
</g>
<!-- μ_j -->
<g id="node4" class="node">
<title>μ_j</title>
<ellipse fill="none" stroke="black" cx="446.79" cy="-298.41" rx="48.58" ry="37.45"/>
<text text-anchor="middle" x="446.79" y="-309.71" font-family="Times-Roman" font-size="14.00">μ_j</text>
<text text-anchor="middle" x="446.79" y="-294.71" font-family="Times-Roman" font-size="14.00">~</text>
<text text-anchor="middle" x="446.79" y="-279.71" font-family="Times-Roman" font-size="14.00">Normal</text>
</g>
<!-- j -->
<g id="node13" class="node">
<title>j</title>
<polygon fill="none" stroke="black" points="781.79,-213.95 669.79,-213.95 669.79,-160.95 781.79,-160.95 781.79,-213.95"/>
<text text-anchor="middle" x="725.79" y="-198.75" font-family="Times-Roman" font-size="14.00">j</text>
<text text-anchor="middle" x="725.79" y="-183.75" font-family="Times-Roman" font-size="14.00">~</text>
<text text-anchor="middle" x="725.79" y="-168.75" font-family="Times-Roman" font-size="14.00">Deterministic</text>
</g>
<!-- μ_j&#45;&gt;j -->
<g id="edge1" class="edge">
<title>μ_j&#45;&gt;j</title>
<path fill="none" stroke="black" d="M482.29,-272.5C489.51,-268.18 497.21,-264.08 504.79,-260.93 570.49,-233.61 594.43,-250.6 660.79,-224.93 665.57,-223.08 670.43,-220.93 675.22,-218.62"/>
<polygon fill="black" stroke="black" points="677,-221.64 684.33,-214 673.83,-215.4 677,-221.64"/>
</g>
<!-- σ_a -->
<g id="node5" class="node">
<title>σ_a</title>
<ellipse fill="none" stroke="black" cx="310.79" cy="-298.41" rx="69.09" ry="37.45"/>
<text text-anchor="middle" x="310.79" y="-309.71" font-family="Times-Roman" font-size="14.00">σ_a</text>
<text text-anchor="middle" x="310.79" y="-294.71" font-family="Times-Roman" font-size="14.00">~</text>
<text text-anchor="middle" x="310.79" y="-279.71" font-family="Times-Roman" font-size="14.00">HalfNormal</text>
</g>
<!-- σ_a&#45;&gt;a -->
<g id="edge11" class="edge">
<title>σ_a&#45;&gt;a</title>
<path fill="none" stroke="black" d="M271.89,-267.35C252.92,-252.69 230.09,-235.05 210.84,-220.18"/>
<polygon fill="black" stroke="black" points="212.89,-217.33 202.83,-213.99 208.61,-222.87 212.89,-217.33"/>
</g>
<!-- σ_j -->
<g id="node6" class="node">
<title>σ_j</title>
<ellipse fill="none" stroke="black" cx="582.79" cy="-298.41" rx="69.09" ry="37.45"/>
<text text-anchor="middle" x="582.79" y="-309.71" font-family="Times-Roman" font-size="14.00">σ_j</text>
<text text-anchor="middle" x="582.79" y="-294.71" font-family="Times-Roman" font-size="14.00">~</text>
<text text-anchor="middle" x="582.79" y="-279.71" font-family="Times-Roman" font-size="14.00">HalfNormal</text>
</g>
<!-- σ_j&#45;&gt;j -->
<g id="edge2" class="edge">
<title>σ_j&#45;&gt;j</title>
<path fill="none" stroke="black" d="M622.24,-267.35C641.49,-252.69 664.63,-235.05 684.16,-220.18"/>
<polygon fill="black" stroke="black" points="686.45,-222.83 692.28,-213.99 682.2,-217.26 686.45,-222.83"/>
</g>
<!-- σ_d -->
<g id="node7" class="node">
<title>σ_d</title>
<ellipse fill="none" stroke="black" cx="1542.79" cy="-298.41" rx="69.09" ry="37.45"/>
<text text-anchor="middle" x="1542.79" y="-309.71" font-family="Times-Roman" font-size="14.00">σ_d</text>
<text text-anchor="middle" x="1542.79" y="-294.71" font-family="Times-Roman" font-size="14.00">~</text>
<text text-anchor="middle" x="1542.79" y="-279.71" font-family="Times-Roman" font-size="14.00">HalfNormal</text>
</g>
<!-- d -->
<g id="node17" class="node">
<title>d</title>
<polygon fill="none" stroke="black" points="1457.79,-213.95 1345.79,-213.95 1345.79,-160.95 1457.79,-160.95 1457.79,-213.95"/>
<text text-anchor="middle" x="1401.79" y="-198.75" font-family="Times-Roman" font-size="14.00">d</text>
<text text-anchor="middle" x="1401.79" y="-183.75" font-family="Times-Roman" font-size="14.00">~</text>
<text text-anchor="middle" x="1401.79" y="-168.75" font-family="Times-Roman" font-size="14.00">Deterministic</text>
</g>
<!-- σ_d&#45;&gt;d -->
<g id="edge9" class="edge">
<title>σ_d&#45;&gt;d</title>
<path fill="none" stroke="black" d="M1503.89,-267.35C1484.92,-252.69 1462.09,-235.05 1442.84,-220.18"/>
<polygon fill="black" stroke="black" points="1444.89,-217.33 1434.83,-213.99 1440.61,-222.87 1444.89,-217.33"/>
</g>
<!-- σ_h -->
<g id="node8" class="node">
<title>σ_h</title>
<ellipse fill="none" stroke="black" cx="1260.79" cy="-298.41" rx="69.09" ry="37.45"/>
<text text-anchor="middle" x="1260.79" y="-309.71" font-family="Times-Roman" font-size="14.00">σ_h</text>
<text text-anchor="middle" x="1260.79" y="-294.71" font-family="Times-Roman" font-size="14.00">~</text>
<text text-anchor="middle" x="1260.79" y="-279.71" font-family="Times-Roman" font-size="14.00">HalfNormal</text>
</g>
<!-- σ_h&#45;&gt;h -->
<g id="edge5" class="edge">
<title>σ_h&#45;&gt;h</title>
<path fill="none" stroke="black" d="M1209.36,-272.89C1200.53,-268.81 1191.42,-264.69 1182.79,-260.93 1145.57,-244.7 1103.5,-227.61 1069.5,-214.1"/>
<polygon fill="black" stroke="black" points="1070.73,-210.82 1060.14,-210.39 1068.15,-217.33 1070.73,-210.82"/>
</g>
<!-- μ_d -->
<g id="node9" class="node">
<title>μ_d</title>
<ellipse fill="none" stroke="black" cx="1678.79" cy="-298.41" rx="48.58" ry="37.45"/>
<text text-anchor="middle" x="1678.79" y="-309.71" font-family="Times-Roman" font-size="14.00">μ_d</text>
<text text-anchor="middle" x="1678.79" y="-294.71" font-family="Times-Roman" font-size="14.00">~</text>
<text text-anchor="middle" x="1678.79" y="-279.71" font-family="Times-Roman" font-size="14.00">Normal</text>
</g>
<!-- μ_d&#45;&gt;d -->
<g id="edge7" class="edge">
<title>μ_d&#45;&gt;d</title>
<path fill="none" stroke="black" d="M1642.73,-272.86C1635.63,-268.57 1628.11,-264.38 1620.79,-260.93 1571.28,-237.59 1512.22,-218.52 1467.92,-205.8"/>
<polygon fill="black" stroke="black" points="1468.7,-202.39 1458.13,-203.03 1466.79,-209.12 1468.7,-202.39"/>
</g>
<!-- i -->
<g id="node10" class="node">
<title>i</title>
<ellipse fill="none" stroke="black" cx="602.79" cy="-187.45" rx="48.58" ry="37.45"/>
<text text-anchor="middle" x="602.79" y="-198.75" font-family="Times-Roman" font-size="14.00">i</text>
<text text-anchor="middle" x="602.79" y="-183.75" font-family="Times-Roman" font-size="14.00">~</text>
<text text-anchor="middle" x="602.79" y="-168.75" font-family="Times-Roman" font-size="14.00">Normal</text>
</g>
<!-- lfc -->
<g id="node20" class="node">
<title>lfc</title>
<ellipse fill="lightgrey" stroke="black" cx="778.79" cy="-76.48" rx="48.58" ry="37.45"/>
<text text-anchor="middle" x="778.79" y="-87.78" font-family="Times-Roman" font-size="14.00">lfc</text>
<text text-anchor="middle" x="778.79" y="-72.78" font-family="Times-Roman" font-size="14.00">~</text>
<text text-anchor="middle" x="778.79" y="-57.78" font-family="Times-Roman" font-size="14.00">Normal</text>
</g>
<!-- i&#45;&gt;lfc -->
<g id="edge18" class="edge">
<title>i&#45;&gt;lfc</title>
<path fill="none" stroke="black" d="M628.82,-155.41C637.41,-146.42 647.42,-137.11 657.79,-129.95 678.15,-115.91 702.87,-104.37 724.64,-95.73"/>
<polygon fill="black" stroke="black" points="726.02,-98.95 734.09,-92.08 723.5,-92.42 726.02,-98.95"/>
</g>
<!-- j_offset -->
<g id="node11" class="node">
<title>j_offset</title>
<ellipse fill="none" stroke="black" cx="718.79" cy="-298.41" rx="48.58" ry="37.45"/>
<text text-anchor="middle" x="718.79" y="-309.71" font-family="Times-Roman" font-size="14.00">j_offset</text>
<text text-anchor="middle" x="718.79" y="-294.71" font-family="Times-Roman" font-size="14.00">~</text>
<text text-anchor="middle" x="718.79" y="-279.71" font-family="Times-Roman" font-size="14.00">Normal</text>
</g>
<!-- j_offset&#45;&gt;j -->
<g id="edge3" class="edge">
<title>j_offset&#45;&gt;j</title>
<path fill="none" stroke="black" d="M721.14,-260.82C721.89,-249.09 722.73,-236.1 723.48,-224.41"/>
<polygon fill="black" stroke="black" points="726.99,-224.31 724.14,-214.11 720.01,-223.86 726.99,-224.31"/>
</g>
<!-- σ&#45;&gt;lfc -->
<g id="edge16" class="edge">
<title>σ&#45;&gt;lfc</title>
<path fill="none" stroke="black" d="M842.24,-261.09C829.13,-223.14 808.53,-163.53 794.38,-122.58"/>
<polygon fill="black" stroke="black" points="797.68,-121.43 791.11,-113.12 791.06,-123.71 797.68,-121.43"/>
</g>
<!-- j&#45;&gt;lfc -->
<g id="edge19" class="edge">
<title>j&#45;&gt;lfc</title>
<path fill="none" stroke="black" d="M738.22,-160.9C743.98,-149.04 751,-134.61 757.57,-121.1"/>
<polygon fill="black" stroke="black" points="760.8,-122.47 762.03,-111.94 754.51,-119.41 760.8,-122.47"/>
</g>
<!-- h&#45;&gt;lfc -->
<g id="edge14" class="edge">
<title>h&#45;&gt;lfc</title>
<path fill="none" stroke="black" d="M977.71,-160.87C965.7,-150.17 950.81,-138.31 935.79,-129.95 904.29,-112.42 865.97,-99.47 835.08,-90.82"/>
<polygon fill="black" stroke="black" points="835.89,-87.42 825.32,-88.17 834.05,-94.17 835.89,-87.42"/>
</g>
<!-- h_offset -->
<g id="node15" class="node">
<title>h_offset</title>
<ellipse fill="none" stroke="black" cx="1003.79" cy="-298.41" rx="52.15" ry="37.45"/>
<text text-anchor="middle" x="1003.79" y="-309.71" font-family="Times-Roman" font-size="14.00">h_offset</text>
<text text-anchor="middle" x="1003.79" y="-294.71" font-family="Times-Roman" font-size="14.00">~</text>
<text text-anchor="middle" x="1003.79" y="-279.71" font-family="Times-Roman" font-size="14.00">Normal</text>
</g>
<!-- h_offset&#45;&gt;h -->
<g id="edge6" class="edge">
<title>h_offset&#45;&gt;h</title>
<path fill="none" stroke="black" d="M1003.79,-260.82C1003.79,-249.09 1003.79,-236.1 1003.79,-224.41"/>
<polygon fill="black" stroke="black" points="1007.29,-224.11 1003.79,-214.11 1000.29,-224.11 1007.29,-224.11"/>
</g>
<!-- d_offset -->
<g id="node16" class="node">
<title>d_offset</title>
<ellipse fill="none" stroke="black" cx="1401.79" cy="-298.41" rx="52.15" ry="37.45"/>
<text text-anchor="middle" x="1401.79" y="-309.71" font-family="Times-Roman" font-size="14.00">d_offset</text>
<text text-anchor="middle" x="1401.79" y="-294.71" font-family="Times-Roman" font-size="14.00">~</text>
<text text-anchor="middle" x="1401.79" y="-279.71" font-family="Times-Roman" font-size="14.00">Normal</text>
</g>
<!-- d_offset&#45;&gt;d -->
<g id="edge8" class="edge">
<title>d_offset&#45;&gt;d</title>
<path fill="none" stroke="black" d="M1401.79,-260.82C1401.79,-249.09 1401.79,-236.1 1401.79,-224.41"/>
<polygon fill="black" stroke="black" points="1405.29,-224.11 1401.79,-214.11 1398.29,-224.11 1405.29,-224.11"/>
</g>
<!-- d&#45;&gt;lfc -->
<g id="edge15" class="edge">
<title>d&#45;&gt;lfc</title>
<path fill="none" stroke="black" d="M1345.68,-176.64C1227.83,-156.02 955.64,-108.41 836.45,-87.56"/>
<polygon fill="black" stroke="black" points="836.88,-84.08 826.43,-85.81 835.67,-90.98 836.88,-84.08"/>
</g>
<!-- a_offset -->
<g id="node18" class="node">
<title>a_offset</title>
<ellipse fill="none" stroke="black" cx="169.79" cy="-298.41" rx="52.15" ry="37.45"/>
<text text-anchor="middle" x="169.79" y="-309.71" font-family="Times-Roman" font-size="14.00">a_offset</text>
<text text-anchor="middle" x="169.79" y="-294.71" font-family="Times-Roman" font-size="14.00">~</text>
<text text-anchor="middle" x="169.79" y="-279.71" font-family="Times-Roman" font-size="14.00">Normal</text>
</g>
<!-- a_offset&#45;&gt;a -->
<g id="edge10" class="edge">
<title>a_offset&#45;&gt;a</title>
<path fill="none" stroke="black" d="M169.79,-260.82C169.79,-249.09 169.79,-236.1 169.79,-224.41"/>
<polygon fill="black" stroke="black" points="173.29,-224.11 169.79,-214.11 166.29,-224.11 173.29,-224.11"/>
</g>
<!-- a&#45;&gt;lfc -->
<g id="edge17" class="edge">
<title>a&#45;&gt;lfc</title>
<path fill="none" stroke="black" d="M225.99,-176.4C341.47,-155.73 604.36,-108.69 721.09,-87.8"/>
<polygon fill="black" stroke="black" points="722.03,-91.19 731.26,-85.98 720.8,-84.3 722.03,-91.19"/>
</g>
</g>
</svg>
