<?xml version="1.0" encoding="UTF-8" standalone="no"?>
<!DOCTYPE svg PUBLIC "-//W3C//DTD SVG 1.1//EN"
 "http://www.w3.org/Graphics/SVG/1.1/DTD/svg11.dtd">
<!-- Generated by graphviz version 4.0.0 (0)
 -->
<!-- Pages: 1 -->
<svg width="1464pt" height="1018pt"
 viewBox="0.00 0.00 1464.41 1017.70" xmlns="http://www.w3.org/2000/svg" xmlns:xlink="http://www.w3.org/1999/xlink">
<g id="graph0" class="graph" transform="scale(1 1) rotate(0) translate(4 1013.7)">
<polygon fill="white" stroke="transparent" points="-4,4 -4,-1013.7 1460.41,-1013.7 1460.41,4 -4,4"/>
<g id="clust11" class="cluster">
<title>clustergene (103) x cancer_gene (3)</title>
<path fill="none" stroke="black" d="M581.69,-551.84C581.69,-551.84 733.69,-551.84 733.69,-551.84 739.69,-551.84 745.69,-557.84 745.69,-563.84 745.69,-563.84 745.69,-631.84 745.69,-631.84 745.69,-637.84 739.69,-643.84 733.69,-643.84 733.69,-643.84 581.69,-643.84 581.69,-643.84 575.69,-643.84 569.69,-637.84 569.69,-631.84 569.69,-631.84 569.69,-563.84 569.69,-563.84 569.69,-557.84 575.69,-551.84 581.69,-551.84"/>
<text text-anchor="middle" x="657.69" y="-559.64" font-family="Times,serif" font-size="14.00">gene (103) x cancer_gene (3)</text>
</g>
<g id="clust2" class="cluster">
<title>cluster2 x 2</title>
<path fill="none" stroke="black" d="M765.69,-551.84C765.69,-551.84 903.69,-551.84 903.69,-551.84 909.69,-551.84 915.69,-557.84 915.69,-563.84 915.69,-563.84 915.69,-631.84 915.69,-631.84 915.69,-637.84 909.69,-643.84 903.69,-643.84 903.69,-643.84 765.69,-643.84 765.69,-643.84 759.69,-643.84 753.69,-637.84 753.69,-631.84 753.69,-631.84 753.69,-563.84 753.69,-563.84 753.69,-557.84 759.69,-551.84 765.69,-551.84"/>
<text text-anchor="middle" x="893.69" y="-559.64" font-family="Times,serif" font-size="14.00">2 x 2</text>
</g>
<g id="clust4" class="cluster">
<title>cluster8 x 2</title>
<path fill="none" stroke="black" d="M1105.69,-540.86C1105.69,-540.86 1341.69,-540.86 1341.69,-540.86 1347.69,-540.86 1353.69,-546.86 1353.69,-552.86 1353.69,-552.86 1353.69,-642.81 1353.69,-642.81 1353.69,-648.81 1347.69,-654.81 1341.69,-654.81 1341.69,-654.81 1105.69,-654.81 1105.69,-654.81 1099.69,-654.81 1093.69,-648.81 1093.69,-642.81 1093.69,-642.81 1093.69,-552.86 1093.69,-552.86 1093.69,-546.86 1099.69,-540.86 1105.69,-540.86"/>
<text text-anchor="middle" x="1331.69" y="-548.66" font-family="Times,serif" font-size="14.00">8 x 2</text>
</g>
<g id="clust5" class="cluster">
<title>clustercell_line (8)</title>
<path fill="none" stroke="black" d="M1128.69,-429.88C1128.69,-429.88 1321.69,-429.88 1321.69,-429.88 1327.69,-429.88 1333.69,-435.88 1333.69,-441.88 1333.69,-441.88 1333.69,-509.88 1333.69,-509.88 1333.69,-515.88 1327.69,-521.88 1321.69,-521.88 1321.69,-521.88 1128.69,-521.88 1128.69,-521.88 1122.69,-521.88 1116.69,-515.88 1116.69,-509.88 1116.69,-509.88 1116.69,-441.88 1116.69,-441.88 1116.69,-435.88 1122.69,-429.88 1128.69,-429.88"/>
<text text-anchor="middle" x="1292.19" y="-437.68" font-family="Times,serif" font-size="14.00">cell_line (8)</text>
</g>
<g id="clust6" class="cluster">
<title>cluster28</title>
<path fill="none" stroke="black" d="M732.69,-887.74C732.69,-887.74 894.69,-887.74 894.69,-887.74 900.69,-887.74 906.69,-893.74 906.69,-899.74 906.69,-899.74 906.69,-989.7 906.69,-989.7 906.69,-995.7 900.69,-1001.7 894.69,-1001.7 894.69,-1001.7 732.69,-1001.7 732.69,-1001.7 726.69,-1001.7 720.69,-995.7 720.69,-989.7 720.69,-989.7 720.69,-899.74 720.69,-899.74 720.69,-893.74 726.69,-887.74 732.69,-887.74"/>
<text text-anchor="middle" x="891.69" y="-895.54" font-family="Times,serif" font-size="14.00">28</text>
</g>
<g id="clust7" class="cluster">
<title>cluster7 x 7</title>
<path fill="none" stroke="black" d="M657.69,-784.77C657.69,-784.77 781.69,-784.77 781.69,-784.77 787.69,-784.77 793.69,-790.77 793.69,-796.77 793.69,-796.77 793.69,-864.77 793.69,-864.77 793.69,-870.77 787.69,-876.77 781.69,-876.77 781.69,-876.77 657.69,-876.77 657.69,-876.77 651.69,-876.77 645.69,-870.77 645.69,-864.77 645.69,-864.77 645.69,-796.77 645.69,-796.77 645.69,-790.77 651.69,-784.77 657.69,-784.77"/>
<text text-anchor="middle" x="771.69" y="-792.57" font-family="Times,serif" font-size="14.00">7 x 7</text>
</g>
<g id="clust9" class="cluster">
<title>cluster103 x 7</title>
<path fill="none" stroke="black" d="M280.69,-662.81C280.69,-662.81 495.69,-662.81 495.69,-662.81 501.69,-662.81 507.69,-668.81 507.69,-674.81 507.69,-674.81 507.69,-764.77 507.69,-764.77 507.69,-770.77 501.69,-776.77 495.69,-776.77 495.69,-776.77 280.69,-776.77 280.69,-776.77 274.69,-776.77 268.69,-770.77 268.69,-764.77 268.69,-764.77 268.69,-674.81 268.69,-674.81 268.69,-668.81 274.69,-662.81 280.69,-662.81"/>
<text text-anchor="middle" x="478.69" y="-670.61" font-family="Times,serif" font-size="14.00">103 x 7</text>
</g>
<g id="clust10" class="cluster">
<title>clustergene (103)</title>
<path fill="none" stroke="black" d="M138.69,-551.84C138.69,-551.84 549.69,-551.84 549.69,-551.84 555.69,-551.84 561.69,-557.84 561.69,-563.84 561.69,-563.84 561.69,-631.84 561.69,-631.84 561.69,-637.84 555.69,-643.84 549.69,-643.84 549.69,-643.84 138.69,-643.84 138.69,-643.84 132.69,-643.84 126.69,-637.84 126.69,-631.84 126.69,-631.84 126.69,-563.84 126.69,-563.84 126.69,-557.84 132.69,-551.84 138.69,-551.84"/>
<text text-anchor="middle" x="524.19" y="-559.64" font-family="Times,serif" font-size="14.00">gene (103)</text>
</g>
<g id="clust12" class="cluster">
<title>clustersgrna (162)</title>
<path fill="none" stroke="black" d="M142.69,-418.91C142.69,-418.91 218.69,-418.91 218.69,-418.91 224.69,-418.91 230.69,-424.91 230.69,-430.91 230.69,-430.91 230.69,-520.86 230.69,-520.86 230.69,-526.86 224.69,-532.86 218.69,-532.86 218.69,-532.86 142.69,-532.86 142.69,-532.86 136.69,-532.86 130.69,-526.86 130.69,-520.86 130.69,-520.86 130.69,-430.91 130.69,-430.91 130.69,-424.91 136.69,-418.91 142.69,-418.91"/>
<text text-anchor="middle" x="191.19" y="-426.71" font-family="Times,serif" font-size="14.00">sgrna (162)</text>
</g>
<g id="clust13" class="cluster">
<title>cluster1296</title>
<path fill="none" stroke="black" d="M465.69,-8C465.69,-8 668.69,-8 668.69,-8 674.69,-8 680.69,-14 680.69,-20 680.69,-20 680.69,-398.91 680.69,-398.91 680.69,-404.91 674.69,-410.91 668.69,-410.91 668.69,-410.91 465.69,-410.91 465.69,-410.91 459.69,-410.91 453.69,-404.91 453.69,-398.91 453.69,-398.91 453.69,-20 453.69,-20 453.69,-14 459.69,-8 465.69,-8"/>
<text text-anchor="middle" x="658.69" y="-15.8" font-family="Times,serif" font-size="14.00">1296</text>
</g>
<g id="clust1" class="cluster">
<title>cluster3</title>
<path fill="none" stroke="black" d="M644.69,-662.81C644.69,-662.81 915.69,-662.81 915.69,-662.81 921.69,-662.81 927.69,-668.81 927.69,-674.81 927.69,-674.81 927.69,-764.77 927.69,-764.77 927.69,-770.77 921.69,-776.77 915.69,-776.77 915.69,-776.77 644.69,-776.77 644.69,-776.77 638.69,-776.77 632.69,-770.77 632.69,-764.77 632.69,-764.77 632.69,-674.81 632.69,-674.81 632.69,-668.81 638.69,-662.81 644.69,-662.81"/>
<text text-anchor="middle" x="916.19" y="-670.61" font-family="Times,serif" font-size="14.00">3</text>
</g>
<g id="clust3" class="cluster">
<title>cluster2</title>
<path fill="none" stroke="black" d="M935.69,-551.84C935.69,-551.84 1073.69,-551.84 1073.69,-551.84 1079.69,-551.84 1085.69,-557.84 1085.69,-563.84 1085.69,-563.84 1085.69,-631.84 1085.69,-631.84 1085.69,-637.84 1079.69,-643.84 1073.69,-643.84 1073.69,-643.84 935.69,-643.84 935.69,-643.84 929.69,-643.84 923.69,-637.84 923.69,-631.84 923.69,-631.84 923.69,-563.84 923.69,-563.84 923.69,-557.84 929.69,-551.84 935.69,-551.84"/>
<text text-anchor="middle" x="1074.19" y="-559.64" font-family="Times,serif" font-size="14.00">2</text>
</g>
<g id="clust8" class="cluster">
<title>cluster7</title>
<path fill="none" stroke="black" d="M974.69,-784.77C974.69,-784.77 1098.69,-784.77 1098.69,-784.77 1104.69,-784.77 1110.69,-790.77 1110.69,-796.77 1110.69,-796.77 1110.69,-864.77 1110.69,-864.77 1110.69,-870.77 1104.69,-876.77 1098.69,-876.77 1098.69,-876.77 974.69,-876.77 974.69,-876.77 968.69,-876.77 962.69,-870.77 962.69,-864.77 962.69,-864.77 962.69,-796.77 962.69,-796.77 962.69,-790.77 968.69,-784.77 974.69,-784.77"/>
<text text-anchor="middle" x="1099.19" y="-792.57" font-family="Times,serif" font-size="14.00">7</text>
</g>
<!-- celllines_chol_cov -->
<g id="node1" class="node">
<title>celllines_chol_cov</title>
<ellipse fill="none" stroke="black" cx="834.69" cy="-731.29" rx="84.71" ry="37.45"/>
<text text-anchor="middle" x="834.69" y="-742.59" font-family="Times,serif" font-size="14.00">celllines_chol_cov</text>
<text text-anchor="middle" x="834.69" y="-727.59" font-family="Times,serif" font-size="14.00">~</text>
<text text-anchor="middle" x="834.69" y="-712.59" font-family="Times,serif" font-size="14.00">_LKJCholeskyCov</text>
</g>
<!-- celllines_chol_cov_corr -->
<g id="node3" class="node">
<title>celllines_chol_cov_corr</title>
<polygon fill="none" stroke="black" points="907.69,-635.84 761.69,-635.84 761.69,-582.84 907.69,-582.84 907.69,-635.84"/>
<text text-anchor="middle" x="834.69" y="-620.64" font-family="Times,serif" font-size="14.00">celllines_chol_cov_corr</text>
<text text-anchor="middle" x="834.69" y="-605.64" font-family="Times,serif" font-size="14.00">~</text>
<text text-anchor="middle" x="834.69" y="-590.64" font-family="Times,serif" font-size="14.00">Deterministic</text>
</g>
<!-- celllines_chol_cov&#45;&gt;celllines_chol_cov_corr -->
<g id="edge1" class="edge">
<title>celllines_chol_cov&#45;&gt;celllines_chol_cov_corr</title>
<path fill="none" stroke="black" d="M834.69,-693.65C834.69,-678.68 834.69,-661.41 834.69,-646.49"/>
<polygon fill="black" stroke="black" points="838.19,-646.11 834.69,-636.11 831.19,-646.11 838.19,-646.11"/>
</g>
<!-- celllines_chol_cov_stds -->
<g id="node4" class="node">
<title>celllines_chol_cov_stds</title>
<polygon fill="none" stroke="black" points="1077.69,-635.84 931.69,-635.84 931.69,-582.84 1077.69,-582.84 1077.69,-635.84"/>
<text text-anchor="middle" x="1004.69" y="-620.64" font-family="Times,serif" font-size="14.00">celllines_chol_cov_stds</text>
<text text-anchor="middle" x="1004.69" y="-605.64" font-family="Times,serif" font-size="14.00">~</text>
<text text-anchor="middle" x="1004.69" y="-590.64" font-family="Times,serif" font-size="14.00">Deterministic</text>
</g>
<!-- celllines_chol_cov&#45;&gt;celllines_chol_cov_stds -->
<g id="edge2" class="edge">
<title>celllines_chol_cov&#45;&gt;celllines_chol_cov_stds</title>
<path fill="none" stroke="black" d="M877.56,-698.78C893.26,-687.35 911.21,-674.4 927.69,-662.81 937.51,-655.91 948.11,-648.59 958.21,-641.69"/>
<polygon fill="black" stroke="black" points="960.26,-644.53 966.55,-636.01 956.31,-638.75 960.26,-644.53"/>
</g>
<!-- celllines -->
<g id="node16" class="node">
<title>celllines</title>
<polygon fill="none" stroke="black" points="1345.19,-635.84 1254.19,-635.84 1254.19,-582.84 1345.19,-582.84 1345.19,-635.84"/>
<text text-anchor="middle" x="1299.69" y="-620.64" font-family="Times,serif" font-size="14.00">celllines</text>
<text text-anchor="middle" x="1299.69" y="-605.64" font-family="Times,serif" font-size="14.00">~</text>
<text text-anchor="middle" x="1299.69" y="-590.64" font-family="Times,serif" font-size="14.00">Deterministic</text>
</g>
<!-- celllines_chol_cov&#45;&gt;celllines -->
<g id="edge5" class="edge">
<title>celllines_chol_cov&#45;&gt;celllines</title>
<path fill="none" stroke="black" d="M869.78,-697.06C886.08,-683.79 906.53,-669.98 927.69,-662.81 961.06,-651.51 1211.62,-666.98 1244.69,-654.81 1252.47,-651.95 1259.97,-647.51 1266.8,-642.51"/>
<polygon fill="black" stroke="black" points="1269.39,-644.92 1275.06,-635.97 1265.05,-639.43 1269.39,-644.92"/>
</g>
<!-- sigma_w -->
<g id="node2" class="node">
<title>sigma_w</title>
<polygon fill="none" stroke="black" points="732.19,-757.79 641.19,-757.79 641.19,-704.79 732.19,-704.79 732.19,-757.79"/>
<text text-anchor="middle" x="686.69" y="-742.59" font-family="Times,serif" font-size="14.00">sigma_w</text>
<text text-anchor="middle" x="686.69" y="-727.59" font-family="Times,serif" font-size="14.00">~</text>
<text text-anchor="middle" x="686.69" y="-712.59" font-family="Times,serif" font-size="14.00">Deterministic</text>
</g>
<!-- sigma_f -->
<g id="node13" class="node">
<title>sigma_f</title>
<polygon fill="none" stroke="black" points="960.19,-513.88 869.19,-513.88 869.19,-460.88 960.19,-460.88 960.19,-513.88"/>
<text text-anchor="middle" x="914.69" y="-498.68" font-family="Times,serif" font-size="14.00">sigma_f</text>
<text text-anchor="middle" x="914.69" y="-483.68" font-family="Times,serif" font-size="14.00">~</text>
<text text-anchor="middle" x="914.69" y="-468.68" font-family="Times,serif" font-size="14.00">Deterministic</text>
</g>
<!-- celllines_chol_cov_stds&#45;&gt;sigma_f -->
<g id="edge4" class="edge">
<title>celllines_chol_cov_stds&#45;&gt;sigma_f</title>
<path fill="none" stroke="black" d="M985.38,-582.6C972.15,-564.97 954.47,-541.41 940.1,-522.25"/>
<polygon fill="black" stroke="black" points="942.77,-519.97 933.97,-514.07 937.17,-524.17 942.77,-519.97"/>
</g>
<!-- sigma_b -->
<g id="node15" class="node">
<title>sigma_b</title>
<polygon fill="none" stroke="black" points="1069.19,-513.88 978.19,-513.88 978.19,-460.88 1069.19,-460.88 1069.19,-513.88"/>
<text text-anchor="middle" x="1023.69" y="-498.68" font-family="Times,serif" font-size="14.00">sigma_b</text>
<text text-anchor="middle" x="1023.69" y="-483.68" font-family="Times,serif" font-size="14.00">~</text>
<text text-anchor="middle" x="1023.69" y="-468.68" font-family="Times,serif" font-size="14.00">Deterministic</text>
</g>
<!-- celllines_chol_cov_stds&#45;&gt;sigma_b -->
<g id="edge3" class="edge">
<title>celllines_chol_cov_stds&#45;&gt;sigma_b</title>
<path fill="none" stroke="black" d="M1008.77,-582.6C1011.47,-565.53 1015.06,-542.88 1018.04,-524.07"/>
<polygon fill="black" stroke="black" points="1021.51,-524.5 1019.62,-514.07 1014.6,-523.4 1021.51,-524.5"/>
</g>
<!-- sigma_k -->
<g id="node5" class="node">
<title>sigma_k</title>
<polygon fill="none" stroke="black" points="1028.19,-757.79 937.19,-757.79 937.19,-704.79 1028.19,-704.79 1028.19,-757.79"/>
<text text-anchor="middle" x="982.69" y="-742.59" font-family="Times,serif" font-size="14.00">sigma_k</text>
<text text-anchor="middle" x="982.69" y="-727.59" font-family="Times,serif" font-size="14.00">~</text>
<text text-anchor="middle" x="982.69" y="-712.59" font-family="Times,serif" font-size="14.00">Deterministic</text>
</g>
<!-- sigma_d -->
<g id="node6" class="node">
<title>sigma_d</title>
<ellipse fill="none" stroke="black" cx="58.69" cy="-609.34" rx="58.88" ry="37.45"/>
<text text-anchor="middle" x="58.69" y="-620.64" font-family="Times,serif" font-size="14.00">sigma_d</text>
<text text-anchor="middle" x="58.69" y="-605.64" font-family="Times,serif" font-size="14.00">~</text>
<text text-anchor="middle" x="58.69" y="-590.64" font-family="Times,serif" font-size="14.00">HalfNormal</text>
</g>
<!-- d -->
<g id="node30" class="node">
<title>d</title>
<ellipse fill="none" stroke="black" cx="180.69" cy="-487.38" rx="41.94" ry="37.45"/>
<text text-anchor="middle" x="180.69" y="-498.68" font-family="Times,serif" font-size="14.00">d</text>
<text text-anchor="middle" x="180.69" y="-483.68" font-family="Times,serif" font-size="14.00">~</text>
<text text-anchor="middle" x="180.69" y="-468.68" font-family="Times,serif" font-size="14.00">Normal</text>
</g>
<!-- sigma_d&#45;&gt;d -->
<g id="edge24" class="edge">
<title>sigma_d&#45;&gt;d</title>
<path fill="none" stroke="black" d="M87.83,-576.61C98.6,-565.16 111.02,-552.25 122.69,-540.86 129.4,-534.31 136.7,-527.48 143.8,-520.99"/>
<polygon fill="black" stroke="black" points="146.32,-523.43 151.38,-514.12 141.62,-518.24 146.32,-523.43"/>
</g>
<!-- sigma_mu_d -->
<g id="node7" class="node">
<title>sigma_mu_d</title>
<polygon fill="none" stroke="black" points="1137.19,-757.79 1046.19,-757.79 1046.19,-704.79 1137.19,-704.79 1137.19,-757.79"/>
<text text-anchor="middle" x="1091.69" y="-742.59" font-family="Times,serif" font-size="14.00">sigma_mu_d</text>
<text text-anchor="middle" x="1091.69" y="-727.59" font-family="Times,serif" font-size="14.00">~</text>
<text text-anchor="middle" x="1091.69" y="-712.59" font-family="Times,serif" font-size="14.00">Deterministic</text>
</g>
<!-- mu_f -->
<g id="node8" class="node">
<title>mu_f</title>
<ellipse fill="none" stroke="black" cx="1414.69" cy="-731.29" rx="41.94" ry="37.45"/>
<text text-anchor="middle" x="1414.69" y="-742.59" font-family="Times,serif" font-size="14.00">mu_f</text>
<text text-anchor="middle" x="1414.69" y="-727.59" font-family="Times,serif" font-size="14.00">~</text>
<text text-anchor="middle" x="1414.69" y="-712.59" font-family="Times,serif" font-size="14.00">Normal</text>
</g>
<!-- mu_f&#45;&gt;celllines -->
<g id="edge6" class="edge">
<title>mu_f&#45;&gt;celllines</title>
<path fill="none" stroke="black" d="M1393.84,-698.75C1385.41,-686.94 1375.19,-673.76 1364.69,-662.81 1358.05,-655.9 1350.51,-649.05 1342.97,-642.71"/>
<polygon fill="black" stroke="black" points="1344.79,-639.67 1334.84,-636.03 1340.35,-645.08 1344.79,-639.67"/>
</g>
<!-- mu_k -->
<g id="node9" class="node">
<title>mu_k</title>
<ellipse fill="none" stroke="black" cx="397.69" cy="-842.27" rx="41.94" ry="37.45"/>
<text text-anchor="middle" x="397.69" y="-853.57" font-family="Times,serif" font-size="14.00">mu_k</text>
<text text-anchor="middle" x="397.69" y="-838.57" font-family="Times,serif" font-size="14.00">~</text>
<text text-anchor="middle" x="397.69" y="-823.57" font-family="Times,serif" font-size="14.00">Normal</text>
</g>
<!-- genes -->
<g id="node23" class="node">
<title>genes</title>
<polygon fill="none" stroke="black" points="499.19,-757.79 408.19,-757.79 408.19,-704.79 499.19,-704.79 499.19,-757.79"/>
<text text-anchor="middle" x="453.69" y="-742.59" font-family="Times,serif" font-size="14.00">genes</text>
<text text-anchor="middle" x="453.69" y="-727.59" font-family="Times,serif" font-size="14.00">~</text>
<text text-anchor="middle" x="453.69" y="-712.59" font-family="Times,serif" font-size="14.00">Deterministic</text>
</g>
<!-- mu_k&#45;&gt;genes -->
<g id="edge16" class="edge">
<title>mu_k&#45;&gt;genes</title>
<path fill="none" stroke="black" d="M414.8,-807.98C421.42,-795.08 429.01,-780.31 435.72,-767.26"/>
<polygon fill="black" stroke="black" points="438.96,-768.61 440.42,-758.12 432.73,-765.41 438.96,-768.61"/>
</g>
<!-- mu_mu_d -->
<g id="node10" class="node">
<title>mu_mu_d</title>
<ellipse fill="none" stroke="black" cx="508.69" cy="-842.27" rx="51.74" ry="37.45"/>
<text text-anchor="middle" x="508.69" y="-853.57" font-family="Times,serif" font-size="14.00">mu_mu_d</text>
<text text-anchor="middle" x="508.69" y="-838.57" font-family="Times,serif" font-size="14.00">~</text>
<text text-anchor="middle" x="508.69" y="-823.57" font-family="Times,serif" font-size="14.00">Normal</text>
</g>
<!-- mu_mu_d&#45;&gt;genes -->
<g id="edge17" class="edge">
<title>mu_mu_d&#45;&gt;genes</title>
<path fill="none" stroke="black" d="M491.29,-806.79C484.86,-794.04 477.57,-779.6 471.13,-766.85"/>
<polygon fill="black" stroke="black" points="474.25,-765.26 466.62,-757.91 468,-768.41 474.25,-765.26"/>
</g>
<!-- sigma_h -->
<g id="node11" class="node">
<title>sigma_h</title>
<polygon fill="none" stroke="black" points="1246.19,-757.79 1155.19,-757.79 1155.19,-704.79 1246.19,-704.79 1246.19,-757.79"/>
<text text-anchor="middle" x="1200.69" y="-742.59" font-family="Times,serif" font-size="14.00">sigma_h</text>
<text text-anchor="middle" x="1200.69" y="-727.59" font-family="Times,serif" font-size="14.00">~</text>
<text text-anchor="middle" x="1200.69" y="-712.59" font-family="Times,serif" font-size="14.00">Deterministic</text>
</g>
<!-- sigma_m -->
<g id="node12" class="node">
<title>sigma_m</title>
<polygon fill="none" stroke="black" points="1355.19,-757.79 1264.19,-757.79 1264.19,-704.79 1355.19,-704.79 1355.19,-757.79"/>
<text text-anchor="middle" x="1309.69" y="-742.59" font-family="Times,serif" font-size="14.00">sigma_m</text>
<text text-anchor="middle" x="1309.69" y="-727.59" font-family="Times,serif" font-size="14.00">~</text>
<text text-anchor="middle" x="1309.69" y="-712.59" font-family="Times,serif" font-size="14.00">Deterministic</text>
</g>
<!-- alpha -->
<g id="node14" class="node">
<title>alpha</title>
<ellipse fill="none" stroke="black" cx="402.69" cy="-187.43" rx="43.27" ry="37.45"/>
<text text-anchor="middle" x="402.69" y="-198.73" font-family="Times,serif" font-size="14.00">alpha</text>
<text text-anchor="middle" x="402.69" y="-183.73" font-family="Times,serif" font-size="14.00">~</text>
<text text-anchor="middle" x="402.69" y="-168.73" font-family="Times,serif" font-size="14.00">Gamma</text>
</g>
<!-- ct_final -->
<g id="node31" class="node">
<title>ct_final</title>
<ellipse fill="lightgrey" stroke="black" cx="525.69" cy="-76.48" rx="63.78" ry="37.45"/>
<text text-anchor="middle" x="525.69" y="-87.78" font-family="Times,serif" font-size="14.00">ct_final</text>
<text text-anchor="middle" x="525.69" y="-72.78" font-family="Times,serif" font-size="14.00">~</text>
<text text-anchor="middle" x="525.69" y="-57.78" font-family="Times,serif" font-size="14.00">NegBinomial</text>
</g>
<!-- alpha&#45;&gt;ct_final -->
<g id="edge37" class="edge">
<title>alpha&#45;&gt;ct_final</title>
<path fill="none" stroke="black" d="M432.46,-160.06C447.76,-146.51 466.65,-129.78 483.42,-114.92"/>
<polygon fill="black" stroke="black" points="485.79,-117.49 490.96,-108.24 481.15,-112.25 485.79,-117.49"/>
</g>
<!-- b -->
<g id="node18" class="node">
<title>b</title>
<polygon fill="none" stroke="black" points="1325.19,-513.88 1234.19,-513.88 1234.19,-460.88 1325.19,-460.88 1325.19,-513.88"/>
<text text-anchor="middle" x="1279.69" y="-498.68" font-family="Times,serif" font-size="14.00">b</text>
<text text-anchor="middle" x="1279.69" y="-483.68" font-family="Times,serif" font-size="14.00">~</text>
<text text-anchor="middle" x="1279.69" y="-468.68" font-family="Times,serif" font-size="14.00">Deterministic</text>
</g>
<!-- celllines&#45;&gt;b -->
<g id="edge7" class="edge">
<title>celllines&#45;&gt;b</title>
<path fill="none" stroke="black" d="M1295.4,-582.6C1292.55,-565.53 1288.78,-542.88 1285.64,-524.07"/>
<polygon fill="black" stroke="black" points="1289.07,-523.36 1283.97,-514.07 1282.17,-524.51 1289.07,-523.36"/>
</g>
<!-- f -->
<g id="node19" class="node">
<title>f</title>
<polygon fill="none" stroke="black" points="1216.19,-513.88 1125.19,-513.88 1125.19,-460.88 1216.19,-460.88 1216.19,-513.88"/>
<text text-anchor="middle" x="1170.69" y="-498.68" font-family="Times,serif" font-size="14.00">f</text>
<text text-anchor="middle" x="1170.69" y="-483.68" font-family="Times,serif" font-size="14.00">~</text>
<text text-anchor="middle" x="1170.69" y="-468.68" font-family="Times,serif" font-size="14.00">Deterministic</text>
</g>
<!-- celllines&#45;&gt;f -->
<g id="edge8" class="edge">
<title>celllines&#45;&gt;f</title>
<path fill="none" stroke="black" d="M1283.34,-582.64C1273.49,-568.8 1259.93,-552.27 1244.69,-540.86 1237.36,-535.37 1233.55,-537.56 1225.69,-532.86 1219.46,-529.13 1213.17,-524.75 1207.19,-520.22"/>
<polygon fill="black" stroke="black" points="1209.28,-517.41 1199.25,-514 1204.96,-522.92 1209.28,-517.41"/>
</g>
<!-- delta_celllines -->
<g id="node17" class="node">
<title>delta_celllines</title>
<ellipse fill="none" stroke="black" cx="1168.69" cy="-609.34" rx="67.35" ry="37.45"/>
<text text-anchor="middle" x="1168.69" y="-620.64" font-family="Times,serif" font-size="14.00">delta_celllines</text>
<text text-anchor="middle" x="1168.69" y="-605.64" font-family="Times,serif" font-size="14.00">~</text>
<text text-anchor="middle" x="1168.69" y="-590.64" font-family="Times,serif" font-size="14.00">Normal</text>
</g>
<!-- cell_line_effect -->
<g id="node33" class="node">
<title>cell_line_effect</title>
<polygon fill="none" stroke="black" points="672.19,-402.91 571.19,-402.91 571.19,-349.91 672.19,-349.91 672.19,-402.91"/>
<text text-anchor="middle" x="621.69" y="-387.71" font-family="Times,serif" font-size="14.00">cell_line_effect</text>
<text text-anchor="middle" x="621.69" y="-372.71" font-family="Times,serif" font-size="14.00">~</text>
<text text-anchor="middle" x="621.69" y="-357.71" font-family="Times,serif" font-size="14.00">Deterministic</text>
</g>
<!-- b&#45;&gt;cell_line_effect -->
<g id="edge31" class="edge">
<title>b&#45;&gt;cell_line_effect</title>
<path fill="none" stroke="black" d="M1266.31,-460.69C1257.05,-445.74 1243.24,-428.09 1225.69,-418.91 1178.45,-394.18 826.6,-382.58 682.73,-378.83"/>
<polygon fill="black" stroke="black" points="682.41,-375.32 672.32,-378.56 682.23,-382.32 682.41,-375.32"/>
</g>
<!-- f&#45;&gt;cell_line_effect -->
<g id="edge32" class="edge">
<title>f&#45;&gt;cell_line_effect</title>
<path fill="none" stroke="black" d="M1144.06,-460.74C1126.84,-445.81 1103.14,-428.16 1078.69,-418.91 1007.77,-392.07 789.63,-382.2 682.43,-378.9"/>
<polygon fill="black" stroke="black" points="682.51,-375.4 672.41,-378.6 682.3,-382.4 682.51,-375.4"/>
</g>
<!-- genes_chol_cov -->
<g id="node20" class="node">
<title>genes_chol_cov</title>
<ellipse fill="none" stroke="black" cx="813.69" cy="-956.22" rx="84.71" ry="37.45"/>
<text text-anchor="middle" x="813.69" y="-967.52" font-family="Times,serif" font-size="14.00">genes_chol_cov</text>
<text text-anchor="middle" x="813.69" y="-952.52" font-family="Times,serif" font-size="14.00">~</text>
<text text-anchor="middle" x="813.69" y="-937.52" font-family="Times,serif" font-size="14.00">_LKJCholeskyCov</text>
</g>
<!-- genes_chol_cov_corr -->
<g id="node21" class="node">
<title>genes_chol_cov_corr</title>
<polygon fill="none" stroke="black" points="785.69,-868.77 653.69,-868.77 653.69,-815.77 785.69,-815.77 785.69,-868.77"/>
<text text-anchor="middle" x="719.69" y="-853.57" font-family="Times,serif" font-size="14.00">genes_chol_cov_corr</text>
<text text-anchor="middle" x="719.69" y="-838.57" font-family="Times,serif" font-size="14.00">~</text>
<text text-anchor="middle" x="719.69" y="-823.57" font-family="Times,serif" font-size="14.00">Deterministic</text>
</g>
<!-- genes_chol_cov&#45;&gt;genes_chol_cov_corr -->
<g id="edge9" class="edge">
<title>genes_chol_cov&#45;&gt;genes_chol_cov_corr</title>
<path fill="none" stroke="black" d="M784.72,-920.72C773,-906.75 759.51,-890.69 747.86,-876.82"/>
<polygon fill="black" stroke="black" points="750.36,-874.35 741.25,-868.94 745,-878.85 750.36,-874.35"/>
</g>
<!-- genes_chol_cov_stds -->
<g id="node22" class="node">
<title>genes_chol_cov_stds</title>
<polygon fill="none" stroke="black" points="1102.19,-868.77 971.19,-868.77 971.19,-815.77 1102.19,-815.77 1102.19,-868.77"/>
<text text-anchor="middle" x="1036.69" y="-853.57" font-family="Times,serif" font-size="14.00">genes_chol_cov_stds</text>
<text text-anchor="middle" x="1036.69" y="-838.57" font-family="Times,serif" font-size="14.00">~</text>
<text text-anchor="middle" x="1036.69" y="-823.57" font-family="Times,serif" font-size="14.00">Deterministic</text>
</g>
<!-- genes_chol_cov&#45;&gt;genes_chol_cov_stds -->
<g id="edge10" class="edge">
<title>genes_chol_cov&#45;&gt;genes_chol_cov_stds</title>
<path fill="none" stroke="black" d="M868.81,-927.55C901.47,-911.15 942.88,-890.36 976.4,-873.53"/>
<polygon fill="black" stroke="black" points="978.27,-876.51 985.64,-868.9 975.13,-870.26 978.27,-876.51"/>
</g>
<!-- genes_chol_cov&#45;&gt;genes -->
<g id="edge18" class="edge">
<title>genes_chol_cov&#45;&gt;genes</title>
<path fill="none" stroke="black" d="M822.51,-918.76C829.55,-879.65 833.16,-818.63 797.69,-784.77 784.09,-771.79 647.28,-779.54 628.69,-776.77 588.05,-770.7 543.16,-759.19 509.01,-749.4"/>
<polygon fill="black" stroke="black" points="509.81,-745.99 499.23,-746.56 507.86,-752.71 509.81,-745.99"/>
</g>
<!-- genes_chol_cov_stds&#45;&gt;sigma_w -->
<g id="edge15" class="edge">
<title>genes_chol_cov_stds&#45;&gt;sigma_w</title>
<path fill="none" stroke="black" d="M970.99,-820.38C930.15,-808.18 876.34,-793.51 827.69,-784.77 789.47,-777.9 776.6,-791.54 740.69,-776.77 733.27,-773.71 726.08,-769.27 719.49,-764.36"/>
<polygon fill="black" stroke="black" points="721.5,-761.48 711.51,-757.96 717.12,-766.95 721.5,-761.48"/>
</g>
<!-- genes_chol_cov_stds&#45;&gt;sigma_k -->
<g id="edge13" class="edge">
<title>genes_chol_cov_stds&#45;&gt;sigma_k</title>
<path fill="none" stroke="black" d="M1024.03,-815.72C1016.84,-801.2 1007.73,-782.83 999.9,-767.02"/>
<polygon fill="black" stroke="black" points="1003.03,-765.46 995.46,-758.06 996.76,-768.57 1003.03,-765.46"/>
</g>
<!-- genes_chol_cov_stds&#45;&gt;sigma_mu_d -->
<g id="edge11" class="edge">
<title>genes_chol_cov_stds&#45;&gt;sigma_mu_d</title>
<path fill="none" stroke="black" d="M1049.58,-815.72C1056.91,-801.2 1066.18,-782.83 1074.16,-767.02"/>
<polygon fill="black" stroke="black" points="1077.3,-768.56 1078.69,-758.06 1071.05,-765.41 1077.3,-768.56"/>
</g>
<!-- genes_chol_cov_stds&#45;&gt;sigma_h -->
<g id="edge12" class="edge">
<title>genes_chol_cov_stds&#45;&gt;sigma_h</title>
<path fill="none" stroke="black" d="M1084.01,-815.71C1103.82,-804.45 1126.82,-790.65 1146.69,-776.77 1152.24,-772.89 1157.94,-768.59 1163.45,-764.24"/>
<polygon fill="black" stroke="black" points="1165.77,-766.86 1171.36,-757.86 1161.38,-761.41 1165.77,-766.86"/>
</g>
<!-- genes_chol_cov_stds&#45;&gt;sigma_m -->
<g id="edge14" class="edge">
<title>genes_chol_cov_stds&#45;&gt;sigma_m</title>
<path fill="none" stroke="black" d="M1102.59,-829.13C1147.51,-819.14 1207.37,-802.4 1255.69,-776.77 1262.25,-773.28 1268.77,-768.93 1274.88,-764.31"/>
<polygon fill="black" stroke="black" points="1277.27,-766.87 1282.92,-757.91 1272.92,-761.39 1277.27,-766.87"/>
</g>
<!-- m -->
<g id="node25" class="node">
<title>m</title>
<polygon fill="none" stroke="black" points="335.19,-635.84 244.19,-635.84 244.19,-582.84 335.19,-582.84 335.19,-635.84"/>
<text text-anchor="middle" x="289.69" y="-620.64" font-family="Times,serif" font-size="14.00">m</text>
<text text-anchor="middle" x="289.69" y="-605.64" font-family="Times,serif" font-size="14.00">~</text>
<text text-anchor="middle" x="289.69" y="-590.64" font-family="Times,serif" font-size="14.00">Deterministic</text>
</g>
<!-- genes&#45;&gt;m -->
<g id="edge22" class="edge">
<title>genes&#45;&gt;m</title>
<path fill="none" stroke="black" d="M439.85,-704.71C430.5,-690 416.76,-672.56 399.69,-662.81 377.86,-650.35 366.69,-664.96 343.69,-654.81 336.42,-651.61 329.35,-647.14 322.83,-642.26"/>
<polygon fill="black" stroke="black" points="324.91,-639.44 314.92,-635.92 320.54,-644.91 324.91,-639.44"/>
</g>
<!-- mu_d -->
<g id="node26" class="node">
<title>mu_d</title>
<polygon fill="none" stroke="black" points="226.19,-635.84 135.19,-635.84 135.19,-582.84 226.19,-582.84 226.19,-635.84"/>
<text text-anchor="middle" x="180.69" y="-620.64" font-family="Times,serif" font-size="14.00">mu_d</text>
<text text-anchor="middle" x="180.69" y="-605.64" font-family="Times,serif" font-size="14.00">~</text>
<text text-anchor="middle" x="180.69" y="-590.64" font-family="Times,serif" font-size="14.00">Deterministic</text>
</g>
<!-- genes&#45;&gt;mu_d -->
<g id="edge19" class="edge">
<title>genes&#45;&gt;mu_d</title>
<path fill="none" stroke="black" d="M440.37,-704.47C431.13,-689.48 417.33,-671.82 399.69,-662.81 367,-646.12 268.93,-668.04 234.69,-654.81 227.12,-651.89 219.83,-647.46 213.18,-642.52"/>
<polygon fill="black" stroke="black" points="215.12,-639.59 205.13,-636.05 210.73,-645.04 215.12,-639.59"/>
</g>
<!-- k -->
<g id="node27" class="node">
<title>k</title>
<polygon fill="none" stroke="black" points="444.19,-635.84 353.19,-635.84 353.19,-582.84 444.19,-582.84 444.19,-635.84"/>
<text text-anchor="middle" x="398.69" y="-620.64" font-family="Times,serif" font-size="14.00">k</text>
<text text-anchor="middle" x="398.69" y="-605.64" font-family="Times,serif" font-size="14.00">~</text>
<text text-anchor="middle" x="398.69" y="-590.64" font-family="Times,serif" font-size="14.00">Deterministic</text>
</g>
<!-- genes&#45;&gt;k -->
<g id="edge21" class="edge">
<title>genes&#45;&gt;k</title>
<path fill="none" stroke="black" d="M441.89,-704.56C433.95,-687.24 423.39,-664.2 414.69,-645.24"/>
<polygon fill="black" stroke="black" points="417.82,-643.66 410.47,-636.03 411.46,-646.58 417.82,-643.66"/>
</g>
<!-- h -->
<g id="node28" class="node">
<title>h</title>
<polygon fill="none" stroke="black" points="553.19,-635.84 462.19,-635.84 462.19,-582.84 553.19,-582.84 553.19,-635.84"/>
<text text-anchor="middle" x="507.69" y="-620.64" font-family="Times,serif" font-size="14.00">h</text>
<text text-anchor="middle" x="507.69" y="-605.64" font-family="Times,serif" font-size="14.00">~</text>
<text text-anchor="middle" x="507.69" y="-590.64" font-family="Times,serif" font-size="14.00">Deterministic</text>
</g>
<!-- genes&#45;&gt;h -->
<g id="edge20" class="edge">
<title>genes&#45;&gt;h</title>
<path fill="none" stroke="black" d="M465.27,-704.56C473.07,-687.24 483.44,-664.2 491.98,-645.24"/>
<polygon fill="black" stroke="black" points="495.21,-646.58 496.12,-636.03 488.83,-643.71 495.21,-646.58"/>
</g>
<!-- w -->
<g id="node29" class="node">
<title>w</title>
<polygon fill="none" stroke="black" points="669.19,-635.84 578.19,-635.84 578.19,-582.84 669.19,-582.84 669.19,-635.84"/>
<text text-anchor="middle" x="623.69" y="-620.64" font-family="Times,serif" font-size="14.00">w</text>
<text text-anchor="middle" x="623.69" y="-605.64" font-family="Times,serif" font-size="14.00">~</text>
<text text-anchor="middle" x="623.69" y="-590.64" font-family="Times,serif" font-size="14.00">Deterministic</text>
</g>
<!-- genes&#45;&gt;w -->
<g id="edge23" class="edge">
<title>genes&#45;&gt;w</title>
<path fill="none" stroke="black" d="M492.97,-704.67C514.64,-690.32 541.9,-671.93 565.69,-654.81 571.3,-650.78 577.14,-646.45 582.87,-642.14"/>
<polygon fill="black" stroke="black" points="585.29,-644.69 591.13,-635.86 581.05,-639.12 585.29,-644.69"/>
</g>
<!-- delta_genes -->
<g id="node24" class="node">
<title>delta_genes</title>
<ellipse fill="none" stroke="black" cx="333.69" cy="-731.29" rx="56.64" ry="37.45"/>
<text text-anchor="middle" x="333.69" y="-742.59" font-family="Times,serif" font-size="14.00">delta_genes</text>
<text text-anchor="middle" x="333.69" y="-727.59" font-family="Times,serif" font-size="14.00">~</text>
<text text-anchor="middle" x="333.69" y="-712.59" font-family="Times,serif" font-size="14.00">Normal</text>
</g>
<!-- gene_effect -->
<g id="node35" class="node">
<title>gene_effect</title>
<polygon fill="none" stroke="black" points="553.19,-402.91 462.19,-402.91 462.19,-349.91 553.19,-349.91 553.19,-402.91"/>
<text text-anchor="middle" x="507.69" y="-387.71" font-family="Times,serif" font-size="14.00">gene_effect</text>
<text text-anchor="middle" x="507.69" y="-372.71" font-family="Times,serif" font-size="14.00">~</text>
<text text-anchor="middle" x="507.69" y="-357.71" font-family="Times,serif" font-size="14.00">Deterministic</text>
</g>
<!-- m&#45;&gt;gene_effect -->
<g id="edge26" class="edge">
<title>m&#45;&gt;gene_effect</title>
<path fill="none" stroke="black" d="M304.42,-582.69C327.85,-543.59 376.81,-468.39 433.69,-418.91 439.63,-413.74 446.31,-408.92 453.17,-404.53"/>
<polygon fill="black" stroke="black" points="455.19,-407.4 461.91,-399.21 451.55,-401.42 455.19,-407.4"/>
</g>
<!-- mu_d&#45;&gt;d -->
<g id="edge25" class="edge">
<title>mu_d&#45;&gt;d</title>
<path fill="none" stroke="black" d="M180.69,-582.6C180.69,-568.82 180.69,-551.42 180.69,-535.33"/>
<polygon fill="black" stroke="black" points="184.19,-535 180.69,-525 177.19,-535 184.19,-535"/>
</g>
<!-- k&#45;&gt;gene_effect -->
<g id="edge28" class="edge">
<title>k&#45;&gt;gene_effect</title>
<path fill="none" stroke="black" d="M410.77,-582.74C430.37,-541.21 469.13,-459.09 491.24,-412.27"/>
<polygon fill="black" stroke="black" points="494.45,-413.65 495.55,-403.12 488.12,-410.67 494.45,-413.65"/>
</g>
<!-- h&#45;&gt;gene_effect -->
<g id="edge29" class="edge">
<title>h&#45;&gt;gene_effect</title>
<path fill="none" stroke="black" d="M507.69,-582.74C507.69,-541.47 507.69,-460.12 507.69,-413.15"/>
<polygon fill="black" stroke="black" points="511.19,-413.12 507.69,-403.12 504.19,-413.12 511.19,-413.12"/>
</g>
<!-- w&#45;&gt;gene_effect -->
<g id="edge30" class="edge">
<title>w&#45;&gt;gene_effect</title>
<path fill="none" stroke="black" d="M610.83,-582.74C589.97,-541.21 548.72,-459.09 525.2,-412.27"/>
<polygon fill="black" stroke="black" points="528.22,-410.48 520.6,-403.12 521.97,-413.62 528.22,-410.48"/>
</g>
<!-- d&#45;&gt;gene_effect -->
<g id="edge27" class="edge">
<title>d&#45;&gt;gene_effect</title>
<path fill="none" stroke="black" d="M214.86,-465.57C240.65,-450.66 277.35,-431.14 311.69,-418.91 357.66,-402.54 412.1,-391.64 451.93,-385.14"/>
<polygon fill="black" stroke="black" points="452.66,-388.57 461.99,-383.55 451.56,-381.66 452.66,-388.57"/>
</g>
<!-- eta -->
<g id="node32" class="node">
<title>eta</title>
<polygon fill="none" stroke="black" points="571.19,-313.91 480.19,-313.91 480.19,-260.91 571.19,-260.91 571.19,-313.91"/>
<text text-anchor="middle" x="525.69" y="-298.71" font-family="Times,serif" font-size="14.00">eta</text>
<text text-anchor="middle" x="525.69" y="-283.71" font-family="Times,serif" font-size="14.00">~</text>
<text text-anchor="middle" x="525.69" y="-268.71" font-family="Times,serif" font-size="14.00">Deterministic</text>
</g>
<!-- mu -->
<g id="node34" class="node">
<title>mu</title>
<polygon fill="none" stroke="black" points="571.19,-213.93 480.19,-213.93 480.19,-160.93 571.19,-160.93 571.19,-213.93"/>
<text text-anchor="middle" x="525.69" y="-198.73" font-family="Times,serif" font-size="14.00">mu</text>
<text text-anchor="middle" x="525.69" y="-183.73" font-family="Times,serif" font-size="14.00">~</text>
<text text-anchor="middle" x="525.69" y="-168.73" font-family="Times,serif" font-size="14.00">Deterministic</text>
</g>
<!-- eta&#45;&gt;mu -->
<g id="edge35" class="edge">
<title>eta&#45;&gt;mu</title>
<path fill="none" stroke="black" d="M525.69,-260.66C525.69,-249.53 525.69,-236.3 525.69,-224.23"/>
<polygon fill="black" stroke="black" points="529.19,-224 525.69,-214 522.19,-224 529.19,-224"/>
</g>
<!-- cell_line_effect&#45;&gt;eta -->
<g id="edge34" class="edge">
<title>cell_line_effect&#45;&gt;eta</title>
<path fill="none" stroke="black" d="M593.41,-349.77C583.44,-340.74 572.09,-330.46 561.58,-320.93"/>
<polygon fill="black" stroke="black" points="563.86,-318.28 554.1,-314.16 559.16,-323.47 563.86,-318.28"/>
</g>
<!-- mu&#45;&gt;ct_final -->
<g id="edge36" class="edge">
<title>mu&#45;&gt;ct_final</title>
<path fill="none" stroke="black" d="M525.69,-160.89C525.69,-149.98 525.69,-136.89 525.69,-124.35"/>
<polygon fill="black" stroke="black" points="529.19,-124 525.69,-114 522.19,-124 529.19,-124"/>
</g>
<!-- gene_effect&#45;&gt;eta -->
<g id="edge33" class="edge">
<title>gene_effect&#45;&gt;eta</title>
<path fill="none" stroke="black" d="M512.99,-349.77C514.66,-341.7 516.54,-332.64 518.32,-324.01"/>
<polygon fill="black" stroke="black" points="521.76,-324.66 520.36,-314.16 514.91,-323.24 521.76,-324.66"/>
</g>
</g>
</svg>
