<?xml version="1.0" encoding="UTF-8" standalone="no"?>
<!DOCTYPE svg PUBLIC "-//W3C//DTD SVG 1.1//EN"
 "http://www.w3.org/Graphics/SVG/1.1/DTD/svg11.dtd">
<!-- Generated by graphviz version 5.0.0 (0)
 -->
<!-- Pages: 1 -->
<svg width="1503pt" height="760pt"
 viewBox="0.00 0.00 1503.19 759.84" xmlns="http://www.w3.org/2000/svg" xmlns:xlink="http://www.w3.org/1999/xlink">
<g id="graph0" class="graph" transform="scale(1 1) rotate(0) translate(4 755.84)">
<polygon fill="white" stroke="transparent" points="-4,4 -4,-755.84 1499.19,-755.84 1499.19,4 -4,4"/>
<g id="clust7" class="cluster">
<title>clustergene (103) x cancer_gene (3)</title>
<path fill="none" stroke="black" d="M403.5,-518.91C403.5,-518.91 555.5,-518.91 555.5,-518.91 561.5,-518.91 567.5,-524.91 567.5,-530.91 567.5,-530.91 567.5,-598.91 567.5,-598.91 567.5,-604.91 561.5,-610.91 555.5,-610.91 555.5,-610.91 403.5,-610.91 403.5,-610.91 397.5,-610.91 391.5,-604.91 391.5,-598.91 391.5,-598.91 391.5,-530.91 391.5,-530.91 391.5,-524.91 397.5,-518.91 403.5,-518.91"/>
<text text-anchor="middle" x="479.5" y="-526.71" font-family="Times,serif" font-size="14.00">gene (103) x cancer_gene (3)</text>
</g>
<g id="clust3" class="cluster">
<title>cluster7</title>
<path fill="none" stroke="black" d="M247.5,-518.91C247.5,-518.91 371.5,-518.91 371.5,-518.91 377.5,-518.91 383.5,-524.91 383.5,-530.91 383.5,-530.91 383.5,-598.91 383.5,-598.91 383.5,-604.91 377.5,-610.91 371.5,-610.91 371.5,-610.91 247.5,-610.91 247.5,-610.91 241.5,-610.91 235.5,-604.91 235.5,-598.91 235.5,-598.91 235.5,-530.91 235.5,-530.91 235.5,-524.91 241.5,-518.91 247.5,-518.91"/>
<text text-anchor="middle" x="372" y="-526.71" font-family="Times,serif" font-size="14.00">7</text>
</g>
<g id="clust1" class="cluster">
<title>cluster28</title>
<path fill="none" stroke="black" d="M621.5,-629.88C621.5,-629.88 783.5,-629.88 783.5,-629.88 789.5,-629.88 795.5,-635.88 795.5,-641.88 795.5,-641.88 795.5,-731.84 795.5,-731.84 795.5,-737.84 789.5,-743.84 783.5,-743.84 783.5,-743.84 621.5,-743.84 621.5,-743.84 615.5,-743.84 609.5,-737.84 609.5,-731.84 609.5,-731.84 609.5,-641.88 609.5,-641.88 609.5,-635.88 615.5,-629.88 621.5,-629.88"/>
<text text-anchor="middle" x="780.5" y="-637.68" font-family="Times,serif" font-size="14.00">28</text>
</g>
<g id="clust2" class="cluster">
<title>cluster7 x 7</title>
<path fill="none" stroke="black" d="M91.5,-518.91C91.5,-518.91 215.5,-518.91 215.5,-518.91 221.5,-518.91 227.5,-524.91 227.5,-530.91 227.5,-530.91 227.5,-598.91 227.5,-598.91 227.5,-604.91 221.5,-610.91 215.5,-610.91 215.5,-610.91 91.5,-610.91 91.5,-610.91 85.5,-610.91 79.5,-604.91 79.5,-598.91 79.5,-598.91 79.5,-530.91 79.5,-530.91 79.5,-524.91 85.5,-518.91 91.5,-518.91"/>
<text text-anchor="middle" x="205.5" y="-526.71" font-family="Times,serif" font-size="14.00">7 x 7</text>
</g>
<g id="clust4" class="cluster">
<title>clustercancer_gene (3)</title>
<path fill="none" stroke="black" d="M112.5,-418.91C112.5,-418.91 196.5,-418.91 196.5,-418.91 202.5,-418.91 208.5,-424.91 208.5,-430.91 208.5,-430.91 208.5,-498.91 208.5,-498.91 208.5,-504.91 202.5,-510.91 196.5,-510.91 196.5,-510.91 112.5,-510.91 112.5,-510.91 106.5,-510.91 100.5,-504.91 100.5,-498.91 100.5,-498.91 100.5,-430.91 100.5,-430.91 100.5,-424.91 106.5,-418.91 112.5,-418.91"/>
<text text-anchor="middle" x="156.5" y="-426.71" font-family="Times,serif" font-size="14.00">cancer_gene (3)</text>
</g>
<g id="clust5" class="cluster">
<title>cluster7 x 103</title>
<path fill="none" stroke="black" d="M910.5,-629.88C910.5,-629.88 1016.5,-629.88 1016.5,-629.88 1022.5,-629.88 1028.5,-635.88 1028.5,-641.88 1028.5,-641.88 1028.5,-731.84 1028.5,-731.84 1028.5,-737.84 1022.5,-743.84 1016.5,-743.84 1016.5,-743.84 910.5,-743.84 910.5,-743.84 904.5,-743.84 898.5,-737.84 898.5,-731.84 898.5,-731.84 898.5,-641.88 898.5,-641.88 898.5,-635.88 904.5,-629.88 910.5,-629.88"/>
<text text-anchor="middle" x="999.5" y="-637.68" font-family="Times,serif" font-size="14.00">7 x 103</text>
</g>
<g id="clust6" class="cluster">
<title>clustergene (103)</title>
<path fill="none" stroke="black" d="M830.5,-518.91C830.5,-518.91 1241.5,-518.91 1241.5,-518.91 1247.5,-518.91 1253.5,-524.91 1253.5,-530.91 1253.5,-530.91 1253.5,-598.91 1253.5,-598.91 1253.5,-604.91 1247.5,-610.91 1241.5,-610.91 1241.5,-610.91 830.5,-610.91 830.5,-610.91 824.5,-610.91 818.5,-604.91 818.5,-598.91 818.5,-598.91 818.5,-530.91 818.5,-530.91 818.5,-524.91 824.5,-518.91 830.5,-518.91"/>
<text text-anchor="middle" x="1216" y="-526.71" font-family="Times,serif" font-size="14.00">gene (103)</text>
</g>
<g id="clust8" class="cluster">
<title>clustersgrna (162)</title>
<path fill="none" stroke="black" d="M1273.5,-418.91C1273.5,-418.91 1357.5,-418.91 1357.5,-418.91 1363.5,-418.91 1369.5,-424.91 1369.5,-430.91 1369.5,-430.91 1369.5,-609.88 1369.5,-609.88 1369.5,-615.88 1363.5,-621.88 1357.5,-621.88 1357.5,-621.88 1273.5,-621.88 1273.5,-621.88 1267.5,-621.88 1261.5,-615.88 1261.5,-609.88 1261.5,-609.88 1261.5,-430.91 1261.5,-430.91 1261.5,-424.91 1267.5,-418.91 1273.5,-418.91"/>
<text text-anchor="middle" x="1330" y="-426.71" font-family="Times,serif" font-size="14.00">sgrna (162)</text>
</g>
<g id="clust9" class="cluster">
<title>cluster1296</title>
<path fill="none" stroke="black" d="M775.5,-8C775.5,-8 968.5,-8 968.5,-8 974.5,-8 980.5,-14 980.5,-20 980.5,-20 980.5,-398.91 980.5,-398.91 980.5,-404.91 974.5,-410.91 968.5,-410.91 968.5,-410.91 775.5,-410.91 775.5,-410.91 769.5,-410.91 763.5,-404.91 763.5,-398.91 763.5,-398.91 763.5,-20 763.5,-20 763.5,-14 769.5,-8 775.5,-8"/>
<text text-anchor="middle" x="958.5" y="-15.8" font-family="Times,serif" font-size="14.00">1296</text>
</g>
<g id="clust10" class="cluster">
<title>clustercell_line (8)</title>
<path fill="none" stroke="black" d="M587.5,-418.91C587.5,-418.91 671.5,-418.91 671.5,-418.91 677.5,-418.91 683.5,-424.91 683.5,-430.91 683.5,-430.91 683.5,-609.88 683.5,-609.88 683.5,-615.88 677.5,-621.88 671.5,-621.88 671.5,-621.88 587.5,-621.88 587.5,-621.88 581.5,-621.88 575.5,-615.88 575.5,-609.88 575.5,-609.88 575.5,-430.91 575.5,-430.91 575.5,-424.91 581.5,-418.91 587.5,-418.91"/>
<text text-anchor="middle" x="642" y="-426.71" font-family="Times,serif" font-size="14.00">cell_line (8)</text>
</g>
<!-- genes_chol_cov -->
<g id="node1" class="node">
<title>genes_chol_cov</title>
<ellipse fill="none" stroke="black" cx="702.5" cy="-698.36" rx="84.71" ry="37.45"/>
<text text-anchor="middle" x="702.5" y="-709.66" font-family="Times,serif" font-size="14.00">genes_chol_cov</text>
<text text-anchor="middle" x="702.5" y="-694.66" font-family="Times,serif" font-size="14.00">~</text>
<text text-anchor="middle" x="702.5" y="-679.66" font-family="Times,serif" font-size="14.00">_LKJCholeskyCov</text>
</g>
<!-- genes_chol_cov_corr -->
<g id="node2" class="node">
<title>genes_chol_cov_corr</title>
<polygon fill="none" stroke="black" points="219.5,-602.91 87.5,-602.91 87.5,-549.91 219.5,-549.91 219.5,-602.91"/>
<text text-anchor="middle" x="153.5" y="-587.71" font-family="Times,serif" font-size="14.00">genes_chol_cov_corr</text>
<text text-anchor="middle" x="153.5" y="-572.71" font-family="Times,serif" font-size="14.00">~</text>
<text text-anchor="middle" x="153.5" y="-557.71" font-family="Times,serif" font-size="14.00">Deterministic</text>
</g>
<!-- genes_chol_cov&#45;&gt;genes_chol_cov_corr -->
<g id="edge1" class="edge">
<title>genes_chol_cov&#45;&gt;genes_chol_cov_corr</title>
<path fill="none" stroke="black" d="M618.17,-692.96C522.16,-685.89 361.75,-667.75 231.5,-621.88 221.14,-618.24 210.58,-613.23 200.71,-607.89"/>
<polygon fill="black" stroke="black" points="202.3,-604.76 191.86,-602.91 198.87,-610.87 202.3,-604.76"/>
</g>
<!-- genes_chol_cov_stds -->
<g id="node3" class="node">
<title>genes_chol_cov_stds</title>
<polygon fill="none" stroke="black" points="375,-602.91 244,-602.91 244,-549.91 375,-549.91 375,-602.91"/>
<text text-anchor="middle" x="309.5" y="-587.71" font-family="Times,serif" font-size="14.00">genes_chol_cov_stds</text>
<text text-anchor="middle" x="309.5" y="-572.71" font-family="Times,serif" font-size="14.00">~</text>
<text text-anchor="middle" x="309.5" y="-557.71" font-family="Times,serif" font-size="14.00">Deterministic</text>
</g>
<!-- genes_chol_cov&#45;&gt;genes_chol_cov_stds -->
<g id="edge2" class="edge">
<title>genes_chol_cov&#45;&gt;genes_chol_cov_stds</title>
<path fill="none" stroke="black" d="M623.26,-684.8C558.4,-673.01 465.02,-652.55 387.5,-621.88 377.72,-618.02 367.68,-613.1 358.2,-607.95"/>
<polygon fill="black" stroke="black" points="359.74,-604.8 349.3,-602.98 356.32,-610.91 359.74,-604.8"/>
</g>
<!-- d -->
<g id="node16" class="node">
<title>d</title>
<polygon fill="none" stroke="black" points="1136,-602.91 1045,-602.91 1045,-549.91 1136,-549.91 1136,-602.91"/>
<text text-anchor="middle" x="1090.5" y="-587.71" font-family="Times,serif" font-size="14.00">d</text>
<text text-anchor="middle" x="1090.5" y="-572.71" font-family="Times,serif" font-size="14.00">~</text>
<text text-anchor="middle" x="1090.5" y="-557.71" font-family="Times,serif" font-size="14.00">Deterministic</text>
</g>
<!-- genes_chol_cov&#45;&gt;d -->
<g id="edge21" class="edge">
<title>genes_chol_cov&#45;&gt;d</title>
<path fill="none" stroke="black" d="M738.05,-664.21C754.55,-650.95 775.2,-637.13 796.5,-629.88 847.02,-612.69 986.58,-640.74 1036.5,-621.88 1044.17,-618.99 1051.55,-614.53 1058.26,-609.53"/>
<polygon fill="black" stroke="black" points="1060.78,-611.99 1066.37,-602.98 1056.39,-606.54 1060.78,-611.99"/>
</g>
<!-- mu_a -->
<g id="node17" class="node">
<title>mu_a</title>
<polygon fill="none" stroke="black" points="1245,-602.91 1154,-602.91 1154,-549.91 1245,-549.91 1245,-602.91"/>
<text text-anchor="middle" x="1199.5" y="-587.71" font-family="Times,serif" font-size="14.00">mu_a</text>
<text text-anchor="middle" x="1199.5" y="-572.71" font-family="Times,serif" font-size="14.00">~</text>
<text text-anchor="middle" x="1199.5" y="-557.71" font-family="Times,serif" font-size="14.00">Deterministic</text>
</g>
<!-- genes_chol_cov&#45;&gt;mu_a -->
<g id="edge11" class="edge">
<title>genes_chol_cov&#45;&gt;mu_a</title>
<path fill="none" stroke="black" d="M738.01,-664.1C754.5,-650.83 775.16,-637.02 796.5,-629.88 833.29,-617.58 1109.14,-635.4 1145.5,-621.88 1153.18,-619.03 1160.57,-614.58 1167.28,-609.59"/>
<polygon fill="black" stroke="black" points="1169.81,-612.05 1175.39,-603.05 1165.41,-606.6 1169.81,-612.05"/>
</g>
<!-- f -->
<g id="node18" class="node">
<title>f</title>
<polygon fill="none" stroke="black" points="918,-602.91 827,-602.91 827,-549.91 918,-549.91 918,-602.91"/>
<text text-anchor="middle" x="872.5" y="-587.71" font-family="Times,serif" font-size="14.00">f</text>
<text text-anchor="middle" x="872.5" y="-572.71" font-family="Times,serif" font-size="14.00">~</text>
<text text-anchor="middle" x="872.5" y="-557.71" font-family="Times,serif" font-size="14.00">Deterministic</text>
</g>
<!-- genes_chol_cov&#45;&gt;f -->
<g id="edge26" class="edge">
<title>genes_chol_cov&#45;&gt;f</title>
<path fill="none" stroke="black" d="M742.56,-664.9C758.68,-652.85 777.85,-639.73 796.5,-629.88 805.7,-625.03 809.47,-627.04 818.5,-621.88 824.81,-618.28 831.12,-613.93 837.08,-609.39"/>
<polygon fill="black" stroke="black" points="839.32,-612.08 844.97,-603.11 834.96,-606.6 839.32,-612.08"/>
</g>
<!-- b -->
<g id="node19" class="node">
<title>b</title>
<polygon fill="none" stroke="black" points="1027,-602.91 936,-602.91 936,-549.91 1027,-549.91 1027,-602.91"/>
<text text-anchor="middle" x="981.5" y="-587.71" font-family="Times,serif" font-size="14.00">b</text>
<text text-anchor="middle" x="981.5" y="-572.71" font-family="Times,serif" font-size="14.00">~</text>
<text text-anchor="middle" x="981.5" y="-557.71" font-family="Times,serif" font-size="14.00">Deterministic</text>
</g>
<!-- genes_chol_cov&#45;&gt;b -->
<g id="edge16" class="edge">
<title>genes_chol_cov&#45;&gt;b</title>
<path fill="none" stroke="black" d="M738.59,-664.13C755.03,-651.04 775.49,-637.36 796.5,-629.88 851.46,-610.33 873.22,-643.25 927.5,-621.88 935.05,-618.91 942.34,-614.46 948.98,-609.51"/>
<polygon fill="black" stroke="black" points="951.43,-612.03 957.03,-603.04 947.04,-606.58 951.43,-612.03"/>
</g>
<!-- h -->
<g id="node20" class="node">
<title>h</title>
<polygon fill="none" stroke="black" points="559,-602.91 468,-602.91 468,-549.91 559,-549.91 559,-602.91"/>
<text text-anchor="middle" x="513.5" y="-587.71" font-family="Times,serif" font-size="14.00">h</text>
<text text-anchor="middle" x="513.5" y="-572.71" font-family="Times,serif" font-size="14.00">~</text>
<text text-anchor="middle" x="513.5" y="-557.71" font-family="Times,serif" font-size="14.00">Deterministic</text>
</g>
<!-- genes_chol_cov&#45;&gt;h -->
<g id="edge31" class="edge">
<title>genes_chol_cov&#45;&gt;h</title>
<path fill="none" stroke="black" d="M649.59,-668.96C625.34,-655.42 596.5,-638.57 571.5,-621.88 565.68,-618 559.69,-613.73 553.85,-609.42"/>
<polygon fill="black" stroke="black" points="555.56,-606.33 545.46,-603.11 551.35,-611.92 555.56,-606.33"/>
</g>
<!-- sigma_f -->
<g id="node5" class="node">
<title>sigma_f</title>
<polygon fill="none" stroke="black" points="527,-502.91 436,-502.91 436,-449.91 527,-449.91 527,-502.91"/>
<text text-anchor="middle" x="481.5" y="-487.71" font-family="Times,serif" font-size="14.00">sigma_f</text>
<text text-anchor="middle" x="481.5" y="-472.71" font-family="Times,serif" font-size="14.00">~</text>
<text text-anchor="middle" x="481.5" y="-457.71" font-family="Times,serif" font-size="14.00">Deterministic</text>
</g>
<!-- genes_chol_cov_stds&#45;&gt;sigma_f -->
<g id="edge6" class="edge">
<title>genes_chol_cov_stds&#45;&gt;sigma_f</title>
<path fill="none" stroke="black" d="M338.39,-549.88C352.35,-538.79 369.88,-526.61 387.5,-518.91 404.11,-511.64 410.64,-517.57 427.5,-510.91 430.01,-509.91 432.53,-508.81 435.05,-507.61"/>
<polygon fill="black" stroke="black" points="436.76,-510.67 444.04,-502.97 433.55,-504.45 436.76,-510.67"/>
</g>
<!-- sigma_d -->
<g id="node10" class="node">
<title>sigma_d</title>
<polygon fill="none" stroke="black" points="309,-502.91 218,-502.91 218,-449.91 309,-449.91 309,-502.91"/>
<text text-anchor="middle" x="263.5" y="-487.71" font-family="Times,serif" font-size="14.00">sigma_d</text>
<text text-anchor="middle" x="263.5" y="-472.71" font-family="Times,serif" font-size="14.00">~</text>
<text text-anchor="middle" x="263.5" y="-457.71" font-family="Times,serif" font-size="14.00">Deterministic</text>
</g>
<!-- genes_chol_cov_stds&#45;&gt;sigma_d -->
<g id="edge5" class="edge">
<title>genes_chol_cov_stds&#45;&gt;sigma_d</title>
<path fill="none" stroke="black" d="M297.41,-549.66C292.03,-538.18 285.6,-524.49 279.79,-512.12"/>
<polygon fill="black" stroke="black" points="282.92,-510.55 275.51,-502.98 276.59,-513.52 282.92,-510.55"/>
</g>
<!-- sigma_mu_a -->
<g id="node12" class="node">
<title>sigma_mu_a</title>
<polygon fill="none" stroke="black" points="418,-502.91 327,-502.91 327,-449.91 418,-449.91 418,-502.91"/>
<text text-anchor="middle" x="372.5" y="-487.71" font-family="Times,serif" font-size="14.00">sigma_mu_a</text>
<text text-anchor="middle" x="372.5" y="-472.71" font-family="Times,serif" font-size="14.00">~</text>
<text text-anchor="middle" x="372.5" y="-457.71" font-family="Times,serif" font-size="14.00">Deterministic</text>
</g>
<!-- genes_chol_cov_stds&#45;&gt;sigma_mu_a -->
<g id="edge3" class="edge">
<title>genes_chol_cov_stds&#45;&gt;sigma_mu_a</title>
<path fill="none" stroke="black" d="M326.05,-549.66C333.5,-538.07 342.41,-524.22 350.42,-511.76"/>
<polygon fill="black" stroke="black" points="353.59,-513.29 356.06,-502.98 347.71,-509.5 353.59,-513.29"/>
</g>
<!-- sigma_b -->
<g id="node13" class="node">
<title>sigma_b</title>
<polygon fill="none" stroke="black" points="91,-502.91 0,-502.91 0,-449.91 91,-449.91 91,-502.91"/>
<text text-anchor="middle" x="45.5" y="-487.71" font-family="Times,serif" font-size="14.00">sigma_b</text>
<text text-anchor="middle" x="45.5" y="-472.71" font-family="Times,serif" font-size="14.00">~</text>
<text text-anchor="middle" x="45.5" y="-457.71" font-family="Times,serif" font-size="14.00">Deterministic</text>
</g>
<!-- genes_chol_cov_stds&#45;&gt;sigma_b -->
<g id="edge4" class="edge">
<title>genes_chol_cov_stds&#45;&gt;sigma_b</title>
<path fill="none" stroke="black" d="M282.14,-549.64C268.11,-538.07 250.08,-525.54 231.5,-518.91 174.9,-498.69 153.55,-529.82 96.5,-510.91 93.77,-510 91.04,-508.91 88.34,-507.68"/>
<polygon fill="black" stroke="black" points="89.86,-504.52 79.37,-503.06 86.65,-510.75 89.86,-504.52"/>
</g>
<!-- sigma_h -->
<g id="node14" class="node">
<title>sigma_h</title>
<polygon fill="none" stroke="black" points="200,-502.91 109,-502.91 109,-449.91 200,-449.91 200,-502.91"/>
<text text-anchor="middle" x="154.5" y="-487.71" font-family="Times,serif" font-size="14.00">sigma_h</text>
<text text-anchor="middle" x="154.5" y="-472.71" font-family="Times,serif" font-size="14.00">~</text>
<text text-anchor="middle" x="154.5" y="-457.71" font-family="Times,serif" font-size="14.00">Deterministic</text>
</g>
<!-- genes_chol_cov_stds&#45;&gt;sigma_h -->
<g id="edge7" class="edge">
<title>genes_chol_cov_stds&#45;&gt;sigma_h</title>
<path fill="none" stroke="black" d="M278.18,-549.65C264.43,-539.17 247.75,-527.53 231.5,-518.91 222.31,-514.03 218.88,-515.41 209.5,-510.91 207.49,-509.94 205.47,-508.93 203.44,-507.87"/>
<polygon fill="black" stroke="black" points="205,-504.74 194.54,-503.04 201.66,-510.89 205,-504.74"/>
</g>
<!-- mu_mu_a -->
<g id="node4" class="node">
<title>mu_mu_a</title>
<ellipse fill="none" stroke="black" cx="1088.5" cy="-698.36" rx="50.82" ry="37.45"/>
<text text-anchor="middle" x="1088.5" y="-709.66" font-family="Times,serif" font-size="14.00">mu_mu_a</text>
<text text-anchor="middle" x="1088.5" y="-694.66" font-family="Times,serif" font-size="14.00">~</text>
<text text-anchor="middle" x="1088.5" y="-679.66" font-family="Times,serif" font-size="14.00">Normal</text>
</g>
<!-- mu_mu_a&#45;&gt;d -->
<g id="edge20" class="edge">
<title>mu_mu_a&#45;&gt;d</title>
<path fill="none" stroke="black" d="M1089.11,-660.72C1089.36,-645.75 1089.65,-628.48 1089.9,-613.56"/>
<polygon fill="black" stroke="black" points="1093.4,-613.24 1090.07,-603.18 1086.4,-613.12 1093.4,-613.24"/>
</g>
<!-- mu_mu_a&#45;&gt;mu_a -->
<g id="edge10" class="edge">
<title>mu_mu_a&#45;&gt;mu_a</title>
<path fill="none" stroke="black" d="M1115.4,-666.53C1125.65,-654.94 1137.51,-641.71 1148.5,-629.88 1154.41,-623.53 1160.79,-616.83 1166.98,-610.43"/>
<polygon fill="black" stroke="black" points="1169.66,-612.69 1174.11,-603.08 1164.63,-607.82 1169.66,-612.69"/>
</g>
<!-- mu_mu_a&#45;&gt;f -->
<g id="edge25" class="edge">
<title>mu_mu_a&#45;&gt;f</title>
<path fill="none" stroke="black" d="M1068.89,-663.7C1059.58,-650.87 1047.24,-637.5 1032.5,-629.88 990.92,-608.39 971,-639.16 927.5,-621.88 919.88,-618.86 912.49,-614.38 905.73,-609.42"/>
<polygon fill="black" stroke="black" points="907.55,-606.4 897.53,-602.95 903.21,-611.89 907.55,-606.4"/>
</g>
<!-- mu_mu_a&#45;&gt;b -->
<g id="edge15" class="edge">
<title>mu_mu_a&#45;&gt;b</title>
<path fill="none" stroke="black" d="M1063.07,-665.68C1053.66,-654.24 1042.78,-641.32 1032.5,-629.88 1026.7,-623.43 1020.37,-616.69 1014.2,-610.27"/>
<polygon fill="black" stroke="black" points="1016.55,-607.66 1007.07,-602.91 1011.52,-612.53 1016.55,-607.66"/>
</g>
<!-- mu_mu_a&#45;&gt;h -->
<g id="edge30" class="edge">
<title>mu_mu_a&#45;&gt;h</title>
<path fill="none" stroke="black" d="M1069.36,-663.63C1060.06,-650.61 1047.6,-637.13 1032.5,-629.88 1009.41,-618.79 595.68,-630.32 571.5,-621.88 563.23,-619 555.21,-614.44 547.9,-609.31"/>
<polygon fill="black" stroke="black" points="549.76,-606.34 539.67,-603.11 545.55,-611.92 549.76,-606.34"/>
</g>
<!-- mu_d -->
<g id="node6" class="node">
<title>mu_d</title>
<ellipse fill="none" stroke="black" cx="1199.5" cy="-698.36" rx="41.94" ry="37.45"/>
<text text-anchor="middle" x="1199.5" y="-709.66" font-family="Times,serif" font-size="14.00">mu_d</text>
<text text-anchor="middle" x="1199.5" y="-694.66" font-family="Times,serif" font-size="14.00">~</text>
<text text-anchor="middle" x="1199.5" y="-679.66" font-family="Times,serif" font-size="14.00">Normal</text>
</g>
<!-- mu_d&#45;&gt;d -->
<g id="edge19" class="edge">
<title>mu_d&#45;&gt;d</title>
<path fill="none" stroke="black" d="M1177.82,-666.16C1169.16,-654.4 1158.81,-641.15 1148.5,-629.88 1142.31,-623.12 1135.34,-616.27 1128.44,-609.85"/>
<polygon fill="black" stroke="black" points="1130.77,-607.23 1121.03,-603.08 1126.05,-612.4 1130.77,-607.23"/>
</g>
<!-- mu_d&#45;&gt;mu_a -->
<g id="edge9" class="edge">
<title>mu_d&#45;&gt;mu_a</title>
<path fill="none" stroke="black" d="M1199.5,-660.72C1199.5,-645.75 1199.5,-628.48 1199.5,-613.56"/>
<polygon fill="black" stroke="black" points="1203,-613.18 1199.5,-603.18 1196,-613.18 1203,-613.18"/>
</g>
<!-- mu_d&#45;&gt;f -->
<g id="edge24" class="edge">
<title>mu_d&#45;&gt;f</title>
<path fill="none" stroke="black" d="M1182.64,-663.83C1174.26,-650.85 1162.83,-637.34 1148.5,-629.88 1126.7,-618.54 950.51,-630.5 927.5,-621.88 919.74,-618.98 912.24,-614.51 905.42,-609.51"/>
<polygon fill="black" stroke="black" points="907.17,-606.44 897.16,-602.97 902.82,-611.92 907.17,-606.44"/>
</g>
<!-- mu_d&#45;&gt;b -->
<g id="edge14" class="edge">
<title>mu_d&#45;&gt;b</title>
<path fill="none" stroke="black" d="M1182.51,-664.07C1174.11,-651.13 1162.7,-637.59 1148.5,-629.88 1126.57,-617.98 1059.71,-631.04 1036.5,-621.88 1028.87,-618.87 1021.48,-614.41 1014.72,-609.45"/>
<polygon fill="black" stroke="black" points="1016.54,-606.43 1006.52,-602.98 1012.2,-611.92 1016.54,-606.43"/>
</g>
<!-- mu_d&#45;&gt;h -->
<g id="edge29" class="edge">
<title>mu_d&#45;&gt;h</title>
<path fill="none" stroke="black" d="M1182.72,-663.67C1174.35,-650.66 1162.91,-637.18 1148.5,-629.88 1119.9,-615.4 601.79,-632.39 571.5,-621.88 563.23,-619.01 555.2,-614.46 547.89,-609.34"/>
<polygon fill="black" stroke="black" points="549.75,-606.36 539.66,-603.13 545.54,-611.95 549.75,-606.36"/>
</g>
<!-- sigma_k -->
<g id="node7" class="node">
<title>sigma_k</title>
<ellipse fill="none" stroke="black" cx="750.5" cy="-576.41" rx="58.88" ry="37.45"/>
<text text-anchor="middle" x="750.5" y="-587.71" font-family="Times,serif" font-size="14.00">sigma_k</text>
<text text-anchor="middle" x="750.5" y="-572.71" font-family="Times,serif" font-size="14.00">~</text>
<text text-anchor="middle" x="750.5" y="-557.71" font-family="Times,serif" font-size="14.00">HalfNormal</text>
</g>
<!-- k -->
<g id="node29" class="node">
<title>k</title>
<polygon fill="none" stroke="black" points="675,-502.91 584,-502.91 584,-449.91 675,-449.91 675,-502.91"/>
<text text-anchor="middle" x="629.5" y="-487.71" font-family="Times,serif" font-size="14.00">k</text>
<text text-anchor="middle" x="629.5" y="-472.71" font-family="Times,serif" font-size="14.00">~</text>
<text text-anchor="middle" x="629.5" y="-457.71" font-family="Times,serif" font-size="14.00">Deterministic</text>
</g>
<!-- sigma_k&#45;&gt;k -->
<g id="edge41" class="edge">
<title>sigma_k&#45;&gt;k</title>
<path fill="none" stroke="black" d="M718.07,-545.09C708.42,-536.41 697.7,-527.09 687.5,-518.91 683.44,-515.65 679.15,-512.34 674.81,-509.09"/>
<polygon fill="black" stroke="black" points="676.59,-506.05 666.46,-502.93 672.43,-511.68 676.59,-506.05"/>
</g>
<!-- mu_b -->
<g id="node8" class="node">
<title>mu_b</title>
<ellipse fill="none" stroke="black" cx="847.5" cy="-698.36" rx="41.94" ry="37.45"/>
<text text-anchor="middle" x="847.5" y="-709.66" font-family="Times,serif" font-size="14.00">mu_b</text>
<text text-anchor="middle" x="847.5" y="-694.66" font-family="Times,serif" font-size="14.00">~</text>
<text text-anchor="middle" x="847.5" y="-679.66" font-family="Times,serif" font-size="14.00">Normal</text>
</g>
<!-- mu_b&#45;&gt;d -->
<g id="edge18" class="edge">
<title>mu_b&#45;&gt;d</title>
<path fill="none" stroke="black" d="M862.97,-663.32C870.57,-650.59 881.04,-637.4 894.5,-629.88 922.09,-614.47 1007.06,-633.39 1036.5,-621.88 1044.06,-618.93 1051.35,-614.49 1057.99,-609.54"/>
<polygon fill="black" stroke="black" points="1060.44,-612.06 1066.04,-603.07 1056.05,-606.61 1060.44,-612.06"/>
</g>
<!-- mu_b&#45;&gt;mu_a -->
<g id="edge8" class="edge">
<title>mu_b&#45;&gt;mu_a</title>
<path fill="none" stroke="black" d="M862.87,-663.15C870.47,-650.39 880.95,-637.24 894.5,-629.88 919.03,-616.58 1119.39,-631.72 1145.5,-621.88 1153.17,-618.99 1160.55,-614.53 1167.26,-609.53"/>
<polygon fill="black" stroke="black" points="1169.79,-611.99 1175.37,-602.99 1165.39,-606.55 1169.79,-611.99"/>
</g>
<!-- mu_b&#45;&gt;f -->
<g id="edge23" class="edge">
<title>mu_b&#45;&gt;f</title>
<path fill="none" stroke="black" d="M855,-661.37C858.18,-646.12 861.87,-628.39 865.05,-613.16"/>
<polygon fill="black" stroke="black" points="868.53,-613.59 867.15,-603.08 861.68,-612.16 868.53,-613.59"/>
</g>
<!-- mu_b&#45;&gt;b -->
<g id="edge13" class="edge">
<title>mu_b&#45;&gt;b</title>
<path fill="none" stroke="black" d="M864.14,-663.81C871.81,-651.47 882.01,-638.43 894.5,-629.88 906.95,-621.36 914,-628.63 927.5,-621.88 934.22,-618.52 940.85,-614.19 947.04,-609.55"/>
<polygon fill="black" stroke="black" points="949.51,-612.05 955.16,-603.09 945.16,-606.57 949.51,-612.05"/>
</g>
<!-- mu_b&#45;&gt;h -->
<g id="edge28" class="edge">
<title>mu_b&#45;&gt;h</title>
<path fill="none" stroke="black" d="M831.84,-663.51C824.05,-650.65 813.3,-637.31 799.5,-629.88 777.18,-617.87 595.36,-630.45 571.5,-621.88 563.26,-618.93 555.25,-614.33 547.94,-609.2"/>
<polygon fill="black" stroke="black" points="549.8,-606.22 539.71,-602.99 545.59,-611.81 549.8,-606.22"/>
</g>
<!-- sigma_a -->
<g id="node9" class="node">
<title>sigma_a</title>
<ellipse fill="none" stroke="black" cx="1436.5" cy="-576.41" rx="58.88" ry="37.45"/>
<text text-anchor="middle" x="1436.5" y="-587.71" font-family="Times,serif" font-size="14.00">sigma_a</text>
<text text-anchor="middle" x="1436.5" y="-572.71" font-family="Times,serif" font-size="14.00">~</text>
<text text-anchor="middle" x="1436.5" y="-557.71" font-family="Times,serif" font-size="14.00">HalfNormal</text>
</g>
<!-- a -->
<g id="node21" class="node">
<title>a</title>
<polygon fill="none" stroke="black" points="1361,-502.91 1270,-502.91 1270,-449.91 1361,-449.91 1361,-502.91"/>
<text text-anchor="middle" x="1315.5" y="-487.71" font-family="Times,serif" font-size="14.00">a</text>
<text text-anchor="middle" x="1315.5" y="-472.71" font-family="Times,serif" font-size="14.00">~</text>
<text text-anchor="middle" x="1315.5" y="-457.71" font-family="Times,serif" font-size="14.00">Deterministic</text>
</g>
<!-- sigma_a&#45;&gt;a -->
<g id="edge35" class="edge">
<title>sigma_a&#45;&gt;a</title>
<path fill="none" stroke="black" d="M1404.07,-545.09C1394.42,-536.41 1383.7,-527.09 1373.5,-518.91 1369.44,-515.65 1365.15,-512.34 1360.81,-509.09"/>
<polygon fill="black" stroke="black" points="1362.59,-506.05 1352.46,-502.93 1358.43,-511.68 1362.59,-506.05"/>
</g>
<!-- alpha -->
<g id="node11" class="node">
<title>alpha</title>
<ellipse fill="none" stroke="black" cx="1046.5" cy="-187.43" rx="57.97" ry="37.45"/>
<text text-anchor="middle" x="1046.5" y="-198.73" font-family="Times,serif" font-size="14.00">alpha</text>
<text text-anchor="middle" x="1046.5" y="-183.73" font-family="Times,serif" font-size="14.00">~</text>
<text text-anchor="middle" x="1046.5" y="-168.73" font-family="Times,serif" font-size="14.00">Exponential</text>
</g>
<!-- ct_final -->
<g id="node24" class="node">
<title>ct_final</title>
<ellipse fill="lightgrey" stroke="black" cx="908.5" cy="-76.48" rx="63.78" ry="37.45"/>
<text text-anchor="middle" x="908.5" y="-87.78" font-family="Times,serif" font-size="14.00">ct_final</text>
<text text-anchor="middle" x="908.5" y="-72.78" font-family="Times,serif" font-size="14.00">~</text>
<text text-anchor="middle" x="908.5" y="-57.78" font-family="Times,serif" font-size="14.00">NegBinomial</text>
</g>
<!-- alpha&#45;&gt;ct_final -->
<g id="edge47" class="edge">
<title>alpha&#45;&gt;ct_final</title>
<path fill="none" stroke="black" d="M1010.24,-157.8C993.07,-144.24 972.37,-127.9 954.14,-113.51"/>
<polygon fill="black" stroke="black" points="955.98,-110.5 945.96,-107.05 951.64,-115.99 955.98,-110.5"/>
</g>
<!-- delta_genes -->
<g id="node15" class="node">
<title>delta_genes</title>
<ellipse fill="none" stroke="black" cx="963.5" cy="-698.36" rx="56.64" ry="37.45"/>
<text text-anchor="middle" x="963.5" y="-709.66" font-family="Times,serif" font-size="14.00">delta_genes</text>
<text text-anchor="middle" x="963.5" y="-694.66" font-family="Times,serif" font-size="14.00">~</text>
<text text-anchor="middle" x="963.5" y="-679.66" font-family="Times,serif" font-size="14.00">Normal</text>
</g>
<!-- delta_genes&#45;&gt;d -->
<g id="edge22" class="edge">
<title>delta_genes&#45;&gt;d</title>
<path fill="none" stroke="black" d="M992.63,-665.8C1003.62,-654.25 1016.4,-641.23 1028.5,-629.88 1035.6,-623.22 1043.38,-616.34 1050.96,-609.84"/>
<polygon fill="black" stroke="black" points="1053.7,-612.1 1059.06,-602.96 1049.17,-606.77 1053.7,-612.1"/>
</g>
<!-- delta_genes&#45;&gt;mu_a -->
<g id="edge12" class="edge">
<title>delta_genes&#45;&gt;mu_a</title>
<path fill="none" stroke="black" d="M986.99,-663.93C998,-650.96 1012.28,-637.44 1028.5,-629.88 1075.74,-607.86 1097.07,-641.15 1145.5,-621.88 1153.04,-618.88 1160.32,-614.42 1166.96,-609.47"/>
<polygon fill="black" stroke="black" points="1169.41,-611.99 1175.01,-602.99 1165.02,-606.53 1169.41,-611.99"/>
</g>
<!-- delta_genes&#45;&gt;f -->
<g id="edge27" class="edge">
<title>delta_genes&#45;&gt;f</title>
<path fill="none" stroke="black" d="M938.63,-664.58C926.09,-648.04 910.88,-628 898.22,-611.31"/>
<polygon fill="black" stroke="black" points="900.69,-608.77 891.85,-602.92 895.11,-613 900.69,-608.77"/>
</g>
<!-- delta_genes&#45;&gt;b -->
<g id="edge17" class="edge">
<title>delta_genes&#45;&gt;b</title>
<path fill="none" stroke="black" d="M968.95,-661.04C971.24,-645.81 973.89,-628.14 976.16,-612.98"/>
<polygon fill="black" stroke="black" points="979.64,-613.36 977.67,-602.95 972.72,-612.32 979.64,-613.36"/>
</g>
<!-- delta_genes&#45;&gt;h -->
<g id="edge32" class="edge">
<title>delta_genes&#45;&gt;h</title>
<path fill="none" stroke="black" d="M940.47,-663.93C929.44,-650.8 915.03,-637.15 898.5,-629.88 865.23,-615.25 605.77,-633.98 571.5,-621.88 563.24,-618.97 555.22,-614.39 547.91,-609.27"/>
<polygon fill="black" stroke="black" points="549.78,-606.29 539.69,-603.06 545.56,-611.88 549.78,-606.29"/>
</g>
<!-- gene_effect -->
<g id="node27" class="node">
<title>gene_effect</title>
<polygon fill="none" stroke="black" points="972,-402.91 881,-402.91 881,-349.91 972,-349.91 972,-402.91"/>
<text text-anchor="middle" x="926.5" y="-387.71" font-family="Times,serif" font-size="14.00">gene_effect</text>
<text text-anchor="middle" x="926.5" y="-372.71" font-family="Times,serif" font-size="14.00">~</text>
<text text-anchor="middle" x="926.5" y="-357.71" font-family="Times,serif" font-size="14.00">Deterministic</text>
</g>
<!-- d&#45;&gt;gene_effect -->
<g id="edge39" class="edge">
<title>d&#45;&gt;gene_effect</title>
<path fill="none" stroke="black" d="M1070.4,-549.9C1045.66,-518.68 1002.16,-464.35 963.5,-418.91 961.31,-416.33 959.03,-413.69 956.72,-411.04"/>
<polygon fill="black" stroke="black" points="959.01,-408.34 949.78,-403.14 953.75,-412.97 959.01,-408.34"/>
</g>
<!-- mu_a&#45;&gt;a -->
<g id="edge34" class="edge">
<title>mu_a&#45;&gt;a</title>
<path fill="none" stroke="black" d="M1224.13,-549.79C1234.16,-539.8 1246.07,-528.47 1257.5,-518.91 1261.44,-515.61 1265.62,-512.3 1269.86,-509.06"/>
<polygon fill="black" stroke="black" points="1272.14,-511.73 1278.05,-502.94 1267.95,-506.12 1272.14,-511.73"/>
</g>
<!-- f&#45;&gt;gene_effect -->
<g id="edge37" class="edge">
<title>f&#45;&gt;gene_effect</title>
<path fill="none" stroke="black" d="M879.56,-549.52C889.11,-514.52 906.17,-451.96 916.88,-412.68"/>
<polygon fill="black" stroke="black" points="920.27,-413.55 919.52,-402.98 913.52,-411.71 920.27,-413.55"/>
</g>
<!-- b&#45;&gt;gene_effect -->
<g id="edge40" class="edge">
<title>b&#45;&gt;gene_effect</title>
<path fill="none" stroke="black" d="M974.31,-549.52C964.59,-514.52 947.21,-451.96 936.3,-412.68"/>
<polygon fill="black" stroke="black" points="939.65,-411.68 933.6,-402.98 932.91,-413.56 939.65,-411.68"/>
</g>
<!-- h&#45;&gt;gene_effect -->
<g id="edge38" class="edge">
<title>h&#45;&gt;gene_effect</title>
<path fill="none" stroke="black" d="M522.64,-549.62C538.27,-505.7 568.71,-420.9 571.5,-418.91 585.1,-409.17 856.47,-415.7 872.5,-410.91 875.67,-409.96 878.84,-408.77 881.96,-407.41"/>
<polygon fill="black" stroke="black" points="883.72,-410.45 891.16,-402.91 880.64,-404.17 883.72,-410.45"/>
</g>
<!-- a&#45;&gt;gene_effect -->
<g id="edge36" class="edge">
<title>a&#45;&gt;gene_effect</title>
<path fill="none" stroke="black" d="M1269.73,-463.88C1198.04,-445.81 1059.47,-410.91 982.13,-391.42"/>
<polygon fill="black" stroke="black" points="982.64,-387.94 972.09,-388.89 980.93,-394.73 982.64,-387.94"/>
</g>
<!-- delta_a -->
<g id="node22" class="node">
<title>delta_a</title>
<ellipse fill="none" stroke="black" cx="1315.5" cy="-576.41" rx="41.94" ry="37.45"/>
<text text-anchor="middle" x="1315.5" y="-587.71" font-family="Times,serif" font-size="14.00">delta_a</text>
<text text-anchor="middle" x="1315.5" y="-572.71" font-family="Times,serif" font-size="14.00">~</text>
<text text-anchor="middle" x="1315.5" y="-557.71" font-family="Times,serif" font-size="14.00">Normal</text>
</g>
<!-- delta_a&#45;&gt;a -->
<g id="edge33" class="edge">
<title>delta_a&#45;&gt;a</title>
<path fill="none" stroke="black" d="M1315.5,-538.92C1315.5,-530.5 1315.5,-521.55 1315.5,-513.16"/>
<polygon fill="black" stroke="black" points="1319,-512.92 1315.5,-502.92 1312,-512.92 1319,-512.92"/>
</g>
<!-- cell_effect -->
<g id="node23" class="node">
<title>cell_effect</title>
<polygon fill="none" stroke="black" points="863,-402.91 772,-402.91 772,-349.91 863,-349.91 863,-402.91"/>
<text text-anchor="middle" x="817.5" y="-387.71" font-family="Times,serif" font-size="14.00">cell_effect</text>
<text text-anchor="middle" x="817.5" y="-372.71" font-family="Times,serif" font-size="14.00">~</text>
<text text-anchor="middle" x="817.5" y="-357.71" font-family="Times,serif" font-size="14.00">Deterministic</text>
</g>
<!-- eta -->
<g id="node25" class="node">
<title>eta</title>
<polygon fill="none" stroke="black" points="954,-313.91 863,-313.91 863,-260.91 954,-260.91 954,-313.91"/>
<text text-anchor="middle" x="908.5" y="-298.71" font-family="Times,serif" font-size="14.00">eta</text>
<text text-anchor="middle" x="908.5" y="-283.71" font-family="Times,serif" font-size="14.00">~</text>
<text text-anchor="middle" x="908.5" y="-268.71" font-family="Times,serif" font-size="14.00">Deterministic</text>
</g>
<!-- cell_effect&#45;&gt;eta -->
<g id="edge44" class="edge">
<title>cell_effect&#45;&gt;eta</title>
<path fill="none" stroke="black" d="M844.31,-349.77C853.67,-340.83 864.3,-330.66 874.19,-321.21"/>
<polygon fill="black" stroke="black" points="876.76,-323.6 881.57,-314.16 871.92,-318.54 876.76,-323.6"/>
</g>
<!-- mu -->
<g id="node26" class="node">
<title>mu</title>
<polygon fill="none" stroke="black" points="954,-213.93 863,-213.93 863,-160.93 954,-160.93 954,-213.93"/>
<text text-anchor="middle" x="908.5" y="-198.73" font-family="Times,serif" font-size="14.00">mu</text>
<text text-anchor="middle" x="908.5" y="-183.73" font-family="Times,serif" font-size="14.00">~</text>
<text text-anchor="middle" x="908.5" y="-168.73" font-family="Times,serif" font-size="14.00">Deterministic</text>
</g>
<!-- eta&#45;&gt;mu -->
<g id="edge46" class="edge">
<title>eta&#45;&gt;mu</title>
<path fill="none" stroke="black" d="M908.5,-260.66C908.5,-249.53 908.5,-236.3 908.5,-224.23"/>
<polygon fill="black" stroke="black" points="912,-224 908.5,-214 905,-224 912,-224"/>
</g>
<!-- mu&#45;&gt;ct_final -->
<g id="edge48" class="edge">
<title>mu&#45;&gt;ct_final</title>
<path fill="none" stroke="black" d="M908.5,-160.89C908.5,-149.98 908.5,-136.89 908.5,-124.35"/>
<polygon fill="black" stroke="black" points="912,-124 908.5,-114 905,-124 912,-124"/>
</g>
<!-- gene_effect&#45;&gt;eta -->
<g id="edge45" class="edge">
<title>gene_effect&#45;&gt;eta</title>
<path fill="none" stroke="black" d="M921.2,-349.77C919.53,-341.7 917.65,-332.64 915.87,-324.01"/>
<polygon fill="black" stroke="black" points="919.28,-323.24 913.83,-314.16 912.43,-324.66 919.28,-323.24"/>
</g>
<!-- delta_k -->
<g id="node28" class="node">
<title>delta_k</title>
<ellipse fill="none" stroke="black" cx="629.5" cy="-576.41" rx="41.94" ry="37.45"/>
<text text-anchor="middle" x="629.5" y="-587.71" font-family="Times,serif" font-size="14.00">delta_k</text>
<text text-anchor="middle" x="629.5" y="-572.71" font-family="Times,serif" font-size="14.00">~</text>
<text text-anchor="middle" x="629.5" y="-557.71" font-family="Times,serif" font-size="14.00">Normal</text>
</g>
<!-- delta_k&#45;&gt;k -->
<g id="edge42" class="edge">
<title>delta_k&#45;&gt;k</title>
<path fill="none" stroke="black" d="M629.5,-538.92C629.5,-530.5 629.5,-521.55 629.5,-513.16"/>
<polygon fill="black" stroke="black" points="633,-512.92 629.5,-502.92 626,-512.92 633,-512.92"/>
</g>
<!-- k&#45;&gt;cell_effect -->
<g id="edge43" class="edge">
<title>k&#45;&gt;cell_effect</title>
<path fill="none" stroke="black" d="M675.01,-451.68C701.37,-437.94 734.74,-420.55 762.56,-406.05"/>
<polygon fill="black" stroke="black" points="764.51,-408.98 771.76,-401.25 761.27,-402.77 764.51,-408.98"/>
</g>
</g>
</svg>
