<?xml version="1.0" encoding="UTF-8" standalone="no"?>
<!DOCTYPE svg PUBLIC "-//W3C//DTD SVG 1.1//EN"
 "http://www.w3.org/Graphics/SVG/1.1/DTD/svg11.dtd">
<!-- Generated by graphviz version 2.47.0 (20210327.0129)
 -->
<!-- Pages: 1 -->
<svg width="1844pt" height="455pt"
 viewBox="0.00 0.00 1844.09 454.84" xmlns="http://www.w3.org/2000/svg" xmlns:xlink="http://www.w3.org/1999/xlink">
<g id="graph0" class="graph" transform="scale(1 1) rotate(0) translate(4 450.84)">
<polygon fill="white" stroke="transparent" points="-4,4 -4,-450.84 1840.09,-450.84 1840.09,4 -4,4"/>
<g id="clust1" class="cluster">
<title>cluster4</title>
<path fill="none" stroke="black" d="M275.79,-129.95C275.79,-129.95 521.79,-129.95 521.79,-129.95 527.79,-129.95 533.79,-135.95 533.79,-141.95 533.79,-141.95 533.79,-331.88 533.79,-331.88 533.79,-337.88 527.79,-343.88 521.79,-343.88 521.79,-343.88 275.79,-343.88 275.79,-343.88 269.79,-343.88 263.79,-337.88 263.79,-331.88 263.79,-331.88 263.79,-141.95 263.79,-141.95 263.79,-135.95 269.79,-129.95 275.79,-129.95"/>
<text text-anchor="middle" x="520.79" y="-137.75" font-family="Times-Roman" font-size="14.00">4</text>
</g>
<g id="clust2" class="cluster">
<title>cluster64 x 10</title>
<path fill="none" stroke="black" d="M661.79,-129.95C661.79,-129.95 765.79,-129.95 765.79,-129.95 771.79,-129.95 777.79,-135.95 777.79,-141.95 777.79,-141.95 777.79,-331.88 777.79,-331.88 777.79,-337.88 771.79,-343.88 765.79,-343.88 765.79,-343.88 661.79,-343.88 661.79,-343.88 655.79,-343.88 649.79,-337.88 649.79,-331.88 649.79,-331.88 649.79,-141.95 649.79,-141.95 649.79,-135.95 655.79,-129.95 661.79,-129.95"/>
<text text-anchor="middle" x="742.79" y="-137.75" font-family="Times-Roman" font-size="14.00">64 x 10</text>
</g>
<g id="clust3" class="cluster">
<title>cluster10</title>
<path fill="none" stroke="black" d="M1059.79,-129.95C1059.79,-129.95 1163.79,-129.95 1163.79,-129.95 1169.79,-129.95 1175.79,-135.95 1175.79,-141.95 1175.79,-141.95 1175.79,-331.88 1175.79,-331.88 1175.79,-337.88 1169.79,-343.88 1163.79,-343.88 1163.79,-343.88 1059.79,-343.88 1059.79,-343.88 1053.79,-343.88 1047.79,-337.88 1047.79,-331.88 1047.79,-331.88 1047.79,-141.95 1047.79,-141.95 1047.79,-135.95 1053.79,-129.95 1059.79,-129.95"/>
<text text-anchor="middle" x="1158.29" y="-137.75" font-family="Times-Roman" font-size="14.00">10</text>
</g>
<g id="clust4" class="cluster">
<title>cluster64</title>
<path fill="none" stroke="black" d="M1457.79,-129.95C1457.79,-129.95 1561.79,-129.95 1561.79,-129.95 1567.79,-129.95 1573.79,-135.95 1573.79,-141.95 1573.79,-141.95 1573.79,-331.88 1573.79,-331.88 1573.79,-337.88 1567.79,-343.88 1561.79,-343.88 1561.79,-343.88 1457.79,-343.88 1457.79,-343.88 1451.79,-343.88 1445.79,-337.88 1445.79,-331.88 1445.79,-331.88 1445.79,-141.95 1445.79,-141.95 1445.79,-135.95 1451.79,-129.95 1457.79,-129.95"/>
<text text-anchor="middle" x="1556.29" y="-137.75" font-family="Times-Roman" font-size="14.00">64</text>
</g>
<g id="clust5" class="cluster">
<title>cluster1,443</title>
<path fill="none" stroke="black" d="M606.79,-8C606.79,-8 696.79,-8 696.79,-8 702.79,-8 708.79,-14 708.79,-20 708.79,-20 708.79,-109.95 708.79,-109.95 708.79,-115.95 702.79,-121.95 696.79,-121.95 696.79,-121.95 606.79,-121.95 606.79,-121.95 600.79,-121.95 594.79,-115.95 594.79,-109.95 594.79,-109.95 594.79,-20 594.79,-20 594.79,-14 600.79,-8 606.79,-8"/>
<text text-anchor="middle" x="680.29" y="-15.8" font-family="Times-Roman" font-size="14.00">1,443</text>
</g>
<!-- μ_j -->
<g id="node1" class="node">
<title>μ_j</title>
<ellipse fill="none" stroke="black" cx="48.79" cy="-298.41" rx="48.58" ry="37.45"/>
<text text-anchor="middle" x="48.79" y="-309.71" font-family="Times-Roman" font-size="14.00">μ_j</text>
<text text-anchor="middle" x="48.79" y="-294.71" font-family="Times-Roman" font-size="14.00">~</text>
<text text-anchor="middle" x="48.79" y="-279.71" font-family="Times-Roman" font-size="14.00">Normal</text>
</g>
<!-- j -->
<g id="node13" class="node">
<title>j</title>
<polygon fill="none" stroke="black" points="383.79,-213.95 271.79,-213.95 271.79,-160.95 383.79,-160.95 383.79,-213.95"/>
<text text-anchor="middle" x="327.79" y="-198.75" font-family="Times-Roman" font-size="14.00">j</text>
<text text-anchor="middle" x="327.79" y="-183.75" font-family="Times-Roman" font-size="14.00">~</text>
<text text-anchor="middle" x="327.79" y="-168.75" font-family="Times-Roman" font-size="14.00">Deterministic</text>
</g>
<!-- μ_j&#45;&gt;j -->
<g id="edge3" class="edge">
<title>μ_j&#45;&gt;j</title>
<path fill="none" stroke="black" d="M84.84,-272.85C91.94,-268.55 99.47,-264.37 106.79,-260.93 156.91,-237.39 216.74,-218.27 261.51,-205.59"/>
<polygon fill="black" stroke="black" points="262.71,-208.89 271.4,-202.83 260.82,-202.15 262.71,-208.89"/>
</g>
<!-- i -->
<g id="node2" class="node">
<title>i</title>
<ellipse fill="none" stroke="black" cx="590.79" cy="-187.45" rx="48.58" ry="37.45"/>
<text text-anchor="middle" x="590.79" y="-198.75" font-family="Times-Roman" font-size="14.00">i</text>
<text text-anchor="middle" x="590.79" y="-183.75" font-family="Times-Roman" font-size="14.00">~</text>
<text text-anchor="middle" x="590.79" y="-168.75" font-family="Times-Roman" font-size="14.00">Normal</text>
</g>
<!-- lfc -->
<g id="node20" class="node">
<title>lfc</title>
<ellipse fill="lightgrey" stroke="black" cx="651.79" cy="-76.48" rx="48.58" ry="37.45"/>
<text text-anchor="middle" x="651.79" y="-87.78" font-family="Times-Roman" font-size="14.00">lfc</text>
<text text-anchor="middle" x="651.79" y="-72.78" font-family="Times-Roman" font-size="14.00">~</text>
<text text-anchor="middle" x="651.79" y="-57.78" font-family="Times-Roman" font-size="14.00">Normal</text>
</g>
<!-- i&#45;&gt;lfc -->
<g id="edge19" class="edge">
<title>i&#45;&gt;lfc</title>
<path fill="none" stroke="black" d="M609.59,-152.87C615.39,-142.51 621.85,-130.96 627.94,-120.08"/>
<polygon fill="black" stroke="black" points="631.12,-121.57 632.95,-111.14 625.01,-118.16 631.12,-121.57"/>
</g>
<!-- σ_d -->
<g id="node3" class="node">
<title>σ_d</title>
<ellipse fill="none" stroke="black" cx="1252.79" cy="-298.41" rx="69.09" ry="37.45"/>
<text text-anchor="middle" x="1252.79" y="-309.71" font-family="Times-Roman" font-size="14.00">σ_d</text>
<text text-anchor="middle" x="1252.79" y="-294.71" font-family="Times-Roman" font-size="14.00">~</text>
<text text-anchor="middle" x="1252.79" y="-279.71" font-family="Times-Roman" font-size="14.00">HalfNormal</text>
</g>
<!-- d -->
<g id="node17" class="node">
<title>d</title>
<polygon fill="none" stroke="black" points="1167.79,-213.95 1055.79,-213.95 1055.79,-160.95 1167.79,-160.95 1167.79,-213.95"/>
<text text-anchor="middle" x="1111.79" y="-198.75" font-family="Times-Roman" font-size="14.00">d</text>
<text text-anchor="middle" x="1111.79" y="-183.75" font-family="Times-Roman" font-size="14.00">~</text>
<text text-anchor="middle" x="1111.79" y="-168.75" font-family="Times-Roman" font-size="14.00">Deterministic</text>
</g>
<!-- σ_d&#45;&gt;d -->
<g id="edge7" class="edge">
<title>σ_d&#45;&gt;d</title>
<path fill="none" stroke="black" d="M1213.89,-267.35C1194.92,-252.69 1172.09,-235.05 1152.84,-220.18"/>
<polygon fill="black" stroke="black" points="1154.89,-217.33 1144.83,-213.99 1150.61,-222.87 1154.89,-217.33"/>
</g>
<!-- μ_a -->
<g id="node4" class="node">
<title>μ_a</title>
<ellipse fill="none" stroke="black" cx="1630.79" cy="-298.41" rx="48.58" ry="37.45"/>
<text text-anchor="middle" x="1630.79" y="-309.71" font-family="Times-Roman" font-size="14.00">μ_a</text>
<text text-anchor="middle" x="1630.79" y="-294.71" font-family="Times-Roman" font-size="14.00">~</text>
<text text-anchor="middle" x="1630.79" y="-279.71" font-family="Times-Roman" font-size="14.00">Normal</text>
</g>
<!-- a -->
<g id="node19" class="node">
<title>a</title>
<polygon fill="none" stroke="black" points="1565.79,-213.95 1453.79,-213.95 1453.79,-160.95 1565.79,-160.95 1565.79,-213.95"/>
<text text-anchor="middle" x="1509.79" y="-198.75" font-family="Times-Roman" font-size="14.00">a</text>
<text text-anchor="middle" x="1509.79" y="-183.75" font-family="Times-Roman" font-size="14.00">~</text>
<text text-anchor="middle" x="1509.79" y="-168.75" font-family="Times-Roman" font-size="14.00">Deterministic</text>
</g>
<!-- μ_a&#45;&gt;a -->
<g id="edge10" class="edge">
<title>μ_a&#45;&gt;a</title>
<path fill="none" stroke="black" d="M1599.63,-269.35C1583.23,-254.59 1563.05,-236.41 1545.96,-221.03"/>
<polygon fill="black" stroke="black" points="1548.13,-218.27 1538.36,-214.18 1543.45,-223.47 1548.13,-218.27"/>
</g>
<!-- μ_d -->
<g id="node5" class="node">
<title>μ_d</title>
<ellipse fill="none" stroke="black" cx="1388.79" cy="-298.41" rx="48.58" ry="37.45"/>
<text text-anchor="middle" x="1388.79" y="-309.71" font-family="Times-Roman" font-size="14.00">μ_d</text>
<text text-anchor="middle" x="1388.79" y="-294.71" font-family="Times-Roman" font-size="14.00">~</text>
<text text-anchor="middle" x="1388.79" y="-279.71" font-family="Times-Roman" font-size="14.00">Normal</text>
</g>
<!-- μ_d&#45;&gt;d -->
<g id="edge9" class="edge">
<title>μ_d&#45;&gt;d</title>
<path fill="none" stroke="black" d="M1352.73,-272.86C1345.63,-268.57 1338.11,-264.38 1330.79,-260.93 1281.28,-237.59 1222.22,-218.52 1177.92,-205.8"/>
<polygon fill="black" stroke="black" points="1178.7,-202.39 1168.13,-203.03 1176.79,-209.12 1178.7,-202.39"/>
</g>
<!-- σ_σ -->
<g id="node6" class="node">
<title>σ_σ</title>
<ellipse fill="none" stroke="black" cx="456.79" cy="-409.36" rx="69.09" ry="37.45"/>
<text text-anchor="middle" x="456.79" y="-420.66" font-family="Times-Roman" font-size="14.00">σ_σ</text>
<text text-anchor="middle" x="456.79" y="-405.66" font-family="Times-Roman" font-size="14.00">~</text>
<text text-anchor="middle" x="456.79" y="-390.66" font-family="Times-Roman" font-size="14.00">HalfNormal</text>
</g>
<!-- σ -->
<g id="node12" class="node">
<title>σ</title>
<ellipse fill="none" stroke="black" cx="456.79" cy="-298.41" rx="69.09" ry="37.45"/>
<text text-anchor="middle" x="456.79" y="-309.71" font-family="Times-Roman" font-size="14.00">σ</text>
<text text-anchor="middle" x="456.79" y="-294.71" font-family="Times-Roman" font-size="14.00">~</text>
<text text-anchor="middle" x="456.79" y="-279.71" font-family="Times-Roman" font-size="14.00">HalfNormal</text>
</g>
<!-- σ_σ&#45;&gt;σ -->
<g id="edge13" class="edge">
<title>σ_σ&#45;&gt;σ</title>
<path fill="none" stroke="black" d="M456.79,-371.78C456.79,-363.6 456.79,-354.82 456.79,-346.3"/>
<polygon fill="black" stroke="black" points="460.29,-346.08 456.79,-336.08 453.29,-346.08 460.29,-346.08"/>
</g>
<!-- σ_h -->
<g id="node7" class="node">
<title>σ_h</title>
<ellipse fill="none" stroke="black" cx="854.79" cy="-298.41" rx="69.09" ry="37.45"/>
<text text-anchor="middle" x="854.79" y="-309.71" font-family="Times-Roman" font-size="14.00">σ_h</text>
<text text-anchor="middle" x="854.79" y="-294.71" font-family="Times-Roman" font-size="14.00">~</text>
<text text-anchor="middle" x="854.79" y="-279.71" font-family="Times-Roman" font-size="14.00">HalfNormal</text>
</g>
<!-- h -->
<g id="node15" class="node">
<title>h</title>
<polygon fill="none" stroke="black" points="769.79,-213.95 657.79,-213.95 657.79,-160.95 769.79,-160.95 769.79,-213.95"/>
<text text-anchor="middle" x="713.79" y="-198.75" font-family="Times-Roman" font-size="14.00">h</text>
<text text-anchor="middle" x="713.79" y="-183.75" font-family="Times-Roman" font-size="14.00">~</text>
<text text-anchor="middle" x="713.79" y="-168.75" font-family="Times-Roman" font-size="14.00">Deterministic</text>
</g>
<!-- σ_h&#45;&gt;h -->
<g id="edge6" class="edge">
<title>σ_h&#45;&gt;h</title>
<path fill="none" stroke="black" d="M815.89,-267.35C796.92,-252.69 774.09,-235.05 754.84,-220.18"/>
<polygon fill="black" stroke="black" points="756.89,-217.33 746.83,-213.99 752.61,-222.87 756.89,-217.33"/>
</g>
<!-- σ_j -->
<g id="node8" class="node">
<title>σ_j</title>
<ellipse fill="none" stroke="black" cx="184.79" cy="-298.41" rx="69.09" ry="37.45"/>
<text text-anchor="middle" x="184.79" y="-309.71" font-family="Times-Roman" font-size="14.00">σ_j</text>
<text text-anchor="middle" x="184.79" y="-294.71" font-family="Times-Roman" font-size="14.00">~</text>
<text text-anchor="middle" x="184.79" y="-279.71" font-family="Times-Roman" font-size="14.00">HalfNormal</text>
</g>
<!-- σ_j&#45;&gt;j -->
<g id="edge2" class="edge">
<title>σ_j&#45;&gt;j</title>
<path fill="none" stroke="black" d="M224.24,-267.35C243.49,-252.69 266.63,-235.05 286.16,-220.18"/>
<polygon fill="black" stroke="black" points="288.45,-222.83 294.28,-213.99 284.2,-217.26 288.45,-222.83"/>
</g>
<!-- σ_a -->
<g id="node9" class="node">
<title>σ_a</title>
<ellipse fill="none" stroke="black" cx="1766.79" cy="-298.41" rx="69.09" ry="37.45"/>
<text text-anchor="middle" x="1766.79" y="-309.71" font-family="Times-Roman" font-size="14.00">σ_a</text>
<text text-anchor="middle" x="1766.79" y="-294.71" font-family="Times-Roman" font-size="14.00">~</text>
<text text-anchor="middle" x="1766.79" y="-279.71" font-family="Times-Roman" font-size="14.00">HalfNormal</text>
</g>
<!-- σ_a&#45;&gt;a -->
<g id="edge12" class="edge">
<title>σ_a&#45;&gt;a</title>
<path fill="none" stroke="black" d="M1715.36,-272.89C1706.53,-268.81 1697.42,-264.69 1688.79,-260.93 1651.57,-244.7 1609.5,-227.61 1575.5,-214.1"/>
<polygon fill="black" stroke="black" points="1576.73,-210.82 1566.14,-210.39 1574.15,-217.33 1576.73,-210.82"/>
</g>
<!-- μ_h -->
<g id="node10" class="node">
<title>μ_h</title>
<ellipse fill="none" stroke="black" cx="990.79" cy="-298.41" rx="48.58" ry="37.45"/>
<text text-anchor="middle" x="990.79" y="-309.71" font-family="Times-Roman" font-size="14.00">μ_h</text>
<text text-anchor="middle" x="990.79" y="-294.71" font-family="Times-Roman" font-size="14.00">~</text>
<text text-anchor="middle" x="990.79" y="-279.71" font-family="Times-Roman" font-size="14.00">Normal</text>
</g>
<!-- μ_h&#45;&gt;h -->
<g id="edge5" class="edge">
<title>μ_h&#45;&gt;h</title>
<path fill="none" stroke="black" d="M954.73,-272.86C947.63,-268.57 940.11,-264.38 932.79,-260.93 883.28,-237.59 824.22,-218.52 779.92,-205.8"/>
<polygon fill="black" stroke="black" points="780.7,-202.39 770.13,-203.03 778.79,-209.12 780.7,-202.39"/>
</g>
<!-- j_offset -->
<g id="node11" class="node">
<title>j_offset</title>
<ellipse fill="none" stroke="black" cx="320.79" cy="-298.41" rx="48.58" ry="37.45"/>
<text text-anchor="middle" x="320.79" y="-309.71" font-family="Times-Roman" font-size="14.00">j_offset</text>
<text text-anchor="middle" x="320.79" y="-294.71" font-family="Times-Roman" font-size="14.00">~</text>
<text text-anchor="middle" x="320.79" y="-279.71" font-family="Times-Roman" font-size="14.00">Normal</text>
</g>
<!-- j_offset&#45;&gt;j -->
<g id="edge1" class="edge">
<title>j_offset&#45;&gt;j</title>
<path fill="none" stroke="black" d="M323.14,-260.82C323.89,-249.09 324.73,-236.1 325.48,-224.41"/>
<polygon fill="black" stroke="black" points="328.99,-224.31 326.14,-214.11 322.01,-223.86 328.99,-224.31"/>
</g>
<!-- σ&#45;&gt;lfc -->
<g id="edge14" class="edge">
<title>σ&#45;&gt;lfc</title>
<path fill="none" stroke="black" d="M465.13,-260.97C475.36,-223.72 496.02,-166.33 532.79,-129.95 550.2,-112.73 574.21,-100.68 596.11,-92.52"/>
<polygon fill="black" stroke="black" points="597.41,-95.77 605.67,-89.14 595.07,-89.17 597.41,-95.77"/>
</g>
<!-- j&#45;&gt;lfc -->
<g id="edge15" class="edge">
<title>j&#45;&gt;lfc</title>
<path fill="none" stroke="black" d="M384.12,-162.99C410.53,-152.34 442.56,-139.93 471.79,-129.95 513.04,-115.88 560.39,-102.17 596.17,-92.3"/>
<polygon fill="black" stroke="black" points="597.22,-95.64 605.94,-89.61 595.37,-88.89 597.22,-95.64"/>
</g>
<!-- h_offset -->
<g id="node14" class="node">
<title>h_offset</title>
<ellipse fill="none" stroke="black" cx="713.79" cy="-298.41" rx="52.15" ry="37.45"/>
<text text-anchor="middle" x="713.79" y="-309.71" font-family="Times-Roman" font-size="14.00">h_offset</text>
<text text-anchor="middle" x="713.79" y="-294.71" font-family="Times-Roman" font-size="14.00">~</text>
<text text-anchor="middle" x="713.79" y="-279.71" font-family="Times-Roman" font-size="14.00">Normal</text>
</g>
<!-- h_offset&#45;&gt;h -->
<g id="edge4" class="edge">
<title>h_offset&#45;&gt;h</title>
<path fill="none" stroke="black" d="M713.79,-260.82C713.79,-249.09 713.79,-236.1 713.79,-224.41"/>
<polygon fill="black" stroke="black" points="717.29,-224.11 713.79,-214.11 710.29,-224.11 717.29,-224.11"/>
</g>
<!-- h&#45;&gt;lfc -->
<g id="edge17" class="edge">
<title>h&#45;&gt;lfc</title>
<path fill="none" stroke="black" d="M699.25,-160.9C692.33,-148.72 683.85,-133.83 675.99,-120.01"/>
<polygon fill="black" stroke="black" points="678.92,-118.09 670.93,-111.13 672.84,-121.55 678.92,-118.09"/>
</g>
<!-- d_offset -->
<g id="node16" class="node">
<title>d_offset</title>
<ellipse fill="none" stroke="black" cx="1111.79" cy="-298.41" rx="52.15" ry="37.45"/>
<text text-anchor="middle" x="1111.79" y="-309.71" font-family="Times-Roman" font-size="14.00">d_offset</text>
<text text-anchor="middle" x="1111.79" y="-294.71" font-family="Times-Roman" font-size="14.00">~</text>
<text text-anchor="middle" x="1111.79" y="-279.71" font-family="Times-Roman" font-size="14.00">Normal</text>
</g>
<!-- d_offset&#45;&gt;d -->
<g id="edge8" class="edge">
<title>d_offset&#45;&gt;d</title>
<path fill="none" stroke="black" d="M1111.79,-260.82C1111.79,-249.09 1111.79,-236.1 1111.79,-224.41"/>
<polygon fill="black" stroke="black" points="1115.29,-224.11 1111.79,-214.11 1108.29,-224.11 1115.29,-224.11"/>
</g>
<!-- d&#45;&gt;lfc -->
<g id="edge16" class="edge">
<title>d&#45;&gt;lfc</title>
<path fill="none" stroke="black" d="M1055.39,-173.09C966.91,-152.13 796.5,-111.76 708.09,-90.81"/>
<polygon fill="black" stroke="black" points="708.78,-87.38 698.24,-88.48 707.17,-94.19 708.78,-87.38"/>
</g>
<!-- a_offset -->
<g id="node18" class="node">
<title>a_offset</title>
<ellipse fill="none" stroke="black" cx="1509.79" cy="-298.41" rx="52.15" ry="37.45"/>
<text text-anchor="middle" x="1509.79" y="-309.71" font-family="Times-Roman" font-size="14.00">a_offset</text>
<text text-anchor="middle" x="1509.79" y="-294.71" font-family="Times-Roman" font-size="14.00">~</text>
<text text-anchor="middle" x="1509.79" y="-279.71" font-family="Times-Roman" font-size="14.00">Normal</text>
</g>
<!-- a_offset&#45;&gt;a -->
<g id="edge11" class="edge">
<title>a_offset&#45;&gt;a</title>
<path fill="none" stroke="black" d="M1509.79,-260.82C1509.79,-249.09 1509.79,-236.1 1509.79,-224.41"/>
<polygon fill="black" stroke="black" points="1513.29,-224.11 1509.79,-214.11 1506.29,-224.11 1513.29,-224.11"/>
</g>
<!-- a&#45;&gt;lfc -->
<g id="edge18" class="edge">
<title>a&#45;&gt;lfc</title>
<path fill="none" stroke="black" d="M1453.63,-175.59C1388.11,-163.22 1276.42,-143.01 1179.79,-129.95 1010.02,-107.01 808.26,-89.71 710.59,-81.96"/>
<polygon fill="black" stroke="black" points="710.58,-78.45 700.33,-81.15 710.03,-85.43 710.58,-78.45"/>
</g>
</g>
</svg>
