<?xml version="1.0" encoding="UTF-8" standalone="no"?>
<!DOCTYPE svg PUBLIC "-//W3C//DTD SVG 1.1//EN"
 "http://www.w3.org/Graphics/SVG/1.1/DTD/svg11.dtd">
<!-- Generated by graphviz version 2.47.0 (20210327.0129)
 -->
<!-- Pages: 1 -->
<svg width="1736pt" height="455pt"
 viewBox="0.00 0.00 1736.09 454.84" xmlns="http://www.w3.org/2000/svg" xmlns:xlink="http://www.w3.org/1999/xlink">
<g id="graph0" class="graph" transform="scale(1 1) rotate(0) translate(4 450.84)">
<polygon fill="white" stroke="transparent" points="-4,4 -4,-450.84 1732.09,-450.84 1732.09,4 -4,4"/>
<g id="clust1" class="cluster">
<title>cluster4</title>
<path fill="none" stroke="black" d="M275.79,-129.95C275.79,-129.95 521.79,-129.95 521.79,-129.95 527.79,-129.95 533.79,-135.95 533.79,-141.95 533.79,-141.95 533.79,-331.88 533.79,-331.88 533.79,-337.88 527.79,-343.88 521.79,-343.88 521.79,-343.88 275.79,-343.88 275.79,-343.88 269.79,-343.88 263.79,-337.88 263.79,-331.88 263.79,-331.88 263.79,-141.95 263.79,-141.95 263.79,-135.95 269.79,-129.95 275.79,-129.95"/>
<text text-anchor="middle" x="520.79" y="-137.75" font-family="Times-Roman" font-size="14.00">4</text>
</g>
<g id="clust2" class="cluster">
<title>cluster64 x 10</title>
<path fill="none" stroke="black" d="M553.79,-129.95C553.79,-129.95 657.79,-129.95 657.79,-129.95 663.79,-129.95 669.79,-135.95 669.79,-141.95 669.79,-141.95 669.79,-331.88 669.79,-331.88 669.79,-337.88 663.79,-343.88 657.79,-343.88 657.79,-343.88 553.79,-343.88 553.79,-343.88 547.79,-343.88 541.79,-337.88 541.79,-331.88 541.79,-331.88 541.79,-141.95 541.79,-141.95 541.79,-135.95 547.79,-129.95 553.79,-129.95"/>
<text text-anchor="middle" x="634.79" y="-137.75" font-family="Times-Roman" font-size="14.00">64 x 10</text>
</g>
<g id="clust3" class="cluster">
<title>cluster10</title>
<path fill="none" stroke="black" d="M951.79,-129.95C951.79,-129.95 1055.79,-129.95 1055.79,-129.95 1061.79,-129.95 1067.79,-135.95 1067.79,-141.95 1067.79,-141.95 1067.79,-331.88 1067.79,-331.88 1067.79,-337.88 1061.79,-343.88 1055.79,-343.88 1055.79,-343.88 951.79,-343.88 951.79,-343.88 945.79,-343.88 939.79,-337.88 939.79,-331.88 939.79,-331.88 939.79,-141.95 939.79,-141.95 939.79,-135.95 945.79,-129.95 951.79,-129.95"/>
<text text-anchor="middle" x="1050.29" y="-137.75" font-family="Times-Roman" font-size="14.00">10</text>
</g>
<g id="clust4" class="cluster">
<title>cluster64</title>
<path fill="none" stroke="black" d="M1349.79,-129.95C1349.79,-129.95 1453.79,-129.95 1453.79,-129.95 1459.79,-129.95 1465.79,-135.95 1465.79,-141.95 1465.79,-141.95 1465.79,-331.88 1465.79,-331.88 1465.79,-337.88 1459.79,-343.88 1453.79,-343.88 1453.79,-343.88 1349.79,-343.88 1349.79,-343.88 1343.79,-343.88 1337.79,-337.88 1337.79,-331.88 1337.79,-331.88 1337.79,-141.95 1337.79,-141.95 1337.79,-135.95 1343.79,-129.95 1349.79,-129.95"/>
<text text-anchor="middle" x="1448.29" y="-137.75" font-family="Times-Roman" font-size="14.00">64</text>
</g>
<g id="clust5" class="cluster">
<title>cluster1,443</title>
<path fill="none" stroke="black" d="M501.79,-8C501.79,-8 591.79,-8 591.79,-8 597.79,-8 603.79,-14 603.79,-20 603.79,-20 603.79,-109.95 603.79,-109.95 603.79,-115.95 597.79,-121.95 591.79,-121.95 591.79,-121.95 501.79,-121.95 501.79,-121.95 495.79,-121.95 489.79,-115.95 489.79,-109.95 489.79,-109.95 489.79,-20 489.79,-20 489.79,-14 495.79,-8 501.79,-8"/>
<text text-anchor="middle" x="575.29" y="-15.8" font-family="Times-Roman" font-size="14.00">1,443</text>
</g>
<!-- i -->
<g id="node1" class="node">
<title>i</title>
<ellipse fill="none" stroke="black" cx="204.79" cy="-187.45" rx="48.58" ry="37.45"/>
<text text-anchor="middle" x="204.79" y="-198.75" font-family="Times-Roman" font-size="14.00">i</text>
<text text-anchor="middle" x="204.79" y="-183.75" font-family="Times-Roman" font-size="14.00">~</text>
<text text-anchor="middle" x="204.79" y="-168.75" font-family="Times-Roman" font-size="14.00">Normal</text>
</g>
<!-- lfc -->
<g id="node20" class="node">
<title>lfc</title>
<ellipse fill="lightgrey" stroke="black" cx="546.79" cy="-76.48" rx="48.58" ry="37.45"/>
<text text-anchor="middle" x="546.79" y="-87.78" font-family="Times-Roman" font-size="14.00">lfc</text>
<text text-anchor="middle" x="546.79" y="-72.78" font-family="Times-Roman" font-size="14.00">~</text>
<text text-anchor="middle" x="546.79" y="-57.78" font-family="Times-Roman" font-size="14.00">Normal</text>
</g>
<!-- i&#45;&gt;lfc -->
<g id="edge14" class="edge">
<title>i&#45;&gt;lfc</title>
<path fill="none" stroke="black" d="M229.07,-154.78C237.78,-145.43 248.31,-136.07 259.79,-129.95 331.93,-91.49 427.2,-80.67 487.75,-77.92"/>
<polygon fill="black" stroke="black" points="488.04,-81.41 497.9,-77.52 487.77,-74.42 488.04,-81.41"/>
</g>
<!-- σ_σ -->
<g id="node2" class="node">
<title>σ_σ</title>
<ellipse fill="none" stroke="black" cx="456.79" cy="-409.36" rx="69.09" ry="37.45"/>
<text text-anchor="middle" x="456.79" y="-420.66" font-family="Times-Roman" font-size="14.00">σ_σ</text>
<text text-anchor="middle" x="456.79" y="-405.66" font-family="Times-Roman" font-size="14.00">~</text>
<text text-anchor="middle" x="456.79" y="-390.66" font-family="Times-Roman" font-size="14.00">HalfNormal</text>
</g>
<!-- σ -->
<g id="node12" class="node">
<title>σ</title>
<ellipse fill="none" stroke="black" cx="456.79" cy="-298.41" rx="69.09" ry="37.45"/>
<text text-anchor="middle" x="456.79" y="-309.71" font-family="Times-Roman" font-size="14.00">σ</text>
<text text-anchor="middle" x="456.79" y="-294.71" font-family="Times-Roman" font-size="14.00">~</text>
<text text-anchor="middle" x="456.79" y="-279.71" font-family="Times-Roman" font-size="14.00">HalfNormal</text>
</g>
<!-- σ_σ&#45;&gt;σ -->
<g id="edge13" class="edge">
<title>σ_σ&#45;&gt;σ</title>
<path fill="none" stroke="black" d="M456.79,-371.78C456.79,-363.6 456.79,-354.82 456.79,-346.3"/>
<polygon fill="black" stroke="black" points="460.29,-346.08 456.79,-336.08 453.29,-346.08 460.29,-346.08"/>
</g>
<!-- μ_d -->
<g id="node3" class="node">
<title>μ_d</title>
<ellipse fill="none" stroke="black" cx="1124.79" cy="-298.41" rx="48.58" ry="37.45"/>
<text text-anchor="middle" x="1124.79" y="-309.71" font-family="Times-Roman" font-size="14.00">μ_d</text>
<text text-anchor="middle" x="1124.79" y="-294.71" font-family="Times-Roman" font-size="14.00">~</text>
<text text-anchor="middle" x="1124.79" y="-279.71" font-family="Times-Roman" font-size="14.00">Normal</text>
</g>
<!-- d -->
<g id="node16" class="node">
<title>d</title>
<polygon fill="none" stroke="black" points="1059.79,-213.95 947.79,-213.95 947.79,-160.95 1059.79,-160.95 1059.79,-213.95"/>
<text text-anchor="middle" x="1003.79" y="-198.75" font-family="Times-Roman" font-size="14.00">d</text>
<text text-anchor="middle" x="1003.79" y="-183.75" font-family="Times-Roman" font-size="14.00">~</text>
<text text-anchor="middle" x="1003.79" y="-168.75" font-family="Times-Roman" font-size="14.00">Deterministic</text>
</g>
<!-- μ_d&#45;&gt;d -->
<g id="edge7" class="edge">
<title>μ_d&#45;&gt;d</title>
<path fill="none" stroke="black" d="M1093.63,-269.35C1077.23,-254.59 1057.05,-236.41 1039.96,-221.03"/>
<polygon fill="black" stroke="black" points="1042.13,-218.27 1032.36,-214.18 1037.45,-223.47 1042.13,-218.27"/>
</g>
<!-- μ_j -->
<g id="node4" class="node">
<title>μ_j</title>
<ellipse fill="none" stroke="black" cx="48.79" cy="-298.41" rx="48.58" ry="37.45"/>
<text text-anchor="middle" x="48.79" y="-309.71" font-family="Times-Roman" font-size="14.00">μ_j</text>
<text text-anchor="middle" x="48.79" y="-294.71" font-family="Times-Roman" font-size="14.00">~</text>
<text text-anchor="middle" x="48.79" y="-279.71" font-family="Times-Roman" font-size="14.00">Normal</text>
</g>
<!-- j -->
<g id="node13" class="node">
<title>j</title>
<polygon fill="none" stroke="black" points="383.79,-213.95 271.79,-213.95 271.79,-160.95 383.79,-160.95 383.79,-213.95"/>
<text text-anchor="middle" x="327.79" y="-198.75" font-family="Times-Roman" font-size="14.00">j</text>
<text text-anchor="middle" x="327.79" y="-183.75" font-family="Times-Roman" font-size="14.00">~</text>
<text text-anchor="middle" x="327.79" y="-168.75" font-family="Times-Roman" font-size="14.00">Deterministic</text>
</g>
<!-- μ_j&#45;&gt;j -->
<g id="edge2" class="edge">
<title>μ_j&#45;&gt;j</title>
<path fill="none" stroke="black" d="M84.29,-272.5C91.51,-268.18 99.21,-264.08 106.79,-260.93 172.49,-233.61 196.43,-250.6 262.79,-224.93 267.57,-223.08 272.43,-220.93 277.22,-218.62"/>
<polygon fill="black" stroke="black" points="279,-221.64 286.33,-214 275.83,-215.4 279,-221.64"/>
</g>
<!-- σ_j -->
<g id="node5" class="node">
<title>σ_j</title>
<ellipse fill="none" stroke="black" cx="184.79" cy="-298.41" rx="69.09" ry="37.45"/>
<text text-anchor="middle" x="184.79" y="-309.71" font-family="Times-Roman" font-size="14.00">σ_j</text>
<text text-anchor="middle" x="184.79" y="-294.71" font-family="Times-Roman" font-size="14.00">~</text>
<text text-anchor="middle" x="184.79" y="-279.71" font-family="Times-Roman" font-size="14.00">HalfNormal</text>
</g>
<!-- σ_j&#45;&gt;j -->
<g id="edge3" class="edge">
<title>σ_j&#45;&gt;j</title>
<path fill="none" stroke="black" d="M224.24,-267.35C243.49,-252.69 266.63,-235.05 286.16,-220.18"/>
<polygon fill="black" stroke="black" points="288.45,-222.83 294.28,-213.99 284.2,-217.26 288.45,-222.83"/>
</g>
<!-- σ_d -->
<g id="node6" class="node">
<title>σ_d</title>
<ellipse fill="none" stroke="black" cx="1260.79" cy="-298.41" rx="69.09" ry="37.45"/>
<text text-anchor="middle" x="1260.79" y="-309.71" font-family="Times-Roman" font-size="14.00">σ_d</text>
<text text-anchor="middle" x="1260.79" y="-294.71" font-family="Times-Roman" font-size="14.00">~</text>
<text text-anchor="middle" x="1260.79" y="-279.71" font-family="Times-Roman" font-size="14.00">HalfNormal</text>
</g>
<!-- σ_d&#45;&gt;d -->
<g id="edge8" class="edge">
<title>σ_d&#45;&gt;d</title>
<path fill="none" stroke="black" d="M1209.36,-272.89C1200.53,-268.81 1191.42,-264.69 1182.79,-260.93 1145.57,-244.7 1103.5,-227.61 1069.5,-214.1"/>
<polygon fill="black" stroke="black" points="1070.73,-210.82 1060.14,-210.39 1068.15,-217.33 1070.73,-210.82"/>
</g>
<!-- μ_a -->
<g id="node7" class="node">
<title>μ_a</title>
<ellipse fill="none" stroke="black" cx="1522.79" cy="-298.41" rx="48.58" ry="37.45"/>
<text text-anchor="middle" x="1522.79" y="-309.71" font-family="Times-Roman" font-size="14.00">μ_a</text>
<text text-anchor="middle" x="1522.79" y="-294.71" font-family="Times-Roman" font-size="14.00">~</text>
<text text-anchor="middle" x="1522.79" y="-279.71" font-family="Times-Roman" font-size="14.00">Normal</text>
</g>
<!-- a -->
<g id="node18" class="node">
<title>a</title>
<polygon fill="none" stroke="black" points="1457.79,-213.95 1345.79,-213.95 1345.79,-160.95 1457.79,-160.95 1457.79,-213.95"/>
<text text-anchor="middle" x="1401.79" y="-198.75" font-family="Times-Roman" font-size="14.00">a</text>
<text text-anchor="middle" x="1401.79" y="-183.75" font-family="Times-Roman" font-size="14.00">~</text>
<text text-anchor="middle" x="1401.79" y="-168.75" font-family="Times-Roman" font-size="14.00">Deterministic</text>
</g>
<!-- μ_a&#45;&gt;a -->
<g id="edge10" class="edge">
<title>μ_a&#45;&gt;a</title>
<path fill="none" stroke="black" d="M1491.63,-269.35C1475.23,-254.59 1455.05,-236.41 1437.96,-221.03"/>
<polygon fill="black" stroke="black" points="1440.13,-218.27 1430.36,-214.18 1435.45,-223.47 1440.13,-218.27"/>
</g>
<!-- σ_a -->
<g id="node8" class="node">
<title>σ_a</title>
<ellipse fill="none" stroke="black" cx="1658.79" cy="-298.41" rx="69.09" ry="37.45"/>
<text text-anchor="middle" x="1658.79" y="-309.71" font-family="Times-Roman" font-size="14.00">σ_a</text>
<text text-anchor="middle" x="1658.79" y="-294.71" font-family="Times-Roman" font-size="14.00">~</text>
<text text-anchor="middle" x="1658.79" y="-279.71" font-family="Times-Roman" font-size="14.00">HalfNormal</text>
</g>
<!-- σ_a&#45;&gt;a -->
<g id="edge11" class="edge">
<title>σ_a&#45;&gt;a</title>
<path fill="none" stroke="black" d="M1607.36,-272.89C1598.53,-268.81 1589.42,-264.69 1580.79,-260.93 1543.57,-244.7 1501.5,-227.61 1467.5,-214.1"/>
<polygon fill="black" stroke="black" points="1468.73,-210.82 1458.14,-210.39 1466.15,-217.33 1468.73,-210.82"/>
</g>
<!-- μ_h -->
<g id="node9" class="node">
<title>μ_h</title>
<ellipse fill="none" stroke="black" cx="726.79" cy="-298.41" rx="48.58" ry="37.45"/>
<text text-anchor="middle" x="726.79" y="-309.71" font-family="Times-Roman" font-size="14.00">μ_h</text>
<text text-anchor="middle" x="726.79" y="-294.71" font-family="Times-Roman" font-size="14.00">~</text>
<text text-anchor="middle" x="726.79" y="-279.71" font-family="Times-Roman" font-size="14.00">Normal</text>
</g>
<!-- h -->
<g id="node15" class="node">
<title>h</title>
<polygon fill="none" stroke="black" points="661.79,-213.95 549.79,-213.95 549.79,-160.95 661.79,-160.95 661.79,-213.95"/>
<text text-anchor="middle" x="605.79" y="-198.75" font-family="Times-Roman" font-size="14.00">h</text>
<text text-anchor="middle" x="605.79" y="-183.75" font-family="Times-Roman" font-size="14.00">~</text>
<text text-anchor="middle" x="605.79" y="-168.75" font-family="Times-Roman" font-size="14.00">Deterministic</text>
</g>
<!-- μ_h&#45;&gt;h -->
<g id="edge4" class="edge">
<title>μ_h&#45;&gt;h</title>
<path fill="none" stroke="black" d="M695.63,-269.35C679.23,-254.59 659.05,-236.41 641.96,-221.03"/>
<polygon fill="black" stroke="black" points="644.13,-218.27 634.36,-214.18 639.45,-223.47 644.13,-218.27"/>
</g>
<!-- σ_h -->
<g id="node10" class="node">
<title>σ_h</title>
<ellipse fill="none" stroke="black" cx="862.79" cy="-298.41" rx="69.09" ry="37.45"/>
<text text-anchor="middle" x="862.79" y="-309.71" font-family="Times-Roman" font-size="14.00">σ_h</text>
<text text-anchor="middle" x="862.79" y="-294.71" font-family="Times-Roman" font-size="14.00">~</text>
<text text-anchor="middle" x="862.79" y="-279.71" font-family="Times-Roman" font-size="14.00">HalfNormal</text>
</g>
<!-- σ_h&#45;&gt;h -->
<g id="edge6" class="edge">
<title>σ_h&#45;&gt;h</title>
<path fill="none" stroke="black" d="M811.36,-272.89C802.53,-268.81 793.42,-264.69 784.79,-260.93 747.57,-244.7 705.5,-227.61 671.5,-214.1"/>
<polygon fill="black" stroke="black" points="672.73,-210.82 662.14,-210.39 670.15,-217.33 672.73,-210.82"/>
</g>
<!-- j_offset -->
<g id="node11" class="node">
<title>j_offset</title>
<ellipse fill="none" stroke="black" cx="320.79" cy="-298.41" rx="48.58" ry="37.45"/>
<text text-anchor="middle" x="320.79" y="-309.71" font-family="Times-Roman" font-size="14.00">j_offset</text>
<text text-anchor="middle" x="320.79" y="-294.71" font-family="Times-Roman" font-size="14.00">~</text>
<text text-anchor="middle" x="320.79" y="-279.71" font-family="Times-Roman" font-size="14.00">Normal</text>
</g>
<!-- j_offset&#45;&gt;j -->
<g id="edge1" class="edge">
<title>j_offset&#45;&gt;j</title>
<path fill="none" stroke="black" d="M323.14,-260.82C323.89,-249.09 324.73,-236.1 325.48,-224.41"/>
<polygon fill="black" stroke="black" points="328.99,-224.31 326.14,-214.11 322.01,-223.86 328.99,-224.31"/>
</g>
<!-- σ&#45;&gt;lfc -->
<g id="edge18" class="edge">
<title>σ&#45;&gt;lfc</title>
<path fill="none" stroke="black" d="M471.45,-261.58C487.04,-223.49 511.71,-163.2 528.55,-122.06"/>
<polygon fill="black" stroke="black" points="531.89,-123.14 532.43,-112.56 525.41,-120.49 531.89,-123.14"/>
</g>
<!-- j&#45;&gt;lfc -->
<g id="edge16" class="edge">
<title>j&#45;&gt;lfc</title>
<path fill="none" stroke="black" d="M379.14,-160.9C414.76,-143.17 461.97,-119.69 497.2,-102.15"/>
<polygon fill="black" stroke="black" points="498.95,-105.19 506.35,-97.6 495.84,-98.92 498.95,-105.19"/>
</g>
<!-- h_offset -->
<g id="node14" class="node">
<title>h_offset</title>
<ellipse fill="none" stroke="black" cx="605.79" cy="-298.41" rx="52.15" ry="37.45"/>
<text text-anchor="middle" x="605.79" y="-309.71" font-family="Times-Roman" font-size="14.00">h_offset</text>
<text text-anchor="middle" x="605.79" y="-294.71" font-family="Times-Roman" font-size="14.00">~</text>
<text text-anchor="middle" x="605.79" y="-279.71" font-family="Times-Roman" font-size="14.00">Normal</text>
</g>
<!-- h_offset&#45;&gt;h -->
<g id="edge5" class="edge">
<title>h_offset&#45;&gt;h</title>
<path fill="none" stroke="black" d="M605.79,-260.82C605.79,-249.09 605.79,-236.1 605.79,-224.41"/>
<polygon fill="black" stroke="black" points="609.29,-224.11 605.79,-214.11 602.29,-224.11 609.29,-224.11"/>
</g>
<!-- h&#45;&gt;lfc -->
<g id="edge19" class="edge">
<title>h&#45;&gt;lfc</title>
<path fill="none" stroke="black" d="M591.96,-160.9C585.42,-148.83 577.44,-134.08 570.01,-120.36"/>
<polygon fill="black" stroke="black" points="573.07,-118.66 565.23,-111.53 566.91,-121.99 573.07,-118.66"/>
</g>
<!-- d&#45;&gt;lfc -->
<g id="edge17" class="edge">
<title>d&#45;&gt;lfc</title>
<path fill="none" stroke="black" d="M947.75,-173.09C859.97,-152.16 691,-111.86 603.07,-90.9"/>
<polygon fill="black" stroke="black" points="603.81,-87.48 593.27,-88.56 602.19,-94.28 603.81,-87.48"/>
</g>
<!-- d_offset -->
<g id="node17" class="node">
<title>d_offset</title>
<ellipse fill="none" stroke="black" cx="1003.79" cy="-298.41" rx="52.15" ry="37.45"/>
<text text-anchor="middle" x="1003.79" y="-309.71" font-family="Times-Roman" font-size="14.00">d_offset</text>
<text text-anchor="middle" x="1003.79" y="-294.71" font-family="Times-Roman" font-size="14.00">~</text>
<text text-anchor="middle" x="1003.79" y="-279.71" font-family="Times-Roman" font-size="14.00">Normal</text>
</g>
<!-- d_offset&#45;&gt;d -->
<g id="edge9" class="edge">
<title>d_offset&#45;&gt;d</title>
<path fill="none" stroke="black" d="M1003.79,-260.82C1003.79,-249.09 1003.79,-236.1 1003.79,-224.41"/>
<polygon fill="black" stroke="black" points="1007.29,-224.11 1003.79,-214.11 1000.29,-224.11 1007.29,-224.11"/>
</g>
<!-- a&#45;&gt;lfc -->
<g id="edge15" class="edge">
<title>a&#45;&gt;lfc</title>
<path fill="none" stroke="black" d="M1345.63,-175.6C1280.1,-163.23 1168.41,-143.04 1071.79,-129.95 903.2,-107.12 702.89,-89.8 605.63,-82.01"/>
<polygon fill="black" stroke="black" points="605.66,-78.5 595.42,-81.19 605.11,-85.48 605.66,-78.5"/>
</g>
<!-- a_offset -->
<g id="node19" class="node">
<title>a_offset</title>
<ellipse fill="none" stroke="black" cx="1401.79" cy="-298.41" rx="52.15" ry="37.45"/>
<text text-anchor="middle" x="1401.79" y="-309.71" font-family="Times-Roman" font-size="14.00">a_offset</text>
<text text-anchor="middle" x="1401.79" y="-294.71" font-family="Times-Roman" font-size="14.00">~</text>
<text text-anchor="middle" x="1401.79" y="-279.71" font-family="Times-Roman" font-size="14.00">Normal</text>
</g>
<!-- a_offset&#45;&gt;a -->
<g id="edge12" class="edge">
<title>a_offset&#45;&gt;a</title>
<path fill="none" stroke="black" d="M1401.79,-260.82C1401.79,-249.09 1401.79,-236.1 1401.79,-224.41"/>
<polygon fill="black" stroke="black" points="1405.29,-224.11 1401.79,-214.11 1398.29,-224.11 1405.29,-224.11"/>
</g>
</g>
</svg>
