<?xml version="1.0" encoding="UTF-8" standalone="no"?>
<!DOCTYPE svg PUBLIC "-//W3C//DTD SVG 1.1//EN"
 "http://www.w3.org/Graphics/SVG/1.1/DTD/svg11.dtd">
<!-- Generated by graphviz version 2.47.0 (20210327.0129)
 -->
<!-- Pages: 1 -->
<svg width="1845pt" height="455pt"
 viewBox="0.00 0.00 1844.59 454.84" xmlns="http://www.w3.org/2000/svg" xmlns:xlink="http://www.w3.org/1999/xlink">
<g id="graph0" class="graph" transform="scale(1 1) rotate(0) translate(4 450.84)">
<polygon fill="white" stroke="transparent" points="-4,4 -4,-450.84 1840.59,-450.84 1840.59,4 -4,4"/>
<g id="clust1" class="cluster">
<title>cluster4</title>
<path fill="none" stroke="black" d="M276.3,-129.95C276.3,-129.95 522.3,-129.95 522.3,-129.95 528.3,-129.95 534.3,-135.95 534.3,-141.95 534.3,-141.95 534.3,-331.88 534.3,-331.88 534.3,-337.88 528.3,-343.88 522.3,-343.88 522.3,-343.88 276.3,-343.88 276.3,-343.88 270.3,-343.88 264.3,-337.88 264.3,-331.88 264.3,-331.88 264.3,-141.95 264.3,-141.95 264.3,-135.95 270.3,-129.95 276.3,-129.95"/>
<text text-anchor="middle" x="521.3" y="-137.75" font-family="Times-Roman" font-size="14.00">4</text>
</g>
<g id="clust2" class="cluster">
<title>cluster64 x 10</title>
<path fill="none" stroke="black" d="M662.3,-129.95C662.3,-129.95 766.3,-129.95 766.3,-129.95 772.3,-129.95 778.3,-135.95 778.3,-141.95 778.3,-141.95 778.3,-331.88 778.3,-331.88 778.3,-337.88 772.3,-343.88 766.3,-343.88 766.3,-343.88 662.3,-343.88 662.3,-343.88 656.3,-343.88 650.3,-337.88 650.3,-331.88 650.3,-331.88 650.3,-141.95 650.3,-141.95 650.3,-135.95 656.3,-129.95 662.3,-129.95"/>
<text text-anchor="middle" x="743.3" y="-137.75" font-family="Times-Roman" font-size="14.00">64 x 10</text>
</g>
<g id="clust3" class="cluster">
<title>cluster10</title>
<path fill="none" stroke="black" d="M1060.3,-129.95C1060.3,-129.95 1164.3,-129.95 1164.3,-129.95 1170.3,-129.95 1176.3,-135.95 1176.3,-141.95 1176.3,-141.95 1176.3,-331.88 1176.3,-331.88 1176.3,-337.88 1170.3,-343.88 1164.3,-343.88 1164.3,-343.88 1060.3,-343.88 1060.3,-343.88 1054.3,-343.88 1048.3,-337.88 1048.3,-331.88 1048.3,-331.88 1048.3,-141.95 1048.3,-141.95 1048.3,-135.95 1054.3,-129.95 1060.3,-129.95"/>
<text text-anchor="middle" x="1158.8" y="-137.75" font-family="Times-Roman" font-size="14.00">10</text>
</g>
<g id="clust4" class="cluster">
<title>cluster64</title>
<path fill="none" stroke="black" d="M1458.3,-129.95C1458.3,-129.95 1562.3,-129.95 1562.3,-129.95 1568.3,-129.95 1574.3,-135.95 1574.3,-141.95 1574.3,-141.95 1574.3,-331.88 1574.3,-331.88 1574.3,-337.88 1568.3,-343.88 1562.3,-343.88 1562.3,-343.88 1458.3,-343.88 1458.3,-343.88 1452.3,-343.88 1446.3,-337.88 1446.3,-331.88 1446.3,-331.88 1446.3,-141.95 1446.3,-141.95 1446.3,-135.95 1452.3,-129.95 1458.3,-129.95"/>
<text text-anchor="middle" x="1556.8" y="-137.75" font-family="Times-Roman" font-size="14.00">64</text>
</g>
<g id="clust5" class="cluster">
<title>cluster1,443</title>
<path fill="none" stroke="black" d="M607.3,-8C607.3,-8 697.3,-8 697.3,-8 703.3,-8 709.3,-14 709.3,-20 709.3,-20 709.3,-109.95 709.3,-109.95 709.3,-115.95 703.3,-121.95 697.3,-121.95 697.3,-121.95 607.3,-121.95 607.3,-121.95 601.3,-121.95 595.3,-115.95 595.3,-109.95 595.3,-109.95 595.3,-20 595.3,-20 595.3,-14 601.3,-8 607.3,-8"/>
<text text-anchor="middle" x="680.8" y="-15.8" font-family="Times-Roman" font-size="14.00">1,443</text>
</g>
<!-- σ_j -->
<g id="node1" class="node">
<title>σ_j</title>
<ellipse fill="none" stroke="black" cx="69.3" cy="-298.41" rx="69.09" ry="37.45"/>
<text text-anchor="middle" x="69.3" y="-309.71" font-family="Times-Roman" font-size="14.00">σ_j</text>
<text text-anchor="middle" x="69.3" y="-294.71" font-family="Times-Roman" font-size="14.00">~</text>
<text text-anchor="middle" x="69.3" y="-279.71" font-family="Times-Roman" font-size="14.00">HalfNormal</text>
</g>
<!-- j -->
<g id="node11" class="node">
<title>j</title>
<polygon fill="none" stroke="black" points="384.3,-213.95 272.3,-213.95 272.3,-160.95 384.3,-160.95 384.3,-213.95"/>
<text text-anchor="middle" x="328.3" y="-198.75" font-family="Times-Roman" font-size="14.00">j</text>
<text text-anchor="middle" x="328.3" y="-183.75" font-family="Times-Roman" font-size="14.00">~</text>
<text text-anchor="middle" x="328.3" y="-168.75" font-family="Times-Roman" font-size="14.00">Deterministic</text>
</g>
<!-- σ_j&#45;&gt;j -->
<g id="edge1" class="edge">
<title>σ_j&#45;&gt;j</title>
<path fill="none" stroke="black" d="M120.72,-272.86C129.54,-268.79 138.66,-264.68 147.3,-260.93 185.19,-244.5 228.09,-227.26 262.6,-213.72"/>
<polygon fill="black" stroke="black" points="264.07,-216.91 272.11,-210.01 261.52,-210.39 264.07,-216.91"/>
</g>
<!-- σ_d -->
<g id="node2" class="node">
<title>σ_d</title>
<ellipse fill="none" stroke="black" cx="1253.3" cy="-298.41" rx="69.09" ry="37.45"/>
<text text-anchor="middle" x="1253.3" y="-309.71" font-family="Times-Roman" font-size="14.00">σ_d</text>
<text text-anchor="middle" x="1253.3" y="-294.71" font-family="Times-Roman" font-size="14.00">~</text>
<text text-anchor="middle" x="1253.3" y="-279.71" font-family="Times-Roman" font-size="14.00">HalfNormal</text>
</g>
<!-- d -->
<g id="node17" class="node">
<title>d</title>
<polygon fill="none" stroke="black" points="1168.3,-213.95 1056.3,-213.95 1056.3,-160.95 1168.3,-160.95 1168.3,-213.95"/>
<text text-anchor="middle" x="1112.3" y="-198.75" font-family="Times-Roman" font-size="14.00">d</text>
<text text-anchor="middle" x="1112.3" y="-183.75" font-family="Times-Roman" font-size="14.00">~</text>
<text text-anchor="middle" x="1112.3" y="-168.75" font-family="Times-Roman" font-size="14.00">Deterministic</text>
</g>
<!-- σ_d&#45;&gt;d -->
<g id="edge8" class="edge">
<title>σ_d&#45;&gt;d</title>
<path fill="none" stroke="black" d="M1214.39,-267.35C1195.42,-252.69 1172.6,-235.05 1153.35,-220.18"/>
<polygon fill="black" stroke="black" points="1155.39,-217.33 1145.34,-213.99 1151.11,-222.87 1155.39,-217.33"/>
</g>
<!-- μ_d -->
<g id="node3" class="node">
<title>μ_d</title>
<ellipse fill="none" stroke="black" cx="1389.3" cy="-298.41" rx="48.58" ry="37.45"/>
<text text-anchor="middle" x="1389.3" y="-309.71" font-family="Times-Roman" font-size="14.00">μ_d</text>
<text text-anchor="middle" x="1389.3" y="-294.71" font-family="Times-Roman" font-size="14.00">~</text>
<text text-anchor="middle" x="1389.3" y="-279.71" font-family="Times-Roman" font-size="14.00">Normal</text>
</g>
<!-- μ_d&#45;&gt;d -->
<g id="edge9" class="edge">
<title>μ_d&#45;&gt;d</title>
<path fill="none" stroke="black" d="M1353.24,-272.86C1346.14,-268.57 1338.61,-264.38 1331.3,-260.93 1281.79,-237.59 1222.73,-218.52 1178.42,-205.8"/>
<polygon fill="black" stroke="black" points="1179.21,-202.39 1168.63,-203.03 1177.3,-209.12 1179.21,-202.39"/>
</g>
<!-- i -->
<g id="node4" class="node">
<title>i</title>
<ellipse fill="none" stroke="black" cx="591.3" cy="-187.45" rx="48.58" ry="37.45"/>
<text text-anchor="middle" x="591.3" y="-198.75" font-family="Times-Roman" font-size="14.00">i</text>
<text text-anchor="middle" x="591.3" y="-183.75" font-family="Times-Roman" font-size="14.00">~</text>
<text text-anchor="middle" x="591.3" y="-168.75" font-family="Times-Roman" font-size="14.00">Normal</text>
</g>
<!-- lfc -->
<g id="node20" class="node">
<title>lfc</title>
<ellipse fill="lightgrey" stroke="black" cx="652.3" cy="-76.48" rx="48.58" ry="37.45"/>
<text text-anchor="middle" x="652.3" y="-87.78" font-family="Times-Roman" font-size="14.00">lfc</text>
<text text-anchor="middle" x="652.3" y="-72.78" font-family="Times-Roman" font-size="14.00">~</text>
<text text-anchor="middle" x="652.3" y="-57.78" font-family="Times-Roman" font-size="14.00">Normal</text>
</g>
<!-- i&#45;&gt;lfc -->
<g id="edge16" class="edge">
<title>i&#45;&gt;lfc</title>
<path fill="none" stroke="black" d="M610.1,-152.87C615.89,-142.51 622.36,-130.96 628.45,-120.08"/>
<polygon fill="black" stroke="black" points="631.62,-121.57 633.45,-111.14 625.52,-118.16 631.62,-121.57"/>
</g>
<!-- σ_σ -->
<g id="node5" class="node">
<title>σ_σ</title>
<ellipse fill="none" stroke="black" cx="457.3" cy="-409.36" rx="69.09" ry="37.45"/>
<text text-anchor="middle" x="457.3" y="-420.66" font-family="Times-Roman" font-size="14.00">σ_σ</text>
<text text-anchor="middle" x="457.3" y="-405.66" font-family="Times-Roman" font-size="14.00">~</text>
<text text-anchor="middle" x="457.3" y="-390.66" font-family="Times-Roman" font-size="14.00">HalfNormal</text>
</g>
<!-- σ -->
<g id="node12" class="node">
<title>σ</title>
<ellipse fill="none" stroke="black" cx="457.3" cy="-298.41" rx="69.09" ry="37.45"/>
<text text-anchor="middle" x="457.3" y="-309.71" font-family="Times-Roman" font-size="14.00">σ</text>
<text text-anchor="middle" x="457.3" y="-294.71" font-family="Times-Roman" font-size="14.00">~</text>
<text text-anchor="middle" x="457.3" y="-279.71" font-family="Times-Roman" font-size="14.00">HalfNormal</text>
</g>
<!-- σ_σ&#45;&gt;σ -->
<g id="edge13" class="edge">
<title>σ_σ&#45;&gt;σ</title>
<path fill="none" stroke="black" d="M457.3,-371.78C457.3,-363.6 457.3,-354.82 457.3,-346.3"/>
<polygon fill="black" stroke="black" points="460.8,-346.08 457.3,-336.08 453.8,-346.08 460.8,-346.08"/>
</g>
<!-- μ_a -->
<g id="node6" class="node">
<title>μ_a</title>
<ellipse fill="none" stroke="black" cx="1631.3" cy="-298.41" rx="48.58" ry="37.45"/>
<text text-anchor="middle" x="1631.3" y="-309.71" font-family="Times-Roman" font-size="14.00">μ_a</text>
<text text-anchor="middle" x="1631.3" y="-294.71" font-family="Times-Roman" font-size="14.00">~</text>
<text text-anchor="middle" x="1631.3" y="-279.71" font-family="Times-Roman" font-size="14.00">Normal</text>
</g>
<!-- a -->
<g id="node18" class="node">
<title>a</title>
<polygon fill="none" stroke="black" points="1566.3,-213.95 1454.3,-213.95 1454.3,-160.95 1566.3,-160.95 1566.3,-213.95"/>
<text text-anchor="middle" x="1510.3" y="-198.75" font-family="Times-Roman" font-size="14.00">a</text>
<text text-anchor="middle" x="1510.3" y="-183.75" font-family="Times-Roman" font-size="14.00">~</text>
<text text-anchor="middle" x="1510.3" y="-168.75" font-family="Times-Roman" font-size="14.00">Deterministic</text>
</g>
<!-- μ_a&#45;&gt;a -->
<g id="edge12" class="edge">
<title>μ_a&#45;&gt;a</title>
<path fill="none" stroke="black" d="M1600.14,-269.35C1583.74,-254.59 1563.55,-236.41 1546.47,-221.03"/>
<polygon fill="black" stroke="black" points="1548.64,-218.27 1538.86,-214.18 1543.95,-223.47 1548.64,-218.27"/>
</g>
<!-- μ_h -->
<g id="node7" class="node">
<title>μ_h</title>
<ellipse fill="none" stroke="black" cx="835.3" cy="-298.41" rx="48.58" ry="37.45"/>
<text text-anchor="middle" x="835.3" y="-309.71" font-family="Times-Roman" font-size="14.00">μ_h</text>
<text text-anchor="middle" x="835.3" y="-294.71" font-family="Times-Roman" font-size="14.00">~</text>
<text text-anchor="middle" x="835.3" y="-279.71" font-family="Times-Roman" font-size="14.00">Normal</text>
</g>
<!-- h -->
<g id="node14" class="node">
<title>h</title>
<polygon fill="none" stroke="black" points="770.3,-213.95 658.3,-213.95 658.3,-160.95 770.3,-160.95 770.3,-213.95"/>
<text text-anchor="middle" x="714.3" y="-198.75" font-family="Times-Roman" font-size="14.00">h</text>
<text text-anchor="middle" x="714.3" y="-183.75" font-family="Times-Roman" font-size="14.00">~</text>
<text text-anchor="middle" x="714.3" y="-168.75" font-family="Times-Roman" font-size="14.00">Deterministic</text>
</g>
<!-- μ_h&#45;&gt;h -->
<g id="edge4" class="edge">
<title>μ_h&#45;&gt;h</title>
<path fill="none" stroke="black" d="M804.14,-269.35C787.74,-254.59 767.55,-236.41 750.47,-221.03"/>
<polygon fill="black" stroke="black" points="752.64,-218.27 742.86,-214.18 747.95,-223.47 752.64,-218.27"/>
</g>
<!-- μ_j -->
<g id="node8" class="node">
<title>μ_j</title>
<ellipse fill="none" stroke="black" cx="205.3" cy="-298.41" rx="48.58" ry="37.45"/>
<text text-anchor="middle" x="205.3" y="-309.71" font-family="Times-Roman" font-size="14.00">μ_j</text>
<text text-anchor="middle" x="205.3" y="-294.71" font-family="Times-Roman" font-size="14.00">~</text>
<text text-anchor="middle" x="205.3" y="-279.71" font-family="Times-Roman" font-size="14.00">Normal</text>
</g>
<!-- μ_j&#45;&gt;j -->
<g id="edge3" class="edge">
<title>μ_j&#45;&gt;j</title>
<path fill="none" stroke="black" d="M236.65,-269.63C253.32,-254.87 273.91,-236.63 291.34,-221.19"/>
<polygon fill="black" stroke="black" points="293.94,-223.56 299.11,-214.31 289.3,-218.32 293.94,-223.56"/>
</g>
<!-- σ_h -->
<g id="node9" class="node">
<title>σ_h</title>
<ellipse fill="none" stroke="black" cx="971.3" cy="-298.41" rx="69.09" ry="37.45"/>
<text text-anchor="middle" x="971.3" y="-309.71" font-family="Times-Roman" font-size="14.00">σ_h</text>
<text text-anchor="middle" x="971.3" y="-294.71" font-family="Times-Roman" font-size="14.00">~</text>
<text text-anchor="middle" x="971.3" y="-279.71" font-family="Times-Roman" font-size="14.00">HalfNormal</text>
</g>
<!-- σ_h&#45;&gt;h -->
<g id="edge6" class="edge">
<title>σ_h&#45;&gt;h</title>
<path fill="none" stroke="black" d="M919.86,-272.89C911.04,-268.81 901.93,-264.69 893.3,-260.93 856.07,-244.7 814.01,-227.61 780.01,-214.1"/>
<polygon fill="black" stroke="black" points="781.23,-210.82 770.65,-210.39 778.65,-217.33 781.23,-210.82"/>
</g>
<!-- σ_a -->
<g id="node10" class="node">
<title>σ_a</title>
<ellipse fill="none" stroke="black" cx="1767.3" cy="-298.41" rx="69.09" ry="37.45"/>
<text text-anchor="middle" x="1767.3" y="-309.71" font-family="Times-Roman" font-size="14.00">σ_a</text>
<text text-anchor="middle" x="1767.3" y="-294.71" font-family="Times-Roman" font-size="14.00">~</text>
<text text-anchor="middle" x="1767.3" y="-279.71" font-family="Times-Roman" font-size="14.00">HalfNormal</text>
</g>
<!-- σ_a&#45;&gt;a -->
<g id="edge11" class="edge">
<title>σ_a&#45;&gt;a</title>
<path fill="none" stroke="black" d="M1715.86,-272.89C1707.04,-268.81 1697.93,-264.69 1689.3,-260.93 1652.07,-244.7 1610.01,-227.61 1576.01,-214.1"/>
<polygon fill="black" stroke="black" points="1577.23,-210.82 1566.65,-210.39 1574.65,-217.33 1577.23,-210.82"/>
</g>
<!-- j&#45;&gt;lfc -->
<g id="edge17" class="edge">
<title>j&#45;&gt;lfc</title>
<path fill="none" stroke="black" d="M384.63,-162.99C411.04,-152.34 443.07,-139.93 472.3,-129.95 513.55,-115.88 560.9,-102.17 596.67,-92.3"/>
<polygon fill="black" stroke="black" points="597.73,-95.64 606.44,-89.61 595.87,-88.89 597.73,-95.64"/>
</g>
<!-- σ&#45;&gt;lfc -->
<g id="edge18" class="edge">
<title>σ&#45;&gt;lfc</title>
<path fill="none" stroke="black" d="M465.64,-260.97C475.86,-223.72 496.53,-166.33 533.3,-129.95 550.7,-112.73 574.72,-100.68 596.62,-92.52"/>
<polygon fill="black" stroke="black" points="597.91,-95.77 606.18,-89.14 595.58,-89.17 597.91,-95.77"/>
</g>
<!-- j_offset -->
<g id="node13" class="node">
<title>j_offset</title>
<ellipse fill="none" stroke="black" cx="321.3" cy="-298.41" rx="48.58" ry="37.45"/>
<text text-anchor="middle" x="321.3" y="-309.71" font-family="Times-Roman" font-size="14.00">j_offset</text>
<text text-anchor="middle" x="321.3" y="-294.71" font-family="Times-Roman" font-size="14.00">~</text>
<text text-anchor="middle" x="321.3" y="-279.71" font-family="Times-Roman" font-size="14.00">Normal</text>
</g>
<!-- j_offset&#45;&gt;j -->
<g id="edge2" class="edge">
<title>j_offset&#45;&gt;j</title>
<path fill="none" stroke="black" d="M323.65,-260.82C324.4,-249.09 325.24,-236.1 325.99,-224.41"/>
<polygon fill="black" stroke="black" points="329.5,-224.31 326.65,-214.11 322.51,-223.86 329.5,-224.31"/>
</g>
<!-- h&#45;&gt;lfc -->
<g id="edge14" class="edge">
<title>h&#45;&gt;lfc</title>
<path fill="none" stroke="black" d="M699.76,-160.9C692.83,-148.72 684.36,-133.83 676.49,-120.01"/>
<polygon fill="black" stroke="black" points="679.43,-118.09 671.44,-111.13 673.34,-121.55 679.43,-118.09"/>
</g>
<!-- h_offset -->
<g id="node15" class="node">
<title>h_offset</title>
<ellipse fill="none" stroke="black" cx="714.3" cy="-298.41" rx="52.15" ry="37.45"/>
<text text-anchor="middle" x="714.3" y="-309.71" font-family="Times-Roman" font-size="14.00">h_offset</text>
<text text-anchor="middle" x="714.3" y="-294.71" font-family="Times-Roman" font-size="14.00">~</text>
<text text-anchor="middle" x="714.3" y="-279.71" font-family="Times-Roman" font-size="14.00">Normal</text>
</g>
<!-- h_offset&#45;&gt;h -->
<g id="edge5" class="edge">
<title>h_offset&#45;&gt;h</title>
<path fill="none" stroke="black" d="M714.3,-260.82C714.3,-249.09 714.3,-236.1 714.3,-224.41"/>
<polygon fill="black" stroke="black" points="717.8,-224.11 714.3,-214.11 710.8,-224.11 717.8,-224.11"/>
</g>
<!-- d_offset -->
<g id="node16" class="node">
<title>d_offset</title>
<ellipse fill="none" stroke="black" cx="1112.3" cy="-298.41" rx="52.15" ry="37.45"/>
<text text-anchor="middle" x="1112.3" y="-309.71" font-family="Times-Roman" font-size="14.00">d_offset</text>
<text text-anchor="middle" x="1112.3" y="-294.71" font-family="Times-Roman" font-size="14.00">~</text>
<text text-anchor="middle" x="1112.3" y="-279.71" font-family="Times-Roman" font-size="14.00">Normal</text>
</g>
<!-- d_offset&#45;&gt;d -->
<g id="edge7" class="edge">
<title>d_offset&#45;&gt;d</title>
<path fill="none" stroke="black" d="M1112.3,-260.82C1112.3,-249.09 1112.3,-236.1 1112.3,-224.41"/>
<polygon fill="black" stroke="black" points="1115.8,-224.11 1112.3,-214.11 1108.8,-224.11 1115.8,-224.11"/>
</g>
<!-- d&#45;&gt;lfc -->
<g id="edge15" class="edge">
<title>d&#45;&gt;lfc</title>
<path fill="none" stroke="black" d="M1055.89,-173.09C967.42,-152.13 797.01,-111.76 708.6,-90.81"/>
<polygon fill="black" stroke="black" points="709.29,-87.38 698.75,-88.48 707.67,-94.19 709.29,-87.38"/>
</g>
<!-- a&#45;&gt;lfc -->
<g id="edge19" class="edge">
<title>a&#45;&gt;lfc</title>
<path fill="none" stroke="black" d="M1454.13,-175.59C1388.61,-163.22 1276.92,-143.01 1180.3,-129.95 1010.52,-107.01 808.77,-89.71 711.1,-81.96"/>
<polygon fill="black" stroke="black" points="711.08,-78.45 700.84,-81.15 710.53,-85.43 711.08,-78.45"/>
</g>
<!-- a_offset -->
<g id="node19" class="node">
<title>a_offset</title>
<ellipse fill="none" stroke="black" cx="1510.3" cy="-298.41" rx="52.15" ry="37.45"/>
<text text-anchor="middle" x="1510.3" y="-309.71" font-family="Times-Roman" font-size="14.00">a_offset</text>
<text text-anchor="middle" x="1510.3" y="-294.71" font-family="Times-Roman" font-size="14.00">~</text>
<text text-anchor="middle" x="1510.3" y="-279.71" font-family="Times-Roman" font-size="14.00">Normal</text>
</g>
<!-- a_offset&#45;&gt;a -->
<g id="edge10" class="edge">
<title>a_offset&#45;&gt;a</title>
<path fill="none" stroke="black" d="M1510.3,-260.82C1510.3,-249.09 1510.3,-236.1 1510.3,-224.41"/>
<polygon fill="black" stroke="black" points="1513.8,-224.11 1510.3,-214.11 1506.8,-224.11 1513.8,-224.11"/>
</g>
</g>
</svg>
