<?xml version="1.0" encoding="UTF-8" standalone="no"?>
<!DOCTYPE svg PUBLIC "-//W3C//DTD SVG 1.1//EN"
 "http://www.w3.org/Graphics/SVG/1.1/DTD/svg11.dtd">
<!-- Generated by graphviz version 2.47.0 (20210327.0129)
 -->
<!-- Pages: 1 -->
<svg width="1080pt" height="469pt"
 viewBox="0.00 0.00 1079.58 468.81" xmlns="http://www.w3.org/2000/svg" xmlns:xlink="http://www.w3.org/1999/xlink">
<g id="graph0" class="graph" transform="scale(1 1) rotate(0) translate(4 464.81)">
<polygon fill="white" stroke="transparent" points="-4,4 -4,-464.81 1075.58,-464.81 1075.58,4 -4,4"/>
<g id="clust1" class="cluster">
<title>cluster64</title>
<path fill="none" stroke="black" d="M432.79,-243.91C432.79,-243.91 522.79,-243.91 522.79,-243.91 528.79,-243.91 534.79,-249.91 534.79,-255.91 534.79,-255.91 534.79,-345.86 534.79,-345.86 534.79,-351.86 528.79,-357.86 522.79,-357.86 522.79,-357.86 432.79,-357.86 432.79,-357.86 426.79,-357.86 420.79,-351.86 420.79,-345.86 420.79,-345.86 420.79,-255.91 420.79,-255.91 420.79,-249.91 426.79,-243.91 432.79,-243.91"/>
<text text-anchor="middle" x="517.29" y="-251.71" font-family="Times-Roman" font-size="14.00">64</text>
</g>
<g id="clust2" class="cluster">
<title>cluster64 x 10</title>
<path fill="none" stroke="black" d="M619.79,-243.91C619.79,-243.91 709.79,-243.91 709.79,-243.91 715.79,-243.91 721.79,-249.91 721.79,-255.91 721.79,-255.91 721.79,-345.86 721.79,-345.86 721.79,-351.86 715.79,-357.86 709.79,-357.86 709.79,-357.86 619.79,-357.86 619.79,-357.86 613.79,-357.86 607.79,-351.86 607.79,-345.86 607.79,-345.86 607.79,-255.91 607.79,-255.91 607.79,-249.91 613.79,-243.91 619.79,-243.91"/>
<text text-anchor="middle" x="686.79" y="-251.71" font-family="Times-Roman" font-size="14.00">64 x 10</text>
</g>
<g id="clust3" class="cluster">
<title>cluster4</title>
<path fill="none" stroke="black" d="M764.79,-243.91C764.79,-243.91 854.79,-243.91 854.79,-243.91 860.79,-243.91 866.79,-249.91 866.79,-255.91 866.79,-255.91 866.79,-345.86 866.79,-345.86 866.79,-351.86 860.79,-357.86 854.79,-357.86 854.79,-357.86 764.79,-357.86 764.79,-357.86 758.79,-357.86 752.79,-351.86 752.79,-345.86 752.79,-345.86 752.79,-255.91 752.79,-255.91 752.79,-249.91 758.79,-243.91 764.79,-243.91"/>
<text text-anchor="middle" x="853.79" y="-251.71" font-family="Times-Roman" font-size="14.00">4</text>
</g>
<g id="clust4" class="cluster">
<title>cluster10</title>
<path fill="none" stroke="black" d="M139.79,-243.91C139.79,-243.91 229.79,-243.91 229.79,-243.91 235.79,-243.91 241.79,-249.91 241.79,-255.91 241.79,-255.91 241.79,-345.86 241.79,-345.86 241.79,-351.86 235.79,-357.86 229.79,-357.86 229.79,-357.86 139.79,-357.86 139.79,-357.86 133.79,-357.86 127.79,-351.86 127.79,-345.86 127.79,-345.86 127.79,-255.91 127.79,-255.91 127.79,-249.91 133.79,-243.91 139.79,-243.91"/>
<text text-anchor="middle" x="224.29" y="-251.71" font-family="Times-Roman" font-size="14.00">10</text>
</g>
<g id="clust5" class="cluster">
<title>cluster1,443</title>
<path fill="none" stroke="black" d="M612.79,-8C612.79,-8 716.79,-8 716.79,-8 722.79,-8 728.79,-14 728.79,-20 728.79,-20 728.79,-212.93 728.79,-212.93 728.79,-218.93 722.79,-224.93 716.79,-224.93 716.79,-224.93 612.79,-224.93 612.79,-224.93 606.79,-224.93 600.79,-218.93 600.79,-212.93 600.79,-212.93 600.79,-20 600.79,-20 600.79,-14 606.79,-8 612.79,-8"/>
<text text-anchor="middle" x="700.29" y="-15.8" font-family="Times-Roman" font-size="14.00">1,443</text>
</g>
<g id="clust6" class="cluster">
<title>cluster192</title>
<path fill="none" stroke="black" d="M814.79,-121.95C814.79,-121.95 944.79,-121.95 944.79,-121.95 950.79,-121.95 956.79,-127.95 956.79,-133.95 956.79,-133.95 956.79,-223.91 956.79,-223.91 956.79,-229.91 950.79,-235.91 944.79,-235.91 944.79,-235.91 814.79,-235.91 814.79,-235.91 808.79,-235.91 802.79,-229.91 802.79,-223.91 802.79,-223.91 802.79,-133.95 802.79,-133.95 802.79,-127.95 808.79,-121.95 814.79,-121.95"/>
<text text-anchor="middle" x="934.79" y="-129.75" font-family="Times-Roman" font-size="14.00">192</text>
</g>
<!-- μ_β -->
<g id="node1" class="node">
<title>μ_β</title>
<ellipse fill="none" stroke="black" cx="48.79" cy="-423.34" rx="48.58" ry="37.45"/>
<text text-anchor="middle" x="48.79" y="-434.64" font-family="Times-Roman" font-size="14.00">μ_β</text>
<text text-anchor="middle" x="48.79" y="-419.64" font-family="Times-Roman" font-size="14.00">~</text>
<text text-anchor="middle" x="48.79" y="-404.64" font-family="Times-Roman" font-size="14.00">Normal</text>
</g>
<!-- β -->
<g id="node13" class="node">
<title>β</title>
<ellipse fill="none" stroke="black" cx="184.79" cy="-312.38" rx="48.58" ry="37.45"/>
<text text-anchor="middle" x="184.79" y="-323.68" font-family="Times-Roman" font-size="14.00">β</text>
<text text-anchor="middle" x="184.79" y="-308.68" font-family="Times-Roman" font-size="14.00">~</text>
<text text-anchor="middle" x="184.79" y="-293.68" font-family="Times-Roman" font-size="14.00">Normal</text>
</g>
<!-- μ_β&#45;&gt;β -->
<g id="edge8" class="edge">
<title>μ_β&#45;&gt;β</title>
<path fill="none" stroke="black" d="M82.06,-395.68C100.58,-380.84 123.81,-362.24 143.48,-346.48"/>
<polygon fill="black" stroke="black" points="145.78,-349.12 151.39,-340.14 141.4,-343.66 145.78,-349.12"/>
</g>
<!-- σ_β -->
<g id="node2" class="node">
<title>σ_β</title>
<ellipse fill="none" stroke="black" cx="184.79" cy="-423.34" rx="69.09" ry="37.45"/>
<text text-anchor="middle" x="184.79" y="-434.64" font-family="Times-Roman" font-size="14.00">σ_β</text>
<text text-anchor="middle" x="184.79" y="-419.64" font-family="Times-Roman" font-size="14.00">~</text>
<text text-anchor="middle" x="184.79" y="-404.64" font-family="Times-Roman" font-size="14.00">HalfNormal</text>
</g>
<!-- σ_β&#45;&gt;β -->
<g id="edge7" class="edge">
<title>σ_β&#45;&gt;β</title>
<path fill="none" stroke="black" d="M184.79,-385.75C184.79,-377.58 184.79,-368.8 184.79,-360.27"/>
<polygon fill="black" stroke="black" points="188.29,-360.06 184.79,-350.06 181.29,-360.06 188.29,-360.06"/>
</g>
<!-- μ_d -->
<g id="node3" class="node">
<title>μ_d</title>
<ellipse fill="none" stroke="black" cx="593.79" cy="-423.34" rx="48.58" ry="37.45"/>
<text text-anchor="middle" x="593.79" y="-434.64" font-family="Times-Roman" font-size="14.00">μ_d</text>
<text text-anchor="middle" x="593.79" y="-419.64" font-family="Times-Roman" font-size="14.00">~</text>
<text text-anchor="middle" x="593.79" y="-404.64" font-family="Times-Roman" font-size="14.00">Normal</text>
</g>
<!-- d -->
<g id="node11" class="node">
<title>d</title>
<ellipse fill="none" stroke="black" cx="664.79" cy="-312.38" rx="48.58" ry="37.45"/>
<text text-anchor="middle" x="664.79" y="-323.68" font-family="Times-Roman" font-size="14.00">d</text>
<text text-anchor="middle" x="664.79" y="-308.68" font-family="Times-Roman" font-size="14.00">~</text>
<text text-anchor="middle" x="664.79" y="-293.68" font-family="Times-Roman" font-size="14.00">Normal</text>
</g>
<!-- μ_d&#45;&gt;d -->
<g id="edge4" class="edge">
<title>μ_d&#45;&gt;d</title>
<path fill="none" stroke="black" d="M615.29,-389.35C622.38,-378.47 630.35,-366.23 637.8,-354.8"/>
<polygon fill="black" stroke="black" points="640.84,-356.55 643.37,-346.26 634.98,-352.72 640.84,-356.55"/>
</g>
<!-- σ_d -->
<g id="node4" class="node">
<title>σ_d</title>
<ellipse fill="none" stroke="black" cx="729.79" cy="-423.34" rx="69.09" ry="37.45"/>
<text text-anchor="middle" x="729.79" y="-434.64" font-family="Times-Roman" font-size="14.00">σ_d</text>
<text text-anchor="middle" x="729.79" y="-419.64" font-family="Times-Roman" font-size="14.00">~</text>
<text text-anchor="middle" x="729.79" y="-404.64" font-family="Times-Roman" font-size="14.00">HalfNormal</text>
</g>
<!-- σ_d&#45;&gt;d -->
<g id="edge3" class="edge">
<title>σ_d&#45;&gt;d</title>
<path fill="none" stroke="black" d="M709.05,-387.56C702.95,-377.35 696.22,-366.06 689.88,-355.44"/>
<polygon fill="black" stroke="black" points="692.8,-353.51 684.67,-346.71 686.79,-357.09 692.8,-353.51"/>
</g>
<!-- σ_η -->
<g id="node5" class="node">
<title>σ_η</title>
<ellipse fill="none" stroke="black" cx="886.79" cy="-423.34" rx="69.09" ry="37.45"/>
<text text-anchor="middle" x="886.79" y="-434.64" font-family="Times-Roman" font-size="14.00">σ_η</text>
<text text-anchor="middle" x="886.79" y="-419.64" font-family="Times-Roman" font-size="14.00">~</text>
<text text-anchor="middle" x="886.79" y="-404.64" font-family="Times-Roman" font-size="14.00">HalfNormal</text>
</g>
<!-- η -->
<g id="node12" class="node">
<title>η</title>
<ellipse fill="none" stroke="black" cx="809.79" cy="-312.38" rx="48.58" ry="37.45"/>
<text text-anchor="middle" x="809.79" y="-323.68" font-family="Times-Roman" font-size="14.00">η</text>
<text text-anchor="middle" x="809.79" y="-308.68" font-family="Times-Roman" font-size="14.00">~</text>
<text text-anchor="middle" x="809.79" y="-293.68" font-family="Times-Roman" font-size="14.00">Normal</text>
</g>
<!-- σ_η&#45;&gt;η -->
<g id="edge6" class="edge">
<title>σ_η&#45;&gt;η</title>
<path fill="none" stroke="black" d="M862.64,-388.16C854.98,-377.32 846.43,-365.23 838.48,-353.98"/>
<polygon fill="black" stroke="black" points="841.17,-351.73 832.54,-345.58 835.46,-355.77 841.17,-351.73"/>
</g>
<!-- σ_h -->
<g id="node6" class="node">
<title>σ_h</title>
<ellipse fill="none" stroke="black" cx="341.79" cy="-423.34" rx="69.09" ry="37.45"/>
<text text-anchor="middle" x="341.79" y="-434.64" font-family="Times-Roman" font-size="14.00">σ_h</text>
<text text-anchor="middle" x="341.79" y="-419.64" font-family="Times-Roman" font-size="14.00">~</text>
<text text-anchor="middle" x="341.79" y="-404.64" font-family="Times-Roman" font-size="14.00">HalfNormal</text>
</g>
<!-- h -->
<g id="node10" class="node">
<title>h</title>
<ellipse fill="none" stroke="black" cx="477.79" cy="-312.38" rx="48.58" ry="37.45"/>
<text text-anchor="middle" x="477.79" y="-323.68" font-family="Times-Roman" font-size="14.00">h</text>
<text text-anchor="middle" x="477.79" y="-308.68" font-family="Times-Roman" font-size="14.00">~</text>
<text text-anchor="middle" x="477.79" y="-293.68" font-family="Times-Roman" font-size="14.00">Normal</text>
</g>
<!-- σ_h&#45;&gt;h -->
<g id="edge2" class="edge">
<title>σ_h&#45;&gt;h</title>
<path fill="none" stroke="black" d="M380.04,-391.7C397.61,-377.62 418.5,-360.89 436.44,-346.51"/>
<polygon fill="black" stroke="black" points="438.84,-349.08 444.45,-340.09 434.46,-343.61 438.84,-349.08"/>
</g>
<!-- μ_h -->
<g id="node7" class="node">
<title>μ_h</title>
<ellipse fill="none" stroke="black" cx="477.79" cy="-423.34" rx="48.58" ry="37.45"/>
<text text-anchor="middle" x="477.79" y="-434.64" font-family="Times-Roman" font-size="14.00">μ_h</text>
<text text-anchor="middle" x="477.79" y="-419.64" font-family="Times-Roman" font-size="14.00">~</text>
<text text-anchor="middle" x="477.79" y="-404.64" font-family="Times-Roman" font-size="14.00">Normal</text>
</g>
<!-- μ_h&#45;&gt;h -->
<g id="edge1" class="edge">
<title>μ_h&#45;&gt;h</title>
<path fill="none" stroke="black" d="M477.79,-385.75C477.79,-377.58 477.79,-368.8 477.79,-360.27"/>
<polygon fill="black" stroke="black" points="481.29,-360.06 477.79,-350.06 474.29,-360.06 481.29,-360.06"/>
</g>
<!-- μ_η -->
<g id="node8" class="node">
<title>μ_η</title>
<ellipse fill="none" stroke="black" cx="1022.79" cy="-423.34" rx="48.58" ry="37.45"/>
<text text-anchor="middle" x="1022.79" y="-434.64" font-family="Times-Roman" font-size="14.00">μ_η</text>
<text text-anchor="middle" x="1022.79" y="-419.64" font-family="Times-Roman" font-size="14.00">~</text>
<text text-anchor="middle" x="1022.79" y="-404.64" font-family="Times-Roman" font-size="14.00">Normal</text>
</g>
<!-- μ_η&#45;&gt;η -->
<g id="edge5" class="edge">
<title>μ_η&#45;&gt;η</title>
<path fill="none" stroke="black" d="M986.84,-397.56C979.72,-393.29 972.17,-389.17 964.79,-385.86 923.84,-367.51 907.84,-378.09 867.79,-357.86 861.7,-354.79 855.61,-351.04 849.79,-347.04"/>
<polygon fill="black" stroke="black" points="851.65,-344.07 841.49,-341.06 847.55,-349.74 851.65,-344.07"/>
</g>
<!-- σ_σ -->
<g id="node9" class="node">
<title>σ_σ</title>
<ellipse fill="none" stroke="black" cx="945.79" cy="-312.38" rx="69.09" ry="37.45"/>
<text text-anchor="middle" x="945.79" y="-323.68" font-family="Times-Roman" font-size="14.00">σ_σ</text>
<text text-anchor="middle" x="945.79" y="-308.68" font-family="Times-Roman" font-size="14.00">~</text>
<text text-anchor="middle" x="945.79" y="-293.68" font-family="Times-Roman" font-size="14.00">HalfNormal</text>
</g>
<!-- σ -->
<g id="node16" class="node">
<title>σ</title>
<ellipse fill="none" stroke="black" cx="879.79" cy="-190.43" rx="69.09" ry="37.45"/>
<text text-anchor="middle" x="879.79" y="-201.73" font-family="Times-Roman" font-size="14.00">σ</text>
<text text-anchor="middle" x="879.79" y="-186.73" font-family="Times-Roman" font-size="14.00">~</text>
<text text-anchor="middle" x="879.79" y="-171.73" font-family="Times-Roman" font-size="14.00">HalfNormal</text>
</g>
<!-- σ_σ&#45;&gt;σ -->
<g id="edge13" class="edge">
<title>σ_σ&#45;&gt;σ</title>
<path fill="none" stroke="black" d="M926.52,-276.37C919.54,-263.67 911.55,-249.15 904.18,-235.76"/>
<polygon fill="black" stroke="black" points="907.08,-233.77 899.2,-226.7 900.95,-237.15 907.08,-233.77"/>
</g>
<!-- μ -->
<g id="node15" class="node">
<title>μ</title>
<polygon fill="none" stroke="black" points="720.79,-216.93 608.79,-216.93 608.79,-163.93 720.79,-163.93 720.79,-216.93"/>
<text text-anchor="middle" x="664.79" y="-201.73" font-family="Times-Roman" font-size="14.00">μ</text>
<text text-anchor="middle" x="664.79" y="-186.73" font-family="Times-Roman" font-size="14.00">~</text>
<text text-anchor="middle" x="664.79" y="-171.73" font-family="Times-Roman" font-size="14.00">Deterministic</text>
</g>
<!-- h&#45;&gt;μ -->
<g id="edge11" class="edge">
<title>h&#45;&gt;μ</title>
<path fill="none" stroke="black" d="M514.74,-287.68C543.83,-269.02 584.62,-242.86 616.33,-222.52"/>
<polygon fill="black" stroke="black" points="618.49,-225.29 625.01,-216.95 614.71,-219.4 618.49,-225.29"/>
</g>
<!-- d&#45;&gt;μ -->
<g id="edge9" class="edge">
<title>d&#45;&gt;μ</title>
<path fill="none" stroke="black" d="M664.79,-274.74C664.79,-259.77 664.79,-242.51 664.79,-227.59"/>
<polygon fill="black" stroke="black" points="668.29,-227.2 664.79,-217.2 661.29,-227.2 668.29,-227.2"/>
</g>
<!-- η&#45;&gt;μ -->
<g id="edge12" class="edge">
<title>η&#45;&gt;μ</title>
<path fill="none" stroke="black" d="M776.89,-284.16C755.21,-266.23 726.72,-242.67 703.89,-223.78"/>
<polygon fill="black" stroke="black" points="706.01,-220.99 696.07,-217.31 701.55,-226.38 706.01,-220.99"/>
</g>
<!-- β&#45;&gt;μ -->
<g id="edge10" class="edge">
<title>β&#45;&gt;μ</title>
<path fill="none" stroke="black" d="M229.86,-297.19C276.41,-282.79 351.29,-260.34 416.79,-243.91 477.89,-228.58 548.2,-213.99 598.31,-204.1"/>
<polygon fill="black" stroke="black" points="599.24,-207.48 608.37,-202.12 597.89,-200.61 599.24,-207.48"/>
</g>
<!-- lfc -->
<g id="node14" class="node">
<title>lfc</title>
<ellipse fill="lightgrey" stroke="black" cx="667.79" cy="-76.48" rx="48.58" ry="37.45"/>
<text text-anchor="middle" x="667.79" y="-87.78" font-family="Times-Roman" font-size="14.00">lfc</text>
<text text-anchor="middle" x="667.79" y="-72.78" font-family="Times-Roman" font-size="14.00">~</text>
<text text-anchor="middle" x="667.79" y="-57.78" font-family="Times-Roman" font-size="14.00">Normal</text>
</g>
<!-- μ&#45;&gt;lfc -->
<g id="edge14" class="edge">
<title>μ&#45;&gt;lfc</title>
<path fill="none" stroke="black" d="M665.48,-163.75C665.79,-152.02 666.18,-137.75 666.54,-124.22"/>
<polygon fill="black" stroke="black" points="670.04,-124.16 666.81,-114.07 663.04,-123.98 670.04,-124.16"/>
</g>
<!-- σ&#45;&gt;lfc -->
<g id="edge15" class="edge">
<title>σ&#45;&gt;lfc</title>
<path fill="none" stroke="black" d="M830.89,-163.61C796.54,-145.47 750.79,-121.31 716.48,-103.19"/>
<polygon fill="black" stroke="black" points="718.06,-100.06 707.58,-98.49 714.79,-106.25 718.06,-100.06"/>
</g>
</g>
</svg>
