<?xml version="1.0" encoding="UTF-8" standalone="no"?>
<!DOCTYPE svg PUBLIC "-//W3C//DTD SVG 1.1//EN"
 "http://www.w3.org/Graphics/SVG/1.1/DTD/svg11.dtd">
<!-- Generated by graphviz version 2.47.0 (20210327.0129)
 -->
<!-- Pages: 1 -->
<svg width="1080pt" height="469pt"
 viewBox="0.00 0.00 1079.59 468.81" xmlns="http://www.w3.org/2000/svg" xmlns:xlink="http://www.w3.org/1999/xlink">
<g id="graph0" class="graph" transform="scale(1 1) rotate(0) translate(4 464.81)">
<polygon fill="white" stroke="transparent" points="-4,4 -4,-464.81 1075.59,-464.81 1075.59,4 -4,4"/>
<g id="clust1" class="cluster">
<title>cluster64</title>
<path fill="none" stroke="black" d="M160.3,-243.91C160.3,-243.91 250.3,-243.91 250.3,-243.91 256.3,-243.91 262.3,-249.91 262.3,-255.91 262.3,-255.91 262.3,-345.86 262.3,-345.86 262.3,-351.86 256.3,-357.86 250.3,-357.86 250.3,-357.86 160.3,-357.86 160.3,-357.86 154.3,-357.86 148.3,-351.86 148.3,-345.86 148.3,-345.86 148.3,-255.91 148.3,-255.91 148.3,-249.91 154.3,-243.91 160.3,-243.91"/>
<text text-anchor="middle" x="244.8" y="-251.71" font-family="Times-Roman" font-size="14.00">64</text>
</g>
<g id="clust2" class="cluster">
<title>cluster64 x 10</title>
<path fill="none" stroke="black" d="M412.3,-243.91C412.3,-243.91 502.3,-243.91 502.3,-243.91 508.3,-243.91 514.3,-249.91 514.3,-255.91 514.3,-255.91 514.3,-345.86 514.3,-345.86 514.3,-351.86 508.3,-357.86 502.3,-357.86 502.3,-357.86 412.3,-357.86 412.3,-357.86 406.3,-357.86 400.3,-351.86 400.3,-345.86 400.3,-345.86 400.3,-255.91 400.3,-255.91 400.3,-249.91 406.3,-243.91 412.3,-243.91"/>
<text text-anchor="middle" x="479.3" y="-251.71" font-family="Times-Roman" font-size="14.00">64 x 10</text>
</g>
<g id="clust3" class="cluster">
<title>cluster4</title>
<path fill="none" stroke="black" d="M622.3,-243.91C622.3,-243.91 712.3,-243.91 712.3,-243.91 718.3,-243.91 724.3,-249.91 724.3,-255.91 724.3,-255.91 724.3,-345.86 724.3,-345.86 724.3,-351.86 718.3,-357.86 712.3,-357.86 712.3,-357.86 622.3,-357.86 622.3,-357.86 616.3,-357.86 610.3,-351.86 610.3,-345.86 610.3,-345.86 610.3,-255.91 610.3,-255.91 610.3,-249.91 616.3,-243.91 622.3,-243.91"/>
<text text-anchor="middle" x="711.3" y="-251.71" font-family="Times-Roman" font-size="14.00">4</text>
</g>
<g id="clust4" class="cluster">
<title>cluster10</title>
<path fill="none" stroke="black" d="M767.3,-243.91C767.3,-243.91 857.3,-243.91 857.3,-243.91 863.3,-243.91 869.3,-249.91 869.3,-255.91 869.3,-255.91 869.3,-345.86 869.3,-345.86 869.3,-351.86 863.3,-357.86 857.3,-357.86 857.3,-357.86 767.3,-357.86 767.3,-357.86 761.3,-357.86 755.3,-351.86 755.3,-345.86 755.3,-345.86 755.3,-255.91 755.3,-255.91 755.3,-249.91 761.3,-243.91 767.3,-243.91"/>
<text text-anchor="middle" x="851.8" y="-251.71" font-family="Times-Roman" font-size="14.00">10</text>
</g>
<g id="clust5" class="cluster">
<title>cluster1,443</title>
<path fill="none" stroke="black" d="M615.3,-8C615.3,-8 719.3,-8 719.3,-8 725.3,-8 731.3,-14 731.3,-20 731.3,-20 731.3,-212.93 731.3,-212.93 731.3,-218.93 725.3,-224.93 719.3,-224.93 719.3,-224.93 615.3,-224.93 615.3,-224.93 609.3,-224.93 603.3,-218.93 603.3,-212.93 603.3,-212.93 603.3,-20 603.3,-20 603.3,-14 609.3,-8 615.3,-8"/>
<text text-anchor="middle" x="702.8" y="-15.8" font-family="Times-Roman" font-size="14.00">1,443</text>
</g>
<g id="clust6" class="cluster">
<title>cluster192</title>
<path fill="none" stroke="black" d="M817.3,-121.95C817.3,-121.95 947.3,-121.95 947.3,-121.95 953.3,-121.95 959.3,-127.95 959.3,-133.95 959.3,-133.95 959.3,-223.91 959.3,-223.91 959.3,-229.91 953.3,-235.91 947.3,-235.91 947.3,-235.91 817.3,-235.91 817.3,-235.91 811.3,-235.91 805.3,-229.91 805.3,-223.91 805.3,-223.91 805.3,-133.95 805.3,-133.95 805.3,-127.95 811.3,-121.95 817.3,-121.95"/>
<text text-anchor="middle" x="937.3" y="-129.75" font-family="Times-Roman" font-size="14.00">192</text>
</g>
<!-- σ_h -->
<g id="node1" class="node">
<title>σ_h</title>
<ellipse fill="none" stroke="black" cx="69.3" cy="-423.34" rx="69.09" ry="37.45"/>
<text text-anchor="middle" x="69.3" y="-434.64" font-family="Times-Roman" font-size="14.00">σ_h</text>
<text text-anchor="middle" x="69.3" y="-419.64" font-family="Times-Roman" font-size="14.00">~</text>
<text text-anchor="middle" x="69.3" y="-404.64" font-family="Times-Roman" font-size="14.00">HalfNormal</text>
</g>
<!-- h -->
<g id="node10" class="node">
<title>h</title>
<ellipse fill="none" stroke="black" cx="205.3" cy="-312.38" rx="48.58" ry="37.45"/>
<text text-anchor="middle" x="205.3" y="-323.68" font-family="Times-Roman" font-size="14.00">h</text>
<text text-anchor="middle" x="205.3" y="-308.68" font-family="Times-Roman" font-size="14.00">~</text>
<text text-anchor="middle" x="205.3" y="-293.68" font-family="Times-Roman" font-size="14.00">Normal</text>
</g>
<!-- σ_h&#45;&gt;h -->
<g id="edge1" class="edge">
<title>σ_h&#45;&gt;h</title>
<path fill="none" stroke="black" d="M107.54,-391.7C125.12,-377.62 146,-360.89 163.94,-346.51"/>
<polygon fill="black" stroke="black" points="166.34,-349.08 171.96,-340.09 161.97,-343.61 166.34,-349.08"/>
</g>
<!-- σ_η -->
<g id="node2" class="node">
<title>σ_η</title>
<ellipse fill="none" stroke="black" cx="614.3" cy="-423.34" rx="69.09" ry="37.45"/>
<text text-anchor="middle" x="614.3" y="-434.64" font-family="Times-Roman" font-size="14.00">σ_η</text>
<text text-anchor="middle" x="614.3" y="-419.64" font-family="Times-Roman" font-size="14.00">~</text>
<text text-anchor="middle" x="614.3" y="-404.64" font-family="Times-Roman" font-size="14.00">HalfNormal</text>
</g>
<!-- η -->
<g id="node12" class="node">
<title>η</title>
<ellipse fill="none" stroke="black" cx="667.3" cy="-312.38" rx="48.58" ry="37.45"/>
<text text-anchor="middle" x="667.3" y="-323.68" font-family="Times-Roman" font-size="14.00">η</text>
<text text-anchor="middle" x="667.3" y="-308.68" font-family="Times-Roman" font-size="14.00">~</text>
<text text-anchor="middle" x="667.3" y="-293.68" font-family="Times-Roman" font-size="14.00">Normal</text>
</g>
<!-- σ_η&#45;&gt;η -->
<g id="edge5" class="edge">
<title>σ_η&#45;&gt;η</title>
<path fill="none" stroke="black" d="M631.5,-386.96C636.18,-377.35 641.3,-366.84 646.16,-356.83"/>
<polygon fill="black" stroke="black" points="649.31,-358.36 650.54,-347.84 643.01,-355.3 649.31,-358.36"/>
</g>
<!-- μ_β -->
<g id="node3" class="node">
<title>μ_β</title>
<ellipse fill="none" stroke="black" cx="866.3" cy="-423.34" rx="48.58" ry="37.45"/>
<text text-anchor="middle" x="866.3" y="-434.64" font-family="Times-Roman" font-size="14.00">μ_β</text>
<text text-anchor="middle" x="866.3" y="-419.64" font-family="Times-Roman" font-size="14.00">~</text>
<text text-anchor="middle" x="866.3" y="-404.64" font-family="Times-Roman" font-size="14.00">Normal</text>
</g>
<!-- β -->
<g id="node13" class="node">
<title>β</title>
<ellipse fill="none" stroke="black" cx="812.3" cy="-312.38" rx="48.58" ry="37.45"/>
<text text-anchor="middle" x="812.3" y="-323.68" font-family="Times-Roman" font-size="14.00">β</text>
<text text-anchor="middle" x="812.3" y="-308.68" font-family="Times-Roman" font-size="14.00">~</text>
<text text-anchor="middle" x="812.3" y="-293.68" font-family="Times-Roman" font-size="14.00">Normal</text>
</g>
<!-- μ_β&#45;&gt;β -->
<g id="edge7" class="edge">
<title>μ_β&#45;&gt;β</title>
<path fill="none" stroke="black" d="M849.36,-388.16C844.43,-378.22 838.98,-367.22 833.81,-356.79"/>
<polygon fill="black" stroke="black" points="836.94,-355.22 829.36,-347.81 830.66,-358.33 836.94,-355.22"/>
</g>
<!-- μ_d -->
<g id="node4" class="node">
<title>μ_d</title>
<ellipse fill="none" stroke="black" cx="321.3" cy="-423.34" rx="48.58" ry="37.45"/>
<text text-anchor="middle" x="321.3" y="-434.64" font-family="Times-Roman" font-size="14.00">μ_d</text>
<text text-anchor="middle" x="321.3" y="-419.64" font-family="Times-Roman" font-size="14.00">~</text>
<text text-anchor="middle" x="321.3" y="-404.64" font-family="Times-Roman" font-size="14.00">Normal</text>
</g>
<!-- d -->
<g id="node11" class="node">
<title>d</title>
<ellipse fill="none" stroke="black" cx="457.3" cy="-312.38" rx="48.58" ry="37.45"/>
<text text-anchor="middle" x="457.3" y="-323.68" font-family="Times-Roman" font-size="14.00">d</text>
<text text-anchor="middle" x="457.3" y="-308.68" font-family="Times-Roman" font-size="14.00">~</text>
<text text-anchor="middle" x="457.3" y="-293.68" font-family="Times-Roman" font-size="14.00">Normal</text>
</g>
<!-- μ_d&#45;&gt;d -->
<g id="edge3" class="edge">
<title>μ_d&#45;&gt;d</title>
<path fill="none" stroke="black" d="M354.57,-395.68C373.09,-380.84 396.31,-362.24 415.99,-346.48"/>
<polygon fill="black" stroke="black" points="418.28,-349.12 423.9,-340.14 413.91,-343.66 418.28,-349.12"/>
</g>
<!-- μ_η -->
<g id="node5" class="node">
<title>μ_η</title>
<ellipse fill="none" stroke="black" cx="750.3" cy="-423.34" rx="48.58" ry="37.45"/>
<text text-anchor="middle" x="750.3" y="-434.64" font-family="Times-Roman" font-size="14.00">μ_η</text>
<text text-anchor="middle" x="750.3" y="-419.64" font-family="Times-Roman" font-size="14.00">~</text>
<text text-anchor="middle" x="750.3" y="-404.64" font-family="Times-Roman" font-size="14.00">Normal</text>
</g>
<!-- μ_η&#45;&gt;η -->
<g id="edge6" class="edge">
<title>μ_η&#45;&gt;η</title>
<path fill="none" stroke="black" d="M726.07,-390.53C717.2,-378.89 707.06,-365.58 697.72,-353.32"/>
<polygon fill="black" stroke="black" points="700.26,-350.87 691.41,-345.04 694.69,-355.12 700.26,-350.87"/>
</g>
<!-- σ_σ -->
<g id="node6" class="node">
<title>σ_σ</title>
<ellipse fill="none" stroke="black" cx="948.3" cy="-312.38" rx="69.09" ry="37.45"/>
<text text-anchor="middle" x="948.3" y="-323.68" font-family="Times-Roman" font-size="14.00">σ_σ</text>
<text text-anchor="middle" x="948.3" y="-308.68" font-family="Times-Roman" font-size="14.00">~</text>
<text text-anchor="middle" x="948.3" y="-293.68" font-family="Times-Roman" font-size="14.00">HalfNormal</text>
</g>
<!-- σ -->
<g id="node16" class="node">
<title>σ</title>
<ellipse fill="none" stroke="black" cx="882.3" cy="-190.43" rx="69.09" ry="37.45"/>
<text text-anchor="middle" x="882.3" y="-201.73" font-family="Times-Roman" font-size="14.00">σ</text>
<text text-anchor="middle" x="882.3" y="-186.73" font-family="Times-Roman" font-size="14.00">~</text>
<text text-anchor="middle" x="882.3" y="-171.73" font-family="Times-Roman" font-size="14.00">HalfNormal</text>
</g>
<!-- σ_σ&#45;&gt;σ -->
<g id="edge13" class="edge">
<title>σ_σ&#45;&gt;σ</title>
<path fill="none" stroke="black" d="M929.03,-276.37C922.04,-263.67 914.06,-249.15 906.69,-235.76"/>
<polygon fill="black" stroke="black" points="909.59,-233.77 901.7,-226.7 903.46,-237.15 909.59,-233.77"/>
</g>
<!-- σ_β -->
<g id="node7" class="node">
<title>σ_β</title>
<ellipse fill="none" stroke="black" cx="1002.3" cy="-423.34" rx="69.09" ry="37.45"/>
<text text-anchor="middle" x="1002.3" y="-434.64" font-family="Times-Roman" font-size="14.00">σ_β</text>
<text text-anchor="middle" x="1002.3" y="-419.64" font-family="Times-Roman" font-size="14.00">~</text>
<text text-anchor="middle" x="1002.3" y="-404.64" font-family="Times-Roman" font-size="14.00">HalfNormal</text>
</g>
<!-- σ_β&#45;&gt;β -->
<g id="edge8" class="edge">
<title>σ_β&#45;&gt;β</title>
<path fill="none" stroke="black" d="M950.49,-398.33C920.05,-383.97 884.77,-366.82 870.3,-357.86 864.64,-354.36 858.87,-350.43 853.27,-346.39"/>
<polygon fill="black" stroke="black" points="855.34,-343.57 845.22,-340.43 851.18,-349.19 855.34,-343.57"/>
</g>
<!-- μ_h -->
<g id="node8" class="node">
<title>μ_h</title>
<ellipse fill="none" stroke="black" cx="205.3" cy="-423.34" rx="48.58" ry="37.45"/>
<text text-anchor="middle" x="205.3" y="-434.64" font-family="Times-Roman" font-size="14.00">μ_h</text>
<text text-anchor="middle" x="205.3" y="-419.64" font-family="Times-Roman" font-size="14.00">~</text>
<text text-anchor="middle" x="205.3" y="-404.64" font-family="Times-Roman" font-size="14.00">Normal</text>
</g>
<!-- μ_h&#45;&gt;h -->
<g id="edge2" class="edge">
<title>μ_h&#45;&gt;h</title>
<path fill="none" stroke="black" d="M205.3,-385.75C205.3,-377.58 205.3,-368.8 205.3,-360.27"/>
<polygon fill="black" stroke="black" points="208.8,-360.06 205.3,-350.06 201.8,-360.06 208.8,-360.06"/>
</g>
<!-- σ_d -->
<g id="node9" class="node">
<title>σ_d</title>
<ellipse fill="none" stroke="black" cx="457.3" cy="-423.34" rx="69.09" ry="37.45"/>
<text text-anchor="middle" x="457.3" y="-434.64" font-family="Times-Roman" font-size="14.00">σ_d</text>
<text text-anchor="middle" x="457.3" y="-419.64" font-family="Times-Roman" font-size="14.00">~</text>
<text text-anchor="middle" x="457.3" y="-404.64" font-family="Times-Roman" font-size="14.00">HalfNormal</text>
</g>
<!-- σ_d&#45;&gt;d -->
<g id="edge4" class="edge">
<title>σ_d&#45;&gt;d</title>
<path fill="none" stroke="black" d="M457.3,-385.75C457.3,-377.58 457.3,-368.8 457.3,-360.27"/>
<polygon fill="black" stroke="black" points="460.8,-360.06 457.3,-350.06 453.8,-360.06 460.8,-360.06"/>
</g>
<!-- μ -->
<g id="node14" class="node">
<title>μ</title>
<polygon fill="none" stroke="black" points="723.3,-216.93 611.3,-216.93 611.3,-163.93 723.3,-163.93 723.3,-216.93"/>
<text text-anchor="middle" x="667.3" y="-201.73" font-family="Times-Roman" font-size="14.00">μ</text>
<text text-anchor="middle" x="667.3" y="-186.73" font-family="Times-Roman" font-size="14.00">~</text>
<text text-anchor="middle" x="667.3" y="-171.73" font-family="Times-Roman" font-size="14.00">Deterministic</text>
</g>
<!-- h&#45;&gt;μ -->
<g id="edge12" class="edge">
<title>h&#45;&gt;μ</title>
<path fill="none" stroke="black" d="M248.33,-294.11C286.67,-279.23 344.54,-257.98 396.3,-243.91 465.3,-225.15 545.93,-210.43 601.19,-201.41"/>
<polygon fill="black" stroke="black" points="601.89,-204.85 611.21,-199.8 600.78,-197.94 601.89,-204.85"/>
</g>
<!-- d&#45;&gt;μ -->
<g id="edge9" class="edge">
<title>d&#45;&gt;μ</title>
<path fill="none" stroke="black" d="M496.3,-289.1C529.22,-270.3 576.68,-243.19 613.25,-222.3"/>
<polygon fill="black" stroke="black" points="615.35,-225.13 622.3,-217.13 611.88,-219.05 615.35,-225.13"/>
</g>
<!-- η&#45;&gt;μ -->
<g id="edge11" class="edge">
<title>η&#45;&gt;μ</title>
<path fill="none" stroke="black" d="M667.3,-274.74C667.3,-259.77 667.3,-242.51 667.3,-227.59"/>
<polygon fill="black" stroke="black" points="670.8,-227.2 667.3,-217.2 663.8,-227.2 670.8,-227.2"/>
</g>
<!-- β&#45;&gt;μ -->
<g id="edge10" class="edge">
<title>β&#45;&gt;μ</title>
<path fill="none" stroke="black" d="M779.39,-284.16C757.72,-266.23 729.23,-242.67 706.4,-223.78"/>
<polygon fill="black" stroke="black" points="708.51,-220.99 698.58,-217.31 704.05,-226.38 708.51,-220.99"/>
</g>
<!-- lfc -->
<g id="node15" class="node">
<title>lfc</title>
<ellipse fill="lightgrey" stroke="black" cx="670.3" cy="-76.48" rx="48.58" ry="37.45"/>
<text text-anchor="middle" x="670.3" y="-87.78" font-family="Times-Roman" font-size="14.00">lfc</text>
<text text-anchor="middle" x="670.3" y="-72.78" font-family="Times-Roman" font-size="14.00">~</text>
<text text-anchor="middle" x="670.3" y="-57.78" font-family="Times-Roman" font-size="14.00">Normal</text>
</g>
<!-- μ&#45;&gt;lfc -->
<g id="edge14" class="edge">
<title>μ&#45;&gt;lfc</title>
<path fill="none" stroke="black" d="M667.98,-163.75C668.3,-152.02 668.68,-137.75 669.04,-124.22"/>
<polygon fill="black" stroke="black" points="672.55,-124.16 669.32,-114.07 665.55,-123.98 672.55,-124.16"/>
</g>
<!-- σ&#45;&gt;lfc -->
<g id="edge15" class="edge">
<title>σ&#45;&gt;lfc</title>
<path fill="none" stroke="black" d="M833.39,-163.61C799.04,-145.47 753.29,-121.31 718.99,-103.19"/>
<polygon fill="black" stroke="black" points="720.56,-100.06 710.09,-98.49 717.29,-106.25 720.56,-100.06"/>
</g>
</g>
</svg>
