<?xml version="1.0" encoding="UTF-8" standalone="no"?>
<!DOCTYPE svg PUBLIC "-//W3C//DTD SVG 1.1//EN"
 "http://www.w3.org/Graphics/SVG/1.1/DTD/svg11.dtd">
<!-- Generated by graphviz version 4.0.0 (0)
 -->
<!-- Pages: 1 -->
<svg width="1030pt" height="574pt"
 viewBox="0.00 0.00 1030.00 573.81" xmlns="http://www.w3.org/2000/svg" xmlns:xlink="http://www.w3.org/1999/xlink">
<g id="graph0" class="graph" transform="scale(1 1) rotate(0) translate(4 569.81)">
<polygon fill="white" stroke="transparent" points="-4,4 -4,-569.81 1026,-569.81 1026,4 -4,4"/>
<g id="clust2" class="cluster">
<title>cluster3 x 3</title>
<path fill="none" stroke="black" d="M20,-332.88C20,-332.88 144,-332.88 144,-332.88 150,-332.88 156,-338.88 156,-344.88 156,-344.88 156,-412.88 156,-412.88 156,-418.88 150,-424.88 144,-424.88 144,-424.88 20,-424.88 20,-424.88 14,-424.88 8,-418.88 8,-412.88 8,-412.88 8,-344.88 8,-344.88 8,-338.88 14,-332.88 20,-332.88"/>
<text text-anchor="middle" x="134" y="-340.68" font-family="Times,serif" font-size="14.00">3 x 3</text>
</g>
<g id="clust4" class="cluster">
<title>cluster3 x 103</title>
<path fill="none" stroke="black" d="M896,-443.86C896,-443.86 1002,-443.86 1002,-443.86 1008,-443.86 1014,-449.86 1014,-455.86 1014,-455.86 1014,-545.81 1014,-545.81 1014,-551.81 1008,-557.81 1002,-557.81 1002,-557.81 896,-557.81 896,-557.81 890,-557.81 884,-551.81 884,-545.81 884,-545.81 884,-455.86 884,-455.86 884,-449.86 890,-443.86 896,-443.86"/>
<text text-anchor="middle" x="985" y="-451.66" font-family="Times,serif" font-size="14.00">3 x 103</text>
</g>
<g id="clust5" class="cluster">
<title>clustergene (103)</title>
<path fill="none" stroke="black" d="M573,-332.88C573,-332.88 875,-332.88 875,-332.88 881,-332.88 887,-338.88 887,-344.88 887,-344.88 887,-412.88 887,-412.88 887,-418.88 881,-424.88 875,-424.88 875,-424.88 573,-424.88 573,-424.88 567,-424.88 561,-418.88 561,-412.88 561,-412.88 561,-344.88 561,-344.88 561,-338.88 567,-332.88 573,-332.88"/>
<text text-anchor="middle" x="849.5" y="-340.68" font-family="Times,serif" font-size="14.00">gene (103)</text>
</g>
<g id="clust6" class="cluster">
<title>clustersgrna (162)</title>
<path fill="none" stroke="black" d="M332,-232.91C332,-232.91 416,-232.91 416,-232.91 422,-232.91 428,-238.91 428,-244.91 428,-244.91 428,-423.86 428,-423.86 428,-429.86 422,-435.86 416,-435.86 416,-435.86 332,-435.86 332,-435.86 326,-435.86 320,-429.86 320,-423.86 320,-423.86 320,-244.91 320,-244.91 320,-238.91 326,-232.91 332,-232.91"/>
<text text-anchor="middle" x="388.5" y="-240.71" font-family="Times,serif" font-size="14.00">sgrna (162)</text>
</g>
<g id="clust7" class="cluster">
<title>cluster1296</title>
<path fill="none" stroke="black" d="M664,-8C664,-8 784,-8 784,-8 790,-8 796,-14 796,-20 796,-20 796,-209.93 796,-209.93 796,-215.93 790,-221.93 784,-221.93 784,-221.93 664,-221.93 664,-221.93 658,-221.93 652,-215.93 652,-209.93 652,-209.93 652,-20 652,-20 652,-14 658,-8 664,-8"/>
<text text-anchor="middle" x="774" y="-15.8" font-family="Times,serif" font-size="14.00">1296</text>
</g>
<g id="clust1" class="cluster">
<title>cluster6</title>
<path fill="none" stroke="black" d="M385,-443.86C385,-443.86 547,-443.86 547,-443.86 553,-443.86 559,-449.86 559,-455.86 559,-455.86 559,-545.81 559,-545.81 559,-551.81 553,-557.81 547,-557.81 547,-557.81 385,-557.81 385,-557.81 379,-557.81 373,-551.81 373,-545.81 373,-545.81 373,-455.86 373,-455.86 373,-449.86 379,-443.86 385,-443.86"/>
<text text-anchor="middle" x="547.5" y="-451.66" font-family="Times,serif" font-size="14.00">6</text>
</g>
<g id="clust3" class="cluster">
<title>cluster3</title>
<path fill="none" stroke="black" d="M176,-332.88C176,-332.88 300,-332.88 300,-332.88 306,-332.88 312,-338.88 312,-344.88 312,-344.88 312,-412.88 312,-412.88 312,-418.88 306,-424.88 300,-424.88 300,-424.88 176,-424.88 176,-424.88 170,-424.88 164,-418.88 164,-412.88 164,-412.88 164,-344.88 164,-344.88 164,-338.88 170,-332.88 176,-332.88"/>
<text text-anchor="middle" x="300.5" y="-340.68" font-family="Times,serif" font-size="14.00">3</text>
</g>
<!-- genes_chol_cov -->
<g id="node1" class="node">
<title>genes_chol_cov</title>
<ellipse fill="none" stroke="black" cx="466" cy="-512.34" rx="84.71" ry="37.45"/>
<text text-anchor="middle" x="466" y="-523.64" font-family="Times,serif" font-size="14.00">genes_chol_cov</text>
<text text-anchor="middle" x="466" y="-508.64" font-family="Times,serif" font-size="14.00">~</text>
<text text-anchor="middle" x="466" y="-493.64" font-family="Times,serif" font-size="14.00">_LKJCholeskyCov</text>
</g>
<!-- genes_chol_cov_corr -->
<g id="node2" class="node">
<title>genes_chol_cov_corr</title>
<polygon fill="none" stroke="black" points="148,-416.88 16,-416.88 16,-363.88 148,-363.88 148,-416.88"/>
<text text-anchor="middle" x="82" y="-401.68" font-family="Times,serif" font-size="14.00">genes_chol_cov_corr</text>
<text text-anchor="middle" x="82" y="-386.68" font-family="Times,serif" font-size="14.00">~</text>
<text text-anchor="middle" x="82" y="-371.68" font-family="Times,serif" font-size="14.00">Deterministic</text>
</g>
<!-- genes_chol_cov&#45;&gt;genes_chol_cov_corr -->
<g id="edge1" class="edge">
<title>genes_chol_cov&#45;&gt;genes_chol_cov_corr</title>
<path fill="none" stroke="black" d="M387.44,-498.17C324.5,-486.15 234.7,-465.7 160,-435.86 150.24,-431.96 140.2,-427.03 130.72,-421.88"/>
<polygon fill="black" stroke="black" points="132.26,-418.73 121.82,-416.9 128.84,-424.84 132.26,-418.73"/>
</g>
<!-- genes_chol_cov_stds -->
<g id="node3" class="node">
<title>genes_chol_cov_stds</title>
<polygon fill="none" stroke="black" points="303.5,-416.88 172.5,-416.88 172.5,-363.88 303.5,-363.88 303.5,-416.88"/>
<text text-anchor="middle" x="238" y="-401.68" font-family="Times,serif" font-size="14.00">genes_chol_cov_stds</text>
<text text-anchor="middle" x="238" y="-386.68" font-family="Times,serif" font-size="14.00">~</text>
<text text-anchor="middle" x="238" y="-371.68" font-family="Times,serif" font-size="14.00">Deterministic</text>
</g>
<!-- genes_chol_cov&#45;&gt;genes_chol_cov_stds -->
<g id="edge2" class="edge">
<title>genes_chol_cov&#45;&gt;genes_chol_cov_stds</title>
<path fill="none" stroke="black" d="M410.08,-484.06C381.72,-470.01 346.83,-452.39 316,-435.86 307.83,-431.48 299.24,-426.73 290.88,-422.03"/>
<polygon fill="black" stroke="black" points="292.34,-418.83 281.92,-416.95 288.89,-424.93 292.34,-418.83"/>
</g>
<!-- mu_a -->
<g id="node12" class="node">
<title>mu_a</title>
<polygon fill="none" stroke="black" points="660.5,-416.88 569.5,-416.88 569.5,-363.88 660.5,-363.88 660.5,-416.88"/>
<text text-anchor="middle" x="615" y="-401.68" font-family="Times,serif" font-size="14.00">mu_a</text>
<text text-anchor="middle" x="615" y="-386.68" font-family="Times,serif" font-size="14.00">~</text>
<text text-anchor="middle" x="615" y="-371.68" font-family="Times,serif" font-size="14.00">Deterministic</text>
</g>
<!-- genes_chol_cov&#45;&gt;mu_a -->
<g id="edge6" class="edge">
<title>genes_chol_cov&#45;&gt;mu_a</title>
<path fill="none" stroke="black" d="M506.81,-479.17C523.64,-465.84 543.31,-450.17 561,-435.86 565.9,-431.9 571.02,-427.72 576.09,-423.57"/>
<polygon fill="black" stroke="black" points="578.44,-426.16 583.95,-417.11 574,-420.75 578.44,-426.16"/>
</g>
<!-- b -->
<g id="node13" class="node">
<title>b</title>
<polygon fill="none" stroke="black" points="769.5,-416.88 678.5,-416.88 678.5,-363.88 769.5,-363.88 769.5,-416.88"/>
<text text-anchor="middle" x="724" y="-401.68" font-family="Times,serif" font-size="14.00">b</text>
<text text-anchor="middle" x="724" y="-386.68" font-family="Times,serif" font-size="14.00">~</text>
<text text-anchor="middle" x="724" y="-371.68" font-family="Times,serif" font-size="14.00">Deterministic</text>
</g>
<!-- genes_chol_cov&#45;&gt;b -->
<g id="edge11" class="edge">
<title>genes_chol_cov&#45;&gt;b</title>
<path fill="none" stroke="black" d="M502.13,-478.23C518.58,-465.15 539.04,-451.46 560,-443.86 606.09,-427.16 624.49,-454.08 670,-435.86 677.53,-432.84 684.81,-428.37 691.45,-423.41"/>
<polygon fill="black" stroke="black" points="693.9,-425.94 699.5,-416.94 689.51,-420.48 693.9,-425.94"/>
</g>
<!-- d -->
<g id="node14" class="node">
<title>d</title>
<polygon fill="none" stroke="black" points="878.5,-416.88 787.5,-416.88 787.5,-363.88 878.5,-363.88 878.5,-416.88"/>
<text text-anchor="middle" x="833" y="-401.68" font-family="Times,serif" font-size="14.00">d</text>
<text text-anchor="middle" x="833" y="-386.68" font-family="Times,serif" font-size="14.00">~</text>
<text text-anchor="middle" x="833" y="-371.68" font-family="Times,serif" font-size="14.00">Deterministic</text>
</g>
<!-- genes_chol_cov&#45;&gt;d -->
<g id="edge16" class="edge">
<title>genes_chol_cov&#45;&gt;d</title>
<path fill="none" stroke="black" d="M501.56,-478.22C518.06,-464.97 538.71,-451.14 560,-443.86 606.08,-428.1 733.47,-453.14 779,-435.86 786.66,-432.95 794.04,-428.48 800.75,-423.48"/>
<polygon fill="black" stroke="black" points="803.28,-425.94 808.86,-416.94 798.88,-420.49 803.28,-425.94"/>
</g>
<!-- sigma_b -->
<g id="node7" class="node">
<title>sigma_b</title>
<polygon fill="none" stroke="black" points="188.5,-316.91 97.5,-316.91 97.5,-263.91 188.5,-263.91 188.5,-316.91"/>
<text text-anchor="middle" x="143" y="-301.71" font-family="Times,serif" font-size="14.00">sigma_b</text>
<text text-anchor="middle" x="143" y="-286.71" font-family="Times,serif" font-size="14.00">~</text>
<text text-anchor="middle" x="143" y="-271.71" font-family="Times,serif" font-size="14.00">Deterministic</text>
</g>
<!-- genes_chol_cov_stds&#45;&gt;sigma_b -->
<g id="edge4" class="edge">
<title>genes_chol_cov_stds&#45;&gt;sigma_b</title>
<path fill="none" stroke="black" d="M213.04,-363.64C201.37,-351.6 187.33,-337.13 174.9,-324.3"/>
<polygon fill="black" stroke="black" points="177.27,-321.72 167.79,-316.98 172.24,-326.59 177.27,-321.72"/>
</g>
<!-- sigma_mu_a -->
<g id="node8" class="node">
<title>sigma_mu_a</title>
<polygon fill="none" stroke="black" points="297.5,-316.91 206.5,-316.91 206.5,-263.91 297.5,-263.91 297.5,-316.91"/>
<text text-anchor="middle" x="252" y="-301.71" font-family="Times,serif" font-size="14.00">sigma_mu_a</text>
<text text-anchor="middle" x="252" y="-286.71" font-family="Times,serif" font-size="14.00">~</text>
<text text-anchor="middle" x="252" y="-271.71" font-family="Times,serif" font-size="14.00">Deterministic</text>
</g>
<!-- genes_chol_cov_stds&#45;&gt;sigma_mu_a -->
<g id="edge3" class="edge">
<title>genes_chol_cov_stds&#45;&gt;sigma_mu_a</title>
<path fill="none" stroke="black" d="M241.68,-363.64C243.27,-352.5 245.16,-339.28 246.88,-327.21"/>
<polygon fill="black" stroke="black" points="250.4,-327.37 248.35,-316.98 243.47,-326.38 250.4,-327.37"/>
</g>
<!-- sigma_a -->
<g id="node4" class="node">
<title>sigma_a</title>
<ellipse fill="none" stroke="black" cx="494" cy="-390.38" rx="57.97" ry="37.45"/>
<text text-anchor="middle" x="494" y="-401.68" font-family="Times,serif" font-size="14.00">sigma_a</text>
<text text-anchor="middle" x="494" y="-386.68" font-family="Times,serif" font-size="14.00">~</text>
<text text-anchor="middle" x="494" y="-371.68" font-family="Times,serif" font-size="14.00">Exponential</text>
</g>
<!-- a -->
<g id="node16" class="node">
<title>a</title>
<polygon fill="none" stroke="black" points="419.5,-316.91 328.5,-316.91 328.5,-263.91 419.5,-263.91 419.5,-316.91"/>
<text text-anchor="middle" x="374" y="-301.71" font-family="Times,serif" font-size="14.00">a</text>
<text text-anchor="middle" x="374" y="-286.71" font-family="Times,serif" font-size="14.00">~</text>
<text text-anchor="middle" x="374" y="-271.71" font-family="Times,serif" font-size="14.00">Deterministic</text>
</g>
<!-- sigma_a&#45;&gt;a -->
<g id="edge21" class="edge">
<title>sigma_a&#45;&gt;a</title>
<path fill="none" stroke="black" d="M462.14,-359.02C452.64,-350.34 442.08,-341.03 432,-332.88 428.01,-329.66 423.79,-326.39 419.53,-323.18"/>
<polygon fill="black" stroke="black" points="421.43,-320.23 411.31,-317.1 417.26,-325.86 421.43,-320.23"/>
</g>
<!-- mu_mu_a -->
<g id="node5" class="node">
<title>mu_mu_a</title>
<ellipse fill="none" stroke="black" cx="722" cy="-512.34" rx="50.82" ry="37.45"/>
<text text-anchor="middle" x="722" y="-523.64" font-family="Times,serif" font-size="14.00">mu_mu_a</text>
<text text-anchor="middle" x="722" y="-508.64" font-family="Times,serif" font-size="14.00">~</text>
<text text-anchor="middle" x="722" y="-493.64" font-family="Times,serif" font-size="14.00">Normal</text>
</g>
<!-- mu_mu_a&#45;&gt;mu_a -->
<g id="edge5" class="edge">
<title>mu_mu_a&#45;&gt;mu_a</title>
<path fill="none" stroke="black" d="M694.54,-480.41C684.33,-468.93 672.65,-455.79 662,-443.86 656.5,-437.7 650.64,-431.14 644.98,-424.82"/>
<polygon fill="black" stroke="black" points="647.25,-422.1 637.97,-416.99 642.03,-426.77 647.25,-422.1"/>
</g>
<!-- mu_mu_a&#45;&gt;b -->
<g id="edge10" class="edge">
<title>mu_mu_a&#45;&gt;b</title>
<path fill="none" stroke="black" d="M722.61,-474.69C722.86,-459.73 723.15,-442.46 723.4,-427.54"/>
<polygon fill="black" stroke="black" points="726.9,-427.21 723.57,-417.16 719.9,-427.1 726.9,-427.21"/>
</g>
<!-- mu_mu_a&#45;&gt;d -->
<g id="edge15" class="edge">
<title>mu_mu_a&#45;&gt;d</title>
<path fill="none" stroke="black" d="M748.9,-480.51C759.15,-468.92 771.01,-455.69 782,-443.86 787.91,-437.51 794.29,-430.81 800.48,-424.4"/>
<polygon fill="black" stroke="black" points="803.16,-426.67 807.61,-417.06 798.13,-421.79 803.16,-426.67"/>
</g>
<!-- alpha -->
<g id="node6" class="node">
<title>alpha</title>
<ellipse fill="none" stroke="black" cx="847" cy="-187.43" rx="43.27" ry="37.45"/>
<text text-anchor="middle" x="847" y="-198.73" font-family="Times,serif" font-size="14.00">alpha</text>
<text text-anchor="middle" x="847" y="-183.73" font-family="Times,serif" font-size="14.00">~</text>
<text text-anchor="middle" x="847" y="-168.73" font-family="Times,serif" font-size="14.00">Gamma</text>
</g>
<!-- ct_final -->
<g id="node18" class="node">
<title>ct_final</title>
<ellipse fill="lightgrey" stroke="black" cx="724" cy="-76.48" rx="63.78" ry="37.45"/>
<text text-anchor="middle" x="724" y="-87.78" font-family="Times,serif" font-size="14.00">ct_final</text>
<text text-anchor="middle" x="724" y="-72.78" font-family="Times,serif" font-size="14.00">~</text>
<text text-anchor="middle" x="724" y="-57.78" font-family="Times,serif" font-size="14.00">NegBinomial</text>
</g>
<!-- alpha&#45;&gt;ct_final -->
<g id="edge27" class="edge">
<title>alpha&#45;&gt;ct_final</title>
<path fill="none" stroke="black" d="M817.23,-160.06C801.93,-146.51 783.04,-129.78 766.27,-114.92"/>
<polygon fill="black" stroke="black" points="768.54,-112.25 758.73,-108.24 763.9,-117.49 768.54,-112.25"/>
</g>
<!-- mu_d -->
<g id="node9" class="node">
<title>mu_d</title>
<ellipse fill="none" stroke="black" cx="833" cy="-512.34" rx="41.94" ry="37.45"/>
<text text-anchor="middle" x="833" y="-523.64" font-family="Times,serif" font-size="14.00">mu_d</text>
<text text-anchor="middle" x="833" y="-508.64" font-family="Times,serif" font-size="14.00">~</text>
<text text-anchor="middle" x="833" y="-493.64" font-family="Times,serif" font-size="14.00">Normal</text>
</g>
<!-- mu_d&#45;&gt;mu_a -->
<g id="edge8" class="edge">
<title>mu_d&#45;&gt;mu_a</title>
<path fill="none" stroke="black" d="M816.01,-478.05C807.61,-465.11 796.2,-451.57 782,-443.86 760.07,-431.95 693.21,-445.01 670,-435.86 662.37,-432.85 654.98,-428.38 648.22,-423.42"/>
<polygon fill="black" stroke="black" points="650.04,-420.4 640.02,-416.95 645.7,-425.9 650.04,-420.4"/>
</g>
<!-- mu_d&#45;&gt;b -->
<g id="edge13" class="edge">
<title>mu_d&#45;&gt;b</title>
<path fill="none" stroke="black" d="M811.32,-480.13C802.66,-468.37 792.31,-455.12 782,-443.86 775.81,-437.09 768.84,-430.24 761.94,-423.82"/>
<polygon fill="black" stroke="black" points="764.27,-421.21 754.53,-417.05 759.55,-426.38 764.27,-421.21"/>
</g>
<!-- mu_d&#45;&gt;d -->
<g id="edge18" class="edge">
<title>mu_d&#45;&gt;d</title>
<path fill="none" stroke="black" d="M833,-474.69C833,-459.73 833,-442.46 833,-427.54"/>
<polygon fill="black" stroke="black" points="836.5,-427.16 833,-417.16 829.5,-427.16 836.5,-427.16"/>
</g>
<!-- mu_b -->
<g id="node10" class="node">
<title>mu_b</title>
<ellipse fill="none" stroke="black" cx="611" cy="-512.34" rx="41.94" ry="37.45"/>
<text text-anchor="middle" x="611" y="-523.64" font-family="Times,serif" font-size="14.00">mu_b</text>
<text text-anchor="middle" x="611" y="-508.64" font-family="Times,serif" font-size="14.00">~</text>
<text text-anchor="middle" x="611" y="-493.64" font-family="Times,serif" font-size="14.00">Normal</text>
</g>
<!-- mu_b&#45;&gt;mu_a -->
<g id="edge9" class="edge">
<title>mu_b&#45;&gt;mu_a</title>
<path fill="none" stroke="black" d="M612.22,-474.69C612.72,-459.73 613.3,-442.46 613.79,-427.54"/>
<polygon fill="black" stroke="black" points="617.31,-427.27 614.14,-417.16 610.31,-427.04 617.31,-427.27"/>
</g>
<!-- mu_b&#45;&gt;b -->
<g id="edge14" class="edge">
<title>mu_b&#45;&gt;b</title>
<path fill="none" stroke="black" d="M632.49,-479.95C641.12,-468.17 651.5,-454.95 662,-443.86 666.28,-439.33 675,-431.68 684.57,-423.59"/>
<polygon fill="black" stroke="black" points="686.95,-426.17 692.37,-417.07 682.45,-420.8 686.95,-426.17"/>
</g>
<!-- mu_b&#45;&gt;d -->
<g id="edge19" class="edge">
<title>mu_b&#45;&gt;d</title>
<path fill="none" stroke="black" d="M627.98,-478.03C636.38,-465.09 647.79,-451.55 662,-443.86 684.92,-431.46 754.79,-445.49 779,-435.86 786.54,-432.86 793.82,-428.4 800.46,-423.44"/>
<polygon fill="black" stroke="black" points="802.91,-425.96 808.51,-416.97 798.52,-420.51 802.91,-425.96"/>
</g>
<!-- delta_genes -->
<g id="node11" class="node">
<title>delta_genes</title>
<ellipse fill="none" stroke="black" cx="949" cy="-512.34" rx="56.64" ry="37.45"/>
<text text-anchor="middle" x="949" y="-523.64" font-family="Times,serif" font-size="14.00">delta_genes</text>
<text text-anchor="middle" x="949" y="-508.64" font-family="Times,serif" font-size="14.00">~</text>
<text text-anchor="middle" x="949" y="-493.64" font-family="Times,serif" font-size="14.00">Normal</text>
</g>
<!-- delta_genes&#45;&gt;mu_a -->
<g id="edge7" class="edge">
<title>delta_genes&#45;&gt;mu_a</title>
<path fill="none" stroke="black" d="M925.93,-478.01C914.89,-464.9 900.48,-451.23 884,-443.86 840.56,-424.42 714.56,-452.57 670,-435.86 662.24,-432.95 654.75,-428.48 647.92,-423.48"/>
<polygon fill="black" stroke="black" points="649.67,-420.4 639.66,-416.94 645.33,-425.89 649.67,-420.4"/>
</g>
<!-- delta_genes&#45;&gt;b -->
<g id="edge12" class="edge">
<title>delta_genes&#45;&gt;b</title>
<path fill="none" stroke="black" d="M925.49,-477.97C914.47,-465.01 900.19,-451.48 884,-443.86 841.66,-423.92 822.5,-453.13 779,-435.86 771.38,-432.83 763.99,-428.36 757.23,-423.39"/>
<polygon fill="black" stroke="black" points="759.05,-420.37 749.03,-416.92 754.71,-425.87 759.05,-420.37"/>
</g>
<!-- delta_genes&#45;&gt;d -->
<g id="edge17" class="edge">
<title>delta_genes&#45;&gt;d</title>
<path fill="none" stroke="black" d="M919.26,-480.4C908.2,-468.92 895.54,-455.78 884,-443.86 877.9,-437.56 871.39,-430.84 865.12,-424.39"/>
<polygon fill="black" stroke="black" points="867.4,-421.72 857.93,-416.98 862.38,-426.6 867.4,-421.72"/>
</g>
<!-- mu_a&#45;&gt;a -->
<g id="edge20" class="edge">
<title>mu_a&#45;&gt;a</title>
<path fill="none" stroke="black" d="M596.27,-363.82C586.87,-352.72 574.59,-340.54 561,-332.88 520.58,-310.1 468.67,-299.84 429.8,-295.21"/>
<polygon fill="black" stroke="black" points="430.03,-291.71 419.71,-294.09 429.26,-298.67 430.03,-291.71"/>
</g>
<!-- eta -->
<g id="node17" class="node">
<title>eta</title>
<polygon fill="none" stroke="black" points="769.5,-213.93 678.5,-213.93 678.5,-160.93 769.5,-160.93 769.5,-213.93"/>
<text text-anchor="middle" x="724" y="-198.73" font-family="Times,serif" font-size="14.00">eta</text>
<text text-anchor="middle" x="724" y="-183.73" font-family="Times,serif" font-size="14.00">~</text>
<text text-anchor="middle" x="724" y="-168.73" font-family="Times,serif" font-size="14.00">Deterministic</text>
</g>
<!-- b&#45;&gt;eta -->
<g id="edge23" class="edge">
<title>b&#45;&gt;eta</title>
<path fill="none" stroke="black" d="M724,-363.52C724,-328.1 724,-264.34 724,-224.31"/>
<polygon fill="black" stroke="black" points="727.5,-224.19 724,-214.19 720.5,-224.19 727.5,-224.19"/>
</g>
<!-- d&#45;&gt;eta -->
<g id="edge24" class="edge">
<title>d&#45;&gt;eta</title>
<path fill="none" stroke="black" d="M818.97,-363.52C799.56,-327.73 764.44,-262.98 742.78,-223.05"/>
<polygon fill="black" stroke="black" points="745.82,-221.31 737.97,-214.19 739.66,-224.65 745.82,-221.31"/>
</g>
<!-- delta_a -->
<g id="node15" class="node">
<title>delta_a</title>
<ellipse fill="none" stroke="black" cx="374" cy="-390.38" rx="41.94" ry="37.45"/>
<text text-anchor="middle" x="374" y="-401.68" font-family="Times,serif" font-size="14.00">delta_a</text>
<text text-anchor="middle" x="374" y="-386.68" font-family="Times,serif" font-size="14.00">~</text>
<text text-anchor="middle" x="374" y="-371.68" font-family="Times,serif" font-size="14.00">Normal</text>
</g>
<!-- delta_a&#45;&gt;a -->
<g id="edge22" class="edge">
<title>delta_a&#45;&gt;a</title>
<path fill="none" stroke="black" d="M374,-352.9C374,-344.48 374,-335.54 374,-327.16"/>
<polygon fill="black" stroke="black" points="377.5,-326.92 374,-316.92 370.5,-326.92 377.5,-326.92"/>
</g>
<!-- a&#45;&gt;eta -->
<g id="edge25" class="edge">
<title>a&#45;&gt;eta</title>
<path fill="none" stroke="black" d="M419.76,-276.21C483.69,-257.76 599.62,-224.31 668.43,-204.46"/>
<polygon fill="black" stroke="black" points="669.59,-207.77 678.23,-201.63 667.65,-201.04 669.59,-207.77"/>
</g>
<!-- eta&#45;&gt;ct_final -->
<g id="edge26" class="edge">
<title>eta&#45;&gt;ct_final</title>
<path fill="none" stroke="black" d="M724,-160.89C724,-149.98 724,-136.89 724,-124.35"/>
<polygon fill="black" stroke="black" points="727.5,-124 724,-114 720.5,-124 727.5,-124"/>
</g>
</g>
</svg>
