<?xml version="1.0" encoding="UTF-8" standalone="no"?>
<!DOCTYPE svg PUBLIC "-//W3C//DTD SVG 1.1//EN"
 "http://www.w3.org/Graphics/SVG/1.1/DTD/svg11.dtd">
<!-- Generated by graphviz version 4.0.0 (0)
 -->
<!-- Pages: 1 -->
<svg width="1238pt" height="760pt"
 viewBox="0.00 0.00 1237.50 759.84" xmlns="http://www.w3.org/2000/svg" xmlns:xlink="http://www.w3.org/1999/xlink">
<g id="graph0" class="graph" transform="scale(1 1) rotate(0) translate(4 755.84)">
<polygon fill="white" stroke="transparent" points="-4,4 -4,-755.84 1233.5,-755.84 1233.5,4 -4,4"/>
<g id="clust8" class="cluster">
<title>clustergene (103) x cancer_gene (3)</title>
<path fill="none" stroke="black" d="M1057.5,-518.91C1057.5,-518.91 1209.5,-518.91 1209.5,-518.91 1215.5,-518.91 1221.5,-524.91 1221.5,-530.91 1221.5,-530.91 1221.5,-598.91 1221.5,-598.91 1221.5,-604.91 1215.5,-610.91 1209.5,-610.91 1209.5,-610.91 1057.5,-610.91 1057.5,-610.91 1051.5,-610.91 1045.5,-604.91 1045.5,-598.91 1045.5,-598.91 1045.5,-530.91 1045.5,-530.91 1045.5,-524.91 1051.5,-518.91 1057.5,-518.91"/>
<text text-anchor="middle" x="1133.5" y="-526.71" font-family="Times,serif" font-size="14.00">gene (103) x cancer_gene (3)</text>
</g>
<g id="clust3" class="cluster">
<title>cluster7</title>
<path fill="none" stroke="black" d="M201.5,-518.91C201.5,-518.91 325.5,-518.91 325.5,-518.91 331.5,-518.91 337.5,-524.91 337.5,-530.91 337.5,-530.91 337.5,-598.91 337.5,-598.91 337.5,-604.91 331.5,-610.91 325.5,-610.91 325.5,-610.91 201.5,-610.91 201.5,-610.91 195.5,-610.91 189.5,-604.91 189.5,-598.91 189.5,-598.91 189.5,-530.91 189.5,-530.91 189.5,-524.91 195.5,-518.91 201.5,-518.91"/>
<text text-anchor="middle" x="326" y="-526.71" font-family="Times,serif" font-size="14.00">7</text>
</g>
<g id="clust4" class="cluster">
<title>cluster3</title>
<path fill="none" stroke="black" d="M439.5,-418.91C439.5,-418.91 523.5,-418.91 523.5,-418.91 529.5,-418.91 535.5,-424.91 535.5,-430.91 535.5,-430.91 535.5,-498.91 535.5,-498.91 535.5,-504.91 529.5,-510.91 523.5,-510.91 523.5,-510.91 439.5,-510.91 439.5,-510.91 433.5,-510.91 427.5,-504.91 427.5,-498.91 427.5,-498.91 427.5,-430.91 427.5,-430.91 427.5,-424.91 433.5,-418.91 439.5,-418.91"/>
<text text-anchor="middle" x="524" y="-426.71" font-family="Times,serif" font-size="14.00">3</text>
</g>
<g id="clust1" class="cluster">
<title>cluster28</title>
<path fill="none" stroke="black" d="M181.5,-629.88C181.5,-629.88 343.5,-629.88 343.5,-629.88 349.5,-629.88 355.5,-635.88 355.5,-641.88 355.5,-641.88 355.5,-731.84 355.5,-731.84 355.5,-737.84 349.5,-743.84 343.5,-743.84 343.5,-743.84 181.5,-743.84 181.5,-743.84 175.5,-743.84 169.5,-737.84 169.5,-731.84 169.5,-731.84 169.5,-641.88 169.5,-641.88 169.5,-635.88 175.5,-629.88 181.5,-629.88"/>
<text text-anchor="middle" x="340.5" y="-637.68" font-family="Times,serif" font-size="14.00">28</text>
</g>
<g id="clust2" class="cluster">
<title>cluster7 x 7</title>
<path fill="none" stroke="black" d="M45.5,-518.91C45.5,-518.91 169.5,-518.91 169.5,-518.91 175.5,-518.91 181.5,-524.91 181.5,-530.91 181.5,-530.91 181.5,-598.91 181.5,-598.91 181.5,-604.91 175.5,-610.91 169.5,-610.91 169.5,-610.91 45.5,-610.91 45.5,-610.91 39.5,-610.91 33.5,-604.91 33.5,-598.91 33.5,-598.91 33.5,-530.91 33.5,-530.91 33.5,-524.91 39.5,-518.91 45.5,-518.91"/>
<text text-anchor="middle" x="159.5" y="-526.71" font-family="Times,serif" font-size="14.00">7 x 7</text>
</g>
<g id="clust5" class="cluster">
<title>clustercancer_gene (3)</title>
<path fill="none" stroke="black" d="M487.5,-629.88C487.5,-629.88 567.5,-629.88 567.5,-629.88 573.5,-629.88 579.5,-635.88 579.5,-641.88 579.5,-641.88 579.5,-731.84 579.5,-731.84 579.5,-737.84 573.5,-743.84 567.5,-743.84 567.5,-743.84 487.5,-743.84 487.5,-743.84 481.5,-743.84 475.5,-737.84 475.5,-731.84 475.5,-731.84 475.5,-641.88 475.5,-641.88 475.5,-635.88 481.5,-629.88 487.5,-629.88"/>
<text text-anchor="middle" x="527.5" y="-637.68" font-family="Times,serif" font-size="14.00">cancer_gene (3)</text>
</g>
<g id="clust6" class="cluster">
<title>cluster7 x 103</title>
<path fill="none" stroke="black" d="M599.5,-629.88C599.5,-629.88 705.5,-629.88 705.5,-629.88 711.5,-629.88 717.5,-635.88 717.5,-641.88 717.5,-641.88 717.5,-731.84 717.5,-731.84 717.5,-737.84 711.5,-743.84 705.5,-743.84 705.5,-743.84 599.5,-743.84 599.5,-743.84 593.5,-743.84 587.5,-737.84 587.5,-731.84 587.5,-731.84 587.5,-641.88 587.5,-641.88 587.5,-635.88 593.5,-629.88 599.5,-629.88"/>
<text text-anchor="middle" x="688.5" y="-637.68" font-family="Times,serif" font-size="14.00">7 x 103</text>
</g>
<g id="clust7" class="cluster">
<title>clustergene (103)</title>
<path fill="none" stroke="black" d="M374.5,-518.91C374.5,-518.91 785.5,-518.91 785.5,-518.91 791.5,-518.91 797.5,-524.91 797.5,-530.91 797.5,-530.91 797.5,-598.91 797.5,-598.91 797.5,-604.91 791.5,-610.91 785.5,-610.91 785.5,-610.91 374.5,-610.91 374.5,-610.91 368.5,-610.91 362.5,-604.91 362.5,-598.91 362.5,-598.91 362.5,-530.91 362.5,-530.91 362.5,-524.91 368.5,-518.91 374.5,-518.91"/>
<text text-anchor="middle" x="760" y="-526.71" font-family="Times,serif" font-size="14.00">gene (103)</text>
</g>
<g id="clust9" class="cluster">
<title>clustersgrna (162)</title>
<path fill="none" stroke="black" d="M817.5,-418.91C817.5,-418.91 901.5,-418.91 901.5,-418.91 907.5,-418.91 913.5,-424.91 913.5,-430.91 913.5,-430.91 913.5,-609.88 913.5,-609.88 913.5,-615.88 907.5,-621.88 901.5,-621.88 901.5,-621.88 817.5,-621.88 817.5,-621.88 811.5,-621.88 805.5,-615.88 805.5,-609.88 805.5,-609.88 805.5,-430.91 805.5,-430.91 805.5,-424.91 811.5,-418.91 817.5,-418.91"/>
<text text-anchor="middle" x="874" y="-426.71" font-family="Times,serif" font-size="14.00">sgrna (162)</text>
</g>
<g id="clust10" class="cluster">
<title>cluster1296</title>
<path fill="none" stroke="black" d="M574.5,-8C574.5,-8 694.5,-8 694.5,-8 700.5,-8 706.5,-14 706.5,-20 706.5,-20 706.5,-398.91 706.5,-398.91 706.5,-404.91 700.5,-410.91 694.5,-410.91 694.5,-410.91 574.5,-410.91 574.5,-410.91 568.5,-410.91 562.5,-404.91 562.5,-398.91 562.5,-398.91 562.5,-20 562.5,-20 562.5,-14 568.5,-8 574.5,-8"/>
<text text-anchor="middle" x="684.5" y="-15.8" font-family="Times,serif" font-size="14.00">1296</text>
</g>
<!-- genes_chol_cov -->
<g id="node1" class="node">
<title>genes_chol_cov</title>
<ellipse fill="none" stroke="black" cx="262.5" cy="-698.36" rx="84.71" ry="37.45"/>
<text text-anchor="middle" x="262.5" y="-709.66" font-family="Times,serif" font-size="14.00">genes_chol_cov</text>
<text text-anchor="middle" x="262.5" y="-694.66" font-family="Times,serif" font-size="14.00">~</text>
<text text-anchor="middle" x="262.5" y="-679.66" font-family="Times,serif" font-size="14.00">_LKJCholeskyCov</text>
</g>
<!-- genes_chol_cov_corr -->
<g id="node2" class="node">
<title>genes_chol_cov_corr</title>
<polygon fill="none" stroke="black" points="173.5,-602.91 41.5,-602.91 41.5,-549.91 173.5,-549.91 173.5,-602.91"/>
<text text-anchor="middle" x="107.5" y="-587.71" font-family="Times,serif" font-size="14.00">genes_chol_cov_corr</text>
<text text-anchor="middle" x="107.5" y="-572.71" font-family="Times,serif" font-size="14.00">~</text>
<text text-anchor="middle" x="107.5" y="-557.71" font-family="Times,serif" font-size="14.00">Deterministic</text>
</g>
<!-- genes_chol_cov&#45;&gt;genes_chol_cov_corr -->
<g id="edge1" class="edge">
<title>genes_chol_cov&#45;&gt;genes_chol_cov_corr</title>
<path fill="none" stroke="black" d="M221.37,-665.53C198.84,-648.1 171.02,-626.56 148.51,-609.14"/>
<polygon fill="black" stroke="black" points="150.53,-606.28 140.48,-602.93 146.25,-611.82 150.53,-606.28"/>
</g>
<!-- genes_chol_cov_stds -->
<g id="node3" class="node">
<title>genes_chol_cov_stds</title>
<polygon fill="none" stroke="black" points="329,-602.91 198,-602.91 198,-549.91 329,-549.91 329,-602.91"/>
<text text-anchor="middle" x="263.5" y="-587.71" font-family="Times,serif" font-size="14.00">genes_chol_cov_stds</text>
<text text-anchor="middle" x="263.5" y="-572.71" font-family="Times,serif" font-size="14.00">~</text>
<text text-anchor="middle" x="263.5" y="-557.71" font-family="Times,serif" font-size="14.00">Deterministic</text>
</g>
<!-- genes_chol_cov&#45;&gt;genes_chol_cov_stds -->
<g id="edge2" class="edge">
<title>genes_chol_cov&#45;&gt;genes_chol_cov_stds</title>
<path fill="none" stroke="black" d="M262.81,-660.72C262.93,-645.75 263.07,-628.48 263.2,-613.56"/>
<polygon fill="black" stroke="black" points="266.7,-613.21 263.29,-603.18 259.7,-613.15 266.7,-613.21"/>
</g>
<!-- f -->
<g id="node17" class="node">
<title>f</title>
<polygon fill="none" stroke="black" points="680,-602.91 589,-602.91 589,-549.91 680,-549.91 680,-602.91"/>
<text text-anchor="middle" x="634.5" y="-587.71" font-family="Times,serif" font-size="14.00">f</text>
<text text-anchor="middle" x="634.5" y="-572.71" font-family="Times,serif" font-size="14.00">~</text>
<text text-anchor="middle" x="634.5" y="-557.71" font-family="Times,serif" font-size="14.00">Deterministic</text>
</g>
<!-- genes_chol_cov&#45;&gt;f -->
<g id="edge31" class="edge">
<title>genes_chol_cov&#45;&gt;f</title>
<path fill="none" stroke="black" d="M298.06,-664.23C314.55,-650.98 335.21,-637.16 356.5,-629.88 403.64,-613.78 533.92,-639.54 580.5,-621.88 588.17,-618.98 595.54,-614.51 602.25,-609.51"/>
<polygon fill="black" stroke="black" points="604.78,-611.97 610.36,-602.97 600.38,-606.52 604.78,-611.97"/>
</g>
<!-- mu_a -->
<g id="node18" class="node">
<title>mu_a</title>
<polygon fill="none" stroke="black" points="789,-602.91 698,-602.91 698,-549.91 789,-549.91 789,-602.91"/>
<text text-anchor="middle" x="743.5" y="-587.71" font-family="Times,serif" font-size="14.00">mu_a</text>
<text text-anchor="middle" x="743.5" y="-572.71" font-family="Times,serif" font-size="14.00">~</text>
<text text-anchor="middle" x="743.5" y="-557.71" font-family="Times,serif" font-size="14.00">Deterministic</text>
</g>
<!-- genes_chol_cov&#45;&gt;mu_a -->
<g id="edge10" class="edge">
<title>genes_chol_cov&#45;&gt;mu_a</title>
<path fill="none" stroke="black" d="M298.02,-664.11C314.51,-650.84 335.17,-637.03 356.5,-629.88 391.59,-618.12 654.82,-634.8 689.5,-621.88 697.18,-619.02 704.57,-614.58 711.28,-609.58"/>
<polygon fill="black" stroke="black" points="713.8,-612.04 719.39,-603.04 709.41,-606.6 713.8,-612.04"/>
</g>
<!-- b -->
<g id="node19" class="node">
<title>b</title>
<polygon fill="none" stroke="black" points="462,-602.91 371,-602.91 371,-549.91 462,-549.91 462,-602.91"/>
<text text-anchor="middle" x="416.5" y="-587.71" font-family="Times,serif" font-size="14.00">b</text>
<text text-anchor="middle" x="416.5" y="-572.71" font-family="Times,serif" font-size="14.00">~</text>
<text text-anchor="middle" x="416.5" y="-557.71" font-family="Times,serif" font-size="14.00">Deterministic</text>
</g>
<!-- genes_chol_cov&#45;&gt;b -->
<g id="edge17" class="edge">
<title>genes_chol_cov&#45;&gt;b</title>
<path fill="none" stroke="black" d="M303.77,-665.21C325.99,-647.91 353.31,-626.63 375.48,-609.35"/>
<polygon fill="black" stroke="black" points="377.67,-612.09 383.4,-603.19 373.36,-606.57 377.67,-612.09"/>
</g>
<!-- d -->
<g id="node20" class="node">
<title>d</title>
<polygon fill="none" stroke="black" points="571,-602.91 480,-602.91 480,-549.91 571,-549.91 571,-602.91"/>
<text text-anchor="middle" x="525.5" y="-587.71" font-family="Times,serif" font-size="14.00">d</text>
<text text-anchor="middle" x="525.5" y="-572.71" font-family="Times,serif" font-size="14.00">~</text>
<text text-anchor="middle" x="525.5" y="-557.71" font-family="Times,serif" font-size="14.00">Deterministic</text>
</g>
<!-- genes_chol_cov&#45;&gt;d -->
<g id="edge24" class="edge">
<title>genes_chol_cov&#45;&gt;d</title>
<path fill="none" stroke="black" d="M298.62,-664.22C315.06,-651.14 335.52,-637.45 356.5,-629.88 404.7,-612.51 423.91,-640.85 471.5,-621.88 479.04,-618.88 486.32,-614.42 492.96,-609.46"/>
<polygon fill="black" stroke="black" points="495.41,-611.98 501.01,-602.99 491.02,-606.53 495.41,-611.98"/>
</g>
<!-- h -->
<g id="node21" class="node">
<title>h</title>
<polygon fill="none" stroke="black" points="1146,-602.91 1055,-602.91 1055,-549.91 1146,-549.91 1146,-602.91"/>
<text text-anchor="middle" x="1100.5" y="-587.71" font-family="Times,serif" font-size="14.00">h</text>
<text text-anchor="middle" x="1100.5" y="-572.71" font-family="Times,serif" font-size="14.00">~</text>
<text text-anchor="middle" x="1100.5" y="-557.71" font-family="Times,serif" font-size="14.00">Deterministic</text>
</g>
<!-- genes_chol_cov&#45;&gt;h -->
<g id="edge38" class="edge">
<title>genes_chol_cov&#45;&gt;h</title>
<path fill="none" stroke="black" d="M297.97,-663.99C314.46,-650.69 335.12,-636.9 356.5,-629.88 392.92,-617.93 1010.49,-635.04 1046.5,-621.88 1054.2,-619.07 1061.59,-614.65 1068.31,-609.66"/>
<polygon fill="black" stroke="black" points="1070.83,-612.12 1076.42,-603.12 1066.44,-606.67 1070.83,-612.12"/>
</g>
<!-- sigma_d -->
<g id="node4" class="node">
<title>sigma_d</title>
<polygon fill="none" stroke="black" points="91,-502.91 0,-502.91 0,-449.91 91,-449.91 91,-502.91"/>
<text text-anchor="middle" x="45.5" y="-487.71" font-family="Times,serif" font-size="14.00">sigma_d</text>
<text text-anchor="middle" x="45.5" y="-472.71" font-family="Times,serif" font-size="14.00">~</text>
<text text-anchor="middle" x="45.5" y="-457.71" font-family="Times,serif" font-size="14.00">Deterministic</text>
</g>
<!-- genes_chol_cov_stds&#45;&gt;sigma_d -->
<g id="edge5" class="edge">
<title>genes_chol_cov_stds&#45;&gt;sigma_d</title>
<path fill="none" stroke="black" d="M235.68,-549.63C221.67,-538.2 203.81,-525.81 185.5,-518.91 149.99,-505.53 136.51,-522.86 100.5,-510.91 97.57,-509.93 94.63,-508.78 91.72,-507.5"/>
<polygon fill="black" stroke="black" points="93.09,-504.27 82.57,-503.02 90.02,-510.56 93.09,-504.27"/>
</g>
<!-- sigma_f -->
<g id="node5" class="node">
<title>sigma_f</title>
<polygon fill="none" stroke="black" points="200,-502.91 109,-502.91 109,-449.91 200,-449.91 200,-502.91"/>
<text text-anchor="middle" x="154.5" y="-487.71" font-family="Times,serif" font-size="14.00">sigma_f</text>
<text text-anchor="middle" x="154.5" y="-472.71" font-family="Times,serif" font-size="14.00">~</text>
<text text-anchor="middle" x="154.5" y="-457.71" font-family="Times,serif" font-size="14.00">Deterministic</text>
</g>
<!-- genes_chol_cov_stds&#45;&gt;sigma_f -->
<g id="edge6" class="edge">
<title>genes_chol_cov_stds&#45;&gt;sigma_f</title>
<path fill="none" stroke="black" d="M234.86,-549.66C221.34,-537.5 205.06,-522.87 190.7,-509.95"/>
<polygon fill="black" stroke="black" points="192.72,-507.07 182.95,-502.98 188.04,-512.27 192.72,-507.07"/>
</g>
<!-- sigma_mu_a -->
<g id="node8" class="node">
<title>sigma_mu_a</title>
<polygon fill="none" stroke="black" points="309,-502.91 218,-502.91 218,-449.91 309,-449.91 309,-502.91"/>
<text text-anchor="middle" x="263.5" y="-487.71" font-family="Times,serif" font-size="14.00">sigma_mu_a</text>
<text text-anchor="middle" x="263.5" y="-472.71" font-family="Times,serif" font-size="14.00">~</text>
<text text-anchor="middle" x="263.5" y="-457.71" font-family="Times,serif" font-size="14.00">Deterministic</text>
</g>
<!-- genes_chol_cov_stds&#45;&gt;sigma_mu_a -->
<g id="edge3" class="edge">
<title>genes_chol_cov_stds&#45;&gt;sigma_mu_a</title>
<path fill="none" stroke="black" d="M263.5,-549.66C263.5,-538.52 263.5,-525.29 263.5,-513.21"/>
<polygon fill="black" stroke="black" points="267,-512.98 263.5,-502.98 260,-512.98 267,-512.98"/>
</g>
<!-- sigma_b -->
<g id="node9" class="node">
<title>sigma_b</title>
<polygon fill="none" stroke="black" points="418,-502.91 327,-502.91 327,-449.91 418,-449.91 418,-502.91"/>
<text text-anchor="middle" x="372.5" y="-487.71" font-family="Times,serif" font-size="14.00">sigma_b</text>
<text text-anchor="middle" x="372.5" y="-472.71" font-family="Times,serif" font-size="14.00">~</text>
<text text-anchor="middle" x="372.5" y="-457.71" font-family="Times,serif" font-size="14.00">Deterministic</text>
</g>
<!-- genes_chol_cov_stds&#45;&gt;sigma_b -->
<g id="edge4" class="edge">
<title>genes_chol_cov_stds&#45;&gt;sigma_b</title>
<path fill="none" stroke="black" d="M292.14,-549.66C305.66,-537.5 321.94,-522.87 336.3,-509.95"/>
<polygon fill="black" stroke="black" points="338.96,-512.27 344.05,-502.98 334.28,-507.07 338.96,-512.27"/>
</g>
<!-- sigma_h -->
<g id="node14" class="node">
<title>sigma_h</title>
<polygon fill="none" stroke="black" points="527,-502.91 436,-502.91 436,-449.91 527,-449.91 527,-502.91"/>
<text text-anchor="middle" x="481.5" y="-487.71" font-family="Times,serif" font-size="14.00">sigma_h</text>
<text text-anchor="middle" x="481.5" y="-472.71" font-family="Times,serif" font-size="14.00">~</text>
<text text-anchor="middle" x="481.5" y="-457.71" font-family="Times,serif" font-size="14.00">Deterministic</text>
</g>
<!-- genes_chol_cov_stds&#45;&gt;sigma_h -->
<g id="edge7" class="edge">
<title>genes_chol_cov_stds&#45;&gt;sigma_h</title>
<path fill="none" stroke="black" d="M298.3,-549.88C315.56,-538.52 337.23,-526.1 358.5,-518.91 387.75,-509.02 398.35,-521.07 427.5,-510.91 430.38,-509.9 433.26,-508.73 436.12,-507.43"/>
<polygon fill="black" stroke="black" points="437.74,-510.53 445.1,-502.91 434.6,-504.27 437.74,-510.53"/>
</g>
<!-- mu_f -->
<g id="node6" class="node">
<title>mu_f</title>
<ellipse fill="none" stroke="black" cx="768.5" cy="-698.36" rx="41.94" ry="37.45"/>
<text text-anchor="middle" x="768.5" y="-709.66" font-family="Times,serif" font-size="14.00">mu_f</text>
<text text-anchor="middle" x="768.5" y="-694.66" font-family="Times,serif" font-size="14.00">~</text>
<text text-anchor="middle" x="768.5" y="-679.66" font-family="Times,serif" font-size="14.00">Normal</text>
</g>
<!-- mu_f&#45;&gt;f -->
<g id="edge33" class="edge">
<title>mu_f&#45;&gt;f</title>
<path fill="none" stroke="black" d="M751.83,-663.86C744.16,-651.52 733.96,-638.47 721.5,-629.88 709.43,-621.56 702.62,-628.42 689.5,-621.88 682.7,-618.49 675.97,-614.14 669.68,-609.5"/>
<polygon fill="black" stroke="black" points="671.45,-606.43 661.41,-603.04 667.14,-611.95 671.45,-606.43"/>
</g>
<!-- mu_f&#45;&gt;mu_a -->
<g id="edge12" class="edge">
<title>mu_f&#45;&gt;mu_a</title>
<path fill="none" stroke="black" d="M761,-661.37C757.82,-646.12 754.13,-628.39 750.95,-613.16"/>
<polygon fill="black" stroke="black" points="754.32,-612.16 748.85,-603.08 747.47,-613.59 754.32,-612.16"/>
</g>
<!-- mu_f&#45;&gt;b -->
<g id="edge19" class="edge">
<title>mu_f&#45;&gt;b</title>
<path fill="none" stroke="black" d="M753.13,-663.15C745.53,-650.4 735.05,-637.24 721.5,-629.88 697.07,-616.63 497.55,-631.57 471.5,-621.88 463.73,-618.99 456.23,-614.54 449.41,-609.54"/>
<polygon fill="black" stroke="black" points="451.16,-606.46 441.15,-603 446.81,-611.95 451.16,-606.46"/>
</g>
<!-- mu_f&#45;&gt;d -->
<g id="edge26" class="edge">
<title>mu_f&#45;&gt;d</title>
<path fill="none" stroke="black" d="M753.03,-663.32C745.43,-650.59 734.96,-637.4 721.5,-629.88 694.1,-614.58 609.78,-633.18 580.5,-621.88 572.85,-618.93 565.44,-614.49 558.68,-609.54"/>
<polygon fill="black" stroke="black" points="560.5,-606.52 550.49,-603.07 556.17,-612.01 560.5,-606.52"/>
</g>
<!-- mu_f&#45;&gt;h -->
<g id="edge40" class="edge">
<title>mu_f&#45;&gt;h</title>
<path fill="none" stroke="black" d="M784.89,-663.84C793.08,-650.86 804.3,-637.35 818.5,-629.88 840.94,-618.09 1022.79,-630.86 1046.5,-621.88 1054.17,-618.98 1061.54,-614.52 1068.25,-609.51"/>
<polygon fill="black" stroke="black" points="1070.78,-611.97 1076.36,-602.97 1066.38,-606.53 1070.78,-611.97"/>
</g>
<!-- mu_d -->
<g id="node7" class="node">
<title>mu_d</title>
<ellipse fill="none" stroke="black" cx="869.5" cy="-698.36" rx="41.94" ry="37.45"/>
<text text-anchor="middle" x="869.5" y="-709.66" font-family="Times,serif" font-size="14.00">mu_d</text>
<text text-anchor="middle" x="869.5" y="-694.66" font-family="Times,serif" font-size="14.00">~</text>
<text text-anchor="middle" x="869.5" y="-679.66" font-family="Times,serif" font-size="14.00">Normal</text>
</g>
<!-- mu_d&#45;&gt;f -->
<g id="edge35" class="edge">
<title>mu_d&#45;&gt;f</title>
<path fill="none" stroke="black" d="M852.79,-663.66C844.61,-650.82 833.47,-637.46 819.5,-629.88 794.06,-616.08 716.48,-632.37 689.5,-621.88 681.85,-618.91 674.45,-614.46 667.69,-609.51"/>
<polygon fill="black" stroke="black" points="669.51,-606.49 659.5,-603.04 665.18,-611.98 669.51,-606.49"/>
</g>
<!-- mu_d&#45;&gt;mu_a -->
<g id="edge14" class="edge">
<title>mu_d&#45;&gt;mu_a</title>
<path fill="none" stroke="black" d="M850.54,-664.96C842.2,-652.78 831.56,-639.55 819.5,-629.88 812.67,-624.41 809.03,-626.36 801.5,-621.88 795.13,-618.09 788.64,-613.72 782.42,-609.22"/>
<polygon fill="black" stroke="black" points="784.26,-606.22 774.15,-603.05 780.08,-611.84 784.26,-606.22"/>
</g>
<!-- mu_d&#45;&gt;b -->
<g id="edge21" class="edge">
<title>mu_d&#45;&gt;b</title>
<path fill="none" stroke="black" d="M853.16,-663.75C844.97,-650.76 833.74,-637.26 819.5,-629.88 785.16,-612.09 507.81,-635.2 471.5,-621.88 463.72,-619.03 456.22,-614.59 449.39,-609.6"/>
<polygon fill="black" stroke="black" points="451.14,-606.52 441.13,-603.05 446.79,-612.01 451.14,-606.52"/>
</g>
<!-- mu_d&#45;&gt;d -->
<g id="edge28" class="edge">
<title>mu_d&#45;&gt;d</title>
<path fill="none" stroke="black" d="M853.12,-663.82C844.93,-650.84 833.7,-637.34 819.5,-629.88 795.97,-617.54 605.4,-631.16 580.5,-621.88 572.73,-618.99 565.24,-614.53 558.41,-609.53"/>
<polygon fill="black" stroke="black" points="560.16,-606.45 550.15,-602.99 555.82,-611.94 560.16,-606.45"/>
</g>
<!-- mu_d&#45;&gt;h -->
<g id="edge42" class="edge">
<title>mu_d&#45;&gt;h</title>
<path fill="none" stroke="black" d="M886.21,-663.67C894.4,-650.83 905.54,-637.47 919.5,-629.88 944.34,-616.38 1020.2,-632.27 1046.5,-621.88 1054.05,-618.9 1061.33,-614.45 1067.98,-609.5"/>
<polygon fill="black" stroke="black" points="1070.42,-612.02 1076.02,-603.03 1066.04,-606.57 1070.42,-612.02"/>
</g>
<!-- mu_b -->
<g id="node10" class="node">
<title>mu_b</title>
<ellipse fill="none" stroke="black" cx="970.5" cy="-698.36" rx="41.94" ry="37.45"/>
<text text-anchor="middle" x="970.5" y="-709.66" font-family="Times,serif" font-size="14.00">mu_b</text>
<text text-anchor="middle" x="970.5" y="-694.66" font-family="Times,serif" font-size="14.00">~</text>
<text text-anchor="middle" x="970.5" y="-679.66" font-family="Times,serif" font-size="14.00">Normal</text>
</g>
<!-- mu_b&#45;&gt;f -->
<g id="edge30" class="edge">
<title>mu_b&#45;&gt;f</title>
<path fill="none" stroke="black" d="M954.11,-663.83C945.93,-650.85 934.7,-637.34 920.5,-629.88 897.77,-617.94 713.56,-630.87 689.5,-621.88 681.73,-618.98 674.24,-614.52 667.41,-609.52"/>
<polygon fill="black" stroke="black" points="669.17,-606.45 659.16,-602.98 664.82,-611.93 669.17,-606.45"/>
</g>
<!-- mu_b&#45;&gt;mu_a -->
<g id="edge9" class="edge">
<title>mu_b&#45;&gt;mu_a</title>
<path fill="none" stroke="black" d="M953.77,-663.7C945.58,-650.87 934.45,-637.5 920.5,-629.88 897.24,-617.17 826.3,-631.24 801.5,-621.88 793.39,-618.83 785.48,-614.24 778.25,-609.15"/>
<polygon fill="black" stroke="black" points="780.18,-606.22 770.08,-603.01 775.97,-611.82 780.18,-606.22"/>
</g>
<!-- mu_b&#45;&gt;b -->
<g id="edge16" class="edge">
<title>mu_b&#45;&gt;b</title>
<path fill="none" stroke="black" d="M954.18,-663.72C946,-650.72 934.76,-637.22 920.5,-629.88 898.32,-618.46 494.95,-630.41 471.5,-621.88 463.71,-619.05 456.2,-614.62 449.38,-609.63"/>
<polygon fill="black" stroke="black" points="451.13,-606.55 441.12,-603.09 446.78,-612.04 451.13,-606.55"/>
</g>
<!-- mu_b&#45;&gt;d -->
<g id="edge23" class="edge">
<title>mu_b&#45;&gt;d</title>
<path fill="none" stroke="black" d="M954.15,-663.76C945.97,-650.76 934.74,-637.27 920.5,-629.88 886.95,-612.49 615.97,-634.9 580.5,-621.88 572.72,-619.03 565.22,-614.59 558.39,-609.59"/>
<polygon fill="black" stroke="black" points="560.14,-606.52 550.13,-603.05 555.79,-612 560.14,-606.52"/>
</g>
<!-- mu_b&#45;&gt;h -->
<g id="edge37" class="edge">
<title>mu_b&#45;&gt;h</title>
<path fill="none" stroke="black" d="M999.35,-670.74C1018.8,-652.79 1044.59,-628.99 1065.26,-609.92"/>
<polygon fill="black" stroke="black" points="1067.65,-612.48 1072.62,-603.13 1062.9,-607.34 1067.65,-612.48"/>
</g>
<!-- alpha -->
<g id="node11" class="node">
<title>alpha</title>
<ellipse fill="none" stroke="black" cx="757.5" cy="-187.43" rx="43.27" ry="37.45"/>
<text text-anchor="middle" x="757.5" y="-198.73" font-family="Times,serif" font-size="14.00">alpha</text>
<text text-anchor="middle" x="757.5" y="-183.73" font-family="Times,serif" font-size="14.00">~</text>
<text text-anchor="middle" x="757.5" y="-168.73" font-family="Times,serif" font-size="14.00">Gamma</text>
</g>
<!-- ct_final -->
<g id="node25" class="node">
<title>ct_final</title>
<ellipse fill="lightgrey" stroke="black" cx="634.5" cy="-76.48" rx="63.78" ry="37.45"/>
<text text-anchor="middle" x="634.5" y="-87.78" font-family="Times,serif" font-size="14.00">ct_final</text>
<text text-anchor="middle" x="634.5" y="-72.78" font-family="Times,serif" font-size="14.00">~</text>
<text text-anchor="middle" x="634.5" y="-57.78" font-family="Times,serif" font-size="14.00">NegBinomial</text>
</g>
<!-- alpha&#45;&gt;ct_final -->
<g id="edge54" class="edge">
<title>alpha&#45;&gt;ct_final</title>
<path fill="none" stroke="black" d="M727.73,-160.06C712.43,-146.51 693.54,-129.78 676.77,-114.92"/>
<polygon fill="black" stroke="black" points="679.04,-112.25 669.23,-108.24 674.4,-117.49 679.04,-112.25"/>
</g>
<!-- mu_mu_a -->
<g id="node12" class="node">
<title>mu_mu_a</title>
<ellipse fill="none" stroke="black" cx="416.5" cy="-698.36" rx="50.82" ry="37.45"/>
<text text-anchor="middle" x="416.5" y="-709.66" font-family="Times,serif" font-size="14.00">mu_mu_a</text>
<text text-anchor="middle" x="416.5" y="-694.66" font-family="Times,serif" font-size="14.00">~</text>
<text text-anchor="middle" x="416.5" y="-679.66" font-family="Times,serif" font-size="14.00">Normal</text>
</g>
<!-- mu_mu_a&#45;&gt;f -->
<g id="edge32" class="edge">
<title>mu_mu_a&#45;&gt;f</title>
<path fill="none" stroke="black" d="M435.88,-663.34C444.97,-650.61 457.02,-637.42 471.5,-629.88 493.04,-618.67 557.96,-630.92 580.5,-621.88 588.03,-618.87 595.31,-614.39 601.95,-609.43"/>
<polygon fill="black" stroke="black" points="604.4,-611.96 610,-602.96 600.01,-606.5 604.4,-611.96"/>
</g>
<!-- mu_mu_a&#45;&gt;mu_a -->
<g id="edge11" class="edge">
<title>mu_mu_a&#45;&gt;mu_a</title>
<path fill="none" stroke="black" d="M435.49,-663.43C444.59,-650.55 456.75,-637.22 471.5,-629.88 493.2,-619.08 666.84,-630.49 689.5,-621.88 697.16,-618.97 704.54,-614.51 711.25,-609.5"/>
<polygon fill="black" stroke="black" points="713.78,-611.96 719.36,-602.96 709.38,-606.52 713.78,-611.96"/>
</g>
<!-- mu_mu_a&#45;&gt;b -->
<g id="edge18" class="edge">
<title>mu_mu_a&#45;&gt;b</title>
<path fill="none" stroke="black" d="M416.5,-660.72C416.5,-645.75 416.5,-628.48 416.5,-613.56"/>
<polygon fill="black" stroke="black" points="420,-613.18 416.5,-603.18 413,-613.18 420,-613.18"/>
</g>
<!-- mu_mu_a&#45;&gt;d -->
<g id="edge25" class="edge">
<title>mu_mu_a&#45;&gt;d</title>
<path fill="none" stroke="black" d="M441.23,-665.48C450.45,-654.01 461.19,-641.14 471.5,-629.88 477.47,-623.37 484.05,-616.64 490.5,-610.26"/>
<polygon fill="black" stroke="black" points="493.26,-612.46 497.97,-602.97 488.37,-607.45 493.26,-612.46"/>
</g>
<!-- mu_mu_a&#45;&gt;h -->
<g id="edge39" class="edge">
<title>mu_mu_a&#45;&gt;h</title>
<path fill="none" stroke="black" d="M435.41,-663.26C444.5,-650.35 456.67,-637.05 471.5,-629.88 500.26,-615.98 1016.51,-632.88 1046.5,-621.88 1054.2,-619.06 1061.59,-614.63 1068.3,-609.65"/>
<polygon fill="black" stroke="black" points="1070.83,-612.11 1076.41,-603.11 1066.43,-606.66 1070.83,-612.11"/>
</g>
<!-- sigma_a -->
<g id="node13" class="node">
<title>sigma_a</title>
<ellipse fill="none" stroke="black" cx="979.5" cy="-576.41" rx="57.97" ry="37.45"/>
<text text-anchor="middle" x="979.5" y="-587.71" font-family="Times,serif" font-size="14.00">sigma_a</text>
<text text-anchor="middle" x="979.5" y="-572.71" font-family="Times,serif" font-size="14.00">~</text>
<text text-anchor="middle" x="979.5" y="-557.71" font-family="Times,serif" font-size="14.00">Exponential</text>
</g>
<!-- a -->
<g id="node22" class="node">
<title>a</title>
<polygon fill="none" stroke="black" points="905,-502.91 814,-502.91 814,-449.91 905,-449.91 905,-502.91"/>
<text text-anchor="middle" x="859.5" y="-487.71" font-family="Times,serif" font-size="14.00">a</text>
<text text-anchor="middle" x="859.5" y="-472.71" font-family="Times,serif" font-size="14.00">~</text>
<text text-anchor="middle" x="859.5" y="-457.71" font-family="Times,serif" font-size="14.00">Deterministic</text>
</g>
<!-- sigma_a&#45;&gt;a -->
<g id="edge43" class="edge">
<title>sigma_a&#45;&gt;a</title>
<path fill="none" stroke="black" d="M947.64,-545.05C938.14,-536.37 927.58,-527.06 917.5,-518.91 913.51,-515.68 909.29,-512.41 905.03,-509.2"/>
<polygon fill="black" stroke="black" points="906.93,-506.25 896.81,-503.11 902.76,-511.88 906.93,-506.25"/>
</g>
<!-- mu_h -->
<g id="node15" class="node">
<title>mu_h</title>
<ellipse fill="none" stroke="black" cx="529.5" cy="-698.36" rx="41.94" ry="37.45"/>
<text text-anchor="middle" x="529.5" y="-709.66" font-family="Times,serif" font-size="14.00">mu_h</text>
<text text-anchor="middle" x="529.5" y="-694.66" font-family="Times,serif" font-size="14.00">~</text>
<text text-anchor="middle" x="529.5" y="-679.66" font-family="Times,serif" font-size="14.00">Normal</text>
</g>
<!-- mu_h&#45;&gt;f -->
<g id="edge34" class="edge">
<title>mu_h&#45;&gt;f</title>
<path fill="none" stroke="black" d="M552.82,-666.96C562.12,-655.17 573.08,-641.7 583.5,-629.88 589.18,-623.45 595.41,-616.75 601.51,-610.39"/>
<polygon fill="black" stroke="black" points="604.13,-612.72 608.57,-603.1 599.1,-607.85 604.13,-612.72"/>
</g>
<!-- mu_h&#45;&gt;mu_a -->
<g id="edge13" class="edge">
<title>mu_h&#45;&gt;mu_a</title>
<path fill="none" stroke="black" d="M547.67,-664.42C556.66,-651.38 568.77,-637.66 583.5,-629.88 604.39,-618.86 667.58,-630.69 689.5,-621.88 697.03,-618.86 704.3,-614.38 710.95,-609.42"/>
<polygon fill="black" stroke="black" points="713.39,-611.94 718.99,-602.95 709.01,-606.49 713.39,-611.94"/>
</g>
<!-- mu_h&#45;&gt;b -->
<g id="edge20" class="edge">
<title>mu_h&#45;&gt;b</title>
<path fill="none" stroke="black" d="M507.17,-666.47C498.11,-654.62 487.26,-641.23 476.5,-629.88 470.07,-623.1 462.85,-616.24 455.71,-609.82"/>
<polygon fill="black" stroke="black" points="457.85,-607.04 448.03,-603.05 453.22,-612.29 457.85,-607.04"/>
</g>
<!-- mu_h&#45;&gt;d -->
<g id="edge27" class="edge">
<title>mu_h&#45;&gt;d</title>
<path fill="none" stroke="black" d="M528.28,-660.72C527.78,-645.75 527.2,-628.48 526.71,-613.56"/>
<polygon fill="black" stroke="black" points="530.19,-613.06 526.36,-603.18 523.19,-613.29 530.19,-613.06"/>
</g>
<!-- mu_h&#45;&gt;h -->
<g id="edge41" class="edge">
<title>mu_h&#45;&gt;h</title>
<path fill="none" stroke="black" d="M547.22,-664.36C556.2,-651.13 568.42,-637.29 583.5,-629.88 606.59,-618.54 1022.36,-630.78 1046.5,-621.88 1054.19,-619.05 1061.58,-614.62 1068.29,-609.63"/>
<polygon fill="black" stroke="black" points="1070.82,-612.09 1076.41,-603.09 1066.42,-606.64 1070.82,-612.09"/>
</g>
<!-- delta_genes -->
<g id="node16" class="node">
<title>delta_genes</title>
<ellipse fill="none" stroke="black" cx="652.5" cy="-698.36" rx="56.64" ry="37.45"/>
<text text-anchor="middle" x="652.5" y="-709.66" font-family="Times,serif" font-size="14.00">delta_genes</text>
<text text-anchor="middle" x="652.5" y="-694.66" font-family="Times,serif" font-size="14.00">~</text>
<text text-anchor="middle" x="652.5" y="-679.66" font-family="Times,serif" font-size="14.00">Normal</text>
</g>
<!-- delta_genes&#45;&gt;f -->
<g id="edge29" class="edge">
<title>delta_genes&#45;&gt;f</title>
<path fill="none" stroke="black" d="M647.05,-661.04C644.76,-645.81 642.11,-628.14 639.84,-612.98"/>
<polygon fill="black" stroke="black" points="643.28,-612.32 638.33,-602.95 636.36,-613.36 643.28,-612.32"/>
</g>
<!-- delta_genes&#45;&gt;mu_a -->
<g id="edge8" class="edge">
<title>delta_genes&#45;&gt;mu_a</title>
<path fill="none" stroke="black" d="M677.37,-664.58C689.91,-648.04 705.12,-628 717.78,-611.31"/>
<polygon fill="black" stroke="black" points="720.89,-613 724.15,-602.92 715.31,-608.77 720.89,-613"/>
</g>
<!-- delta_genes&#45;&gt;b -->
<g id="edge15" class="edge">
<title>delta_genes&#45;&gt;b</title>
<path fill="none" stroke="black" d="M627.81,-664.64C615.96,-651.46 600.61,-637.58 583.5,-629.88 537.99,-609.41 517.92,-640.19 471.5,-621.88 463.87,-618.87 456.48,-614.41 449.72,-609.45"/>
<polygon fill="black" stroke="black" points="451.54,-606.43 441.52,-602.98 447.2,-611.92 451.54,-606.43"/>
</g>
<!-- delta_genes&#45;&gt;d -->
<g id="edge22" class="edge">
<title>delta_genes&#45;&gt;d</title>
<path fill="none" stroke="black" d="M621.49,-666.53C609.7,-654.94 596.07,-641.71 583.5,-629.88 576.6,-623.39 569.15,-616.54 561.97,-610.01"/>
<polygon fill="black" stroke="black" points="564.08,-607.2 554.32,-603.08 559.38,-612.39 564.08,-607.2"/>
</g>
<!-- delta_genes&#45;&gt;h -->
<g id="edge36" class="edge">
<title>delta_genes&#45;&gt;h</title>
<path fill="none" stroke="black" d="M675.53,-663.93C686.56,-650.8 700.97,-637.15 717.5,-629.88 750.97,-615.17 1012.23,-634.65 1046.5,-621.88 1054.18,-619.02 1061.57,-614.58 1068.28,-609.58"/>
<polygon fill="black" stroke="black" points="1070.8,-612.04 1076.39,-603.04 1066.41,-606.59 1070.8,-612.04"/>
</g>
<!-- gene_effect -->
<g id="node26" class="node">
<title>gene_effect</title>
<polygon fill="none" stroke="black" points="680,-402.91 589,-402.91 589,-349.91 680,-349.91 680,-402.91"/>
<text text-anchor="middle" x="634.5" y="-387.71" font-family="Times,serif" font-size="14.00">gene_effect</text>
<text text-anchor="middle" x="634.5" y="-372.71" font-family="Times,serif" font-size="14.00">~</text>
<text text-anchor="middle" x="634.5" y="-357.71" font-family="Times,serif" font-size="14.00">Deterministic</text>
</g>
<!-- f&#45;&gt;gene_effect -->
<g id="edge50" class="edge">
<title>f&#45;&gt;gene_effect</title>
<path fill="none" stroke="black" d="M634.5,-549.52C634.5,-514.67 634.5,-452.49 634.5,-413.18"/>
<polygon fill="black" stroke="black" points="638,-412.98 634.5,-402.98 631,-412.98 638,-412.98"/>
</g>
<!-- mu_a&#45;&gt;a -->
<g id="edge44" class="edge">
<title>mu_a&#45;&gt;a</title>
<path fill="none" stroke="black" d="M768.13,-549.79C778.16,-539.8 790.07,-528.47 801.5,-518.91 805.44,-515.61 809.62,-512.3 813.86,-509.06"/>
<polygon fill="black" stroke="black" points="816.14,-511.73 822.05,-502.94 811.95,-506.12 816.14,-511.73"/>
</g>
<!-- b&#45;&gt;gene_effect -->
<g id="edge49" class="edge">
<title>b&#45;&gt;gene_effect</title>
<path fill="none" stroke="black" d="M434.83,-549.79C444.41,-538.4 457.13,-525.99 471.5,-518.91 498.79,-505.45 515.77,-529.96 539.5,-510.91 573.26,-483.8 544.91,-453.07 571.5,-418.91 574.29,-415.32 577.48,-411.95 580.91,-408.79"/>
<polygon fill="black" stroke="black" points="583.33,-411.33 588.75,-402.23 578.83,-405.97 583.33,-411.33"/>
</g>
<!-- d&#45;&gt;gene_effect -->
<g id="edge46" class="edge">
<title>d&#45;&gt;gene_effect</title>
<path fill="none" stroke="black" d="M545.4,-549.76C553.93,-538.2 563.71,-524.2 571.5,-510.91 590.46,-478.57 608.32,-439.61 620.14,-412.15"/>
<polygon fill="black" stroke="black" points="623.37,-413.51 624.07,-402.94 616.93,-410.77 623.37,-413.51"/>
</g>
<!-- h&#45;&gt;gene_effect -->
<g id="edge47" class="edge">
<title>h&#45;&gt;gene_effect</title>
<path fill="none" stroke="black" d="M1079.74,-549.71C1048.73,-513.42 986.54,-448.3 917.5,-418.91 843.15,-387.25 748.97,-379.07 690.22,-377.31"/>
<polygon fill="black" stroke="black" points="690.11,-373.81 680.03,-377.06 689.94,-380.81 690.11,-373.81"/>
</g>
<!-- a&#45;&gt;gene_effect -->
<g id="edge48" class="edge">
<title>a&#45;&gt;gene_effect</title>
<path fill="none" stroke="black" d="M813.97,-455.57C778.1,-439.95 727.95,-418.11 689.78,-401.48"/>
<polygon fill="black" stroke="black" points="690.92,-398.16 680.35,-397.38 688.12,-404.58 690.92,-398.16"/>
</g>
<!-- delta_a -->
<g id="node23" class="node">
<title>delta_a</title>
<ellipse fill="none" stroke="black" cx="859.5" cy="-576.41" rx="41.94" ry="37.45"/>
<text text-anchor="middle" x="859.5" y="-587.71" font-family="Times,serif" font-size="14.00">delta_a</text>
<text text-anchor="middle" x="859.5" y="-572.71" font-family="Times,serif" font-size="14.00">~</text>
<text text-anchor="middle" x="859.5" y="-557.71" font-family="Times,serif" font-size="14.00">Normal</text>
</g>
<!-- delta_a&#45;&gt;a -->
<g id="edge45" class="edge">
<title>delta_a&#45;&gt;a</title>
<path fill="none" stroke="black" d="M859.5,-538.92C859.5,-530.5 859.5,-521.55 859.5,-513.16"/>
<polygon fill="black" stroke="black" points="863,-512.92 859.5,-502.92 856,-512.92 863,-512.92"/>
</g>
<!-- mu -->
<g id="node24" class="node">
<title>mu</title>
<polygon fill="none" stroke="black" points="680,-213.93 589,-213.93 589,-160.93 680,-160.93 680,-213.93"/>
<text text-anchor="middle" x="634.5" y="-198.73" font-family="Times,serif" font-size="14.00">mu</text>
<text text-anchor="middle" x="634.5" y="-183.73" font-family="Times,serif" font-size="14.00">~</text>
<text text-anchor="middle" x="634.5" y="-168.73" font-family="Times,serif" font-size="14.00">Deterministic</text>
</g>
<!-- mu&#45;&gt;ct_final -->
<g id="edge53" class="edge">
<title>mu&#45;&gt;ct_final</title>
<path fill="none" stroke="black" d="M634.5,-160.89C634.5,-149.98 634.5,-136.89 634.5,-124.35"/>
<polygon fill="black" stroke="black" points="638,-124 634.5,-114 631,-124 638,-124"/>
</g>
<!-- eta -->
<g id="node27" class="node">
<title>eta</title>
<polygon fill="none" stroke="black" points="680,-313.91 589,-313.91 589,-260.91 680,-260.91 680,-313.91"/>
<text text-anchor="middle" x="634.5" y="-298.71" font-family="Times,serif" font-size="14.00">eta</text>
<text text-anchor="middle" x="634.5" y="-283.71" font-family="Times,serif" font-size="14.00">~</text>
<text text-anchor="middle" x="634.5" y="-268.71" font-family="Times,serif" font-size="14.00">Deterministic</text>
</g>
<!-- gene_effect&#45;&gt;eta -->
<g id="edge51" class="edge">
<title>gene_effect&#45;&gt;eta</title>
<path fill="none" stroke="black" d="M634.5,-349.77C634.5,-341.79 634.5,-332.84 634.5,-324.29"/>
<polygon fill="black" stroke="black" points="638,-324.16 634.5,-314.16 631,-324.16 638,-324.16"/>
</g>
<!-- eta&#45;&gt;mu -->
<g id="edge52" class="edge">
<title>eta&#45;&gt;mu</title>
<path fill="none" stroke="black" d="M634.5,-260.66C634.5,-249.53 634.5,-236.3 634.5,-224.23"/>
<polygon fill="black" stroke="black" points="638,-224 634.5,-214 631,-224 638,-224"/>
</g>
</g>
</svg>
