<?xml version="1.0" encoding="UTF-8" standalone="no"?>
<!DOCTYPE svg PUBLIC "-//W3C//DTD SVG 1.1//EN"
 "http://www.w3.org/Graphics/SVG/1.1/DTD/svg11.dtd">
<!-- Generated by graphviz version 5.0.0 (0)
 -->
<!-- Pages: 1 -->
<svg width="1934pt" height="771pt"
 viewBox="0.00 0.00 1934.00 770.81" xmlns="http://www.w3.org/2000/svg" xmlns:xlink="http://www.w3.org/1999/xlink">
<g id="graph0" class="graph" transform="scale(1 1) rotate(0) translate(4 766.81)">
<polygon fill="white" stroke="transparent" points="-4,4 -4,-766.81 1930,-766.81 1930,4 -4,4"/>
<g id="clust8" class="cluster">
<title>clustergene (103) x cancer_gene (3)</title>
<path fill="none" stroke="black" d="M1215,-529.88C1215,-529.88 1367,-529.88 1367,-529.88 1373,-529.88 1379,-535.88 1379,-541.88 1379,-541.88 1379,-609.88 1379,-609.88 1379,-615.88 1373,-621.88 1367,-621.88 1367,-621.88 1215,-621.88 1215,-621.88 1209,-621.88 1203,-615.88 1203,-609.88 1203,-609.88 1203,-541.88 1203,-541.88 1203,-535.88 1209,-529.88 1215,-529.88"/>
<text text-anchor="middle" x="1291" y="-537.68" font-family="Times,serif" font-size="14.00">gene (103) x cancer_gene (3)</text>
</g>
<g id="clust1" class="cluster">
<title>cluster28</title>
<path fill="none" stroke="black" d="M468,-640.86C468,-640.86 630,-640.86 630,-640.86 636,-640.86 642,-646.86 642,-652.86 642,-652.86 642,-742.81 642,-742.81 642,-748.81 636,-754.81 630,-754.81 630,-754.81 468,-754.81 468,-754.81 462,-754.81 456,-748.81 456,-742.81 456,-742.81 456,-652.86 456,-652.86 456,-646.86 462,-640.86 468,-640.86"/>
<text text-anchor="middle" x="627" y="-648.66" font-family="Times,serif" font-size="14.00">28</text>
</g>
<g id="clust2" class="cluster">
<title>cluster7 x 7</title>
<path fill="none" stroke="black" d="M374,-529.88C374,-529.88 498,-529.88 498,-529.88 504,-529.88 510,-535.88 510,-541.88 510,-541.88 510,-609.88 510,-609.88 510,-615.88 504,-621.88 498,-621.88 498,-621.88 374,-621.88 374,-621.88 368,-621.88 362,-615.88 362,-609.88 362,-609.88 362,-541.88 362,-541.88 362,-535.88 368,-529.88 374,-529.88"/>
<text text-anchor="middle" x="488" y="-537.68" font-family="Times,serif" font-size="14.00">7 x 7</text>
</g>
<g id="clust4" class="cluster">
<title>clustercancer_gene (3)</title>
<path fill="none" stroke="black" d="M20,-418.91C20,-418.91 104,-418.91 104,-418.91 110,-418.91 116,-424.91 116,-430.91 116,-430.91 116,-498.91 116,-498.91 116,-504.91 110,-510.91 104,-510.91 104,-510.91 20,-510.91 20,-510.91 14,-510.91 8,-504.91 8,-498.91 8,-498.91 8,-430.91 8,-430.91 8,-424.91 14,-418.91 20,-418.91"/>
<text text-anchor="middle" x="64" y="-426.71" font-family="Times,serif" font-size="14.00">cancer_gene (3)</text>
</g>
<g id="clust5" class="cluster">
<title>cluster7 x 103</title>
<path fill="none" stroke="black" d="M877,-640.86C877,-640.86 983,-640.86 983,-640.86 989,-640.86 995,-646.86 995,-652.86 995,-652.86 995,-742.81 995,-742.81 995,-748.81 989,-754.81 983,-754.81 983,-754.81 877,-754.81 877,-754.81 871,-754.81 865,-748.81 865,-742.81 865,-742.81 865,-652.86 865,-652.86 865,-646.86 871,-640.86 877,-640.86"/>
<text text-anchor="middle" x="966" y="-648.66" font-family="Times,serif" font-size="14.00">7 x 103</text>
</g>
<g id="clust6" class="cluster">
<title>clustergene (103)</title>
<path fill="none" stroke="black" d="M530,-529.88C530,-529.88 941,-529.88 941,-529.88 947,-529.88 953,-535.88 953,-541.88 953,-541.88 953,-609.88 953,-609.88 953,-615.88 947,-621.88 941,-621.88 941,-621.88 530,-621.88 530,-621.88 524,-621.88 518,-615.88 518,-609.88 518,-609.88 518,-541.88 518,-541.88 518,-535.88 524,-529.88 530,-529.88"/>
<text text-anchor="middle" x="915.5" y="-537.68" font-family="Times,serif" font-size="14.00">gene (103)</text>
</g>
<g id="clust7" class="cluster">
<title>clustersgrna (162)</title>
<path fill="none" stroke="black" d="M973,-418.91C973,-418.91 1057,-418.91 1057,-418.91 1063,-418.91 1069,-424.91 1069,-430.91 1069,-430.91 1069,-620.86 1069,-620.86 1069,-626.86 1063,-632.86 1057,-632.86 1057,-632.86 973,-632.86 973,-632.86 967,-632.86 961,-626.86 961,-620.86 961,-620.86 961,-430.91 961,-430.91 961,-424.91 967,-418.91 973,-418.91"/>
<text text-anchor="middle" x="1029.5" y="-426.71" font-family="Times,serif" font-size="14.00">sgrna (162)</text>
</g>
<g id="clust9" class="cluster">
<title>cluster1296</title>
<path fill="none" stroke="black" d="M973,-8C973,-8 1166,-8 1166,-8 1172,-8 1178,-14 1178,-20 1178,-20 1178,-398.91 1178,-398.91 1178,-404.91 1172,-410.91 1166,-410.91 1166,-410.91 973,-410.91 973,-410.91 967,-410.91 961,-404.91 961,-398.91 961,-398.91 961,-20 961,-20 961,-14 967,-8 973,-8"/>
<text text-anchor="middle" x="1156" y="-15.8" font-family="Times,serif" font-size="14.00">1296</text>
</g>
<g id="clust11" class="cluster">
<title>cluster2 x 2</title>
<path fill="none" stroke="black" d="M1788,-418.91C1788,-418.91 1906,-418.91 1906,-418.91 1912,-418.91 1918,-424.91 1918,-430.91 1918,-430.91 1918,-498.91 1918,-498.91 1918,-504.91 1912,-510.91 1906,-510.91 1906,-510.91 1788,-510.91 1788,-510.91 1782,-510.91 1776,-504.91 1776,-498.91 1776,-498.91 1776,-430.91 1776,-430.91 1776,-424.91 1782,-418.91 1788,-418.91"/>
<text text-anchor="middle" x="1896" y="-426.71" font-family="Times,serif" font-size="14.00">2 x 2</text>
</g>
<g id="clust13" class="cluster">
<title>cluster2 x 8</title>
<path fill="none" stroke="black" d="M1399,-518.91C1399,-518.91 1495,-518.91 1495,-518.91 1501,-518.91 1507,-524.91 1507,-530.91 1507,-530.91 1507,-620.86 1507,-620.86 1507,-626.86 1501,-632.86 1495,-632.86 1495,-632.86 1399,-632.86 1399,-632.86 1393,-632.86 1387,-626.86 1387,-620.86 1387,-620.86 1387,-530.91 1387,-530.91 1387,-524.91 1393,-518.91 1399,-518.91"/>
<text text-anchor="middle" x="1485" y="-526.71" font-family="Times,serif" font-size="14.00">2 x 8</text>
</g>
<g id="clust14" class="cluster">
<title>clustercell_line (8)</title>
<path fill="none" stroke="black" d="M1406,-418.91C1406,-418.91 1599,-418.91 1599,-418.91 1605,-418.91 1611,-424.91 1611,-430.91 1611,-430.91 1611,-498.91 1611,-498.91 1611,-504.91 1605,-510.91 1599,-510.91 1599,-510.91 1406,-510.91 1406,-510.91 1400,-510.91 1394,-504.91 1394,-498.91 1394,-498.91 1394,-430.91 1394,-430.91 1394,-424.91 1400,-418.91 1406,-418.91"/>
<text text-anchor="middle" x="1569.5" y="-426.71" font-family="Times,serif" font-size="14.00">cell_line (8)</text>
</g>
<g id="clust3" class="cluster">
<title>cluster7</title>
<path fill="none" stroke="black" d="M218,-529.88C218,-529.88 342,-529.88 342,-529.88 348,-529.88 354,-535.88 354,-541.88 354,-541.88 354,-609.88 354,-609.88 354,-615.88 348,-621.88 342,-621.88 342,-621.88 218,-621.88 218,-621.88 212,-621.88 206,-615.88 206,-609.88 206,-609.88 206,-541.88 206,-541.88 206,-535.88 212,-529.88 218,-529.88"/>
<text text-anchor="middle" x="342.5" y="-537.68" font-family="Times,serif" font-size="14.00">7</text>
</g>
<g id="clust10" class="cluster">
<title>cluster3</title>
<path fill="none" stroke="black" d="M1623,-518.91C1623,-518.91 1785,-518.91 1785,-518.91 1791,-518.91 1797,-524.91 1797,-530.91 1797,-530.91 1797,-620.86 1797,-620.86 1797,-626.86 1791,-632.86 1785,-632.86 1785,-632.86 1623,-632.86 1623,-632.86 1617,-632.86 1611,-626.86 1611,-620.86 1611,-620.86 1611,-530.91 1611,-530.91 1611,-524.91 1617,-518.91 1623,-518.91"/>
<text text-anchor="middle" x="1785.5" y="-526.71" font-family="Times,serif" font-size="14.00">3</text>
</g>
<g id="clust12" class="cluster">
<title>cluster2</title>
<path fill="none" stroke="black" d="M1638,-418.91C1638,-418.91 1756,-418.91 1756,-418.91 1762,-418.91 1768,-424.91 1768,-430.91 1768,-430.91 1768,-498.91 1768,-498.91 1768,-504.91 1762,-510.91 1756,-510.91 1756,-510.91 1638,-510.91 1638,-510.91 1632,-510.91 1626,-504.91 1626,-498.91 1626,-498.91 1626,-430.91 1626,-430.91 1626,-424.91 1632,-418.91 1638,-418.91"/>
<text text-anchor="middle" x="1756.5" y="-426.71" font-family="Times,serif" font-size="14.00">2</text>
</g>
<!-- genes_chol_cov -->
<g id="node1" class="node">
<title>genes_chol_cov</title>
<ellipse fill="none" stroke="black" cx="549" cy="-709.34" rx="84.71" ry="37.45"/>
<text text-anchor="middle" x="549" y="-720.64" font-family="Times,serif" font-size="14.00">genes_chol_cov</text>
<text text-anchor="middle" x="549" y="-705.64" font-family="Times,serif" font-size="14.00">~</text>
<text text-anchor="middle" x="549" y="-690.64" font-family="Times,serif" font-size="14.00">_LKJCholeskyCov</text>
</g>
<!-- genes_chol_cov_corr -->
<g id="node2" class="node">
<title>genes_chol_cov_corr</title>
<polygon fill="none" stroke="black" points="502,-613.88 370,-613.88 370,-560.88 502,-560.88 502,-613.88"/>
<text text-anchor="middle" x="436" y="-598.68" font-family="Times,serif" font-size="14.00">genes_chol_cov_corr</text>
<text text-anchor="middle" x="436" y="-583.68" font-family="Times,serif" font-size="14.00">~</text>
<text text-anchor="middle" x="436" y="-568.68" font-family="Times,serif" font-size="14.00">Deterministic</text>
</g>
<!-- genes_chol_cov&#45;&gt;genes_chol_cov_corr -->
<g id="edge1" class="edge">
<title>genes_chol_cov&#45;&gt;genes_chol_cov_corr</title>
<path fill="none" stroke="black" d="M516.92,-674.28C501.3,-657.71 482.6,-637.86 467.12,-621.42"/>
<polygon fill="black" stroke="black" points="469.65,-619 460.25,-614.13 464.56,-623.8 469.65,-619"/>
</g>
<!-- genes_chol_cov_stds -->
<g id="node3" class="node">
<title>genes_chol_cov_stds</title>
<polygon fill="none" stroke="black" points="345.5,-613.88 214.5,-613.88 214.5,-560.88 345.5,-560.88 345.5,-613.88"/>
<text text-anchor="middle" x="280" y="-598.68" font-family="Times,serif" font-size="14.00">genes_chol_cov_stds</text>
<text text-anchor="middle" x="280" y="-583.68" font-family="Times,serif" font-size="14.00">~</text>
<text text-anchor="middle" x="280" y="-568.68" font-family="Times,serif" font-size="14.00">Deterministic</text>
</g>
<!-- genes_chol_cov&#45;&gt;genes_chol_cov_stds -->
<g id="edge2" class="edge">
<title>genes_chol_cov&#45;&gt;genes_chol_cov_stds</title>
<path fill="none" stroke="black" d="M483.92,-685.24C446.53,-671.32 398.99,-652.52 358,-632.86 349.15,-628.61 339.93,-623.76 331.06,-618.86"/>
<polygon fill="black" stroke="black" points="332.76,-615.81 322.33,-613.97 329.34,-621.91 332.76,-615.81"/>
</g>
<!-- f -->
<g id="node17" class="node">
<title>f</title>
<polygon fill="none" stroke="black" points="835.5,-613.88 744.5,-613.88 744.5,-560.88 835.5,-560.88 835.5,-613.88"/>
<text text-anchor="middle" x="790" y="-598.68" font-family="Times,serif" font-size="14.00">f</text>
<text text-anchor="middle" x="790" y="-583.68" font-family="Times,serif" font-size="14.00">~</text>
<text text-anchor="middle" x="790" y="-568.68" font-family="Times,serif" font-size="14.00">Deterministic</text>
</g>
<!-- genes_chol_cov&#45;&gt;f -->
<g id="edge20" class="edge">
<title>genes_chol_cov&#45;&gt;f</title>
<path fill="none" stroke="black" d="M585.18,-675.37C601.64,-662.32 622.09,-648.6 643,-640.86 681.49,-626.61 696.94,-648.21 735,-632.86 742.53,-629.82 749.83,-625.39 756.53,-620.48"/>
<polygon fill="black" stroke="black" points="758.97,-623.02 764.66,-614.09 754.64,-617.52 758.97,-623.02"/>
</g>
<!-- mu_a -->
<g id="node18" class="node">
<title>mu_a</title>
<polygon fill="none" stroke="black" points="944.5,-613.88 853.5,-613.88 853.5,-560.88 944.5,-560.88 944.5,-613.88"/>
<text text-anchor="middle" x="899" y="-598.68" font-family="Times,serif" font-size="14.00">mu_a</text>
<text text-anchor="middle" x="899" y="-583.68" font-family="Times,serif" font-size="14.00">~</text>
<text text-anchor="middle" x="899" y="-568.68" font-family="Times,serif" font-size="14.00">Deterministic</text>
</g>
<!-- genes_chol_cov&#45;&gt;mu_a -->
<g id="edge8" class="edge">
<title>genes_chol_cov&#45;&gt;mu_a</title>
<path fill="none" stroke="black" d="M584.57,-675.25C601.07,-662.01 621.72,-648.18 643,-640.86 685.27,-626.32 802.16,-648.6 844,-632.86 851.76,-629.94 859.25,-625.47 866.07,-620.47"/>
<polygon fill="black" stroke="black" points="868.67,-622.88 874.33,-613.92 864.32,-617.39 868.67,-622.88"/>
</g>
<!-- d -->
<g id="node19" class="node">
<title>d</title>
<polygon fill="none" stroke="black" points="617.5,-613.88 526.5,-613.88 526.5,-560.88 617.5,-560.88 617.5,-613.88"/>
<text text-anchor="middle" x="572" y="-598.68" font-family="Times,serif" font-size="14.00">d</text>
<text text-anchor="middle" x="572" y="-583.68" font-family="Times,serif" font-size="14.00">~</text>
<text text-anchor="middle" x="572" y="-568.68" font-family="Times,serif" font-size="14.00">Deterministic</text>
</g>
<!-- genes_chol_cov&#45;&gt;d -->
<g id="edge16" class="edge">
<title>genes_chol_cov&#45;&gt;d</title>
<path fill="none" stroke="black" d="M556.03,-671.69C558.92,-656.58 562.27,-639.12 565.15,-624.11"/>
<polygon fill="black" stroke="black" points="568.61,-624.64 567.06,-614.16 561.74,-623.32 568.61,-624.64"/>
</g>
<!-- b -->
<g id="node20" class="node">
<title>b</title>
<polygon fill="none" stroke="black" points="726.5,-613.88 635.5,-613.88 635.5,-560.88 726.5,-560.88 726.5,-613.88"/>
<text text-anchor="middle" x="681" y="-598.68" font-family="Times,serif" font-size="14.00">b</text>
<text text-anchor="middle" x="681" y="-583.68" font-family="Times,serif" font-size="14.00">~</text>
<text text-anchor="middle" x="681" y="-568.68" font-family="Times,serif" font-size="14.00">Deterministic</text>
</g>
<!-- genes_chol_cov&#45;&gt;b -->
<g id="edge12" class="edge">
<title>genes_chol_cov&#45;&gt;b</title>
<path fill="none" stroke="black" d="M585.42,-675.24C603.98,-658.37 626.48,-637.93 644.99,-621.11"/>
<polygon fill="black" stroke="black" points="647.6,-623.46 652.65,-614.15 642.89,-618.28 647.6,-623.46"/>
</g>
<!-- h -->
<g id="node23" class="node">
<title>h</title>
<polygon fill="none" stroke="black" points="1303.5,-613.88 1212.5,-613.88 1212.5,-560.88 1303.5,-560.88 1303.5,-613.88"/>
<text text-anchor="middle" x="1258" y="-598.68" font-family="Times,serif" font-size="14.00">h</text>
<text text-anchor="middle" x="1258" y="-583.68" font-family="Times,serif" font-size="14.00">~</text>
<text text-anchor="middle" x="1258" y="-568.68" font-family="Times,serif" font-size="14.00">Deterministic</text>
</g>
<!-- genes_chol_cov&#45;&gt;h -->
<g id="edge27" class="edge">
<title>genes_chol_cov&#45;&gt;h</title>
<path fill="none" stroke="black" d="M584.48,-674.99C600.97,-661.7 621.63,-647.9 643,-640.86 702.21,-621.34 1145.47,-654.33 1204,-632.86 1211.7,-630.04 1219.09,-625.61 1225.8,-620.62"/>
<polygon fill="black" stroke="black" points="1228.33,-623.08 1233.91,-614.08 1223.93,-617.63 1228.33,-623.08"/>
</g>
<!-- sigma_f -->
<g id="node4" class="node">
<title>sigma_f</title>
<polygon fill="none" stroke="black" points="216.5,-502.91 125.5,-502.91 125.5,-449.91 216.5,-449.91 216.5,-502.91"/>
<text text-anchor="middle" x="171" y="-487.71" font-family="Times,serif" font-size="14.00">sigma_f</text>
<text text-anchor="middle" x="171" y="-472.71" font-family="Times,serif" font-size="14.00">~</text>
<text text-anchor="middle" x="171" y="-457.71" font-family="Times,serif" font-size="14.00">Deterministic</text>
</g>
<!-- genes_chol_cov_stds&#45;&gt;sigma_f -->
<g id="edge6" class="edge">
<title>genes_chol_cov_stds&#45;&gt;sigma_f</title>
<path fill="none" stroke="black" d="M254.44,-560.83C239.38,-545.78 220.17,-526.57 203.98,-510.37"/>
<polygon fill="black" stroke="black" points="206.32,-507.77 196.77,-503.17 201.37,-512.72 206.32,-507.77"/>
</g>
<!-- sigma_mu_a -->
<g id="node8" class="node">
<title>sigma_mu_a</title>
<polygon fill="none" stroke="black" points="325.5,-502.91 234.5,-502.91 234.5,-449.91 325.5,-449.91 325.5,-502.91"/>
<text text-anchor="middle" x="280" y="-487.71" font-family="Times,serif" font-size="14.00">sigma_mu_a</text>
<text text-anchor="middle" x="280" y="-472.71" font-family="Times,serif" font-size="14.00">~</text>
<text text-anchor="middle" x="280" y="-457.71" font-family="Times,serif" font-size="14.00">Deterministic</text>
</g>
<!-- genes_chol_cov_stds&#45;&gt;sigma_mu_a -->
<g id="edge3" class="edge">
<title>genes_chol_cov_stds&#45;&gt;sigma_mu_a</title>
<path fill="none" stroke="black" d="M280,-560.83C280,-546.73 280,-528.97 280,-513.47"/>
<polygon fill="black" stroke="black" points="283.5,-513.17 280,-503.17 276.5,-513.17 283.5,-513.17"/>
</g>
<!-- sigma_d -->
<g id="node10" class="node">
<title>sigma_d</title>
<polygon fill="none" stroke="black" points="434.5,-502.91 343.5,-502.91 343.5,-449.91 434.5,-449.91 434.5,-502.91"/>
<text text-anchor="middle" x="389" y="-487.71" font-family="Times,serif" font-size="14.00">sigma_d</text>
<text text-anchor="middle" x="389" y="-472.71" font-family="Times,serif" font-size="14.00">~</text>
<text text-anchor="middle" x="389" y="-457.71" font-family="Times,serif" font-size="14.00">Deterministic</text>
</g>
<!-- genes_chol_cov_stds&#45;&gt;sigma_d -->
<g id="edge5" class="edge">
<title>genes_chol_cov_stds&#45;&gt;sigma_d</title>
<path fill="none" stroke="black" d="M305.56,-560.83C320.62,-545.78 339.83,-526.57 356.02,-510.37"/>
<polygon fill="black" stroke="black" points="358.63,-512.72 363.23,-503.17 353.68,-507.77 358.63,-512.72"/>
</g>
<!-- sigma_b -->
<g id="node11" class="node">
<title>sigma_b</title>
<polygon fill="none" stroke="black" points="543.5,-502.91 452.5,-502.91 452.5,-449.91 543.5,-449.91 543.5,-502.91"/>
<text text-anchor="middle" x="498" y="-487.71" font-family="Times,serif" font-size="14.00">sigma_b</text>
<text text-anchor="middle" x="498" y="-472.71" font-family="Times,serif" font-size="14.00">~</text>
<text text-anchor="middle" x="498" y="-457.71" font-family="Times,serif" font-size="14.00">Deterministic</text>
</g>
<!-- genes_chol_cov_stds&#45;&gt;sigma_b -->
<g id="edge4" class="edge">
<title>genes_chol_cov_stds&#45;&gt;sigma_b</title>
<path fill="none" stroke="black" d="M301.87,-560.76C316.2,-545.84 336.26,-528.19 358,-518.91 392.9,-504.01 406.99,-522.86 443,-510.91 445.93,-509.93 448.87,-508.78 451.78,-507.5"/>
<polygon fill="black" stroke="black" points="453.48,-510.56 460.93,-503.02 450.41,-504.27 453.48,-510.56"/>
</g>
<!-- sigma_h -->
<g id="node15" class="node">
<title>sigma_h</title>
<polygon fill="none" stroke="black" points="107.5,-502.91 16.5,-502.91 16.5,-449.91 107.5,-449.91 107.5,-502.91"/>
<text text-anchor="middle" x="62" y="-487.71" font-family="Times,serif" font-size="14.00">sigma_h</text>
<text text-anchor="middle" x="62" y="-472.71" font-family="Times,serif" font-size="14.00">~</text>
<text text-anchor="middle" x="62" y="-457.71" font-family="Times,serif" font-size="14.00">Deterministic</text>
</g>
<!-- genes_chol_cov_stds&#45;&gt;sigma_h -->
<g id="edge7" class="edge">
<title>genes_chol_cov_stds&#45;&gt;sigma_h</title>
<path fill="none" stroke="black" d="M219.92,-560.88C188.5,-547 149.68,-529.01 116,-510.91 114.29,-509.99 112.55,-509.03 110.81,-508.06"/>
<polygon fill="black" stroke="black" points="112.49,-504.98 102.08,-503.02 108.99,-511.05 112.49,-504.98"/>
</g>
<!-- sigma_a -->
<g id="node5" class="node">
<title>sigma_a</title>
<ellipse fill="none" stroke="black" cx="1136" cy="-587.38" rx="58.88" ry="37.45"/>
<text text-anchor="middle" x="1136" y="-598.68" font-family="Times,serif" font-size="14.00">sigma_a</text>
<text text-anchor="middle" x="1136" y="-583.68" font-family="Times,serif" font-size="14.00">~</text>
<text text-anchor="middle" x="1136" y="-568.68" font-family="Times,serif" font-size="14.00">HalfNormal</text>
</g>
<!-- a -->
<g id="node22" class="node">
<title>a</title>
<polygon fill="none" stroke="black" points="1060.5,-502.91 969.5,-502.91 969.5,-449.91 1060.5,-449.91 1060.5,-502.91"/>
<text text-anchor="middle" x="1015" y="-487.71" font-family="Times,serif" font-size="14.00">a</text>
<text text-anchor="middle" x="1015" y="-472.71" font-family="Times,serif" font-size="14.00">~</text>
<text text-anchor="middle" x="1015" y="-457.71" font-family="Times,serif" font-size="14.00">Deterministic</text>
</g>
<!-- sigma_a&#45;&gt;a -->
<g id="edge26" class="edge">
<title>sigma_a&#45;&gt;a</title>
<path fill="none" stroke="black" d="M1108.37,-554.21C1097.78,-542.59 1085.29,-529.69 1073,-518.91 1069.2,-515.57 1065.14,-512.25 1060.99,-509.01"/>
<polygon fill="black" stroke="black" points="1063.05,-506.18 1052.97,-502.92 1058.82,-511.75 1063.05,-506.18"/>
</g>
<!-- mu_mu_a -->
<g id="node6" class="node">
<title>mu_mu_a</title>
<ellipse fill="none" stroke="black" cx="703" cy="-709.34" rx="50.82" ry="37.45"/>
<text text-anchor="middle" x="703" y="-720.64" font-family="Times,serif" font-size="14.00">mu_mu_a</text>
<text text-anchor="middle" x="703" y="-705.64" font-family="Times,serif" font-size="14.00">~</text>
<text text-anchor="middle" x="703" y="-690.64" font-family="Times,serif" font-size="14.00">Normal</text>
</g>
<!-- mu_mu_a&#45;&gt;f -->
<g id="edge23" class="edge">
<title>mu_mu_a&#45;&gt;f</title>
<path fill="none" stroke="black" d="M726.54,-675.88C738.54,-659.33 753.13,-639.22 765.29,-622.46"/>
<polygon fill="black" stroke="black" points="768.36,-624.18 771.4,-614.03 762.7,-620.07 768.36,-624.18"/>
</g>
<!-- mu_mu_a&#45;&gt;mu_a -->
<g id="edge11" class="edge">
<title>mu_mu_a&#45;&gt;mu_a</title>
<path fill="none" stroke="black" d="M724.29,-675.17C734.4,-662.25 747.64,-648.69 763,-640.86 795.23,-624.44 810.53,-646.59 844,-632.86 851.51,-629.78 858.81,-625.33 865.5,-620.41"/>
<polygon fill="black" stroke="black" points="867.94,-622.95 873.63,-614.01 863.61,-617.45 867.94,-622.95"/>
</g>
<!-- mu_mu_a&#45;&gt;d -->
<g id="edge19" class="edge">
<title>mu_mu_a&#45;&gt;d</title>
<path fill="none" stroke="black" d="M680.53,-675.43C670.99,-663.32 659.06,-650.28 646,-640.86 638.24,-635.26 634.24,-637.74 626,-632.86 619.75,-629.16 613.47,-624.76 607.52,-620.19"/>
<polygon fill="black" stroke="black" points="609.64,-617.4 599.64,-613.9 605.28,-622.87 609.64,-617.4"/>
</g>
<!-- mu_mu_a&#45;&gt;b -->
<g id="edge15" class="edge">
<title>mu_mu_a&#45;&gt;b</title>
<path fill="none" stroke="black" d="M696.34,-672.02C693.54,-656.78 690.3,-639.12 687.52,-623.96"/>
<polygon fill="black" stroke="black" points="690.93,-623.13 685.68,-613.92 684.05,-624.39 690.93,-623.13"/>
</g>
<!-- mu_mu_a&#45;&gt;h -->
<g id="edge30" class="edge">
<title>mu_mu_a&#45;&gt;h</title>
<path fill="none" stroke="black" d="M723.73,-674.91C733.81,-661.78 747.19,-648.13 763,-640.86 807.52,-620.38 1158.02,-649.83 1204,-632.86 1211.69,-630.02 1219.08,-625.59 1225.79,-620.6"/>
<polygon fill="black" stroke="black" points="1228.32,-623.06 1233.9,-614.06 1223.92,-617.61 1228.32,-623.06"/>
</g>
<!-- alpha -->
<g id="node7" class="node">
<title>alpha</title>
<ellipse fill="none" stroke="black" cx="1244" cy="-187.43" rx="57.97" ry="37.45"/>
<text text-anchor="middle" x="1244" y="-198.73" font-family="Times,serif" font-size="14.00">alpha</text>
<text text-anchor="middle" x="1244" y="-183.73" font-family="Times,serif" font-size="14.00">~</text>
<text text-anchor="middle" x="1244" y="-168.73" font-family="Times,serif" font-size="14.00">Exponential</text>
</g>
<!-- ct_final -->
<g id="node27" class="node">
<title>ct_final</title>
<ellipse fill="lightgrey" stroke="black" cx="1106" cy="-76.48" rx="63.78" ry="37.45"/>
<text text-anchor="middle" x="1106" y="-87.78" font-family="Times,serif" font-size="14.00">ct_final</text>
<text text-anchor="middle" x="1106" y="-72.78" font-family="Times,serif" font-size="14.00">~</text>
<text text-anchor="middle" x="1106" y="-57.78" font-family="Times,serif" font-size="14.00">NegBinomial</text>
</g>
<!-- alpha&#45;&gt;ct_final -->
<g id="edge52" class="edge">
<title>alpha&#45;&gt;ct_final</title>
<path fill="none" stroke="black" d="M1207.74,-157.8C1190.57,-144.24 1169.87,-127.9 1151.64,-113.51"/>
<polygon fill="black" stroke="black" points="1153.48,-110.5 1143.46,-107.05 1149.14,-115.99 1153.48,-110.5"/>
</g>
<!-- sigma_m -->
<g id="node9" class="node">
<title>sigma_m</title>
<polygon fill="none" stroke="black" points="1796.5,-402.91 1705.5,-402.91 1705.5,-349.91 1796.5,-349.91 1796.5,-402.91"/>
<text text-anchor="middle" x="1751" y="-387.71" font-family="Times,serif" font-size="14.00">sigma_m</text>
<text text-anchor="middle" x="1751" y="-372.71" font-family="Times,serif" font-size="14.00">~</text>
<text text-anchor="middle" x="1751" y="-357.71" font-family="Times,serif" font-size="14.00">Deterministic</text>
</g>
<!-- sigma_k -->
<g id="node12" class="node">
<title>sigma_k</title>
<polygon fill="none" stroke="black" points="1687.5,-402.91 1596.5,-402.91 1596.5,-349.91 1687.5,-349.91 1687.5,-402.91"/>
<text text-anchor="middle" x="1642" y="-387.71" font-family="Times,serif" font-size="14.00">sigma_k</text>
<text text-anchor="middle" x="1642" y="-372.71" font-family="Times,serif" font-size="14.00">~</text>
<text text-anchor="middle" x="1642" y="-357.71" font-family="Times,serif" font-size="14.00">Deterministic</text>
</g>
<!-- mu_m -->
<g id="node13" class="node">
<title>mu_m</title>
<ellipse fill="none" stroke="black" cx="1559" cy="-587.38" rx="41.94" ry="37.45"/>
<text text-anchor="middle" x="1559" y="-598.68" font-family="Times,serif" font-size="14.00">mu_m</text>
<text text-anchor="middle" x="1559" y="-583.68" font-family="Times,serif" font-size="14.00">~</text>
<text text-anchor="middle" x="1559" y="-568.68" font-family="Times,serif" font-size="14.00">Normal</text>
</g>
<!-- m -->
<g id="node33" class="node">
<title>m</title>
<polygon fill="none" stroke="black" points="1602.5,-502.91 1511.5,-502.91 1511.5,-449.91 1602.5,-449.91 1602.5,-502.91"/>
<text text-anchor="middle" x="1557" y="-487.71" font-family="Times,serif" font-size="14.00">m</text>
<text text-anchor="middle" x="1557" y="-472.71" font-family="Times,serif" font-size="14.00">~</text>
<text text-anchor="middle" x="1557" y="-457.71" font-family="Times,serif" font-size="14.00">Deterministic</text>
</g>
<!-- mu_m&#45;&gt;m -->
<g id="edge45" class="edge">
<title>mu_m&#45;&gt;m</title>
<path fill="none" stroke="black" d="M1558.33,-549.79C1558.11,-538.05 1557.87,-525.06 1557.66,-513.37"/>
<polygon fill="black" stroke="black" points="1561.15,-513 1557.47,-503.06 1554.16,-513.13 1561.15,-513"/>
</g>
<!-- k -->
<g id="node34" class="node">
<title>k</title>
<polygon fill="none" stroke="black" points="1493.5,-502.91 1402.5,-502.91 1402.5,-449.91 1493.5,-449.91 1493.5,-502.91"/>
<text text-anchor="middle" x="1448" y="-487.71" font-family="Times,serif" font-size="14.00">k</text>
<text text-anchor="middle" x="1448" y="-472.71" font-family="Times,serif" font-size="14.00">~</text>
<text text-anchor="middle" x="1448" y="-457.71" font-family="Times,serif" font-size="14.00">Deterministic</text>
</g>
<!-- mu_m&#45;&gt;k -->
<g id="edge42" class="edge">
<title>mu_m&#45;&gt;k</title>
<path fill="none" stroke="black" d="M1539.48,-553.9C1531.51,-542.12 1521.66,-529.19 1511,-518.91 1507.53,-515.56 1503.76,-512.32 1499.84,-509.22"/>
<polygon fill="black" stroke="black" points="1501.74,-506.27 1491.64,-503.07 1497.54,-511.87 1501.74,-506.27"/>
</g>
<!-- mu_b -->
<g id="node14" class="node">
<title>mu_b</title>
<ellipse fill="none" stroke="black" cx="814" cy="-709.34" rx="41.94" ry="37.45"/>
<text text-anchor="middle" x="814" y="-720.64" font-family="Times,serif" font-size="14.00">mu_b</text>
<text text-anchor="middle" x="814" y="-705.64" font-family="Times,serif" font-size="14.00">~</text>
<text text-anchor="middle" x="814" y="-690.64" font-family="Times,serif" font-size="14.00">Normal</text>
</g>
<!-- mu_b&#45;&gt;f -->
<g id="edge21" class="edge">
<title>mu_b&#45;&gt;f</title>
<path fill="none" stroke="black" d="M806.8,-672.35C803.75,-657.1 800.2,-639.37 797.15,-624.14"/>
<polygon fill="black" stroke="black" points="800.53,-623.18 795.14,-614.06 793.67,-624.55 800.53,-623.18"/>
</g>
<!-- mu_b&#45;&gt;mu_a -->
<g id="edge9" class="edge">
<title>mu_b&#45;&gt;mu_a</title>
<path fill="none" stroke="black" d="M835.64,-677.01C843.57,-665.6 852.65,-652.62 861,-640.86 865.3,-634.81 869.91,-628.39 874.38,-622.19"/>
<polygon fill="black" stroke="black" points="877.32,-624.09 880.35,-613.94 871.65,-619.99 877.32,-624.09"/>
</g>
<!-- mu_b&#45;&gt;d -->
<g id="edge17" class="edge">
<title>mu_b&#45;&gt;d</title>
<path fill="none" stroke="black" d="M797.06,-674.96C788.66,-662 777.24,-648.48 763,-640.86 736.11,-626.48 654.39,-643.99 626,-632.86 618.45,-629.9 611.16,-625.45 604.51,-620.5"/>
<polygon fill="black" stroke="black" points="606.45,-617.57 596.46,-614.03 602.07,-623.03 606.45,-617.57"/>
</g>
<!-- mu_b&#45;&gt;b -->
<g id="edge13" class="edge">
<title>mu_b&#45;&gt;b</title>
<path fill="none" stroke="black" d="M795.45,-675.4C787,-662.99 775.96,-649.74 763,-640.86 752.33,-633.54 746.46,-638.88 735,-632.86 728.42,-629.4 721.9,-625.06 715.79,-620.45"/>
<polygon fill="black" stroke="black" points="717.75,-617.53 707.74,-614.05 713.39,-623.01 717.75,-617.53"/>
</g>
<!-- mu_b&#45;&gt;h -->
<g id="edge28" class="edge">
<title>mu_b&#45;&gt;h</title>
<path fill="none" stroke="black" d="M829.34,-674.07C836.93,-661.3 847.42,-648.16 861,-640.86 894.58,-622.82 1168.27,-646.15 1204,-632.86 1211.68,-630 1219.07,-625.56 1225.78,-620.56"/>
<polygon fill="black" stroke="black" points="1228.31,-623.03 1233.89,-614.02 1223.91,-617.58 1228.31,-623.03"/>
</g>
<!-- delta_genes -->
<g id="node16" class="node">
<title>delta_genes</title>
<ellipse fill="none" stroke="black" cx="930" cy="-709.34" rx="56.64" ry="37.45"/>
<text text-anchor="middle" x="930" y="-720.64" font-family="Times,serif" font-size="14.00">delta_genes</text>
<text text-anchor="middle" x="930" y="-705.64" font-family="Times,serif" font-size="14.00">~</text>
<text text-anchor="middle" x="930" y="-690.64" font-family="Times,serif" font-size="14.00">Normal</text>
</g>
<!-- delta_genes&#45;&gt;f -->
<g id="edge22" class="edge">
<title>delta_genes&#45;&gt;f</title>
<path fill="none" stroke="black" d="M904.02,-675.78C893,-663.57 879.38,-650.37 865,-640.86 856.67,-635.35 852.64,-637.88 844,-632.86 837.72,-629.21 831.43,-624.84 825.47,-620.28"/>
<polygon fill="black" stroke="black" points="827.59,-617.49 817.58,-614 823.23,-622.97 827.59,-617.49"/>
</g>
<!-- delta_genes&#45;&gt;mu_a -->
<g id="edge10" class="edge">
<title>delta_genes&#45;&gt;mu_a</title>
<path fill="none" stroke="black" d="M920.7,-672.35C916.76,-657.1 912.18,-639.37 908.24,-624.14"/>
<polygon fill="black" stroke="black" points="911.53,-622.87 905.64,-614.06 904.75,-624.62 911.53,-622.87"/>
</g>
<!-- delta_genes&#45;&gt;d -->
<g id="edge18" class="edge">
<title>delta_genes&#45;&gt;d</title>
<path fill="none" stroke="black" d="M906.94,-674.98C895.91,-661.86 881.49,-648.2 865,-640.86 816.45,-619.25 675.71,-651.64 626,-632.86 618.33,-629.96 610.95,-625.5 604.24,-620.5"/>
<polygon fill="black" stroke="black" points="606.11,-617.51 596.13,-613.96 601.72,-622.96 606.11,-617.51"/>
</g>
<!-- delta_genes&#45;&gt;b -->
<g id="edge14" class="edge">
<title>delta_genes&#45;&gt;b</title>
<path fill="none" stroke="black" d="M906.54,-674.85C895.53,-661.88 881.24,-648.36 865,-640.86 838.72,-628.72 761.93,-643.47 735,-632.86 727.45,-629.89 720.17,-625.44 713.52,-620.48"/>
<polygon fill="black" stroke="black" points="715.46,-617.55 705.47,-614.01 711.07,-623.01 715.46,-617.55"/>
</g>
<!-- delta_genes&#45;&gt;h -->
<g id="edge29" class="edge">
<title>delta_genes&#45;&gt;h</title>
<path fill="none" stroke="black" d="M985,-700.18C1042.18,-690.13 1133.06,-669.69 1204,-632.86 1210.6,-629.44 1217.12,-625.11 1223.24,-620.5"/>
<polygon fill="black" stroke="black" points="1225.63,-623.07 1231.29,-614.11 1221.28,-617.59 1225.63,-623.07"/>
</g>
<!-- gene_effect -->
<g id="node24" class="node">
<title>gene_effect</title>
<polygon fill="none" stroke="black" points="1060.5,-402.91 969.5,-402.91 969.5,-349.91 1060.5,-349.91 1060.5,-402.91"/>
<text text-anchor="middle" x="1015" y="-387.71" font-family="Times,serif" font-size="14.00">gene_effect</text>
<text text-anchor="middle" x="1015" y="-372.71" font-family="Times,serif" font-size="14.00">~</text>
<text text-anchor="middle" x="1015" y="-357.71" font-family="Times,serif" font-size="14.00">Deterministic</text>
</g>
<!-- f&#45;&gt;gene_effect -->
<g id="edge31" class="edge">
<title>f&#45;&gt;gene_effect</title>
<path fill="none" stroke="black" d="M808.77,-560.85C818.74,-547.85 831.48,-532.06 844,-518.91 890.23,-470.33 904.55,-460.7 957,-418.91 961.07,-415.66 965.37,-412.36 969.71,-409.12"/>
<polygon fill="black" stroke="black" points="972.09,-411.71 978.07,-402.97 967.94,-406.08 972.09,-411.71"/>
</g>
<!-- mu_a&#45;&gt;a -->
<g id="edge25" class="edge">
<title>mu_a&#45;&gt;a</title>
<path fill="none" stroke="black" d="M918.61,-560.73C929.27,-547.55 943.09,-531.63 957,-518.91 960.58,-515.63 964.42,-512.39 968.36,-509.24"/>
<polygon fill="black" stroke="black" points="970.76,-511.82 976.54,-502.94 966.48,-506.27 970.76,-511.82"/>
</g>
<!-- d&#45;&gt;gene_effect -->
<g id="edge34" class="edge">
<title>d&#45;&gt;gene_effect</title>
<path fill="none" stroke="black" d="M588.33,-560.75C614.46,-522.27 669.63,-450.69 737,-418.91 775.31,-400.84 889.49,-388.19 959.03,-381.92"/>
<polygon fill="black" stroke="black" points="959.72,-385.38 969.37,-381.01 959.1,-378.4 959.72,-385.38"/>
</g>
<!-- b&#45;&gt;gene_effect -->
<g id="edge33" class="edge">
<title>b&#45;&gt;gene_effect</title>
<path fill="none" stroke="black" d="M698.66,-560.59C725.97,-522.89 782.22,-453.49 848,-418.91 882.63,-400.7 925.53,-390.26 959.18,-384.41"/>
<polygon fill="black" stroke="black" points="960.01,-387.82 969.3,-382.73 958.87,-380.91 960.01,-387.82"/>
</g>
<!-- delta_a -->
<g id="node21" class="node">
<title>delta_a</title>
<ellipse fill="none" stroke="black" cx="1015" cy="-587.38" rx="41.94" ry="37.45"/>
<text text-anchor="middle" x="1015" y="-598.68" font-family="Times,serif" font-size="14.00">delta_a</text>
<text text-anchor="middle" x="1015" y="-583.68" font-family="Times,serif" font-size="14.00">~</text>
<text text-anchor="middle" x="1015" y="-568.68" font-family="Times,serif" font-size="14.00">Normal</text>
</g>
<!-- delta_a&#45;&gt;a -->
<g id="edge24" class="edge">
<title>delta_a&#45;&gt;a</title>
<path fill="none" stroke="black" d="M1015,-549.79C1015,-538.05 1015,-525.06 1015,-513.37"/>
<polygon fill="black" stroke="black" points="1018.5,-513.06 1015,-503.06 1011.5,-513.06 1018.5,-513.06"/>
</g>
<!-- a&#45;&gt;gene_effect -->
<g id="edge32" class="edge">
<title>a&#45;&gt;gene_effect</title>
<path fill="none" stroke="black" d="M1015,-449.66C1015,-438.52 1015,-425.29 1015,-413.21"/>
<polygon fill="black" stroke="black" points="1018.5,-412.98 1015,-402.98 1011.5,-412.98 1018.5,-412.98"/>
</g>
<!-- h&#45;&gt;gene_effect -->
<g id="edge35" class="edge">
<title>h&#45;&gt;gene_effect</title>
<path fill="none" stroke="black" d="M1239.86,-560.79C1229.97,-547.63 1217.09,-531.7 1204,-518.91 1160.44,-476.33 1103.77,-435.51 1063.89,-408.75"/>
<polygon fill="black" stroke="black" points="1065.65,-405.72 1055.39,-403.09 1061.77,-411.54 1065.65,-405.72"/>
</g>
<!-- eta -->
<g id="node26" class="node">
<title>eta</title>
<polygon fill="none" stroke="black" points="1151.5,-313.91 1060.5,-313.91 1060.5,-260.91 1151.5,-260.91 1151.5,-313.91"/>
<text text-anchor="middle" x="1106" y="-298.71" font-family="Times,serif" font-size="14.00">eta</text>
<text text-anchor="middle" x="1106" y="-283.71" font-family="Times,serif" font-size="14.00">~</text>
<text text-anchor="middle" x="1106" y="-268.71" font-family="Times,serif" font-size="14.00">Deterministic</text>
</g>
<!-- gene_effect&#45;&gt;eta -->
<g id="edge48" class="edge">
<title>gene_effect&#45;&gt;eta</title>
<path fill="none" stroke="black" d="M1041.81,-349.77C1051.17,-340.83 1061.8,-330.66 1071.69,-321.21"/>
<polygon fill="black" stroke="black" points="1074.26,-323.6 1079.07,-314.16 1069.42,-318.54 1074.26,-323.6"/>
</g>
<!-- mu -->
<g id="node25" class="node">
<title>mu</title>
<polygon fill="none" stroke="black" points="1151.5,-213.93 1060.5,-213.93 1060.5,-160.93 1151.5,-160.93 1151.5,-213.93"/>
<text text-anchor="middle" x="1106" y="-198.73" font-family="Times,serif" font-size="14.00">mu</text>
<text text-anchor="middle" x="1106" y="-183.73" font-family="Times,serif" font-size="14.00">~</text>
<text text-anchor="middle" x="1106" y="-168.73" font-family="Times,serif" font-size="14.00">Deterministic</text>
</g>
<!-- mu&#45;&gt;ct_final -->
<g id="edge51" class="edge">
<title>mu&#45;&gt;ct_final</title>
<path fill="none" stroke="black" d="M1106,-160.89C1106,-149.98 1106,-136.89 1106,-124.35"/>
<polygon fill="black" stroke="black" points="1109.5,-124 1106,-114 1102.5,-124 1109.5,-124"/>
</g>
<!-- eta&#45;&gt;mu -->
<g id="edge50" class="edge">
<title>eta&#45;&gt;mu</title>
<path fill="none" stroke="black" d="M1106,-260.66C1106,-249.53 1106,-236.3 1106,-224.23"/>
<polygon fill="black" stroke="black" points="1109.5,-224 1106,-214 1102.5,-224 1109.5,-224"/>
</g>
<!-- cell_effect -->
<g id="node28" class="node">
<title>cell_effect</title>
<polygon fill="none" stroke="black" points="1169.5,-402.91 1078.5,-402.91 1078.5,-349.91 1169.5,-349.91 1169.5,-402.91"/>
<text text-anchor="middle" x="1124" y="-387.71" font-family="Times,serif" font-size="14.00">cell_effect</text>
<text text-anchor="middle" x="1124" y="-372.71" font-family="Times,serif" font-size="14.00">~</text>
<text text-anchor="middle" x="1124" y="-357.71" font-family="Times,serif" font-size="14.00">Deterministic</text>
</g>
<!-- cell_effect&#45;&gt;eta -->
<g id="edge49" class="edge">
<title>cell_effect&#45;&gt;eta</title>
<path fill="none" stroke="black" d="M1118.7,-349.77C1117.03,-341.7 1115.15,-332.64 1113.37,-324.01"/>
<polygon fill="black" stroke="black" points="1116.78,-323.24 1111.33,-314.16 1109.93,-324.66 1116.78,-323.24"/>
</g>
<!-- cells_chol_cov -->
<g id="node29" class="node">
<title>cells_chol_cov</title>
<ellipse fill="none" stroke="black" cx="1704" cy="-587.38" rx="84.71" ry="37.45"/>
<text text-anchor="middle" x="1704" y="-598.68" font-family="Times,serif" font-size="14.00">cells_chol_cov</text>
<text text-anchor="middle" x="1704" y="-583.68" font-family="Times,serif" font-size="14.00">~</text>
<text text-anchor="middle" x="1704" y="-568.68" font-family="Times,serif" font-size="14.00">_LKJCholeskyCov</text>
</g>
<!-- cells_chol_cov_corr -->
<g id="node30" class="node">
<title>cells_chol_cov_corr</title>
<polygon fill="none" stroke="black" points="1910,-502.91 1784,-502.91 1784,-449.91 1910,-449.91 1910,-502.91"/>
<text text-anchor="middle" x="1847" y="-487.71" font-family="Times,serif" font-size="14.00">cells_chol_cov_corr</text>
<text text-anchor="middle" x="1847" y="-472.71" font-family="Times,serif" font-size="14.00">~</text>
<text text-anchor="middle" x="1847" y="-457.71" font-family="Times,serif" font-size="14.00">Deterministic</text>
</g>
<!-- cells_chol_cov&#45;&gt;cells_chol_cov_corr -->
<g id="edge36" class="edge">
<title>cells_chol_cov&#45;&gt;cells_chol_cov_corr</title>
<path fill="none" stroke="black" d="M1745.75,-554.57C1764.42,-540.34 1786.38,-523.6 1805.07,-509.36"/>
<polygon fill="black" stroke="black" points="1807.3,-512.06 1813.14,-503.21 1803.06,-506.49 1807.3,-512.06"/>
</g>
<!-- cells_chol_cov_stds -->
<g id="node31" class="node">
<title>cells_chol_cov_stds</title>
<polygon fill="none" stroke="black" points="1759.5,-502.91 1634.5,-502.91 1634.5,-449.91 1759.5,-449.91 1759.5,-502.91"/>
<text text-anchor="middle" x="1697" y="-487.71" font-family="Times,serif" font-size="14.00">cells_chol_cov_stds</text>
<text text-anchor="middle" x="1697" y="-472.71" font-family="Times,serif" font-size="14.00">~</text>
<text text-anchor="middle" x="1697" y="-457.71" font-family="Times,serif" font-size="14.00">Deterministic</text>
</g>
<!-- cells_chol_cov&#45;&gt;cells_chol_cov_stds -->
<g id="edge37" class="edge">
<title>cells_chol_cov&#45;&gt;cells_chol_cov_stds</title>
<path fill="none" stroke="black" d="M1701.65,-549.79C1700.9,-538.05 1700.06,-525.06 1699.31,-513.37"/>
<polygon fill="black" stroke="black" points="1702.78,-512.82 1698.65,-503.06 1695.8,-513.27 1702.78,-512.82"/>
</g>
<!-- cells_chol_cov&#45;&gt;m -->
<g id="edge44" class="edge">
<title>cells_chol_cov&#45;&gt;m</title>
<path fill="none" stroke="black" d="M1661.48,-554.86C1642.04,-540.45 1619.06,-523.42 1599.61,-509"/>
<polygon fill="black" stroke="black" points="1601.63,-506.14 1591.51,-502.99 1597.46,-511.76 1601.63,-506.14"/>
</g>
<!-- cells_chol_cov&#45;&gt;k -->
<g id="edge41" class="edge">
<title>cells_chol_cov&#45;&gt;k</title>
<path fill="none" stroke="black" d="M1667.86,-553.29C1651.41,-540.22 1630.96,-526.52 1610,-518.91 1565.18,-502.62 1548.4,-525.49 1503,-510.91 1499.91,-509.91 1496.82,-508.72 1493.76,-507.38"/>
<polygon fill="black" stroke="black" points="1495.25,-504.21 1484.73,-502.97 1492.18,-510.5 1495.25,-504.21"/>
</g>
<!-- cells_chol_cov_stds&#45;&gt;sigma_m -->
<g id="edge39" class="edge">
<title>cells_chol_cov_stds&#45;&gt;sigma_m</title>
<path fill="none" stroke="black" d="M1711.19,-449.66C1717.57,-438.07 1725.21,-424.22 1732.07,-411.76"/>
<polygon fill="black" stroke="black" points="1735.15,-413.43 1736.91,-402.98 1729.02,-410.05 1735.15,-413.43"/>
</g>
<!-- cells_chol_cov_stds&#45;&gt;sigma_k -->
<g id="edge38" class="edge">
<title>cells_chol_cov_stds&#45;&gt;sigma_k</title>
<path fill="none" stroke="black" d="M1682.55,-449.66C1676.04,-438.07 1668.27,-424.22 1661.28,-411.76"/>
<polygon fill="black" stroke="black" points="1664.3,-409.99 1656.35,-402.98 1658.2,-413.42 1664.3,-409.99"/>
</g>
<!-- delta_cells -->
<g id="node32" class="node">
<title>delta_cells</title>
<ellipse fill="none" stroke="black" cx="1447" cy="-587.38" rx="52.15" ry="37.45"/>
<text text-anchor="middle" x="1447" y="-598.68" font-family="Times,serif" font-size="14.00">delta_cells</text>
<text text-anchor="middle" x="1447" y="-583.68" font-family="Times,serif" font-size="14.00">~</text>
<text text-anchor="middle" x="1447" y="-568.68" font-family="Times,serif" font-size="14.00">Normal</text>
</g>
<!-- delta_cells&#45;&gt;m -->
<g id="edge43" class="edge">
<title>delta_cells&#45;&gt;m</title>
<path fill="none" stroke="black" d="M1473.8,-555.01C1484.16,-543.35 1496.31,-530.22 1508,-518.91 1511.19,-515.81 1514.58,-512.68 1518.03,-509.58"/>
<polygon fill="black" stroke="black" points="1520.41,-512.15 1525.61,-502.92 1515.79,-506.9 1520.41,-512.15"/>
</g>
<!-- delta_cells&#45;&gt;k -->
<g id="edge40" class="edge">
<title>delta_cells&#45;&gt;k</title>
<path fill="none" stroke="black" d="M1447.34,-549.79C1447.44,-538.05 1447.56,-525.06 1447.67,-513.37"/>
<polygon fill="black" stroke="black" points="1451.17,-513.1 1447.76,-503.06 1444.17,-513.03 1451.17,-513.1"/>
</g>
<!-- m&#45;&gt;cell_effect -->
<g id="edge46" class="edge">
<title>m&#45;&gt;cell_effect</title>
<path fill="none" stroke="black" d="M1539.12,-449.74C1529.74,-438.34 1517.24,-425.93 1503,-418.91 1447.56,-391.54 1271.23,-382.02 1179.95,-378.87"/>
<polygon fill="black" stroke="black" points="1179.9,-375.36 1169.79,-378.53 1179.67,-382.36 1179.9,-375.36"/>
</g>
<!-- k&#45;&gt;cell_effect -->
<g id="edge47" class="edge">
<title>k&#45;&gt;cell_effect</title>
<path fill="none" stroke="black" d="M1402.27,-461.57C1343.65,-443.84 1242.12,-413.13 1179.25,-394.12"/>
<polygon fill="black" stroke="black" points="1180.09,-390.71 1169.5,-391.17 1178.06,-397.41 1180.09,-390.71"/>
</g>
</g>
</svg>
