<?xml version="1.0" encoding="UTF-8" standalone="no"?>
<!DOCTYPE svg PUBLIC "-//W3C//DTD SVG 1.1//EN"
 "http://www.w3.org/Graphics/SVG/1.1/DTD/svg11.dtd">
<!-- Generated by graphviz version 5.0.0 (0)
 -->
<!-- Pages: 1 -->
<svg width="1935pt" height="771pt"
 viewBox="0.00 0.00 1935.00 770.81" xmlns="http://www.w3.org/2000/svg" xmlns:xlink="http://www.w3.org/1999/xlink">
<g id="graph0" class="graph" transform="scale(1 1) rotate(0) translate(4 766.81)">
<polygon fill="white" stroke="transparent" points="-4,4 -4,-766.81 1931,-766.81 1931,4 -4,4"/>
<g id="clust7" class="cluster">
<title>clustergene (103) x cancer_gene (3)</title>
<path fill="none" stroke="black" d="M530,-529.88C530,-529.88 682,-529.88 682,-529.88 688,-529.88 694,-535.88 694,-541.88 694,-541.88 694,-609.88 694,-609.88 694,-615.88 688,-621.88 682,-621.88 682,-621.88 530,-621.88 530,-621.88 524,-621.88 518,-615.88 518,-609.88 518,-609.88 518,-541.88 518,-541.88 518,-535.88 524,-529.88 530,-529.88"/>
<text text-anchor="middle" x="606" y="-537.68" font-family="Times,serif" font-size="14.00">gene (103) x cancer_gene (3)</text>
</g>
<g id="clust1" class="cluster">
<title>cluster28</title>
<path fill="none" stroke="black" d="M544,-640.86C544,-640.86 706,-640.86 706,-640.86 712,-640.86 718,-646.86 718,-652.86 718,-652.86 718,-742.81 718,-742.81 718,-748.81 712,-754.81 706,-754.81 706,-754.81 544,-754.81 544,-754.81 538,-754.81 532,-748.81 532,-742.81 532,-742.81 532,-652.86 532,-652.86 532,-646.86 538,-640.86 544,-640.86"/>
<text text-anchor="middle" x="703" y="-648.66" font-family="Times,serif" font-size="14.00">28</text>
</g>
<g id="clust2" class="cluster">
<title>cluster7 x 7</title>
<path fill="none" stroke="black" d="M374,-529.88C374,-529.88 498,-529.88 498,-529.88 504,-529.88 510,-535.88 510,-541.88 510,-541.88 510,-609.88 510,-609.88 510,-615.88 504,-621.88 498,-621.88 498,-621.88 374,-621.88 374,-621.88 368,-621.88 362,-615.88 362,-609.88 362,-609.88 362,-541.88 362,-541.88 362,-535.88 368,-529.88 374,-529.88"/>
<text text-anchor="middle" x="488" y="-537.68" font-family="Times,serif" font-size="14.00">7 x 7</text>
</g>
<g id="clust4" class="cluster">
<title>clustercancer_gene (3)</title>
<path fill="none" stroke="black" d="M20,-418.91C20,-418.91 104,-418.91 104,-418.91 110,-418.91 116,-424.91 116,-430.91 116,-430.91 116,-498.91 116,-498.91 116,-504.91 110,-510.91 104,-510.91 104,-510.91 20,-510.91 20,-510.91 14,-510.91 8,-504.91 8,-498.91 8,-498.91 8,-430.91 8,-430.91 8,-424.91 14,-418.91 20,-418.91"/>
<text text-anchor="middle" x="64" y="-426.71" font-family="Times,serif" font-size="14.00">cancer_gene (3)</text>
</g>
<g id="clust5" class="cluster">
<title>cluster7 x 103</title>
<path fill="none" stroke="black" d="M953,-640.86C953,-640.86 1059,-640.86 1059,-640.86 1065,-640.86 1071,-646.86 1071,-652.86 1071,-652.86 1071,-742.81 1071,-742.81 1071,-748.81 1065,-754.81 1059,-754.81 1059,-754.81 953,-754.81 953,-754.81 947,-754.81 941,-748.81 941,-742.81 941,-742.81 941,-652.86 941,-652.86 941,-646.86 947,-640.86 953,-640.86"/>
<text text-anchor="middle" x="1042" y="-648.66" font-family="Times,serif" font-size="14.00">7 x 103</text>
</g>
<g id="clust6" class="cluster">
<title>clustergene (103)</title>
<path fill="none" stroke="black" d="M714,-529.88C714,-529.88 1125,-529.88 1125,-529.88 1131,-529.88 1137,-535.88 1137,-541.88 1137,-541.88 1137,-609.88 1137,-609.88 1137,-615.88 1131,-621.88 1125,-621.88 1125,-621.88 714,-621.88 714,-621.88 708,-621.88 702,-615.88 702,-609.88 702,-609.88 702,-541.88 702,-541.88 702,-535.88 708,-529.88 714,-529.88"/>
<text text-anchor="middle" x="1099.5" y="-537.68" font-family="Times,serif" font-size="14.00">gene (103)</text>
</g>
<g id="clust8" class="cluster">
<title>clustersgrna (162)</title>
<path fill="none" stroke="black" d="M1284,-418.91C1284,-418.91 1368,-418.91 1368,-418.91 1374,-418.91 1380,-424.91 1380,-430.91 1380,-430.91 1380,-620.86 1380,-620.86 1380,-626.86 1374,-632.86 1368,-632.86 1368,-632.86 1284,-632.86 1284,-632.86 1278,-632.86 1272,-626.86 1272,-620.86 1272,-620.86 1272,-430.91 1272,-430.91 1272,-424.91 1278,-418.91 1284,-418.91"/>
<text text-anchor="middle" x="1340.5" y="-426.71" font-family="Times,serif" font-size="14.00">sgrna (162)</text>
</g>
<g id="clust9" class="cluster">
<title>cluster1296</title>
<path fill="none" stroke="black" d="M932,-8C932,-8 1125,-8 1125,-8 1131,-8 1137,-14 1137,-20 1137,-20 1137,-398.91 1137,-398.91 1137,-404.91 1131,-410.91 1125,-410.91 1125,-410.91 932,-410.91 932,-410.91 926,-410.91 920,-404.91 920,-398.91 920,-398.91 920,-20 920,-20 920,-14 926,-8 932,-8"/>
<text text-anchor="middle" x="1115" y="-15.8" font-family="Times,serif" font-size="14.00">1296</text>
</g>
<g id="clust11" class="cluster">
<title>cluster2 x 2</title>
<path fill="none" stroke="black" d="M1789,-418.91C1789,-418.91 1907,-418.91 1907,-418.91 1913,-418.91 1919,-424.91 1919,-430.91 1919,-430.91 1919,-498.91 1919,-498.91 1919,-504.91 1913,-510.91 1907,-510.91 1907,-510.91 1789,-510.91 1789,-510.91 1783,-510.91 1777,-504.91 1777,-498.91 1777,-498.91 1777,-430.91 1777,-430.91 1777,-424.91 1783,-418.91 1789,-418.91"/>
<text text-anchor="middle" x="1897" y="-426.71" font-family="Times,serif" font-size="14.00">2 x 2</text>
</g>
<g id="clust13" class="cluster">
<title>cluster2 x 8</title>
<path fill="none" stroke="black" d="M1400,-518.91C1400,-518.91 1496,-518.91 1496,-518.91 1502,-518.91 1508,-524.91 1508,-530.91 1508,-530.91 1508,-620.86 1508,-620.86 1508,-626.86 1502,-632.86 1496,-632.86 1496,-632.86 1400,-632.86 1400,-632.86 1394,-632.86 1388,-626.86 1388,-620.86 1388,-620.86 1388,-530.91 1388,-530.91 1388,-524.91 1394,-518.91 1400,-518.91"/>
<text text-anchor="middle" x="1486" y="-526.71" font-family="Times,serif" font-size="14.00">2 x 8</text>
</g>
<g id="clust14" class="cluster">
<title>clustercell_line (8)</title>
<path fill="none" stroke="black" d="M1407,-418.91C1407,-418.91 1600,-418.91 1600,-418.91 1606,-418.91 1612,-424.91 1612,-430.91 1612,-430.91 1612,-498.91 1612,-498.91 1612,-504.91 1606,-510.91 1600,-510.91 1600,-510.91 1407,-510.91 1407,-510.91 1401,-510.91 1395,-504.91 1395,-498.91 1395,-498.91 1395,-430.91 1395,-430.91 1395,-424.91 1401,-418.91 1407,-418.91"/>
<text text-anchor="middle" x="1570.5" y="-426.71" font-family="Times,serif" font-size="14.00">cell_line (8)</text>
</g>
<g id="clust3" class="cluster">
<title>cluster7</title>
<path fill="none" stroke="black" d="M218,-529.88C218,-529.88 342,-529.88 342,-529.88 348,-529.88 354,-535.88 354,-541.88 354,-541.88 354,-609.88 354,-609.88 354,-615.88 348,-621.88 342,-621.88 342,-621.88 218,-621.88 218,-621.88 212,-621.88 206,-615.88 206,-609.88 206,-609.88 206,-541.88 206,-541.88 206,-535.88 212,-529.88 218,-529.88"/>
<text text-anchor="middle" x="342.5" y="-537.68" font-family="Times,serif" font-size="14.00">7</text>
</g>
<g id="clust10" class="cluster">
<title>cluster3</title>
<path fill="none" stroke="black" d="M1624,-518.91C1624,-518.91 1786,-518.91 1786,-518.91 1792,-518.91 1798,-524.91 1798,-530.91 1798,-530.91 1798,-620.86 1798,-620.86 1798,-626.86 1792,-632.86 1786,-632.86 1786,-632.86 1624,-632.86 1624,-632.86 1618,-632.86 1612,-626.86 1612,-620.86 1612,-620.86 1612,-530.91 1612,-530.91 1612,-524.91 1618,-518.91 1624,-518.91"/>
<text text-anchor="middle" x="1786.5" y="-526.71" font-family="Times,serif" font-size="14.00">3</text>
</g>
<g id="clust12" class="cluster">
<title>cluster2</title>
<path fill="none" stroke="black" d="M1639,-418.91C1639,-418.91 1757,-418.91 1757,-418.91 1763,-418.91 1769,-424.91 1769,-430.91 1769,-430.91 1769,-498.91 1769,-498.91 1769,-504.91 1763,-510.91 1757,-510.91 1757,-510.91 1639,-510.91 1639,-510.91 1633,-510.91 1627,-504.91 1627,-498.91 1627,-498.91 1627,-430.91 1627,-430.91 1627,-424.91 1633,-418.91 1639,-418.91"/>
<text text-anchor="middle" x="1757.5" y="-426.71" font-family="Times,serif" font-size="14.00">2</text>
</g>
<!-- genes_chol_cov -->
<g id="node1" class="node">
<title>genes_chol_cov</title>
<ellipse fill="none" stroke="black" cx="625" cy="-709.34" rx="84.71" ry="37.45"/>
<text text-anchor="middle" x="625" y="-720.64" font-family="Times,serif" font-size="14.00">genes_chol_cov</text>
<text text-anchor="middle" x="625" y="-705.64" font-family="Times,serif" font-size="14.00">~</text>
<text text-anchor="middle" x="625" y="-690.64" font-family="Times,serif" font-size="14.00">_LKJCholeskyCov</text>
</g>
<!-- genes_chol_cov_corr -->
<g id="node2" class="node">
<title>genes_chol_cov_corr</title>
<polygon fill="none" stroke="black" points="502,-613.88 370,-613.88 370,-560.88 502,-560.88 502,-613.88"/>
<text text-anchor="middle" x="436" y="-598.68" font-family="Times,serif" font-size="14.00">genes_chol_cov_corr</text>
<text text-anchor="middle" x="436" y="-583.68" font-family="Times,serif" font-size="14.00">~</text>
<text text-anchor="middle" x="436" y="-568.68" font-family="Times,serif" font-size="14.00">Deterministic</text>
</g>
<!-- genes_chol_cov&#45;&gt;genes_chol_cov_corr -->
<g id="edge1" class="edge">
<title>genes_chol_cov&#45;&gt;genes_chol_cov_corr</title>
<path fill="none" stroke="black" d="M577.31,-678.07C549.06,-660.14 513.36,-637.48 484.9,-619.42"/>
<polygon fill="black" stroke="black" points="486.64,-616.38 476.32,-613.97 482.89,-622.29 486.64,-616.38"/>
</g>
<!-- genes_chol_cov_stds -->
<g id="node3" class="node">
<title>genes_chol_cov_stds</title>
<polygon fill="none" stroke="black" points="345.5,-613.88 214.5,-613.88 214.5,-560.88 345.5,-560.88 345.5,-613.88"/>
<text text-anchor="middle" x="280" y="-598.68" font-family="Times,serif" font-size="14.00">genes_chol_cov_stds</text>
<text text-anchor="middle" x="280" y="-583.68" font-family="Times,serif" font-size="14.00">~</text>
<text text-anchor="middle" x="280" y="-568.68" font-family="Times,serif" font-size="14.00">Deterministic</text>
</g>
<!-- genes_chol_cov&#45;&gt;genes_chol_cov_stds -->
<g id="edge2" class="edge">
<title>genes_chol_cov&#45;&gt;genes_chol_cov_stds</title>
<path fill="none" stroke="black" d="M549.4,-692.15C495.01,-679.27 420.53,-659.07 358,-632.86 348.62,-628.93 338.95,-624.11 329.76,-619.12"/>
<polygon fill="black" stroke="black" points="331.18,-615.9 320.74,-614.09 327.77,-622.02 331.18,-615.9"/>
</g>
<!-- d -->
<g id="node17" class="node">
<title>d</title>
<polygon fill="none" stroke="black" points="910.5,-613.88 819.5,-613.88 819.5,-560.88 910.5,-560.88 910.5,-613.88"/>
<text text-anchor="middle" x="865" y="-598.68" font-family="Times,serif" font-size="14.00">d</text>
<text text-anchor="middle" x="865" y="-583.68" font-family="Times,serif" font-size="14.00">~</text>
<text text-anchor="middle" x="865" y="-568.68" font-family="Times,serif" font-size="14.00">Deterministic</text>
</g>
<!-- genes_chol_cov&#45;&gt;d -->
<g id="edge17" class="edge">
<title>genes_chol_cov&#45;&gt;d</title>
<path fill="none" stroke="black" d="M661.19,-675.38C677.64,-662.33 698.09,-648.61 719,-640.86 757.07,-626.74 772.35,-648.06 810,-632.86 817.53,-629.82 824.83,-625.39 831.53,-620.48"/>
<polygon fill="black" stroke="black" points="833.97,-623.02 839.66,-614.08 829.64,-617.51 833.97,-623.02"/>
</g>
<!-- b -->
<g id="node18" class="node">
<title>b</title>
<polygon fill="none" stroke="black" points="1019.5,-613.88 928.5,-613.88 928.5,-560.88 1019.5,-560.88 1019.5,-613.88"/>
<text text-anchor="middle" x="974" y="-598.68" font-family="Times,serif" font-size="14.00">b</text>
<text text-anchor="middle" x="974" y="-583.68" font-family="Times,serif" font-size="14.00">~</text>
<text text-anchor="middle" x="974" y="-568.68" font-family="Times,serif" font-size="14.00">Deterministic</text>
</g>
<!-- genes_chol_cov&#45;&gt;b -->
<g id="edge13" class="edge">
<title>genes_chol_cov&#45;&gt;b</title>
<path fill="none" stroke="black" d="M660.57,-675.25C677.07,-662.01 697.72,-648.18 719,-640.86 761.06,-626.39 877.37,-648.53 919,-632.86 926.76,-629.94 934.25,-625.47 941.07,-620.46"/>
<polygon fill="black" stroke="black" points="943.67,-622.87 949.33,-613.92 939.32,-617.39 943.67,-622.87"/>
</g>
<!-- mu_a -->
<g id="node19" class="node">
<title>mu_a</title>
<polygon fill="none" stroke="black" points="1128.5,-613.88 1037.5,-613.88 1037.5,-560.88 1128.5,-560.88 1128.5,-613.88"/>
<text text-anchor="middle" x="1083" y="-598.68" font-family="Times,serif" font-size="14.00">mu_a</text>
<text text-anchor="middle" x="1083" y="-583.68" font-family="Times,serif" font-size="14.00">~</text>
<text text-anchor="middle" x="1083" y="-568.68" font-family="Times,serif" font-size="14.00">Deterministic</text>
</g>
<!-- genes_chol_cov&#45;&gt;mu_a -->
<g id="edge9" class="edge">
<title>genes_chol_cov&#45;&gt;mu_a</title>
<path fill="none" stroke="black" d="M660.52,-675.11C677.01,-661.84 697.67,-648.03 719,-640.86 751.56,-629.92 995.77,-644.73 1028,-632.86 1035.78,-629.99 1043.28,-625.55 1050.11,-620.55"/>
<polygon fill="black" stroke="black" points="1052.7,-622.96 1058.37,-614.01 1048.35,-617.48 1052.7,-622.96"/>
</g>
<!-- f -->
<g id="node20" class="node">
<title>f</title>
<polygon fill="none" stroke="black" points="801.5,-613.88 710.5,-613.88 710.5,-560.88 801.5,-560.88 801.5,-613.88"/>
<text text-anchor="middle" x="756" y="-598.68" font-family="Times,serif" font-size="14.00">f</text>
<text text-anchor="middle" x="756" y="-583.68" font-family="Times,serif" font-size="14.00">~</text>
<text text-anchor="middle" x="756" y="-568.68" font-family="Times,serif" font-size="14.00">Deterministic</text>
</g>
<!-- genes_chol_cov&#45;&gt;f -->
<g id="edge21" class="edge">
<title>genes_chol_cov&#45;&gt;f</title>
<path fill="none" stroke="black" d="M661.14,-675.24C679.57,-658.37 701.89,-637.93 720.26,-621.11"/>
<polygon fill="black" stroke="black" points="722.85,-623.48 727.86,-614.15 718.12,-618.32 722.85,-623.48"/>
</g>
<!-- h -->
<g id="node21" class="node">
<title>h</title>
<polygon fill="none" stroke="black" points="685.5,-613.88 594.5,-613.88 594.5,-560.88 685.5,-560.88 685.5,-613.88"/>
<text text-anchor="middle" x="640" y="-598.68" font-family="Times,serif" font-size="14.00">h</text>
<text text-anchor="middle" x="640" y="-583.68" font-family="Times,serif" font-size="14.00">~</text>
<text text-anchor="middle" x="640" y="-568.68" font-family="Times,serif" font-size="14.00">Deterministic</text>
</g>
<!-- genes_chol_cov&#45;&gt;h -->
<g id="edge25" class="edge">
<title>genes_chol_cov&#45;&gt;h</title>
<path fill="none" stroke="black" d="M629.58,-671.69C631.47,-656.58 633.66,-639.12 635.53,-624.11"/>
<polygon fill="black" stroke="black" points="639.01,-624.51 636.78,-614.16 632.06,-623.65 639.01,-624.51"/>
</g>
<!-- sigma_mu_a -->
<g id="node4" class="node">
<title>sigma_mu_a</title>
<polygon fill="none" stroke="black" points="216.5,-502.91 125.5,-502.91 125.5,-449.91 216.5,-449.91 216.5,-502.91"/>
<text text-anchor="middle" x="171" y="-487.71" font-family="Times,serif" font-size="14.00">sigma_mu_a</text>
<text text-anchor="middle" x="171" y="-472.71" font-family="Times,serif" font-size="14.00">~</text>
<text text-anchor="middle" x="171" y="-457.71" font-family="Times,serif" font-size="14.00">Deterministic</text>
</g>
<!-- genes_chol_cov_stds&#45;&gt;sigma_mu_a -->
<g id="edge3" class="edge">
<title>genes_chol_cov_stds&#45;&gt;sigma_mu_a</title>
<path fill="none" stroke="black" d="M254.44,-560.83C239.38,-545.78 220.17,-526.57 203.98,-510.37"/>
<polygon fill="black" stroke="black" points="206.32,-507.77 196.77,-503.17 201.37,-512.72 206.32,-507.77"/>
</g>
<!-- sigma_f -->
<g id="node6" class="node">
<title>sigma_f</title>
<polygon fill="none" stroke="black" points="325.5,-502.91 234.5,-502.91 234.5,-449.91 325.5,-449.91 325.5,-502.91"/>
<text text-anchor="middle" x="280" y="-487.71" font-family="Times,serif" font-size="14.00">sigma_f</text>
<text text-anchor="middle" x="280" y="-472.71" font-family="Times,serif" font-size="14.00">~</text>
<text text-anchor="middle" x="280" y="-457.71" font-family="Times,serif" font-size="14.00">Deterministic</text>
</g>
<!-- genes_chol_cov_stds&#45;&gt;sigma_f -->
<g id="edge6" class="edge">
<title>genes_chol_cov_stds&#45;&gt;sigma_f</title>
<path fill="none" stroke="black" d="M280,-560.83C280,-546.73 280,-528.97 280,-513.47"/>
<polygon fill="black" stroke="black" points="283.5,-513.17 280,-503.17 276.5,-513.17 283.5,-513.17"/>
</g>
<!-- sigma_b -->
<g id="node8" class="node">
<title>sigma_b</title>
<polygon fill="none" stroke="black" points="434.5,-502.91 343.5,-502.91 343.5,-449.91 434.5,-449.91 434.5,-502.91"/>
<text text-anchor="middle" x="389" y="-487.71" font-family="Times,serif" font-size="14.00">sigma_b</text>
<text text-anchor="middle" x="389" y="-472.71" font-family="Times,serif" font-size="14.00">~</text>
<text text-anchor="middle" x="389" y="-457.71" font-family="Times,serif" font-size="14.00">Deterministic</text>
</g>
<!-- genes_chol_cov_stds&#45;&gt;sigma_b -->
<g id="edge4" class="edge">
<title>genes_chol_cov_stds&#45;&gt;sigma_b</title>
<path fill="none" stroke="black" d="M305.56,-560.83C320.62,-545.78 339.83,-526.57 356.02,-510.37"/>
<polygon fill="black" stroke="black" points="358.63,-512.72 363.23,-503.17 353.68,-507.77 358.63,-512.72"/>
</g>
<!-- sigma_d -->
<g id="node9" class="node">
<title>sigma_d</title>
<polygon fill="none" stroke="black" points="543.5,-502.91 452.5,-502.91 452.5,-449.91 543.5,-449.91 543.5,-502.91"/>
<text text-anchor="middle" x="498" y="-487.71" font-family="Times,serif" font-size="14.00">sigma_d</text>
<text text-anchor="middle" x="498" y="-472.71" font-family="Times,serif" font-size="14.00">~</text>
<text text-anchor="middle" x="498" y="-457.71" font-family="Times,serif" font-size="14.00">Deterministic</text>
</g>
<!-- genes_chol_cov_stds&#45;&gt;sigma_d -->
<g id="edge5" class="edge">
<title>genes_chol_cov_stds&#45;&gt;sigma_d</title>
<path fill="none" stroke="black" d="M301.87,-560.76C316.2,-545.84 336.26,-528.19 358,-518.91 392.9,-504.01 406.99,-522.86 443,-510.91 445.93,-509.93 448.87,-508.78 451.78,-507.5"/>
<polygon fill="black" stroke="black" points="453.48,-510.56 460.93,-503.02 450.41,-504.27 453.48,-510.56"/>
</g>
<!-- sigma_h -->
<g id="node15" class="node">
<title>sigma_h</title>
<polygon fill="none" stroke="black" points="107.5,-502.91 16.5,-502.91 16.5,-449.91 107.5,-449.91 107.5,-502.91"/>
<text text-anchor="middle" x="62" y="-487.71" font-family="Times,serif" font-size="14.00">sigma_h</text>
<text text-anchor="middle" x="62" y="-472.71" font-family="Times,serif" font-size="14.00">~</text>
<text text-anchor="middle" x="62" y="-457.71" font-family="Times,serif" font-size="14.00">Deterministic</text>
</g>
<!-- genes_chol_cov_stds&#45;&gt;sigma_h -->
<g id="edge7" class="edge">
<title>genes_chol_cov_stds&#45;&gt;sigma_h</title>
<path fill="none" stroke="black" d="M219.92,-560.88C188.5,-547 149.68,-529.01 116,-510.91 114.29,-509.99 112.55,-509.03 110.81,-508.06"/>
<polygon fill="black" stroke="black" points="112.49,-504.98 102.08,-503.02 108.99,-511.05 112.49,-504.98"/>
</g>
<!-- sigma_m -->
<g id="node5" class="node">
<title>sigma_m</title>
<polygon fill="none" stroke="black" points="1797.5,-402.91 1706.5,-402.91 1706.5,-349.91 1797.5,-349.91 1797.5,-402.91"/>
<text text-anchor="middle" x="1752" y="-387.71" font-family="Times,serif" font-size="14.00">sigma_m</text>
<text text-anchor="middle" x="1752" y="-372.71" font-family="Times,serif" font-size="14.00">~</text>
<text text-anchor="middle" x="1752" y="-357.71" font-family="Times,serif" font-size="14.00">Deterministic</text>
</g>
<!-- mu_m -->
<g id="node7" class="node">
<title>mu_m</title>
<ellipse fill="none" stroke="black" cx="1560" cy="-587.38" rx="41.94" ry="37.45"/>
<text text-anchor="middle" x="1560" y="-598.68" font-family="Times,serif" font-size="14.00">mu_m</text>
<text text-anchor="middle" x="1560" y="-583.68" font-family="Times,serif" font-size="14.00">~</text>
<text text-anchor="middle" x="1560" y="-568.68" font-family="Times,serif" font-size="14.00">Normal</text>
</g>
<!-- k -->
<g id="node33" class="node">
<title>k</title>
<polygon fill="none" stroke="black" points="1603.5,-502.91 1512.5,-502.91 1512.5,-449.91 1603.5,-449.91 1603.5,-502.91"/>
<text text-anchor="middle" x="1558" y="-487.71" font-family="Times,serif" font-size="14.00">k</text>
<text text-anchor="middle" x="1558" y="-472.71" font-family="Times,serif" font-size="14.00">~</text>
<text text-anchor="middle" x="1558" y="-457.71" font-family="Times,serif" font-size="14.00">Deterministic</text>
</g>
<!-- mu_m&#45;&gt;k -->
<g id="edge40" class="edge">
<title>mu_m&#45;&gt;k</title>
<path fill="none" stroke="black" d="M1559.33,-549.79C1559.11,-538.05 1558.87,-525.06 1558.66,-513.37"/>
<polygon fill="black" stroke="black" points="1562.15,-513 1558.47,-503.06 1555.16,-513.13 1562.15,-513"/>
</g>
<!-- m -->
<g id="node34" class="node">
<title>m</title>
<polygon fill="none" stroke="black" points="1494.5,-502.91 1403.5,-502.91 1403.5,-449.91 1494.5,-449.91 1494.5,-502.91"/>
<text text-anchor="middle" x="1449" y="-487.71" font-family="Times,serif" font-size="14.00">m</text>
<text text-anchor="middle" x="1449" y="-472.71" font-family="Times,serif" font-size="14.00">~</text>
<text text-anchor="middle" x="1449" y="-457.71" font-family="Times,serif" font-size="14.00">Deterministic</text>
</g>
<!-- mu_m&#45;&gt;m -->
<g id="edge43" class="edge">
<title>mu_m&#45;&gt;m</title>
<path fill="none" stroke="black" d="M1540.48,-553.9C1532.51,-542.12 1522.66,-529.19 1512,-518.91 1508.53,-515.56 1504.76,-512.32 1500.84,-509.22"/>
<polygon fill="black" stroke="black" points="1502.74,-506.27 1492.64,-503.07 1498.54,-511.87 1502.74,-506.27"/>
</g>
<!-- mu_b -->
<g id="node10" class="node">
<title>mu_b</title>
<ellipse fill="none" stroke="black" cx="770" cy="-709.34" rx="41.94" ry="37.45"/>
<text text-anchor="middle" x="770" y="-720.64" font-family="Times,serif" font-size="14.00">mu_b</text>
<text text-anchor="middle" x="770" y="-705.64" font-family="Times,serif" font-size="14.00">~</text>
<text text-anchor="middle" x="770" y="-690.64" font-family="Times,serif" font-size="14.00">Normal</text>
</g>
<!-- mu_b&#45;&gt;d -->
<g id="edge18" class="edge">
<title>mu_b&#45;&gt;d</title>
<path fill="none" stroke="black" d="M792.78,-677.52C801.48,-665.93 811.58,-652.69 821,-640.86 825.95,-634.65 831.31,-628.1 836.53,-621.83"/>
<polygon fill="black" stroke="black" points="839.3,-623.97 843.03,-614.06 833.93,-619.48 839.3,-623.97"/>
</g>
<!-- mu_b&#45;&gt;b -->
<g id="edge14" class="edge">
<title>mu_b&#45;&gt;b</title>
<path fill="none" stroke="black" d="M787.03,-675.12C795.44,-662.19 806.84,-648.64 821,-640.86 859.3,-619.81 878.43,-649.1 919,-632.86 926.62,-629.81 934,-625.33 940.76,-620.36"/>
<polygon fill="black" stroke="black" points="943.28,-622.83 948.95,-613.89 938.94,-617.34 943.28,-622.83"/>
</g>
<!-- mu_b&#45;&gt;mu_a -->
<g id="edge10" class="edge">
<title>mu_b&#45;&gt;mu_a</title>
<path fill="none" stroke="black" d="M786.87,-674.82C795.25,-661.84 806.68,-648.33 821,-640.86 841.4,-630.21 1006.45,-640.95 1028,-632.86 1035.76,-629.95 1043.25,-625.48 1050.08,-620.47"/>
<polygon fill="black" stroke="black" points="1052.67,-622.88 1058.34,-613.93 1048.32,-617.4 1052.67,-622.88"/>
</g>
<!-- mu_b&#45;&gt;f -->
<g id="edge22" class="edge">
<title>mu_b&#45;&gt;f</title>
<path fill="none" stroke="black" d="M765.76,-672.02C763.98,-656.78 761.92,-639.12 760.15,-623.96"/>
<polygon fill="black" stroke="black" points="763.62,-623.45 758.98,-613.92 756.66,-624.26 763.62,-623.45"/>
</g>
<!-- mu_b&#45;&gt;h -->
<g id="edge26" class="edge">
<title>mu_b&#45;&gt;h</title>
<path fill="none" stroke="black" d="M752.27,-674.98C744.39,-662.8 734.13,-649.84 722,-640.86 712.96,-634.17 707.93,-638.13 698,-632.86 691.06,-629.18 684.09,-624.68 677.51,-619.97"/>
<polygon fill="black" stroke="black" points="679.52,-617.1 669.41,-613.94 675.34,-622.72 679.52,-617.1"/>
</g>
<!-- sigma_k -->
<g id="node11" class="node">
<title>sigma_k</title>
<polygon fill="none" stroke="black" points="1688.5,-402.91 1597.5,-402.91 1597.5,-349.91 1688.5,-349.91 1688.5,-402.91"/>
<text text-anchor="middle" x="1643" y="-387.71" font-family="Times,serif" font-size="14.00">sigma_k</text>
<text text-anchor="middle" x="1643" y="-372.71" font-family="Times,serif" font-size="14.00">~</text>
<text text-anchor="middle" x="1643" y="-357.71" font-family="Times,serif" font-size="14.00">Deterministic</text>
</g>
<!-- alpha -->
<g id="node12" class="node">
<title>alpha</title>
<ellipse fill="none" stroke="black" cx="1203" cy="-187.43" rx="57.97" ry="37.45"/>
<text text-anchor="middle" x="1203" y="-198.73" font-family="Times,serif" font-size="14.00">alpha</text>
<text text-anchor="middle" x="1203" y="-183.73" font-family="Times,serif" font-size="14.00">~</text>
<text text-anchor="middle" x="1203" y="-168.73" font-family="Times,serif" font-size="14.00">Exponential</text>
</g>
<!-- ct_final -->
<g id="node25" class="node">
<title>ct_final</title>
<ellipse fill="lightgrey" stroke="black" cx="1065" cy="-76.48" rx="63.78" ry="37.45"/>
<text text-anchor="middle" x="1065" y="-87.78" font-family="Times,serif" font-size="14.00">ct_final</text>
<text text-anchor="middle" x="1065" y="-72.78" font-family="Times,serif" font-size="14.00">~</text>
<text text-anchor="middle" x="1065" y="-57.78" font-family="Times,serif" font-size="14.00">NegBinomial</text>
</g>
<!-- alpha&#45;&gt;ct_final -->
<g id="edge51" class="edge">
<title>alpha&#45;&gt;ct_final</title>
<path fill="none" stroke="black" d="M1166.74,-157.8C1149.57,-144.24 1128.87,-127.9 1110.64,-113.51"/>
<polygon fill="black" stroke="black" points="1112.48,-110.5 1102.46,-107.05 1108.14,-115.99 1112.48,-110.5"/>
</g>
<!-- sigma_a -->
<g id="node13" class="node">
<title>sigma_a</title>
<ellipse fill="none" stroke="black" cx="1205" cy="-587.38" rx="58.88" ry="37.45"/>
<text text-anchor="middle" x="1205" y="-598.68" font-family="Times,serif" font-size="14.00">sigma_a</text>
<text text-anchor="middle" x="1205" y="-583.68" font-family="Times,serif" font-size="14.00">~</text>
<text text-anchor="middle" x="1205" y="-568.68" font-family="Times,serif" font-size="14.00">HalfNormal</text>
</g>
<!-- a -->
<g id="node22" class="node">
<title>a</title>
<polygon fill="none" stroke="black" points="1371.5,-502.91 1280.5,-502.91 1280.5,-449.91 1371.5,-449.91 1371.5,-502.91"/>
<text text-anchor="middle" x="1326" y="-487.71" font-family="Times,serif" font-size="14.00">a</text>
<text text-anchor="middle" x="1326" y="-472.71" font-family="Times,serif" font-size="14.00">~</text>
<text text-anchor="middle" x="1326" y="-457.71" font-family="Times,serif" font-size="14.00">Deterministic</text>
</g>
<!-- sigma_a&#45;&gt;a -->
<g id="edge28" class="edge">
<title>sigma_a&#45;&gt;a</title>
<path fill="none" stroke="black" d="M1232.63,-554.21C1243.22,-542.59 1255.71,-529.69 1268,-518.91 1271.8,-515.57 1275.86,-512.25 1280.01,-509.01"/>
<polygon fill="black" stroke="black" points="1282.18,-511.75 1288.03,-502.92 1277.95,-506.18 1282.18,-511.75"/>
</g>
<!-- mu_mu_a -->
<g id="node14" class="node">
<title>mu_mu_a</title>
<ellipse fill="none" stroke="black" cx="881" cy="-709.34" rx="50.82" ry="37.45"/>
<text text-anchor="middle" x="881" y="-720.64" font-family="Times,serif" font-size="14.00">mu_mu_a</text>
<text text-anchor="middle" x="881" y="-705.64" font-family="Times,serif" font-size="14.00">~</text>
<text text-anchor="middle" x="881" y="-690.64" font-family="Times,serif" font-size="14.00">Normal</text>
</g>
<!-- mu_mu_a&#45;&gt;d -->
<g id="edge19" class="edge">
<title>mu_mu_a&#45;&gt;d</title>
<path fill="none" stroke="black" d="M876.16,-672.02C874.12,-656.78 871.77,-639.12 869.74,-623.96"/>
<polygon fill="black" stroke="black" points="873.2,-623.37 868.41,-613.92 866.26,-624.3 873.2,-623.37"/>
</g>
<!-- mu_mu_a&#45;&gt;b -->
<g id="edge15" class="edge">
<title>mu_mu_a&#45;&gt;b</title>
<path fill="none" stroke="black" d="M905.68,-676.51C918.72,-659.69 934.72,-639.05 947.96,-621.97"/>
<polygon fill="black" stroke="black" points="950.85,-623.95 954.21,-613.91 945.32,-619.66 950.85,-623.95"/>
</g>
<!-- mu_mu_a&#45;&gt;mu_a -->
<g id="edge11" class="edge">
<title>mu_mu_a&#45;&gt;mu_a</title>
<path fill="none" stroke="black" d="M900.65,-674.76C909.97,-661.94 922.3,-648.56 937,-640.86 972.96,-622.01 990.35,-648.06 1028,-632.86 1035.53,-629.82 1042.83,-625.39 1049.53,-620.48"/>
<polygon fill="black" stroke="black" points="1051.97,-623.02 1057.66,-614.08 1047.64,-617.51 1051.97,-623.02"/>
</g>
<!-- mu_mu_a&#45;&gt;f -->
<g id="edge23" class="edge">
<title>mu_mu_a&#45;&gt;f</title>
<path fill="none" stroke="black" d="M855.44,-676.8C845.25,-665 833.08,-651.81 821,-640.86 816.52,-636.8 814.78,-636.56 810,-632.86 804.96,-628.96 799.71,-624.78 794.56,-620.61"/>
<polygon fill="black" stroke="black" points="796.54,-617.72 786.58,-614.11 792.12,-623.14 796.54,-617.72"/>
</g>
<!-- mu_mu_a&#45;&gt;h -->
<g id="edge27" class="edge">
<title>mu_mu_a&#45;&gt;h</title>
<path fill="none" stroke="black" d="M859.83,-674.91C849.75,-661.95 836.49,-648.43 821,-640.86 796.39,-628.84 723.64,-642.5 698,-632.86 689.89,-629.81 681.98,-625.22 674.74,-620.14"/>
<polygon fill="black" stroke="black" points="676.67,-617.21 666.58,-614 672.47,-622.81 676.67,-617.21"/>
</g>
<!-- delta_genes -->
<g id="node16" class="node">
<title>delta_genes</title>
<ellipse fill="none" stroke="black" cx="1006" cy="-709.34" rx="56.64" ry="37.45"/>
<text text-anchor="middle" x="1006" y="-720.64" font-family="Times,serif" font-size="14.00">delta_genes</text>
<text text-anchor="middle" x="1006" y="-705.64" font-family="Times,serif" font-size="14.00">~</text>
<text text-anchor="middle" x="1006" y="-690.64" font-family="Times,serif" font-size="14.00">Normal</text>
</g>
<!-- delta_genes&#45;&gt;d -->
<g id="edge16" class="edge">
<title>delta_genes&#45;&gt;d</title>
<path fill="none" stroke="black" d="M980.09,-675.66C969.08,-663.44 955.46,-650.26 941,-640.86 932.28,-635.19 928.03,-638.02 919,-632.86 912.69,-629.26 906.38,-624.91 900.42,-620.36"/>
<polygon fill="black" stroke="black" points="902.54,-617.58 892.53,-614.09 898.18,-623.05 902.54,-617.58"/>
</g>
<!-- delta_genes&#45;&gt;b -->
<g id="edge12" class="edge">
<title>delta_genes&#45;&gt;b</title>
<path fill="none" stroke="black" d="M996.4,-672.35C992.33,-657.1 987.6,-639.37 983.54,-624.14"/>
<polygon fill="black" stroke="black" points="986.81,-622.82 980.85,-614.06 980.05,-624.63 986.81,-622.82"/>
</g>
<!-- delta_genes&#45;&gt;mu_a -->
<g id="edge8" class="edge">
<title>delta_genes&#45;&gt;mu_a</title>
<path fill="none" stroke="black" d="M1027.65,-674.6C1038.01,-658.47 1050.4,-639.17 1060.82,-622.93"/>
<polygon fill="black" stroke="black" points="1063.93,-624.57 1066.39,-614.26 1058.04,-620.79 1063.93,-624.57"/>
</g>
<!-- delta_genes&#45;&gt;f -->
<g id="edge20" class="edge">
<title>delta_genes&#45;&gt;f</title>
<path fill="none" stroke="black" d="M982.54,-674.85C971.53,-661.87 957.24,-648.36 941,-640.86 914.52,-628.63 837.14,-643.54 810,-632.86 802.45,-629.89 795.16,-625.44 788.52,-620.49"/>
<polygon fill="black" stroke="black" points="790.46,-617.55 780.47,-614.02 786.07,-623.01 790.46,-617.55"/>
</g>
<!-- delta_genes&#45;&gt;h -->
<g id="edge24" class="edge">
<title>delta_genes&#45;&gt;h</title>
<path fill="none" stroke="black" d="M982.94,-674.98C971.91,-661.86 957.5,-648.2 941,-640.86 916.32,-629.88 723.44,-641.96 698,-632.86 689.76,-629.91 681.74,-625.32 674.43,-620.19"/>
<polygon fill="black" stroke="black" points="676.3,-617.21 666.21,-613.98 672.08,-622.8 676.3,-617.21"/>
</g>
<!-- gene_effect -->
<g id="node28" class="node">
<title>gene_effect</title>
<polygon fill="none" stroke="black" points="1019.5,-402.91 928.5,-402.91 928.5,-349.91 1019.5,-349.91 1019.5,-402.91"/>
<text text-anchor="middle" x="974" y="-387.71" font-family="Times,serif" font-size="14.00">gene_effect</text>
<text text-anchor="middle" x="974" y="-372.71" font-family="Times,serif" font-size="14.00">~</text>
<text text-anchor="middle" x="974" y="-357.71" font-family="Times,serif" font-size="14.00">Deterministic</text>
</g>
<!-- d&#45;&gt;gene_effect -->
<g id="edge31" class="edge">
<title>d&#45;&gt;gene_effect</title>
<path fill="none" stroke="black" d="M878.37,-560.76C897.87,-523.37 934.17,-453.77 956,-411.91"/>
<polygon fill="black" stroke="black" points="959.17,-413.4 960.7,-402.91 952.97,-410.16 959.17,-413.4"/>
</g>
<!-- b&#45;&gt;gene_effect -->
<g id="edge33" class="edge">
<title>b&#45;&gt;gene_effect</title>
<path fill="none" stroke="black" d="M974,-560.76C974,-523.68 974,-454.94 974,-412.97"/>
<polygon fill="black" stroke="black" points="977.5,-412.91 974,-402.91 970.5,-412.91 977.5,-412.91"/>
</g>
<!-- mu_a&#45;&gt;a -->
<g id="edge29" class="edge">
<title>mu_a&#45;&gt;a</title>
<path fill="none" stroke="black" d="M1097.55,-560.58C1106.98,-546.18 1120.56,-529.12 1137,-518.91 1177.29,-493.87 1230.64,-483.83 1270.38,-479.85"/>
<polygon fill="black" stroke="black" points="1270.78,-483.33 1280.43,-478.95 1270.16,-476.36 1270.78,-483.33"/>
</g>
<!-- f&#45;&gt;gene_effect -->
<g id="edge35" class="edge">
<title>f&#45;&gt;gene_effect</title>
<path fill="none" stroke="black" d="M774.09,-560.61C799.74,-525.39 849.55,-461.71 903,-418.91 908.24,-414.71 913.95,-410.65 919.79,-406.83"/>
<polygon fill="black" stroke="black" points="921.79,-409.7 928.38,-401.4 918.05,-403.78 921.79,-409.7"/>
</g>
<!-- h&#45;&gt;gene_effect -->
<g id="edge32" class="edge">
<title>h&#45;&gt;gene_effect</title>
<path fill="none" stroke="black" d="M658.31,-560.74C686.57,-523.25 744.53,-454.1 811,-418.91 844.3,-401.28 885.44,-390.88 918.06,-384.9"/>
<polygon fill="black" stroke="black" points="919.08,-388.27 928.33,-383.11 917.88,-381.38 919.08,-388.27"/>
</g>
<!-- a&#45;&gt;gene_effect -->
<g id="edge34" class="edge">
<title>a&#45;&gt;gene_effect</title>
<path fill="none" stroke="black" d="M1280.4,-470.45C1220.68,-462.87 1113.51,-445.48 1028,-410.91 1025.63,-409.95 1023.24,-408.89 1020.87,-407.75"/>
<polygon fill="black" stroke="black" points="1022.28,-404.54 1011.79,-403.06 1019.06,-410.76 1022.28,-404.54"/>
</g>
<!-- delta_a -->
<g id="node23" class="node">
<title>delta_a</title>
<ellipse fill="none" stroke="black" cx="1326" cy="-587.38" rx="41.94" ry="37.45"/>
<text text-anchor="middle" x="1326" y="-598.68" font-family="Times,serif" font-size="14.00">delta_a</text>
<text text-anchor="middle" x="1326" y="-583.68" font-family="Times,serif" font-size="14.00">~</text>
<text text-anchor="middle" x="1326" y="-568.68" font-family="Times,serif" font-size="14.00">Normal</text>
</g>
<!-- delta_a&#45;&gt;a -->
<g id="edge30" class="edge">
<title>delta_a&#45;&gt;a</title>
<path fill="none" stroke="black" d="M1326,-549.79C1326,-538.05 1326,-525.06 1326,-513.37"/>
<polygon fill="black" stroke="black" points="1329.5,-513.06 1326,-503.06 1322.5,-513.06 1329.5,-513.06"/>
</g>
<!-- cell_effect -->
<g id="node24" class="node">
<title>cell_effect</title>
<polygon fill="none" stroke="black" points="1128.5,-402.91 1037.5,-402.91 1037.5,-349.91 1128.5,-349.91 1128.5,-402.91"/>
<text text-anchor="middle" x="1083" y="-387.71" font-family="Times,serif" font-size="14.00">cell_effect</text>
<text text-anchor="middle" x="1083" y="-372.71" font-family="Times,serif" font-size="14.00">~</text>
<text text-anchor="middle" x="1083" y="-357.71" font-family="Times,serif" font-size="14.00">Deterministic</text>
</g>
<!-- eta -->
<g id="node26" class="node">
<title>eta</title>
<polygon fill="none" stroke="black" points="1110.5,-313.91 1019.5,-313.91 1019.5,-260.91 1110.5,-260.91 1110.5,-313.91"/>
<text text-anchor="middle" x="1065" y="-298.71" font-family="Times,serif" font-size="14.00">eta</text>
<text text-anchor="middle" x="1065" y="-283.71" font-family="Times,serif" font-size="14.00">~</text>
<text text-anchor="middle" x="1065" y="-268.71" font-family="Times,serif" font-size="14.00">Deterministic</text>
</g>
<!-- cell_effect&#45;&gt;eta -->
<g id="edge49" class="edge">
<title>cell_effect&#45;&gt;eta</title>
<path fill="none" stroke="black" d="M1077.7,-349.77C1076.03,-341.7 1074.15,-332.64 1072.37,-324.01"/>
<polygon fill="black" stroke="black" points="1075.78,-323.24 1070.33,-314.16 1068.93,-324.66 1075.78,-323.24"/>
</g>
<!-- mu -->
<g id="node27" class="node">
<title>mu</title>
<polygon fill="none" stroke="black" points="1110.5,-213.93 1019.5,-213.93 1019.5,-160.93 1110.5,-160.93 1110.5,-213.93"/>
<text text-anchor="middle" x="1065" y="-198.73" font-family="Times,serif" font-size="14.00">mu</text>
<text text-anchor="middle" x="1065" y="-183.73" font-family="Times,serif" font-size="14.00">~</text>
<text text-anchor="middle" x="1065" y="-168.73" font-family="Times,serif" font-size="14.00">Deterministic</text>
</g>
<!-- eta&#45;&gt;mu -->
<g id="edge50" class="edge">
<title>eta&#45;&gt;mu</title>
<path fill="none" stroke="black" d="M1065,-260.66C1065,-249.53 1065,-236.3 1065,-224.23"/>
<polygon fill="black" stroke="black" points="1068.5,-224 1065,-214 1061.5,-224 1068.5,-224"/>
</g>
<!-- mu&#45;&gt;ct_final -->
<g id="edge52" class="edge">
<title>mu&#45;&gt;ct_final</title>
<path fill="none" stroke="black" d="M1065,-160.89C1065,-149.98 1065,-136.89 1065,-124.35"/>
<polygon fill="black" stroke="black" points="1068.5,-124 1065,-114 1061.5,-124 1068.5,-124"/>
</g>
<!-- gene_effect&#45;&gt;eta -->
<g id="edge48" class="edge">
<title>gene_effect&#45;&gt;eta</title>
<path fill="none" stroke="black" d="M1000.81,-349.77C1010.17,-340.83 1020.8,-330.66 1030.69,-321.21"/>
<polygon fill="black" stroke="black" points="1033.26,-323.6 1038.07,-314.16 1028.42,-318.54 1033.26,-323.6"/>
</g>
<!-- cells_chol_cov -->
<g id="node29" class="node">
<title>cells_chol_cov</title>
<ellipse fill="none" stroke="black" cx="1705" cy="-587.38" rx="84.71" ry="37.45"/>
<text text-anchor="middle" x="1705" y="-598.68" font-family="Times,serif" font-size="14.00">cells_chol_cov</text>
<text text-anchor="middle" x="1705" y="-583.68" font-family="Times,serif" font-size="14.00">~</text>
<text text-anchor="middle" x="1705" y="-568.68" font-family="Times,serif" font-size="14.00">_LKJCholeskyCov</text>
</g>
<!-- cells_chol_cov_corr -->
<g id="node30" class="node">
<title>cells_chol_cov_corr</title>
<polygon fill="none" stroke="black" points="1911,-502.91 1785,-502.91 1785,-449.91 1911,-449.91 1911,-502.91"/>
<text text-anchor="middle" x="1848" y="-487.71" font-family="Times,serif" font-size="14.00">cells_chol_cov_corr</text>
<text text-anchor="middle" x="1848" y="-472.71" font-family="Times,serif" font-size="14.00">~</text>
<text text-anchor="middle" x="1848" y="-457.71" font-family="Times,serif" font-size="14.00">Deterministic</text>
</g>
<!-- cells_chol_cov&#45;&gt;cells_chol_cov_corr -->
<g id="edge36" class="edge">
<title>cells_chol_cov&#45;&gt;cells_chol_cov_corr</title>
<path fill="none" stroke="black" d="M1746.75,-554.57C1765.42,-540.34 1787.38,-523.6 1806.07,-509.36"/>
<polygon fill="black" stroke="black" points="1808.3,-512.06 1814.14,-503.21 1804.06,-506.49 1808.3,-512.06"/>
</g>
<!-- cells_chol_cov_stds -->
<g id="node31" class="node">
<title>cells_chol_cov_stds</title>
<polygon fill="none" stroke="black" points="1760.5,-502.91 1635.5,-502.91 1635.5,-449.91 1760.5,-449.91 1760.5,-502.91"/>
<text text-anchor="middle" x="1698" y="-487.71" font-family="Times,serif" font-size="14.00">cells_chol_cov_stds</text>
<text text-anchor="middle" x="1698" y="-472.71" font-family="Times,serif" font-size="14.00">~</text>
<text text-anchor="middle" x="1698" y="-457.71" font-family="Times,serif" font-size="14.00">Deterministic</text>
</g>
<!-- cells_chol_cov&#45;&gt;cells_chol_cov_stds -->
<g id="edge37" class="edge">
<title>cells_chol_cov&#45;&gt;cells_chol_cov_stds</title>
<path fill="none" stroke="black" d="M1702.65,-549.79C1701.9,-538.05 1701.06,-525.06 1700.31,-513.37"/>
<polygon fill="black" stroke="black" points="1703.78,-512.82 1699.65,-503.06 1696.8,-513.27 1703.78,-512.82"/>
</g>
<!-- cells_chol_cov&#45;&gt;k -->
<g id="edge42" class="edge">
<title>cells_chol_cov&#45;&gt;k</title>
<path fill="none" stroke="black" d="M1662.48,-554.86C1643.04,-540.45 1620.06,-523.42 1600.61,-509"/>
<polygon fill="black" stroke="black" points="1602.63,-506.14 1592.51,-502.99 1598.46,-511.76 1602.63,-506.14"/>
</g>
<!-- cells_chol_cov&#45;&gt;m -->
<g id="edge45" class="edge">
<title>cells_chol_cov&#45;&gt;m</title>
<path fill="none" stroke="black" d="M1668.86,-553.29C1652.42,-540.21 1631.96,-526.52 1611,-518.91 1565.76,-502.48 1548.77,-525.8 1503,-510.91 1500.05,-509.95 1497.1,-508.8 1494.18,-507.5"/>
<polygon fill="black" stroke="black" points="1495.54,-504.27 1485.02,-502.97 1492.43,-510.54 1495.54,-504.27"/>
</g>
<!-- cells_chol_cov_stds&#45;&gt;sigma_m -->
<g id="edge39" class="edge">
<title>cells_chol_cov_stds&#45;&gt;sigma_m</title>
<path fill="none" stroke="black" d="M1712.19,-449.66C1718.57,-438.07 1726.21,-424.22 1733.07,-411.76"/>
<polygon fill="black" stroke="black" points="1736.15,-413.43 1737.91,-402.98 1730.02,-410.05 1736.15,-413.43"/>
</g>
<!-- cells_chol_cov_stds&#45;&gt;sigma_k -->
<g id="edge38" class="edge">
<title>cells_chol_cov_stds&#45;&gt;sigma_k</title>
<path fill="none" stroke="black" d="M1683.55,-449.66C1677.04,-438.07 1669.27,-424.22 1662.28,-411.76"/>
<polygon fill="black" stroke="black" points="1665.3,-409.99 1657.35,-402.98 1659.2,-413.42 1665.3,-409.99"/>
</g>
<!-- delta_cells -->
<g id="node32" class="node">
<title>delta_cells</title>
<ellipse fill="none" stroke="black" cx="1448" cy="-587.38" rx="52.15" ry="37.45"/>
<text text-anchor="middle" x="1448" y="-598.68" font-family="Times,serif" font-size="14.00">delta_cells</text>
<text text-anchor="middle" x="1448" y="-583.68" font-family="Times,serif" font-size="14.00">~</text>
<text text-anchor="middle" x="1448" y="-568.68" font-family="Times,serif" font-size="14.00">Normal</text>
</g>
<!-- delta_cells&#45;&gt;k -->
<g id="edge41" class="edge">
<title>delta_cells&#45;&gt;k</title>
<path fill="none" stroke="black" d="M1474.8,-555.01C1485.16,-543.35 1497.31,-530.22 1509,-518.91 1512.19,-515.81 1515.58,-512.68 1519.03,-509.58"/>
<polygon fill="black" stroke="black" points="1521.41,-512.15 1526.61,-502.92 1516.79,-506.9 1521.41,-512.15"/>
</g>
<!-- delta_cells&#45;&gt;m -->
<g id="edge44" class="edge">
<title>delta_cells&#45;&gt;m</title>
<path fill="none" stroke="black" d="M1448.34,-549.79C1448.44,-538.05 1448.56,-525.06 1448.67,-513.37"/>
<polygon fill="black" stroke="black" points="1452.17,-513.1 1448.76,-503.06 1445.17,-513.03 1452.17,-513.1"/>
</g>
<!-- k&#45;&gt;cell_effect -->
<g id="edge46" class="edge">
<title>k&#45;&gt;cell_effect</title>
<path fill="none" stroke="black" d="M1539.73,-449.67C1530.16,-438.25 1517.43,-425.85 1503,-418.91 1440.03,-388.59 1237.72,-380.41 1138.68,-378.21"/>
<polygon fill="black" stroke="black" points="1138.63,-374.71 1128.56,-378 1138.48,-381.71 1138.63,-374.71"/>
</g>
<!-- m&#45;&gt;cell_effect -->
<g id="edge47" class="edge">
<title>m&#45;&gt;cell_effect</title>
<path fill="none" stroke="black" d="M1426.11,-449.63C1414.62,-438.35 1399.79,-426.08 1384,-418.91 1341.45,-399.58 1213.63,-387.13 1138.95,-381.29"/>
<polygon fill="black" stroke="black" points="1139.01,-377.79 1128.77,-380.51 1138.48,-384.77 1139.01,-377.79"/>
</g>
</g>
</svg>
