<?xml version="1.0" encoding="UTF-8" standalone="no"?>
<!DOCTYPE svg PUBLIC "-//W3C//DTD SVG 1.1//EN"
 "http://www.w3.org/Graphics/SVG/1.1/DTD/svg11.dtd">
<!-- Generated by graphviz version 4.0.0 (0)
 -->
<!-- Pages: 1 -->
<svg width="1233pt" height="574pt"
 viewBox="0.00 0.00 1232.50 573.84" xmlns="http://www.w3.org/2000/svg" xmlns:xlink="http://www.w3.org/1999/xlink">
<g id="graph0" class="graph" transform="scale(1 1) rotate(0) translate(4 569.84)">
<polygon fill="white" stroke="transparent" points="-4,4 -4,-569.84 1228.5,-569.84 1228.5,4 -4,4"/>
<g id="clust3" class="cluster">
<title>cluster7</title>
<path fill="none" stroke="black" d="M206.5,-332.91C206.5,-332.91 330.5,-332.91 330.5,-332.91 336.5,-332.91 342.5,-338.91 342.5,-344.91 342.5,-344.91 342.5,-412.91 342.5,-412.91 342.5,-418.91 336.5,-424.91 330.5,-424.91 330.5,-424.91 206.5,-424.91 206.5,-424.91 200.5,-424.91 194.5,-418.91 194.5,-412.91 194.5,-412.91 194.5,-344.91 194.5,-344.91 194.5,-338.91 200.5,-332.91 206.5,-332.91"/>
<text text-anchor="middle" x="331" y="-340.71" font-family="Times,serif" font-size="14.00">7</text>
</g>
<g id="clust4" class="cluster">
<title>cluster3</title>
<path fill="none" stroke="black" d="M439.5,-232.91C439.5,-232.91 523.5,-232.91 523.5,-232.91 529.5,-232.91 535.5,-238.91 535.5,-244.91 535.5,-244.91 535.5,-312.91 535.5,-312.91 535.5,-318.91 529.5,-324.91 523.5,-324.91 523.5,-324.91 439.5,-324.91 439.5,-324.91 433.5,-324.91 427.5,-318.91 427.5,-312.91 427.5,-312.91 427.5,-244.91 427.5,-244.91 427.5,-238.91 433.5,-232.91 439.5,-232.91"/>
<text text-anchor="middle" x="524" y="-240.71" font-family="Times,serif" font-size="14.00">3</text>
</g>
<g id="clust1" class="cluster">
<title>cluster28</title>
<path fill="none" stroke="black" d="M187.5,-443.88C187.5,-443.88 349.5,-443.88 349.5,-443.88 355.5,-443.88 361.5,-449.88 361.5,-455.88 361.5,-455.88 361.5,-545.84 361.5,-545.84 361.5,-551.84 355.5,-557.84 349.5,-557.84 349.5,-557.84 187.5,-557.84 187.5,-557.84 181.5,-557.84 175.5,-551.84 175.5,-545.84 175.5,-545.84 175.5,-455.88 175.5,-455.88 175.5,-449.88 181.5,-443.88 187.5,-443.88"/>
<text text-anchor="middle" x="346.5" y="-451.68" font-family="Times,serif" font-size="14.00">28</text>
</g>
<g id="clust2" class="cluster">
<title>cluster7 x 7</title>
<path fill="none" stroke="black" d="M50.5,-332.91C50.5,-332.91 174.5,-332.91 174.5,-332.91 180.5,-332.91 186.5,-338.91 186.5,-344.91 186.5,-344.91 186.5,-412.91 186.5,-412.91 186.5,-418.91 180.5,-424.91 174.5,-424.91 174.5,-424.91 50.5,-424.91 50.5,-424.91 44.5,-424.91 38.5,-418.91 38.5,-412.91 38.5,-412.91 38.5,-344.91 38.5,-344.91 38.5,-338.91 44.5,-332.91 50.5,-332.91"/>
<text text-anchor="middle" x="164.5" y="-340.71" font-family="Times,serif" font-size="14.00">7 x 7</text>
</g>
<g id="clust5" class="cluster">
<title>clustercancer_gene (3)</title>
<path fill="none" stroke="black" d="M475.5,-443.88C475.5,-443.88 555.5,-443.88 555.5,-443.88 561.5,-443.88 567.5,-449.88 567.5,-455.88 567.5,-455.88 567.5,-545.84 567.5,-545.84 567.5,-551.84 561.5,-557.84 555.5,-557.84 555.5,-557.84 475.5,-557.84 475.5,-557.84 469.5,-557.84 463.5,-551.84 463.5,-545.84 463.5,-545.84 463.5,-455.88 463.5,-455.88 463.5,-449.88 469.5,-443.88 475.5,-443.88"/>
<text text-anchor="middle" x="515.5" y="-451.68" font-family="Times,serif" font-size="14.00">cancer_gene (3)</text>
</g>
<g id="clust6" class="cluster">
<title>cluster7 x 103</title>
<path fill="none" stroke="black" d="M587.5,-443.88C587.5,-443.88 693.5,-443.88 693.5,-443.88 699.5,-443.88 705.5,-449.88 705.5,-455.88 705.5,-455.88 705.5,-545.84 705.5,-545.84 705.5,-551.84 699.5,-557.84 693.5,-557.84 693.5,-557.84 587.5,-557.84 587.5,-557.84 581.5,-557.84 575.5,-551.84 575.5,-545.84 575.5,-545.84 575.5,-455.88 575.5,-455.88 575.5,-449.88 581.5,-443.88 587.5,-443.88"/>
<text text-anchor="middle" x="676.5" y="-451.68" font-family="Times,serif" font-size="14.00">7 x 103</text>
</g>
<g id="clust7" class="cluster">
<title>clustergene (103)</title>
<path fill="none" stroke="black" d="M369.5,-332.91C369.5,-332.91 780.5,-332.91 780.5,-332.91 786.5,-332.91 792.5,-338.91 792.5,-344.91 792.5,-344.91 792.5,-412.91 792.5,-412.91 792.5,-418.91 786.5,-424.91 780.5,-424.91 780.5,-424.91 369.5,-424.91 369.5,-424.91 363.5,-424.91 357.5,-418.91 357.5,-412.91 357.5,-412.91 357.5,-344.91 357.5,-344.91 357.5,-338.91 363.5,-332.91 369.5,-332.91"/>
<text text-anchor="middle" x="755" y="-340.71" font-family="Times,serif" font-size="14.00">gene (103)</text>
</g>
<g id="clust9" class="cluster">
<title>clustersgrna (162)</title>
<path fill="none" stroke="black" d="M812.5,-232.91C812.5,-232.91 896.5,-232.91 896.5,-232.91 902.5,-232.91 908.5,-238.91 908.5,-244.91 908.5,-244.91 908.5,-423.88 908.5,-423.88 908.5,-429.88 902.5,-435.88 896.5,-435.88 896.5,-435.88 812.5,-435.88 812.5,-435.88 806.5,-435.88 800.5,-429.88 800.5,-423.88 800.5,-423.88 800.5,-244.91 800.5,-244.91 800.5,-238.91 806.5,-232.91 812.5,-232.91"/>
<text text-anchor="middle" x="869" y="-240.71" font-family="Times,serif" font-size="14.00">sgrna (162)</text>
</g>
<g id="clust10" class="cluster">
<title>cluster1296</title>
<path fill="none" stroke="black" d="M571.5,-8C571.5,-8 691.5,-8 691.5,-8 697.5,-8 703.5,-14 703.5,-20 703.5,-20 703.5,-209.93 703.5,-209.93 703.5,-215.93 697.5,-221.93 691.5,-221.93 691.5,-221.93 571.5,-221.93 571.5,-221.93 565.5,-221.93 559.5,-215.93 559.5,-209.93 559.5,-209.93 559.5,-20 559.5,-20 559.5,-14 565.5,-8 571.5,-8"/>
<text text-anchor="middle" x="681.5" y="-15.8" font-family="Times,serif" font-size="14.00">1296</text>
</g>
<g id="clust8" class="cluster">
<title>clustergene (103) x cancer_gene (3)</title>
<path fill="none" stroke="black" d="M1052.5,-332.91C1052.5,-332.91 1204.5,-332.91 1204.5,-332.91 1210.5,-332.91 1216.5,-338.91 1216.5,-344.91 1216.5,-344.91 1216.5,-412.91 1216.5,-412.91 1216.5,-418.91 1210.5,-424.91 1204.5,-424.91 1204.5,-424.91 1052.5,-424.91 1052.5,-424.91 1046.5,-424.91 1040.5,-418.91 1040.5,-412.91 1040.5,-412.91 1040.5,-344.91 1040.5,-344.91 1040.5,-338.91 1046.5,-332.91 1052.5,-332.91"/>
<text text-anchor="middle" x="1128.5" y="-340.71" font-family="Times,serif" font-size="14.00">gene (103) x cancer_gene (3)</text>
</g>
<!-- genes_chol_cov -->
<g id="node1" class="node">
<title>genes_chol_cov</title>
<ellipse fill="none" stroke="black" cx="268.5" cy="-512.36" rx="84.71" ry="37.45"/>
<text text-anchor="middle" x="268.5" y="-523.66" font-family="Times,serif" font-size="14.00">genes_chol_cov</text>
<text text-anchor="middle" x="268.5" y="-508.66" font-family="Times,serif" font-size="14.00">~</text>
<text text-anchor="middle" x="268.5" y="-493.66" font-family="Times,serif" font-size="14.00">_LKJCholeskyCov</text>
</g>
<!-- genes_chol_cov_corr -->
<g id="node2" class="node">
<title>genes_chol_cov_corr</title>
<polygon fill="none" stroke="black" points="178.5,-416.91 46.5,-416.91 46.5,-363.91 178.5,-363.91 178.5,-416.91"/>
<text text-anchor="middle" x="112.5" y="-401.71" font-family="Times,serif" font-size="14.00">genes_chol_cov_corr</text>
<text text-anchor="middle" x="112.5" y="-386.71" font-family="Times,serif" font-size="14.00">~</text>
<text text-anchor="middle" x="112.5" y="-371.71" font-family="Times,serif" font-size="14.00">Deterministic</text>
</g>
<!-- genes_chol_cov&#45;&gt;genes_chol_cov_corr -->
<g id="edge1" class="edge">
<title>genes_chol_cov&#45;&gt;genes_chol_cov_corr</title>
<path fill="none" stroke="black" d="M227.1,-479.53C204.43,-462.1 176.43,-440.56 153.78,-423.14"/>
<polygon fill="black" stroke="black" points="155.75,-420.25 145.69,-416.93 151.49,-425.8 155.75,-420.25"/>
</g>
<!-- genes_chol_cov_stds -->
<g id="node3" class="node">
<title>genes_chol_cov_stds</title>
<polygon fill="none" stroke="black" points="334,-416.91 203,-416.91 203,-363.91 334,-363.91 334,-416.91"/>
<text text-anchor="middle" x="268.5" y="-401.71" font-family="Times,serif" font-size="14.00">genes_chol_cov_stds</text>
<text text-anchor="middle" x="268.5" y="-386.71" font-family="Times,serif" font-size="14.00">~</text>
<text text-anchor="middle" x="268.5" y="-371.71" font-family="Times,serif" font-size="14.00">Deterministic</text>
</g>
<!-- genes_chol_cov&#45;&gt;genes_chol_cov_stds -->
<g id="edge2" class="edge">
<title>genes_chol_cov&#45;&gt;genes_chol_cov_stds</title>
<path fill="none" stroke="black" d="M268.5,-474.72C268.5,-459.75 268.5,-442.48 268.5,-427.56"/>
<polygon fill="black" stroke="black" points="272,-427.18 268.5,-417.18 265,-427.18 272,-427.18"/>
</g>
<!-- f -->
<g id="node17" class="node">
<title>f</title>
<polygon fill="none" stroke="black" points="675,-416.91 584,-416.91 584,-363.91 675,-363.91 675,-416.91"/>
<text text-anchor="middle" x="629.5" y="-401.71" font-family="Times,serif" font-size="14.00">f</text>
<text text-anchor="middle" x="629.5" y="-386.71" font-family="Times,serif" font-size="14.00">~</text>
<text text-anchor="middle" x="629.5" y="-371.71" font-family="Times,serif" font-size="14.00">Deterministic</text>
</g>
<!-- genes_chol_cov&#45;&gt;f -->
<g id="edge33" class="edge">
<title>genes_chol_cov&#45;&gt;f</title>
<path fill="none" stroke="black" d="M304.06,-478.25C320.56,-465 341.22,-451.18 362.5,-443.88 407.31,-428.53 531.22,-452.71 575.5,-435.88 583.16,-432.97 590.54,-428.5 597.25,-423.5"/>
<polygon fill="black" stroke="black" points="599.77,-425.96 605.36,-416.96 595.38,-420.51 599.77,-425.96"/>
</g>
<!-- b -->
<g id="node18" class="node">
<title>b</title>
<polygon fill="none" stroke="black" points="457,-416.91 366,-416.91 366,-363.91 457,-363.91 457,-416.91"/>
<text text-anchor="middle" x="411.5" y="-401.71" font-family="Times,serif" font-size="14.00">b</text>
<text text-anchor="middle" x="411.5" y="-386.71" font-family="Times,serif" font-size="14.00">~</text>
<text text-anchor="middle" x="411.5" y="-371.71" font-family="Times,serif" font-size="14.00">Deterministic</text>
</g>
<!-- genes_chol_cov&#45;&gt;b -->
<g id="edge19" class="edge">
<title>genes_chol_cov&#45;&gt;b</title>
<path fill="none" stroke="black" d="M307.2,-478.9C327.64,-461.75 352.66,-440.76 373.07,-423.65"/>
<polygon fill="black" stroke="black" points="375.51,-426.16 380.93,-417.05 371.02,-420.8 375.51,-426.16"/>
</g>
<!-- mu_a -->
<g id="node19" class="node">
<title>mu_a</title>
<polygon fill="none" stroke="black" points="784,-416.91 693,-416.91 693,-363.91 784,-363.91 784,-416.91"/>
<text text-anchor="middle" x="738.5" y="-401.71" font-family="Times,serif" font-size="14.00">mu_a</text>
<text text-anchor="middle" x="738.5" y="-386.71" font-family="Times,serif" font-size="14.00">~</text>
<text text-anchor="middle" x="738.5" y="-371.71" font-family="Times,serif" font-size="14.00">Deterministic</text>
</g>
<!-- genes_chol_cov&#45;&gt;mu_a -->
<g id="edge12" class="edge">
<title>genes_chol_cov&#45;&gt;mu_a</title>
<path fill="none" stroke="black" d="M304.02,-478.12C320.51,-464.85 341.17,-451.04 362.5,-443.88 396.43,-432.5 650.97,-448.39 684.5,-435.88 692.18,-433.02 699.57,-428.57 706.28,-423.58"/>
<polygon fill="black" stroke="black" points="708.8,-426.04 714.39,-417.04 704.41,-420.59 708.8,-426.04"/>
</g>
<!-- d -->
<g id="node20" class="node">
<title>d</title>
<polygon fill="none" stroke="black" points="566,-416.91 475,-416.91 475,-363.91 566,-363.91 566,-416.91"/>
<text text-anchor="middle" x="520.5" y="-401.71" font-family="Times,serif" font-size="14.00">d</text>
<text text-anchor="middle" x="520.5" y="-386.71" font-family="Times,serif" font-size="14.00">~</text>
<text text-anchor="middle" x="520.5" y="-371.71" font-family="Times,serif" font-size="14.00">Deterministic</text>
</g>
<!-- genes_chol_cov&#45;&gt;d -->
<g id="edge26" class="edge">
<title>genes_chol_cov&#45;&gt;d</title>
<path fill="none" stroke="black" d="M304.65,-478.29C321.1,-465.22 341.55,-451.52 362.5,-443.88 406.05,-428 423.5,-453.2 466.5,-435.88 474.03,-432.85 481.3,-428.38 487.94,-423.41"/>
<polygon fill="black" stroke="black" points="490.39,-425.93 495.99,-416.94 486,-420.48 490.39,-425.93"/>
</g>
<!-- h -->
<g id="node21" class="node">
<title>h</title>
<polygon fill="none" stroke="black" points="1141,-416.91 1050,-416.91 1050,-363.91 1141,-363.91 1141,-416.91"/>
<text text-anchor="middle" x="1095.5" y="-401.71" font-family="Times,serif" font-size="14.00">h</text>
<text text-anchor="middle" x="1095.5" y="-386.71" font-family="Times,serif" font-size="14.00">~</text>
<text text-anchor="middle" x="1095.5" y="-371.71" font-family="Times,serif" font-size="14.00">Deterministic</text>
</g>
<!-- genes_chol_cov&#45;&gt;h -->
<g id="edge40" class="edge">
<title>genes_chol_cov&#45;&gt;h</title>
<path fill="none" stroke="black" d="M303.98,-477.99C320.46,-464.69 341.12,-450.9 362.5,-443.88 398.34,-432.12 1006.07,-448.83 1041.5,-435.88 1049.2,-433.07 1056.59,-428.65 1063.31,-423.66"/>
<polygon fill="black" stroke="black" points="1065.83,-426.12 1071.42,-417.12 1061.44,-420.67 1065.83,-426.12"/>
</g>
<!-- sigma_d -->
<g id="node4" class="node">
<title>sigma_d</title>
<polygon fill="none" stroke="black" points="91,-316.91 0,-316.91 0,-263.91 91,-263.91 91,-316.91"/>
<text text-anchor="middle" x="45.5" y="-301.71" font-family="Times,serif" font-size="14.00">sigma_d</text>
<text text-anchor="middle" x="45.5" y="-286.71" font-family="Times,serif" font-size="14.00">~</text>
<text text-anchor="middle" x="45.5" y="-271.71" font-family="Times,serif" font-size="14.00">Deterministic</text>
</g>
<!-- genes_chol_cov_stds&#45;&gt;sigma_d -->
<g id="edge5" class="edge">
<title>genes_chol_cov_stds&#45;&gt;sigma_d</title>
<path fill="none" stroke="black" d="M241.05,-363.88C227,-352.36 208.98,-339.82 190.5,-332.91 152.89,-318.84 138.65,-337.46 100.5,-324.91 97.57,-323.94 94.63,-322.8 91.72,-321.52"/>
<polygon fill="black" stroke="black" points="93.08,-318.29 82.56,-317.05 90.01,-324.58 93.08,-318.29"/>
</g>
<!-- sigma_mu_a -->
<g id="node7" class="node">
<title>sigma_mu_a</title>
<polygon fill="none" stroke="black" points="200,-316.91 109,-316.91 109,-263.91 200,-263.91 200,-316.91"/>
<text text-anchor="middle" x="154.5" y="-301.71" font-family="Times,serif" font-size="14.00">sigma_mu_a</text>
<text text-anchor="middle" x="154.5" y="-286.71" font-family="Times,serif" font-size="14.00">~</text>
<text text-anchor="middle" x="154.5" y="-271.71" font-family="Times,serif" font-size="14.00">Deterministic</text>
</g>
<!-- genes_chol_cov_stds&#45;&gt;sigma_mu_a -->
<g id="edge3" class="edge">
<title>genes_chol_cov_stds&#45;&gt;sigma_mu_a</title>
<path fill="none" stroke="black" d="M238.55,-363.66C224.28,-351.39 207.07,-336.6 191.94,-323.59"/>
<polygon fill="black" stroke="black" points="194.12,-320.85 184.25,-316.98 189.55,-326.16 194.12,-320.85"/>
</g>
<!-- sigma_b -->
<g id="node11" class="node">
<title>sigma_b</title>
<polygon fill="none" stroke="black" points="309,-316.91 218,-316.91 218,-263.91 309,-263.91 309,-316.91"/>
<text text-anchor="middle" x="263.5" y="-301.71" font-family="Times,serif" font-size="14.00">sigma_b</text>
<text text-anchor="middle" x="263.5" y="-286.71" font-family="Times,serif" font-size="14.00">~</text>
<text text-anchor="middle" x="263.5" y="-271.71" font-family="Times,serif" font-size="14.00">Deterministic</text>
</g>
<!-- genes_chol_cov_stds&#45;&gt;sigma_b -->
<g id="edge4" class="edge">
<title>genes_chol_cov_stds&#45;&gt;sigma_b</title>
<path fill="none" stroke="black" d="M267.19,-363.66C266.62,-352.52 265.94,-339.29 265.33,-327.21"/>
<polygon fill="black" stroke="black" points="268.81,-326.79 264.8,-316.98 261.82,-327.15 268.81,-326.79"/>
</g>
<!-- sigma_f -->
<g id="node13" class="node">
<title>sigma_f</title>
<polygon fill="none" stroke="black" points="418,-316.91 327,-316.91 327,-263.91 418,-263.91 418,-316.91"/>
<text text-anchor="middle" x="372.5" y="-301.71" font-family="Times,serif" font-size="14.00">sigma_f</text>
<text text-anchor="middle" x="372.5" y="-286.71" font-family="Times,serif" font-size="14.00">~</text>
<text text-anchor="middle" x="372.5" y="-271.71" font-family="Times,serif" font-size="14.00">Deterministic</text>
</g>
<!-- genes_chol_cov_stds&#45;&gt;sigma_f -->
<g id="edge6" class="edge">
<title>genes_chol_cov_stds&#45;&gt;sigma_f</title>
<path fill="none" stroke="black" d="M295.82,-363.66C308.72,-351.5 324.26,-336.87 337.96,-323.95"/>
<polygon fill="black" stroke="black" points="340.48,-326.39 345.36,-316.98 335.68,-321.29 340.48,-326.39"/>
</g>
<!-- sigma_h -->
<g id="node14" class="node">
<title>sigma_h</title>
<polygon fill="none" stroke="black" points="527,-316.91 436,-316.91 436,-263.91 527,-263.91 527,-316.91"/>
<text text-anchor="middle" x="481.5" y="-301.71" font-family="Times,serif" font-size="14.00">sigma_h</text>
<text text-anchor="middle" x="481.5" y="-286.71" font-family="Times,serif" font-size="14.00">~</text>
<text text-anchor="middle" x="481.5" y="-271.71" font-family="Times,serif" font-size="14.00">Deterministic</text>
</g>
<!-- genes_chol_cov_stds&#45;&gt;sigma_h -->
<g id="edge7" class="edge">
<title>genes_chol_cov_stds&#45;&gt;sigma_h</title>
<path fill="none" stroke="black" d="M299.22,-363.76C314.57,-352.37 334,-339.96 353.5,-332.91 384.61,-321.65 396.22,-335.67 427.5,-324.91 430.38,-323.92 433.27,-322.75 436.13,-321.45"/>
<polygon fill="black" stroke="black" points="437.74,-324.56 445.12,-316.95 434.61,-318.3 437.74,-324.56"/>
</g>
<!-- mu_mu_a -->
<g id="node5" class="node">
<title>mu_mu_a</title>
<ellipse fill="none" stroke="black" cx="765.5" cy="-512.36" rx="50.82" ry="37.45"/>
<text text-anchor="middle" x="765.5" y="-523.66" font-family="Times,serif" font-size="14.00">mu_mu_a</text>
<text text-anchor="middle" x="765.5" y="-508.66" font-family="Times,serif" font-size="14.00">~</text>
<text text-anchor="middle" x="765.5" y="-493.66" font-family="Times,serif" font-size="14.00">Normal</text>
</g>
<!-- mu_mu_a&#45;&gt;f -->
<g id="edge29" class="edge">
<title>mu_mu_a&#45;&gt;f</title>
<path fill="none" stroke="black" d="M744.13,-478.31C734.77,-466.03 722.87,-452.91 709.5,-443.88 699.83,-437.36 694.77,-441.42 684.5,-435.88 677.96,-432.36 671.44,-428.01 665.3,-423.43"/>
<polygon fill="black" stroke="black" points="667.22,-420.49 657.18,-417.1 662.91,-426.01 667.22,-420.49"/>
</g>
<!-- mu_mu_a&#45;&gt;b -->
<g id="edge15" class="edge">
<title>mu_mu_a&#45;&gt;b</title>
<path fill="none" stroke="black" d="M746.05,-477.39C736.77,-464.5 724.4,-451.18 709.5,-443.88 685.24,-432 491.82,-445.31 466.5,-435.88 458.73,-432.99 451.24,-428.53 444.41,-423.53"/>
<polygon fill="black" stroke="black" points="446.16,-420.46 436.15,-416.99 441.82,-425.94 446.16,-420.46"/>
</g>
<!-- mu_mu_a&#45;&gt;mu_a -->
<g id="edge8" class="edge">
<title>mu_mu_a&#45;&gt;mu_a</title>
<path fill="none" stroke="black" d="M757.33,-475.04C753.9,-459.81 749.92,-442.14 746.51,-426.98"/>
<polygon fill="black" stroke="black" points="749.86,-425.93 744.25,-416.95 743.03,-427.47 749.86,-425.93"/>
</g>
<!-- mu_mu_a&#45;&gt;d -->
<g id="edge22" class="edge">
<title>mu_mu_a&#45;&gt;d</title>
<path fill="none" stroke="black" d="M745.95,-477.58C736.65,-464.73 724.3,-451.38 709.5,-443.88 682.89,-430.4 603.31,-446.67 575.5,-435.88 567.85,-432.92 560.45,-428.47 553.69,-423.52"/>
<polygon fill="black" stroke="black" points="555.51,-420.5 545.49,-417.05 551.17,-425.99 555.51,-420.5"/>
</g>
<!-- mu_mu_a&#45;&gt;h -->
<g id="edge36" class="edge">
<title>mu_mu_a&#45;&gt;h</title>
<path fill="none" stroke="black" d="M786.29,-478.08C796.39,-464.97 809.76,-451.3 825.5,-443.88 868.95,-423.4 996.6,-452.94 1041.5,-435.88 1049.16,-432.97 1056.54,-428.5 1063.25,-423.5"/>
<polygon fill="black" stroke="black" points="1065.77,-425.96 1071.36,-416.96 1061.38,-420.51 1065.77,-425.96"/>
</g>
<!-- sigma_a -->
<g id="node6" class="node">
<title>sigma_a</title>
<ellipse fill="none" stroke="black" cx="974.5" cy="-390.41" rx="57.97" ry="37.45"/>
<text text-anchor="middle" x="974.5" y="-401.71" font-family="Times,serif" font-size="14.00">sigma_a</text>
<text text-anchor="middle" x="974.5" y="-386.71" font-family="Times,serif" font-size="14.00">~</text>
<text text-anchor="middle" x="974.5" y="-371.71" font-family="Times,serif" font-size="14.00">Exponential</text>
</g>
<!-- a -->
<g id="node23" class="node">
<title>a</title>
<polygon fill="none" stroke="black" points="900,-316.91 809,-316.91 809,-263.91 900,-263.91 900,-316.91"/>
<text text-anchor="middle" x="854.5" y="-301.71" font-family="Times,serif" font-size="14.00">a</text>
<text text-anchor="middle" x="854.5" y="-286.71" font-family="Times,serif" font-size="14.00">~</text>
<text text-anchor="middle" x="854.5" y="-271.71" font-family="Times,serif" font-size="14.00">Deterministic</text>
</g>
<!-- sigma_a&#45;&gt;a -->
<g id="edge43" class="edge">
<title>sigma_a&#45;&gt;a</title>
<path fill="none" stroke="black" d="M942.64,-359.05C933.14,-350.37 922.58,-341.06 912.5,-332.91 908.51,-329.68 904.29,-326.41 900.03,-323.2"/>
<polygon fill="black" stroke="black" points="901.93,-320.25 891.81,-317.11 897.76,-325.88 901.93,-320.25"/>
</g>
<!-- mu_b -->
<g id="node8" class="node">
<title>mu_b</title>
<ellipse fill="none" stroke="black" cx="876.5" cy="-512.36" rx="41.94" ry="37.45"/>
<text text-anchor="middle" x="876.5" y="-523.66" font-family="Times,serif" font-size="14.00">mu_b</text>
<text text-anchor="middle" x="876.5" y="-508.66" font-family="Times,serif" font-size="14.00">~</text>
<text text-anchor="middle" x="876.5" y="-493.66" font-family="Times,serif" font-size="14.00">Normal</text>
</g>
<!-- mu_b&#45;&gt;f -->
<g id="edge31" class="edge">
<title>mu_b&#45;&gt;f</title>
<path fill="none" stroke="black" d="M859.56,-477.97C851.17,-465.01 839.75,-451.49 825.5,-443.88 797.81,-429.11 713.78,-447.18 684.5,-435.88 676.85,-432.93 669.44,-428.49 662.68,-423.54"/>
<polygon fill="black" stroke="black" points="664.5,-420.52 654.49,-417.07 660.17,-426.01 664.5,-420.52"/>
</g>
<!-- mu_b&#45;&gt;b -->
<g id="edge17" class="edge">
<title>mu_b&#45;&gt;b</title>
<path fill="none" stroke="black" d="M859.69,-477.73C851.32,-464.73 839.88,-451.24 825.5,-443.88 789.98,-425.71 503.96,-449.61 466.5,-435.88 458.72,-433.03 451.21,-428.59 444.39,-423.6"/>
<polygon fill="black" stroke="black" points="446.14,-420.52 436.13,-417.06 441.79,-426.01 446.14,-420.52"/>
</g>
<!-- mu_b&#45;&gt;mu_a -->
<g id="edge10" class="edge">
<title>mu_b&#45;&gt;mu_a</title>
<path fill="none" stroke="black" d="M857.99,-478.36C849.54,-465.94 838.5,-452.71 825.5,-443.88 814.44,-436.37 808.47,-441.84 796.5,-435.88 789.39,-432.35 782.29,-427.88 775.62,-423.15"/>
<polygon fill="black" stroke="black" points="777.55,-420.22 767.44,-417.07 773.38,-425.84 777.55,-420.22"/>
</g>
<!-- mu_b&#45;&gt;d -->
<g id="edge24" class="edge">
<title>mu_b&#45;&gt;d</title>
<path fill="none" stroke="black" d="M859.65,-477.8C851.28,-464.81 839.84,-451.31 825.5,-443.88 800.82,-431.1 601.55,-445.57 575.5,-435.88 567.73,-432.99 560.23,-428.54 553.41,-423.54"/>
<polygon fill="black" stroke="black" points="555.16,-420.46 545.15,-417 550.81,-425.95 555.16,-420.46"/>
</g>
<!-- mu_b&#45;&gt;h -->
<g id="edge38" class="edge">
<title>mu_b&#45;&gt;h</title>
<path fill="none" stroke="black" d="M893.24,-477.72C901.43,-464.89 912.56,-451.52 926.5,-443.88 948.97,-431.57 1017.7,-445.37 1041.5,-435.88 1049.04,-432.88 1056.32,-428.42 1062.96,-423.46"/>
<polygon fill="black" stroke="black" points="1065.41,-425.98 1071.01,-416.99 1061.02,-420.53 1065.41,-425.98"/>
</g>
<!-- mu_f -->
<g id="node9" class="node">
<title>mu_f</title>
<ellipse fill="none" stroke="black" cx="977.5" cy="-512.36" rx="41.94" ry="37.45"/>
<text text-anchor="middle" x="977.5" y="-523.66" font-family="Times,serif" font-size="14.00">mu_f</text>
<text text-anchor="middle" x="977.5" y="-508.66" font-family="Times,serif" font-size="14.00">~</text>
<text text-anchor="middle" x="977.5" y="-493.66" font-family="Times,serif" font-size="14.00">Normal</text>
</g>
<!-- mu_f&#45;&gt;f -->
<g id="edge32" class="edge">
<title>mu_f&#45;&gt;f</title>
<path fill="none" stroke="black" d="M961.12,-477.82C952.93,-464.84 941.7,-451.33 927.5,-443.88 903.58,-431.34 709.82,-445.31 684.5,-435.88 676.73,-432.99 669.24,-428.53 662.41,-423.53"/>
<polygon fill="black" stroke="black" points="664.16,-420.46 654.15,-416.99 659.82,-425.94 664.16,-420.46"/>
</g>
<!-- mu_f&#45;&gt;b -->
<g id="edge18" class="edge">
<title>mu_f&#45;&gt;b</title>
<path fill="none" stroke="black" d="M961.18,-477.71C953,-464.71 941.76,-451.22 927.5,-443.88 904.72,-432.16 490.57,-444.63 466.5,-435.88 458.71,-433.05 451.2,-428.62 444.37,-423.63"/>
<polygon fill="black" stroke="black" points="446.13,-420.55 436.11,-417.09 441.78,-426.04 446.13,-420.55"/>
</g>
<!-- mu_f&#45;&gt;mu_a -->
<g id="edge11" class="edge">
<title>mu_f&#45;&gt;mu_a</title>
<path fill="none" stroke="black" d="M960.79,-477.66C952.61,-464.82 941.47,-451.46 927.5,-443.88 901.86,-429.98 823.82,-446.09 796.5,-435.88 788.38,-432.85 780.47,-428.27 773.23,-423.19"/>
<polygon fill="black" stroke="black" points="775.16,-420.26 765.07,-417.05 770.96,-425.86 775.16,-420.26"/>
</g>
<!-- mu_f&#45;&gt;d -->
<g id="edge25" class="edge">
<title>mu_f&#45;&gt;d</title>
<path fill="none" stroke="black" d="M961.16,-477.75C952.98,-464.76 941.74,-451.26 927.5,-443.88 892.76,-425.89 612.23,-449.35 575.5,-435.88 567.72,-433.03 560.22,-428.59 553.39,-423.6"/>
<polygon fill="black" stroke="black" points="555.14,-420.52 545.13,-417.06 550.79,-426.01 555.14,-420.52"/>
</g>
<!-- mu_f&#45;&gt;h -->
<g id="edge39" class="edge">
<title>mu_f&#45;&gt;h</title>
<path fill="none" stroke="black" d="M1004.57,-483.84C1021.99,-466.13 1044.73,-443.02 1063.1,-424.34"/>
<polygon fill="black" stroke="black" points="1065.65,-426.74 1070.17,-417.16 1060.66,-421.83 1065.65,-426.74"/>
</g>
<!-- alpha -->
<g id="node10" class="node">
<title>alpha</title>
<ellipse fill="none" stroke="black" cx="754.5" cy="-187.43" rx="43.27" ry="37.45"/>
<text text-anchor="middle" x="754.5" y="-198.73" font-family="Times,serif" font-size="14.00">alpha</text>
<text text-anchor="middle" x="754.5" y="-183.73" font-family="Times,serif" font-size="14.00">~</text>
<text text-anchor="middle" x="754.5" y="-168.73" font-family="Times,serif" font-size="14.00">Gamma</text>
</g>
<!-- ct_final -->
<g id="node24" class="node">
<title>ct_final</title>
<ellipse fill="lightgrey" stroke="black" cx="631.5" cy="-76.48" rx="63.78" ry="37.45"/>
<text text-anchor="middle" x="631.5" y="-87.78" font-family="Times,serif" font-size="14.00">ct_final</text>
<text text-anchor="middle" x="631.5" y="-72.78" font-family="Times,serif" font-size="14.00">~</text>
<text text-anchor="middle" x="631.5" y="-57.78" font-family="Times,serif" font-size="14.00">NegBinomial</text>
</g>
<!-- alpha&#45;&gt;ct_final -->
<g id="edge52" class="edge">
<title>alpha&#45;&gt;ct_final</title>
<path fill="none" stroke="black" d="M724.73,-160.06C709.43,-146.51 690.54,-129.78 673.77,-114.92"/>
<polygon fill="black" stroke="black" points="676.04,-112.25 666.23,-108.24 671.4,-117.49 676.04,-112.25"/>
</g>
<!-- mu_d -->
<g id="node12" class="node">
<title>mu_d</title>
<ellipse fill="none" stroke="black" cx="413.5" cy="-512.36" rx="41.94" ry="37.45"/>
<text text-anchor="middle" x="413.5" y="-523.66" font-family="Times,serif" font-size="14.00">mu_d</text>
<text text-anchor="middle" x="413.5" y="-508.66" font-family="Times,serif" font-size="14.00">~</text>
<text text-anchor="middle" x="413.5" y="-493.66" font-family="Times,serif" font-size="14.00">Normal</text>
</g>
<!-- mu_d&#45;&gt;f -->
<g id="edge30" class="edge">
<title>mu_d&#45;&gt;f</title>
<path fill="none" stroke="black" d="M428.73,-477.06C436.14,-464.46 446.34,-451.43 459.5,-443.88 481.92,-431.03 551.49,-445.44 575.5,-435.88 583.04,-432.88 590.32,-428.42 596.96,-423.46"/>
<polygon fill="black" stroke="black" points="599.41,-425.98 605.01,-416.99 595.02,-420.53 599.41,-425.98"/>
</g>
<!-- mu_d&#45;&gt;b -->
<g id="edge16" class="edge">
<title>mu_d&#45;&gt;b</title>
<path fill="none" stroke="black" d="M412.89,-474.72C412.64,-459.75 412.35,-442.48 412.1,-427.56"/>
<polygon fill="black" stroke="black" points="415.6,-427.12 411.93,-417.18 408.6,-427.24 415.6,-427.12"/>
</g>
<!-- mu_d&#45;&gt;mu_a -->
<g id="edge9" class="edge">
<title>mu_d&#45;&gt;mu_a</title>
<path fill="none" stroke="black" d="M428.4,-477.19C435.81,-464.44 446.09,-451.28 459.5,-443.88 481.41,-431.8 661.11,-444.75 684.5,-435.88 692.17,-432.98 699.54,-428.51 706.25,-423.51"/>
<polygon fill="black" stroke="black" points="708.78,-425.97 714.36,-416.97 704.38,-420.52 708.78,-425.97"/>
</g>
<!-- mu_d&#45;&gt;d -->
<g id="edge23" class="edge">
<title>mu_d&#45;&gt;d</title>
<path fill="none" stroke="black" d="M432.95,-479.19C440.6,-467.57 449.86,-454.67 459.5,-443.88 465.65,-437 472.69,-430.17 479.76,-423.83"/>
<polygon fill="black" stroke="black" points="482.16,-426.38 487.39,-417.16 477.55,-421.11 482.16,-426.38"/>
</g>
<!-- mu_d&#45;&gt;h -->
<g id="edge37" class="edge">
<title>mu_d&#45;&gt;h</title>
<path fill="none" stroke="black" d="M428.32,-477.05C435.72,-464.27 446.01,-451.13 459.5,-443.88 487.98,-428.58 1011.14,-447.01 1041.5,-435.88 1049.2,-433.06 1056.59,-428.64 1063.3,-423.65"/>
<polygon fill="black" stroke="black" points="1065.83,-426.11 1071.41,-417.11 1061.43,-420.66 1065.83,-426.11"/>
</g>
<!-- mu_h -->
<g id="node15" class="node">
<title>mu_h</title>
<ellipse fill="none" stroke="black" cx="517.5" cy="-512.36" rx="41.94" ry="37.45"/>
<text text-anchor="middle" x="517.5" y="-523.66" font-family="Times,serif" font-size="14.00">mu_h</text>
<text text-anchor="middle" x="517.5" y="-508.66" font-family="Times,serif" font-size="14.00">~</text>
<text text-anchor="middle" x="517.5" y="-493.66" font-family="Times,serif" font-size="14.00">Normal</text>
</g>
<!-- mu_h&#45;&gt;f -->
<g id="edge34" class="edge">
<title>mu_h&#45;&gt;f</title>
<path fill="none" stroke="black" d="M540.43,-480.6C549.68,-468.77 560.7,-455.36 571.5,-443.88 577.86,-437.13 584.95,-430.25 591.93,-423.78"/>
<polygon fill="black" stroke="black" points="594.39,-426.27 599.43,-416.95 589.68,-421.1 594.39,-426.27"/>
</g>
<!-- mu_h&#45;&gt;b -->
<g id="edge20" class="edge">
<title>mu_h&#45;&gt;b</title>
<path fill="none" stroke="black" d="M494.8,-480.81C485.69,-469.01 474.91,-455.56 464.5,-443.88 458.68,-437.35 452.24,-430.61 445.91,-424.23"/>
<polygon fill="black" stroke="black" points="448.14,-421.51 438.58,-416.94 443.2,-426.47 448.14,-421.51"/>
</g>
<!-- mu_h&#45;&gt;mu_a -->
<g id="edge13" class="edge">
<title>mu_h&#45;&gt;mu_a</title>
<path fill="none" stroke="black" d="M535.65,-478.39C544.64,-465.34 556.75,-451.62 571.5,-443.88 593.79,-432.19 661.12,-445.22 684.5,-435.88 692.03,-432.88 699.31,-428.41 705.96,-423.45"/>
<polygon fill="black" stroke="black" points="708.41,-425.97 714.01,-416.98 704.02,-420.52 708.41,-425.97"/>
</g>
<!-- mu_h&#45;&gt;d -->
<g id="edge27" class="edge">
<title>mu_h&#45;&gt;d</title>
<path fill="none" stroke="black" d="M518.42,-474.72C518.79,-459.75 519.22,-442.48 519.6,-427.56"/>
<polygon fill="black" stroke="black" points="523.1,-427.27 519.86,-417.18 516.11,-427.09 523.1,-427.27"/>
</g>
<!-- mu_h&#45;&gt;h -->
<g id="edge41" class="edge">
<title>mu_h&#45;&gt;h</title>
<path fill="none" stroke="black" d="M535.22,-478.36C544.19,-465.13 556.42,-451.29 571.5,-443.88 594.94,-432.37 1017,-444.91 1041.5,-435.88 1049.19,-433.05 1056.58,-428.62 1063.3,-423.63"/>
<polygon fill="black" stroke="black" points="1065.82,-426.09 1071.41,-417.09 1061.43,-420.64 1065.82,-426.09"/>
</g>
<!-- delta_genes -->
<g id="node16" class="node">
<title>delta_genes</title>
<ellipse fill="none" stroke="black" cx="640.5" cy="-512.36" rx="56.64" ry="37.45"/>
<text text-anchor="middle" x="640.5" y="-523.66" font-family="Times,serif" font-size="14.00">delta_genes</text>
<text text-anchor="middle" x="640.5" y="-508.66" font-family="Times,serif" font-size="14.00">~</text>
<text text-anchor="middle" x="640.5" y="-493.66" font-family="Times,serif" font-size="14.00">Normal</text>
</g>
<!-- delta_genes&#45;&gt;f -->
<g id="edge35" class="edge">
<title>delta_genes&#45;&gt;f</title>
<path fill="none" stroke="black" d="M637.14,-474.72C635.77,-459.75 634.18,-442.48 632.82,-427.56"/>
<polygon fill="black" stroke="black" points="636.26,-426.82 631.86,-417.18 629.29,-427.46 636.26,-426.82"/>
</g>
<!-- delta_genes&#45;&gt;b -->
<g id="edge21" class="edge">
<title>delta_genes&#45;&gt;b</title>
<path fill="none" stroke="black" d="M615.47,-478.32C603.67,-465.26 588.44,-451.55 571.5,-443.88 528.86,-424.58 510,-453.16 466.5,-435.88 458.88,-432.86 451.49,-428.38 444.73,-423.42"/>
<polygon fill="black" stroke="black" points="446.55,-420.4 436.53,-416.95 442.21,-425.89 446.55,-420.4"/>
</g>
<!-- delta_genes&#45;&gt;mu_a -->
<g id="edge14" class="edge">
<title>delta_genes&#45;&gt;mu_a</title>
<path fill="none" stroke="black" d="M667.02,-478.9C680.66,-462.2 697.27,-441.88 711.04,-425.02"/>
<polygon fill="black" stroke="black" points="713.93,-427.01 717.55,-417.05 708.51,-422.58 713.93,-427.01"/>
</g>
<!-- delta_genes&#45;&gt;d -->
<g id="edge28" class="edge">
<title>delta_genes&#45;&gt;d</title>
<path fill="none" stroke="black" d="M609.91,-480.78C592.65,-463.53 571.09,-441.97 553.46,-424.35"/>
<polygon fill="black" stroke="black" points="555.71,-421.66 546.17,-417.06 550.77,-426.61 555.71,-421.66"/>
</g>
<!-- delta_genes&#45;&gt;h -->
<g id="edge42" class="edge">
<title>delta_genes&#45;&gt;h</title>
<path fill="none" stroke="black" d="M663.53,-477.93C674.55,-464.8 688.97,-451.15 705.5,-443.88 739.69,-428.86 1006.5,-448.91 1041.5,-435.88 1049.18,-433.02 1056.57,-428.58 1063.28,-423.58"/>
<polygon fill="black" stroke="black" points="1065.8,-426.05 1071.39,-417.04 1061.41,-420.6 1065.8,-426.05"/>
</g>
<!-- eta -->
<g id="node25" class="node">
<title>eta</title>
<polygon fill="none" stroke="black" points="677,-213.93 586,-213.93 586,-160.93 677,-160.93 677,-213.93"/>
<text text-anchor="middle" x="631.5" y="-198.73" font-family="Times,serif" font-size="14.00">eta</text>
<text text-anchor="middle" x="631.5" y="-183.73" font-family="Times,serif" font-size="14.00">~</text>
<text text-anchor="middle" x="631.5" y="-168.73" font-family="Times,serif" font-size="14.00">Deterministic</text>
</g>
<!-- f&#45;&gt;eta -->
<g id="edge46" class="edge">
<title>f&#45;&gt;eta</title>
<path fill="none" stroke="black" d="M629.76,-363.54C630.11,-328.12 630.74,-264.35 631.14,-224.32"/>
<polygon fill="black" stroke="black" points="634.64,-224.23 631.24,-214.19 627.64,-224.16 634.64,-224.23"/>
</g>
<!-- b&#45;&gt;eta -->
<g id="edge48" class="edge">
<title>b&#45;&gt;eta</title>
<path fill="none" stroke="black" d="M429.81,-363.74C439.38,-352.34 452.11,-339.93 466.5,-332.91 481.17,-325.75 526.83,-335.2 539.5,-324.91 572.88,-297.78 544.1,-267.61 569.5,-232.91 572.6,-228.67 576.22,-224.68 580.14,-220.97"/>
<polygon fill="black" stroke="black" points="582.71,-223.36 587.95,-214.16 578.11,-218.09 582.71,-223.36"/>
</g>
<!-- mu_a&#45;&gt;a -->
<g id="edge45" class="edge">
<title>mu_a&#45;&gt;a</title>
<path fill="none" stroke="black" d="M763.13,-363.79C773.16,-353.8 785.07,-342.47 796.5,-332.91 800.44,-329.61 804.62,-326.3 808.86,-323.06"/>
<polygon fill="black" stroke="black" points="811.14,-325.73 817.05,-316.94 806.95,-320.12 811.14,-325.73"/>
</g>
<!-- d&#45;&gt;eta -->
<g id="edge50" class="edge">
<title>d&#45;&gt;eta</title>
<path fill="none" stroke="black" d="M542.15,-363.67C551.23,-352.22 561.5,-338.31 569.5,-324.91 589.12,-292.02 606.67,-251.85 618.05,-223.63"/>
<polygon fill="black" stroke="black" points="621.36,-224.77 621.81,-214.18 614.86,-222.18 621.36,-224.77"/>
</g>
<!-- h&#45;&gt;eta -->
<g id="edge47" class="edge">
<title>h&#45;&gt;eta</title>
<path fill="none" stroke="black" d="M1075.89,-363.64C1045.65,-326.29 983.61,-258.76 912.5,-232.91 868.61,-216.95 747.67,-236.75 702.5,-224.91 696.02,-223.21 689.45,-220.85 683.06,-218.14"/>
<polygon fill="black" stroke="black" points="684.4,-214.91 673.85,-213.95 681.51,-221.28 684.4,-214.91"/>
</g>
<!-- delta_a -->
<g id="node22" class="node">
<title>delta_a</title>
<ellipse fill="none" stroke="black" cx="854.5" cy="-390.41" rx="41.94" ry="37.45"/>
<text text-anchor="middle" x="854.5" y="-401.71" font-family="Times,serif" font-size="14.00">delta_a</text>
<text text-anchor="middle" x="854.5" y="-386.71" font-family="Times,serif" font-size="14.00">~</text>
<text text-anchor="middle" x="854.5" y="-371.71" font-family="Times,serif" font-size="14.00">Normal</text>
</g>
<!-- delta_a&#45;&gt;a -->
<g id="edge44" class="edge">
<title>delta_a&#45;&gt;a</title>
<path fill="none" stroke="black" d="M854.5,-352.92C854.5,-344.5 854.5,-335.55 854.5,-327.16"/>
<polygon fill="black" stroke="black" points="858,-326.92 854.5,-316.92 851,-326.92 858,-326.92"/>
</g>
<!-- a&#45;&gt;eta -->
<g id="edge49" class="edge">
<title>a&#45;&gt;eta</title>
<path fill="none" stroke="black" d="M808.89,-271.07C778.5,-258.61 737.81,-241.44 702.5,-224.91 697.19,-222.42 691.7,-219.76 686.23,-217.05"/>
<polygon fill="black" stroke="black" points="687.6,-213.82 677.09,-212.47 684.46,-220.08 687.6,-213.82"/>
</g>
<!-- eta&#45;&gt;ct_final -->
<g id="edge51" class="edge">
<title>eta&#45;&gt;ct_final</title>
<path fill="none" stroke="black" d="M631.5,-160.89C631.5,-149.98 631.5,-136.89 631.5,-124.35"/>
<polygon fill="black" stroke="black" points="635,-124 631.5,-114 628,-124 635,-124"/>
</g>
</g>
</svg>
