<?xml version="1.0" encoding="UTF-8" standalone="no"?>
<!DOCTYPE svg PUBLIC "-//W3C//DTD SVG 1.1//EN"
 "http://www.w3.org/Graphics/SVG/1.1/DTD/svg11.dtd">
<!-- Generated by graphviz version 5.0.0 (20220707.2338)
 -->
<!-- Pages: 1 -->
<svg width="1206pt" height="760pt"
 viewBox="0.00 0.00 1206.00 759.84" xmlns="http://www.w3.org/2000/svg" xmlns:xlink="http://www.w3.org/1999/xlink">
<g id="graph0" class="graph" transform="scale(1 1) rotate(0) translate(4 755.84)">
<polygon fill="white" stroke="transparent" points="-4,4 -4,-755.84 1202,-755.84 1202,4 -4,4"/>
<g id="clust1" class="cluster">
<title>cluster28</title>
<path fill="none" stroke="black" d="M294,-629.88C294,-629.88 458,-629.88 458,-629.88 464,-629.88 470,-635.88 470,-641.88 470,-641.88 470,-731.84 470,-731.84 470,-737.84 464,-743.84 458,-743.84 458,-743.84 294,-743.84 294,-743.84 288,-743.84 282,-737.84 282,-731.84 282,-731.84 282,-641.88 282,-641.88 282,-635.88 288,-629.88 294,-629.88"/>
<text text-anchor="middle" x="455" y="-637.68" font-family="Times,serif" font-size="14.00">28</text>
</g>
<g id="clust2" class="cluster">
<title>cluster7 x 7</title>
<path fill="none" stroke="black" d="M53,-518.91C53,-518.91 179,-518.91 179,-518.91 185,-518.91 191,-524.91 191,-530.91 191,-530.91 191,-598.91 191,-598.91 191,-604.91 185,-610.91 179,-610.91 179,-610.91 53,-610.91 53,-610.91 47,-610.91 41,-604.91 41,-598.91 41,-598.91 41,-530.91 41,-530.91 41,-524.91 47,-518.91 53,-518.91"/>
<text text-anchor="middle" x="169" y="-526.71" font-family="Times,serif" font-size="14.00">7 x 7</text>
</g>
<g id="clust3" class="cluster">
<title>cluster7</title>
<path fill="none" stroke="black" d="M211,-518.91C211,-518.91 335,-518.91 335,-518.91 341,-518.91 347,-524.91 347,-530.91 347,-530.91 347,-598.91 347,-598.91 347,-604.91 341,-610.91 335,-610.91 335,-610.91 211,-610.91 211,-610.91 205,-610.91 199,-604.91 199,-598.91 199,-598.91 199,-530.91 199,-530.91 199,-524.91 205,-518.91 211,-518.91"/>
<text text-anchor="middle" x="335.5" y="-526.71" font-family="Times,serif" font-size="14.00">7</text>
</g>
<g id="clust4" class="cluster">
<title>clustercancer_gene (3)</title>
<path fill="none" stroke="black" d="M444,-418.91C444,-418.91 528,-418.91 528,-418.91 534,-418.91 540,-424.91 540,-430.91 540,-430.91 540,-498.91 540,-498.91 540,-504.91 534,-510.91 528,-510.91 528,-510.91 444,-510.91 444,-510.91 438,-510.91 432,-504.91 432,-498.91 432,-498.91 432,-430.91 432,-430.91 432,-424.91 438,-418.91 444,-418.91"/>
<text text-anchor="middle" x="488" y="-426.71" font-family="Times,serif" font-size="14.00">cancer_gene (3)</text>
</g>
<g id="clust5" class="cluster">
<title>cluster7 x 103</title>
<path fill="none" stroke="black" d="M686,-629.88C686,-629.88 792,-629.88 792,-629.88 798,-629.88 804,-635.88 804,-641.88 804,-641.88 804,-731.84 804,-731.84 804,-737.84 798,-743.84 792,-743.84 792,-743.84 686,-743.84 686,-743.84 680,-743.84 674,-737.84 674,-731.84 674,-731.84 674,-641.88 674,-641.88 674,-635.88 680,-629.88 686,-629.88"/>
<text text-anchor="middle" x="775" y="-637.68" font-family="Times,serif" font-size="14.00">7 x 103</text>
</g>
<g id="clust6" class="cluster">
<title>clustergene (103)</title>
<path fill="none" stroke="black" d="M367,-518.91C367,-518.91 781,-518.91 781,-518.91 787,-518.91 793,-524.91 793,-530.91 793,-530.91 793,-598.91 793,-598.91 793,-604.91 787,-610.91 781,-610.91 781,-610.91 367,-610.91 367,-610.91 361,-610.91 355,-604.91 355,-598.91 355,-598.91 355,-530.91 355,-530.91 355,-524.91 361,-518.91 367,-518.91"/>
<text text-anchor="middle" x="755.5" y="-526.71" font-family="Times,serif" font-size="14.00">gene (103)</text>
</g>
<g id="clust7" class="cluster">
<title>clustergene (103) x cancer_gene (3)</title>
<path fill="none" stroke="black" d="M1026,-518.91C1026,-518.91 1178,-518.91 1178,-518.91 1184,-518.91 1190,-524.91 1190,-530.91 1190,-530.91 1190,-598.91 1190,-598.91 1190,-604.91 1184,-610.91 1178,-610.91 1178,-610.91 1026,-610.91 1026,-610.91 1020,-610.91 1014,-604.91 1014,-598.91 1014,-598.91 1014,-530.91 1014,-530.91 1014,-524.91 1020,-518.91 1026,-518.91"/>
<text text-anchor="middle" x="1102" y="-526.71" font-family="Times,serif" font-size="14.00">gene (103) x cancer_gene (3)</text>
</g>
<g id="clust8" class="cluster">
<title>clustersgrna (162)</title>
<path fill="none" stroke="black" d="M813,-418.91C813,-418.91 897,-418.91 897,-418.91 903,-418.91 909,-424.91 909,-430.91 909,-430.91 909,-609.88 909,-609.88 909,-615.88 903,-621.88 897,-621.88 897,-621.88 813,-621.88 813,-621.88 807,-621.88 801,-615.88 801,-609.88 801,-609.88 801,-430.91 801,-430.91 801,-424.91 807,-418.91 813,-418.91"/>
<text text-anchor="middle" x="869" y="-426.71" font-family="Times,serif" font-size="14.00">sgrna (162)</text>
</g>
<g id="clust9" class="cluster">
<title>cluster1296</title>
<path fill="none" stroke="black" d="M576,-8C576,-8 696,-8 696,-8 702,-8 708,-14 708,-20 708,-20 708,-398.91 708,-398.91 708,-404.91 702,-410.91 696,-410.91 696,-410.91 576,-410.91 576,-410.91 570,-410.91 564,-404.91 564,-398.91 564,-398.91 564,-20 564,-20 564,-14 570,-8 576,-8"/>
<text text-anchor="middle" x="686" y="-15.8" font-family="Times,serif" font-size="14.00">1296</text>
</g>
<!-- genes_chol_cov -->
<g id="node1" class="node">
<title>genes_chol_cov</title>
<ellipse fill="none" stroke="black" cx="376" cy="-698.36" rx="86.03" ry="37.45"/>
<text text-anchor="middle" x="376" y="-709.66" font-family="Times,serif" font-size="14.00">genes_chol_cov</text>
<text text-anchor="middle" x="376" y="-694.66" font-family="Times,serif" font-size="14.00">~</text>
<text text-anchor="middle" x="376" y="-679.66" font-family="Times,serif" font-size="14.00">_LKJCholeskyCov</text>
</g>
<!-- genes_chol_cov_corr -->
<g id="node2" class="node">
<title>genes_chol_cov_corr</title>
<polygon fill="none" stroke="black" points="182.5,-602.91 49.5,-602.91 49.5,-549.91 182.5,-549.91 182.5,-602.91"/>
<text text-anchor="middle" x="116" y="-587.71" font-family="Times,serif" font-size="14.00">genes_chol_cov_corr</text>
<text text-anchor="middle" x="116" y="-572.71" font-family="Times,serif" font-size="14.00">~</text>
<text text-anchor="middle" x="116" y="-557.71" font-family="Times,serif" font-size="14.00">Deterministic</text>
</g>
<!-- genes_chol_cov&#45;&gt;genes_chol_cov_corr -->
<g id="edge1" class="edge">
<title>genes_chol_cov&#45;&gt;genes_chol_cov_corr</title>
<path fill="none" stroke="black" d="M312.37,-672.95C277.3,-658.98 233.25,-640.54 195,-621.88 186.29,-617.63 177.19,-612.85 168.4,-608.04"/>
<polygon fill="black" stroke="black" points="169.83,-604.83 159.39,-603.04 166.43,-610.95 169.83,-604.83"/>
</g>
<!-- genes_chol_cov_stds -->
<g id="node3" class="node">
<title>genes_chol_cov_stds</title>
<polygon fill="none" stroke="black" points="338.5,-602.91 207.5,-602.91 207.5,-549.91 338.5,-549.91 338.5,-602.91"/>
<text text-anchor="middle" x="273" y="-587.71" font-family="Times,serif" font-size="14.00">genes_chol_cov_stds</text>
<text text-anchor="middle" x="273" y="-572.71" font-family="Times,serif" font-size="14.00">~</text>
<text text-anchor="middle" x="273" y="-557.71" font-family="Times,serif" font-size="14.00">Deterministic</text>
</g>
<!-- genes_chol_cov&#45;&gt;genes_chol_cov_stds -->
<g id="edge2" class="edge">
<title>genes_chol_cov&#45;&gt;genes_chol_cov_stds</title>
<path fill="none" stroke="black" d="M346.48,-662.99C332.38,-646.57 315.58,-626.99 301.6,-610.71"/>
<polygon fill="black" stroke="black" points="304.16,-608.32 294.99,-603.01 298.85,-612.88 304.16,-608.32"/>
</g>
<!-- f -->
<g id="node15" class="node">
<title>f</title>
<polygon fill="none" stroke="black" points="675,-602.91 583,-602.91 583,-549.91 675,-549.91 675,-602.91"/>
<text text-anchor="middle" x="629" y="-587.71" font-family="Times,serif" font-size="14.00">f</text>
<text text-anchor="middle" x="629" y="-572.71" font-family="Times,serif" font-size="14.00">~</text>
<text text-anchor="middle" x="629" y="-557.71" font-family="Times,serif" font-size="14.00">Deterministic</text>
</g>
<!-- genes_chol_cov&#45;&gt;f -->
<g id="edge25" class="edge">
<title>genes_chol_cov&#45;&gt;f</title>
<path fill="none" stroke="black" d="M412.59,-664.3C429.22,-651.23 449.89,-637.53 471,-629.88 514.17,-614.24 531.34,-638.86 574,-621.88 581.62,-618.85 589.01,-614.37 595.77,-609.41"/>
<polygon fill="black" stroke="black" points="598.29,-611.88 603.96,-602.94 593.95,-606.39 598.29,-611.88"/>
</g>
<!-- d -->
<g id="node16" class="node">
<title>d</title>
<polygon fill="none" stroke="black" points="455,-602.91 363,-602.91 363,-549.91 455,-549.91 455,-602.91"/>
<text text-anchor="middle" x="409" y="-587.71" font-family="Times,serif" font-size="14.00">d</text>
<text text-anchor="middle" x="409" y="-572.71" font-family="Times,serif" font-size="14.00">~</text>
<text text-anchor="middle" x="409" y="-557.71" font-family="Times,serif" font-size="14.00">Deterministic</text>
</g>
<!-- genes_chol_cov&#45;&gt;d -->
<g id="edge20" class="edge">
<title>genes_chol_cov&#45;&gt;d</title>
<path fill="none" stroke="black" d="M385.99,-661.04C390.18,-645.81 395.04,-628.14 399.21,-612.98"/>
<polygon fill="black" stroke="black" points="402.7,-613.52 401.97,-602.95 395.95,-611.66 402.7,-613.52"/>
</g>
<!-- mu_a -->
<g id="node17" class="node">
<title>mu_a</title>
<polygon fill="none" stroke="black" points="785,-602.91 693,-602.91 693,-549.91 785,-549.91 785,-602.91"/>
<text text-anchor="middle" x="739" y="-587.71" font-family="Times,serif" font-size="14.00">mu_a</text>
<text text-anchor="middle" x="739" y="-572.71" font-family="Times,serif" font-size="14.00">~</text>
<text text-anchor="middle" x="739" y="-557.71" font-family="Times,serif" font-size="14.00">Deterministic</text>
</g>
<!-- genes_chol_cov&#45;&gt;mu_a -->
<g id="edge10" class="edge">
<title>genes_chol_cov&#45;&gt;mu_a</title>
<path fill="none" stroke="black" d="M412,-664.25C428.68,-651 449.55,-637.17 471,-629.88 515.85,-614.64 639.65,-638.51 684,-621.88 691.76,-618.97 699.25,-614.51 706.08,-609.5"/>
<polygon fill="black" stroke="black" points="708.67,-611.91 714.34,-602.96 704.33,-606.43 708.67,-611.91"/>
</g>
<!-- b -->
<g id="node18" class="node">
<title>b</title>
<polygon fill="none" stroke="black" points="565,-602.91 473,-602.91 473,-549.91 565,-549.91 565,-602.91"/>
<text text-anchor="middle" x="519" y="-587.71" font-family="Times,serif" font-size="14.00">b</text>
<text text-anchor="middle" x="519" y="-572.71" font-family="Times,serif" font-size="14.00">~</text>
<text text-anchor="middle" x="519" y="-557.71" font-family="Times,serif" font-size="14.00">Deterministic</text>
</g>
<!-- genes_chol_cov&#45;&gt;b -->
<g id="edge15" class="edge">
<title>genes_chol_cov&#45;&gt;b</title>
<path fill="none" stroke="black" d="M415.08,-664.58C435.52,-647.44 460.44,-626.53 480.76,-609.48"/>
<polygon fill="black" stroke="black" points="483.17,-612.03 488.59,-602.92 478.68,-606.66 483.17,-612.03"/>
</g>
<!-- h -->
<g id="node19" class="node">
<title>h</title>
<polygon fill="none" stroke="black" points="1115,-602.91 1023,-602.91 1023,-549.91 1115,-549.91 1115,-602.91"/>
<text text-anchor="middle" x="1069" y="-587.71" font-family="Times,serif" font-size="14.00">h</text>
<text text-anchor="middle" x="1069" y="-572.71" font-family="Times,serif" font-size="14.00">~</text>
<text text-anchor="middle" x="1069" y="-557.71" font-family="Times,serif" font-size="14.00">Deterministic</text>
</g>
<!-- genes_chol_cov&#45;&gt;h -->
<g id="edge30" class="edge">
<title>genes_chol_cov&#45;&gt;h</title>
<path fill="none" stroke="black" d="M411.92,-664.02C428.59,-650.72 449.47,-636.93 471,-629.88 528.35,-611.12 957.26,-642.42 1014,-621.88 1021.79,-619.06 1029.3,-614.64 1036.13,-609.65"/>
<polygon fill="black" stroke="black" points="1038.72,-612.06 1044.39,-603.11 1034.38,-606.57 1038.72,-612.06"/>
</g>
<!-- sigma_f -->
<g id="node5" class="node">
<title>sigma_f</title>
<polygon fill="none" stroke="black" points="92,-502.91 0,-502.91 0,-449.91 92,-449.91 92,-502.91"/>
<text text-anchor="middle" x="46" y="-487.71" font-family="Times,serif" font-size="14.00">sigma_f</text>
<text text-anchor="middle" x="46" y="-472.71" font-family="Times,serif" font-size="14.00">~</text>
<text text-anchor="middle" x="46" y="-457.71" font-family="Times,serif" font-size="14.00">Deterministic</text>
</g>
<!-- genes_chol_cov_stds&#45;&gt;sigma_f -->
<g id="edge6" class="edge">
<title>genes_chol_cov_stds&#45;&gt;sigma_f</title>
<path fill="none" stroke="black" d="M245.56,-549.85C231.51,-538.32 213.49,-525.78 195,-518.91 155.7,-504.3 140.85,-523.94 101,-510.91 97.92,-509.9 94.83,-508.69 91.77,-507.34"/>
<polygon fill="black" stroke="black" points="93.27,-504.17 82.75,-502.91 90.18,-510.46 93.27,-504.17"/>
</g>
<!-- sigma_d -->
<g id="node7" class="node">
<title>sigma_d</title>
<polygon fill="none" stroke="black" points="202,-502.91 110,-502.91 110,-449.91 202,-449.91 202,-502.91"/>
<text text-anchor="middle" x="156" y="-487.71" font-family="Times,serif" font-size="14.00">sigma_d</text>
<text text-anchor="middle" x="156" y="-472.71" font-family="Times,serif" font-size="14.00">~</text>
<text text-anchor="middle" x="156" y="-457.71" font-family="Times,serif" font-size="14.00">Deterministic</text>
</g>
<!-- genes_chol_cov_stds&#45;&gt;sigma_d -->
<g id="edge5" class="edge">
<title>genes_chol_cov_stds&#45;&gt;sigma_d</title>
<path fill="none" stroke="black" d="M242.26,-549.66C227.62,-537.39 209.95,-522.6 194.43,-509.59"/>
<polygon fill="black" stroke="black" points="196.45,-506.72 186.54,-502.98 191.95,-512.09 196.45,-506.72"/>
</g>
<!-- sigma_mu_a -->
<g id="node10" class="node">
<title>sigma_mu_a</title>
<polygon fill="none" stroke="black" points="312,-502.91 220,-502.91 220,-449.91 312,-449.91 312,-502.91"/>
<text text-anchor="middle" x="266" y="-487.71" font-family="Times,serif" font-size="14.00">sigma_mu_a</text>
<text text-anchor="middle" x="266" y="-472.71" font-family="Times,serif" font-size="14.00">~</text>
<text text-anchor="middle" x="266" y="-457.71" font-family="Times,serif" font-size="14.00">Deterministic</text>
</g>
<!-- genes_chol_cov_stds&#45;&gt;sigma_mu_a -->
<g id="edge3" class="edge">
<title>genes_chol_cov_stds&#45;&gt;sigma_mu_a</title>
<path fill="none" stroke="black" d="M271.16,-549.66C270.37,-538.52 269.42,-525.29 268.56,-513.21"/>
<polygon fill="black" stroke="black" points="272.03,-512.71 267.83,-502.98 265.05,-513.21 272.03,-512.71"/>
</g>
<!-- sigma_b -->
<g id="node12" class="node">
<title>sigma_b</title>
<polygon fill="none" stroke="black" points="422,-502.91 330,-502.91 330,-449.91 422,-449.91 422,-502.91"/>
<text text-anchor="middle" x="376" y="-487.71" font-family="Times,serif" font-size="14.00">sigma_b</text>
<text text-anchor="middle" x="376" y="-472.71" font-family="Times,serif" font-size="14.00">~</text>
<text text-anchor="middle" x="376" y="-457.71" font-family="Times,serif" font-size="14.00">Deterministic</text>
</g>
<!-- genes_chol_cov_stds&#45;&gt;sigma_b -->
<g id="edge4" class="edge">
<title>genes_chol_cov_stds&#45;&gt;sigma_b</title>
<path fill="none" stroke="black" d="M300.06,-549.66C312.84,-537.5 328.22,-522.87 341.79,-509.95"/>
<polygon fill="black" stroke="black" points="344.29,-512.41 349.12,-502.98 339.46,-507.34 344.29,-512.41"/>
</g>
<!-- sigma_h -->
<g id="node13" class="node">
<title>sigma_h</title>
<polygon fill="none" stroke="black" points="532,-502.91 440,-502.91 440,-449.91 532,-449.91 532,-502.91"/>
<text text-anchor="middle" x="486" y="-487.71" font-family="Times,serif" font-size="14.00">sigma_h</text>
<text text-anchor="middle" x="486" y="-472.71" font-family="Times,serif" font-size="14.00">~</text>
<text text-anchor="middle" x="486" y="-457.71" font-family="Times,serif" font-size="14.00">Deterministic</text>
</g>
<!-- genes_chol_cov_stds&#45;&gt;sigma_h -->
<g id="edge7" class="edge">
<title>genes_chol_cov_stds&#45;&gt;sigma_h</title>
<path fill="none" stroke="black" d="M300.84,-549.67C314.85,-538.26 332.71,-525.86 351,-518.91 384.4,-506.21 397.12,-522.26 431,-510.91 433.93,-509.93 436.86,-508.77 439.77,-507.48"/>
<polygon fill="black" stroke="black" points="441.48,-510.54 448.92,-502.99 438.4,-504.25 441.48,-510.54"/>
</g>
<!-- mu_mu_a -->
<g id="node4" class="node">
<title>mu_mu_a</title>
<ellipse fill="none" stroke="black" cx="864" cy="-698.36" rx="50.82" ry="37.45"/>
<text text-anchor="middle" x="864" y="-709.66" font-family="Times,serif" font-size="14.00">mu_mu_a</text>
<text text-anchor="middle" x="864" y="-694.66" font-family="Times,serif" font-size="14.00">~</text>
<text text-anchor="middle" x="864" y="-679.66" font-family="Times,serif" font-size="14.00">Normal</text>
</g>
<!-- mu_mu_a&#45;&gt;f -->
<g id="edge23" class="edge">
<title>mu_mu_a&#45;&gt;f</title>
<path fill="none" stroke="black" d="M844.44,-663.62C835.13,-650.77 822.78,-637.42 808,-629.88 783.4,-617.35 709.72,-631.93 684,-621.88 676.36,-618.9 668.96,-614.45 662.2,-609.49"/>
<polygon fill="black" stroke="black" points="664.02,-606.47 654,-603.02 659.68,-611.96 664.02,-606.47"/>
</g>
<!-- mu_mu_a&#45;&gt;d -->
<g id="edge18" class="edge">
<title>mu_mu_a&#45;&gt;d</title>
<path fill="none" stroke="black" d="M844.59,-663.31C835.31,-650.42 822.94,-637.11 808,-629.88 773.58,-613.23 499.89,-635.05 464,-621.88 456.22,-619.03 448.72,-614.59 441.89,-609.59"/>
<polygon fill="black" stroke="black" points="443.64,-606.52 433.63,-603.05 439.29,-612 443.64,-606.52"/>
</g>
<!-- mu_mu_a&#45;&gt;mu_a -->
<g id="edge8" class="edge">
<title>mu_mu_a&#45;&gt;mu_a</title>
<path fill="none" stroke="black" d="M839.88,-665.02C830.52,-653.38 819.33,-640.51 808,-629.88 803.59,-625.75 801.84,-625.5 797,-621.88 791.54,-617.8 785.81,-613.47 780.17,-609.18"/>
<polygon fill="black" stroke="black" points="782.09,-606.24 772.02,-602.95 777.84,-611.81 782.09,-606.24"/>
</g>
<!-- mu_mu_a&#45;&gt;b -->
<g id="edge13" class="edge">
<title>mu_mu_a&#45;&gt;b</title>
<path fill="none" stroke="black" d="M844.55,-663.39C835.26,-650.51 822.9,-637.19 808,-629.88 784.64,-618.42 598.37,-630.98 574,-621.88 566.23,-618.99 558.74,-614.52 551.91,-609.52"/>
<polygon fill="black" stroke="black" points="553.67,-606.45 543.65,-602.98 549.32,-611.93 553.67,-606.45"/>
</g>
<!-- mu_mu_a&#45;&gt;h -->
<g id="edge28" class="edge">
<title>mu_mu_a&#45;&gt;h</title>
<path fill="none" stroke="black" d="M907.36,-678.54C938.06,-664.51 979.71,-644.01 1014,-621.88 1019.82,-618.13 1025.75,-613.86 1031.46,-609.5"/>
<polygon fill="black" stroke="black" points="1033.92,-612.02 1039.62,-603.09 1029.59,-606.51 1033.92,-612.02"/>
</g>
<!-- alpha -->
<g id="node6" class="node">
<title>alpha</title>
<ellipse fill="none" stroke="black" cx="774" cy="-187.43" rx="57.97" ry="37.45"/>
<text text-anchor="middle" x="774" y="-198.73" font-family="Times,serif" font-size="14.00">alpha</text>
<text text-anchor="middle" x="774" y="-183.73" font-family="Times,serif" font-size="14.00">~</text>
<text text-anchor="middle" x="774" y="-168.73" font-family="Times,serif" font-size="14.00">Exponential</text>
</g>
<!-- ct_final -->
<g id="node22" class="node">
<title>ct_final</title>
<ellipse fill="lightgrey" stroke="black" cx="636" cy="-76.48" rx="63.78" ry="37.45"/>
<text text-anchor="middle" x="636" y="-87.78" font-family="Times,serif" font-size="14.00">ct_final</text>
<text text-anchor="middle" x="636" y="-72.78" font-family="Times,serif" font-size="14.00">~</text>
<text text-anchor="middle" x="636" y="-57.78" font-family="Times,serif" font-size="14.00">NegBinomial</text>
</g>
<!-- alpha&#45;&gt;ct_final -->
<g id="edge43" class="edge">
<title>alpha&#45;&gt;ct_final</title>
<path fill="none" stroke="black" d="M737.74,-157.8C720.57,-144.24 699.87,-127.9 681.64,-113.51"/>
<polygon fill="black" stroke="black" points="683.48,-110.5 673.46,-107.05 679.14,-115.99 683.48,-110.5"/>
</g>
<!-- mu_b -->
<g id="node8" class="node">
<title>mu_b</title>
<ellipse fill="none" stroke="black" cx="522" cy="-698.36" rx="41.94" ry="37.45"/>
<text text-anchor="middle" x="522" y="-709.66" font-family="Times,serif" font-size="14.00">mu_b</text>
<text text-anchor="middle" x="522" y="-694.66" font-family="Times,serif" font-size="14.00">~</text>
<text text-anchor="middle" x="522" y="-679.66" font-family="Times,serif" font-size="14.00">Normal</text>
</g>
<!-- mu_b&#45;&gt;f -->
<g id="edge26" class="edge">
<title>mu_b&#45;&gt;f</title>
<path fill="none" stroke="black" d="M543.47,-665.83C551.91,-654.16 561.96,-641.05 572,-629.88 577.95,-623.27 584.62,-616.57 591.26,-610.27"/>
<polygon fill="black" stroke="black" points="594.04,-612.46 598.98,-603.09 589.27,-607.34 594.04,-612.46"/>
</g>
<!-- mu_b&#45;&gt;d -->
<g id="edge21" class="edge">
<title>mu_b&#45;&gt;d</title>
<path fill="none" stroke="black" d="M501.96,-665.4C493.93,-653.67 484.17,-640.65 474,-629.88 470.09,-625.75 468.44,-625.45 464,-621.88 459.04,-617.89 453.83,-613.7 448.68,-609.54"/>
<polygon fill="black" stroke="black" points="450.66,-606.63 440.68,-603.07 446.26,-612.08 450.66,-606.63"/>
</g>
<!-- mu_b&#45;&gt;mu_a -->
<g id="edge11" class="edge">
<title>mu_b&#45;&gt;mu_a</title>
<path fill="none" stroke="black" d="M538.75,-663.73C546.94,-650.9 558.07,-637.53 572,-629.88 593.87,-617.87 660.79,-631.04 684,-621.88 691.63,-618.87 699.02,-614.41 705.78,-609.45"/>
<polygon fill="black" stroke="black" points="708.3,-611.92 713.98,-602.98 703.96,-606.43 708.3,-611.92"/>
</g>
<!-- mu_b&#45;&gt;b -->
<g id="edge16" class="edge">
<title>mu_b&#45;&gt;b</title>
<path fill="none" stroke="black" d="M521.08,-660.72C520.71,-645.75 520.28,-628.48 519.9,-613.56"/>
<polygon fill="black" stroke="black" points="523.39,-613.09 519.64,-603.18 516.4,-613.27 523.39,-613.09"/>
</g>
<!-- mu_b&#45;&gt;h -->
<g id="edge31" class="edge">
<title>mu_b&#45;&gt;h</title>
<path fill="none" stroke="black" d="M538.33,-663.72C546.5,-650.72 557.74,-637.23 572,-629.88 593.83,-618.64 990.92,-630.28 1014,-621.88 1021.79,-619.05 1029.29,-614.62 1036.12,-609.63"/>
<polygon fill="black" stroke="black" points="1038.72,-612.04 1044.38,-603.09 1034.37,-606.55 1038.72,-612.04"/>
</g>
<!-- sigma_a -->
<g id="node9" class="node">
<title>sigma_a</title>
<ellipse fill="none" stroke="black" cx="961" cy="-576.41" rx="43.68" ry="37.45"/>
<text text-anchor="middle" x="961" y="-587.71" font-family="Times,serif" font-size="14.00">sigma_a</text>
<text text-anchor="middle" x="961" y="-572.71" font-family="Times,serif" font-size="14.00">~</text>
<text text-anchor="middle" x="961" y="-557.71" font-family="Times,serif" font-size="14.00">Gamma</text>
</g>
<!-- a -->
<g id="node20" class="node">
<title>a</title>
<polygon fill="none" stroke="black" points="901,-502.91 809,-502.91 809,-449.91 901,-449.91 901,-502.91"/>
<text text-anchor="middle" x="855" y="-487.71" font-family="Times,serif" font-size="14.00">a</text>
<text text-anchor="middle" x="855" y="-472.71" font-family="Times,serif" font-size="14.00">~</text>
<text text-anchor="middle" x="855" y="-457.71" font-family="Times,serif" font-size="14.00">Deterministic</text>
</g>
<!-- sigma_a&#45;&gt;a -->
<g id="edge34" class="edge">
<title>sigma_a&#45;&gt;a</title>
<path fill="none" stroke="black" d="M937.13,-544.55C929.8,-535.85 921.43,-526.66 913,-518.91 909.43,-515.62 905.59,-512.37 901.66,-509.22"/>
<polygon fill="black" stroke="black" points="903.54,-506.25 893.48,-502.91 899.26,-511.79 903.54,-506.25"/>
</g>
<!-- mu_d -->
<g id="node11" class="node">
<title>mu_d</title>
<ellipse fill="none" stroke="black" cx="623" cy="-698.36" rx="41.94" ry="37.45"/>
<text text-anchor="middle" x="623" y="-709.66" font-family="Times,serif" font-size="14.00">mu_d</text>
<text text-anchor="middle" x="623" y="-694.66" font-family="Times,serif" font-size="14.00">~</text>
<text text-anchor="middle" x="623" y="-679.66" font-family="Times,serif" font-size="14.00">Normal</text>
</g>
<!-- mu_d&#45;&gt;f -->
<g id="edge27" class="edge">
<title>mu_d&#45;&gt;f</title>
<path fill="none" stroke="black" d="M624.83,-660.72C625.58,-645.75 626.45,-628.48 627.19,-613.56"/>
<polygon fill="black" stroke="black" points="630.71,-613.34 627.71,-603.18 623.72,-612.99 630.71,-613.34"/>
</g>
<!-- mu_d&#45;&gt;d -->
<g id="edge22" class="edge">
<title>mu_d&#45;&gt;d</title>
<path fill="none" stroke="black" d="M606.25,-663.75C598.05,-650.92 586.92,-637.55 573,-629.88 551.72,-618.17 486.59,-630.82 464,-621.88 456.37,-618.87 448.98,-614.4 442.22,-609.44"/>
<polygon fill="black" stroke="black" points="444.04,-606.42 434.03,-602.96 439.7,-611.91 444.04,-606.42"/>
</g>
<!-- mu_d&#45;&gt;mu_a -->
<g id="edge12" class="edge">
<title>mu_d&#45;&gt;mu_a</title>
<path fill="none" stroke="black" d="M641.67,-664.5C649.42,-652.67 659.15,-639.81 670,-629.88 675.29,-625.05 678.08,-625.93 684,-621.88 689.65,-618.02 695.45,-613.73 701.07,-609.38"/>
<polygon fill="black" stroke="black" points="703.45,-611.96 709.12,-603.01 699.11,-606.47 703.45,-611.96"/>
</g>
<!-- mu_d&#45;&gt;b -->
<g id="edge17" class="edge">
<title>mu_d&#45;&gt;b</title>
<path fill="none" stroke="black" d="M601.36,-665.98C592.91,-654.32 582.89,-641.19 573,-629.88 567.25,-623.31 560.82,-616.59 554.45,-610.25"/>
<polygon fill="black" stroke="black" points="556.66,-607.5 547.06,-603.01 551.76,-612.51 556.66,-607.5"/>
</g>
<!-- mu_d&#45;&gt;h -->
<g id="edge32" class="edge">
<title>mu_d&#45;&gt;h</title>
<path fill="none" stroke="black" d="M638.34,-663.09C645.93,-650.33 656.42,-637.18 670,-629.88 703.68,-611.79 978.11,-635.05 1014,-621.88 1021.78,-619.03 1029.28,-614.59 1036.11,-609.59"/>
<polygon fill="black" stroke="black" points="1038.71,-612 1044.37,-603.05 1034.36,-606.52 1038.71,-612"/>
</g>
<!-- delta_genes -->
<g id="node14" class="node">
<title>delta_genes</title>
<ellipse fill="none" stroke="black" cx="739" cy="-698.36" rx="56.64" ry="37.45"/>
<text text-anchor="middle" x="739" y="-709.66" font-family="Times,serif" font-size="14.00">delta_genes</text>
<text text-anchor="middle" x="739" y="-694.66" font-family="Times,serif" font-size="14.00">~</text>
<text text-anchor="middle" x="739" y="-679.66" font-family="Times,serif" font-size="14.00">Normal</text>
</g>
<!-- delta_genes&#45;&gt;f -->
<g id="edge24" class="edge">
<title>delta_genes&#45;&gt;f</title>
<path fill="none" stroke="black" d="M710.1,-665.84C694.53,-648.87 675.33,-627.93 659.53,-610.69"/>
<polygon fill="black" stroke="black" points="661.86,-608.07 652.53,-603.06 656.71,-612.8 661.86,-608.07"/>
</g>
<!-- delta_genes&#45;&gt;d -->
<g id="edge19" class="edge">
<title>delta_genes&#45;&gt;d</title>
<path fill="none" stroke="black" d="M715.92,-664.04C704.89,-650.93 690.48,-637.26 674,-629.88 631.38,-610.79 507.72,-638.29 464,-621.88 456.24,-618.97 448.75,-614.5 441.92,-609.5"/>
<polygon fill="black" stroke="black" points="443.68,-606.42 433.66,-602.96 439.33,-611.91 443.68,-606.42"/>
</g>
<!-- delta_genes&#45;&gt;mu_a -->
<g id="edge9" class="edge">
<title>delta_genes&#45;&gt;mu_a</title>
<path fill="none" stroke="black" d="M739,-660.72C739,-645.75 739,-628.48 739,-613.56"/>
<polygon fill="black" stroke="black" points="742.5,-613.18 739,-603.18 735.5,-613.18 742.5,-613.18"/>
</g>
<!-- delta_genes&#45;&gt;b -->
<g id="edge14" class="edge">
<title>delta_genes&#45;&gt;b</title>
<path fill="none" stroke="black" d="M715.47,-664.02C704.45,-651.07 690.17,-637.54 674,-629.88 633.7,-610.81 615.41,-638.42 574,-621.88 566.38,-618.84 559,-614.36 552.24,-609.39"/>
<polygon fill="black" stroke="black" points="554.06,-606.37 544.04,-602.92 549.72,-611.87 554.06,-606.37"/>
</g>
<!-- delta_genes&#45;&gt;h -->
<g id="edge29" class="edge">
<title>delta_genes&#45;&gt;h</title>
<path fill="none" stroke="black" d="M762.08,-664.04C773.11,-650.93 787.52,-637.26 804,-629.88 846.62,-610.79 970.28,-638.29 1014,-621.88 1021.76,-618.97 1029.25,-614.5 1036.08,-609.5"/>
<polygon fill="black" stroke="black" points="1038.67,-611.91 1044.34,-602.96 1034.32,-606.42 1038.67,-611.91"/>
</g>
<!-- gene_effect -->
<g id="node24" class="node">
<title>gene_effect</title>
<polygon fill="none" stroke="black" points="682,-402.91 590,-402.91 590,-349.91 682,-349.91 682,-402.91"/>
<text text-anchor="middle" x="636" y="-387.71" font-family="Times,serif" font-size="14.00">gene_effect</text>
<text text-anchor="middle" x="636" y="-372.71" font-family="Times,serif" font-size="14.00">~</text>
<text text-anchor="middle" x="636" y="-357.71" font-family="Times,serif" font-size="14.00">Deterministic</text>
</g>
<!-- f&#45;&gt;gene_effect -->
<g id="edge38" class="edge">
<title>f&#45;&gt;gene_effect</title>
<path fill="none" stroke="black" d="M629.92,-549.52C631.15,-514.67 633.35,-452.49 634.74,-413.18"/>
<polygon fill="black" stroke="black" points="638.24,-413.1 635.1,-402.98 631.24,-412.85 638.24,-413.1"/>
</g>
<!-- d&#45;&gt;gene_effect -->
<g id="edge39" class="edge">
<title>d&#45;&gt;gene_effect</title>
<path fill="none" stroke="black" d="M427.28,-549.68C436.84,-538.26 449.57,-525.86 464,-518.91 480.09,-511.15 530.08,-522.11 544,-510.91 577.51,-483.94 548.04,-453.19 574,-418.91 576.44,-415.69 579.2,-412.64 582.17,-409.76"/>
<polygon fill="black" stroke="black" points="584.71,-412.2 589.93,-402.98 580.1,-406.93 584.71,-412.2"/>
</g>
<!-- mu_a&#45;&gt;a -->
<g id="edge33" class="edge">
<title>mu_a&#45;&gt;a</title>
<path fill="none" stroke="black" d="M763.63,-549.79C773.66,-539.8 785.57,-528.47 797,-518.91 800.94,-515.61 805.12,-512.3 809.36,-509.06"/>
<polygon fill="black" stroke="black" points="811.64,-511.73 817.55,-502.94 807.45,-506.12 811.64,-511.73"/>
</g>
<!-- b&#45;&gt;gene_effect -->
<g id="edge37" class="edge">
<title>b&#45;&gt;gene_effect</title>
<path fill="none" stroke="black" d="M543.73,-549.69C553.87,-538.36 565.26,-524.53 574,-510.91 594.24,-479.35 611.65,-440.12 622.82,-412.38"/>
<polygon fill="black" stroke="black" points="626.07,-413.66 626.5,-403.07 619.56,-411.08 626.07,-413.66"/>
</g>
<!-- h&#45;&gt;gene_effect -->
<g id="edge40" class="edge">
<title>h&#45;&gt;gene_effect</title>
<path fill="none" stroke="black" d="M1051.81,-549.8C1026.2,-513.93 974.39,-449.67 913,-418.91 875.37,-400.05 761.97,-387.72 692.48,-381.71"/>
<polygon fill="black" stroke="black" points="692.4,-378.19 682.14,-380.83 691.81,-385.17 692.4,-378.19"/>
</g>
<!-- a&#45;&gt;gene_effect -->
<g id="edge36" class="edge">
<title>a&#45;&gt;gene_effect</title>
<path fill="none" stroke="black" d="M808.82,-454.74C774.61,-439.43 727.83,-418.5 691.57,-402.27"/>
<polygon fill="black" stroke="black" points="692.67,-398.93 682.11,-398.04 689.81,-405.32 692.67,-398.93"/>
</g>
<!-- delta_a -->
<g id="node21" class="node">
<title>delta_a</title>
<ellipse fill="none" stroke="black" cx="855" cy="-576.41" rx="41.94" ry="37.45"/>
<text text-anchor="middle" x="855" y="-587.71" font-family="Times,serif" font-size="14.00">delta_a</text>
<text text-anchor="middle" x="855" y="-572.71" font-family="Times,serif" font-size="14.00">~</text>
<text text-anchor="middle" x="855" y="-557.71" font-family="Times,serif" font-size="14.00">Normal</text>
</g>
<!-- delta_a&#45;&gt;a -->
<g id="edge35" class="edge">
<title>delta_a&#45;&gt;a</title>
<path fill="none" stroke="black" d="M855,-538.92C855,-530.5 855,-521.55 855,-513.16"/>
<polygon fill="black" stroke="black" points="858.5,-512.92 855,-502.92 851.5,-512.92 858.5,-512.92"/>
</g>
<!-- mu -->
<g id="node23" class="node">
<title>mu</title>
<polygon fill="none" stroke="black" points="682,-213.93 590,-213.93 590,-160.93 682,-160.93 682,-213.93"/>
<text text-anchor="middle" x="636" y="-198.73" font-family="Times,serif" font-size="14.00">mu</text>
<text text-anchor="middle" x="636" y="-183.73" font-family="Times,serif" font-size="14.00">~</text>
<text text-anchor="middle" x="636" y="-168.73" font-family="Times,serif" font-size="14.00">Deterministic</text>
</g>
<!-- mu&#45;&gt;ct_final -->
<g id="edge44" class="edge">
<title>mu&#45;&gt;ct_final</title>
<path fill="none" stroke="black" d="M636,-160.89C636,-149.98 636,-136.89 636,-124.35"/>
<polygon fill="black" stroke="black" points="639.5,-124 636,-114 632.5,-124 639.5,-124"/>
</g>
<!-- eta -->
<g id="node25" class="node">
<title>eta</title>
<polygon fill="none" stroke="black" points="682,-313.91 590,-313.91 590,-260.91 682,-260.91 682,-313.91"/>
<text text-anchor="middle" x="636" y="-298.71" font-family="Times,serif" font-size="14.00">eta</text>
<text text-anchor="middle" x="636" y="-283.71" font-family="Times,serif" font-size="14.00">~</text>
<text text-anchor="middle" x="636" y="-268.71" font-family="Times,serif" font-size="14.00">Deterministic</text>
</g>
<!-- gene_effect&#45;&gt;eta -->
<g id="edge41" class="edge">
<title>gene_effect&#45;&gt;eta</title>
<path fill="none" stroke="black" d="M636,-349.77C636,-341.79 636,-332.84 636,-324.29"/>
<polygon fill="black" stroke="black" points="639.5,-324.16 636,-314.16 632.5,-324.16 639.5,-324.16"/>
</g>
<!-- eta&#45;&gt;mu -->
<g id="edge42" class="edge">
<title>eta&#45;&gt;mu</title>
<path fill="none" stroke="black" d="M636,-260.66C636,-249.53 636,-236.3 636,-224.23"/>
<polygon fill="black" stroke="black" points="639.5,-224 636,-214 632.5,-224 639.5,-224"/>
</g>
</g>
</svg>
