<?xml version="1.0" encoding="UTF-8" standalone="no"?>
<!DOCTYPE svg PUBLIC "-//W3C//DTD SVG 1.1//EN"
 "http://www.w3.org/Graphics/SVG/1.1/DTD/svg11.dtd">
<!-- Generated by graphviz version 4.0.0 (0)
 -->
<!-- Pages: 1 -->
<svg width="1230pt" height="760pt"
 viewBox="0.00 0.00 1229.50 759.84" xmlns="http://www.w3.org/2000/svg" xmlns:xlink="http://www.w3.org/1999/xlink">
<g id="graph0" class="graph" transform="scale(1 1) rotate(0) translate(4 755.84)">
<polygon fill="white" stroke="transparent" points="-4,4 -4,-755.84 1225.5,-755.84 1225.5,4 -4,4"/>
<g id="clust7" class="cluster">
<title>clustergene (103) x cancer_gene (3)</title>
<path fill="none" stroke="black" d="M1049.5,-518.91C1049.5,-518.91 1201.5,-518.91 1201.5,-518.91 1207.5,-518.91 1213.5,-524.91 1213.5,-530.91 1213.5,-530.91 1213.5,-598.91 1213.5,-598.91 1213.5,-604.91 1207.5,-610.91 1201.5,-610.91 1201.5,-610.91 1049.5,-610.91 1049.5,-610.91 1043.5,-610.91 1037.5,-604.91 1037.5,-598.91 1037.5,-598.91 1037.5,-530.91 1037.5,-530.91 1037.5,-524.91 1043.5,-518.91 1049.5,-518.91"/>
<text text-anchor="middle" x="1125.5" y="-526.71" font-family="Times,serif" font-size="14.00">gene (103) x cancer_gene (3)</text>
</g>
<g id="clust3" class="cluster">
<title>cluster7</title>
<path fill="none" stroke="black" d="M208.5,-518.91C208.5,-518.91 332.5,-518.91 332.5,-518.91 338.5,-518.91 344.5,-524.91 344.5,-530.91 344.5,-530.91 344.5,-598.91 344.5,-598.91 344.5,-604.91 338.5,-610.91 332.5,-610.91 332.5,-610.91 208.5,-610.91 208.5,-610.91 202.5,-610.91 196.5,-604.91 196.5,-598.91 196.5,-598.91 196.5,-530.91 196.5,-530.91 196.5,-524.91 202.5,-518.91 208.5,-518.91"/>
<text text-anchor="middle" x="333" y="-526.71" font-family="Times,serif" font-size="14.00">7</text>
</g>
<g id="clust1" class="cluster">
<title>cluster28</title>
<path fill="none" stroke="black" d="M287.5,-629.88C287.5,-629.88 449.5,-629.88 449.5,-629.88 455.5,-629.88 461.5,-635.88 461.5,-641.88 461.5,-641.88 461.5,-731.84 461.5,-731.84 461.5,-737.84 455.5,-743.84 449.5,-743.84 449.5,-743.84 287.5,-743.84 287.5,-743.84 281.5,-743.84 275.5,-737.84 275.5,-731.84 275.5,-731.84 275.5,-641.88 275.5,-641.88 275.5,-635.88 281.5,-629.88 287.5,-629.88"/>
<text text-anchor="middle" x="446.5" y="-637.68" font-family="Times,serif" font-size="14.00">28</text>
</g>
<g id="clust2" class="cluster">
<title>cluster7 x 7</title>
<path fill="none" stroke="black" d="M52.5,-518.91C52.5,-518.91 176.5,-518.91 176.5,-518.91 182.5,-518.91 188.5,-524.91 188.5,-530.91 188.5,-530.91 188.5,-598.91 188.5,-598.91 188.5,-604.91 182.5,-610.91 176.5,-610.91 176.5,-610.91 52.5,-610.91 52.5,-610.91 46.5,-610.91 40.5,-604.91 40.5,-598.91 40.5,-598.91 40.5,-530.91 40.5,-530.91 40.5,-524.91 46.5,-518.91 52.5,-518.91"/>
<text text-anchor="middle" x="166.5" y="-526.71" font-family="Times,serif" font-size="14.00">7 x 7</text>
</g>
<g id="clust4" class="cluster">
<title>clustercancer_gene (3)</title>
<path fill="none" stroke="black" d="M439.5,-418.91C439.5,-418.91 523.5,-418.91 523.5,-418.91 529.5,-418.91 535.5,-424.91 535.5,-430.91 535.5,-430.91 535.5,-498.91 535.5,-498.91 535.5,-504.91 529.5,-510.91 523.5,-510.91 523.5,-510.91 439.5,-510.91 439.5,-510.91 433.5,-510.91 427.5,-504.91 427.5,-498.91 427.5,-498.91 427.5,-430.91 427.5,-430.91 427.5,-424.91 433.5,-418.91 439.5,-418.91"/>
<text text-anchor="middle" x="483.5" y="-426.71" font-family="Times,serif" font-size="14.00">cancer_gene (3)</text>
</g>
<g id="clust5" class="cluster">
<title>cluster7 x 103</title>
<path fill="none" stroke="black" d="M696.5,-629.88C696.5,-629.88 802.5,-629.88 802.5,-629.88 808.5,-629.88 814.5,-635.88 814.5,-641.88 814.5,-641.88 814.5,-731.84 814.5,-731.84 814.5,-737.84 808.5,-743.84 802.5,-743.84 802.5,-743.84 696.5,-743.84 696.5,-743.84 690.5,-743.84 684.5,-737.84 684.5,-731.84 684.5,-731.84 684.5,-641.88 684.5,-641.88 684.5,-635.88 690.5,-629.88 696.5,-629.88"/>
<text text-anchor="middle" x="785.5" y="-637.68" font-family="Times,serif" font-size="14.00">7 x 103</text>
</g>
<g id="clust6" class="cluster">
<title>clustergene (103)</title>
<path fill="none" stroke="black" d="M364.5,-518.91C364.5,-518.91 775.5,-518.91 775.5,-518.91 781.5,-518.91 787.5,-524.91 787.5,-530.91 787.5,-530.91 787.5,-598.91 787.5,-598.91 787.5,-604.91 781.5,-610.91 775.5,-610.91 775.5,-610.91 364.5,-610.91 364.5,-610.91 358.5,-610.91 352.5,-604.91 352.5,-598.91 352.5,-598.91 352.5,-530.91 352.5,-530.91 352.5,-524.91 358.5,-518.91 364.5,-518.91"/>
<text text-anchor="middle" x="750" y="-526.71" font-family="Times,serif" font-size="14.00">gene (103)</text>
</g>
<g id="clust8" class="cluster">
<title>clustersgrna (162)</title>
<path fill="none" stroke="black" d="M807.5,-418.91C807.5,-418.91 891.5,-418.91 891.5,-418.91 897.5,-418.91 903.5,-424.91 903.5,-430.91 903.5,-430.91 903.5,-609.88 903.5,-609.88 903.5,-615.88 897.5,-621.88 891.5,-621.88 891.5,-621.88 807.5,-621.88 807.5,-621.88 801.5,-621.88 795.5,-615.88 795.5,-609.88 795.5,-609.88 795.5,-430.91 795.5,-430.91 795.5,-424.91 801.5,-418.91 807.5,-418.91"/>
<text text-anchor="middle" x="864" y="-426.71" font-family="Times,serif" font-size="14.00">sgrna (162)</text>
</g>
<g id="clust9" class="cluster">
<title>cluster1296</title>
<path fill="none" stroke="black" d="M571.5,-8C571.5,-8 691.5,-8 691.5,-8 697.5,-8 703.5,-14 703.5,-20 703.5,-20 703.5,-398.91 703.5,-398.91 703.5,-404.91 697.5,-410.91 691.5,-410.91 691.5,-410.91 571.5,-410.91 571.5,-410.91 565.5,-410.91 559.5,-404.91 559.5,-398.91 559.5,-398.91 559.5,-20 559.5,-20 559.5,-14 565.5,-8 571.5,-8"/>
<text text-anchor="middle" x="681.5" y="-15.8" font-family="Times,serif" font-size="14.00">1296</text>
</g>
<!-- genes_chol_cov -->
<g id="node1" class="node">
<title>genes_chol_cov</title>
<ellipse fill="none" stroke="black" cx="368.5" cy="-698.36" rx="84.71" ry="37.45"/>
<text text-anchor="middle" x="368.5" y="-709.66" font-family="Times,serif" font-size="14.00">genes_chol_cov</text>
<text text-anchor="middle" x="368.5" y="-694.66" font-family="Times,serif" font-size="14.00">~</text>
<text text-anchor="middle" x="368.5" y="-679.66" font-family="Times,serif" font-size="14.00">_LKJCholeskyCov</text>
</g>
<!-- genes_chol_cov_corr -->
<g id="node2" class="node">
<title>genes_chol_cov_corr</title>
<polygon fill="none" stroke="black" points="180.5,-602.91 48.5,-602.91 48.5,-549.91 180.5,-549.91 180.5,-602.91"/>
<text text-anchor="middle" x="114.5" y="-587.71" font-family="Times,serif" font-size="14.00">genes_chol_cov_corr</text>
<text text-anchor="middle" x="114.5" y="-572.71" font-family="Times,serif" font-size="14.00">~</text>
<text text-anchor="middle" x="114.5" y="-557.71" font-family="Times,serif" font-size="14.00">Deterministic</text>
</g>
<!-- genes_chol_cov&#45;&gt;genes_chol_cov_corr -->
<g id="edge1" class="edge">
<title>genes_chol_cov&#45;&gt;genes_chol_cov_corr</title>
<path fill="none" stroke="black" d="M306.23,-672.67C272.2,-658.68 229.56,-640.32 192.5,-621.88 183.9,-617.61 174.93,-612.81 166.25,-608"/>
<polygon fill="black" stroke="black" points="167.78,-604.84 157.35,-602.99 164.35,-610.94 167.78,-604.84"/>
</g>
<!-- genes_chol_cov_stds -->
<g id="node3" class="node">
<title>genes_chol_cov_stds</title>
<polygon fill="none" stroke="black" points="336,-602.91 205,-602.91 205,-549.91 336,-549.91 336,-602.91"/>
<text text-anchor="middle" x="270.5" y="-587.71" font-family="Times,serif" font-size="14.00">genes_chol_cov_stds</text>
<text text-anchor="middle" x="270.5" y="-572.71" font-family="Times,serif" font-size="14.00">~</text>
<text text-anchor="middle" x="270.5" y="-557.71" font-family="Times,serif" font-size="14.00">Deterministic</text>
</g>
<!-- genes_chol_cov&#45;&gt;genes_chol_cov_stds -->
<g id="edge2" class="edge">
<title>genes_chol_cov&#45;&gt;genes_chol_cov_stds</title>
<path fill="none" stroke="black" d="M340.42,-662.99C327.12,-646.71 311.3,-627.35 298.07,-611.16"/>
<polygon fill="black" stroke="black" points="300.46,-608.54 291.42,-603.01 295.04,-612.97 300.46,-608.54"/>
</g>
<!-- d -->
<g id="node15" class="node">
<title>d</title>
<polygon fill="none" stroke="black" points="670,-602.91 579,-602.91 579,-549.91 670,-549.91 670,-602.91"/>
<text text-anchor="middle" x="624.5" y="-587.71" font-family="Times,serif" font-size="14.00">d</text>
<text text-anchor="middle" x="624.5" y="-572.71" font-family="Times,serif" font-size="14.00">~</text>
<text text-anchor="middle" x="624.5" y="-557.71" font-family="Times,serif" font-size="14.00">Deterministic</text>
</g>
<!-- genes_chol_cov&#45;&gt;d -->
<g id="edge22" class="edge">
<title>genes_chol_cov&#45;&gt;d</title>
<path fill="none" stroke="black" d="M404.64,-664.26C421.08,-651.19 441.54,-637.49 462.5,-629.88 507.74,-613.46 525.83,-639.8 570.5,-621.88 578.03,-618.86 585.31,-614.39 591.95,-609.43"/>
<polygon fill="black" stroke="black" points="594.4,-611.95 600,-602.96 590.01,-606.5 594.4,-611.95"/>
</g>
<!-- b -->
<g id="node16" class="node">
<title>b</title>
<polygon fill="none" stroke="black" points="452,-602.91 361,-602.91 361,-549.91 452,-549.91 452,-602.91"/>
<text text-anchor="middle" x="406.5" y="-587.71" font-family="Times,serif" font-size="14.00">b</text>
<text text-anchor="middle" x="406.5" y="-572.71" font-family="Times,serif" font-size="14.00">~</text>
<text text-anchor="middle" x="406.5" y="-557.71" font-family="Times,serif" font-size="14.00">Deterministic</text>
</g>
<!-- genes_chol_cov&#45;&gt;b -->
<g id="edge17" class="edge">
<title>genes_chol_cov&#45;&gt;b</title>
<path fill="none" stroke="black" d="M380,-661.04C384.88,-645.66 390.54,-627.8 395.37,-612.54"/>
<polygon fill="black" stroke="black" points="398.73,-613.54 398.41,-602.95 392.05,-611.42 398.73,-613.54"/>
</g>
<!-- mu_a -->
<g id="node17" class="node">
<title>mu_a</title>
<polygon fill="none" stroke="black" points="779,-602.91 688,-602.91 688,-549.91 779,-549.91 779,-602.91"/>
<text text-anchor="middle" x="733.5" y="-587.71" font-family="Times,serif" font-size="14.00">mu_a</text>
<text text-anchor="middle" x="733.5" y="-572.71" font-family="Times,serif" font-size="14.00">~</text>
<text text-anchor="middle" x="733.5" y="-557.71" font-family="Times,serif" font-size="14.00">Deterministic</text>
</g>
<!-- genes_chol_cov&#45;&gt;mu_a -->
<g id="edge12" class="edge">
<title>genes_chol_cov&#45;&gt;mu_a</title>
<path fill="none" stroke="black" d="M404.06,-664.24C420.56,-650.99 441.21,-637.17 462.5,-629.88 508.16,-614.26 634.39,-639.01 679.5,-621.88 687.16,-618.97 694.54,-614.51 701.25,-609.5"/>
<polygon fill="black" stroke="black" points="703.77,-611.96 709.36,-602.96 699.38,-606.52 703.77,-611.96"/>
</g>
<!-- f -->
<g id="node18" class="node">
<title>f</title>
<polygon fill="none" stroke="black" points="561,-602.91 470,-602.91 470,-549.91 561,-549.91 561,-602.91"/>
<text text-anchor="middle" x="515.5" y="-587.71" font-family="Times,serif" font-size="14.00">f</text>
<text text-anchor="middle" x="515.5" y="-572.71" font-family="Times,serif" font-size="14.00">~</text>
<text text-anchor="middle" x="515.5" y="-557.71" font-family="Times,serif" font-size="14.00">Deterministic</text>
</g>
<!-- genes_chol_cov&#45;&gt;f -->
<g id="edge27" class="edge">
<title>genes_chol_cov&#45;&gt;f</title>
<path fill="none" stroke="black" d="M408.38,-665.1C424.85,-651.75 444.11,-636.1 461.5,-621.88 466.37,-617.9 471.49,-613.7 476.55,-609.55"/>
<polygon fill="black" stroke="black" points="478.91,-612.14 484.41,-603.08 474.46,-606.73 478.91,-612.14"/>
</g>
<!-- h -->
<g id="node19" class="node">
<title>h</title>
<polygon fill="none" stroke="black" points="1138,-602.91 1047,-602.91 1047,-549.91 1138,-549.91 1138,-602.91"/>
<text text-anchor="middle" x="1092.5" y="-587.71" font-family="Times,serif" font-size="14.00">h</text>
<text text-anchor="middle" x="1092.5" y="-572.71" font-family="Times,serif" font-size="14.00">~</text>
<text text-anchor="middle" x="1092.5" y="-557.71" font-family="Times,serif" font-size="14.00">Deterministic</text>
</g>
<!-- genes_chol_cov&#45;&gt;h -->
<g id="edge32" class="edge">
<title>genes_chol_cov&#45;&gt;h</title>
<path fill="none" stroke="black" d="M403.98,-664.01C420.47,-650.72 441.13,-636.92 462.5,-629.88 523.29,-609.86 978.41,-643.92 1038.5,-621.88 1046.2,-619.06 1053.59,-614.63 1060.3,-609.65"/>
<polygon fill="black" stroke="black" points="1062.83,-612.11 1068.41,-603.11 1058.43,-606.66 1062.83,-612.11"/>
</g>
<!-- sigma_b -->
<g id="node6" class="node">
<title>sigma_b</title>
<polygon fill="none" stroke="black" points="91,-502.91 0,-502.91 0,-449.91 91,-449.91 91,-502.91"/>
<text text-anchor="middle" x="45.5" y="-487.71" font-family="Times,serif" font-size="14.00">sigma_b</text>
<text text-anchor="middle" x="45.5" y="-472.71" font-family="Times,serif" font-size="14.00">~</text>
<text text-anchor="middle" x="45.5" y="-457.71" font-family="Times,serif" font-size="14.00">Deterministic</text>
</g>
<!-- genes_chol_cov_stds&#45;&gt;sigma_b -->
<g id="edge4" class="edge">
<title>genes_chol_cov_stds&#45;&gt;sigma_b</title>
<path fill="none" stroke="black" d="M243.06,-549.86C229,-538.34 210.99,-525.8 192.5,-518.91 154.04,-504.57 139.5,-523.7 100.5,-510.91 97.57,-509.94 94.63,-508.8 91.72,-507.52"/>
<polygon fill="black" stroke="black" points="93.08,-504.3 82.56,-503.06 90.01,-510.59 93.08,-504.3"/>
</g>
<!-- sigma_d -->
<g id="node7" class="node">
<title>sigma_d</title>
<polygon fill="none" stroke="black" points="200,-502.91 109,-502.91 109,-449.91 200,-449.91 200,-502.91"/>
<text text-anchor="middle" x="154.5" y="-487.71" font-family="Times,serif" font-size="14.00">sigma_d</text>
<text text-anchor="middle" x="154.5" y="-472.71" font-family="Times,serif" font-size="14.00">~</text>
<text text-anchor="middle" x="154.5" y="-457.71" font-family="Times,serif" font-size="14.00">Deterministic</text>
</g>
<!-- genes_chol_cov_stds&#45;&gt;sigma_d -->
<g id="edge5" class="edge">
<title>genes_chol_cov_stds&#45;&gt;sigma_d</title>
<path fill="none" stroke="black" d="M240.02,-549.66C225.5,-537.39 207.99,-522.6 192.6,-509.59"/>
<polygon fill="black" stroke="black" points="194.67,-506.76 184.77,-502.98 190.15,-512.11 194.67,-506.76"/>
</g>
<!-- sigma_f -->
<g id="node8" class="node">
<title>sigma_f</title>
<polygon fill="none" stroke="black" points="309,-502.91 218,-502.91 218,-449.91 309,-449.91 309,-502.91"/>
<text text-anchor="middle" x="263.5" y="-487.71" font-family="Times,serif" font-size="14.00">sigma_f</text>
<text text-anchor="middle" x="263.5" y="-472.71" font-family="Times,serif" font-size="14.00">~</text>
<text text-anchor="middle" x="263.5" y="-457.71" font-family="Times,serif" font-size="14.00">Deterministic</text>
</g>
<!-- genes_chol_cov_stds&#45;&gt;sigma_f -->
<g id="edge6" class="edge">
<title>genes_chol_cov_stds&#45;&gt;sigma_f</title>
<path fill="none" stroke="black" d="M268.66,-549.66C267.87,-538.52 266.92,-525.29 266.06,-513.21"/>
<polygon fill="black" stroke="black" points="269.53,-512.71 265.33,-502.98 262.55,-513.21 269.53,-512.71"/>
</g>
<!-- sigma_mu_a -->
<g id="node10" class="node">
<title>sigma_mu_a</title>
<polygon fill="none" stroke="black" points="418,-502.91 327,-502.91 327,-449.91 418,-449.91 418,-502.91"/>
<text text-anchor="middle" x="372.5" y="-487.71" font-family="Times,serif" font-size="14.00">sigma_mu_a</text>
<text text-anchor="middle" x="372.5" y="-472.71" font-family="Times,serif" font-size="14.00">~</text>
<text text-anchor="middle" x="372.5" y="-457.71" font-family="Times,serif" font-size="14.00">Deterministic</text>
</g>
<!-- genes_chol_cov_stds&#45;&gt;sigma_mu_a -->
<g id="edge3" class="edge">
<title>genes_chol_cov_stds&#45;&gt;sigma_mu_a</title>
<path fill="none" stroke="black" d="M297.3,-549.66C309.95,-537.5 325.18,-522.87 338.63,-509.95"/>
<polygon fill="black" stroke="black" points="341.09,-512.44 345.88,-502.98 336.24,-507.39 341.09,-512.44"/>
</g>
<!-- sigma_h -->
<g id="node13" class="node">
<title>sigma_h</title>
<polygon fill="none" stroke="black" points="527,-502.91 436,-502.91 436,-449.91 527,-449.91 527,-502.91"/>
<text text-anchor="middle" x="481.5" y="-487.71" font-family="Times,serif" font-size="14.00">sigma_h</text>
<text text-anchor="middle" x="481.5" y="-472.71" font-family="Times,serif" font-size="14.00">~</text>
<text text-anchor="middle" x="481.5" y="-457.71" font-family="Times,serif" font-size="14.00">Deterministic</text>
</g>
<!-- genes_chol_cov_stds&#45;&gt;sigma_h -->
<g id="edge7" class="edge">
<title>genes_chol_cov_stds&#45;&gt;sigma_h</title>
<path fill="none" stroke="black" d="M298.35,-549.68C312.35,-538.27 330.22,-525.87 348.5,-518.91 381.48,-506.35 394.09,-522.28 427.5,-510.91 430.38,-509.93 433.27,-508.77 436.13,-507.48"/>
<polygon fill="black" stroke="black" points="437.74,-510.59 445.13,-502.99 434.62,-504.32 437.74,-510.59"/>
</g>
<!-- mu_b -->
<g id="node4" class="node">
<title>mu_b</title>
<ellipse fill="none" stroke="black" cx="865.5" cy="-698.36" rx="41.94" ry="37.45"/>
<text text-anchor="middle" x="865.5" y="-709.66" font-family="Times,serif" font-size="14.00">mu_b</text>
<text text-anchor="middle" x="865.5" y="-694.66" font-family="Times,serif" font-size="14.00">~</text>
<text text-anchor="middle" x="865.5" y="-679.66" font-family="Times,serif" font-size="14.00">Normal</text>
</g>
<!-- mu_b&#45;&gt;d -->
<g id="edge18" class="edge">
<title>mu_b&#45;&gt;d</title>
<path fill="none" stroke="black" d="M850.03,-663.32C842.42,-650.59 831.96,-637.41 818.5,-629.88 791.5,-614.78 708.36,-633.04 679.5,-621.88 671.85,-618.93 664.45,-614.48 657.68,-609.53"/>
<polygon fill="black" stroke="black" points="659.5,-606.51 649.49,-603.06 655.17,-612.01 659.5,-606.51"/>
</g>
<!-- mu_b&#45;&gt;b -->
<g id="edge13" class="edge">
<title>mu_b&#45;&gt;b</title>
<path fill="none" stroke="black" d="M850.16,-663.09C842.57,-650.32 832.09,-637.17 818.5,-629.88 783.54,-611.13 498.75,-635.53 461.5,-621.88 453.72,-619.03 446.21,-614.59 439.39,-609.6"/>
<polygon fill="black" stroke="black" points="441.14,-606.52 431.13,-603.06 436.79,-612.01 441.14,-606.52"/>
</g>
<!-- mu_b&#45;&gt;mu_a -->
<g id="edge8" class="edge">
<title>mu_b&#45;&gt;mu_a</title>
<path fill="none" stroke="black" d="M848.42,-663.78C840.75,-651.58 830.65,-638.66 818.5,-629.88 808.35,-622.56 802.65,-627.56 791.5,-621.88 784.42,-618.28 777.34,-613.78 770.68,-609.04"/>
<polygon fill="black" stroke="black" points="772.61,-606.11 762.5,-602.95 768.43,-611.73 772.61,-606.11"/>
</g>
<!-- mu_b&#45;&gt;f -->
<g id="edge23" class="edge">
<title>mu_b&#45;&gt;f</title>
<path fill="none" stroke="black" d="M850.12,-663.15C842.53,-650.4 832.05,-637.24 818.5,-629.88 794.27,-616.73 596.34,-631.5 570.5,-621.88 562.73,-618.99 555.24,-614.54 548.41,-609.54"/>
<polygon fill="black" stroke="black" points="550.16,-606.46 540.15,-602.99 545.81,-611.95 550.16,-606.46"/>
</g>
<!-- mu_b&#45;&gt;h -->
<g id="edge28" class="edge">
<title>mu_b&#45;&gt;h</title>
<path fill="none" stroke="black" d="M904.12,-684.04C940.22,-670.79 994.92,-648.61 1038.5,-621.88 1044.48,-618.21 1050.51,-613.94 1056.27,-609.51"/>
<polygon fill="black" stroke="black" points="1058.83,-611.94 1064.47,-602.97 1054.47,-606.47 1058.83,-611.94"/>
</g>
<!-- mu_d -->
<g id="node5" class="node">
<title>mu_d</title>
<ellipse fill="none" stroke="black" cx="513.5" cy="-698.36" rx="41.94" ry="37.45"/>
<text text-anchor="middle" x="513.5" y="-709.66" font-family="Times,serif" font-size="14.00">mu_d</text>
<text text-anchor="middle" x="513.5" y="-694.66" font-family="Times,serif" font-size="14.00">~</text>
<text text-anchor="middle" x="513.5" y="-679.66" font-family="Times,serif" font-size="14.00">Normal</text>
</g>
<!-- mu_d&#45;&gt;d -->
<g id="edge20" class="edge">
<title>mu_d&#45;&gt;d</title>
<path fill="none" stroke="black" d="M535.08,-666.07C543.73,-654.29 554.09,-641.06 564.5,-629.88 570.87,-623.04 578.06,-616.15 585.19,-609.72"/>
<polygon fill="black" stroke="black" points="587.68,-612.19 592.86,-602.95 583.05,-606.95 587.68,-612.19"/>
</g>
<!-- mu_d&#45;&gt;b -->
<g id="edge15" class="edge">
<title>mu_d&#45;&gt;b</title>
<path fill="none" stroke="black" d="M492.92,-665.33C484.9,-653.73 475.29,-640.8 465.5,-629.88 459.38,-623.06 452.44,-616.23 445.52,-609.85"/>
<polygon fill="black" stroke="black" points="447.83,-607.22 438.05,-603.13 443.14,-612.42 447.83,-607.22"/>
</g>
<!-- mu_d&#45;&gt;mu_a -->
<g id="edge10" class="edge">
<title>mu_d&#45;&gt;mu_a</title>
<path fill="none" stroke="black" d="M530.49,-664.06C538.88,-651.12 550.3,-637.58 564.5,-629.88 587.02,-617.68 655.7,-631.37 679.5,-621.88 687.04,-618.88 694.32,-614.42 700.96,-609.46"/>
<polygon fill="black" stroke="black" points="703.41,-611.98 709.01,-602.99 699.02,-606.53 703.41,-611.98"/>
</g>
<!-- mu_d&#45;&gt;f -->
<g id="edge25" class="edge">
<title>mu_d&#45;&gt;f</title>
<path fill="none" stroke="black" d="M514.11,-660.72C514.36,-645.75 514.65,-628.48 514.9,-613.56"/>
<polygon fill="black" stroke="black" points="518.4,-613.24 515.07,-603.18 511.4,-613.12 518.4,-613.24"/>
</g>
<!-- mu_d&#45;&gt;h -->
<g id="edge30" class="edge">
<title>mu_d&#45;&gt;h</title>
<path fill="none" stroke="black" d="M530.29,-663.69C538.66,-650.69 550.1,-637.2 564.5,-629.88 587.98,-617.95 1013.79,-630.99 1038.5,-621.88 1046.19,-619.05 1053.58,-614.62 1060.3,-609.63"/>
<polygon fill="black" stroke="black" points="1062.82,-612.09 1068.41,-603.09 1058.43,-606.64 1062.82,-612.09"/>
</g>
<!-- mu_mu_a -->
<g id="node9" class="node">
<title>mu_mu_a</title>
<ellipse fill="none" stroke="black" cx="624.5" cy="-698.36" rx="50.82" ry="37.45"/>
<text text-anchor="middle" x="624.5" y="-709.66" font-family="Times,serif" font-size="14.00">mu_mu_a</text>
<text text-anchor="middle" x="624.5" y="-694.66" font-family="Times,serif" font-size="14.00">~</text>
<text text-anchor="middle" x="624.5" y="-679.66" font-family="Times,serif" font-size="14.00">Normal</text>
</g>
<!-- mu_mu_a&#45;&gt;d -->
<g id="edge19" class="edge">
<title>mu_mu_a&#45;&gt;d</title>
<path fill="none" stroke="black" d="M624.5,-660.72C624.5,-645.75 624.5,-628.48 624.5,-613.56"/>
<polygon fill="black" stroke="black" points="628,-613.18 624.5,-603.18 621,-613.18 628,-613.18"/>
</g>
<!-- mu_mu_a&#45;&gt;b -->
<g id="edge14" class="edge">
<title>mu_mu_a&#45;&gt;b</title>
<path fill="none" stroke="black" d="M603.28,-664.03C593.2,-651.09 579.95,-637.55 564.5,-629.88 523.37,-609.47 504.16,-638.86 461.5,-621.88 453.88,-618.85 446.49,-614.37 439.73,-609.41"/>
<polygon fill="black" stroke="black" points="441.55,-606.39 431.54,-602.94 437.21,-611.88 441.55,-606.39"/>
</g>
<!-- mu_mu_a&#45;&gt;mu_a -->
<g id="edge9" class="edge">
<title>mu_mu_a&#45;&gt;mu_a</title>
<path fill="none" stroke="black" d="M649.81,-665.57C659.21,-654.12 670.11,-641.22 680.5,-629.88 686.41,-623.43 692.89,-616.73 699.23,-610.36"/>
<polygon fill="black" stroke="black" points="701.94,-612.6 706.57,-603.07 697.01,-607.64 701.94,-612.6"/>
</g>
<!-- mu_mu_a&#45;&gt;f -->
<g id="edge24" class="edge">
<title>mu_mu_a&#45;&gt;f</title>
<path fill="none" stroke="black" d="M597.18,-666.31C586.98,-654.81 575.27,-641.7 564.5,-629.88 558.71,-623.53 552.48,-616.78 546.47,-610.33"/>
<polygon fill="black" stroke="black" points="548.93,-607.84 539.55,-602.91 543.81,-612.61 548.93,-607.84"/>
</g>
<!-- mu_mu_a&#45;&gt;h -->
<g id="edge29" class="edge">
<title>mu_mu_a&#45;&gt;h</title>
<path fill="none" stroke="black" d="M643.91,-663.31C653.19,-650.41 665.56,-637.1 680.5,-629.88 716.32,-612.57 1001.2,-635.74 1038.5,-621.88 1046.19,-619.03 1053.57,-614.59 1060.28,-609.59"/>
<polygon fill="black" stroke="black" points="1062.81,-612.05 1068.39,-603.05 1058.41,-606.61 1062.81,-612.05"/>
</g>
<!-- sigma_a -->
<g id="node11" class="node">
<title>sigma_a</title>
<ellipse fill="none" stroke="black" cx="970.5" cy="-576.41" rx="58.88" ry="37.45"/>
<text text-anchor="middle" x="970.5" y="-587.71" font-family="Times,serif" font-size="14.00">sigma_a</text>
<text text-anchor="middle" x="970.5" y="-572.71" font-family="Times,serif" font-size="14.00">~</text>
<text text-anchor="middle" x="970.5" y="-557.71" font-family="Times,serif" font-size="14.00">HalfNormal</text>
</g>
<!-- a -->
<g id="node20" class="node">
<title>a</title>
<polygon fill="none" stroke="black" points="895,-502.91 804,-502.91 804,-449.91 895,-449.91 895,-502.91"/>
<text text-anchor="middle" x="849.5" y="-487.71" font-family="Times,serif" font-size="14.00">a</text>
<text text-anchor="middle" x="849.5" y="-472.71" font-family="Times,serif" font-size="14.00">~</text>
<text text-anchor="middle" x="849.5" y="-457.71" font-family="Times,serif" font-size="14.00">Deterministic</text>
</g>
<!-- sigma_a&#45;&gt;a -->
<g id="edge35" class="edge">
<title>sigma_a&#45;&gt;a</title>
<path fill="none" stroke="black" d="M938.07,-545.09C928.42,-536.41 917.7,-527.09 907.5,-518.91 903.44,-515.65 899.15,-512.34 894.81,-509.09"/>
<polygon fill="black" stroke="black" points="896.59,-506.05 886.46,-502.93 892.43,-511.68 896.59,-506.05"/>
</g>
<!-- alpha -->
<g id="node12" class="node">
<title>alpha</title>
<ellipse fill="none" stroke="black" cx="769.5" cy="-187.43" rx="57.97" ry="37.45"/>
<text text-anchor="middle" x="769.5" y="-198.73" font-family="Times,serif" font-size="14.00">alpha</text>
<text text-anchor="middle" x="769.5" y="-183.73" font-family="Times,serif" font-size="14.00">~</text>
<text text-anchor="middle" x="769.5" y="-168.73" font-family="Times,serif" font-size="14.00">Exponential</text>
</g>
<!-- ct_final -->
<g id="node25" class="node">
<title>ct_final</title>
<ellipse fill="lightgrey" stroke="black" cx="631.5" cy="-76.48" rx="63.78" ry="37.45"/>
<text text-anchor="middle" x="631.5" y="-87.78" font-family="Times,serif" font-size="14.00">ct_final</text>
<text text-anchor="middle" x="631.5" y="-72.78" font-family="Times,serif" font-size="14.00">~</text>
<text text-anchor="middle" x="631.5" y="-57.78" font-family="Times,serif" font-size="14.00">NegBinomial</text>
</g>
<!-- alpha&#45;&gt;ct_final -->
<g id="edge44" class="edge">
<title>alpha&#45;&gt;ct_final</title>
<path fill="none" stroke="black" d="M733.24,-157.8C716.07,-144.24 695.37,-127.9 677.14,-113.51"/>
<polygon fill="black" stroke="black" points="678.98,-110.5 668.96,-107.05 674.64,-115.99 678.98,-110.5"/>
</g>
<!-- delta_genes -->
<g id="node14" class="node">
<title>delta_genes</title>
<ellipse fill="none" stroke="black" cx="749.5" cy="-698.36" rx="56.64" ry="37.45"/>
<text text-anchor="middle" x="749.5" y="-709.66" font-family="Times,serif" font-size="14.00">delta_genes</text>
<text text-anchor="middle" x="749.5" y="-694.66" font-family="Times,serif" font-size="14.00">~</text>
<text text-anchor="middle" x="749.5" y="-679.66" font-family="Times,serif" font-size="14.00">Normal</text>
</g>
<!-- delta_genes&#45;&gt;d -->
<g id="edge21" class="edge">
<title>delta_genes&#45;&gt;d</title>
<path fill="none" stroke="black" d="M720.27,-665.91C709.27,-654.37 696.51,-641.33 684.5,-629.88 677.58,-623.29 670.04,-616.44 662.7,-609.95"/>
<polygon fill="black" stroke="black" points="664.68,-607.03 654.86,-603.07 660.07,-612.3 664.68,-607.03"/>
</g>
<!-- delta_genes&#45;&gt;b -->
<g id="edge16" class="edge">
<title>delta_genes&#45;&gt;b</title>
<path fill="none" stroke="black" d="M726.43,-664.03C715.4,-650.91 700.99,-637.25 684.5,-629.88 639.22,-609.66 507.94,-639.26 461.5,-621.88 453.74,-618.98 446.24,-614.51 439.42,-609.51"/>
<polygon fill="black" stroke="black" points="441.17,-606.44 431.16,-602.97 436.82,-611.92 441.17,-606.44"/>
</g>
<!-- delta_genes&#45;&gt;mu_a -->
<g id="edge11" class="edge">
<title>delta_genes&#45;&gt;mu_a</title>
<path fill="none" stroke="black" d="M744.61,-660.72C742.6,-645.6 740.27,-628.15 738.26,-613.13"/>
<polygon fill="black" stroke="black" points="741.73,-612.63 736.94,-603.18 734.79,-613.56 741.73,-612.63"/>
</g>
<!-- delta_genes&#45;&gt;f -->
<g id="edge26" class="edge">
<title>delta_genes&#45;&gt;f</title>
<path fill="none" stroke="black" d="M726.01,-663.94C714.99,-650.98 700.71,-637.46 684.5,-629.88 638.48,-608.38 617.76,-640.49 570.5,-621.88 562.87,-618.88 555.47,-614.41 548.71,-609.46"/>
<polygon fill="black" stroke="black" points="550.54,-606.44 540.52,-602.98 546.2,-611.93 550.54,-606.44"/>
</g>
<!-- delta_genes&#45;&gt;h -->
<g id="edge31" class="edge">
<title>delta_genes&#45;&gt;h</title>
<path fill="none" stroke="black" d="M772.57,-664.02C783.6,-650.91 798.01,-637.24 814.5,-629.88 859.98,-609.58 991.92,-639.54 1038.5,-621.88 1046.17,-618.98 1053.54,-614.51 1060.25,-609.51"/>
<polygon fill="black" stroke="black" points="1062.78,-611.97 1068.36,-602.97 1058.38,-606.52 1062.78,-611.97"/>
</g>
<!-- gene_effect -->
<g id="node24" class="node">
<title>gene_effect</title>
<polygon fill="none" stroke="black" points="677,-402.91 586,-402.91 586,-349.91 677,-349.91 677,-402.91"/>
<text text-anchor="middle" x="631.5" y="-387.71" font-family="Times,serif" font-size="14.00">gene_effect</text>
<text text-anchor="middle" x="631.5" y="-372.71" font-family="Times,serif" font-size="14.00">~</text>
<text text-anchor="middle" x="631.5" y="-357.71" font-family="Times,serif" font-size="14.00">Deterministic</text>
</g>
<!-- d&#45;&gt;gene_effect -->
<g id="edge38" class="edge">
<title>d&#45;&gt;gene_effect</title>
<path fill="none" stroke="black" d="M625.42,-549.52C626.65,-514.67 628.85,-452.49 630.24,-413.18"/>
<polygon fill="black" stroke="black" points="633.74,-413.1 630.6,-402.98 626.74,-412.85 633.74,-413.1"/>
</g>
<!-- b&#45;&gt;gene_effect -->
<g id="edge39" class="edge">
<title>b&#45;&gt;gene_effect</title>
<path fill="none" stroke="black" d="M424.78,-549.69C434.35,-538.28 447.08,-525.88 461.5,-518.91 477.19,-511.32 525.94,-521.85 539.5,-510.91 572.97,-483.9 543.54,-453.19 569.5,-418.91 572.05,-415.54 574.96,-412.35 578.09,-409.36"/>
<polygon fill="black" stroke="black" points="580.48,-411.93 585.74,-402.73 575.89,-406.63 580.48,-411.93"/>
</g>
<!-- mu_a&#45;&gt;a -->
<g id="edge34" class="edge">
<title>mu_a&#45;&gt;a</title>
<path fill="none" stroke="black" d="M758.13,-549.79C768.16,-539.8 780.07,-528.47 791.5,-518.91 795.44,-515.61 799.62,-512.3 803.86,-509.06"/>
<polygon fill="black" stroke="black" points="806.14,-511.73 812.05,-502.94 801.95,-506.12 806.14,-511.73"/>
</g>
<!-- f&#45;&gt;gene_effect -->
<g id="edge40" class="edge">
<title>f&#45;&gt;gene_effect</title>
<path fill="none" stroke="black" d="M539.75,-549.63C549.71,-538.28 560.89,-524.47 569.5,-510.91 589.6,-479.26 607.02,-440.04 618.24,-412.33"/>
<polygon fill="black" stroke="black" points="621.49,-413.62 621.94,-403.03 614.99,-411.03 621.49,-413.62"/>
</g>
<!-- h&#45;&gt;gene_effect -->
<g id="edge37" class="edge">
<title>h&#45;&gt;gene_effect</title>
<path fill="none" stroke="black" d="M1071.44,-549.72C1040.01,-513.45 977.03,-448.36 907.5,-418.91 835.67,-388.49 745.04,-379.91 687.66,-377.74"/>
<polygon fill="black" stroke="black" points="687.45,-374.23 677.34,-377.41 687.22,-381.23 687.45,-374.23"/>
</g>
<!-- a&#45;&gt;gene_effect -->
<g id="edge36" class="edge">
<title>a&#45;&gt;gene_effect</title>
<path fill="none" stroke="black" d="M803.8,-454.86C769.65,-439.51 722.8,-418.45 686.58,-402.17"/>
<polygon fill="black" stroke="black" points="687.7,-398.83 677.14,-397.92 684.83,-405.22 687.7,-398.83"/>
</g>
<!-- delta_a -->
<g id="node21" class="node">
<title>delta_a</title>
<ellipse fill="none" stroke="black" cx="849.5" cy="-576.41" rx="41.94" ry="37.45"/>
<text text-anchor="middle" x="849.5" y="-587.71" font-family="Times,serif" font-size="14.00">delta_a</text>
<text text-anchor="middle" x="849.5" y="-572.71" font-family="Times,serif" font-size="14.00">~</text>
<text text-anchor="middle" x="849.5" y="-557.71" font-family="Times,serif" font-size="14.00">Normal</text>
</g>
<!-- delta_a&#45;&gt;a -->
<g id="edge33" class="edge">
<title>delta_a&#45;&gt;a</title>
<path fill="none" stroke="black" d="M849.5,-538.92C849.5,-530.5 849.5,-521.55 849.5,-513.16"/>
<polygon fill="black" stroke="black" points="853,-512.92 849.5,-502.92 846,-512.92 853,-512.92"/>
</g>
<!-- mu -->
<g id="node22" class="node">
<title>mu</title>
<polygon fill="none" stroke="black" points="677,-213.93 586,-213.93 586,-160.93 677,-160.93 677,-213.93"/>
<text text-anchor="middle" x="631.5" y="-198.73" font-family="Times,serif" font-size="14.00">mu</text>
<text text-anchor="middle" x="631.5" y="-183.73" font-family="Times,serif" font-size="14.00">~</text>
<text text-anchor="middle" x="631.5" y="-168.73" font-family="Times,serif" font-size="14.00">Deterministic</text>
</g>
<!-- mu&#45;&gt;ct_final -->
<g id="edge43" class="edge">
<title>mu&#45;&gt;ct_final</title>
<path fill="none" stroke="black" d="M631.5,-160.89C631.5,-149.98 631.5,-136.89 631.5,-124.35"/>
<polygon fill="black" stroke="black" points="635,-124 631.5,-114 628,-124 635,-124"/>
</g>
<!-- eta -->
<g id="node23" class="node">
<title>eta</title>
<polygon fill="none" stroke="black" points="677,-313.91 586,-313.91 586,-260.91 677,-260.91 677,-313.91"/>
<text text-anchor="middle" x="631.5" y="-298.71" font-family="Times,serif" font-size="14.00">eta</text>
<text text-anchor="middle" x="631.5" y="-283.71" font-family="Times,serif" font-size="14.00">~</text>
<text text-anchor="middle" x="631.5" y="-268.71" font-family="Times,serif" font-size="14.00">Deterministic</text>
</g>
<!-- eta&#45;&gt;mu -->
<g id="edge42" class="edge">
<title>eta&#45;&gt;mu</title>
<path fill="none" stroke="black" d="M631.5,-260.66C631.5,-249.53 631.5,-236.3 631.5,-224.23"/>
<polygon fill="black" stroke="black" points="635,-224 631.5,-214 628,-224 635,-224"/>
</g>
<!-- gene_effect&#45;&gt;eta -->
<g id="edge41" class="edge">
<title>gene_effect&#45;&gt;eta</title>
<path fill="none" stroke="black" d="M631.5,-349.77C631.5,-341.79 631.5,-332.84 631.5,-324.29"/>
<polygon fill="black" stroke="black" points="635,-324.16 631.5,-314.16 628,-324.16 635,-324.16"/>
</g>
</g>
</svg>
