<?xml version="1.0" encoding="UTF-8" standalone="no"?>
<!DOCTYPE svg PUBLIC "-//W3C//DTD SVG 1.1//EN"
 "http://www.w3.org/Graphics/SVG/1.1/DTD/svg11.dtd">
<!-- Generated by graphviz version 2.47.0 (20210316.1410)
 -->
<!-- Pages: 1 -->
<svg width="867pt" height="702pt"
 viewBox="0.00 0.00 866.58 701.72" xmlns="http://www.w3.org/2000/svg" xmlns:xlink="http://www.w3.org/1999/xlink">
<g id="graph0" class="graph" transform="scale(1 1) rotate(0) translate(4 697.72)">
<polygon fill="white" stroke="transparent" points="-4,4 -4,-697.72 862.58,-697.72 862.58,4 -4,4"/>
<g id="clust1" class="cluster">
<title>cluster2</title>
<path fill="none" stroke="black" d="M540.79,-476.81C540.79,-476.81 786.79,-476.81 786.79,-476.81 792.79,-476.81 798.79,-482.81 798.79,-488.81 798.79,-488.81 798.79,-578.77 798.79,-578.77 798.79,-584.77 792.79,-590.77 786.79,-590.77 786.79,-590.77 540.79,-590.77 540.79,-590.77 534.79,-590.77 528.79,-584.77 528.79,-578.77 528.79,-578.77 528.79,-488.81 528.79,-488.81 528.79,-482.81 534.79,-476.81 540.79,-476.81"/>
<text text-anchor="middle" x="785.79" y="-484.61" font-family="Times-Roman" font-size="14.00">2</text>
</g>
<g id="clust2" class="cluster">
<title>cluster997 x 2</title>
<path fill="none" stroke="black" d="M548.79,-354.86C548.79,-354.86 682.79,-354.86 682.79,-354.86 688.79,-354.86 694.79,-360.86 694.79,-366.86 694.79,-366.86 694.79,-456.81 694.79,-456.81 694.79,-462.81 688.79,-468.81 682.79,-468.81 682.79,-468.81 548.79,-468.81 548.79,-468.81 542.79,-468.81 536.79,-462.81 536.79,-456.81 536.79,-456.81 536.79,-366.86 536.79,-366.86 536.79,-360.86 542.79,-354.86 548.79,-354.86"/>
<text text-anchor="middle" x="659.79" y="-362.66" font-family="Times-Roman" font-size="14.00">997 x 2</text>
</g>
<g id="clust3" class="cluster">
<title>cluster3,957</title>
<path fill="none" stroke="black" d="M569.79,-232.91C569.79,-232.91 631.79,-232.91 631.79,-232.91 637.79,-232.91 643.79,-238.91 643.79,-244.91 643.79,-244.91 643.79,-334.86 643.79,-334.86 643.79,-340.86 637.79,-346.86 631.79,-346.86 631.79,-346.86 569.79,-346.86 569.79,-346.86 563.79,-346.86 557.79,-340.86 557.79,-334.86 557.79,-334.86 557.79,-244.91 557.79,-244.91 557.79,-238.91 563.79,-232.91 569.79,-232.91"/>
<text text-anchor="middle" x="615.29" y="-240.71" font-family="Times-Roman" font-size="14.00">3,957</text>
</g>
<g id="clust4" class="cluster">
<title>cluster997</title>
<path fill="none" stroke="black" d="M139.79,-232.91C139.79,-232.91 229.79,-232.91 229.79,-232.91 235.79,-232.91 241.79,-238.91 241.79,-244.91 241.79,-244.91 241.79,-334.86 241.79,-334.86 241.79,-340.86 235.79,-346.86 229.79,-346.86 229.79,-346.86 139.79,-346.86 139.79,-346.86 133.79,-346.86 127.79,-340.86 127.79,-334.86 127.79,-334.86 127.79,-244.91 127.79,-244.91 127.79,-238.91 133.79,-232.91 139.79,-232.91"/>
<text text-anchor="middle" x="219.79" y="-240.71" font-family="Times-Roman" font-size="14.00">997</text>
</g>
<g id="clust5" class="cluster">
<title>cluster997 x 36</title>
<path fill="none" stroke="black" d="M432.79,-232.91C432.79,-232.91 522.79,-232.91 522.79,-232.91 528.79,-232.91 534.79,-238.91 534.79,-244.91 534.79,-244.91 534.79,-334.86 534.79,-334.86 534.79,-340.86 528.79,-346.86 522.79,-346.86 522.79,-346.86 432.79,-346.86 432.79,-346.86 426.79,-346.86 420.79,-340.86 420.79,-334.86 420.79,-334.86 420.79,-244.91 420.79,-244.91 420.79,-238.91 426.79,-232.91 432.79,-232.91"/>
<text text-anchor="middle" x="495.29" y="-240.71" font-family="Times-Roman" font-size="14.00">997 x 36</text>
</g>
<g id="clust6" class="cluster">
<title>cluster349,184</title>
<path fill="none" stroke="black" d="M486.79,-8C486.79,-8 590.79,-8 590.79,-8 596.79,-8 602.79,-14 602.79,-20 602.79,-20 602.79,-209.93 602.79,-209.93 602.79,-215.93 596.79,-221.93 590.79,-221.93 590.79,-221.93 486.79,-221.93 486.79,-221.93 480.79,-221.93 474.79,-215.93 474.79,-209.93 474.79,-209.93 474.79,-20 474.79,-20 474.79,-14 480.79,-8 486.79,-8"/>
<text text-anchor="middle" x="565.29" y="-15.8" font-family="Times-Roman" font-size="14.00">349,184</text>
</g>
<!-- σ_a -->
<g id="node1" class="node">
<title>σ_a</title>
<ellipse fill="none" stroke="black" cx="605.79" cy="-545.29" rx="69.09" ry="37.45"/>
<text text-anchor="middle" x="605.79" y="-556.59" font-family="Times-Roman" font-size="14.00">σ_a</text>
<text text-anchor="middle" x="605.79" y="-541.59" font-family="Times-Roman" font-size="14.00">~</text>
<text text-anchor="middle" x="605.79" y="-526.59" font-family="Times-Roman" font-size="14.00">HalfNormal</text>
</g>
<!-- a -->
<g id="node3" class="node">
<title>a</title>
<ellipse fill="none" stroke="black" cx="615.79" cy="-423.34" rx="71.34" ry="37.45"/>
<text text-anchor="middle" x="615.79" y="-434.64" font-family="Times-Roman" font-size="14.00">a</text>
<text text-anchor="middle" x="615.79" y="-419.64" font-family="Times-Roman" font-size="14.00">~</text>
<text text-anchor="middle" x="615.79" y="-404.64" font-family="Times-Roman" font-size="14.00">Exponential</text>
</g>
<!-- σ_a&#45;&gt;a -->
<g id="edge1" class="edge">
<title>σ_a&#45;&gt;a</title>
<path fill="none" stroke="black" d="M608.85,-507.65C609.8,-496.24 610.86,-483.51 611.86,-471.49"/>
<polygon fill="black" stroke="black" points="615.38,-471.42 612.72,-461.17 608.4,-470.84 615.38,-471.42"/>
</g>
<!-- η -->
<g id="node2" class="node">
<title>η</title>
<ellipse fill="none" stroke="black" cx="741.79" cy="-545.29" rx="48.58" ry="37.45"/>
<text text-anchor="middle" x="741.79" y="-556.59" font-family="Times-Roman" font-size="14.00">η</text>
<text text-anchor="middle" x="741.79" y="-541.59" font-family="Times-Roman" font-size="14.00">~</text>
<text text-anchor="middle" x="741.79" y="-526.59" font-family="Times-Roman" font-size="14.00">Normal</text>
</g>
<!-- μ -->
<g id="node15" class="node">
<title>μ</title>
<polygon fill="none" stroke="black" points="594.79,-213.93 482.79,-213.93 482.79,-160.93 594.79,-160.93 594.79,-213.93"/>
<text text-anchor="middle" x="538.79" y="-198.73" font-family="Times-Roman" font-size="14.00">μ</text>
<text text-anchor="middle" x="538.79" y="-183.73" font-family="Times-Roman" font-size="14.00">~</text>
<text text-anchor="middle" x="538.79" y="-168.73" font-family="Times-Roman" font-size="14.00">Deterministic</text>
</g>
<!-- η&#45;&gt;μ -->
<g id="edge12" class="edge">
<title>η&#45;&gt;μ</title>
<path fill="none" stroke="black" d="M741.45,-507.68C738.82,-443.02 723.88,-308.34 647.79,-232.91 635.83,-221.05 620.28,-212.22 604.68,-205.69"/>
<polygon fill="black" stroke="black" points="605.59,-202.29 595,-201.92 603.05,-208.81 605.59,-202.29"/>
</g>
<!-- q -->
<g id="node11" class="node">
<title>q</title>
<ellipse fill="none" stroke="black" cx="600.79" cy="-301.38" rx="35.21" ry="37.45"/>
<text text-anchor="middle" x="600.79" y="-312.68" font-family="Times-Roman" font-size="14.00">q</text>
<text text-anchor="middle" x="600.79" y="-297.68" font-family="Times-Roman" font-size="14.00">~</text>
<text text-anchor="middle" x="600.79" y="-282.68" font-family="Times-Roman" font-size="14.00">Beta</text>
</g>
<!-- a&#45;&gt;q -->
<g id="edge2" class="edge">
<title>a&#45;&gt;q</title>
<path fill="none" stroke="black" d="M611.21,-385.69C609.75,-374.07 608.13,-361.06 606.6,-348.83"/>
<polygon fill="black" stroke="black" points="610.06,-348.29 605.34,-338.8 603.11,-349.16 610.06,-348.29"/>
</g>
<!-- σ_d -->
<g id="node4" class="node">
<title>σ_d</title>
<ellipse fill="none" stroke="black" cx="341.79" cy="-423.34" rx="69.09" ry="37.45"/>
<text text-anchor="middle" x="341.79" y="-434.64" font-family="Times-Roman" font-size="14.00">σ_d</text>
<text text-anchor="middle" x="341.79" y="-419.64" font-family="Times-Roman" font-size="14.00">~</text>
<text text-anchor="middle" x="341.79" y="-404.64" font-family="Times-Roman" font-size="14.00">HalfNormal</text>
</g>
<!-- d -->
<g id="node13" class="node">
<title>d</title>
<ellipse fill="none" stroke="black" cx="477.79" cy="-301.38" rx="48.58" ry="37.45"/>
<text text-anchor="middle" x="477.79" y="-312.68" font-family="Times-Roman" font-size="14.00">d</text>
<text text-anchor="middle" x="477.79" y="-297.68" font-family="Times-Roman" font-size="14.00">~</text>
<text text-anchor="middle" x="477.79" y="-282.68" font-family="Times-Roman" font-size="14.00">Normal</text>
</g>
<!-- σ_d&#45;&gt;d -->
<g id="edge5" class="edge">
<title>σ_d&#45;&gt;d</title>
<path fill="none" stroke="black" d="M377.52,-390.82C396.2,-374.35 419.1,-354.15 438.3,-337.21"/>
<polygon fill="black" stroke="black" points="440.82,-339.66 446.01,-330.42 436.19,-334.41 440.82,-339.66"/>
</g>
<!-- σ -->
<g id="node5" class="node">
<title>σ</title>
<ellipse fill="none" stroke="black" cx="395.79" cy="-187.43" rx="69.09" ry="37.45"/>
<text text-anchor="middle" x="395.79" y="-198.73" font-family="Times-Roman" font-size="14.00">σ</text>
<text text-anchor="middle" x="395.79" y="-183.73" font-family="Times-Roman" font-size="14.00">~</text>
<text text-anchor="middle" x="395.79" y="-168.73" font-family="Times-Roman" font-size="14.00">HalfNormal</text>
</g>
<!-- lfc -->
<g id="node14" class="node">
<title>lfc</title>
<ellipse fill="lightgrey" stroke="black" cx="534.79" cy="-76.48" rx="48.58" ry="37.45"/>
<text text-anchor="middle" x="534.79" y="-87.78" font-family="Times-Roman" font-size="14.00">lfc</text>
<text text-anchor="middle" x="534.79" y="-72.78" font-family="Times-Roman" font-size="14.00">~</text>
<text text-anchor="middle" x="534.79" y="-57.78" font-family="Times-Roman" font-size="14.00">Normal</text>
</g>
<!-- σ&#45;&gt;lfc -->
<g id="edge14" class="edge">
<title>σ&#45;&gt;lfc</title>
<path fill="none" stroke="black" d="M434.51,-156.08C452.7,-141.82 474.42,-124.79 492.99,-110.24"/>
<polygon fill="black" stroke="black" points="495.29,-112.88 501,-103.96 490.97,-107.37 495.29,-112.88"/>
</g>
<!-- σ_η -->
<g id="node6" class="node">
<title>σ_η</title>
<ellipse fill="none" stroke="black" cx="673.79" cy="-656.24" rx="69.09" ry="37.45"/>
<text text-anchor="middle" x="673.79" y="-667.54" font-family="Times-Roman" font-size="14.00">σ_η</text>
<text text-anchor="middle" x="673.79" y="-652.54" font-family="Times-Roman" font-size="14.00">~</text>
<text text-anchor="middle" x="673.79" y="-637.54" font-family="Times-Roman" font-size="14.00">HalfNormal</text>
</g>
<!-- σ_η&#45;&gt;η -->
<g id="edge8" class="edge">
<title>σ_η&#45;&gt;η</title>
<path fill="none" stroke="black" d="M695.49,-620.47C701.87,-610.25 708.91,-598.97 715.54,-588.35"/>
<polygon fill="black" stroke="black" points="718.66,-589.96 720.99,-579.62 712.73,-586.25 718.66,-589.96"/>
</g>
<!-- μ_h -->
<g id="node7" class="node">
<title>μ_h</title>
<ellipse fill="none" stroke="black" cx="48.79" cy="-423.34" rx="48.58" ry="37.45"/>
<text text-anchor="middle" x="48.79" y="-434.64" font-family="Times-Roman" font-size="14.00">μ_h</text>
<text text-anchor="middle" x="48.79" y="-419.64" font-family="Times-Roman" font-size="14.00">~</text>
<text text-anchor="middle" x="48.79" y="-404.64" font-family="Times-Roman" font-size="14.00">Normal</text>
</g>
<!-- h -->
<g id="node12" class="node">
<title>h</title>
<ellipse fill="none" stroke="black" cx="184.79" cy="-301.38" rx="48.58" ry="37.45"/>
<text text-anchor="middle" x="184.79" y="-312.68" font-family="Times-Roman" font-size="14.00">h</text>
<text text-anchor="middle" x="184.79" y="-297.68" font-family="Times-Roman" font-size="14.00">~</text>
<text text-anchor="middle" x="184.79" y="-282.68" font-family="Times-Roman" font-size="14.00">Normal</text>
</g>
<!-- μ_h&#45;&gt;h -->
<g id="edge4" class="edge">
<title>μ_h&#45;&gt;h</title>
<path fill="none" stroke="black" d="M73.15,-390.51C82.96,-378.67 94.78,-365.53 106.79,-354.86 116.42,-346.31 127.52,-338.04 138.27,-330.7"/>
<polygon fill="black" stroke="black" points="140.41,-333.48 146.79,-325.02 136.53,-327.65 140.41,-333.48"/>
</g>
<!-- μ_η -->
<g id="node8" class="node">
<title>μ_η</title>
<ellipse fill="none" stroke="black" cx="809.79" cy="-656.24" rx="48.58" ry="37.45"/>
<text text-anchor="middle" x="809.79" y="-667.54" font-family="Times-Roman" font-size="14.00">μ_η</text>
<text text-anchor="middle" x="809.79" y="-652.54" font-family="Times-Roman" font-size="14.00">~</text>
<text text-anchor="middle" x="809.79" y="-637.54" font-family="Times-Roman" font-size="14.00">Normal</text>
</g>
<!-- μ_η&#45;&gt;η -->
<g id="edge7" class="edge">
<title>μ_η&#45;&gt;η</title>
<path fill="none" stroke="black" d="M789.2,-622.26C782.54,-611.58 775.06,-599.6 768.04,-588.36"/>
<polygon fill="black" stroke="black" points="770.81,-586.17 762.54,-579.54 764.87,-589.88 770.81,-586.17"/>
</g>
<!-- μ_d -->
<g id="node9" class="node">
<title>μ_d</title>
<ellipse fill="none" stroke="black" cx="477.79" cy="-423.34" rx="48.58" ry="37.45"/>
<text text-anchor="middle" x="477.79" y="-434.64" font-family="Times-Roman" font-size="14.00">μ_d</text>
<text text-anchor="middle" x="477.79" y="-419.64" font-family="Times-Roman" font-size="14.00">~</text>
<text text-anchor="middle" x="477.79" y="-404.64" font-family="Times-Roman" font-size="14.00">Normal</text>
</g>
<!-- μ_d&#45;&gt;d -->
<g id="edge6" class="edge">
<title>μ_d&#45;&gt;d</title>
<path fill="none" stroke="black" d="M477.79,-385.69C477.79,-374.29 477.79,-361.55 477.79,-349.54"/>
<polygon fill="black" stroke="black" points="481.29,-349.21 477.79,-339.21 474.29,-349.21 481.29,-349.21"/>
</g>
<!-- σ_h -->
<g id="node10" class="node">
<title>σ_h</title>
<ellipse fill="none" stroke="black" cx="184.79" cy="-423.34" rx="69.09" ry="37.45"/>
<text text-anchor="middle" x="184.79" y="-434.64" font-family="Times-Roman" font-size="14.00">σ_h</text>
<text text-anchor="middle" x="184.79" y="-419.64" font-family="Times-Roman" font-size="14.00">~</text>
<text text-anchor="middle" x="184.79" y="-404.64" font-family="Times-Roman" font-size="14.00">HalfNormal</text>
</g>
<!-- σ_h&#45;&gt;h -->
<g id="edge3" class="edge">
<title>σ_h&#45;&gt;h</title>
<path fill="none" stroke="black" d="M184.79,-385.69C184.79,-374.29 184.79,-361.55 184.79,-349.54"/>
<polygon fill="black" stroke="black" points="188.29,-349.21 184.79,-339.21 181.29,-349.21 188.29,-349.21"/>
</g>
<!-- q&#45;&gt;μ -->
<g id="edge10" class="edge">
<title>q&#45;&gt;μ</title>
<path fill="none" stroke="black" d="M583.19,-268.6C575.38,-254.5 566.16,-237.85 558.15,-223.39"/>
<polygon fill="black" stroke="black" points="561,-221.31 553.09,-214.26 554.88,-224.7 561,-221.31"/>
</g>
<!-- h&#45;&gt;μ -->
<g id="edge9" class="edge">
<title>h&#45;&gt;μ</title>
<path fill="none" stroke="black" d="M229.21,-285.39C275.56,-270.25 350.55,-247.11 416.79,-232.91 441.8,-227.54 449.55,-233.09 473.79,-224.91 479,-223.15 484.27,-220.97 489.44,-218.56"/>
<polygon fill="black" stroke="black" points="491.21,-221.59 498.6,-214 488.09,-215.32 491.21,-221.59"/>
</g>
<!-- d&#45;&gt;μ -->
<g id="edge11" class="edge">
<title>d&#45;&gt;μ</title>
<path fill="none" stroke="black" d="M496.26,-266.49C503.72,-252.79 512.33,-236.99 519.84,-223.2"/>
<polygon fill="black" stroke="black" points="523.13,-224.48 524.84,-214.03 516.98,-221.13 523.13,-224.48"/>
</g>
<!-- μ&#45;&gt;lfc -->
<g id="edge13" class="edge">
<title>μ&#45;&gt;lfc</title>
<path fill="none" stroke="black" d="M537.85,-160.89C537.45,-149.98 536.97,-136.89 536.51,-124.35"/>
<polygon fill="black" stroke="black" points="540,-123.87 536.13,-114 533,-124.12 540,-123.87"/>
</g>
</g>
</svg>
