<?xml version="1.0" encoding="UTF-8" standalone="no"?>
<!DOCTYPE svg PUBLIC "-//W3C//DTD SVG 1.1//EN"
 "http://www.w3.org/Graphics/SVG/1.1/DTD/svg11.dtd">
<!-- Generated by graphviz version 2.42.3 (20191010.1750)
 -->
<!-- Title: %3 Pages: 1 -->
<svg width="280pt" height="344pt"
 viewBox="0.00 0.00 280.41 343.86" xmlns="http://www.w3.org/2000/svg" xmlns:xlink="http://www.w3.org/1999/xlink">
<g id="graph0" class="graph" transform="scale(1 1) rotate(0) translate(4 339.86)">
<title>%3</title>
<polygon fill="white" stroke="transparent" points="-4,4 -4,-339.86 276.41,-339.86 276.41,4 -4,4"/>
<g id="clust1" class="cluster">
<title>cluster20</title>
<path fill="none" stroke="black" d="M49.72,-8C49.72,-8 133.72,-8 133.72,-8 139.72,-8 145.72,-14 145.72,-20 145.72,-20 145.72,-209.93 145.72,-209.93 145.72,-215.93 139.72,-221.93 133.72,-221.93 133.72,-221.93 49.72,-221.93 49.72,-221.93 43.72,-221.93 37.72,-215.93 37.72,-209.93 37.72,-209.93 37.72,-20 37.72,-20 37.72,-14 43.72,-8 49.72,-8"/>
<text text-anchor="middle" x="130.72" y="-15.8" font-family="Times,serif" font-size="14.00">20</text>
</g>
<!-- beta -->
<g id="node1" class="node">
<title>beta</title>
<ellipse fill="none" stroke="black" cx="41.72" cy="-298.38" rx="41.94" ry="37.45"/>
<text text-anchor="middle" x="41.72" y="-309.68" font-family="Times,serif" font-size="14.00">beta</text>
<text text-anchor="middle" x="41.72" y="-294.68" font-family="Times,serif" font-size="14.00">~</text>
<text text-anchor="middle" x="41.72" y="-279.68" font-family="Times,serif" font-size="14.00">Normal</text>
</g>
<!-- mu -->
<g id="node5" class="node">
<title>mu</title>
<polygon fill="none" stroke="black" points="137.22,-213.93 46.22,-213.93 46.22,-160.93 137.22,-160.93 137.22,-213.93"/>
<text text-anchor="middle" x="91.72" y="-198.73" font-family="Times,serif" font-size="14.00">mu</text>
<text text-anchor="middle" x="91.72" y="-183.73" font-family="Times,serif" font-size="14.00">~</text>
<text text-anchor="middle" x="91.72" y="-168.73" font-family="Times,serif" font-size="14.00">Deterministic</text>
</g>
<!-- beta&#45;&gt;mu -->
<g id="edge1" class="edge">
<title>beta&#45;&gt;mu</title>
<path fill="none" stroke="black" d="M57.27,-263.51C63.11,-250.76 69.77,-236.26 75.66,-223.41"/>
<polygon fill="black" stroke="black" points="79.01,-224.52 80,-213.97 72.64,-221.6 79.01,-224.52"/>
</g>
<!-- alpha -->
<g id="node2" class="node">
<title>alpha</title>
<ellipse fill="none" stroke="black" cx="142.72" cy="-298.38" rx="41.94" ry="37.45"/>
<text text-anchor="middle" x="142.72" y="-309.68" font-family="Times,serif" font-size="14.00">alpha</text>
<text text-anchor="middle" x="142.72" y="-294.68" font-family="Times,serif" font-size="14.00">~</text>
<text text-anchor="middle" x="142.72" y="-279.68" font-family="Times,serif" font-size="14.00">Normal</text>
</g>
<!-- alpha&#45;&gt;mu -->
<g id="edge2" class="edge">
<title>alpha&#45;&gt;mu</title>
<path fill="none" stroke="black" d="M126.86,-263.51C120.84,-250.64 113.97,-235.97 107.92,-223.04"/>
<polygon fill="black" stroke="black" points="111.09,-221.55 103.68,-213.97 104.75,-224.52 111.09,-221.55"/>
</g>
<!-- sigma -->
<g id="node3" class="node">
<title>sigma</title>
<ellipse fill="none" stroke="black" cx="213.72" cy="-187.43" rx="58.88" ry="37.45"/>
<text text-anchor="middle" x="213.72" y="-198.73" font-family="Times,serif" font-size="14.00">sigma</text>
<text text-anchor="middle" x="213.72" y="-183.73" font-family="Times,serif" font-size="14.00">~</text>
<text text-anchor="middle" x="213.72" y="-168.73" font-family="Times,serif" font-size="14.00">HalfNormal</text>
</g>
<!-- logfc -->
<g id="node4" class="node">
<title>logfc</title>
<ellipse fill="lightgrey" stroke="black" cx="93.72" cy="-76.48" rx="41.94" ry="37.45"/>
<text text-anchor="middle" x="93.72" y="-87.78" font-family="Times,serif" font-size="14.00">logfc</text>
<text text-anchor="middle" x="93.72" y="-72.78" font-family="Times,serif" font-size="14.00">~</text>
<text text-anchor="middle" x="93.72" y="-57.78" font-family="Times,serif" font-size="14.00">Normal</text>
</g>
<!-- sigma&#45;&gt;logfc -->
<g id="edge4" class="edge">
<title>sigma&#45;&gt;logfc</title>
<path fill="none" stroke="black" d="M180.61,-156.37C164.99,-142.19 146.31,-125.22 130.27,-110.66"/>
<polygon fill="black" stroke="black" points="132.39,-107.86 122.64,-103.73 127.69,-113.05 132.39,-107.86"/>
</g>
<!-- mu&#45;&gt;logfc -->
<g id="edge3" class="edge">
<title>mu&#45;&gt;logfc</title>
<path fill="none" stroke="black" d="M92.19,-160.89C92.39,-149.98 92.63,-136.89 92.86,-124.35"/>
<polygon fill="black" stroke="black" points="96.36,-124.06 93.05,-114 89.37,-123.94 96.36,-124.06"/>
</g>
</g>
</svg>
