<?xml version="1.0" encoding="UTF-8" standalone="no"?>
<!DOCTYPE svg PUBLIC "-//W3C//DTD SVG 1.1//EN"
 "http://www.w3.org/Graphics/SVG/1.1/DTD/svg11.dtd">
<!-- Generated by graphviz version 2.47.0 (20210327.0129)
 -->
<!-- Pages: 1 -->
<svg width="1078pt" height="469pt"
 viewBox="0.00 0.00 1078.09 468.81" xmlns="http://www.w3.org/2000/svg" xmlns:xlink="http://www.w3.org/1999/xlink">
<g id="graph0" class="graph" transform="scale(1 1) rotate(0) translate(4 464.81)">
<polygon fill="white" stroke="transparent" points="-4,4 -4,-464.81 1074.09,-464.81 1074.09,4 -4,4"/>
<g id="clust1" class="cluster">
<title>cluster99</title>
<path fill="none" stroke="black" d="M432.3,-243.91C432.3,-243.91 522.3,-243.91 522.3,-243.91 528.3,-243.91 534.3,-249.91 534.3,-255.91 534.3,-255.91 534.3,-345.86 534.3,-345.86 534.3,-351.86 528.3,-357.86 522.3,-357.86 522.3,-357.86 432.3,-357.86 432.3,-357.86 426.3,-357.86 420.3,-351.86 420.3,-345.86 420.3,-345.86 420.3,-255.91 420.3,-255.91 420.3,-249.91 426.3,-243.91 432.3,-243.91"/>
<text text-anchor="middle" x="516.8" y="-251.71" font-family="Times-Roman" font-size="14.00">99</text>
</g>
<g id="clust2" class="cluster">
<title>cluster99 x 36</title>
<path fill="none" stroke="black" d="M631.3,-243.91C631.3,-243.91 721.3,-243.91 721.3,-243.91 727.3,-243.91 733.3,-249.91 733.3,-255.91 733.3,-255.91 733.3,-345.86 733.3,-345.86 733.3,-351.86 727.3,-357.86 721.3,-357.86 721.3,-357.86 631.3,-357.86 631.3,-357.86 625.3,-357.86 619.3,-351.86 619.3,-345.86 619.3,-345.86 619.3,-255.91 619.3,-255.91 619.3,-249.91 625.3,-243.91 631.3,-243.91"/>
<text text-anchor="middle" x="698.3" y="-251.71" font-family="Times-Roman" font-size="14.00">99 x 36</text>
</g>
<g id="clust3" class="cluster">
<title>cluster2</title>
<path fill="none" stroke="black" d="M776.3,-243.91C776.3,-243.91 866.3,-243.91 866.3,-243.91 872.3,-243.91 878.3,-249.91 878.3,-255.91 878.3,-255.91 878.3,-345.86 878.3,-345.86 878.3,-351.86 872.3,-357.86 866.3,-357.86 866.3,-357.86 776.3,-357.86 776.3,-357.86 770.3,-357.86 764.3,-351.86 764.3,-345.86 764.3,-345.86 764.3,-255.91 764.3,-255.91 764.3,-249.91 770.3,-243.91 776.3,-243.91"/>
<text text-anchor="middle" x="865.3" y="-251.71" font-family="Times-Roman" font-size="14.00">2</text>
</g>
<g id="clust4" class="cluster">
<title>cluster99 x 5</title>
<path fill="none" stroke="black" d="M160.3,-243.91C160.3,-243.91 250.3,-243.91 250.3,-243.91 256.3,-243.91 262.3,-249.91 262.3,-255.91 262.3,-255.91 262.3,-345.86 262.3,-345.86 262.3,-351.86 256.3,-357.86 250.3,-357.86 250.3,-357.86 160.3,-357.86 160.3,-357.86 154.3,-357.86 148.3,-351.86 148.3,-345.86 148.3,-345.86 148.3,-255.91 148.3,-255.91 148.3,-249.91 154.3,-243.91 160.3,-243.91"/>
<text text-anchor="middle" x="231.8" y="-251.71" font-family="Times-Roman" font-size="14.00">99 x 5</text>
</g>
<g id="clust5" class="cluster">
<title>cluster34,408</title>
<path fill="none" stroke="black" d="M624.3,-8C624.3,-8 728.3,-8 728.3,-8 734.3,-8 740.3,-14 740.3,-20 740.3,-20 740.3,-212.93 740.3,-212.93 740.3,-218.93 734.3,-224.93 728.3,-224.93 728.3,-224.93 624.3,-224.93 624.3,-224.93 618.3,-224.93 612.3,-218.93 612.3,-212.93 612.3,-212.93 612.3,-20 612.3,-20 612.3,-14 618.3,-8 624.3,-8"/>
<text text-anchor="middle" x="707.3" y="-15.8" font-family="Times-Roman" font-size="14.00">34,408</text>
</g>
<g id="clust6" class="cluster">
<title>cluster391</title>
<path fill="none" stroke="black" d="M826.3,-121.95C826.3,-121.95 956.3,-121.95 956.3,-121.95 962.3,-121.95 968.3,-127.95 968.3,-133.95 968.3,-133.95 968.3,-223.91 968.3,-223.91 968.3,-229.91 962.3,-235.91 956.3,-235.91 956.3,-235.91 826.3,-235.91 826.3,-235.91 820.3,-235.91 814.3,-229.91 814.3,-223.91 814.3,-223.91 814.3,-133.95 814.3,-133.95 814.3,-127.95 820.3,-121.95 826.3,-121.95"/>
<text text-anchor="middle" x="946.3" y="-129.75" font-family="Times-Roman" font-size="14.00">391</text>
</g>
<!-- σ_a -->
<g id="node1" class="node">
<title>σ_a</title>
<ellipse fill="none" stroke="black" cx="69.3" cy="-423.34" rx="69.09" ry="37.45"/>
<text text-anchor="middle" x="69.3" y="-434.64" font-family="Times-Roman" font-size="14.00">σ_a</text>
<text text-anchor="middle" x="69.3" y="-419.64" font-family="Times-Roman" font-size="14.00">~</text>
<text text-anchor="middle" x="69.3" y="-404.64" font-family="Times-Roman" font-size="14.00">HalfNormal</text>
</g>
<!-- a -->
<g id="node13" class="node">
<title>a</title>
<ellipse fill="none" stroke="black" cx="205.3" cy="-312.38" rx="48.58" ry="37.45"/>
<text text-anchor="middle" x="205.3" y="-323.68" font-family="Times-Roman" font-size="14.00">a</text>
<text text-anchor="middle" x="205.3" y="-308.68" font-family="Times-Roman" font-size="14.00">~</text>
<text text-anchor="middle" x="205.3" y="-293.68" font-family="Times-Roman" font-size="14.00">Normal</text>
</g>
<!-- σ_a&#45;&gt;a -->
<g id="edge8" class="edge">
<title>σ_a&#45;&gt;a</title>
<path fill="none" stroke="black" d="M107.54,-391.7C125.12,-377.62 146,-360.89 163.94,-346.51"/>
<polygon fill="black" stroke="black" points="166.34,-349.08 171.96,-340.09 161.97,-343.61 166.34,-349.08"/>
</g>
<!-- σ_g -->
<g id="node2" class="node">
<title>σ_g</title>
<ellipse fill="none" stroke="black" cx="613.3" cy="-423.34" rx="69.09" ry="37.45"/>
<text text-anchor="middle" x="613.3" y="-434.64" font-family="Times-Roman" font-size="14.00">σ_g</text>
<text text-anchor="middle" x="613.3" y="-419.64" font-family="Times-Roman" font-size="14.00">~</text>
<text text-anchor="middle" x="613.3" y="-404.64" font-family="Times-Roman" font-size="14.00">HalfNormal</text>
</g>
<!-- g -->
<g id="node11" class="node">
<title>g</title>
<ellipse fill="none" stroke="black" cx="676.3" cy="-312.38" rx="48.58" ry="37.45"/>
<text text-anchor="middle" x="676.3" y="-323.68" font-family="Times-Roman" font-size="14.00">g</text>
<text text-anchor="middle" x="676.3" y="-308.68" font-family="Times-Roman" font-size="14.00">~</text>
<text text-anchor="middle" x="676.3" y="-293.68" font-family="Times-Roman" font-size="14.00">Normal</text>
</g>
<!-- σ_g&#45;&gt;g -->
<g id="edge4" class="edge">
<title>σ_g&#45;&gt;g</title>
<path fill="none" stroke="black" d="M633.58,-387.26C639.36,-377.26 645.73,-366.24 651.74,-355.84"/>
<polygon fill="black" stroke="black" points="654.94,-357.32 656.91,-346.91 648.88,-353.81 654.94,-357.32"/>
</g>
<!-- σ_b -->
<g id="node3" class="node">
<title>σ_b</title>
<ellipse fill="none" stroke="black" cx="885.3" cy="-423.34" rx="69.09" ry="37.45"/>
<text text-anchor="middle" x="885.3" y="-434.64" font-family="Times-Roman" font-size="14.00">σ_b</text>
<text text-anchor="middle" x="885.3" y="-419.64" font-family="Times-Roman" font-size="14.00">~</text>
<text text-anchor="middle" x="885.3" y="-404.64" font-family="Times-Roman" font-size="14.00">HalfNormal</text>
</g>
<!-- b -->
<g id="node12" class="node">
<title>b</title>
<ellipse fill="none" stroke="black" cx="821.3" cy="-312.38" rx="48.58" ry="37.45"/>
<text text-anchor="middle" x="821.3" y="-323.68" font-family="Times-Roman" font-size="14.00">b</text>
<text text-anchor="middle" x="821.3" y="-308.68" font-family="Times-Roman" font-size="14.00">~</text>
<text text-anchor="middle" x="821.3" y="-293.68" font-family="Times-Roman" font-size="14.00">Normal</text>
</g>
<!-- σ_b&#45;&gt;b -->
<g id="edge5" class="edge">
<title>σ_b&#45;&gt;b</title>
<path fill="none" stroke="black" d="M864.69,-387.26C858.76,-377.15 852.22,-366.02 846.05,-355.53"/>
<polygon fill="black" stroke="black" points="849.07,-353.76 840.99,-346.91 843.04,-357.3 849.07,-353.76"/>
</g>
<!-- σ_h -->
<g id="node4" class="node">
<title>σ_h</title>
<ellipse fill="none" stroke="black" cx="341.3" cy="-423.34" rx="69.09" ry="37.45"/>
<text text-anchor="middle" x="341.3" y="-434.64" font-family="Times-Roman" font-size="14.00">σ_h</text>
<text text-anchor="middle" x="341.3" y="-419.64" font-family="Times-Roman" font-size="14.00">~</text>
<text text-anchor="middle" x="341.3" y="-404.64" font-family="Times-Roman" font-size="14.00">HalfNormal</text>
</g>
<!-- h -->
<g id="node10" class="node">
<title>h</title>
<ellipse fill="none" stroke="black" cx="477.3" cy="-312.38" rx="48.58" ry="37.45"/>
<text text-anchor="middle" x="477.3" y="-323.68" font-family="Times-Roman" font-size="14.00">h</text>
<text text-anchor="middle" x="477.3" y="-308.68" font-family="Times-Roman" font-size="14.00">~</text>
<text text-anchor="middle" x="477.3" y="-293.68" font-family="Times-Roman" font-size="14.00">Normal</text>
</g>
<!-- σ_h&#45;&gt;h -->
<g id="edge1" class="edge">
<title>σ_h&#45;&gt;h</title>
<path fill="none" stroke="black" d="M379.54,-391.7C397.12,-377.62 418,-360.89 435.94,-346.51"/>
<polygon fill="black" stroke="black" points="438.34,-349.08 443.96,-340.09 433.97,-343.61 438.34,-349.08"/>
</g>
<!-- μ_a -->
<g id="node5" class="node">
<title>μ_a</title>
<ellipse fill="none" stroke="black" cx="205.3" cy="-423.34" rx="48.58" ry="37.45"/>
<text text-anchor="middle" x="205.3" y="-434.64" font-family="Times-Roman" font-size="14.00">μ_a</text>
<text text-anchor="middle" x="205.3" y="-419.64" font-family="Times-Roman" font-size="14.00">~</text>
<text text-anchor="middle" x="205.3" y="-404.64" font-family="Times-Roman" font-size="14.00">Normal</text>
</g>
<!-- μ_a&#45;&gt;a -->
<g id="edge7" class="edge">
<title>μ_a&#45;&gt;a</title>
<path fill="none" stroke="black" d="M205.3,-385.75C205.3,-377.58 205.3,-368.8 205.3,-360.27"/>
<polygon fill="black" stroke="black" points="208.8,-360.06 205.3,-350.06 201.8,-360.06 208.8,-360.06"/>
</g>
<!-- σ_σ -->
<g id="node6" class="node">
<title>σ_σ</title>
<ellipse fill="none" stroke="black" cx="957.3" cy="-312.38" rx="69.09" ry="37.45"/>
<text text-anchor="middle" x="957.3" y="-323.68" font-family="Times-Roman" font-size="14.00">σ_σ</text>
<text text-anchor="middle" x="957.3" y="-308.68" font-family="Times-Roman" font-size="14.00">~</text>
<text text-anchor="middle" x="957.3" y="-293.68" font-family="Times-Roman" font-size="14.00">HalfNormal</text>
</g>
<!-- σ -->
<g id="node16" class="node">
<title>σ</title>
<ellipse fill="none" stroke="black" cx="891.3" cy="-190.43" rx="69.09" ry="37.45"/>
<text text-anchor="middle" x="891.3" y="-201.73" font-family="Times-Roman" font-size="14.00">σ</text>
<text text-anchor="middle" x="891.3" y="-186.73" font-family="Times-Roman" font-size="14.00">~</text>
<text text-anchor="middle" x="891.3" y="-171.73" font-family="Times-Roman" font-size="14.00">HalfNormal</text>
</g>
<!-- σ_σ&#45;&gt;σ -->
<g id="edge13" class="edge">
<title>σ_σ&#45;&gt;σ</title>
<path fill="none" stroke="black" d="M938.03,-276.37C931.04,-263.67 923.06,-249.15 915.69,-235.76"/>
<polygon fill="black" stroke="black" points="918.59,-233.77 910.7,-226.7 912.46,-237.15 918.59,-233.77"/>
</g>
<!-- μ_h -->
<g id="node7" class="node">
<title>μ_h</title>
<ellipse fill="none" stroke="black" cx="477.3" cy="-423.34" rx="48.58" ry="37.45"/>
<text text-anchor="middle" x="477.3" y="-434.64" font-family="Times-Roman" font-size="14.00">μ_h</text>
<text text-anchor="middle" x="477.3" y="-419.64" font-family="Times-Roman" font-size="14.00">~</text>
<text text-anchor="middle" x="477.3" y="-404.64" font-family="Times-Roman" font-size="14.00">Normal</text>
</g>
<!-- μ_h&#45;&gt;h -->
<g id="edge2" class="edge">
<title>μ_h&#45;&gt;h</title>
<path fill="none" stroke="black" d="M477.3,-385.75C477.3,-377.58 477.3,-368.8 477.3,-360.27"/>
<polygon fill="black" stroke="black" points="480.8,-360.06 477.3,-350.06 473.8,-360.06 480.8,-360.06"/>
</g>
<!-- μ_g -->
<g id="node8" class="node">
<title>μ_g</title>
<ellipse fill="none" stroke="black" cx="749.3" cy="-423.34" rx="48.58" ry="37.45"/>
<text text-anchor="middle" x="749.3" y="-434.64" font-family="Times-Roman" font-size="14.00">μ_g</text>
<text text-anchor="middle" x="749.3" y="-419.64" font-family="Times-Roman" font-size="14.00">~</text>
<text text-anchor="middle" x="749.3" y="-404.64" font-family="Times-Roman" font-size="14.00">Normal</text>
</g>
<!-- μ_g&#45;&gt;g -->
<g id="edge3" class="edge">
<title>μ_g&#45;&gt;g</title>
<path fill="none" stroke="black" d="M727.39,-389.65C720.03,-378.66 711.72,-366.25 703.97,-354.69"/>
<polygon fill="black" stroke="black" points="706.66,-352.41 698.18,-346.05 700.84,-356.31 706.66,-352.41"/>
</g>
<!-- μ_b -->
<g id="node9" class="node">
<title>μ_b</title>
<ellipse fill="none" stroke="black" cx="1021.3" cy="-423.34" rx="48.58" ry="37.45"/>
<text text-anchor="middle" x="1021.3" y="-434.64" font-family="Times-Roman" font-size="14.00">μ_b</text>
<text text-anchor="middle" x="1021.3" y="-419.64" font-family="Times-Roman" font-size="14.00">~</text>
<text text-anchor="middle" x="1021.3" y="-404.64" font-family="Times-Roman" font-size="14.00">Normal</text>
</g>
<!-- μ_b&#45;&gt;b -->
<g id="edge6" class="edge">
<title>μ_b&#45;&gt;b</title>
<path fill="none" stroke="black" d="M985.23,-397.81C978.13,-393.51 970.61,-389.32 963.3,-385.86 927.72,-369.04 914.06,-376.31 879.3,-357.86 873.27,-354.66 867.22,-350.85 861.42,-346.81"/>
<polygon fill="black" stroke="black" points="863.28,-343.84 853.13,-340.8 859.17,-349.5 863.28,-343.84"/>
</g>
<!-- μ -->
<g id="node14" class="node">
<title>μ</title>
<polygon fill="none" stroke="black" points="732.3,-216.93 620.3,-216.93 620.3,-163.93 732.3,-163.93 732.3,-216.93"/>
<text text-anchor="middle" x="676.3" y="-201.73" font-family="Times-Roman" font-size="14.00">μ</text>
<text text-anchor="middle" x="676.3" y="-186.73" font-family="Times-Roman" font-size="14.00">~</text>
<text text-anchor="middle" x="676.3" y="-171.73" font-family="Times-Roman" font-size="14.00">Deterministic</text>
</g>
<!-- h&#45;&gt;μ -->
<g id="edge12" class="edge">
<title>h&#45;&gt;μ</title>
<path fill="none" stroke="black" d="M515.2,-288.54C546.25,-269.82 590.51,-243.14 624.78,-222.48"/>
<polygon fill="black" stroke="black" points="626.95,-225.26 633.71,-217.1 623.34,-219.27 626.95,-225.26"/>
</g>
<!-- g&#45;&gt;μ -->
<g id="edge10" class="edge">
<title>g&#45;&gt;μ</title>
<path fill="none" stroke="black" d="M676.3,-274.74C676.3,-259.77 676.3,-242.51 676.3,-227.59"/>
<polygon fill="black" stroke="black" points="679.8,-227.2 676.3,-217.2 672.8,-227.2 679.8,-227.2"/>
</g>
<!-- b&#45;&gt;μ -->
<g id="edge11" class="edge">
<title>b&#45;&gt;μ</title>
<path fill="none" stroke="black" d="M788.39,-284.16C766.72,-266.23 738.23,-242.67 715.4,-223.78"/>
<polygon fill="black" stroke="black" points="717.51,-220.99 707.58,-217.31 713.05,-226.38 717.51,-220.99"/>
</g>
<!-- a&#45;&gt;μ -->
<g id="edge9" class="edge">
<title>a&#45;&gt;μ</title>
<path fill="none" stroke="black" d="M249.34,-295.73C291.74,-281.04 357.86,-259.1 416.3,-243.91 481.61,-226.93 557.35,-212.19 610.18,-202.69"/>
<polygon fill="black" stroke="black" points="610.87,-206.12 620.1,-200.92 609.64,-199.23 610.87,-206.12"/>
</g>
<!-- lfc -->
<g id="node15" class="node">
<title>lfc</title>
<ellipse fill="lightgrey" stroke="black" cx="679.3" cy="-76.48" rx="48.58" ry="37.45"/>
<text text-anchor="middle" x="679.3" y="-87.78" font-family="Times-Roman" font-size="14.00">lfc</text>
<text text-anchor="middle" x="679.3" y="-72.78" font-family="Times-Roman" font-size="14.00">~</text>
<text text-anchor="middle" x="679.3" y="-57.78" font-family="Times-Roman" font-size="14.00">Normal</text>
</g>
<!-- μ&#45;&gt;lfc -->
<g id="edge14" class="edge">
<title>μ&#45;&gt;lfc</title>
<path fill="none" stroke="black" d="M676.98,-163.75C677.3,-152.02 677.68,-137.75 678.04,-124.22"/>
<polygon fill="black" stroke="black" points="681.55,-124.16 678.32,-114.07 674.55,-123.98 681.55,-124.16"/>
</g>
<!-- σ&#45;&gt;lfc -->
<g id="edge15" class="edge">
<title>σ&#45;&gt;lfc</title>
<path fill="none" stroke="black" d="M842.39,-163.61C808.04,-145.47 762.29,-121.31 727.99,-103.19"/>
<polygon fill="black" stroke="black" points="729.56,-100.06 719.09,-98.49 726.29,-106.25 729.56,-100.06"/>
</g>
</g>
</svg>
