<?xml version="1.0" encoding="UTF-8" standalone="no"?>
<!DOCTYPE svg PUBLIC "-//W3C//DTD SVG 1.1//EN"
 "http://www.w3.org/Graphics/SVG/1.1/DTD/svg11.dtd">
<!-- Generated by graphviz version 2.42.3 (20191010.1750)
 -->
<!-- Title: %3 Pages: 1 -->
<svg width="490pt" height="458pt"
 viewBox="0.00 0.00 490.46 457.81" xmlns="http://www.w3.org/2000/svg" xmlns:xlink="http://www.w3.org/1999/xlink">
<g id="graph0" class="graph" transform="scale(1 1) rotate(0) translate(4 453.81)">
<title>%3</title>
<polygon fill="white" stroke="transparent" points="-4,4 -4,-453.81 486.46,-453.81 486.46,4 -4,4"/>
<g id="clust1" class="cluster">
<title>cluster5</title>
<path fill="none" stroke="black" d="M147.25,-232.91C147.25,-232.91 324.25,-232.91 324.25,-232.91 330.25,-232.91 336.25,-238.91 336.25,-244.91 336.25,-244.91 336.25,-334.86 336.25,-334.86 336.25,-340.86 330.25,-346.86 324.25,-346.86 324.25,-346.86 147.25,-346.86 147.25,-346.86 141.25,-346.86 135.25,-340.86 135.25,-334.86 135.25,-334.86 135.25,-244.91 135.25,-244.91 135.25,-238.91 141.25,-232.91 147.25,-232.91"/>
<text text-anchor="middle" x="324.75" y="-240.71" font-family="Times,serif" font-size="14.00">5</text>
</g>
<g id="clust2" class="cluster">
<title>cluster150</title>
<path fill="none" stroke="black" d="M195.25,-8C195.25,-8 279.25,-8 279.25,-8 285.25,-8 291.25,-14 291.25,-20 291.25,-20 291.25,-209.93 291.25,-209.93 291.25,-215.93 285.25,-221.93 279.25,-221.93 279.25,-221.93 195.25,-221.93 195.25,-221.93 189.25,-221.93 183.25,-215.93 183.25,-209.93 183.25,-209.93 183.25,-20 183.25,-20 183.25,-14 189.25,-8 195.25,-8"/>
<text text-anchor="middle" x="272.75" y="-15.8" font-family="Times,serif" font-size="14.00">150</text>
</g>
<!-- sigma -->
<g id="node1" class="node">
<title>sigma</title>
<ellipse fill="none" stroke="black" cx="115.25" cy="-187.43" rx="58.88" ry="37.45"/>
<text text-anchor="middle" x="115.25" y="-198.73" font-family="Times,serif" font-size="14.00">sigma</text>
<text text-anchor="middle" x="115.25" y="-183.73" font-family="Times,serif" font-size="14.00">~</text>
<text text-anchor="middle" x="115.25" y="-168.73" font-family="Times,serif" font-size="14.00">HalfNormal</text>
</g>
<!-- logfc -->
<g id="node8" class="node">
<title>logfc</title>
<ellipse fill="lightgrey" stroke="black" cx="235.25" cy="-76.48" rx="41.94" ry="37.45"/>
<text text-anchor="middle" x="235.25" y="-87.78" font-family="Times,serif" font-size="14.00">logfc</text>
<text text-anchor="middle" x="235.25" y="-72.78" font-family="Times,serif" font-size="14.00">~</text>
<text text-anchor="middle" x="235.25" y="-57.78" font-family="Times,serif" font-size="14.00">Normal</text>
</g>
<!-- sigma&#45;&gt;logfc -->
<g id="edge7" class="edge">
<title>sigma&#45;&gt;logfc</title>
<path fill="none" stroke="black" d="M148.36,-156.37C163.98,-142.19 182.67,-125.22 198.7,-110.66"/>
<polygon fill="black" stroke="black" points="201.29,-113.05 206.34,-103.73 196.58,-107.86 201.29,-113.05"/>
</g>
<!-- mu_beta -->
<g id="node2" class="node">
<title>mu_beta</title>
<ellipse fill="none" stroke="black" cx="45.25" cy="-412.34" rx="45.01" ry="37.45"/>
<text text-anchor="middle" x="45.25" y="-423.64" font-family="Times,serif" font-size="14.00">mu_beta</text>
<text text-anchor="middle" x="45.25" y="-408.64" font-family="Times,serif" font-size="14.00">~</text>
<text text-anchor="middle" x="45.25" y="-393.64" font-family="Times,serif" font-size="14.00">Normal</text>
</g>
<!-- beta -->
<g id="node7" class="node">
<title>beta</title>
<ellipse fill="none" stroke="black" cx="185.25" cy="-301.38" rx="41.94" ry="37.45"/>
<text text-anchor="middle" x="185.25" y="-312.68" font-family="Times,serif" font-size="14.00">beta</text>
<text text-anchor="middle" x="185.25" y="-297.68" font-family="Times,serif" font-size="14.00">~</text>
<text text-anchor="middle" x="185.25" y="-282.68" font-family="Times,serif" font-size="14.00">Normal</text>
</g>
<!-- mu_beta&#45;&gt;beta -->
<g id="edge4" class="edge">
<title>mu_beta&#45;&gt;beta</title>
<path fill="none" stroke="black" d="M77.73,-386.07C98.07,-370.24 124.41,-349.73 145.93,-332.98"/>
<polygon fill="black" stroke="black" points="148.18,-335.67 153.92,-326.77 143.88,-330.15 148.18,-335.67"/>
</g>
<!-- sigma_alpha -->
<g id="node3" class="node">
<title>sigma_alpha</title>
<ellipse fill="none" stroke="black" cx="304.25" cy="-412.34" rx="60.21" ry="37.45"/>
<text text-anchor="middle" x="304.25" y="-423.64" font-family="Times,serif" font-size="14.00">sigma_alpha</text>
<text text-anchor="middle" x="304.25" y="-408.64" font-family="Times,serif" font-size="14.00">~</text>
<text text-anchor="middle" x="304.25" y="-393.64" font-family="Times,serif" font-size="14.00">HalfNormal</text>
</g>
<!-- alpha -->
<g id="node6" class="node">
<title>alpha</title>
<ellipse fill="none" stroke="black" cx="286.25" cy="-301.38" rx="41.94" ry="37.45"/>
<text text-anchor="middle" x="286.25" y="-312.68" font-family="Times,serif" font-size="14.00">alpha</text>
<text text-anchor="middle" x="286.25" y="-297.68" font-family="Times,serif" font-size="14.00">~</text>
<text text-anchor="middle" x="286.25" y="-282.68" font-family="Times,serif" font-size="14.00">Normal</text>
</g>
<!-- sigma_alpha&#45;&gt;alpha -->
<g id="edge1" class="edge">
<title>sigma_alpha&#45;&gt;alpha</title>
<path fill="none" stroke="black" d="M298.21,-374.75C296.83,-366.4 295.35,-357.42 293.91,-348.71"/>
<polygon fill="black" stroke="black" points="297.34,-347.98 292.25,-338.68 290.43,-349.12 297.34,-347.98"/>
</g>
<!-- mu_alpha -->
<g id="node4" class="node">
<title>mu_alpha</title>
<ellipse fill="none" stroke="black" cx="432.25" cy="-412.34" rx="50.41" ry="37.45"/>
<text text-anchor="middle" x="432.25" y="-423.64" font-family="Times,serif" font-size="14.00">mu_alpha</text>
<text text-anchor="middle" x="432.25" y="-408.64" font-family="Times,serif" font-size="14.00">~</text>
<text text-anchor="middle" x="432.25" y="-393.64" font-family="Times,serif" font-size="14.00">Normal</text>
</g>
<!-- mu_alpha&#45;&gt;alpha -->
<g id="edge2" class="edge">
<title>mu_alpha&#45;&gt;alpha</title>
<path fill="none" stroke="black" d="M397.28,-385.24C375.89,-369.27 348.45,-348.8 326.2,-332.19"/>
<polygon fill="black" stroke="black" points="328.06,-329.21 317.95,-326.04 323.87,-334.82 328.06,-329.21"/>
</g>
<!-- sigma_beta -->
<g id="node5" class="node">
<title>sigma_beta</title>
<ellipse fill="none" stroke="black" cx="167.25" cy="-412.34" rx="58.88" ry="37.45"/>
<text text-anchor="middle" x="167.25" y="-423.64" font-family="Times,serif" font-size="14.00">sigma_beta</text>
<text text-anchor="middle" x="167.25" y="-408.64" font-family="Times,serif" font-size="14.00">~</text>
<text text-anchor="middle" x="167.25" y="-393.64" font-family="Times,serif" font-size="14.00">HalfNormal</text>
</g>
<!-- sigma_beta&#45;&gt;beta -->
<g id="edge3" class="edge">
<title>sigma_beta&#45;&gt;beta</title>
<path fill="none" stroke="black" d="M173.3,-374.75C174.68,-366.4 176.16,-357.42 177.6,-348.71"/>
<polygon fill="black" stroke="black" points="181.08,-349.12 179.26,-338.68 174.17,-347.98 181.08,-349.12"/>
</g>
<!-- mu -->
<g id="node9" class="node">
<title>mu</title>
<polygon fill="none" stroke="black" points="282.75,-213.93 191.75,-213.93 191.75,-160.93 282.75,-160.93 282.75,-213.93"/>
<text text-anchor="middle" x="237.25" y="-198.73" font-family="Times,serif" font-size="14.00">mu</text>
<text text-anchor="middle" x="237.25" y="-183.73" font-family="Times,serif" font-size="14.00">~</text>
<text text-anchor="middle" x="237.25" y="-168.73" font-family="Times,serif" font-size="14.00">Deterministic</text>
</g>
<!-- alpha&#45;&gt;mu -->
<g id="edge6" class="edge">
<title>alpha&#45;&gt;mu</title>
<path fill="none" stroke="black" d="M271.29,-266.19C265.4,-252.73 258.64,-237.29 252.71,-223.73"/>
<polygon fill="black" stroke="black" points="255.77,-222 248.55,-214.25 249.36,-224.81 255.77,-222"/>
</g>
<!-- beta&#45;&gt;mu -->
<g id="edge5" class="edge">
<title>beta&#45;&gt;mu</title>
<path fill="none" stroke="black" d="M201,-266.49C207.36,-252.79 214.7,-236.99 221.1,-223.2"/>
<polygon fill="black" stroke="black" points="224.33,-224.57 225.37,-214.03 217.98,-221.62 224.33,-224.57"/>
</g>
<!-- mu&#45;&gt;logfc -->
<g id="edge8" class="edge">
<title>mu&#45;&gt;logfc</title>
<path fill="none" stroke="black" d="M236.79,-160.89C236.59,-149.98 236.35,-136.89 236.12,-124.35"/>
<polygon fill="black" stroke="black" points="239.61,-123.94 235.93,-114 232.61,-124.06 239.61,-123.94"/>
</g>
</g>
</svg>
