<?xml version="1.0" encoding="UTF-8" standalone="no"?>
<!DOCTYPE svg PUBLIC "-//W3C//DTD SVG 1.1//EN"
 "http://www.w3.org/Graphics/SVG/1.1/DTD/svg11.dtd">
<!-- Generated by graphviz version 2.42.3 (20191010.1750)
 -->
<!-- Title: %3 Pages: 1 -->
<svg width="634pt" height="580pt"
 viewBox="0.00 0.00 634.09 579.77" xmlns="http://www.w3.org/2000/svg" xmlns:xlink="http://www.w3.org/1999/xlink">
<g id="graph0" class="graph" transform="scale(1 1) rotate(0) translate(4 575.77)">
<title>%3</title>
<polygon fill="white" stroke="transparent" points="-4,4 -4,-575.77 630.09,-575.77 630.09,4 -4,4"/>
<g id="clust1" class="cluster">
<title>cluster5</title>
<path fill="none" stroke="black" d="M155.98,-354.86C155.98,-354.86 349.98,-354.86 349.98,-354.86 355.98,-354.86 361.98,-360.86 361.98,-366.86 361.98,-366.86 361.98,-456.81 361.98,-456.81 361.98,-462.81 355.98,-468.81 349.98,-468.81 349.98,-468.81 155.98,-468.81 155.98,-468.81 149.98,-468.81 143.98,-462.81 143.98,-456.81 143.98,-456.81 143.98,-366.86 143.98,-366.86 143.98,-360.86 149.98,-354.86 155.98,-354.86"/>
<text text-anchor="middle" x="350.48" y="-362.66" font-family="Times,serif" font-size="14.00">5</text>
</g>
<g id="clust2" class="cluster">
<title>cluster15</title>
<path fill="none" stroke="black" d="M168.98,-232.91C168.98,-232.91 345.98,-232.91 345.98,-232.91 351.98,-232.91 357.98,-238.91 357.98,-244.91 357.98,-244.91 357.98,-334.86 357.98,-334.86 357.98,-340.86 351.98,-346.86 345.98,-346.86 345.98,-346.86 168.98,-346.86 168.98,-346.86 162.98,-346.86 156.98,-340.86 156.98,-334.86 156.98,-334.86 156.98,-244.91 156.98,-244.91 156.98,-238.91 162.98,-232.91 168.98,-232.91"/>
<text text-anchor="middle" x="342.98" y="-240.71" font-family="Times,serif" font-size="14.00">15</text>
</g>
<g id="clust3" class="cluster">
<title>cluster300</title>
<path fill="none" stroke="black" d="M214.98,-8C214.98,-8 298.98,-8 298.98,-8 304.98,-8 310.98,-14 310.98,-20 310.98,-20 310.98,-209.93 310.98,-209.93 310.98,-215.93 304.98,-221.93 298.98,-221.93 298.98,-221.93 214.98,-221.93 214.98,-221.93 208.98,-221.93 202.98,-215.93 202.98,-209.93 202.98,-209.93 202.98,-20 202.98,-20 202.98,-14 208.98,-8 214.98,-8"/>
<text text-anchor="middle" x="292.48" y="-15.8" font-family="Times,serif" font-size="14.00">300</text>
</g>
<!-- sigma_gamma -->
<g id="node1" class="node">
<title>sigma_gamma</title>
<ellipse fill="none" stroke="black" cx="316.98" cy="-534.29" rx="68.68" ry="37.45"/>
<text text-anchor="middle" x="316.98" y="-545.59" font-family="Times,serif" font-size="14.00">sigma_gamma</text>
<text text-anchor="middle" x="316.98" y="-530.59" font-family="Times,serif" font-size="14.00">~</text>
<text text-anchor="middle" x="316.98" y="-515.59" font-family="Times,serif" font-size="14.00">Exponential</text>
</g>
<!-- gamma_g -->
<g id="node9" class="node">
<title>gamma_g</title>
<ellipse fill="none" stroke="black" cx="303.98" cy="-423.34" rx="50.41" ry="37.45"/>
<text text-anchor="middle" x="303.98" y="-434.64" font-family="Times,serif" font-size="14.00">gamma_g</text>
<text text-anchor="middle" x="303.98" y="-419.64" font-family="Times,serif" font-size="14.00">~</text>
<text text-anchor="middle" x="303.98" y="-404.64" font-family="Times,serif" font-size="14.00">Normal</text>
</g>
<!-- sigma_gamma&#45;&gt;gamma_g -->
<g id="edge2" class="edge">
<title>sigma_gamma&#45;&gt;gamma_g</title>
<path fill="none" stroke="black" d="M312.62,-496.71C311.63,-488.44 310.57,-479.56 309.54,-470.95"/>
<polygon fill="black" stroke="black" points="313.02,-470.52 308.36,-461.01 306.07,-471.35 313.02,-470.52"/>
</g>
<!-- sigma_delta -->
<g id="node2" class="node">
<title>sigma_delta</title>
<ellipse fill="none" stroke="black" cx="57.98" cy="-534.29" rx="57.97" ry="37.45"/>
<text text-anchor="middle" x="57.98" y="-545.59" font-family="Times,serif" font-size="14.00">sigma_delta</text>
<text text-anchor="middle" x="57.98" y="-530.59" font-family="Times,serif" font-size="14.00">~</text>
<text text-anchor="middle" x="57.98" y="-515.59" font-family="Times,serif" font-size="14.00">Exponential</text>
</g>
<!-- delta_g -->
<g id="node8" class="node">
<title>delta_g</title>
<ellipse fill="none" stroke="black" cx="193.98" cy="-423.34" rx="41.94" ry="37.45"/>
<text text-anchor="middle" x="193.98" y="-434.64" font-family="Times,serif" font-size="14.00">delta_g</text>
<text text-anchor="middle" x="193.98" y="-419.64" font-family="Times,serif" font-size="14.00">~</text>
<text text-anchor="middle" x="193.98" y="-404.64" font-family="Times,serif" font-size="14.00">Normal</text>
</g>
<!-- sigma_delta&#45;&gt;delta_g -->
<g id="edge3" class="edge">
<title>sigma_delta&#45;&gt;delta_g</title>
<path fill="none" stroke="black" d="M93.72,-504.66C112.58,-489.55 135.77,-470.98 155.09,-455.5"/>
<polygon fill="black" stroke="black" points="157.49,-458.06 163.11,-449.07 153.11,-452.59 157.49,-458.06"/>
</g>
<!-- sigma -->
<g id="node3" class="node">
<title>sigma</title>
<ellipse fill="none" stroke="black" cx="377.98" cy="-187.43" rx="57.97" ry="37.45"/>
<text text-anchor="middle" x="377.98" y="-198.73" font-family="Times,serif" font-size="14.00">sigma</text>
<text text-anchor="middle" x="377.98" y="-183.73" font-family="Times,serif" font-size="14.00">~</text>
<text text-anchor="middle" x="377.98" y="-168.73" font-family="Times,serif" font-size="14.00">Exponential</text>
</g>
<!-- logfc -->
<g id="node12" class="node">
<title>logfc</title>
<ellipse fill="lightgrey" stroke="black" cx="258.98" cy="-76.48" rx="41.94" ry="37.45"/>
<text text-anchor="middle" x="258.98" y="-87.78" font-family="Times,serif" font-size="14.00">logfc</text>
<text text-anchor="middle" x="258.98" y="-72.78" font-family="Times,serif" font-size="14.00">~</text>
<text text-anchor="middle" x="258.98" y="-57.78" font-family="Times,serif" font-size="14.00">Normal</text>
</g>
<!-- sigma&#45;&gt;logfc -->
<g id="edge12" class="edge">
<title>sigma&#45;&gt;logfc</title>
<path fill="none" stroke="black" d="M345.15,-156.37C329.66,-142.19 311.13,-125.22 295.23,-110.66"/>
<polygon fill="black" stroke="black" points="297.4,-107.9 287.66,-103.73 292.67,-113.07 297.4,-107.9"/>
</g>
<!-- mu_gamma -->
<g id="node4" class="node">
<title>mu_gamma</title>
<ellipse fill="none" stroke="black" cx="461.98" cy="-534.29" rx="58.88" ry="37.45"/>
<text text-anchor="middle" x="461.98" y="-545.59" font-family="Times,serif" font-size="14.00">mu_gamma</text>
<text text-anchor="middle" x="461.98" y="-530.59" font-family="Times,serif" font-size="14.00">~</text>
<text text-anchor="middle" x="461.98" y="-515.59" font-family="Times,serif" font-size="14.00">Normal</text>
</g>
<!-- mu_gamma&#45;&gt;gamma_g -->
<g id="edge1" class="edge">
<title>mu_gamma&#45;&gt;gamma_g</title>
<path fill="none" stroke="black" d="M420.62,-507.25C402.71,-495.74 381.62,-481.89 362.98,-468.81 357.55,-465 351.9,-460.92 346.35,-456.82"/>
<polygon fill="black" stroke="black" points="348.43,-454.01 338.32,-450.84 344.25,-459.62 348.43,-454.01"/>
</g>
<!-- sigma_beta -->
<g id="node5" class="node">
<title>sigma_beta</title>
<ellipse fill="none" stroke="black" cx="429.98" cy="-423.34" rx="57.97" ry="37.45"/>
<text text-anchor="middle" x="429.98" y="-434.64" font-family="Times,serif" font-size="14.00">sigma_beta</text>
<text text-anchor="middle" x="429.98" y="-419.64" font-family="Times,serif" font-size="14.00">~</text>
<text text-anchor="middle" x="429.98" y="-404.64" font-family="Times,serif" font-size="14.00">Exponential</text>
</g>
<!-- beta_s -->
<g id="node11" class="node">
<title>beta_s</title>
<ellipse fill="none" stroke="black" cx="206.98" cy="-301.38" rx="41.94" ry="37.45"/>
<text text-anchor="middle" x="206.98" y="-312.68" font-family="Times,serif" font-size="14.00">beta_s</text>
<text text-anchor="middle" x="206.98" y="-297.68" font-family="Times,serif" font-size="14.00">~</text>
<text text-anchor="middle" x="206.98" y="-282.68" font-family="Times,serif" font-size="14.00">Normal</text>
</g>
<!-- sigma_beta&#45;&gt;beta_s -->
<g id="edge8" class="edge">
<title>sigma_beta&#45;&gt;beta_s</title>
<path fill="none" stroke="black" d="M406.64,-388.6C395.85,-375.75 381.89,-362.4 365.98,-354.86 322.09,-334.06 301.72,-365.78 256.98,-346.86 251.22,-344.42 245.68,-341.05 240.51,-337.23"/>
<polygon fill="black" stroke="black" points="242.7,-334.5 232.72,-330.95 238.31,-339.95 242.7,-334.5"/>
</g>
<!-- sigma_alpha -->
<g id="node6" class="node">
<title>sigma_alpha</title>
<ellipse fill="none" stroke="black" cx="565.98" cy="-423.34" rx="60.21" ry="37.45"/>
<text text-anchor="middle" x="565.98" y="-434.64" font-family="Times,serif" font-size="14.00">sigma_alpha</text>
<text text-anchor="middle" x="565.98" y="-419.64" font-family="Times,serif" font-size="14.00">~</text>
<text text-anchor="middle" x="565.98" y="-404.64" font-family="Times,serif" font-size="14.00">Exponential</text>
</g>
<!-- alpha_s -->
<g id="node10" class="node">
<title>alpha_s</title>
<ellipse fill="none" stroke="black" cx="307.98" cy="-301.38" rx="41.94" ry="37.45"/>
<text text-anchor="middle" x="307.98" y="-312.68" font-family="Times,serif" font-size="14.00">alpha_s</text>
<text text-anchor="middle" x="307.98" y="-297.68" font-family="Times,serif" font-size="14.00">~</text>
<text text-anchor="middle" x="307.98" y="-282.68" font-family="Times,serif" font-size="14.00">Normal</text>
</g>
<!-- sigma_alpha&#45;&gt;alpha_s -->
<g id="edge6" class="edge">
<title>sigma_alpha&#45;&gt;alpha_s</title>
<path fill="none" stroke="black" d="M538.86,-389.46C527.12,-377.06 512.52,-363.81 496.98,-354.86 454.09,-330.16 398.98,-316.59 359.35,-309.47"/>
<polygon fill="black" stroke="black" points="359.82,-306 349.37,-307.76 358.63,-312.9 359.82,-306"/>
</g>
<!-- mu_delta -->
<g id="node7" class="node">
<title>mu_delta</title>
<ellipse fill="none" stroke="black" cx="181.98" cy="-534.29" rx="48.17" ry="37.45"/>
<text text-anchor="middle" x="181.98" y="-545.59" font-family="Times,serif" font-size="14.00">mu_delta</text>
<text text-anchor="middle" x="181.98" y="-530.59" font-family="Times,serif" font-size="14.00">~</text>
<text text-anchor="middle" x="181.98" y="-515.59" font-family="Times,serif" font-size="14.00">Normal</text>
</g>
<!-- mu_delta&#45;&gt;delta_g -->
<g id="edge4" class="edge">
<title>mu_delta&#45;&gt;delta_g</title>
<path fill="none" stroke="black" d="M186.01,-496.71C186.91,-488.53 187.88,-479.75 188.82,-471.23"/>
<polygon fill="black" stroke="black" points="192.33,-471.33 189.94,-461.01 185.37,-470.57 192.33,-471.33"/>
</g>
<!-- delta_g&#45;&gt;beta_s -->
<g id="edge7" class="edge">
<title>delta_g&#45;&gt;beta_s</title>
<path fill="none" stroke="black" d="M197.92,-386.02C199.18,-374.38 200.59,-361.33 201.92,-349.06"/>
<polygon fill="black" stroke="black" points="205.42,-349.31 203.02,-338.99 198.46,-348.55 205.42,-349.31"/>
</g>
<!-- gamma_g&#45;&gt;alpha_s -->
<g id="edge5" class="edge">
<title>gamma_g&#45;&gt;alpha_s</title>
<path fill="none" stroke="black" d="M305.2,-385.69C305.58,-374.29 306.01,-361.55 306.41,-349.54"/>
<polygon fill="black" stroke="black" points="309.92,-349.33 306.75,-339.21 302.92,-349.09 309.92,-349.33"/>
</g>
<!-- mu_s -->
<g id="node13" class="node">
<title>mu_s</title>
<polygon fill="none" stroke="black" points="302.48,-213.93 211.48,-213.93 211.48,-160.93 302.48,-160.93 302.48,-213.93"/>
<text text-anchor="middle" x="256.98" y="-198.73" font-family="Times,serif" font-size="14.00">mu_s</text>
<text text-anchor="middle" x="256.98" y="-183.73" font-family="Times,serif" font-size="14.00">~</text>
<text text-anchor="middle" x="256.98" y="-168.73" font-family="Times,serif" font-size="14.00">Deterministic</text>
</g>
<!-- alpha_s&#45;&gt;mu_s -->
<g id="edge9" class="edge">
<title>alpha_s&#45;&gt;mu_s</title>
<path fill="none" stroke="black" d="M292.54,-266.49C286.3,-252.79 279.1,-236.99 272.82,-223.2"/>
<polygon fill="black" stroke="black" points="275.97,-221.68 268.64,-214.03 269.6,-224.58 275.97,-221.68"/>
</g>
<!-- beta_s&#45;&gt;mu_s -->
<g id="edge10" class="edge">
<title>beta_s&#45;&gt;mu_s</title>
<path fill="none" stroke="black" d="M222.26,-266.19C228.26,-252.73 235.16,-237.29 241.22,-223.73"/>
<polygon fill="black" stroke="black" points="244.57,-224.8 245.45,-214.25 238.18,-221.95 244.57,-224.8"/>
</g>
<!-- mu_s&#45;&gt;logfc -->
<g id="edge11" class="edge">
<title>mu_s&#45;&gt;logfc</title>
<path fill="none" stroke="black" d="M257.45,-160.89C257.65,-149.98 257.89,-136.89 258.12,-124.35"/>
<polygon fill="black" stroke="black" points="261.63,-124.06 258.31,-114 254.63,-123.94 261.63,-124.06"/>
</g>
</g>
</svg>
