<?xml version="1.0" encoding="UTF-8" standalone="no"?>
<!DOCTYPE svg PUBLIC "-//W3C//DTD SVG 1.1//EN"
 "http://www.w3.org/Graphics/SVG/1.1/DTD/svg11.dtd">
<!-- Generated by graphviz version 2.42.3 (20191010.1750)
 -->
<!-- Title: %3 Pages: 1 -->
<svg width="634pt" height="580pt"
 viewBox="0.00 0.00 634.09 579.77" xmlns="http://www.w3.org/2000/svg" xmlns:xlink="http://www.w3.org/1999/xlink">
<g id="graph0" class="graph" transform="scale(1 1) rotate(0) translate(4 575.77)">
<title>%3</title>
<polygon fill="white" stroke="transparent" points="-4,4 -4,-575.77 630.09,-575.77 630.09,4 -4,4"/>
<g id="clust1" class="cluster">
<title>cluster5</title>
<path fill="none" stroke="black" d="M155.98,-354.86C155.98,-354.86 349.98,-354.86 349.98,-354.86 355.98,-354.86 361.98,-360.86 361.98,-366.86 361.98,-366.86 361.98,-456.81 361.98,-456.81 361.98,-462.81 355.98,-468.81 349.98,-468.81 349.98,-468.81 155.98,-468.81 155.98,-468.81 149.98,-468.81 143.98,-462.81 143.98,-456.81 143.98,-456.81 143.98,-366.86 143.98,-366.86 143.98,-360.86 149.98,-354.86 155.98,-354.86"/>
<text text-anchor="middle" x="350.48" y="-362.66" font-family="Times,serif" font-size="14.00">5</text>
</g>
<g id="clust2" class="cluster">
<title>cluster15</title>
<path fill="none" stroke="black" d="M166.98,-232.91C166.98,-232.91 343.98,-232.91 343.98,-232.91 349.98,-232.91 355.98,-238.91 355.98,-244.91 355.98,-244.91 355.98,-334.86 355.98,-334.86 355.98,-340.86 349.98,-346.86 343.98,-346.86 343.98,-346.86 166.98,-346.86 166.98,-346.86 160.98,-346.86 154.98,-340.86 154.98,-334.86 154.98,-334.86 154.98,-244.91 154.98,-244.91 154.98,-238.91 160.98,-232.91 166.98,-232.91"/>
<text text-anchor="middle" x="340.98" y="-240.71" font-family="Times,serif" font-size="14.00">15</text>
</g>
<g id="clust3" class="cluster">
<title>cluster300</title>
<path fill="none" stroke="black" d="M263.98,-8C263.98,-8 347.98,-8 347.98,-8 353.98,-8 359.98,-14 359.98,-20 359.98,-20 359.98,-209.93 359.98,-209.93 359.98,-215.93 353.98,-221.93 347.98,-221.93 347.98,-221.93 263.98,-221.93 263.98,-221.93 257.98,-221.93 251.98,-215.93 251.98,-209.93 251.98,-209.93 251.98,-20 251.98,-20 251.98,-14 257.98,-8 263.98,-8"/>
<text text-anchor="middle" x="341.48" y="-15.8" font-family="Times,serif" font-size="14.00">300</text>
</g>
<!-- sigma_delta -->
<g id="node1" class="node">
<title>sigma_delta</title>
<ellipse fill="none" stroke="black" cx="57.98" cy="-534.29" rx="57.97" ry="37.45"/>
<text text-anchor="middle" x="57.98" y="-545.59" font-family="Times,serif" font-size="14.00">sigma_delta</text>
<text text-anchor="middle" x="57.98" y="-530.59" font-family="Times,serif" font-size="14.00">~</text>
<text text-anchor="middle" x="57.98" y="-515.59" font-family="Times,serif" font-size="14.00">Exponential</text>
</g>
<!-- delta_g -->
<g id="node9" class="node">
<title>delta_g</title>
<ellipse fill="none" stroke="black" cx="193.98" cy="-423.34" rx="41.94" ry="37.45"/>
<text text-anchor="middle" x="193.98" y="-434.64" font-family="Times,serif" font-size="14.00">delta_g</text>
<text text-anchor="middle" x="193.98" y="-419.64" font-family="Times,serif" font-size="14.00">~</text>
<text text-anchor="middle" x="193.98" y="-404.64" font-family="Times,serif" font-size="14.00">Normal</text>
</g>
<!-- sigma_delta&#45;&gt;delta_g -->
<g id="edge4" class="edge">
<title>sigma_delta&#45;&gt;delta_g</title>
<path fill="none" stroke="black" d="M93.72,-504.66C112.58,-489.55 135.77,-470.98 155.09,-455.5"/>
<polygon fill="black" stroke="black" points="157.49,-458.06 163.11,-449.07 153.11,-452.59 157.49,-458.06"/>
</g>
<!-- sigma_beta -->
<g id="node2" class="node">
<title>sigma_beta</title>
<ellipse fill="none" stroke="black" cx="429.98" cy="-423.34" rx="57.97" ry="37.45"/>
<text text-anchor="middle" x="429.98" y="-434.64" font-family="Times,serif" font-size="14.00">sigma_beta</text>
<text text-anchor="middle" x="429.98" y="-419.64" font-family="Times,serif" font-size="14.00">~</text>
<text text-anchor="middle" x="429.98" y="-404.64" font-family="Times,serif" font-size="14.00">Exponential</text>
</g>
<!-- beta_s -->
<g id="node12" class="node">
<title>beta_s</title>
<ellipse fill="none" stroke="black" cx="204.98" cy="-301.38" rx="41.94" ry="37.45"/>
<text text-anchor="middle" x="204.98" y="-312.68" font-family="Times,serif" font-size="14.00">beta_s</text>
<text text-anchor="middle" x="204.98" y="-297.68" font-family="Times,serif" font-size="14.00">~</text>
<text text-anchor="middle" x="204.98" y="-282.68" font-family="Times,serif" font-size="14.00">Normal</text>
</g>
<!-- sigma_beta&#45;&gt;beta_s -->
<g id="edge7" class="edge">
<title>sigma_beta&#45;&gt;beta_s</title>
<path fill="none" stroke="black" d="M406.94,-388.94C396.11,-375.98 382.04,-362.46 365.98,-354.86 321.27,-333.71 300.55,-366.1 254.98,-346.86 249.22,-344.43 243.68,-341.05 238.51,-337.24"/>
<polygon fill="black" stroke="black" points="240.7,-334.51 230.72,-330.96 236.3,-339.96 240.7,-334.51"/>
</g>
<!-- mu_delta -->
<g id="node3" class="node">
<title>mu_delta</title>
<ellipse fill="none" stroke="black" cx="181.98" cy="-534.29" rx="48.17" ry="37.45"/>
<text text-anchor="middle" x="181.98" y="-545.59" font-family="Times,serif" font-size="14.00">mu_delta</text>
<text text-anchor="middle" x="181.98" y="-530.59" font-family="Times,serif" font-size="14.00">~</text>
<text text-anchor="middle" x="181.98" y="-515.59" font-family="Times,serif" font-size="14.00">Normal</text>
</g>
<!-- mu_delta&#45;&gt;delta_g -->
<g id="edge3" class="edge">
<title>mu_delta&#45;&gt;delta_g</title>
<path fill="none" stroke="black" d="M186.01,-496.71C186.91,-488.53 187.88,-479.75 188.82,-471.23"/>
<polygon fill="black" stroke="black" points="192.33,-471.33 189.94,-461.01 185.37,-470.57 192.33,-471.33"/>
</g>
<!-- sigma_gamma -->
<g id="node4" class="node">
<title>sigma_gamma</title>
<ellipse fill="none" stroke="black" cx="316.98" cy="-534.29" rx="68.68" ry="37.45"/>
<text text-anchor="middle" x="316.98" y="-545.59" font-family="Times,serif" font-size="14.00">sigma_gamma</text>
<text text-anchor="middle" x="316.98" y="-530.59" font-family="Times,serif" font-size="14.00">~</text>
<text text-anchor="middle" x="316.98" y="-515.59" font-family="Times,serif" font-size="14.00">Exponential</text>
</g>
<!-- gamma_g -->
<g id="node10" class="node">
<title>gamma_g</title>
<ellipse fill="none" stroke="black" cx="303.98" cy="-423.34" rx="50.41" ry="37.45"/>
<text text-anchor="middle" x="303.98" y="-434.64" font-family="Times,serif" font-size="14.00">gamma_g</text>
<text text-anchor="middle" x="303.98" y="-419.64" font-family="Times,serif" font-size="14.00">~</text>
<text text-anchor="middle" x="303.98" y="-404.64" font-family="Times,serif" font-size="14.00">Normal</text>
</g>
<!-- sigma_gamma&#45;&gt;gamma_g -->
<g id="edge1" class="edge">
<title>sigma_gamma&#45;&gt;gamma_g</title>
<path fill="none" stroke="black" d="M312.62,-496.71C311.63,-488.44 310.57,-479.56 309.54,-470.95"/>
<polygon fill="black" stroke="black" points="313.02,-470.52 308.36,-461.01 306.07,-471.35 313.02,-470.52"/>
</g>
<!-- alpha -->
<g id="node5" class="node">
<title>alpha</title>
<ellipse fill="none" stroke="black" cx="406.98" cy="-301.38" rx="41.94" ry="37.45"/>
<text text-anchor="middle" x="406.98" y="-312.68" font-family="Times,serif" font-size="14.00">alpha</text>
<text text-anchor="middle" x="406.98" y="-297.68" font-family="Times,serif" font-size="14.00">~</text>
<text text-anchor="middle" x="406.98" y="-282.68" font-family="Times,serif" font-size="14.00">Normal</text>
</g>
<!-- mu_s -->
<g id="node14" class="node">
<title>mu_s</title>
<polygon fill="none" stroke="black" points="351.48,-213.93 260.48,-213.93 260.48,-160.93 351.48,-160.93 351.48,-213.93"/>
<text text-anchor="middle" x="305.98" y="-198.73" font-family="Times,serif" font-size="14.00">mu_s</text>
<text text-anchor="middle" x="305.98" y="-183.73" font-family="Times,serif" font-size="14.00">~</text>
<text text-anchor="middle" x="305.98" y="-168.73" font-family="Times,serif" font-size="14.00">Deterministic</text>
</g>
<!-- alpha&#45;&gt;mu_s -->
<g id="edge10" class="edge">
<title>alpha&#45;&gt;mu_s</title>
<path fill="none" stroke="black" d="M387.14,-268.13C379.32,-256.5 369.86,-243.61 359.98,-232.91 356.23,-228.83 352.09,-224.8 347.84,-220.92"/>
<polygon fill="black" stroke="black" points="349.92,-218.09 340.1,-214.13 345.31,-223.36 349.92,-218.09"/>
</g>
<!-- sigma -->
<g id="node6" class="node">
<title>sigma</title>
<ellipse fill="none" stroke="black" cx="426.98" cy="-187.43" rx="57.97" ry="37.45"/>
<text text-anchor="middle" x="426.98" y="-198.73" font-family="Times,serif" font-size="14.00">sigma</text>
<text text-anchor="middle" x="426.98" y="-183.73" font-family="Times,serif" font-size="14.00">~</text>
<text text-anchor="middle" x="426.98" y="-168.73" font-family="Times,serif" font-size="14.00">Exponential</text>
</g>
<!-- logfc -->
<g id="node13" class="node">
<title>logfc</title>
<ellipse fill="lightgrey" stroke="black" cx="307.98" cy="-76.48" rx="41.94" ry="37.45"/>
<text text-anchor="middle" x="307.98" y="-87.78" font-family="Times,serif" font-size="14.00">logfc</text>
<text text-anchor="middle" x="307.98" y="-72.78" font-family="Times,serif" font-size="14.00">~</text>
<text text-anchor="middle" x="307.98" y="-57.78" font-family="Times,serif" font-size="14.00">Normal</text>
</g>
<!-- sigma&#45;&gt;logfc -->
<g id="edge12" class="edge">
<title>sigma&#45;&gt;logfc</title>
<path fill="none" stroke="black" d="M394.15,-156.37C378.66,-142.19 360.13,-125.22 344.23,-110.66"/>
<polygon fill="black" stroke="black" points="346.4,-107.9 336.66,-103.73 341.67,-113.07 346.4,-107.9"/>
</g>
<!-- mu_gamma -->
<g id="node7" class="node">
<title>mu_gamma</title>
<ellipse fill="none" stroke="black" cx="461.98" cy="-534.29" rx="58.88" ry="37.45"/>
<text text-anchor="middle" x="461.98" y="-545.59" font-family="Times,serif" font-size="14.00">mu_gamma</text>
<text text-anchor="middle" x="461.98" y="-530.59" font-family="Times,serif" font-size="14.00">~</text>
<text text-anchor="middle" x="461.98" y="-515.59" font-family="Times,serif" font-size="14.00">Normal</text>
</g>
<!-- mu_gamma&#45;&gt;gamma_g -->
<g id="edge2" class="edge">
<title>mu_gamma&#45;&gt;gamma_g</title>
<path fill="none" stroke="black" d="M420.62,-507.25C402.71,-495.74 381.62,-481.89 362.98,-468.81 357.55,-465 351.9,-460.92 346.35,-456.82"/>
<polygon fill="black" stroke="black" points="348.43,-454.01 338.32,-450.84 344.25,-459.62 348.43,-454.01"/>
</g>
<!-- sigma_alpha -->
<g id="node8" class="node">
<title>sigma_alpha</title>
<ellipse fill="none" stroke="black" cx="565.98" cy="-423.34" rx="60.21" ry="37.45"/>
<text text-anchor="middle" x="565.98" y="-434.64" font-family="Times,serif" font-size="14.00">sigma_alpha</text>
<text text-anchor="middle" x="565.98" y="-419.64" font-family="Times,serif" font-size="14.00">~</text>
<text text-anchor="middle" x="565.98" y="-404.64" font-family="Times,serif" font-size="14.00">Exponential</text>
</g>
<!-- alpha_s -->
<g id="node11" class="node">
<title>alpha_s</title>
<ellipse fill="none" stroke="black" cx="305.98" cy="-301.38" rx="41.94" ry="37.45"/>
<text text-anchor="middle" x="305.98" y="-312.68" font-family="Times,serif" font-size="14.00">alpha_s</text>
<text text-anchor="middle" x="305.98" y="-297.68" font-family="Times,serif" font-size="14.00">~</text>
<text text-anchor="middle" x="305.98" y="-282.68" font-family="Times,serif" font-size="14.00">Normal</text>
</g>
<!-- sigma_alpha&#45;&gt;alpha_s -->
<g id="edge6" class="edge">
<title>sigma_alpha&#45;&gt;alpha_s</title>
<path fill="none" stroke="black" d="M541.03,-389.14C529.23,-376.05 514,-362.37 496.98,-354.86 468.27,-342.19 384.99,-358.85 355.98,-346.86 350.2,-344.47 344.65,-341.12 339.47,-337.32"/>
<polygon fill="black" stroke="black" points="341.66,-334.59 331.68,-331.05 337.27,-340.05 341.66,-334.59"/>
</g>
<!-- delta_g&#45;&gt;beta_s -->
<g id="edge8" class="edge">
<title>delta_g&#45;&gt;beta_s</title>
<path fill="none" stroke="black" d="M197.34,-385.69C198.41,-374.07 199.6,-361.06 200.72,-348.83"/>
<polygon fill="black" stroke="black" points="204.22,-349.08 201.64,-338.8 197.24,-348.44 204.22,-349.08"/>
</g>
<!-- gamma_g&#45;&gt;alpha_s -->
<g id="edge5" class="edge">
<title>gamma_g&#45;&gt;alpha_s</title>
<path fill="none" stroke="black" d="M304.59,-385.69C304.78,-374.29 305,-361.55 305.2,-349.54"/>
<polygon fill="black" stroke="black" points="308.7,-349.27 305.37,-339.21 301.7,-349.15 308.7,-349.27"/>
</g>
<!-- alpha_s&#45;&gt;mu_s -->
<g id="edge9" class="edge">
<title>alpha_s&#45;&gt;mu_s</title>
<path fill="none" stroke="black" d="M305.98,-263.73C305.98,-251.07 305.98,-236.92 305.98,-224.32"/>
<polygon fill="black" stroke="black" points="309.48,-224.18 305.98,-214.18 302.48,-224.18 309.48,-224.18"/>
</g>
<!-- beta_s&#45;&gt;mu_s -->
<g id="edge11" class="edge">
<title>beta_s&#45;&gt;mu_s</title>
<path fill="none" stroke="black" d="M226.3,-268.71C234.71,-257.02 244.79,-243.94 254.98,-232.91 258.72,-228.86 262.8,-224.81 266.97,-220.88"/>
<polygon fill="black" stroke="black" points="269.49,-223.31 274.52,-213.98 264.77,-218.14 269.49,-223.31"/>
</g>
<!-- mu_s&#45;&gt;logfc -->
<g id="edge13" class="edge">
<title>mu_s&#45;&gt;logfc</title>
<path fill="none" stroke="black" d="M306.45,-160.89C306.65,-149.98 306.89,-136.89 307.12,-124.35"/>
<polygon fill="black" stroke="black" points="310.63,-124.06 307.31,-114 303.63,-123.94 310.63,-124.06"/>
</g>
</g>
</svg>
