<?xml version="1.0" encoding="UTF-8" standalone="no"?>
<!DOCTYPE svg PUBLIC "-//W3C//DTD SVG 1.1//EN"
 "http://www.w3.org/Graphics/SVG/1.1/DTD/svg11.dtd">
<!-- Generated by graphviz version 2.42.3 (20191010.1750)
 -->
<!-- Title: %3 Pages: 1 -->
<svg width="629pt" height="580pt"
 viewBox="0.00 0.00 629.19 579.77" xmlns="http://www.w3.org/2000/svg" xmlns:xlink="http://www.w3.org/1999/xlink">
<g id="graph0" class="graph" transform="scale(1 1) rotate(0) translate(4 575.77)">
<title>%3</title>
<polygon fill="white" stroke="transparent" points="-4,4 -4,-575.77 625.19,-575.77 625.19,4 -4,4"/>
<g id="clust1" class="cluster">
<title>cluster5</title>
<path fill="none" stroke="black" d="M276.1,-354.86C276.1,-354.86 470.1,-354.86 470.1,-354.86 476.1,-354.86 482.1,-360.86 482.1,-366.86 482.1,-366.86 482.1,-456.81 482.1,-456.81 482.1,-462.81 476.1,-468.81 470.1,-468.81 470.1,-468.81 276.1,-468.81 276.1,-468.81 270.1,-468.81 264.1,-462.81 264.1,-456.81 264.1,-456.81 264.1,-366.86 264.1,-366.86 264.1,-360.86 270.1,-354.86 276.1,-354.86"/>
<text text-anchor="middle" x="470.6" y="-362.66" font-family="Times,serif" font-size="14.00">5</text>
</g>
<g id="clust2" class="cluster">
<title>cluster15</title>
<path fill="none" stroke="black" d="M167.1,-232.91C167.1,-232.91 344.1,-232.91 344.1,-232.91 350.1,-232.91 356.1,-238.91 356.1,-244.91 356.1,-244.91 356.1,-334.86 356.1,-334.86 356.1,-340.86 350.1,-346.86 344.1,-346.86 344.1,-346.86 167.1,-346.86 167.1,-346.86 161.1,-346.86 155.1,-340.86 155.1,-334.86 155.1,-334.86 155.1,-244.91 155.1,-244.91 155.1,-238.91 161.1,-232.91 167.1,-232.91"/>
<text text-anchor="middle" x="341.1" y="-240.71" font-family="Times,serif" font-size="14.00">15</text>
</g>
<g id="clust3" class="cluster">
<title>cluster300</title>
<path fill="none" stroke="black" d="M214.1,-8C214.1,-8 298.1,-8 298.1,-8 304.1,-8 310.1,-14 310.1,-20 310.1,-20 310.1,-209.93 310.1,-209.93 310.1,-215.93 304.1,-221.93 298.1,-221.93 298.1,-221.93 214.1,-221.93 214.1,-221.93 208.1,-221.93 202.1,-215.93 202.1,-209.93 202.1,-209.93 202.1,-20 202.1,-20 202.1,-14 208.1,-8 214.1,-8"/>
<text text-anchor="middle" x="291.6" y="-15.8" font-family="Times,serif" font-size="14.00">300</text>
</g>
<!-- sigma_beta -->
<g id="node1" class="node">
<title>sigma_beta</title>
<ellipse fill="none" stroke="black" cx="196.1" cy="-423.34" rx="57.97" ry="37.45"/>
<text text-anchor="middle" x="196.1" y="-434.64" font-family="Times,serif" font-size="14.00">sigma_beta</text>
<text text-anchor="middle" x="196.1" y="-419.64" font-family="Times,serif" font-size="14.00">~</text>
<text text-anchor="middle" x="196.1" y="-404.64" font-family="Times,serif" font-size="14.00">Exponential</text>
</g>
<!-- beta_s -->
<g id="node10" class="node">
<title>beta_s</title>
<ellipse fill="none" stroke="black" cx="306.1" cy="-301.38" rx="41.94" ry="37.45"/>
<text text-anchor="middle" x="306.1" y="-312.68" font-family="Times,serif" font-size="14.00">beta_s</text>
<text text-anchor="middle" x="306.1" y="-297.68" font-family="Times,serif" font-size="14.00">~</text>
<text text-anchor="middle" x="306.1" y="-282.68" font-family="Times,serif" font-size="14.00">Normal</text>
</g>
<!-- sigma_beta&#45;&gt;beta_s -->
<g id="edge7" class="edge">
<title>sigma_beta&#45;&gt;beta_s</title>
<path fill="none" stroke="black" d="M225.01,-390.82C239.8,-374.69 257.87,-354.98 273.2,-338.27"/>
<polygon fill="black" stroke="black" points="275.85,-340.56 280.03,-330.82 270.69,-335.82 275.85,-340.56"/>
</g>
<!-- sigma_alpha -->
<g id="node2" class="node">
<title>sigma_alpha</title>
<ellipse fill="none" stroke="black" cx="60.1" cy="-423.34" rx="60.21" ry="37.45"/>
<text text-anchor="middle" x="60.1" y="-434.64" font-family="Times,serif" font-size="14.00">sigma_alpha</text>
<text text-anchor="middle" x="60.1" y="-419.64" font-family="Times,serif" font-size="14.00">~</text>
<text text-anchor="middle" x="60.1" y="-404.64" font-family="Times,serif" font-size="14.00">Exponential</text>
</g>
<!-- alpha_s -->
<g id="node11" class="node">
<title>alpha_s</title>
<ellipse fill="none" stroke="black" cx="205.1" cy="-301.38" rx="41.94" ry="37.45"/>
<text text-anchor="middle" x="205.1" y="-312.68" font-family="Times,serif" font-size="14.00">alpha_s</text>
<text text-anchor="middle" x="205.1" y="-297.68" font-family="Times,serif" font-size="14.00">~</text>
<text text-anchor="middle" x="205.1" y="-282.68" font-family="Times,serif" font-size="14.00">Normal</text>
</g>
<!-- sigma_alpha&#45;&gt;alpha_s -->
<g id="edge5" class="edge">
<title>sigma_alpha&#45;&gt;alpha_s</title>
<path fill="none" stroke="black" d="M90.31,-390.6C102.02,-378.9 115.79,-365.84 129.1,-354.86 139.65,-346.17 151.61,-337.44 162.86,-329.67"/>
<polygon fill="black" stroke="black" points="164.99,-332.45 171.29,-323.93 161.06,-326.67 164.99,-332.45"/>
</g>
<!-- sigma -->
<g id="node3" class="node">
<title>sigma</title>
<ellipse fill="none" stroke="black" cx="377.1" cy="-187.43" rx="57.97" ry="37.45"/>
<text text-anchor="middle" x="377.1" y="-198.73" font-family="Times,serif" font-size="14.00">sigma</text>
<text text-anchor="middle" x="377.1" y="-183.73" font-family="Times,serif" font-size="14.00">~</text>
<text text-anchor="middle" x="377.1" y="-168.73" font-family="Times,serif" font-size="14.00">Exponential</text>
</g>
<!-- logfc -->
<g id="node13" class="node">
<title>logfc</title>
<ellipse fill="lightgrey" stroke="black" cx="258.1" cy="-76.48" rx="41.94" ry="37.45"/>
<text text-anchor="middle" x="258.1" y="-87.78" font-family="Times,serif" font-size="14.00">logfc</text>
<text text-anchor="middle" x="258.1" y="-72.78" font-family="Times,serif" font-size="14.00">~</text>
<text text-anchor="middle" x="258.1" y="-57.78" font-family="Times,serif" font-size="14.00">Normal</text>
</g>
<!-- sigma&#45;&gt;logfc -->
<g id="edge11" class="edge">
<title>sigma&#45;&gt;logfc</title>
<path fill="none" stroke="black" d="M344.27,-156.37C328.78,-142.19 310.25,-125.22 294.35,-110.66"/>
<polygon fill="black" stroke="black" points="296.52,-107.9 286.78,-103.73 291.79,-113.07 296.52,-107.9"/>
</g>
<!-- mu_gamma -->
<g id="node4" class="node">
<title>mu_gamma</title>
<ellipse fill="none" stroke="black" cx="159.1" cy="-534.29" rx="58.88" ry="37.45"/>
<text text-anchor="middle" x="159.1" y="-545.59" font-family="Times,serif" font-size="14.00">mu_gamma</text>
<text text-anchor="middle" x="159.1" y="-530.59" font-family="Times,serif" font-size="14.00">~</text>
<text text-anchor="middle" x="159.1" y="-515.59" font-family="Times,serif" font-size="14.00">Normal</text>
</g>
<!-- gamma_g -->
<g id="node8" class="node">
<title>gamma_g</title>
<ellipse fill="none" stroke="black" cx="322.1" cy="-423.34" rx="50.41" ry="37.45"/>
<text text-anchor="middle" x="322.1" y="-434.64" font-family="Times,serif" font-size="14.00">gamma_g</text>
<text text-anchor="middle" x="322.1" y="-419.64" font-family="Times,serif" font-size="14.00">~</text>
<text text-anchor="middle" x="322.1" y="-404.64" font-family="Times,serif" font-size="14.00">Normal</text>
</g>
<!-- mu_gamma&#45;&gt;gamma_g -->
<g id="edge1" class="edge">
<title>mu_gamma&#45;&gt;gamma_g</title>
<path fill="none" stroke="black" d="M201.41,-508.26C220.51,-496.65 243.21,-482.44 263.1,-468.81 268.58,-465.06 274.25,-461.01 279.82,-456.94"/>
<polygon fill="black" stroke="black" points="281.91,-459.74 287.86,-450.98 277.74,-454.12 281.91,-459.74"/>
</g>
<!-- sigma_gamma -->
<g id="node5" class="node">
<title>sigma_gamma</title>
<ellipse fill="none" stroke="black" cx="304.1" cy="-534.29" rx="68.68" ry="37.45"/>
<text text-anchor="middle" x="304.1" y="-545.59" font-family="Times,serif" font-size="14.00">sigma_gamma</text>
<text text-anchor="middle" x="304.1" y="-530.59" font-family="Times,serif" font-size="14.00">~</text>
<text text-anchor="middle" x="304.1" y="-515.59" font-family="Times,serif" font-size="14.00">Exponential</text>
</g>
<!-- sigma_gamma&#45;&gt;gamma_g -->
<g id="edge2" class="edge">
<title>sigma_gamma&#45;&gt;gamma_g</title>
<path fill="none" stroke="black" d="M310.15,-496.71C311.53,-488.35 313.01,-479.37 314.45,-470.67"/>
<polygon fill="black" stroke="black" points="317.93,-471.07 316.11,-460.64 311.02,-469.93 317.93,-471.07"/>
</g>
<!-- sigma_delta -->
<g id="node6" class="node">
<title>sigma_delta</title>
<ellipse fill="none" stroke="black" cx="449.1" cy="-534.29" rx="57.97" ry="37.45"/>
<text text-anchor="middle" x="449.1" y="-545.59" font-family="Times,serif" font-size="14.00">sigma_delta</text>
<text text-anchor="middle" x="449.1" y="-530.59" font-family="Times,serif" font-size="14.00">~</text>
<text text-anchor="middle" x="449.1" y="-515.59" font-family="Times,serif" font-size="14.00">Exponential</text>
</g>
<!-- delta_g -->
<g id="node9" class="node">
<title>delta_g</title>
<ellipse fill="none" stroke="black" cx="432.1" cy="-423.34" rx="41.94" ry="37.45"/>
<text text-anchor="middle" x="432.1" y="-434.64" font-family="Times,serif" font-size="14.00">delta_g</text>
<text text-anchor="middle" x="432.1" y="-419.64" font-family="Times,serif" font-size="14.00">~</text>
<text text-anchor="middle" x="432.1" y="-404.64" font-family="Times,serif" font-size="14.00">Normal</text>
</g>
<!-- sigma_delta&#45;&gt;delta_g -->
<g id="edge4" class="edge">
<title>sigma_delta&#45;&gt;delta_g</title>
<path fill="none" stroke="black" d="M443.4,-496.71C442.09,-488.35 440.69,-479.37 439.33,-470.67"/>
<polygon fill="black" stroke="black" points="442.77,-469.98 437.77,-460.64 435.85,-471.06 442.77,-469.98"/>
</g>
<!-- mu_delta -->
<g id="node7" class="node">
<title>mu_delta</title>
<ellipse fill="none" stroke="black" cx="573.1" cy="-534.29" rx="48.17" ry="37.45"/>
<text text-anchor="middle" x="573.1" y="-545.59" font-family="Times,serif" font-size="14.00">mu_delta</text>
<text text-anchor="middle" x="573.1" y="-530.59" font-family="Times,serif" font-size="14.00">~</text>
<text text-anchor="middle" x="573.1" y="-515.59" font-family="Times,serif" font-size="14.00">Normal</text>
</g>
<!-- mu_delta&#45;&gt;delta_g -->
<g id="edge3" class="edge">
<title>mu_delta&#45;&gt;delta_g</title>
<path fill="none" stroke="black" d="M539.33,-507.19C518.81,-491.34 492.54,-471.04 471.13,-454.5"/>
<polygon fill="black" stroke="black" points="473.24,-451.7 463.19,-448.36 468.96,-457.24 473.24,-451.7"/>
</g>
<!-- gamma_g&#45;&gt;alpha_s -->
<g id="edge6" class="edge">
<title>gamma_g&#45;&gt;alpha_s</title>
<path fill="none" stroke="black" d="M296.11,-391.09C286.09,-379.44 274.34,-366.29 263.1,-354.86 256.53,-348.18 249.29,-341.28 242.21,-334.77"/>
<polygon fill="black" stroke="black" points="244.39,-332.03 234.64,-327.9 239.69,-337.21 244.39,-332.03"/>
</g>
<!-- delta_g&#45;&gt;beta_s -->
<g id="edge8" class="edge">
<title>delta_g&#45;&gt;beta_s</title>
<path fill="none" stroke="black" d="M411.39,-390.77C402.78,-378.83 392.2,-365.56 381.1,-354.86 371.35,-345.46 359.77,-336.49 348.67,-328.72"/>
<polygon fill="black" stroke="black" points="350.54,-325.77 340.31,-323.03 346.6,-331.55 350.54,-325.77"/>
</g>
<!-- mu_s -->
<g id="node12" class="node">
<title>mu_s</title>
<polygon fill="none" stroke="black" points="301.6,-213.93 210.6,-213.93 210.6,-160.93 301.6,-160.93 301.6,-213.93"/>
<text text-anchor="middle" x="256.1" y="-198.73" font-family="Times,serif" font-size="14.00">mu_s</text>
<text text-anchor="middle" x="256.1" y="-183.73" font-family="Times,serif" font-size="14.00">~</text>
<text text-anchor="middle" x="256.1" y="-168.73" font-family="Times,serif" font-size="14.00">Deterministic</text>
</g>
<!-- beta_s&#45;&gt;mu_s -->
<g id="edge9" class="edge">
<title>beta_s&#45;&gt;mu_s</title>
<path fill="none" stroke="black" d="M290.83,-266.19C284.82,-252.73 277.93,-237.29 271.87,-223.73"/>
<polygon fill="black" stroke="black" points="274.91,-221.95 267.63,-214.25 268.52,-224.8 274.91,-221.95"/>
</g>
<!-- alpha_s&#45;&gt;mu_s -->
<g id="edge10" class="edge">
<title>alpha_s&#45;&gt;mu_s</title>
<path fill="none" stroke="black" d="M220.54,-266.49C226.79,-252.79 233.98,-236.99 240.26,-223.2"/>
<polygon fill="black" stroke="black" points="243.48,-224.58 244.44,-214.03 237.11,-221.68 243.48,-224.58"/>
</g>
<!-- mu_s&#45;&gt;logfc -->
<g id="edge12" class="edge">
<title>mu_s&#45;&gt;logfc</title>
<path fill="none" stroke="black" d="M256.57,-160.89C256.77,-149.98 257.01,-136.89 257.24,-124.35"/>
<polygon fill="black" stroke="black" points="260.75,-124.06 257.43,-114 253.75,-123.94 260.75,-124.06"/>
</g>
</g>
</svg>
