<?xml version="1.0" encoding="UTF-8" standalone="no"?>
<!DOCTYPE svg PUBLIC "-//W3C//DTD SVG 1.1//EN"
 "http://www.w3.org/Graphics/SVG/1.1/DTD/svg11.dtd">
<!-- Generated by graphviz version 2.47.0 (20210327.0129)
 -->
<!-- Pages: 1 -->
<svg width="262pt" height="233pt"
 viewBox="0.00 0.00 262.09 232.91" xmlns="http://www.w3.org/2000/svg" xmlns:xlink="http://www.w3.org/1999/xlink">
<g id="graph0" class="graph" transform="scale(1 1) rotate(0) translate(4 228.91)">
<polygon fill="white" stroke="transparent" points="-4,4 -4,-228.91 258.09,-228.91 258.09,4 -4,4"/>
<g id="clust1" class="cluster">
<title>cluster570</title>
<path fill="none" stroke="black" d="M71.79,-8C71.79,-8 161.79,-8 161.79,-8 167.79,-8 173.79,-14 173.79,-20 173.79,-20 173.79,-109.95 173.79,-109.95 173.79,-115.95 167.79,-121.95 161.79,-121.95 161.79,-121.95 71.79,-121.95 71.79,-121.95 65.79,-121.95 59.79,-115.95 59.79,-109.95 59.79,-109.95 59.79,-20 59.79,-20 59.79,-14 65.79,-8 71.79,-8"/>
<text text-anchor="middle" x="151.79" y="-15.8" font-family="Times-Roman" font-size="14.00">570</text>
</g>
<!-- a -->
<g id="node1" class="node">
<title>a</title>
<ellipse fill="none" stroke="black" cx="48.79" cy="-187.43" rx="48.58" ry="37.45"/>
<text text-anchor="middle" x="48.79" y="-198.73" font-family="Times-Roman" font-size="14.00">a</text>
<text text-anchor="middle" x="48.79" y="-183.73" font-family="Times-Roman" font-size="14.00">~</text>
<text text-anchor="middle" x="48.79" y="-168.73" font-family="Times-Roman" font-size="14.00">Normal</text>
</g>
<!-- lfc -->
<g id="node3" class="node">
<title>lfc</title>
<ellipse fill="lightgrey" stroke="black" cx="116.79" cy="-76.48" rx="48.58" ry="37.45"/>
<text text-anchor="middle" x="116.79" y="-87.78" font-family="Times-Roman" font-size="14.00">lfc</text>
<text text-anchor="middle" x="116.79" y="-72.78" font-family="Times-Roman" font-size="14.00">~</text>
<text text-anchor="middle" x="116.79" y="-57.78" font-family="Times-Roman" font-size="14.00">Normal</text>
</g>
<!-- a&#45;&gt;lfc -->
<g id="edge1" class="edge">
<title>a&#45;&gt;lfc</title>
<path fill="none" stroke="black" d="M69.38,-153.44C76.04,-142.77 83.52,-130.78 90.54,-119.54"/>
<polygon fill="black" stroke="black" points="93.71,-121.06 96.04,-110.73 87.78,-117.36 93.71,-121.06"/>
</g>
<!-- σ -->
<g id="node2" class="node">
<title>σ</title>
<ellipse fill="none" stroke="black" cx="184.79" cy="-187.43" rx="69.09" ry="37.45"/>
<text text-anchor="middle" x="184.79" y="-198.73" font-family="Times-Roman" font-size="14.00">σ</text>
<text text-anchor="middle" x="184.79" y="-183.73" font-family="Times-Roman" font-size="14.00">~</text>
<text text-anchor="middle" x="184.79" y="-168.73" font-family="Times-Roman" font-size="14.00">HalfNormal</text>
</g>
<!-- σ&#45;&gt;lfc -->
<g id="edge2" class="edge">
<title>σ&#45;&gt;lfc</title>
<path fill="none" stroke="black" d="M163.09,-151.66C156.71,-141.44 149.67,-130.15 143.04,-119.53"/>
<polygon fill="black" stroke="black" points="145.86,-117.44 137.59,-110.81 139.92,-121.14 145.86,-117.44"/>
</g>
</g>
</svg>
