<?xml version="1.0" encoding="UTF-8" standalone="no"?>
<!DOCTYPE svg PUBLIC "-//W3C//DTD SVG 1.1//EN"
 "http://www.w3.org/Graphics/SVG/1.1/DTD/svg11.dtd">
<!-- Generated by graphviz version 2.48.0 (0)
 -->
<!-- Pages: 1 -->
<svg width="1055pt" height="630pt"
 viewBox="0.00 0.00 1055.36 629.86" xmlns="http://www.w3.org/2000/svg" xmlns:xlink="http://www.w3.org/1999/xlink">
<g id="graph0" class="graph" transform="scale(1 1) rotate(0) translate(4 625.86)">
<polygon fill="white" stroke="transparent" points="-4,4 -4,-625.86 1051.36,-625.86 1051.36,4 -4,4"/>
<g id="clust1" class="cluster">
<title>cluster959</title>
<path fill="none" stroke="black" d="M138.4,-8C138.4,-8 329.4,-8 329.4,-8 335.4,-8 341.4,-14 341.4,-20 341.4,-20 341.4,-490.91 341.4,-490.91 341.4,-496.91 335.4,-502.91 329.4,-502.91 329.4,-502.91 138.4,-502.91 138.4,-502.91 132.4,-502.91 126.4,-496.91 126.4,-490.91 126.4,-490.91 126.4,-20 126.4,-20 126.4,-14 132.4,-8 138.4,-8"/>
<text text-anchor="middle" x="322.9" y="-15.8" font-family="Times,serif" font-size="14.00">959</text>
</g>
<g id="clust2" class="cluster">
<title>cluster101</title>
<path fill="none" stroke="black" d="M361.4,-410.91C361.4,-410.91 447.4,-410.91 447.4,-410.91 453.4,-410.91 459.4,-416.91 459.4,-422.91 459.4,-422.91 459.4,-601.86 459.4,-601.86 459.4,-607.86 453.4,-613.86 447.4,-613.86 447.4,-613.86 361.4,-613.86 361.4,-613.86 355.4,-613.86 349.4,-607.86 349.4,-601.86 349.4,-601.86 349.4,-422.91 349.4,-422.91 349.4,-416.91 355.4,-410.91 361.4,-410.91"/>
<text text-anchor="middle" x="440.9" y="-418.71" font-family="Times,serif" font-size="14.00">101</text>
</g>
<g id="clust3" class="cluster">
<title>cluster6</title>
<path fill="none" stroke="black" d="M709.4,-410.91C709.4,-410.91 797.4,-410.91 797.4,-410.91 803.4,-410.91 809.4,-416.91 809.4,-422.91 809.4,-422.91 809.4,-601.86 809.4,-601.86 809.4,-607.86 803.4,-613.86 797.4,-613.86 797.4,-613.86 709.4,-613.86 709.4,-613.86 703.4,-613.86 697.4,-607.86 697.4,-601.86 697.4,-601.86 697.4,-422.91 697.4,-422.91 697.4,-416.91 703.4,-410.91 709.4,-410.91"/>
<text text-anchor="middle" x="797.9" y="-418.71" font-family="Times,serif" font-size="14.00">6</text>
</g>
<!-- initial_count -->
<g id="node1" class="node">
<title>initial_count</title>
<path fill="lightgrey" stroke="black" d="M320.9,-402.91C320.9,-402.91 257.9,-402.91 257.9,-402.91 251.9,-402.91 245.9,-396.91 245.9,-390.91 245.9,-390.91 245.9,-361.91 245.9,-361.91 245.9,-355.91 251.9,-349.91 257.9,-349.91 257.9,-349.91 320.9,-349.91 320.9,-349.91 326.9,-349.91 332.9,-355.91 332.9,-361.91 332.9,-361.91 332.9,-390.91 332.9,-390.91 332.9,-396.91 326.9,-402.91 320.9,-402.91"/>
<text text-anchor="middle" x="289.4" y="-387.71" font-family="Times,serif" font-size="14.00">initial_count</text>
<text text-anchor="middle" x="289.4" y="-372.71" font-family="Times,serif" font-size="14.00">~</text>
<text text-anchor="middle" x="289.4" y="-357.71" font-family="Times,serif" font-size="14.00">Data</text>
</g>
<!-- μ -->
<g id="node4" class="node">
<title>μ</title>
<polygon fill="none" stroke="black" points="264.9,-302.93 171.9,-302.93 171.9,-249.93 264.9,-249.93 264.9,-302.93"/>
<text text-anchor="middle" x="218.4" y="-287.73" font-family="Times,serif" font-size="14.00">μ</text>
<text text-anchor="middle" x="218.4" y="-272.73" font-family="Times,serif" font-size="14.00">~</text>
<text text-anchor="middle" x="218.4" y="-257.73" font-family="Times,serif" font-size="14.00">Deterministic</text>
</g>
<!-- initial_count&#45;&gt;μ -->
<g id="edge14" class="edge">
<title>initial_count&#45;&gt;μ</title>
<path fill="none" stroke="black" d="M270.74,-349.66C262.26,-337.96 252.12,-323.96 243.02,-311.41"/>
<polygon fill="black" stroke="black" points="245.63,-309.04 236.93,-303 239.96,-313.15 245.63,-309.04"/>
</g>
<!-- η -->
<g id="node2" class="node">
<title>η</title>
<polygon fill="none" stroke="black" points="227.9,-402.91 134.9,-402.91 134.9,-349.91 227.9,-349.91 227.9,-402.91"/>
<text text-anchor="middle" x="181.4" y="-387.71" font-family="Times,serif" font-size="14.00">η</text>
<text text-anchor="middle" x="181.4" y="-372.71" font-family="Times,serif" font-size="14.00">~</text>
<text text-anchor="middle" x="181.4" y="-357.71" font-family="Times,serif" font-size="14.00">Deterministic</text>
</g>
<!-- η&#45;&gt;μ -->
<g id="edge13" class="edge">
<title>η&#45;&gt;μ</title>
<path fill="none" stroke="black" d="M191.12,-349.66C195.41,-338.3 200.52,-324.77 205.15,-312.5"/>
<polygon fill="black" stroke="black" points="208.48,-313.59 208.74,-303 201.93,-311.12 208.48,-313.59"/>
</g>
<!-- y -->
<g id="node3" class="node">
<title>y</title>
<ellipse fill="lightgrey" stroke="black" cx="218.4" cy="-165.48" rx="84.29" ry="37.45"/>
<text text-anchor="middle" x="218.4" y="-176.78" font-family="Times,serif" font-size="14.00">y</text>
<text text-anchor="middle" x="218.4" y="-161.78" font-family="Times,serif" font-size="14.00">~</text>
<text text-anchor="middle" x="218.4" y="-146.78" font-family="Times,serif" font-size="14.00">NegativeBinomial</text>
</g>
<!-- final_count -->
<g id="node7" class="node">
<title>final_count</title>
<path fill="lightgrey" stroke="black" d="M245.9,-92C245.9,-92 190.9,-92 190.9,-92 184.9,-92 178.9,-86 178.9,-80 178.9,-80 178.9,-51 178.9,-51 178.9,-45 184.9,-39 190.9,-39 190.9,-39 245.9,-39 245.9,-39 251.9,-39 257.9,-45 257.9,-51 257.9,-51 257.9,-80 257.9,-80 257.9,-86 251.9,-92 245.9,-92"/>
<text text-anchor="middle" x="218.4" y="-76.8" font-family="Times,serif" font-size="14.00">final_count</text>
<text text-anchor="middle" x="218.4" y="-61.8" font-family="Times,serif" font-size="14.00">~</text>
<text text-anchor="middle" x="218.4" y="-46.8" font-family="Times,serif" font-size="14.00">Data</text>
</g>
<!-- y&#45;&gt;final_count -->
<g id="edge1" class="edge">
<title>y&#45;&gt;final_count</title>
<path fill="none" stroke="black" d="M218.4,-127.99C218.4,-119.58 218.4,-110.63 218.4,-102.25"/>
<polygon fill="black" stroke="black" points="221.9,-102.01 218.4,-92.01 214.9,-102.01 221.9,-102.01"/>
</g>
<!-- μ&#45;&gt;y -->
<g id="edge15" class="edge">
<title>μ&#45;&gt;y</title>
<path fill="none" stroke="black" d="M218.4,-249.89C218.4,-238.98 218.4,-225.89 218.4,-213.35"/>
<polygon fill="black" stroke="black" points="221.9,-213 218.4,-203 214.9,-213 221.9,-213"/>
</g>
<!-- g -->
<g id="node5" class="node">
<title>g</title>
<path fill="lightgrey" stroke="black" d="M320.4,-494.91C320.4,-494.91 290.4,-494.91 290.4,-494.91 284.4,-494.91 278.4,-488.91 278.4,-482.91 278.4,-482.91 278.4,-453.91 278.4,-453.91 278.4,-447.91 284.4,-441.91 290.4,-441.91 290.4,-441.91 320.4,-441.91 320.4,-441.91 326.4,-441.91 332.4,-447.91 332.4,-453.91 332.4,-453.91 332.4,-482.91 332.4,-482.91 332.4,-488.91 326.4,-494.91 320.4,-494.91"/>
<text text-anchor="middle" x="305.4" y="-479.71" font-family="Times,serif" font-size="14.00">g</text>
<text text-anchor="middle" x="305.4" y="-464.71" font-family="Times,serif" font-size="14.00">~</text>
<text text-anchor="middle" x="305.4" y="-449.71" font-family="Times,serif" font-size="14.00">Data</text>
</g>
<!-- g&#45;&gt;η -->
<g id="edge10" class="edge">
<title>g&#45;&gt;η</title>
<path fill="none" stroke="black" d="M294.39,-441.69C288.47,-430.71 280.16,-418.66 269.4,-410.91 259.36,-403.68 253.33,-406.39 237.85,-402.45"/>
<polygon fill="black" stroke="black" points="238.78,-399.07 228.2,-399.47 236.72,-405.76 238.78,-399.07"/>
</g>
<!-- c -->
<g id="node6" class="node">
<title>c</title>
<path fill="lightgrey" stroke="black" d="M248.4,-494.91C248.4,-494.91 218.4,-494.91 218.4,-494.91 212.4,-494.91 206.4,-488.91 206.4,-482.91 206.4,-482.91 206.4,-453.91 206.4,-453.91 206.4,-447.91 212.4,-441.91 218.4,-441.91 218.4,-441.91 248.4,-441.91 248.4,-441.91 254.4,-441.91 260.4,-447.91 260.4,-453.91 260.4,-453.91 260.4,-482.91 260.4,-482.91 260.4,-488.91 254.4,-494.91 248.4,-494.91"/>
<text text-anchor="middle" x="233.4" y="-479.71" font-family="Times,serif" font-size="14.00">c</text>
<text text-anchor="middle" x="233.4" y="-464.71" font-family="Times,serif" font-size="14.00">~</text>
<text text-anchor="middle" x="233.4" y="-449.71" font-family="Times,serif" font-size="14.00">Data</text>
</g>
<!-- c&#45;&gt;η -->
<g id="edge11" class="edge">
<title>c&#45;&gt;η</title>
<path fill="none" stroke="black" d="M218.63,-441.86C213.26,-432.55 207.08,-421.86 201.33,-411.9"/>
<polygon fill="black" stroke="black" points="204.23,-409.93 196.2,-403.02 198.17,-413.43 204.23,-409.93"/>
</g>
<!-- x_cna -->
<g id="node8" class="node">
<title>x_cna</title>
<path fill="lightgrey" stroke="black" d="M176.4,-494.91C176.4,-494.91 146.4,-494.91 146.4,-494.91 140.4,-494.91 134.4,-488.91 134.4,-482.91 134.4,-482.91 134.4,-453.91 134.4,-453.91 134.4,-447.91 140.4,-441.91 146.4,-441.91 146.4,-441.91 176.4,-441.91 176.4,-441.91 182.4,-441.91 188.4,-447.91 188.4,-453.91 188.4,-453.91 188.4,-482.91 188.4,-482.91 188.4,-488.91 182.4,-494.91 176.4,-494.91"/>
<text text-anchor="middle" x="161.4" y="-479.71" font-family="Times,serif" font-size="14.00">x_cna</text>
<text text-anchor="middle" x="161.4" y="-464.71" font-family="Times,serif" font-size="14.00">~</text>
<text text-anchor="middle" x="161.4" y="-449.71" font-family="Times,serif" font-size="14.00">Data</text>
</g>
<!-- x_cna&#45;&gt;η -->
<g id="edge12" class="edge">
<title>x_cna&#45;&gt;η</title>
<path fill="none" stroke="black" d="M167.07,-441.86C169.08,-432.83 171.37,-422.51 173.53,-412.82"/>
<polygon fill="black" stroke="black" points="176.95,-413.54 175.71,-403.02 170.12,-412.02 176.95,-413.54"/>
</g>
<!-- σ_β_cna -->
<g id="node9" class="node">
<title>σ_β_cna</title>
<ellipse fill="none" stroke="black" cx="878.4" cy="-568.38" rx="59.29" ry="37.45"/>
<text text-anchor="middle" x="878.4" y="-579.68" font-family="Times,serif" font-size="14.00">σ_β_cna</text>
<text text-anchor="middle" x="878.4" y="-564.68" font-family="Times,serif" font-size="14.00">~</text>
<text text-anchor="middle" x="878.4" y="-549.68" font-family="Times,serif" font-size="14.00">HalfNormal</text>
</g>
<!-- β_cna -->
<g id="node16" class="node">
<title>β_cna</title>
<polygon fill="none" stroke="black" points="799.9,-494.91 706.9,-494.91 706.9,-441.91 799.9,-441.91 799.9,-494.91"/>
<text text-anchor="middle" x="753.4" y="-479.71" font-family="Times,serif" font-size="14.00">β_cna</text>
<text text-anchor="middle" x="753.4" y="-464.71" font-family="Times,serif" font-size="14.00">~</text>
<text text-anchor="middle" x="753.4" y="-449.71" font-family="Times,serif" font-size="14.00">Deterministic</text>
</g>
<!-- σ_β_cna&#45;&gt;β_cna -->
<g id="edge6" class="edge">
<title>σ_β_cna&#45;&gt;β_cna</title>
<path fill="none" stroke="black" d="M841.91,-538.78C827.07,-527.15 809.85,-513.66 794.57,-501.68"/>
<polygon fill="black" stroke="black" points="796.34,-498.62 786.31,-495.2 792.02,-504.13 796.34,-498.62"/>
</g>
<!-- μ_β_cna -->
<g id="node10" class="node">
<title>μ_β_cna</title>
<ellipse fill="none" stroke="black" cx="1001.4" cy="-568.38" rx="45.92" ry="37.45"/>
<text text-anchor="middle" x="1001.4" y="-579.68" font-family="Times,serif" font-size="14.00">μ_β_cna</text>
<text text-anchor="middle" x="1001.4" y="-564.68" font-family="Times,serif" font-size="14.00">~</text>
<text text-anchor="middle" x="1001.4" y="-549.68" font-family="Times,serif" font-size="14.00">Normal</text>
</g>
<!-- μ_β_cna&#45;&gt;β_cna -->
<g id="edge7" class="edge">
<title>μ_β_cna&#45;&gt;β_cna</title>
<path fill="none" stroke="black" d="M967.64,-542.9C960.81,-538.55 953.53,-534.32 946.4,-530.91 902.25,-509.74 849.05,-493.41 809.69,-482.91"/>
<polygon fill="black" stroke="black" points="810.56,-479.52 800,-480.37 808.79,-486.29 810.56,-479.52"/>
</g>
<!-- μ_β_0 -->
<g id="node11" class="node">
<title>μ_β_0</title>
<ellipse fill="none" stroke="black" cx="509.4" cy="-568.38" rx="41.94" ry="37.45"/>
<text text-anchor="middle" x="509.4" y="-579.68" font-family="Times,serif" font-size="14.00">μ_β_0</text>
<text text-anchor="middle" x="509.4" y="-564.68" font-family="Times,serif" font-size="14.00">~</text>
<text text-anchor="middle" x="509.4" y="-549.68" font-family="Times,serif" font-size="14.00">Normal</text>
</g>
<!-- β_0 -->
<g id="node14" class="node">
<title>β_0</title>
<polygon fill="none" stroke="black" points="450.9,-494.91 357.9,-494.91 357.9,-441.91 450.9,-441.91 450.9,-494.91"/>
<text text-anchor="middle" x="404.4" y="-479.71" font-family="Times,serif" font-size="14.00">β_0</text>
<text text-anchor="middle" x="404.4" y="-464.71" font-family="Times,serif" font-size="14.00">~</text>
<text text-anchor="middle" x="404.4" y="-449.71" font-family="Times,serif" font-size="14.00">Deterministic</text>
</g>
<!-- μ_β_0&#45;&gt;β_0 -->
<g id="edge4" class="edge">
<title>μ_β_0&#45;&gt;β_0</title>
<path fill="none" stroke="black" d="M480.98,-540.87C468.07,-528.82 452.67,-514.45 439.08,-501.77"/>
<polygon fill="black" stroke="black" points="441.45,-499.19 431.75,-494.93 436.67,-504.31 441.45,-499.19"/>
</g>
<!-- α -->
<g id="node12" class="node">
<title>α</title>
<ellipse fill="none" stroke="black" cx="59.4" cy="-276.43" rx="59.29" ry="37.45"/>
<text text-anchor="middle" x="59.4" y="-287.73" font-family="Times,serif" font-size="14.00">α</text>
<text text-anchor="middle" x="59.4" y="-272.73" font-family="Times,serif" font-size="14.00">~</text>
<text text-anchor="middle" x="59.4" y="-257.73" font-family="Times,serif" font-size="14.00">HalfNormal</text>
</g>
<!-- α&#45;&gt;y -->
<g id="edge16" class="edge">
<title>α&#45;&gt;y</title>
<path fill="none" stroke="black" d="M99.11,-248.22C119,-234.58 143.38,-217.88 164.9,-203.14"/>
<polygon fill="black" stroke="black" points="167.03,-205.92 173.3,-197.38 163.07,-200.15 167.03,-205.92"/>
</g>
<!-- σ_β_0 -->
<g id="node13" class="node">
<title>σ_β_0</title>
<ellipse fill="none" stroke="black" cx="628.4" cy="-568.38" rx="59.29" ry="37.45"/>
<text text-anchor="middle" x="628.4" y="-579.68" font-family="Times,serif" font-size="14.00">σ_β_0</text>
<text text-anchor="middle" x="628.4" y="-564.68" font-family="Times,serif" font-size="14.00">~</text>
<text text-anchor="middle" x="628.4" y="-549.68" font-family="Times,serif" font-size="14.00">HalfNormal</text>
</g>
<!-- σ_β_0&#45;&gt;β_0 -->
<g id="edge2" class="edge">
<title>σ_β_0&#45;&gt;β_0</title>
<path fill="none" stroke="black" d="M584.52,-542.88C576.57,-538.72 568.3,-534.57 560.4,-530.91 527.86,-515.83 490.52,-501.03 460.53,-489.72"/>
<polygon fill="black" stroke="black" points="461.66,-486.41 451.07,-486.18 459.21,-492.96 461.66,-486.41"/>
</g>
<!-- β_0&#45;&gt;η -->
<g id="edge9" class="edge">
<title>β_0&#45;&gt;η</title>
<path fill="none" stroke="black" d="M384.77,-441.79C374.42,-430.25 360.69,-417.71 345.4,-410.91 325.47,-402.04 272.11,-407.57 237.94,-402.15"/>
<polygon fill="black" stroke="black" points="238.51,-398.69 228.01,-400.08 237.09,-405.54 238.51,-398.69"/>
</g>
<!-- Δ_β_0 -->
<g id="node15" class="node">
<title>Δ_β_0</title>
<ellipse fill="none" stroke="black" cx="404.4" cy="-568.38" rx="41.94" ry="37.45"/>
<text text-anchor="middle" x="404.4" y="-579.68" font-family="Times,serif" font-size="14.00">Δ_β_0</text>
<text text-anchor="middle" x="404.4" y="-564.68" font-family="Times,serif" font-size="14.00">~</text>
<text text-anchor="middle" x="404.4" y="-549.68" font-family="Times,serif" font-size="14.00">Normal</text>
</g>
<!-- Δ_β_0&#45;&gt;β_0 -->
<g id="edge3" class="edge">
<title>Δ_β_0&#45;&gt;β_0</title>
<path fill="none" stroke="black" d="M404.4,-530.9C404.4,-522.48 404.4,-513.54 404.4,-505.16"/>
<polygon fill="black" stroke="black" points="407.9,-504.92 404.4,-494.92 400.9,-504.92 407.9,-504.92"/>
</g>
<!-- β_cna&#45;&gt;η -->
<g id="edge8" class="edge">
<title>β_cna&#45;&gt;η</title>
<path fill="none" stroke="black" d="M706.79,-455.98C649.78,-442.54 550.16,-420.83 463.4,-410.91 416.2,-405.51 299.99,-413.46 238.14,-402.35"/>
<polygon fill="black" stroke="black" points="238.48,-398.84 227.98,-400.22 237.05,-405.69 238.48,-398.84"/>
</g>
<!-- Δ_β_cna -->
<g id="node17" class="node">
<title>Δ_β_cna</title>
<ellipse fill="none" stroke="black" cx="753.4" cy="-568.38" rx="48.17" ry="37.45"/>
<text text-anchor="middle" x="753.4" y="-579.68" font-family="Times,serif" font-size="14.00">Δ_β_cna</text>
<text text-anchor="middle" x="753.4" y="-564.68" font-family="Times,serif" font-size="14.00">~</text>
<text text-anchor="middle" x="753.4" y="-549.68" font-family="Times,serif" font-size="14.00">Normal</text>
</g>
<!-- Δ_β_cna&#45;&gt;β_cna -->
<g id="edge5" class="edge">
<title>Δ_β_cna&#45;&gt;β_cna</title>
<path fill="none" stroke="black" d="M753.4,-530.9C753.4,-522.48 753.4,-513.54 753.4,-505.16"/>
<polygon fill="black" stroke="black" points="756.9,-504.92 753.4,-494.92 749.9,-504.92 756.9,-504.92"/>
</g>
</g>
</svg>
