<?xml version="1.0" encoding="UTF-8" standalone="no"?>
<!DOCTYPE svg PUBLIC "-//W3C//DTD SVG 1.1//EN"
 "http://www.w3.org/Graphics/SVG/1.1/DTD/svg11.dtd">
<!-- Generated by graphviz version 2.48.0 (0)
 -->
<!-- Pages: 1 -->
<svg width="698pt" height="630pt"
 viewBox="0.00 0.00 697.79 629.86" xmlns="http://www.w3.org/2000/svg" xmlns:xlink="http://www.w3.org/1999/xlink">
<g id="graph0" class="graph" transform="scale(1 1) rotate(0) translate(4 625.86)">
<polygon fill="white" stroke="transparent" points="-4,4 -4,-625.86 693.79,-625.86 693.79,4 -4,4"/>
<g id="clust1" class="cluster">
<title>cluster570</title>
<path fill="none" stroke="black" d="M140.4,-8C140.4,-8 331.4,-8 331.4,-8 337.4,-8 343.4,-14 343.4,-20 343.4,-20 343.4,-490.91 343.4,-490.91 343.4,-496.91 337.4,-502.91 331.4,-502.91 331.4,-502.91 140.4,-502.91 140.4,-502.91 134.4,-502.91 128.4,-496.91 128.4,-490.91 128.4,-490.91 128.4,-20 128.4,-20 128.4,-14 134.4,-8 140.4,-8"/>
<text text-anchor="middle" x="324.9" y="-15.8" font-family="Times,serif" font-size="14.00">570</text>
</g>
<g id="clust2" class="cluster">
<title>cluster60</title>
<path fill="none" stroke="black" d="M363.4,-410.91C363.4,-410.91 449.4,-410.91 449.4,-410.91 455.4,-410.91 461.4,-416.91 461.4,-422.91 461.4,-422.91 461.4,-601.86 461.4,-601.86 461.4,-607.86 455.4,-613.86 449.4,-613.86 449.4,-613.86 363.4,-613.86 363.4,-613.86 357.4,-613.86 351.4,-607.86 351.4,-601.86 351.4,-601.86 351.4,-422.91 351.4,-422.91 351.4,-416.91 357.4,-410.91 363.4,-410.91"/>
<text text-anchor="middle" x="446.4" y="-418.71" font-family="Times,serif" font-size="14.00">60</text>
</g>
<!-- η -->
<g id="node1" class="node">
<title>η</title>
<polygon fill="none" stroke="black" points="281.9,-402.91 188.9,-402.91 188.9,-349.91 281.9,-349.91 281.9,-402.91"/>
<text text-anchor="middle" x="235.4" y="-387.71" font-family="Times,serif" font-size="14.00">η</text>
<text text-anchor="middle" x="235.4" y="-372.71" font-family="Times,serif" font-size="14.00">~</text>
<text text-anchor="middle" x="235.4" y="-357.71" font-family="Times,serif" font-size="14.00">Deterministic</text>
</g>
<!-- μ -->
<g id="node5" class="node">
<title>μ</title>
<polygon fill="none" stroke="black" points="229.9,-302.93 136.9,-302.93 136.9,-249.93 229.9,-249.93 229.9,-302.93"/>
<text text-anchor="middle" x="183.4" y="-287.73" font-family="Times,serif" font-size="14.00">μ</text>
<text text-anchor="middle" x="183.4" y="-272.73" font-family="Times,serif" font-size="14.00">~</text>
<text text-anchor="middle" x="183.4" y="-257.73" font-family="Times,serif" font-size="14.00">Deterministic</text>
</g>
<!-- η&#45;&gt;μ -->
<g id="edge7" class="edge">
<title>η&#45;&gt;μ</title>
<path fill="none" stroke="black" d="M221.73,-349.66C215.64,-338.19 208.38,-324.5 201.82,-312.14"/>
<polygon fill="black" stroke="black" points="204.75,-310.19 196.97,-303 198.56,-313.47 204.75,-310.19"/>
</g>
<!-- y -->
<g id="node2" class="node">
<title>y</title>
<ellipse fill="lightgrey" stroke="black" cx="220.4" cy="-165.48" rx="84.29" ry="37.45"/>
<text text-anchor="middle" x="220.4" y="-176.78" font-family="Times,serif" font-size="14.00">y</text>
<text text-anchor="middle" x="220.4" y="-161.78" font-family="Times,serif" font-size="14.00">~</text>
<text text-anchor="middle" x="220.4" y="-146.78" font-family="Times,serif" font-size="14.00">NegativeBinomial</text>
</g>
<!-- final_count -->
<g id="node6" class="node">
<title>final_count</title>
<path fill="lightgrey" stroke="black" d="M247.9,-92C247.9,-92 192.9,-92 192.9,-92 186.9,-92 180.9,-86 180.9,-80 180.9,-80 180.9,-51 180.9,-51 180.9,-45 186.9,-39 192.9,-39 192.9,-39 247.9,-39 247.9,-39 253.9,-39 259.9,-45 259.9,-51 259.9,-51 259.9,-80 259.9,-80 259.9,-86 253.9,-92 247.9,-92"/>
<text text-anchor="middle" x="220.4" y="-76.8" font-family="Times,serif" font-size="14.00">final_count</text>
<text text-anchor="middle" x="220.4" y="-61.8" font-family="Times,serif" font-size="14.00">~</text>
<text text-anchor="middle" x="220.4" y="-46.8" font-family="Times,serif" font-size="14.00">Data</text>
</g>
<!-- y&#45;&gt;final_count -->
<g id="edge1" class="edge">
<title>y&#45;&gt;final_count</title>
<path fill="none" stroke="black" d="M220.4,-127.99C220.4,-119.58 220.4,-110.63 220.4,-102.25"/>
<polygon fill="black" stroke="black" points="223.9,-102.01 220.4,-92.01 216.9,-102.01 223.9,-102.01"/>
</g>
<!-- initial_count -->
<g id="node3" class="node">
<title>initial_count</title>
<path fill="lightgrey" stroke="black" d="M322.9,-302.93C322.9,-302.93 259.9,-302.93 259.9,-302.93 253.9,-302.93 247.9,-296.93 247.9,-290.93 247.9,-290.93 247.9,-261.93 247.9,-261.93 247.9,-255.93 253.9,-249.93 259.9,-249.93 259.9,-249.93 322.9,-249.93 322.9,-249.93 328.9,-249.93 334.9,-255.93 334.9,-261.93 334.9,-261.93 334.9,-290.93 334.9,-290.93 334.9,-296.93 328.9,-302.93 322.9,-302.93"/>
<text text-anchor="middle" x="291.4" y="-287.73" font-family="Times,serif" font-size="14.00">initial_count</text>
<text text-anchor="middle" x="291.4" y="-272.73" font-family="Times,serif" font-size="14.00">~</text>
<text text-anchor="middle" x="291.4" y="-257.73" font-family="Times,serif" font-size="14.00">Data</text>
</g>
<!-- initial_count&#45;&gt;y -->
<g id="edge8" class="edge">
<title>initial_count&#45;&gt;y</title>
<path fill="none" stroke="black" d="M274.75,-249.89C267.08,-238.12 257.77,-223.82 249.03,-210.41"/>
<polygon fill="black" stroke="black" points="251.78,-208.23 243.39,-201.76 245.92,-212.05 251.78,-208.23"/>
</g>
<!-- g -->
<g id="node4" class="node">
<title>g</title>
<path fill="lightgrey" stroke="black" d="M250.4,-494.91C250.4,-494.91 220.4,-494.91 220.4,-494.91 214.4,-494.91 208.4,-488.91 208.4,-482.91 208.4,-482.91 208.4,-453.91 208.4,-453.91 208.4,-447.91 214.4,-441.91 220.4,-441.91 220.4,-441.91 250.4,-441.91 250.4,-441.91 256.4,-441.91 262.4,-447.91 262.4,-453.91 262.4,-453.91 262.4,-482.91 262.4,-482.91 262.4,-488.91 256.4,-494.91 250.4,-494.91"/>
<text text-anchor="middle" x="235.4" y="-479.71" font-family="Times,serif" font-size="14.00">g</text>
<text text-anchor="middle" x="235.4" y="-464.71" font-family="Times,serif" font-size="14.00">~</text>
<text text-anchor="middle" x="235.4" y="-449.71" font-family="Times,serif" font-size="14.00">Data</text>
</g>
<!-- g&#45;&gt;η -->
<g id="edge5" class="edge">
<title>g&#45;&gt;η</title>
<path fill="none" stroke="black" d="M235.4,-441.86C235.4,-432.93 235.4,-422.73 235.4,-413.12"/>
<polygon fill="black" stroke="black" points="238.9,-413.02 235.4,-403.02 231.9,-413.02 238.9,-413.02"/>
</g>
<!-- μ&#45;&gt;y -->
<g id="edge9" class="edge">
<title>μ&#45;&gt;y</title>
<path fill="none" stroke="black" d="M192.07,-249.89C195.88,-238.66 200.48,-225.12 204.85,-212.25"/>
<polygon fill="black" stroke="black" points="208.23,-213.18 208.13,-202.59 201.6,-210.93 208.23,-213.18"/>
</g>
<!-- μ_β_0 -->
<g id="node7" class="node">
<title>μ_β_0</title>
<ellipse fill="none" stroke="black" cx="511.4" cy="-568.38" rx="41.94" ry="37.45"/>
<text text-anchor="middle" x="511.4" y="-579.68" font-family="Times,serif" font-size="14.00">μ_β_0</text>
<text text-anchor="middle" x="511.4" y="-564.68" font-family="Times,serif" font-size="14.00">~</text>
<text text-anchor="middle" x="511.4" y="-549.68" font-family="Times,serif" font-size="14.00">Normal</text>
</g>
<!-- β_0 -->
<g id="node11" class="node">
<title>β_0</title>
<polygon fill="none" stroke="black" points="452.9,-494.91 359.9,-494.91 359.9,-441.91 452.9,-441.91 452.9,-494.91"/>
<text text-anchor="middle" x="406.4" y="-479.71" font-family="Times,serif" font-size="14.00">β_0</text>
<text text-anchor="middle" x="406.4" y="-464.71" font-family="Times,serif" font-size="14.00">~</text>
<text text-anchor="middle" x="406.4" y="-449.71" font-family="Times,serif" font-size="14.00">Deterministic</text>
</g>
<!-- μ_β_0&#45;&gt;β_0 -->
<g id="edge3" class="edge">
<title>μ_β_0&#45;&gt;β_0</title>
<path fill="none" stroke="black" d="M482.98,-540.87C470.07,-528.82 454.67,-514.45 441.08,-501.77"/>
<polygon fill="black" stroke="black" points="443.45,-499.19 433.75,-494.93 438.67,-504.31 443.45,-499.19"/>
</g>
<!-- σ_β_0 -->
<g id="node8" class="node">
<title>σ_β_0</title>
<ellipse fill="none" stroke="black" cx="630.4" cy="-568.38" rx="59.29" ry="37.45"/>
<text text-anchor="middle" x="630.4" y="-579.68" font-family="Times,serif" font-size="14.00">σ_β_0</text>
<text text-anchor="middle" x="630.4" y="-564.68" font-family="Times,serif" font-size="14.00">~</text>
<text text-anchor="middle" x="630.4" y="-549.68" font-family="Times,serif" font-size="14.00">HalfNormal</text>
</g>
<!-- σ_β_0&#45;&gt;β_0 -->
<g id="edge4" class="edge">
<title>σ_β_0&#45;&gt;β_0</title>
<path fill="none" stroke="black" d="M586.52,-542.88C578.57,-538.72 570.3,-534.57 562.4,-530.91 529.86,-515.83 492.52,-501.03 462.53,-489.72"/>
<polygon fill="black" stroke="black" points="463.66,-486.41 453.07,-486.18 461.21,-492.96 463.66,-486.41"/>
</g>
<!-- α -->
<g id="node9" class="node">
<title>α</title>
<ellipse fill="none" stroke="black" cx="59.4" cy="-276.43" rx="59.29" ry="37.45"/>
<text text-anchor="middle" x="59.4" y="-287.73" font-family="Times,serif" font-size="14.00">α</text>
<text text-anchor="middle" x="59.4" y="-272.73" font-family="Times,serif" font-size="14.00">~</text>
<text text-anchor="middle" x="59.4" y="-257.73" font-family="Times,serif" font-size="14.00">HalfNormal</text>
</g>
<!-- α&#45;&gt;y -->
<g id="edge10" class="edge">
<title>α&#45;&gt;y</title>
<path fill="none" stroke="black" d="M99.19,-248.5C119.59,-234.7 144.71,-217.69 166.79,-202.75"/>
<polygon fill="black" stroke="black" points="168.77,-205.64 175.09,-197.14 164.84,-199.85 168.77,-205.64"/>
</g>
<!-- Δ_β_0 -->
<g id="node10" class="node">
<title>Δ_β_0</title>
<ellipse fill="none" stroke="black" cx="406.4" cy="-568.38" rx="41.94" ry="37.45"/>
<text text-anchor="middle" x="406.4" y="-579.68" font-family="Times,serif" font-size="14.00">Δ_β_0</text>
<text text-anchor="middle" x="406.4" y="-564.68" font-family="Times,serif" font-size="14.00">~</text>
<text text-anchor="middle" x="406.4" y="-549.68" font-family="Times,serif" font-size="14.00">Normal</text>
</g>
<!-- Δ_β_0&#45;&gt;β_0 -->
<g id="edge2" class="edge">
<title>Δ_β_0&#45;&gt;β_0</title>
<path fill="none" stroke="black" d="M406.4,-530.9C406.4,-522.48 406.4,-513.54 406.4,-505.16"/>
<polygon fill="black" stroke="black" points="409.9,-504.92 406.4,-494.92 402.9,-504.92 409.9,-504.92"/>
</g>
<!-- β_0&#45;&gt;η -->
<g id="edge6" class="edge">
<title>β_0&#45;&gt;η</title>
<path fill="none" stroke="black" d="M384.7,-441.76C374.37,-430.92 361.25,-418.97 347.4,-410.91 330.45,-401.04 310.34,-393.85 291.86,-388.72"/>
<polygon fill="black" stroke="black" points="292.65,-385.31 282.09,-386.15 290.87,-392.08 292.65,-385.31"/>
</g>
</g>
</svg>
