<?xml version="1.0" encoding="UTF-8" standalone="no"?>
<!DOCTYPE svg PUBLIC "-//W3C//DTD SVG 1.1//EN"
 "http://www.w3.org/Graphics/SVG/1.1/DTD/svg11.dtd">
<!-- Generated by graphviz version 2.48.0 (0)
 -->
<!-- Pages: 1 -->
<svg width="1044pt" height="630pt"
 viewBox="0.00 0.00 1044.00 629.88" xmlns="http://www.w3.org/2000/svg" xmlns:xlink="http://www.w3.org/1999/xlink">
<g id="graph0" class="graph" transform="scale(1 1) rotate(0) translate(4 625.88)">
<polygon fill="white" stroke="transparent" points="-4,4 -4,-625.88 1040,-625.88 1040,4 -4,4"/>
<g id="clust1" class="cluster">
<title>cluster960</title>
<path fill="none" stroke="black" d="M20,-8C20,-8 211,-8 211,-8 217,-8 223,-14 223,-20 223,-20 223,-490.91 223,-490.91 223,-496.91 217,-502.91 211,-502.91 211,-502.91 20,-502.91 20,-502.91 14,-502.91 8,-496.91 8,-490.91 8,-490.91 8,-20 8,-20 8,-14 14,-8 20,-8"/>
<text text-anchor="middle" x="204.5" y="-15.8" font-family="Times,serif" font-size="14.00">960</text>
</g>
<g id="clust2" class="cluster">
<title>cluster101</title>
<path fill="none" stroke="black" d="M948,-510.91C948,-510.91 1016,-510.91 1016,-510.91 1022,-510.91 1028,-516.91 1028,-522.91 1028,-522.91 1028,-590.91 1028,-590.91 1028,-596.91 1022,-602.91 1016,-602.91 1016,-602.91 948,-602.91 948,-602.91 942,-602.91 936,-596.91 936,-590.91 936,-590.91 936,-522.91 936,-522.91 936,-516.91 942,-510.91 948,-510.91"/>
<text text-anchor="middle" x="1009.5" y="-518.71" font-family="Times,serif" font-size="14.00">101</text>
</g>
<g id="clust3" class="cluster">
<title>cluster6</title>
<path fill="none" stroke="black" d="M243,-410.91C243,-410.91 440,-410.91 440,-410.91 446,-410.91 452,-416.91 452,-422.91 452,-422.91 452,-601.88 452,-601.88 452,-607.88 446,-613.88 440,-613.88 440,-613.88 243,-613.88 243,-613.88 237,-613.88 231,-607.88 231,-601.88 231,-601.88 231,-422.91 231,-422.91 231,-416.91 237,-410.91 243,-410.91"/>
<text text-anchor="middle" x="440.5" y="-418.71" font-family="Times,serif" font-size="14.00">6</text>
</g>
<!-- final_count -->
<g id="node1" class="node">
<title>final_count</title>
<path fill="lightgrey" stroke="black" d="M158.5,-92C158.5,-92 103.5,-92 103.5,-92 97.5,-92 91.5,-86 91.5,-80 91.5,-80 91.5,-51 91.5,-51 91.5,-45 97.5,-39 103.5,-39 103.5,-39 158.5,-39 158.5,-39 164.5,-39 170.5,-45 170.5,-51 170.5,-51 170.5,-80 170.5,-80 170.5,-86 164.5,-92 158.5,-92"/>
<text text-anchor="middle" x="131" y="-76.8" font-family="Times,serif" font-size="14.00">final_count</text>
<text text-anchor="middle" x="131" y="-61.8" font-family="Times,serif" font-size="14.00">~</text>
<text text-anchor="middle" x="131" y="-46.8" font-family="Times,serif" font-size="14.00">Data</text>
</g>
<!-- c -->
<g id="node2" class="node">
<title>c</title>
<path fill="lightgrey" stroke="black" d="M202,-494.91C202,-494.91 172,-494.91 172,-494.91 166,-494.91 160,-488.91 160,-482.91 160,-482.91 160,-453.91 160,-453.91 160,-447.91 166,-441.91 172,-441.91 172,-441.91 202,-441.91 202,-441.91 208,-441.91 214,-447.91 214,-453.91 214,-453.91 214,-482.91 214,-482.91 214,-488.91 208,-494.91 202,-494.91"/>
<text text-anchor="middle" x="187" y="-479.71" font-family="Times,serif" font-size="14.00">c</text>
<text text-anchor="middle" x="187" y="-464.71" font-family="Times,serif" font-size="14.00">~</text>
<text text-anchor="middle" x="187" y="-449.71" font-family="Times,serif" font-size="14.00">Data</text>
</g>
<!-- η -->
<g id="node3" class="node">
<title>η</title>
<polygon fill="none" stroke="black" points="214.5,-402.91 121.5,-402.91 121.5,-349.91 214.5,-349.91 214.5,-402.91"/>
<text text-anchor="middle" x="168" y="-387.71" font-family="Times,serif" font-size="14.00">η</text>
<text text-anchor="middle" x="168" y="-372.71" font-family="Times,serif" font-size="14.00">~</text>
<text text-anchor="middle" x="168" y="-357.71" font-family="Times,serif" font-size="14.00">Deterministic</text>
</g>
<!-- c&#45;&gt;η -->
<g id="edge9" class="edge">
<title>c&#45;&gt;η</title>
<path fill="none" stroke="black" d="M181.61,-441.86C179.7,-432.83 177.52,-422.51 175.48,-412.82"/>
<polygon fill="black" stroke="black" points="178.9,-412.08 173.41,-403.02 172.05,-413.53 178.9,-412.08"/>
</g>
<!-- μ -->
<g id="node5" class="node">
<title>μ</title>
<polygon fill="none" stroke="black" points="214.5,-302.93 121.5,-302.93 121.5,-249.93 214.5,-249.93 214.5,-302.93"/>
<text text-anchor="middle" x="168" y="-287.73" font-family="Times,serif" font-size="14.00">μ</text>
<text text-anchor="middle" x="168" y="-272.73" font-family="Times,serif" font-size="14.00">~</text>
<text text-anchor="middle" x="168" y="-257.73" font-family="Times,serif" font-size="14.00">Deterministic</text>
</g>
<!-- η&#45;&gt;μ -->
<g id="edge12" class="edge">
<title>η&#45;&gt;μ</title>
<path fill="none" stroke="black" d="M168,-349.66C168,-338.53 168,-325.3 168,-313.23"/>
<polygon fill="black" stroke="black" points="171.5,-313 168,-303 164.5,-313 171.5,-313"/>
</g>
<!-- y -->
<g id="node4" class="node">
<title>y</title>
<ellipse fill="lightgrey" stroke="black" cx="131" cy="-165.48" rx="84.29" ry="37.45"/>
<text text-anchor="middle" x="131" y="-176.78" font-family="Times,serif" font-size="14.00">y</text>
<text text-anchor="middle" x="131" y="-161.78" font-family="Times,serif" font-size="14.00">~</text>
<text text-anchor="middle" x="131" y="-146.78" font-family="Times,serif" font-size="14.00">NegativeBinomial</text>
</g>
<!-- y&#45;&gt;final_count -->
<g id="edge1" class="edge">
<title>y&#45;&gt;final_count</title>
<path fill="none" stroke="black" d="M131,-127.99C131,-119.58 131,-110.63 131,-102.25"/>
<polygon fill="black" stroke="black" points="134.5,-102.01 131,-92.01 127.5,-102.01 134.5,-102.01"/>
</g>
<!-- μ&#45;&gt;y -->
<g id="edge14" class="edge">
<title>μ&#45;&gt;y</title>
<path fill="none" stroke="black" d="M159.33,-249.89C155.51,-238.66 150.92,-225.12 146.54,-212.25"/>
<polygon fill="black" stroke="black" points="149.79,-210.93 143.26,-202.59 143.16,-213.18 149.79,-210.93"/>
</g>
<!-- g -->
<g id="node6" class="node">
<title>g</title>
<path fill="lightgrey" stroke="black" d="M130,-494.91C130,-494.91 100,-494.91 100,-494.91 94,-494.91 88,-488.91 88,-482.91 88,-482.91 88,-453.91 88,-453.91 88,-447.91 94,-441.91 100,-441.91 100,-441.91 130,-441.91 130,-441.91 136,-441.91 142,-447.91 142,-453.91 142,-453.91 142,-482.91 142,-482.91 142,-488.91 136,-494.91 130,-494.91"/>
<text text-anchor="middle" x="115" y="-479.71" font-family="Times,serif" font-size="14.00">g</text>
<text text-anchor="middle" x="115" y="-464.71" font-family="Times,serif" font-size="14.00">~</text>
<text text-anchor="middle" x="115" y="-449.71" font-family="Times,serif" font-size="14.00">Data</text>
</g>
<!-- x_cna -->
<g id="node7" class="node">
<title>x_cna</title>
<path fill="lightgrey" stroke="black" d="M58,-494.91C58,-494.91 28,-494.91 28,-494.91 22,-494.91 16,-488.91 16,-482.91 16,-482.91 16,-453.91 16,-453.91 16,-447.91 22,-441.91 28,-441.91 28,-441.91 58,-441.91 58,-441.91 64,-441.91 70,-447.91 70,-453.91 70,-453.91 70,-482.91 70,-482.91 70,-488.91 64,-494.91 58,-494.91"/>
<text text-anchor="middle" x="43" y="-479.71" font-family="Times,serif" font-size="14.00">x_cna</text>
<text text-anchor="middle" x="43" y="-464.71" font-family="Times,serif" font-size="14.00">~</text>
<text text-anchor="middle" x="43" y="-449.71" font-family="Times,serif" font-size="14.00">Data</text>
</g>
<!-- x_cna&#45;&gt;η -->
<g id="edge10" class="edge">
<title>x_cna&#45;&gt;η</title>
<path fill="none" stroke="black" d="M54.76,-441.68C60.73,-430.96 68.89,-419.12 79,-410.91 88.51,-403.19 99.99,-397.13 111.5,-392.41"/>
<polygon fill="black" stroke="black" points="113.01,-395.58 121.12,-388.76 110.53,-389.03 113.01,-395.58"/>
</g>
<!-- initial_count -->
<g id="node8" class="node">
<title>initial_count</title>
<path fill="lightgrey" stroke="black" d="M91.5,-302.93C91.5,-302.93 28.5,-302.93 28.5,-302.93 22.5,-302.93 16.5,-296.93 16.5,-290.93 16.5,-290.93 16.5,-261.93 16.5,-261.93 16.5,-255.93 22.5,-249.93 28.5,-249.93 28.5,-249.93 91.5,-249.93 91.5,-249.93 97.5,-249.93 103.5,-255.93 103.5,-261.93 103.5,-261.93 103.5,-290.93 103.5,-290.93 103.5,-296.93 97.5,-302.93 91.5,-302.93"/>
<text text-anchor="middle" x="60" y="-287.73" font-family="Times,serif" font-size="14.00">initial_count</text>
<text text-anchor="middle" x="60" y="-272.73" font-family="Times,serif" font-size="14.00">~</text>
<text text-anchor="middle" x="60" y="-257.73" font-family="Times,serif" font-size="14.00">Data</text>
</g>
<!-- initial_count&#45;&gt;y -->
<g id="edge15" class="edge">
<title>initial_count&#45;&gt;y</title>
<path fill="none" stroke="black" d="M76.65,-249.89C84.31,-238.12 93.63,-223.82 102.37,-210.41"/>
<polygon fill="black" stroke="black" points="105.48,-212.05 108.01,-201.76 99.62,-208.23 105.48,-212.05"/>
</g>
<!-- x_cna_bar -->
<g id="node9" class="node">
<title>x_cna_bar</title>
<path fill="lightgrey" stroke="black" d="M1007.5,-594.91C1007.5,-594.91 956.5,-594.91 956.5,-594.91 950.5,-594.91 944.5,-588.91 944.5,-582.91 944.5,-582.91 944.5,-553.91 944.5,-553.91 944.5,-547.91 950.5,-541.91 956.5,-541.91 956.5,-541.91 1007.5,-541.91 1007.5,-541.91 1013.5,-541.91 1019.5,-547.91 1019.5,-553.91 1019.5,-553.91 1019.5,-582.91 1019.5,-582.91 1019.5,-588.91 1013.5,-594.91 1007.5,-594.91"/>
<text text-anchor="middle" x="982" y="-579.71" font-family="Times,serif" font-size="14.00">x_cna_bar</text>
<text text-anchor="middle" x="982" y="-564.71" font-family="Times,serif" font-size="14.00">~</text>
<text text-anchor="middle" x="982" y="-549.71" font-family="Times,serif" font-size="14.00">Data</text>
</g>
<!-- μ_β_0 -->
<g id="node10" class="node">
<title>μ_β_0</title>
<ellipse fill="none" stroke="black" cx="502" cy="-568.41" rx="41.94" ry="37.45"/>
<text text-anchor="middle" x="502" y="-579.71" font-family="Times,serif" font-size="14.00">μ_β_0</text>
<text text-anchor="middle" x="502" y="-564.71" font-family="Times,serif" font-size="14.00">~</text>
<text text-anchor="middle" x="502" y="-549.71" font-family="Times,serif" font-size="14.00">Normal</text>
</g>
<!-- β_0 -->
<g id="node17" class="node">
<title>β_0</title>
<polygon fill="none" stroke="black" points="332.5,-494.91 239.5,-494.91 239.5,-441.91 332.5,-441.91 332.5,-494.91"/>
<text text-anchor="middle" x="286" y="-479.71" font-family="Times,serif" font-size="14.00">β_0</text>
<text text-anchor="middle" x="286" y="-464.71" font-family="Times,serif" font-size="14.00">~</text>
<text text-anchor="middle" x="286" y="-449.71" font-family="Times,serif" font-size="14.00">Deterministic</text>
</g>
<!-- μ_β_0&#45;&gt;β_0 -->
<g id="edge2" class="edge">
<title>μ_β_0&#45;&gt;β_0</title>
<path fill="none" stroke="black" d="M482.96,-535.04C475.75,-525.65 466.67,-516.44 456,-510.91 433.46,-499.21 366.23,-510.52 342,-502.91 338.87,-501.92 335.72,-500.73 332.61,-499.39"/>
<polygon fill="black" stroke="black" points="333.96,-496.15 323.43,-494.99 330.94,-502.47 333.96,-496.15"/>
</g>
<!-- σ_β_cna -->
<g id="node11" class="node">
<title>σ_β_cna</title>
<ellipse fill="none" stroke="black" cx="758" cy="-568.41" rx="59.29" ry="37.45"/>
<text text-anchor="middle" x="758" y="-579.71" font-family="Times,serif" font-size="14.00">σ_β_cna</text>
<text text-anchor="middle" x="758" y="-564.71" font-family="Times,serif" font-size="14.00">~</text>
<text text-anchor="middle" x="758" y="-549.71" font-family="Times,serif" font-size="14.00">HalfNormal</text>
</g>
<!-- β_cna -->
<g id="node18" class="node">
<title>β_cna</title>
<polygon fill="none" stroke="black" points="443.5,-494.91 350.5,-494.91 350.5,-441.91 443.5,-441.91 443.5,-494.91"/>
<text text-anchor="middle" x="397" y="-479.71" font-family="Times,serif" font-size="14.00">β_cna</text>
<text text-anchor="middle" x="397" y="-464.71" font-family="Times,serif" font-size="14.00">~</text>
<text text-anchor="middle" x="397" y="-449.71" font-family="Times,serif" font-size="14.00">Deterministic</text>
</g>
<!-- σ_β_cna&#45;&gt;β_cna -->
<g id="edge5" class="edge">
<title>σ_β_cna&#45;&gt;β_cna</title>
<path fill="none" stroke="black" d="M727.13,-536.08C715.99,-526.52 702.75,-516.94 689,-510.91 612.32,-477.25 514.45,-469.66 453.75,-468.56"/>
<polygon fill="black" stroke="black" points="453.64,-465.06 443.6,-468.44 453.56,-472.06 453.64,-465.06"/>
</g>
<!-- α -->
<g id="node12" class="node">
<title>α</title>
<ellipse fill="none" stroke="black" cx="292" cy="-276.43" rx="59.29" ry="37.45"/>
<text text-anchor="middle" x="292" y="-287.73" font-family="Times,serif" font-size="14.00">α</text>
<text text-anchor="middle" x="292" y="-272.73" font-family="Times,serif" font-size="14.00">~</text>
<text text-anchor="middle" x="292" y="-257.73" font-family="Times,serif" font-size="14.00">HalfNormal</text>
</g>
<!-- α&#45;&gt;y -->
<g id="edge13" class="edge">
<title>α&#45;&gt;y</title>
<path fill="none" stroke="black" d="M252.2,-248.5C231.81,-234.7 206.68,-217.69 184.61,-202.75"/>
<polygon fill="black" stroke="black" points="186.55,-199.85 176.31,-197.14 182.63,-205.64 186.55,-199.85"/>
</g>
<!-- μ_β_cna -->
<g id="node13" class="node">
<title>μ_β_cna</title>
<ellipse fill="none" stroke="black" cx="881" cy="-568.41" rx="45.92" ry="37.45"/>
<text text-anchor="middle" x="881" y="-579.71" font-family="Times,serif" font-size="14.00">μ_β_cna</text>
<text text-anchor="middle" x="881" y="-564.71" font-family="Times,serif" font-size="14.00">~</text>
<text text-anchor="middle" x="881" y="-549.71" font-family="Times,serif" font-size="14.00">Normal</text>
</g>
<!-- μ_β_cna&#45;&gt;β_cna -->
<g id="edge7" class="edge">
<title>μ_β_cna&#45;&gt;β_cna</title>
<path fill="none" stroke="black" d="M857.56,-535.75C848.77,-526.16 837.97,-516.65 826,-510.91 761.6,-479.99 554.61,-472.1 453.56,-470.09"/>
<polygon fill="black" stroke="black" points="453.6,-466.59 443.53,-469.91 453.47,-473.59 453.6,-466.59"/>
</g>
<!-- σ_β_0 -->
<g id="node14" class="node">
<title>σ_β_0</title>
<ellipse fill="none" stroke="black" cx="621" cy="-568.41" rx="59.29" ry="37.45"/>
<text text-anchor="middle" x="621" y="-579.71" font-family="Times,serif" font-size="14.00">σ_β_0</text>
<text text-anchor="middle" x="621" y="-564.71" font-family="Times,serif" font-size="14.00">~</text>
<text text-anchor="middle" x="621" y="-549.71" font-family="Times,serif" font-size="14.00">HalfNormal</text>
</g>
<!-- σ_β_0&#45;&gt;β_0 -->
<g id="edge4" class="edge">
<title>σ_β_0&#45;&gt;β_0</title>
<path fill="none" stroke="black" d="M591.32,-535.55C580.31,-525.82 567.05,-516.28 553,-510.91 509.18,-494.13 386.98,-516.26 342,-502.91 338.7,-501.93 335.39,-500.71 332.12,-499.32"/>
<polygon fill="black" stroke="black" points="333.6,-496.14 323.06,-495.01 330.59,-502.47 333.6,-496.14"/>
</g>
<!-- Δ_β_0 -->
<g id="node15" class="node">
<title>Δ_β_0</title>
<ellipse fill="none" stroke="black" cx="286" cy="-568.41" rx="41.94" ry="37.45"/>
<text text-anchor="middle" x="286" y="-579.71" font-family="Times,serif" font-size="14.00">Δ_β_0</text>
<text text-anchor="middle" x="286" y="-564.71" font-family="Times,serif" font-size="14.00">~</text>
<text text-anchor="middle" x="286" y="-549.71" font-family="Times,serif" font-size="14.00">Normal</text>
</g>
<!-- Δ_β_0&#45;&gt;β_0 -->
<g id="edge3" class="edge">
<title>Δ_β_0&#45;&gt;β_0</title>
<path fill="none" stroke="black" d="M286,-530.92C286,-522.5 286,-513.55 286,-505.16"/>
<polygon fill="black" stroke="black" points="289.5,-504.92 286,-494.92 282.5,-504.92 289.5,-504.92"/>
</g>
<!-- Δ_β_cna -->
<g id="node16" class="node">
<title>Δ_β_cna</title>
<ellipse fill="none" stroke="black" cx="394" cy="-568.41" rx="48.17" ry="37.45"/>
<text text-anchor="middle" x="394" y="-579.71" font-family="Times,serif" font-size="14.00">Δ_β_cna</text>
<text text-anchor="middle" x="394" y="-564.71" font-family="Times,serif" font-size="14.00">~</text>
<text text-anchor="middle" x="394" y="-549.71" font-family="Times,serif" font-size="14.00">Normal</text>
</g>
<!-- Δ_β_cna&#45;&gt;β_cna -->
<g id="edge6" class="edge">
<title>Δ_β_cna&#45;&gt;β_cna</title>
<path fill="none" stroke="black" d="M395.12,-530.92C395.37,-522.5 395.65,-513.55 395.91,-505.16"/>
<polygon fill="black" stroke="black" points="399.41,-505.03 396.22,-494.92 392.41,-504.81 399.41,-505.03"/>
</g>
<!-- β_0&#45;&gt;η -->
<g id="edge11" class="edge">
<title>β_0&#45;&gt;η</title>
<path fill="none" stroke="black" d="M261.96,-441.76C251.71,-431.54 239.28,-420.05 227,-410.91 225.79,-410.01 224.55,-409.11 223.29,-408.22"/>
<polygon fill="black" stroke="black" points="225.01,-405.16 214.75,-402.5 221.11,-410.97 225.01,-405.16"/>
</g>
<!-- β_cna&#45;&gt;η -->
<g id="edge8" class="edge">
<title>β_cna&#45;&gt;η</title>
<path fill="none" stroke="black" d="M377.94,-441.67C368.36,-430.54 355.86,-418.38 342,-410.91 306.02,-391.5 260.51,-383.22 225.06,-379.74"/>
<polygon fill="black" stroke="black" points="225.14,-376.23 214.87,-378.84 224.53,-383.2 225.14,-376.23"/>
</g>
</g>
</svg>
