<?xml version="1.0" encoding="UTF-8" standalone="no"?>
<!DOCTYPE svg PUBLIC "-//W3C//DTD SVG 1.1//EN"
 "http://www.w3.org/Graphics/SVG/1.1/DTD/svg11.dtd">
<!-- Generated by graphviz version 2.48.0 (0)
 -->
<!-- Pages: 1 -->
<svg width="472pt" height="541pt"
 viewBox="0.00 0.00 472.40 540.86" xmlns="http://www.w3.org/2000/svg" xmlns:xlink="http://www.w3.org/1999/xlink">
<g id="graph0" class="graph" transform="scale(1 1) rotate(0) translate(4 536.86)">
<polygon fill="white" stroke="transparent" points="-4,4 -4,-536.86 468.4,-536.86 468.4,4 -4,4"/>
<g id="clust1" class="cluster">
<title>cluster570</title>
<path fill="none" stroke="black" d="M20,-8C20,-8 106,-8 106,-8 112,-8 118,-14 118,-20 118,-20 118,-401.91 118,-401.91 118,-407.91 112,-413.91 106,-413.91 106,-413.91 20,-413.91 20,-413.91 14,-413.91 8,-407.91 8,-401.91 8,-401.91 8,-20 8,-20 8,-14 14,-8 20,-8"/>
<text text-anchor="middle" x="99.5" y="-15.8" font-family="Times,serif" font-size="14.00">570</text>
</g>
<g id="clust2" class="cluster">
<title>cluster60</title>
<path fill="none" stroke="black" d="M138,-321.91C138,-321.91 224,-321.91 224,-321.91 230,-321.91 236,-327.91 236,-333.91 236,-333.91 236,-512.86 236,-512.86 236,-518.86 230,-524.86 224,-524.86 224,-524.86 138,-524.86 138,-524.86 132,-524.86 126,-518.86 126,-512.86 126,-512.86 126,-333.91 126,-333.91 126,-327.91 132,-321.91 138,-321.91"/>
<text text-anchor="middle" x="221" y="-329.71" font-family="Times,serif" font-size="14.00">60</text>
</g>
<!-- g -->
<g id="node1" class="node">
<title>g</title>
<path fill="lightgrey" stroke="black" d="M78,-405.91C78,-405.91 48,-405.91 48,-405.91 42,-405.91 36,-399.91 36,-393.91 36,-393.91 36,-364.91 36,-364.91 36,-358.91 42,-352.91 48,-352.91 48,-352.91 78,-352.91 78,-352.91 84,-352.91 90,-358.91 90,-364.91 90,-364.91 90,-393.91 90,-393.91 90,-399.91 84,-405.91 78,-405.91"/>
<text text-anchor="middle" x="63" y="-390.71" font-family="Times,serif" font-size="14.00">g</text>
<text text-anchor="middle" x="63" y="-375.71" font-family="Times,serif" font-size="14.00">~</text>
<text text-anchor="middle" x="63" y="-360.71" font-family="Times,serif" font-size="14.00">Data</text>
</g>
<!-- μ -->
<g id="node4" class="node">
<title>μ</title>
<polygon fill="none" stroke="black" points="109.5,-302.93 16.5,-302.93 16.5,-249.93 109.5,-249.93 109.5,-302.93"/>
<text text-anchor="middle" x="63" y="-287.73" font-family="Times,serif" font-size="14.00">μ</text>
<text text-anchor="middle" x="63" y="-272.73" font-family="Times,serif" font-size="14.00">~</text>
<text text-anchor="middle" x="63" y="-257.73" font-family="Times,serif" font-size="14.00">Deterministic</text>
</g>
<!-- g&#45;&gt;μ -->
<g id="edge5" class="edge">
<title>g&#45;&gt;μ</title>
<path fill="none" stroke="black" d="M63,-352.66C63,-340.68 63,-326.22 63,-313.19"/>
<polygon fill="black" stroke="black" points="66.5,-313.12 63,-303.12 59.5,-313.12 66.5,-313.12"/>
</g>
<!-- lfc -->
<g id="node2" class="node">
<title>lfc</title>
<path fill="lightgrey" stroke="black" d="M80,-92C80,-92 50,-92 50,-92 44,-92 38,-86 38,-80 38,-80 38,-51 38,-51 38,-45 44,-39 50,-39 50,-39 80,-39 80,-39 86,-39 92,-45 92,-51 92,-51 92,-80 92,-80 92,-86 86,-92 80,-92"/>
<text text-anchor="middle" x="65" y="-76.8" font-family="Times,serif" font-size="14.00">lfc</text>
<text text-anchor="middle" x="65" y="-61.8" font-family="Times,serif" font-size="14.00">~</text>
<text text-anchor="middle" x="65" y="-46.8" font-family="Times,serif" font-size="14.00">Data</text>
</g>
<!-- y -->
<g id="node3" class="node">
<title>y</title>
<ellipse fill="lightgrey" stroke="black" cx="65" cy="-165.48" rx="41.94" ry="37.45"/>
<text text-anchor="middle" x="65" y="-176.78" font-family="Times,serif" font-size="14.00">y</text>
<text text-anchor="middle" x="65" y="-161.78" font-family="Times,serif" font-size="14.00">~</text>
<text text-anchor="middle" x="65" y="-146.78" font-family="Times,serif" font-size="14.00">Normal</text>
</g>
<!-- y&#45;&gt;lfc -->
<g id="edge1" class="edge">
<title>y&#45;&gt;lfc</title>
<path fill="none" stroke="black" d="M65,-127.99C65,-119.58 65,-110.63 65,-102.25"/>
<polygon fill="black" stroke="black" points="68.5,-102.01 65,-92.01 61.5,-102.01 68.5,-102.01"/>
</g>
<!-- μ&#45;&gt;y -->
<g id="edge7" class="edge">
<title>μ&#45;&gt;y</title>
<path fill="none" stroke="black" d="M63.47,-249.89C63.67,-238.98 63.91,-225.89 64.14,-213.35"/>
<polygon fill="black" stroke="black" points="67.65,-213.06 64.33,-203 60.65,-212.94 67.65,-213.06"/>
</g>
<!-- μ_β_0 -->
<g id="node5" class="node">
<title>μ_β_0</title>
<ellipse fill="none" stroke="black" cx="286" cy="-479.38" rx="41.94" ry="37.45"/>
<text text-anchor="middle" x="286" y="-490.68" font-family="Times,serif" font-size="14.00">μ_β_0</text>
<text text-anchor="middle" x="286" y="-475.68" font-family="Times,serif" font-size="14.00">~</text>
<text text-anchor="middle" x="286" y="-460.68" font-family="Times,serif" font-size="14.00">Normal</text>
</g>
<!-- β_0 -->
<g id="node9" class="node">
<title>β_0</title>
<polygon fill="none" stroke="black" points="227.5,-405.91 134.5,-405.91 134.5,-352.91 227.5,-352.91 227.5,-405.91"/>
<text text-anchor="middle" x="181" y="-390.71" font-family="Times,serif" font-size="14.00">β_0</text>
<text text-anchor="middle" x="181" y="-375.71" font-family="Times,serif" font-size="14.00">~</text>
<text text-anchor="middle" x="181" y="-360.71" font-family="Times,serif" font-size="14.00">Deterministic</text>
</g>
<!-- μ_β_0&#45;&gt;β_0 -->
<g id="edge3" class="edge">
<title>μ_β_0&#45;&gt;β_0</title>
<path fill="none" stroke="black" d="M257.59,-451.87C244.67,-439.82 229.28,-425.45 215.69,-412.77"/>
<polygon fill="black" stroke="black" points="218.05,-410.19 208.35,-405.93 213.27,-415.31 218.05,-410.19"/>
</g>
<!-- σ -->
<g id="node6" class="node">
<title>σ</title>
<ellipse fill="none" stroke="black" cx="187" cy="-276.43" rx="59.29" ry="37.45"/>
<text text-anchor="middle" x="187" y="-287.73" font-family="Times,serif" font-size="14.00">σ</text>
<text text-anchor="middle" x="187" y="-272.73" font-family="Times,serif" font-size="14.00">~</text>
<text text-anchor="middle" x="187" y="-257.73" font-family="Times,serif" font-size="14.00">HalfNormal</text>
</g>
<!-- σ&#45;&gt;y -->
<g id="edge8" class="edge">
<title>σ&#45;&gt;y</title>
<path fill="none" stroke="black" d="M153.34,-245.37C137.46,-231.19 118.46,-214.22 102.16,-199.66"/>
<polygon fill="black" stroke="black" points="104.19,-196.78 94.4,-192.73 99.53,-202 104.19,-196.78"/>
</g>
<!-- σ_β_0 -->
<g id="node7" class="node">
<title>σ_β_0</title>
<ellipse fill="none" stroke="black" cx="405" cy="-479.38" rx="59.29" ry="37.45"/>
<text text-anchor="middle" x="405" y="-490.68" font-family="Times,serif" font-size="14.00">σ_β_0</text>
<text text-anchor="middle" x="405" y="-475.68" font-family="Times,serif" font-size="14.00">~</text>
<text text-anchor="middle" x="405" y="-460.68" font-family="Times,serif" font-size="14.00">HalfNormal</text>
</g>
<!-- σ_β_0&#45;&gt;β_0 -->
<g id="edge4" class="edge">
<title>σ_β_0&#45;&gt;β_0</title>
<path fill="none" stroke="black" d="M361.12,-453.88C353.17,-449.72 344.9,-445.57 337,-441.91 304.47,-426.83 267.13,-412.03 237.14,-400.72"/>
<polygon fill="black" stroke="black" points="238.27,-397.41 227.67,-397.18 235.81,-403.96 238.27,-397.41"/>
</g>
<!-- Δ_β_0 -->
<g id="node8" class="node">
<title>Δ_β_0</title>
<ellipse fill="none" stroke="black" cx="181" cy="-479.38" rx="41.94" ry="37.45"/>
<text text-anchor="middle" x="181" y="-490.68" font-family="Times,serif" font-size="14.00">Δ_β_0</text>
<text text-anchor="middle" x="181" y="-475.68" font-family="Times,serif" font-size="14.00">~</text>
<text text-anchor="middle" x="181" y="-460.68" font-family="Times,serif" font-size="14.00">Normal</text>
</g>
<!-- Δ_β_0&#45;&gt;β_0 -->
<g id="edge2" class="edge">
<title>Δ_β_0&#45;&gt;β_0</title>
<path fill="none" stroke="black" d="M181,-441.9C181,-433.48 181,-424.54 181,-416.16"/>
<polygon fill="black" stroke="black" points="184.5,-415.92 181,-405.92 177.5,-415.92 184.5,-415.92"/>
</g>
<!-- β_0&#45;&gt;μ -->
<g id="edge6" class="edge">
<title>β_0&#45;&gt;μ</title>
<path fill="none" stroke="black" d="M155.47,-352.69C145.31,-342.79 133.34,-331.56 122,-321.91 117.13,-317.76 111.91,-313.54 106.68,-309.44"/>
<polygon fill="black" stroke="black" points="108.53,-306.45 98.47,-303.11 104.25,-311.99 108.53,-306.45"/>
</g>
</g>
</svg>
