<?xml version="1.0" encoding="UTF-8" standalone="no"?>
<!DOCTYPE svg PUBLIC "-//W3C//DTD SVG 1.1//EN"
 "http://www.w3.org/Graphics/SVG/1.1/DTD/svg11.dtd">
<!-- Generated by graphviz version 2.48.0 (0)
 -->
<!-- Pages: 1 -->
<svg width="936pt" height="541pt"
 viewBox="0.00 0.00 935.96 540.86" xmlns="http://www.w3.org/2000/svg" xmlns:xlink="http://www.w3.org/1999/xlink">
<g id="graph0" class="graph" transform="scale(1 1) rotate(0) translate(4 536.86)">
<polygon fill="white" stroke="transparent" points="-4,4 -4,-536.86 931.96,-536.86 931.96,4 -4,4"/>
<g id="clust1" class="cluster">
<title>cluster960</title>
<path fill="none" stroke="black" d="M20,-8C20,-8 210,-8 210,-8 216,-8 222,-14 222,-20 222,-20 222,-401.91 222,-401.91 222,-407.91 216,-413.91 210,-413.91 210,-413.91 20,-413.91 20,-413.91 14,-413.91 8,-407.91 8,-401.91 8,-401.91 8,-20 8,-20 8,-14 14,-8 20,-8"/>
<text text-anchor="middle" x="203.5" y="-15.8" font-family="Times,serif" font-size="14.00">960</text>
</g>
<g id="clust2" class="cluster">
<title>cluster101</title>
<path fill="none" stroke="black" d="M242,-321.91C242,-321.91 328,-321.91 328,-321.91 334,-321.91 340,-327.91 340,-333.91 340,-333.91 340,-512.86 340,-512.86 340,-518.86 334,-524.86 328,-524.86 328,-524.86 242,-524.86 242,-524.86 236,-524.86 230,-518.86 230,-512.86 230,-512.86 230,-333.91 230,-333.91 230,-327.91 236,-321.91 242,-321.91"/>
<text text-anchor="middle" x="321.5" y="-329.71" font-family="Times,serif" font-size="14.00">101</text>
</g>
<g id="clust3" class="cluster">
<title>cluster6</title>
<path fill="none" stroke="black" d="M590,-321.91C590,-321.91 678,-321.91 678,-321.91 684,-321.91 690,-327.91 690,-333.91 690,-333.91 690,-512.86 690,-512.86 690,-518.86 684,-524.86 678,-524.86 678,-524.86 590,-524.86 590,-524.86 584,-524.86 578,-518.86 578,-512.86 578,-512.86 578,-333.91 578,-333.91 578,-327.91 584,-321.91 590,-321.91"/>
<text text-anchor="middle" x="678.5" y="-329.71" font-family="Times,serif" font-size="14.00">6</text>
</g>
<!-- lfc -->
<g id="node1" class="node">
<title>lfc</title>
<path fill="lightgrey" stroke="black" d="M184,-92C184,-92 154,-92 154,-92 148,-92 142,-86 142,-80 142,-80 142,-51 142,-51 142,-45 148,-39 154,-39 154,-39 184,-39 184,-39 190,-39 196,-45 196,-51 196,-51 196,-80 196,-80 196,-86 190,-92 184,-92"/>
<text text-anchor="middle" x="169" y="-76.8" font-family="Times,serif" font-size="14.00">lfc</text>
<text text-anchor="middle" x="169" y="-61.8" font-family="Times,serif" font-size="14.00">~</text>
<text text-anchor="middle" x="169" y="-46.8" font-family="Times,serif" font-size="14.00">Data</text>
</g>
<!-- y -->
<g id="node2" class="node">
<title>y</title>
<ellipse fill="lightgrey" stroke="black" cx="169" cy="-165.48" rx="41.94" ry="37.45"/>
<text text-anchor="middle" x="169" y="-176.78" font-family="Times,serif" font-size="14.00">y</text>
<text text-anchor="middle" x="169" y="-161.78" font-family="Times,serif" font-size="14.00">~</text>
<text text-anchor="middle" x="169" y="-146.78" font-family="Times,serif" font-size="14.00">Normal</text>
</g>
<!-- y&#45;&gt;lfc -->
<g id="edge1" class="edge">
<title>y&#45;&gt;lfc</title>
<path fill="none" stroke="black" d="M169,-127.99C169,-119.58 169,-110.63 169,-102.25"/>
<polygon fill="black" stroke="black" points="172.5,-102.01 169,-92.01 165.5,-102.01 172.5,-102.01"/>
</g>
<!-- μ -->
<g id="node3" class="node">
<title>μ</title>
<polygon fill="none" stroke="black" points="213.5,-302.93 120.5,-302.93 120.5,-249.93 213.5,-249.93 213.5,-302.93"/>
<text text-anchor="middle" x="167" y="-287.73" font-family="Times,serif" font-size="14.00">μ</text>
<text text-anchor="middle" x="167" y="-272.73" font-family="Times,serif" font-size="14.00">~</text>
<text text-anchor="middle" x="167" y="-257.73" font-family="Times,serif" font-size="14.00">Deterministic</text>
</g>
<!-- μ&#45;&gt;y -->
<g id="edge13" class="edge">
<title>μ&#45;&gt;y</title>
<path fill="none" stroke="black" d="M167.47,-249.89C167.67,-238.98 167.91,-225.89 168.14,-213.35"/>
<polygon fill="black" stroke="black" points="171.65,-213.06 168.33,-203 164.65,-212.94 171.65,-213.06"/>
</g>
<!-- g -->
<g id="node4" class="node">
<title>g</title>
<path fill="lightgrey" stroke="black" d="M202,-405.91C202,-405.91 172,-405.91 172,-405.91 166,-405.91 160,-399.91 160,-393.91 160,-393.91 160,-364.91 160,-364.91 160,-358.91 166,-352.91 172,-352.91 172,-352.91 202,-352.91 202,-352.91 208,-352.91 214,-358.91 214,-364.91 214,-364.91 214,-393.91 214,-393.91 214,-399.91 208,-405.91 202,-405.91"/>
<text text-anchor="middle" x="187" y="-390.71" font-family="Times,serif" font-size="14.00">g</text>
<text text-anchor="middle" x="187" y="-375.71" font-family="Times,serif" font-size="14.00">~</text>
<text text-anchor="middle" x="187" y="-360.71" font-family="Times,serif" font-size="14.00">Data</text>
</g>
<!-- g&#45;&gt;μ -->
<g id="edge10" class="edge">
<title>g&#45;&gt;μ</title>
<path fill="none" stroke="black" d="M181.9,-352.66C179.53,-340.68 176.66,-326.22 174.08,-313.19"/>
<polygon fill="black" stroke="black" points="177.47,-312.25 172.09,-303.12 170.6,-313.61 177.47,-312.25"/>
</g>
<!-- c -->
<g id="node5" class="node">
<title>c</title>
<path fill="lightgrey" stroke="black" d="M130,-405.91C130,-405.91 100,-405.91 100,-405.91 94,-405.91 88,-399.91 88,-393.91 88,-393.91 88,-364.91 88,-364.91 88,-358.91 94,-352.91 100,-352.91 100,-352.91 130,-352.91 130,-352.91 136,-352.91 142,-358.91 142,-364.91 142,-364.91 142,-393.91 142,-393.91 142,-399.91 136,-405.91 130,-405.91"/>
<text text-anchor="middle" x="115" y="-390.71" font-family="Times,serif" font-size="14.00">c</text>
<text text-anchor="middle" x="115" y="-375.71" font-family="Times,serif" font-size="14.00">~</text>
<text text-anchor="middle" x="115" y="-360.71" font-family="Times,serif" font-size="14.00">Data</text>
</g>
<!-- c&#45;&gt;μ -->
<g id="edge11" class="edge">
<title>c&#45;&gt;μ</title>
<path fill="none" stroke="black" d="M128.26,-352.66C134.61,-340.32 142.32,-325.36 149.18,-312.03"/>
<polygon fill="black" stroke="black" points="152.3,-313.62 153.77,-303.12 146.08,-310.41 152.3,-313.62"/>
</g>
<!-- x_cna -->
<g id="node6" class="node">
<title>x_cna</title>
<path fill="lightgrey" stroke="black" d="M58,-405.91C58,-405.91 28,-405.91 28,-405.91 22,-405.91 16,-399.91 16,-393.91 16,-393.91 16,-364.91 16,-364.91 16,-358.91 22,-352.91 28,-352.91 28,-352.91 58,-352.91 58,-352.91 64,-352.91 70,-358.91 70,-364.91 70,-364.91 70,-393.91 70,-393.91 70,-399.91 64,-405.91 58,-405.91"/>
<text text-anchor="middle" x="43" y="-390.71" font-family="Times,serif" font-size="14.00">x_cna</text>
<text text-anchor="middle" x="43" y="-375.71" font-family="Times,serif" font-size="14.00">~</text>
<text text-anchor="middle" x="43" y="-360.71" font-family="Times,serif" font-size="14.00">Data</text>
</g>
<!-- x_cna&#45;&gt;μ -->
<g id="edge12" class="edge">
<title>x_cna&#45;&gt;μ</title>
<path fill="none" stroke="black" d="M55.35,-352.9C61.39,-342.34 69.43,-330.57 79,-321.91 88.41,-313.39 99.76,-306.07 111.13,-299.97"/>
<polygon fill="black" stroke="black" points="112.89,-303 120.21,-295.35 109.71,-296.77 112.89,-303"/>
</g>
<!-- σ_β_cna -->
<g id="node7" class="node">
<title>σ_β_cna</title>
<ellipse fill="none" stroke="black" cx="759" cy="-479.38" rx="59.29" ry="37.45"/>
<text text-anchor="middle" x="759" y="-490.68" font-family="Times,serif" font-size="14.00">σ_β_cna</text>
<text text-anchor="middle" x="759" y="-475.68" font-family="Times,serif" font-size="14.00">~</text>
<text text-anchor="middle" x="759" y="-460.68" font-family="Times,serif" font-size="14.00">HalfNormal</text>
</g>
<!-- β_cna -->
<g id="node14" class="node">
<title>β_cna</title>
<polygon fill="none" stroke="black" points="680.5,-405.91 587.5,-405.91 587.5,-352.91 680.5,-352.91 680.5,-405.91"/>
<text text-anchor="middle" x="634" y="-390.71" font-family="Times,serif" font-size="14.00">β_cna</text>
<text text-anchor="middle" x="634" y="-375.71" font-family="Times,serif" font-size="14.00">~</text>
<text text-anchor="middle" x="634" y="-360.71" font-family="Times,serif" font-size="14.00">Deterministic</text>
</g>
<!-- σ_β_cna&#45;&gt;β_cna -->
<g id="edge6" class="edge">
<title>σ_β_cna&#45;&gt;β_cna</title>
<path fill="none" stroke="black" d="M722.51,-449.78C707.67,-438.15 690.46,-424.66 675.18,-412.68"/>
<polygon fill="black" stroke="black" points="676.94,-409.62 666.91,-406.2 672.62,-415.13 676.94,-409.62"/>
</g>
<!-- μ_β_cna -->
<g id="node8" class="node">
<title>μ_β_cna</title>
<ellipse fill="none" stroke="black" cx="882" cy="-479.38" rx="45.92" ry="37.45"/>
<text text-anchor="middle" x="882" y="-490.68" font-family="Times,serif" font-size="14.00">μ_β_cna</text>
<text text-anchor="middle" x="882" y="-475.68" font-family="Times,serif" font-size="14.00">~</text>
<text text-anchor="middle" x="882" y="-460.68" font-family="Times,serif" font-size="14.00">Normal</text>
</g>
<!-- μ_β_cna&#45;&gt;β_cna -->
<g id="edge7" class="edge">
<title>μ_β_cna&#45;&gt;β_cna</title>
<path fill="none" stroke="black" d="M848.24,-453.9C841.41,-449.55 834.13,-445.32 827,-441.91 782.86,-420.74 729.66,-404.41 690.3,-393.91"/>
<polygon fill="black" stroke="black" points="691.16,-390.52 680.6,-391.37 689.39,-397.29 691.16,-390.52"/>
</g>
<!-- μ_β_0 -->
<g id="node9" class="node">
<title>μ_β_0</title>
<ellipse fill="none" stroke="black" cx="390" cy="-479.38" rx="41.94" ry="37.45"/>
<text text-anchor="middle" x="390" y="-490.68" font-family="Times,serif" font-size="14.00">μ_β_0</text>
<text text-anchor="middle" x="390" y="-475.68" font-family="Times,serif" font-size="14.00">~</text>
<text text-anchor="middle" x="390" y="-460.68" font-family="Times,serif" font-size="14.00">Normal</text>
</g>
<!-- β_0 -->
<g id="node12" class="node">
<title>β_0</title>
<polygon fill="none" stroke="black" points="331.5,-405.91 238.5,-405.91 238.5,-352.91 331.5,-352.91 331.5,-405.91"/>
<text text-anchor="middle" x="285" y="-390.71" font-family="Times,serif" font-size="14.00">β_0</text>
<text text-anchor="middle" x="285" y="-375.71" font-family="Times,serif" font-size="14.00">~</text>
<text text-anchor="middle" x="285" y="-360.71" font-family="Times,serif" font-size="14.00">Deterministic</text>
</g>
<!-- μ_β_0&#45;&gt;β_0 -->
<g id="edge2" class="edge">
<title>μ_β_0&#45;&gt;β_0</title>
<path fill="none" stroke="black" d="M361.59,-451.87C348.67,-439.82 333.28,-425.45 319.69,-412.77"/>
<polygon fill="black" stroke="black" points="322.05,-410.19 312.35,-405.93 317.27,-415.31 322.05,-410.19"/>
</g>
<!-- σ_β_0 -->
<g id="node10" class="node">
<title>σ_β_0</title>
<ellipse fill="none" stroke="black" cx="509" cy="-479.38" rx="59.29" ry="37.45"/>
<text text-anchor="middle" x="509" y="-490.68" font-family="Times,serif" font-size="14.00">σ_β_0</text>
<text text-anchor="middle" x="509" y="-475.68" font-family="Times,serif" font-size="14.00">~</text>
<text text-anchor="middle" x="509" y="-460.68" font-family="Times,serif" font-size="14.00">HalfNormal</text>
</g>
<!-- σ_β_0&#45;&gt;β_0 -->
<g id="edge4" class="edge">
<title>σ_β_0&#45;&gt;β_0</title>
<path fill="none" stroke="black" d="M465.12,-453.88C457.17,-449.72 448.9,-445.57 441,-441.91 408.47,-426.83 371.13,-412.03 341.14,-400.72"/>
<polygon fill="black" stroke="black" points="342.27,-397.41 331.67,-397.18 339.81,-403.96 342.27,-397.41"/>
</g>
<!-- σ -->
<g id="node11" class="node">
<title>σ</title>
<ellipse fill="none" stroke="black" cx="291" cy="-276.43" rx="59.29" ry="37.45"/>
<text text-anchor="middle" x="291" y="-287.73" font-family="Times,serif" font-size="14.00">σ</text>
<text text-anchor="middle" x="291" y="-272.73" font-family="Times,serif" font-size="14.00">~</text>
<text text-anchor="middle" x="291" y="-257.73" font-family="Times,serif" font-size="14.00">HalfNormal</text>
</g>
<!-- σ&#45;&gt;y -->
<g id="edge14" class="edge">
<title>σ&#45;&gt;y</title>
<path fill="none" stroke="black" d="M257.34,-245.37C241.46,-231.19 222.46,-214.22 206.16,-199.66"/>
<polygon fill="black" stroke="black" points="208.19,-196.78 198.4,-192.73 203.53,-202 208.19,-196.78"/>
</g>
<!-- β_0&#45;&gt;μ -->
<g id="edge9" class="edge">
<title>β_0&#45;&gt;μ</title>
<path fill="none" stroke="black" d="M259.47,-352.69C249.31,-342.79 237.34,-331.56 226,-321.91 221.13,-317.76 215.91,-313.54 210.68,-309.44"/>
<polygon fill="black" stroke="black" points="212.53,-306.45 202.47,-303.11 208.25,-311.99 212.53,-306.45"/>
</g>
<!-- Δ_β_0 -->
<g id="node13" class="node">
<title>Δ_β_0</title>
<ellipse fill="none" stroke="black" cx="285" cy="-479.38" rx="41.94" ry="37.45"/>
<text text-anchor="middle" x="285" y="-490.68" font-family="Times,serif" font-size="14.00">Δ_β_0</text>
<text text-anchor="middle" x="285" y="-475.68" font-family="Times,serif" font-size="14.00">~</text>
<text text-anchor="middle" x="285" y="-460.68" font-family="Times,serif" font-size="14.00">Normal</text>
</g>
<!-- Δ_β_0&#45;&gt;β_0 -->
<g id="edge3" class="edge">
<title>Δ_β_0&#45;&gt;β_0</title>
<path fill="none" stroke="black" d="M285,-441.9C285,-433.48 285,-424.54 285,-416.16"/>
<polygon fill="black" stroke="black" points="288.5,-415.92 285,-405.92 281.5,-415.92 288.5,-415.92"/>
</g>
<!-- β_cna&#45;&gt;μ -->
<g id="edge8" class="edge">
<title>β_cna&#45;&gt;μ</title>
<path fill="none" stroke="black" d="M587.33,-367.42C530.28,-354.43 430.6,-333.16 344,-321.91 317.28,-318.43 248.57,-322.43 223,-313.91 218.36,-312.36 213.73,-310.33 209.23,-308.03"/>
<polygon fill="black" stroke="black" points="210.65,-304.81 200.22,-302.97 207.23,-310.92 210.65,-304.81"/>
</g>
<!-- Δ_β_cna -->
<g id="node15" class="node">
<title>Δ_β_cna</title>
<ellipse fill="none" stroke="black" cx="634" cy="-479.38" rx="48.17" ry="37.45"/>
<text text-anchor="middle" x="634" y="-490.68" font-family="Times,serif" font-size="14.00">Δ_β_cna</text>
<text text-anchor="middle" x="634" y="-475.68" font-family="Times,serif" font-size="14.00">~</text>
<text text-anchor="middle" x="634" y="-460.68" font-family="Times,serif" font-size="14.00">Normal</text>
</g>
<!-- Δ_β_cna&#45;&gt;β_cna -->
<g id="edge5" class="edge">
<title>Δ_β_cna&#45;&gt;β_cna</title>
<path fill="none" stroke="black" d="M634,-441.9C634,-433.48 634,-424.54 634,-416.16"/>
<polygon fill="black" stroke="black" points="637.5,-415.92 634,-405.92 630.5,-415.92 637.5,-415.92"/>
</g>
</g>
</svg>
