<?xml version="1.0" encoding="UTF-8" standalone="no"?>
<!DOCTYPE svg PUBLIC "-//W3C//DTD SVG 1.1//EN"
 "http://www.w3.org/Graphics/SVG/1.1/DTD/svg11.dtd">
<!-- Generated by graphviz version 2.47.0 (20210327.0129)
 -->
<!-- Pages: 1 -->
<svg width="262pt" height="233pt"
 viewBox="0.00 0.00 262.09 232.91" xmlns="http://www.w3.org/2000/svg" xmlns:xlink="http://www.w3.org/1999/xlink">
<g id="graph0" class="graph" transform="scale(1 1) rotate(0) translate(4 228.91)">
<polygon fill="white" stroke="transparent" points="-4,4 -4,-228.91 258.09,-228.91 258.09,4 -4,4"/>
<g id="clust1" class="cluster">
<title>cluster570</title>
<path fill="none" stroke="black" d="M92.3,-8C92.3,-8 182.3,-8 182.3,-8 188.3,-8 194.3,-14 194.3,-20 194.3,-20 194.3,-109.95 194.3,-109.95 194.3,-115.95 188.3,-121.95 182.3,-121.95 182.3,-121.95 92.3,-121.95 92.3,-121.95 86.3,-121.95 80.3,-115.95 80.3,-109.95 80.3,-109.95 80.3,-20 80.3,-20 80.3,-14 86.3,-8 92.3,-8"/>
<text text-anchor="middle" x="172.3" y="-15.8" font-family="Times-Roman" font-size="14.00">570</text>
</g>
<!-- σ -->
<g id="node1" class="node">
<title>σ</title>
<ellipse fill="none" stroke="black" cx="69.3" cy="-187.43" rx="69.09" ry="37.45"/>
<text text-anchor="middle" x="69.3" y="-198.73" font-family="Times-Roman" font-size="14.00">σ</text>
<text text-anchor="middle" x="69.3" y="-183.73" font-family="Times-Roman" font-size="14.00">~</text>
<text text-anchor="middle" x="69.3" y="-168.73" font-family="Times-Roman" font-size="14.00">HalfNormal</text>
</g>
<!-- lfc -->
<g id="node3" class="node">
<title>lfc</title>
<ellipse fill="lightgrey" stroke="black" cx="137.3" cy="-76.48" rx="48.58" ry="37.45"/>
<text text-anchor="middle" x="137.3" y="-87.78" font-family="Times-Roman" font-size="14.00">lfc</text>
<text text-anchor="middle" x="137.3" y="-72.78" font-family="Times-Roman" font-size="14.00">~</text>
<text text-anchor="middle" x="137.3" y="-57.78" font-family="Times-Roman" font-size="14.00">Normal</text>
</g>
<!-- σ&#45;&gt;lfc -->
<g id="edge1" class="edge">
<title>σ&#45;&gt;lfc</title>
<path fill="none" stroke="black" d="M91,-151.66C97.38,-141.44 104.42,-130.15 111.05,-119.53"/>
<polygon fill="black" stroke="black" points="114.17,-121.14 116.5,-110.81 108.23,-117.44 114.17,-121.14"/>
</g>
<!-- a -->
<g id="node2" class="node">
<title>a</title>
<ellipse fill="none" stroke="black" cx="205.3" cy="-187.43" rx="48.58" ry="37.45"/>
<text text-anchor="middle" x="205.3" y="-198.73" font-family="Times-Roman" font-size="14.00">a</text>
<text text-anchor="middle" x="205.3" y="-183.73" font-family="Times-Roman" font-size="14.00">~</text>
<text text-anchor="middle" x="205.3" y="-168.73" font-family="Times-Roman" font-size="14.00">Normal</text>
</g>
<!-- a&#45;&gt;lfc -->
<g id="edge2" class="edge">
<title>a&#45;&gt;lfc</title>
<path fill="none" stroke="black" d="M184.71,-153.44C178.05,-142.77 170.57,-130.78 163.55,-119.54"/>
<polygon fill="black" stroke="black" points="166.31,-117.36 158.05,-110.73 160.37,-121.06 166.31,-117.36"/>
</g>
</g>
</svg>
