<?xml version="1.0" encoding="UTF-8" standalone="no"?>
<!DOCTYPE svg PUBLIC "-//W3C//DTD SVG 1.1//EN"
 "http://www.w3.org/Graphics/SVG/1.1/DTD/svg11.dtd">
<!-- Generated by graphviz version 2.48.0 (0)
 -->
<!-- Pages: 1 -->
<svg width="609pt" height="636pt"
 viewBox="0.00 0.00 609.12 635.81" xmlns="http://www.w3.org/2000/svg" xmlns:xlink="http://www.w3.org/1999/xlink">
<g id="graph0" class="graph" transform="scale(1 1) rotate(0) translate(4 631.81)">
<polygon fill="white" stroke="transparent" points="-4,4 -4,-631.81 605.12,-631.81 605.12,4 -4,4"/>
<g id="clust1" class="cluster">
<title>cluster2,384</title>
<path fill="none" stroke="black" d="M140.4,-8C140.4,-8 337.4,-8 337.4,-8 343.4,-8 349.4,-14 349.4,-20 349.4,-20 349.4,-501.88 349.4,-501.88 349.4,-507.88 343.4,-513.88 337.4,-513.88 337.4,-513.88 140.4,-513.88 140.4,-513.88 134.4,-513.88 128.4,-507.88 128.4,-501.88 128.4,-501.88 128.4,-20 128.4,-20 128.4,-14 134.4,-8 140.4,-8"/>
<text text-anchor="middle" x="325.4" y="-15.8" font-family="Times,serif" font-size="14.00">2,384</text>
</g>
<g id="clust2" class="cluster">
<title>cluster114</title>
<path fill="none" stroke="black" d="M462.4,-410.91C462.4,-410.91 538.4,-410.91 538.4,-410.91 544.4,-410.91 550.4,-416.91 550.4,-422.91 550.4,-422.91 550.4,-512.86 550.4,-512.86 550.4,-518.86 544.4,-524.86 538.4,-524.86 538.4,-524.86 462.4,-524.86 462.4,-524.86 456.4,-524.86 450.4,-518.86 450.4,-512.86 450.4,-512.86 450.4,-422.91 450.4,-422.91 450.4,-416.91 456.4,-410.91 462.4,-410.91"/>
<text text-anchor="middle" x="531.9" y="-418.71" font-family="Times,serif" font-size="14.00">114</text>
</g>
<!-- μ -->
<g id="node1" class="node">
<title>μ</title>
<polygon fill="none" stroke="black" points="340.9,-302.93 247.9,-302.93 247.9,-249.93 340.9,-249.93 340.9,-302.93"/>
<text text-anchor="middle" x="294.4" y="-287.73" font-family="Times,serif" font-size="14.00">μ</text>
<text text-anchor="middle" x="294.4" y="-272.73" font-family="Times,serif" font-size="14.00">~</text>
<text text-anchor="middle" x="294.4" y="-257.73" font-family="Times,serif" font-size="14.00">Deterministic</text>
</g>
<!-- y -->
<g id="node3" class="node">
<title>y</title>
<ellipse fill="lightgrey" stroke="black" cx="220.4" cy="-165.48" rx="84.29" ry="37.45"/>
<text text-anchor="middle" x="220.4" y="-176.78" font-family="Times,serif" font-size="14.00">y</text>
<text text-anchor="middle" x="220.4" y="-161.78" font-family="Times,serif" font-size="14.00">~</text>
<text text-anchor="middle" x="220.4" y="-146.78" font-family="Times,serif" font-size="14.00">NegativeBinomial</text>
</g>
<!-- μ&#45;&gt;y -->
<g id="edge9" class="edge">
<title>μ&#45;&gt;y</title>
<path fill="none" stroke="black" d="M277.05,-249.89C269.06,-238.12 259.35,-223.82 250.24,-210.41"/>
<polygon fill="black" stroke="black" points="252.87,-208.06 244.36,-201.76 247.08,-212 252.87,-208.06"/>
</g>
<!-- counts_final -->
<g id="node2" class="node">
<title>counts_final</title>
<path fill="lightgrey" stroke="black" d="M250.9,-92C250.9,-92 189.9,-92 189.9,-92 183.9,-92 177.9,-86 177.9,-80 177.9,-80 177.9,-51 177.9,-51 177.9,-45 183.9,-39 189.9,-39 189.9,-39 250.9,-39 250.9,-39 256.9,-39 262.9,-45 262.9,-51 262.9,-51 262.9,-80 262.9,-80 262.9,-86 256.9,-92 250.9,-92"/>
<text text-anchor="middle" x="220.4" y="-76.8" font-family="Times,serif" font-size="14.00">counts_final</text>
<text text-anchor="middle" x="220.4" y="-61.8" font-family="Times,serif" font-size="14.00">~</text>
<text text-anchor="middle" x="220.4" y="-46.8" font-family="Times,serif" font-size="14.00">Data</text>
</g>
<!-- y&#45;&gt;counts_final -->
<g id="edge1" class="edge">
<title>y&#45;&gt;counts_final</title>
<path fill="none" stroke="black" d="M220.4,-127.99C220.4,-119.58 220.4,-110.63 220.4,-102.25"/>
<polygon fill="black" stroke="black" points="223.9,-102.01 220.4,-92.01 216.9,-102.01 223.9,-102.01"/>
</g>
<!-- x_cna -->
<g id="node4" class="node">
<title>x_cna</title>
<path fill="lightgrey" stroke="black" d="M318.4,-505.88C318.4,-505.88 288.4,-505.88 288.4,-505.88 282.4,-505.88 276.4,-499.88 276.4,-493.88 276.4,-493.88 276.4,-464.88 276.4,-464.88 276.4,-458.88 282.4,-452.88 288.4,-452.88 288.4,-452.88 318.4,-452.88 318.4,-452.88 324.4,-452.88 330.4,-458.88 330.4,-464.88 330.4,-464.88 330.4,-493.88 330.4,-493.88 330.4,-499.88 324.4,-505.88 318.4,-505.88"/>
<text text-anchor="middle" x="303.4" y="-490.68" font-family="Times,serif" font-size="14.00">x_cna</text>
<text text-anchor="middle" x="303.4" y="-475.68" font-family="Times,serif" font-size="14.00">~</text>
<text text-anchor="middle" x="303.4" y="-460.68" font-family="Times,serif" font-size="14.00">Data</text>
</g>
<!-- η -->
<g id="node5" class="node">
<title>η</title>
<polygon fill="none" stroke="black" points="340.9,-402.91 247.9,-402.91 247.9,-349.91 340.9,-349.91 340.9,-402.91"/>
<text text-anchor="middle" x="294.4" y="-387.71" font-family="Times,serif" font-size="14.00">η</text>
<text text-anchor="middle" x="294.4" y="-372.71" font-family="Times,serif" font-size="14.00">~</text>
<text text-anchor="middle" x="294.4" y="-357.71" font-family="Times,serif" font-size="14.00">Deterministic</text>
</g>
<!-- x_cna&#45;&gt;η -->
<g id="edge4" class="edge">
<title>x_cna&#45;&gt;η</title>
<path fill="none" stroke="black" d="M301.1,-452.64C300.03,-440.65 298.75,-426.19 297.58,-413.17"/>
<polygon fill="black" stroke="black" points="301.06,-412.75 296.69,-403.1 294.09,-413.37 301.06,-412.75"/>
</g>
<!-- η&#45;&gt;μ -->
<g id="edge8" class="edge">
<title>η&#45;&gt;μ</title>
<path fill="none" stroke="black" d="M294.4,-349.66C294.4,-338.53 294.4,-325.3 294.4,-313.23"/>
<polygon fill="black" stroke="black" points="297.9,-313 294.4,-303 290.9,-313 297.9,-313"/>
</g>
<!-- g -->
<g id="node6" class="node">
<title>g</title>
<path fill="lightgrey" stroke="black" d="M246.4,-505.88C246.4,-505.88 216.4,-505.88 216.4,-505.88 210.4,-505.88 204.4,-499.88 204.4,-493.88 204.4,-493.88 204.4,-464.88 204.4,-464.88 204.4,-458.88 210.4,-452.88 216.4,-452.88 216.4,-452.88 246.4,-452.88 246.4,-452.88 252.4,-452.88 258.4,-458.88 258.4,-464.88 258.4,-464.88 258.4,-493.88 258.4,-493.88 258.4,-499.88 252.4,-505.88 246.4,-505.88"/>
<text text-anchor="middle" x="231.4" y="-490.68" font-family="Times,serif" font-size="14.00">g</text>
<text text-anchor="middle" x="231.4" y="-475.68" font-family="Times,serif" font-size="14.00">~</text>
<text text-anchor="middle" x="231.4" y="-460.68" font-family="Times,serif" font-size="14.00">Data</text>
</g>
<!-- g&#45;&gt;η -->
<g id="edge5" class="edge">
<title>g&#45;&gt;η</title>
<path fill="none" stroke="black" d="M243.64,-452.74C249.23,-441.67 256.27,-428.55 267.25,-411.63"/>
<polygon fill="black" stroke="black" points="270.35,-413.28 272.97,-403.01 264.52,-409.41 270.35,-413.28"/>
</g>
<!-- counts_initial -->
<g id="node7" class="node">
<title>counts_initial</title>
<path fill="lightgrey" stroke="black" d="M217.9,-302.93C217.9,-302.93 148.9,-302.93 148.9,-302.93 142.9,-302.93 136.9,-296.93 136.9,-290.93 136.9,-290.93 136.9,-261.93 136.9,-261.93 136.9,-255.93 142.9,-249.93 148.9,-249.93 148.9,-249.93 217.9,-249.93 217.9,-249.93 223.9,-249.93 229.9,-255.93 229.9,-261.93 229.9,-261.93 229.9,-290.93 229.9,-290.93 229.9,-296.93 223.9,-302.93 217.9,-302.93"/>
<text text-anchor="middle" x="183.4" y="-287.73" font-family="Times,serif" font-size="14.00">counts_initial</text>
<text text-anchor="middle" x="183.4" y="-272.73" font-family="Times,serif" font-size="14.00">~</text>
<text text-anchor="middle" x="183.4" y="-257.73" font-family="Times,serif" font-size="14.00">Data</text>
</g>
<!-- counts_initial&#45;&gt;y -->
<g id="edge10" class="edge">
<title>counts_initial&#45;&gt;y</title>
<path fill="none" stroke="black" d="M192.07,-249.89C195.88,-238.66 200.48,-225.12 204.85,-212.25"/>
<polygon fill="black" stroke="black" points="208.23,-213.18 208.13,-202.59 201.6,-210.93 208.23,-213.18"/>
</g>
<!-- β_cna -->
<g id="node8" class="node">
<title>β_cna</title>
<ellipse fill="none" stroke="black" cx="399.4" cy="-479.38" rx="41.94" ry="37.45"/>
<text text-anchor="middle" x="399.4" y="-490.68" font-family="Times,serif" font-size="14.00">β_cna</text>
<text text-anchor="middle" x="399.4" y="-475.68" font-family="Times,serif" font-size="14.00">~</text>
<text text-anchor="middle" x="399.4" y="-460.68" font-family="Times,serif" font-size="14.00">Normal</text>
</g>
<!-- β_cna&#45;&gt;η -->
<g id="edge7" class="edge">
<title>β_cna&#45;&gt;η</title>
<path fill="none" stroke="black" d="M381.25,-445.49C373.68,-433.66 364.14,-420.8 353.4,-410.91 351.97,-409.59 350.48,-408.3 348.94,-407.05"/>
<polygon fill="black" stroke="black" points="351.03,-404.24 340.93,-401.05 346.84,-409.85 351.03,-404.24"/>
</g>
<!-- σ_β -->
<g id="node9" class="node">
<title>σ_β</title>
<ellipse fill="none" stroke="black" cx="440.4" cy="-590.34" rx="59.29" ry="37.45"/>
<text text-anchor="middle" x="440.4" y="-601.64" font-family="Times,serif" font-size="14.00">σ_β</text>
<text text-anchor="middle" x="440.4" y="-586.64" font-family="Times,serif" font-size="14.00">~</text>
<text text-anchor="middle" x="440.4" y="-571.64" font-family="Times,serif" font-size="14.00">HalfNormal</text>
</g>
<!-- β_0 -->
<g id="node12" class="node">
<title>β_0</title>
<ellipse fill="none" stroke="black" cx="500.4" cy="-479.38" rx="41.94" ry="37.45"/>
<text text-anchor="middle" x="500.4" y="-490.68" font-family="Times,serif" font-size="14.00">β_0</text>
<text text-anchor="middle" x="500.4" y="-475.68" font-family="Times,serif" font-size="14.00">~</text>
<text text-anchor="middle" x="500.4" y="-460.68" font-family="Times,serif" font-size="14.00">Normal</text>
</g>
<!-- σ_β&#45;&gt;β_0 -->
<g id="edge2" class="edge">
<title>σ_β&#45;&gt;β_0</title>
<path fill="none" stroke="black" d="M459.55,-554.56C465.23,-544.25 471.51,-532.85 477.4,-522.14"/>
<polygon fill="black" stroke="black" points="480.49,-523.79 482.25,-513.34 474.36,-520.41 480.49,-523.79"/>
</g>
<!-- μ_β -->
<g id="node10" class="node">
<title>μ_β</title>
<ellipse fill="none" stroke="black" cx="559.4" cy="-590.34" rx="41.94" ry="37.45"/>
<text text-anchor="middle" x="559.4" y="-601.64" font-family="Times,serif" font-size="14.00">μ_β</text>
<text text-anchor="middle" x="559.4" y="-586.64" font-family="Times,serif" font-size="14.00">~</text>
<text text-anchor="middle" x="559.4" y="-571.64" font-family="Times,serif" font-size="14.00">Normal</text>
</g>
<!-- μ_β&#45;&gt;β_0 -->
<g id="edge3" class="edge">
<title>μ_β&#45;&gt;β_0</title>
<path fill="none" stroke="black" d="M541.53,-556.35C535.75,-545.68 529.26,-533.69 523.18,-522.45"/>
<polygon fill="black" stroke="black" points="526.24,-520.76 518.4,-513.63 520.09,-524.09 526.24,-520.76"/>
</g>
<!-- α -->
<g id="node11" class="node">
<title>α</title>
<ellipse fill="none" stroke="black" cx="59.4" cy="-276.43" rx="59.29" ry="37.45"/>
<text text-anchor="middle" x="59.4" y="-287.73" font-family="Times,serif" font-size="14.00">α</text>
<text text-anchor="middle" x="59.4" y="-272.73" font-family="Times,serif" font-size="14.00">~</text>
<text text-anchor="middle" x="59.4" y="-257.73" font-family="Times,serif" font-size="14.00">HalfNormal</text>
</g>
<!-- α&#45;&gt;y -->
<g id="edge11" class="edge">
<title>α&#45;&gt;y</title>
<path fill="none" stroke="black" d="M99.19,-248.5C119.59,-234.7 144.71,-217.69 166.79,-202.75"/>
<polygon fill="black" stroke="black" points="168.77,-205.64 175.09,-197.14 164.84,-199.85 168.77,-205.64"/>
</g>
<!-- β_0&#45;&gt;η -->
<g id="edge6" class="edge">
<title>β_0&#45;&gt;η</title>
<path fill="none" stroke="black" d="M482.86,-445.35C474.6,-432.78 463.63,-419.43 450.4,-410.91 421,-391.97 382.67,-383.56 351.35,-379.91"/>
<polygon fill="black" stroke="black" points="351.33,-376.39 341.03,-378.84 350.62,-383.35 351.33,-376.39"/>
</g>
</g>
</svg>
