<?xml version="1.0" encoding="UTF-8" standalone="no"?>
<!DOCTYPE svg PUBLIC "-//W3C//DTD SVG 1.1//EN"
 "http://www.w3.org/Graphics/SVG/1.1/DTD/svg11.dtd">
<!-- Generated by graphviz version 2.48.0 (0)
 -->
<!-- Pages: 1 -->
<svg width="525pt" height="636pt"
 viewBox="0.00 0.00 524.79 635.81" xmlns="http://www.w3.org/2000/svg" xmlns:xlink="http://www.w3.org/1999/xlink">
<g id="graph0" class="graph" transform="scale(1 1) rotate(0) translate(4 631.81)">
<polygon fill="white" stroke="transparent" points="-4,4 -4,-631.81 520.79,-631.81 520.79,4 -4,4"/>
<g id="clust1" class="cluster">
<title>cluster570</title>
<path fill="none" stroke="black" d="M138.4,-8C138.4,-8 328.4,-8 328.4,-8 334.4,-8 340.4,-14 340.4,-20 340.4,-20 340.4,-501.88 340.4,-501.88 340.4,-507.88 334.4,-513.88 328.4,-513.88 328.4,-513.88 138.4,-513.88 138.4,-513.88 132.4,-513.88 126.4,-507.88 126.4,-501.88 126.4,-501.88 126.4,-20 126.4,-20 126.4,-14 132.4,-8 138.4,-8"/>
<text text-anchor="middle" x="321.9" y="-15.8" font-family="Times,serif" font-size="14.00">570</text>
</g>
<g id="clust2" class="cluster">
<title>cluster60</title>
<path fill="none" stroke="black" d="M360.4,-410.91C360.4,-410.91 436.4,-410.91 436.4,-410.91 442.4,-410.91 448.4,-416.91 448.4,-422.91 448.4,-422.91 448.4,-512.86 448.4,-512.86 448.4,-518.86 442.4,-524.86 436.4,-524.86 436.4,-524.86 360.4,-524.86 360.4,-524.86 354.4,-524.86 348.4,-518.86 348.4,-512.86 348.4,-512.86 348.4,-422.91 348.4,-422.91 348.4,-416.91 354.4,-410.91 360.4,-410.91"/>
<text text-anchor="middle" x="433.4" y="-418.71" font-family="Times,serif" font-size="14.00">60</text>
</g>
<!-- μ -->
<g id="node1" class="node">
<title>μ</title>
<polygon fill="none" stroke="black" points="305.9,-302.93 212.9,-302.93 212.9,-249.93 305.9,-249.93 305.9,-302.93"/>
<text text-anchor="middle" x="259.4" y="-287.73" font-family="Times,serif" font-size="14.00">μ</text>
<text text-anchor="middle" x="259.4" y="-272.73" font-family="Times,serif" font-size="14.00">~</text>
<text text-anchor="middle" x="259.4" y="-257.73" font-family="Times,serif" font-size="14.00">Deterministic</text>
</g>
<!-- y -->
<g id="node4" class="node">
<title>y</title>
<ellipse fill="lightgrey" stroke="black" cx="233.4" cy="-165.48" rx="84.29" ry="37.45"/>
<text text-anchor="middle" x="233.4" y="-176.78" font-family="Times,serif" font-size="14.00">y</text>
<text text-anchor="middle" x="233.4" y="-161.78" font-family="Times,serif" font-size="14.00">~</text>
<text text-anchor="middle" x="233.4" y="-146.78" font-family="Times,serif" font-size="14.00">NegativeBinomial</text>
</g>
<!-- μ&#45;&gt;y -->
<g id="edge9" class="edge">
<title>μ&#45;&gt;y</title>
<path fill="none" stroke="black" d="M253.3,-249.89C250.67,-238.87 247.51,-225.63 244.49,-212.97"/>
<polygon fill="black" stroke="black" points="247.84,-211.92 242.11,-203 241.03,-213.54 247.84,-211.92"/>
</g>
<!-- η -->
<g id="node2" class="node">
<title>η</title>
<polygon fill="none" stroke="black" points="318.9,-402.91 225.9,-402.91 225.9,-349.91 318.9,-349.91 318.9,-402.91"/>
<text text-anchor="middle" x="272.4" y="-387.71" font-family="Times,serif" font-size="14.00">η</text>
<text text-anchor="middle" x="272.4" y="-372.71" font-family="Times,serif" font-size="14.00">~</text>
<text text-anchor="middle" x="272.4" y="-357.71" font-family="Times,serif" font-size="14.00">Deterministic</text>
</g>
<!-- η&#45;&gt;μ -->
<g id="edge7" class="edge">
<title>η&#45;&gt;μ</title>
<path fill="none" stroke="black" d="M268.98,-349.66C267.5,-338.53 265.75,-325.3 264.15,-313.23"/>
<polygon fill="black" stroke="black" points="267.57,-312.45 262.79,-303 260.64,-313.37 267.57,-312.45"/>
</g>
<!-- final_reads -->
<g id="node3" class="node">
<title>final_reads</title>
<path fill="lightgrey" stroke="black" d="M260.4,-92C260.4,-92 206.4,-92 206.4,-92 200.4,-92 194.4,-86 194.4,-80 194.4,-80 194.4,-51 194.4,-51 194.4,-45 200.4,-39 206.4,-39 206.4,-39 260.4,-39 260.4,-39 266.4,-39 272.4,-45 272.4,-51 272.4,-51 272.4,-80 272.4,-80 272.4,-86 266.4,-92 260.4,-92"/>
<text text-anchor="middle" x="233.4" y="-76.8" font-family="Times,serif" font-size="14.00">final_reads</text>
<text text-anchor="middle" x="233.4" y="-61.8" font-family="Times,serif" font-size="14.00">~</text>
<text text-anchor="middle" x="233.4" y="-46.8" font-family="Times,serif" font-size="14.00">Data</text>
</g>
<!-- y&#45;&gt;final_reads -->
<g id="edge1" class="edge">
<title>y&#45;&gt;final_reads</title>
<path fill="none" stroke="black" d="M233.4,-127.99C233.4,-119.58 233.4,-110.63 233.4,-102.25"/>
<polygon fill="black" stroke="black" points="236.9,-102.01 233.4,-92.01 229.9,-102.01 236.9,-102.01"/>
</g>
<!-- gene_idx -->
<g id="node5" class="node">
<title>gene_idx</title>
<path fill="lightgrey" stroke="black" d="M320.4,-505.88C320.4,-505.88 276.4,-505.88 276.4,-505.88 270.4,-505.88 264.4,-499.88 264.4,-493.88 264.4,-493.88 264.4,-464.88 264.4,-464.88 264.4,-458.88 270.4,-452.88 276.4,-452.88 276.4,-452.88 320.4,-452.88 320.4,-452.88 326.4,-452.88 332.4,-458.88 332.4,-464.88 332.4,-464.88 332.4,-493.88 332.4,-493.88 332.4,-499.88 326.4,-505.88 320.4,-505.88"/>
<text text-anchor="middle" x="298.4" y="-490.68" font-family="Times,serif" font-size="14.00">gene_idx</text>
<text text-anchor="middle" x="298.4" y="-475.68" font-family="Times,serif" font-size="14.00">~</text>
<text text-anchor="middle" x="298.4" y="-460.68" font-family="Times,serif" font-size="14.00">Data</text>
</g>
<!-- gene_idx&#45;&gt;η -->
<g id="edge5" class="edge">
<title>gene_idx&#45;&gt;η</title>
<path fill="none" stroke="black" d="M291.77,-452.64C288.68,-440.65 284.96,-426.19 281.6,-413.17"/>
<polygon fill="black" stroke="black" points="284.9,-411.91 279.01,-403.1 278.12,-413.66 284.9,-411.91"/>
</g>
<!-- log_initial_reads -->
<g id="node6" class="node">
<title>log_initial_reads</title>
<path fill="lightgrey" stroke="black" d="M233.9,-505.88C233.9,-505.88 146.9,-505.88 146.9,-505.88 140.9,-505.88 134.9,-499.88 134.9,-493.88 134.9,-493.88 134.9,-464.88 134.9,-464.88 134.9,-458.88 140.9,-452.88 146.9,-452.88 146.9,-452.88 233.9,-452.88 233.9,-452.88 239.9,-452.88 245.9,-458.88 245.9,-464.88 245.9,-464.88 245.9,-493.88 245.9,-493.88 245.9,-499.88 239.9,-505.88 233.9,-505.88"/>
<text text-anchor="middle" x="190.4" y="-490.68" font-family="Times,serif" font-size="14.00">log_initial_reads</text>
<text text-anchor="middle" x="190.4" y="-475.68" font-family="Times,serif" font-size="14.00">~</text>
<text text-anchor="middle" x="190.4" y="-460.68" font-family="Times,serif" font-size="14.00">Data</text>
</g>
<!-- log_initial_reads&#45;&gt;η -->
<g id="edge6" class="edge">
<title>log_initial_reads&#45;&gt;η</title>
<path fill="none" stroke="black" d="M211.3,-452.64C221.52,-440.06 233.95,-424.76 244.92,-411.24"/>
<polygon fill="black" stroke="black" points="247.94,-413.07 251.53,-403.1 242.51,-408.66 247.94,-413.07"/>
</g>
<!-- α -->
<g id="node7" class="node">
<title>α</title>
<ellipse fill="none" stroke="black" cx="59.4" cy="-276.43" rx="59.29" ry="37.45"/>
<text text-anchor="middle" x="59.4" y="-287.73" font-family="Times,serif" font-size="14.00">α</text>
<text text-anchor="middle" x="59.4" y="-272.73" font-family="Times,serif" font-size="14.00">~</text>
<text text-anchor="middle" x="59.4" y="-257.73" font-family="Times,serif" font-size="14.00">HalfNormal</text>
</g>
<!-- α&#45;&gt;y -->
<g id="edge8" class="edge">
<title>α&#45;&gt;y</title>
<path fill="none" stroke="black" d="M101.07,-249.33C123.83,-235.09 152.32,-217.24 177.03,-201.77"/>
<polygon fill="black" stroke="black" points="178.98,-204.68 185.6,-196.41 175.27,-198.75 178.98,-204.68"/>
</g>
<!-- μ_β -->
<g id="node8" class="node">
<title>μ_β</title>
<ellipse fill="none" stroke="black" cx="338.4" cy="-590.34" rx="41.94" ry="37.45"/>
<text text-anchor="middle" x="338.4" y="-601.64" font-family="Times,serif" font-size="14.00">μ_β</text>
<text text-anchor="middle" x="338.4" y="-586.64" font-family="Times,serif" font-size="14.00">~</text>
<text text-anchor="middle" x="338.4" y="-571.64" font-family="Times,serif" font-size="14.00">Normal</text>
</g>
<!-- β -->
<g id="node10" class="node">
<title>β</title>
<ellipse fill="none" stroke="black" cx="398.4" cy="-479.38" rx="41.94" ry="37.45"/>
<text text-anchor="middle" x="398.4" y="-490.68" font-family="Times,serif" font-size="14.00">β</text>
<text text-anchor="middle" x="398.4" y="-475.68" font-family="Times,serif" font-size="14.00">~</text>
<text text-anchor="middle" x="398.4" y="-460.68" font-family="Times,serif" font-size="14.00">Normal</text>
</g>
<!-- μ_β&#45;&gt;β -->
<g id="edge2" class="edge">
<title>μ_β&#45;&gt;β</title>
<path fill="none" stroke="black" d="M356.56,-556.35C362.49,-545.58 369.16,-533.47 375.4,-522.14"/>
<polygon fill="black" stroke="black" points="378.54,-523.7 380.29,-513.26 372.4,-520.33 378.54,-523.7"/>
</g>
<!-- σ_β -->
<g id="node9" class="node">
<title>σ_β</title>
<ellipse fill="none" stroke="black" cx="457.4" cy="-590.34" rx="59.29" ry="37.45"/>
<text text-anchor="middle" x="457.4" y="-601.64" font-family="Times,serif" font-size="14.00">σ_β</text>
<text text-anchor="middle" x="457.4" y="-586.64" font-family="Times,serif" font-size="14.00">~</text>
<text text-anchor="middle" x="457.4" y="-571.64" font-family="Times,serif" font-size="14.00">HalfNormal</text>
</g>
<!-- σ_β&#45;&gt;β -->
<g id="edge3" class="edge">
<title>σ_β&#45;&gt;β</title>
<path fill="none" stroke="black" d="M438.57,-554.56C433.04,-544.35 426.93,-533.07 421.18,-522.46"/>
<polygon fill="black" stroke="black" points="424.08,-520.47 416.25,-513.34 417.93,-523.8 424.08,-520.47"/>
</g>
<!-- β&#45;&gt;η -->
<g id="edge4" class="edge">
<title>β&#45;&gt;η</title>
<path fill="none" stroke="black" d="M377.64,-446.49C368.53,-434.24 357.02,-420.82 344.4,-410.91 339.42,-407 333.9,-403.41 328.21,-400.16"/>
<polygon fill="black" stroke="black" points="329.64,-396.95 319.17,-395.32 326.34,-403.12 329.64,-396.95"/>
</g>
</g>
</svg>
