<?xml version="1.0" encoding="UTF-8" standalone="no"?>
<!DOCTYPE svg PUBLIC "-//W3C//DTD SVG 1.1//EN"
 "http://www.w3.org/Graphics/SVG/1.1/DTD/svg11.dtd">
<!-- Generated by graphviz version 2.48.0 (0)
 -->
<!-- Pages: 1 -->
<svg width="500pt" height="636pt"
 viewBox="0.00 0.00 500.40 635.81" xmlns="http://www.w3.org/2000/svg" xmlns:xlink="http://www.w3.org/1999/xlink">
<g id="graph0" class="graph" transform="scale(1 1) rotate(0) translate(4 631.81)">
<polygon fill="white" stroke="transparent" points="-4,4 -4,-631.81 496.4,-631.81 496.4,4 -4,4"/>
<g id="clust1" class="cluster">
<title>cluster570</title>
<path fill="none" stroke="black" d="M20,-8C20,-8 211,-8 211,-8 217,-8 223,-14 223,-20 223,-20 223,-501.88 223,-501.88 223,-507.88 217,-513.88 211,-513.88 211,-513.88 20,-513.88 20,-513.88 14,-513.88 8,-507.88 8,-501.88 8,-501.88 8,-20 8,-20 8,-14 14,-8 20,-8"/>
<text text-anchor="middle" x="204.5" y="-15.8" font-family="Times,serif" font-size="14.00">570</text>
</g>
<g id="clust2" class="cluster">
<title>cluster60</title>
<path fill="none" stroke="black" d="M336,-410.91C336,-410.91 412,-410.91 412,-410.91 418,-410.91 424,-416.91 424,-422.91 424,-422.91 424,-512.86 424,-512.86 424,-518.86 418,-524.86 412,-524.86 412,-524.86 336,-524.86 336,-524.86 330,-524.86 324,-518.86 324,-512.86 324,-512.86 324,-422.91 324,-422.91 324,-416.91 330,-410.91 336,-410.91"/>
<text text-anchor="middle" x="409" y="-418.71" font-family="Times,serif" font-size="14.00">60</text>
</g>
<!-- final_count -->
<g id="node1" class="node">
<title>final_count</title>
<path fill="lightgrey" stroke="black" d="M158.5,-92C158.5,-92 103.5,-92 103.5,-92 97.5,-92 91.5,-86 91.5,-80 91.5,-80 91.5,-51 91.5,-51 91.5,-45 97.5,-39 103.5,-39 103.5,-39 158.5,-39 158.5,-39 164.5,-39 170.5,-45 170.5,-51 170.5,-51 170.5,-80 170.5,-80 170.5,-86 164.5,-92 158.5,-92"/>
<text text-anchor="middle" x="131" y="-76.8" font-family="Times,serif" font-size="14.00">final_count</text>
<text text-anchor="middle" x="131" y="-61.8" font-family="Times,serif" font-size="14.00">~</text>
<text text-anchor="middle" x="131" y="-46.8" font-family="Times,serif" font-size="14.00">Data</text>
</g>
<!-- μ -->
<g id="node2" class="node">
<title>μ</title>
<polygon fill="none" stroke="black" points="109.5,-302.93 16.5,-302.93 16.5,-249.93 109.5,-249.93 109.5,-302.93"/>
<text text-anchor="middle" x="63" y="-287.73" font-family="Times,serif" font-size="14.00">μ</text>
<text text-anchor="middle" x="63" y="-272.73" font-family="Times,serif" font-size="14.00">~</text>
<text text-anchor="middle" x="63" y="-257.73" font-family="Times,serif" font-size="14.00">Deterministic</text>
</g>
<!-- y -->
<g id="node4" class="node">
<title>y</title>
<ellipse fill="lightgrey" stroke="black" cx="131" cy="-165.48" rx="84.29" ry="37.45"/>
<text text-anchor="middle" x="131" y="-176.78" font-family="Times,serif" font-size="14.00">y</text>
<text text-anchor="middle" x="131" y="-161.78" font-family="Times,serif" font-size="14.00">~</text>
<text text-anchor="middle" x="131" y="-146.78" font-family="Times,serif" font-size="14.00">NegativeBinomial</text>
</g>
<!-- μ&#45;&gt;y -->
<g id="edge11" class="edge">
<title>μ&#45;&gt;y</title>
<path fill="none" stroke="black" d="M78.94,-249.89C86.28,-238.12 95.21,-223.82 103.58,-210.41"/>
<polygon fill="black" stroke="black" points="106.65,-212.1 108.98,-201.76 100.72,-208.39 106.65,-212.1"/>
</g>
<!-- η -->
<g id="node3" class="node">
<title>η</title>
<polygon fill="none" stroke="black" points="214.5,-402.91 121.5,-402.91 121.5,-349.91 214.5,-349.91 214.5,-402.91"/>
<text text-anchor="middle" x="168" y="-387.71" font-family="Times,serif" font-size="14.00">η</text>
<text text-anchor="middle" x="168" y="-372.71" font-family="Times,serif" font-size="14.00">~</text>
<text text-anchor="middle" x="168" y="-357.71" font-family="Times,serif" font-size="14.00">Deterministic</text>
</g>
<!-- η&#45;&gt;μ -->
<g id="edge8" class="edge">
<title>η&#45;&gt;μ</title>
<path fill="none" stroke="black" d="M140.41,-349.66C127.39,-337.51 111.71,-322.88 97.87,-309.97"/>
<polygon fill="black" stroke="black" points="100.1,-307.26 90.4,-303 95.33,-312.38 100.1,-307.26"/>
</g>
<!-- y&#45;&gt;final_count -->
<g id="edge1" class="edge">
<title>y&#45;&gt;final_count</title>
<path fill="none" stroke="black" d="M131,-127.99C131,-119.58 131,-110.63 131,-102.25"/>
<polygon fill="black" stroke="black" points="134.5,-102.01 131,-92.01 127.5,-102.01 134.5,-102.01"/>
</g>
<!-- x_cna -->
<g id="node5" class="node">
<title>x_cna</title>
<path fill="lightgrey" stroke="black" d="M192,-505.88C192,-505.88 162,-505.88 162,-505.88 156,-505.88 150,-499.88 150,-493.88 150,-493.88 150,-464.88 150,-464.88 150,-458.88 156,-452.88 162,-452.88 162,-452.88 192,-452.88 192,-452.88 198,-452.88 204,-458.88 204,-464.88 204,-464.88 204,-493.88 204,-493.88 204,-499.88 198,-505.88 192,-505.88"/>
<text text-anchor="middle" x="177" y="-490.68" font-family="Times,serif" font-size="14.00">x_cna</text>
<text text-anchor="middle" x="177" y="-475.68" font-family="Times,serif" font-size="14.00">~</text>
<text text-anchor="middle" x="177" y="-460.68" font-family="Times,serif" font-size="14.00">Data</text>
</g>
<!-- x_cna&#45;&gt;η -->
<g id="edge4" class="edge">
<title>x_cna&#45;&gt;η</title>
<path fill="none" stroke="black" d="M174.71,-452.64C173.64,-440.65 172.35,-426.19 171.19,-413.17"/>
<polygon fill="black" stroke="black" points="174.66,-412.75 170.29,-403.1 167.69,-413.37 174.66,-412.75"/>
</g>
<!-- initial_count -->
<g id="node6" class="node">
<title>initial_count</title>
<path fill="lightgrey" stroke="black" d="M202.5,-302.93C202.5,-302.93 139.5,-302.93 139.5,-302.93 133.5,-302.93 127.5,-296.93 127.5,-290.93 127.5,-290.93 127.5,-261.93 127.5,-261.93 127.5,-255.93 133.5,-249.93 139.5,-249.93 139.5,-249.93 202.5,-249.93 202.5,-249.93 208.5,-249.93 214.5,-255.93 214.5,-261.93 214.5,-261.93 214.5,-290.93 214.5,-290.93 214.5,-296.93 208.5,-302.93 202.5,-302.93"/>
<text text-anchor="middle" x="171" y="-287.73" font-family="Times,serif" font-size="14.00">initial_count</text>
<text text-anchor="middle" x="171" y="-272.73" font-family="Times,serif" font-size="14.00">~</text>
<text text-anchor="middle" x="171" y="-257.73" font-family="Times,serif" font-size="14.00">Data</text>
</g>
<!-- initial_count&#45;&gt;y -->
<g id="edge10" class="edge">
<title>initial_count&#45;&gt;y</title>
<path fill="none" stroke="black" d="M161.62,-249.89C157.5,-238.66 152.53,-225.12 147.8,-212.25"/>
<polygon fill="black" stroke="black" points="150.99,-210.77 144.26,-202.59 144.42,-213.18 150.99,-210.77"/>
</g>
<!-- g -->
<g id="node7" class="node">
<title>g</title>
<path fill="lightgrey" stroke="black" d="M120,-505.88C120,-505.88 90,-505.88 90,-505.88 84,-505.88 78,-499.88 78,-493.88 78,-493.88 78,-464.88 78,-464.88 78,-458.88 84,-452.88 90,-452.88 90,-452.88 120,-452.88 120,-452.88 126,-452.88 132,-458.88 132,-464.88 132,-464.88 132,-493.88 132,-493.88 132,-499.88 126,-505.88 120,-505.88"/>
<text text-anchor="middle" x="105" y="-490.68" font-family="Times,serif" font-size="14.00">g</text>
<text text-anchor="middle" x="105" y="-475.68" font-family="Times,serif" font-size="14.00">~</text>
<text text-anchor="middle" x="105" y="-460.68" font-family="Times,serif" font-size="14.00">Data</text>
</g>
<!-- g&#45;&gt;η -->
<g id="edge7" class="edge">
<title>g&#45;&gt;η</title>
<path fill="none" stroke="black" d="M117.24,-452.74C122.84,-441.67 129.87,-428.55 140.85,-411.63"/>
<polygon fill="black" stroke="black" points="143.96,-413.28 146.57,-403.01 138.12,-409.41 143.96,-413.28"/>
</g>
<!-- α -->
<g id="node8" class="node">
<title>α</title>
<ellipse fill="none" stroke="black" cx="292" cy="-276.43" rx="59.29" ry="37.45"/>
<text text-anchor="middle" x="292" y="-287.73" font-family="Times,serif" font-size="14.00">α</text>
<text text-anchor="middle" x="292" y="-272.73" font-family="Times,serif" font-size="14.00">~</text>
<text text-anchor="middle" x="292" y="-257.73" font-family="Times,serif" font-size="14.00">HalfNormal</text>
</g>
<!-- α&#45;&gt;y -->
<g id="edge9" class="edge">
<title>α&#45;&gt;y</title>
<path fill="none" stroke="black" d="M252.2,-248.5C231.81,-234.7 206.68,-217.69 184.61,-202.75"/>
<polygon fill="black" stroke="black" points="186.55,-199.85 176.31,-197.14 182.63,-205.64 186.55,-199.85"/>
</g>
<!-- β_cna -->
<g id="node9" class="node">
<title>β_cna</title>
<ellipse fill="none" stroke="black" cx="273" cy="-479.38" rx="41.94" ry="37.45"/>
<text text-anchor="middle" x="273" y="-490.68" font-family="Times,serif" font-size="14.00">β_cna</text>
<text text-anchor="middle" x="273" y="-475.68" font-family="Times,serif" font-size="14.00">~</text>
<text text-anchor="middle" x="273" y="-460.68" font-family="Times,serif" font-size="14.00">Normal</text>
</g>
<!-- β_cna&#45;&gt;η -->
<g id="edge5" class="edge">
<title>β_cna&#45;&gt;η</title>
<path fill="none" stroke="black" d="M254.86,-445.49C247.28,-433.66 237.74,-420.8 227,-410.91 225.57,-409.59 224.08,-408.3 222.54,-407.05"/>
<polygon fill="black" stroke="black" points="224.63,-404.24 214.53,-401.05 220.44,-409.85 224.63,-404.24"/>
</g>
<!-- μ_β -->
<g id="node10" class="node">
<title>μ_β</title>
<ellipse fill="none" stroke="black" cx="314" cy="-590.34" rx="41.94" ry="37.45"/>
<text text-anchor="middle" x="314" y="-601.64" font-family="Times,serif" font-size="14.00">μ_β</text>
<text text-anchor="middle" x="314" y="-586.64" font-family="Times,serif" font-size="14.00">~</text>
<text text-anchor="middle" x="314" y="-571.64" font-family="Times,serif" font-size="14.00">Normal</text>
</g>
<!-- β_0 -->
<g id="node12" class="node">
<title>β_0</title>
<ellipse fill="none" stroke="black" cx="374" cy="-479.38" rx="41.94" ry="37.45"/>
<text text-anchor="middle" x="374" y="-490.68" font-family="Times,serif" font-size="14.00">β_0</text>
<text text-anchor="middle" x="374" y="-475.68" font-family="Times,serif" font-size="14.00">~</text>
<text text-anchor="middle" x="374" y="-460.68" font-family="Times,serif" font-size="14.00">Normal</text>
</g>
<!-- μ_β&#45;&gt;β_0 -->
<g id="edge2" class="edge">
<title>μ_β&#45;&gt;β_0</title>
<path fill="none" stroke="black" d="M332.16,-556.35C338.1,-545.58 344.77,-533.47 351.01,-522.14"/>
<polygon fill="black" stroke="black" points="354.14,-523.7 355.9,-513.26 348.01,-520.33 354.14,-523.7"/>
</g>
<!-- σ_β -->
<g id="node11" class="node">
<title>σ_β</title>
<ellipse fill="none" stroke="black" cx="433" cy="-590.34" rx="59.29" ry="37.45"/>
<text text-anchor="middle" x="433" y="-601.64" font-family="Times,serif" font-size="14.00">σ_β</text>
<text text-anchor="middle" x="433" y="-586.64" font-family="Times,serif" font-size="14.00">~</text>
<text text-anchor="middle" x="433" y="-571.64" font-family="Times,serif" font-size="14.00">HalfNormal</text>
</g>
<!-- σ_β&#45;&gt;β_0 -->
<g id="edge3" class="edge">
<title>σ_β&#45;&gt;β_0</title>
<path fill="none" stroke="black" d="M414.17,-554.56C408.64,-544.35 402.53,-533.07 396.78,-522.46"/>
<polygon fill="black" stroke="black" points="399.69,-520.47 391.85,-513.34 393.53,-523.8 399.69,-520.47"/>
</g>
<!-- β_0&#45;&gt;η -->
<g id="edge6" class="edge">
<title>β_0&#45;&gt;η</title>
<path fill="none" stroke="black" d="M356.46,-445.35C348.2,-432.78 337.24,-419.43 324,-410.91 294.61,-391.97 256.27,-383.56 224.96,-379.91"/>
<polygon fill="black" stroke="black" points="224.94,-376.39 214.63,-378.84 224.22,-383.35 224.94,-376.39"/>
</g>
</g>
</svg>
