<?xml version="1.0" encoding="UTF-8" standalone="no"?>
<!DOCTYPE svg PUBLIC "-//W3C//DTD SVG 1.1//EN"
 "http://www.w3.org/Graphics/SVG/1.1/DTD/svg11.dtd">
<!-- Generated by graphviz version 2.48.0 (0)
 -->
<!-- Pages: 1 -->
<svg width="428pt" height="327pt"
 viewBox="0.00 0.00 427.72 326.93" xmlns="http://www.w3.org/2000/svg" xmlns:xlink="http://www.w3.org/1999/xlink">
<g id="graph0" class="graph" transform="scale(1 1) rotate(0) translate(4 322.93)">
<polygon fill="white" stroke="transparent" points="-4,4 -4,-322.93 423.72,-322.93 423.72,4 -4,4"/>
<g id="clust1" class="cluster">
<title>cluster12</title>
<path fill="none" stroke="black" d="M20,-8C20,-8 180,-8 180,-8 186,-8 192,-14 192,-20 192,-20 192,-298.93 192,-298.93 192,-304.93 186,-310.93 180,-310.93 180,-310.93 20,-310.93 20,-310.93 14,-310.93 8,-304.93 8,-298.93 8,-298.93 8,-20 8,-20 8,-14 14,-8 20,-8"/>
<text text-anchor="middle" x="177" y="-15.8" font-family="Times,serif" font-size="14.00">12</text>
</g>
<!-- final_reads -->
<g id="node1" class="node">
<title>final_reads</title>
<path fill="lightgrey" stroke="black" d="M127,-92C127,-92 73,-92 73,-92 67,-92 61,-86 61,-80 61,-80 61,-51 61,-51 61,-45 67,-39 73,-39 73,-39 127,-39 127,-39 133,-39 139,-45 139,-51 139,-51 139,-80 139,-80 139,-86 133,-92 127,-92"/>
<text text-anchor="middle" x="100" y="-76.8" font-family="Times,serif" font-size="14.00">final_reads</text>
<text text-anchor="middle" x="100" y="-61.8" font-family="Times,serif" font-size="14.00">~</text>
<text text-anchor="middle" x="100" y="-46.8" font-family="Times,serif" font-size="14.00">Data</text>
</g>
<!-- initial_reads -->
<g id="node2" class="node">
<title>initial_reads</title>
<path fill="lightgrey" stroke="black" d="M131,-302.93C131,-302.93 69,-302.93 69,-302.93 63,-302.93 57,-296.93 57,-290.93 57,-290.93 57,-261.93 57,-261.93 57,-255.93 63,-249.93 69,-249.93 69,-249.93 131,-249.93 131,-249.93 137,-249.93 143,-255.93 143,-261.93 143,-261.93 143,-290.93 143,-290.93 143,-296.93 137,-302.93 131,-302.93"/>
<text text-anchor="middle" x="100" y="-287.73" font-family="Times,serif" font-size="14.00">initial_reads</text>
<text text-anchor="middle" x="100" y="-272.73" font-family="Times,serif" font-size="14.00">~</text>
<text text-anchor="middle" x="100" y="-257.73" font-family="Times,serif" font-size="14.00">Data</text>
</g>
<!-- y -->
<g id="node3" class="node">
<title>y</title>
<ellipse fill="lightgrey" stroke="black" cx="100" cy="-165.48" rx="84.29" ry="37.45"/>
<text text-anchor="middle" x="100" y="-176.78" font-family="Times,serif" font-size="14.00">y</text>
<text text-anchor="middle" x="100" y="-161.78" font-family="Times,serif" font-size="14.00">~</text>
<text text-anchor="middle" x="100" y="-146.78" font-family="Times,serif" font-size="14.00">NegativeBinomial</text>
</g>
<!-- initial_reads&#45;&gt;y -->
<g id="edge3" class="edge">
<title>initial_reads&#45;&gt;y</title>
<path fill="none" stroke="black" d="M100,-249.89C100,-238.98 100,-225.89 100,-213.35"/>
<polygon fill="black" stroke="black" points="103.5,-213 100,-203 96.5,-213 103.5,-213"/>
</g>
<!-- y&#45;&gt;final_reads -->
<g id="edge1" class="edge">
<title>y&#45;&gt;final_reads</title>
<path fill="none" stroke="black" d="M100,-127.99C100,-119.58 100,-110.63 100,-102.25"/>
<polygon fill="black" stroke="black" points="103.5,-102.01 100,-92.01 96.5,-102.01 103.5,-102.01"/>
</g>
<!-- α -->
<g id="node4" class="node">
<title>α</title>
<ellipse fill="none" stroke="black" cx="259" cy="-276.43" rx="59.29" ry="37.45"/>
<text text-anchor="middle" x="259" y="-287.73" font-family="Times,serif" font-size="14.00">α</text>
<text text-anchor="middle" x="259" y="-272.73" font-family="Times,serif" font-size="14.00">~</text>
<text text-anchor="middle" x="259" y="-257.73" font-family="Times,serif" font-size="14.00">HalfNormal</text>
</g>
<!-- α&#45;&gt;y -->
<g id="edge2" class="edge">
<title>α&#45;&gt;y</title>
<path fill="none" stroke="black" d="M219.29,-248.22C199.39,-234.58 175.02,-217.88 153.5,-203.14"/>
<polygon fill="black" stroke="black" points="155.33,-200.15 145.1,-197.38 151.37,-205.92 155.33,-200.15"/>
</g>
<!-- β -->
<g id="node5" class="node">
<title>β</title>
<ellipse fill="none" stroke="black" cx="378" cy="-276.43" rx="41.94" ry="37.45"/>
<text text-anchor="middle" x="378" y="-287.73" font-family="Times,serif" font-size="14.00">β</text>
<text text-anchor="middle" x="378" y="-272.73" font-family="Times,serif" font-size="14.00">~</text>
<text text-anchor="middle" x="378" y="-257.73" font-family="Times,serif" font-size="14.00">Normal</text>
</g>
<!-- β&#45;&gt;y -->
<g id="edge4" class="edge">
<title>β&#45;&gt;y</title>
<path fill="none" stroke="black" d="M347.14,-251.05C340.71,-246.65 333.81,-242.37 327,-238.95 281.54,-216.15 227.38,-198.53 183.37,-186.38"/>
<polygon fill="black" stroke="black" points="184.13,-182.96 173.57,-183.71 182.3,-189.71 184.13,-182.96"/>
</g>
</g>
</svg>
