<?xml version="1.0" encoding="UTF-8" standalone="no"?>
<!DOCTYPE svg PUBLIC "-//W3C//DTD SVG 1.1//EN"
 "http://www.w3.org/Graphics/SVG/1.1/DTD/svg11.dtd">
<!-- Generated by graphviz version 2.48.0 (0)
 -->
<!-- Pages: 1 -->
<svg width="527pt" height="636pt"
 viewBox="0.00 0.00 526.79 635.81" xmlns="http://www.w3.org/2000/svg" xmlns:xlink="http://www.w3.org/1999/xlink">
<g id="graph0" class="graph" transform="scale(1 1) rotate(0) translate(4 631.81)">
<polygon fill="white" stroke="transparent" points="-4,4 -4,-631.81 522.79,-631.81 522.79,4 -4,4"/>
<g id="clust1" class="cluster">
<title>cluster570</title>
<path fill="none" stroke="black" d="M140.4,-8C140.4,-8 330.4,-8 330.4,-8 336.4,-8 342.4,-14 342.4,-20 342.4,-20 342.4,-501.88 342.4,-501.88 342.4,-507.88 336.4,-513.88 330.4,-513.88 330.4,-513.88 140.4,-513.88 140.4,-513.88 134.4,-513.88 128.4,-507.88 128.4,-501.88 128.4,-501.88 128.4,-20 128.4,-20 128.4,-14 134.4,-8 140.4,-8"/>
<text text-anchor="middle" x="323.9" y="-15.8" font-family="Times,serif" font-size="14.00">570</text>
</g>
<g id="clust2" class="cluster">
<title>cluster60</title>
<path fill="none" stroke="black" d="M362.4,-410.91C362.4,-410.91 438.4,-410.91 438.4,-410.91 444.4,-410.91 450.4,-416.91 450.4,-422.91 450.4,-422.91 450.4,-512.86 450.4,-512.86 450.4,-518.86 444.4,-524.86 438.4,-524.86 438.4,-524.86 362.4,-524.86 362.4,-524.86 356.4,-524.86 350.4,-518.86 350.4,-512.86 350.4,-512.86 350.4,-422.91 350.4,-422.91 350.4,-416.91 356.4,-410.91 362.4,-410.91"/>
<text text-anchor="middle" x="435.4" y="-418.71" font-family="Times,serif" font-size="14.00">60</text>
</g>
<!-- μ -->
<g id="node1" class="node">
<title>μ</title>
<polygon fill="none" stroke="black" points="229.9,-302.93 136.9,-302.93 136.9,-249.93 229.9,-249.93 229.9,-302.93"/>
<text text-anchor="middle" x="183.4" y="-287.73" font-family="Times,serif" font-size="14.00">μ</text>
<text text-anchor="middle" x="183.4" y="-272.73" font-family="Times,serif" font-size="14.00">~</text>
<text text-anchor="middle" x="183.4" y="-257.73" font-family="Times,serif" font-size="14.00">Deterministic</text>
</g>
<!-- y -->
<g id="node5" class="node">
<title>y</title>
<ellipse fill="lightgrey" stroke="black" cx="220.4" cy="-165.48" rx="84.29" ry="37.45"/>
<text text-anchor="middle" x="220.4" y="-176.78" font-family="Times,serif" font-size="14.00">y</text>
<text text-anchor="middle" x="220.4" y="-161.78" font-family="Times,serif" font-size="14.00">~</text>
<text text-anchor="middle" x="220.4" y="-146.78" font-family="Times,serif" font-size="14.00">NegativeBinomial</text>
</g>
<!-- μ&#45;&gt;y -->
<g id="edge7" class="edge">
<title>μ&#45;&gt;y</title>
<path fill="none" stroke="black" d="M192.07,-249.89C195.88,-238.66 200.48,-225.12 204.85,-212.25"/>
<polygon fill="black" stroke="black" points="208.23,-213.18 208.13,-202.59 201.6,-210.93 208.23,-213.18"/>
</g>
<!-- initial_reads -->
<g id="node2" class="node">
<title>initial_reads</title>
<path fill="lightgrey" stroke="black" d="M322.4,-302.93C322.4,-302.93 260.4,-302.93 260.4,-302.93 254.4,-302.93 248.4,-296.93 248.4,-290.93 248.4,-290.93 248.4,-261.93 248.4,-261.93 248.4,-255.93 254.4,-249.93 260.4,-249.93 260.4,-249.93 322.4,-249.93 322.4,-249.93 328.4,-249.93 334.4,-255.93 334.4,-261.93 334.4,-261.93 334.4,-290.93 334.4,-290.93 334.4,-296.93 328.4,-302.93 322.4,-302.93"/>
<text text-anchor="middle" x="291.4" y="-287.73" font-family="Times,serif" font-size="14.00">initial_reads</text>
<text text-anchor="middle" x="291.4" y="-272.73" font-family="Times,serif" font-size="14.00">~</text>
<text text-anchor="middle" x="291.4" y="-257.73" font-family="Times,serif" font-size="14.00">Data</text>
</g>
<!-- initial_reads&#45;&gt;y -->
<g id="edge9" class="edge">
<title>initial_reads&#45;&gt;y</title>
<path fill="none" stroke="black" d="M274.75,-249.89C267.08,-238.12 257.77,-223.82 249.03,-210.41"/>
<polygon fill="black" stroke="black" points="251.78,-208.23 243.39,-201.76 245.92,-212.05 251.78,-208.23"/>
</g>
<!-- gene_idx -->
<g id="node3" class="node">
<title>gene_idx</title>
<path fill="lightgrey" stroke="black" d="M257.4,-505.88C257.4,-505.88 213.4,-505.88 213.4,-505.88 207.4,-505.88 201.4,-499.88 201.4,-493.88 201.4,-493.88 201.4,-464.88 201.4,-464.88 201.4,-458.88 207.4,-452.88 213.4,-452.88 213.4,-452.88 257.4,-452.88 257.4,-452.88 263.4,-452.88 269.4,-458.88 269.4,-464.88 269.4,-464.88 269.4,-493.88 269.4,-493.88 269.4,-499.88 263.4,-505.88 257.4,-505.88"/>
<text text-anchor="middle" x="235.4" y="-490.68" font-family="Times,serif" font-size="14.00">gene_idx</text>
<text text-anchor="middle" x="235.4" y="-475.68" font-family="Times,serif" font-size="14.00">~</text>
<text text-anchor="middle" x="235.4" y="-460.68" font-family="Times,serif" font-size="14.00">Data</text>
</g>
<!-- η -->
<g id="node6" class="node">
<title>η</title>
<polygon fill="none" stroke="black" points="281.9,-402.91 188.9,-402.91 188.9,-349.91 281.9,-349.91 281.9,-402.91"/>
<text text-anchor="middle" x="235.4" y="-387.71" font-family="Times,serif" font-size="14.00">η</text>
<text text-anchor="middle" x="235.4" y="-372.71" font-family="Times,serif" font-size="14.00">~</text>
<text text-anchor="middle" x="235.4" y="-357.71" font-family="Times,serif" font-size="14.00">Deterministic</text>
</g>
<!-- gene_idx&#45;&gt;η -->
<g id="edge4" class="edge">
<title>gene_idx&#45;&gt;η</title>
<path fill="none" stroke="black" d="M235.4,-452.64C235.4,-440.65 235.4,-426.19 235.4,-413.17"/>
<polygon fill="black" stroke="black" points="238.9,-413.1 235.4,-403.1 231.9,-413.1 238.9,-413.1"/>
</g>
<!-- final_reads -->
<g id="node4" class="node">
<title>final_reads</title>
<path fill="lightgrey" stroke="black" d="M247.4,-92C247.4,-92 193.4,-92 193.4,-92 187.4,-92 181.4,-86 181.4,-80 181.4,-80 181.4,-51 181.4,-51 181.4,-45 187.4,-39 193.4,-39 193.4,-39 247.4,-39 247.4,-39 253.4,-39 259.4,-45 259.4,-51 259.4,-51 259.4,-80 259.4,-80 259.4,-86 253.4,-92 247.4,-92"/>
<text text-anchor="middle" x="220.4" y="-76.8" font-family="Times,serif" font-size="14.00">final_reads</text>
<text text-anchor="middle" x="220.4" y="-61.8" font-family="Times,serif" font-size="14.00">~</text>
<text text-anchor="middle" x="220.4" y="-46.8" font-family="Times,serif" font-size="14.00">Data</text>
</g>
<!-- y&#45;&gt;final_reads -->
<g id="edge1" class="edge">
<title>y&#45;&gt;final_reads</title>
<path fill="none" stroke="black" d="M220.4,-127.99C220.4,-119.58 220.4,-110.63 220.4,-102.25"/>
<polygon fill="black" stroke="black" points="223.9,-102.01 220.4,-92.01 216.9,-102.01 223.9,-102.01"/>
</g>
<!-- η&#45;&gt;μ -->
<g id="edge6" class="edge">
<title>η&#45;&gt;μ</title>
<path fill="none" stroke="black" d="M221.73,-349.66C215.64,-338.19 208.38,-324.5 201.82,-312.14"/>
<polygon fill="black" stroke="black" points="204.75,-310.19 196.97,-303 198.56,-313.47 204.75,-310.19"/>
</g>
<!-- μ_β -->
<g id="node7" class="node">
<title>μ_β</title>
<ellipse fill="none" stroke="black" cx="340.4" cy="-590.34" rx="41.94" ry="37.45"/>
<text text-anchor="middle" x="340.4" y="-601.64" font-family="Times,serif" font-size="14.00">μ_β</text>
<text text-anchor="middle" x="340.4" y="-586.64" font-family="Times,serif" font-size="14.00">~</text>
<text text-anchor="middle" x="340.4" y="-571.64" font-family="Times,serif" font-size="14.00">Normal</text>
</g>
<!-- β_g -->
<g id="node10" class="node">
<title>β_g</title>
<ellipse fill="none" stroke="black" cx="400.4" cy="-479.38" rx="41.94" ry="37.45"/>
<text text-anchor="middle" x="400.4" y="-490.68" font-family="Times,serif" font-size="14.00">β_g</text>
<text text-anchor="middle" x="400.4" y="-475.68" font-family="Times,serif" font-size="14.00">~</text>
<text text-anchor="middle" x="400.4" y="-460.68" font-family="Times,serif" font-size="14.00">Normal</text>
</g>
<!-- μ_β&#45;&gt;β_g -->
<g id="edge3" class="edge">
<title>μ_β&#45;&gt;β_g</title>
<path fill="none" stroke="black" d="M358.56,-556.35C364.49,-545.58 371.16,-533.47 377.4,-522.14"/>
<polygon fill="black" stroke="black" points="380.54,-523.7 382.29,-513.26 374.4,-520.33 380.54,-523.7"/>
</g>
<!-- σ_β -->
<g id="node8" class="node">
<title>σ_β</title>
<ellipse fill="none" stroke="black" cx="459.4" cy="-590.34" rx="59.29" ry="37.45"/>
<text text-anchor="middle" x="459.4" y="-601.64" font-family="Times,serif" font-size="14.00">σ_β</text>
<text text-anchor="middle" x="459.4" y="-586.64" font-family="Times,serif" font-size="14.00">~</text>
<text text-anchor="middle" x="459.4" y="-571.64" font-family="Times,serif" font-size="14.00">HalfNormal</text>
</g>
<!-- σ_β&#45;&gt;β_g -->
<g id="edge2" class="edge">
<title>σ_β&#45;&gt;β_g</title>
<path fill="none" stroke="black" d="M440.57,-554.56C435.04,-544.35 428.93,-533.07 423.18,-522.46"/>
<polygon fill="black" stroke="black" points="426.08,-520.47 418.25,-513.34 419.93,-523.8 426.08,-520.47"/>
</g>
<!-- α -->
<g id="node9" class="node">
<title>α</title>
<ellipse fill="none" stroke="black" cx="59.4" cy="-276.43" rx="59.29" ry="37.45"/>
<text text-anchor="middle" x="59.4" y="-287.73" font-family="Times,serif" font-size="14.00">α</text>
<text text-anchor="middle" x="59.4" y="-272.73" font-family="Times,serif" font-size="14.00">~</text>
<text text-anchor="middle" x="59.4" y="-257.73" font-family="Times,serif" font-size="14.00">HalfNormal</text>
</g>
<!-- α&#45;&gt;y -->
<g id="edge8" class="edge">
<title>α&#45;&gt;y</title>
<path fill="none" stroke="black" d="M99.19,-248.5C119.59,-234.7 144.71,-217.69 166.79,-202.75"/>
<polygon fill="black" stroke="black" points="168.77,-205.64 175.09,-197.14 164.84,-199.85 168.77,-205.64"/>
</g>
<!-- β_g&#45;&gt;η -->
<g id="edge5" class="edge">
<title>β_g&#45;&gt;η</title>
<path fill="none" stroke="black" d="M380.83,-446.25C371.75,-433.66 359.95,-420.07 346.4,-410.91 330.21,-399.96 310.34,-392.5 291.91,-387.46"/>
<polygon fill="black" stroke="black" points="292.7,-384.05 282.14,-384.96 290.97,-390.83 292.7,-384.05"/>
</g>
</g>
</svg>
