<?xml version="1.0" encoding="UTF-8" standalone="no"?>
<!DOCTYPE svg PUBLIC "-//W3C//DTD SVG 1.1//EN"
 "http://www.w3.org/Graphics/SVG/1.1/DTD/svg11.dtd">
<!-- Generated by graphviz version 2.48.0 (0)
 -->
<!-- Pages: 1 -->
<svg width="934pt" height="630pt"
 viewBox="0.00 0.00 934.40 629.86" xmlns="http://www.w3.org/2000/svg" xmlns:xlink="http://www.w3.org/1999/xlink">
<g id="graph0" class="graph" transform="scale(1 1) rotate(0) translate(4 625.86)">
<polygon fill="white" stroke="transparent" points="-4,4 -4,-625.86 930.4,-625.86 930.4,4 -4,4"/>
<g id="clust1" class="cluster">
<title>cluster570</title>
<path fill="none" stroke="black" d="M20,-8C20,-8 211,-8 211,-8 217,-8 223,-14 223,-20 223,-20 223,-490.91 223,-490.91 223,-496.91 217,-502.91 211,-502.91 211,-502.91 20,-502.91 20,-502.91 14,-502.91 8,-496.91 8,-490.91 8,-490.91 8,-20 8,-20 8,-14 14,-8 20,-8"/>
<text text-anchor="middle" x="204.5" y="-15.8" font-family="Times,serif" font-size="14.00">570</text>
</g>
<g id="clust2" class="cluster">
<title>cluster60</title>
<path fill="none" stroke="black" d="M243,-410.91C243,-410.91 440,-410.91 440,-410.91 446,-410.91 452,-416.91 452,-422.91 452,-422.91 452,-601.86 452,-601.86 452,-607.86 446,-613.86 440,-613.86 440,-613.86 243,-613.86 243,-613.86 237,-613.86 231,-607.86 231,-601.86 231,-601.86 231,-422.91 231,-422.91 231,-416.91 237,-410.91 243,-410.91"/>
<text text-anchor="middle" x="437" y="-418.71" font-family="Times,serif" font-size="14.00">60</text>
</g>
<!-- final_count -->
<g id="node1" class="node">
<title>final_count</title>
<path fill="lightgrey" stroke="black" d="M158.5,-92C158.5,-92 103.5,-92 103.5,-92 97.5,-92 91.5,-86 91.5,-80 91.5,-80 91.5,-51 91.5,-51 91.5,-45 97.5,-39 103.5,-39 103.5,-39 158.5,-39 158.5,-39 164.5,-39 170.5,-45 170.5,-51 170.5,-51 170.5,-80 170.5,-80 170.5,-86 164.5,-92 158.5,-92"/>
<text text-anchor="middle" x="131" y="-76.8" font-family="Times,serif" font-size="14.00">final_count</text>
<text text-anchor="middle" x="131" y="-61.8" font-family="Times,serif" font-size="14.00">~</text>
<text text-anchor="middle" x="131" y="-46.8" font-family="Times,serif" font-size="14.00">Data</text>
</g>
<!-- μ -->
<g id="node2" class="node">
<title>μ</title>
<polygon fill="none" stroke="black" points="109.5,-302.93 16.5,-302.93 16.5,-249.93 109.5,-249.93 109.5,-302.93"/>
<text text-anchor="middle" x="63" y="-287.73" font-family="Times,serif" font-size="14.00">μ</text>
<text text-anchor="middle" x="63" y="-272.73" font-family="Times,serif" font-size="14.00">~</text>
<text text-anchor="middle" x="63" y="-257.73" font-family="Times,serif" font-size="14.00">Deterministic</text>
</g>
<!-- y -->
<g id="node4" class="node">
<title>y</title>
<ellipse fill="lightgrey" stroke="black" cx="131" cy="-165.48" rx="84.29" ry="37.45"/>
<text text-anchor="middle" x="131" y="-176.78" font-family="Times,serif" font-size="14.00">y</text>
<text text-anchor="middle" x="131" y="-161.78" font-family="Times,serif" font-size="14.00">~</text>
<text text-anchor="middle" x="131" y="-146.78" font-family="Times,serif" font-size="14.00">NegativeBinomial</text>
</g>
<!-- μ&#45;&gt;y -->
<g id="edge15" class="edge">
<title>μ&#45;&gt;y</title>
<path fill="none" stroke="black" d="M78.94,-249.89C86.28,-238.12 95.21,-223.82 103.58,-210.41"/>
<polygon fill="black" stroke="black" points="106.65,-212.1 108.98,-201.76 100.72,-208.39 106.65,-212.1"/>
</g>
<!-- η -->
<g id="node3" class="node">
<title>η</title>
<polygon fill="none" stroke="black" points="214.5,-402.91 121.5,-402.91 121.5,-349.91 214.5,-349.91 214.5,-402.91"/>
<text text-anchor="middle" x="168" y="-387.71" font-family="Times,serif" font-size="14.00">η</text>
<text text-anchor="middle" x="168" y="-372.71" font-family="Times,serif" font-size="14.00">~</text>
<text text-anchor="middle" x="168" y="-357.71" font-family="Times,serif" font-size="14.00">Deterministic</text>
</g>
<!-- η&#45;&gt;μ -->
<g id="edge12" class="edge">
<title>η&#45;&gt;μ</title>
<path fill="none" stroke="black" d="M140.41,-349.66C127.39,-337.51 111.71,-322.88 97.87,-309.97"/>
<polygon fill="black" stroke="black" points="100.1,-307.26 90.4,-303 95.33,-312.38 100.1,-307.26"/>
</g>
<!-- y&#45;&gt;final_count -->
<g id="edge1" class="edge">
<title>y&#45;&gt;final_count</title>
<path fill="none" stroke="black" d="M131,-127.99C131,-119.58 131,-110.63 131,-102.25"/>
<polygon fill="black" stroke="black" points="134.5,-102.01 131,-92.01 127.5,-102.01 134.5,-102.01"/>
</g>
<!-- x_cna -->
<g id="node5" class="node">
<title>x_cna</title>
<path fill="lightgrey" stroke="black" d="M193,-494.91C193,-494.91 163,-494.91 163,-494.91 157,-494.91 151,-488.91 151,-482.91 151,-482.91 151,-453.91 151,-453.91 151,-447.91 157,-441.91 163,-441.91 163,-441.91 193,-441.91 193,-441.91 199,-441.91 205,-447.91 205,-453.91 205,-453.91 205,-482.91 205,-482.91 205,-488.91 199,-494.91 193,-494.91"/>
<text text-anchor="middle" x="178" y="-479.71" font-family="Times,serif" font-size="14.00">x_cna</text>
<text text-anchor="middle" x="178" y="-464.71" font-family="Times,serif" font-size="14.00">~</text>
<text text-anchor="middle" x="178" y="-449.71" font-family="Times,serif" font-size="14.00">Data</text>
</g>
<!-- x_cna&#45;&gt;η -->
<g id="edge11" class="edge">
<title>x_cna&#45;&gt;η</title>
<path fill="none" stroke="black" d="M175.16,-441.86C174.17,-432.93 173.04,-422.73 171.97,-413.12"/>
<polygon fill="black" stroke="black" points="175.43,-412.57 170.85,-403.02 168.47,-413.35 175.43,-412.57"/>
</g>
<!-- initial_count -->
<g id="node6" class="node">
<title>initial_count</title>
<path fill="lightgrey" stroke="black" d="M202.5,-302.93C202.5,-302.93 139.5,-302.93 139.5,-302.93 133.5,-302.93 127.5,-296.93 127.5,-290.93 127.5,-290.93 127.5,-261.93 127.5,-261.93 127.5,-255.93 133.5,-249.93 139.5,-249.93 139.5,-249.93 202.5,-249.93 202.5,-249.93 208.5,-249.93 214.5,-255.93 214.5,-261.93 214.5,-261.93 214.5,-290.93 214.5,-290.93 214.5,-296.93 208.5,-302.93 202.5,-302.93"/>
<text text-anchor="middle" x="171" y="-287.73" font-family="Times,serif" font-size="14.00">initial_count</text>
<text text-anchor="middle" x="171" y="-272.73" font-family="Times,serif" font-size="14.00">~</text>
<text text-anchor="middle" x="171" y="-257.73" font-family="Times,serif" font-size="14.00">Data</text>
</g>
<!-- initial_count&#45;&gt;y -->
<g id="edge14" class="edge">
<title>initial_count&#45;&gt;y</title>
<path fill="none" stroke="black" d="M161.62,-249.89C157.5,-238.66 152.53,-225.12 147.8,-212.25"/>
<polygon fill="black" stroke="black" points="150.99,-210.77 144.26,-202.59 144.42,-213.18 150.99,-210.77"/>
</g>
<!-- g -->
<g id="node7" class="node">
<title>g</title>
<path fill="lightgrey" stroke="black" d="M121,-494.91C121,-494.91 91,-494.91 91,-494.91 85,-494.91 79,-488.91 79,-482.91 79,-482.91 79,-453.91 79,-453.91 79,-447.91 85,-441.91 91,-441.91 91,-441.91 121,-441.91 121,-441.91 127,-441.91 133,-447.91 133,-453.91 133,-453.91 133,-482.91 133,-482.91 133,-488.91 127,-494.91 121,-494.91"/>
<text text-anchor="middle" x="106" y="-479.71" font-family="Times,serif" font-size="14.00">g</text>
<text text-anchor="middle" x="106" y="-464.71" font-family="Times,serif" font-size="14.00">~</text>
<text text-anchor="middle" x="106" y="-449.71" font-family="Times,serif" font-size="14.00">Data</text>
</g>
<!-- g&#45;&gt;η -->
<g id="edge8" class="edge">
<title>g&#45;&gt;η</title>
<path fill="none" stroke="black" d="M121.64,-441.76C126.78,-433.58 132.69,-424.43 141.83,-411.36"/>
<polygon fill="black" stroke="black" points="144.69,-413.38 147.6,-403.2 138.97,-409.34 144.69,-413.38"/>
</g>
<!-- μ_β_0 -->
<g id="node8" class="node">
<title>μ_β_0</title>
<ellipse fill="none" stroke="black" cx="502" cy="-568.38" rx="41.94" ry="37.45"/>
<text text-anchor="middle" x="502" y="-579.68" font-family="Times,serif" font-size="14.00">μ_β_0</text>
<text text-anchor="middle" x="502" y="-564.68" font-family="Times,serif" font-size="14.00">~</text>
<text text-anchor="middle" x="502" y="-549.68" font-family="Times,serif" font-size="14.00">Normal</text>
</g>
<!-- β_0 -->
<g id="node15" class="node">
<title>β_0</title>
<polygon fill="none" stroke="black" points="332.5,-494.91 239.5,-494.91 239.5,-441.91 332.5,-441.91 332.5,-494.91"/>
<text text-anchor="middle" x="286" y="-479.71" font-family="Times,serif" font-size="14.00">β_0</text>
<text text-anchor="middle" x="286" y="-464.71" font-family="Times,serif" font-size="14.00">~</text>
<text text-anchor="middle" x="286" y="-449.71" font-family="Times,serif" font-size="14.00">Deterministic</text>
</g>
<!-- μ_β_0&#45;&gt;β_0 -->
<g id="edge4" class="edge">
<title>μ_β_0&#45;&gt;β_0</title>
<path fill="none" stroke="black" d="M472.82,-541.26C467.48,-537.38 461.77,-533.73 456,-530.91 409.15,-507.95 390.26,-522.74 342,-502.91 339.53,-501.89 337.04,-500.78 334.56,-499.6"/>
<polygon fill="black" stroke="black" points="336.13,-496.47 325.63,-495.06 332.95,-502.71 336.13,-496.47"/>
</g>
<!-- α -->
<g id="node9" class="node">
<title>α</title>
<ellipse fill="none" stroke="black" cx="292" cy="-276.43" rx="59.29" ry="37.45"/>
<text text-anchor="middle" x="292" y="-287.73" font-family="Times,serif" font-size="14.00">α</text>
<text text-anchor="middle" x="292" y="-272.73" font-family="Times,serif" font-size="14.00">~</text>
<text text-anchor="middle" x="292" y="-257.73" font-family="Times,serif" font-size="14.00">HalfNormal</text>
</g>
<!-- α&#45;&gt;y -->
<g id="edge13" class="edge">
<title>α&#45;&gt;y</title>
<path fill="none" stroke="black" d="M252.2,-248.5C231.81,-234.7 206.68,-217.69 184.61,-202.75"/>
<polygon fill="black" stroke="black" points="186.55,-199.85 176.31,-197.14 182.63,-205.64 186.55,-199.85"/>
</g>
<!-- μ_β_cna -->
<g id="node10" class="node">
<title>μ_β_cna</title>
<ellipse fill="none" stroke="black" cx="744" cy="-568.38" rx="45.92" ry="37.45"/>
<text text-anchor="middle" x="744" y="-579.68" font-family="Times,serif" font-size="14.00">μ_β_cna</text>
<text text-anchor="middle" x="744" y="-564.68" font-family="Times,serif" font-size="14.00">~</text>
<text text-anchor="middle" x="744" y="-549.68" font-family="Times,serif" font-size="14.00">Normal</text>
</g>
<!-- β_cna -->
<g id="node14" class="node">
<title>β_cna</title>
<polygon fill="none" stroke="black" points="443.5,-494.91 350.5,-494.91 350.5,-441.91 443.5,-441.91 443.5,-494.91"/>
<text text-anchor="middle" x="397" y="-479.71" font-family="Times,serif" font-size="14.00">β_cna</text>
<text text-anchor="middle" x="397" y="-464.71" font-family="Times,serif" font-size="14.00">~</text>
<text text-anchor="middle" x="397" y="-449.71" font-family="Times,serif" font-size="14.00">Deterministic</text>
</g>
<!-- μ_β_cna&#45;&gt;β_cna -->
<g id="edge6" class="edge">
<title>μ_β_cna&#45;&gt;β_cna</title>
<path fill="none" stroke="black" d="M710.51,-542.32C703.65,-538.02 696.29,-533.96 689,-530.91 611.08,-498.27 513.95,-482.26 453.7,-474.94"/>
<polygon fill="black" stroke="black" points="453.96,-471.44 443.62,-473.75 453.14,-478.39 453.96,-471.44"/>
</g>
<!-- σ_β_0 -->
<g id="node11" class="node">
<title>σ_β_0</title>
<ellipse fill="none" stroke="black" cx="621" cy="-568.38" rx="59.29" ry="37.45"/>
<text text-anchor="middle" x="621" y="-579.68" font-family="Times,serif" font-size="14.00">σ_β_0</text>
<text text-anchor="middle" x="621" y="-564.68" font-family="Times,serif" font-size="14.00">~</text>
<text text-anchor="middle" x="621" y="-549.68" font-family="Times,serif" font-size="14.00">HalfNormal</text>
</g>
<!-- σ_β_0&#45;&gt;β_0 -->
<g id="edge3" class="edge">
<title>σ_β_0&#45;&gt;β_0</title>
<path fill="none" stroke="black" d="M578.87,-541.79C570.53,-537.59 561.67,-533.7 553,-530.91 462.97,-501.85 431.32,-534.05 342,-502.91 339.1,-501.89 336.18,-500.72 333.29,-499.43"/>
<polygon fill="black" stroke="black" points="334.69,-496.22 324.16,-494.97 331.61,-502.51 334.69,-496.22"/>
</g>
<!-- σ_β_cna -->
<g id="node12" class="node">
<title>σ_β_cna</title>
<ellipse fill="none" stroke="black" cx="867" cy="-568.38" rx="59.29" ry="37.45"/>
<text text-anchor="middle" x="867" y="-579.68" font-family="Times,serif" font-size="14.00">σ_β_cna</text>
<text text-anchor="middle" x="867" y="-564.68" font-family="Times,serif" font-size="14.00">~</text>
<text text-anchor="middle" x="867" y="-549.68" font-family="Times,serif" font-size="14.00">HalfNormal</text>
</g>
<!-- σ_β_cna&#45;&gt;β_cna -->
<g id="edge7" class="edge">
<title>σ_β_cna&#45;&gt;β_cna</title>
<path fill="none" stroke="black" d="M824.83,-541.93C816.49,-537.72 807.64,-533.79 799,-530.91 680.26,-491.28 533.18,-477.05 453.96,-472.04"/>
<polygon fill="black" stroke="black" points="453.91,-468.53 443.71,-471.42 453.48,-475.51 453.91,-468.53"/>
</g>
<!-- Δ_β_0 -->
<g id="node13" class="node">
<title>Δ_β_0</title>
<ellipse fill="none" stroke="black" cx="286" cy="-568.38" rx="41.94" ry="37.45"/>
<text text-anchor="middle" x="286" y="-579.68" font-family="Times,serif" font-size="14.00">Δ_β_0</text>
<text text-anchor="middle" x="286" y="-564.68" font-family="Times,serif" font-size="14.00">~</text>
<text text-anchor="middle" x="286" y="-549.68" font-family="Times,serif" font-size="14.00">Normal</text>
</g>
<!-- Δ_β_0&#45;&gt;β_0 -->
<g id="edge2" class="edge">
<title>Δ_β_0&#45;&gt;β_0</title>
<path fill="none" stroke="black" d="M286,-530.9C286,-522.48 286,-513.54 286,-505.16"/>
<polygon fill="black" stroke="black" points="289.5,-504.92 286,-494.92 282.5,-504.92 289.5,-504.92"/>
</g>
<!-- β_cna&#45;&gt;η -->
<g id="edge9" class="edge">
<title>β_cna&#45;&gt;η</title>
<path fill="none" stroke="black" d="M377.94,-441.67C368.36,-430.54 355.86,-418.38 342,-410.91 306.02,-391.5 260.51,-383.22 225.06,-379.74"/>
<polygon fill="black" stroke="black" points="225.14,-376.23 214.87,-378.84 224.53,-383.2 225.14,-376.23"/>
</g>
<!-- β_0&#45;&gt;η -->
<g id="edge10" class="edge">
<title>β_0&#45;&gt;η</title>
<path fill="none" stroke="black" d="M261.96,-441.76C251.71,-431.54 239.28,-420.05 227,-410.91 225.79,-410.01 224.55,-409.11 223.29,-408.22"/>
<polygon fill="black" stroke="black" points="225.01,-405.16 214.75,-402.5 221.11,-410.97 225.01,-405.16"/>
</g>
<!-- Δ_β_cna -->
<g id="node16" class="node">
<title>Δ_β_cna</title>
<ellipse fill="none" stroke="black" cx="394" cy="-568.38" rx="48.17" ry="37.45"/>
<text text-anchor="middle" x="394" y="-579.68" font-family="Times,serif" font-size="14.00">Δ_β_cna</text>
<text text-anchor="middle" x="394" y="-564.68" font-family="Times,serif" font-size="14.00">~</text>
<text text-anchor="middle" x="394" y="-549.68" font-family="Times,serif" font-size="14.00">Normal</text>
</g>
<!-- Δ_β_cna&#45;&gt;β_cna -->
<g id="edge5" class="edge">
<title>Δ_β_cna&#45;&gt;β_cna</title>
<path fill="none" stroke="black" d="M395.12,-530.9C395.37,-522.48 395.65,-513.54 395.91,-505.16"/>
<polygon fill="black" stroke="black" points="399.41,-505.02 396.22,-494.92 392.41,-504.81 399.41,-505.02"/>
</g>
</g>
</svg>
