<?xml version="1.0" encoding="UTF-8" standalone="no"?>
<!DOCTYPE svg PUBLIC "-//W3C//DTD SVG 1.1//EN"
 "http://www.w3.org/Graphics/SVG/1.1/DTD/svg11.dtd">
<!-- Generated by graphviz version 2.48.0 (0)
 -->
<!-- Pages: 1 -->
<svg width="499pt" height="636pt"
 viewBox="0.00 0.00 498.79 635.81" xmlns="http://www.w3.org/2000/svg" xmlns:xlink="http://www.w3.org/1999/xlink">
<g id="graph0" class="graph" transform="scale(1 1) rotate(0) translate(4 631.81)">
<polygon fill="white" stroke="transparent" points="-4,4 -4,-631.81 494.79,-631.81 494.79,4 -4,4"/>
<g id="clust1" class="cluster">
<title>cluster570</title>
<path fill="none" stroke="black" d="M138.4,-8C138.4,-8 302.4,-8 302.4,-8 308.4,-8 314.4,-14 314.4,-20 314.4,-20 314.4,-501.88 314.4,-501.88 314.4,-507.88 308.4,-513.88 302.4,-513.88 302.4,-513.88 138.4,-513.88 138.4,-513.88 132.4,-513.88 126.4,-507.88 126.4,-501.88 126.4,-501.88 126.4,-20 126.4,-20 126.4,-14 132.4,-8 138.4,-8"/>
<text text-anchor="middle" x="295.9" y="-15.8" font-family="Times,serif" font-size="14.00">570</text>
</g>
<g id="clust2" class="cluster">
<title>cluster60</title>
<path fill="none" stroke="black" d="M334.4,-410.91C334.4,-410.91 410.4,-410.91 410.4,-410.91 416.4,-410.91 422.4,-416.91 422.4,-422.91 422.4,-422.91 422.4,-512.86 422.4,-512.86 422.4,-518.86 416.4,-524.86 410.4,-524.86 410.4,-524.86 334.4,-524.86 334.4,-524.86 328.4,-524.86 322.4,-518.86 322.4,-512.86 322.4,-512.86 322.4,-422.91 322.4,-422.91 322.4,-416.91 328.4,-410.91 334.4,-410.91"/>
<text text-anchor="middle" x="407.4" y="-418.71" font-family="Times,serif" font-size="14.00">60</text>
</g>
<!-- μ -->
<g id="node1" class="node">
<title>μ</title>
<polygon fill="none" stroke="black" points="285.9,-302.93 192.9,-302.93 192.9,-249.93 285.9,-249.93 285.9,-302.93"/>
<text text-anchor="middle" x="239.4" y="-287.73" font-family="Times,serif" font-size="14.00">μ</text>
<text text-anchor="middle" x="239.4" y="-272.73" font-family="Times,serif" font-size="14.00">~</text>
<text text-anchor="middle" x="239.4" y="-257.73" font-family="Times,serif" font-size="14.00">Deterministic</text>
</g>
<!-- y -->
<g id="node5" class="node">
<title>y</title>
<ellipse fill="lightgrey" stroke="black" cx="220.4" cy="-165.48" rx="84.29" ry="37.45"/>
<text text-anchor="middle" x="220.4" y="-176.78" font-family="Times,serif" font-size="14.00">y</text>
<text text-anchor="middle" x="220.4" y="-161.78" font-family="Times,serif" font-size="14.00">~</text>
<text text-anchor="middle" x="220.4" y="-146.78" font-family="Times,serif" font-size="14.00">NegativeBinomial</text>
</g>
<!-- μ&#45;&gt;y -->
<g id="edge8" class="edge">
<title>μ&#45;&gt;y</title>
<path fill="none" stroke="black" d="M234.94,-249.89C233.02,-238.87 230.71,-225.63 228.5,-212.97"/>
<polygon fill="black" stroke="black" points="231.93,-212.25 226.77,-203 225.04,-213.45 231.93,-212.25"/>
</g>
<!-- initial_reads -->
<g id="node2" class="node">
<title>initial_reads</title>
<path fill="lightgrey" stroke="black" d="M294.4,-505.88C294.4,-505.88 232.4,-505.88 232.4,-505.88 226.4,-505.88 220.4,-499.88 220.4,-493.88 220.4,-493.88 220.4,-464.88 220.4,-464.88 220.4,-458.88 226.4,-452.88 232.4,-452.88 232.4,-452.88 294.4,-452.88 294.4,-452.88 300.4,-452.88 306.4,-458.88 306.4,-464.88 306.4,-464.88 306.4,-493.88 306.4,-493.88 306.4,-499.88 300.4,-505.88 294.4,-505.88"/>
<text text-anchor="middle" x="263.4" y="-490.68" font-family="Times,serif" font-size="14.00">initial_reads</text>
<text text-anchor="middle" x="263.4" y="-475.68" font-family="Times,serif" font-size="14.00">~</text>
<text text-anchor="middle" x="263.4" y="-460.68" font-family="Times,serif" font-size="14.00">Data</text>
</g>
<!-- η -->
<g id="node6" class="node">
<title>η</title>
<polygon fill="none" stroke="black" points="295.9,-402.91 202.9,-402.91 202.9,-349.91 295.9,-349.91 295.9,-402.91"/>
<text text-anchor="middle" x="249.4" y="-387.71" font-family="Times,serif" font-size="14.00">η</text>
<text text-anchor="middle" x="249.4" y="-372.71" font-family="Times,serif" font-size="14.00">~</text>
<text text-anchor="middle" x="249.4" y="-357.71" font-family="Times,serif" font-size="14.00">Deterministic</text>
</g>
<!-- initial_reads&#45;&gt;η -->
<g id="edge6" class="edge">
<title>initial_reads&#45;&gt;η</title>
<path fill="none" stroke="black" d="M259.83,-452.64C258.17,-440.65 256.16,-426.19 254.35,-413.17"/>
<polygon fill="black" stroke="black" points="257.8,-412.53 252.96,-403.1 250.87,-413.49 257.8,-412.53"/>
</g>
<!-- gene_idx -->
<g id="node3" class="node">
<title>gene_idx</title>
<path fill="lightgrey" stroke="black" d="M190.4,-505.88C190.4,-505.88 146.4,-505.88 146.4,-505.88 140.4,-505.88 134.4,-499.88 134.4,-493.88 134.4,-493.88 134.4,-464.88 134.4,-464.88 134.4,-458.88 140.4,-452.88 146.4,-452.88 146.4,-452.88 190.4,-452.88 190.4,-452.88 196.4,-452.88 202.4,-458.88 202.4,-464.88 202.4,-464.88 202.4,-493.88 202.4,-493.88 202.4,-499.88 196.4,-505.88 190.4,-505.88"/>
<text text-anchor="middle" x="168.4" y="-490.68" font-family="Times,serif" font-size="14.00">gene_idx</text>
<text text-anchor="middle" x="168.4" y="-475.68" font-family="Times,serif" font-size="14.00">~</text>
<text text-anchor="middle" x="168.4" y="-460.68" font-family="Times,serif" font-size="14.00">Data</text>
</g>
<!-- gene_idx&#45;&gt;η -->
<g id="edge4" class="edge">
<title>gene_idx&#45;&gt;η</title>
<path fill="none" stroke="black" d="M182.35,-452.86C190.1,-439.71 200.38,-423.78 211.4,-410.91 211.54,-410.74 211.68,-410.57 211.83,-410.41"/>
<polygon fill="black" stroke="black" points="214.49,-412.69 218.78,-403 209.38,-407.9 214.49,-412.69"/>
</g>
<!-- final_reads -->
<g id="node4" class="node">
<title>final_reads</title>
<path fill="lightgrey" stroke="black" d="M247.4,-92C247.4,-92 193.4,-92 193.4,-92 187.4,-92 181.4,-86 181.4,-80 181.4,-80 181.4,-51 181.4,-51 181.4,-45 187.4,-39 193.4,-39 193.4,-39 247.4,-39 247.4,-39 253.4,-39 259.4,-45 259.4,-51 259.4,-51 259.4,-80 259.4,-80 259.4,-86 253.4,-92 247.4,-92"/>
<text text-anchor="middle" x="220.4" y="-76.8" font-family="Times,serif" font-size="14.00">final_reads</text>
<text text-anchor="middle" x="220.4" y="-61.8" font-family="Times,serif" font-size="14.00">~</text>
<text text-anchor="middle" x="220.4" y="-46.8" font-family="Times,serif" font-size="14.00">Data</text>
</g>
<!-- y&#45;&gt;final_reads -->
<g id="edge1" class="edge">
<title>y&#45;&gt;final_reads</title>
<path fill="none" stroke="black" d="M220.4,-127.99C220.4,-119.58 220.4,-110.63 220.4,-102.25"/>
<polygon fill="black" stroke="black" points="223.9,-102.01 220.4,-92.01 216.9,-102.01 223.9,-102.01"/>
</g>
<!-- η&#45;&gt;μ -->
<g id="edge7" class="edge">
<title>η&#45;&gt;μ</title>
<path fill="none" stroke="black" d="M246.77,-349.66C245.63,-338.53 244.28,-325.3 243.05,-313.23"/>
<polygon fill="black" stroke="black" points="246.5,-312.59 242.01,-303 239.54,-313.3 246.5,-312.59"/>
</g>
<!-- μ_β -->
<g id="node7" class="node">
<title>μ_β</title>
<ellipse fill="none" stroke="black" cx="312.4" cy="-590.34" rx="41.94" ry="37.45"/>
<text text-anchor="middle" x="312.4" y="-601.64" font-family="Times,serif" font-size="14.00">μ_β</text>
<text text-anchor="middle" x="312.4" y="-586.64" font-family="Times,serif" font-size="14.00">~</text>
<text text-anchor="middle" x="312.4" y="-571.64" font-family="Times,serif" font-size="14.00">Normal</text>
</g>
<!-- β -->
<g id="node10" class="node">
<title>β</title>
<ellipse fill="none" stroke="black" cx="372.4" cy="-479.38" rx="41.94" ry="37.45"/>
<text text-anchor="middle" x="372.4" y="-490.68" font-family="Times,serif" font-size="14.00">β</text>
<text text-anchor="middle" x="372.4" y="-475.68" font-family="Times,serif" font-size="14.00">~</text>
<text text-anchor="middle" x="372.4" y="-460.68" font-family="Times,serif" font-size="14.00">Normal</text>
</g>
<!-- μ_β&#45;&gt;β -->
<g id="edge3" class="edge">
<title>μ_β&#45;&gt;β</title>
<path fill="none" stroke="black" d="M330.56,-556.35C336.49,-545.58 343.16,-533.47 349.4,-522.14"/>
<polygon fill="black" stroke="black" points="352.54,-523.7 354.29,-513.26 346.4,-520.33 352.54,-523.7"/>
</g>
<!-- σ_β -->
<g id="node8" class="node">
<title>σ_β</title>
<ellipse fill="none" stroke="black" cx="431.4" cy="-590.34" rx="59.29" ry="37.45"/>
<text text-anchor="middle" x="431.4" y="-601.64" font-family="Times,serif" font-size="14.00">σ_β</text>
<text text-anchor="middle" x="431.4" y="-586.64" font-family="Times,serif" font-size="14.00">~</text>
<text text-anchor="middle" x="431.4" y="-571.64" font-family="Times,serif" font-size="14.00">HalfNormal</text>
</g>
<!-- σ_β&#45;&gt;β -->
<g id="edge2" class="edge">
<title>σ_β&#45;&gt;β</title>
<path fill="none" stroke="black" d="M412.57,-554.56C407.04,-544.35 400.93,-533.07 395.18,-522.46"/>
<polygon fill="black" stroke="black" points="398.08,-520.47 390.25,-513.34 391.93,-523.8 398.08,-520.47"/>
</g>
<!-- α -->
<g id="node9" class="node">
<title>α</title>
<ellipse fill="none" stroke="black" cx="59.4" cy="-276.43" rx="59.29" ry="37.45"/>
<text text-anchor="middle" x="59.4" y="-287.73" font-family="Times,serif" font-size="14.00">α</text>
<text text-anchor="middle" x="59.4" y="-272.73" font-family="Times,serif" font-size="14.00">~</text>
<text text-anchor="middle" x="59.4" y="-257.73" font-family="Times,serif" font-size="14.00">HalfNormal</text>
</g>
<!-- α&#45;&gt;y -->
<g id="edge9" class="edge">
<title>α&#45;&gt;y</title>
<path fill="none" stroke="black" d="M99.19,-248.5C119.59,-234.7 144.71,-217.69 166.79,-202.75"/>
<polygon fill="black" stroke="black" points="168.77,-205.64 175.09,-197.14 164.84,-199.85 168.77,-205.64"/>
</g>
<!-- β&#45;&gt;η -->
<g id="edge5" class="edge">
<title>β&#45;&gt;η</title>
<path fill="none" stroke="black" d="M351.56,-446.6C342.43,-434.36 330.94,-420.93 318.4,-410.91 314.17,-407.53 309.55,-404.38 304.76,-401.47"/>
<polygon fill="black" stroke="black" points="306.44,-398.4 296.02,-396.5 302.98,-404.49 306.44,-398.4"/>
</g>
</g>
</svg>
