<?xml version="1.0" encoding="UTF-8" standalone="no"?>
<!DOCTYPE svg PUBLIC "-//W3C//DTD SVG 1.1//EN"
 "http://www.w3.org/Graphics/SVG/1.1/DTD/svg11.dtd">
<!-- Generated by graphviz version 2.47.0 (20210327.0129)
 -->
<!-- Pages: 1 -->
<svg width="642pt" height="702pt"
 viewBox="0.00 0.00 641.59 701.72" xmlns="http://www.w3.org/2000/svg" xmlns:xlink="http://www.w3.org/1999/xlink">
<g id="graph0" class="graph" transform="scale(1 1) rotate(0) translate(4 697.72)">
<polygon fill="white" stroke="transparent" points="-4,4 -4,-697.72 637.59,-697.72 637.59,4 -4,4"/>
<g id="clust1" class="cluster">
<title>cluster1 x 10</title>
<path fill="none" stroke="black" d="M285.3,-476.81C285.3,-476.81 415.3,-476.81 415.3,-476.81 421.3,-476.81 427.3,-482.81 427.3,-488.81 427.3,-488.81 427.3,-578.77 427.3,-578.77 427.3,-584.77 421.3,-590.77 415.3,-590.77 415.3,-590.77 285.3,-590.77 285.3,-590.77 279.3,-590.77 273.3,-584.77 273.3,-578.77 273.3,-578.77 273.3,-488.81 273.3,-488.81 273.3,-482.81 279.3,-476.81 285.3,-476.81"/>
<text text-anchor="middle" x="396.8" y="-484.61" font-family="Times-Roman" font-size="14.00">1 x 10</text>
</g>
<g id="clust2" class="cluster">
<title>cluster192 x 1</title>
<path fill="none" stroke="black" d="M434.3,-354.86C434.3,-354.86 564.3,-354.86 564.3,-354.86 570.3,-354.86 576.3,-360.86 576.3,-366.86 576.3,-366.86 576.3,-456.81 576.3,-456.81 576.3,-462.81 570.3,-468.81 564.3,-468.81 564.3,-468.81 434.3,-468.81 434.3,-468.81 428.3,-468.81 422.3,-462.81 422.3,-456.81 422.3,-456.81 422.3,-366.86 422.3,-366.86 422.3,-360.86 428.3,-354.86 434.3,-354.86"/>
<text text-anchor="middle" x="541.3" y="-362.66" font-family="Times-Roman" font-size="14.00">192 x 1</text>
</g>
<g id="clust3" class="cluster">
<title>cluster64 x 1</title>
<path fill="none" stroke="black" d="M163.3,-476.81C163.3,-476.81 253.3,-476.81 253.3,-476.81 259.3,-476.81 265.3,-482.81 265.3,-488.81 265.3,-488.81 265.3,-578.77 265.3,-578.77 265.3,-584.77 259.3,-590.77 253.3,-590.77 253.3,-590.77 163.3,-590.77 163.3,-590.77 157.3,-590.77 151.3,-584.77 151.3,-578.77 151.3,-578.77 151.3,-488.81 151.3,-488.81 151.3,-482.81 157.3,-476.81 163.3,-476.81"/>
<text text-anchor="middle" x="234.8" y="-484.61" font-family="Times-Roman" font-size="14.00">64 x 1</text>
</g>
<g id="clust4" class="cluster">
<title>cluster64 x 10</title>
<path fill="none" stroke="black" d="M305.3,-354.86C305.3,-354.86 395.3,-354.86 395.3,-354.86 401.3,-354.86 407.3,-360.86 407.3,-366.86 407.3,-366.86 407.3,-456.81 407.3,-456.81 407.3,-462.81 401.3,-468.81 395.3,-468.81 395.3,-468.81 305.3,-468.81 305.3,-468.81 299.3,-468.81 293.3,-462.81 293.3,-456.81 293.3,-456.81 293.3,-366.86 293.3,-366.86 293.3,-360.86 299.3,-354.86 305.3,-354.86"/>
<text text-anchor="middle" x="372.3" y="-362.66" font-family="Times-Roman" font-size="14.00">64 x 10</text>
</g>
<g id="clust5" class="cluster">
<title>cluster192 x 10</title>
<path fill="none" stroke="black" d="M376.3,-232.91C376.3,-232.91 466.3,-232.91 466.3,-232.91 472.3,-232.91 478.3,-238.91 478.3,-244.91 478.3,-244.91 478.3,-334.86 478.3,-334.86 478.3,-340.86 472.3,-346.86 466.3,-346.86 466.3,-346.86 376.3,-346.86 376.3,-346.86 370.3,-346.86 364.3,-340.86 364.3,-334.86 364.3,-334.86 364.3,-244.91 364.3,-244.91 364.3,-238.91 370.3,-232.91 376.3,-232.91"/>
<text text-anchor="middle" x="438.8" y="-240.71" font-family="Times-Roman" font-size="14.00">192 x 10</text>
</g>
<g id="clust6" class="cluster">
<title>cluster1,443</title>
<path fill="none" stroke="black" d="M369.3,-8C369.3,-8 473.3,-8 473.3,-8 479.3,-8 485.3,-14 485.3,-20 485.3,-20 485.3,-209.93 485.3,-209.93 485.3,-215.93 479.3,-221.93 473.3,-221.93 473.3,-221.93 369.3,-221.93 369.3,-221.93 363.3,-221.93 357.3,-215.93 357.3,-209.93 357.3,-209.93 357.3,-20 357.3,-20 357.3,-14 363.3,-8 369.3,-8"/>
<text text-anchor="middle" x="456.8" y="-15.8" font-family="Times-Roman" font-size="14.00">1,443</text>
</g>
<!-- σ_μ_μ_a -->
<g id="node1" class="node">
<title>σ_μ_μ_a</title>
<ellipse fill="none" stroke="black" cx="69.3" cy="-656.24" rx="69.09" ry="37.45"/>
<text text-anchor="middle" x="69.3" y="-667.54" font-family="Times-Roman" font-size="14.00">σ_μ_μ_a</text>
<text text-anchor="middle" x="69.3" y="-652.54" font-family="Times-Roman" font-size="14.00">~</text>
<text text-anchor="middle" x="69.3" y="-637.54" font-family="Times-Roman" font-size="14.00">HalfNormal</text>
</g>
<!-- μ_μ_a -->
<g id="node8" class="node">
<title>μ_μ_a</title>
<ellipse fill="none" stroke="black" cx="208.3" cy="-545.29" rx="48.58" ry="37.45"/>
<text text-anchor="middle" x="208.3" y="-556.59" font-family="Times-Roman" font-size="14.00">μ_μ_a</text>
<text text-anchor="middle" x="208.3" y="-541.59" font-family="Times-Roman" font-size="14.00">~</text>
<text text-anchor="middle" x="208.3" y="-526.59" font-family="Times-Roman" font-size="14.00">Normal</text>
</g>
<!-- σ_μ_μ_a&#45;&gt;μ_μ_a -->
<g id="edge4" class="edge">
<title>σ_μ_μ_a&#45;&gt;μ_μ_a</title>
<path fill="none" stroke="black" d="M108.02,-624.89C126.21,-610.63 147.93,-593.61 166.5,-579.05"/>
<polygon fill="black" stroke="black" points="168.8,-581.7 174.51,-572.77 164.48,-576.19 168.8,-581.7"/>
</g>
<!-- σ_σ_μ_a -->
<g id="node2" class="node">
<title>σ_σ_μ_a</title>
<ellipse fill="none" stroke="black" cx="350.3" cy="-656.24" rx="69.09" ry="37.45"/>
<text text-anchor="middle" x="350.3" y="-667.54" font-family="Times-Roman" font-size="14.00">σ_σ_μ_a</text>
<text text-anchor="middle" x="350.3" y="-652.54" font-family="Times-Roman" font-size="14.00">~</text>
<text text-anchor="middle" x="350.3" y="-637.54" font-family="Times-Roman" font-size="14.00">HalfNormal</text>
</g>
<!-- σ_μ_a -->
<g id="node6" class="node">
<title>σ_μ_a</title>
<ellipse fill="none" stroke="black" cx="350.3" cy="-545.29" rx="69.09" ry="37.45"/>
<text text-anchor="middle" x="350.3" y="-556.59" font-family="Times-Roman" font-size="14.00">σ_μ_a</text>
<text text-anchor="middle" x="350.3" y="-541.59" font-family="Times-Roman" font-size="14.00">~</text>
<text text-anchor="middle" x="350.3" y="-526.59" font-family="Times-Roman" font-size="14.00">HalfNormal</text>
</g>
<!-- σ_σ_μ_a&#45;&gt;σ_μ_a -->
<g id="edge1" class="edge">
<title>σ_σ_μ_a&#45;&gt;σ_μ_a</title>
<path fill="none" stroke="black" d="M350.3,-618.66C350.3,-610.49 350.3,-601.71 350.3,-593.18"/>
<polygon fill="black" stroke="black" points="353.8,-592.96 350.3,-582.96 346.8,-592.96 353.8,-592.96"/>
</g>
<!-- σ -->
<g id="node3" class="node">
<title>σ</title>
<ellipse fill="none" stroke="black" cx="564.3" cy="-187.43" rx="69.09" ry="37.45"/>
<text text-anchor="middle" x="564.3" y="-198.73" font-family="Times-Roman" font-size="14.00">σ</text>
<text text-anchor="middle" x="564.3" y="-183.73" font-family="Times-Roman" font-size="14.00">~</text>
<text text-anchor="middle" x="564.3" y="-168.73" font-family="Times-Roman" font-size="14.00">HalfNormal</text>
</g>
<!-- lfc -->
<g id="node12" class="node">
<title>lfc</title>
<ellipse fill="lightgrey" stroke="black" cx="424.3" cy="-76.48" rx="48.58" ry="37.45"/>
<text text-anchor="middle" x="424.3" y="-87.78" font-family="Times-Roman" font-size="14.00">lfc</text>
<text text-anchor="middle" x="424.3" y="-72.78" font-family="Times-Roman" font-size="14.00">~</text>
<text text-anchor="middle" x="424.3" y="-57.78" font-family="Times-Roman" font-size="14.00">Normal</text>
</g>
<!-- σ&#45;&gt;lfc -->
<g id="edge10" class="edge">
<title>σ&#45;&gt;lfc</title>
<path fill="none" stroke="black" d="M525.3,-156.08C506.97,-141.82 485.1,-124.79 466.4,-110.24"/>
<polygon fill="black" stroke="black" points="468.37,-107.34 458.33,-103.96 464.07,-112.86 468.37,-107.34"/>
</g>
<!-- μ_μ_μ_a -->
<g id="node4" class="node">
<title>μ_μ_μ_a</title>
<ellipse fill="none" stroke="black" cx="209.3" cy="-656.24" rx="53.07" ry="37.45"/>
<text text-anchor="middle" x="209.3" y="-667.54" font-family="Times-Roman" font-size="14.00">μ_μ_μ_a</text>
<text text-anchor="middle" x="209.3" y="-652.54" font-family="Times-Roman" font-size="14.00">~</text>
<text text-anchor="middle" x="209.3" y="-637.54" font-family="Times-Roman" font-size="14.00">Normal</text>
</g>
<!-- μ_μ_μ_a&#45;&gt;μ_μ_a -->
<g id="edge3" class="edge">
<title>μ_μ_μ_a&#45;&gt;μ_μ_a</title>
<path fill="none" stroke="black" d="M208.96,-618.66C208.89,-610.49 208.81,-601.71 208.73,-593.18"/>
<polygon fill="black" stroke="black" points="212.22,-592.93 208.63,-582.96 205.23,-592.99 212.22,-592.93"/>
</g>
<!-- σ_σ_a -->
<g id="node5" class="node">
<title>σ_σ_a</title>
<ellipse fill="none" stroke="black" cx="507.3" cy="-545.29" rx="69.09" ry="37.45"/>
<text text-anchor="middle" x="507.3" y="-556.59" font-family="Times-Roman" font-size="14.00">σ_σ_a</text>
<text text-anchor="middle" x="507.3" y="-541.59" font-family="Times-Roman" font-size="14.00">~</text>
<text text-anchor="middle" x="507.3" y="-526.59" font-family="Times-Roman" font-size="14.00">HalfNormal</text>
</g>
<!-- σ_a -->
<g id="node7" class="node">
<title>σ_a</title>
<ellipse fill="none" stroke="black" cx="499.3" cy="-423.34" rx="69.09" ry="37.45"/>
<text text-anchor="middle" x="499.3" y="-434.64" font-family="Times-Roman" font-size="14.00">σ_a</text>
<text text-anchor="middle" x="499.3" y="-419.64" font-family="Times-Roman" font-size="14.00">~</text>
<text text-anchor="middle" x="499.3" y="-404.64" font-family="Times-Roman" font-size="14.00">HalfNormal</text>
</g>
<!-- σ_σ_a&#45;&gt;σ_a -->
<g id="edge2" class="edge">
<title>σ_σ_a&#45;&gt;σ_a</title>
<path fill="none" stroke="black" d="M504.85,-507.65C504.09,-496.24 503.24,-483.51 502.44,-471.49"/>
<polygon fill="black" stroke="black" points="505.91,-470.91 501.75,-461.17 498.93,-471.38 505.91,-470.91"/>
</g>
<!-- μ_a -->
<g id="node9" class="node">
<title>μ_a</title>
<ellipse fill="none" stroke="black" cx="350.3" cy="-423.34" rx="48.58" ry="37.45"/>
<text text-anchor="middle" x="350.3" y="-434.64" font-family="Times-Roman" font-size="14.00">μ_a</text>
<text text-anchor="middle" x="350.3" y="-419.64" font-family="Times-Roman" font-size="14.00">~</text>
<text text-anchor="middle" x="350.3" y="-404.64" font-family="Times-Roman" font-size="14.00">Normal</text>
</g>
<!-- σ_μ_a&#45;&gt;μ_a -->
<g id="edge6" class="edge">
<title>σ_μ_a&#45;&gt;μ_a</title>
<path fill="none" stroke="black" d="M350.3,-507.65C350.3,-496.24 350.3,-483.51 350.3,-471.49"/>
<polygon fill="black" stroke="black" points="353.8,-471.17 350.3,-461.17 346.8,-471.17 353.8,-471.17"/>
</g>
<!-- a -->
<g id="node10" class="node">
<title>a</title>
<ellipse fill="none" stroke="black" cx="421.3" cy="-301.38" rx="48.58" ry="37.45"/>
<text text-anchor="middle" x="421.3" y="-312.68" font-family="Times-Roman" font-size="14.00">a</text>
<text text-anchor="middle" x="421.3" y="-297.68" font-family="Times-Roman" font-size="14.00">~</text>
<text text-anchor="middle" x="421.3" y="-282.68" font-family="Times-Roman" font-size="14.00">Normal</text>
</g>
<!-- σ_a&#45;&gt;a -->
<g id="edge8" class="edge">
<title>σ_a&#45;&gt;a</title>
<path fill="none" stroke="black" d="M476.74,-387.64C467.87,-374 457.61,-358.23 448.35,-343.99"/>
<polygon fill="black" stroke="black" points="451.12,-341.83 442.73,-335.35 445.25,-345.64 451.12,-341.83"/>
</g>
<!-- μ_μ_a&#45;&gt;μ_a -->
<g id="edge5" class="edge">
<title>μ_μ_a&#45;&gt;μ_a</title>
<path fill="none" stroke="black" d="M233.45,-513.12C243.9,-501.1 256.55,-487.67 269.3,-476.81 279.67,-467.98 291.62,-459.47 303.1,-451.96"/>
<polygon fill="black" stroke="black" points="305.21,-454.77 311.75,-446.43 301.44,-448.87 305.21,-454.77"/>
</g>
<!-- μ_a&#45;&gt;a -->
<g id="edge7" class="edge">
<title>μ_a&#45;&gt;a</title>
<path fill="none" stroke="black" d="M370.07,-388.92C378.16,-375.26 387.61,-359.29 396.18,-344.82"/>
<polygon fill="black" stroke="black" points="399.3,-346.42 401.38,-336.03 393.27,-342.86 399.3,-346.42"/>
</g>
<!-- μ -->
<g id="node11" class="node">
<title>μ</title>
<polygon fill="none" stroke="black" points="477.3,-213.93 365.3,-213.93 365.3,-160.93 477.3,-160.93 477.3,-213.93"/>
<text text-anchor="middle" x="421.3" y="-198.73" font-family="Times-Roman" font-size="14.00">μ</text>
<text text-anchor="middle" x="421.3" y="-183.73" font-family="Times-Roman" font-size="14.00">~</text>
<text text-anchor="middle" x="421.3" y="-168.73" font-family="Times-Roman" font-size="14.00">Deterministic</text>
</g>
<!-- a&#45;&gt;μ -->
<g id="edge9" class="edge">
<title>a&#45;&gt;μ</title>
<path fill="none" stroke="black" d="M421.3,-263.73C421.3,-251.07 421.3,-236.92 421.3,-224.32"/>
<polygon fill="black" stroke="black" points="424.8,-224.18 421.3,-214.18 417.8,-224.18 424.8,-224.18"/>
</g>
<!-- μ&#45;&gt;lfc -->
<g id="edge11" class="edge">
<title>μ&#45;&gt;lfc</title>
<path fill="none" stroke="black" d="M422,-160.89C422.3,-149.98 422.66,-136.89 423.01,-124.35"/>
<polygon fill="black" stroke="black" points="426.51,-124.09 423.29,-114 419.52,-123.9 426.51,-124.09"/>
</g>
</g>
</svg>
