<?xml version="1.0" encoding="UTF-8" standalone="no"?>
<!DOCTYPE svg PUBLIC "-//W3C//DTD SVG 1.1//EN"
 "http://www.w3.org/Graphics/SVG/1.1/DTD/svg11.dtd">
<!-- Generated by graphviz version 2.47.0 (20210327.0129)
 -->
<!-- Pages: 1 -->
<svg width="633pt" height="702pt"
 viewBox="0.00 0.00 633.33 701.72" xmlns="http://www.w3.org/2000/svg" xmlns:xlink="http://www.w3.org/1999/xlink">
<g id="graph0" class="graph" transform="scale(1 1) rotate(0) translate(4 697.72)">
<polygon fill="white" stroke="transparent" points="-4,4 -4,-697.72 629.33,-697.72 629.33,4 -4,4"/>
<g id="clust1" class="cluster">
<title>cluster1 x 10</title>
<path fill="none" stroke="black" d="M277.03,-476.81C277.03,-476.81 407.03,-476.81 407.03,-476.81 413.03,-476.81 419.03,-482.81 419.03,-488.81 419.03,-488.81 419.03,-578.77 419.03,-578.77 419.03,-584.77 413.03,-590.77 407.03,-590.77 407.03,-590.77 277.03,-590.77 277.03,-590.77 271.03,-590.77 265.03,-584.77 265.03,-578.77 265.03,-578.77 265.03,-488.81 265.03,-488.81 265.03,-482.81 271.03,-476.81 277.03,-476.81"/>
<text text-anchor="middle" x="388.53" y="-484.61" font-family="Times-Roman" font-size="14.00">1 x 10</text>
</g>
<g id="clust2" class="cluster">
<title>cluster192 x 1</title>
<path fill="none" stroke="black" d="M426.03,-354.86C426.03,-354.86 556.03,-354.86 556.03,-354.86 562.03,-354.86 568.03,-360.86 568.03,-366.86 568.03,-366.86 568.03,-456.81 568.03,-456.81 568.03,-462.81 562.03,-468.81 556.03,-468.81 556.03,-468.81 426.03,-468.81 426.03,-468.81 420.03,-468.81 414.03,-462.81 414.03,-456.81 414.03,-456.81 414.03,-366.86 414.03,-366.86 414.03,-360.86 420.03,-354.86 426.03,-354.86"/>
<text text-anchor="middle" x="533.03" y="-362.66" font-family="Times-Roman" font-size="14.00">192 x 1</text>
</g>
<g id="clust3" class="cluster">
<title>cluster64 x 1</title>
<path fill="none" stroke="black" d="M148.03,-476.81C148.03,-476.81 238.03,-476.81 238.03,-476.81 244.03,-476.81 250.03,-482.81 250.03,-488.81 250.03,-488.81 250.03,-578.77 250.03,-578.77 250.03,-584.77 244.03,-590.77 238.03,-590.77 238.03,-590.77 148.03,-590.77 148.03,-590.77 142.03,-590.77 136.03,-584.77 136.03,-578.77 136.03,-578.77 136.03,-488.81 136.03,-488.81 136.03,-482.81 142.03,-476.81 148.03,-476.81"/>
<text text-anchor="middle" x="219.53" y="-484.61" font-family="Times-Roman" font-size="14.00">64 x 1</text>
</g>
<g id="clust4" class="cluster">
<title>cluster64 x 10</title>
<path fill="none" stroke="black" d="M297.03,-354.86C297.03,-354.86 387.03,-354.86 387.03,-354.86 393.03,-354.86 399.03,-360.86 399.03,-366.86 399.03,-366.86 399.03,-456.81 399.03,-456.81 399.03,-462.81 393.03,-468.81 387.03,-468.81 387.03,-468.81 297.03,-468.81 297.03,-468.81 291.03,-468.81 285.03,-462.81 285.03,-456.81 285.03,-456.81 285.03,-366.86 285.03,-366.86 285.03,-360.86 291.03,-354.86 297.03,-354.86"/>
<text text-anchor="middle" x="364.03" y="-362.66" font-family="Times-Roman" font-size="14.00">64 x 10</text>
</g>
<g id="clust5" class="cluster">
<title>cluster192 x 10</title>
<path fill="none" stroke="black" d="M368.03,-232.91C368.03,-232.91 458.03,-232.91 458.03,-232.91 464.03,-232.91 470.03,-238.91 470.03,-244.91 470.03,-244.91 470.03,-334.86 470.03,-334.86 470.03,-340.86 464.03,-346.86 458.03,-346.86 458.03,-346.86 368.03,-346.86 368.03,-346.86 362.03,-346.86 356.03,-340.86 356.03,-334.86 356.03,-334.86 356.03,-244.91 356.03,-244.91 356.03,-238.91 362.03,-232.91 368.03,-232.91"/>
<text text-anchor="middle" x="430.53" y="-240.71" font-family="Times-Roman" font-size="14.00">192 x 10</text>
</g>
<g id="clust6" class="cluster">
<title>cluster1,443</title>
<path fill="none" stroke="black" d="M361.03,-8C361.03,-8 465.03,-8 465.03,-8 471.03,-8 477.03,-14 477.03,-20 477.03,-20 477.03,-209.93 477.03,-209.93 477.03,-215.93 471.03,-221.93 465.03,-221.93 465.03,-221.93 361.03,-221.93 361.03,-221.93 355.03,-221.93 349.03,-215.93 349.03,-209.93 349.03,-209.93 349.03,-20 349.03,-20 349.03,-14 355.03,-8 361.03,-8"/>
<text text-anchor="middle" x="448.53" y="-15.8" font-family="Times-Roman" font-size="14.00">1,443</text>
</g>
<!-- μ_μ_μ_a -->
<g id="node1" class="node">
<title>μ_μ_μ_a</title>
<ellipse fill="none" stroke="black" cx="53.03" cy="-656.24" rx="53.07" ry="37.45"/>
<text text-anchor="middle" x="53.03" y="-667.54" font-family="Times-Roman" font-size="14.00">μ_μ_μ_a</text>
<text text-anchor="middle" x="53.03" y="-652.54" font-family="Times-Roman" font-size="14.00">~</text>
<text text-anchor="middle" x="53.03" y="-637.54" font-family="Times-Roman" font-size="14.00">Normal</text>
</g>
<!-- μ_μ_a -->
<g id="node8" class="node">
<title>μ_μ_a</title>
<ellipse fill="none" stroke="black" cx="193.03" cy="-545.29" rx="48.58" ry="37.45"/>
<text text-anchor="middle" x="193.03" y="-556.59" font-family="Times-Roman" font-size="14.00">μ_μ_a</text>
<text text-anchor="middle" x="193.03" y="-541.59" font-family="Times-Roman" font-size="14.00">~</text>
<text text-anchor="middle" x="193.03" y="-526.59" font-family="Times-Roman" font-size="14.00">Normal</text>
</g>
<!-- μ_μ_μ_a&#45;&gt;μ_μ_a -->
<g id="edge4" class="edge">
<title>μ_μ_μ_a&#45;&gt;μ_μ_a</title>
<path fill="none" stroke="black" d="M88,-628.03C107.08,-613.18 130.83,-594.7 150.92,-579.06"/>
<polygon fill="black" stroke="black" points="153.25,-581.68 158.99,-572.78 148.95,-576.16 153.25,-581.68"/>
</g>
<!-- σ_σ_μ_a -->
<g id="node2" class="node">
<title>σ_σ_μ_a</title>
<ellipse fill="none" stroke="black" cx="350.03" cy="-656.24" rx="69.09" ry="37.45"/>
<text text-anchor="middle" x="350.03" y="-667.54" font-family="Times-Roman" font-size="14.00">σ_σ_μ_a</text>
<text text-anchor="middle" x="350.03" y="-652.54" font-family="Times-Roman" font-size="14.00">~</text>
<text text-anchor="middle" x="350.03" y="-637.54" font-family="Times-Roman" font-size="14.00">HalfNormal</text>
</g>
<!-- σ_μ_a -->
<g id="node6" class="node">
<title>σ_μ_a</title>
<ellipse fill="none" stroke="black" cx="342.03" cy="-545.29" rx="69.09" ry="37.45"/>
<text text-anchor="middle" x="342.03" y="-556.59" font-family="Times-Roman" font-size="14.00">σ_μ_a</text>
<text text-anchor="middle" x="342.03" y="-541.59" font-family="Times-Roman" font-size="14.00">~</text>
<text text-anchor="middle" x="342.03" y="-526.59" font-family="Times-Roman" font-size="14.00">HalfNormal</text>
</g>
<!-- σ_σ_μ_a&#45;&gt;σ_μ_a -->
<g id="edge1" class="edge">
<title>σ_σ_μ_a&#45;&gt;σ_μ_a</title>
<path fill="none" stroke="black" d="M347.35,-618.66C346.75,-610.49 346.1,-601.71 345.48,-593.18"/>
<polygon fill="black" stroke="black" points="348.95,-592.68 344.73,-582.96 341.97,-593.19 348.95,-592.68"/>
</g>
<!-- σ -->
<g id="node3" class="node">
<title>σ</title>
<ellipse fill="none" stroke="black" cx="556.03" cy="-187.43" rx="69.09" ry="37.45"/>
<text text-anchor="middle" x="556.03" y="-198.73" font-family="Times-Roman" font-size="14.00">σ</text>
<text text-anchor="middle" x="556.03" y="-183.73" font-family="Times-Roman" font-size="14.00">~</text>
<text text-anchor="middle" x="556.03" y="-168.73" font-family="Times-Roman" font-size="14.00">HalfNormal</text>
</g>
<!-- lfc -->
<g id="node12" class="node">
<title>lfc</title>
<ellipse fill="lightgrey" stroke="black" cx="416.03" cy="-76.48" rx="48.58" ry="37.45"/>
<text text-anchor="middle" x="416.03" y="-87.78" font-family="Times-Roman" font-size="14.00">lfc</text>
<text text-anchor="middle" x="416.03" y="-72.78" font-family="Times-Roman" font-size="14.00">~</text>
<text text-anchor="middle" x="416.03" y="-57.78" font-family="Times-Roman" font-size="14.00">Normal</text>
</g>
<!-- σ&#45;&gt;lfc -->
<g id="edge11" class="edge">
<title>σ&#45;&gt;lfc</title>
<path fill="none" stroke="black" d="M517.04,-156.08C498.71,-141.82 476.83,-124.79 458.13,-110.24"/>
<polygon fill="black" stroke="black" points="460.1,-107.34 450.06,-103.96 455.8,-112.86 460.1,-107.34"/>
</g>
<!-- σ_σ_a -->
<g id="node4" class="node">
<title>σ_σ_a</title>
<ellipse fill="none" stroke="black" cx="499.03" cy="-545.29" rx="69.09" ry="37.45"/>
<text text-anchor="middle" x="499.03" y="-556.59" font-family="Times-Roman" font-size="14.00">σ_σ_a</text>
<text text-anchor="middle" x="499.03" y="-541.59" font-family="Times-Roman" font-size="14.00">~</text>
<text text-anchor="middle" x="499.03" y="-526.59" font-family="Times-Roman" font-size="14.00">HalfNormal</text>
</g>
<!-- σ_a -->
<g id="node7" class="node">
<title>σ_a</title>
<ellipse fill="none" stroke="black" cx="491.03" cy="-423.34" rx="69.09" ry="37.45"/>
<text text-anchor="middle" x="491.03" y="-434.64" font-family="Times-Roman" font-size="14.00">σ_a</text>
<text text-anchor="middle" x="491.03" y="-419.64" font-family="Times-Roman" font-size="14.00">~</text>
<text text-anchor="middle" x="491.03" y="-404.64" font-family="Times-Roman" font-size="14.00">HalfNormal</text>
</g>
<!-- σ_σ_a&#45;&gt;σ_a -->
<g id="edge2" class="edge">
<title>σ_σ_a&#45;&gt;σ_a</title>
<path fill="none" stroke="black" d="M496.59,-507.65C495.83,-496.24 494.98,-483.51 494.18,-471.49"/>
<polygon fill="black" stroke="black" points="497.65,-470.91 493.49,-461.17 490.66,-471.38 497.65,-470.91"/>
</g>
<!-- σ_μ_μ_a -->
<g id="node5" class="node">
<title>σ_μ_μ_a</title>
<ellipse fill="none" stroke="black" cx="193.03" cy="-656.24" rx="69.09" ry="37.45"/>
<text text-anchor="middle" x="193.03" y="-667.54" font-family="Times-Roman" font-size="14.00">σ_μ_μ_a</text>
<text text-anchor="middle" x="193.03" y="-652.54" font-family="Times-Roman" font-size="14.00">~</text>
<text text-anchor="middle" x="193.03" y="-637.54" font-family="Times-Roman" font-size="14.00">HalfNormal</text>
</g>
<!-- σ_μ_μ_a&#45;&gt;μ_μ_a -->
<g id="edge3" class="edge">
<title>σ_μ_μ_a&#45;&gt;μ_μ_a</title>
<path fill="none" stroke="black" d="M193.03,-618.66C193.03,-610.49 193.03,-601.71 193.03,-593.18"/>
<polygon fill="black" stroke="black" points="196.53,-592.96 193.03,-582.96 189.53,-592.96 196.53,-592.96"/>
</g>
<!-- μ_a -->
<g id="node9" class="node">
<title>μ_a</title>
<ellipse fill="none" stroke="black" cx="342.03" cy="-423.34" rx="48.58" ry="37.45"/>
<text text-anchor="middle" x="342.03" y="-434.64" font-family="Times-Roman" font-size="14.00">μ_a</text>
<text text-anchor="middle" x="342.03" y="-419.64" font-family="Times-Roman" font-size="14.00">~</text>
<text text-anchor="middle" x="342.03" y="-404.64" font-family="Times-Roman" font-size="14.00">Normal</text>
</g>
<!-- σ_μ_a&#45;&gt;μ_a -->
<g id="edge5" class="edge">
<title>σ_μ_a&#45;&gt;μ_a</title>
<path fill="none" stroke="black" d="M342.03,-507.65C342.03,-496.24 342.03,-483.51 342.03,-471.49"/>
<polygon fill="black" stroke="black" points="345.53,-471.17 342.03,-461.17 338.53,-471.17 345.53,-471.17"/>
</g>
<!-- a -->
<g id="node10" class="node">
<title>a</title>
<ellipse fill="none" stroke="black" cx="413.03" cy="-301.38" rx="48.58" ry="37.45"/>
<text text-anchor="middle" x="413.03" y="-312.68" font-family="Times-Roman" font-size="14.00">a</text>
<text text-anchor="middle" x="413.03" y="-297.68" font-family="Times-Roman" font-size="14.00">~</text>
<text text-anchor="middle" x="413.03" y="-282.68" font-family="Times-Roman" font-size="14.00">Normal</text>
</g>
<!-- σ_a&#45;&gt;a -->
<g id="edge7" class="edge">
<title>σ_a&#45;&gt;a</title>
<path fill="none" stroke="black" d="M468.47,-387.64C459.6,-374 449.35,-358.23 440.09,-343.99"/>
<polygon fill="black" stroke="black" points="442.86,-341.83 434.47,-335.35 436.99,-345.64 442.86,-341.83"/>
</g>
<!-- μ_μ_a&#45;&gt;μ_a -->
<g id="edge6" class="edge">
<title>μ_μ_a&#45;&gt;μ_a</title>
<path fill="none" stroke="black" d="M220.58,-514.35C232.49,-502.11 246.92,-488.19 261.03,-476.81 271.64,-468.27 283.67,-459.86 295.16,-452.36"/>
<polygon fill="black" stroke="black" points="297.28,-455.16 303.81,-446.82 293.5,-449.27 297.28,-455.16"/>
</g>
<!-- μ_a&#45;&gt;a -->
<g id="edge8" class="edge">
<title>μ_a&#45;&gt;a</title>
<path fill="none" stroke="black" d="M361.81,-388.92C369.9,-375.26 379.35,-359.29 387.92,-344.82"/>
<polygon fill="black" stroke="black" points="391.03,-346.42 393.12,-336.03 385.01,-342.86 391.03,-346.42"/>
</g>
<!-- μ -->
<g id="node11" class="node">
<title>μ</title>
<polygon fill="none" stroke="black" points="469.03,-213.93 357.03,-213.93 357.03,-160.93 469.03,-160.93 469.03,-213.93"/>
<text text-anchor="middle" x="413.03" y="-198.73" font-family="Times-Roman" font-size="14.00">μ</text>
<text text-anchor="middle" x="413.03" y="-183.73" font-family="Times-Roman" font-size="14.00">~</text>
<text text-anchor="middle" x="413.03" y="-168.73" font-family="Times-Roman" font-size="14.00">Deterministic</text>
</g>
<!-- a&#45;&gt;μ -->
<g id="edge9" class="edge">
<title>a&#45;&gt;μ</title>
<path fill="none" stroke="black" d="M413.03,-263.73C413.03,-251.07 413.03,-236.92 413.03,-224.32"/>
<polygon fill="black" stroke="black" points="416.53,-224.18 413.03,-214.18 409.53,-224.18 416.53,-224.18"/>
</g>
<!-- μ&#45;&gt;lfc -->
<g id="edge10" class="edge">
<title>μ&#45;&gt;lfc</title>
<path fill="none" stroke="black" d="M413.74,-160.89C414.04,-149.98 414.4,-136.89 414.74,-124.35"/>
<polygon fill="black" stroke="black" points="418.25,-124.09 415.03,-114 411.25,-123.9 418.25,-124.09"/>
</g>
</g>
</svg>
