<?xml version="1.0" encoding="UTF-8" standalone="no"?>
<!DOCTYPE svg PUBLIC "-//W3C//DTD SVG 1.1//EN"
 "http://www.w3.org/Graphics/SVG/1.1/DTD/svg11.dtd">
<!-- Generated by graphviz version 2.47.0 (20210327.0129)
 -->
<!-- Pages: 1 -->
<svg width="1079pt" height="469pt"
 viewBox="0.00 0.00 1078.59 468.81" xmlns="http://www.w3.org/2000/svg" xmlns:xlink="http://www.w3.org/1999/xlink">
<g id="graph0" class="graph" transform="scale(1 1) rotate(0) translate(4 464.81)">
<polygon fill="white" stroke="transparent" points="-4,4 -4,-464.81 1074.59,-464.81 1074.59,4 -4,4"/>
<g id="clust1" class="cluster">
<title>cluster64</title>
<path fill="none" stroke="black" d="M224.3,-243.91C224.3,-243.91 314.3,-243.91 314.3,-243.91 320.3,-243.91 326.3,-249.91 326.3,-255.91 326.3,-255.91 326.3,-345.86 326.3,-345.86 326.3,-351.86 320.3,-357.86 314.3,-357.86 314.3,-357.86 224.3,-357.86 224.3,-357.86 218.3,-357.86 212.3,-351.86 212.3,-345.86 212.3,-345.86 212.3,-255.91 212.3,-255.91 212.3,-249.91 218.3,-243.91 224.3,-243.91"/>
<text text-anchor="middle" x="308.8" y="-251.71" font-family="Times-Roman" font-size="14.00">64</text>
</g>
<g id="clust2" class="cluster">
<title>cluster64 x 10</title>
<path fill="none" stroke="black" d="M369.3,-243.91C369.3,-243.91 459.3,-243.91 459.3,-243.91 465.3,-243.91 471.3,-249.91 471.3,-255.91 471.3,-255.91 471.3,-345.86 471.3,-345.86 471.3,-351.86 465.3,-357.86 459.3,-357.86 459.3,-357.86 369.3,-357.86 369.3,-357.86 363.3,-357.86 357.3,-351.86 357.3,-345.86 357.3,-345.86 357.3,-255.91 357.3,-255.91 357.3,-249.91 363.3,-243.91 369.3,-243.91"/>
<text text-anchor="middle" x="436.3" y="-251.71" font-family="Times-Roman" font-size="14.00">64 x 10</text>
</g>
<g id="clust3" class="cluster">
<title>cluster4</title>
<path fill="none" stroke="black" d="M568.3,-243.91C568.3,-243.91 658.3,-243.91 658.3,-243.91 664.3,-243.91 670.3,-249.91 670.3,-255.91 670.3,-255.91 670.3,-345.86 670.3,-345.86 670.3,-351.86 664.3,-357.86 658.3,-357.86 658.3,-357.86 568.3,-357.86 568.3,-357.86 562.3,-357.86 556.3,-351.86 556.3,-345.86 556.3,-345.86 556.3,-255.91 556.3,-255.91 556.3,-249.91 562.3,-243.91 568.3,-243.91"/>
<text text-anchor="middle" x="657.3" y="-251.71" font-family="Times-Roman" font-size="14.00">4</text>
</g>
<g id="clust4" class="cluster">
<title>cluster10</title>
<path fill="none" stroke="black" d="M820.3,-243.91C820.3,-243.91 910.3,-243.91 910.3,-243.91 916.3,-243.91 922.3,-249.91 922.3,-255.91 922.3,-255.91 922.3,-345.86 922.3,-345.86 922.3,-351.86 916.3,-357.86 910.3,-357.86 910.3,-357.86 820.3,-357.86 820.3,-357.86 814.3,-357.86 808.3,-351.86 808.3,-345.86 808.3,-345.86 808.3,-255.91 808.3,-255.91 808.3,-249.91 814.3,-243.91 820.3,-243.91"/>
<text text-anchor="middle" x="904.8" y="-251.71" font-family="Times-Roman" font-size="14.00">10</text>
</g>
<g id="clust5" class="cluster">
<title>cluster1,443</title>
<path fill="none" stroke="black" d="M362.3,-8C362.3,-8 466.3,-8 466.3,-8 472.3,-8 478.3,-14 478.3,-20 478.3,-20 478.3,-212.93 478.3,-212.93 478.3,-218.93 472.3,-224.93 466.3,-224.93 466.3,-224.93 362.3,-224.93 362.3,-224.93 356.3,-224.93 350.3,-218.93 350.3,-212.93 350.3,-212.93 350.3,-20 350.3,-20 350.3,-14 356.3,-8 362.3,-8"/>
<text text-anchor="middle" x="449.8" y="-15.8" font-family="Times-Roman" font-size="14.00">1,443</text>
</g>
<g id="clust6" class="cluster">
<title>cluster192</title>
<path fill="none" stroke="black" d="M134.3,-121.95C134.3,-121.95 264.3,-121.95 264.3,-121.95 270.3,-121.95 276.3,-127.95 276.3,-133.95 276.3,-133.95 276.3,-223.91 276.3,-223.91 276.3,-229.91 270.3,-235.91 264.3,-235.91 264.3,-235.91 134.3,-235.91 134.3,-235.91 128.3,-235.91 122.3,-229.91 122.3,-223.91 122.3,-223.91 122.3,-133.95 122.3,-133.95 122.3,-127.95 128.3,-121.95 134.3,-121.95"/>
<text text-anchor="middle" x="254.3" y="-129.75" font-family="Times-Roman" font-size="14.00">192</text>
</g>
<!-- σ_σ -->
<g id="node1" class="node">
<title>σ_σ</title>
<ellipse fill="none" stroke="black" cx="133.3" cy="-312.38" rx="69.09" ry="37.45"/>
<text text-anchor="middle" x="133.3" y="-323.68" font-family="Times-Roman" font-size="14.00">σ_σ</text>
<text text-anchor="middle" x="133.3" y="-308.68" font-family="Times-Roman" font-size="14.00">~</text>
<text text-anchor="middle" x="133.3" y="-293.68" font-family="Times-Roman" font-size="14.00">HalfNormal</text>
</g>
<!-- σ -->
<g id="node16" class="node">
<title>σ</title>
<ellipse fill="none" stroke="black" cx="199.3" cy="-190.43" rx="69.09" ry="37.45"/>
<text text-anchor="middle" x="199.3" y="-201.73" font-family="Times-Roman" font-size="14.00">σ</text>
<text text-anchor="middle" x="199.3" y="-186.73" font-family="Times-Roman" font-size="14.00">~</text>
<text text-anchor="middle" x="199.3" y="-171.73" font-family="Times-Roman" font-size="14.00">HalfNormal</text>
</g>
<!-- σ_σ&#45;&gt;σ -->
<g id="edge13" class="edge">
<title>σ_σ&#45;&gt;σ</title>
<path fill="none" stroke="black" d="M152.56,-276.37C159.55,-263.67 167.54,-249.15 174.91,-235.76"/>
<polygon fill="black" stroke="black" points="178.14,-237.15 179.89,-226.7 172,-233.77 178.14,-237.15"/>
</g>
<!-- σ_η -->
<g id="node2" class="node">
<title>σ_η</title>
<ellipse fill="none" stroke="black" cx="613.3" cy="-423.34" rx="69.09" ry="37.45"/>
<text text-anchor="middle" x="613.3" y="-434.64" font-family="Times-Roman" font-size="14.00">σ_η</text>
<text text-anchor="middle" x="613.3" y="-419.64" font-family="Times-Roman" font-size="14.00">~</text>
<text text-anchor="middle" x="613.3" y="-404.64" font-family="Times-Roman" font-size="14.00">HalfNormal</text>
</g>
<!-- η -->
<g id="node12" class="node">
<title>η</title>
<ellipse fill="none" stroke="black" cx="613.3" cy="-312.38" rx="48.58" ry="37.45"/>
<text text-anchor="middle" x="613.3" y="-323.68" font-family="Times-Roman" font-size="14.00">η</text>
<text text-anchor="middle" x="613.3" y="-308.68" font-family="Times-Roman" font-size="14.00">~</text>
<text text-anchor="middle" x="613.3" y="-293.68" font-family="Times-Roman" font-size="14.00">Normal</text>
</g>
<!-- σ_η&#45;&gt;η -->
<g id="edge6" class="edge">
<title>σ_η&#45;&gt;η</title>
<path fill="none" stroke="black" d="M613.3,-385.75C613.3,-377.58 613.3,-368.8 613.3,-360.27"/>
<polygon fill="black" stroke="black" points="616.8,-360.06 613.3,-350.06 609.8,-360.06 616.8,-360.06"/>
</g>
<!-- σ_d -->
<g id="node3" class="node">
<title>σ_d</title>
<ellipse fill="none" stroke="black" cx="341.3" cy="-423.34" rx="69.09" ry="37.45"/>
<text text-anchor="middle" x="341.3" y="-434.64" font-family="Times-Roman" font-size="14.00">σ_d</text>
<text text-anchor="middle" x="341.3" y="-419.64" font-family="Times-Roman" font-size="14.00">~</text>
<text text-anchor="middle" x="341.3" y="-404.64" font-family="Times-Roman" font-size="14.00">HalfNormal</text>
</g>
<!-- d -->
<g id="node11" class="node">
<title>d</title>
<ellipse fill="none" stroke="black" cx="414.3" cy="-312.38" rx="48.58" ry="37.45"/>
<text text-anchor="middle" x="414.3" y="-323.68" font-family="Times-Roman" font-size="14.00">d</text>
<text text-anchor="middle" x="414.3" y="-308.68" font-family="Times-Roman" font-size="14.00">~</text>
<text text-anchor="middle" x="414.3" y="-293.68" font-family="Times-Roman" font-size="14.00">Normal</text>
</g>
<!-- σ_d&#45;&gt;d -->
<g id="edge3" class="edge">
<title>σ_d&#45;&gt;d</title>
<path fill="none" stroke="black" d="M364.39,-387.86C371.45,-377.34 379.28,-365.65 386.6,-354.72"/>
<polygon fill="black" stroke="black" points="389.69,-356.4 392.34,-346.15 383.87,-352.51 389.69,-356.4"/>
</g>
<!-- μ_β -->
<g id="node4" class="node">
<title>μ_β</title>
<ellipse fill="none" stroke="black" cx="865.3" cy="-423.34" rx="48.58" ry="37.45"/>
<text text-anchor="middle" x="865.3" y="-434.64" font-family="Times-Roman" font-size="14.00">μ_β</text>
<text text-anchor="middle" x="865.3" y="-419.64" font-family="Times-Roman" font-size="14.00">~</text>
<text text-anchor="middle" x="865.3" y="-404.64" font-family="Times-Roman" font-size="14.00">Normal</text>
</g>
<!-- β -->
<g id="node13" class="node">
<title>β</title>
<ellipse fill="none" stroke="black" cx="865.3" cy="-312.38" rx="48.58" ry="37.45"/>
<text text-anchor="middle" x="865.3" y="-323.68" font-family="Times-Roman" font-size="14.00">β</text>
<text text-anchor="middle" x="865.3" y="-308.68" font-family="Times-Roman" font-size="14.00">~</text>
<text text-anchor="middle" x="865.3" y="-293.68" font-family="Times-Roman" font-size="14.00">Normal</text>
</g>
<!-- μ_β&#45;&gt;β -->
<g id="edge7" class="edge">
<title>μ_β&#45;&gt;β</title>
<path fill="none" stroke="black" d="M865.3,-385.75C865.3,-377.58 865.3,-368.8 865.3,-360.27"/>
<polygon fill="black" stroke="black" points="868.8,-360.06 865.3,-350.06 861.8,-360.06 868.8,-360.06"/>
</g>
<!-- σ_h -->
<g id="node5" class="node">
<title>σ_h</title>
<ellipse fill="none" stroke="black" cx="69.3" cy="-423.34" rx="69.09" ry="37.45"/>
<text text-anchor="middle" x="69.3" y="-434.64" font-family="Times-Roman" font-size="14.00">σ_h</text>
<text text-anchor="middle" x="69.3" y="-419.64" font-family="Times-Roman" font-size="14.00">~</text>
<text text-anchor="middle" x="69.3" y="-404.64" font-family="Times-Roman" font-size="14.00">HalfNormal</text>
</g>
<!-- h -->
<g id="node10" class="node">
<title>h</title>
<ellipse fill="none" stroke="black" cx="269.3" cy="-312.38" rx="48.58" ry="37.45"/>
<text text-anchor="middle" x="269.3" y="-323.68" font-family="Times-Roman" font-size="14.00">h</text>
<text text-anchor="middle" x="269.3" y="-308.68" font-family="Times-Roman" font-size="14.00">~</text>
<text text-anchor="middle" x="269.3" y="-293.68" font-family="Times-Roman" font-size="14.00">Normal</text>
</g>
<!-- σ_h&#45;&gt;h -->
<g id="edge1" class="edge">
<title>σ_h&#45;&gt;h</title>
<path fill="none" stroke="black" d="M120.82,-398.02C129.63,-393.92 138.72,-389.74 147.3,-385.86 175.58,-373.06 184.56,-373.64 211.3,-357.86 217.1,-354.44 222.98,-350.52 228.68,-346.46"/>
<polygon fill="black" stroke="black" points="230.86,-349.2 236.84,-340.46 226.71,-343.56 230.86,-349.2"/>
</g>
<!-- μ_η -->
<g id="node6" class="node">
<title>μ_η</title>
<ellipse fill="none" stroke="black" cx="749.3" cy="-423.34" rx="48.58" ry="37.45"/>
<text text-anchor="middle" x="749.3" y="-434.64" font-family="Times-Roman" font-size="14.00">μ_η</text>
<text text-anchor="middle" x="749.3" y="-419.64" font-family="Times-Roman" font-size="14.00">~</text>
<text text-anchor="middle" x="749.3" y="-404.64" font-family="Times-Roman" font-size="14.00">Normal</text>
</g>
<!-- μ_η&#45;&gt;η -->
<g id="edge5" class="edge">
<title>μ_η&#45;&gt;η</title>
<path fill="none" stroke="black" d="M716.03,-395.68C697.5,-380.84 674.28,-362.24 654.6,-346.48"/>
<polygon fill="black" stroke="black" points="656.69,-343.66 646.69,-340.14 652.31,-349.12 656.69,-343.66"/>
</g>
<!-- σ_β -->
<g id="node7" class="node">
<title>σ_β</title>
<ellipse fill="none" stroke="black" cx="1001.3" cy="-423.34" rx="69.09" ry="37.45"/>
<text text-anchor="middle" x="1001.3" y="-434.64" font-family="Times-Roman" font-size="14.00">σ_β</text>
<text text-anchor="middle" x="1001.3" y="-419.64" font-family="Times-Roman" font-size="14.00">~</text>
<text text-anchor="middle" x="1001.3" y="-404.64" font-family="Times-Roman" font-size="14.00">HalfNormal</text>
</g>
<!-- σ_β&#45;&gt;β -->
<g id="edge8" class="edge">
<title>σ_β&#45;&gt;β</title>
<path fill="none" stroke="black" d="M963.05,-391.7C945.47,-377.62 924.59,-360.89 906.65,-346.51"/>
<polygon fill="black" stroke="black" points="908.63,-343.61 898.64,-340.09 904.25,-349.08 908.63,-343.61"/>
</g>
<!-- μ_h -->
<g id="node8" class="node">
<title>μ_h</title>
<ellipse fill="none" stroke="black" cx="205.3" cy="-423.34" rx="48.58" ry="37.45"/>
<text text-anchor="middle" x="205.3" y="-434.64" font-family="Times-Roman" font-size="14.00">μ_h</text>
<text text-anchor="middle" x="205.3" y="-419.64" font-family="Times-Roman" font-size="14.00">~</text>
<text text-anchor="middle" x="205.3" y="-404.64" font-family="Times-Roman" font-size="14.00">Normal</text>
</g>
<!-- μ_h&#45;&gt;h -->
<g id="edge2" class="edge">
<title>μ_h&#45;&gt;h</title>
<path fill="none" stroke="black" d="M225.02,-388.76C231.1,-378.4 237.88,-366.86 244.27,-355.98"/>
<polygon fill="black" stroke="black" points="247.48,-357.43 249.53,-347.04 241.44,-353.89 247.48,-357.43"/>
</g>
<!-- μ_d -->
<g id="node9" class="node">
<title>μ_d</title>
<ellipse fill="none" stroke="black" cx="477.3" cy="-423.34" rx="48.58" ry="37.45"/>
<text text-anchor="middle" x="477.3" y="-434.64" font-family="Times-Roman" font-size="14.00">μ_d</text>
<text text-anchor="middle" x="477.3" y="-419.64" font-family="Times-Roman" font-size="14.00">~</text>
<text text-anchor="middle" x="477.3" y="-404.64" font-family="Times-Roman" font-size="14.00">Normal</text>
</g>
<!-- μ_d&#45;&gt;d -->
<g id="edge4" class="edge">
<title>μ_d&#45;&gt;d</title>
<path fill="none" stroke="black" d="M457.88,-388.76C451.89,-378.4 445.22,-366.86 438.93,-355.98"/>
<polygon fill="black" stroke="black" points="441.79,-353.94 433.76,-347.04 435.73,-357.45 441.79,-353.94"/>
</g>
<!-- μ -->
<g id="node14" class="node">
<title>μ</title>
<polygon fill="none" stroke="black" points="470.3,-216.93 358.3,-216.93 358.3,-163.93 470.3,-163.93 470.3,-216.93"/>
<text text-anchor="middle" x="414.3" y="-201.73" font-family="Times-Roman" font-size="14.00">μ</text>
<text text-anchor="middle" x="414.3" y="-186.73" font-family="Times-Roman" font-size="14.00">~</text>
<text text-anchor="middle" x="414.3" y="-171.73" font-family="Times-Roman" font-size="14.00">Deterministic</text>
</g>
<!-- h&#45;&gt;μ -->
<g id="edge12" class="edge">
<title>h&#45;&gt;μ</title>
<path fill="none" stroke="black" d="M302.2,-284.16C323.88,-266.23 352.36,-242.67 375.2,-223.78"/>
<polygon fill="black" stroke="black" points="377.54,-226.38 383.01,-217.31 373.08,-220.99 377.54,-226.38"/>
</g>
<!-- d&#45;&gt;μ -->
<g id="edge10" class="edge">
<title>d&#45;&gt;μ</title>
<path fill="none" stroke="black" d="M414.3,-274.74C414.3,-259.77 414.3,-242.51 414.3,-227.59"/>
<polygon fill="black" stroke="black" points="417.8,-227.2 414.3,-217.2 410.8,-227.2 417.8,-227.2"/>
</g>
<!-- η&#45;&gt;μ -->
<g id="edge11" class="edge">
<title>η&#45;&gt;μ</title>
<path fill="none" stroke="black" d="M575.4,-288.54C544.34,-269.82 500.09,-243.14 465.82,-222.48"/>
<polygon fill="black" stroke="black" points="467.26,-219.27 456.88,-217.1 463.64,-225.26 467.26,-219.27"/>
</g>
<!-- β&#45;&gt;μ -->
<g id="edge9" class="edge">
<title>β&#45;&gt;μ</title>
<path fill="none" stroke="black" d="M822.23,-294.21C783.88,-279.39 725.99,-258.18 674.3,-243.91 609.14,-225.92 533.22,-211.3 480.3,-202.11"/>
<polygon fill="black" stroke="black" points="480.82,-198.65 470.37,-200.4 479.63,-205.55 480.82,-198.65"/>
</g>
<!-- lfc -->
<g id="node15" class="node">
<title>lfc</title>
<ellipse fill="lightgrey" stroke="black" cx="410.3" cy="-76.48" rx="48.58" ry="37.45"/>
<text text-anchor="middle" x="410.3" y="-87.78" font-family="Times-Roman" font-size="14.00">lfc</text>
<text text-anchor="middle" x="410.3" y="-72.78" font-family="Times-Roman" font-size="14.00">~</text>
<text text-anchor="middle" x="410.3" y="-57.78" font-family="Times-Roman" font-size="14.00">Normal</text>
</g>
<!-- μ&#45;&gt;lfc -->
<g id="edge14" class="edge">
<title>μ&#45;&gt;lfc</title>
<path fill="none" stroke="black" d="M413.38,-163.75C412.96,-152.02 412.45,-137.75 411.97,-124.22"/>
<polygon fill="black" stroke="black" points="415.46,-123.94 411.6,-114.07 408.46,-124.19 415.46,-123.94"/>
</g>
<!-- σ&#45;&gt;lfc -->
<g id="edge15" class="edge">
<title>σ&#45;&gt;lfc</title>
<path fill="none" stroke="black" d="M247.97,-163.61C282.16,-145.47 327.69,-121.31 361.83,-103.19"/>
<polygon fill="black" stroke="black" points="363.5,-106.27 370.7,-98.49 360.22,-100.08 363.5,-106.27"/>
</g>
</g>
</svg>
