<?xml version="1.0" encoding="UTF-8" standalone="no"?>
<!DOCTYPE svg PUBLIC "-//W3C//DTD SVG 1.1//EN"
 "http://www.w3.org/Graphics/SVG/1.1/DTD/svg11.dtd">
<!-- Generated by graphviz version 2.47.0 (20210327.0129)
 -->
<!-- Pages: 1 -->
<svg width="1079pt" height="469pt"
 viewBox="0.00 0.00 1078.58 468.81" xmlns="http://www.w3.org/2000/svg" xmlns:xlink="http://www.w3.org/1999/xlink">
<g id="graph0" class="graph" transform="scale(1 1) rotate(0) translate(4 464.81)">
<polygon fill="white" stroke="transparent" points="-4,4 -4,-464.81 1074.58,-464.81 1074.58,4 -4,4"/>
<g id="clust1" class="cluster">
<title>cluster64</title>
<path fill="none" stroke="black" d="M432.79,-243.91C432.79,-243.91 522.79,-243.91 522.79,-243.91 528.79,-243.91 534.79,-249.91 534.79,-255.91 534.79,-255.91 534.79,-345.86 534.79,-345.86 534.79,-351.86 528.79,-357.86 522.79,-357.86 522.79,-357.86 432.79,-357.86 432.79,-357.86 426.79,-357.86 420.79,-351.86 420.79,-345.86 420.79,-345.86 420.79,-255.91 420.79,-255.91 420.79,-249.91 426.79,-243.91 432.79,-243.91"/>
<text text-anchor="middle" x="517.29" y="-251.71" font-family="Times-Roman" font-size="14.00">64</text>
</g>
<g id="clust2" class="cluster">
<title>cluster64 x 10</title>
<path fill="none" stroke="black" d="M139.79,-243.91C139.79,-243.91 229.79,-243.91 229.79,-243.91 235.79,-243.91 241.79,-249.91 241.79,-255.91 241.79,-255.91 241.79,-345.86 241.79,-345.86 241.79,-351.86 235.79,-357.86 229.79,-357.86 229.79,-357.86 139.79,-357.86 139.79,-357.86 133.79,-357.86 127.79,-351.86 127.79,-345.86 127.79,-345.86 127.79,-255.91 127.79,-255.91 127.79,-249.91 133.79,-243.91 139.79,-243.91"/>
<text text-anchor="middle" x="206.79" y="-251.71" font-family="Times-Roman" font-size="14.00">64 x 10</text>
</g>
<g id="clust3" class="cluster">
<title>cluster4</title>
<path fill="none" stroke="black" d="M631.79,-243.91C631.79,-243.91 721.79,-243.91 721.79,-243.91 727.79,-243.91 733.79,-249.91 733.79,-255.91 733.79,-255.91 733.79,-345.86 733.79,-345.86 733.79,-351.86 727.79,-357.86 721.79,-357.86 721.79,-357.86 631.79,-357.86 631.79,-357.86 625.79,-357.86 619.79,-351.86 619.79,-345.86 619.79,-345.86 619.79,-255.91 619.79,-255.91 619.79,-249.91 625.79,-243.91 631.79,-243.91"/>
<text text-anchor="middle" x="720.79" y="-251.71" font-family="Times-Roman" font-size="14.00">4</text>
</g>
<g id="clust4" class="cluster">
<title>cluster10</title>
<path fill="none" stroke="black" d="M776.79,-243.91C776.79,-243.91 866.79,-243.91 866.79,-243.91 872.79,-243.91 878.79,-249.91 878.79,-255.91 878.79,-255.91 878.79,-345.86 878.79,-345.86 878.79,-351.86 872.79,-357.86 866.79,-357.86 866.79,-357.86 776.79,-357.86 776.79,-357.86 770.79,-357.86 764.79,-351.86 764.79,-345.86 764.79,-345.86 764.79,-255.91 764.79,-255.91 764.79,-249.91 770.79,-243.91 776.79,-243.91"/>
<text text-anchor="middle" x="861.29" y="-251.71" font-family="Times-Roman" font-size="14.00">10</text>
</g>
<g id="clust5" class="cluster">
<title>cluster1,443</title>
<path fill="none" stroke="black" d="M624.79,-8C624.79,-8 728.79,-8 728.79,-8 734.79,-8 740.79,-14 740.79,-20 740.79,-20 740.79,-212.93 740.79,-212.93 740.79,-218.93 734.79,-224.93 728.79,-224.93 728.79,-224.93 624.79,-224.93 624.79,-224.93 618.79,-224.93 612.79,-218.93 612.79,-212.93 612.79,-212.93 612.79,-20 612.79,-20 612.79,-14 618.79,-8 624.79,-8"/>
<text text-anchor="middle" x="712.29" y="-15.8" font-family="Times-Roman" font-size="14.00">1,443</text>
</g>
<g id="clust6" class="cluster">
<title>cluster192</title>
<path fill="none" stroke="black" d="M826.79,-121.95C826.79,-121.95 956.79,-121.95 956.79,-121.95 962.79,-121.95 968.79,-127.95 968.79,-133.95 968.79,-133.95 968.79,-223.91 968.79,-223.91 968.79,-229.91 962.79,-235.91 956.79,-235.91 956.79,-235.91 826.79,-235.91 826.79,-235.91 820.79,-235.91 814.79,-229.91 814.79,-223.91 814.79,-223.91 814.79,-133.95 814.79,-133.95 814.79,-127.95 820.79,-121.95 826.79,-121.95"/>
<text text-anchor="middle" x="946.79" y="-129.75" font-family="Times-Roman" font-size="14.00">192</text>
</g>
<!-- μ_d -->
<g id="node1" class="node">
<title>μ_d</title>
<ellipse fill="none" stroke="black" cx="48.79" cy="-423.34" rx="48.58" ry="37.45"/>
<text text-anchor="middle" x="48.79" y="-434.64" font-family="Times-Roman" font-size="14.00">μ_d</text>
<text text-anchor="middle" x="48.79" y="-419.64" font-family="Times-Roman" font-size="14.00">~</text>
<text text-anchor="middle" x="48.79" y="-404.64" font-family="Times-Roman" font-size="14.00">Normal</text>
</g>
<!-- d -->
<g id="node11" class="node">
<title>d</title>
<ellipse fill="none" stroke="black" cx="184.79" cy="-312.38" rx="48.58" ry="37.45"/>
<text text-anchor="middle" x="184.79" y="-323.68" font-family="Times-Roman" font-size="14.00">d</text>
<text text-anchor="middle" x="184.79" y="-308.68" font-family="Times-Roman" font-size="14.00">~</text>
<text text-anchor="middle" x="184.79" y="-293.68" font-family="Times-Roman" font-size="14.00">Normal</text>
</g>
<!-- μ_d&#45;&gt;d -->
<g id="edge3" class="edge">
<title>μ_d&#45;&gt;d</title>
<path fill="none" stroke="black" d="M82.06,-395.68C100.58,-380.84 123.81,-362.24 143.48,-346.48"/>
<polygon fill="black" stroke="black" points="145.78,-349.12 151.39,-340.14 141.4,-343.66 145.78,-349.12"/>
</g>
<!-- σ_β -->
<g id="node2" class="node">
<title>σ_β</title>
<ellipse fill="none" stroke="black" cx="885.79" cy="-423.34" rx="69.09" ry="37.45"/>
<text text-anchor="middle" x="885.79" y="-434.64" font-family="Times-Roman" font-size="14.00">σ_β</text>
<text text-anchor="middle" x="885.79" y="-419.64" font-family="Times-Roman" font-size="14.00">~</text>
<text text-anchor="middle" x="885.79" y="-404.64" font-family="Times-Roman" font-size="14.00">HalfNormal</text>
</g>
<!-- β -->
<g id="node13" class="node">
<title>β</title>
<ellipse fill="none" stroke="black" cx="821.79" cy="-312.38" rx="48.58" ry="37.45"/>
<text text-anchor="middle" x="821.79" y="-323.68" font-family="Times-Roman" font-size="14.00">β</text>
<text text-anchor="middle" x="821.79" y="-308.68" font-family="Times-Roman" font-size="14.00">~</text>
<text text-anchor="middle" x="821.79" y="-293.68" font-family="Times-Roman" font-size="14.00">Normal</text>
</g>
<!-- σ_β&#45;&gt;β -->
<g id="edge7" class="edge">
<title>σ_β&#45;&gt;β</title>
<path fill="none" stroke="black" d="M865.19,-387.26C859.25,-377.15 852.71,-366.02 846.55,-355.53"/>
<polygon fill="black" stroke="black" points="849.56,-353.76 841.48,-346.91 843.53,-357.3 849.56,-353.76"/>
</g>
<!-- σ_h -->
<g id="node3" class="node">
<title>σ_h</title>
<ellipse fill="none" stroke="black" cx="341.79" cy="-423.34" rx="69.09" ry="37.45"/>
<text text-anchor="middle" x="341.79" y="-434.64" font-family="Times-Roman" font-size="14.00">σ_h</text>
<text text-anchor="middle" x="341.79" y="-419.64" font-family="Times-Roman" font-size="14.00">~</text>
<text text-anchor="middle" x="341.79" y="-404.64" font-family="Times-Roman" font-size="14.00">HalfNormal</text>
</g>
<!-- h -->
<g id="node10" class="node">
<title>h</title>
<ellipse fill="none" stroke="black" cx="477.79" cy="-312.38" rx="48.58" ry="37.45"/>
<text text-anchor="middle" x="477.79" y="-323.68" font-family="Times-Roman" font-size="14.00">h</text>
<text text-anchor="middle" x="477.79" y="-308.68" font-family="Times-Roman" font-size="14.00">~</text>
<text text-anchor="middle" x="477.79" y="-293.68" font-family="Times-Roman" font-size="14.00">Normal</text>
</g>
<!-- σ_h&#45;&gt;h -->
<g id="edge1" class="edge">
<title>σ_h&#45;&gt;h</title>
<path fill="none" stroke="black" d="M380.04,-391.7C397.61,-377.62 418.5,-360.89 436.44,-346.51"/>
<polygon fill="black" stroke="black" points="438.84,-349.08 444.45,-340.09 434.46,-343.61 438.84,-349.08"/>
</g>
<!-- σ_η -->
<g id="node4" class="node">
<title>σ_η</title>
<ellipse fill="none" stroke="black" cx="613.79" cy="-423.34" rx="69.09" ry="37.45"/>
<text text-anchor="middle" x="613.79" y="-434.64" font-family="Times-Roman" font-size="14.00">σ_η</text>
<text text-anchor="middle" x="613.79" y="-419.64" font-family="Times-Roman" font-size="14.00">~</text>
<text text-anchor="middle" x="613.79" y="-404.64" font-family="Times-Roman" font-size="14.00">HalfNormal</text>
</g>
<!-- η -->
<g id="node12" class="node">
<title>η</title>
<ellipse fill="none" stroke="black" cx="676.79" cy="-312.38" rx="48.58" ry="37.45"/>
<text text-anchor="middle" x="676.79" y="-323.68" font-family="Times-Roman" font-size="14.00">η</text>
<text text-anchor="middle" x="676.79" y="-308.68" font-family="Times-Roman" font-size="14.00">~</text>
<text text-anchor="middle" x="676.79" y="-293.68" font-family="Times-Roman" font-size="14.00">Normal</text>
</g>
<!-- σ_η&#45;&gt;η -->
<g id="edge6" class="edge">
<title>σ_η&#45;&gt;η</title>
<path fill="none" stroke="black" d="M634.07,-387.26C639.86,-377.26 646.23,-366.24 652.24,-355.84"/>
<polygon fill="black" stroke="black" points="655.43,-357.32 657.41,-346.91 649.37,-353.81 655.43,-357.32"/>
</g>
<!-- σ_σ -->
<g id="node5" class="node">
<title>σ_σ</title>
<ellipse fill="none" stroke="black" cx="957.79" cy="-312.38" rx="69.09" ry="37.45"/>
<text text-anchor="middle" x="957.79" y="-323.68" font-family="Times-Roman" font-size="14.00">σ_σ</text>
<text text-anchor="middle" x="957.79" y="-308.68" font-family="Times-Roman" font-size="14.00">~</text>
<text text-anchor="middle" x="957.79" y="-293.68" font-family="Times-Roman" font-size="14.00">HalfNormal</text>
</g>
<!-- σ -->
<g id="node16" class="node">
<title>σ</title>
<ellipse fill="none" stroke="black" cx="891.79" cy="-190.43" rx="69.09" ry="37.45"/>
<text text-anchor="middle" x="891.79" y="-201.73" font-family="Times-Roman" font-size="14.00">σ</text>
<text text-anchor="middle" x="891.79" y="-186.73" font-family="Times-Roman" font-size="14.00">~</text>
<text text-anchor="middle" x="891.79" y="-171.73" font-family="Times-Roman" font-size="14.00">HalfNormal</text>
</g>
<!-- σ_σ&#45;&gt;σ -->
<g id="edge13" class="edge">
<title>σ_σ&#45;&gt;σ</title>
<path fill="none" stroke="black" d="M938.52,-276.37C931.54,-263.67 923.55,-249.15 916.18,-235.76"/>
<polygon fill="black" stroke="black" points="919.08,-233.77 911.2,-226.7 912.95,-237.15 919.08,-233.77"/>
</g>
<!-- μ_β -->
<g id="node6" class="node">
<title>μ_β</title>
<ellipse fill="none" stroke="black" cx="1021.79" cy="-423.34" rx="48.58" ry="37.45"/>
<text text-anchor="middle" x="1021.79" y="-434.64" font-family="Times-Roman" font-size="14.00">μ_β</text>
<text text-anchor="middle" x="1021.79" y="-419.64" font-family="Times-Roman" font-size="14.00">~</text>
<text text-anchor="middle" x="1021.79" y="-404.64" font-family="Times-Roman" font-size="14.00">Normal</text>
</g>
<!-- μ_β&#45;&gt;β -->
<g id="edge8" class="edge">
<title>μ_β&#45;&gt;β</title>
<path fill="none" stroke="black" d="M985.72,-397.81C978.62,-393.51 971.1,-389.32 963.79,-385.86 928.21,-369.04 914.55,-376.31 879.79,-357.86 873.77,-354.66 867.71,-350.85 861.91,-346.81"/>
<polygon fill="black" stroke="black" points="863.77,-343.84 853.62,-340.8 859.66,-349.5 863.77,-343.84"/>
</g>
<!-- μ_h -->
<g id="node7" class="node">
<title>μ_h</title>
<ellipse fill="none" stroke="black" cx="477.79" cy="-423.34" rx="48.58" ry="37.45"/>
<text text-anchor="middle" x="477.79" y="-434.64" font-family="Times-Roman" font-size="14.00">μ_h</text>
<text text-anchor="middle" x="477.79" y="-419.64" font-family="Times-Roman" font-size="14.00">~</text>
<text text-anchor="middle" x="477.79" y="-404.64" font-family="Times-Roman" font-size="14.00">Normal</text>
</g>
<!-- μ_h&#45;&gt;h -->
<g id="edge2" class="edge">
<title>μ_h&#45;&gt;h</title>
<path fill="none" stroke="black" d="M477.79,-385.75C477.79,-377.58 477.79,-368.8 477.79,-360.27"/>
<polygon fill="black" stroke="black" points="481.29,-360.06 477.79,-350.06 474.29,-360.06 481.29,-360.06"/>
</g>
<!-- μ_η -->
<g id="node8" class="node">
<title>μ_η</title>
<ellipse fill="none" stroke="black" cx="749.79" cy="-423.34" rx="48.58" ry="37.45"/>
<text text-anchor="middle" x="749.79" y="-434.64" font-family="Times-Roman" font-size="14.00">μ_η</text>
<text text-anchor="middle" x="749.79" y="-419.64" font-family="Times-Roman" font-size="14.00">~</text>
<text text-anchor="middle" x="749.79" y="-404.64" font-family="Times-Roman" font-size="14.00">Normal</text>
</g>
<!-- μ_η&#45;&gt;η -->
<g id="edge5" class="edge">
<title>μ_η&#45;&gt;η</title>
<path fill="none" stroke="black" d="M727.89,-389.65C720.53,-378.66 712.21,-366.25 704.47,-354.69"/>
<polygon fill="black" stroke="black" points="707.15,-352.41 698.68,-346.05 701.34,-356.31 707.15,-352.41"/>
</g>
<!-- σ_d -->
<g id="node9" class="node">
<title>σ_d</title>
<ellipse fill="none" stroke="black" cx="184.79" cy="-423.34" rx="69.09" ry="37.45"/>
<text text-anchor="middle" x="184.79" y="-434.64" font-family="Times-Roman" font-size="14.00">σ_d</text>
<text text-anchor="middle" x="184.79" y="-419.64" font-family="Times-Roman" font-size="14.00">~</text>
<text text-anchor="middle" x="184.79" y="-404.64" font-family="Times-Roman" font-size="14.00">HalfNormal</text>
</g>
<!-- σ_d&#45;&gt;d -->
<g id="edge4" class="edge">
<title>σ_d&#45;&gt;d</title>
<path fill="none" stroke="black" d="M184.79,-385.75C184.79,-377.58 184.79,-368.8 184.79,-360.27"/>
<polygon fill="black" stroke="black" points="188.29,-360.06 184.79,-350.06 181.29,-360.06 188.29,-360.06"/>
</g>
<!-- μ -->
<g id="node15" class="node">
<title>μ</title>
<polygon fill="none" stroke="black" points="732.79,-216.93 620.79,-216.93 620.79,-163.93 732.79,-163.93 732.79,-216.93"/>
<text text-anchor="middle" x="676.79" y="-201.73" font-family="Times-Roman" font-size="14.00">μ</text>
<text text-anchor="middle" x="676.79" y="-186.73" font-family="Times-Roman" font-size="14.00">~</text>
<text text-anchor="middle" x="676.79" y="-171.73" font-family="Times-Roman" font-size="14.00">Deterministic</text>
</g>
<!-- h&#45;&gt;μ -->
<g id="edge9" class="edge">
<title>h&#45;&gt;μ</title>
<path fill="none" stroke="black" d="M515.69,-288.54C546.74,-269.82 591,-243.14 625.27,-222.48"/>
<polygon fill="black" stroke="black" points="627.45,-225.26 634.2,-217.1 623.83,-219.27 627.45,-225.26"/>
</g>
<!-- d&#45;&gt;μ -->
<g id="edge12" class="edge">
<title>d&#45;&gt;μ</title>
<path fill="none" stroke="black" d="M229.4,-297.2C275.89,-282.7 351.01,-260.08 416.79,-243.91 482.33,-227.79 558.04,-212.93 610.79,-203.17"/>
<polygon fill="black" stroke="black" points="611.5,-206.6 620.7,-201.34 610.23,-199.71 611.5,-206.6"/>
</g>
<!-- η&#45;&gt;μ -->
<g id="edge11" class="edge">
<title>η&#45;&gt;μ</title>
<path fill="none" stroke="black" d="M676.79,-274.74C676.79,-259.77 676.79,-242.51 676.79,-227.59"/>
<polygon fill="black" stroke="black" points="680.29,-227.2 676.79,-217.2 673.29,-227.2 680.29,-227.2"/>
</g>
<!-- β&#45;&gt;μ -->
<g id="edge10" class="edge">
<title>β&#45;&gt;μ</title>
<path fill="none" stroke="black" d="M788.89,-284.16C767.21,-266.23 738.72,-242.67 715.89,-223.78"/>
<polygon fill="black" stroke="black" points="718.01,-220.99 708.07,-217.31 713.55,-226.38 718.01,-220.99"/>
</g>
<!-- lfc -->
<g id="node14" class="node">
<title>lfc</title>
<ellipse fill="lightgrey" stroke="black" cx="679.79" cy="-76.48" rx="48.58" ry="37.45"/>
<text text-anchor="middle" x="679.79" y="-87.78" font-family="Times-Roman" font-size="14.00">lfc</text>
<text text-anchor="middle" x="679.79" y="-72.78" font-family="Times-Roman" font-size="14.00">~</text>
<text text-anchor="middle" x="679.79" y="-57.78" font-family="Times-Roman" font-size="14.00">Normal</text>
</g>
<!-- μ&#45;&gt;lfc -->
<g id="edge15" class="edge">
<title>μ&#45;&gt;lfc</title>
<path fill="none" stroke="black" d="M677.48,-163.75C677.79,-152.02 678.18,-137.75 678.54,-124.22"/>
<polygon fill="black" stroke="black" points="682.04,-124.16 678.81,-114.07 675.04,-123.98 682.04,-124.16"/>
</g>
<!-- σ&#45;&gt;lfc -->
<g id="edge14" class="edge">
<title>σ&#45;&gt;lfc</title>
<path fill="none" stroke="black" d="M842.89,-163.61C808.54,-145.47 762.79,-121.31 728.48,-103.19"/>
<polygon fill="black" stroke="black" points="730.06,-100.06 719.58,-98.49 726.79,-106.25 730.06,-100.06"/>
</g>
</g>
</svg>
