<?xml version="1.0" encoding="UTF-8" standalone="no"?>
<!DOCTYPE svg PUBLIC "-//W3C//DTD SVG 1.1//EN"
 "http://www.w3.org/Graphics/SVG/1.1/DTD/svg11.dtd">
<!-- Generated by graphviz version 2.47.0 (20210327.0129)
 -->
<!-- Pages: 1 -->
<svg width="1079pt" height="469pt"
 viewBox="0.00 0.00 1079.09 468.81" xmlns="http://www.w3.org/2000/svg" xmlns:xlink="http://www.w3.org/1999/xlink">
<g id="graph0" class="graph" transform="scale(1 1) rotate(0) translate(4 464.81)">
<polygon fill="white" stroke="transparent" points="-4,4 -4,-464.81 1075.09,-464.81 1075.09,4 -4,4"/>
<g id="clust1" class="cluster">
<title>cluster64</title>
<path fill="none" stroke="black" d="M203.79,-243.91C203.79,-243.91 293.79,-243.91 293.79,-243.91 299.79,-243.91 305.79,-249.91 305.79,-255.91 305.79,-255.91 305.79,-345.86 305.79,-345.86 305.79,-351.86 299.79,-357.86 293.79,-357.86 293.79,-357.86 203.79,-357.86 203.79,-357.86 197.79,-357.86 191.79,-351.86 191.79,-345.86 191.79,-345.86 191.79,-255.91 191.79,-255.91 191.79,-249.91 197.79,-243.91 203.79,-243.91"/>
<text text-anchor="middle" x="288.29" y="-251.71" font-family="Times-Roman" font-size="14.00">64</text>
</g>
<g id="clust2" class="cluster">
<title>cluster64 x 10</title>
<path fill="none" stroke="black" d="M348.79,-243.91C348.79,-243.91 438.79,-243.91 438.79,-243.91 444.79,-243.91 450.79,-249.91 450.79,-255.91 450.79,-255.91 450.79,-345.86 450.79,-345.86 450.79,-351.86 444.79,-357.86 438.79,-357.86 438.79,-357.86 348.79,-357.86 348.79,-357.86 342.79,-357.86 336.79,-351.86 336.79,-345.86 336.79,-345.86 336.79,-255.91 336.79,-255.91 336.79,-249.91 342.79,-243.91 348.79,-243.91"/>
<text text-anchor="middle" x="415.79" y="-251.71" font-family="Times-Roman" font-size="14.00">64 x 10</text>
</g>
<g id="clust3" class="cluster">
<title>cluster4</title>
<path fill="none" stroke="black" d="M568.79,-243.91C568.79,-243.91 658.79,-243.91 658.79,-243.91 664.79,-243.91 670.79,-249.91 670.79,-255.91 670.79,-255.91 670.79,-345.86 670.79,-345.86 670.79,-351.86 664.79,-357.86 658.79,-357.86 658.79,-357.86 568.79,-357.86 568.79,-357.86 562.79,-357.86 556.79,-351.86 556.79,-345.86 556.79,-345.86 556.79,-255.91 556.79,-255.91 556.79,-249.91 562.79,-243.91 568.79,-243.91"/>
<text text-anchor="middle" x="657.79" y="-251.71" font-family="Times-Roman" font-size="14.00">4</text>
</g>
<g id="clust4" class="cluster">
<title>cluster10</title>
<path fill="none" stroke="black" d="M820.79,-243.91C820.79,-243.91 910.79,-243.91 910.79,-243.91 916.79,-243.91 922.79,-249.91 922.79,-255.91 922.79,-255.91 922.79,-345.86 922.79,-345.86 922.79,-351.86 916.79,-357.86 910.79,-357.86 910.79,-357.86 820.79,-357.86 820.79,-357.86 814.79,-357.86 808.79,-351.86 808.79,-345.86 808.79,-345.86 808.79,-255.91 808.79,-255.91 808.79,-249.91 814.79,-243.91 820.79,-243.91"/>
<text text-anchor="middle" x="905.29" y="-251.71" font-family="Times-Roman" font-size="14.00">10</text>
</g>
<g id="clust5" class="cluster">
<title>cluster1,443</title>
<path fill="none" stroke="black" d="M341.79,-8C341.79,-8 445.79,-8 445.79,-8 451.79,-8 457.79,-14 457.79,-20 457.79,-20 457.79,-212.93 457.79,-212.93 457.79,-218.93 451.79,-224.93 445.79,-224.93 445.79,-224.93 341.79,-224.93 341.79,-224.93 335.79,-224.93 329.79,-218.93 329.79,-212.93 329.79,-212.93 329.79,-20 329.79,-20 329.79,-14 335.79,-8 341.79,-8"/>
<text text-anchor="middle" x="429.29" y="-15.8" font-family="Times-Roman" font-size="14.00">1,443</text>
</g>
<g id="clust6" class="cluster">
<title>cluster192</title>
<path fill="none" stroke="black" d="M113.79,-121.95C113.79,-121.95 243.79,-121.95 243.79,-121.95 249.79,-121.95 255.79,-127.95 255.79,-133.95 255.79,-133.95 255.79,-223.91 255.79,-223.91 255.79,-229.91 249.79,-235.91 243.79,-235.91 243.79,-235.91 113.79,-235.91 113.79,-235.91 107.79,-235.91 101.79,-229.91 101.79,-223.91 101.79,-223.91 101.79,-133.95 101.79,-133.95 101.79,-127.95 107.79,-121.95 113.79,-121.95"/>
<text text-anchor="middle" x="233.79" y="-129.75" font-family="Times-Roman" font-size="14.00">192</text>
</g>
<!-- σ_σ -->
<g id="node1" class="node">
<title>σ_σ</title>
<ellipse fill="none" stroke="black" cx="112.79" cy="-312.38" rx="69.09" ry="37.45"/>
<text text-anchor="middle" x="112.79" y="-323.68" font-family="Times-Roman" font-size="14.00">σ_σ</text>
<text text-anchor="middle" x="112.79" y="-308.68" font-family="Times-Roman" font-size="14.00">~</text>
<text text-anchor="middle" x="112.79" y="-293.68" font-family="Times-Roman" font-size="14.00">HalfNormal</text>
</g>
<!-- σ -->
<g id="node16" class="node">
<title>σ</title>
<ellipse fill="none" stroke="black" cx="178.79" cy="-190.43" rx="69.09" ry="37.45"/>
<text text-anchor="middle" x="178.79" y="-201.73" font-family="Times-Roman" font-size="14.00">σ</text>
<text text-anchor="middle" x="178.79" y="-186.73" font-family="Times-Roman" font-size="14.00">~</text>
<text text-anchor="middle" x="178.79" y="-171.73" font-family="Times-Roman" font-size="14.00">HalfNormal</text>
</g>
<!-- σ_σ&#45;&gt;σ -->
<g id="edge13" class="edge">
<title>σ_σ&#45;&gt;σ</title>
<path fill="none" stroke="black" d="M132.06,-276.37C139.04,-263.67 147.03,-249.15 154.4,-235.76"/>
<polygon fill="black" stroke="black" points="157.63,-237.15 159.38,-226.7 151.5,-233.77 157.63,-237.15"/>
</g>
<!-- μ_h -->
<g id="node2" class="node">
<title>μ_h</title>
<ellipse fill="none" stroke="black" cx="48.79" cy="-423.34" rx="48.58" ry="37.45"/>
<text text-anchor="middle" x="48.79" y="-434.64" font-family="Times-Roman" font-size="14.00">μ_h</text>
<text text-anchor="middle" x="48.79" y="-419.64" font-family="Times-Roman" font-size="14.00">~</text>
<text text-anchor="middle" x="48.79" y="-404.64" font-family="Times-Roman" font-size="14.00">Normal</text>
</g>
<!-- h -->
<g id="node10" class="node">
<title>h</title>
<ellipse fill="none" stroke="black" cx="248.79" cy="-312.38" rx="48.58" ry="37.45"/>
<text text-anchor="middle" x="248.79" y="-323.68" font-family="Times-Roman" font-size="14.00">h</text>
<text text-anchor="middle" x="248.79" y="-308.68" font-family="Times-Roman" font-size="14.00">~</text>
<text text-anchor="middle" x="248.79" y="-293.68" font-family="Times-Roman" font-size="14.00">Normal</text>
</g>
<!-- μ_h&#45;&gt;h -->
<g id="edge2" class="edge">
<title>μ_h&#45;&gt;h</title>
<path fill="none" stroke="black" d="M84.86,-397.81C91.96,-393.51 99.48,-389.32 106.79,-385.86 142.37,-369.04 156.03,-376.31 190.79,-357.86 196.81,-354.66 202.87,-350.85 208.67,-346.81"/>
<polygon fill="black" stroke="black" points="210.92,-349.5 216.96,-340.8 206.81,-343.84 210.92,-349.5"/>
</g>
<!-- μ_d -->
<g id="node3" class="node">
<title>μ_d</title>
<ellipse fill="none" stroke="black" cx="320.79" cy="-423.34" rx="48.58" ry="37.45"/>
<text text-anchor="middle" x="320.79" y="-434.64" font-family="Times-Roman" font-size="14.00">μ_d</text>
<text text-anchor="middle" x="320.79" y="-419.64" font-family="Times-Roman" font-size="14.00">~</text>
<text text-anchor="middle" x="320.79" y="-404.64" font-family="Times-Roman" font-size="14.00">Normal</text>
</g>
<!-- d -->
<g id="node11" class="node">
<title>d</title>
<ellipse fill="none" stroke="black" cx="393.79" cy="-312.38" rx="48.58" ry="37.45"/>
<text text-anchor="middle" x="393.79" y="-323.68" font-family="Times-Roman" font-size="14.00">d</text>
<text text-anchor="middle" x="393.79" y="-308.68" font-family="Times-Roman" font-size="14.00">~</text>
<text text-anchor="middle" x="393.79" y="-293.68" font-family="Times-Roman" font-size="14.00">Normal</text>
</g>
<!-- μ_d&#45;&gt;d -->
<g id="edge4" class="edge">
<title>μ_d&#45;&gt;d</title>
<path fill="none" stroke="black" d="M342.69,-389.65C350.06,-378.66 358.37,-366.25 366.11,-354.69"/>
<polygon fill="black" stroke="black" points="369.24,-356.31 371.9,-346.05 363.43,-352.41 369.24,-356.31"/>
</g>
<!-- σ_η -->
<g id="node4" class="node">
<title>σ_η</title>
<ellipse fill="none" stroke="black" cx="613.79" cy="-423.34" rx="69.09" ry="37.45"/>
<text text-anchor="middle" x="613.79" y="-434.64" font-family="Times-Roman" font-size="14.00">σ_η</text>
<text text-anchor="middle" x="613.79" y="-419.64" font-family="Times-Roman" font-size="14.00">~</text>
<text text-anchor="middle" x="613.79" y="-404.64" font-family="Times-Roman" font-size="14.00">HalfNormal</text>
</g>
<!-- η -->
<g id="node12" class="node">
<title>η</title>
<ellipse fill="none" stroke="black" cx="613.79" cy="-312.38" rx="48.58" ry="37.45"/>
<text text-anchor="middle" x="613.79" y="-323.68" font-family="Times-Roman" font-size="14.00">η</text>
<text text-anchor="middle" x="613.79" y="-308.68" font-family="Times-Roman" font-size="14.00">~</text>
<text text-anchor="middle" x="613.79" y="-293.68" font-family="Times-Roman" font-size="14.00">Normal</text>
</g>
<!-- σ_η&#45;&gt;η -->
<g id="edge5" class="edge">
<title>σ_η&#45;&gt;η</title>
<path fill="none" stroke="black" d="M613.79,-385.75C613.79,-377.58 613.79,-368.8 613.79,-360.27"/>
<polygon fill="black" stroke="black" points="617.29,-360.06 613.79,-350.06 610.29,-360.06 617.29,-360.06"/>
</g>
<!-- μ_η -->
<g id="node5" class="node">
<title>μ_η</title>
<ellipse fill="none" stroke="black" cx="749.79" cy="-423.34" rx="48.58" ry="37.45"/>
<text text-anchor="middle" x="749.79" y="-434.64" font-family="Times-Roman" font-size="14.00">μ_η</text>
<text text-anchor="middle" x="749.79" y="-419.64" font-family="Times-Roman" font-size="14.00">~</text>
<text text-anchor="middle" x="749.79" y="-404.64" font-family="Times-Roman" font-size="14.00">Normal</text>
</g>
<!-- μ_η&#45;&gt;η -->
<g id="edge6" class="edge">
<title>μ_η&#45;&gt;η</title>
<path fill="none" stroke="black" d="M716.52,-395.68C698,-380.84 674.78,-362.24 655.1,-346.48"/>
<polygon fill="black" stroke="black" points="657.18,-343.66 647.19,-340.14 652.8,-349.12 657.18,-343.66"/>
</g>
<!-- μ_β -->
<g id="node6" class="node">
<title>μ_β</title>
<ellipse fill="none" stroke="black" cx="865.79" cy="-423.34" rx="48.58" ry="37.45"/>
<text text-anchor="middle" x="865.79" y="-434.64" font-family="Times-Roman" font-size="14.00">μ_β</text>
<text text-anchor="middle" x="865.79" y="-419.64" font-family="Times-Roman" font-size="14.00">~</text>
<text text-anchor="middle" x="865.79" y="-404.64" font-family="Times-Roman" font-size="14.00">Normal</text>
</g>
<!-- β -->
<g id="node13" class="node">
<title>β</title>
<ellipse fill="none" stroke="black" cx="865.79" cy="-312.38" rx="48.58" ry="37.45"/>
<text text-anchor="middle" x="865.79" y="-323.68" font-family="Times-Roman" font-size="14.00">β</text>
<text text-anchor="middle" x="865.79" y="-308.68" font-family="Times-Roman" font-size="14.00">~</text>
<text text-anchor="middle" x="865.79" y="-293.68" font-family="Times-Roman" font-size="14.00">Normal</text>
</g>
<!-- μ_β&#45;&gt;β -->
<g id="edge7" class="edge">
<title>μ_β&#45;&gt;β</title>
<path fill="none" stroke="black" d="M865.79,-385.75C865.79,-377.58 865.79,-368.8 865.79,-360.27"/>
<polygon fill="black" stroke="black" points="869.29,-360.06 865.79,-350.06 862.29,-360.06 869.29,-360.06"/>
</g>
<!-- σ_h -->
<g id="node7" class="node">
<title>σ_h</title>
<ellipse fill="none" stroke="black" cx="184.79" cy="-423.34" rx="69.09" ry="37.45"/>
<text text-anchor="middle" x="184.79" y="-434.64" font-family="Times-Roman" font-size="14.00">σ_h</text>
<text text-anchor="middle" x="184.79" y="-419.64" font-family="Times-Roman" font-size="14.00">~</text>
<text text-anchor="middle" x="184.79" y="-404.64" font-family="Times-Roman" font-size="14.00">HalfNormal</text>
</g>
<!-- σ_h&#45;&gt;h -->
<g id="edge1" class="edge">
<title>σ_h&#45;&gt;h</title>
<path fill="none" stroke="black" d="M205.39,-387.26C211.33,-377.15 217.87,-366.02 224.03,-355.53"/>
<polygon fill="black" stroke="black" points="227.05,-357.3 229.1,-346.91 221.02,-353.76 227.05,-357.3"/>
</g>
<!-- σ_d -->
<g id="node8" class="node">
<title>σ_d</title>
<ellipse fill="none" stroke="black" cx="456.79" cy="-423.34" rx="69.09" ry="37.45"/>
<text text-anchor="middle" x="456.79" y="-434.64" font-family="Times-Roman" font-size="14.00">σ_d</text>
<text text-anchor="middle" x="456.79" y="-419.64" font-family="Times-Roman" font-size="14.00">~</text>
<text text-anchor="middle" x="456.79" y="-404.64" font-family="Times-Roman" font-size="14.00">HalfNormal</text>
</g>
<!-- σ_d&#45;&gt;d -->
<g id="edge3" class="edge">
<title>σ_d&#45;&gt;d</title>
<path fill="none" stroke="black" d="M436.51,-387.26C430.72,-377.26 424.36,-366.24 418.34,-355.84"/>
<polygon fill="black" stroke="black" points="421.21,-353.81 413.17,-346.91 415.15,-357.32 421.21,-353.81"/>
</g>
<!-- σ_β -->
<g id="node9" class="node">
<title>σ_β</title>
<ellipse fill="none" stroke="black" cx="1001.79" cy="-423.34" rx="69.09" ry="37.45"/>
<text text-anchor="middle" x="1001.79" y="-434.64" font-family="Times-Roman" font-size="14.00">σ_β</text>
<text text-anchor="middle" x="1001.79" y="-419.64" font-family="Times-Roman" font-size="14.00">~</text>
<text text-anchor="middle" x="1001.79" y="-404.64" font-family="Times-Roman" font-size="14.00">HalfNormal</text>
</g>
<!-- σ_β&#45;&gt;β -->
<g id="edge8" class="edge">
<title>σ_β&#45;&gt;β</title>
<path fill="none" stroke="black" d="M963.54,-391.7C945.97,-377.62 925.09,-360.89 907.14,-346.51"/>
<polygon fill="black" stroke="black" points="909.12,-343.61 899.13,-340.09 904.75,-349.08 909.12,-343.61"/>
</g>
<!-- μ -->
<g id="node14" class="node">
<title>μ</title>
<polygon fill="none" stroke="black" points="449.79,-216.93 337.79,-216.93 337.79,-163.93 449.79,-163.93 449.79,-216.93"/>
<text text-anchor="middle" x="393.79" y="-201.73" font-family="Times-Roman" font-size="14.00">μ</text>
<text text-anchor="middle" x="393.79" y="-186.73" font-family="Times-Roman" font-size="14.00">~</text>
<text text-anchor="middle" x="393.79" y="-171.73" font-family="Times-Roman" font-size="14.00">Deterministic</text>
</g>
<!-- h&#45;&gt;μ -->
<g id="edge10" class="edge">
<title>h&#45;&gt;μ</title>
<path fill="none" stroke="black" d="M281.69,-284.16C303.37,-266.23 331.86,-242.67 354.69,-223.78"/>
<polygon fill="black" stroke="black" points="357.03,-226.38 362.51,-217.31 352.57,-220.99 357.03,-226.38"/>
</g>
<!-- d&#45;&gt;μ -->
<g id="edge9" class="edge">
<title>d&#45;&gt;μ</title>
<path fill="none" stroke="black" d="M393.79,-274.74C393.79,-259.77 393.79,-242.51 393.79,-227.59"/>
<polygon fill="black" stroke="black" points="397.29,-227.2 393.79,-217.2 390.29,-227.2 397.29,-227.2"/>
</g>
<!-- η&#45;&gt;μ -->
<g id="edge12" class="edge">
<title>η&#45;&gt;μ</title>
<path fill="none" stroke="black" d="M574.46,-289.94C539.79,-271.03 488.88,-243.28 449.93,-222.04"/>
<polygon fill="black" stroke="black" points="451.26,-218.78 440.81,-217.07 447.91,-224.93 451.26,-218.78"/>
</g>
<!-- β&#45;&gt;μ -->
<g id="edge11" class="edge">
<title>β&#45;&gt;μ</title>
<path fill="none" stroke="black" d="M822.78,-294.03C784.45,-279.09 726.59,-257.8 674.79,-243.91 602.22,-224.44 517.19,-209.64 459.83,-200.8"/>
<polygon fill="black" stroke="black" points="460.22,-197.32 449.81,-199.27 459.17,-204.24 460.22,-197.32"/>
</g>
<!-- lfc -->
<g id="node15" class="node">
<title>lfc</title>
<ellipse fill="lightgrey" stroke="black" cx="389.79" cy="-76.48" rx="48.58" ry="37.45"/>
<text text-anchor="middle" x="389.79" y="-87.78" font-family="Times-Roman" font-size="14.00">lfc</text>
<text text-anchor="middle" x="389.79" y="-72.78" font-family="Times-Roman" font-size="14.00">~</text>
<text text-anchor="middle" x="389.79" y="-57.78" font-family="Times-Roman" font-size="14.00">Normal</text>
</g>
<!-- μ&#45;&gt;lfc -->
<g id="edge15" class="edge">
<title>μ&#45;&gt;lfc</title>
<path fill="none" stroke="black" d="M392.87,-163.75C392.45,-152.02 391.94,-137.75 391.46,-124.22"/>
<polygon fill="black" stroke="black" points="394.95,-123.94 391.1,-114.07 387.96,-124.19 394.95,-123.94"/>
</g>
<!-- σ&#45;&gt;lfc -->
<g id="edge14" class="edge">
<title>σ&#45;&gt;lfc</title>
<path fill="none" stroke="black" d="M227.46,-163.61C261.65,-145.47 307.18,-121.31 341.33,-103.19"/>
<polygon fill="black" stroke="black" points="343,-106.27 350.19,-98.49 339.71,-100.08 343,-106.27"/>
</g>
</g>
</svg>
