<?xml version="1.0" encoding="UTF-8" standalone="no"?>
<!DOCTYPE svg PUBLIC "-//W3C//DTD SVG 1.1//EN"
 "http://www.w3.org/Graphics/SVG/1.1/DTD/svg11.dtd">
<!-- Generated by graphviz version 2.47.0 (20210327.0129)
 -->
<!-- Pages: 1 -->
<svg width="1079pt" height="469pt"
 viewBox="0.00 0.00 1078.59 468.81" xmlns="http://www.w3.org/2000/svg" xmlns:xlink="http://www.w3.org/1999/xlink">
<g id="graph0" class="graph" transform="scale(1 1) rotate(0) translate(4 464.81)">
<polygon fill="white" stroke="transparent" points="-4,4 -4,-464.81 1074.59,-464.81 1074.59,4 -4,4"/>
<g id="clust1" class="cluster">
<title>cluster64</title>
<path fill="none" stroke="black" d="M412.3,-243.91C412.3,-243.91 502.3,-243.91 502.3,-243.91 508.3,-243.91 514.3,-249.91 514.3,-255.91 514.3,-255.91 514.3,-345.86 514.3,-345.86 514.3,-351.86 508.3,-357.86 502.3,-357.86 502.3,-357.86 412.3,-357.86 412.3,-357.86 406.3,-357.86 400.3,-351.86 400.3,-345.86 400.3,-345.86 400.3,-255.91 400.3,-255.91 400.3,-249.91 406.3,-243.91 412.3,-243.91"/>
<text text-anchor="middle" x="496.8" y="-251.71" font-family="Times-Roman" font-size="14.00">64</text>
</g>
<g id="clust2" class="cluster">
<title>cluster64 x 10</title>
<path fill="none" stroke="black" d="M611.3,-243.91C611.3,-243.91 701.3,-243.91 701.3,-243.91 707.3,-243.91 713.3,-249.91 713.3,-255.91 713.3,-255.91 713.3,-345.86 713.3,-345.86 713.3,-351.86 707.3,-357.86 701.3,-357.86 701.3,-357.86 611.3,-357.86 611.3,-357.86 605.3,-357.86 599.3,-351.86 599.3,-345.86 599.3,-345.86 599.3,-255.91 599.3,-255.91 599.3,-249.91 605.3,-243.91 611.3,-243.91"/>
<text text-anchor="middle" x="678.3" y="-251.71" font-family="Times-Roman" font-size="14.00">64 x 10</text>
</g>
<g id="clust3" class="cluster">
<title>cluster4</title>
<path fill="none" stroke="black" d="M160.3,-243.91C160.3,-243.91 250.3,-243.91 250.3,-243.91 256.3,-243.91 262.3,-249.91 262.3,-255.91 262.3,-255.91 262.3,-345.86 262.3,-345.86 262.3,-351.86 256.3,-357.86 250.3,-357.86 250.3,-357.86 160.3,-357.86 160.3,-357.86 154.3,-357.86 148.3,-351.86 148.3,-345.86 148.3,-345.86 148.3,-255.91 148.3,-255.91 148.3,-249.91 154.3,-243.91 160.3,-243.91"/>
<text text-anchor="middle" x="249.3" y="-251.71" font-family="Times-Roman" font-size="14.00">4</text>
</g>
<g id="clust4" class="cluster">
<title>cluster10</title>
<path fill="none" stroke="black" d="M756.3,-243.91C756.3,-243.91 846.3,-243.91 846.3,-243.91 852.3,-243.91 858.3,-249.91 858.3,-255.91 858.3,-255.91 858.3,-345.86 858.3,-345.86 858.3,-351.86 852.3,-357.86 846.3,-357.86 846.3,-357.86 756.3,-357.86 756.3,-357.86 750.3,-357.86 744.3,-351.86 744.3,-345.86 744.3,-345.86 744.3,-255.91 744.3,-255.91 744.3,-249.91 750.3,-243.91 756.3,-243.91"/>
<text text-anchor="middle" x="840.8" y="-251.71" font-family="Times-Roman" font-size="14.00">10</text>
</g>
<g id="clust5" class="cluster">
<title>cluster1,443</title>
<path fill="none" stroke="black" d="M604.3,-8C604.3,-8 708.3,-8 708.3,-8 714.3,-8 720.3,-14 720.3,-20 720.3,-20 720.3,-212.93 720.3,-212.93 720.3,-218.93 714.3,-224.93 708.3,-224.93 708.3,-224.93 604.3,-224.93 604.3,-224.93 598.3,-224.93 592.3,-218.93 592.3,-212.93 592.3,-212.93 592.3,-20 592.3,-20 592.3,-14 598.3,-8 604.3,-8"/>
<text text-anchor="middle" x="691.8" y="-15.8" font-family="Times-Roman" font-size="14.00">1,443</text>
</g>
<g id="clust6" class="cluster">
<title>cluster192</title>
<path fill="none" stroke="black" d="M806.3,-121.95C806.3,-121.95 936.3,-121.95 936.3,-121.95 942.3,-121.95 948.3,-127.95 948.3,-133.95 948.3,-133.95 948.3,-223.91 948.3,-223.91 948.3,-229.91 942.3,-235.91 936.3,-235.91 936.3,-235.91 806.3,-235.91 806.3,-235.91 800.3,-235.91 794.3,-229.91 794.3,-223.91 794.3,-223.91 794.3,-133.95 794.3,-133.95 794.3,-127.95 800.3,-121.95 806.3,-121.95"/>
<text text-anchor="middle" x="926.3" y="-129.75" font-family="Times-Roman" font-size="14.00">192</text>
</g>
<!-- σ_η -->
<g id="node1" class="node">
<title>σ_η</title>
<ellipse fill="none" stroke="black" cx="69.3" cy="-423.34" rx="69.09" ry="37.45"/>
<text text-anchor="middle" x="69.3" y="-434.64" font-family="Times-Roman" font-size="14.00">σ_η</text>
<text text-anchor="middle" x="69.3" y="-419.64" font-family="Times-Roman" font-size="14.00">~</text>
<text text-anchor="middle" x="69.3" y="-404.64" font-family="Times-Roman" font-size="14.00">HalfNormal</text>
</g>
<!-- η -->
<g id="node12" class="node">
<title>η</title>
<ellipse fill="none" stroke="black" cx="205.3" cy="-312.38" rx="48.58" ry="37.45"/>
<text text-anchor="middle" x="205.3" y="-323.68" font-family="Times-Roman" font-size="14.00">η</text>
<text text-anchor="middle" x="205.3" y="-308.68" font-family="Times-Roman" font-size="14.00">~</text>
<text text-anchor="middle" x="205.3" y="-293.68" font-family="Times-Roman" font-size="14.00">Normal</text>
</g>
<!-- σ_η&#45;&gt;η -->
<g id="edge5" class="edge">
<title>σ_η&#45;&gt;η</title>
<path fill="none" stroke="black" d="M107.54,-391.7C125.12,-377.62 146,-360.89 163.94,-346.51"/>
<polygon fill="black" stroke="black" points="166.34,-349.08 171.96,-340.09 161.97,-343.61 166.34,-349.08"/>
</g>
<!-- σ_σ -->
<g id="node2" class="node">
<title>σ_σ</title>
<ellipse fill="none" stroke="black" cx="937.3" cy="-312.38" rx="69.09" ry="37.45"/>
<text text-anchor="middle" x="937.3" y="-323.68" font-family="Times-Roman" font-size="14.00">σ_σ</text>
<text text-anchor="middle" x="937.3" y="-308.68" font-family="Times-Roman" font-size="14.00">~</text>
<text text-anchor="middle" x="937.3" y="-293.68" font-family="Times-Roman" font-size="14.00">HalfNormal</text>
</g>
<!-- σ -->
<g id="node16" class="node">
<title>σ</title>
<ellipse fill="none" stroke="black" cx="871.3" cy="-190.43" rx="69.09" ry="37.45"/>
<text text-anchor="middle" x="871.3" y="-201.73" font-family="Times-Roman" font-size="14.00">σ</text>
<text text-anchor="middle" x="871.3" y="-186.73" font-family="Times-Roman" font-size="14.00">~</text>
<text text-anchor="middle" x="871.3" y="-171.73" font-family="Times-Roman" font-size="14.00">HalfNormal</text>
</g>
<!-- σ_σ&#45;&gt;σ -->
<g id="edge13" class="edge">
<title>σ_σ&#45;&gt;σ</title>
<path fill="none" stroke="black" d="M918.03,-276.37C911.04,-263.67 903.06,-249.15 895.69,-235.76"/>
<polygon fill="black" stroke="black" points="898.59,-233.77 890.7,-226.7 892.46,-237.15 898.59,-233.77"/>
</g>
<!-- μ_h -->
<g id="node3" class="node">
<title>μ_h</title>
<ellipse fill="none" stroke="black" cx="321.3" cy="-423.34" rx="48.58" ry="37.45"/>
<text text-anchor="middle" x="321.3" y="-434.64" font-family="Times-Roman" font-size="14.00">μ_h</text>
<text text-anchor="middle" x="321.3" y="-419.64" font-family="Times-Roman" font-size="14.00">~</text>
<text text-anchor="middle" x="321.3" y="-404.64" font-family="Times-Roman" font-size="14.00">Normal</text>
</g>
<!-- h -->
<g id="node10" class="node">
<title>h</title>
<ellipse fill="none" stroke="black" cx="457.3" cy="-312.38" rx="48.58" ry="37.45"/>
<text text-anchor="middle" x="457.3" y="-323.68" font-family="Times-Roman" font-size="14.00">h</text>
<text text-anchor="middle" x="457.3" y="-308.68" font-family="Times-Roman" font-size="14.00">~</text>
<text text-anchor="middle" x="457.3" y="-293.68" font-family="Times-Roman" font-size="14.00">Normal</text>
</g>
<!-- μ_h&#45;&gt;h -->
<g id="edge2" class="edge">
<title>μ_h&#45;&gt;h</title>
<path fill="none" stroke="black" d="M354.57,-395.68C373.09,-380.84 396.31,-362.24 415.99,-346.48"/>
<polygon fill="black" stroke="black" points="418.28,-349.12 423.9,-340.14 413.91,-343.66 418.28,-349.12"/>
</g>
<!-- σ_h -->
<g id="node4" class="node">
<title>σ_h</title>
<ellipse fill="none" stroke="black" cx="457.3" cy="-423.34" rx="69.09" ry="37.45"/>
<text text-anchor="middle" x="457.3" y="-434.64" font-family="Times-Roman" font-size="14.00">σ_h</text>
<text text-anchor="middle" x="457.3" y="-419.64" font-family="Times-Roman" font-size="14.00">~</text>
<text text-anchor="middle" x="457.3" y="-404.64" font-family="Times-Roman" font-size="14.00">HalfNormal</text>
</g>
<!-- σ_h&#45;&gt;h -->
<g id="edge1" class="edge">
<title>σ_h&#45;&gt;h</title>
<path fill="none" stroke="black" d="M457.3,-385.75C457.3,-377.58 457.3,-368.8 457.3,-360.27"/>
<polygon fill="black" stroke="black" points="460.8,-360.06 457.3,-350.06 453.8,-360.06 460.8,-360.06"/>
</g>
<!-- μ_β -->
<g id="node5" class="node">
<title>μ_β</title>
<ellipse fill="none" stroke="black" cx="865.3" cy="-423.34" rx="48.58" ry="37.45"/>
<text text-anchor="middle" x="865.3" y="-434.64" font-family="Times-Roman" font-size="14.00">μ_β</text>
<text text-anchor="middle" x="865.3" y="-419.64" font-family="Times-Roman" font-size="14.00">~</text>
<text text-anchor="middle" x="865.3" y="-404.64" font-family="Times-Roman" font-size="14.00">Normal</text>
</g>
<!-- β -->
<g id="node13" class="node">
<title>β</title>
<ellipse fill="none" stroke="black" cx="801.3" cy="-312.38" rx="48.58" ry="37.45"/>
<text text-anchor="middle" x="801.3" y="-323.68" font-family="Times-Roman" font-size="14.00">β</text>
<text text-anchor="middle" x="801.3" y="-308.68" font-family="Times-Roman" font-size="14.00">~</text>
<text text-anchor="middle" x="801.3" y="-293.68" font-family="Times-Roman" font-size="14.00">Normal</text>
</g>
<!-- μ_β&#45;&gt;β -->
<g id="edge8" class="edge">
<title>μ_β&#45;&gt;β</title>
<path fill="none" stroke="black" d="M845.57,-388.76C839.49,-378.4 832.71,-366.86 826.32,-355.98"/>
<polygon fill="black" stroke="black" points="829.15,-353.89 821.07,-347.04 823.11,-357.43 829.15,-353.89"/>
</g>
<!-- μ_η -->
<g id="node6" class="node">
<title>μ_η</title>
<ellipse fill="none" stroke="black" cx="205.3" cy="-423.34" rx="48.58" ry="37.45"/>
<text text-anchor="middle" x="205.3" y="-434.64" font-family="Times-Roman" font-size="14.00">μ_η</text>
<text text-anchor="middle" x="205.3" y="-419.64" font-family="Times-Roman" font-size="14.00">~</text>
<text text-anchor="middle" x="205.3" y="-404.64" font-family="Times-Roman" font-size="14.00">Normal</text>
</g>
<!-- μ_η&#45;&gt;η -->
<g id="edge6" class="edge">
<title>μ_η&#45;&gt;η</title>
<path fill="none" stroke="black" d="M205.3,-385.75C205.3,-377.58 205.3,-368.8 205.3,-360.27"/>
<polygon fill="black" stroke="black" points="208.8,-360.06 205.3,-350.06 201.8,-360.06 208.8,-360.06"/>
</g>
<!-- μ_d -->
<g id="node7" class="node">
<title>μ_d</title>
<ellipse fill="none" stroke="black" cx="593.3" cy="-423.34" rx="48.58" ry="37.45"/>
<text text-anchor="middle" x="593.3" y="-434.64" font-family="Times-Roman" font-size="14.00">μ_d</text>
<text text-anchor="middle" x="593.3" y="-419.64" font-family="Times-Roman" font-size="14.00">~</text>
<text text-anchor="middle" x="593.3" y="-404.64" font-family="Times-Roman" font-size="14.00">Normal</text>
</g>
<!-- d -->
<g id="node11" class="node">
<title>d</title>
<ellipse fill="none" stroke="black" cx="656.3" cy="-312.38" rx="48.58" ry="37.45"/>
<text text-anchor="middle" x="656.3" y="-323.68" font-family="Times-Roman" font-size="14.00">d</text>
<text text-anchor="middle" x="656.3" y="-308.68" font-family="Times-Roman" font-size="14.00">~</text>
<text text-anchor="middle" x="656.3" y="-293.68" font-family="Times-Roman" font-size="14.00">Normal</text>
</g>
<!-- μ_d&#45;&gt;d -->
<g id="edge3" class="edge">
<title>μ_d&#45;&gt;d</title>
<path fill="none" stroke="black" d="M612.71,-388.76C618.7,-378.4 625.38,-366.86 631.67,-355.98"/>
<polygon fill="black" stroke="black" points="634.86,-357.45 636.84,-347.04 628.8,-353.94 634.86,-357.45"/>
</g>
<!-- σ_β -->
<g id="node8" class="node">
<title>σ_β</title>
<ellipse fill="none" stroke="black" cx="1001.3" cy="-423.34" rx="69.09" ry="37.45"/>
<text text-anchor="middle" x="1001.3" y="-434.64" font-family="Times-Roman" font-size="14.00">σ_β</text>
<text text-anchor="middle" x="1001.3" y="-419.64" font-family="Times-Roman" font-size="14.00">~</text>
<text text-anchor="middle" x="1001.3" y="-404.64" font-family="Times-Roman" font-size="14.00">HalfNormal</text>
</g>
<!-- σ_β&#45;&gt;β -->
<g id="edge7" class="edge">
<title>σ_β&#45;&gt;β</title>
<path fill="none" stroke="black" d="M949.77,-398.02C940.96,-393.92 931.88,-389.74 923.3,-385.86 895.01,-373.06 886.03,-373.64 859.3,-357.86 853.5,-354.44 847.61,-350.52 841.92,-346.46"/>
<polygon fill="black" stroke="black" points="843.88,-343.56 833.76,-340.46 839.74,-349.2 843.88,-343.56"/>
</g>
<!-- σ_d -->
<g id="node9" class="node">
<title>σ_d</title>
<ellipse fill="none" stroke="black" cx="729.3" cy="-423.34" rx="69.09" ry="37.45"/>
<text text-anchor="middle" x="729.3" y="-434.64" font-family="Times-Roman" font-size="14.00">σ_d</text>
<text text-anchor="middle" x="729.3" y="-419.64" font-family="Times-Roman" font-size="14.00">~</text>
<text text-anchor="middle" x="729.3" y="-404.64" font-family="Times-Roman" font-size="14.00">HalfNormal</text>
</g>
<!-- σ_d&#45;&gt;d -->
<g id="edge4" class="edge">
<title>σ_d&#45;&gt;d</title>
<path fill="none" stroke="black" d="M706.2,-387.86C699.15,-377.34 691.32,-365.65 683.99,-354.72"/>
<polygon fill="black" stroke="black" points="686.72,-352.51 678.25,-346.15 680.91,-356.4 686.72,-352.51"/>
</g>
<!-- μ -->
<g id="node15" class="node">
<title>μ</title>
<polygon fill="none" stroke="black" points="712.3,-216.93 600.3,-216.93 600.3,-163.93 712.3,-163.93 712.3,-216.93"/>
<text text-anchor="middle" x="656.3" y="-201.73" font-family="Times-Roman" font-size="14.00">μ</text>
<text text-anchor="middle" x="656.3" y="-186.73" font-family="Times-Roman" font-size="14.00">~</text>
<text text-anchor="middle" x="656.3" y="-171.73" font-family="Times-Roman" font-size="14.00">Deterministic</text>
</g>
<!-- h&#45;&gt;μ -->
<g id="edge9" class="edge">
<title>h&#45;&gt;μ</title>
<path fill="none" stroke="black" d="M495.2,-288.54C526.25,-269.82 570.51,-243.14 604.78,-222.48"/>
<polygon fill="black" stroke="black" points="606.95,-225.26 613.71,-217.1 603.34,-219.27 606.95,-225.26"/>
</g>
<!-- d&#45;&gt;μ -->
<g id="edge11" class="edge">
<title>d&#45;&gt;μ</title>
<path fill="none" stroke="black" d="M656.3,-274.74C656.3,-259.77 656.3,-242.51 656.3,-227.59"/>
<polygon fill="black" stroke="black" points="659.8,-227.2 656.3,-217.2 652.8,-227.2 659.8,-227.2"/>
</g>
<!-- η&#45;&gt;μ -->
<g id="edge10" class="edge">
<title>η&#45;&gt;μ</title>
<path fill="none" stroke="black" d="M248.36,-294.21C286.72,-279.39 344.6,-258.18 396.3,-243.91 461.45,-225.92 537.37,-211.3 590.29,-202.11"/>
<polygon fill="black" stroke="black" points="590.96,-205.55 600.23,-200.4 589.78,-198.65 590.96,-205.55"/>
</g>
<!-- β&#45;&gt;μ -->
<g id="edge12" class="edge">
<title>β&#45;&gt;μ</title>
<path fill="none" stroke="black" d="M768.39,-284.16C746.72,-266.23 718.23,-242.67 695.4,-223.78"/>
<polygon fill="black" stroke="black" points="697.51,-220.99 687.58,-217.31 693.05,-226.38 697.51,-220.99"/>
</g>
<!-- lfc -->
<g id="node14" class="node">
<title>lfc</title>
<ellipse fill="lightgrey" stroke="black" cx="659.3" cy="-76.48" rx="48.58" ry="37.45"/>
<text text-anchor="middle" x="659.3" y="-87.78" font-family="Times-Roman" font-size="14.00">lfc</text>
<text text-anchor="middle" x="659.3" y="-72.78" font-family="Times-Roman" font-size="14.00">~</text>
<text text-anchor="middle" x="659.3" y="-57.78" font-family="Times-Roman" font-size="14.00">Normal</text>
</g>
<!-- μ&#45;&gt;lfc -->
<g id="edge15" class="edge">
<title>μ&#45;&gt;lfc</title>
<path fill="none" stroke="black" d="M656.98,-163.75C657.3,-152.02 657.68,-137.75 658.04,-124.22"/>
<polygon fill="black" stroke="black" points="661.55,-124.16 658.32,-114.07 654.55,-123.98 661.55,-124.16"/>
</g>
<!-- σ&#45;&gt;lfc -->
<g id="edge14" class="edge">
<title>σ&#45;&gt;lfc</title>
<path fill="none" stroke="black" d="M822.39,-163.61C788.04,-145.47 742.29,-121.31 707.99,-103.19"/>
<polygon fill="black" stroke="black" points="709.56,-100.06 699.09,-98.49 706.29,-106.25 709.56,-100.06"/>
</g>
</g>
</svg>
