<?xml version="1.0" encoding="UTF-8" standalone="no"?>
<!DOCTYPE svg PUBLIC "-//W3C//DTD SVG 1.1//EN"
 "http://www.w3.org/Graphics/SVG/1.1/DTD/svg11.dtd">
<!-- Generated by graphviz version 2.46.1 (0)
 -->
<!-- Pages: 1 -->
<svg width="466pt" height="458pt"
 viewBox="0.00 0.00 466.44 457.81" xmlns="http://www.w3.org/2000/svg" xmlns:xlink="http://www.w3.org/1999/xlink">
<g id="graph0" class="graph" transform="scale(1 1) rotate(0) translate(4 453.81)">
<polygon fill="white" stroke="transparent" points="-4,4 -4,-453.81 462.44,-453.81 462.44,4 -4,4"/>
<g id="clust1" class="cluster">
<title>cluster5</title>
<path fill="none" stroke="black" d="M140.72,-232.91C140.72,-232.91 317.72,-232.91 317.72,-232.91 323.72,-232.91 329.72,-238.91 329.72,-244.91 329.72,-244.91 329.72,-334.86 329.72,-334.86 329.72,-340.86 323.72,-346.86 317.72,-346.86 317.72,-346.86 140.72,-346.86 140.72,-346.86 134.72,-346.86 128.72,-340.86 128.72,-334.86 128.72,-334.86 128.72,-244.91 128.72,-244.91 128.72,-238.91 134.72,-232.91 140.72,-232.91"/>
<text text-anchor="middle" x="317.72" y="-240.71" font-family="Times,serif" font-size="14.00">5</text>
</g>
<g id="clust2" class="cluster">
<title>cluster50</title>
<path fill="none" stroke="black" d="M187.72,-8C187.72,-8 273.72,-8 273.72,-8 279.72,-8 285.72,-14 285.72,-20 285.72,-20 285.72,-209.93 285.72,-209.93 285.72,-215.93 279.72,-221.93 273.72,-221.93 273.72,-221.93 187.72,-221.93 187.72,-221.93 181.72,-221.93 175.72,-215.93 175.72,-209.93 175.72,-209.93 175.72,-20 175.72,-20 175.72,-14 181.72,-8 187.72,-8"/>
<text text-anchor="middle" x="270.22" y="-15.8" font-family="Times,serif" font-size="14.00">50</text>
</g>
<!-- σ -->
<g id="node1" class="node">
<title>σ</title>
<ellipse fill="none" stroke="black" cx="106.72" cy="-187.43" rx="59.29" ry="37.45"/>
<text text-anchor="middle" x="106.72" y="-198.73" font-family="Times,serif" font-size="14.00">σ</text>
<text text-anchor="middle" x="106.72" y="-183.73" font-family="Times,serif" font-size="14.00">~</text>
<text text-anchor="middle" x="106.72" y="-168.73" font-family="Times,serif" font-size="14.00">HalfNormal</text>
</g>
<!-- y -->
<g id="node8" class="node">
<title>y</title>
<ellipse fill="lightgrey" stroke="black" cx="227.72" cy="-76.48" rx="41.94" ry="37.45"/>
<text text-anchor="middle" x="227.72" y="-87.78" font-family="Times,serif" font-size="14.00">y</text>
<text text-anchor="middle" x="227.72" y="-72.78" font-family="Times,serif" font-size="14.00">~</text>
<text text-anchor="middle" x="227.72" y="-57.78" font-family="Times,serif" font-size="14.00">Normal</text>
</g>
<!-- σ&#45;&gt;y -->
<g id="edge7" class="edge">
<title>σ&#45;&gt;y</title>
<path fill="none" stroke="black" d="M140.1,-156.37C155.85,-142.19 174.69,-125.22 190.86,-110.66"/>
<polygon fill="black" stroke="black" points="193.47,-113.03 198.56,-103.73 188.79,-107.82 193.47,-113.03"/>
</g>
<!-- μ_β -->
<g id="node2" class="node">
<title>μ_β</title>
<ellipse fill="none" stroke="black" cx="41.72" cy="-412.34" rx="41.94" ry="37.45"/>
<text text-anchor="middle" x="41.72" y="-423.64" font-family="Times,serif" font-size="14.00">μ_β</text>
<text text-anchor="middle" x="41.72" y="-408.64" font-family="Times,serif" font-size="14.00">~</text>
<text text-anchor="middle" x="41.72" y="-393.64" font-family="Times,serif" font-size="14.00">Normal</text>
</g>
<!-- β -->
<g id="node7" class="node">
<title>β</title>
<ellipse fill="none" stroke="black" cx="178.72" cy="-301.38" rx="41.94" ry="37.45"/>
<text text-anchor="middle" x="178.72" y="-312.68" font-family="Times,serif" font-size="14.00">β</text>
<text text-anchor="middle" x="178.72" y="-297.68" font-family="Times,serif" font-size="14.00">~</text>
<text text-anchor="middle" x="178.72" y="-282.68" font-family="Times,serif" font-size="14.00">Normal</text>
</g>
<!-- μ_β&#45;&gt;β -->
<g id="edge3" class="edge">
<title>μ_β&#45;&gt;β</title>
<path fill="none" stroke="black" d="M72.46,-386.89C92.33,-371.09 118.36,-350.39 139.68,-333.43"/>
<polygon fill="black" stroke="black" points="141.95,-336.09 147.6,-327.13 137.6,-330.61 141.95,-336.09"/>
</g>
<!-- σ_α -->
<g id="node3" class="node">
<title>σ_α</title>
<ellipse fill="none" stroke="black" cx="297.72" cy="-412.34" rx="59.29" ry="37.45"/>
<text text-anchor="middle" x="297.72" y="-423.64" font-family="Times,serif" font-size="14.00">σ_α</text>
<text text-anchor="middle" x="297.72" y="-408.64" font-family="Times,serif" font-size="14.00">~</text>
<text text-anchor="middle" x="297.72" y="-393.64" font-family="Times,serif" font-size="14.00">HalfNormal</text>
</g>
<!-- α -->
<g id="node6" class="node">
<title>α</title>
<ellipse fill="none" stroke="black" cx="279.72" cy="-301.38" rx="41.94" ry="37.45"/>
<text text-anchor="middle" x="279.72" y="-312.68" font-family="Times,serif" font-size="14.00">α</text>
<text text-anchor="middle" x="279.72" y="-297.68" font-family="Times,serif" font-size="14.00">~</text>
<text text-anchor="middle" x="279.72" y="-282.68" font-family="Times,serif" font-size="14.00">Normal</text>
</g>
<!-- σ_α&#45;&gt;α -->
<g id="edge1" class="edge">
<title>σ_α&#45;&gt;α</title>
<path fill="none" stroke="black" d="M291.68,-374.75C290.3,-366.4 288.81,-357.42 287.37,-348.71"/>
<polygon fill="black" stroke="black" points="290.8,-347.98 285.72,-338.68 283.89,-349.12 290.8,-347.98"/>
</g>
<!-- σ_β -->
<g id="node4" class="node">
<title>σ_β</title>
<ellipse fill="none" stroke="black" cx="160.72" cy="-412.34" rx="59.29" ry="37.45"/>
<text text-anchor="middle" x="160.72" y="-423.64" font-family="Times,serif" font-size="14.00">σ_β</text>
<text text-anchor="middle" x="160.72" y="-408.64" font-family="Times,serif" font-size="14.00">~</text>
<text text-anchor="middle" x="160.72" y="-393.64" font-family="Times,serif" font-size="14.00">HalfNormal</text>
</g>
<!-- σ_β&#45;&gt;β -->
<g id="edge4" class="edge">
<title>σ_β&#45;&gt;β</title>
<path fill="none" stroke="black" d="M166.76,-374.75C168.14,-366.4 169.63,-357.42 171.07,-348.71"/>
<polygon fill="black" stroke="black" points="174.55,-349.12 172.72,-338.68 167.64,-347.98 174.55,-349.12"/>
</g>
<!-- μ_α -->
<g id="node5" class="node">
<title>μ_α</title>
<ellipse fill="none" stroke="black" cx="416.72" cy="-412.34" rx="41.94" ry="37.45"/>
<text text-anchor="middle" x="416.72" y="-423.64" font-family="Times,serif" font-size="14.00">μ_α</text>
<text text-anchor="middle" x="416.72" y="-408.64" font-family="Times,serif" font-size="14.00">~</text>
<text text-anchor="middle" x="416.72" y="-393.64" font-family="Times,serif" font-size="14.00">Normal</text>
</g>
<!-- μ_α&#45;&gt;α -->
<g id="edge2" class="edge">
<title>μ_α&#45;&gt;α</title>
<path fill="none" stroke="black" d="M385.97,-386.89C366.11,-371.09 340.08,-350.39 318.76,-333.43"/>
<polygon fill="black" stroke="black" points="320.84,-330.61 310.84,-327.13 316.48,-336.09 320.84,-330.61"/>
</g>
<!-- μ -->
<g id="node9" class="node">
<title>μ</title>
<polygon fill="none" stroke="black" points="277.22,-213.93 184.22,-213.93 184.22,-160.93 277.22,-160.93 277.22,-213.93"/>
<text text-anchor="middle" x="230.72" y="-198.73" font-family="Times,serif" font-size="14.00">μ</text>
<text text-anchor="middle" x="230.72" y="-183.73" font-family="Times,serif" font-size="14.00">~</text>
<text text-anchor="middle" x="230.72" y="-168.73" font-family="Times,serif" font-size="14.00">Deterministic</text>
</g>
<!-- α&#45;&gt;μ -->
<g id="edge5" class="edge">
<title>α&#45;&gt;μ</title>
<path fill="none" stroke="black" d="M264.75,-266.19C258.86,-252.73 252.1,-237.29 246.17,-223.73"/>
<polygon fill="black" stroke="black" points="249.23,-222 242.02,-214.25 242.82,-224.81 249.23,-222"/>
</g>
<!-- β&#45;&gt;μ -->
<g id="edge6" class="edge">
<title>β&#45;&gt;μ</title>
<path fill="none" stroke="black" d="M194.46,-266.49C200.83,-252.79 208.17,-236.99 214.57,-223.2"/>
<polygon fill="black" stroke="black" points="217.79,-224.57 218.83,-214.03 211.44,-221.62 217.79,-224.57"/>
</g>
<!-- μ&#45;&gt;y -->
<g id="edge8" class="edge">
<title>μ&#45;&gt;y</title>
<path fill="none" stroke="black" d="M230.02,-160.89C229.72,-149.98 229.36,-136.89 229.01,-124.35"/>
<polygon fill="black" stroke="black" points="232.5,-123.9 228.73,-114 225.5,-124.09 232.5,-123.9"/>
</g>
</g>
</svg>
