<?xml version="1.0" encoding="UTF-8" standalone="no"?>
<!DOCTYPE svg PUBLIC "-//W3C//DTD SVG 1.1//EN"
 "http://www.w3.org/Graphics/SVG/1.1/DTD/svg11.dtd">
<!-- Generated by graphviz version 2.47.0 (20210327.0129)
 -->
<!-- Pages: 1 -->
<svg width="820pt" height="591pt"
 viewBox="0.00 0.00 819.59 590.77" xmlns="http://www.w3.org/2000/svg" xmlns:xlink="http://www.w3.org/1999/xlink">
<g id="graph0" class="graph" transform="scale(1 1) rotate(0) translate(4 586.77)">
<polygon fill="white" stroke="transparent" points="-4,4 -4,-586.77 815.59,-586.77 815.59,4 -4,4"/>
<g id="clust1" class="cluster">
<title>cluster99</title>
<path fill="none" stroke="black" d="M160.3,-243.91C160.3,-243.91 250.3,-243.91 250.3,-243.91 256.3,-243.91 262.3,-249.91 262.3,-255.91 262.3,-255.91 262.3,-345.86 262.3,-345.86 262.3,-351.86 256.3,-357.86 250.3,-357.86 250.3,-357.86 160.3,-357.86 160.3,-357.86 154.3,-357.86 148.3,-351.86 148.3,-345.86 148.3,-345.86 148.3,-255.91 148.3,-255.91 148.3,-249.91 154.3,-243.91 160.3,-243.91"/>
<text text-anchor="middle" x="244.8" y="-251.71" font-family="Times-Roman" font-size="14.00">99</text>
</g>
<g id="clust2" class="cluster">
<title>cluster5</title>
<path fill="none" stroke="black" d="M432.3,-365.86C432.3,-365.86 522.3,-365.86 522.3,-365.86 528.3,-365.86 534.3,-371.86 534.3,-377.86 534.3,-377.86 534.3,-467.81 534.3,-467.81 534.3,-473.81 528.3,-479.81 522.3,-479.81 522.3,-479.81 432.3,-479.81 432.3,-479.81 426.3,-479.81 420.3,-473.81 420.3,-467.81 420.3,-467.81 420.3,-377.86 420.3,-377.86 420.3,-371.86 426.3,-365.86 432.3,-365.86"/>
<text text-anchor="middle" x="521.3" y="-373.66" font-family="Times-Roman" font-size="14.00">5</text>
</g>
<g id="clust3" class="cluster">
<title>cluster99 x 36</title>
<path fill="none" stroke="black" d="M432.3,-243.91C432.3,-243.91 522.3,-243.91 522.3,-243.91 528.3,-243.91 534.3,-249.91 534.3,-255.91 534.3,-255.91 534.3,-345.86 534.3,-345.86 534.3,-351.86 528.3,-357.86 522.3,-357.86 522.3,-357.86 432.3,-357.86 432.3,-357.86 426.3,-357.86 420.3,-351.86 420.3,-345.86 420.3,-345.86 420.3,-255.91 420.3,-255.91 420.3,-249.91 426.3,-243.91 432.3,-243.91"/>
<text text-anchor="middle" x="499.3" y="-251.71" font-family="Times-Roman" font-size="14.00">99 x 36</text>
</g>
<g id="clust4" class="cluster">
<title>cluster2</title>
<path fill="none" stroke="black" d="M561.3,-243.91C561.3,-243.91 651.3,-243.91 651.3,-243.91 657.3,-243.91 663.3,-249.91 663.3,-255.91 663.3,-255.91 663.3,-345.86 663.3,-345.86 663.3,-351.86 657.3,-357.86 651.3,-357.86 651.3,-357.86 561.3,-357.86 561.3,-357.86 555.3,-357.86 549.3,-351.86 549.3,-345.86 549.3,-345.86 549.3,-255.91 549.3,-255.91 549.3,-249.91 555.3,-243.91 561.3,-243.91"/>
<text text-anchor="middle" x="650.3" y="-251.71" font-family="Times-Roman" font-size="14.00">2</text>
</g>
<g id="clust5" class="cluster">
<title>cluster34,408</title>
<path fill="none" stroke="black" d="M454.3,-8C454.3,-8 558.3,-8 558.3,-8 564.3,-8 570.3,-14 570.3,-20 570.3,-20 570.3,-212.93 570.3,-212.93 570.3,-218.93 564.3,-224.93 558.3,-224.93 558.3,-224.93 454.3,-224.93 454.3,-224.93 448.3,-224.93 442.3,-218.93 442.3,-212.93 442.3,-212.93 442.3,-20 442.3,-20 442.3,-14 448.3,-8 454.3,-8"/>
<text text-anchor="middle" x="537.3" y="-15.8" font-family="Times-Roman" font-size="14.00">34,408</text>
</g>
<g id="clust6" class="cluster">
<title>cluster391</title>
<path fill="none" stroke="black" d="M648.3,-121.95C648.3,-121.95 778.3,-121.95 778.3,-121.95 784.3,-121.95 790.3,-127.95 790.3,-133.95 790.3,-133.95 790.3,-223.91 790.3,-223.91 790.3,-229.91 784.3,-235.91 778.3,-235.91 778.3,-235.91 648.3,-235.91 648.3,-235.91 642.3,-235.91 636.3,-229.91 636.3,-223.91 636.3,-223.91 636.3,-133.95 636.3,-133.95 636.3,-127.95 642.3,-121.95 648.3,-121.95"/>
<text text-anchor="middle" x="768.3" y="-129.75" font-family="Times-Roman" font-size="14.00">391</text>
</g>
<!-- σ_h -->
<g id="node1" class="node">
<title>σ_h</title>
<ellipse fill="none" stroke="black" cx="69.3" cy="-434.34" rx="69.09" ry="37.45"/>
<text text-anchor="middle" x="69.3" y="-445.64" font-family="Times-Roman" font-size="14.00">σ_h</text>
<text text-anchor="middle" x="69.3" y="-430.64" font-family="Times-Roman" font-size="14.00">~</text>
<text text-anchor="middle" x="69.3" y="-415.64" font-family="Times-Roman" font-size="14.00">HalfNormal</text>
</g>
<!-- h -->
<g id="node9" class="node">
<title>h</title>
<ellipse fill="none" stroke="black" cx="205.3" cy="-312.38" rx="48.58" ry="37.45"/>
<text text-anchor="middle" x="205.3" y="-323.68" font-family="Times-Roman" font-size="14.00">h</text>
<text text-anchor="middle" x="205.3" y="-308.68" font-family="Times-Roman" font-size="14.00">~</text>
<text text-anchor="middle" x="205.3" y="-293.68" font-family="Times-Roman" font-size="14.00">Normal</text>
</g>
<!-- σ_h&#45;&gt;h -->
<g id="edge1" class="edge">
<title>σ_h&#45;&gt;h</title>
<path fill="none" stroke="black" d="M105.03,-401.82C123.7,-385.35 146.61,-365.15 165.81,-348.21"/>
<polygon fill="black" stroke="black" points="168.33,-350.66 173.51,-341.42 163.7,-345.41 168.33,-350.66"/>
</g>
<!-- σ_μ_g -->
<g id="node2" class="node">
<title>σ_μ_g</title>
<ellipse fill="none" stroke="black" cx="409.3" cy="-545.29" rx="69.09" ry="37.45"/>
<text text-anchor="middle" x="409.3" y="-556.59" font-family="Times-Roman" font-size="14.00">σ_μ_g</text>
<text text-anchor="middle" x="409.3" y="-541.59" font-family="Times-Roman" font-size="14.00">~</text>
<text text-anchor="middle" x="409.3" y="-526.59" font-family="Times-Roman" font-size="14.00">HalfNormal</text>
</g>
<!-- μ_g -->
<g id="node10" class="node">
<title>μ_g</title>
<ellipse fill="none" stroke="black" cx="477.3" cy="-434.34" rx="48.58" ry="37.45"/>
<text text-anchor="middle" x="477.3" y="-445.64" font-family="Times-Roman" font-size="14.00">μ_g</text>
<text text-anchor="middle" x="477.3" y="-430.64" font-family="Times-Roman" font-size="14.00">~</text>
<text text-anchor="middle" x="477.3" y="-415.64" font-family="Times-Roman" font-size="14.00">Normal</text>
</g>
<!-- σ_μ_g&#45;&gt;μ_g -->
<g id="edge3" class="edge">
<title>σ_μ_g&#45;&gt;μ_g</title>
<path fill="none" stroke="black" d="M431,-509.52C437.38,-499.3 444.42,-488.01 451.05,-477.39"/>
<polygon fill="black" stroke="black" points="454.17,-479 456.5,-468.67 448.23,-475.3 454.17,-479"/>
</g>
<!-- μ_h -->
<g id="node3" class="node">
<title>μ_h</title>
<ellipse fill="none" stroke="black" cx="205.3" cy="-434.34" rx="48.58" ry="37.45"/>
<text text-anchor="middle" x="205.3" y="-445.64" font-family="Times-Roman" font-size="14.00">μ_h</text>
<text text-anchor="middle" x="205.3" y="-430.64" font-family="Times-Roman" font-size="14.00">~</text>
<text text-anchor="middle" x="205.3" y="-415.64" font-family="Times-Roman" font-size="14.00">Normal</text>
</g>
<!-- μ_h&#45;&gt;h -->
<g id="edge2" class="edge">
<title>μ_h&#45;&gt;h</title>
<path fill="none" stroke="black" d="M205.3,-396.69C205.3,-385.29 205.3,-372.55 205.3,-360.54"/>
<polygon fill="black" stroke="black" points="208.8,-360.21 205.3,-350.21 201.8,-360.21 208.8,-360.21"/>
</g>
<!-- σ_g -->
<g id="node4" class="node">
<title>σ_g</title>
<ellipse fill="none" stroke="black" cx="341.3" cy="-434.34" rx="69.09" ry="37.45"/>
<text text-anchor="middle" x="341.3" y="-445.64" font-family="Times-Roman" font-size="14.00">σ_g</text>
<text text-anchor="middle" x="341.3" y="-430.64" font-family="Times-Roman" font-size="14.00">~</text>
<text text-anchor="middle" x="341.3" y="-415.64" font-family="Times-Roman" font-size="14.00">HalfNormal</text>
</g>
<!-- g -->
<g id="node11" class="node">
<title>g</title>
<ellipse fill="none" stroke="black" cx="477.3" cy="-312.38" rx="48.58" ry="37.45"/>
<text text-anchor="middle" x="477.3" y="-323.68" font-family="Times-Roman" font-size="14.00">g</text>
<text text-anchor="middle" x="477.3" y="-308.68" font-family="Times-Roman" font-size="14.00">~</text>
<text text-anchor="middle" x="477.3" y="-293.68" font-family="Times-Roman" font-size="14.00">Normal</text>
</g>
<!-- σ_g&#45;&gt;g -->
<g id="edge6" class="edge">
<title>σ_g&#45;&gt;g</title>
<path fill="none" stroke="black" d="M376.26,-401.59C388.83,-390.26 403.15,-377.43 416.3,-365.86 423.15,-359.83 430.48,-353.46 437.6,-347.31"/>
<polygon fill="black" stroke="black" points="439.91,-349.94 445.21,-340.76 435.35,-344.63 439.91,-349.94"/>
</g>
<!-- σ_σ -->
<g id="node5" class="node">
<title>σ_σ</title>
<ellipse fill="none" stroke="black" cx="742.3" cy="-312.38" rx="69.09" ry="37.45"/>
<text text-anchor="middle" x="742.3" y="-323.68" font-family="Times-Roman" font-size="14.00">σ_σ</text>
<text text-anchor="middle" x="742.3" y="-308.68" font-family="Times-Roman" font-size="14.00">~</text>
<text text-anchor="middle" x="742.3" y="-293.68" font-family="Times-Roman" font-size="14.00">HalfNormal</text>
</g>
<!-- σ -->
<g id="node15" class="node">
<title>σ</title>
<ellipse fill="none" stroke="black" cx="713.3" cy="-190.43" rx="69.09" ry="37.45"/>
<text text-anchor="middle" x="713.3" y="-201.73" font-family="Times-Roman" font-size="14.00">σ</text>
<text text-anchor="middle" x="713.3" y="-186.73" font-family="Times-Roman" font-size="14.00">~</text>
<text text-anchor="middle" x="713.3" y="-171.73" font-family="Times-Roman" font-size="14.00">HalfNormal</text>
</g>
<!-- σ_σ&#45;&gt;σ -->
<g id="edge12" class="edge">
<title>σ_σ&#45;&gt;σ</title>
<path fill="none" stroke="black" d="M733.52,-275.07C730.65,-263.21 727.43,-249.87 724.41,-237.4"/>
<polygon fill="black" stroke="black" points="727.8,-236.52 722.05,-227.62 720.99,-238.16 727.8,-236.52"/>
</g>
<!-- μ_μ_g -->
<g id="node6" class="node">
<title>μ_μ_g</title>
<ellipse fill="none" stroke="black" cx="545.3" cy="-545.29" rx="48.58" ry="37.45"/>
<text text-anchor="middle" x="545.3" y="-556.59" font-family="Times-Roman" font-size="14.00">μ_μ_g</text>
<text text-anchor="middle" x="545.3" y="-541.59" font-family="Times-Roman" font-size="14.00">~</text>
<text text-anchor="middle" x="545.3" y="-526.59" font-family="Times-Roman" font-size="14.00">Normal</text>
</g>
<!-- μ_μ_g&#45;&gt;μ_g -->
<g id="edge4" class="edge">
<title>μ_μ_g&#45;&gt;μ_g</title>
<path fill="none" stroke="black" d="M524.71,-511.3C518.05,-500.63 510.57,-488.64 503.55,-477.4"/>
<polygon fill="black" stroke="black" points="506.31,-475.22 498.05,-468.59 500.37,-478.92 506.31,-475.22"/>
</g>
<!-- σ_b -->
<g id="node7" class="node">
<title>σ_b</title>
<ellipse fill="none" stroke="black" cx="613.3" cy="-434.34" rx="69.09" ry="37.45"/>
<text text-anchor="middle" x="613.3" y="-445.64" font-family="Times-Roman" font-size="14.00">σ_b</text>
<text text-anchor="middle" x="613.3" y="-430.64" font-family="Times-Roman" font-size="14.00">~</text>
<text text-anchor="middle" x="613.3" y="-415.64" font-family="Times-Roman" font-size="14.00">HalfNormal</text>
</g>
<!-- b -->
<g id="node12" class="node">
<title>b</title>
<ellipse fill="none" stroke="black" cx="606.3" cy="-312.38" rx="48.58" ry="37.45"/>
<text text-anchor="middle" x="606.3" y="-323.68" font-family="Times-Roman" font-size="14.00">b</text>
<text text-anchor="middle" x="606.3" y="-308.68" font-family="Times-Roman" font-size="14.00">~</text>
<text text-anchor="middle" x="606.3" y="-293.68" font-family="Times-Roman" font-size="14.00">Normal</text>
</g>
<!-- σ_b&#45;&gt;b -->
<g id="edge8" class="edge">
<title>σ_b&#45;&gt;b</title>
<path fill="none" stroke="black" d="M611.16,-396.69C610.49,-385.29 609.75,-372.55 609.05,-360.54"/>
<polygon fill="black" stroke="black" points="612.52,-359.99 608.45,-350.21 605.53,-360.4 612.52,-359.99"/>
</g>
<!-- μ_b -->
<g id="node8" class="node">
<title>μ_b</title>
<ellipse fill="none" stroke="black" cx="749.3" cy="-434.34" rx="48.58" ry="37.45"/>
<text text-anchor="middle" x="749.3" y="-445.64" font-family="Times-Roman" font-size="14.00">μ_b</text>
<text text-anchor="middle" x="749.3" y="-430.64" font-family="Times-Roman" font-size="14.00">~</text>
<text text-anchor="middle" x="749.3" y="-415.64" font-family="Times-Roman" font-size="14.00">Normal</text>
</g>
<!-- μ_b&#45;&gt;b -->
<g id="edge7" class="edge">
<title>μ_b&#45;&gt;b</title>
<path fill="none" stroke="black" d="M727.33,-400.5C717.58,-388.1 705.17,-374.84 691.3,-365.86 680.79,-359.06 675.45,-363.54 664.3,-357.86 658.22,-354.76 652.14,-351.01 646.32,-347"/>
<polygon fill="black" stroke="black" points="648.17,-344.03 638.02,-341.01 644.08,-349.7 648.17,-344.03"/>
</g>
<!-- μ -->
<g id="node14" class="node">
<title>μ</title>
<polygon fill="none" stroke="black" points="562.3,-216.93 450.3,-216.93 450.3,-163.93 562.3,-163.93 562.3,-216.93"/>
<text text-anchor="middle" x="506.3" y="-201.73" font-family="Times-Roman" font-size="14.00">μ</text>
<text text-anchor="middle" x="506.3" y="-186.73" font-family="Times-Roman" font-size="14.00">~</text>
<text text-anchor="middle" x="506.3" y="-171.73" font-family="Times-Roman" font-size="14.00">Deterministic</text>
</g>
<!-- h&#45;&gt;μ -->
<g id="edge11" class="edge">
<title>h&#45;&gt;μ</title>
<path fill="none" stroke="black" d="M248.1,-294.32C298.3,-274.32 382.07,-240.94 440.53,-217.64"/>
<polygon fill="black" stroke="black" points="442.05,-220.8 450.05,-213.85 439.46,-214.3 442.05,-220.8"/>
</g>
<!-- μ_g&#45;&gt;g -->
<g id="edge5" class="edge">
<title>μ_g&#45;&gt;g</title>
<path fill="none" stroke="black" d="M477.3,-396.69C477.3,-385.29 477.3,-372.55 477.3,-360.54"/>
<polygon fill="black" stroke="black" points="480.8,-360.21 477.3,-350.21 473.8,-360.21 480.8,-360.21"/>
</g>
<!-- g&#45;&gt;μ -->
<g id="edge10" class="edge">
<title>g&#45;&gt;μ</title>
<path fill="none" stroke="black" d="M486,-275.39C489.68,-260.14 493.97,-242.41 497.65,-227.19"/>
<polygon fill="black" stroke="black" points="501.14,-227.65 500.09,-217.11 494.34,-226.01 501.14,-227.65"/>
</g>
<!-- b&#45;&gt;μ -->
<g id="edge9" class="edge">
<title>b&#45;&gt;μ</title>
<path fill="none" stroke="black" d="M580.54,-280.49C566.29,-263.4 548.57,-242.14 534.02,-224.68"/>
<polygon fill="black" stroke="black" points="536.67,-222.4 527.58,-216.96 531.29,-226.88 536.67,-222.4"/>
</g>
<!-- lfc -->
<g id="node13" class="node">
<title>lfc</title>
<ellipse fill="lightgrey" stroke="black" cx="509.3" cy="-76.48" rx="48.58" ry="37.45"/>
<text text-anchor="middle" x="509.3" y="-87.78" font-family="Times-Roman" font-size="14.00">lfc</text>
<text text-anchor="middle" x="509.3" y="-72.78" font-family="Times-Roman" font-size="14.00">~</text>
<text text-anchor="middle" x="509.3" y="-57.78" font-family="Times-Roman" font-size="14.00">Normal</text>
</g>
<!-- μ&#45;&gt;lfc -->
<g id="edge14" class="edge">
<title>μ&#45;&gt;lfc</title>
<path fill="none" stroke="black" d="M506.98,-163.75C507.3,-152.02 507.68,-137.75 508.04,-124.22"/>
<polygon fill="black" stroke="black" points="511.55,-124.16 508.32,-114.07 504.55,-123.98 511.55,-124.16"/>
</g>
<!-- σ&#45;&gt;lfc -->
<g id="edge13" class="edge">
<title>σ&#45;&gt;lfc</title>
<path fill="none" stroke="black" d="M665.47,-163.18C632.96,-145.34 590.11,-121.82 557.52,-103.94"/>
<polygon fill="black" stroke="black" points="559.06,-100.8 548.61,-99.05 555.7,-106.93 559.06,-100.8"/>
</g>
</g>
</svg>
