<?xml version="1.0" encoding="UTF-8" standalone="no"?>
<!DOCTYPE svg PUBLIC "-//W3C//DTD SVG 1.1//EN"
 "http://www.w3.org/Graphics/SVG/1.1/DTD/svg11.dtd">
<!-- Generated by graphviz version 2.48.0 (0)
 -->
<!-- Pages: 1 -->
<svg width="396pt" height="547pt"
 viewBox="0.00 0.00 395.72 546.81" xmlns="http://www.w3.org/2000/svg" xmlns:xlink="http://www.w3.org/1999/xlink">
<g id="graph0" class="graph" transform="scale(1 1) rotate(0) translate(4 542.81)">
<polygon fill="white" stroke="transparent" points="-4,4 -4,-542.81 391.72,-542.81 391.72,4 -4,4"/>
<g id="clust1" class="cluster">
<title>cluster2,384</title>
<path fill="none" stroke="black" d="M20,-8C20,-8 216,-8 216,-8 222,-8 228,-14 228,-20 228,-20 228,-412.88 228,-412.88 228,-418.88 222,-424.88 216,-424.88 216,-424.88 20,-424.88 20,-424.88 14,-424.88 8,-418.88 8,-412.88 8,-412.88 8,-20 8,-20 8,-14 14,-8 20,-8"/>
<text text-anchor="middle" x="204" y="-15.8" font-family="Times,serif" font-size="14.00">2,384</text>
</g>
<g id="clust2" class="cluster">
<title>cluster114</title>
<path fill="none" stroke="black" d="M248,-321.91C248,-321.91 324,-321.91 324,-321.91 330,-321.91 336,-327.91 336,-333.91 336,-333.91 336,-423.86 336,-423.86 336,-429.86 330,-435.86 324,-435.86 324,-435.86 248,-435.86 248,-435.86 242,-435.86 236,-429.86 236,-423.86 236,-423.86 236,-333.91 236,-333.91 236,-327.91 242,-321.91 248,-321.91"/>
<text text-anchor="middle" x="317.5" y="-329.71" font-family="Times,serif" font-size="14.00">114</text>
</g>
<!-- counts_final_total -->
<g id="node1" class="node">
<title>counts_final_total</title>
<path fill="lightgrey" stroke="black" d="M207.5,-416.88C207.5,-416.88 114.5,-416.88 114.5,-416.88 108.5,-416.88 102.5,-410.88 102.5,-404.88 102.5,-404.88 102.5,-375.88 102.5,-375.88 102.5,-369.88 108.5,-363.88 114.5,-363.88 114.5,-363.88 207.5,-363.88 207.5,-363.88 213.5,-363.88 219.5,-369.88 219.5,-375.88 219.5,-375.88 219.5,-404.88 219.5,-404.88 219.5,-410.88 213.5,-416.88 207.5,-416.88"/>
<text text-anchor="middle" x="161" y="-401.68" font-family="Times,serif" font-size="14.00">counts_final_total</text>
<text text-anchor="middle" x="161" y="-386.68" font-family="Times,serif" font-size="14.00">~</text>
<text text-anchor="middle" x="161" y="-371.68" font-family="Times,serif" font-size="14.00">Data</text>
</g>
<!-- y -->
<g id="node2" class="node">
<title>y</title>
<ellipse fill="lightgrey" stroke="black" cx="136" cy="-165.48" rx="84.29" ry="37.45"/>
<text text-anchor="middle" x="136" y="-176.78" font-family="Times,serif" font-size="14.00">y</text>
<text text-anchor="middle" x="136" y="-161.78" font-family="Times,serif" font-size="14.00">~</text>
<text text-anchor="middle" x="136" y="-146.78" font-family="Times,serif" font-size="14.00">NegativeBinomial</text>
</g>
<!-- counts_final -->
<g id="node6" class="node">
<title>counts_final</title>
<path fill="lightgrey" stroke="black" d="M166.5,-92C166.5,-92 105.5,-92 105.5,-92 99.5,-92 93.5,-86 93.5,-80 93.5,-80 93.5,-51 93.5,-51 93.5,-45 99.5,-39 105.5,-39 105.5,-39 166.5,-39 166.5,-39 172.5,-39 178.5,-45 178.5,-51 178.5,-51 178.5,-80 178.5,-80 178.5,-86 172.5,-92 166.5,-92"/>
<text text-anchor="middle" x="136" y="-76.8" font-family="Times,serif" font-size="14.00">counts_final</text>
<text text-anchor="middle" x="136" y="-61.8" font-family="Times,serif" font-size="14.00">~</text>
<text text-anchor="middle" x="136" y="-46.8" font-family="Times,serif" font-size="14.00">Data</text>
</g>
<!-- y&#45;&gt;counts_final -->
<g id="edge1" class="edge">
<title>y&#45;&gt;counts_final</title>
<path fill="none" stroke="black" d="M136,-127.99C136,-119.58 136,-110.63 136,-102.25"/>
<polygon fill="black" stroke="black" points="139.5,-102.01 136,-92.01 132.5,-102.01 139.5,-102.01"/>
</g>
<!-- x_initial -->
<g id="node3" class="node">
<title>x_initial</title>
<path fill="lightgrey" stroke="black" d="M191.5,-302.93C191.5,-302.93 152.5,-302.93 152.5,-302.93 146.5,-302.93 140.5,-296.93 140.5,-290.93 140.5,-290.93 140.5,-261.93 140.5,-261.93 140.5,-255.93 146.5,-249.93 152.5,-249.93 152.5,-249.93 191.5,-249.93 191.5,-249.93 197.5,-249.93 203.5,-255.93 203.5,-261.93 203.5,-261.93 203.5,-290.93 203.5,-290.93 203.5,-296.93 197.5,-302.93 191.5,-302.93"/>
<text text-anchor="middle" x="172" y="-287.73" font-family="Times,serif" font-size="14.00">x_initial</text>
<text text-anchor="middle" x="172" y="-272.73" font-family="Times,serif" font-size="14.00">~</text>
<text text-anchor="middle" x="172" y="-257.73" font-family="Times,serif" font-size="14.00">Data</text>
</g>
<!-- x_initial&#45;&gt;y -->
<g id="edge8" class="edge">
<title>x_initial&#45;&gt;y</title>
<path fill="none" stroke="black" d="M163.56,-249.89C159.85,-238.66 155.38,-225.12 151.12,-212.25"/>
<polygon fill="black" stroke="black" points="154.39,-210.98 147.93,-202.59 147.75,-213.18 154.39,-210.98"/>
</g>
<!-- gene_idx -->
<g id="node4" class="node">
<title>gene_idx</title>
<path fill="lightgrey" stroke="black" d="M72,-416.88C72,-416.88 28,-416.88 28,-416.88 22,-416.88 16,-410.88 16,-404.88 16,-404.88 16,-375.88 16,-375.88 16,-369.88 22,-363.88 28,-363.88 28,-363.88 72,-363.88 72,-363.88 78,-363.88 84,-369.88 84,-375.88 84,-375.88 84,-404.88 84,-404.88 84,-410.88 78,-416.88 72,-416.88"/>
<text text-anchor="middle" x="50" y="-401.68" font-family="Times,serif" font-size="14.00">gene_idx</text>
<text text-anchor="middle" x="50" y="-386.68" font-family="Times,serif" font-size="14.00">~</text>
<text text-anchor="middle" x="50" y="-371.68" font-family="Times,serif" font-size="14.00">Data</text>
</g>
<!-- μ -->
<g id="node5" class="node">
<title>μ</title>
<polygon fill="none" stroke="black" points="122.5,-302.93 29.5,-302.93 29.5,-249.93 122.5,-249.93 122.5,-302.93"/>
<text text-anchor="middle" x="76" y="-287.73" font-family="Times,serif" font-size="14.00">μ</text>
<text text-anchor="middle" x="76" y="-272.73" font-family="Times,serif" font-size="14.00">~</text>
<text text-anchor="middle" x="76" y="-257.73" font-family="Times,serif" font-size="14.00">Deterministic</text>
</g>
<!-- gene_idx&#45;&gt;μ -->
<g id="edge5" class="edge">
<title>gene_idx&#45;&gt;μ</title>
<path fill="none" stroke="black" d="M55.96,-363.7C59.47,-348.62 63.94,-329.35 67.77,-312.85"/>
<polygon fill="black" stroke="black" points="71.21,-313.53 70.06,-302.99 64.39,-311.94 71.21,-313.53"/>
</g>
<!-- μ&#45;&gt;y -->
<g id="edge7" class="edge">
<title>μ&#45;&gt;y</title>
<path fill="none" stroke="black" d="M90.07,-249.89C96.43,-238.34 104.13,-224.34 111.4,-211.14"/>
<polygon fill="black" stroke="black" points="114.58,-212.62 116.34,-202.17 108.45,-209.24 114.58,-212.62"/>
</g>
<!-- α -->
<g id="node7" class="node">
<title>α</title>
<ellipse fill="none" stroke="black" cx="295" cy="-276.43" rx="59.29" ry="37.45"/>
<text text-anchor="middle" x="295" y="-287.73" font-family="Times,serif" font-size="14.00">α</text>
<text text-anchor="middle" x="295" y="-272.73" font-family="Times,serif" font-size="14.00">~</text>
<text text-anchor="middle" x="295" y="-257.73" font-family="Times,serif" font-size="14.00">HalfNormal</text>
</g>
<!-- α&#45;&gt;y -->
<g id="edge6" class="edge">
<title>α&#45;&gt;y</title>
<path fill="none" stroke="black" d="M255.29,-248.22C235.39,-234.58 211.02,-217.88 189.5,-203.14"/>
<polygon fill="black" stroke="black" points="191.33,-200.15 181.1,-197.38 187.37,-205.92 191.33,-200.15"/>
</g>
<!-- σ_β -->
<g id="node8" class="node">
<title>σ_β</title>
<ellipse fill="none" stroke="black" cx="227" cy="-501.34" rx="59.29" ry="37.45"/>
<text text-anchor="middle" x="227" y="-512.64" font-family="Times,serif" font-size="14.00">σ_β</text>
<text text-anchor="middle" x="227" y="-497.64" font-family="Times,serif" font-size="14.00">~</text>
<text text-anchor="middle" x="227" y="-482.64" font-family="Times,serif" font-size="14.00">HalfNormal</text>
</g>
<!-- β_init -->
<g id="node10" class="node">
<title>β_init</title>
<ellipse fill="none" stroke="black" cx="286" cy="-390.38" rx="41.94" ry="37.45"/>
<text text-anchor="middle" x="286" y="-401.68" font-family="Times,serif" font-size="14.00">β_init</text>
<text text-anchor="middle" x="286" y="-386.68" font-family="Times,serif" font-size="14.00">~</text>
<text text-anchor="middle" x="286" y="-371.68" font-family="Times,serif" font-size="14.00">Normal</text>
</g>
<!-- σ_β&#45;&gt;β_init -->
<g id="edge2" class="edge">
<title>σ_β&#45;&gt;β_init</title>
<path fill="none" stroke="black" d="M245.83,-465.56C251.36,-455.35 257.47,-444.07 263.22,-433.46"/>
<polygon fill="black" stroke="black" points="266.47,-434.8 268.15,-424.34 260.31,-431.47 266.47,-434.8"/>
</g>
<!-- μ_β -->
<g id="node9" class="node">
<title>μ_β</title>
<ellipse fill="none" stroke="black" cx="346" cy="-501.34" rx="41.94" ry="37.45"/>
<text text-anchor="middle" x="346" y="-512.64" font-family="Times,serif" font-size="14.00">μ_β</text>
<text text-anchor="middle" x="346" y="-497.64" font-family="Times,serif" font-size="14.00">~</text>
<text text-anchor="middle" x="346" y="-482.64" font-family="Times,serif" font-size="14.00">Normal</text>
</g>
<!-- μ_β&#45;&gt;β_init -->
<g id="edge3" class="edge">
<title>μ_β&#45;&gt;β_init</title>
<path fill="none" stroke="black" d="M327.84,-467.35C321.9,-456.58 315.23,-444.47 308.99,-433.14"/>
<polygon fill="black" stroke="black" points="311.99,-431.33 304.1,-424.26 305.86,-434.7 311.99,-431.33"/>
</g>
<!-- β_init&#45;&gt;μ -->
<g id="edge4" class="edge">
<title>β_init&#45;&gt;μ</title>
<path fill="none" stroke="black" d="M267.81,-356.47C258.82,-343.43 246.71,-329.71 232,-321.91 212.11,-311.36 152.28,-321.25 131,-313.91 126.5,-312.35 122.01,-310.34 117.65,-308.06"/>
<polygon fill="black" stroke="black" points="119.32,-304.99 108.91,-303.07 115.85,-311.07 119.32,-304.99"/>
</g>
</g>
</svg>
