<?xml version="1.0" encoding="UTF-8" standalone="no"?>
<!DOCTYPE svg PUBLIC "-//W3C//DTD SVG 1.1//EN"
 "http://www.w3.org/Graphics/SVG/1.1/DTD/svg11.dtd">
<!-- Generated by graphviz version 2.47.0 (20210327.0129)
 -->
<!-- Pages: 1 -->
<svg width="556pt" height="469pt"
 viewBox="0.00 0.00 555.79 468.81" xmlns="http://www.w3.org/2000/svg" xmlns:xlink="http://www.w3.org/1999/xlink">
<g id="graph0" class="graph" transform="scale(1 1) rotate(0) translate(4 464.81)">
<polygon fill="white" stroke="transparent" points="-4,4 -4,-464.81 551.79,-464.81 551.79,4 -4,4"/>
<g id="clust1" class="cluster">
<title>cluster64 x 10</title>
<path fill="none" stroke="black" d="M139.79,-243.91C139.79,-243.91 229.79,-243.91 229.79,-243.91 235.79,-243.91 241.79,-249.91 241.79,-255.91 241.79,-255.91 241.79,-345.86 241.79,-345.86 241.79,-351.86 235.79,-357.86 229.79,-357.86 229.79,-357.86 139.79,-357.86 139.79,-357.86 133.79,-357.86 127.79,-351.86 127.79,-345.86 127.79,-345.86 127.79,-255.91 127.79,-255.91 127.79,-249.91 133.79,-243.91 139.79,-243.91"/>
<text text-anchor="middle" x="206.79" y="-251.71" font-family="Times-Roman" font-size="14.00">64 x 10</text>
</g>
<g id="clust2" class="cluster">
<title>cluster4</title>
<path fill="none" stroke="black" d="M275.79,-243.91C275.79,-243.91 365.79,-243.91 365.79,-243.91 371.79,-243.91 377.79,-249.91 377.79,-255.91 377.79,-255.91 377.79,-345.86 377.79,-345.86 377.79,-351.86 371.79,-357.86 365.79,-357.86 365.79,-357.86 275.79,-357.86 275.79,-357.86 269.79,-357.86 263.79,-351.86 263.79,-345.86 263.79,-345.86 263.79,-255.91 263.79,-255.91 263.79,-249.91 269.79,-243.91 275.79,-243.91"/>
<text text-anchor="middle" x="364.79" y="-251.71" font-family="Times-Roman" font-size="14.00">4</text>
</g>
<g id="clust3" class="cluster">
<title>cluster1,443</title>
<path fill="none" stroke="black" d="M261.79,-8C261.79,-8 365.79,-8 365.79,-8 371.79,-8 377.79,-14 377.79,-20 377.79,-20 377.79,-212.93 377.79,-212.93 377.79,-218.93 371.79,-224.93 365.79,-224.93 365.79,-224.93 261.79,-224.93 261.79,-224.93 255.79,-224.93 249.79,-218.93 249.79,-212.93 249.79,-212.93 249.79,-20 249.79,-20 249.79,-14 255.79,-8 261.79,-8"/>
<text text-anchor="middle" x="349.29" y="-15.8" font-family="Times-Roman" font-size="14.00">1,443</text>
</g>
<g id="clust4" class="cluster">
<title>cluster192</title>
<path fill="none" stroke="black" d="M397.79,-121.95C397.79,-121.95 527.79,-121.95 527.79,-121.95 533.79,-121.95 539.79,-127.95 539.79,-133.95 539.79,-133.95 539.79,-223.91 539.79,-223.91 539.79,-229.91 533.79,-235.91 527.79,-235.91 527.79,-235.91 397.79,-235.91 397.79,-235.91 391.79,-235.91 385.79,-229.91 385.79,-223.91 385.79,-223.91 385.79,-133.95 385.79,-133.95 385.79,-127.95 391.79,-121.95 397.79,-121.95"/>
<text text-anchor="middle" x="517.79" y="-129.75" font-family="Times-Roman" font-size="14.00">192</text>
</g>
<!-- μ_α -->
<g id="node1" class="node">
<title>μ_α</title>
<ellipse fill="none" stroke="black" cx="48.79" cy="-423.34" rx="48.58" ry="37.45"/>
<text text-anchor="middle" x="48.79" y="-434.64" font-family="Times-Roman" font-size="14.00">μ_α</text>
<text text-anchor="middle" x="48.79" y="-419.64" font-family="Times-Roman" font-size="14.00">~</text>
<text text-anchor="middle" x="48.79" y="-404.64" font-family="Times-Roman" font-size="14.00">Normal</text>
</g>
<!-- α -->
<g id="node6" class="node">
<title>α</title>
<ellipse fill="none" stroke="black" cx="184.79" cy="-312.38" rx="48.58" ry="37.45"/>
<text text-anchor="middle" x="184.79" y="-323.68" font-family="Times-Roman" font-size="14.00">α</text>
<text text-anchor="middle" x="184.79" y="-308.68" font-family="Times-Roman" font-size="14.00">~</text>
<text text-anchor="middle" x="184.79" y="-293.68" font-family="Times-Roman" font-size="14.00">Normal</text>
</g>
<!-- μ_α&#45;&gt;α -->
<g id="edge1" class="edge">
<title>μ_α&#45;&gt;α</title>
<path fill="none" stroke="black" d="M82.06,-395.68C100.58,-380.84 123.81,-362.24 143.48,-346.48"/>
<polygon fill="black" stroke="black" points="145.78,-349.12 151.39,-340.14 141.4,-343.66 145.78,-349.12"/>
</g>
<!-- σ_α -->
<g id="node2" class="node">
<title>σ_α</title>
<ellipse fill="none" stroke="black" cx="184.79" cy="-423.34" rx="69.09" ry="37.45"/>
<text text-anchor="middle" x="184.79" y="-434.64" font-family="Times-Roman" font-size="14.00">σ_α</text>
<text text-anchor="middle" x="184.79" y="-419.64" font-family="Times-Roman" font-size="14.00">~</text>
<text text-anchor="middle" x="184.79" y="-404.64" font-family="Times-Roman" font-size="14.00">HalfNormal</text>
</g>
<!-- σ_α&#45;&gt;α -->
<g id="edge2" class="edge">
<title>σ_α&#45;&gt;α</title>
<path fill="none" stroke="black" d="M184.79,-385.75C184.79,-377.58 184.79,-368.8 184.79,-360.27"/>
<polygon fill="black" stroke="black" points="188.29,-360.06 184.79,-350.06 181.29,-360.06 188.29,-360.06"/>
</g>
<!-- μ_η -->
<g id="node3" class="node">
<title>μ_η</title>
<ellipse fill="none" stroke="black" cx="320.79" cy="-423.34" rx="48.58" ry="37.45"/>
<text text-anchor="middle" x="320.79" y="-434.64" font-family="Times-Roman" font-size="14.00">μ_η</text>
<text text-anchor="middle" x="320.79" y="-419.64" font-family="Times-Roman" font-size="14.00">~</text>
<text text-anchor="middle" x="320.79" y="-404.64" font-family="Times-Roman" font-size="14.00">Normal</text>
</g>
<!-- η -->
<g id="node7" class="node">
<title>η</title>
<ellipse fill="none" stroke="black" cx="320.79" cy="-312.38" rx="48.58" ry="37.45"/>
<text text-anchor="middle" x="320.79" y="-323.68" font-family="Times-Roman" font-size="14.00">η</text>
<text text-anchor="middle" x="320.79" y="-308.68" font-family="Times-Roman" font-size="14.00">~</text>
<text text-anchor="middle" x="320.79" y="-293.68" font-family="Times-Roman" font-size="14.00">Normal</text>
</g>
<!-- μ_η&#45;&gt;η -->
<g id="edge4" class="edge">
<title>μ_η&#45;&gt;η</title>
<path fill="none" stroke="black" d="M320.79,-385.75C320.79,-377.58 320.79,-368.8 320.79,-360.27"/>
<polygon fill="black" stroke="black" points="324.29,-360.06 320.79,-350.06 317.29,-360.06 324.29,-360.06"/>
</g>
<!-- σ_σ -->
<g id="node4" class="node">
<title>σ_σ</title>
<ellipse fill="none" stroke="black" cx="462.79" cy="-312.38" rx="69.09" ry="37.45"/>
<text text-anchor="middle" x="462.79" y="-323.68" font-family="Times-Roman" font-size="14.00">σ_σ</text>
<text text-anchor="middle" x="462.79" y="-308.68" font-family="Times-Roman" font-size="14.00">~</text>
<text text-anchor="middle" x="462.79" y="-293.68" font-family="Times-Roman" font-size="14.00">HalfNormal</text>
</g>
<!-- σ -->
<g id="node10" class="node">
<title>σ</title>
<ellipse fill="none" stroke="black" cx="462.79" cy="-190.43" rx="69.09" ry="37.45"/>
<text text-anchor="middle" x="462.79" y="-201.73" font-family="Times-Roman" font-size="14.00">σ</text>
<text text-anchor="middle" x="462.79" y="-186.73" font-family="Times-Roman" font-size="14.00">~</text>
<text text-anchor="middle" x="462.79" y="-171.73" font-family="Times-Roman" font-size="14.00">HalfNormal</text>
</g>
<!-- σ_σ&#45;&gt;σ -->
<g id="edge7" class="edge">
<title>σ_σ&#45;&gt;σ</title>
<path fill="none" stroke="black" d="M462.79,-274.74C462.79,-263.34 462.79,-250.6 462.79,-238.58"/>
<polygon fill="black" stroke="black" points="466.29,-238.26 462.79,-228.26 459.29,-238.26 466.29,-238.26"/>
</g>
<!-- σ_η -->
<g id="node5" class="node">
<title>σ_η</title>
<ellipse fill="none" stroke="black" cx="456.79" cy="-423.34" rx="69.09" ry="37.45"/>
<text text-anchor="middle" x="456.79" y="-434.64" font-family="Times-Roman" font-size="14.00">σ_η</text>
<text text-anchor="middle" x="456.79" y="-419.64" font-family="Times-Roman" font-size="14.00">~</text>
<text text-anchor="middle" x="456.79" y="-404.64" font-family="Times-Roman" font-size="14.00">HalfNormal</text>
</g>
<!-- σ_η&#45;&gt;η -->
<g id="edge3" class="edge">
<title>σ_η&#45;&gt;η</title>
<path fill="none" stroke="black" d="M418.54,-391.7C400.97,-377.62 380.09,-360.89 362.14,-346.51"/>
<polygon fill="black" stroke="black" points="364.12,-343.61 354.13,-340.09 359.75,-349.08 364.12,-343.61"/>
</g>
<!-- μ -->
<g id="node9" class="node">
<title>μ</title>
<polygon fill="none" stroke="black" points="369.79,-216.93 257.79,-216.93 257.79,-163.93 369.79,-163.93 369.79,-216.93"/>
<text text-anchor="middle" x="313.79" y="-201.73" font-family="Times-Roman" font-size="14.00">μ</text>
<text text-anchor="middle" x="313.79" y="-186.73" font-family="Times-Roman" font-size="14.00">~</text>
<text text-anchor="middle" x="313.79" y="-171.73" font-family="Times-Roman" font-size="14.00">Deterministic</text>
</g>
<!-- α&#45;&gt;μ -->
<g id="edge6" class="edge">
<title>α&#45;&gt;μ</title>
<path fill="none" stroke="black" d="M215.36,-282.96C234.39,-265.26 258.92,-242.45 278.74,-224.03"/>
<polygon fill="black" stroke="black" points="281.14,-226.57 286.08,-217.2 276.37,-221.45 281.14,-226.57"/>
</g>
<!-- η&#45;&gt;μ -->
<g id="edge5" class="edge">
<title>η&#45;&gt;μ</title>
<path fill="none" stroke="black" d="M318.65,-274.74C317.78,-259.77 316.77,-242.51 315.9,-227.59"/>
<polygon fill="black" stroke="black" points="319.37,-226.98 315.29,-217.2 312.38,-227.39 319.37,-226.98"/>
</g>
<!-- lfc -->
<g id="node8" class="node">
<title>lfc</title>
<ellipse fill="lightgrey" stroke="black" cx="316.79" cy="-76.48" rx="48.58" ry="37.45"/>
<text text-anchor="middle" x="316.79" y="-87.78" font-family="Times-Roman" font-size="14.00">lfc</text>
<text text-anchor="middle" x="316.79" y="-72.78" font-family="Times-Roman" font-size="14.00">~</text>
<text text-anchor="middle" x="316.79" y="-57.78" font-family="Times-Roman" font-size="14.00">Normal</text>
</g>
<!-- μ&#45;&gt;lfc -->
<g id="edge9" class="edge">
<title>μ&#45;&gt;lfc</title>
<path fill="none" stroke="black" d="M314.48,-163.75C314.79,-152.02 315.18,-137.75 315.54,-124.22"/>
<polygon fill="black" stroke="black" points="319.04,-124.16 315.81,-114.07 312.04,-123.98 319.04,-124.16"/>
</g>
<!-- σ&#45;&gt;lfc -->
<g id="edge8" class="edge">
<title>σ&#45;&gt;lfc</title>
<path fill="none" stroke="black" d="M426.69,-158.12C412.88,-146.47 396.83,-133.32 381.79,-121.95 375.42,-117.14 368.58,-112.21 361.81,-107.47"/>
<polygon fill="black" stroke="black" points="363.53,-104.4 353.32,-101.58 359.55,-110.15 363.53,-104.4"/>
</g>
</g>
</svg>
