<?xml version="1.0" encoding="UTF-8" standalone="no"?>
<!DOCTYPE svg PUBLIC "-//W3C//DTD SVG 1.1//EN"
 "http://www.w3.org/Graphics/SVG/1.1/DTD/svg11.dtd">
<!-- Generated by graphviz version 2.47.0 (20210327.0129)
 -->
<!-- Pages: 1 -->
<svg width="556pt" height="469pt"
 viewBox="0.00 0.00 555.79 468.81" xmlns="http://www.w3.org/2000/svg" xmlns:xlink="http://www.w3.org/1999/xlink">
<g id="graph0" class="graph" transform="scale(1 1) rotate(0) translate(4 464.81)">
<polygon fill="white" stroke="transparent" points="-4,4 -4,-464.81 551.79,-464.81 551.79,4 -4,4"/>
<g id="clust1" class="cluster">
<title>cluster64 x 10</title>
<path fill="none" stroke="black" d="M182,-243.91C182,-243.91 272,-243.91 272,-243.91 278,-243.91 284,-249.91 284,-255.91 284,-255.91 284,-345.86 284,-345.86 284,-351.86 278,-357.86 272,-357.86 272,-357.86 182,-357.86 182,-357.86 176,-357.86 170,-351.86 170,-345.86 170,-345.86 170,-255.91 170,-255.91 170,-249.91 176,-243.91 182,-243.91"/>
<text text-anchor="middle" x="249" y="-251.71" font-family="Times-Roman" font-size="14.00">64 x 10</text>
</g>
<g id="clust2" class="cluster">
<title>cluster4</title>
<path fill="none" stroke="black" d="M318,-243.91C318,-243.91 408,-243.91 408,-243.91 414,-243.91 420,-249.91 420,-255.91 420,-255.91 420,-345.86 420,-345.86 420,-351.86 414,-357.86 408,-357.86 408,-357.86 318,-357.86 318,-357.86 312,-357.86 306,-351.86 306,-345.86 306,-345.86 306,-255.91 306,-255.91 306,-249.91 312,-243.91 318,-243.91"/>
<text text-anchor="middle" x="407" y="-251.71" font-family="Times-Roman" font-size="14.00">4</text>
</g>
<g id="clust3" class="cluster">
<title>cluster1,443</title>
<path fill="none" stroke="black" d="M182,-8C182,-8 286,-8 286,-8 292,-8 298,-14 298,-20 298,-20 298,-212.93 298,-212.93 298,-218.93 292,-224.93 286,-224.93 286,-224.93 182,-224.93 182,-224.93 176,-224.93 170,-218.93 170,-212.93 170,-212.93 170,-20 170,-20 170,-14 176,-8 182,-8"/>
<text text-anchor="middle" x="269.5" y="-15.8" font-family="Times-Roman" font-size="14.00">1,443</text>
</g>
<g id="clust4" class="cluster">
<title>cluster192</title>
<path fill="none" stroke="black" d="M20,-121.95C20,-121.95 150,-121.95 150,-121.95 156,-121.95 162,-127.95 162,-133.95 162,-133.95 162,-223.91 162,-223.91 162,-229.91 156,-235.91 150,-235.91 150,-235.91 20,-235.91 20,-235.91 14,-235.91 8,-229.91 8,-223.91 8,-223.91 8,-133.95 8,-133.95 8,-127.95 14,-121.95 20,-121.95"/>
<text text-anchor="middle" x="140" y="-129.75" font-family="Times-Roman" font-size="14.00">192</text>
</g>
<!-- σ_σ -->
<g id="node1" class="node">
<title>σ_σ</title>
<ellipse fill="none" stroke="black" cx="85" cy="-312.38" rx="69.09" ry="37.45"/>
<text text-anchor="middle" x="85" y="-323.68" font-family="Times-Roman" font-size="14.00">σ_σ</text>
<text text-anchor="middle" x="85" y="-308.68" font-family="Times-Roman" font-size="14.00">~</text>
<text text-anchor="middle" x="85" y="-293.68" font-family="Times-Roman" font-size="14.00">HalfNormal</text>
</g>
<!-- σ -->
<g id="node10" class="node">
<title>σ</title>
<ellipse fill="none" stroke="black" cx="85" cy="-190.43" rx="69.09" ry="37.45"/>
<text text-anchor="middle" x="85" y="-201.73" font-family="Times-Roman" font-size="14.00">σ</text>
<text text-anchor="middle" x="85" y="-186.73" font-family="Times-Roman" font-size="14.00">~</text>
<text text-anchor="middle" x="85" y="-171.73" font-family="Times-Roman" font-size="14.00">HalfNormal</text>
</g>
<!-- σ_σ&#45;&gt;σ -->
<g id="edge7" class="edge">
<title>σ_σ&#45;&gt;σ</title>
<path fill="none" stroke="black" d="M85,-274.74C85,-263.34 85,-250.6 85,-238.58"/>
<polygon fill="black" stroke="black" points="88.5,-238.26 85,-228.26 81.5,-238.26 88.5,-238.26"/>
</g>
<!-- σ_α -->
<g id="node2" class="node">
<title>σ_α</title>
<ellipse fill="none" stroke="black" cx="91" cy="-423.34" rx="69.09" ry="37.45"/>
<text text-anchor="middle" x="91" y="-434.64" font-family="Times-Roman" font-size="14.00">σ_α</text>
<text text-anchor="middle" x="91" y="-419.64" font-family="Times-Roman" font-size="14.00">~</text>
<text text-anchor="middle" x="91" y="-404.64" font-family="Times-Roman" font-size="14.00">HalfNormal</text>
</g>
<!-- α -->
<g id="node6" class="node">
<title>α</title>
<ellipse fill="none" stroke="black" cx="227" cy="-312.38" rx="48.58" ry="37.45"/>
<text text-anchor="middle" x="227" y="-323.68" font-family="Times-Roman" font-size="14.00">α</text>
<text text-anchor="middle" x="227" y="-308.68" font-family="Times-Roman" font-size="14.00">~</text>
<text text-anchor="middle" x="227" y="-293.68" font-family="Times-Roman" font-size="14.00">Normal</text>
</g>
<!-- σ_α&#45;&gt;α -->
<g id="edge2" class="edge">
<title>σ_α&#45;&gt;α</title>
<path fill="none" stroke="black" d="M129.25,-391.7C146.82,-377.62 167.71,-360.89 185.65,-346.51"/>
<polygon fill="black" stroke="black" points="188.05,-349.08 193.66,-340.09 183.67,-343.61 188.05,-349.08"/>
</g>
<!-- μ_α -->
<g id="node3" class="node">
<title>μ_α</title>
<ellipse fill="none" stroke="black" cx="227" cy="-423.34" rx="48.58" ry="37.45"/>
<text text-anchor="middle" x="227" y="-434.64" font-family="Times-Roman" font-size="14.00">μ_α</text>
<text text-anchor="middle" x="227" y="-419.64" font-family="Times-Roman" font-size="14.00">~</text>
<text text-anchor="middle" x="227" y="-404.64" font-family="Times-Roman" font-size="14.00">Normal</text>
</g>
<!-- μ_α&#45;&gt;α -->
<g id="edge1" class="edge">
<title>μ_α&#45;&gt;α</title>
<path fill="none" stroke="black" d="M227,-385.75C227,-377.58 227,-368.8 227,-360.27"/>
<polygon fill="black" stroke="black" points="230.5,-360.06 227,-350.06 223.5,-360.06 230.5,-360.06"/>
</g>
<!-- σ_η -->
<g id="node4" class="node">
<title>σ_η</title>
<ellipse fill="none" stroke="black" cx="363" cy="-423.34" rx="69.09" ry="37.45"/>
<text text-anchor="middle" x="363" y="-434.64" font-family="Times-Roman" font-size="14.00">σ_η</text>
<text text-anchor="middle" x="363" y="-419.64" font-family="Times-Roman" font-size="14.00">~</text>
<text text-anchor="middle" x="363" y="-404.64" font-family="Times-Roman" font-size="14.00">HalfNormal</text>
</g>
<!-- η -->
<g id="node7" class="node">
<title>η</title>
<ellipse fill="none" stroke="black" cx="363" cy="-312.38" rx="48.58" ry="37.45"/>
<text text-anchor="middle" x="363" y="-323.68" font-family="Times-Roman" font-size="14.00">η</text>
<text text-anchor="middle" x="363" y="-308.68" font-family="Times-Roman" font-size="14.00">~</text>
<text text-anchor="middle" x="363" y="-293.68" font-family="Times-Roman" font-size="14.00">Normal</text>
</g>
<!-- σ_η&#45;&gt;η -->
<g id="edge4" class="edge">
<title>σ_η&#45;&gt;η</title>
<path fill="none" stroke="black" d="M363,-385.75C363,-377.58 363,-368.8 363,-360.27"/>
<polygon fill="black" stroke="black" points="366.5,-360.06 363,-350.06 359.5,-360.06 366.5,-360.06"/>
</g>
<!-- μ_η -->
<g id="node5" class="node">
<title>μ_η</title>
<ellipse fill="none" stroke="black" cx="499" cy="-423.34" rx="48.58" ry="37.45"/>
<text text-anchor="middle" x="499" y="-434.64" font-family="Times-Roman" font-size="14.00">μ_η</text>
<text text-anchor="middle" x="499" y="-419.64" font-family="Times-Roman" font-size="14.00">~</text>
<text text-anchor="middle" x="499" y="-404.64" font-family="Times-Roman" font-size="14.00">Normal</text>
</g>
<!-- μ_η&#45;&gt;η -->
<g id="edge3" class="edge">
<title>μ_η&#45;&gt;η</title>
<path fill="none" stroke="black" d="M465.73,-395.68C447.21,-380.84 423.99,-362.24 404.31,-346.48"/>
<polygon fill="black" stroke="black" points="406.39,-343.66 396.4,-340.14 402.01,-349.12 406.39,-343.66"/>
</g>
<!-- μ -->
<g id="node9" class="node">
<title>μ</title>
<polygon fill="none" stroke="black" points="290,-216.93 178,-216.93 178,-163.93 290,-163.93 290,-216.93"/>
<text text-anchor="middle" x="234" y="-201.73" font-family="Times-Roman" font-size="14.00">μ</text>
<text text-anchor="middle" x="234" y="-186.73" font-family="Times-Roman" font-size="14.00">~</text>
<text text-anchor="middle" x="234" y="-171.73" font-family="Times-Roman" font-size="14.00">Deterministic</text>
</g>
<!-- α&#45;&gt;μ -->
<g id="edge6" class="edge">
<title>α&#45;&gt;μ</title>
<path fill="none" stroke="black" d="M229.14,-274.74C230.01,-259.77 231.02,-242.51 231.89,-227.59"/>
<polygon fill="black" stroke="black" points="235.41,-227.39 232.5,-217.2 228.42,-226.98 235.41,-227.39"/>
</g>
<!-- η&#45;&gt;μ -->
<g id="edge5" class="edge">
<title>η&#45;&gt;μ</title>
<path fill="none" stroke="black" d="M332.43,-282.96C313.4,-265.26 288.87,-242.45 269.05,-224.03"/>
<polygon fill="black" stroke="black" points="271.42,-221.45 261.71,-217.2 266.65,-226.57 271.42,-221.45"/>
</g>
<!-- lfc -->
<g id="node8" class="node">
<title>lfc</title>
<ellipse fill="lightgrey" stroke="black" cx="230" cy="-76.48" rx="48.58" ry="37.45"/>
<text text-anchor="middle" x="230" y="-87.78" font-family="Times-Roman" font-size="14.00">lfc</text>
<text text-anchor="middle" x="230" y="-72.78" font-family="Times-Roman" font-size="14.00">~</text>
<text text-anchor="middle" x="230" y="-57.78" font-family="Times-Roman" font-size="14.00">Normal</text>
</g>
<!-- μ&#45;&gt;lfc -->
<g id="edge8" class="edge">
<title>μ&#45;&gt;lfc</title>
<path fill="none" stroke="black" d="M233.08,-163.75C232.66,-152.02 232.15,-137.75 231.67,-124.22"/>
<polygon fill="black" stroke="black" points="235.16,-123.94 231.31,-114.07 228.17,-124.19 235.16,-123.94"/>
</g>
<!-- σ&#45;&gt;lfc -->
<g id="edge9" class="edge">
<title>σ&#45;&gt;lfc</title>
<path fill="none" stroke="black" d="M121.14,-158.17C134.96,-146.53 151,-133.38 166,-121.95 172.21,-117.23 178.86,-112.37 185.45,-107.69"/>
<polygon fill="black" stroke="black" points="187.56,-110.49 193.73,-101.87 183.53,-104.76 187.56,-110.49"/>
</g>
</g>
</svg>
