<?xml version="1.0" encoding="UTF-8" standalone="no"?>
<!DOCTYPE svg PUBLIC "-//W3C//DTD SVG 1.1//EN"
 "http://www.w3.org/Graphics/SVG/1.1/DTD/svg11.dtd">
<!-- Generated by graphviz version 2.47.0 (20210327.0129)
 -->
<!-- Pages: 1 -->
<svg width="560pt" height="469pt"
 viewBox="0.00 0.00 560.30 468.81" xmlns="http://www.w3.org/2000/svg" xmlns:xlink="http://www.w3.org/1999/xlink">
<g id="graph0" class="graph" transform="scale(1 1) rotate(0) translate(4 464.81)">
<polygon fill="white" stroke="transparent" points="-4,4 -4,-464.81 556.3,-464.81 556.3,4 -4,4"/>
<g id="clust1" class="cluster">
<title>cluster64 x 10</title>
<path fill="none" stroke="black" d="M158.3,-243.91C158.3,-243.91 248.3,-243.91 248.3,-243.91 254.3,-243.91 260.3,-249.91 260.3,-255.91 260.3,-255.91 260.3,-345.86 260.3,-345.86 260.3,-351.86 254.3,-357.86 248.3,-357.86 248.3,-357.86 158.3,-357.86 158.3,-357.86 152.3,-357.86 146.3,-351.86 146.3,-345.86 146.3,-345.86 146.3,-255.91 146.3,-255.91 146.3,-249.91 152.3,-243.91 158.3,-243.91"/>
<text text-anchor="middle" x="225.3" y="-251.71" font-family="Times-Roman" font-size="14.00">64 x 10</text>
</g>
<g id="clust2" class="cluster">
<title>cluster4</title>
<path fill="none" stroke="black" d="M280.3,-243.91C280.3,-243.91 370.3,-243.91 370.3,-243.91 376.3,-243.91 382.3,-249.91 382.3,-255.91 382.3,-255.91 382.3,-345.86 382.3,-345.86 382.3,-351.86 376.3,-357.86 370.3,-357.86 370.3,-357.86 280.3,-357.86 280.3,-357.86 274.3,-357.86 268.3,-351.86 268.3,-345.86 268.3,-345.86 268.3,-255.91 268.3,-255.91 268.3,-249.91 274.3,-243.91 280.3,-243.91"/>
<text text-anchor="middle" x="369.3" y="-251.71" font-family="Times-Roman" font-size="14.00">4</text>
</g>
<g id="clust3" class="cluster">
<title>cluster1,443</title>
<path fill="none" stroke="black" d="M266.3,-8C266.3,-8 370.3,-8 370.3,-8 376.3,-8 382.3,-14 382.3,-20 382.3,-20 382.3,-212.93 382.3,-212.93 382.3,-218.93 376.3,-224.93 370.3,-224.93 370.3,-224.93 266.3,-224.93 266.3,-224.93 260.3,-224.93 254.3,-218.93 254.3,-212.93 254.3,-212.93 254.3,-20 254.3,-20 254.3,-14 260.3,-8 266.3,-8"/>
<text text-anchor="middle" x="353.8" y="-15.8" font-family="Times-Roman" font-size="14.00">1,443</text>
</g>
<g id="clust4" class="cluster">
<title>cluster192</title>
<path fill="none" stroke="black" d="M402.3,-121.95C402.3,-121.95 532.3,-121.95 532.3,-121.95 538.3,-121.95 544.3,-127.95 544.3,-133.95 544.3,-133.95 544.3,-223.91 544.3,-223.91 544.3,-229.91 538.3,-235.91 532.3,-235.91 532.3,-235.91 402.3,-235.91 402.3,-235.91 396.3,-235.91 390.3,-229.91 390.3,-223.91 390.3,-223.91 390.3,-133.95 390.3,-133.95 390.3,-127.95 396.3,-121.95 402.3,-121.95"/>
<text text-anchor="middle" x="522.3" y="-129.75" font-family="Times-Roman" font-size="14.00">192</text>
</g>
<!-- σ_α -->
<g id="node1" class="node">
<title>σ_α</title>
<ellipse fill="none" stroke="black" cx="69.3" cy="-423.34" rx="69.09" ry="37.45"/>
<text text-anchor="middle" x="69.3" y="-434.64" font-family="Times-Roman" font-size="14.00">σ_α</text>
<text text-anchor="middle" x="69.3" y="-419.64" font-family="Times-Roman" font-size="14.00">~</text>
<text text-anchor="middle" x="69.3" y="-404.64" font-family="Times-Roman" font-size="14.00">HalfNormal</text>
</g>
<!-- α -->
<g id="node6" class="node">
<title>α</title>
<ellipse fill="none" stroke="black" cx="203.3" cy="-312.38" rx="48.58" ry="37.45"/>
<text text-anchor="middle" x="203.3" y="-323.68" font-family="Times-Roman" font-size="14.00">α</text>
<text text-anchor="middle" x="203.3" y="-308.68" font-family="Times-Roman" font-size="14.00">~</text>
<text text-anchor="middle" x="203.3" y="-293.68" font-family="Times-Roman" font-size="14.00">Normal</text>
</g>
<!-- σ_α&#45;&gt;α -->
<g id="edge2" class="edge">
<title>σ_α&#45;&gt;α</title>
<path fill="none" stroke="black" d="M106.98,-391.7C124.16,-377.72 144.55,-361.15 162.14,-346.85"/>
<polygon fill="black" stroke="black" points="164.45,-349.48 170,-340.46 160.03,-344.05 164.45,-349.48"/>
</g>
<!-- μ_α -->
<g id="node2" class="node">
<title>μ_α</title>
<ellipse fill="none" stroke="black" cx="205.3" cy="-423.34" rx="48.58" ry="37.45"/>
<text text-anchor="middle" x="205.3" y="-434.64" font-family="Times-Roman" font-size="14.00">μ_α</text>
<text text-anchor="middle" x="205.3" y="-419.64" font-family="Times-Roman" font-size="14.00">~</text>
<text text-anchor="middle" x="205.3" y="-404.64" font-family="Times-Roman" font-size="14.00">Normal</text>
</g>
<!-- μ_α&#45;&gt;α -->
<g id="edge1" class="edge">
<title>μ_α&#45;&gt;α</title>
<path fill="none" stroke="black" d="M204.62,-385.75C204.47,-377.58 204.31,-368.8 204.16,-360.27"/>
<polygon fill="black" stroke="black" points="207.65,-359.99 203.97,-350.06 200.65,-360.12 207.65,-359.99"/>
</g>
<!-- μ_η -->
<g id="node3" class="node">
<title>μ_η</title>
<ellipse fill="none" stroke="black" cx="324.3" cy="-423.34" rx="48.58" ry="37.45"/>
<text text-anchor="middle" x="324.3" y="-434.64" font-family="Times-Roman" font-size="14.00">μ_η</text>
<text text-anchor="middle" x="324.3" y="-419.64" font-family="Times-Roman" font-size="14.00">~</text>
<text text-anchor="middle" x="324.3" y="-404.64" font-family="Times-Roman" font-size="14.00">Normal</text>
</g>
<!-- η -->
<g id="node7" class="node">
<title>η</title>
<ellipse fill="none" stroke="black" cx="325.3" cy="-312.38" rx="48.58" ry="37.45"/>
<text text-anchor="middle" x="325.3" y="-323.68" font-family="Times-Roman" font-size="14.00">η</text>
<text text-anchor="middle" x="325.3" y="-308.68" font-family="Times-Roman" font-size="14.00">~</text>
<text text-anchor="middle" x="325.3" y="-293.68" font-family="Times-Roman" font-size="14.00">Normal</text>
</g>
<!-- μ_η&#45;&gt;η -->
<g id="edge4" class="edge">
<title>μ_η&#45;&gt;η</title>
<path fill="none" stroke="black" d="M324.63,-385.75C324.71,-377.58 324.79,-368.8 324.87,-360.27"/>
<polygon fill="black" stroke="black" points="328.37,-360.09 324.96,-350.06 321.37,-360.02 328.37,-360.09"/>
</g>
<!-- σ_σ -->
<g id="node4" class="node">
<title>σ_σ</title>
<ellipse fill="none" stroke="black" cx="467.3" cy="-312.38" rx="69.09" ry="37.45"/>
<text text-anchor="middle" x="467.3" y="-323.68" font-family="Times-Roman" font-size="14.00">σ_σ</text>
<text text-anchor="middle" x="467.3" y="-308.68" font-family="Times-Roman" font-size="14.00">~</text>
<text text-anchor="middle" x="467.3" y="-293.68" font-family="Times-Roman" font-size="14.00">HalfNormal</text>
</g>
<!-- σ -->
<g id="node10" class="node">
<title>σ</title>
<ellipse fill="none" stroke="black" cx="467.3" cy="-190.43" rx="69.09" ry="37.45"/>
<text text-anchor="middle" x="467.3" y="-201.73" font-family="Times-Roman" font-size="14.00">σ</text>
<text text-anchor="middle" x="467.3" y="-186.73" font-family="Times-Roman" font-size="14.00">~</text>
<text text-anchor="middle" x="467.3" y="-171.73" font-family="Times-Roman" font-size="14.00">HalfNormal</text>
</g>
<!-- σ_σ&#45;&gt;σ -->
<g id="edge7" class="edge">
<title>σ_σ&#45;&gt;σ</title>
<path fill="none" stroke="black" d="M467.3,-274.74C467.3,-263.34 467.3,-250.6 467.3,-238.58"/>
<polygon fill="black" stroke="black" points="470.8,-238.26 467.3,-228.26 463.8,-238.26 470.8,-238.26"/>
</g>
<!-- σ_η -->
<g id="node5" class="node">
<title>σ_η</title>
<ellipse fill="none" stroke="black" cx="460.3" cy="-423.34" rx="69.09" ry="37.45"/>
<text text-anchor="middle" x="460.3" y="-434.64" font-family="Times-Roman" font-size="14.00">σ_η</text>
<text text-anchor="middle" x="460.3" y="-419.64" font-family="Times-Roman" font-size="14.00">~</text>
<text text-anchor="middle" x="460.3" y="-404.64" font-family="Times-Roman" font-size="14.00">HalfNormal</text>
</g>
<!-- σ_η&#45;&gt;η -->
<g id="edge3" class="edge">
<title>σ_η&#45;&gt;η</title>
<path fill="none" stroke="black" d="M422.33,-391.7C404.88,-377.62 384.16,-360.89 366.35,-346.51"/>
<polygon fill="black" stroke="black" points="368.37,-343.65 358.39,-340.09 363.97,-349.1 368.37,-343.65"/>
</g>
<!-- μ -->
<g id="node8" class="node">
<title>μ</title>
<polygon fill="none" stroke="black" points="374.3,-216.93 262.3,-216.93 262.3,-163.93 374.3,-163.93 374.3,-216.93"/>
<text text-anchor="middle" x="318.3" y="-201.73" font-family="Times-Roman" font-size="14.00">μ</text>
<text text-anchor="middle" x="318.3" y="-186.73" font-family="Times-Roman" font-size="14.00">~</text>
<text text-anchor="middle" x="318.3" y="-171.73" font-family="Times-Roman" font-size="14.00">Deterministic</text>
</g>
<!-- α&#45;&gt;μ -->
<g id="edge6" class="edge">
<title>α&#45;&gt;μ</title>
<path fill="none" stroke="black" d="M230.22,-280.77C240.69,-269.08 252.89,-255.73 264.3,-243.91 270.49,-237.48 277.23,-230.75 283.77,-224.34"/>
<polygon fill="black" stroke="black" points="286.59,-226.47 291.32,-216.98 281.71,-221.45 286.59,-226.47"/>
</g>
<!-- η&#45;&gt;μ -->
<g id="edge5" class="edge">
<title>η&#45;&gt;μ</title>
<path fill="none" stroke="black" d="M323.16,-274.74C322.28,-259.77 321.28,-242.51 320.41,-227.59"/>
<polygon fill="black" stroke="black" points="323.88,-226.98 319.8,-217.2 316.89,-227.39 323.88,-226.98"/>
</g>
<!-- lfc -->
<g id="node9" class="node">
<title>lfc</title>
<ellipse fill="lightgrey" stroke="black" cx="321.3" cy="-76.48" rx="48.58" ry="37.45"/>
<text text-anchor="middle" x="321.3" y="-87.78" font-family="Times-Roman" font-size="14.00">lfc</text>
<text text-anchor="middle" x="321.3" y="-72.78" font-family="Times-Roman" font-size="14.00">~</text>
<text text-anchor="middle" x="321.3" y="-57.78" font-family="Times-Roman" font-size="14.00">Normal</text>
</g>
<!-- μ&#45;&gt;lfc -->
<g id="edge9" class="edge">
<title>μ&#45;&gt;lfc</title>
<path fill="none" stroke="black" d="M318.98,-163.75C319.3,-152.02 319.68,-137.75 320.04,-124.22"/>
<polygon fill="black" stroke="black" points="323.55,-124.16 320.32,-114.07 316.55,-123.98 323.55,-124.16"/>
</g>
<!-- σ&#45;&gt;lfc -->
<g id="edge8" class="edge">
<title>σ&#45;&gt;lfc</title>
<path fill="none" stroke="black" d="M431.2,-158.12C417.38,-146.47 401.33,-133.32 386.3,-121.95 379.93,-117.14 373.09,-112.21 366.32,-107.47"/>
<polygon fill="black" stroke="black" points="368.04,-104.4 357.83,-101.58 364.05,-110.15 368.04,-104.4"/>
</g>
</g>
</svg>
