<?xml version="1.0" encoding="UTF-8" standalone="no"?>
<!DOCTYPE svg PUBLIC "-//W3C//DTD SVG 1.1//EN"
 "http://www.w3.org/Graphics/SVG/1.1/DTD/svg11.dtd">
<!-- Generated by graphviz version 2.48.0 (0)
 -->
<!-- Pages: 1 -->
<svg width="516pt" height="636pt"
 viewBox="0.00 0.00 516.12 635.81" xmlns="http://www.w3.org/2000/svg" xmlns:xlink="http://www.w3.org/1999/xlink">
<g id="graph0" class="graph" transform="scale(1 1) rotate(0) translate(4 631.81)">
<polygon fill="white" stroke="transparent" points="-4,4 -4,-631.81 512.12,-631.81 512.12,4 -4,4"/>
<g id="clust1" class="cluster">
<title>cluster2,384</title>
<path fill="none" stroke="black" d="M140.4,-8C140.4,-8 337.4,-8 337.4,-8 343.4,-8 349.4,-14 349.4,-20 349.4,-20 349.4,-501.88 349.4,-501.88 349.4,-507.88 343.4,-513.88 337.4,-513.88 337.4,-513.88 140.4,-513.88 140.4,-513.88 134.4,-513.88 128.4,-507.88 128.4,-501.88 128.4,-501.88 128.4,-20 128.4,-20 128.4,-14 134.4,-8 140.4,-8"/>
<text text-anchor="middle" x="325.4" y="-15.8" font-family="Times,serif" font-size="14.00">2,384</text>
</g>
<g id="clust2" class="cluster">
<title>cluster114</title>
<path fill="none" stroke="black" d="M369.4,-410.91C369.4,-410.91 445.4,-410.91 445.4,-410.91 451.4,-410.91 457.4,-416.91 457.4,-422.91 457.4,-422.91 457.4,-512.86 457.4,-512.86 457.4,-518.86 451.4,-524.86 445.4,-524.86 445.4,-524.86 369.4,-524.86 369.4,-524.86 363.4,-524.86 357.4,-518.86 357.4,-512.86 357.4,-512.86 357.4,-422.91 357.4,-422.91 357.4,-416.91 363.4,-410.91 369.4,-410.91"/>
<text text-anchor="middle" x="438.9" y="-418.71" font-family="Times,serif" font-size="14.00">114</text>
</g>
<!-- μ -->
<g id="node1" class="node">
<title>μ</title>
<polygon fill="none" stroke="black" points="340.9,-302.93 247.9,-302.93 247.9,-249.93 340.9,-249.93 340.9,-302.93"/>
<text text-anchor="middle" x="294.4" y="-287.73" font-family="Times,serif" font-size="14.00">μ</text>
<text text-anchor="middle" x="294.4" y="-272.73" font-family="Times,serif" font-size="14.00">~</text>
<text text-anchor="middle" x="294.4" y="-257.73" font-family="Times,serif" font-size="14.00">Deterministic</text>
</g>
<!-- y -->
<g id="node3" class="node">
<title>y</title>
<ellipse fill="lightgrey" stroke="black" cx="220.4" cy="-165.48" rx="84.29" ry="37.45"/>
<text text-anchor="middle" x="220.4" y="-176.78" font-family="Times,serif" font-size="14.00">y</text>
<text text-anchor="middle" x="220.4" y="-161.78" font-family="Times,serif" font-size="14.00">~</text>
<text text-anchor="middle" x="220.4" y="-146.78" font-family="Times,serif" font-size="14.00">NegativeBinomial</text>
</g>
<!-- μ&#45;&gt;y -->
<g id="edge7" class="edge">
<title>μ&#45;&gt;y</title>
<path fill="none" stroke="black" d="M277.05,-249.89C269.06,-238.12 259.35,-223.82 250.24,-210.41"/>
<polygon fill="black" stroke="black" points="252.87,-208.06 244.36,-201.76 247.08,-212 252.87,-208.06"/>
</g>
<!-- counts_final -->
<g id="node2" class="node">
<title>counts_final</title>
<path fill="lightgrey" stroke="black" d="M250.9,-92C250.9,-92 189.9,-92 189.9,-92 183.9,-92 177.9,-86 177.9,-80 177.9,-80 177.9,-51 177.9,-51 177.9,-45 183.9,-39 189.9,-39 189.9,-39 250.9,-39 250.9,-39 256.9,-39 262.9,-45 262.9,-51 262.9,-51 262.9,-80 262.9,-80 262.9,-86 256.9,-92 250.9,-92"/>
<text text-anchor="middle" x="220.4" y="-76.8" font-family="Times,serif" font-size="14.00">counts_final</text>
<text text-anchor="middle" x="220.4" y="-61.8" font-family="Times,serif" font-size="14.00">~</text>
<text text-anchor="middle" x="220.4" y="-46.8" font-family="Times,serif" font-size="14.00">Data</text>
</g>
<!-- y&#45;&gt;counts_final -->
<g id="edge1" class="edge">
<title>y&#45;&gt;counts_final</title>
<path fill="none" stroke="black" d="M220.4,-127.99C220.4,-119.58 220.4,-110.63 220.4,-102.25"/>
<polygon fill="black" stroke="black" points="223.9,-102.01 220.4,-92.01 216.9,-102.01 223.9,-102.01"/>
</g>
<!-- η -->
<g id="node4" class="node">
<title>η</title>
<polygon fill="none" stroke="black" points="340.9,-402.91 247.9,-402.91 247.9,-349.91 340.9,-349.91 340.9,-402.91"/>
<text text-anchor="middle" x="294.4" y="-387.71" font-family="Times,serif" font-size="14.00">η</text>
<text text-anchor="middle" x="294.4" y="-372.71" font-family="Times,serif" font-size="14.00">~</text>
<text text-anchor="middle" x="294.4" y="-357.71" font-family="Times,serif" font-size="14.00">Deterministic</text>
</g>
<!-- η&#45;&gt;μ -->
<g id="edge6" class="edge">
<title>η&#45;&gt;μ</title>
<path fill="none" stroke="black" d="M294.4,-349.66C294.4,-338.53 294.4,-325.3 294.4,-313.23"/>
<polygon fill="black" stroke="black" points="297.9,-313 294.4,-303 290.9,-313 297.9,-313"/>
</g>
<!-- gene_idx -->
<g id="node5" class="node">
<title>gene_idx</title>
<path fill="lightgrey" stroke="black" d="M316.4,-505.88C316.4,-505.88 272.4,-505.88 272.4,-505.88 266.4,-505.88 260.4,-499.88 260.4,-493.88 260.4,-493.88 260.4,-464.88 260.4,-464.88 260.4,-458.88 266.4,-452.88 272.4,-452.88 272.4,-452.88 316.4,-452.88 316.4,-452.88 322.4,-452.88 328.4,-458.88 328.4,-464.88 328.4,-464.88 328.4,-493.88 328.4,-493.88 328.4,-499.88 322.4,-505.88 316.4,-505.88"/>
<text text-anchor="middle" x="294.4" y="-490.68" font-family="Times,serif" font-size="14.00">gene_idx</text>
<text text-anchor="middle" x="294.4" y="-475.68" font-family="Times,serif" font-size="14.00">~</text>
<text text-anchor="middle" x="294.4" y="-460.68" font-family="Times,serif" font-size="14.00">Data</text>
</g>
<!-- gene_idx&#45;&gt;η -->
<g id="edge4" class="edge">
<title>gene_idx&#45;&gt;η</title>
<path fill="none" stroke="black" d="M294.4,-452.64C294.4,-440.65 294.4,-426.19 294.4,-413.17"/>
<polygon fill="black" stroke="black" points="297.9,-413.1 294.4,-403.1 290.9,-413.1 297.9,-413.1"/>
</g>
<!-- counts_initial -->
<g id="node6" class="node">
<title>counts_initial</title>
<path fill="lightgrey" stroke="black" d="M217.9,-302.93C217.9,-302.93 148.9,-302.93 148.9,-302.93 142.9,-302.93 136.9,-296.93 136.9,-290.93 136.9,-290.93 136.9,-261.93 136.9,-261.93 136.9,-255.93 142.9,-249.93 148.9,-249.93 148.9,-249.93 217.9,-249.93 217.9,-249.93 223.9,-249.93 229.9,-255.93 229.9,-261.93 229.9,-261.93 229.9,-290.93 229.9,-290.93 229.9,-296.93 223.9,-302.93 217.9,-302.93"/>
<text text-anchor="middle" x="183.4" y="-287.73" font-family="Times,serif" font-size="14.00">counts_initial</text>
<text text-anchor="middle" x="183.4" y="-272.73" font-family="Times,serif" font-size="14.00">~</text>
<text text-anchor="middle" x="183.4" y="-257.73" font-family="Times,serif" font-size="14.00">Data</text>
</g>
<!-- counts_initial&#45;&gt;y -->
<g id="edge8" class="edge">
<title>counts_initial&#45;&gt;y</title>
<path fill="none" stroke="black" d="M192.07,-249.89C195.88,-238.66 200.48,-225.12 204.85,-212.25"/>
<polygon fill="black" stroke="black" points="208.23,-213.18 208.13,-202.59 201.6,-210.93 208.23,-213.18"/>
</g>
<!-- α -->
<g id="node7" class="node">
<title>α</title>
<ellipse fill="none" stroke="black" cx="59.4" cy="-276.43" rx="59.29" ry="37.45"/>
<text text-anchor="middle" x="59.4" y="-287.73" font-family="Times,serif" font-size="14.00">α</text>
<text text-anchor="middle" x="59.4" y="-272.73" font-family="Times,serif" font-size="14.00">~</text>
<text text-anchor="middle" x="59.4" y="-257.73" font-family="Times,serif" font-size="14.00">HalfNormal</text>
</g>
<!-- α&#45;&gt;y -->
<g id="edge9" class="edge">
<title>α&#45;&gt;y</title>
<path fill="none" stroke="black" d="M99.19,-248.5C119.59,-234.7 144.71,-217.69 166.79,-202.75"/>
<polygon fill="black" stroke="black" points="168.77,-205.64 175.09,-197.14 164.84,-199.85 168.77,-205.64"/>
</g>
<!-- σ_β -->
<g id="node8" class="node">
<title>σ_β</title>
<ellipse fill="none" stroke="black" cx="347.4" cy="-590.34" rx="59.29" ry="37.45"/>
<text text-anchor="middle" x="347.4" y="-601.64" font-family="Times,serif" font-size="14.00">σ_β</text>
<text text-anchor="middle" x="347.4" y="-586.64" font-family="Times,serif" font-size="14.00">~</text>
<text text-anchor="middle" x="347.4" y="-571.64" font-family="Times,serif" font-size="14.00">HalfNormal</text>
</g>
<!-- β_g -->
<g id="node10" class="node">
<title>β_g</title>
<ellipse fill="none" stroke="black" cx="407.4" cy="-479.38" rx="41.94" ry="37.45"/>
<text text-anchor="middle" x="407.4" y="-490.68" font-family="Times,serif" font-size="14.00">β_g</text>
<text text-anchor="middle" x="407.4" y="-475.68" font-family="Times,serif" font-size="14.00">~</text>
<text text-anchor="middle" x="407.4" y="-460.68" font-family="Times,serif" font-size="14.00">Normal</text>
</g>
<!-- σ_β&#45;&gt;β_g -->
<g id="edge2" class="edge">
<title>σ_β&#45;&gt;β_g</title>
<path fill="none" stroke="black" d="M366.55,-554.56C372.23,-544.25 378.51,-532.85 384.4,-522.14"/>
<polygon fill="black" stroke="black" points="387.49,-523.79 389.25,-513.34 381.36,-520.41 387.49,-523.79"/>
</g>
<!-- μ_β -->
<g id="node9" class="node">
<title>μ_β</title>
<ellipse fill="none" stroke="black" cx="466.4" cy="-590.34" rx="41.94" ry="37.45"/>
<text text-anchor="middle" x="466.4" y="-601.64" font-family="Times,serif" font-size="14.00">μ_β</text>
<text text-anchor="middle" x="466.4" y="-586.64" font-family="Times,serif" font-size="14.00">~</text>
<text text-anchor="middle" x="466.4" y="-571.64" font-family="Times,serif" font-size="14.00">Normal</text>
</g>
<!-- μ_β&#45;&gt;β_g -->
<g id="edge3" class="edge">
<title>μ_β&#45;&gt;β_g</title>
<path fill="none" stroke="black" d="M448.53,-556.35C442.75,-545.68 436.26,-533.69 430.18,-522.45"/>
<polygon fill="black" stroke="black" points="433.24,-520.76 425.4,-513.63 427.09,-524.09 433.24,-520.76"/>
</g>
<!-- β_g&#45;&gt;η -->
<g id="edge5" class="edge">
<title>β_g&#45;&gt;η</title>
<path fill="none" stroke="black" d="M386.23,-447C377.05,-434.82 365.61,-421.32 353.4,-410.91 352.07,-409.78 350.7,-408.67 349.3,-407.58"/>
<polygon fill="black" stroke="black" points="351.12,-404.57 340.96,-401.56 347.02,-410.25 351.12,-404.57"/>
</g>
</g>
</svg>
