<?xml version="1.0" encoding="UTF-8" standalone="no"?>
<!DOCTYPE svg PUBLIC "-//W3C//DTD SVG 1.1//EN"
 "http://www.w3.org/Graphics/SVG/1.1/DTD/svg11.dtd">
<!-- Generated by graphviz version 2.48.0 (0)
 -->
<!-- Pages: 1 -->
<svg width="1061pt" height="630pt"
 viewBox="0.00 0.00 1060.79 629.86" xmlns="http://www.w3.org/2000/svg" xmlns:xlink="http://www.w3.org/1999/xlink">
<g id="graph0" class="graph" transform="scale(1 1) rotate(0) translate(4 625.86)">
<polygon fill="white" stroke="transparent" points="-4,4 -4,-625.86 1056.79,-625.86 1056.79,4 -4,4"/>
<g id="clust1" class="cluster">
<title>cluster2,384</title>
<path fill="none" stroke="black" d="M140.4,-8C140.4,-8 337.4,-8 337.4,-8 343.4,-8 349.4,-14 349.4,-20 349.4,-20 349.4,-490.91 349.4,-490.91 349.4,-496.91 343.4,-502.91 337.4,-502.91 337.4,-502.91 140.4,-502.91 140.4,-502.91 134.4,-502.91 128.4,-496.91 128.4,-490.91 128.4,-490.91 128.4,-20 128.4,-20 128.4,-14 134.4,-8 140.4,-8"/>
<text text-anchor="middle" x="325.4" y="-15.8" font-family="Times,serif" font-size="14.00">2,384</text>
</g>
<g id="clust2" class="cluster">
<title>cluster114</title>
<path fill="none" stroke="black" d="M369.4,-410.91C369.4,-410.91 566.4,-410.91 566.4,-410.91 572.4,-410.91 578.4,-416.91 578.4,-422.91 578.4,-422.91 578.4,-601.86 578.4,-601.86 578.4,-607.86 572.4,-613.86 566.4,-613.86 566.4,-613.86 369.4,-613.86 369.4,-613.86 363.4,-613.86 357.4,-607.86 357.4,-601.86 357.4,-601.86 357.4,-422.91 357.4,-422.91 357.4,-416.91 363.4,-410.91 369.4,-410.91"/>
<text text-anchor="middle" x="559.9" y="-418.71" font-family="Times,serif" font-size="14.00">114</text>
</g>
<!-- μ -->
<g id="node1" class="node">
<title>μ</title>
<polygon fill="none" stroke="black" points="340.9,-302.93 247.9,-302.93 247.9,-249.93 340.9,-249.93 340.9,-302.93"/>
<text text-anchor="middle" x="294.4" y="-287.73" font-family="Times,serif" font-size="14.00">μ</text>
<text text-anchor="middle" x="294.4" y="-272.73" font-family="Times,serif" font-size="14.00">~</text>
<text text-anchor="middle" x="294.4" y="-257.73" font-family="Times,serif" font-size="14.00">Deterministic</text>
</g>
<!-- y -->
<g id="node3" class="node">
<title>y</title>
<ellipse fill="lightgrey" stroke="black" cx="220.4" cy="-165.48" rx="84.29" ry="37.45"/>
<text text-anchor="middle" x="220.4" y="-176.78" font-family="Times,serif" font-size="14.00">y</text>
<text text-anchor="middle" x="220.4" y="-161.78" font-family="Times,serif" font-size="14.00">~</text>
<text text-anchor="middle" x="220.4" y="-146.78" font-family="Times,serif" font-size="14.00">NegativeBinomial</text>
</g>
<!-- μ&#45;&gt;y -->
<g id="edge13" class="edge">
<title>μ&#45;&gt;y</title>
<path fill="none" stroke="black" d="M277.05,-249.89C269.06,-238.12 259.35,-223.82 250.24,-210.41"/>
<polygon fill="black" stroke="black" points="252.87,-208.06 244.36,-201.76 247.08,-212 252.87,-208.06"/>
</g>
<!-- counts_final -->
<g id="node2" class="node">
<title>counts_final</title>
<path fill="lightgrey" stroke="black" d="M250.9,-92C250.9,-92 189.9,-92 189.9,-92 183.9,-92 177.9,-86 177.9,-80 177.9,-80 177.9,-51 177.9,-51 177.9,-45 183.9,-39 189.9,-39 189.9,-39 250.9,-39 250.9,-39 256.9,-39 262.9,-45 262.9,-51 262.9,-51 262.9,-80 262.9,-80 262.9,-86 256.9,-92 250.9,-92"/>
<text text-anchor="middle" x="220.4" y="-76.8" font-family="Times,serif" font-size="14.00">counts_final</text>
<text text-anchor="middle" x="220.4" y="-61.8" font-family="Times,serif" font-size="14.00">~</text>
<text text-anchor="middle" x="220.4" y="-46.8" font-family="Times,serif" font-size="14.00">Data</text>
</g>
<!-- y&#45;&gt;counts_final -->
<g id="edge1" class="edge">
<title>y&#45;&gt;counts_final</title>
<path fill="none" stroke="black" d="M220.4,-127.99C220.4,-119.58 220.4,-110.63 220.4,-102.25"/>
<polygon fill="black" stroke="black" points="223.9,-102.01 220.4,-92.01 216.9,-102.01 223.9,-102.01"/>
</g>
<!-- x_cna -->
<g id="node4" class="node">
<title>x_cna</title>
<path fill="lightgrey" stroke="black" d="M319.4,-494.91C319.4,-494.91 289.4,-494.91 289.4,-494.91 283.4,-494.91 277.4,-488.91 277.4,-482.91 277.4,-482.91 277.4,-453.91 277.4,-453.91 277.4,-447.91 283.4,-441.91 289.4,-441.91 289.4,-441.91 319.4,-441.91 319.4,-441.91 325.4,-441.91 331.4,-447.91 331.4,-453.91 331.4,-453.91 331.4,-482.91 331.4,-482.91 331.4,-488.91 325.4,-494.91 319.4,-494.91"/>
<text text-anchor="middle" x="304.4" y="-479.71" font-family="Times,serif" font-size="14.00">x_cna</text>
<text text-anchor="middle" x="304.4" y="-464.71" font-family="Times,serif" font-size="14.00">~</text>
<text text-anchor="middle" x="304.4" y="-449.71" font-family="Times,serif" font-size="14.00">Data</text>
</g>
<!-- η -->
<g id="node5" class="node">
<title>η</title>
<polygon fill="none" stroke="black" points="340.9,-402.91 247.9,-402.91 247.9,-349.91 340.9,-349.91 340.9,-402.91"/>
<text text-anchor="middle" x="294.4" y="-387.71" font-family="Times,serif" font-size="14.00">η</text>
<text text-anchor="middle" x="294.4" y="-372.71" font-family="Times,serif" font-size="14.00">~</text>
<text text-anchor="middle" x="294.4" y="-357.71" font-family="Times,serif" font-size="14.00">Deterministic</text>
</g>
<!-- x_cna&#45;&gt;η -->
<g id="edge8" class="edge">
<title>x_cna&#45;&gt;η</title>
<path fill="none" stroke="black" d="M301.56,-441.86C300.57,-432.93 299.43,-422.73 298.37,-413.12"/>
<polygon fill="black" stroke="black" points="301.83,-412.57 297.24,-403.02 294.87,-413.35 301.83,-412.57"/>
</g>
<!-- η&#45;&gt;μ -->
<g id="edge12" class="edge">
<title>η&#45;&gt;μ</title>
<path fill="none" stroke="black" d="M294.4,-349.66C294.4,-338.53 294.4,-325.3 294.4,-313.23"/>
<polygon fill="black" stroke="black" points="297.9,-313 294.4,-303 290.9,-313 297.9,-313"/>
</g>
<!-- g -->
<g id="node6" class="node">
<title>g</title>
<path fill="lightgrey" stroke="black" d="M247.4,-494.91C247.4,-494.91 217.4,-494.91 217.4,-494.91 211.4,-494.91 205.4,-488.91 205.4,-482.91 205.4,-482.91 205.4,-453.91 205.4,-453.91 205.4,-447.91 211.4,-441.91 217.4,-441.91 217.4,-441.91 247.4,-441.91 247.4,-441.91 253.4,-441.91 259.4,-447.91 259.4,-453.91 259.4,-453.91 259.4,-482.91 259.4,-482.91 259.4,-488.91 253.4,-494.91 247.4,-494.91"/>
<text text-anchor="middle" x="232.4" y="-479.71" font-family="Times,serif" font-size="14.00">g</text>
<text text-anchor="middle" x="232.4" y="-464.71" font-family="Times,serif" font-size="14.00">~</text>
<text text-anchor="middle" x="232.4" y="-449.71" font-family="Times,serif" font-size="14.00">Data</text>
</g>
<!-- g&#45;&gt;η -->
<g id="edge9" class="edge">
<title>g&#45;&gt;η</title>
<path fill="none" stroke="black" d="M248.03,-441.76C253.17,-433.58 259.08,-424.43 268.22,-411.36"/>
<polygon fill="black" stroke="black" points="271.08,-413.38 274,-403.2 265.37,-409.34 271.08,-413.38"/>
</g>
<!-- counts_initial -->
<g id="node7" class="node">
<title>counts_initial</title>
<path fill="lightgrey" stroke="black" d="M217.9,-302.93C217.9,-302.93 148.9,-302.93 148.9,-302.93 142.9,-302.93 136.9,-296.93 136.9,-290.93 136.9,-290.93 136.9,-261.93 136.9,-261.93 136.9,-255.93 142.9,-249.93 148.9,-249.93 148.9,-249.93 217.9,-249.93 217.9,-249.93 223.9,-249.93 229.9,-255.93 229.9,-261.93 229.9,-261.93 229.9,-290.93 229.9,-290.93 229.9,-296.93 223.9,-302.93 217.9,-302.93"/>
<text text-anchor="middle" x="183.4" y="-287.73" font-family="Times,serif" font-size="14.00">counts_initial</text>
<text text-anchor="middle" x="183.4" y="-272.73" font-family="Times,serif" font-size="14.00">~</text>
<text text-anchor="middle" x="183.4" y="-257.73" font-family="Times,serif" font-size="14.00">Data</text>
</g>
<!-- counts_initial&#45;&gt;y -->
<g id="edge14" class="edge">
<title>counts_initial&#45;&gt;y</title>
<path fill="none" stroke="black" d="M192.07,-249.89C195.88,-238.66 200.48,-225.12 204.85,-212.25"/>
<polygon fill="black" stroke="black" points="208.23,-213.18 208.13,-202.59 201.6,-210.93 208.23,-213.18"/>
</g>
<!-- σ_β_0 -->
<g id="node8" class="node">
<title>σ_β_0</title>
<ellipse fill="none" stroke="black" cx="645.4" cy="-568.38" rx="59.29" ry="37.45"/>
<text text-anchor="middle" x="645.4" y="-579.68" font-family="Times,serif" font-size="14.00">σ_β_0</text>
<text text-anchor="middle" x="645.4" y="-564.68" font-family="Times,serif" font-size="14.00">~</text>
<text text-anchor="middle" x="645.4" y="-549.68" font-family="Times,serif" font-size="14.00">HalfNormal</text>
</g>
<!-- β_0 -->
<g id="node13" class="node">
<title>β_0</title>
<polygon fill="none" stroke="black" points="458.9,-494.91 365.9,-494.91 365.9,-441.91 458.9,-441.91 458.9,-494.91"/>
<text text-anchor="middle" x="412.4" y="-479.71" font-family="Times,serif" font-size="14.00">β_0</text>
<text text-anchor="middle" x="412.4" y="-464.71" font-family="Times,serif" font-size="14.00">~</text>
<text text-anchor="middle" x="412.4" y="-449.71" font-family="Times,serif" font-size="14.00">Deterministic</text>
</g>
<!-- σ_β_0&#45;&gt;β_0 -->
<g id="edge3" class="edge">
<title>σ_β_0&#45;&gt;β_0</title>
<path fill="none" stroke="black" d="M604.22,-541.33C597.11,-537.48 589.67,-533.83 582.4,-530.91 534,-511.42 516.65,-522.74 468.4,-502.91 465.93,-501.89 463.44,-500.78 460.95,-499.6"/>
<polygon fill="black" stroke="black" points="462.52,-496.47 452.02,-495.06 459.35,-502.71 462.52,-496.47"/>
</g>
<!-- μ_β_cna -->
<g id="node9" class="node">
<title>μ_β_cna</title>
<ellipse fill="none" stroke="black" cx="870.4" cy="-568.38" rx="45.92" ry="37.45"/>
<text text-anchor="middle" x="870.4" y="-579.68" font-family="Times,serif" font-size="14.00">μ_β_cna</text>
<text text-anchor="middle" x="870.4" y="-564.68" font-family="Times,serif" font-size="14.00">~</text>
<text text-anchor="middle" x="870.4" y="-549.68" font-family="Times,serif" font-size="14.00">Normal</text>
</g>
<!-- β_cna -->
<g id="node16" class="node">
<title>β_cna</title>
<polygon fill="none" stroke="black" points="569.9,-494.91 476.9,-494.91 476.9,-441.91 569.9,-441.91 569.9,-494.91"/>
<text text-anchor="middle" x="523.4" y="-479.71" font-family="Times,serif" font-size="14.00">β_cna</text>
<text text-anchor="middle" x="523.4" y="-464.71" font-family="Times,serif" font-size="14.00">~</text>
<text text-anchor="middle" x="523.4" y="-449.71" font-family="Times,serif" font-size="14.00">Deterministic</text>
</g>
<!-- μ_β_cna&#45;&gt;β_cna -->
<g id="edge7" class="edge">
<title>μ_β_cna&#45;&gt;β_cna</title>
<path fill="none" stroke="black" d="M836.9,-542.32C830.05,-538.02 822.69,-533.96 815.4,-530.91 737.47,-498.27 640.35,-482.26 580.09,-474.94"/>
<polygon fill="black" stroke="black" points="580.36,-471.44 570.02,-473.75 579.54,-478.39 580.36,-471.44"/>
</g>
<!-- μ_β_0 -->
<g id="node10" class="node">
<title>μ_β_0</title>
<ellipse fill="none" stroke="black" cx="764.4" cy="-568.38" rx="41.94" ry="37.45"/>
<text text-anchor="middle" x="764.4" y="-579.68" font-family="Times,serif" font-size="14.00">μ_β_0</text>
<text text-anchor="middle" x="764.4" y="-564.68" font-family="Times,serif" font-size="14.00">~</text>
<text text-anchor="middle" x="764.4" y="-549.68" font-family="Times,serif" font-size="14.00">Normal</text>
</g>
<!-- μ_β_0&#45;&gt;β_0 -->
<g id="edge2" class="edge">
<title>μ_β_0&#45;&gt;β_0</title>
<path fill="none" stroke="black" d="M734.29,-542.12C727.75,-537.72 720.61,-533.68 713.4,-530.91 611.11,-491.55 572.21,-538.05 468.4,-502.91 465.34,-501.87 462.27,-500.65 459.22,-499.3"/>
<polygon fill="black" stroke="black" points="460.74,-496.15 450.22,-494.91 457.67,-502.44 460.74,-496.15"/>
</g>
<!-- α -->
<g id="node11" class="node">
<title>α</title>
<ellipse fill="none" stroke="black" cx="59.4" cy="-276.43" rx="59.29" ry="37.45"/>
<text text-anchor="middle" x="59.4" y="-287.73" font-family="Times,serif" font-size="14.00">α</text>
<text text-anchor="middle" x="59.4" y="-272.73" font-family="Times,serif" font-size="14.00">~</text>
<text text-anchor="middle" x="59.4" y="-257.73" font-family="Times,serif" font-size="14.00">HalfNormal</text>
</g>
<!-- α&#45;&gt;y -->
<g id="edge15" class="edge">
<title>α&#45;&gt;y</title>
<path fill="none" stroke="black" d="M99.19,-248.5C119.59,-234.7 144.71,-217.69 166.79,-202.75"/>
<polygon fill="black" stroke="black" points="168.77,-205.64 175.09,-197.14 164.84,-199.85 168.77,-205.64"/>
</g>
<!-- σ_β_cna -->
<g id="node12" class="node">
<title>σ_β_cna</title>
<ellipse fill="none" stroke="black" cx="993.4" cy="-568.38" rx="59.29" ry="37.45"/>
<text text-anchor="middle" x="993.4" y="-579.68" font-family="Times,serif" font-size="14.00">σ_β_cna</text>
<text text-anchor="middle" x="993.4" y="-564.68" font-family="Times,serif" font-size="14.00">~</text>
<text text-anchor="middle" x="993.4" y="-549.68" font-family="Times,serif" font-size="14.00">HalfNormal</text>
</g>
<!-- σ_β_cna&#45;&gt;β_cna -->
<g id="edge5" class="edge">
<title>σ_β_cna&#45;&gt;β_cna</title>
<path fill="none" stroke="black" d="M951.22,-541.93C942.89,-537.72 934.04,-533.79 925.4,-530.91 806.66,-491.28 659.58,-477.05 580.36,-472.04"/>
<polygon fill="black" stroke="black" points="580.3,-468.53 570.11,-471.42 579.88,-475.51 580.3,-468.53"/>
</g>
<!-- β_0&#45;&gt;η -->
<g id="edge10" class="edge">
<title>β_0&#45;&gt;η</title>
<path fill="none" stroke="black" d="M388.36,-441.76C378.1,-431.54 365.68,-420.05 353.4,-410.91 352.19,-410.01 350.95,-409.11 349.69,-408.22"/>
<polygon fill="black" stroke="black" points="351.4,-405.16 341.15,-402.5 347.51,-410.97 351.4,-405.16"/>
</g>
<!-- Δ_β_0 -->
<g id="node14" class="node">
<title>Δ_β_0</title>
<ellipse fill="none" stroke="black" cx="412.4" cy="-568.38" rx="41.94" ry="37.45"/>
<text text-anchor="middle" x="412.4" y="-579.68" font-family="Times,serif" font-size="14.00">Δ_β_0</text>
<text text-anchor="middle" x="412.4" y="-564.68" font-family="Times,serif" font-size="14.00">~</text>
<text text-anchor="middle" x="412.4" y="-549.68" font-family="Times,serif" font-size="14.00">Normal</text>
</g>
<!-- Δ_β_0&#45;&gt;β_0 -->
<g id="edge4" class="edge">
<title>Δ_β_0&#45;&gt;β_0</title>
<path fill="none" stroke="black" d="M412.4,-530.9C412.4,-522.48 412.4,-513.54 412.4,-505.16"/>
<polygon fill="black" stroke="black" points="415.9,-504.92 412.4,-494.92 408.9,-504.92 415.9,-504.92"/>
</g>
<!-- Δ_β_cna -->
<g id="node15" class="node">
<title>Δ_β_cna</title>
<ellipse fill="none" stroke="black" cx="520.4" cy="-568.38" rx="48.17" ry="37.45"/>
<text text-anchor="middle" x="520.4" y="-579.68" font-family="Times,serif" font-size="14.00">Δ_β_cna</text>
<text text-anchor="middle" x="520.4" y="-564.68" font-family="Times,serif" font-size="14.00">~</text>
<text text-anchor="middle" x="520.4" y="-549.68" font-family="Times,serif" font-size="14.00">Normal</text>
</g>
<!-- Δ_β_cna&#45;&gt;β_cna -->
<g id="edge6" class="edge">
<title>Δ_β_cna&#45;&gt;β_cna</title>
<path fill="none" stroke="black" d="M521.51,-530.9C521.77,-522.48 522.05,-513.54 522.3,-505.16"/>
<polygon fill="black" stroke="black" points="525.81,-505.02 522.62,-494.92 518.81,-504.81 525.81,-505.02"/>
</g>
<!-- β_cna&#45;&gt;η -->
<g id="edge11" class="edge">
<title>β_cna&#45;&gt;η</title>
<path fill="none" stroke="black" d="M504.33,-441.67C494.76,-430.54 482.25,-418.38 468.4,-410.91 432.42,-391.5 386.91,-383.22 351.45,-379.74"/>
<polygon fill="black" stroke="black" points="351.54,-376.23 341.27,-378.84 350.92,-383.2 351.54,-376.23"/>
</g>
</g>
</svg>
