<?xml version="1.0" encoding="UTF-8" standalone="no"?>
<!DOCTYPE svg PUBLIC "-//W3C//DTD SVG 1.1//EN"
 "http://www.w3.org/Graphics/SVG/1.1/DTD/svg11.dtd">
<!-- Generated by graphviz version 2.48.0 (0)
 -->
<!-- Pages: 1 -->
<svg width="513pt" height="636pt"
 viewBox="0.00 0.00 513.12 635.81" xmlns="http://www.w3.org/2000/svg" xmlns:xlink="http://www.w3.org/1999/xlink">
<g id="graph0" class="graph" transform="scale(1 1) rotate(0) translate(4 631.81)">
<polygon fill="white" stroke="transparent" points="-4,4 -4,-631.81 509.12,-631.81 509.12,4 -4,4"/>
<g id="clust1" class="cluster">
<title>cluster2,384</title>
<path fill="none" stroke="black" d="M138.4,-8C138.4,-8 334.4,-8 334.4,-8 340.4,-8 346.4,-14 346.4,-20 346.4,-20 346.4,-501.88 346.4,-501.88 346.4,-507.88 340.4,-513.88 334.4,-513.88 334.4,-513.88 138.4,-513.88 138.4,-513.88 132.4,-513.88 126.4,-507.88 126.4,-501.88 126.4,-501.88 126.4,-20 126.4,-20 126.4,-14 132.4,-8 138.4,-8"/>
<text text-anchor="middle" x="322.4" y="-15.8" font-family="Times,serif" font-size="14.00">2,384</text>
</g>
<g id="clust2" class="cluster">
<title>cluster114</title>
<path fill="none" stroke="black" d="M366.4,-410.91C366.4,-410.91 442.4,-410.91 442.4,-410.91 448.4,-410.91 454.4,-416.91 454.4,-422.91 454.4,-422.91 454.4,-512.86 454.4,-512.86 454.4,-518.86 448.4,-524.86 442.4,-524.86 442.4,-524.86 366.4,-524.86 366.4,-524.86 360.4,-524.86 354.4,-518.86 354.4,-512.86 354.4,-512.86 354.4,-422.91 354.4,-422.91 354.4,-416.91 360.4,-410.91 366.4,-410.91"/>
<text text-anchor="middle" x="435.9" y="-418.71" font-family="Times,serif" font-size="14.00">114</text>
</g>
<!-- μ -->
<g id="node1" class="node">
<title>μ</title>
<polygon fill="none" stroke="black" points="303.9,-302.93 210.9,-302.93 210.9,-249.93 303.9,-249.93 303.9,-302.93"/>
<text text-anchor="middle" x="257.4" y="-287.73" font-family="Times,serif" font-size="14.00">μ</text>
<text text-anchor="middle" x="257.4" y="-272.73" font-family="Times,serif" font-size="14.00">~</text>
<text text-anchor="middle" x="257.4" y="-257.73" font-family="Times,serif" font-size="14.00">Deterministic</text>
</g>
<!-- y -->
<g id="node2" class="node">
<title>y</title>
<ellipse fill="lightgrey" stroke="black" cx="236.4" cy="-165.48" rx="84.29" ry="37.45"/>
<text text-anchor="middle" x="236.4" y="-176.78" font-family="Times,serif" font-size="14.00">y</text>
<text text-anchor="middle" x="236.4" y="-161.78" font-family="Times,serif" font-size="14.00">~</text>
<text text-anchor="middle" x="236.4" y="-146.78" font-family="Times,serif" font-size="14.00">NegativeBinomial</text>
</g>
<!-- μ&#45;&gt;y -->
<g id="edge8" class="edge">
<title>μ&#45;&gt;y</title>
<path fill="none" stroke="black" d="M252.47,-249.89C250.35,-238.87 247.8,-225.63 245.36,-212.97"/>
<polygon fill="black" stroke="black" points="248.77,-212.16 243.44,-203 241.89,-213.48 248.77,-212.16"/>
</g>
<!-- final_reads -->
<g id="node6" class="node">
<title>final_reads</title>
<path fill="lightgrey" stroke="black" d="M263.4,-92C263.4,-92 209.4,-92 209.4,-92 203.4,-92 197.4,-86 197.4,-80 197.4,-80 197.4,-51 197.4,-51 197.4,-45 203.4,-39 209.4,-39 209.4,-39 263.4,-39 263.4,-39 269.4,-39 275.4,-45 275.4,-51 275.4,-51 275.4,-80 275.4,-80 275.4,-86 269.4,-92 263.4,-92"/>
<text text-anchor="middle" x="236.4" y="-76.8" font-family="Times,serif" font-size="14.00">final_reads</text>
<text text-anchor="middle" x="236.4" y="-61.8" font-family="Times,serif" font-size="14.00">~</text>
<text text-anchor="middle" x="236.4" y="-46.8" font-family="Times,serif" font-size="14.00">Data</text>
</g>
<!-- y&#45;&gt;final_reads -->
<g id="edge1" class="edge">
<title>y&#45;&gt;final_reads</title>
<path fill="none" stroke="black" d="M236.4,-127.99C236.4,-119.58 236.4,-110.63 236.4,-102.25"/>
<polygon fill="black" stroke="black" points="239.9,-102.01 236.4,-92.01 232.9,-102.01 239.9,-102.01"/>
</g>
<!-- log_counts_initial -->
<g id="node3" class="node">
<title>log_counts_initial</title>
<path fill="lightgrey" stroke="black" d="M326.4,-505.88C326.4,-505.88 232.4,-505.88 232.4,-505.88 226.4,-505.88 220.4,-499.88 220.4,-493.88 220.4,-493.88 220.4,-464.88 220.4,-464.88 220.4,-458.88 226.4,-452.88 232.4,-452.88 232.4,-452.88 326.4,-452.88 326.4,-452.88 332.4,-452.88 338.4,-458.88 338.4,-464.88 338.4,-464.88 338.4,-493.88 338.4,-493.88 338.4,-499.88 332.4,-505.88 326.4,-505.88"/>
<text text-anchor="middle" x="279.4" y="-490.68" font-family="Times,serif" font-size="14.00">log_counts_initial</text>
<text text-anchor="middle" x="279.4" y="-475.68" font-family="Times,serif" font-size="14.00">~</text>
<text text-anchor="middle" x="279.4" y="-460.68" font-family="Times,serif" font-size="14.00">Data</text>
</g>
<!-- η -->
<g id="node4" class="node">
<title>η</title>
<polygon fill="none" stroke="black" points="314.9,-402.91 221.9,-402.91 221.9,-349.91 314.9,-349.91 314.9,-402.91"/>
<text text-anchor="middle" x="268.4" y="-387.71" font-family="Times,serif" font-size="14.00">η</text>
<text text-anchor="middle" x="268.4" y="-372.71" font-family="Times,serif" font-size="14.00">~</text>
<text text-anchor="middle" x="268.4" y="-357.71" font-family="Times,serif" font-size="14.00">Deterministic</text>
</g>
<!-- log_counts_initial&#45;&gt;η -->
<g id="edge5" class="edge">
<title>log_counts_initial&#45;&gt;η</title>
<path fill="none" stroke="black" d="M276.59,-452.64C275.29,-440.65 273.71,-426.19 272.29,-413.17"/>
<polygon fill="black" stroke="black" points="275.76,-412.66 271.2,-403.1 268.8,-413.42 275.76,-412.66"/>
</g>
<!-- η&#45;&gt;μ -->
<g id="edge7" class="edge">
<title>η&#45;&gt;μ</title>
<path fill="none" stroke="black" d="M265.51,-349.66C264.26,-338.53 262.77,-325.3 261.42,-313.23"/>
<polygon fill="black" stroke="black" points="264.86,-312.55 260.27,-303 257.91,-313.33 264.86,-312.55"/>
</g>
<!-- gene_idx -->
<g id="node5" class="node">
<title>gene_idx</title>
<path fill="lightgrey" stroke="black" d="M190.4,-505.88C190.4,-505.88 146.4,-505.88 146.4,-505.88 140.4,-505.88 134.4,-499.88 134.4,-493.88 134.4,-493.88 134.4,-464.88 134.4,-464.88 134.4,-458.88 140.4,-452.88 146.4,-452.88 146.4,-452.88 190.4,-452.88 190.4,-452.88 196.4,-452.88 202.4,-458.88 202.4,-464.88 202.4,-464.88 202.4,-493.88 202.4,-493.88 202.4,-499.88 196.4,-505.88 190.4,-505.88"/>
<text text-anchor="middle" x="168.4" y="-490.68" font-family="Times,serif" font-size="14.00">gene_idx</text>
<text text-anchor="middle" x="168.4" y="-475.68" font-family="Times,serif" font-size="14.00">~</text>
<text text-anchor="middle" x="168.4" y="-460.68" font-family="Times,serif" font-size="14.00">Data</text>
</g>
<!-- gene_idx&#45;&gt;η -->
<g id="edge4" class="edge">
<title>gene_idx&#45;&gt;η</title>
<path fill="none" stroke="black" d="M181.02,-452.6C188.52,-439.07 199,-422.87 211.4,-410.91 212.18,-410.15 212.99,-409.4 213.81,-408.67"/>
<polygon fill="black" stroke="black" points="216.06,-411.34 221.62,-402.32 211.65,-405.91 216.06,-411.34"/>
</g>
<!-- α -->
<g id="node7" class="node">
<title>α</title>
<ellipse fill="none" stroke="black" cx="59.4" cy="-276.43" rx="59.29" ry="37.45"/>
<text text-anchor="middle" x="59.4" y="-287.73" font-family="Times,serif" font-size="14.00">α</text>
<text text-anchor="middle" x="59.4" y="-272.73" font-family="Times,serif" font-size="14.00">~</text>
<text text-anchor="middle" x="59.4" y="-257.73" font-family="Times,serif" font-size="14.00">HalfNormal</text>
</g>
<!-- α&#45;&gt;y -->
<g id="edge9" class="edge">
<title>α&#45;&gt;y</title>
<path fill="none" stroke="black" d="M101.34,-249.61C124.57,-235.31 153.78,-217.33 179.09,-201.75"/>
<polygon fill="black" stroke="black" points="181.18,-204.58 187.86,-196.35 177.51,-198.62 181.18,-204.58"/>
</g>
<!-- σ_β -->
<g id="node8" class="node">
<title>σ_β</title>
<ellipse fill="none" stroke="black" cx="344.4" cy="-590.34" rx="59.29" ry="37.45"/>
<text text-anchor="middle" x="344.4" y="-601.64" font-family="Times,serif" font-size="14.00">σ_β</text>
<text text-anchor="middle" x="344.4" y="-586.64" font-family="Times,serif" font-size="14.00">~</text>
<text text-anchor="middle" x="344.4" y="-571.64" font-family="Times,serif" font-size="14.00">HalfNormal</text>
</g>
<!-- β -->
<g id="node10" class="node">
<title>β</title>
<ellipse fill="none" stroke="black" cx="404.4" cy="-479.38" rx="41.94" ry="37.45"/>
<text text-anchor="middle" x="404.4" y="-490.68" font-family="Times,serif" font-size="14.00">β</text>
<text text-anchor="middle" x="404.4" y="-475.68" font-family="Times,serif" font-size="14.00">~</text>
<text text-anchor="middle" x="404.4" y="-460.68" font-family="Times,serif" font-size="14.00">Normal</text>
</g>
<!-- σ_β&#45;&gt;β -->
<g id="edge2" class="edge">
<title>σ_β&#45;&gt;β</title>
<path fill="none" stroke="black" d="M363.55,-554.56C369.23,-544.25 375.51,-532.85 381.4,-522.14"/>
<polygon fill="black" stroke="black" points="384.49,-523.79 386.25,-513.34 378.36,-520.41 384.49,-523.79"/>
</g>
<!-- μ_β -->
<g id="node9" class="node">
<title>μ_β</title>
<ellipse fill="none" stroke="black" cx="463.4" cy="-590.34" rx="41.94" ry="37.45"/>
<text text-anchor="middle" x="463.4" y="-601.64" font-family="Times,serif" font-size="14.00">μ_β</text>
<text text-anchor="middle" x="463.4" y="-586.64" font-family="Times,serif" font-size="14.00">~</text>
<text text-anchor="middle" x="463.4" y="-571.64" font-family="Times,serif" font-size="14.00">Normal</text>
</g>
<!-- μ_β&#45;&gt;β -->
<g id="edge3" class="edge">
<title>μ_β&#45;&gt;β</title>
<path fill="none" stroke="black" d="M445.53,-556.35C439.75,-545.68 433.26,-533.69 427.18,-522.45"/>
<polygon fill="black" stroke="black" points="430.24,-520.76 422.4,-513.63 424.09,-524.09 430.24,-520.76"/>
</g>
<!-- β&#45;&gt;η -->
<g id="edge6" class="edge">
<title>β&#45;&gt;η</title>
<path fill="none" stroke="black" d="M384.13,-446.53C375.02,-434.13 363.38,-420.61 350.4,-410.91 342.63,-405.1 333.71,-400.12 324.67,-395.91"/>
<polygon fill="black" stroke="black" points="325.83,-392.6 315.27,-391.8 323.03,-399.01 325.83,-392.6"/>
</g>
</g>
</svg>
