<?xml version="1.0" encoding="UTF-8" standalone="no"?>
<!DOCTYPE svg PUBLIC "-//W3C//DTD SVG 1.1//EN"
 "http://www.w3.org/Graphics/SVG/1.1/DTD/svg11.dtd">
<!-- Generated by graphviz version 3.0.0 (0)
 -->
<!-- Pages: 1 -->
<svg width="1863pt" height="674pt"
 viewBox="0.00 0.00 1862.55 673.79" xmlns="http://www.w3.org/2000/svg" xmlns:xlink="http://www.w3.org/1999/xlink">
<g id="graph0" class="graph" transform="scale(1 1) rotate(0) translate(4 669.79)">
<polygon fill="white" stroke="transparent" points="-4,4 -4,-669.79 1858.55,-669.79 1858.55,4 -4,4"/>
<g id="clust1" class="cluster">
<title>clustersgrna (60)</title>
<path fill="none" stroke="black" d="M1555.55,-332.88C1555.55,-332.88 1639.55,-332.88 1639.55,-332.88 1645.55,-332.88 1651.55,-338.88 1651.55,-344.88 1651.55,-344.88 1651.55,-534.84 1651.55,-534.84 1651.55,-540.84 1645.55,-546.84 1639.55,-546.84 1639.55,-546.84 1555.55,-546.84 1555.55,-546.84 1549.55,-546.84 1543.55,-540.84 1543.55,-534.84 1543.55,-534.84 1543.55,-344.88 1543.55,-344.88 1543.55,-338.88 1549.55,-332.88 1555.55,-332.88"/>
<text text-anchor="middle" x="1615.55" y="-340.68" font-family="Times,serif" font-size="14.00">sgrna (60)</text>
</g>
<g id="clust2" class="cluster">
<title>clustercell_line (10)</title>
<path fill="none" stroke="black" d="M871.55,-443.86C871.55,-443.86 1064.55,-443.86 1064.55,-443.86 1070.55,-443.86 1076.55,-449.86 1076.55,-455.86 1076.55,-455.86 1076.55,-645.79 1076.55,-645.79 1076.55,-651.79 1070.55,-657.79 1064.55,-657.79 1064.55,-657.79 871.55,-657.79 871.55,-657.79 865.55,-657.79 859.55,-651.79 859.55,-645.79 859.55,-645.79 859.55,-455.86 859.55,-455.86 859.55,-449.86 865.55,-443.86 871.55,-443.86"/>
<text text-anchor="middle" x="1032.05" y="-451.66" font-family="Times,serif" font-size="14.00">cell_line (10)</text>
</g>
<g id="clust6" class="cluster">
<title>cluster336</title>
<path fill="none" stroke="black" d="M757.55,-8C757.55,-8 960.55,-8 960.55,-8 966.55,-8 972.55,-14 972.55,-20 972.55,-20 972.55,-412.88 972.55,-412.88 972.55,-418.88 966.55,-424.88 960.55,-424.88 960.55,-424.88 757.55,-424.88 757.55,-424.88 751.55,-424.88 745.55,-418.88 745.55,-412.88 745.55,-412.88 745.55,-20 745.55,-20 745.55,-14 751.55,-8 757.55,-8"/>
<text text-anchor="middle" x="954.05" y="-15.8" font-family="Times,serif" font-size="14.00">336</text>
</g>
<g id="clust4" class="cluster">
<title>clustergene (20) x cancer_gene (31) x lineage (2)</title>
<path fill="none" stroke="black" d="M1298.55,-443.86C1298.55,-443.86 1523.55,-443.86 1523.55,-443.86 1529.55,-443.86 1535.55,-449.86 1535.55,-455.86 1535.55,-455.86 1535.55,-645.79 1535.55,-645.79 1535.55,-651.79 1529.55,-657.79 1523.55,-657.79 1523.55,-657.79 1298.55,-657.79 1298.55,-657.79 1292.55,-657.79 1286.55,-651.79 1286.55,-645.79 1286.55,-645.79 1286.55,-455.86 1286.55,-455.86 1286.55,-449.86 1292.55,-443.86 1298.55,-443.86"/>
<text text-anchor="middle" x="1411.05" y="-451.66" font-family="Times,serif" font-size="14.00">gene (20) x cancer_gene (31) x lineage (2)</text>
</g>
<g id="clust3" class="cluster">
<title>clustergene (20) x lineage (2)</title>
<path fill="none" stroke="black" d="M109.55,-443.86C109.55,-443.86 520.55,-443.86 520.55,-443.86 526.55,-443.86 532.55,-449.86 532.55,-455.86 532.55,-455.86 532.55,-645.79 532.55,-645.79 532.55,-651.79 526.55,-657.79 520.55,-657.79 520.55,-657.79 109.55,-657.79 109.55,-657.79 103.55,-657.79 97.55,-651.79 97.55,-645.79 97.55,-645.79 97.55,-455.86 97.55,-455.86 97.55,-449.86 103.55,-443.86 109.55,-443.86"/>
<text text-anchor="middle" x="462.05" y="-451.66" font-family="Times,serif" font-size="14.00">gene (20) x lineage (2)</text>
</g>
<g id="clust5" class="cluster">
<title>clustergene (20) x screen (2)</title>
<path fill="none" stroke="black" d="M1721.55,-321.91C1721.55,-321.91 1834.55,-321.91 1834.55,-321.91 1840.55,-321.91 1846.55,-327.91 1846.55,-333.91 1846.55,-333.91 1846.55,-423.86 1846.55,-423.86 1846.55,-429.86 1840.55,-435.86 1834.55,-435.86 1834.55,-435.86 1721.55,-435.86 1721.55,-435.86 1715.55,-435.86 1709.55,-429.86 1709.55,-423.86 1709.55,-423.86 1709.55,-333.91 1709.55,-333.91 1709.55,-327.91 1715.55,-321.91 1721.55,-321.91"/>
<text text-anchor="middle" x="1778.05" y="-329.71" font-family="Times,serif" font-size="14.00">gene (20) x screen (2)</text>
</g>
<!-- sigma_k -->
<g id="node1" class="node">
<title>sigma_k</title>
<ellipse fill="none" stroke="black" cx="44.55" cy="-612.31" rx="44.6" ry="37.45"/>
<text text-anchor="middle" x="44.55" y="-623.61" font-family="Times,serif" font-size="14.00">sigma_k</text>
<text text-anchor="middle" x="44.55" y="-608.61" font-family="Times,serif" font-size="14.00">~</text>
<text text-anchor="middle" x="44.55" y="-593.61" font-family="Times,serif" font-size="14.00">Gamma</text>
</g>
<!-- k -->
<g id="node20" class="node">
<title>k</title>
<polygon fill="none" stroke="black" points="197.05,-527.86 106.05,-527.86 106.05,-474.86 197.05,-474.86 197.05,-527.86"/>
<text text-anchor="middle" x="151.55" y="-512.66" font-family="Times,serif" font-size="14.00">k</text>
<text text-anchor="middle" x="151.55" y="-497.66" font-family="Times,serif" font-size="14.00">~</text>
<text text-anchor="middle" x="151.55" y="-482.66" font-family="Times,serif" font-size="14.00">Deterministic</text>
</g>
<!-- sigma_k&#45;&gt;k -->
<g id="edge11" class="edge">
<title>sigma_k&#45;&gt;k</title>
<path fill="none" stroke="black" d="M72.38,-582.97C86.75,-568.34 104.35,-550.42 119.31,-535.19"/>
<polygon fill="black" stroke="black" points="121.9,-537.54 126.41,-527.95 116.91,-532.64 121.9,-537.54"/>
</g>
<!-- sigma_b -->
<g id="node2" class="node">
<title>sigma_b</title>
<ellipse fill="none" stroke="black" cx="1129.55" cy="-612.31" rx="44.6" ry="37.45"/>
<text text-anchor="middle" x="1129.55" y="-623.61" font-family="Times,serif" font-size="14.00">sigma_b</text>
<text text-anchor="middle" x="1129.55" y="-608.61" font-family="Times,serif" font-size="14.00">~</text>
<text text-anchor="middle" x="1129.55" y="-593.61" font-family="Times,serif" font-size="14.00">Gamma</text>
</g>
<!-- b -->
<g id="node14" class="node">
<title>b</title>
<polygon fill="none" stroke="black" points="959.05,-527.86 868.05,-527.86 868.05,-474.86 959.05,-474.86 959.05,-527.86"/>
<text text-anchor="middle" x="913.55" y="-512.66" font-family="Times,serif" font-size="14.00">b</text>
<text text-anchor="middle" x="913.55" y="-497.66" font-family="Times,serif" font-size="14.00">~</text>
<text text-anchor="middle" x="913.55" y="-482.66" font-family="Times,serif" font-size="14.00">Deterministic</text>
</g>
<!-- sigma_b&#45;&gt;b -->
<g id="edge3" class="edge">
<title>sigma_b&#45;&gt;b</title>
<path fill="none" stroke="black" d="M1098.29,-585.25C1092.62,-581.36 1086.59,-577.7 1080.55,-574.84 1034.18,-552.87 1014.47,-569.73 968.55,-546.84 961.75,-543.45 955.02,-539.1 948.73,-534.45"/>
<polygon fill="black" stroke="black" points="950.49,-531.39 940.46,-527.99 946.19,-536.9 950.49,-531.39"/>
</g>
<!-- sigma_d -->
<g id="node3" class="node">
<title>sigma_d</title>
<ellipse fill="none" stroke="black" cx="692.55" cy="-612.31" rx="44.6" ry="37.45"/>
<text text-anchor="middle" x="692.55" y="-623.61" font-family="Times,serif" font-size="14.00">sigma_d</text>
<text text-anchor="middle" x="692.55" y="-608.61" font-family="Times,serif" font-size="14.00">~</text>
<text text-anchor="middle" x="692.55" y="-593.61" font-family="Times,serif" font-size="14.00">Gamma</text>
</g>
<!-- d -->
<g id="node21" class="node">
<title>d</title>
<polygon fill="none" stroke="black" points="415.05,-527.86 324.05,-527.86 324.05,-474.86 415.05,-474.86 415.05,-527.86"/>
<text text-anchor="middle" x="369.55" y="-512.66" font-family="Times,serif" font-size="14.00">d</text>
<text text-anchor="middle" x="369.55" y="-497.66" font-family="Times,serif" font-size="14.00">~</text>
<text text-anchor="middle" x="369.55" y="-482.66" font-family="Times,serif" font-size="14.00">Deterministic</text>
</g>
<!-- sigma_d&#45;&gt;d -->
<g id="edge6" class="edge">
<title>sigma_d&#45;&gt;d</title>
<path fill="none" stroke="black" d="M660.83,-585.96C654.12,-581.63 646.85,-577.64 639.55,-574.84 549.57,-540.34 513.12,-584.78 424.55,-546.84 417.17,-543.67 409.97,-539.23 403.34,-534.35"/>
<polygon fill="black" stroke="black" points="405.3,-531.45 395.28,-528.02 400.98,-536.95 405.3,-531.45"/>
</g>
<!-- sigma_m -->
<g id="node4" class="node">
<title>sigma_m</title>
<ellipse fill="none" stroke="black" cx="803.55" cy="-612.31" rx="48.17" ry="37.45"/>
<text text-anchor="middle" x="803.55" y="-623.61" font-family="Times,serif" font-size="14.00">sigma_m</text>
<text text-anchor="middle" x="803.55" y="-608.61" font-family="Times,serif" font-size="14.00">~</text>
<text text-anchor="middle" x="803.55" y="-593.61" font-family="Times,serif" font-size="14.00">Gamma</text>
</g>
<!-- m -->
<g id="node18" class="node">
<title>m</title>
<polygon fill="none" stroke="black" points="524.05,-527.86 433.05,-527.86 433.05,-474.86 524.05,-474.86 524.05,-527.86"/>
<text text-anchor="middle" x="478.55" y="-512.66" font-family="Times,serif" font-size="14.00">m</text>
<text text-anchor="middle" x="478.55" y="-497.66" font-family="Times,serif" font-size="14.00">~</text>
<text text-anchor="middle" x="478.55" y="-482.66" font-family="Times,serif" font-size="14.00">Deterministic</text>
</g>
<!-- sigma_m&#45;&gt;m -->
<g id="edge14" class="edge">
<title>sigma_m&#45;&gt;m</title>
<path fill="none" stroke="black" d="M768.3,-586.42C761.3,-582.16 753.85,-578.07 746.55,-574.84 676.22,-543.71 589.44,-523.23 534.04,-512.21"/>
<polygon fill="black" stroke="black" points="534.56,-508.75 524.08,-510.27 533.22,-515.62 534.56,-508.75"/>
</g>
<!-- sigma_h -->
<g id="node5" class="node">
<title>sigma_h</title>
<ellipse fill="none" stroke="black" cx="585.55" cy="-612.31" rx="44.6" ry="37.45"/>
<text text-anchor="middle" x="585.55" y="-623.61" font-family="Times,serif" font-size="14.00">sigma_h</text>
<text text-anchor="middle" x="585.55" y="-608.61" font-family="Times,serif" font-size="14.00">~</text>
<text text-anchor="middle" x="585.55" y="-593.61" font-family="Times,serif" font-size="14.00">Gamma</text>
</g>
<!-- h -->
<g id="node23" class="node">
<title>h</title>
<polygon fill="none" stroke="black" points="306.05,-527.86 215.05,-527.86 215.05,-474.86 306.05,-474.86 306.05,-527.86"/>
<text text-anchor="middle" x="260.55" y="-512.66" font-family="Times,serif" font-size="14.00">h</text>
<text text-anchor="middle" x="260.55" y="-497.66" font-family="Times,serif" font-size="14.00">~</text>
<text text-anchor="middle" x="260.55" y="-482.66" font-family="Times,serif" font-size="14.00">Deterministic</text>
</g>
<!-- sigma_h&#45;&gt;h -->
<g id="edge9" class="edge">
<title>sigma_h&#45;&gt;h</title>
<path fill="none" stroke="black" d="M554.83,-584.82C549.05,-580.92 542.84,-577.37 536.55,-574.84 444.71,-537.84 406.62,-585.67 315.55,-546.84 308.16,-543.69 300.96,-539.24 294.33,-534.38"/>
<polygon fill="black" stroke="black" points="296.3,-531.47 286.27,-528.04 291.97,-536.97 296.3,-531.47"/>
</g>
<!-- sigma_a -->
<g id="node6" class="node">
<title>sigma_a</title>
<ellipse fill="none" stroke="black" cx="1703.55" cy="-501.36" rx="43.68" ry="37.45"/>
<text text-anchor="middle" x="1703.55" y="-512.66" font-family="Times,serif" font-size="14.00">sigma_a</text>
<text text-anchor="middle" x="1703.55" y="-497.66" font-family="Times,serif" font-size="14.00">~</text>
<text text-anchor="middle" x="1703.55" y="-482.66" font-family="Times,serif" font-size="14.00">Gamma</text>
</g>
<!-- a -->
<g id="node13" class="node">
<title>a</title>
<polygon fill="none" stroke="black" points="1643.05,-416.88 1552.05,-416.88 1552.05,-363.88 1643.05,-363.88 1643.05,-416.88"/>
<text text-anchor="middle" x="1597.55" y="-401.68" font-family="Times,serif" font-size="14.00">a</text>
<text text-anchor="middle" x="1597.55" y="-386.68" font-family="Times,serif" font-size="14.00">~</text>
<text text-anchor="middle" x="1597.55" y="-371.68" font-family="Times,serif" font-size="14.00">Deterministic</text>
</g>
<!-- sigma_a&#45;&gt;a -->
<g id="edge2" class="edge">
<title>sigma_a&#45;&gt;a</title>
<path fill="none" stroke="black" d="M1679.1,-470.1C1671.75,-461.42 1663.52,-452.09 1655.55,-443.86 1649.09,-437.2 1641.95,-430.36 1634.96,-423.91"/>
<polygon fill="black" stroke="black" points="1637.21,-421.23 1627.46,-417.09 1632.5,-426.4 1637.21,-421.23"/>
</g>
<!-- z -->
<g id="node7" class="node">
<title>z</title>
<ellipse fill="none" stroke="black" cx="1023.55" cy="-390.38" rx="41.94" ry="37.45"/>
<text text-anchor="middle" x="1023.55" y="-401.68" font-family="Times,serif" font-size="14.00">z</text>
<text text-anchor="middle" x="1023.55" y="-386.68" font-family="Times,serif" font-size="14.00">~</text>
<text text-anchor="middle" x="1023.55" y="-371.68" font-family="Times,serif" font-size="14.00">Normal</text>
</g>
<!-- eta -->
<g id="node31" class="node">
<title>eta</title>
<polygon fill="none" stroke="black" points="961.05,-313.91 870.05,-313.91 870.05,-260.91 961.05,-260.91 961.05,-313.91"/>
<text text-anchor="middle" x="915.55" y="-298.71" font-family="Times,serif" font-size="14.00">eta</text>
<text text-anchor="middle" x="915.55" y="-283.71" font-family="Times,serif" font-size="14.00">~</text>
<text text-anchor="middle" x="915.55" y="-268.71" font-family="Times,serif" font-size="14.00">Deterministic</text>
</g>
<!-- z&#45;&gt;eta -->
<g id="edge27" class="edge">
<title>z&#45;&gt;eta</title>
<path fill="none" stroke="black" d="M1004.97,-356.42C997.23,-344.58 987.48,-331.74 976.55,-321.91 974.36,-319.94 972.03,-318.04 969.62,-316.22"/>
<polygon fill="black" stroke="black" points="971.33,-313.15 961.12,-310.32 967.34,-318.9 971.33,-313.15"/>
</g>
<!-- sigma_w -->
<g id="node8" class="node">
<title>sigma_w</title>
<ellipse fill="none" stroke="black" cx="1590.55" cy="-612.31" rx="46.84" ry="37.45"/>
<text text-anchor="middle" x="1590.55" y="-623.61" font-family="Times,serif" font-size="14.00">sigma_w</text>
<text text-anchor="middle" x="1590.55" y="-608.61" font-family="Times,serif" font-size="14.00">~</text>
<text text-anchor="middle" x="1590.55" y="-593.61" font-family="Times,serif" font-size="14.00">Gamma</text>
</g>
<!-- w -->
<g id="node27" class="node">
<title>w</title>
<polygon fill="none" stroke="black" points="1456.05,-527.86 1365.05,-527.86 1365.05,-474.86 1456.05,-474.86 1456.05,-527.86"/>
<text text-anchor="middle" x="1410.55" y="-512.66" font-family="Times,serif" font-size="14.00">w</text>
<text text-anchor="middle" x="1410.55" y="-497.66" font-family="Times,serif" font-size="14.00">~</text>
<text text-anchor="middle" x="1410.55" y="-482.66" font-family="Times,serif" font-size="14.00">Deterministic</text>
</g>
<!-- sigma_w&#45;&gt;w -->
<g id="edge16" class="edge">
<title>sigma_w&#45;&gt;w</title>
<path fill="none" stroke="black" d="M1556.61,-586.26C1550.98,-582.34 1545.15,-578.4 1539.55,-574.84 1515.72,-559.69 1488.58,-544.19 1465.35,-531.43"/>
<polygon fill="black" stroke="black" points="1466.78,-528.22 1456.33,-526.5 1463.43,-534.36 1466.78,-528.22"/>
</g>
<!-- alpha -->
<g id="node9" class="node">
<title>alpha</title>
<ellipse fill="none" stroke="black" cx="1023.55" cy="-187.43" rx="43.27" ry="37.45"/>
<text text-anchor="middle" x="1023.55" y="-198.73" font-family="Times,serif" font-size="14.00">alpha</text>
<text text-anchor="middle" x="1023.55" y="-183.73" font-family="Times,serif" font-size="14.00">~</text>
<text text-anchor="middle" x="1023.55" y="-168.73" font-family="Times,serif" font-size="14.00">Gamma</text>
</g>
<!-- ct_final -->
<g id="node29" class="node">
<title>ct_final</title>
<ellipse fill="lightgrey" stroke="black" cx="882.55" cy="-76.48" rx="63.78" ry="37.45"/>
<text text-anchor="middle" x="882.55" y="-87.78" font-family="Times,serif" font-size="14.00">ct_final</text>
<text text-anchor="middle" x="882.55" y="-72.78" font-family="Times,serif" font-size="14.00">~</text>
<text text-anchor="middle" x="882.55" y="-57.78" font-family="Times,serif" font-size="14.00">NegBinomial</text>
</g>
<!-- alpha&#45;&gt;ct_final -->
<g id="edge32" class="edge">
<title>alpha&#45;&gt;ct_final</title>
<path fill="none" stroke="black" d="M991.96,-161.89C986.81,-157.9 981.53,-153.81 976.55,-149.95 961.01,-137.93 944,-124.81 928.78,-113.08"/>
<polygon fill="black" stroke="black" points="930.59,-110.05 920.53,-106.72 926.31,-115.6 930.59,-110.05"/>
</g>
<!-- sigma_f -->
<g id="node10" class="node">
<title>sigma_f</title>
<ellipse fill="none" stroke="black" cx="1235.55" cy="-612.31" rx="43.27" ry="37.45"/>
<text text-anchor="middle" x="1235.55" y="-623.61" font-family="Times,serif" font-size="14.00">sigma_f</text>
<text text-anchor="middle" x="1235.55" y="-608.61" font-family="Times,serif" font-size="14.00">~</text>
<text text-anchor="middle" x="1235.55" y="-593.61" font-family="Times,serif" font-size="14.00">Gamma</text>
</g>
<!-- f -->
<g id="node15" class="node">
<title>f</title>
<polygon fill="none" stroke="black" points="1068.05,-527.86 977.05,-527.86 977.05,-474.86 1068.05,-474.86 1068.05,-527.86"/>
<text text-anchor="middle" x="1022.55" y="-512.66" font-family="Times,serif" font-size="14.00">f</text>
<text text-anchor="middle" x="1022.55" y="-497.66" font-family="Times,serif" font-size="14.00">~</text>
<text text-anchor="middle" x="1022.55" y="-482.66" font-family="Times,serif" font-size="14.00">Deterministic</text>
</g>
<!-- sigma_f&#45;&gt;f -->
<g id="edge7" class="edge">
<title>sigma_f&#45;&gt;f</title>
<path fill="none" stroke="black" d="M1203.15,-587.19C1196.79,-582.86 1190.07,-578.55 1183.55,-574.84 1149.5,-555.46 1109.33,-537.37 1077.63,-524.11"/>
<polygon fill="black" stroke="black" points="1078.66,-520.75 1068.08,-520.16 1075.98,-527.22 1078.66,-520.75"/>
</g>
<!-- sigma_p -->
<g id="node11" class="node">
<title>sigma_p</title>
<ellipse fill="none" stroke="black" cx="1809.55" cy="-501.36" rx="44.6" ry="37.45"/>
<text text-anchor="middle" x="1809.55" y="-512.66" font-family="Times,serif" font-size="14.00">sigma_p</text>
<text text-anchor="middle" x="1809.55" y="-497.66" font-family="Times,serif" font-size="14.00">~</text>
<text text-anchor="middle" x="1809.55" y="-482.66" font-family="Times,serif" font-size="14.00">Gamma</text>
</g>
<!-- p -->
<g id="node28" class="node">
<title>p</title>
<ellipse fill="none" stroke="black" cx="1777.55" cy="-390.38" rx="41.94" ry="37.45"/>
<text text-anchor="middle" x="1777.55" y="-401.68" font-family="Times,serif" font-size="14.00">p</text>
<text text-anchor="middle" x="1777.55" y="-386.68" font-family="Times,serif" font-size="14.00">~</text>
<text text-anchor="middle" x="1777.55" y="-371.68" font-family="Times,serif" font-size="14.00">Normal</text>
</g>
<!-- sigma_p&#45;&gt;p -->
<g id="edge17" class="edge">
<title>sigma_p&#45;&gt;p</title>
<path fill="none" stroke="black" d="M1799.07,-464.68C1796.42,-455.65 1793.54,-445.83 1790.77,-436.41"/>
<polygon fill="black" stroke="black" points="1794.12,-435.38 1787.94,-426.77 1787.4,-437.36 1794.12,-435.38"/>
</g>
<!-- delta_a -->
<g id="node12" class="node">
<title>delta_a</title>
<ellipse fill="none" stroke="black" cx="1597.55" cy="-501.36" rx="41.94" ry="37.45"/>
<text text-anchor="middle" x="1597.55" y="-512.66" font-family="Times,serif" font-size="14.00">delta_a</text>
<text text-anchor="middle" x="1597.55" y="-497.66" font-family="Times,serif" font-size="14.00">~</text>
<text text-anchor="middle" x="1597.55" y="-482.66" font-family="Times,serif" font-size="14.00">Normal</text>
</g>
<!-- delta_a&#45;&gt;a -->
<g id="edge1" class="edge">
<title>delta_a&#45;&gt;a</title>
<path fill="none" stroke="black" d="M1597.55,-463.77C1597.55,-452.03 1597.55,-439.04 1597.55,-427.35"/>
<polygon fill="black" stroke="black" points="1601.05,-427.04 1597.55,-417.04 1594.05,-427.04 1601.05,-427.04"/>
</g>
<!-- a&#45;&gt;eta -->
<g id="edge25" class="edge">
<title>a&#45;&gt;eta</title>
<path fill="none" stroke="black" d="M1552.01,-382.64C1431.27,-364.76 1103.26,-316.2 971.47,-296.69"/>
<polygon fill="black" stroke="black" points="971.61,-293.17 961.21,-295.17 970.58,-300.09 971.61,-293.17"/>
</g>
<!-- cell_line_effect -->
<g id="node32" class="node">
<title>cell_line_effect</title>
<polygon fill="none" stroke="black" points="964.05,-416.88 863.05,-416.88 863.05,-363.88 964.05,-363.88 964.05,-416.88"/>
<text text-anchor="middle" x="913.55" y="-401.68" font-family="Times,serif" font-size="14.00">cell_line_effect</text>
<text text-anchor="middle" x="913.55" y="-386.68" font-family="Times,serif" font-size="14.00">~</text>
<text text-anchor="middle" x="913.55" y="-371.68" font-family="Times,serif" font-size="14.00">Deterministic</text>
</g>
<!-- b&#45;&gt;cell_line_effect -->
<g id="edge23" class="edge">
<title>b&#45;&gt;cell_line_effect</title>
<path fill="none" stroke="black" d="M913.55,-474.81C913.55,-460.7 913.55,-442.95 913.55,-427.45"/>
<polygon fill="black" stroke="black" points="917.05,-427.15 913.55,-417.15 910.05,-427.15 917.05,-427.15"/>
</g>
<!-- f&#45;&gt;cell_line_effect -->
<g id="edge24" class="edge">
<title>f&#45;&gt;cell_line_effect</title>
<path fill="none" stroke="black" d="M998.6,-474.81C989.31,-465.03 978.53,-453.83 968.55,-443.86 962.03,-437.35 954.99,-430.49 948.18,-423.96"/>
<polygon fill="black" stroke="black" points="950.57,-421.41 940.92,-417.03 945.74,-426.47 950.57,-421.41"/>
</g>
<!-- delta_b -->
<g id="node16" class="node">
<title>delta_b</title>
<ellipse fill="none" stroke="black" cx="913.55" cy="-612.31" rx="41.94" ry="37.45"/>
<text text-anchor="middle" x="913.55" y="-623.61" font-family="Times,serif" font-size="14.00">delta_b</text>
<text text-anchor="middle" x="913.55" y="-608.61" font-family="Times,serif" font-size="14.00">~</text>
<text text-anchor="middle" x="913.55" y="-593.61" font-family="Times,serif" font-size="14.00">Normal</text>
</g>
<!-- delta_b&#45;&gt;b -->
<g id="edge4" class="edge">
<title>delta_b&#45;&gt;b</title>
<path fill="none" stroke="black" d="M913.55,-574.73C913.55,-562.99 913.55,-550.01 913.55,-538.31"/>
<polygon fill="black" stroke="black" points="917.05,-538.01 913.55,-528.01 910.05,-538.01 917.05,-538.01"/>
</g>
<!-- delta_f -->
<g id="node17" class="node">
<title>delta_f</title>
<ellipse fill="none" stroke="black" cx="1022.55" cy="-612.31" rx="41.94" ry="37.45"/>
<text text-anchor="middle" x="1022.55" y="-623.61" font-family="Times,serif" font-size="14.00">delta_f</text>
<text text-anchor="middle" x="1022.55" y="-608.61" font-family="Times,serif" font-size="14.00">~</text>
<text text-anchor="middle" x="1022.55" y="-593.61" font-family="Times,serif" font-size="14.00">Normal</text>
</g>
<!-- delta_f&#45;&gt;f -->
<g id="edge8" class="edge">
<title>delta_f&#45;&gt;f</title>
<path fill="none" stroke="black" d="M1022.55,-574.73C1022.55,-562.99 1022.55,-550.01 1022.55,-538.31"/>
<polygon fill="black" stroke="black" points="1026.05,-538.01 1022.55,-528.01 1019.05,-538.01 1026.05,-538.01"/>
</g>
<!-- gene_effect -->
<g id="node33" class="node">
<title>gene_effect</title>
<polygon fill="none" stroke="black" points="845.05,-416.88 754.05,-416.88 754.05,-363.88 845.05,-363.88 845.05,-416.88"/>
<text text-anchor="middle" x="799.55" y="-401.68" font-family="Times,serif" font-size="14.00">gene_effect</text>
<text text-anchor="middle" x="799.55" y="-386.68" font-family="Times,serif" font-size="14.00">~</text>
<text text-anchor="middle" x="799.55" y="-371.68" font-family="Times,serif" font-size="14.00">Deterministic</text>
</g>
<!-- m&#45;&gt;gene_effect -->
<g id="edge21" class="edge">
<title>m&#45;&gt;gene_effect</title>
<path fill="none" stroke="black" d="M524.2,-484.86C582.11,-465.2 681.93,-431.31 744.14,-410.19"/>
<polygon fill="black" stroke="black" points="745.45,-413.44 753.8,-406.92 743.2,-406.82 745.45,-413.44"/>
</g>
<!-- delta_k -->
<g id="node19" class="node">
<title>delta_k</title>
<ellipse fill="none" stroke="black" cx="151.55" cy="-612.31" rx="41.94" ry="37.45"/>
<text text-anchor="middle" x="151.55" y="-623.61" font-family="Times,serif" font-size="14.00">delta_k</text>
<text text-anchor="middle" x="151.55" y="-608.61" font-family="Times,serif" font-size="14.00">~</text>
<text text-anchor="middle" x="151.55" y="-593.61" font-family="Times,serif" font-size="14.00">Normal</text>
</g>
<!-- delta_k&#45;&gt;k -->
<g id="edge12" class="edge">
<title>delta_k&#45;&gt;k</title>
<path fill="none" stroke="black" d="M151.55,-574.73C151.55,-562.99 151.55,-550.01 151.55,-538.31"/>
<polygon fill="black" stroke="black" points="155.05,-538.01 151.55,-528.01 148.05,-538.01 155.05,-538.01"/>
</g>
<!-- k&#45;&gt;gene_effect -->
<g id="edge18" class="edge">
<title>k&#45;&gt;gene_effect</title>
<path fill="none" stroke="black" d="M169.54,-474.85C179.13,-463.34 191.96,-450.79 206.55,-443.86 300.73,-399.11 614.87,-392.3 743.7,-391.43"/>
<polygon fill="black" stroke="black" points="743.77,-394.93 753.75,-391.37 743.73,-387.93 743.77,-394.93"/>
</g>
<!-- d&#45;&gt;gene_effect -->
<g id="edge19" class="edge">
<title>d&#45;&gt;gene_effect</title>
<path fill="none" stroke="black" d="M388.19,-474.59C397.76,-463.31 410.38,-451.04 424.55,-443.86 479.25,-416.15 653.38,-400.96 743.82,-394.75"/>
<polygon fill="black" stroke="black" points="744.15,-398.24 753.89,-394.08 743.68,-391.26 744.15,-398.24"/>
</g>
<!-- delta_m -->
<g id="node22" class="node">
<title>delta_m</title>
<ellipse fill="none" stroke="black" cx="478.55" cy="-612.31" rx="43.27" ry="37.45"/>
<text text-anchor="middle" x="478.55" y="-623.61" font-family="Times,serif" font-size="14.00">delta_m</text>
<text text-anchor="middle" x="478.55" y="-608.61" font-family="Times,serif" font-size="14.00">~</text>
<text text-anchor="middle" x="478.55" y="-593.61" font-family="Times,serif" font-size="14.00">Normal</text>
</g>
<!-- delta_m&#45;&gt;m -->
<g id="edge13" class="edge">
<title>delta_m&#45;&gt;m</title>
<path fill="none" stroke="black" d="M478.55,-574.73C478.55,-562.99 478.55,-550.01 478.55,-538.31"/>
<polygon fill="black" stroke="black" points="482.05,-538.01 478.55,-528.01 475.05,-538.01 482.05,-538.01"/>
</g>
<!-- h&#45;&gt;gene_effect -->
<g id="edge20" class="edge">
<title>h&#45;&gt;gene_effect</title>
<path fill="none" stroke="black" d="M278.85,-474.68C288.42,-463.28 301.15,-450.88 315.55,-443.86 389.8,-407.68 632.78,-396.16 743.58,-392.73"/>
<polygon fill="black" stroke="black" points="743.99,-396.22 753.88,-392.42 743.78,-389.22 743.99,-396.22"/>
</g>
<!-- delta_d -->
<g id="node24" class="node">
<title>delta_d</title>
<ellipse fill="none" stroke="black" cx="369.55" cy="-612.31" rx="41.94" ry="37.45"/>
<text text-anchor="middle" x="369.55" y="-623.61" font-family="Times,serif" font-size="14.00">delta_d</text>
<text text-anchor="middle" x="369.55" y="-608.61" font-family="Times,serif" font-size="14.00">~</text>
<text text-anchor="middle" x="369.55" y="-593.61" font-family="Times,serif" font-size="14.00">Normal</text>
</g>
<!-- delta_d&#45;&gt;d -->
<g id="edge5" class="edge">
<title>delta_d&#45;&gt;d</title>
<path fill="none" stroke="black" d="M369.55,-574.73C369.55,-562.99 369.55,-550.01 369.55,-538.31"/>
<polygon fill="black" stroke="black" points="373.05,-538.01 369.55,-528.01 366.05,-538.01 373.05,-538.01"/>
</g>
<!-- delta_h -->
<g id="node25" class="node">
<title>delta_h</title>
<ellipse fill="none" stroke="black" cx="260.55" cy="-612.31" rx="41.94" ry="37.45"/>
<text text-anchor="middle" x="260.55" y="-623.61" font-family="Times,serif" font-size="14.00">delta_h</text>
<text text-anchor="middle" x="260.55" y="-608.61" font-family="Times,serif" font-size="14.00">~</text>
<text text-anchor="middle" x="260.55" y="-593.61" font-family="Times,serif" font-size="14.00">Normal</text>
</g>
<!-- delta_h&#45;&gt;h -->
<g id="edge10" class="edge">
<title>delta_h&#45;&gt;h</title>
<path fill="none" stroke="black" d="M260.55,-574.73C260.55,-562.99 260.55,-550.01 260.55,-538.31"/>
<polygon fill="black" stroke="black" points="264.05,-538.01 260.55,-528.01 257.05,-538.01 264.05,-538.01"/>
</g>
<!-- delta_w -->
<g id="node26" class="node">
<title>delta_w</title>
<ellipse fill="none" stroke="black" cx="1410.55" cy="-612.31" rx="41.94" ry="37.45"/>
<text text-anchor="middle" x="1410.55" y="-623.61" font-family="Times,serif" font-size="14.00">delta_w</text>
<text text-anchor="middle" x="1410.55" y="-608.61" font-family="Times,serif" font-size="14.00">~</text>
<text text-anchor="middle" x="1410.55" y="-593.61" font-family="Times,serif" font-size="14.00">Normal</text>
</g>
<!-- delta_w&#45;&gt;w -->
<g id="edge15" class="edge">
<title>delta_w&#45;&gt;w</title>
<path fill="none" stroke="black" d="M1410.55,-574.73C1410.55,-562.99 1410.55,-550.01 1410.55,-538.31"/>
<polygon fill="black" stroke="black" points="1414.05,-538.01 1410.55,-528.01 1407.05,-538.01 1414.05,-538.01"/>
</g>
<!-- w&#45;&gt;gene_effect -->
<g id="edge22" class="edge">
<title>w&#45;&gt;gene_effect</title>
<path fill="none" stroke="black" d="M1364.9,-490.55C1301.47,-477.36 1182.89,-454.38 1080.55,-443.86 1055.55,-441.29 878.08,-444.66 854.55,-435.86 846.78,-432.96 839.29,-428.49 832.46,-423.49"/>
<polygon fill="black" stroke="black" points="834.22,-420.42 824.2,-416.95 829.87,-425.9 834.22,-420.42"/>
</g>
<!-- p&#45;&gt;eta -->
<g id="edge28" class="edge">
<title>p&#45;&gt;eta</title>
<path fill="none" stroke="black" d="M1745.44,-366.22C1721.83,-350.57 1688.27,-331.15 1655.55,-321.91 1590.45,-303.52 1132.59,-292.73 971.47,-289.47"/>
<polygon fill="black" stroke="black" points="971.36,-285.96 961.29,-289.26 971.22,-292.96 971.36,-285.96"/>
</g>
<!-- ct_final&#45;&gt;ct_final -->
<g id="edge33" class="edge">
<title>ct_final&#45;&gt;ct_final</title>
<path fill="none" stroke="black" d="M935.94,-97.06C951.83,-96.44 964.19,-89.58 964.19,-76.48 964.19,-66.34 956.79,-59.94 946.09,-57.28"/>
<polygon fill="black" stroke="black" points="946.32,-53.78 935.94,-55.9 945.38,-60.71 946.32,-53.78"/>
</g>
<!-- mu -->
<g id="node30" class="node">
<title>mu</title>
<polygon fill="none" stroke="black" points="946.05,-213.93 855.05,-213.93 855.05,-160.93 946.05,-160.93 946.05,-213.93"/>
<text text-anchor="middle" x="900.55" y="-198.73" font-family="Times,serif" font-size="14.00">mu</text>
<text text-anchor="middle" x="900.55" y="-183.73" font-family="Times,serif" font-size="14.00">~</text>
<text text-anchor="middle" x="900.55" y="-168.73" font-family="Times,serif" font-size="14.00">Deterministic</text>
</g>
<!-- mu&#45;&gt;ct_final -->
<g id="edge31" class="edge">
<title>mu&#45;&gt;ct_final</title>
<path fill="none" stroke="black" d="M896.33,-160.89C894.51,-149.87 892.32,-136.63 890.23,-123.97"/>
<polygon fill="black" stroke="black" points="893.67,-123.3 888.58,-114 886.76,-124.44 893.67,-123.3"/>
</g>
<!-- eta&#45;&gt;mu -->
<g id="edge30" class="edge">
<title>eta&#45;&gt;mu</title>
<path fill="none" stroke="black" d="M911.61,-260.66C909.9,-249.53 907.88,-236.3 906.03,-224.23"/>
<polygon fill="black" stroke="black" points="909.44,-223.36 904.46,-214 902.52,-224.41 909.44,-223.36"/>
</g>
<!-- cell_line_effect&#45;&gt;eta -->
<g id="edge26" class="edge">
<title>cell_line_effect&#45;&gt;eta</title>
<path fill="none" stroke="black" d="M914.06,-363.64C914.3,-351.65 914.58,-337.19 914.84,-324.17"/>
<polygon fill="black" stroke="black" points="918.34,-324.17 915.04,-314.1 911.34,-324.03 918.34,-324.17"/>
</g>
<!-- gene_effect&#45;&gt;eta -->
<g id="edge29" class="edge">
<title>gene_effect&#45;&gt;eta</title>
<path fill="none" stroke="black" d="M816.85,-363.63C826.79,-350.11 840.15,-333.9 854.55,-321.91 856.77,-320.06 859.1,-318.26 861.52,-316.53"/>
<polygon fill="black" stroke="black" points="863.6,-319.34 869.95,-310.86 859.7,-313.53 863.6,-319.34"/>
</g>
</g>
</svg>
