<?xml version="1.0" encoding="UTF-8" standalone="no"?>
<!DOCTYPE svg PUBLIC "-//W3C//DTD SVG 1.1//EN"
 "http://www.w3.org/Graphics/SVG/1.1/DTD/svg11.dtd">
<!-- Generated by graphviz version 2.46.1 (0)
 -->
<!-- Pages: 1 -->
<svg width="680pt" height="702pt"
 viewBox="0.00 0.00 680.40 701.72" xmlns="http://www.w3.org/2000/svg" xmlns:xlink="http://www.w3.org/1999/xlink">
<g id="graph0" class="graph" transform="scale(1 1) rotate(0) translate(4 697.72)">
<polygon fill="white" stroke="transparent" points="-4,4 -4,-697.72 676.4,-697.72 676.4,4 -4,4"/>
<g id="clust1" class="cluster">
<title>cluster2</title>
<path fill="none" stroke="black" d="M440.4,-476.81C440.4,-476.81 652.4,-476.81 652.4,-476.81 658.4,-476.81 664.4,-482.81 664.4,-488.81 664.4,-488.81 664.4,-578.77 664.4,-578.77 664.4,-584.77 658.4,-590.77 652.4,-590.77 652.4,-590.77 440.4,-590.77 440.4,-590.77 434.4,-590.77 428.4,-584.77 428.4,-578.77 428.4,-578.77 428.4,-488.81 428.4,-488.81 428.4,-482.81 434.4,-476.81 440.4,-476.81"/>
<text text-anchor="middle" x="652.4" y="-484.61" font-family="Times,serif" font-size="14.00">2</text>
</g>
<g id="clust2" class="cluster">
<title>cluster100 x 2</title>
<path fill="none" stroke="black" d="M534.4,-354.86C534.4,-354.86 644.4,-354.86 644.4,-354.86 650.4,-354.86 656.4,-360.86 656.4,-366.86 656.4,-366.86 656.4,-456.81 656.4,-456.81 656.4,-462.81 650.4,-468.81 644.4,-468.81 644.4,-468.81 534.4,-468.81 534.4,-468.81 528.4,-468.81 522.4,-462.81 522.4,-456.81 522.4,-456.81 522.4,-366.86 522.4,-366.86 522.4,-360.86 528.4,-354.86 534.4,-354.86"/>
<text text-anchor="middle" x="626.9" y="-362.66" font-family="Times,serif" font-size="14.00">100 x 2</text>
</g>
<g id="clust3" class="cluster">
<title>cluster395</title>
<path fill="none" stroke="black" d="M540.4,-232.91C540.4,-232.91 592.4,-232.91 592.4,-232.91 598.4,-232.91 604.4,-238.91 604.4,-244.91 604.4,-244.91 604.4,-334.86 604.4,-334.86 604.4,-340.86 598.4,-346.86 592.4,-346.86 592.4,-346.86 540.4,-346.86 540.4,-346.86 534.4,-346.86 528.4,-340.86 528.4,-334.86 528.4,-334.86 528.4,-244.91 528.4,-244.91 528.4,-238.91 534.4,-232.91 540.4,-232.91"/>
<text text-anchor="middle" x="585.4" y="-240.71" font-family="Times,serif" font-size="14.00">395</text>
</g>
<g id="clust4" class="cluster">
<title>cluster100</title>
<path fill="none" stroke="black" d="M140.4,-232.91C140.4,-232.91 216.4,-232.91 216.4,-232.91 222.4,-232.91 228.4,-238.91 228.4,-244.91 228.4,-244.91 228.4,-334.86 228.4,-334.86 228.4,-340.86 222.4,-346.86 216.4,-346.86 216.4,-346.86 140.4,-346.86 140.4,-346.86 134.4,-346.86 128.4,-340.86 128.4,-334.86 128.4,-334.86 128.4,-244.91 128.4,-244.91 128.4,-238.91 134.4,-232.91 140.4,-232.91"/>
<text text-anchor="middle" x="209.4" y="-240.71" font-family="Times,serif" font-size="14.00">100</text>
</g>
<g id="clust5" class="cluster">
<title>cluster100 x 36</title>
<path fill="none" stroke="black" d="M378.4,-232.91C378.4,-232.91 454.4,-232.91 454.4,-232.91 460.4,-232.91 466.4,-238.91 466.4,-244.91 466.4,-244.91 466.4,-334.86 466.4,-334.86 466.4,-340.86 460.4,-346.86 454.4,-346.86 454.4,-346.86 378.4,-346.86 378.4,-346.86 372.4,-346.86 366.4,-340.86 366.4,-334.86 366.4,-334.86 366.4,-244.91 366.4,-244.91 366.4,-238.91 372.4,-232.91 378.4,-232.91"/>
<text text-anchor="middle" x="433.4" y="-240.71" font-family="Times,serif" font-size="14.00">100 x 36</text>
</g>
<g id="clust6" class="cluster">
<title>cluster34,760</title>
<path fill="none" stroke="black" d="M408.4,-8C408.4,-8 494.4,-8 494.4,-8 500.4,-8 506.4,-14 506.4,-20 506.4,-20 506.4,-209.93 506.4,-209.93 506.4,-215.93 500.4,-221.93 494.4,-221.93 494.4,-221.93 408.4,-221.93 408.4,-221.93 402.4,-221.93 396.4,-215.93 396.4,-209.93 396.4,-209.93 396.4,-20 396.4,-20 396.4,-14 402.4,-8 408.4,-8"/>
<text text-anchor="middle" x="478.9" y="-15.8" font-family="Times,serif" font-size="14.00">34,760</text>
</g>
<!-- η -->
<g id="node1" class="node">
<title>η</title>
<ellipse fill="none" stroke="black" cx="478.4" cy="-545.29" rx="41.94" ry="37.45"/>
<text text-anchor="middle" x="478.4" y="-556.59" font-family="Times,serif" font-size="14.00">η</text>
<text text-anchor="middle" x="478.4" y="-541.59" font-family="Times,serif" font-size="14.00">~</text>
<text text-anchor="middle" x="478.4" y="-526.59" font-family="Times,serif" font-size="14.00">Normal</text>
</g>
<!-- μ -->
<g id="node15" class="node">
<title>μ</title>
<polygon fill="none" stroke="black" points="497.9,-213.93 404.9,-213.93 404.9,-160.93 497.9,-160.93 497.9,-213.93"/>
<text text-anchor="middle" x="451.4" y="-198.73" font-family="Times,serif" font-size="14.00">μ</text>
<text text-anchor="middle" x="451.4" y="-183.73" font-family="Times,serif" font-size="14.00">~</text>
<text text-anchor="middle" x="451.4" y="-168.73" font-family="Times,serif" font-size="14.00">Deterministic</text>
</g>
<!-- η&#45;&gt;μ -->
<g id="edge12" class="edge">
<title>η&#45;&gt;μ</title>
<path fill="none" stroke="black" d="M481.85,-507.8C486.43,-449.1 491.65,-330.39 470.4,-232.91 469.74,-229.89 468.88,-226.82 467.88,-223.77"/>
<polygon fill="black" stroke="black" points="471.1,-222.39 464.35,-214.23 464.54,-224.82 471.1,-222.39"/>
</g>
<!-- σ_a -->
<g id="node2" class="node">
<title>σ_a</title>
<ellipse fill="none" stroke="black" cx="597.4" cy="-545.29" rx="59.29" ry="37.45"/>
<text text-anchor="middle" x="597.4" y="-556.59" font-family="Times,serif" font-size="14.00">σ_a</text>
<text text-anchor="middle" x="597.4" y="-541.59" font-family="Times,serif" font-size="14.00">~</text>
<text text-anchor="middle" x="597.4" y="-526.59" font-family="Times,serif" font-size="14.00">HalfNormal</text>
</g>
<!-- a -->
<g id="node3" class="node">
<title>a</title>
<ellipse fill="none" stroke="black" cx="589.4" cy="-423.34" rx="59.29" ry="37.45"/>
<text text-anchor="middle" x="589.4" y="-434.64" font-family="Times,serif" font-size="14.00">a</text>
<text text-anchor="middle" x="589.4" y="-419.64" font-family="Times,serif" font-size="14.00">~</text>
<text text-anchor="middle" x="589.4" y="-404.64" font-family="Times,serif" font-size="14.00">Exponential</text>
</g>
<!-- σ_a&#45;&gt;a -->
<g id="edge1" class="edge">
<title>σ_a&#45;&gt;a</title>
<path fill="none" stroke="black" d="M594.95,-507.65C594.19,-496.24 593.34,-483.51 592.54,-471.49"/>
<polygon fill="black" stroke="black" points="596.01,-470.91 591.85,-461.17 589.03,-471.38 596.01,-470.91"/>
</g>
<!-- q -->
<g id="node11" class="node">
<title>q</title>
<ellipse fill="none" stroke="black" cx="566.4" cy="-301.38" rx="29.9" ry="37.45"/>
<text text-anchor="middle" x="566.4" y="-312.68" font-family="Times,serif" font-size="14.00">q</text>
<text text-anchor="middle" x="566.4" y="-297.68" font-family="Times,serif" font-size="14.00">~</text>
<text text-anchor="middle" x="566.4" y="-282.68" font-family="Times,serif" font-size="14.00">Beta</text>
</g>
<!-- a&#45;&gt;q -->
<g id="edge2" class="edge">
<title>a&#45;&gt;q</title>
<path fill="none" stroke="black" d="M582.43,-386.02C580.14,-374.05 577.56,-360.58 575.15,-348.01"/>
<polygon fill="black" stroke="black" points="578.58,-347.32 573.26,-338.16 571.7,-348.64 578.58,-347.32"/>
</g>
<!-- σ -->
<g id="node4" class="node">
<title>σ</title>
<ellipse fill="none" stroke="black" cx="327.4" cy="-187.43" rx="59.29" ry="37.45"/>
<text text-anchor="middle" x="327.4" y="-198.73" font-family="Times,serif" font-size="14.00">σ</text>
<text text-anchor="middle" x="327.4" y="-183.73" font-family="Times,serif" font-size="14.00">~</text>
<text text-anchor="middle" x="327.4" y="-168.73" font-family="Times,serif" font-size="14.00">HalfNormal</text>
</g>
<!-- lfc -->
<g id="node14" class="node">
<title>lfc</title>
<ellipse fill="lightgrey" stroke="black" cx="448.4" cy="-76.48" rx="41.94" ry="37.45"/>
<text text-anchor="middle" x="448.4" y="-87.78" font-family="Times,serif" font-size="14.00">lfc</text>
<text text-anchor="middle" x="448.4" y="-72.78" font-family="Times,serif" font-size="14.00">~</text>
<text text-anchor="middle" x="448.4" y="-57.78" font-family="Times,serif" font-size="14.00">Normal</text>
</g>
<!-- σ&#45;&gt;lfc -->
<g id="edge13" class="edge">
<title>σ&#45;&gt;lfc</title>
<path fill="none" stroke="black" d="M360.78,-156.37C376.53,-142.19 395.37,-125.22 411.54,-110.66"/>
<polygon fill="black" stroke="black" points="414.15,-113.03 419.24,-103.73 409.46,-107.82 414.15,-113.03"/>
</g>
<!-- σ_h -->
<g id="node5" class="node">
<title>σ_h</title>
<ellipse fill="none" stroke="black" cx="59.4" cy="-423.34" rx="59.29" ry="37.45"/>
<text text-anchor="middle" x="59.4" y="-434.64" font-family="Times,serif" font-size="14.00">σ_h</text>
<text text-anchor="middle" x="59.4" y="-419.64" font-family="Times,serif" font-size="14.00">~</text>
<text text-anchor="middle" x="59.4" y="-404.64" font-family="Times,serif" font-size="14.00">HalfNormal</text>
</g>
<!-- h -->
<g id="node12" class="node">
<title>h</title>
<ellipse fill="none" stroke="black" cx="178.4" cy="-301.38" rx="41.94" ry="37.45"/>
<text text-anchor="middle" x="178.4" y="-312.68" font-family="Times,serif" font-size="14.00">h</text>
<text text-anchor="middle" x="178.4" y="-297.68" font-family="Times,serif" font-size="14.00">~</text>
<text text-anchor="middle" x="178.4" y="-282.68" font-family="Times,serif" font-size="14.00">Normal</text>
</g>
<!-- σ_h&#45;&gt;h -->
<g id="edge3" class="edge">
<title>σ_h&#45;&gt;h</title>
<path fill="none" stroke="black" d="M90.35,-391.13C106.6,-374.76 126.56,-354.64 143.37,-337.69"/>
<polygon fill="black" stroke="black" points="146.29,-339.72 150.84,-330.16 141.32,-334.79 146.29,-339.72"/>
</g>
<!-- σ_η -->
<g id="node6" class="node">
<title>σ_η</title>
<ellipse fill="none" stroke="black" cx="419.4" cy="-656.24" rx="59.29" ry="37.45"/>
<text text-anchor="middle" x="419.4" y="-667.54" font-family="Times,serif" font-size="14.00">σ_η</text>
<text text-anchor="middle" x="419.4" y="-652.54" font-family="Times,serif" font-size="14.00">~</text>
<text text-anchor="middle" x="419.4" y="-637.54" font-family="Times,serif" font-size="14.00">HalfNormal</text>
</g>
<!-- σ_η&#45;&gt;η -->
<g id="edge7" class="edge">
<title>σ_η&#45;&gt;η</title>
<path fill="none" stroke="black" d="M438.23,-620.47C443.76,-610.26 449.86,-598.98 455.61,-588.36"/>
<polygon fill="black" stroke="black" points="458.86,-589.71 460.55,-579.25 452.71,-586.38 458.86,-589.71"/>
</g>
<!-- σ_d -->
<g id="node7" class="node">
<title>σ_d</title>
<ellipse fill="none" stroke="black" cx="297.4" cy="-423.34" rx="59.29" ry="37.45"/>
<text text-anchor="middle" x="297.4" y="-434.64" font-family="Times,serif" font-size="14.00">σ_d</text>
<text text-anchor="middle" x="297.4" y="-419.64" font-family="Times,serif" font-size="14.00">~</text>
<text text-anchor="middle" x="297.4" y="-404.64" font-family="Times,serif" font-size="14.00">HalfNormal</text>
</g>
<!-- d -->
<g id="node13" class="node">
<title>d</title>
<ellipse fill="none" stroke="black" cx="416.4" cy="-301.38" rx="41.94" ry="37.45"/>
<text text-anchor="middle" x="416.4" y="-312.68" font-family="Times,serif" font-size="14.00">d</text>
<text text-anchor="middle" x="416.4" y="-297.68" font-family="Times,serif" font-size="14.00">~</text>
<text text-anchor="middle" x="416.4" y="-282.68" font-family="Times,serif" font-size="14.00">Normal</text>
</g>
<!-- σ_d&#45;&gt;d -->
<g id="edge6" class="edge">
<title>σ_d&#45;&gt;d</title>
<path fill="none" stroke="black" d="M328.35,-391.13C344.6,-374.76 364.56,-354.64 381.37,-337.69"/>
<polygon fill="black" stroke="black" points="384.29,-339.72 388.84,-330.16 379.32,-334.79 384.29,-339.72"/>
</g>
<!-- μ_d -->
<g id="node8" class="node">
<title>μ_d</title>
<ellipse fill="none" stroke="black" cx="416.4" cy="-423.34" rx="41.94" ry="37.45"/>
<text text-anchor="middle" x="416.4" y="-434.64" font-family="Times,serif" font-size="14.00">μ_d</text>
<text text-anchor="middle" x="416.4" y="-419.64" font-family="Times,serif" font-size="14.00">~</text>
<text text-anchor="middle" x="416.4" y="-404.64" font-family="Times,serif" font-size="14.00">Normal</text>
</g>
<!-- μ_d&#45;&gt;d -->
<g id="edge5" class="edge">
<title>μ_d&#45;&gt;d</title>
<path fill="none" stroke="black" d="M416.4,-385.69C416.4,-374.29 416.4,-361.55 416.4,-349.54"/>
<polygon fill="black" stroke="black" points="419.9,-349.21 416.4,-339.21 412.9,-349.21 419.9,-349.21"/>
</g>
<!-- μ_η -->
<g id="node9" class="node">
<title>μ_η</title>
<ellipse fill="none" stroke="black" cx="538.4" cy="-656.24" rx="41.94" ry="37.45"/>
<text text-anchor="middle" x="538.4" y="-667.54" font-family="Times,serif" font-size="14.00">μ_η</text>
<text text-anchor="middle" x="538.4" y="-652.54" font-family="Times,serif" font-size="14.00">~</text>
<text text-anchor="middle" x="538.4" y="-637.54" font-family="Times,serif" font-size="14.00">Normal</text>
</g>
<!-- μ_η&#45;&gt;η -->
<g id="edge8" class="edge">
<title>μ_η&#45;&gt;η</title>
<path fill="none" stroke="black" d="M520.23,-622.26C514.3,-611.48 507.63,-599.37 501.39,-588.04"/>
<polygon fill="black" stroke="black" points="504.39,-586.23 496.5,-579.16 498.26,-589.61 504.39,-586.23"/>
</g>
<!-- μ_h -->
<g id="node10" class="node">
<title>μ_h</title>
<ellipse fill="none" stroke="black" cx="178.4" cy="-423.34" rx="41.94" ry="37.45"/>
<text text-anchor="middle" x="178.4" y="-434.64" font-family="Times,serif" font-size="14.00">μ_h</text>
<text text-anchor="middle" x="178.4" y="-419.64" font-family="Times,serif" font-size="14.00">~</text>
<text text-anchor="middle" x="178.4" y="-404.64" font-family="Times,serif" font-size="14.00">Normal</text>
</g>
<!-- μ_h&#45;&gt;h -->
<g id="edge4" class="edge">
<title>μ_h&#45;&gt;h</title>
<path fill="none" stroke="black" d="M178.4,-385.69C178.4,-374.29 178.4,-361.55 178.4,-349.54"/>
<polygon fill="black" stroke="black" points="181.9,-349.21 178.4,-339.21 174.9,-349.21 181.9,-349.21"/>
</g>
<!-- q&#45;&gt;μ -->
<g id="edge9" class="edge">
<title>q&#45;&gt;μ</title>
<path fill="none" stroke="black" d="M543.83,-276.62C531.23,-263.54 515.15,-247.12 500.4,-232.91 496.36,-229.02 492.09,-225 487.81,-221.04"/>
<polygon fill="black" stroke="black" points="489.9,-218.2 480.16,-214.02 485.16,-223.36 489.9,-218.2"/>
</g>
<!-- h&#45;&gt;μ -->
<g id="edge10" class="edge">
<title>h&#45;&gt;μ</title>
<path fill="none" stroke="black" d="M216.03,-285.15C252.92,-270.56 310.95,-248.52 362.4,-232.91 376.84,-228.52 381.54,-230.89 395.4,-224.91 399.29,-223.23 403.22,-221.28 407.08,-219.18"/>
<polygon fill="black" stroke="black" points="409.05,-222.09 415.96,-214.05 405.55,-216.03 409.05,-222.09"/>
</g>
<!-- d&#45;&gt;μ -->
<g id="edge11" class="edge">
<title>d&#45;&gt;μ</title>
<path fill="none" stroke="black" d="M427.47,-264.96C431.59,-251.79 436.26,-236.86 440.37,-223.7"/>
<polygon fill="black" stroke="black" points="443.75,-224.63 443.39,-214.04 437.06,-222.54 443.75,-224.63"/>
</g>
<!-- μ&#45;&gt;lfc -->
<g id="edge14" class="edge">
<title>μ&#45;&gt;lfc</title>
<path fill="none" stroke="black" d="M450.69,-160.89C450.39,-149.98 450.03,-136.89 449.69,-124.35"/>
<polygon fill="black" stroke="black" points="453.18,-123.9 449.4,-114 446.18,-124.09 453.18,-123.9"/>
</g>
</g>
</svg>
