<?xml version="1.0" encoding="UTF-8" standalone="no"?>
<!DOCTYPE svg PUBLIC "-//W3C//DTD SVG 1.1//EN"
 "http://www.w3.org/Graphics/SVG/1.1/DTD/svg11.dtd">
<!-- Generated by graphviz version 2.46.1 (0)
 -->
<!-- Pages: 1 -->
<svg width="918pt" height="702pt"
 viewBox="0.00 0.00 918.40 701.72" xmlns="http://www.w3.org/2000/svg" xmlns:xlink="http://www.w3.org/1999/xlink">
<g id="graph0" class="graph" transform="scale(1 1) rotate(0) translate(4 697.72)">
<polygon fill="white" stroke="transparent" points="-4,4 -4,-697.72 914.4,-697.72 914.4,4 -4,4"/>
<g id="clust1" class="cluster">
<title>cluster2</title>
<path fill="none" stroke="black" d="M678.4,-476.81C678.4,-476.81 890.4,-476.81 890.4,-476.81 896.4,-476.81 902.4,-482.81 902.4,-488.81 902.4,-488.81 902.4,-578.77 902.4,-578.77 902.4,-584.77 896.4,-590.77 890.4,-590.77 890.4,-590.77 678.4,-590.77 678.4,-590.77 672.4,-590.77 666.4,-584.77 666.4,-578.77 666.4,-578.77 666.4,-488.81 666.4,-488.81 666.4,-482.81 672.4,-476.81 678.4,-476.81"/>
<text text-anchor="middle" x="890.4" y="-484.61" font-family="Times,serif" font-size="14.00">2</text>
</g>
<g id="clust2" class="cluster">
<title>cluster99 x 2</title>
<path fill="none" stroke="black" d="M772.4,-354.86C772.4,-354.86 882.4,-354.86 882.4,-354.86 888.4,-354.86 894.4,-360.86 894.4,-366.86 894.4,-366.86 894.4,-456.81 894.4,-456.81 894.4,-462.81 888.4,-468.81 882.4,-468.81 882.4,-468.81 772.4,-468.81 772.4,-468.81 766.4,-468.81 760.4,-462.81 760.4,-456.81 760.4,-456.81 760.4,-366.86 760.4,-366.86 760.4,-360.86 766.4,-354.86 772.4,-354.86"/>
<text text-anchor="middle" x="868.4" y="-362.66" font-family="Times,serif" font-size="14.00">99 x 2</text>
</g>
<g id="clust3" class="cluster">
<title>cluster391</title>
<path fill="none" stroke="black" d="M778.4,-232.91C778.4,-232.91 830.4,-232.91 830.4,-232.91 836.4,-232.91 842.4,-238.91 842.4,-244.91 842.4,-244.91 842.4,-334.86 842.4,-334.86 842.4,-340.86 836.4,-346.86 830.4,-346.86 830.4,-346.86 778.4,-346.86 778.4,-346.86 772.4,-346.86 766.4,-340.86 766.4,-334.86 766.4,-334.86 766.4,-244.91 766.4,-244.91 766.4,-238.91 772.4,-232.91 778.4,-232.91"/>
<text text-anchor="middle" x="823.4" y="-240.71" font-family="Times,serif" font-size="14.00">391</text>
</g>
<g id="clust4" class="cluster">
<title>cluster99</title>
<path fill="none" stroke="black" d="M140.4,-232.91C140.4,-232.91 216.4,-232.91 216.4,-232.91 222.4,-232.91 228.4,-238.91 228.4,-244.91 228.4,-244.91 228.4,-334.86 228.4,-334.86 228.4,-340.86 222.4,-346.86 216.4,-346.86 216.4,-346.86 140.4,-346.86 140.4,-346.86 134.4,-346.86 128.4,-340.86 128.4,-334.86 128.4,-334.86 128.4,-244.91 128.4,-244.91 128.4,-238.91 134.4,-232.91 140.4,-232.91"/>
<text text-anchor="middle" x="212.9" y="-240.71" font-family="Times,serif" font-size="14.00">99</text>
</g>
<g id="clust5" class="cluster">
<title>cluster99 x 36</title>
<path fill="none" stroke="black" d="M378.4,-232.91C378.4,-232.91 454.4,-232.91 454.4,-232.91 460.4,-232.91 466.4,-238.91 466.4,-244.91 466.4,-244.91 466.4,-334.86 466.4,-334.86 466.4,-340.86 460.4,-346.86 454.4,-346.86 454.4,-346.86 378.4,-346.86 378.4,-346.86 372.4,-346.86 366.4,-340.86 366.4,-334.86 366.4,-334.86 366.4,-244.91 366.4,-244.91 366.4,-238.91 372.4,-232.91 378.4,-232.91"/>
<text text-anchor="middle" x="436.9" y="-240.71" font-family="Times,serif" font-size="14.00">99 x 36</text>
</g>
<g id="clust6" class="cluster">
<title>cluster36</title>
<path fill="none" stroke="black" d="M556.4,-232.91C556.4,-232.91 632.4,-232.91 632.4,-232.91 638.4,-232.91 644.4,-238.91 644.4,-244.91 644.4,-244.91 644.4,-334.86 644.4,-334.86 644.4,-340.86 638.4,-346.86 632.4,-346.86 632.4,-346.86 556.4,-346.86 556.4,-346.86 550.4,-346.86 544.4,-340.86 544.4,-334.86 544.4,-334.86 544.4,-244.91 544.4,-244.91 544.4,-238.91 550.4,-232.91 556.4,-232.91"/>
<text text-anchor="middle" x="628.9" y="-240.71" font-family="Times,serif" font-size="14.00">36</text>
</g>
<g id="clust7" class="cluster">
<title>cluster34,408</title>
<path fill="none" stroke="black" d="M551.4,-8C551.4,-8 637.4,-8 637.4,-8 643.4,-8 649.4,-14 649.4,-20 649.4,-20 649.4,-209.93 649.4,-209.93 649.4,-215.93 643.4,-221.93 637.4,-221.93 637.4,-221.93 551.4,-221.93 551.4,-221.93 545.4,-221.93 539.4,-215.93 539.4,-209.93 539.4,-209.93 539.4,-20 539.4,-20 539.4,-14 545.4,-8 551.4,-8"/>
<text text-anchor="middle" x="621.9" y="-15.8" font-family="Times,serif" font-size="14.00">34,408</text>
</g>
<!-- η -->
<g id="node1" class="node">
<title>η</title>
<ellipse fill="none" stroke="black" cx="716.4" cy="-545.29" rx="41.94" ry="37.45"/>
<text text-anchor="middle" x="716.4" y="-556.59" font-family="Times,serif" font-size="14.00">η</text>
<text text-anchor="middle" x="716.4" y="-541.59" font-family="Times,serif" font-size="14.00">~</text>
<text text-anchor="middle" x="716.4" y="-526.59" font-family="Times,serif" font-size="14.00">Normal</text>
</g>
<!-- μ -->
<g id="node18" class="node">
<title>μ</title>
<polygon fill="none" stroke="black" points="640.9,-213.93 547.9,-213.93 547.9,-160.93 640.9,-160.93 640.9,-213.93"/>
<text text-anchor="middle" x="594.4" y="-198.73" font-family="Times,serif" font-size="14.00">μ</text>
<text text-anchor="middle" x="594.4" y="-183.73" font-family="Times,serif" font-size="14.00">~</text>
<text text-anchor="middle" x="594.4" y="-168.73" font-family="Times,serif" font-size="14.00">Deterministic</text>
</g>
<!-- η&#45;&gt;μ -->
<g id="edge15" class="edge">
<title>η&#45;&gt;μ</title>
<path fill="none" stroke="black" d="M718.32,-507.71C719.41,-469.1 718.52,-406.76 705.4,-354.86 690.73,-296.86 685.06,-280.19 648.4,-232.91 645.22,-228.81 641.61,-224.85 637.78,-221.08"/>
<polygon fill="black" stroke="black" points="639.96,-218.33 630.24,-214.11 635.21,-223.47 639.96,-218.33"/>
</g>
<!-- σ_a -->
<g id="node2" class="node">
<title>σ_a</title>
<ellipse fill="none" stroke="black" cx="835.4" cy="-545.29" rx="59.29" ry="37.45"/>
<text text-anchor="middle" x="835.4" y="-556.59" font-family="Times,serif" font-size="14.00">σ_a</text>
<text text-anchor="middle" x="835.4" y="-541.59" font-family="Times,serif" font-size="14.00">~</text>
<text text-anchor="middle" x="835.4" y="-526.59" font-family="Times,serif" font-size="14.00">HalfNormal</text>
</g>
<!-- a -->
<g id="node3" class="node">
<title>a</title>
<ellipse fill="none" stroke="black" cx="827.4" cy="-423.34" rx="59.29" ry="37.45"/>
<text text-anchor="middle" x="827.4" y="-434.64" font-family="Times,serif" font-size="14.00">a</text>
<text text-anchor="middle" x="827.4" y="-419.64" font-family="Times,serif" font-size="14.00">~</text>
<text text-anchor="middle" x="827.4" y="-404.64" font-family="Times,serif" font-size="14.00">Exponential</text>
</g>
<!-- σ_a&#45;&gt;a -->
<g id="edge1" class="edge">
<title>σ_a&#45;&gt;a</title>
<path fill="none" stroke="black" d="M832.95,-507.65C832.19,-496.24 831.34,-483.51 830.54,-471.49"/>
<polygon fill="black" stroke="black" points="834.01,-470.91 829.85,-461.17 827.03,-471.38 834.01,-470.91"/>
</g>
<!-- q -->
<g id="node13" class="node">
<title>q</title>
<ellipse fill="none" stroke="black" cx="804.4" cy="-301.38" rx="29.9" ry="37.45"/>
<text text-anchor="middle" x="804.4" y="-312.68" font-family="Times,serif" font-size="14.00">q</text>
<text text-anchor="middle" x="804.4" y="-297.68" font-family="Times,serif" font-size="14.00">~</text>
<text text-anchor="middle" x="804.4" y="-282.68" font-family="Times,serif" font-size="14.00">Beta</text>
</g>
<!-- a&#45;&gt;q -->
<g id="edge2" class="edge">
<title>a&#45;&gt;q</title>
<path fill="none" stroke="black" d="M820.43,-386.02C818.14,-374.05 815.56,-360.58 813.15,-348.01"/>
<polygon fill="black" stroke="black" points="816.58,-347.32 811.26,-338.16 809.7,-348.64 816.58,-347.32"/>
</g>
<!-- σ -->
<g id="node4" class="node">
<title>σ</title>
<ellipse fill="none" stroke="black" cx="470.4" cy="-187.43" rx="59.29" ry="37.45"/>
<text text-anchor="middle" x="470.4" y="-198.73" font-family="Times,serif" font-size="14.00">σ</text>
<text text-anchor="middle" x="470.4" y="-183.73" font-family="Times,serif" font-size="14.00">~</text>
<text text-anchor="middle" x="470.4" y="-168.73" font-family="Times,serif" font-size="14.00">HalfNormal</text>
</g>
<!-- lfc -->
<g id="node17" class="node">
<title>lfc</title>
<ellipse fill="lightgrey" stroke="black" cx="591.4" cy="-76.48" rx="41.94" ry="37.45"/>
<text text-anchor="middle" x="591.4" y="-87.78" font-family="Times,serif" font-size="14.00">lfc</text>
<text text-anchor="middle" x="591.4" y="-72.78" font-family="Times,serif" font-size="14.00">~</text>
<text text-anchor="middle" x="591.4" y="-57.78" font-family="Times,serif" font-size="14.00">Normal</text>
</g>
<!-- σ&#45;&gt;lfc -->
<g id="edge16" class="edge">
<title>σ&#45;&gt;lfc</title>
<path fill="none" stroke="black" d="M503.78,-156.37C519.53,-142.19 538.37,-125.22 554.54,-110.66"/>
<polygon fill="black" stroke="black" points="557.15,-113.03 562.24,-103.73 552.46,-107.82 557.15,-113.03"/>
</g>
<!-- σ_β -->
<g id="node5" class="node">
<title>σ_β</title>
<ellipse fill="none" stroke="black" cx="535.4" cy="-423.34" rx="59.29" ry="37.45"/>
<text text-anchor="middle" x="535.4" y="-434.64" font-family="Times,serif" font-size="14.00">σ_β</text>
<text text-anchor="middle" x="535.4" y="-419.64" font-family="Times,serif" font-size="14.00">~</text>
<text text-anchor="middle" x="535.4" y="-404.64" font-family="Times,serif" font-size="14.00">HalfNormal</text>
</g>
<!-- β -->
<g id="node16" class="node">
<title>β</title>
<ellipse fill="none" stroke="black" cx="594.4" cy="-301.38" rx="41.94" ry="37.45"/>
<text text-anchor="middle" x="594.4" y="-312.68" font-family="Times,serif" font-size="14.00">β</text>
<text text-anchor="middle" x="594.4" y="-297.68" font-family="Times,serif" font-size="14.00">~</text>
<text text-anchor="middle" x="594.4" y="-282.68" font-family="Times,serif" font-size="14.00">Normal</text>
</g>
<!-- σ_β&#45;&gt;β -->
<g id="edge7" class="edge">
<title>σ_β&#45;&gt;β</title>
<path fill="none" stroke="black" d="M552.62,-387.32C559.09,-374.17 566.51,-359.08 573.29,-345.29"/>
<polygon fill="black" stroke="black" points="576.59,-346.52 577.86,-336 570.31,-343.43 576.59,-346.52"/>
</g>
<!-- μ_β -->
<g id="node6" class="node">
<title>μ_β</title>
<ellipse fill="none" stroke="black" cx="654.4" cy="-423.34" rx="41.94" ry="37.45"/>
<text text-anchor="middle" x="654.4" y="-434.64" font-family="Times,serif" font-size="14.00">μ_β</text>
<text text-anchor="middle" x="654.4" y="-419.64" font-family="Times,serif" font-size="14.00">~</text>
<text text-anchor="middle" x="654.4" y="-404.64" font-family="Times,serif" font-size="14.00">Normal</text>
</g>
<!-- μ_β&#45;&gt;β -->
<g id="edge8" class="edge">
<title>μ_β&#45;&gt;β</title>
<path fill="none" stroke="black" d="M637.68,-388.92C630.91,-375.39 623.01,-359.59 615.83,-345.23"/>
<polygon fill="black" stroke="black" points="618.83,-343.41 611.23,-336.03 612.57,-346.54 618.83,-343.41"/>
</g>
<!-- σ_h -->
<g id="node7" class="node">
<title>σ_h</title>
<ellipse fill="none" stroke="black" cx="59.4" cy="-423.34" rx="59.29" ry="37.45"/>
<text text-anchor="middle" x="59.4" y="-434.64" font-family="Times,serif" font-size="14.00">σ_h</text>
<text text-anchor="middle" x="59.4" y="-419.64" font-family="Times,serif" font-size="14.00">~</text>
<text text-anchor="middle" x="59.4" y="-404.64" font-family="Times,serif" font-size="14.00">HalfNormal</text>
</g>
<!-- h -->
<g id="node14" class="node">
<title>h</title>
<ellipse fill="none" stroke="black" cx="178.4" cy="-301.38" rx="41.94" ry="37.45"/>
<text text-anchor="middle" x="178.4" y="-312.68" font-family="Times,serif" font-size="14.00">h</text>
<text text-anchor="middle" x="178.4" y="-297.68" font-family="Times,serif" font-size="14.00">~</text>
<text text-anchor="middle" x="178.4" y="-282.68" font-family="Times,serif" font-size="14.00">Normal</text>
</g>
<!-- σ_h&#45;&gt;h -->
<g id="edge3" class="edge">
<title>σ_h&#45;&gt;h</title>
<path fill="none" stroke="black" d="M90.35,-391.13C106.6,-374.76 126.56,-354.64 143.37,-337.69"/>
<polygon fill="black" stroke="black" points="146.29,-339.72 150.84,-330.16 141.32,-334.79 146.29,-339.72"/>
</g>
<!-- σ_η -->
<g id="node8" class="node">
<title>σ_η</title>
<ellipse fill="none" stroke="black" cx="657.4" cy="-656.24" rx="59.29" ry="37.45"/>
<text text-anchor="middle" x="657.4" y="-667.54" font-family="Times,serif" font-size="14.00">σ_η</text>
<text text-anchor="middle" x="657.4" y="-652.54" font-family="Times,serif" font-size="14.00">~</text>
<text text-anchor="middle" x="657.4" y="-637.54" font-family="Times,serif" font-size="14.00">HalfNormal</text>
</g>
<!-- σ_η&#45;&gt;η -->
<g id="edge9" class="edge">
<title>σ_η&#45;&gt;η</title>
<path fill="none" stroke="black" d="M676.23,-620.47C681.76,-610.26 687.86,-598.98 693.61,-588.36"/>
<polygon fill="black" stroke="black" points="696.86,-589.71 698.55,-579.25 690.71,-586.38 696.86,-589.71"/>
</g>
<!-- σ_d -->
<g id="node9" class="node">
<title>σ_d</title>
<ellipse fill="none" stroke="black" cx="297.4" cy="-423.34" rx="59.29" ry="37.45"/>
<text text-anchor="middle" x="297.4" y="-434.64" font-family="Times,serif" font-size="14.00">σ_d</text>
<text text-anchor="middle" x="297.4" y="-419.64" font-family="Times,serif" font-size="14.00">~</text>
<text text-anchor="middle" x="297.4" y="-404.64" font-family="Times,serif" font-size="14.00">HalfNormal</text>
</g>
<!-- d -->
<g id="node15" class="node">
<title>d</title>
<ellipse fill="none" stroke="black" cx="416.4" cy="-301.38" rx="41.94" ry="37.45"/>
<text text-anchor="middle" x="416.4" y="-312.68" font-family="Times,serif" font-size="14.00">d</text>
<text text-anchor="middle" x="416.4" y="-297.68" font-family="Times,serif" font-size="14.00">~</text>
<text text-anchor="middle" x="416.4" y="-282.68" font-family="Times,serif" font-size="14.00">Normal</text>
</g>
<!-- σ_d&#45;&gt;d -->
<g id="edge6" class="edge">
<title>σ_d&#45;&gt;d</title>
<path fill="none" stroke="black" d="M328.35,-391.13C344.6,-374.76 364.56,-354.64 381.37,-337.69"/>
<polygon fill="black" stroke="black" points="384.29,-339.72 388.84,-330.16 379.32,-334.79 384.29,-339.72"/>
</g>
<!-- μ_d -->
<g id="node10" class="node">
<title>μ_d</title>
<ellipse fill="none" stroke="black" cx="416.4" cy="-423.34" rx="41.94" ry="37.45"/>
<text text-anchor="middle" x="416.4" y="-434.64" font-family="Times,serif" font-size="14.00">μ_d</text>
<text text-anchor="middle" x="416.4" y="-419.64" font-family="Times,serif" font-size="14.00">~</text>
<text text-anchor="middle" x="416.4" y="-404.64" font-family="Times,serif" font-size="14.00">Normal</text>
</g>
<!-- μ_d&#45;&gt;d -->
<g id="edge5" class="edge">
<title>μ_d&#45;&gt;d</title>
<path fill="none" stroke="black" d="M416.4,-385.69C416.4,-374.29 416.4,-361.55 416.4,-349.54"/>
<polygon fill="black" stroke="black" points="419.9,-349.21 416.4,-339.21 412.9,-349.21 419.9,-349.21"/>
</g>
<!-- μ_η -->
<g id="node11" class="node">
<title>μ_η</title>
<ellipse fill="none" stroke="black" cx="776.4" cy="-656.24" rx="41.94" ry="37.45"/>
<text text-anchor="middle" x="776.4" y="-667.54" font-family="Times,serif" font-size="14.00">μ_η</text>
<text text-anchor="middle" x="776.4" y="-652.54" font-family="Times,serif" font-size="14.00">~</text>
<text text-anchor="middle" x="776.4" y="-637.54" font-family="Times,serif" font-size="14.00">Normal</text>
</g>
<!-- μ_η&#45;&gt;η -->
<g id="edge10" class="edge">
<title>μ_η&#45;&gt;η</title>
<path fill="none" stroke="black" d="M758.23,-622.26C752.3,-611.48 745.63,-599.37 739.39,-588.04"/>
<polygon fill="black" stroke="black" points="742.39,-586.23 734.5,-579.16 736.26,-589.61 742.39,-586.23"/>
</g>
<!-- μ_h -->
<g id="node12" class="node">
<title>μ_h</title>
<ellipse fill="none" stroke="black" cx="178.4" cy="-423.34" rx="41.94" ry="37.45"/>
<text text-anchor="middle" x="178.4" y="-434.64" font-family="Times,serif" font-size="14.00">μ_h</text>
<text text-anchor="middle" x="178.4" y="-419.64" font-family="Times,serif" font-size="14.00">~</text>
<text text-anchor="middle" x="178.4" y="-404.64" font-family="Times,serif" font-size="14.00">Normal</text>
</g>
<!-- μ_h&#45;&gt;h -->
<g id="edge4" class="edge">
<title>μ_h&#45;&gt;h</title>
<path fill="none" stroke="black" d="M178.4,-385.69C178.4,-374.29 178.4,-361.55 178.4,-349.54"/>
<polygon fill="black" stroke="black" points="181.9,-349.21 178.4,-339.21 174.9,-349.21 181.9,-349.21"/>
</g>
<!-- q&#45;&gt;μ -->
<g id="edge12" class="edge">
<title>q&#45;&gt;μ</title>
<path fill="none" stroke="black" d="M783.97,-273.84C772.03,-259.92 755.88,-243.58 738.4,-232.91 711.74,-216.64 678.65,-205.87 650.9,-199.01"/>
<polygon fill="black" stroke="black" points="651.48,-195.55 640.95,-196.66 649.87,-202.37 651.48,-195.55"/>
</g>
<!-- h&#45;&gt;μ -->
<g id="edge11" class="edge">
<title>h&#45;&gt;μ</title>
<path fill="none" stroke="black" d="M215.13,-283.1C251.59,-266.87 309.53,-243.54 362.4,-232.91 400.78,-225.19 501.13,-236.9 538.4,-224.91 543.05,-223.41 547.69,-221.41 552.2,-219.13"/>
<polygon fill="black" stroke="black" points="554.19,-222.02 561.22,-214.09 550.78,-215.91 554.19,-222.02"/>
</g>
<!-- d&#45;&gt;μ -->
<g id="edge13" class="edge">
<title>d&#45;&gt;μ</title>
<path fill="none" stroke="black" d="M450.45,-279.61C474.99,-264.57 508.85,-243.66 538.4,-224.91 541.14,-223.17 543.95,-221.37 546.79,-219.55"/>
<polygon fill="black" stroke="black" points="548.8,-222.42 555.31,-214.06 545.01,-216.53 548.8,-222.42"/>
</g>
<!-- β&#45;&gt;μ -->
<g id="edge14" class="edge">
<title>β&#45;&gt;μ</title>
<path fill="none" stroke="black" d="M594.4,-263.73C594.4,-251.07 594.4,-236.92 594.4,-224.32"/>
<polygon fill="black" stroke="black" points="597.9,-224.18 594.4,-214.18 590.9,-224.18 597.9,-224.18"/>
</g>
<!-- μ&#45;&gt;lfc -->
<g id="edge17" class="edge">
<title>μ&#45;&gt;lfc</title>
<path fill="none" stroke="black" d="M593.69,-160.89C593.39,-149.98 593.03,-136.89 592.69,-124.35"/>
<polygon fill="black" stroke="black" points="596.18,-123.9 592.4,-114 589.18,-124.09 596.18,-123.9"/>
</g>
</g>
</svg>
