<?xml version="1.0" encoding="UTF-8" standalone="no"?>
<!DOCTYPE svg PUBLIC "-//W3C//DTD SVG 1.1//EN"
 "http://www.w3.org/Graphics/SVG/1.1/DTD/svg11.dtd">
<!-- Generated by graphviz version 2.47.0 (20210327.0129)
 -->
<!-- Pages: 1 -->
<svg width="1236pt" height="355pt"
 viewBox="0.00 0.00 1235.59 354.86" xmlns="http://www.w3.org/2000/svg" xmlns:xlink="http://www.w3.org/1999/xlink">
<g id="graph0" class="graph" transform="scale(1 1) rotate(0) translate(4 350.86)">
<polygon fill="white" stroke="transparent" points="-4,4 -4,-350.86 1231.59,-350.86 1231.59,4 -4,4"/>
<g id="clust1" class="cluster">
<title>cluster4</title>
<path fill="none" stroke="black" d="M412.3,-129.95C412.3,-129.95 658.3,-129.95 658.3,-129.95 664.3,-129.95 670.3,-135.95 670.3,-141.95 670.3,-141.95 670.3,-231.91 670.3,-231.91 670.3,-237.91 664.3,-243.91 658.3,-243.91 658.3,-243.91 412.3,-243.91 412.3,-243.91 406.3,-243.91 400.3,-237.91 400.3,-231.91 400.3,-231.91 400.3,-141.95 400.3,-141.95 400.3,-135.95 406.3,-129.95 412.3,-129.95"/>
<text text-anchor="middle" x="657.3" y="-137.75" font-family="Times-Roman" font-size="14.00">4</text>
</g>
<g id="clust2" class="cluster">
<title>cluster64 x 10</title>
<path fill="none" stroke="black" d="M160.3,-129.95C160.3,-129.95 250.3,-129.95 250.3,-129.95 256.3,-129.95 262.3,-135.95 262.3,-141.95 262.3,-141.95 262.3,-231.91 262.3,-231.91 262.3,-237.91 256.3,-243.91 250.3,-243.91 250.3,-243.91 160.3,-243.91 160.3,-243.91 154.3,-243.91 148.3,-237.91 148.3,-231.91 148.3,-231.91 148.3,-141.95 148.3,-141.95 148.3,-135.95 154.3,-129.95 160.3,-129.95"/>
<text text-anchor="middle" x="227.3" y="-137.75" font-family="Times-Roman" font-size="14.00">64 x 10</text>
</g>
<g id="clust3" class="cluster">
<title>cluster10</title>
<path fill="none" stroke="black" d="M725.3,-129.95C725.3,-129.95 815.3,-129.95 815.3,-129.95 821.3,-129.95 827.3,-135.95 827.3,-141.95 827.3,-141.95 827.3,-231.91 827.3,-231.91 827.3,-237.91 821.3,-243.91 815.3,-243.91 815.3,-243.91 725.3,-243.91 725.3,-243.91 719.3,-243.91 713.3,-237.91 713.3,-231.91 713.3,-231.91 713.3,-141.95 713.3,-141.95 713.3,-135.95 719.3,-129.95 725.3,-129.95"/>
<text text-anchor="middle" x="809.8" y="-137.75" font-family="Times-Roman" font-size="14.00">10</text>
</g>
<g id="clust4" class="cluster">
<title>cluster64</title>
<path fill="none" stroke="black" d="M977.3,-129.95C977.3,-129.95 1067.3,-129.95 1067.3,-129.95 1073.3,-129.95 1079.3,-135.95 1079.3,-141.95 1079.3,-141.95 1079.3,-231.91 1079.3,-231.91 1079.3,-237.91 1073.3,-243.91 1067.3,-243.91 1067.3,-243.91 977.3,-243.91 977.3,-243.91 971.3,-243.91 965.3,-237.91 965.3,-231.91 965.3,-231.91 965.3,-141.95 965.3,-141.95 965.3,-135.95 971.3,-129.95 977.3,-129.95"/>
<text text-anchor="middle" x="1061.8" y="-137.75" font-family="Times-Roman" font-size="14.00">64</text>
</g>
<g id="clust5" class="cluster">
<title>cluster1,443</title>
<path fill="none" stroke="black" d="M500.3,-8C500.3,-8 590.3,-8 590.3,-8 596.3,-8 602.3,-14 602.3,-20 602.3,-20 602.3,-109.95 602.3,-109.95 602.3,-115.95 596.3,-121.95 590.3,-121.95 590.3,-121.95 500.3,-121.95 500.3,-121.95 494.3,-121.95 488.3,-115.95 488.3,-109.95 488.3,-109.95 488.3,-20 488.3,-20 488.3,-14 494.3,-8 500.3,-8"/>
<text text-anchor="middle" x="573.8" y="-15.8" font-family="Times-Roman" font-size="14.00">1,443</text>
</g>
<!-- σ_h -->
<g id="node1" class="node">
<title>σ_h</title>
<ellipse fill="none" stroke="black" cx="69.3" cy="-309.38" rx="69.09" ry="37.45"/>
<text text-anchor="middle" x="69.3" y="-320.68" font-family="Times-Roman" font-size="14.00">σ_h</text>
<text text-anchor="middle" x="69.3" y="-305.68" font-family="Times-Roman" font-size="14.00">~</text>
<text text-anchor="middle" x="69.3" y="-290.68" font-family="Times-Roman" font-size="14.00">HalfNormal</text>
</g>
<!-- h -->
<g id="node13" class="node">
<title>h</title>
<ellipse fill="none" stroke="black" cx="205.3" cy="-198.43" rx="48.58" ry="37.45"/>
<text text-anchor="middle" x="205.3" y="-209.73" font-family="Times-Roman" font-size="14.00">h</text>
<text text-anchor="middle" x="205.3" y="-194.73" font-family="Times-Roman" font-size="14.00">~</text>
<text text-anchor="middle" x="205.3" y="-179.73" font-family="Times-Roman" font-size="14.00">Normal</text>
</g>
<!-- σ_h&#45;&gt;h -->
<g id="edge3" class="edge">
<title>σ_h&#45;&gt;h</title>
<path fill="none" stroke="black" d="M107.54,-277.74C125.12,-263.66 146,-246.93 163.94,-232.56"/>
<polygon fill="black" stroke="black" points="166.34,-235.12 171.96,-226.14 161.97,-229.66 166.34,-235.12"/>
</g>
<!-- μ_a -->
<g id="node2" class="node">
<title>μ_a</title>
<ellipse fill="none" stroke="black" cx="1022.3" cy="-309.38" rx="48.58" ry="37.45"/>
<text text-anchor="middle" x="1022.3" y="-320.68" font-family="Times-Roman" font-size="14.00">μ_a</text>
<text text-anchor="middle" x="1022.3" y="-305.68" font-family="Times-Roman" font-size="14.00">~</text>
<text text-anchor="middle" x="1022.3" y="-290.68" font-family="Times-Roman" font-size="14.00">Normal</text>
</g>
<!-- a -->
<g id="node15" class="node">
<title>a</title>
<ellipse fill="none" stroke="black" cx="1022.3" cy="-198.43" rx="48.58" ry="37.45"/>
<text text-anchor="middle" x="1022.3" y="-209.73" font-family="Times-Roman" font-size="14.00">a</text>
<text text-anchor="middle" x="1022.3" y="-194.73" font-family="Times-Roman" font-size="14.00">~</text>
<text text-anchor="middle" x="1022.3" y="-179.73" font-family="Times-Roman" font-size="14.00">Normal</text>
</g>
<!-- μ_a&#45;&gt;a -->
<g id="edge8" class="edge">
<title>μ_a&#45;&gt;a</title>
<path fill="none" stroke="black" d="M1022.3,-271.8C1022.3,-263.63 1022.3,-254.85 1022.3,-246.32"/>
<polygon fill="black" stroke="black" points="1025.8,-246.1 1022.3,-236.1 1018.8,-246.1 1025.8,-246.1"/>
</g>
<!-- σ_σ -->
<g id="node3" class="node">
<title>σ_σ</title>
<ellipse fill="none" stroke="black" cx="341.3" cy="-309.38" rx="69.09" ry="37.45"/>
<text text-anchor="middle" x="341.3" y="-320.68" font-family="Times-Roman" font-size="14.00">σ_σ</text>
<text text-anchor="middle" x="341.3" y="-305.68" font-family="Times-Roman" font-size="14.00">~</text>
<text text-anchor="middle" x="341.3" y="-290.68" font-family="Times-Roman" font-size="14.00">HalfNormal</text>
</g>
<!-- σ -->
<g id="node11" class="node">
<title>σ</title>
<ellipse fill="none" stroke="black" cx="477.3" cy="-198.43" rx="69.09" ry="37.45"/>
<text text-anchor="middle" x="477.3" y="-209.73" font-family="Times-Roman" font-size="14.00">σ</text>
<text text-anchor="middle" x="477.3" y="-194.73" font-family="Times-Roman" font-size="14.00">~</text>
<text text-anchor="middle" x="477.3" y="-179.73" font-family="Times-Roman" font-size="14.00">HalfNormal</text>
</g>
<!-- σ_σ&#45;&gt;σ -->
<g id="edge9" class="edge">
<title>σ_σ&#45;&gt;σ</title>
<path fill="none" stroke="black" d="M379.54,-277.74C395.61,-264.87 414.44,-249.78 431.26,-236.31"/>
<polygon fill="black" stroke="black" points="433.72,-238.82 439.34,-229.84 429.35,-233.36 433.72,-238.82"/>
</g>
<!-- μ_h -->
<g id="node4" class="node">
<title>μ_h</title>
<ellipse fill="none" stroke="black" cx="205.3" cy="-309.38" rx="48.58" ry="37.45"/>
<text text-anchor="middle" x="205.3" y="-320.68" font-family="Times-Roman" font-size="14.00">μ_h</text>
<text text-anchor="middle" x="205.3" y="-305.68" font-family="Times-Roman" font-size="14.00">~</text>
<text text-anchor="middle" x="205.3" y="-290.68" font-family="Times-Roman" font-size="14.00">Normal</text>
</g>
<!-- μ_h&#45;&gt;h -->
<g id="edge4" class="edge">
<title>μ_h&#45;&gt;h</title>
<path fill="none" stroke="black" d="M205.3,-271.8C205.3,-263.63 205.3,-254.85 205.3,-246.32"/>
<polygon fill="black" stroke="black" points="208.8,-246.1 205.3,-236.1 201.8,-246.1 208.8,-246.1"/>
</g>
<!-- σ_d -->
<g id="node5" class="node">
<title>σ_d</title>
<ellipse fill="none" stroke="black" cx="770.3" cy="-309.38" rx="69.09" ry="37.45"/>
<text text-anchor="middle" x="770.3" y="-320.68" font-family="Times-Roman" font-size="14.00">σ_d</text>
<text text-anchor="middle" x="770.3" y="-305.68" font-family="Times-Roman" font-size="14.00">~</text>
<text text-anchor="middle" x="770.3" y="-290.68" font-family="Times-Roman" font-size="14.00">HalfNormal</text>
</g>
<!-- d -->
<g id="node14" class="node">
<title>d</title>
<ellipse fill="none" stroke="black" cx="770.3" cy="-198.43" rx="48.58" ry="37.45"/>
<text text-anchor="middle" x="770.3" y="-209.73" font-family="Times-Roman" font-size="14.00">d</text>
<text text-anchor="middle" x="770.3" y="-194.73" font-family="Times-Roman" font-size="14.00">~</text>
<text text-anchor="middle" x="770.3" y="-179.73" font-family="Times-Roman" font-size="14.00">Normal</text>
</g>
<!-- σ_d&#45;&gt;d -->
<g id="edge6" class="edge">
<title>σ_d&#45;&gt;d</title>
<path fill="none" stroke="black" d="M770.3,-271.8C770.3,-263.63 770.3,-254.85 770.3,-246.32"/>
<polygon fill="black" stroke="black" points="773.8,-246.1 770.3,-236.1 766.8,-246.1 773.8,-246.1"/>
</g>
<!-- σ_j -->
<g id="node6" class="node">
<title>σ_j</title>
<ellipse fill="none" stroke="black" cx="498.3" cy="-309.38" rx="69.09" ry="37.45"/>
<text text-anchor="middle" x="498.3" y="-320.68" font-family="Times-Roman" font-size="14.00">σ_j</text>
<text text-anchor="middle" x="498.3" y="-305.68" font-family="Times-Roman" font-size="14.00">~</text>
<text text-anchor="middle" x="498.3" y="-290.68" font-family="Times-Roman" font-size="14.00">HalfNormal</text>
</g>
<!-- j -->
<g id="node12" class="node">
<title>j</title>
<ellipse fill="none" stroke="black" cx="613.3" cy="-198.43" rx="48.58" ry="37.45"/>
<text text-anchor="middle" x="613.3" y="-209.73" font-family="Times-Roman" font-size="14.00">j</text>
<text text-anchor="middle" x="613.3" y="-194.73" font-family="Times-Roman" font-size="14.00">~</text>
<text text-anchor="middle" x="613.3" y="-179.73" font-family="Times-Roman" font-size="14.00">Normal</text>
</g>
<!-- σ_j&#45;&gt;j -->
<g id="edge1" class="edge">
<title>σ_j&#45;&gt;j</title>
<path fill="none" stroke="black" d="M531.87,-276.58C545.52,-263.65 561.36,-248.64 575.42,-235.32"/>
<polygon fill="black" stroke="black" points="578.17,-237.53 583.02,-228.12 573.35,-232.45 578.17,-237.53"/>
</g>
<!-- σ_a -->
<g id="node7" class="node">
<title>σ_a</title>
<ellipse fill="none" stroke="black" cx="1158.3" cy="-309.38" rx="69.09" ry="37.45"/>
<text text-anchor="middle" x="1158.3" y="-320.68" font-family="Times-Roman" font-size="14.00">σ_a</text>
<text text-anchor="middle" x="1158.3" y="-305.68" font-family="Times-Roman" font-size="14.00">~</text>
<text text-anchor="middle" x="1158.3" y="-290.68" font-family="Times-Roman" font-size="14.00">HalfNormal</text>
</g>
<!-- σ_a&#45;&gt;a -->
<g id="edge7" class="edge">
<title>σ_a&#45;&gt;a</title>
<path fill="none" stroke="black" d="M1120.05,-277.74C1102.47,-263.66 1081.59,-246.93 1063.65,-232.56"/>
<polygon fill="black" stroke="black" points="1065.63,-229.66 1055.64,-226.14 1061.25,-235.12 1065.63,-229.66"/>
</g>
<!-- i -->
<g id="node8" class="node">
<title>i</title>
<ellipse fill="none" stroke="black" cx="341.3" cy="-198.43" rx="48.58" ry="37.45"/>
<text text-anchor="middle" x="341.3" y="-209.73" font-family="Times-Roman" font-size="14.00">i</text>
<text text-anchor="middle" x="341.3" y="-194.73" font-family="Times-Roman" font-size="14.00">~</text>
<text text-anchor="middle" x="341.3" y="-179.73" font-family="Times-Roman" font-size="14.00">Normal</text>
</g>
<!-- lfc -->
<g id="node16" class="node">
<title>lfc</title>
<ellipse fill="lightgrey" stroke="black" cx="545.3" cy="-76.48" rx="48.58" ry="37.45"/>
<text text-anchor="middle" x="545.3" y="-87.78" font-family="Times-Roman" font-size="14.00">lfc</text>
<text text-anchor="middle" x="545.3" y="-72.78" font-family="Times-Roman" font-size="14.00">~</text>
<text text-anchor="middle" x="545.3" y="-57.78" font-family="Times-Roman" font-size="14.00">Normal</text>
</g>
<!-- i&#45;&gt;lfc -->
<g id="edge15" class="edge">
<title>i&#45;&gt;lfc</title>
<path fill="none" stroke="black" d="M362.32,-164.57C371.51,-152.32 383.19,-139.17 396.3,-129.95 423.81,-110.61 459.16,-97.76 488.52,-89.61"/>
<polygon fill="black" stroke="black" points="489.46,-92.98 498.23,-87.03 487.66,-86.22 489.46,-92.98"/>
</g>
<!-- μ_j -->
<g id="node9" class="node">
<title>μ_j</title>
<ellipse fill="none" stroke="black" cx="634.3" cy="-309.38" rx="48.58" ry="37.45"/>
<text text-anchor="middle" x="634.3" y="-320.68" font-family="Times-Roman" font-size="14.00">μ_j</text>
<text text-anchor="middle" x="634.3" y="-305.68" font-family="Times-Roman" font-size="14.00">~</text>
<text text-anchor="middle" x="634.3" y="-290.68" font-family="Times-Roman" font-size="14.00">Normal</text>
</g>
<!-- μ_j&#45;&gt;j -->
<g id="edge2" class="edge">
<title>μ_j&#45;&gt;j</title>
<path fill="none" stroke="black" d="M627.3,-272.1C625.66,-263.56 623.88,-254.34 622.16,-245.43"/>
<polygon fill="black" stroke="black" points="625.59,-244.71 620.26,-235.55 618.71,-246.03 625.59,-244.71"/>
</g>
<!-- μ_d -->
<g id="node10" class="node">
<title>μ_d</title>
<ellipse fill="none" stroke="black" cx="906.3" cy="-309.38" rx="48.58" ry="37.45"/>
<text text-anchor="middle" x="906.3" y="-320.68" font-family="Times-Roman" font-size="14.00">μ_d</text>
<text text-anchor="middle" x="906.3" y="-305.68" font-family="Times-Roman" font-size="14.00">~</text>
<text text-anchor="middle" x="906.3" y="-290.68" font-family="Times-Roman" font-size="14.00">Normal</text>
</g>
<!-- μ_d&#45;&gt;d -->
<g id="edge5" class="edge">
<title>μ_d&#45;&gt;d</title>
<path fill="none" stroke="black" d="M873.03,-281.73C854.5,-266.89 831.28,-248.29 811.6,-232.52"/>
<polygon fill="black" stroke="black" points="813.69,-229.71 803.69,-226.19 809.31,-235.17 813.69,-229.71"/>
</g>
<!-- σ&#45;&gt;lfc -->
<g id="edge13" class="edge">
<title>σ&#45;&gt;lfc</title>
<path fill="none" stroke="black" d="M497.15,-162.41C504.67,-149.14 513.32,-133.88 521.2,-119.99"/>
<polygon fill="black" stroke="black" points="524.35,-121.52 526.24,-111.09 518.26,-118.07 524.35,-121.52"/>
</g>
<!-- j&#45;&gt;lfc -->
<g id="edge12" class="edge">
<title>j&#45;&gt;lfc</title>
<path fill="none" stroke="black" d="M594.17,-163.7C586.57,-150.28 577.73,-134.68 569.67,-120.47"/>
<polygon fill="black" stroke="black" points="572.49,-118.35 564.51,-111.37 566.4,-121.8 572.49,-118.35"/>
</g>
<!-- h&#45;&gt;lfc -->
<g id="edge14" class="edge">
<title>h&#45;&gt;lfc</title>
<path fill="none" stroke="black" d="M233.03,-167.16C246.88,-153.8 264.64,-139.09 283.3,-129.95 348.27,-98.13 431.31,-85.61 486.29,-80.68"/>
<polygon fill="black" stroke="black" points="486.89,-84.14 496.56,-79.81 486.3,-77.16 486.89,-84.14"/>
</g>
<!-- d&#45;&gt;lfc -->
<g id="edge10" class="edge">
<title>d&#45;&gt;lfc</title>
<path fill="none" stroke="black" d="M736.86,-171.11C718.94,-157.74 696.11,-141.86 674.3,-129.95 650.42,-116.92 622.62,-105.21 598.95,-96.18"/>
<polygon fill="black" stroke="black" points="600.01,-92.84 589.42,-92.6 597.55,-99.39 600.01,-92.84"/>
</g>
<!-- a&#45;&gt;lfc -->
<g id="edge11" class="edge">
<title>a&#45;&gt;lfc</title>
<path fill="none" stroke="black" d="M979.67,-180.18C941.36,-165.21 883.29,-143.81 831.3,-129.95 753.42,-109.19 661.43,-93.91 603.23,-85.36"/>
<polygon fill="black" stroke="black" points="603.52,-81.86 593.12,-83.89 602.52,-88.79 603.52,-81.86"/>
</g>
</g>
</svg>
