<?xml version="1.0" encoding="UTF-8" standalone="no"?>
<!DOCTYPE svg PUBLIC "-//W3C//DTD SVG 1.1//EN"
 "http://www.w3.org/Graphics/SVG/1.1/DTD/svg11.dtd">
<!-- Generated by graphviz version 2.47.0 (20210327.0129)
 -->
<!-- Pages: 1 -->
<svg width="1235pt" height="355pt"
 viewBox="0.00 0.00 1234.59 354.86" xmlns="http://www.w3.org/2000/svg" xmlns:xlink="http://www.w3.org/1999/xlink">
<g id="graph0" class="graph" transform="scale(1 1) rotate(0) translate(4 350.86)">
<polygon fill="white" stroke="transparent" points="-4,4 -4,-350.86 1230.59,-350.86 1230.59,4 -4,4"/>
<g id="clust1" class="cluster">
<title>cluster4</title>
<path fill="none" stroke="black" d="M140.3,-129.95C140.3,-129.95 386.3,-129.95 386.3,-129.95 392.3,-129.95 398.3,-135.95 398.3,-141.95 398.3,-141.95 398.3,-231.91 398.3,-231.91 398.3,-237.91 392.3,-243.91 386.3,-243.91 386.3,-243.91 140.3,-243.91 140.3,-243.91 134.3,-243.91 128.3,-237.91 128.3,-231.91 128.3,-231.91 128.3,-141.95 128.3,-141.95 128.3,-135.95 134.3,-129.95 140.3,-129.95"/>
<text text-anchor="middle" x="385.3" y="-137.75" font-family="Times-Roman" font-size="14.00">4</text>
</g>
<g id="clust2" class="cluster">
<title>cluster64 x 10</title>
<path fill="none" stroke="black" d="M548.3,-129.95C548.3,-129.95 638.3,-129.95 638.3,-129.95 644.3,-129.95 650.3,-135.95 650.3,-141.95 650.3,-141.95 650.3,-231.91 650.3,-231.91 650.3,-237.91 644.3,-243.91 638.3,-243.91 638.3,-243.91 548.3,-243.91 548.3,-243.91 542.3,-243.91 536.3,-237.91 536.3,-231.91 536.3,-231.91 536.3,-141.95 536.3,-141.95 536.3,-135.95 542.3,-129.95 548.3,-129.95"/>
<text text-anchor="middle" x="615.3" y="-137.75" font-family="Times-Roman" font-size="14.00">64 x 10</text>
</g>
<g id="clust3" class="cluster">
<title>cluster10</title>
<path fill="none" stroke="black" d="M704.3,-129.95C704.3,-129.95 794.3,-129.95 794.3,-129.95 800.3,-129.95 806.3,-135.95 806.3,-141.95 806.3,-141.95 806.3,-231.91 806.3,-231.91 806.3,-237.91 800.3,-243.91 794.3,-243.91 794.3,-243.91 704.3,-243.91 704.3,-243.91 698.3,-243.91 692.3,-237.91 692.3,-231.91 692.3,-231.91 692.3,-141.95 692.3,-141.95 692.3,-135.95 698.3,-129.95 704.3,-129.95"/>
<text text-anchor="middle" x="788.8" y="-137.75" font-family="Times-Roman" font-size="14.00">10</text>
</g>
<g id="clust4" class="cluster">
<title>cluster64</title>
<path fill="none" stroke="black" d="M976.3,-129.95C976.3,-129.95 1066.3,-129.95 1066.3,-129.95 1072.3,-129.95 1078.3,-135.95 1078.3,-141.95 1078.3,-141.95 1078.3,-231.91 1078.3,-231.91 1078.3,-237.91 1072.3,-243.91 1066.3,-243.91 1066.3,-243.91 976.3,-243.91 976.3,-243.91 970.3,-243.91 964.3,-237.91 964.3,-231.91 964.3,-231.91 964.3,-141.95 964.3,-141.95 964.3,-135.95 970.3,-129.95 976.3,-129.95"/>
<text text-anchor="middle" x="1060.8" y="-137.75" font-family="Times-Roman" font-size="14.00">64</text>
</g>
<g id="clust5" class="cluster">
<title>cluster1,443</title>
<path fill="none" stroke="black" d="M490.3,-8C490.3,-8 580.3,-8 580.3,-8 586.3,-8 592.3,-14 592.3,-20 592.3,-20 592.3,-109.95 592.3,-109.95 592.3,-115.95 586.3,-121.95 580.3,-121.95 580.3,-121.95 490.3,-121.95 490.3,-121.95 484.3,-121.95 478.3,-115.95 478.3,-109.95 478.3,-109.95 478.3,-20 478.3,-20 478.3,-14 484.3,-8 490.3,-8"/>
<text text-anchor="middle" x="563.8" y="-15.8" font-family="Times-Roman" font-size="14.00">1,443</text>
</g>
<!-- σ_σ -->
<g id="node1" class="node">
<title>σ_σ</title>
<ellipse fill="none" stroke="black" cx="69.3" cy="-309.38" rx="69.09" ry="37.45"/>
<text text-anchor="middle" x="69.3" y="-320.68" font-family="Times-Roman" font-size="14.00">σ_σ</text>
<text text-anchor="middle" x="69.3" y="-305.68" font-family="Times-Roman" font-size="14.00">~</text>
<text text-anchor="middle" x="69.3" y="-290.68" font-family="Times-Roman" font-size="14.00">HalfNormal</text>
</g>
<!-- σ -->
<g id="node12" class="node">
<title>σ</title>
<ellipse fill="none" stroke="black" cx="205.3" cy="-198.43" rx="69.09" ry="37.45"/>
<text text-anchor="middle" x="205.3" y="-209.73" font-family="Times-Roman" font-size="14.00">σ</text>
<text text-anchor="middle" x="205.3" y="-194.73" font-family="Times-Roman" font-size="14.00">~</text>
<text text-anchor="middle" x="205.3" y="-179.73" font-family="Times-Roman" font-size="14.00">HalfNormal</text>
</g>
<!-- σ_σ&#45;&gt;σ -->
<g id="edge9" class="edge">
<title>σ_σ&#45;&gt;σ</title>
<path fill="none" stroke="black" d="M107.54,-277.74C123.61,-264.87 142.44,-249.78 159.26,-236.31"/>
<polygon fill="black" stroke="black" points="161.72,-238.82 167.34,-229.84 157.35,-233.36 161.72,-238.82"/>
</g>
<!-- μ_d -->
<g id="node2" class="node">
<title>μ_d</title>
<ellipse fill="none" stroke="black" cx="749.3" cy="-309.38" rx="48.58" ry="37.45"/>
<text text-anchor="middle" x="749.3" y="-320.68" font-family="Times-Roman" font-size="14.00">μ_d</text>
<text text-anchor="middle" x="749.3" y="-305.68" font-family="Times-Roman" font-size="14.00">~</text>
<text text-anchor="middle" x="749.3" y="-290.68" font-family="Times-Roman" font-size="14.00">Normal</text>
</g>
<!-- d -->
<g id="node14" class="node">
<title>d</title>
<ellipse fill="none" stroke="black" cx="749.3" cy="-198.43" rx="48.58" ry="37.45"/>
<text text-anchor="middle" x="749.3" y="-209.73" font-family="Times-Roman" font-size="14.00">d</text>
<text text-anchor="middle" x="749.3" y="-194.73" font-family="Times-Roman" font-size="14.00">~</text>
<text text-anchor="middle" x="749.3" y="-179.73" font-family="Times-Roman" font-size="14.00">Normal</text>
</g>
<!-- μ_d&#45;&gt;d -->
<g id="edge5" class="edge">
<title>μ_d&#45;&gt;d</title>
<path fill="none" stroke="black" d="M749.3,-271.8C749.3,-263.63 749.3,-254.85 749.3,-246.32"/>
<polygon fill="black" stroke="black" points="752.8,-246.1 749.3,-236.1 745.8,-246.1 752.8,-246.1"/>
</g>
<!-- σ_d -->
<g id="node3" class="node">
<title>σ_d</title>
<ellipse fill="none" stroke="black" cx="885.3" cy="-309.38" rx="69.09" ry="37.45"/>
<text text-anchor="middle" x="885.3" y="-320.68" font-family="Times-Roman" font-size="14.00">σ_d</text>
<text text-anchor="middle" x="885.3" y="-305.68" font-family="Times-Roman" font-size="14.00">~</text>
<text text-anchor="middle" x="885.3" y="-290.68" font-family="Times-Roman" font-size="14.00">HalfNormal</text>
</g>
<!-- σ_d&#45;&gt;d -->
<g id="edge6" class="edge">
<title>σ_d&#45;&gt;d</title>
<path fill="none" stroke="black" d="M847.05,-277.74C829.47,-263.66 808.59,-246.93 790.65,-232.56"/>
<polygon fill="black" stroke="black" points="792.63,-229.66 782.64,-226.14 788.25,-235.12 792.63,-229.66"/>
</g>
<!-- i -->
<g id="node4" class="node">
<title>i</title>
<ellipse fill="none" stroke="black" cx="477.3" cy="-198.43" rx="48.58" ry="37.45"/>
<text text-anchor="middle" x="477.3" y="-209.73" font-family="Times-Roman" font-size="14.00">i</text>
<text text-anchor="middle" x="477.3" y="-194.73" font-family="Times-Roman" font-size="14.00">~</text>
<text text-anchor="middle" x="477.3" y="-179.73" font-family="Times-Roman" font-size="14.00">Normal</text>
</g>
<!-- lfc -->
<g id="node16" class="node">
<title>lfc</title>
<ellipse fill="lightgrey" stroke="black" cx="535.3" cy="-76.48" rx="48.58" ry="37.45"/>
<text text-anchor="middle" x="535.3" y="-87.78" font-family="Times-Roman" font-size="14.00">lfc</text>
<text text-anchor="middle" x="535.3" y="-72.78" font-family="Times-Roman" font-size="14.00">~</text>
<text text-anchor="middle" x="535.3" y="-57.78" font-family="Times-Roman" font-size="14.00">Normal</text>
</g>
<!-- i&#45;&gt;lfc -->
<g id="edge11" class="edge">
<title>i&#45;&gt;lfc</title>
<path fill="none" stroke="black" d="M493.92,-163.06C500.23,-150.01 507.5,-134.97 514.17,-121.17"/>
<polygon fill="black" stroke="black" points="517.47,-122.38 518.67,-111.86 511.17,-119.33 517.47,-122.38"/>
</g>
<!-- μ_j -->
<g id="node5" class="node">
<title>μ_j</title>
<ellipse fill="none" stroke="black" cx="205.3" cy="-309.38" rx="48.58" ry="37.45"/>
<text text-anchor="middle" x="205.3" y="-320.68" font-family="Times-Roman" font-size="14.00">μ_j</text>
<text text-anchor="middle" x="205.3" y="-305.68" font-family="Times-Roman" font-size="14.00">~</text>
<text text-anchor="middle" x="205.3" y="-290.68" font-family="Times-Roman" font-size="14.00">Normal</text>
</g>
<!-- j -->
<g id="node11" class="node">
<title>j</title>
<ellipse fill="none" stroke="black" cx="341.3" cy="-198.43" rx="48.58" ry="37.45"/>
<text text-anchor="middle" x="341.3" y="-209.73" font-family="Times-Roman" font-size="14.00">j</text>
<text text-anchor="middle" x="341.3" y="-194.73" font-family="Times-Roman" font-size="14.00">~</text>
<text text-anchor="middle" x="341.3" y="-179.73" font-family="Times-Roman" font-size="14.00">Normal</text>
</g>
<!-- μ_j&#45;&gt;j -->
<g id="edge1" class="edge">
<title>μ_j&#45;&gt;j</title>
<path fill="none" stroke="black" d="M238.57,-281.73C257.09,-266.89 280.31,-248.29 299.99,-232.52"/>
<polygon fill="black" stroke="black" points="302.28,-235.17 307.9,-226.19 297.91,-229.71 302.28,-235.17"/>
</g>
<!-- μ_a -->
<g id="node6" class="node">
<title>μ_a</title>
<ellipse fill="none" stroke="black" cx="1021.3" cy="-309.38" rx="48.58" ry="37.45"/>
<text text-anchor="middle" x="1021.3" y="-320.68" font-family="Times-Roman" font-size="14.00">μ_a</text>
<text text-anchor="middle" x="1021.3" y="-305.68" font-family="Times-Roman" font-size="14.00">~</text>
<text text-anchor="middle" x="1021.3" y="-290.68" font-family="Times-Roman" font-size="14.00">Normal</text>
</g>
<!-- a -->
<g id="node15" class="node">
<title>a</title>
<ellipse fill="none" stroke="black" cx="1021.3" cy="-198.43" rx="48.58" ry="37.45"/>
<text text-anchor="middle" x="1021.3" y="-209.73" font-family="Times-Roman" font-size="14.00">a</text>
<text text-anchor="middle" x="1021.3" y="-194.73" font-family="Times-Roman" font-size="14.00">~</text>
<text text-anchor="middle" x="1021.3" y="-179.73" font-family="Times-Roman" font-size="14.00">Normal</text>
</g>
<!-- μ_a&#45;&gt;a -->
<g id="edge7" class="edge">
<title>μ_a&#45;&gt;a</title>
<path fill="none" stroke="black" d="M1021.3,-271.8C1021.3,-263.63 1021.3,-254.85 1021.3,-246.32"/>
<polygon fill="black" stroke="black" points="1024.8,-246.1 1021.3,-236.1 1017.8,-246.1 1024.8,-246.1"/>
</g>
<!-- σ_a -->
<g id="node7" class="node">
<title>σ_a</title>
<ellipse fill="none" stroke="black" cx="1157.3" cy="-309.38" rx="69.09" ry="37.45"/>
<text text-anchor="middle" x="1157.3" y="-320.68" font-family="Times-Roman" font-size="14.00">σ_a</text>
<text text-anchor="middle" x="1157.3" y="-305.68" font-family="Times-Roman" font-size="14.00">~</text>
<text text-anchor="middle" x="1157.3" y="-290.68" font-family="Times-Roman" font-size="14.00">HalfNormal</text>
</g>
<!-- σ_a&#45;&gt;a -->
<g id="edge8" class="edge">
<title>σ_a&#45;&gt;a</title>
<path fill="none" stroke="black" d="M1119.05,-277.74C1101.47,-263.66 1080.59,-246.93 1062.65,-232.56"/>
<polygon fill="black" stroke="black" points="1064.63,-229.66 1054.64,-226.14 1060.25,-235.12 1064.63,-229.66"/>
</g>
<!-- μ_h -->
<g id="node8" class="node">
<title>μ_h</title>
<ellipse fill="none" stroke="black" cx="477.3" cy="-309.38" rx="48.58" ry="37.45"/>
<text text-anchor="middle" x="477.3" y="-320.68" font-family="Times-Roman" font-size="14.00">μ_h</text>
<text text-anchor="middle" x="477.3" y="-305.68" font-family="Times-Roman" font-size="14.00">~</text>
<text text-anchor="middle" x="477.3" y="-290.68" font-family="Times-Roman" font-size="14.00">Normal</text>
</g>
<!-- h -->
<g id="node13" class="node">
<title>h</title>
<ellipse fill="none" stroke="black" cx="593.3" cy="-198.43" rx="48.58" ry="37.45"/>
<text text-anchor="middle" x="593.3" y="-209.73" font-family="Times-Roman" font-size="14.00">h</text>
<text text-anchor="middle" x="593.3" y="-194.73" font-family="Times-Roman" font-size="14.00">~</text>
<text text-anchor="middle" x="593.3" y="-179.73" font-family="Times-Roman" font-size="14.00">Normal</text>
</g>
<!-- μ_h&#45;&gt;h -->
<g id="edge3" class="edge">
<title>μ_h&#45;&gt;h</title>
<path fill="none" stroke="black" d="M507.77,-279.76C522.43,-265.99 540.13,-249.37 555.62,-234.82"/>
<polygon fill="black" stroke="black" points="558.13,-237.26 563.02,-227.86 553.34,-232.16 558.13,-237.26"/>
</g>
<!-- σ_h -->
<g id="node9" class="node">
<title>σ_h</title>
<ellipse fill="none" stroke="black" cx="613.3" cy="-309.38" rx="69.09" ry="37.45"/>
<text text-anchor="middle" x="613.3" y="-320.68" font-family="Times-Roman" font-size="14.00">σ_h</text>
<text text-anchor="middle" x="613.3" y="-305.68" font-family="Times-Roman" font-size="14.00">~</text>
<text text-anchor="middle" x="613.3" y="-290.68" font-family="Times-Roman" font-size="14.00">HalfNormal</text>
</g>
<!-- σ_h&#45;&gt;h -->
<g id="edge4" class="edge">
<title>σ_h&#45;&gt;h</title>
<path fill="none" stroke="black" d="M606.58,-271.8C605.05,-263.45 603.4,-254.46 601.8,-245.76"/>
<polygon fill="black" stroke="black" points="605.21,-244.93 599.96,-235.73 598.32,-246.2 605.21,-244.93"/>
</g>
<!-- σ_j -->
<g id="node10" class="node">
<title>σ_j</title>
<ellipse fill="none" stroke="black" cx="341.3" cy="-309.38" rx="69.09" ry="37.45"/>
<text text-anchor="middle" x="341.3" y="-320.68" font-family="Times-Roman" font-size="14.00">σ_j</text>
<text text-anchor="middle" x="341.3" y="-305.68" font-family="Times-Roman" font-size="14.00">~</text>
<text text-anchor="middle" x="341.3" y="-290.68" font-family="Times-Roman" font-size="14.00">HalfNormal</text>
</g>
<!-- σ_j&#45;&gt;j -->
<g id="edge2" class="edge">
<title>σ_j&#45;&gt;j</title>
<path fill="none" stroke="black" d="M341.3,-271.8C341.3,-263.63 341.3,-254.85 341.3,-246.32"/>
<polygon fill="black" stroke="black" points="344.8,-246.1 341.3,-236.1 337.8,-246.1 344.8,-246.1"/>
</g>
<!-- j&#45;&gt;lfc -->
<g id="edge10" class="edge">
<title>j&#45;&gt;lfc</title>
<path fill="none" stroke="black" d="M370.8,-168.33C384.75,-155.54 402.1,-140.95 419.3,-129.95 438.91,-117.41 462.02,-106.31 482.43,-97.58"/>
<polygon fill="black" stroke="black" points="484.02,-100.71 491.89,-93.62 481.32,-94.25 484.02,-100.71"/>
</g>
<!-- σ&#45;&gt;lfc -->
<g id="edge14" class="edge">
<title>σ&#45;&gt;lfc</title>
<path fill="none" stroke="black" d="M235.98,-164.44C249.37,-151.87 265.96,-138.53 283.3,-129.95 344.89,-99.5 423.39,-86.7 476.28,-81.33"/>
<polygon fill="black" stroke="black" points="476.88,-84.79 486.5,-80.35 476.22,-77.82 476.88,-84.79"/>
</g>
<!-- h&#45;&gt;lfc -->
<g id="edge12" class="edge">
<title>h&#45;&gt;lfc</title>
<path fill="none" stroke="black" d="M576.68,-163.06C570.37,-150.01 563.09,-134.97 556.42,-121.17"/>
<polygon fill="black" stroke="black" points="559.42,-119.33 551.92,-111.86 553.12,-122.38 559.42,-119.33"/>
</g>
<!-- d&#45;&gt;lfc -->
<g id="edge13" class="edge">
<title>d&#45;&gt;lfc</title>
<path fill="none" stroke="black" d="M715.66,-171.01C697.97,-157.78 675.58,-142.04 654.3,-129.95 633.27,-118.01 609.01,-106.88 587.9,-97.97"/>
<polygon fill="black" stroke="black" points="589.02,-94.64 578.45,-94.03 586.33,-101.1 589.02,-94.64"/>
</g>
<!-- a&#45;&gt;lfc -->
<g id="edge15" class="edge">
<title>a&#45;&gt;lfc</title>
<path fill="none" stroke="black" d="M977.29,-181.64C934.92,-166.84 868.82,-144.84 810.3,-129.95 736.02,-111.06 648.91,-95.53 592.96,-86.39"/>
<polygon fill="black" stroke="black" points="593.31,-82.9 582.88,-84.76 592.19,-89.81 593.31,-82.9"/>
</g>
</g>
</svg>
