<?xml version="1.0" encoding="UTF-8" standalone="no"?>
<!DOCTYPE svg PUBLIC "-//W3C//DTD SVG 1.1//EN"
 "http://www.w3.org/Graphics/SVG/1.1/DTD/svg11.dtd">
<!-- Generated by graphviz version 2.47.0 (20210327.0129)
 -->
<!-- Pages: 1 -->
<svg width="1236pt" height="355pt"
 viewBox="0.00 0.00 1235.59 354.86" xmlns="http://www.w3.org/2000/svg" xmlns:xlink="http://www.w3.org/1999/xlink">
<g id="graph0" class="graph" transform="scale(1 1) rotate(0) translate(4 350.86)">
<polygon fill="white" stroke="transparent" points="-4,4 -4,-350.86 1231.59,-350.86 1231.59,4 -4,4"/>
<g id="clust1" class="cluster">
<title>cluster4</title>
<path fill="none" stroke="black" d="M140.3,-129.95C140.3,-129.95 386.3,-129.95 386.3,-129.95 392.3,-129.95 398.3,-135.95 398.3,-141.95 398.3,-141.95 398.3,-231.91 398.3,-231.91 398.3,-237.91 392.3,-243.91 386.3,-243.91 386.3,-243.91 140.3,-243.91 140.3,-243.91 134.3,-243.91 128.3,-237.91 128.3,-231.91 128.3,-231.91 128.3,-141.95 128.3,-141.95 128.3,-135.95 134.3,-129.95 140.3,-129.95"/>
<text text-anchor="middle" x="385.3" y="-137.75" font-family="Times-Roman" font-size="14.00">4</text>
</g>
<g id="clust2" class="cluster">
<title>cluster64 x 10</title>
<path fill="none" stroke="black" d="M558.3,-129.95C558.3,-129.95 648.3,-129.95 648.3,-129.95 654.3,-129.95 660.3,-135.95 660.3,-141.95 660.3,-141.95 660.3,-231.91 660.3,-231.91 660.3,-237.91 654.3,-243.91 648.3,-243.91 648.3,-243.91 558.3,-243.91 558.3,-243.91 552.3,-243.91 546.3,-237.91 546.3,-231.91 546.3,-231.91 546.3,-141.95 546.3,-141.95 546.3,-135.95 552.3,-129.95 558.3,-129.95"/>
<text text-anchor="middle" x="625.3" y="-137.75" font-family="Times-Roman" font-size="14.00">64 x 10</text>
</g>
<g id="clust3" class="cluster">
<title>cluster10</title>
<path fill="none" stroke="black" d="M725.3,-129.95C725.3,-129.95 815.3,-129.95 815.3,-129.95 821.3,-129.95 827.3,-135.95 827.3,-141.95 827.3,-141.95 827.3,-231.91 827.3,-231.91 827.3,-237.91 821.3,-243.91 815.3,-243.91 815.3,-243.91 725.3,-243.91 725.3,-243.91 719.3,-243.91 713.3,-237.91 713.3,-231.91 713.3,-231.91 713.3,-141.95 713.3,-141.95 713.3,-135.95 719.3,-129.95 725.3,-129.95"/>
<text text-anchor="middle" x="809.8" y="-137.75" font-family="Times-Roman" font-size="14.00">10</text>
</g>
<g id="clust4" class="cluster">
<title>cluster64</title>
<path fill="none" stroke="black" d="M977.3,-129.95C977.3,-129.95 1067.3,-129.95 1067.3,-129.95 1073.3,-129.95 1079.3,-135.95 1079.3,-141.95 1079.3,-141.95 1079.3,-231.91 1079.3,-231.91 1079.3,-237.91 1073.3,-243.91 1067.3,-243.91 1067.3,-243.91 977.3,-243.91 977.3,-243.91 971.3,-243.91 965.3,-237.91 965.3,-231.91 965.3,-231.91 965.3,-141.95 965.3,-141.95 965.3,-135.95 971.3,-129.95 977.3,-129.95"/>
<text text-anchor="middle" x="1061.8" y="-137.75" font-family="Times-Roman" font-size="14.00">64</text>
</g>
<g id="clust5" class="cluster">
<title>cluster1,443</title>
<path fill="none" stroke="black" d="M500.3,-8C500.3,-8 590.3,-8 590.3,-8 596.3,-8 602.3,-14 602.3,-20 602.3,-20 602.3,-109.95 602.3,-109.95 602.3,-115.95 596.3,-121.95 590.3,-121.95 590.3,-121.95 500.3,-121.95 500.3,-121.95 494.3,-121.95 488.3,-115.95 488.3,-109.95 488.3,-109.95 488.3,-20 488.3,-20 488.3,-14 494.3,-8 500.3,-8"/>
<text text-anchor="middle" x="573.8" y="-15.8" font-family="Times-Roman" font-size="14.00">1,443</text>
</g>
<!-- σ_σ -->
<g id="node1" class="node">
<title>σ_σ</title>
<ellipse fill="none" stroke="black" cx="69.3" cy="-309.38" rx="69.09" ry="37.45"/>
<text text-anchor="middle" x="69.3" y="-320.68" font-family="Times-Roman" font-size="14.00">σ_σ</text>
<text text-anchor="middle" x="69.3" y="-305.68" font-family="Times-Roman" font-size="14.00">~</text>
<text text-anchor="middle" x="69.3" y="-290.68" font-family="Times-Roman" font-size="14.00">HalfNormal</text>
</g>
<!-- σ -->
<g id="node11" class="node">
<title>σ</title>
<ellipse fill="none" stroke="black" cx="205.3" cy="-198.43" rx="69.09" ry="37.45"/>
<text text-anchor="middle" x="205.3" y="-209.73" font-family="Times-Roman" font-size="14.00">σ</text>
<text text-anchor="middle" x="205.3" y="-194.73" font-family="Times-Roman" font-size="14.00">~</text>
<text text-anchor="middle" x="205.3" y="-179.73" font-family="Times-Roman" font-size="14.00">HalfNormal</text>
</g>
<!-- σ_σ&#45;&gt;σ -->
<g id="edge9" class="edge">
<title>σ_σ&#45;&gt;σ</title>
<path fill="none" stroke="black" d="M107.54,-277.74C123.61,-264.87 142.44,-249.78 159.26,-236.31"/>
<polygon fill="black" stroke="black" points="161.72,-238.82 167.34,-229.84 157.35,-233.36 161.72,-238.82"/>
</g>
<!-- σ_h -->
<g id="node2" class="node">
<title>σ_h</title>
<ellipse fill="none" stroke="black" cx="498.3" cy="-309.38" rx="69.09" ry="37.45"/>
<text text-anchor="middle" x="498.3" y="-320.68" font-family="Times-Roman" font-size="14.00">σ_h</text>
<text text-anchor="middle" x="498.3" y="-305.68" font-family="Times-Roman" font-size="14.00">~</text>
<text text-anchor="middle" x="498.3" y="-290.68" font-family="Times-Roman" font-size="14.00">HalfNormal</text>
</g>
<!-- h -->
<g id="node13" class="node">
<title>h</title>
<ellipse fill="none" stroke="black" cx="603.3" cy="-198.43" rx="48.58" ry="37.45"/>
<text text-anchor="middle" x="603.3" y="-209.73" font-family="Times-Roman" font-size="14.00">h</text>
<text text-anchor="middle" x="603.3" y="-194.73" font-family="Times-Roman" font-size="14.00">~</text>
<text text-anchor="middle" x="603.3" y="-179.73" font-family="Times-Roman" font-size="14.00">Normal</text>
</g>
<!-- σ_h&#45;&gt;h -->
<g id="edge3" class="edge">
<title>σ_h&#45;&gt;h</title>
<path fill="none" stroke="black" d="M529.8,-275.69C541.72,-263.33 555.36,-249.17 567.63,-236.43"/>
<polygon fill="black" stroke="black" points="570.26,-238.75 574.68,-229.13 565.22,-233.9 570.26,-238.75"/>
</g>
<!-- μ_a -->
<g id="node3" class="node">
<title>μ_a</title>
<ellipse fill="none" stroke="black" cx="1022.3" cy="-309.38" rx="48.58" ry="37.45"/>
<text text-anchor="middle" x="1022.3" y="-320.68" font-family="Times-Roman" font-size="14.00">μ_a</text>
<text text-anchor="middle" x="1022.3" y="-305.68" font-family="Times-Roman" font-size="14.00">~</text>
<text text-anchor="middle" x="1022.3" y="-290.68" font-family="Times-Roman" font-size="14.00">Normal</text>
</g>
<!-- a -->
<g id="node15" class="node">
<title>a</title>
<ellipse fill="none" stroke="black" cx="1022.3" cy="-198.43" rx="48.58" ry="37.45"/>
<text text-anchor="middle" x="1022.3" y="-209.73" font-family="Times-Roman" font-size="14.00">a</text>
<text text-anchor="middle" x="1022.3" y="-194.73" font-family="Times-Roman" font-size="14.00">~</text>
<text text-anchor="middle" x="1022.3" y="-179.73" font-family="Times-Roman" font-size="14.00">Normal</text>
</g>
<!-- μ_a&#45;&gt;a -->
<g id="edge7" class="edge">
<title>μ_a&#45;&gt;a</title>
<path fill="none" stroke="black" d="M1022.3,-271.8C1022.3,-263.63 1022.3,-254.85 1022.3,-246.32"/>
<polygon fill="black" stroke="black" points="1025.8,-246.1 1022.3,-236.1 1018.8,-246.1 1025.8,-246.1"/>
</g>
<!-- σ_d -->
<g id="node4" class="node">
<title>σ_d</title>
<ellipse fill="none" stroke="black" cx="770.3" cy="-309.38" rx="69.09" ry="37.45"/>
<text text-anchor="middle" x="770.3" y="-320.68" font-family="Times-Roman" font-size="14.00">σ_d</text>
<text text-anchor="middle" x="770.3" y="-305.68" font-family="Times-Roman" font-size="14.00">~</text>
<text text-anchor="middle" x="770.3" y="-290.68" font-family="Times-Roman" font-size="14.00">HalfNormal</text>
</g>
<!-- d -->
<g id="node14" class="node">
<title>d</title>
<ellipse fill="none" stroke="black" cx="770.3" cy="-198.43" rx="48.58" ry="37.45"/>
<text text-anchor="middle" x="770.3" y="-209.73" font-family="Times-Roman" font-size="14.00">d</text>
<text text-anchor="middle" x="770.3" y="-194.73" font-family="Times-Roman" font-size="14.00">~</text>
<text text-anchor="middle" x="770.3" y="-179.73" font-family="Times-Roman" font-size="14.00">Normal</text>
</g>
<!-- σ_d&#45;&gt;d -->
<g id="edge5" class="edge">
<title>σ_d&#45;&gt;d</title>
<path fill="none" stroke="black" d="M770.3,-271.8C770.3,-263.63 770.3,-254.85 770.3,-246.32"/>
<polygon fill="black" stroke="black" points="773.8,-246.1 770.3,-236.1 766.8,-246.1 773.8,-246.1"/>
</g>
<!-- μ_h -->
<g id="node5" class="node">
<title>μ_h</title>
<ellipse fill="none" stroke="black" cx="634.3" cy="-309.38" rx="48.58" ry="37.45"/>
<text text-anchor="middle" x="634.3" y="-320.68" font-family="Times-Roman" font-size="14.00">μ_h</text>
<text text-anchor="middle" x="634.3" y="-305.68" font-family="Times-Roman" font-size="14.00">~</text>
<text text-anchor="middle" x="634.3" y="-290.68" font-family="Times-Roman" font-size="14.00">Normal</text>
</g>
<!-- μ_h&#45;&gt;h -->
<g id="edge4" class="edge">
<title>μ_h&#45;&gt;h</title>
<path fill="none" stroke="black" d="M624.15,-272.71C621.63,-263.87 618.9,-254.27 616.27,-245.03"/>
<polygon fill="black" stroke="black" points="619.57,-243.85 613.47,-235.19 612.84,-245.76 619.57,-243.85"/>
</g>
<!-- μ_d -->
<g id="node6" class="node">
<title>μ_d</title>
<ellipse fill="none" stroke="black" cx="906.3" cy="-309.38" rx="48.58" ry="37.45"/>
<text text-anchor="middle" x="906.3" y="-320.68" font-family="Times-Roman" font-size="14.00">μ_d</text>
<text text-anchor="middle" x="906.3" y="-305.68" font-family="Times-Roman" font-size="14.00">~</text>
<text text-anchor="middle" x="906.3" y="-290.68" font-family="Times-Roman" font-size="14.00">Normal</text>
</g>
<!-- μ_d&#45;&gt;d -->
<g id="edge6" class="edge">
<title>μ_d&#45;&gt;d</title>
<path fill="none" stroke="black" d="M873.03,-281.73C854.5,-266.89 831.28,-248.29 811.6,-232.52"/>
<polygon fill="black" stroke="black" points="813.69,-229.71 803.69,-226.19 809.31,-235.17 813.69,-229.71"/>
</g>
<!-- μ_j -->
<g id="node7" class="node">
<title>μ_j</title>
<ellipse fill="none" stroke="black" cx="205.3" cy="-309.38" rx="48.58" ry="37.45"/>
<text text-anchor="middle" x="205.3" y="-320.68" font-family="Times-Roman" font-size="14.00">μ_j</text>
<text text-anchor="middle" x="205.3" y="-305.68" font-family="Times-Roman" font-size="14.00">~</text>
<text text-anchor="middle" x="205.3" y="-290.68" font-family="Times-Roman" font-size="14.00">Normal</text>
</g>
<!-- j -->
<g id="node12" class="node">
<title>j</title>
<ellipse fill="none" stroke="black" cx="341.3" cy="-198.43" rx="48.58" ry="37.45"/>
<text text-anchor="middle" x="341.3" y="-209.73" font-family="Times-Roman" font-size="14.00">j</text>
<text text-anchor="middle" x="341.3" y="-194.73" font-family="Times-Roman" font-size="14.00">~</text>
<text text-anchor="middle" x="341.3" y="-179.73" font-family="Times-Roman" font-size="14.00">Normal</text>
</g>
<!-- μ_j&#45;&gt;j -->
<g id="edge1" class="edge">
<title>μ_j&#45;&gt;j</title>
<path fill="none" stroke="black" d="M238.57,-281.73C257.09,-266.89 280.31,-248.29 299.99,-232.52"/>
<polygon fill="black" stroke="black" points="302.28,-235.17 307.9,-226.19 297.91,-229.71 302.28,-235.17"/>
</g>
<!-- σ_j -->
<g id="node8" class="node">
<title>σ_j</title>
<ellipse fill="none" stroke="black" cx="341.3" cy="-309.38" rx="69.09" ry="37.45"/>
<text text-anchor="middle" x="341.3" y="-320.68" font-family="Times-Roman" font-size="14.00">σ_j</text>
<text text-anchor="middle" x="341.3" y="-305.68" font-family="Times-Roman" font-size="14.00">~</text>
<text text-anchor="middle" x="341.3" y="-290.68" font-family="Times-Roman" font-size="14.00">HalfNormal</text>
</g>
<!-- σ_j&#45;&gt;j -->
<g id="edge2" class="edge">
<title>σ_j&#45;&gt;j</title>
<path fill="none" stroke="black" d="M341.3,-271.8C341.3,-263.63 341.3,-254.85 341.3,-246.32"/>
<polygon fill="black" stroke="black" points="344.8,-246.1 341.3,-236.1 337.8,-246.1 344.8,-246.1"/>
</g>
<!-- σ_a -->
<g id="node9" class="node">
<title>σ_a</title>
<ellipse fill="none" stroke="black" cx="1158.3" cy="-309.38" rx="69.09" ry="37.45"/>
<text text-anchor="middle" x="1158.3" y="-320.68" font-family="Times-Roman" font-size="14.00">σ_a</text>
<text text-anchor="middle" x="1158.3" y="-305.68" font-family="Times-Roman" font-size="14.00">~</text>
<text text-anchor="middle" x="1158.3" y="-290.68" font-family="Times-Roman" font-size="14.00">HalfNormal</text>
</g>
<!-- σ_a&#45;&gt;a -->
<g id="edge8" class="edge">
<title>σ_a&#45;&gt;a</title>
<path fill="none" stroke="black" d="M1120.05,-277.74C1102.47,-263.66 1081.59,-246.93 1063.65,-232.56"/>
<polygon fill="black" stroke="black" points="1065.63,-229.66 1055.64,-226.14 1061.25,-235.12 1065.63,-229.66"/>
</g>
<!-- i -->
<g id="node10" class="node">
<title>i</title>
<ellipse fill="none" stroke="black" cx="487.3" cy="-198.43" rx="48.58" ry="37.45"/>
<text text-anchor="middle" x="487.3" y="-209.73" font-family="Times-Roman" font-size="14.00">i</text>
<text text-anchor="middle" x="487.3" y="-194.73" font-family="Times-Roman" font-size="14.00">~</text>
<text text-anchor="middle" x="487.3" y="-179.73" font-family="Times-Roman" font-size="14.00">Normal</text>
</g>
<!-- lfc -->
<g id="node16" class="node">
<title>lfc</title>
<ellipse fill="lightgrey" stroke="black" cx="545.3" cy="-76.48" rx="48.58" ry="37.45"/>
<text text-anchor="middle" x="545.3" y="-87.78" font-family="Times-Roman" font-size="14.00">lfc</text>
<text text-anchor="middle" x="545.3" y="-72.78" font-family="Times-Roman" font-size="14.00">~</text>
<text text-anchor="middle" x="545.3" y="-57.78" font-family="Times-Roman" font-size="14.00">Normal</text>
</g>
<!-- i&#45;&gt;lfc -->
<g id="edge15" class="edge">
<title>i&#45;&gt;lfc</title>
<path fill="none" stroke="black" d="M503.92,-163.06C510.23,-150.01 517.5,-134.97 524.17,-121.17"/>
<polygon fill="black" stroke="black" points="527.47,-122.38 528.67,-111.86 521.17,-119.33 527.47,-122.38"/>
</g>
<!-- σ&#45;&gt;lfc -->
<g id="edge13" class="edge">
<title>σ&#45;&gt;lfc</title>
<path fill="none" stroke="black" d="M235.95,-164.38C249.33,-151.8 265.93,-138.46 283.3,-129.95 348.27,-98.13 431.31,-85.61 486.29,-80.68"/>
<polygon fill="black" stroke="black" points="486.89,-84.14 496.56,-79.81 486.3,-77.16 486.89,-84.14"/>
</g>
<!-- j&#45;&gt;lfc -->
<g id="edge10" class="edge">
<title>j&#45;&gt;lfc</title>
<path fill="none" stroke="black" d="M373.45,-169.92C389.59,-156.87 409.81,-141.62 429.3,-129.95 449.27,-117.99 472.44,-106.99 492.8,-98.19"/>
<polygon fill="black" stroke="black" points="494.41,-101.31 502.24,-94.17 491.67,-94.87 494.41,-101.31"/>
</g>
<!-- h&#45;&gt;lfc -->
<g id="edge12" class="edge">
<title>h&#45;&gt;lfc</title>
<path fill="none" stroke="black" d="M586.68,-163.06C580.37,-150.01 573.09,-134.97 566.42,-121.17"/>
<polygon fill="black" stroke="black" points="569.42,-119.33 561.92,-111.86 563.12,-122.38 569.42,-119.33"/>
</g>
<!-- d&#45;&gt;lfc -->
<g id="edge11" class="edge">
<title>d&#45;&gt;lfc</title>
<path fill="none" stroke="black" d="M734.32,-172.61C714.18,-159.2 688.34,-142.81 664.3,-129.95 642.97,-118.55 618.66,-107.5 597.6,-98.51"/>
<polygon fill="black" stroke="black" points="598.74,-95.2 588.17,-94.53 596.02,-101.64 598.74,-95.2"/>
</g>
<!-- a&#45;&gt;lfc -->
<g id="edge14" class="edge">
<title>a&#45;&gt;lfc</title>
<path fill="none" stroke="black" d="M979.67,-180.18C941.36,-165.21 883.29,-143.81 831.3,-129.95 753.42,-109.19 661.43,-93.91 603.23,-85.36"/>
<polygon fill="black" stroke="black" points="603.52,-81.86 593.12,-83.89 602.52,-88.79 603.52,-81.86"/>
</g>
</g>
</svg>
