<?xml version="1.0" encoding="UTF-8" standalone="no"?>
<!DOCTYPE svg PUBLIC "-//W3C//DTD SVG 1.1//EN"
 "http://www.w3.org/Graphics/SVG/1.1/DTD/svg11.dtd">
<!-- Generated by graphviz version 2.47.0 (20210327.0129)
 -->
<!-- Pages: 1 -->
<svg width="1236pt" height="355pt"
 viewBox="0.00 0.00 1236.09 354.86" xmlns="http://www.w3.org/2000/svg" xmlns:xlink="http://www.w3.org/1999/xlink">
<g id="graph0" class="graph" transform="scale(1 1) rotate(0) translate(4 350.86)">
<polygon fill="white" stroke="transparent" points="-4,4 -4,-350.86 1232.09,-350.86 1232.09,4 -4,4"/>
<g id="clust1" class="cluster">
<title>cluster4</title>
<path fill="none" stroke="black" d="M160.79,-129.95C160.79,-129.95 406.79,-129.95 406.79,-129.95 412.79,-129.95 418.79,-135.95 418.79,-141.95 418.79,-141.95 418.79,-231.91 418.79,-231.91 418.79,-237.91 412.79,-243.91 406.79,-243.91 406.79,-243.91 160.79,-243.91 160.79,-243.91 154.79,-243.91 148.79,-237.91 148.79,-231.91 148.79,-231.91 148.79,-141.95 148.79,-141.95 148.79,-135.95 154.79,-129.95 160.79,-129.95"/>
<text text-anchor="middle" x="405.79" y="-137.75" font-family="Times-Roman" font-size="14.00">4</text>
</g>
<g id="clust2" class="cluster">
<title>cluster64 x 10</title>
<path fill="none" stroke="black" d="M568.79,-129.95C568.79,-129.95 658.79,-129.95 658.79,-129.95 664.79,-129.95 670.79,-135.95 670.79,-141.95 670.79,-141.95 670.79,-231.91 670.79,-231.91 670.79,-237.91 664.79,-243.91 658.79,-243.91 658.79,-243.91 568.79,-243.91 568.79,-243.91 562.79,-243.91 556.79,-237.91 556.79,-231.91 556.79,-231.91 556.79,-141.95 556.79,-141.95 556.79,-135.95 562.79,-129.95 568.79,-129.95"/>
<text text-anchor="middle" x="635.79" y="-137.75" font-family="Times-Roman" font-size="14.00">64 x 10</text>
</g>
<g id="clust3" class="cluster">
<title>cluster10</title>
<path fill="none" stroke="black" d="M725.79,-129.95C725.79,-129.95 815.79,-129.95 815.79,-129.95 821.79,-129.95 827.79,-135.95 827.79,-141.95 827.79,-141.95 827.79,-231.91 827.79,-231.91 827.79,-237.91 821.79,-243.91 815.79,-243.91 815.79,-243.91 725.79,-243.91 725.79,-243.91 719.79,-243.91 713.79,-237.91 713.79,-231.91 713.79,-231.91 713.79,-141.95 713.79,-141.95 713.79,-135.95 719.79,-129.95 725.79,-129.95"/>
<text text-anchor="middle" x="810.29" y="-137.75" font-family="Times-Roman" font-size="14.00">10</text>
</g>
<g id="clust4" class="cluster">
<title>cluster64</title>
<path fill="none" stroke="black" d="M977.79,-129.95C977.79,-129.95 1067.79,-129.95 1067.79,-129.95 1073.79,-129.95 1079.79,-135.95 1079.79,-141.95 1079.79,-141.95 1079.79,-231.91 1079.79,-231.91 1079.79,-237.91 1073.79,-243.91 1067.79,-243.91 1067.79,-243.91 977.79,-243.91 977.79,-243.91 971.79,-243.91 965.79,-237.91 965.79,-231.91 965.79,-231.91 965.79,-141.95 965.79,-141.95 965.79,-135.95 971.79,-129.95 977.79,-129.95"/>
<text text-anchor="middle" x="1062.29" y="-137.75" font-family="Times-Roman" font-size="14.00">64</text>
</g>
<g id="clust5" class="cluster">
<title>cluster1,443</title>
<path fill="none" stroke="black" d="M510.79,-8C510.79,-8 600.79,-8 600.79,-8 606.79,-8 612.79,-14 612.79,-20 612.79,-20 612.79,-109.95 612.79,-109.95 612.79,-115.95 606.79,-121.95 600.79,-121.95 600.79,-121.95 510.79,-121.95 510.79,-121.95 504.79,-121.95 498.79,-115.95 498.79,-109.95 498.79,-109.95 498.79,-20 498.79,-20 498.79,-14 504.79,-8 510.79,-8"/>
<text text-anchor="middle" x="584.29" y="-15.8" font-family="Times-Roman" font-size="14.00">1,443</text>
</g>
<!-- μ_j -->
<g id="node1" class="node">
<title>μ_j</title>
<ellipse fill="none" stroke="black" cx="48.79" cy="-309.38" rx="48.58" ry="37.45"/>
<text text-anchor="middle" x="48.79" y="-320.68" font-family="Times-Roman" font-size="14.00">μ_j</text>
<text text-anchor="middle" x="48.79" y="-305.68" font-family="Times-Roman" font-size="14.00">~</text>
<text text-anchor="middle" x="48.79" y="-290.68" font-family="Times-Roman" font-size="14.00">Normal</text>
</g>
<!-- j -->
<g id="node11" class="node">
<title>j</title>
<ellipse fill="none" stroke="black" cx="205.79" cy="-198.43" rx="48.58" ry="37.45"/>
<text text-anchor="middle" x="205.79" y="-209.73" font-family="Times-Roman" font-size="14.00">j</text>
<text text-anchor="middle" x="205.79" y="-194.73" font-family="Times-Roman" font-size="14.00">~</text>
<text text-anchor="middle" x="205.79" y="-179.73" font-family="Times-Roman" font-size="14.00">Normal</text>
</g>
<!-- μ_j&#45;&gt;j -->
<g id="edge1" class="edge">
<title>μ_j&#45;&gt;j</title>
<path fill="none" stroke="black" d="M84.42,-283.66C107.32,-267.77 137.25,-247 161.65,-230.06"/>
<polygon fill="black" stroke="black" points="163.81,-232.82 170.03,-224.24 159.82,-227.07 163.81,-232.82"/>
</g>
<!-- σ_j -->
<g id="node2" class="node">
<title>σ_j</title>
<ellipse fill="none" stroke="black" cx="184.79" cy="-309.38" rx="69.09" ry="37.45"/>
<text text-anchor="middle" x="184.79" y="-320.68" font-family="Times-Roman" font-size="14.00">σ_j</text>
<text text-anchor="middle" x="184.79" y="-305.68" font-family="Times-Roman" font-size="14.00">~</text>
<text text-anchor="middle" x="184.79" y="-290.68" font-family="Times-Roman" font-size="14.00">HalfNormal</text>
</g>
<!-- σ_j&#45;&gt;j -->
<g id="edge2" class="edge">
<title>σ_j&#45;&gt;j</title>
<path fill="none" stroke="black" d="M191.84,-271.8C193.45,-263.45 195.18,-254.46 196.86,-245.76"/>
<polygon fill="black" stroke="black" points="200.34,-246.21 198.79,-235.73 193.46,-244.89 200.34,-246.21"/>
</g>
<!-- σ_d -->
<g id="node3" class="node">
<title>σ_d</title>
<ellipse fill="none" stroke="black" cx="770.79" cy="-309.38" rx="69.09" ry="37.45"/>
<text text-anchor="middle" x="770.79" y="-320.68" font-family="Times-Roman" font-size="14.00">σ_d</text>
<text text-anchor="middle" x="770.79" y="-305.68" font-family="Times-Roman" font-size="14.00">~</text>
<text text-anchor="middle" x="770.79" y="-290.68" font-family="Times-Roman" font-size="14.00">HalfNormal</text>
</g>
<!-- d -->
<g id="node14" class="node">
<title>d</title>
<ellipse fill="none" stroke="black" cx="770.79" cy="-198.43" rx="48.58" ry="37.45"/>
<text text-anchor="middle" x="770.79" y="-209.73" font-family="Times-Roman" font-size="14.00">d</text>
<text text-anchor="middle" x="770.79" y="-194.73" font-family="Times-Roman" font-size="14.00">~</text>
<text text-anchor="middle" x="770.79" y="-179.73" font-family="Times-Roman" font-size="14.00">Normal</text>
</g>
<!-- σ_d&#45;&gt;d -->
<g id="edge5" class="edge">
<title>σ_d&#45;&gt;d</title>
<path fill="none" stroke="black" d="M770.79,-271.8C770.79,-263.63 770.79,-254.85 770.79,-246.32"/>
<polygon fill="black" stroke="black" points="774.29,-246.1 770.79,-236.1 767.29,-246.1 774.29,-246.1"/>
</g>
<!-- μ_a -->
<g id="node4" class="node">
<title>μ_a</title>
<ellipse fill="none" stroke="black" cx="1022.79" cy="-309.38" rx="48.58" ry="37.45"/>
<text text-anchor="middle" x="1022.79" y="-320.68" font-family="Times-Roman" font-size="14.00">μ_a</text>
<text text-anchor="middle" x="1022.79" y="-305.68" font-family="Times-Roman" font-size="14.00">~</text>
<text text-anchor="middle" x="1022.79" y="-290.68" font-family="Times-Roman" font-size="14.00">Normal</text>
</g>
<!-- a -->
<g id="node15" class="node">
<title>a</title>
<ellipse fill="none" stroke="black" cx="1022.79" cy="-198.43" rx="48.58" ry="37.45"/>
<text text-anchor="middle" x="1022.79" y="-209.73" font-family="Times-Roman" font-size="14.00">a</text>
<text text-anchor="middle" x="1022.79" y="-194.73" font-family="Times-Roman" font-size="14.00">~</text>
<text text-anchor="middle" x="1022.79" y="-179.73" font-family="Times-Roman" font-size="14.00">Normal</text>
</g>
<!-- μ_a&#45;&gt;a -->
<g id="edge7" class="edge">
<title>μ_a&#45;&gt;a</title>
<path fill="none" stroke="black" d="M1022.79,-271.8C1022.79,-263.63 1022.79,-254.85 1022.79,-246.32"/>
<polygon fill="black" stroke="black" points="1026.29,-246.1 1022.79,-236.1 1019.29,-246.1 1026.29,-246.1"/>
</g>
<!-- σ_h -->
<g id="node5" class="node">
<title>σ_h</title>
<ellipse fill="none" stroke="black" cx="498.79" cy="-309.38" rx="69.09" ry="37.45"/>
<text text-anchor="middle" x="498.79" y="-320.68" font-family="Times-Roman" font-size="14.00">σ_h</text>
<text text-anchor="middle" x="498.79" y="-305.68" font-family="Times-Roman" font-size="14.00">~</text>
<text text-anchor="middle" x="498.79" y="-290.68" font-family="Times-Roman" font-size="14.00">HalfNormal</text>
</g>
<!-- h -->
<g id="node13" class="node">
<title>h</title>
<ellipse fill="none" stroke="black" cx="613.79" cy="-198.43" rx="48.58" ry="37.45"/>
<text text-anchor="middle" x="613.79" y="-209.73" font-family="Times-Roman" font-size="14.00">h</text>
<text text-anchor="middle" x="613.79" y="-194.73" font-family="Times-Roman" font-size="14.00">~</text>
<text text-anchor="middle" x="613.79" y="-179.73" font-family="Times-Roman" font-size="14.00">Normal</text>
</g>
<!-- σ_h&#45;&gt;h -->
<g id="edge3" class="edge">
<title>σ_h&#45;&gt;h</title>
<path fill="none" stroke="black" d="M532.36,-276.58C546.01,-263.65 561.85,-248.64 575.91,-235.32"/>
<polygon fill="black" stroke="black" points="578.66,-237.53 583.51,-228.12 573.85,-232.45 578.66,-237.53"/>
</g>
<!-- μ_h -->
<g id="node6" class="node">
<title>μ_h</title>
<ellipse fill="none" stroke="black" cx="634.79" cy="-309.38" rx="48.58" ry="37.45"/>
<text text-anchor="middle" x="634.79" y="-320.68" font-family="Times-Roman" font-size="14.00">μ_h</text>
<text text-anchor="middle" x="634.79" y="-305.68" font-family="Times-Roman" font-size="14.00">~</text>
<text text-anchor="middle" x="634.79" y="-290.68" font-family="Times-Roman" font-size="14.00">Normal</text>
</g>
<!-- μ_h&#45;&gt;h -->
<g id="edge4" class="edge">
<title>μ_h&#45;&gt;h</title>
<path fill="none" stroke="black" d="M627.8,-272.1C626.15,-263.56 624.37,-254.34 622.66,-245.43"/>
<polygon fill="black" stroke="black" points="626.08,-244.71 620.75,-235.55 619.21,-246.03 626.08,-244.71"/>
</g>
<!-- μ_d -->
<g id="node7" class="node">
<title>μ_d</title>
<ellipse fill="none" stroke="black" cx="906.79" cy="-309.38" rx="48.58" ry="37.45"/>
<text text-anchor="middle" x="906.79" y="-320.68" font-family="Times-Roman" font-size="14.00">μ_d</text>
<text text-anchor="middle" x="906.79" y="-305.68" font-family="Times-Roman" font-size="14.00">~</text>
<text text-anchor="middle" x="906.79" y="-290.68" font-family="Times-Roman" font-size="14.00">Normal</text>
</g>
<!-- μ_d&#45;&gt;d -->
<g id="edge6" class="edge">
<title>μ_d&#45;&gt;d</title>
<path fill="none" stroke="black" d="M873.52,-281.73C855,-266.89 831.78,-248.29 812.1,-232.52"/>
<polygon fill="black" stroke="black" points="814.18,-229.71 804.19,-226.19 809.8,-235.17 814.18,-229.71"/>
</g>
<!-- i -->
<g id="node8" class="node">
<title>i</title>
<ellipse fill="none" stroke="black" cx="497.79" cy="-198.43" rx="48.58" ry="37.45"/>
<text text-anchor="middle" x="497.79" y="-209.73" font-family="Times-Roman" font-size="14.00">i</text>
<text text-anchor="middle" x="497.79" y="-194.73" font-family="Times-Roman" font-size="14.00">~</text>
<text text-anchor="middle" x="497.79" y="-179.73" font-family="Times-Roman" font-size="14.00">Normal</text>
</g>
<!-- lfc -->
<g id="node16" class="node">
<title>lfc</title>
<ellipse fill="lightgrey" stroke="black" cx="555.79" cy="-76.48" rx="48.58" ry="37.45"/>
<text text-anchor="middle" x="555.79" y="-87.78" font-family="Times-Roman" font-size="14.00">lfc</text>
<text text-anchor="middle" x="555.79" y="-72.78" font-family="Times-Roman" font-size="14.00">~</text>
<text text-anchor="middle" x="555.79" y="-57.78" font-family="Times-Roman" font-size="14.00">Normal</text>
</g>
<!-- i&#45;&gt;lfc -->
<g id="edge13" class="edge">
<title>i&#45;&gt;lfc</title>
<path fill="none" stroke="black" d="M514.41,-163.06C520.72,-150.01 527.99,-134.97 534.66,-121.17"/>
<polygon fill="black" stroke="black" points="537.97,-122.38 539.17,-111.86 531.66,-119.33 537.97,-122.38"/>
</g>
<!-- σ_σ -->
<g id="node9" class="node">
<title>σ_σ</title>
<ellipse fill="none" stroke="black" cx="341.79" cy="-309.38" rx="69.09" ry="37.45"/>
<text text-anchor="middle" x="341.79" y="-320.68" font-family="Times-Roman" font-size="14.00">σ_σ</text>
<text text-anchor="middle" x="341.79" y="-305.68" font-family="Times-Roman" font-size="14.00">~</text>
<text text-anchor="middle" x="341.79" y="-290.68" font-family="Times-Roman" font-size="14.00">HalfNormal</text>
</g>
<!-- σ -->
<g id="node12" class="node">
<title>σ</title>
<ellipse fill="none" stroke="black" cx="341.79" cy="-198.43" rx="69.09" ry="37.45"/>
<text text-anchor="middle" x="341.79" y="-209.73" font-family="Times-Roman" font-size="14.00">σ</text>
<text text-anchor="middle" x="341.79" y="-194.73" font-family="Times-Roman" font-size="14.00">~</text>
<text text-anchor="middle" x="341.79" y="-179.73" font-family="Times-Roman" font-size="14.00">HalfNormal</text>
</g>
<!-- σ_σ&#45;&gt;σ -->
<g id="edge9" class="edge">
<title>σ_σ&#45;&gt;σ</title>
<path fill="none" stroke="black" d="M341.79,-271.8C341.79,-263.63 341.79,-254.85 341.79,-246.32"/>
<polygon fill="black" stroke="black" points="345.29,-246.1 341.79,-236.1 338.29,-246.1 345.29,-246.1"/>
</g>
<!-- σ_a -->
<g id="node10" class="node">
<title>σ_a</title>
<ellipse fill="none" stroke="black" cx="1158.79" cy="-309.38" rx="69.09" ry="37.45"/>
<text text-anchor="middle" x="1158.79" y="-320.68" font-family="Times-Roman" font-size="14.00">σ_a</text>
<text text-anchor="middle" x="1158.79" y="-305.68" font-family="Times-Roman" font-size="14.00">~</text>
<text text-anchor="middle" x="1158.79" y="-290.68" font-family="Times-Roman" font-size="14.00">HalfNormal</text>
</g>
<!-- σ_a&#45;&gt;a -->
<g id="edge8" class="edge">
<title>σ_a&#45;&gt;a</title>
<path fill="none" stroke="black" d="M1120.54,-277.74C1102.97,-263.66 1082.09,-246.93 1064.14,-232.56"/>
<polygon fill="black" stroke="black" points="1066.12,-229.66 1056.13,-226.14 1061.75,-235.12 1066.12,-229.66"/>
</g>
<!-- j&#45;&gt;lfc -->
<g id="edge14" class="edge">
<title>j&#45;&gt;lfc</title>
<path fill="none" stroke="black" d="M226.74,-164.5C236.49,-151.78 249.17,-138.31 263.79,-129.95 302.76,-107.68 424.03,-91.41 497.46,-83.29"/>
<polygon fill="black" stroke="black" points="497.93,-86.76 507.49,-82.2 497.17,-79.8 497.93,-86.76"/>
</g>
<!-- σ&#45;&gt;lfc -->
<g id="edge11" class="edge">
<title>σ&#45;&gt;lfc</title>
<path fill="none" stroke="black" d="M381.75,-167.52C399.13,-155.15 420,-141.12 439.79,-129.95 460.06,-118.51 483.29,-107.6 503.61,-98.72"/>
<polygon fill="black" stroke="black" points="505.22,-101.84 513.02,-94.66 502.45,-95.41 505.22,-101.84"/>
</g>
<!-- h&#45;&gt;lfc -->
<g id="edge15" class="edge">
<title>h&#45;&gt;lfc</title>
<path fill="none" stroke="black" d="M597.17,-163.06C590.86,-150.01 583.59,-134.97 576.92,-121.17"/>
<polygon fill="black" stroke="black" points="579.92,-119.33 572.41,-111.86 573.62,-122.38 579.92,-119.33"/>
</g>
<!-- d&#45;&gt;lfc -->
<g id="edge12" class="edge">
<title>d&#45;&gt;lfc</title>
<path fill="none" stroke="black" d="M736.76,-171.04C718.88,-157.81 696.26,-142.07 674.79,-129.95 653.73,-118.06 629.47,-106.94 608.36,-98.02"/>
<polygon fill="black" stroke="black" points="609.49,-94.7 598.91,-94.08 606.8,-101.16 609.49,-94.7"/>
</g>
<!-- a&#45;&gt;lfc -->
<g id="edge10" class="edge">
<title>a&#45;&gt;lfc</title>
<path fill="none" stroke="black" d="M979.76,-180.12C941.44,-165.2 883.57,-143.93 831.79,-129.95 757.54,-109.9 670.04,-94.64 613.79,-85.88"/>
<polygon fill="black" stroke="black" points="614.08,-82.38 603.66,-84.32 613.01,-89.3 614.08,-82.38"/>
</g>
</g>
</svg>
