<?xml version="1.0" encoding="UTF-8" standalone="no"?>
<!DOCTYPE svg PUBLIC "-//W3C//DTD SVG 1.1//EN"
 "http://www.w3.org/Graphics/SVG/1.1/DTD/svg11.dtd">
<!-- Generated by graphviz version 2.42.3 (20191010.1750)
 -->
<!-- Title: %3 Pages: 1 -->
<svg width="1362pt" height="772pt"
 viewBox="0.00 0.00 1362.41 771.72" xmlns="http://www.w3.org/2000/svg" xmlns:xlink="http://www.w3.org/1999/xlink">
<g id="graph0" class="graph" transform="scale(1 1) rotate(0) translate(4 767.72)">
<title>%3</title>
<polygon fill="white" stroke="transparent" points="-4,4 -4,-767.72 1358.41,-767.72 1358.41,4 -4,4"/>
<g id="clust1" class="cluster">
<title>cluster103</title>
<path fill="none" stroke="black" d="M694.69,-321.91C694.69,-321.91 846.69,-321.91 846.69,-321.91 852.69,-321.91 858.69,-327.91 858.69,-333.91 858.69,-333.91 858.69,-637.79 858.69,-637.79 858.69,-643.79 852.69,-649.79 846.69,-649.79 846.69,-649.79 694.69,-649.79 694.69,-649.79 688.69,-649.79 682.69,-643.79 682.69,-637.79 682.69,-637.79 682.69,-333.91 682.69,-333.91 682.69,-327.91 688.69,-321.91 694.69,-321.91"/>
<text text-anchor="middle" x="840.19" y="-329.71" font-family="Times,serif" font-size="14.00">103</text>
</g>
<g id="clust2" class="cluster">
<title>cluster60,049</title>
<path fill="none" stroke="black" d="M137.69,-8C137.69,-8 662.69,-8 662.69,-8 668.69,-8 674.69,-14 674.69,-20 674.69,-20 674.69,-412.88 674.69,-412.88 674.69,-418.88 668.69,-424.88 662.69,-424.88 662.69,-424.88 137.69,-424.88 137.69,-424.88 131.69,-424.88 125.69,-418.88 125.69,-412.88 125.69,-412.88 125.69,-20 125.69,-20 125.69,-14 131.69,-8 137.69,-8"/>
<text text-anchor="middle" x="647.69" y="-15.8" font-family="Times,serif" font-size="14.00">60,049</text>
</g>
<g id="clust3" class="cluster">
<title>cluster26</title>
<path fill="none" stroke="black" d="M878.69,-546.81C878.69,-546.81 1156.69,-546.81 1156.69,-546.81 1162.69,-546.81 1168.69,-552.81 1168.69,-558.81 1168.69,-558.81 1168.69,-648.77 1168.69,-648.77 1168.69,-654.77 1162.69,-660.77 1156.69,-660.77 1156.69,-660.77 878.69,-660.77 878.69,-660.77 872.69,-660.77 866.69,-654.77 866.69,-648.77 866.69,-648.77 866.69,-558.81 866.69,-558.81 866.69,-552.81 872.69,-546.81 878.69,-546.81"/>
<text text-anchor="middle" x="1153.69" y="-554.61" font-family="Times,serif" font-size="14.00">26</text>
</g>
<!-- α_s -->
<g id="node1" class="node">
<title>α_s</title>
<ellipse fill="none" stroke="black" cx="786.69" cy="-390.38" rx="41.94" ry="37.45"/>
<text text-anchor="middle" x="786.69" y="-401.68" font-family="Times,serif" font-size="14.00">α_s</text>
<text text-anchor="middle" x="786.69" y="-386.68" font-family="Times,serif" font-size="14.00">~</text>
<text text-anchor="middle" x="786.69" y="-371.68" font-family="Times,serif" font-size="14.00">Normal</text>
</g>
<!-- μ -->
<g id="node7" class="node">
<title>μ</title>
<polygon fill="none" stroke="black" points="584.19,-302.93 493.19,-302.93 493.19,-249.93 584.19,-249.93 584.19,-302.93"/>
<text text-anchor="middle" x="538.69" y="-287.73" font-family="Times,serif" font-size="14.00">μ</text>
<text text-anchor="middle" x="538.69" y="-272.73" font-family="Times,serif" font-size="14.00">~</text>
<text text-anchor="middle" x="538.69" y="-257.73" font-family="Times,serif" font-size="14.00">Deterministic</text>
</g>
<!-- α_s&#45;&gt;μ -->
<g id="edge13" class="edge">
<title>α_s&#45;&gt;μ</title>
<path fill="none" stroke="black" d="M754.34,-366.17C733.49,-351.98 705.38,-334.25 678.69,-321.91 651.7,-309.43 620.25,-299.09 594,-291.53"/>
<polygon fill="black" stroke="black" points="594.8,-288.12 584.22,-288.77 592.89,-294.85 594.8,-288.12"/>
</g>
<!-- μ_α_s -->
<g id="node2" class="node">
<title>μ_α_s</title>
<polygon fill="none" stroke="black" points="832.19,-527.84 741.19,-527.84 741.19,-474.84 832.19,-474.84 832.19,-527.84"/>
<text text-anchor="middle" x="786.69" y="-512.64" font-family="Times,serif" font-size="14.00">μ_α_s</text>
<text text-anchor="middle" x="786.69" y="-497.64" font-family="Times,serif" font-size="14.00">~</text>
<text text-anchor="middle" x="786.69" y="-482.64" font-family="Times,serif" font-size="14.00">Deterministic</text>
</g>
<!-- μ_α_s&#45;&gt;α_s -->
<g id="edge7" class="edge">
<title>μ_α_s&#45;&gt;α_s</title>
<path fill="none" stroke="black" d="M786.69,-474.79C786.69,-463.88 786.69,-450.79 786.69,-438.25"/>
<polygon fill="black" stroke="black" points="790.19,-437.91 786.69,-427.91 783.19,-437.91 790.19,-437.91"/>
</g>
<!-- sgrna_to_gene_idx_shared -->
<g id="node3" class="node">
<title>sgrna_to_gene_idx_shared</title>
<path fill="lightgrey" stroke="black" d="M838.69,-641.79C838.69,-641.79 702.69,-641.79 702.69,-641.79 696.69,-641.79 690.69,-635.79 690.69,-629.79 690.69,-629.79 690.69,-600.79 690.69,-600.79 690.69,-594.79 696.69,-588.79 702.69,-588.79 702.69,-588.79 838.69,-588.79 838.69,-588.79 844.69,-588.79 850.69,-594.79 850.69,-600.79 850.69,-600.79 850.69,-629.79 850.69,-629.79 850.69,-635.79 844.69,-641.79 838.69,-641.79"/>
<text text-anchor="middle" x="770.69" y="-626.59" font-family="Times,serif" font-size="14.00">sgrna_to_gene_idx_shared</text>
<text text-anchor="middle" x="770.69" y="-611.59" font-family="Times,serif" font-size="14.00">~</text>
<text text-anchor="middle" x="770.69" y="-596.59" font-family="Times,serif" font-size="14.00">Data</text>
</g>
<!-- sgrna_to_gene_idx_shared&#45;&gt;μ_α_s -->
<g id="edge5" class="edge">
<title>sgrna_to_gene_idx_shared&#45;&gt;μ_α_s</title>
<path fill="none" stroke="black" d="M774.36,-588.61C776.49,-573.67 779.22,-554.62 781.56,-538.22"/>
<polygon fill="black" stroke="black" points="785.09,-538.3 783.04,-527.9 778.16,-537.31 785.09,-538.3"/>
</g>
<!-- sgrna_idx_shared -->
<g id="node4" class="node">
<title>sgrna_idx_shared</title>
<path fill="lightgrey" stroke="black" d="M655.19,-416.88C655.19,-416.88 568.19,-416.88 568.19,-416.88 562.19,-416.88 556.19,-410.88 556.19,-404.88 556.19,-404.88 556.19,-375.88 556.19,-375.88 556.19,-369.88 562.19,-363.88 568.19,-363.88 568.19,-363.88 655.19,-363.88 655.19,-363.88 661.19,-363.88 667.19,-369.88 667.19,-375.88 667.19,-375.88 667.19,-404.88 667.19,-404.88 667.19,-410.88 661.19,-416.88 655.19,-416.88"/>
<text text-anchor="middle" x="611.69" y="-401.68" font-family="Times,serif" font-size="14.00">sgrna_idx_shared</text>
<text text-anchor="middle" x="611.69" y="-386.68" font-family="Times,serif" font-size="14.00">~</text>
<text text-anchor="middle" x="611.69" y="-371.68" font-family="Times,serif" font-size="14.00">Data</text>
</g>
<!-- sgrna_idx_shared&#45;&gt;μ -->
<g id="edge12" class="edge">
<title>sgrna_idx_shared&#45;&gt;μ</title>
<path fill="none" stroke="black" d="M594.94,-363.7C584.83,-348.2 571.83,-328.26 560.88,-311.46"/>
<polygon fill="black" stroke="black" points="563.75,-309.46 555.36,-302.99 557.89,-313.28 563.75,-309.46"/>
</g>
<!-- scaled_log2_cn_shared -->
<g id="node5" class="node">
<title>scaled_log2_cn_shared</title>
<path fill="lightgrey" stroke="black" d="M526.19,-416.88C526.19,-416.88 407.19,-416.88 407.19,-416.88 401.19,-416.88 395.19,-410.88 395.19,-404.88 395.19,-404.88 395.19,-375.88 395.19,-375.88 395.19,-369.88 401.19,-363.88 407.19,-363.88 407.19,-363.88 526.19,-363.88 526.19,-363.88 532.19,-363.88 538.19,-369.88 538.19,-375.88 538.19,-375.88 538.19,-404.88 538.19,-404.88 538.19,-410.88 532.19,-416.88 526.19,-416.88"/>
<text text-anchor="middle" x="466.69" y="-401.68" font-family="Times,serif" font-size="14.00">scaled_log2_cn_shared</text>
<text text-anchor="middle" x="466.69" y="-386.68" font-family="Times,serif" font-size="14.00">~</text>
<text text-anchor="middle" x="466.69" y="-371.68" font-family="Times,serif" font-size="14.00">Data</text>
</g>
<!-- scaled_log2_cn_shared&#45;&gt;μ -->
<g id="edge14" class="edge">
<title>scaled_log2_cn_shared&#45;&gt;μ</title>
<path fill="none" stroke="black" d="M483.21,-363.7C493.18,-348.2 506,-328.26 516.81,-311.46"/>
<polygon fill="black" stroke="black" points="519.78,-313.3 522.25,-302.99 513.9,-309.51 519.78,-313.3"/>
</g>
<!-- y -->
<g id="node6" class="node">
<title>y</title>
<ellipse fill="lightgrey" stroke="black" cx="320.69" cy="-165.48" rx="41.94" ry="37.45"/>
<text text-anchor="middle" x="320.69" y="-176.78" font-family="Times,serif" font-size="14.00">y</text>
<text text-anchor="middle" x="320.69" y="-161.78" font-family="Times,serif" font-size="14.00">~</text>
<text text-anchor="middle" x="320.69" y="-146.78" font-family="Times,serif" font-size="14.00">Normal</text>
</g>
<!-- lfc_shared -->
<g id="node9" class="node">
<title>lfc_shared</title>
<path fill="lightgrey" stroke="black" d="M344.69,-92C344.69,-92 296.69,-92 296.69,-92 290.69,-92 284.69,-86 284.69,-80 284.69,-80 284.69,-51 284.69,-51 284.69,-45 290.69,-39 296.69,-39 296.69,-39 344.69,-39 344.69,-39 350.69,-39 356.69,-45 356.69,-51 356.69,-51 356.69,-80 356.69,-80 356.69,-86 350.69,-92 344.69,-92"/>
<text text-anchor="middle" x="320.69" y="-76.8" font-family="Times,serif" font-size="14.00">lfc_shared</text>
<text text-anchor="middle" x="320.69" y="-61.8" font-family="Times,serif" font-size="14.00">~</text>
<text text-anchor="middle" x="320.69" y="-46.8" font-family="Times,serif" font-size="14.00">Data</text>
</g>
<!-- y&#45;&gt;lfc_shared -->
<g id="edge1" class="edge">
<title>y&#45;&gt;lfc_shared</title>
<path fill="none" stroke="black" d="M320.69,-127.99C320.69,-119.58 320.69,-110.63 320.69,-102.25"/>
<polygon fill="black" stroke="black" points="324.19,-102.01 320.69,-92.01 317.19,-102.01 324.19,-102.01"/>
</g>
<!-- μ&#45;&gt;y -->
<g id="edge19" class="edge">
<title>μ&#45;&gt;y</title>
<path fill="none" stroke="black" d="M492.99,-252.59C455.7,-233.95 403.28,-207.75 366.07,-189.16"/>
<polygon fill="black" stroke="black" points="367.47,-185.94 356.96,-184.6 364.34,-192.21 367.47,-185.94"/>
</g>
<!-- is_mutated_shared -->
<g id="node8" class="node">
<title>is_mutated_shared</title>
<path fill="lightgrey" stroke="black" d="M365.19,-416.88C365.19,-416.88 270.19,-416.88 270.19,-416.88 264.19,-416.88 258.19,-410.88 258.19,-404.88 258.19,-404.88 258.19,-375.88 258.19,-375.88 258.19,-369.88 264.19,-363.88 270.19,-363.88 270.19,-363.88 365.19,-363.88 365.19,-363.88 371.19,-363.88 377.19,-369.88 377.19,-375.88 377.19,-375.88 377.19,-404.88 377.19,-404.88 377.19,-410.88 371.19,-416.88 365.19,-416.88"/>
<text text-anchor="middle" x="317.69" y="-401.68" font-family="Times,serif" font-size="14.00">is_mutated_shared</text>
<text text-anchor="middle" x="317.69" y="-386.68" font-family="Times,serif" font-size="14.00">~</text>
<text text-anchor="middle" x="317.69" y="-371.68" font-family="Times,serif" font-size="14.00">Data</text>
</g>
<!-- is_mutated_shared&#45;&gt;μ -->
<g id="edge17" class="edge">
<title>is_mutated_shared&#45;&gt;μ</title>
<path fill="none" stroke="black" d="M338.31,-363.77C350.93,-349.61 368.18,-332.74 386.69,-321.91 416.33,-304.56 453.22,-293.56 483.24,-286.83"/>
<polygon fill="black" stroke="black" points="484.09,-290.23 493.13,-284.71 482.62,-283.39 484.09,-290.23"/>
</g>
<!-- gene_idx_shared -->
<g id="node10" class="node">
<title>gene_idx_shared</title>
<path fill="lightgrey" stroke="black" d="M228.19,-416.88C228.19,-416.88 145.19,-416.88 145.19,-416.88 139.19,-416.88 133.19,-410.88 133.19,-404.88 133.19,-404.88 133.19,-375.88 133.19,-375.88 133.19,-369.88 139.19,-363.88 145.19,-363.88 145.19,-363.88 228.19,-363.88 228.19,-363.88 234.19,-363.88 240.19,-369.88 240.19,-375.88 240.19,-375.88 240.19,-404.88 240.19,-404.88 240.19,-410.88 234.19,-416.88 228.19,-416.88"/>
<text text-anchor="middle" x="186.69" y="-401.68" font-family="Times,serif" font-size="14.00">gene_idx_shared</text>
<text text-anchor="middle" x="186.69" y="-386.68" font-family="Times,serif" font-size="14.00">~</text>
<text text-anchor="middle" x="186.69" y="-371.68" font-family="Times,serif" font-size="14.00">Data</text>
</g>
<!-- gene_idx_shared&#45;&gt;μ -->
<g id="edge18" class="edge">
<title>gene_idx_shared&#45;&gt;μ</title>
<path fill="none" stroke="black" d="M203.81,-363.85C215.07,-349.16 231.13,-331.72 249.69,-321.91 289.1,-301.08 410.44,-287.9 482.76,-281.67"/>
<polygon fill="black" stroke="black" points="483.38,-285.13 493.05,-280.8 482.79,-278.16 483.38,-285.13"/>
</g>
<!-- σ_γ_g -->
<g id="node11" class="node">
<title>σ_γ_g</title>
<ellipse fill="none" stroke="black" cx="958.69" cy="-726.24" rx="58.88" ry="37.45"/>
<text text-anchor="middle" x="958.69" y="-737.54" font-family="Times,serif" font-size="14.00">σ_γ_g</text>
<text text-anchor="middle" x="958.69" y="-722.54" font-family="Times,serif" font-size="14.00">~</text>
<text text-anchor="middle" x="958.69" y="-707.54" font-family="Times,serif" font-size="14.00">HalfNormal</text>
</g>
<!-- γ_g -->
<g id="node19" class="node">
<title>γ_g</title>
<ellipse fill="none" stroke="black" cx="1017.69" cy="-615.29" rx="41.94" ry="37.45"/>
<text text-anchor="middle" x="1017.69" y="-626.59" font-family="Times,serif" font-size="14.00">γ_g</text>
<text text-anchor="middle" x="1017.69" y="-611.59" font-family="Times,serif" font-size="14.00">~</text>
<text text-anchor="middle" x="1017.69" y="-596.59" font-family="Times,serif" font-size="14.00">Normal</text>
</g>
<!-- σ_γ_g&#45;&gt;γ_g -->
<g id="edge9" class="edge">
<title>σ_γ_g&#45;&gt;γ_g</title>
<path fill="none" stroke="black" d="M977.52,-690.47C983.05,-680.26 989.16,-668.98 994.91,-658.36"/>
<polygon fill="black" stroke="black" points="998.16,-659.71 999.84,-649.25 992,-656.38 998.16,-659.71"/>
</g>
<!-- μ_g -->
<g id="node12" class="node">
<title>μ_g</title>
<ellipse fill="none" stroke="black" cx="705.69" cy="-726.24" rx="41.94" ry="37.45"/>
<text text-anchor="middle" x="705.69" y="-737.54" font-family="Times,serif" font-size="14.00">μ_g</text>
<text text-anchor="middle" x="705.69" y="-722.54" font-family="Times,serif" font-size="14.00">~</text>
<text text-anchor="middle" x="705.69" y="-707.54" font-family="Times,serif" font-size="14.00">Normal</text>
</g>
<!-- g_s -->
<g id="node20" class="node">
<title>g_s</title>
<ellipse fill="none" stroke="black" cx="916.69" cy="-615.29" rx="41.94" ry="37.45"/>
<text text-anchor="middle" x="916.69" y="-626.59" font-family="Times,serif" font-size="14.00">g_s</text>
<text text-anchor="middle" x="916.69" y="-611.59" font-family="Times,serif" font-size="14.00">~</text>
<text text-anchor="middle" x="916.69" y="-596.59" font-family="Times,serif" font-size="14.00">Normal</text>
</g>
<!-- μ_g&#45;&gt;g_s -->
<g id="edge2" class="edge">
<title>μ_g&#45;&gt;g_s</title>
<path fill="none" stroke="black" d="M736.42,-700.59C742.86,-696.21 749.79,-692.01 756.69,-688.77 800.78,-668.03 819.33,-682.99 862.69,-660.77 868.79,-657.64 874.82,-653.73 880.53,-649.53"/>
<polygon fill="black" stroke="black" points="882.87,-652.15 888.61,-643.24 878.57,-646.62 882.87,-652.15"/>
</g>
<!-- σ_δ_g -->
<g id="node13" class="node">
<title>σ_δ_g</title>
<ellipse fill="none" stroke="black" cx="1194.69" cy="-726.24" rx="58.88" ry="37.45"/>
<text text-anchor="middle" x="1194.69" y="-737.54" font-family="Times,serif" font-size="14.00">σ_δ_g</text>
<text text-anchor="middle" x="1194.69" y="-722.54" font-family="Times,serif" font-size="14.00">~</text>
<text text-anchor="middle" x="1194.69" y="-707.54" font-family="Times,serif" font-size="14.00">HalfNormal</text>
</g>
<!-- δ_g -->
<g id="node21" class="node">
<title>δ_g</title>
<ellipse fill="none" stroke="black" cx="1118.69" cy="-615.29" rx="41.94" ry="37.45"/>
<text text-anchor="middle" x="1118.69" y="-626.59" font-family="Times,serif" font-size="14.00">δ_g</text>
<text text-anchor="middle" x="1118.69" y="-611.59" font-family="Times,serif" font-size="14.00">~</text>
<text text-anchor="middle" x="1118.69" y="-596.59" font-family="Times,serif" font-size="14.00">Normal</text>
</g>
<!-- σ_δ_g&#45;&gt;δ_g -->
<g id="edge11" class="edge">
<title>σ_δ_g&#45;&gt;δ_g</title>
<path fill="none" stroke="black" d="M1171.27,-691.66C1163.34,-680.29 1154.41,-667.49 1146.19,-655.71"/>
<polygon fill="black" stroke="black" points="1148.94,-653.54 1140.35,-647.34 1143.2,-657.55 1148.94,-653.54"/>
</g>
<!-- σ -->
<g id="node14" class="node">
<title>σ</title>
<ellipse fill="none" stroke="black" cx="58.69" cy="-276.43" rx="58.88" ry="37.45"/>
<text text-anchor="middle" x="58.69" y="-287.73" font-family="Times,serif" font-size="14.00">σ</text>
<text text-anchor="middle" x="58.69" y="-272.73" font-family="Times,serif" font-size="14.00">~</text>
<text text-anchor="middle" x="58.69" y="-257.73" font-family="Times,serif" font-size="14.00">HalfNormal</text>
</g>
<!-- σ&#45;&gt;y -->
<g id="edge20" class="edge">
<title>σ&#45;&gt;y</title>
<path fill="none" stroke="black" d="M100.51,-249.86C107.47,-246 114.71,-242.22 121.69,-238.95 171.39,-215.73 230.75,-194.96 271.63,-181.67"/>
<polygon fill="black" stroke="black" points="272.91,-184.94 281.35,-178.54 270.76,-178.27 272.91,-184.94"/>
</g>
<!-- σ_g -->
<g id="node15" class="node">
<title>σ_g</title>
<ellipse fill="none" stroke="black" cx="823.69" cy="-726.24" rx="57.97" ry="37.45"/>
<text text-anchor="middle" x="823.69" y="-737.54" font-family="Times,serif" font-size="14.00">σ_g</text>
<text text-anchor="middle" x="823.69" y="-722.54" font-family="Times,serif" font-size="14.00">~</text>
<text text-anchor="middle" x="823.69" y="-707.54" font-family="Times,serif" font-size="14.00">Exponential</text>
</g>
<!-- σ_g&#45;&gt;g_s -->
<g id="edge3" class="edge">
<title>σ_g&#45;&gt;g_s</title>
<path fill="none" stroke="black" d="M851.09,-693.14C861.74,-680.67 874.01,-666.3 885.03,-653.38"/>
<polygon fill="black" stroke="black" points="887.88,-655.44 891.71,-645.56 882.55,-650.89 887.88,-655.44"/>
</g>
<!-- μ_δ_g -->
<g id="node16" class="node">
<title>μ_δ_g</title>
<ellipse fill="none" stroke="black" cx="1312.69" cy="-726.24" rx="41.94" ry="37.45"/>
<text text-anchor="middle" x="1312.69" y="-737.54" font-family="Times,serif" font-size="14.00">μ_δ_g</text>
<text text-anchor="middle" x="1312.69" y="-722.54" font-family="Times,serif" font-size="14.00">~</text>
<text text-anchor="middle" x="1312.69" y="-707.54" font-family="Times,serif" font-size="14.00">Normal</text>
</g>
<!-- μ_δ_g&#45;&gt;δ_g -->
<g id="edge10" class="edge">
<title>μ_δ_g&#45;&gt;δ_g</title>
<path fill="none" stroke="black" d="M1281.49,-701.28C1275.38,-696.93 1268.93,-692.57 1262.69,-688.77 1231.14,-669.5 1193.82,-650.82 1165.08,-637.25"/>
<polygon fill="black" stroke="black" points="1166.22,-633.93 1155.68,-632.86 1163.25,-640.27 1166.22,-633.93"/>
</g>
<!-- μ_γ_g -->
<g id="node17" class="node">
<title>μ_γ_g</title>
<ellipse fill="none" stroke="black" cx="1076.69" cy="-726.24" rx="41.94" ry="37.45"/>
<text text-anchor="middle" x="1076.69" y="-737.54" font-family="Times,serif" font-size="14.00">μ_γ_g</text>
<text text-anchor="middle" x="1076.69" y="-722.54" font-family="Times,serif" font-size="14.00">~</text>
<text text-anchor="middle" x="1076.69" y="-707.54" font-family="Times,serif" font-size="14.00">Normal</text>
</g>
<!-- μ_γ_g&#45;&gt;γ_g -->
<g id="edge8" class="edge">
<title>μ_γ_g&#45;&gt;γ_g</title>
<path fill="none" stroke="black" d="M1058.83,-692.26C1053.05,-681.58 1046.56,-669.6 1040.47,-658.36"/>
<polygon fill="black" stroke="black" points="1043.53,-656.67 1035.69,-649.54 1037.38,-660 1043.53,-656.67"/>
</g>
<!-- σ_α_s -->
<g id="node18" class="node">
<title>σ_α_s</title>
<ellipse fill="none" stroke="black" cx="924.69" cy="-501.34" rx="57.97" ry="37.45"/>
<text text-anchor="middle" x="924.69" y="-512.64" font-family="Times,serif" font-size="14.00">σ_α_s</text>
<text text-anchor="middle" x="924.69" y="-497.64" font-family="Times,serif" font-size="14.00">~</text>
<text text-anchor="middle" x="924.69" y="-482.64" font-family="Times,serif" font-size="14.00">Exponential</text>
</g>
<!-- σ_α_s&#45;&gt;α_s -->
<g id="edge6" class="edge">
<title>σ_α_s&#45;&gt;α_s</title>
<path fill="none" stroke="black" d="M888.43,-471.71C869.06,-456.42 845.21,-437.58 825.47,-422"/>
<polygon fill="black" stroke="black" points="827.58,-419.21 817.56,-415.76 823.24,-424.7 827.58,-419.21"/>
</g>
<!-- γ_g&#45;&gt;μ -->
<g id="edge15" class="edge">
<title>γ_g&#45;&gt;μ</title>
<path fill="none" stroke="black" d="M1017.04,-577.59C1015.18,-546 1009.31,-499.94 991.69,-463.86 954.27,-387.26 938.12,-361.64 862.69,-321.91 817.32,-298.01 674.66,-285.69 594.59,-280.51"/>
<polygon fill="black" stroke="black" points="594.4,-276.99 584.2,-279.86 593.96,-283.98 594.4,-276.99"/>
</g>
<!-- g_s&#45;&gt;μ_α_s -->
<g id="edge4" class="edge">
<title>g_s&#45;&gt;μ_α_s</title>
<path fill="none" stroke="black" d="M895.45,-582.99C886.26,-570.82 874.84,-557.31 862.69,-546.81 856.12,-541.14 848.73,-535.79 841.2,-530.91"/>
<polygon fill="black" stroke="black" points="842.68,-527.71 832.34,-525.4 838.98,-533.65 842.68,-527.71"/>
</g>
<!-- δ_g&#45;&gt;μ -->
<g id="edge16" class="edge">
<title>δ_g&#45;&gt;μ</title>
<path fill="none" stroke="black" d="M1107.42,-579.08C1085.05,-515.57 1028.58,-382.76 930.69,-321.91 875.88,-287.84 689.37,-279.83 594.74,-277.97"/>
<polygon fill="black" stroke="black" points="594.56,-274.47 584.5,-277.79 594.43,-281.46 594.56,-274.47"/>
</g>
</g>
</svg>
