<?xml version="1.0" encoding="UTF-8" standalone="no"?>
<!DOCTYPE svg PUBLIC "-//W3C//DTD SVG 1.1//EN"
 "http://www.w3.org/Graphics/SVG/1.1/DTD/svg11.dtd">
<!-- Generated by graphviz version 2.42.3 (20191010.1750)
 -->
<!-- Title: %3 Pages: 1 -->
<svg width="366pt" height="683pt"
 viewBox="0.00 0.00 365.67 682.72" xmlns="http://www.w3.org/2000/svg" xmlns:xlink="http://www.w3.org/1999/xlink">
<g id="graph0" class="graph" transform="scale(1 1) rotate(0) translate(4 678.72)">
<title>%3</title>
<polygon fill="white" stroke="transparent" points="-4,4 -4,-678.72 361.67,-678.72 361.67,4 -4,4"/>
<g id="clust1" class="cluster">
<title>cluster26</title>
<path fill="none" stroke="black" d="M140.98,-457.81C140.98,-457.81 216.98,-457.81 216.98,-457.81 222.98,-457.81 228.98,-463.81 228.98,-469.81 228.98,-469.81 228.98,-559.77 228.98,-559.77 228.98,-565.77 222.98,-571.77 216.98,-571.77 216.98,-571.77 140.98,-571.77 140.98,-571.77 134.98,-571.77 128.98,-565.77 128.98,-559.77 128.98,-559.77 128.98,-469.81 128.98,-469.81 128.98,-463.81 134.98,-457.81 140.98,-457.81"/>
<text text-anchor="middle" x="213.98" y="-465.61" font-family="Times,serif" font-size="14.00">26</text>
</g>
<g id="clust2" class="cluster">
<title>cluster103</title>
<path fill="none" stroke="black" d="M136.98,-232.91C136.98,-232.91 220.98,-232.91 220.98,-232.91 226.98,-232.91 232.98,-238.91 232.98,-244.91 232.98,-244.91 232.98,-434.84 232.98,-434.84 232.98,-440.84 226.98,-446.84 220.98,-446.84 220.98,-446.84 136.98,-446.84 136.98,-446.84 130.98,-446.84 124.98,-440.84 124.98,-434.84 124.98,-434.84 124.98,-244.91 124.98,-244.91 124.98,-238.91 130.98,-232.91 136.98,-232.91"/>
<text text-anchor="middle" x="214.48" y="-240.71" font-family="Times,serif" font-size="14.00">103</text>
</g>
<g id="clust3" class="cluster">
<title>cluster60,049</title>
<path fill="none" stroke="black" d="M134.98,-8C134.98,-8 218.98,-8 218.98,-8 224.98,-8 230.98,-14 230.98,-20 230.98,-20 230.98,-209.93 230.98,-209.93 230.98,-215.93 224.98,-221.93 218.98,-221.93 218.98,-221.93 134.98,-221.93 134.98,-221.93 128.98,-221.93 122.98,-215.93 122.98,-209.93 122.98,-209.93 122.98,-20 122.98,-20 122.98,-14 128.98,-8 134.98,-8"/>
<text text-anchor="middle" x="203.98" y="-15.8" font-family="Times,serif" font-size="14.00">60,049</text>
</g>
<!-- σ_α_s -->
<g id="node1" class="node">
<title>σ_α_s</title>
<ellipse fill="none" stroke="black" cx="57.98" cy="-412.34" rx="57.97" ry="37.45"/>
<text text-anchor="middle" x="57.98" y="-423.64" font-family="Times,serif" font-size="14.00">σ_α_s</text>
<text text-anchor="middle" x="57.98" y="-408.64" font-family="Times,serif" font-size="14.00">~</text>
<text text-anchor="middle" x="57.98" y="-393.64" font-family="Times,serif" font-size="14.00">Exponential</text>
</g>
<!-- α_s -->
<g id="node7" class="node">
<title>α_s</title>
<ellipse fill="none" stroke="black" cx="176.98" cy="-301.38" rx="41.94" ry="37.45"/>
<text text-anchor="middle" x="176.98" y="-312.68" font-family="Times,serif" font-size="14.00">α_s</text>
<text text-anchor="middle" x="176.98" y="-297.68" font-family="Times,serif" font-size="14.00">~</text>
<text text-anchor="middle" x="176.98" y="-282.68" font-family="Times,serif" font-size="14.00">Normal</text>
</g>
<!-- σ_α_s&#45;&gt;α_s -->
<g id="edge4" class="edge">
<title>σ_α_s&#45;&gt;α_s</title>
<path fill="none" stroke="black" d="M90.82,-381.28C106.3,-367.09 124.83,-350.13 140.74,-335.57"/>
<polygon fill="black" stroke="black" points="143.29,-337.97 148.31,-328.64 138.57,-332.81 143.29,-337.97"/>
</g>
<!-- σ_g -->
<g id="node2" class="node">
<title>σ_g</title>
<ellipse fill="none" stroke="black" cx="119.98" cy="-637.24" rx="57.97" ry="37.45"/>
<text text-anchor="middle" x="119.98" y="-648.54" font-family="Times,serif" font-size="14.00">σ_g</text>
<text text-anchor="middle" x="119.98" y="-633.54" font-family="Times,serif" font-size="14.00">~</text>
<text text-anchor="middle" x="119.98" y="-618.54" font-family="Times,serif" font-size="14.00">Exponential</text>
</g>
<!-- g_s -->
<g id="node5" class="node">
<title>g_s</title>
<ellipse fill="none" stroke="black" cx="178.98" cy="-526.29" rx="41.94" ry="37.45"/>
<text text-anchor="middle" x="178.98" y="-537.59" font-family="Times,serif" font-size="14.00">g_s</text>
<text text-anchor="middle" x="178.98" y="-522.59" font-family="Times,serif" font-size="14.00">~</text>
<text text-anchor="middle" x="178.98" y="-507.59" font-family="Times,serif" font-size="14.00">Normal</text>
</g>
<!-- σ_g&#45;&gt;g_s -->
<g id="edge2" class="edge">
<title>σ_g&#45;&gt;g_s</title>
<path fill="none" stroke="black" d="M138.81,-601.47C144.34,-591.26 150.45,-579.98 156.2,-569.36"/>
<polygon fill="black" stroke="black" points="159.45,-570.71 161.13,-560.25 153.29,-567.38 159.45,-570.71"/>
</g>
<!-- σ -->
<g id="node3" class="node">
<title>σ</title>
<ellipse fill="none" stroke="black" cx="298.98" cy="-187.43" rx="58.88" ry="37.45"/>
<text text-anchor="middle" x="298.98" y="-198.73" font-family="Times,serif" font-size="14.00">σ</text>
<text text-anchor="middle" x="298.98" y="-183.73" font-family="Times,serif" font-size="14.00">~</text>
<text text-anchor="middle" x="298.98" y="-168.73" font-family="Times,serif" font-size="14.00">HalfNormal</text>
</g>
<!-- y -->
<g id="node8" class="node">
<title>y</title>
<ellipse fill="lightgrey" stroke="black" cx="178.98" cy="-76.48" rx="41.94" ry="37.45"/>
<text text-anchor="middle" x="178.98" y="-87.78" font-family="Times,serif" font-size="14.00">y</text>
<text text-anchor="middle" x="178.98" y="-72.78" font-family="Times,serif" font-size="14.00">~</text>
<text text-anchor="middle" x="178.98" y="-57.78" font-family="Times,serif" font-size="14.00">Normal</text>
</g>
<!-- σ&#45;&gt;y -->
<g id="edge7" class="edge">
<title>σ&#45;&gt;y</title>
<path fill="none" stroke="black" d="M265.87,-156.37C250.25,-142.19 231.57,-125.22 215.53,-110.66"/>
<polygon fill="black" stroke="black" points="217.66,-107.86 207.9,-103.73 212.95,-113.05 217.66,-107.86"/>
</g>
<!-- μ_g -->
<g id="node4" class="node">
<title>μ_g</title>
<ellipse fill="none" stroke="black" cx="237.98" cy="-637.24" rx="41.94" ry="37.45"/>
<text text-anchor="middle" x="237.98" y="-648.54" font-family="Times,serif" font-size="14.00">μ_g</text>
<text text-anchor="middle" x="237.98" y="-633.54" font-family="Times,serif" font-size="14.00">~</text>
<text text-anchor="middle" x="237.98" y="-618.54" font-family="Times,serif" font-size="14.00">Normal</text>
</g>
<!-- μ_g&#45;&gt;g_s -->
<g id="edge1" class="edge">
<title>μ_g&#45;&gt;g_s</title>
<path fill="none" stroke="black" d="M220.12,-603.26C214.34,-592.58 207.85,-580.6 201.76,-569.36"/>
<polygon fill="black" stroke="black" points="204.83,-567.67 196.99,-560.54 198.67,-571 204.83,-567.67"/>
</g>
<!-- μ_α_s -->
<g id="node6" class="node">
<title>μ_α_s</title>
<polygon fill="none" stroke="black" points="224.48,-438.84 133.48,-438.84 133.48,-385.84 224.48,-385.84 224.48,-438.84"/>
<text text-anchor="middle" x="178.98" y="-423.64" font-family="Times,serif" font-size="14.00">μ_α_s</text>
<text text-anchor="middle" x="178.98" y="-408.64" font-family="Times,serif" font-size="14.00">~</text>
<text text-anchor="middle" x="178.98" y="-393.64" font-family="Times,serif" font-size="14.00">Deterministic</text>
</g>
<!-- g_s&#45;&gt;μ_α_s -->
<g id="edge3" class="edge">
<title>g_s&#45;&gt;μ_α_s</title>
<path fill="none" stroke="black" d="M178.98,-488.63C178.98,-475.98 178.98,-461.82 178.98,-449.23"/>
<polygon fill="black" stroke="black" points="182.48,-449.09 178.98,-439.09 175.48,-449.09 182.48,-449.09"/>
</g>
<!-- μ_α_s&#45;&gt;α_s -->
<g id="edge5" class="edge">
<title>μ_α_s&#45;&gt;α_s</title>
<path fill="none" stroke="black" d="M178.51,-385.79C178.31,-374.88 178.07,-361.79 177.84,-349.25"/>
<polygon fill="black" stroke="black" points="181.34,-348.84 177.65,-338.91 174.34,-348.97 181.34,-348.84"/>
</g>
<!-- μ -->
<g id="node9" class="node">
<title>μ</title>
<polygon fill="none" stroke="black" points="222.48,-213.93 131.48,-213.93 131.48,-160.93 222.48,-160.93 222.48,-213.93"/>
<text text-anchor="middle" x="176.98" y="-198.73" font-family="Times,serif" font-size="14.00">μ</text>
<text text-anchor="middle" x="176.98" y="-183.73" font-family="Times,serif" font-size="14.00">~</text>
<text text-anchor="middle" x="176.98" y="-168.73" font-family="Times,serif" font-size="14.00">Deterministic</text>
</g>
<!-- α_s&#45;&gt;μ -->
<g id="edge6" class="edge">
<title>α_s&#45;&gt;μ</title>
<path fill="none" stroke="black" d="M176.98,-263.73C176.98,-251.07 176.98,-236.92 176.98,-224.32"/>
<polygon fill="black" stroke="black" points="180.48,-224.18 176.98,-214.18 173.48,-224.18 180.48,-224.18"/>
</g>
<!-- μ&#45;&gt;y -->
<g id="edge8" class="edge">
<title>μ&#45;&gt;y</title>
<path fill="none" stroke="black" d="M177.45,-160.89C177.65,-149.98 177.89,-136.89 178.12,-124.35"/>
<polygon fill="black" stroke="black" points="181.63,-124.06 178.31,-114 174.63,-123.94 181.63,-124.06"/>
</g>
</g>
</svg>
