<?xml version="1.0" encoding="UTF-8" standalone="no"?>
<!DOCTYPE svg PUBLIC "-//W3C//DTD SVG 1.1//EN"
 "http://www.w3.org/Graphics/SVG/1.1/DTD/svg11.dtd">
<!-- Generated by graphviz version 2.42.3 (20191010.1750)
 -->
<!-- Title: %3 Pages: 1 -->
<svg width="462pt" height="683pt"
 viewBox="0.00 0.00 462.41 682.72" xmlns="http://www.w3.org/2000/svg" xmlns:xlink="http://www.w3.org/1999/xlink">
<g id="graph0" class="graph" transform="scale(1 1) rotate(0) translate(4 678.72)">
<title>%3</title>
<polygon fill="white" stroke="transparent" points="-4,4 -4,-678.72 458.41,-678.72 458.41,4 -4,4"/>
<g id="clust1" class="cluster">
<title>cluster26</title>
<path fill="none" stroke="black" d="M129.72,-457.81C129.72,-457.81 306.72,-457.81 306.72,-457.81 312.72,-457.81 318.72,-463.81 318.72,-469.81 318.72,-469.81 318.72,-559.77 318.72,-559.77 318.72,-565.77 312.72,-571.77 306.72,-571.77 306.72,-571.77 129.72,-571.77 129.72,-571.77 123.72,-571.77 117.72,-565.77 117.72,-559.77 117.72,-559.77 117.72,-469.81 117.72,-469.81 117.72,-463.81 123.72,-457.81 129.72,-457.81"/>
<text text-anchor="middle" x="303.72" y="-465.61" font-family="Times,serif" font-size="14.00">26</text>
</g>
<g id="clust2" class="cluster">
<title>cluster103</title>
<path fill="none" stroke="black" d="M72.72,-232.91C72.72,-232.91 156.72,-232.91 156.72,-232.91 162.72,-232.91 168.72,-238.91 168.72,-244.91 168.72,-244.91 168.72,-434.84 168.72,-434.84 168.72,-440.84 162.72,-446.84 156.72,-446.84 156.72,-446.84 72.72,-446.84 72.72,-446.84 66.72,-446.84 60.72,-440.84 60.72,-434.84 60.72,-434.84 60.72,-244.91 60.72,-244.91 60.72,-238.91 66.72,-232.91 72.72,-232.91"/>
<text text-anchor="middle" x="150.22" y="-240.71" font-family="Times,serif" font-size="14.00">103</text>
</g>
<g id="clust3" class="cluster">
<title>cluster60,049</title>
<path fill="none" stroke="black" d="M122.72,-8C122.72,-8 206.72,-8 206.72,-8 212.72,-8 218.72,-14 218.72,-20 218.72,-20 218.72,-209.93 218.72,-209.93 218.72,-215.93 212.72,-221.93 206.72,-221.93 206.72,-221.93 122.72,-221.93 122.72,-221.93 116.72,-221.93 110.72,-215.93 110.72,-209.93 110.72,-209.93 110.72,-20 110.72,-20 110.72,-14 116.72,-8 122.72,-8"/>
<text text-anchor="middle" x="191.72" y="-15.8" font-family="Times,serif" font-size="14.00">60,049</text>
</g>
<!-- μ_g -->
<g id="node1" class="node">
<title>μ_g</title>
<ellipse fill="none" stroke="black" cx="41.72" cy="-637.24" rx="41.94" ry="37.45"/>
<text text-anchor="middle" x="41.72" y="-648.54" font-family="Times,serif" font-size="14.00">μ_g</text>
<text text-anchor="middle" x="41.72" y="-633.54" font-family="Times,serif" font-size="14.00">~</text>
<text text-anchor="middle" x="41.72" y="-618.54" font-family="Times,serif" font-size="14.00">Normal</text>
</g>
<!-- g_s -->
<g id="node8" class="node">
<title>g_s</title>
<ellipse fill="none" stroke="black" cx="167.72" cy="-526.29" rx="41.94" ry="37.45"/>
<text text-anchor="middle" x="167.72" y="-537.59" font-family="Times,serif" font-size="14.00">g_s</text>
<text text-anchor="middle" x="167.72" y="-522.59" font-family="Times,serif" font-size="14.00">~</text>
<text text-anchor="middle" x="167.72" y="-507.59" font-family="Times,serif" font-size="14.00">Normal</text>
</g>
<!-- μ_g&#45;&gt;g_s -->
<g id="edge2" class="edge">
<title>μ_g&#45;&gt;g_s</title>
<path fill="none" stroke="black" d="M71.26,-610.7C88.91,-595.44 111.48,-575.92 130.36,-559.6"/>
<polygon fill="black" stroke="black" points="132.65,-562.24 137.93,-553.05 128.07,-556.95 132.65,-562.24"/>
</g>
<!-- σ_g -->
<g id="node2" class="node">
<title>σ_g</title>
<ellipse fill="none" stroke="black" cx="159.72" cy="-637.24" rx="57.97" ry="37.45"/>
<text text-anchor="middle" x="159.72" y="-648.54" font-family="Times,serif" font-size="14.00">σ_g</text>
<text text-anchor="middle" x="159.72" y="-633.54" font-family="Times,serif" font-size="14.00">~</text>
<text text-anchor="middle" x="159.72" y="-618.54" font-family="Times,serif" font-size="14.00">Exponential</text>
</g>
<!-- σ_g&#45;&gt;g_s -->
<g id="edge1" class="edge">
<title>σ_g&#45;&gt;g_s</title>
<path fill="none" stroke="black" d="M162.41,-599.66C163.01,-591.49 163.65,-582.71 164.28,-574.18"/>
<polygon fill="black" stroke="black" points="167.78,-574.19 165.03,-563.96 160.8,-573.68 167.78,-574.19"/>
</g>
<!-- σ_α_s -->
<g id="node3" class="node">
<title>σ_α_s</title>
<ellipse fill="none" stroke="black" cx="235.72" cy="-412.34" rx="57.97" ry="37.45"/>
<text text-anchor="middle" x="235.72" y="-423.64" font-family="Times,serif" font-size="14.00">σ_α_s</text>
<text text-anchor="middle" x="235.72" y="-408.64" font-family="Times,serif" font-size="14.00">~</text>
<text text-anchor="middle" x="235.72" y="-393.64" font-family="Times,serif" font-size="14.00">Exponential</text>
</g>
<!-- α_s -->
<g id="node9" class="node">
<title>α_s</title>
<ellipse fill="none" stroke="black" cx="118.72" cy="-301.38" rx="41.94" ry="37.45"/>
<text text-anchor="middle" x="118.72" y="-312.68" font-family="Times,serif" font-size="14.00">α_s</text>
<text text-anchor="middle" x="118.72" y="-297.68" font-family="Times,serif" font-size="14.00">~</text>
<text text-anchor="middle" x="118.72" y="-282.68" font-family="Times,serif" font-size="14.00">Normal</text>
</g>
<!-- σ_α_s&#45;&gt;α_s -->
<g id="edge4" class="edge">
<title>σ_α_s&#45;&gt;α_s</title>
<path fill="none" stroke="black" d="M203.13,-380.99C188.02,-366.92 170.02,-350.16 154.54,-335.74"/>
<polygon fill="black" stroke="black" points="156.86,-333.12 147.16,-328.87 152.09,-338.24 156.86,-333.12"/>
</g>
<!-- μ_γ_g -->
<g id="node4" class="node">
<title>μ_γ_g</title>
<ellipse fill="none" stroke="black" cx="277.72" cy="-637.24" rx="41.94" ry="37.45"/>
<text text-anchor="middle" x="277.72" y="-648.54" font-family="Times,serif" font-size="14.00">μ_γ_g</text>
<text text-anchor="middle" x="277.72" y="-633.54" font-family="Times,serif" font-size="14.00">~</text>
<text text-anchor="middle" x="277.72" y="-618.54" font-family="Times,serif" font-size="14.00">Normal</text>
</g>
<!-- γ_g -->
<g id="node7" class="node">
<title>γ_g</title>
<ellipse fill="none" stroke="black" cx="268.72" cy="-526.29" rx="41.94" ry="37.45"/>
<text text-anchor="middle" x="268.72" y="-537.59" font-family="Times,serif" font-size="14.00">γ_g</text>
<text text-anchor="middle" x="268.72" y="-522.59" font-family="Times,serif" font-size="14.00">~</text>
<text text-anchor="middle" x="268.72" y="-507.59" font-family="Times,serif" font-size="14.00">Normal</text>
</g>
<!-- μ_γ_g&#45;&gt;γ_g -->
<g id="edge6" class="edge">
<title>μ_γ_g&#45;&gt;γ_g</title>
<path fill="none" stroke="black" d="M274.7,-599.66C274.02,-591.49 273.3,-582.71 272.59,-574.18"/>
<polygon fill="black" stroke="black" points="276.06,-573.64 271.75,-563.96 269.08,-574.22 276.06,-573.64"/>
</g>
<!-- σ_γ_g -->
<g id="node5" class="node">
<title>σ_γ_g</title>
<ellipse fill="none" stroke="black" cx="395.72" cy="-637.24" rx="58.88" ry="37.45"/>
<text text-anchor="middle" x="395.72" y="-648.54" font-family="Times,serif" font-size="14.00">σ_γ_g</text>
<text text-anchor="middle" x="395.72" y="-633.54" font-family="Times,serif" font-size="14.00">~</text>
<text text-anchor="middle" x="395.72" y="-618.54" font-family="Times,serif" font-size="14.00">HalfNormal</text>
</g>
<!-- σ_γ_g&#45;&gt;γ_g -->
<g id="edge7" class="edge">
<title>σ_γ_g&#45;&gt;γ_g</title>
<path fill="none" stroke="black" d="M361.35,-606.76C344.28,-592.11 323.62,-574.39 306.15,-559.4"/>
<polygon fill="black" stroke="black" points="308.24,-556.58 298.37,-552.73 303.68,-561.89 308.24,-556.58"/>
</g>
<!-- σ -->
<g id="node6" class="node">
<title>σ</title>
<ellipse fill="none" stroke="black" cx="286.72" cy="-187.43" rx="58.88" ry="37.45"/>
<text text-anchor="middle" x="286.72" y="-198.73" font-family="Times,serif" font-size="14.00">σ</text>
<text text-anchor="middle" x="286.72" y="-183.73" font-family="Times,serif" font-size="14.00">~</text>
<text text-anchor="middle" x="286.72" y="-168.73" font-family="Times,serif" font-size="14.00">HalfNormal</text>
</g>
<!-- y -->
<g id="node12" class="node">
<title>y</title>
<ellipse fill="lightgrey" stroke="black" cx="166.72" cy="-76.48" rx="41.94" ry="37.45"/>
<text text-anchor="middle" x="166.72" y="-87.78" font-family="Times,serif" font-size="14.00">y</text>
<text text-anchor="middle" x="166.72" y="-72.78" font-family="Times,serif" font-size="14.00">~</text>
<text text-anchor="middle" x="166.72" y="-57.78" font-family="Times,serif" font-size="14.00">Normal</text>
</g>
<!-- σ&#45;&gt;y -->
<g id="edge10" class="edge">
<title>σ&#45;&gt;y</title>
<path fill="none" stroke="black" d="M253.61,-156.37C237.99,-142.19 219.31,-125.22 203.27,-110.66"/>
<polygon fill="black" stroke="black" points="205.39,-107.86 195.64,-103.73 200.69,-113.05 205.39,-107.86"/>
</g>
<!-- μ -->
<g id="node11" class="node">
<title>μ</title>
<polygon fill="none" stroke="black" points="210.22,-213.93 119.22,-213.93 119.22,-160.93 210.22,-160.93 210.22,-213.93"/>
<text text-anchor="middle" x="164.72" y="-198.73" font-family="Times,serif" font-size="14.00">μ</text>
<text text-anchor="middle" x="164.72" y="-183.73" font-family="Times,serif" font-size="14.00">~</text>
<text text-anchor="middle" x="164.72" y="-168.73" font-family="Times,serif" font-size="14.00">Deterministic</text>
</g>
<!-- γ_g&#45;&gt;μ -->
<g id="edge9" class="edge">
<title>γ_g&#45;&gt;μ</title>
<path fill="none" stroke="black" d="M287.12,-492.52C293.38,-479.62 299.58,-464.43 302.72,-449.81 309.72,-417.24 313.15,-406.5 302.72,-374.86 282.49,-313.53 233.45,-255.88 199.63,-221.36"/>
<polygon fill="black" stroke="black" points="201.78,-218.56 192.24,-213.94 196.82,-223.49 201.78,-218.56"/>
</g>
<!-- μ_α_s -->
<g id="node10" class="node">
<title>μ_α_s</title>
<polygon fill="none" stroke="black" points="160.22,-438.84 69.22,-438.84 69.22,-385.84 160.22,-385.84 160.22,-438.84"/>
<text text-anchor="middle" x="114.72" y="-423.64" font-family="Times,serif" font-size="14.00">μ_α_s</text>
<text text-anchor="middle" x="114.72" y="-408.64" font-family="Times,serif" font-size="14.00">~</text>
<text text-anchor="middle" x="114.72" y="-393.64" font-family="Times,serif" font-size="14.00">Deterministic</text>
</g>
<!-- g_s&#45;&gt;μ_α_s -->
<g id="edge3" class="edge">
<title>g_s&#45;&gt;μ_α_s</title>
<path fill="none" stroke="black" d="M151.67,-491.4C145.19,-477.7 137.71,-461.89 131.18,-448.11"/>
<polygon fill="black" stroke="black" points="134.28,-446.48 126.84,-438.93 127.95,-449.47 134.28,-446.48"/>
</g>
<!-- α_s&#45;&gt;μ -->
<g id="edge8" class="edge">
<title>α_s&#45;&gt;μ</title>
<path fill="none" stroke="black" d="M132.9,-265.88C138.42,-252.44 144.74,-237.05 150.29,-223.55"/>
<polygon fill="black" stroke="black" points="153.61,-224.69 154.17,-214.11 147.13,-222.03 153.61,-224.69"/>
</g>
<!-- μ_α_s&#45;&gt;α_s -->
<g id="edge5" class="edge">
<title>μ_α_s&#45;&gt;α_s</title>
<path fill="none" stroke="black" d="M115.66,-385.79C116.06,-374.88 116.54,-361.79 117,-349.25"/>
<polygon fill="black" stroke="black" points="120.51,-349.03 117.38,-338.91 113.51,-348.77 120.51,-349.03"/>
</g>
<!-- μ&#45;&gt;y -->
<g id="edge11" class="edge">
<title>μ&#45;&gt;y</title>
<path fill="none" stroke="black" d="M165.19,-160.89C165.39,-149.98 165.63,-136.89 165.86,-124.35"/>
<polygon fill="black" stroke="black" points="169.36,-124.06 166.05,-114 162.37,-123.94 169.36,-124.06"/>
</g>
</g>
</svg>
