<?xml version="1.0" encoding="UTF-8" standalone="no"?>
<!DOCTYPE svg PUBLIC "-//W3C//DTD SVG 1.1//EN"
 "http://www.w3.org/Graphics/SVG/1.1/DTD/svg11.dtd">
<!-- Generated by graphviz version 2.42.3 (20191010.1750)
 -->
<!-- Title: %3 Pages: 1 -->
<svg width="462pt" height="458pt"
 viewBox="0.00 0.00 462.44 457.81" xmlns="http://www.w3.org/2000/svg" xmlns:xlink="http://www.w3.org/1999/xlink">
<g id="graph0" class="graph" transform="scale(1 1) rotate(0) translate(4 453.81)">
<title>%3</title>
<polygon fill="white" stroke="transparent" points="-4,4 -4,-453.81 458.44,-453.81 458.44,4 -4,4"/>
<g id="clust1" class="cluster">
<title>cluster26</title>
<path fill="none" stroke="black" d="M121.72,-232.91C121.72,-232.91 197.72,-232.91 197.72,-232.91 203.72,-232.91 209.72,-238.91 209.72,-244.91 209.72,-244.91 209.72,-334.86 209.72,-334.86 209.72,-340.86 203.72,-346.86 197.72,-346.86 197.72,-346.86 121.72,-346.86 121.72,-346.86 115.72,-346.86 109.72,-340.86 109.72,-334.86 109.72,-334.86 109.72,-244.91 109.72,-244.91 109.72,-238.91 115.72,-232.91 121.72,-232.91"/>
<text text-anchor="middle" x="194.72" y="-240.71" font-family="Times,serif" font-size="14.00">26</text>
</g>
<g id="clust2" class="cluster">
<title>cluster258</title>
<path fill="none" stroke="black" d="M256.72,-232.91C256.72,-232.91 332.72,-232.91 332.72,-232.91 338.72,-232.91 344.72,-238.91 344.72,-244.91 344.72,-244.91 344.72,-334.86 344.72,-334.86 344.72,-340.86 338.72,-346.86 332.72,-346.86 332.72,-346.86 256.72,-346.86 256.72,-346.86 250.72,-346.86 244.72,-340.86 244.72,-334.86 244.72,-334.86 244.72,-244.91 244.72,-244.91 244.72,-238.91 250.72,-232.91 256.72,-232.91"/>
<text text-anchor="middle" x="326.22" y="-240.71" font-family="Times,serif" font-size="14.00">258</text>
</g>
<g id="clust3" class="cluster">
<title>cluster60,049</title>
<path fill="none" stroke="black" d="M183.72,-8C183.72,-8 267.72,-8 267.72,-8 273.72,-8 279.72,-14 279.72,-20 279.72,-20 279.72,-209.93 279.72,-209.93 279.72,-215.93 273.72,-221.93 267.72,-221.93 267.72,-221.93 183.72,-221.93 183.72,-221.93 177.72,-221.93 171.72,-215.93 171.72,-209.93 171.72,-209.93 171.72,-20 171.72,-20 171.72,-14 177.72,-8 183.72,-8"/>
<text text-anchor="middle" x="252.72" y="-15.8" font-family="Times,serif" font-size="14.00">60,049</text>
</g>
<!-- μ_α -->
<g id="node1" class="node">
<title>μ_α</title>
<ellipse fill="none" stroke="black" cx="41.72" cy="-412.34" rx="41.94" ry="37.45"/>
<text text-anchor="middle" x="41.72" y="-423.64" font-family="Times,serif" font-size="14.00">μ_α</text>
<text text-anchor="middle" x="41.72" y="-408.64" font-family="Times,serif" font-size="14.00">~</text>
<text text-anchor="middle" x="41.72" y="-393.64" font-family="Times,serif" font-size="14.00">Normal</text>
</g>
<!-- α_g -->
<g id="node6" class="node">
<title>α_g</title>
<ellipse fill="none" stroke="black" cx="159.72" cy="-301.38" rx="41.94" ry="37.45"/>
<text text-anchor="middle" x="159.72" y="-312.68" font-family="Times,serif" font-size="14.00">α_g</text>
<text text-anchor="middle" x="159.72" y="-297.68" font-family="Times,serif" font-size="14.00">~</text>
<text text-anchor="middle" x="159.72" y="-282.68" font-family="Times,serif" font-size="14.00">Normal</text>
</g>
<!-- μ_α&#45;&gt;α_g -->
<g id="edge2" class="edge">
<title>μ_α&#45;&gt;α_g</title>
<path fill="none" stroke="black" d="M70.28,-384.96C86.25,-370.22 106.32,-351.69 123.4,-335.92"/>
<polygon fill="black" stroke="black" points="126.04,-338.25 131.01,-328.89 121.29,-333.1 126.04,-338.25"/>
</g>
<!-- σ -->
<g id="node2" class="node">
<title>σ</title>
<ellipse fill="none" stroke="black" cx="347.72" cy="-187.43" rx="58.88" ry="37.45"/>
<text text-anchor="middle" x="347.72" y="-198.73" font-family="Times,serif" font-size="14.00">σ</text>
<text text-anchor="middle" x="347.72" y="-183.73" font-family="Times,serif" font-size="14.00">~</text>
<text text-anchor="middle" x="347.72" y="-168.73" font-family="Times,serif" font-size="14.00">HalfNormal</text>
</g>
<!-- y -->
<g id="node9" class="node">
<title>y</title>
<ellipse fill="lightgrey" stroke="black" cx="227.72" cy="-76.48" rx="41.94" ry="37.45"/>
<text text-anchor="middle" x="227.72" y="-87.78" font-family="Times,serif" font-size="14.00">y</text>
<text text-anchor="middle" x="227.72" y="-72.78" font-family="Times,serif" font-size="14.00">~</text>
<text text-anchor="middle" x="227.72" y="-57.78" font-family="Times,serif" font-size="14.00">Normal</text>
</g>
<!-- σ&#45;&gt;y -->
<g id="edge8" class="edge">
<title>σ&#45;&gt;y</title>
<path fill="none" stroke="black" d="M314.61,-156.37C298.99,-142.19 280.31,-125.22 264.27,-110.66"/>
<polygon fill="black" stroke="black" points="266.39,-107.86 256.64,-103.73 261.69,-113.05 266.39,-107.86"/>
</g>
<!-- σ_β -->
<g id="node3" class="node">
<title>σ_β</title>
<ellipse fill="none" stroke="black" cx="294.72" cy="-412.34" rx="58.88" ry="37.45"/>
<text text-anchor="middle" x="294.72" y="-423.64" font-family="Times,serif" font-size="14.00">σ_β</text>
<text text-anchor="middle" x="294.72" y="-408.64" font-family="Times,serif" font-size="14.00">~</text>
<text text-anchor="middle" x="294.72" y="-393.64" font-family="Times,serif" font-size="14.00">HalfNormal</text>
</g>
<!-- β_c -->
<g id="node7" class="node">
<title>β_c</title>
<ellipse fill="none" stroke="black" cx="294.72" cy="-301.38" rx="41.94" ry="37.45"/>
<text text-anchor="middle" x="294.72" y="-312.68" font-family="Times,serif" font-size="14.00">β_c</text>
<text text-anchor="middle" x="294.72" y="-297.68" font-family="Times,serif" font-size="14.00">~</text>
<text text-anchor="middle" x="294.72" y="-282.68" font-family="Times,serif" font-size="14.00">Normal</text>
</g>
<!-- σ_β&#45;&gt;β_c -->
<g id="edge4" class="edge">
<title>σ_β&#45;&gt;β_c</title>
<path fill="none" stroke="black" d="M294.72,-374.75C294.72,-366.58 294.72,-357.8 294.72,-349.27"/>
<polygon fill="black" stroke="black" points="298.22,-349.06 294.72,-339.06 291.22,-349.06 298.22,-349.06"/>
</g>
<!-- σ_α -->
<g id="node4" class="node">
<title>σ_α</title>
<ellipse fill="none" stroke="black" cx="159.72" cy="-412.34" rx="58.88" ry="37.45"/>
<text text-anchor="middle" x="159.72" y="-423.64" font-family="Times,serif" font-size="14.00">σ_α</text>
<text text-anchor="middle" x="159.72" y="-408.64" font-family="Times,serif" font-size="14.00">~</text>
<text text-anchor="middle" x="159.72" y="-393.64" font-family="Times,serif" font-size="14.00">HalfNormal</text>
</g>
<!-- σ_α&#45;&gt;α_g -->
<g id="edge1" class="edge">
<title>σ_α&#45;&gt;α_g</title>
<path fill="none" stroke="black" d="M159.72,-374.75C159.72,-366.58 159.72,-357.8 159.72,-349.27"/>
<polygon fill="black" stroke="black" points="163.22,-349.06 159.72,-339.06 156.22,-349.06 163.22,-349.06"/>
</g>
<!-- μ_β -->
<g id="node5" class="node">
<title>μ_β</title>
<ellipse fill="none" stroke="black" cx="412.72" cy="-412.34" rx="41.94" ry="37.45"/>
<text text-anchor="middle" x="412.72" y="-423.64" font-family="Times,serif" font-size="14.00">μ_β</text>
<text text-anchor="middle" x="412.72" y="-408.64" font-family="Times,serif" font-size="14.00">~</text>
<text text-anchor="middle" x="412.72" y="-393.64" font-family="Times,serif" font-size="14.00">Normal</text>
</g>
<!-- μ_β&#45;&gt;β_c -->
<g id="edge3" class="edge">
<title>μ_β&#45;&gt;β_c</title>
<path fill="none" stroke="black" d="M384.15,-384.96C368.18,-370.22 348.12,-351.69 331.04,-335.92"/>
<polygon fill="black" stroke="black" points="333.15,-333.1 323.43,-328.89 328.4,-338.25 333.15,-333.1"/>
</g>
<!-- μ -->
<g id="node8" class="node">
<title>μ</title>
<polygon fill="none" stroke="black" points="271.22,-213.93 180.22,-213.93 180.22,-160.93 271.22,-160.93 271.22,-213.93"/>
<text text-anchor="middle" x="225.72" y="-198.73" font-family="Times,serif" font-size="14.00">μ</text>
<text text-anchor="middle" x="225.72" y="-183.73" font-family="Times,serif" font-size="14.00">~</text>
<text text-anchor="middle" x="225.72" y="-168.73" font-family="Times,serif" font-size="14.00">Deterministic</text>
</g>
<!-- α_g&#45;&gt;μ -->
<g id="edge5" class="edge">
<title>α_g&#45;&gt;μ</title>
<path fill="none" stroke="black" d="M178.81,-268C187.2,-253.78 197.05,-237.06 205.55,-222.63"/>
<polygon fill="black" stroke="black" points="208.59,-224.38 210.65,-213.99 202.56,-220.83 208.59,-224.38"/>
</g>
<!-- β_c&#45;&gt;μ -->
<g id="edge6" class="edge">
<title>β_c&#45;&gt;μ</title>
<path fill="none" stroke="black" d="M274.95,-268.3C266.17,-254.07 255.84,-237.3 246.91,-222.81"/>
<polygon fill="black" stroke="black" points="249.78,-220.8 241.56,-214.12 243.82,-224.47 249.78,-220.8"/>
</g>
<!-- μ&#45;&gt;y -->
<g id="edge7" class="edge">
<title>μ&#45;&gt;y</title>
<path fill="none" stroke="black" d="M226.19,-160.89C226.39,-149.98 226.63,-136.89 226.86,-124.35"/>
<polygon fill="black" stroke="black" points="230.36,-124.06 227.05,-114 223.37,-123.94 230.36,-124.06"/>
</g>
</g>
</svg>
