<?xml version="1.0" encoding="UTF-8" standalone="no"?>
<!DOCTYPE svg PUBLIC "-//W3C//DTD SVG 1.1//EN"
 "http://www.w3.org/Graphics/SVG/1.1/DTD/svg11.dtd">
<!-- Generated by graphviz version 2.42.3 (20191010.1750)
 -->
<!-- Title: %3 Pages: 1 -->
<svg width="1363pt" height="772pt"
 viewBox="0.00 0.00 1363.38 771.72" xmlns="http://www.w3.org/2000/svg" xmlns:xlink="http://www.w3.org/1999/xlink">
<g id="graph0" class="graph" transform="scale(1 1) rotate(0) translate(4 767.72)">
<title>%3</title>
<polygon fill="white" stroke="transparent" points="-4,4 -4,-767.72 1359.38,-767.72 1359.38,4 -4,4"/>
<g id="clust1" class="cluster">
<title>cluster103</title>
<path fill="none" stroke="black" d="M695.69,-321.91C695.69,-321.91 847.69,-321.91 847.69,-321.91 853.69,-321.91 859.69,-327.91 859.69,-333.91 859.69,-333.91 859.69,-637.79 859.69,-637.79 859.69,-643.79 853.69,-649.79 847.69,-649.79 847.69,-649.79 695.69,-649.79 695.69,-649.79 689.69,-649.79 683.69,-643.79 683.69,-637.79 683.69,-637.79 683.69,-333.91 683.69,-333.91 683.69,-327.91 689.69,-321.91 695.69,-321.91"/>
<text text-anchor="middle" x="841.19" y="-329.71" font-family="Times,serif" font-size="14.00">103</text>
</g>
<g id="clust2" class="cluster">
<title>cluster60,049</title>
<path fill="none" stroke="black" d="M137.69,-8C137.69,-8 663.69,-8 663.69,-8 669.69,-8 675.69,-14 675.69,-20 675.69,-20 675.69,-412.88 675.69,-412.88 675.69,-418.88 669.69,-424.88 663.69,-424.88 663.69,-424.88 137.69,-424.88 137.69,-424.88 131.69,-424.88 125.69,-418.88 125.69,-412.88 125.69,-412.88 125.69,-20 125.69,-20 125.69,-14 131.69,-8 137.69,-8"/>
<text text-anchor="middle" x="648.69" y="-15.8" font-family="Times,serif" font-size="14.00">60,049</text>
</g>
<g id="clust3" class="cluster">
<title>cluster26</title>
<path fill="none" stroke="black" d="M879.69,-546.81C879.69,-546.81 1157.69,-546.81 1157.69,-546.81 1163.69,-546.81 1169.69,-552.81 1169.69,-558.81 1169.69,-558.81 1169.69,-648.77 1169.69,-648.77 1169.69,-654.77 1163.69,-660.77 1157.69,-660.77 1157.69,-660.77 879.69,-660.77 879.69,-660.77 873.69,-660.77 867.69,-654.77 867.69,-648.77 867.69,-648.77 867.69,-558.81 867.69,-558.81 867.69,-552.81 873.69,-546.81 879.69,-546.81"/>
<text text-anchor="middle" x="1154.69" y="-554.61" font-family="Times,serif" font-size="14.00">26</text>
</g>
<!-- α_s -->
<g id="node1" class="node">
<title>α_s</title>
<ellipse fill="none" stroke="black" cx="787.69" cy="-390.38" rx="41.94" ry="37.45"/>
<text text-anchor="middle" x="787.69" y="-401.68" font-family="Times,serif" font-size="14.00">α_s</text>
<text text-anchor="middle" x="787.69" y="-386.68" font-family="Times,serif" font-size="14.00">~</text>
<text text-anchor="middle" x="787.69" y="-371.68" font-family="Times,serif" font-size="14.00">Normal</text>
</g>
<!-- μ -->
<g id="node4" class="node">
<title>μ</title>
<polygon fill="none" stroke="black" points="587.19,-302.93 496.19,-302.93 496.19,-249.93 587.19,-249.93 587.19,-302.93"/>
<text text-anchor="middle" x="541.69" y="-287.73" font-family="Times,serif" font-size="14.00">μ</text>
<text text-anchor="middle" x="541.69" y="-272.73" font-family="Times,serif" font-size="14.00">~</text>
<text text-anchor="middle" x="541.69" y="-257.73" font-family="Times,serif" font-size="14.00">Deterministic</text>
</g>
<!-- α_s&#45;&gt;μ -->
<g id="edge15" class="edge">
<title>α_s&#45;&gt;μ</title>
<path fill="none" stroke="black" d="M755.32,-366.2C734.46,-352.03 706.35,-334.3 679.69,-321.91 653.39,-309.68 622.82,-299.45 597.14,-291.9"/>
<polygon fill="black" stroke="black" points="597.77,-288.44 587.19,-289.03 595.83,-295.17 597.77,-288.44"/>
</g>
<!-- μ_α_s -->
<g id="node2" class="node">
<title>μ_α_s</title>
<polygon fill="none" stroke="black" points="833.19,-527.84 742.19,-527.84 742.19,-474.84 833.19,-474.84 833.19,-527.84"/>
<text text-anchor="middle" x="787.69" y="-512.64" font-family="Times,serif" font-size="14.00">μ_α_s</text>
<text text-anchor="middle" x="787.69" y="-497.64" font-family="Times,serif" font-size="14.00">~</text>
<text text-anchor="middle" x="787.69" y="-482.64" font-family="Times,serif" font-size="14.00">Deterministic</text>
</g>
<!-- μ_α_s&#45;&gt;α_s -->
<g id="edge7" class="edge">
<title>μ_α_s&#45;&gt;α_s</title>
<path fill="none" stroke="black" d="M787.69,-474.79C787.69,-463.88 787.69,-450.79 787.69,-438.25"/>
<polygon fill="black" stroke="black" points="791.19,-437.91 787.69,-427.91 784.19,-437.91 791.19,-437.91"/>
</g>
<!-- sgrna_to_gene_idx_shared -->
<g id="node3" class="node">
<title>sgrna_to_gene_idx_shared</title>
<path fill="lightgrey" stroke="black" d="M839.69,-641.79C839.69,-641.79 703.69,-641.79 703.69,-641.79 697.69,-641.79 691.69,-635.79 691.69,-629.79 691.69,-629.79 691.69,-600.79 691.69,-600.79 691.69,-594.79 697.69,-588.79 703.69,-588.79 703.69,-588.79 839.69,-588.79 839.69,-588.79 845.69,-588.79 851.69,-594.79 851.69,-600.79 851.69,-600.79 851.69,-629.79 851.69,-629.79 851.69,-635.79 845.69,-641.79 839.69,-641.79"/>
<text text-anchor="middle" x="771.69" y="-626.59" font-family="Times,serif" font-size="14.00">sgrna_to_gene_idx_shared</text>
<text text-anchor="middle" x="771.69" y="-611.59" font-family="Times,serif" font-size="14.00">~</text>
<text text-anchor="middle" x="771.69" y="-596.59" font-family="Times,serif" font-size="14.00">Data</text>
</g>
<!-- sgrna_to_gene_idx_shared&#45;&gt;μ_α_s -->
<g id="edge4" class="edge">
<title>sgrna_to_gene_idx_shared&#45;&gt;μ_α_s</title>
<path fill="none" stroke="black" d="M775.36,-588.61C777.49,-573.67 780.22,-554.62 782.56,-538.22"/>
<polygon fill="black" stroke="black" points="786.09,-538.3 784.04,-527.9 779.16,-537.31 786.09,-538.3"/>
</g>
<!-- y -->
<g id="node6" class="node">
<title>y</title>
<ellipse fill="lightgrey" stroke="black" cx="325.69" cy="-165.48" rx="41.94" ry="37.45"/>
<text text-anchor="middle" x="325.69" y="-176.78" font-family="Times,serif" font-size="14.00">y</text>
<text text-anchor="middle" x="325.69" y="-161.78" font-family="Times,serif" font-size="14.00">~</text>
<text text-anchor="middle" x="325.69" y="-146.78" font-family="Times,serif" font-size="14.00">Normal</text>
</g>
<!-- μ&#45;&gt;y -->
<g id="edge20" class="edge">
<title>μ&#45;&gt;y</title>
<path fill="none" stroke="black" d="M496.15,-252.46C459.29,-233.87 407.65,-207.82 370.89,-189.28"/>
<polygon fill="black" stroke="black" points="372.38,-186.11 361.88,-184.73 369.23,-192.36 372.38,-186.11"/>
</g>
<!-- is_mutated_shared -->
<g id="node5" class="node">
<title>is_mutated_shared</title>
<path fill="lightgrey" stroke="black" d="M655.19,-416.88C655.19,-416.88 560.19,-416.88 560.19,-416.88 554.19,-416.88 548.19,-410.88 548.19,-404.88 548.19,-404.88 548.19,-375.88 548.19,-375.88 548.19,-369.88 554.19,-363.88 560.19,-363.88 560.19,-363.88 655.19,-363.88 655.19,-363.88 661.19,-363.88 667.19,-369.88 667.19,-375.88 667.19,-375.88 667.19,-404.88 667.19,-404.88 667.19,-410.88 661.19,-416.88 655.19,-416.88"/>
<text text-anchor="middle" x="607.69" y="-401.68" font-family="Times,serif" font-size="14.00">is_mutated_shared</text>
<text text-anchor="middle" x="607.69" y="-386.68" font-family="Times,serif" font-size="14.00">~</text>
<text text-anchor="middle" x="607.69" y="-371.68" font-family="Times,serif" font-size="14.00">Data</text>
</g>
<!-- is_mutated_shared&#45;&gt;μ -->
<g id="edge13" class="edge">
<title>is_mutated_shared&#45;&gt;μ</title>
<path fill="none" stroke="black" d="M592.55,-363.7C583.49,-348.34 571.87,-328.62 562.02,-311.92"/>
<polygon fill="black" stroke="black" points="564.85,-309.83 556.76,-302.99 558.82,-313.39 564.85,-309.83"/>
</g>
<!-- lfc_shared -->
<g id="node8" class="node">
<title>lfc_shared</title>
<path fill="lightgrey" stroke="black" d="M349.69,-92C349.69,-92 301.69,-92 301.69,-92 295.69,-92 289.69,-86 289.69,-80 289.69,-80 289.69,-51 289.69,-51 289.69,-45 295.69,-39 301.69,-39 301.69,-39 349.69,-39 349.69,-39 355.69,-39 361.69,-45 361.69,-51 361.69,-51 361.69,-80 361.69,-80 361.69,-86 355.69,-92 349.69,-92"/>
<text text-anchor="middle" x="325.69" y="-76.8" font-family="Times,serif" font-size="14.00">lfc_shared</text>
<text text-anchor="middle" x="325.69" y="-61.8" font-family="Times,serif" font-size="14.00">~</text>
<text text-anchor="middle" x="325.69" y="-46.8" font-family="Times,serif" font-size="14.00">Data</text>
</g>
<!-- y&#45;&gt;lfc_shared -->
<g id="edge1" class="edge">
<title>y&#45;&gt;lfc_shared</title>
<path fill="none" stroke="black" d="M325.69,-127.99C325.69,-119.58 325.69,-110.63 325.69,-102.25"/>
<polygon fill="black" stroke="black" points="329.19,-102.01 325.69,-92.01 322.19,-102.01 329.19,-102.01"/>
</g>
<!-- gene_idx_shared -->
<g id="node7" class="node">
<title>gene_idx_shared</title>
<path fill="lightgrey" stroke="black" d="M518.19,-416.88C518.19,-416.88 435.19,-416.88 435.19,-416.88 429.19,-416.88 423.19,-410.88 423.19,-404.88 423.19,-404.88 423.19,-375.88 423.19,-375.88 423.19,-369.88 429.19,-363.88 435.19,-363.88 435.19,-363.88 518.19,-363.88 518.19,-363.88 524.19,-363.88 530.19,-369.88 530.19,-375.88 530.19,-375.88 530.19,-404.88 530.19,-404.88 530.19,-410.88 524.19,-416.88 518.19,-416.88"/>
<text text-anchor="middle" x="476.69" y="-401.68" font-family="Times,serif" font-size="14.00">gene_idx_shared</text>
<text text-anchor="middle" x="476.69" y="-386.68" font-family="Times,serif" font-size="14.00">~</text>
<text text-anchor="middle" x="476.69" y="-371.68" font-family="Times,serif" font-size="14.00">Data</text>
</g>
<!-- gene_idx_shared&#45;&gt;μ -->
<g id="edge16" class="edge">
<title>gene_idx_shared&#45;&gt;μ</title>
<path fill="none" stroke="black" d="M491.6,-363.7C500.52,-348.34 511.97,-328.62 521.67,-311.92"/>
<polygon fill="black" stroke="black" points="524.85,-313.4 526.85,-302.99 518.8,-309.89 524.85,-313.4"/>
</g>
<!-- scaled_log2_cn_shared -->
<g id="node9" class="node">
<title>scaled_log2_cn_shared</title>
<path fill="lightgrey" stroke="black" d="M393.19,-416.88C393.19,-416.88 274.19,-416.88 274.19,-416.88 268.19,-416.88 262.19,-410.88 262.19,-404.88 262.19,-404.88 262.19,-375.88 262.19,-375.88 262.19,-369.88 268.19,-363.88 274.19,-363.88 274.19,-363.88 393.19,-363.88 393.19,-363.88 399.19,-363.88 405.19,-369.88 405.19,-375.88 405.19,-375.88 405.19,-404.88 405.19,-404.88 405.19,-410.88 399.19,-416.88 393.19,-416.88"/>
<text text-anchor="middle" x="333.69" y="-401.68" font-family="Times,serif" font-size="14.00">scaled_log2_cn_shared</text>
<text text-anchor="middle" x="333.69" y="-386.68" font-family="Times,serif" font-size="14.00">~</text>
<text text-anchor="middle" x="333.69" y="-371.68" font-family="Times,serif" font-size="14.00">Data</text>
</g>
<!-- scaled_log2_cn_shared&#45;&gt;μ -->
<g id="edge17" class="edge">
<title>scaled_log2_cn_shared&#45;&gt;μ</title>
<path fill="none" stroke="black" d="M359.62,-363.65C374.69,-349.8 394.63,-333.28 414.69,-321.91 436.92,-309.31 463.34,-299.35 486.3,-292.09"/>
<polygon fill="black" stroke="black" points="487.38,-295.42 495.91,-289.14 485.33,-288.73 487.38,-295.42"/>
</g>
<!-- sgrna_idx_shared -->
<g id="node10" class="node">
<title>sgrna_idx_shared</title>
<path fill="lightgrey" stroke="black" d="M232.19,-416.88C232.19,-416.88 145.19,-416.88 145.19,-416.88 139.19,-416.88 133.19,-410.88 133.19,-404.88 133.19,-404.88 133.19,-375.88 133.19,-375.88 133.19,-369.88 139.19,-363.88 145.19,-363.88 145.19,-363.88 232.19,-363.88 232.19,-363.88 238.19,-363.88 244.19,-369.88 244.19,-375.88 244.19,-375.88 244.19,-404.88 244.19,-404.88 244.19,-410.88 238.19,-416.88 232.19,-416.88"/>
<text text-anchor="middle" x="188.69" y="-401.68" font-family="Times,serif" font-size="14.00">sgrna_idx_shared</text>
<text text-anchor="middle" x="188.69" y="-386.68" font-family="Times,serif" font-size="14.00">~</text>
<text text-anchor="middle" x="188.69" y="-371.68" font-family="Times,serif" font-size="14.00">Data</text>
</g>
<!-- sgrna_idx_shared&#45;&gt;μ -->
<g id="edge18" class="edge">
<title>sgrna_idx_shared&#45;&gt;μ</title>
<path fill="none" stroke="black" d="M206.52,-363.85C218.2,-349.16 234.78,-331.72 253.69,-321.91 293.07,-301.47 413.65,-288.16 485.7,-281.81"/>
<polygon fill="black" stroke="black" points="486.3,-285.27 495.96,-280.92 485.7,-278.29 486.3,-285.27"/>
</g>
<!-- σ_δ_g -->
<g id="node11" class="node">
<title>σ_δ_g</title>
<ellipse fill="none" stroke="black" cx="959.69" cy="-726.24" rx="58.88" ry="37.45"/>
<text text-anchor="middle" x="959.69" y="-737.54" font-family="Times,serif" font-size="14.00">σ_δ_g</text>
<text text-anchor="middle" x="959.69" y="-722.54" font-family="Times,serif" font-size="14.00">~</text>
<text text-anchor="middle" x="959.69" y="-707.54" font-family="Times,serif" font-size="14.00">HalfNormal</text>
</g>
<!-- δ_g -->
<g id="node21" class="node">
<title>δ_g</title>
<ellipse fill="none" stroke="black" cx="1018.69" cy="-615.29" rx="41.94" ry="37.45"/>
<text text-anchor="middle" x="1018.69" y="-626.59" font-family="Times,serif" font-size="14.00">δ_g</text>
<text text-anchor="middle" x="1018.69" y="-611.59" font-family="Times,serif" font-size="14.00">~</text>
<text text-anchor="middle" x="1018.69" y="-596.59" font-family="Times,serif" font-size="14.00">Normal</text>
</g>
<!-- σ_δ_g&#45;&gt;δ_g -->
<g id="edge10" class="edge">
<title>σ_δ_g&#45;&gt;δ_g</title>
<path fill="none" stroke="black" d="M978.52,-690.47C984.05,-680.26 990.16,-668.98 995.91,-658.36"/>
<polygon fill="black" stroke="black" points="999.16,-659.71 1000.84,-649.25 993,-656.38 999.16,-659.71"/>
</g>
<!-- μ_g -->
<g id="node12" class="node">
<title>μ_g</title>
<ellipse fill="none" stroke="black" cx="706.69" cy="-726.24" rx="41.94" ry="37.45"/>
<text text-anchor="middle" x="706.69" y="-737.54" font-family="Times,serif" font-size="14.00">μ_g</text>
<text text-anchor="middle" x="706.69" y="-722.54" font-family="Times,serif" font-size="14.00">~</text>
<text text-anchor="middle" x="706.69" y="-707.54" font-family="Times,serif" font-size="14.00">Normal</text>
</g>
<!-- g_s -->
<g id="node20" class="node">
<title>g_s</title>
<ellipse fill="none" stroke="black" cx="917.69" cy="-615.29" rx="41.94" ry="37.45"/>
<text text-anchor="middle" x="917.69" y="-626.59" font-family="Times,serif" font-size="14.00">g_s</text>
<text text-anchor="middle" x="917.69" y="-611.59" font-family="Times,serif" font-size="14.00">~</text>
<text text-anchor="middle" x="917.69" y="-596.59" font-family="Times,serif" font-size="14.00">Normal</text>
</g>
<!-- μ_g&#45;&gt;g_s -->
<g id="edge3" class="edge">
<title>μ_g&#45;&gt;g_s</title>
<path fill="none" stroke="black" d="M737.42,-700.59C743.86,-696.21 750.79,-692.01 757.69,-688.77 801.78,-668.03 820.33,-682.99 863.69,-660.77 869.79,-657.64 875.82,-653.73 881.53,-649.53"/>
<polygon fill="black" stroke="black" points="883.87,-652.15 889.61,-643.24 879.57,-646.62 883.87,-652.15"/>
</g>
<!-- σ_g -->
<g id="node13" class="node">
<title>σ_g</title>
<ellipse fill="none" stroke="black" cx="824.69" cy="-726.24" rx="57.97" ry="37.45"/>
<text text-anchor="middle" x="824.69" y="-737.54" font-family="Times,serif" font-size="14.00">σ_g</text>
<text text-anchor="middle" x="824.69" y="-722.54" font-family="Times,serif" font-size="14.00">~</text>
<text text-anchor="middle" x="824.69" y="-707.54" font-family="Times,serif" font-size="14.00">Exponential</text>
</g>
<!-- σ_g&#45;&gt;g_s -->
<g id="edge2" class="edge">
<title>σ_g&#45;&gt;g_s</title>
<path fill="none" stroke="black" d="M852.09,-693.14C862.74,-680.67 875.01,-666.3 886.03,-653.38"/>
<polygon fill="black" stroke="black" points="888.88,-655.44 892.71,-645.56 883.55,-650.89 888.88,-655.44"/>
</g>
<!-- σ_α_s -->
<g id="node14" class="node">
<title>σ_α_s</title>
<ellipse fill="none" stroke="black" cx="925.69" cy="-501.34" rx="57.97" ry="37.45"/>
<text text-anchor="middle" x="925.69" y="-512.64" font-family="Times,serif" font-size="14.00">σ_α_s</text>
<text text-anchor="middle" x="925.69" y="-497.64" font-family="Times,serif" font-size="14.00">~</text>
<text text-anchor="middle" x="925.69" y="-482.64" font-family="Times,serif" font-size="14.00">Exponential</text>
</g>
<!-- σ_α_s&#45;&gt;α_s -->
<g id="edge6" class="edge">
<title>σ_α_s&#45;&gt;α_s</title>
<path fill="none" stroke="black" d="M889.43,-471.71C870.06,-456.42 846.21,-437.58 826.47,-422"/>
<polygon fill="black" stroke="black" points="828.58,-419.21 818.56,-415.76 824.24,-424.7 828.58,-419.21"/>
</g>
<!-- μ_γ_g -->
<g id="node15" class="node">
<title>μ_γ_g</title>
<ellipse fill="none" stroke="black" cx="1178.69" cy="-726.24" rx="41.94" ry="37.45"/>
<text text-anchor="middle" x="1178.69" y="-737.54" font-family="Times,serif" font-size="14.00">μ_γ_g</text>
<text text-anchor="middle" x="1178.69" y="-722.54" font-family="Times,serif" font-size="14.00">~</text>
<text text-anchor="middle" x="1178.69" y="-707.54" font-family="Times,serif" font-size="14.00">Normal</text>
</g>
<!-- γ_g -->
<g id="node19" class="node">
<title>γ_g</title>
<ellipse fill="none" stroke="black" cx="1119.69" cy="-615.29" rx="41.94" ry="37.45"/>
<text text-anchor="middle" x="1119.69" y="-626.59" font-family="Times,serif" font-size="14.00">γ_g</text>
<text text-anchor="middle" x="1119.69" y="-611.59" font-family="Times,serif" font-size="14.00">~</text>
<text text-anchor="middle" x="1119.69" y="-596.59" font-family="Times,serif" font-size="14.00">Normal</text>
</g>
<!-- μ_γ_g&#45;&gt;γ_g -->
<g id="edge8" class="edge">
<title>μ_γ_g&#45;&gt;γ_g</title>
<path fill="none" stroke="black" d="M1160.83,-692.26C1155.05,-681.58 1148.56,-669.6 1142.47,-658.36"/>
<polygon fill="black" stroke="black" points="1145.53,-656.67 1137.69,-649.54 1139.38,-660 1145.53,-656.67"/>
</g>
<!-- σ_γ_g -->
<g id="node16" class="node">
<title>σ_γ_g</title>
<ellipse fill="none" stroke="black" cx="1296.69" cy="-726.24" rx="58.88" ry="37.45"/>
<text text-anchor="middle" x="1296.69" y="-737.54" font-family="Times,serif" font-size="14.00">σ_γ_g</text>
<text text-anchor="middle" x="1296.69" y="-722.54" font-family="Times,serif" font-size="14.00">~</text>
<text text-anchor="middle" x="1296.69" y="-707.54" font-family="Times,serif" font-size="14.00">HalfNormal</text>
</g>
<!-- σ_γ_g&#45;&gt;γ_g -->
<g id="edge9" class="edge">
<title>σ_γ_g&#45;&gt;γ_g</title>
<path fill="none" stroke="black" d="M1255.19,-699.7C1227.35,-682.56 1190.76,-660.04 1162.62,-642.72"/>
<polygon fill="black" stroke="black" points="1164.15,-639.55 1153.8,-637.29 1160.48,-645.51 1164.15,-639.55"/>
</g>
<!-- σ -->
<g id="node17" class="node">
<title>σ</title>
<ellipse fill="none" stroke="black" cx="58.69" cy="-276.43" rx="58.88" ry="37.45"/>
<text text-anchor="middle" x="58.69" y="-287.73" font-family="Times,serif" font-size="14.00">σ</text>
<text text-anchor="middle" x="58.69" y="-272.73" font-family="Times,serif" font-size="14.00">~</text>
<text text-anchor="middle" x="58.69" y="-257.73" font-family="Times,serif" font-size="14.00">HalfNormal</text>
</g>
<!-- σ&#45;&gt;y -->
<g id="edge19" class="edge">
<title>σ&#45;&gt;y</title>
<path fill="none" stroke="black" d="M100.48,-249.81C107.45,-245.95 114.69,-242.19 121.69,-238.95 173.01,-215.22 234.46,-194.35 276.42,-181.18"/>
<polygon fill="black" stroke="black" points="277.61,-184.47 286.11,-178.16 275.53,-177.79 277.61,-184.47"/>
</g>
<!-- μ_δ_g -->
<g id="node18" class="node">
<title>μ_δ_g</title>
<ellipse fill="none" stroke="black" cx="1077.69" cy="-726.24" rx="41.94" ry="37.45"/>
<text text-anchor="middle" x="1077.69" y="-737.54" font-family="Times,serif" font-size="14.00">μ_δ_g</text>
<text text-anchor="middle" x="1077.69" y="-722.54" font-family="Times,serif" font-size="14.00">~</text>
<text text-anchor="middle" x="1077.69" y="-707.54" font-family="Times,serif" font-size="14.00">Normal</text>
</g>
<!-- μ_δ_g&#45;&gt;δ_g -->
<g id="edge11" class="edge">
<title>μ_δ_g&#45;&gt;δ_g</title>
<path fill="none" stroke="black" d="M1059.83,-692.26C1054.05,-681.58 1047.56,-669.6 1041.47,-658.36"/>
<polygon fill="black" stroke="black" points="1044.53,-656.67 1036.69,-649.54 1038.38,-660 1044.53,-656.67"/>
</g>
<!-- γ_g&#45;&gt;μ -->
<g id="edge12" class="edge">
<title>γ_g&#45;&gt;μ</title>
<path fill="none" stroke="black" d="M1108.41,-579.09C1086.04,-515.58 1029.57,-382.79 931.69,-321.91 877.17,-287.99 691.61,-279.91 597.45,-278"/>
<polygon fill="black" stroke="black" points="597.33,-274.5 587.26,-277.81 597.2,-281.5 597.33,-274.5"/>
</g>
<!-- g_s&#45;&gt;μ_α_s -->
<g id="edge5" class="edge">
<title>g_s&#45;&gt;μ_α_s</title>
<path fill="none" stroke="black" d="M896.45,-582.99C887.26,-570.82 875.84,-557.31 863.69,-546.81 857.12,-541.14 849.73,-535.79 842.2,-530.91"/>
<polygon fill="black" stroke="black" points="843.68,-527.71 833.34,-525.4 839.98,-533.65 843.68,-527.71"/>
</g>
<!-- δ_g&#45;&gt;μ -->
<g id="edge14" class="edge">
<title>δ_g&#45;&gt;μ</title>
<path fill="none" stroke="black" d="M1018.04,-577.59C1016.18,-546 1010.31,-499.94 992.69,-463.86 955.27,-387.26 939.1,-361.67 863.69,-321.91 818.66,-298.17 677.19,-285.8 597.57,-280.56"/>
<polygon fill="black" stroke="black" points="597.43,-277.05 587.23,-279.9 596.99,-284.03 597.43,-277.05"/>
</g>
</g>
</svg>
