<?xml version="1.0" encoding="UTF-8" standalone="no"?>
<!DOCTYPE svg PUBLIC "-//W3C//DTD SVG 1.1//EN"
 "http://www.w3.org/Graphics/SVG/1.1/DTD/svg11.dtd">
<!-- Generated by graphviz version 2.42.3 (20191010.1750)
 -->
<!-- Title: %3 Pages: 1 -->
<svg width="524pt" height="683pt"
 viewBox="0.00 0.00 523.70 682.72" xmlns="http://www.w3.org/2000/svg" xmlns:xlink="http://www.w3.org/1999/xlink">
<g id="graph0" class="graph" transform="scale(1 1) rotate(0) translate(4 678.72)">
<title>%3</title>
<polygon fill="white" stroke="transparent" points="-4,4 -4,-678.72 519.7,-678.72 519.7,4 -4,4"/>
<g id="clust1" class="cluster">
<title>cluster26</title>
<path fill="none" stroke="black" d="M62.72,-457.81C62.72,-457.81 138.72,-457.81 138.72,-457.81 144.72,-457.81 150.72,-463.81 150.72,-469.81 150.72,-469.81 150.72,-559.77 150.72,-559.77 150.72,-565.77 144.72,-571.77 138.72,-571.77 138.72,-571.77 62.72,-571.77 62.72,-571.77 56.72,-571.77 50.72,-565.77 50.72,-559.77 50.72,-559.77 50.72,-469.81 50.72,-469.81 50.72,-463.81 56.72,-457.81 62.72,-457.81"/>
<text text-anchor="middle" x="135.72" y="-465.61" font-family="Times,serif" font-size="14.00">26</text>
</g>
<g id="clust2" class="cluster">
<title>cluster103</title>
<path fill="none" stroke="black" d="M58.72,-232.91C58.72,-232.91 142.72,-232.91 142.72,-232.91 148.72,-232.91 154.72,-238.91 154.72,-244.91 154.72,-244.91 154.72,-434.84 154.72,-434.84 154.72,-440.84 148.72,-446.84 142.72,-446.84 142.72,-446.84 58.72,-446.84 58.72,-446.84 52.72,-446.84 46.72,-440.84 46.72,-434.84 46.72,-434.84 46.72,-244.91 46.72,-244.91 46.72,-238.91 52.72,-232.91 58.72,-232.91"/>
<text text-anchor="middle" x="136.22" y="-240.71" font-family="Times,serif" font-size="14.00">103</text>
</g>
<g id="clust3" class="cluster">
<title>cluster258</title>
<path fill="none" stroke="black" d="M301.72,-232.91C301.72,-232.91 377.72,-232.91 377.72,-232.91 383.72,-232.91 389.72,-238.91 389.72,-244.91 389.72,-244.91 389.72,-334.86 389.72,-334.86 389.72,-340.86 383.72,-346.86 377.72,-346.86 377.72,-346.86 301.72,-346.86 301.72,-346.86 295.72,-346.86 289.72,-340.86 289.72,-334.86 289.72,-334.86 289.72,-244.91 289.72,-244.91 289.72,-238.91 295.72,-232.91 301.72,-232.91"/>
<text text-anchor="middle" x="371.22" y="-240.71" font-family="Times,serif" font-size="14.00">258</text>
</g>
<g id="clust4" class="cluster">
<title>cluster60,049</title>
<path fill="none" stroke="black" d="M177.72,-8C177.72,-8 261.72,-8 261.72,-8 267.72,-8 273.72,-14 273.72,-20 273.72,-20 273.72,-209.93 273.72,-209.93 273.72,-215.93 267.72,-221.93 261.72,-221.93 261.72,-221.93 177.72,-221.93 177.72,-221.93 171.72,-221.93 165.72,-215.93 165.72,-209.93 165.72,-209.93 165.72,-20 165.72,-20 165.72,-14 171.72,-8 177.72,-8"/>
<text text-anchor="middle" x="246.72" y="-15.8" font-family="Times,serif" font-size="14.00">60,049</text>
</g>
<!-- μ_g -->
<g id="node1" class="node">
<title>μ_g</title>
<ellipse fill="none" stroke="black" cx="41.72" cy="-637.24" rx="41.94" ry="37.45"/>
<text text-anchor="middle" x="41.72" y="-648.54" font-family="Times,serif" font-size="14.00">μ_g</text>
<text text-anchor="middle" x="41.72" y="-633.54" font-family="Times,serif" font-size="14.00">~</text>
<text text-anchor="middle" x="41.72" y="-618.54" font-family="Times,serif" font-size="14.00">Normal</text>
</g>
<!-- g_s -->
<g id="node7" class="node">
<title>g_s</title>
<ellipse fill="none" stroke="black" cx="100.72" cy="-526.29" rx="41.94" ry="37.45"/>
<text text-anchor="middle" x="100.72" y="-537.59" font-family="Times,serif" font-size="14.00">g_s</text>
<text text-anchor="middle" x="100.72" y="-522.59" font-family="Times,serif" font-size="14.00">~</text>
<text text-anchor="middle" x="100.72" y="-507.59" font-family="Times,serif" font-size="14.00">Normal</text>
</g>
<!-- μ_g&#45;&gt;g_s -->
<g id="edge2" class="edge">
<title>μ_g&#45;&gt;g_s</title>
<path fill="none" stroke="black" d="M59.58,-603.26C65.36,-592.58 71.85,-580.6 77.94,-569.36"/>
<polygon fill="black" stroke="black" points="81.03,-571 82.71,-560.54 74.87,-567.67 81.03,-571"/>
</g>
<!-- σ_g -->
<g id="node2" class="node">
<title>σ_g</title>
<ellipse fill="none" stroke="black" cx="159.72" cy="-637.24" rx="57.97" ry="37.45"/>
<text text-anchor="middle" x="159.72" y="-648.54" font-family="Times,serif" font-size="14.00">σ_g</text>
<text text-anchor="middle" x="159.72" y="-633.54" font-family="Times,serif" font-size="14.00">~</text>
<text text-anchor="middle" x="159.72" y="-618.54" font-family="Times,serif" font-size="14.00">Exponential</text>
</g>
<!-- σ_g&#45;&gt;g_s -->
<g id="edge1" class="edge">
<title>σ_g&#45;&gt;g_s</title>
<path fill="none" stroke="black" d="M140.89,-601.47C135.36,-591.26 129.25,-579.98 123.5,-569.36"/>
<polygon fill="black" stroke="black" points="126.41,-567.38 118.57,-560.25 120.25,-570.71 126.41,-567.38"/>
</g>
<!-- μ_β_c -->
<g id="node3" class="node">
<title>μ_β_c</title>
<ellipse fill="none" stroke="black" cx="339.72" cy="-412.34" rx="41.94" ry="37.45"/>
<text text-anchor="middle" x="339.72" y="-423.64" font-family="Times,serif" font-size="14.00">μ_β_c</text>
<text text-anchor="middle" x="339.72" y="-408.64" font-family="Times,serif" font-size="14.00">~</text>
<text text-anchor="middle" x="339.72" y="-393.64" font-family="Times,serif" font-size="14.00">Normal</text>
</g>
<!-- β_c -->
<g id="node10" class="node">
<title>β_c</title>
<ellipse fill="none" stroke="black" cx="339.72" cy="-301.38" rx="41.94" ry="37.45"/>
<text text-anchor="middle" x="339.72" y="-312.68" font-family="Times,serif" font-size="14.00">β_c</text>
<text text-anchor="middle" x="339.72" y="-297.68" font-family="Times,serif" font-size="14.00">~</text>
<text text-anchor="middle" x="339.72" y="-282.68" font-family="Times,serif" font-size="14.00">Normal</text>
</g>
<!-- μ_β_c&#45;&gt;β_c -->
<g id="edge5" class="edge">
<title>μ_β_c&#45;&gt;β_c</title>
<path fill="none" stroke="black" d="M339.72,-374.75C339.72,-366.58 339.72,-357.8 339.72,-349.27"/>
<polygon fill="black" stroke="black" points="343.22,-349.06 339.72,-339.06 336.22,-349.06 343.22,-349.06"/>
</g>
<!-- σ_α_s -->
<g id="node4" class="node">
<title>σ_α_s</title>
<ellipse fill="none" stroke="black" cx="221.72" cy="-412.34" rx="57.97" ry="37.45"/>
<text text-anchor="middle" x="221.72" y="-423.64" font-family="Times,serif" font-size="14.00">σ_α_s</text>
<text text-anchor="middle" x="221.72" y="-408.64" font-family="Times,serif" font-size="14.00">~</text>
<text text-anchor="middle" x="221.72" y="-393.64" font-family="Times,serif" font-size="14.00">Exponential</text>
</g>
<!-- α_s -->
<g id="node8" class="node">
<title>α_s</title>
<ellipse fill="none" stroke="black" cx="104.72" cy="-301.38" rx="41.94" ry="37.45"/>
<text text-anchor="middle" x="104.72" y="-312.68" font-family="Times,serif" font-size="14.00">α_s</text>
<text text-anchor="middle" x="104.72" y="-297.68" font-family="Times,serif" font-size="14.00">~</text>
<text text-anchor="middle" x="104.72" y="-282.68" font-family="Times,serif" font-size="14.00">Normal</text>
</g>
<!-- σ_α_s&#45;&gt;α_s -->
<g id="edge6" class="edge">
<title>σ_α_s&#45;&gt;α_s</title>
<path fill="none" stroke="black" d="M189.13,-380.99C174.02,-366.92 156.02,-350.16 140.54,-335.74"/>
<polygon fill="black" stroke="black" points="142.86,-333.12 133.16,-328.87 138.09,-338.24 142.86,-333.12"/>
</g>
<!-- σ_β_c -->
<g id="node5" class="node">
<title>σ_β_c</title>
<ellipse fill="none" stroke="black" cx="457.72" cy="-412.34" rx="57.97" ry="37.45"/>
<text text-anchor="middle" x="457.72" y="-423.64" font-family="Times,serif" font-size="14.00">σ_β_c</text>
<text text-anchor="middle" x="457.72" y="-408.64" font-family="Times,serif" font-size="14.00">~</text>
<text text-anchor="middle" x="457.72" y="-393.64" font-family="Times,serif" font-size="14.00">Exponential</text>
</g>
<!-- σ_β_c&#45;&gt;β_c -->
<g id="edge4" class="edge">
<title>σ_β_c&#45;&gt;β_c</title>
<path fill="none" stroke="black" d="M425.16,-381.28C409.92,-367.2 391.71,-350.39 376.02,-335.9"/>
<polygon fill="black" stroke="black" points="378.27,-333.22 368.55,-329 373.52,-338.36 378.27,-333.22"/>
</g>
<!-- σ -->
<g id="node6" class="node">
<title>σ</title>
<ellipse fill="none" stroke="black" cx="341.72" cy="-187.43" rx="58.88" ry="37.45"/>
<text text-anchor="middle" x="341.72" y="-198.73" font-family="Times,serif" font-size="14.00">σ</text>
<text text-anchor="middle" x="341.72" y="-183.73" font-family="Times,serif" font-size="14.00">~</text>
<text text-anchor="middle" x="341.72" y="-168.73" font-family="Times,serif" font-size="14.00">HalfNormal</text>
</g>
<!-- y -->
<g id="node12" class="node">
<title>y</title>
<ellipse fill="lightgrey" stroke="black" cx="221.72" cy="-76.48" rx="41.94" ry="37.45"/>
<text text-anchor="middle" x="221.72" y="-87.78" font-family="Times,serif" font-size="14.00">y</text>
<text text-anchor="middle" x="221.72" y="-72.78" font-family="Times,serif" font-size="14.00">~</text>
<text text-anchor="middle" x="221.72" y="-57.78" font-family="Times,serif" font-size="14.00">Normal</text>
</g>
<!-- σ&#45;&gt;y -->
<g id="edge10" class="edge">
<title>σ&#45;&gt;y</title>
<path fill="none" stroke="black" d="M308.61,-156.37C292.99,-142.19 274.31,-125.22 258.27,-110.66"/>
<polygon fill="black" stroke="black" points="260.39,-107.86 250.64,-103.73 255.69,-113.05 260.39,-107.86"/>
</g>
<!-- μ_α_s -->
<g id="node9" class="node">
<title>μ_α_s</title>
<polygon fill="none" stroke="black" points="146.22,-438.84 55.22,-438.84 55.22,-385.84 146.22,-385.84 146.22,-438.84"/>
<text text-anchor="middle" x="100.72" y="-423.64" font-family="Times,serif" font-size="14.00">μ_α_s</text>
<text text-anchor="middle" x="100.72" y="-408.64" font-family="Times,serif" font-size="14.00">~</text>
<text text-anchor="middle" x="100.72" y="-393.64" font-family="Times,serif" font-size="14.00">Deterministic</text>
</g>
<!-- g_s&#45;&gt;μ_α_s -->
<g id="edge3" class="edge">
<title>g_s&#45;&gt;μ_α_s</title>
<path fill="none" stroke="black" d="M100.72,-488.63C100.72,-475.98 100.72,-461.82 100.72,-449.23"/>
<polygon fill="black" stroke="black" points="104.22,-449.09 100.72,-439.09 97.22,-449.09 104.22,-449.09"/>
</g>
<!-- μ -->
<g id="node11" class="node">
<title>μ</title>
<polygon fill="none" stroke="black" points="265.22,-213.93 174.22,-213.93 174.22,-160.93 265.22,-160.93 265.22,-213.93"/>
<text text-anchor="middle" x="219.72" y="-198.73" font-family="Times,serif" font-size="14.00">μ</text>
<text text-anchor="middle" x="219.72" y="-183.73" font-family="Times,serif" font-size="14.00">~</text>
<text text-anchor="middle" x="219.72" y="-168.73" font-family="Times,serif" font-size="14.00">Deterministic</text>
</g>
<!-- α_s&#45;&gt;μ -->
<g id="edge9" class="edge">
<title>α_s&#45;&gt;μ</title>
<path fill="none" stroke="black" d="M132.56,-273.28C148.58,-257.68 168.84,-237.96 185.79,-221.46"/>
<polygon fill="black" stroke="black" points="188.6,-223.61 193.32,-214.13 183.72,-218.6 188.6,-223.61"/>
</g>
<!-- μ_α_s&#45;&gt;α_s -->
<g id="edge7" class="edge">
<title>μ_α_s&#45;&gt;α_s</title>
<path fill="none" stroke="black" d="M101.66,-385.79C102.06,-374.88 102.54,-361.79 103,-349.25"/>
<polygon fill="black" stroke="black" points="106.51,-349.03 103.38,-338.91 99.51,-348.77 106.51,-349.03"/>
</g>
<!-- β_c&#45;&gt;μ -->
<g id="edge8" class="edge">
<title>β_c&#45;&gt;μ</title>
<path fill="none" stroke="black" d="M311.28,-273.85C294.3,-258.01 272.61,-237.77 254.6,-220.97"/>
<polygon fill="black" stroke="black" points="256.83,-218.26 247.13,-214 252.05,-223.38 256.83,-218.26"/>
</g>
<!-- μ&#45;&gt;y -->
<g id="edge11" class="edge">
<title>μ&#45;&gt;y</title>
<path fill="none" stroke="black" d="M220.19,-160.89C220.39,-149.98 220.63,-136.89 220.86,-124.35"/>
<polygon fill="black" stroke="black" points="224.36,-124.06 221.05,-114 217.37,-123.94 224.36,-124.06"/>
</g>
</g>
</svg>
