<?xml version="1.0" encoding="UTF-8" standalone="no"?>
<!DOCTYPE svg PUBLIC "-//W3C//DTD SVG 1.1//EN"
 "http://www.w3.org/Graphics/SVG/1.1/DTD/svg11.dtd">
<!-- Generated by graphviz version 2.42.3 (20191010.1750)
 -->
<!-- Title: %3 Pages: 1 -->
<svg width="698pt" height="683pt"
 viewBox="0.00 0.00 698.41 682.72" xmlns="http://www.w3.org/2000/svg" xmlns:xlink="http://www.w3.org/1999/xlink">
<g id="graph0" class="graph" transform="scale(1 1) rotate(0) translate(4 678.72)">
<title>%3</title>
<polygon fill="white" stroke="transparent" points="-4,4 -4,-678.72 694.41,-678.72 694.41,4 -4,4"/>
<g id="clust1" class="cluster">
<title>cluster26</title>
<path fill="none" stroke="black" d="M214.72,-457.81C214.72,-457.81 492.72,-457.81 492.72,-457.81 498.72,-457.81 504.72,-463.81 504.72,-469.81 504.72,-469.81 504.72,-559.77 504.72,-559.77 504.72,-565.77 498.72,-571.77 492.72,-571.77 492.72,-571.77 214.72,-571.77 214.72,-571.77 208.72,-571.77 202.72,-565.77 202.72,-559.77 202.72,-559.77 202.72,-469.81 202.72,-469.81 202.72,-463.81 208.72,-457.81 214.72,-457.81"/>
<text text-anchor="middle" x="489.72" y="-465.61" font-family="Times,serif" font-size="14.00">26</text>
</g>
<g id="clust2" class="cluster">
<title>cluster103</title>
<path fill="none" stroke="black" d="M284.72,-232.91C284.72,-232.91 368.72,-232.91 368.72,-232.91 374.72,-232.91 380.72,-238.91 380.72,-244.91 380.72,-244.91 380.72,-434.84 380.72,-434.84 380.72,-440.84 374.72,-446.84 368.72,-446.84 368.72,-446.84 284.72,-446.84 284.72,-446.84 278.72,-446.84 272.72,-440.84 272.72,-434.84 272.72,-434.84 272.72,-244.91 272.72,-244.91 272.72,-238.91 278.72,-232.91 284.72,-232.91"/>
<text text-anchor="middle" x="362.22" y="-240.71" font-family="Times,serif" font-size="14.00">103</text>
</g>
<g id="clust3" class="cluster">
<title>cluster60,049</title>
<path fill="none" stroke="black" d="M286.72,-8C286.72,-8 370.72,-8 370.72,-8 376.72,-8 382.72,-14 382.72,-20 382.72,-20 382.72,-209.93 382.72,-209.93 382.72,-215.93 376.72,-221.93 370.72,-221.93 370.72,-221.93 286.72,-221.93 286.72,-221.93 280.72,-221.93 274.72,-215.93 274.72,-209.93 274.72,-209.93 274.72,-20 274.72,-20 274.72,-14 280.72,-8 286.72,-8"/>
<text text-anchor="middle" x="355.72" y="-15.8" font-family="Times,serif" font-size="14.00">60,049</text>
</g>
<!-- μ_δ_g -->
<g id="node1" class="node">
<title>μ_δ_g</title>
<ellipse fill="none" stroke="black" cx="41.72" cy="-637.24" rx="41.94" ry="37.45"/>
<text text-anchor="middle" x="41.72" y="-648.54" font-family="Times,serif" font-size="14.00">μ_δ_g</text>
<text text-anchor="middle" x="41.72" y="-633.54" font-family="Times,serif" font-size="14.00">~</text>
<text text-anchor="middle" x="41.72" y="-618.54" font-family="Times,serif" font-size="14.00">Normal</text>
</g>
<!-- δ_g -->
<g id="node9" class="node">
<title>δ_g</title>
<ellipse fill="none" stroke="black" cx="252.72" cy="-526.29" rx="41.94" ry="37.45"/>
<text text-anchor="middle" x="252.72" y="-537.59" font-family="Times,serif" font-size="14.00">δ_g</text>
<text text-anchor="middle" x="252.72" y="-522.59" font-family="Times,serif" font-size="14.00">~</text>
<text text-anchor="middle" x="252.72" y="-507.59" font-family="Times,serif" font-size="14.00">Normal</text>
</g>
<!-- μ_δ_g&#45;&gt;δ_g -->
<g id="edge8" class="edge">
<title>μ_δ_g&#45;&gt;δ_g</title>
<path fill="none" stroke="black" d="M72.79,-612.06C78.91,-607.73 85.4,-603.44 91.72,-599.77 128.38,-578.45 172.44,-559.01 205.19,-545.64"/>
<polygon fill="black" stroke="black" points="206.58,-548.85 214.54,-541.86 203.95,-542.36 206.58,-548.85"/>
</g>
<!-- σ_g -->
<g id="node2" class="node">
<title>σ_g</title>
<ellipse fill="none" stroke="black" cx="294.72" cy="-637.24" rx="57.97" ry="37.45"/>
<text text-anchor="middle" x="294.72" y="-648.54" font-family="Times,serif" font-size="14.00">σ_g</text>
<text text-anchor="middle" x="294.72" y="-633.54" font-family="Times,serif" font-size="14.00">~</text>
<text text-anchor="middle" x="294.72" y="-618.54" font-family="Times,serif" font-size="14.00">Exponential</text>
</g>
<!-- g_s -->
<g id="node11" class="node">
<title>g_s</title>
<ellipse fill="none" stroke="black" cx="353.72" cy="-526.29" rx="41.94" ry="37.45"/>
<text text-anchor="middle" x="353.72" y="-537.59" font-family="Times,serif" font-size="14.00">g_s</text>
<text text-anchor="middle" x="353.72" y="-522.59" font-family="Times,serif" font-size="14.00">~</text>
<text text-anchor="middle" x="353.72" y="-507.59" font-family="Times,serif" font-size="14.00">Normal</text>
</g>
<!-- σ_g&#45;&gt;g_s -->
<g id="edge1" class="edge">
<title>σ_g&#45;&gt;g_s</title>
<path fill="none" stroke="black" d="M313.55,-601.47C319.08,-591.26 325.19,-579.98 330.94,-569.36"/>
<polygon fill="black" stroke="black" points="334.19,-570.71 335.87,-560.25 328.03,-567.38 334.19,-570.71"/>
</g>
<!-- μ_γ_g -->
<g id="node3" class="node">
<title>μ_γ_g</title>
<ellipse fill="none" stroke="black" cx="513.72" cy="-637.24" rx="41.94" ry="37.45"/>
<text text-anchor="middle" x="513.72" y="-648.54" font-family="Times,serif" font-size="14.00">μ_γ_g</text>
<text text-anchor="middle" x="513.72" y="-633.54" font-family="Times,serif" font-size="14.00">~</text>
<text text-anchor="middle" x="513.72" y="-618.54" font-family="Times,serif" font-size="14.00">Normal</text>
</g>
<!-- γ_g -->
<g id="node10" class="node">
<title>γ_g</title>
<ellipse fill="none" stroke="black" cx="454.72" cy="-526.29" rx="41.94" ry="37.45"/>
<text text-anchor="middle" x="454.72" y="-537.59" font-family="Times,serif" font-size="14.00">γ_g</text>
<text text-anchor="middle" x="454.72" y="-522.59" font-family="Times,serif" font-size="14.00">~</text>
<text text-anchor="middle" x="454.72" y="-507.59" font-family="Times,serif" font-size="14.00">Normal</text>
</g>
<!-- μ_γ_g&#45;&gt;γ_g -->
<g id="edge6" class="edge">
<title>μ_γ_g&#45;&gt;γ_g</title>
<path fill="none" stroke="black" d="M495.86,-603.26C490.08,-592.58 483.59,-580.6 477.5,-569.36"/>
<polygon fill="black" stroke="black" points="480.56,-567.67 472.72,-560.54 474.41,-571 480.56,-567.67"/>
</g>
<!-- σ_δ_g -->
<g id="node4" class="node">
<title>σ_δ_g</title>
<ellipse fill="none" stroke="black" cx="159.72" cy="-637.24" rx="58.88" ry="37.45"/>
<text text-anchor="middle" x="159.72" y="-648.54" font-family="Times,serif" font-size="14.00">σ_δ_g</text>
<text text-anchor="middle" x="159.72" y="-633.54" font-family="Times,serif" font-size="14.00">~</text>
<text text-anchor="middle" x="159.72" y="-618.54" font-family="Times,serif" font-size="14.00">HalfNormal</text>
</g>
<!-- σ_δ_g&#45;&gt;δ_g -->
<g id="edge9" class="edge">
<title>σ_δ_g&#45;&gt;δ_g</title>
<path fill="none" stroke="black" d="M187.37,-603.85C198.01,-591.38 210.24,-577.06 221.22,-564.2"/>
<polygon fill="black" stroke="black" points="224.04,-566.29 227.87,-556.41 218.71,-561.74 224.04,-566.29"/>
</g>
<!-- σ_γ_g -->
<g id="node5" class="node">
<title>σ_γ_g</title>
<ellipse fill="none" stroke="black" cx="631.72" cy="-637.24" rx="58.88" ry="37.45"/>
<text text-anchor="middle" x="631.72" y="-648.54" font-family="Times,serif" font-size="14.00">σ_γ_g</text>
<text text-anchor="middle" x="631.72" y="-633.54" font-family="Times,serif" font-size="14.00">~</text>
<text text-anchor="middle" x="631.72" y="-618.54" font-family="Times,serif" font-size="14.00">HalfNormal</text>
</g>
<!-- σ_γ_g&#45;&gt;γ_g -->
<g id="edge7" class="edge">
<title>σ_γ_g&#45;&gt;γ_g</title>
<path fill="none" stroke="black" d="M590.22,-610.7C562.38,-593.56 525.79,-571.04 497.65,-553.72"/>
<polygon fill="black" stroke="black" points="499.18,-550.55 488.83,-548.29 495.51,-556.51 499.18,-550.55"/>
</g>
<!-- σ_α_s -->
<g id="node6" class="node">
<title>σ_α_s</title>
<ellipse fill="none" stroke="black" cx="447.72" cy="-412.34" rx="57.97" ry="37.45"/>
<text text-anchor="middle" x="447.72" y="-423.64" font-family="Times,serif" font-size="14.00">σ_α_s</text>
<text text-anchor="middle" x="447.72" y="-408.64" font-family="Times,serif" font-size="14.00">~</text>
<text text-anchor="middle" x="447.72" y="-393.64" font-family="Times,serif" font-size="14.00">Exponential</text>
</g>
<!-- α_s -->
<g id="node12" class="node">
<title>α_s</title>
<ellipse fill="none" stroke="black" cx="328.72" cy="-301.38" rx="41.94" ry="37.45"/>
<text text-anchor="middle" x="328.72" y="-312.68" font-family="Times,serif" font-size="14.00">α_s</text>
<text text-anchor="middle" x="328.72" y="-297.68" font-family="Times,serif" font-size="14.00">~</text>
<text text-anchor="middle" x="328.72" y="-282.68" font-family="Times,serif" font-size="14.00">Normal</text>
</g>
<!-- σ_α_s&#45;&gt;α_s -->
<g id="edge4" class="edge">
<title>σ_α_s&#45;&gt;α_s</title>
<path fill="none" stroke="black" d="M414.89,-381.28C399.4,-367.09 380.87,-350.13 364.97,-335.57"/>
<polygon fill="black" stroke="black" points="367.14,-332.81 357.4,-328.64 362.41,-337.97 367.14,-332.81"/>
</g>
<!-- σ -->
<g id="node7" class="node">
<title>σ</title>
<ellipse fill="none" stroke="black" cx="450.72" cy="-187.43" rx="58.88" ry="37.45"/>
<text text-anchor="middle" x="450.72" y="-198.73" font-family="Times,serif" font-size="14.00">σ</text>
<text text-anchor="middle" x="450.72" y="-183.73" font-family="Times,serif" font-size="14.00">~</text>
<text text-anchor="middle" x="450.72" y="-168.73" font-family="Times,serif" font-size="14.00">HalfNormal</text>
</g>
<!-- y -->
<g id="node14" class="node">
<title>y</title>
<ellipse fill="lightgrey" stroke="black" cx="330.72" cy="-76.48" rx="41.94" ry="37.45"/>
<text text-anchor="middle" x="330.72" y="-87.78" font-family="Times,serif" font-size="14.00">y</text>
<text text-anchor="middle" x="330.72" y="-72.78" font-family="Times,serif" font-size="14.00">~</text>
<text text-anchor="middle" x="330.72" y="-57.78" font-family="Times,serif" font-size="14.00">Normal</text>
</g>
<!-- σ&#45;&gt;y -->
<g id="edge13" class="edge">
<title>σ&#45;&gt;y</title>
<path fill="none" stroke="black" d="M417.61,-156.37C401.99,-142.19 383.31,-125.22 367.27,-110.66"/>
<polygon fill="black" stroke="black" points="369.39,-107.86 359.64,-103.73 364.69,-113.05 369.39,-107.86"/>
</g>
<!-- μ_g -->
<g id="node8" class="node">
<title>μ_g</title>
<ellipse fill="none" stroke="black" cx="412.72" cy="-637.24" rx="41.94" ry="37.45"/>
<text text-anchor="middle" x="412.72" y="-648.54" font-family="Times,serif" font-size="14.00">μ_g</text>
<text text-anchor="middle" x="412.72" y="-633.54" font-family="Times,serif" font-size="14.00">~</text>
<text text-anchor="middle" x="412.72" y="-618.54" font-family="Times,serif" font-size="14.00">Normal</text>
</g>
<!-- μ_g&#45;&gt;g_s -->
<g id="edge2" class="edge">
<title>μ_g&#45;&gt;g_s</title>
<path fill="none" stroke="black" d="M394.86,-603.26C389.08,-592.58 382.59,-580.6 376.5,-569.36"/>
<polygon fill="black" stroke="black" points="379.56,-567.67 371.72,-560.54 373.41,-571 379.56,-567.67"/>
</g>
<!-- μ -->
<g id="node15" class="node">
<title>μ</title>
<polygon fill="none" stroke="black" points="374.22,-213.93 283.22,-213.93 283.22,-160.93 374.22,-160.93 374.22,-213.93"/>
<text text-anchor="middle" x="328.72" y="-198.73" font-family="Times,serif" font-size="14.00">μ</text>
<text text-anchor="middle" x="328.72" y="-183.73" font-family="Times,serif" font-size="14.00">~</text>
<text text-anchor="middle" x="328.72" y="-168.73" font-family="Times,serif" font-size="14.00">Deterministic</text>
</g>
<!-- δ_g&#45;&gt;μ -->
<g id="edge10" class="edge">
<title>δ_g&#45;&gt;μ</title>
<path fill="none" stroke="black" d="M245.36,-488.93C235.58,-430.91 224.26,-315.5 268.72,-232.91 270.92,-228.81 273.68,-225 276.81,-221.45"/>
<polygon fill="black" stroke="black" points="279.53,-223.69 284.14,-214.15 274.58,-218.73 279.53,-223.69"/>
</g>
<!-- γ_g&#45;&gt;μ -->
<g id="edge12" class="edge">
<title>γ_g&#45;&gt;μ</title>
<path fill="none" stroke="black" d="M483.18,-498.71C495.4,-485.36 508.32,-468.15 514.72,-449.81 525.7,-418.36 526.79,-405.91 514.72,-374.86 483.72,-295.12 447.3,-291.24 384.72,-232.91 380.19,-228.68 375.3,-224.42 370.36,-220.29"/>
<polygon fill="black" stroke="black" points="372.56,-217.56 362.61,-213.93 368.12,-222.98 372.56,-217.56"/>
</g>
<!-- μ_α_s -->
<g id="node13" class="node">
<title>μ_α_s</title>
<polygon fill="none" stroke="black" points="372.22,-438.84 281.22,-438.84 281.22,-385.84 372.22,-385.84 372.22,-438.84"/>
<text text-anchor="middle" x="326.72" y="-423.64" font-family="Times,serif" font-size="14.00">μ_α_s</text>
<text text-anchor="middle" x="326.72" y="-408.64" font-family="Times,serif" font-size="14.00">~</text>
<text text-anchor="middle" x="326.72" y="-393.64" font-family="Times,serif" font-size="14.00">Deterministic</text>
</g>
<!-- g_s&#45;&gt;μ_α_s -->
<g id="edge3" class="edge">
<title>g_s&#45;&gt;μ_α_s</title>
<path fill="none" stroke="black" d="M345.1,-489.56C341.98,-476.63 338.47,-462.04 335.35,-449.11"/>
<polygon fill="black" stroke="black" points="338.69,-448.06 332.95,-439.16 331.89,-449.7 338.69,-448.06"/>
</g>
<!-- α_s&#45;&gt;μ -->
<g id="edge11" class="edge">
<title>α_s&#45;&gt;μ</title>
<path fill="none" stroke="black" d="M328.72,-263.73C328.72,-251.07 328.72,-236.92 328.72,-224.32"/>
<polygon fill="black" stroke="black" points="332.22,-224.18 328.72,-214.18 325.22,-224.18 332.22,-224.18"/>
</g>
<!-- μ_α_s&#45;&gt;α_s -->
<g id="edge5" class="edge">
<title>μ_α_s&#45;&gt;α_s</title>
<path fill="none" stroke="black" d="M327.19,-385.79C327.39,-374.88 327.63,-361.79 327.86,-349.25"/>
<polygon fill="black" stroke="black" points="331.36,-348.97 328.05,-338.91 324.37,-348.84 331.36,-348.97"/>
</g>
<!-- μ&#45;&gt;y -->
<g id="edge14" class="edge">
<title>μ&#45;&gt;y</title>
<path fill="none" stroke="black" d="M329.19,-160.89C329.39,-149.98 329.63,-136.89 329.86,-124.35"/>
<polygon fill="black" stroke="black" points="333.36,-124.06 330.05,-114 326.37,-123.94 333.36,-124.06"/>
</g>
</g>
</svg>
