<?xml version="1.0" encoding="UTF-8" standalone="no"?>
<!DOCTYPE svg PUBLIC "-//W3C//DTD SVG 1.1//EN"
 "http://www.w3.org/Graphics/SVG/1.1/DTD/svg11.dtd">
<!-- Generated by graphviz version 2.42.3 (20191010.1750)
 -->
<!-- Title: %3 Pages: 1 -->
<svg width="462pt" height="683pt"
 viewBox="0.00 0.00 462.44 682.72" xmlns="http://www.w3.org/2000/svg" xmlns:xlink="http://www.w3.org/1999/xlink">
<g id="graph0" class="graph" transform="scale(1 1) rotate(0) translate(4 678.72)">
<title>%3</title>
<polygon fill="white" stroke="transparent" points="-4,4 -4,-678.72 458.44,-678.72 458.44,4 -4,4"/>
<g id="clust1" class="cluster">
<title>cluster26</title>
<path fill="none" stroke="black" d="M138.72,-457.81C138.72,-457.81 315.72,-457.81 315.72,-457.81 321.72,-457.81 327.72,-463.81 327.72,-469.81 327.72,-469.81 327.72,-559.77 327.72,-559.77 327.72,-565.77 321.72,-571.77 315.72,-571.77 315.72,-571.77 138.72,-571.77 138.72,-571.77 132.72,-571.77 126.72,-565.77 126.72,-559.77 126.72,-559.77 126.72,-469.81 126.72,-469.81 126.72,-463.81 132.72,-457.81 138.72,-457.81"/>
<text text-anchor="middle" x="312.72" y="-465.61" font-family="Times,serif" font-size="14.00">26</text>
</g>
<g id="clust2" class="cluster">
<title>cluster103</title>
<path fill="none" stroke="black" d="M81.72,-232.91C81.72,-232.91 165.72,-232.91 165.72,-232.91 171.72,-232.91 177.72,-238.91 177.72,-244.91 177.72,-244.91 177.72,-434.84 177.72,-434.84 177.72,-440.84 171.72,-446.84 165.72,-446.84 165.72,-446.84 81.72,-446.84 81.72,-446.84 75.72,-446.84 69.72,-440.84 69.72,-434.84 69.72,-434.84 69.72,-244.91 69.72,-244.91 69.72,-238.91 75.72,-232.91 81.72,-232.91"/>
<text text-anchor="middle" x="159.22" y="-240.71" font-family="Times,serif" font-size="14.00">103</text>
</g>
<g id="clust3" class="cluster">
<title>cluster60,049</title>
<path fill="none" stroke="black" d="M131.72,-8C131.72,-8 215.72,-8 215.72,-8 221.72,-8 227.72,-14 227.72,-20 227.72,-20 227.72,-209.93 227.72,-209.93 227.72,-215.93 221.72,-221.93 215.72,-221.93 215.72,-221.93 131.72,-221.93 131.72,-221.93 125.72,-221.93 119.72,-215.93 119.72,-209.93 119.72,-209.93 119.72,-20 119.72,-20 119.72,-14 125.72,-8 131.72,-8"/>
<text text-anchor="middle" x="200.72" y="-15.8" font-family="Times,serif" font-size="14.00">60,049</text>
</g>
<!-- σ_γ_g -->
<g id="node1" class="node">
<title>σ_γ_g</title>
<ellipse fill="none" stroke="black" cx="294.72" cy="-637.24" rx="58.88" ry="37.45"/>
<text text-anchor="middle" x="294.72" y="-648.54" font-family="Times,serif" font-size="14.00">σ_γ_g</text>
<text text-anchor="middle" x="294.72" y="-633.54" font-family="Times,serif" font-size="14.00">~</text>
<text text-anchor="middle" x="294.72" y="-618.54" font-family="Times,serif" font-size="14.00">HalfNormal</text>
</g>
<!-- γ_g -->
<g id="node7" class="node">
<title>γ_g</title>
<ellipse fill="none" stroke="black" cx="277.72" cy="-526.29" rx="41.94" ry="37.45"/>
<text text-anchor="middle" x="277.72" y="-537.59" font-family="Times,serif" font-size="14.00">γ_g</text>
<text text-anchor="middle" x="277.72" y="-522.59" font-family="Times,serif" font-size="14.00">~</text>
<text text-anchor="middle" x="277.72" y="-507.59" font-family="Times,serif" font-size="14.00">Normal</text>
</g>
<!-- σ_γ_g&#45;&gt;γ_g -->
<g id="edge7" class="edge">
<title>σ_γ_g&#45;&gt;γ_g</title>
<path fill="none" stroke="black" d="M289.01,-599.66C287.71,-591.31 286.31,-582.32 284.95,-573.62"/>
<polygon fill="black" stroke="black" points="288.38,-572.93 283.38,-563.59 281.47,-574.01 288.38,-572.93"/>
</g>
<!-- μ_g -->
<g id="node2" class="node">
<title>μ_g</title>
<ellipse fill="none" stroke="black" cx="41.72" cy="-637.24" rx="41.94" ry="37.45"/>
<text text-anchor="middle" x="41.72" y="-648.54" font-family="Times,serif" font-size="14.00">μ_g</text>
<text text-anchor="middle" x="41.72" y="-633.54" font-family="Times,serif" font-size="14.00">~</text>
<text text-anchor="middle" x="41.72" y="-618.54" font-family="Times,serif" font-size="14.00">Normal</text>
</g>
<!-- g_s -->
<g id="node8" class="node">
<title>g_s</title>
<ellipse fill="none" stroke="black" cx="176.72" cy="-526.29" rx="41.94" ry="37.45"/>
<text text-anchor="middle" x="176.72" y="-537.59" font-family="Times,serif" font-size="14.00">g_s</text>
<text text-anchor="middle" x="176.72" y="-522.59" font-family="Times,serif" font-size="14.00">~</text>
<text text-anchor="middle" x="176.72" y="-507.59" font-family="Times,serif" font-size="14.00">Normal</text>
</g>
<!-- μ_g&#45;&gt;g_s -->
<g id="edge2" class="edge">
<title>μ_g&#45;&gt;g_s</title>
<path fill="none" stroke="black" d="M72.35,-611.52C91.86,-595.78 117.29,-575.26 138.16,-558.41"/>
<polygon fill="black" stroke="black" points="140.62,-560.92 146.21,-551.92 136.23,-555.47 140.62,-560.92"/>
</g>
<!-- σ -->
<g id="node3" class="node">
<title>σ</title>
<ellipse fill="none" stroke="black" cx="295.72" cy="-187.43" rx="58.88" ry="37.45"/>
<text text-anchor="middle" x="295.72" y="-198.73" font-family="Times,serif" font-size="14.00">σ</text>
<text text-anchor="middle" x="295.72" y="-183.73" font-family="Times,serif" font-size="14.00">~</text>
<text text-anchor="middle" x="295.72" y="-168.73" font-family="Times,serif" font-size="14.00">HalfNormal</text>
</g>
<!-- y -->
<g id="node12" class="node">
<title>y</title>
<ellipse fill="lightgrey" stroke="black" cx="175.72" cy="-76.48" rx="41.94" ry="37.45"/>
<text text-anchor="middle" x="175.72" y="-87.78" font-family="Times,serif" font-size="14.00">y</text>
<text text-anchor="middle" x="175.72" y="-72.78" font-family="Times,serif" font-size="14.00">~</text>
<text text-anchor="middle" x="175.72" y="-57.78" font-family="Times,serif" font-size="14.00">Normal</text>
</g>
<!-- σ&#45;&gt;y -->
<g id="edge11" class="edge">
<title>σ&#45;&gt;y</title>
<path fill="none" stroke="black" d="M262.61,-156.37C246.99,-142.19 228.31,-125.22 212.27,-110.66"/>
<polygon fill="black" stroke="black" points="214.39,-107.86 204.64,-103.73 209.69,-113.05 214.39,-107.86"/>
</g>
<!-- σ_g -->
<g id="node4" class="node">
<title>σ_g</title>
<ellipse fill="none" stroke="black" cx="159.72" cy="-637.24" rx="57.97" ry="37.45"/>
<text text-anchor="middle" x="159.72" y="-648.54" font-family="Times,serif" font-size="14.00">σ_g</text>
<text text-anchor="middle" x="159.72" y="-633.54" font-family="Times,serif" font-size="14.00">~</text>
<text text-anchor="middle" x="159.72" y="-618.54" font-family="Times,serif" font-size="14.00">Exponential</text>
</g>
<!-- σ_g&#45;&gt;g_s -->
<g id="edge1" class="edge">
<title>σ_g&#45;&gt;g_s</title>
<path fill="none" stroke="black" d="M165.43,-599.66C166.73,-591.31 168.13,-582.32 169.49,-573.62"/>
<polygon fill="black" stroke="black" points="172.97,-574.01 171.06,-563.59 166.06,-572.93 172.97,-574.01"/>
</g>
<!-- μ_γ_g -->
<g id="node5" class="node">
<title>μ_γ_g</title>
<ellipse fill="none" stroke="black" cx="412.72" cy="-637.24" rx="41.94" ry="37.45"/>
<text text-anchor="middle" x="412.72" y="-648.54" font-family="Times,serif" font-size="14.00">μ_γ_g</text>
<text text-anchor="middle" x="412.72" y="-633.54" font-family="Times,serif" font-size="14.00">~</text>
<text text-anchor="middle" x="412.72" y="-618.54" font-family="Times,serif" font-size="14.00">Normal</text>
</g>
<!-- μ_γ_g&#45;&gt;γ_g -->
<g id="edge6" class="edge">
<title>μ_γ_g&#45;&gt;γ_g</title>
<path fill="none" stroke="black" d="M382.09,-611.52C362.58,-595.78 337.15,-575.26 316.28,-558.41"/>
<polygon fill="black" stroke="black" points="318.21,-555.47 308.23,-551.92 313.82,-560.92 318.21,-555.47"/>
</g>
<!-- σ_α_s -->
<g id="node6" class="node">
<title>σ_α_s</title>
<ellipse fill="none" stroke="black" cx="244.72" cy="-412.34" rx="57.97" ry="37.45"/>
<text text-anchor="middle" x="244.72" y="-423.64" font-family="Times,serif" font-size="14.00">σ_α_s</text>
<text text-anchor="middle" x="244.72" y="-408.64" font-family="Times,serif" font-size="14.00">~</text>
<text text-anchor="middle" x="244.72" y="-393.64" font-family="Times,serif" font-size="14.00">Exponential</text>
</g>
<!-- α_s -->
<g id="node9" class="node">
<title>α_s</title>
<ellipse fill="none" stroke="black" cx="127.72" cy="-301.38" rx="41.94" ry="37.45"/>
<text text-anchor="middle" x="127.72" y="-312.68" font-family="Times,serif" font-size="14.00">α_s</text>
<text text-anchor="middle" x="127.72" y="-297.68" font-family="Times,serif" font-size="14.00">~</text>
<text text-anchor="middle" x="127.72" y="-282.68" font-family="Times,serif" font-size="14.00">Normal</text>
</g>
<!-- σ_α_s&#45;&gt;α_s -->
<g id="edge4" class="edge">
<title>σ_α_s&#45;&gt;α_s</title>
<path fill="none" stroke="black" d="M212.13,-380.99C197.02,-366.92 179.02,-350.16 163.54,-335.74"/>
<polygon fill="black" stroke="black" points="165.86,-333.12 156.16,-328.87 161.09,-338.24 165.86,-333.12"/>
</g>
<!-- μ -->
<g id="node11" class="node">
<title>μ</title>
<polygon fill="none" stroke="black" points="219.22,-213.93 128.22,-213.93 128.22,-160.93 219.22,-160.93 219.22,-213.93"/>
<text text-anchor="middle" x="173.72" y="-198.73" font-family="Times,serif" font-size="14.00">μ</text>
<text text-anchor="middle" x="173.72" y="-183.73" font-family="Times,serif" font-size="14.00">~</text>
<text text-anchor="middle" x="173.72" y="-168.73" font-family="Times,serif" font-size="14.00">Deterministic</text>
</g>
<!-- γ_g&#45;&gt;μ -->
<g id="edge9" class="edge">
<title>γ_g&#45;&gt;μ</title>
<path fill="none" stroke="black" d="M296.12,-492.52C302.38,-479.62 308.58,-464.43 311.72,-449.81 318.72,-417.24 322.15,-406.5 311.72,-374.86 291.49,-313.53 242.45,-255.88 208.63,-221.36"/>
<polygon fill="black" stroke="black" points="210.78,-218.56 201.24,-213.94 205.82,-223.49 210.78,-218.56"/>
</g>
<!-- μ_α_s -->
<g id="node10" class="node">
<title>μ_α_s</title>
<polygon fill="none" stroke="black" points="169.22,-438.84 78.22,-438.84 78.22,-385.84 169.22,-385.84 169.22,-438.84"/>
<text text-anchor="middle" x="123.72" y="-423.64" font-family="Times,serif" font-size="14.00">μ_α_s</text>
<text text-anchor="middle" x="123.72" y="-408.64" font-family="Times,serif" font-size="14.00">~</text>
<text text-anchor="middle" x="123.72" y="-393.64" font-family="Times,serif" font-size="14.00">Deterministic</text>
</g>
<!-- g_s&#45;&gt;μ_α_s -->
<g id="edge3" class="edge">
<title>g_s&#45;&gt;μ_α_s</title>
<path fill="none" stroke="black" d="M160.67,-491.4C154.19,-477.7 146.71,-461.89 140.18,-448.11"/>
<polygon fill="black" stroke="black" points="143.28,-446.48 135.84,-438.93 136.95,-449.47 143.28,-446.48"/>
</g>
<!-- α_s&#45;&gt;μ -->
<g id="edge8" class="edge">
<title>α_s&#45;&gt;μ</title>
<path fill="none" stroke="black" d="M141.9,-265.88C147.42,-252.44 153.74,-237.05 159.29,-223.55"/>
<polygon fill="black" stroke="black" points="162.61,-224.69 163.17,-214.11 156.13,-222.03 162.61,-224.69"/>
</g>
<!-- μ_α_s&#45;&gt;α_s -->
<g id="edge5" class="edge">
<title>μ_α_s&#45;&gt;α_s</title>
<path fill="none" stroke="black" d="M124.66,-385.79C125.06,-374.88 125.54,-361.79 126,-349.25"/>
<polygon fill="black" stroke="black" points="129.51,-349.03 126.38,-338.91 122.51,-348.77 129.51,-349.03"/>
</g>
<!-- μ&#45;&gt;y -->
<g id="edge10" class="edge">
<title>μ&#45;&gt;y</title>
<path fill="none" stroke="black" d="M174.19,-160.89C174.39,-149.98 174.63,-136.89 174.86,-124.35"/>
<polygon fill="black" stroke="black" points="178.36,-124.06 175.05,-114 171.37,-123.94 178.36,-124.06"/>
</g>
</g>
</svg>
