<?xml version="1.0" encoding="UTF-8" standalone="no"?>
<!DOCTYPE svg PUBLIC "-//W3C//DTD SVG 1.1//EN"
 "http://www.w3.org/Graphics/SVG/1.1/DTD/svg11.dtd">
<!-- Generated by graphviz version 2.42.3 (20191010.1750)
 -->
<!-- Title: %3 Pages: 1 -->
<svg width="471pt" height="683pt"
 viewBox="0.00 0.00 470.97 682.72" xmlns="http://www.w3.org/2000/svg" xmlns:xlink="http://www.w3.org/1999/xlink">
<g id="graph0" class="graph" transform="scale(1 1) rotate(0) translate(4 678.72)">
<title>%3</title>
<polygon fill="white" stroke="transparent" points="-4,4 -4,-678.72 466.97,-678.72 466.97,4 -4,4"/>
<g id="clust1" class="cluster">
<title>cluster26</title>
<path fill="none" stroke="black" d="M245.98,-457.81C245.98,-457.81 321.98,-457.81 321.98,-457.81 327.98,-457.81 333.98,-463.81 333.98,-469.81 333.98,-469.81 333.98,-559.77 333.98,-559.77 333.98,-565.77 327.98,-571.77 321.98,-571.77 321.98,-571.77 245.98,-571.77 245.98,-571.77 239.98,-571.77 233.98,-565.77 233.98,-559.77 233.98,-559.77 233.98,-469.81 233.98,-469.81 233.98,-463.81 239.98,-457.81 245.98,-457.81"/>
<text text-anchor="middle" x="318.98" y="-465.61" font-family="Times,serif" font-size="14.00">26</text>
</g>
<g id="clust2" class="cluster">
<title>cluster103</title>
<path fill="none" stroke="black" d="M241.98,-232.91C241.98,-232.91 325.98,-232.91 325.98,-232.91 331.98,-232.91 337.98,-238.91 337.98,-244.91 337.98,-244.91 337.98,-434.84 337.98,-434.84 337.98,-440.84 331.98,-446.84 325.98,-446.84 325.98,-446.84 241.98,-446.84 241.98,-446.84 235.98,-446.84 229.98,-440.84 229.98,-434.84 229.98,-434.84 229.98,-244.91 229.98,-244.91 229.98,-238.91 235.98,-232.91 241.98,-232.91"/>
<text text-anchor="middle" x="319.48" y="-240.71" font-family="Times,serif" font-size="14.00">103</text>
</g>
<g id="clust3" class="cluster">
<title>cluster258</title>
<path fill="none" stroke="black" d="M133.98,-232.91C133.98,-232.91 209.98,-232.91 209.98,-232.91 215.98,-232.91 221.98,-238.91 221.98,-244.91 221.98,-244.91 221.98,-334.86 221.98,-334.86 221.98,-340.86 215.98,-346.86 209.98,-346.86 209.98,-346.86 133.98,-346.86 133.98,-346.86 127.98,-346.86 121.98,-340.86 121.98,-334.86 121.98,-334.86 121.98,-244.91 121.98,-244.91 121.98,-238.91 127.98,-232.91 133.98,-232.91"/>
<text text-anchor="middle" x="203.48" y="-240.71" font-family="Times,serif" font-size="14.00">258</text>
</g>
<g id="clust4" class="cluster">
<title>cluster60,049</title>
<path fill="none" stroke="black" d="M186.98,-8C186.98,-8 270.98,-8 270.98,-8 276.98,-8 282.98,-14 282.98,-20 282.98,-20 282.98,-209.93 282.98,-209.93 282.98,-215.93 276.98,-221.93 270.98,-221.93 270.98,-221.93 186.98,-221.93 186.98,-221.93 180.98,-221.93 174.98,-215.93 174.98,-209.93 174.98,-209.93 174.98,-20 174.98,-20 174.98,-14 180.98,-8 186.98,-8"/>
<text text-anchor="middle" x="255.98" y="-15.8" font-family="Times,serif" font-size="14.00">60,049</text>
</g>
<!-- σ_β_c -->
<g id="node1" class="node">
<title>σ_β_c</title>
<ellipse fill="none" stroke="black" cx="57.98" cy="-412.34" rx="57.97" ry="37.45"/>
<text text-anchor="middle" x="57.98" y="-423.64" font-family="Times,serif" font-size="14.00">σ_β_c</text>
<text text-anchor="middle" x="57.98" y="-408.64" font-family="Times,serif" font-size="14.00">~</text>
<text text-anchor="middle" x="57.98" y="-393.64" font-family="Times,serif" font-size="14.00">Exponential</text>
</g>
<!-- β_c -->
<g id="node10" class="node">
<title>β_c</title>
<ellipse fill="none" stroke="black" cx="171.98" cy="-301.38" rx="41.94" ry="37.45"/>
<text text-anchor="middle" x="171.98" y="-312.68" font-family="Times,serif" font-size="14.00">β_c</text>
<text text-anchor="middle" x="171.98" y="-297.68" font-family="Times,serif" font-size="14.00">~</text>
<text text-anchor="middle" x="171.98" y="-282.68" font-family="Times,serif" font-size="14.00">Normal</text>
</g>
<!-- σ_β_c&#45;&gt;β_c -->
<g id="edge4" class="edge">
<title>σ_β_c&#45;&gt;β_c</title>
<path fill="none" stroke="black" d="M90.04,-380.7C104.4,-366.98 121.38,-350.74 136.16,-336.62"/>
<polygon fill="black" stroke="black" points="138.85,-338.9 143.66,-329.46 134.01,-333.83 138.85,-338.9"/>
</g>
<!-- μ_g -->
<g id="node2" class="node">
<title>μ_g</title>
<ellipse fill="none" stroke="black" cx="224.98" cy="-637.24" rx="41.94" ry="37.45"/>
<text text-anchor="middle" x="224.98" y="-648.54" font-family="Times,serif" font-size="14.00">μ_g</text>
<text text-anchor="middle" x="224.98" y="-633.54" font-family="Times,serif" font-size="14.00">~</text>
<text text-anchor="middle" x="224.98" y="-618.54" font-family="Times,serif" font-size="14.00">Normal</text>
</g>
<!-- g_s -->
<g id="node7" class="node">
<title>g_s</title>
<ellipse fill="none" stroke="black" cx="283.98" cy="-526.29" rx="41.94" ry="37.45"/>
<text text-anchor="middle" x="283.98" y="-537.59" font-family="Times,serif" font-size="14.00">g_s</text>
<text text-anchor="middle" x="283.98" y="-522.59" font-family="Times,serif" font-size="14.00">~</text>
<text text-anchor="middle" x="283.98" y="-507.59" font-family="Times,serif" font-size="14.00">Normal</text>
</g>
<!-- μ_g&#45;&gt;g_s -->
<g id="edge1" class="edge">
<title>μ_g&#45;&gt;g_s</title>
<path fill="none" stroke="black" d="M242.84,-603.26C248.63,-592.58 255.12,-580.6 261.2,-569.36"/>
<polygon fill="black" stroke="black" points="264.29,-571 265.98,-560.54 258.14,-567.67 264.29,-571"/>
</g>
<!-- μ_β_c -->
<g id="node3" class="node">
<title>μ_β_c</title>
<ellipse fill="none" stroke="black" cx="175.98" cy="-412.34" rx="41.94" ry="37.45"/>
<text text-anchor="middle" x="175.98" y="-423.64" font-family="Times,serif" font-size="14.00">μ_β_c</text>
<text text-anchor="middle" x="175.98" y="-408.64" font-family="Times,serif" font-size="14.00">~</text>
<text text-anchor="middle" x="175.98" y="-393.64" font-family="Times,serif" font-size="14.00">Normal</text>
</g>
<!-- μ_β_c&#45;&gt;β_c -->
<g id="edge5" class="edge">
<title>μ_β_c&#45;&gt;β_c</title>
<path fill="none" stroke="black" d="M174.64,-374.75C174.34,-366.58 174.02,-357.8 173.7,-349.27"/>
<polygon fill="black" stroke="black" points="177.19,-348.92 173.33,-339.06 170.2,-349.18 177.19,-348.92"/>
</g>
<!-- σ -->
<g id="node4" class="node">
<title>σ</title>
<ellipse fill="none" stroke="black" cx="350.98" cy="-187.43" rx="58.88" ry="37.45"/>
<text text-anchor="middle" x="350.98" y="-198.73" font-family="Times,serif" font-size="14.00">σ</text>
<text text-anchor="middle" x="350.98" y="-183.73" font-family="Times,serif" font-size="14.00">~</text>
<text text-anchor="middle" x="350.98" y="-168.73" font-family="Times,serif" font-size="14.00">HalfNormal</text>
</g>
<!-- y -->
<g id="node12" class="node">
<title>y</title>
<ellipse fill="lightgrey" stroke="black" cx="230.98" cy="-76.48" rx="41.94" ry="37.45"/>
<text text-anchor="middle" x="230.98" y="-87.78" font-family="Times,serif" font-size="14.00">y</text>
<text text-anchor="middle" x="230.98" y="-72.78" font-family="Times,serif" font-size="14.00">~</text>
<text text-anchor="middle" x="230.98" y="-57.78" font-family="Times,serif" font-size="14.00">Normal</text>
</g>
<!-- σ&#45;&gt;y -->
<g id="edge11" class="edge">
<title>σ&#45;&gt;y</title>
<path fill="none" stroke="black" d="M317.87,-156.37C302.25,-142.19 283.57,-125.22 267.53,-110.66"/>
<polygon fill="black" stroke="black" points="269.66,-107.86 259.9,-103.73 264.95,-113.05 269.66,-107.86"/>
</g>
<!-- σ_g -->
<g id="node5" class="node">
<title>σ_g</title>
<ellipse fill="none" stroke="black" cx="342.98" cy="-637.24" rx="57.97" ry="37.45"/>
<text text-anchor="middle" x="342.98" y="-648.54" font-family="Times,serif" font-size="14.00">σ_g</text>
<text text-anchor="middle" x="342.98" y="-633.54" font-family="Times,serif" font-size="14.00">~</text>
<text text-anchor="middle" x="342.98" y="-618.54" font-family="Times,serif" font-size="14.00">Exponential</text>
</g>
<!-- σ_g&#45;&gt;g_s -->
<g id="edge2" class="edge">
<title>σ_g&#45;&gt;g_s</title>
<path fill="none" stroke="black" d="M324.15,-601.47C318.62,-591.26 312.52,-579.98 306.77,-569.36"/>
<polygon fill="black" stroke="black" points="309.67,-567.38 301.83,-560.25 303.52,-570.71 309.67,-567.38"/>
</g>
<!-- σ_α_s -->
<g id="node6" class="node">
<title>σ_α_s</title>
<ellipse fill="none" stroke="black" cx="404.98" cy="-412.34" rx="57.97" ry="37.45"/>
<text text-anchor="middle" x="404.98" y="-423.64" font-family="Times,serif" font-size="14.00">σ_α_s</text>
<text text-anchor="middle" x="404.98" y="-408.64" font-family="Times,serif" font-size="14.00">~</text>
<text text-anchor="middle" x="404.98" y="-393.64" font-family="Times,serif" font-size="14.00">Exponential</text>
</g>
<!-- α_s -->
<g id="node8" class="node">
<title>α_s</title>
<ellipse fill="none" stroke="black" cx="283.98" cy="-301.38" rx="41.94" ry="37.45"/>
<text text-anchor="middle" x="283.98" y="-312.68" font-family="Times,serif" font-size="14.00">α_s</text>
<text text-anchor="middle" x="283.98" y="-297.68" font-family="Times,serif" font-size="14.00">~</text>
<text text-anchor="middle" x="283.98" y="-282.68" font-family="Times,serif" font-size="14.00">Normal</text>
</g>
<!-- σ_α_s&#45;&gt;α_s -->
<g id="edge6" class="edge">
<title>σ_α_s&#45;&gt;α_s</title>
<path fill="none" stroke="black" d="M371.6,-381.28C355.85,-367.09 337.01,-350.13 320.84,-335.57"/>
<polygon fill="black" stroke="black" points="322.92,-332.73 313.14,-328.64 318.23,-337.93 322.92,-332.73"/>
</g>
<!-- μ_α_s -->
<g id="node9" class="node">
<title>μ_α_s</title>
<polygon fill="none" stroke="black" points="329.48,-438.84 238.48,-438.84 238.48,-385.84 329.48,-385.84 329.48,-438.84"/>
<text text-anchor="middle" x="283.98" y="-423.64" font-family="Times,serif" font-size="14.00">μ_α_s</text>
<text text-anchor="middle" x="283.98" y="-408.64" font-family="Times,serif" font-size="14.00">~</text>
<text text-anchor="middle" x="283.98" y="-393.64" font-family="Times,serif" font-size="14.00">Deterministic</text>
</g>
<!-- g_s&#45;&gt;μ_α_s -->
<g id="edge3" class="edge">
<title>g_s&#45;&gt;μ_α_s</title>
<path fill="none" stroke="black" d="M283.98,-488.63C283.98,-475.98 283.98,-461.82 283.98,-449.23"/>
<polygon fill="black" stroke="black" points="287.48,-449.09 283.98,-439.09 280.48,-449.09 287.48,-449.09"/>
</g>
<!-- μ -->
<g id="node11" class="node">
<title>μ</title>
<polygon fill="none" stroke="black" points="274.48,-213.93 183.48,-213.93 183.48,-160.93 274.48,-160.93 274.48,-213.93"/>
<text text-anchor="middle" x="228.98" y="-198.73" font-family="Times,serif" font-size="14.00">μ</text>
<text text-anchor="middle" x="228.98" y="-183.73" font-family="Times,serif" font-size="14.00">~</text>
<text text-anchor="middle" x="228.98" y="-168.73" font-family="Times,serif" font-size="14.00">Deterministic</text>
</g>
<!-- α_s&#45;&gt;μ -->
<g id="edge8" class="edge">
<title>α_s&#45;&gt;μ</title>
<path fill="none" stroke="black" d="M267.48,-266.79C260.75,-253.08 252.96,-237.23 246.15,-223.38"/>
<polygon fill="black" stroke="black" points="249.18,-221.6 241.63,-214.16 242.89,-224.68 249.18,-221.6"/>
</g>
<!-- μ_α_s&#45;&gt;α_s -->
<g id="edge7" class="edge">
<title>μ_α_s&#45;&gt;α_s</title>
<path fill="none" stroke="black" d="M283.98,-385.79C283.98,-374.88 283.98,-361.79 283.98,-349.25"/>
<polygon fill="black" stroke="black" points="287.48,-348.91 283.98,-338.91 280.48,-348.91 287.48,-348.91"/>
</g>
<!-- β_c&#45;&gt;μ -->
<g id="edge9" class="edge">
<title>β_c&#45;&gt;μ</title>
<path fill="none" stroke="black" d="M188.93,-267.1C195.97,-253.27 204.14,-237.22 211.26,-223.24"/>
<polygon fill="black" stroke="black" points="214.57,-224.44 215.99,-213.94 208.34,-221.27 214.57,-224.44"/>
</g>
<!-- μ&#45;&gt;y -->
<g id="edge10" class="edge">
<title>μ&#45;&gt;y</title>
<path fill="none" stroke="black" d="M229.45,-160.89C229.65,-149.98 229.89,-136.89 230.12,-124.35"/>
<polygon fill="black" stroke="black" points="233.63,-124.06 230.31,-114 226.63,-123.94 233.63,-124.06"/>
</g>
</g>
</svg>
