<?xml version="1.0" encoding="UTF-8" standalone="no"?>
<!DOCTYPE svg PUBLIC "-//W3C//DTD SVG 1.1//EN"
 "http://www.w3.org/Graphics/SVG/1.1/DTD/svg11.dtd">
<!-- Generated by graphviz version 2.42.3 (20191010.1750)
 -->
<!-- Title: %3 Pages: 1 -->
<svg width="540pt" height="683pt"
 viewBox="0.00 0.00 539.97 682.72" xmlns="http://www.w3.org/2000/svg" xmlns:xlink="http://www.w3.org/1999/xlink">
<g id="graph0" class="graph" transform="scale(1 1) rotate(0) translate(4 678.72)">
<title>%3</title>
<polygon fill="white" stroke="transparent" points="-4,4 -4,-678.72 535.97,-678.72 535.97,4 -4,4"/>
<g id="clust1" class="cluster">
<title>cluster26</title>
<path fill="none" stroke="black" d="M78.98,-457.81C78.98,-457.81 154.98,-457.81 154.98,-457.81 160.98,-457.81 166.98,-463.81 166.98,-469.81 166.98,-469.81 166.98,-559.77 166.98,-559.77 166.98,-565.77 160.98,-571.77 154.98,-571.77 154.98,-571.77 78.98,-571.77 78.98,-571.77 72.98,-571.77 66.98,-565.77 66.98,-559.77 66.98,-559.77 66.98,-469.81 66.98,-469.81 66.98,-463.81 72.98,-457.81 78.98,-457.81"/>
<text text-anchor="middle" x="151.98" y="-465.61" font-family="Times,serif" font-size="14.00">26</text>
</g>
<g id="clust2" class="cluster">
<title>cluster103</title>
<path fill="none" stroke="black" d="M74.98,-232.91C74.98,-232.91 158.98,-232.91 158.98,-232.91 164.98,-232.91 170.98,-238.91 170.98,-244.91 170.98,-244.91 170.98,-434.84 170.98,-434.84 170.98,-440.84 164.98,-446.84 158.98,-446.84 158.98,-446.84 74.98,-446.84 74.98,-446.84 68.98,-446.84 62.98,-440.84 62.98,-434.84 62.98,-434.84 62.98,-244.91 62.98,-244.91 62.98,-238.91 68.98,-232.91 74.98,-232.91"/>
<text text-anchor="middle" x="152.48" y="-240.71" font-family="Times,serif" font-size="14.00">103</text>
</g>
<g id="clust3" class="cluster">
<title>cluster258</title>
<path fill="none" stroke="black" d="M317.98,-232.91C317.98,-232.91 393.98,-232.91 393.98,-232.91 399.98,-232.91 405.98,-238.91 405.98,-244.91 405.98,-244.91 405.98,-334.86 405.98,-334.86 405.98,-340.86 399.98,-346.86 393.98,-346.86 393.98,-346.86 317.98,-346.86 317.98,-346.86 311.98,-346.86 305.98,-340.86 305.98,-334.86 305.98,-334.86 305.98,-244.91 305.98,-244.91 305.98,-238.91 311.98,-232.91 317.98,-232.91"/>
<text text-anchor="middle" x="387.48" y="-240.71" font-family="Times,serif" font-size="14.00">258</text>
</g>
<g id="clust4" class="cluster">
<title>cluster60,049</title>
<path fill="none" stroke="black" d="M193.98,-8C193.98,-8 277.98,-8 277.98,-8 283.98,-8 289.98,-14 289.98,-20 289.98,-20 289.98,-209.93 289.98,-209.93 289.98,-215.93 283.98,-221.93 277.98,-221.93 277.98,-221.93 193.98,-221.93 193.98,-221.93 187.98,-221.93 181.98,-215.93 181.98,-209.93 181.98,-209.93 181.98,-20 181.98,-20 181.98,-14 187.98,-8 193.98,-8"/>
<text text-anchor="middle" x="262.98" y="-15.8" font-family="Times,serif" font-size="14.00">60,049</text>
</g>
<!-- σ_g -->
<g id="node1" class="node">
<title>σ_g</title>
<ellipse fill="none" stroke="black" cx="57.98" cy="-637.24" rx="57.97" ry="37.45"/>
<text text-anchor="middle" x="57.98" y="-648.54" font-family="Times,serif" font-size="14.00">σ_g</text>
<text text-anchor="middle" x="57.98" y="-633.54" font-family="Times,serif" font-size="14.00">~</text>
<text text-anchor="middle" x="57.98" y="-618.54" font-family="Times,serif" font-size="14.00">Exponential</text>
</g>
<!-- g_s -->
<g id="node7" class="node">
<title>g_s</title>
<ellipse fill="none" stroke="black" cx="116.98" cy="-526.29" rx="41.94" ry="37.45"/>
<text text-anchor="middle" x="116.98" y="-537.59" font-family="Times,serif" font-size="14.00">g_s</text>
<text text-anchor="middle" x="116.98" y="-522.59" font-family="Times,serif" font-size="14.00">~</text>
<text text-anchor="middle" x="116.98" y="-507.59" font-family="Times,serif" font-size="14.00">Normal</text>
</g>
<!-- σ_g&#45;&gt;g_s -->
<g id="edge1" class="edge">
<title>σ_g&#45;&gt;g_s</title>
<path fill="none" stroke="black" d="M76.81,-601.47C82.34,-591.26 88.45,-579.98 94.2,-569.36"/>
<polygon fill="black" stroke="black" points="97.45,-570.71 99.13,-560.25 91.29,-567.38 97.45,-570.71"/>
</g>
<!-- σ -->
<g id="node2" class="node">
<title>σ</title>
<ellipse fill="none" stroke="black" cx="357.98" cy="-187.43" rx="58.88" ry="37.45"/>
<text text-anchor="middle" x="357.98" y="-198.73" font-family="Times,serif" font-size="14.00">σ</text>
<text text-anchor="middle" x="357.98" y="-183.73" font-family="Times,serif" font-size="14.00">~</text>
<text text-anchor="middle" x="357.98" y="-168.73" font-family="Times,serif" font-size="14.00">HalfNormal</text>
</g>
<!-- y -->
<g id="node12" class="node">
<title>y</title>
<ellipse fill="lightgrey" stroke="black" cx="237.98" cy="-76.48" rx="41.94" ry="37.45"/>
<text text-anchor="middle" x="237.98" y="-87.78" font-family="Times,serif" font-size="14.00">y</text>
<text text-anchor="middle" x="237.98" y="-72.78" font-family="Times,serif" font-size="14.00">~</text>
<text text-anchor="middle" x="237.98" y="-57.78" font-family="Times,serif" font-size="14.00">Normal</text>
</g>
<!-- σ&#45;&gt;y -->
<g id="edge11" class="edge">
<title>σ&#45;&gt;y</title>
<path fill="none" stroke="black" d="M324.87,-156.37C309.25,-142.19 290.57,-125.22 274.53,-110.66"/>
<polygon fill="black" stroke="black" points="276.66,-107.86 266.9,-103.73 271.95,-113.05 276.66,-107.86"/>
</g>
<!-- μ_β_c -->
<g id="node3" class="node">
<title>μ_β_c</title>
<ellipse fill="none" stroke="black" cx="355.98" cy="-412.34" rx="41.94" ry="37.45"/>
<text text-anchor="middle" x="355.98" y="-423.64" font-family="Times,serif" font-size="14.00">μ_β_c</text>
<text text-anchor="middle" x="355.98" y="-408.64" font-family="Times,serif" font-size="14.00">~</text>
<text text-anchor="middle" x="355.98" y="-393.64" font-family="Times,serif" font-size="14.00">Normal</text>
</g>
<!-- β_c -->
<g id="node10" class="node">
<title>β_c</title>
<ellipse fill="none" stroke="black" cx="355.98" cy="-301.38" rx="41.94" ry="37.45"/>
<text text-anchor="middle" x="355.98" y="-312.68" font-family="Times,serif" font-size="14.00">β_c</text>
<text text-anchor="middle" x="355.98" y="-297.68" font-family="Times,serif" font-size="14.00">~</text>
<text text-anchor="middle" x="355.98" y="-282.68" font-family="Times,serif" font-size="14.00">Normal</text>
</g>
<!-- μ_β_c&#45;&gt;β_c -->
<g id="edge5" class="edge">
<title>μ_β_c&#45;&gt;β_c</title>
<path fill="none" stroke="black" d="M355.98,-374.75C355.98,-366.58 355.98,-357.8 355.98,-349.27"/>
<polygon fill="black" stroke="black" points="359.48,-349.06 355.98,-339.06 352.48,-349.06 359.48,-349.06"/>
</g>
<!-- σ_β_c -->
<g id="node4" class="node">
<title>σ_β_c</title>
<ellipse fill="none" stroke="black" cx="473.98" cy="-412.34" rx="57.97" ry="37.45"/>
<text text-anchor="middle" x="473.98" y="-423.64" font-family="Times,serif" font-size="14.00">σ_β_c</text>
<text text-anchor="middle" x="473.98" y="-408.64" font-family="Times,serif" font-size="14.00">~</text>
<text text-anchor="middle" x="473.98" y="-393.64" font-family="Times,serif" font-size="14.00">Exponential</text>
</g>
<!-- σ_β_c&#45;&gt;β_c -->
<g id="edge4" class="edge">
<title>σ_β_c&#45;&gt;β_c</title>
<path fill="none" stroke="black" d="M441.43,-381.28C426.18,-367.2 407.97,-350.39 392.29,-335.9"/>
<polygon fill="black" stroke="black" points="394.53,-333.22 384.81,-329 389.79,-338.36 394.53,-333.22"/>
</g>
<!-- σ_α_s -->
<g id="node5" class="node">
<title>σ_α_s</title>
<ellipse fill="none" stroke="black" cx="237.98" cy="-412.34" rx="57.97" ry="37.45"/>
<text text-anchor="middle" x="237.98" y="-423.64" font-family="Times,serif" font-size="14.00">σ_α_s</text>
<text text-anchor="middle" x="237.98" y="-408.64" font-family="Times,serif" font-size="14.00">~</text>
<text text-anchor="middle" x="237.98" y="-393.64" font-family="Times,serif" font-size="14.00">Exponential</text>
</g>
<!-- α_s -->
<g id="node8" class="node">
<title>α_s</title>
<ellipse fill="none" stroke="black" cx="120.98" cy="-301.38" rx="41.94" ry="37.45"/>
<text text-anchor="middle" x="120.98" y="-312.68" font-family="Times,serif" font-size="14.00">α_s</text>
<text text-anchor="middle" x="120.98" y="-297.68" font-family="Times,serif" font-size="14.00">~</text>
<text text-anchor="middle" x="120.98" y="-282.68" font-family="Times,serif" font-size="14.00">Normal</text>
</g>
<!-- σ_α_s&#45;&gt;α_s -->
<g id="edge6" class="edge">
<title>σ_α_s&#45;&gt;α_s</title>
<path fill="none" stroke="black" d="M205.39,-380.99C190.28,-366.92 172.29,-350.16 156.8,-335.74"/>
<polygon fill="black" stroke="black" points="159.13,-333.12 149.42,-328.87 154.35,-338.24 159.13,-333.12"/>
</g>
<!-- μ_g -->
<g id="node6" class="node">
<title>μ_g</title>
<ellipse fill="none" stroke="black" cx="175.98" cy="-637.24" rx="41.94" ry="37.45"/>
<text text-anchor="middle" x="175.98" y="-648.54" font-family="Times,serif" font-size="14.00">μ_g</text>
<text text-anchor="middle" x="175.98" y="-633.54" font-family="Times,serif" font-size="14.00">~</text>
<text text-anchor="middle" x="175.98" y="-618.54" font-family="Times,serif" font-size="14.00">Normal</text>
</g>
<!-- μ_g&#45;&gt;g_s -->
<g id="edge2" class="edge">
<title>μ_g&#45;&gt;g_s</title>
<path fill="none" stroke="black" d="M158.12,-603.26C152.34,-592.58 145.85,-580.6 139.76,-569.36"/>
<polygon fill="black" stroke="black" points="142.83,-567.67 134.99,-560.54 136.67,-571 142.83,-567.67"/>
</g>
<!-- μ_α_s -->
<g id="node9" class="node">
<title>μ_α_s</title>
<polygon fill="none" stroke="black" points="162.48,-438.84 71.48,-438.84 71.48,-385.84 162.48,-385.84 162.48,-438.84"/>
<text text-anchor="middle" x="116.98" y="-423.64" font-family="Times,serif" font-size="14.00">μ_α_s</text>
<text text-anchor="middle" x="116.98" y="-408.64" font-family="Times,serif" font-size="14.00">~</text>
<text text-anchor="middle" x="116.98" y="-393.64" font-family="Times,serif" font-size="14.00">Deterministic</text>
</g>
<!-- g_s&#45;&gt;μ_α_s -->
<g id="edge3" class="edge">
<title>g_s&#45;&gt;μ_α_s</title>
<path fill="none" stroke="black" d="M116.98,-488.63C116.98,-475.98 116.98,-461.82 116.98,-449.23"/>
<polygon fill="black" stroke="black" points="120.48,-449.09 116.98,-439.09 113.48,-449.09 120.48,-449.09"/>
</g>
<!-- μ -->
<g id="node11" class="node">
<title>μ</title>
<polygon fill="none" stroke="black" points="281.48,-213.93 190.48,-213.93 190.48,-160.93 281.48,-160.93 281.48,-213.93"/>
<text text-anchor="middle" x="235.98" y="-198.73" font-family="Times,serif" font-size="14.00">μ</text>
<text text-anchor="middle" x="235.98" y="-183.73" font-family="Times,serif" font-size="14.00">~</text>
<text text-anchor="middle" x="235.98" y="-168.73" font-family="Times,serif" font-size="14.00">Deterministic</text>
</g>
<!-- α_s&#45;&gt;μ -->
<g id="edge8" class="edge">
<title>α_s&#45;&gt;μ</title>
<path fill="none" stroke="black" d="M148.82,-273.28C164.85,-257.68 185.1,-237.96 202.06,-221.46"/>
<polygon fill="black" stroke="black" points="204.86,-223.61 209.59,-214.13 199.98,-218.6 204.86,-223.61"/>
</g>
<!-- μ_α_s&#45;&gt;α_s -->
<g id="edge7" class="edge">
<title>μ_α_s&#45;&gt;α_s</title>
<path fill="none" stroke="black" d="M117.92,-385.79C118.32,-374.88 118.8,-361.79 119.26,-349.25"/>
<polygon fill="black" stroke="black" points="122.77,-349.03 119.64,-338.91 115.78,-348.77 122.77,-349.03"/>
</g>
<!-- β_c&#45;&gt;μ -->
<g id="edge9" class="edge">
<title>β_c&#45;&gt;μ</title>
<path fill="none" stroke="black" d="M327.54,-273.85C310.56,-258.01 288.87,-237.77 270.86,-220.97"/>
<polygon fill="black" stroke="black" points="273.09,-218.26 263.39,-214 268.32,-223.38 273.09,-218.26"/>
</g>
<!-- μ&#45;&gt;y -->
<g id="edge10" class="edge">
<title>μ&#45;&gt;y</title>
<path fill="none" stroke="black" d="M236.45,-160.89C236.65,-149.98 236.89,-136.89 237.12,-124.35"/>
<polygon fill="black" stroke="black" points="240.63,-124.06 237.31,-114 233.63,-123.94 240.63,-124.06"/>
</g>
</g>
</svg>
