<?xml version="1.0" encoding="UTF-8" standalone="no"?>
<!DOCTYPE svg PUBLIC "-//W3C//DTD SVG 1.1//EN"
 "http://www.w3.org/Graphics/SVG/1.1/DTD/svg11.dtd">
<!-- Generated by graphviz version 2.42.3 (20191010.1750)
 -->
<!-- Title: %3 Pages: 1 -->
<svg width="368pt" height="683pt"
 viewBox="0.00 0.00 367.67 682.72" xmlns="http://www.w3.org/2000/svg" xmlns:xlink="http://www.w3.org/1999/xlink">
<g id="graph0" class="graph" transform="scale(1 1) rotate(0) translate(4 678.72)">
<title>%3</title>
<polygon fill="white" stroke="transparent" points="-4,4 -4,-678.72 363.67,-678.72 363.67,4 -4,4"/>
<g id="clust1" class="cluster">
<title>cluster26</title>
<path fill="none" stroke="black" d="M142.69,-457.81C142.69,-457.81 218.69,-457.81 218.69,-457.81 224.69,-457.81 230.69,-463.81 230.69,-469.81 230.69,-469.81 230.69,-559.77 230.69,-559.77 230.69,-565.77 224.69,-571.77 218.69,-571.77 218.69,-571.77 142.69,-571.77 142.69,-571.77 136.69,-571.77 130.69,-565.77 130.69,-559.77 130.69,-559.77 130.69,-469.81 130.69,-469.81 130.69,-463.81 136.69,-457.81 142.69,-457.81"/>
<text text-anchor="middle" x="215.69" y="-465.61" font-family="Times,serif" font-size="14.00">26</text>
</g>
<g id="clust2" class="cluster">
<title>cluster103</title>
<path fill="none" stroke="black" d="M138.69,-232.91C138.69,-232.91 222.69,-232.91 222.69,-232.91 228.69,-232.91 234.69,-238.91 234.69,-244.91 234.69,-244.91 234.69,-434.84 234.69,-434.84 234.69,-440.84 228.69,-446.84 222.69,-446.84 222.69,-446.84 138.69,-446.84 138.69,-446.84 132.69,-446.84 126.69,-440.84 126.69,-434.84 126.69,-434.84 126.69,-244.91 126.69,-244.91 126.69,-238.91 132.69,-232.91 138.69,-232.91"/>
<text text-anchor="middle" x="216.19" y="-240.71" font-family="Times,serif" font-size="14.00">103</text>
</g>
<g id="clust3" class="cluster">
<title>cluster60,049</title>
<path fill="none" stroke="black" d="M138.69,-8C138.69,-8 222.69,-8 222.69,-8 228.69,-8 234.69,-14 234.69,-20 234.69,-20 234.69,-209.93 234.69,-209.93 234.69,-215.93 228.69,-221.93 222.69,-221.93 222.69,-221.93 138.69,-221.93 138.69,-221.93 132.69,-221.93 126.69,-215.93 126.69,-209.93 126.69,-209.93 126.69,-20 126.69,-20 126.69,-14 132.69,-8 138.69,-8"/>
<text text-anchor="middle" x="207.69" y="-15.8" font-family="Times,serif" font-size="14.00">60,049</text>
</g>
<!-- σ -->
<g id="node1" class="node">
<title>σ</title>
<ellipse fill="none" stroke="black" cx="58.69" cy="-187.43" rx="58.88" ry="37.45"/>
<text text-anchor="middle" x="58.69" y="-198.73" font-family="Times,serif" font-size="14.00">σ</text>
<text text-anchor="middle" x="58.69" y="-183.73" font-family="Times,serif" font-size="14.00">~</text>
<text text-anchor="middle" x="58.69" y="-168.73" font-family="Times,serif" font-size="14.00">HalfNormal</text>
</g>
<!-- y -->
<g id="node10" class="node">
<title>y</title>
<ellipse fill="lightgrey" stroke="black" cx="178.69" cy="-76.48" rx="41.94" ry="37.45"/>
<text text-anchor="middle" x="178.69" y="-87.78" font-family="Times,serif" font-size="14.00">y</text>
<text text-anchor="middle" x="178.69" y="-72.78" font-family="Times,serif" font-size="14.00">~</text>
<text text-anchor="middle" x="178.69" y="-57.78" font-family="Times,serif" font-size="14.00">Normal</text>
</g>
<!-- σ&#45;&gt;y -->
<g id="edge9" class="edge">
<title>σ&#45;&gt;y</title>
<path fill="none" stroke="black" d="M91.8,-156.37C107.42,-142.19 126.1,-125.22 142.14,-110.66"/>
<polygon fill="black" stroke="black" points="144.72,-113.05 149.77,-103.73 140.02,-107.86 144.72,-113.05"/>
</g>
<!-- σ_g -->
<g id="node2" class="node">
<title>σ_g</title>
<ellipse fill="none" stroke="black" cx="121.69" cy="-637.24" rx="57.97" ry="37.45"/>
<text text-anchor="middle" x="121.69" y="-648.54" font-family="Times,serif" font-size="14.00">σ_g</text>
<text text-anchor="middle" x="121.69" y="-633.54" font-family="Times,serif" font-size="14.00">~</text>
<text text-anchor="middle" x="121.69" y="-618.54" font-family="Times,serif" font-size="14.00">Exponential</text>
</g>
<!-- g_s -->
<g id="node6" class="node">
<title>g_s</title>
<ellipse fill="none" stroke="black" cx="180.69" cy="-526.29" rx="41.94" ry="37.45"/>
<text text-anchor="middle" x="180.69" y="-537.59" font-family="Times,serif" font-size="14.00">g_s</text>
<text text-anchor="middle" x="180.69" y="-522.59" font-family="Times,serif" font-size="14.00">~</text>
<text text-anchor="middle" x="180.69" y="-507.59" font-family="Times,serif" font-size="14.00">Normal</text>
</g>
<!-- σ_g&#45;&gt;g_s -->
<g id="edge1" class="edge">
<title>σ_g&#45;&gt;g_s</title>
<path fill="none" stroke="black" d="M140.52,-601.47C146.05,-591.26 152.16,-579.98 157.91,-569.36"/>
<polygon fill="black" stroke="black" points="161.16,-570.71 162.84,-560.25 155,-567.38 161.16,-570.71"/>
</g>
<!-- γ -->
<g id="node3" class="node">
<title>γ</title>
<ellipse fill="none" stroke="black" cx="76.69" cy="-301.38" rx="41.94" ry="37.45"/>
<text text-anchor="middle" x="76.69" y="-312.68" font-family="Times,serif" font-size="14.00">γ</text>
<text text-anchor="middle" x="76.69" y="-297.68" font-family="Times,serif" font-size="14.00">~</text>
<text text-anchor="middle" x="76.69" y="-282.68" font-family="Times,serif" font-size="14.00">Normal</text>
</g>
<!-- μ -->
<g id="node9" class="node">
<title>μ</title>
<polygon fill="none" stroke="black" points="226.19,-213.93 135.19,-213.93 135.19,-160.93 226.19,-160.93 226.19,-213.93"/>
<text text-anchor="middle" x="180.69" y="-198.73" font-family="Times,serif" font-size="14.00">μ</text>
<text text-anchor="middle" x="180.69" y="-183.73" font-family="Times,serif" font-size="14.00">~</text>
<text text-anchor="middle" x="180.69" y="-168.73" font-family="Times,serif" font-size="14.00">Deterministic</text>
</g>
<!-- γ&#45;&gt;μ -->
<g id="edge7" class="edge">
<title>γ&#45;&gt;μ</title>
<path fill="none" stroke="black" d="M95.81,-267.91C103.43,-256.26 112.75,-243.41 122.69,-232.91 126.71,-228.65 131.17,-224.49 135.77,-220.52"/>
<polygon fill="black" stroke="black" points="138.13,-223.11 143.6,-214.04 133.66,-217.72 138.13,-223.11"/>
</g>
<!-- σ_α_s -->
<g id="node4" class="node">
<title>σ_α_s</title>
<ellipse fill="none" stroke="black" cx="301.69" cy="-412.34" rx="57.97" ry="37.45"/>
<text text-anchor="middle" x="301.69" y="-423.64" font-family="Times,serif" font-size="14.00">σ_α_s</text>
<text text-anchor="middle" x="301.69" y="-408.64" font-family="Times,serif" font-size="14.00">~</text>
<text text-anchor="middle" x="301.69" y="-393.64" font-family="Times,serif" font-size="14.00">Exponential</text>
</g>
<!-- α_s -->
<g id="node7" class="node">
<title>α_s</title>
<ellipse fill="none" stroke="black" cx="180.69" cy="-301.38" rx="41.94" ry="37.45"/>
<text text-anchor="middle" x="180.69" y="-312.68" font-family="Times,serif" font-size="14.00">α_s</text>
<text text-anchor="middle" x="180.69" y="-297.68" font-family="Times,serif" font-size="14.00">~</text>
<text text-anchor="middle" x="180.69" y="-282.68" font-family="Times,serif" font-size="14.00">Normal</text>
</g>
<!-- σ_α_s&#45;&gt;α_s -->
<g id="edge4" class="edge">
<title>σ_α_s&#45;&gt;α_s</title>
<path fill="none" stroke="black" d="M268.31,-381.28C252.56,-367.09 233.71,-350.13 217.55,-335.57"/>
<polygon fill="black" stroke="black" points="219.62,-332.73 209.85,-328.64 214.94,-337.93 219.62,-332.73"/>
</g>
<!-- μ_g -->
<g id="node5" class="node">
<title>μ_g</title>
<ellipse fill="none" stroke="black" cx="239.69" cy="-637.24" rx="41.94" ry="37.45"/>
<text text-anchor="middle" x="239.69" y="-648.54" font-family="Times,serif" font-size="14.00">μ_g</text>
<text text-anchor="middle" x="239.69" y="-633.54" font-family="Times,serif" font-size="14.00">~</text>
<text text-anchor="middle" x="239.69" y="-618.54" font-family="Times,serif" font-size="14.00">Normal</text>
</g>
<!-- μ_g&#45;&gt;g_s -->
<g id="edge2" class="edge">
<title>μ_g&#45;&gt;g_s</title>
<path fill="none" stroke="black" d="M221.83,-603.26C216.05,-592.58 209.56,-580.6 203.47,-569.36"/>
<polygon fill="black" stroke="black" points="206.53,-567.67 198.69,-560.54 200.38,-571 206.53,-567.67"/>
</g>
<!-- μ_α_s -->
<g id="node8" class="node">
<title>μ_α_s</title>
<polygon fill="none" stroke="black" points="226.19,-438.84 135.19,-438.84 135.19,-385.84 226.19,-385.84 226.19,-438.84"/>
<text text-anchor="middle" x="180.69" y="-423.64" font-family="Times,serif" font-size="14.00">μ_α_s</text>
<text text-anchor="middle" x="180.69" y="-408.64" font-family="Times,serif" font-size="14.00">~</text>
<text text-anchor="middle" x="180.69" y="-393.64" font-family="Times,serif" font-size="14.00">Deterministic</text>
</g>
<!-- g_s&#45;&gt;μ_α_s -->
<g id="edge3" class="edge">
<title>g_s&#45;&gt;μ_α_s</title>
<path fill="none" stroke="black" d="M180.69,-488.63C180.69,-475.98 180.69,-461.82 180.69,-449.23"/>
<polygon fill="black" stroke="black" points="184.19,-449.09 180.69,-439.09 177.19,-449.09 184.19,-449.09"/>
</g>
<!-- α_s&#45;&gt;μ -->
<g id="edge6" class="edge">
<title>α_s&#45;&gt;μ</title>
<path fill="none" stroke="black" d="M180.69,-263.73C180.69,-251.07 180.69,-236.92 180.69,-224.32"/>
<polygon fill="black" stroke="black" points="184.19,-224.18 180.69,-214.18 177.19,-224.18 184.19,-224.18"/>
</g>
<!-- μ_α_s&#45;&gt;α_s -->
<g id="edge5" class="edge">
<title>μ_α_s&#45;&gt;α_s</title>
<path fill="none" stroke="black" d="M180.69,-385.79C180.69,-374.88 180.69,-361.79 180.69,-349.25"/>
<polygon fill="black" stroke="black" points="184.19,-348.91 180.69,-338.91 177.19,-348.91 184.19,-348.91"/>
</g>
<!-- μ&#45;&gt;y -->
<g id="edge8" class="edge">
<title>μ&#45;&gt;y</title>
<path fill="none" stroke="black" d="M180.22,-160.89C180.02,-149.98 179.78,-136.89 179.55,-124.35"/>
<polygon fill="black" stroke="black" points="183.04,-123.94 179.36,-114 176.04,-124.06 183.04,-123.94"/>
</g>
</g>
</svg>
