<?xml version="1.0" encoding="UTF-8" standalone="no"?>
<!DOCTYPE svg PUBLIC "-//W3C//DTD SVG 1.1//EN"
 "http://www.w3.org/Graphics/SVG/1.1/DTD/svg11.dtd">
<!-- Generated by graphviz version 2.42.3 (20191010.1750)
 -->
<!-- Title: %3 Pages: 1 -->
<svg width="462pt" height="683pt"
 viewBox="0.00 0.00 461.67 682.72" xmlns="http://www.w3.org/2000/svg" xmlns:xlink="http://www.w3.org/1999/xlink">
<g id="graph0" class="graph" transform="scale(1 1) rotate(0) translate(4 678.72)">
<title>%3</title>
<polygon fill="white" stroke="transparent" points="-4,4 -4,-678.72 457.67,-678.72 457.67,4 -4,4"/>
<g id="clust1" class="cluster">
<title>cluster26</title>
<path fill="none" stroke="black" d="M137.98,-457.81C137.98,-457.81 314.98,-457.81 314.98,-457.81 320.98,-457.81 326.98,-463.81 326.98,-469.81 326.98,-469.81 326.98,-559.77 326.98,-559.77 326.98,-565.77 320.98,-571.77 314.98,-571.77 314.98,-571.77 137.98,-571.77 137.98,-571.77 131.98,-571.77 125.98,-565.77 125.98,-559.77 125.98,-559.77 125.98,-469.81 125.98,-469.81 125.98,-463.81 131.98,-457.81 137.98,-457.81"/>
<text text-anchor="middle" x="311.98" y="-465.61" font-family="Times,serif" font-size="14.00">26</text>
</g>
<g id="clust2" class="cluster">
<title>cluster103</title>
<path fill="none" stroke="black" d="M80.98,-232.91C80.98,-232.91 164.98,-232.91 164.98,-232.91 170.98,-232.91 176.98,-238.91 176.98,-244.91 176.98,-244.91 176.98,-434.84 176.98,-434.84 176.98,-440.84 170.98,-446.84 164.98,-446.84 164.98,-446.84 80.98,-446.84 80.98,-446.84 74.98,-446.84 68.98,-440.84 68.98,-434.84 68.98,-434.84 68.98,-244.91 68.98,-244.91 68.98,-238.91 74.98,-232.91 80.98,-232.91"/>
<text text-anchor="middle" x="158.48" y="-240.71" font-family="Times,serif" font-size="14.00">103</text>
</g>
<g id="clust3" class="cluster">
<title>cluster60,049</title>
<path fill="none" stroke="black" d="M130.98,-8C130.98,-8 214.98,-8 214.98,-8 220.98,-8 226.98,-14 226.98,-20 226.98,-20 226.98,-209.93 226.98,-209.93 226.98,-215.93 220.98,-221.93 214.98,-221.93 214.98,-221.93 130.98,-221.93 130.98,-221.93 124.98,-221.93 118.98,-215.93 118.98,-209.93 118.98,-209.93 118.98,-20 118.98,-20 118.98,-14 124.98,-8 130.98,-8"/>
<text text-anchor="middle" x="199.98" y="-15.8" font-family="Times,serif" font-size="14.00">60,049</text>
</g>
<!-- σ_g -->
<g id="node1" class="node">
<title>σ_g</title>
<ellipse fill="none" stroke="black" cx="57.98" cy="-637.24" rx="57.97" ry="37.45"/>
<text text-anchor="middle" x="57.98" y="-648.54" font-family="Times,serif" font-size="14.00">σ_g</text>
<text text-anchor="middle" x="57.98" y="-633.54" font-family="Times,serif" font-size="14.00">~</text>
<text text-anchor="middle" x="57.98" y="-618.54" font-family="Times,serif" font-size="14.00">Exponential</text>
</g>
<!-- g_s -->
<g id="node8" class="node">
<title>g_s</title>
<ellipse fill="none" stroke="black" cx="175.98" cy="-526.29" rx="41.94" ry="37.45"/>
<text text-anchor="middle" x="175.98" y="-537.59" font-family="Times,serif" font-size="14.00">g_s</text>
<text text-anchor="middle" x="175.98" y="-522.59" font-family="Times,serif" font-size="14.00">~</text>
<text text-anchor="middle" x="175.98" y="-507.59" font-family="Times,serif" font-size="14.00">Normal</text>
</g>
<!-- σ_g&#45;&gt;g_s -->
<g id="edge1" class="edge">
<title>σ_g&#45;&gt;g_s</title>
<path fill="none" stroke="black" d="M90.54,-606.18C105.78,-592.11 123.99,-575.29 139.68,-560.81"/>
<polygon fill="black" stroke="black" points="142.18,-563.27 147.15,-553.91 137.43,-558.12 142.18,-563.27"/>
</g>
<!-- μ_γ_s -->
<g id="node2" class="node">
<title>μ_γ_s</title>
<ellipse fill="none" stroke="black" cx="276.98" cy="-637.24" rx="41.94" ry="37.45"/>
<text text-anchor="middle" x="276.98" y="-648.54" font-family="Times,serif" font-size="14.00">μ_γ_s</text>
<text text-anchor="middle" x="276.98" y="-633.54" font-family="Times,serif" font-size="14.00">~</text>
<text text-anchor="middle" x="276.98" y="-618.54" font-family="Times,serif" font-size="14.00">Normal</text>
</g>
<!-- γ_s -->
<g id="node7" class="node">
<title>γ_s</title>
<ellipse fill="none" stroke="black" cx="276.98" cy="-526.29" rx="41.94" ry="37.45"/>
<text text-anchor="middle" x="276.98" y="-537.59" font-family="Times,serif" font-size="14.00">γ_s</text>
<text text-anchor="middle" x="276.98" y="-522.59" font-family="Times,serif" font-size="14.00">~</text>
<text text-anchor="middle" x="276.98" y="-507.59" font-family="Times,serif" font-size="14.00">Normal</text>
</g>
<!-- μ_γ_s&#45;&gt;γ_s -->
<g id="edge6" class="edge">
<title>μ_γ_s&#45;&gt;γ_s</title>
<path fill="none" stroke="black" d="M276.98,-599.66C276.98,-591.49 276.98,-582.71 276.98,-574.18"/>
<polygon fill="black" stroke="black" points="280.48,-573.96 276.98,-563.96 273.48,-573.96 280.48,-573.96"/>
</g>
<!-- σ_γ_s -->
<g id="node3" class="node">
<title>σ_γ_s</title>
<ellipse fill="none" stroke="black" cx="394.98" cy="-637.24" rx="58.88" ry="37.45"/>
<text text-anchor="middle" x="394.98" y="-648.54" font-family="Times,serif" font-size="14.00">σ_γ_s</text>
<text text-anchor="middle" x="394.98" y="-633.54" font-family="Times,serif" font-size="14.00">~</text>
<text text-anchor="middle" x="394.98" y="-618.54" font-family="Times,serif" font-size="14.00">HalfNormal</text>
</g>
<!-- σ_γ_s&#45;&gt;γ_s -->
<g id="edge7" class="edge">
<title>σ_γ_s&#45;&gt;γ_s</title>
<path fill="none" stroke="black" d="M362.11,-605.89C346.88,-591.82 328.73,-575.07 313.11,-560.64"/>
<polygon fill="black" stroke="black" points="315.39,-557.99 305.66,-553.77 310.64,-563.13 315.39,-557.99"/>
</g>
<!-- σ_α_s -->
<g id="node4" class="node">
<title>σ_α_s</title>
<ellipse fill="none" stroke="black" cx="243.98" cy="-412.34" rx="57.97" ry="37.45"/>
<text text-anchor="middle" x="243.98" y="-423.64" font-family="Times,serif" font-size="14.00">σ_α_s</text>
<text text-anchor="middle" x="243.98" y="-408.64" font-family="Times,serif" font-size="14.00">~</text>
<text text-anchor="middle" x="243.98" y="-393.64" font-family="Times,serif" font-size="14.00">Exponential</text>
</g>
<!-- α_s -->
<g id="node9" class="node">
<title>α_s</title>
<ellipse fill="none" stroke="black" cx="126.98" cy="-301.38" rx="41.94" ry="37.45"/>
<text text-anchor="middle" x="126.98" y="-312.68" font-family="Times,serif" font-size="14.00">α_s</text>
<text text-anchor="middle" x="126.98" y="-297.68" font-family="Times,serif" font-size="14.00">~</text>
<text text-anchor="middle" x="126.98" y="-282.68" font-family="Times,serif" font-size="14.00">Normal</text>
</g>
<!-- σ_α_s&#45;&gt;α_s -->
<g id="edge4" class="edge">
<title>σ_α_s&#45;&gt;α_s</title>
<path fill="none" stroke="black" d="M211.39,-380.99C196.28,-366.92 178.29,-350.16 162.8,-335.74"/>
<polygon fill="black" stroke="black" points="165.13,-333.12 155.42,-328.87 160.35,-338.24 165.13,-333.12"/>
</g>
<!-- σ -->
<g id="node5" class="node">
<title>σ</title>
<ellipse fill="none" stroke="black" cx="294.98" cy="-187.43" rx="58.88" ry="37.45"/>
<text text-anchor="middle" x="294.98" y="-198.73" font-family="Times,serif" font-size="14.00">σ</text>
<text text-anchor="middle" x="294.98" y="-183.73" font-family="Times,serif" font-size="14.00">~</text>
<text text-anchor="middle" x="294.98" y="-168.73" font-family="Times,serif" font-size="14.00">HalfNormal</text>
</g>
<!-- y -->
<g id="node12" class="node">
<title>y</title>
<ellipse fill="lightgrey" stroke="black" cx="174.98" cy="-76.48" rx="41.94" ry="37.45"/>
<text text-anchor="middle" x="174.98" y="-87.78" font-family="Times,serif" font-size="14.00">y</text>
<text text-anchor="middle" x="174.98" y="-72.78" font-family="Times,serif" font-size="14.00">~</text>
<text text-anchor="middle" x="174.98" y="-57.78" font-family="Times,serif" font-size="14.00">Normal</text>
</g>
<!-- σ&#45;&gt;y -->
<g id="edge11" class="edge">
<title>σ&#45;&gt;y</title>
<path fill="none" stroke="black" d="M261.87,-156.37C246.25,-142.19 227.57,-125.22 211.53,-110.66"/>
<polygon fill="black" stroke="black" points="213.66,-107.86 203.9,-103.73 208.95,-113.05 213.66,-107.86"/>
</g>
<!-- μ_g -->
<g id="node6" class="node">
<title>μ_g</title>
<ellipse fill="none" stroke="black" cx="175.98" cy="-637.24" rx="41.94" ry="37.45"/>
<text text-anchor="middle" x="175.98" y="-648.54" font-family="Times,serif" font-size="14.00">μ_g</text>
<text text-anchor="middle" x="175.98" y="-633.54" font-family="Times,serif" font-size="14.00">~</text>
<text text-anchor="middle" x="175.98" y="-618.54" font-family="Times,serif" font-size="14.00">Normal</text>
</g>
<!-- μ_g&#45;&gt;g_s -->
<g id="edge2" class="edge">
<title>μ_g&#45;&gt;g_s</title>
<path fill="none" stroke="black" d="M175.98,-599.66C175.98,-591.49 175.98,-582.71 175.98,-574.18"/>
<polygon fill="black" stroke="black" points="179.48,-573.96 175.98,-563.96 172.48,-573.96 179.48,-573.96"/>
</g>
<!-- μ -->
<g id="node11" class="node">
<title>μ</title>
<polygon fill="none" stroke="black" points="218.48,-213.93 127.48,-213.93 127.48,-160.93 218.48,-160.93 218.48,-213.93"/>
<text text-anchor="middle" x="172.98" y="-198.73" font-family="Times,serif" font-size="14.00">μ</text>
<text text-anchor="middle" x="172.98" y="-183.73" font-family="Times,serif" font-size="14.00">~</text>
<text text-anchor="middle" x="172.98" y="-168.73" font-family="Times,serif" font-size="14.00">Deterministic</text>
</g>
<!-- γ_s&#45;&gt;μ -->
<g id="edge8" class="edge">
<title>γ_s&#45;&gt;μ</title>
<path fill="none" stroke="black" d="M295.39,-492.52C301.64,-479.62 307.84,-464.43 310.98,-449.81 317.98,-417.24 321.42,-406.5 310.98,-374.86 290.75,-313.53 241.71,-255.88 207.9,-221.36"/>
<polygon fill="black" stroke="black" points="210.04,-218.56 200.51,-213.94 205.08,-223.49 210.04,-218.56"/>
</g>
<!-- μ_α_s -->
<g id="node10" class="node">
<title>μ_α_s</title>
<polygon fill="none" stroke="black" points="168.48,-438.84 77.48,-438.84 77.48,-385.84 168.48,-385.84 168.48,-438.84"/>
<text text-anchor="middle" x="122.98" y="-423.64" font-family="Times,serif" font-size="14.00">μ_α_s</text>
<text text-anchor="middle" x="122.98" y="-408.64" font-family="Times,serif" font-size="14.00">~</text>
<text text-anchor="middle" x="122.98" y="-393.64" font-family="Times,serif" font-size="14.00">Deterministic</text>
</g>
<!-- g_s&#45;&gt;μ_α_s -->
<g id="edge3" class="edge">
<title>g_s&#45;&gt;μ_α_s</title>
<path fill="none" stroke="black" d="M159.94,-491.4C153.45,-477.7 145.97,-461.89 139.44,-448.11"/>
<polygon fill="black" stroke="black" points="142.54,-446.48 135.1,-438.93 136.22,-449.47 142.54,-446.48"/>
</g>
<!-- α_s&#45;&gt;μ -->
<g id="edge9" class="edge">
<title>α_s&#45;&gt;μ</title>
<path fill="none" stroke="black" d="M141.16,-265.88C146.68,-252.44 153.01,-237.05 158.55,-223.55"/>
<polygon fill="black" stroke="black" points="161.87,-224.69 162.43,-214.11 155.39,-222.03 161.87,-224.69"/>
</g>
<!-- μ_α_s&#45;&gt;α_s -->
<g id="edge5" class="edge">
<title>μ_α_s&#45;&gt;α_s</title>
<path fill="none" stroke="black" d="M123.92,-385.79C124.32,-374.88 124.8,-361.79 125.26,-349.25"/>
<polygon fill="black" stroke="black" points="128.77,-349.03 125.64,-338.91 121.78,-348.77 128.77,-349.03"/>
</g>
<!-- μ&#45;&gt;y -->
<g id="edge10" class="edge">
<title>μ&#45;&gt;y</title>
<path fill="none" stroke="black" d="M173.45,-160.89C173.65,-149.98 173.89,-136.89 174.12,-124.35"/>
<polygon fill="black" stroke="black" points="177.63,-124.06 174.31,-114 170.63,-123.94 177.63,-124.06"/>
</g>
</g>
</svg>
