<?xml version="1.0" encoding="UTF-8" standalone="no"?>
<!DOCTYPE svg PUBLIC "-//W3C//DTD SVG 1.1//EN"
 "http://www.w3.org/Graphics/SVG/1.1/DTD/svg11.dtd">
<!-- Generated by graphviz version 2.42.3 (20191010.1750)
 -->
<!-- Title: %3 Pages: 1 -->
<svg width="333pt" height="683pt"
 viewBox="0.00 0.00 332.70 682.72" xmlns="http://www.w3.org/2000/svg" xmlns:xlink="http://www.w3.org/1999/xlink">
<g id="graph0" class="graph" transform="scale(1 1) rotate(0) translate(4 678.72)">
<title>%3</title>
<polygon fill="white" stroke="transparent" points="-4,4 -4,-678.72 328.7,-678.72 328.7,4 -4,4"/>
<g id="clust1" class="cluster">
<title>cluster26</title>
<path fill="none" stroke="black" d="M107.72,-457.81C107.72,-457.81 183.72,-457.81 183.72,-457.81 189.72,-457.81 195.72,-463.81 195.72,-469.81 195.72,-469.81 195.72,-559.77 195.72,-559.77 195.72,-565.77 189.72,-571.77 183.72,-571.77 183.72,-571.77 107.72,-571.77 107.72,-571.77 101.72,-571.77 95.72,-565.77 95.72,-559.77 95.72,-559.77 95.72,-469.81 95.72,-469.81 95.72,-463.81 101.72,-457.81 107.72,-457.81"/>
<text text-anchor="middle" x="180.72" y="-465.61" font-family="Times,serif" font-size="14.00">26</text>
</g>
<g id="clust2" class="cluster">
<title>cluster103</title>
<path fill="none" stroke="black" d="M103.72,-232.91C103.72,-232.91 187.72,-232.91 187.72,-232.91 193.72,-232.91 199.72,-238.91 199.72,-244.91 199.72,-244.91 199.72,-434.84 199.72,-434.84 199.72,-440.84 193.72,-446.84 187.72,-446.84 187.72,-446.84 103.72,-446.84 103.72,-446.84 97.72,-446.84 91.72,-440.84 91.72,-434.84 91.72,-434.84 91.72,-244.91 91.72,-244.91 91.72,-238.91 97.72,-232.91 103.72,-232.91"/>
<text text-anchor="middle" x="181.22" y="-240.71" font-family="Times,serif" font-size="14.00">103</text>
</g>
<g id="clust3" class="cluster">
<title>cluster60,049</title>
<path fill="none" stroke="black" d="M51.72,-8C51.72,-8 135.72,-8 135.72,-8 141.72,-8 147.72,-14 147.72,-20 147.72,-20 147.72,-209.93 147.72,-209.93 147.72,-215.93 141.72,-221.93 135.72,-221.93 135.72,-221.93 51.72,-221.93 51.72,-221.93 45.72,-221.93 39.72,-215.93 39.72,-209.93 39.72,-209.93 39.72,-20 39.72,-20 39.72,-14 45.72,-8 51.72,-8"/>
<text text-anchor="middle" x="120.72" y="-15.8" font-family="Times,serif" font-size="14.00">60,049</text>
</g>
<!-- γ -->
<g id="node1" class="node">
<title>γ</title>
<ellipse fill="none" stroke="black" cx="41.72" cy="-301.38" rx="41.94" ry="37.45"/>
<text text-anchor="middle" x="41.72" y="-312.68" font-family="Times,serif" font-size="14.00">γ</text>
<text text-anchor="middle" x="41.72" y="-297.68" font-family="Times,serif" font-size="14.00">~</text>
<text text-anchor="middle" x="41.72" y="-282.68" font-family="Times,serif" font-size="14.00">Normal</text>
</g>
<!-- μ -->
<g id="node9" class="node">
<title>μ</title>
<polygon fill="none" stroke="black" points="139.22,-213.93 48.22,-213.93 48.22,-160.93 139.22,-160.93 139.22,-213.93"/>
<text text-anchor="middle" x="93.72" y="-198.73" font-family="Times,serif" font-size="14.00">μ</text>
<text text-anchor="middle" x="93.72" y="-183.73" font-family="Times,serif" font-size="14.00">~</text>
<text text-anchor="middle" x="93.72" y="-168.73" font-family="Times,serif" font-size="14.00">Deterministic</text>
</g>
<!-- γ&#45;&gt;μ -->
<g id="edge6" class="edge">
<title>γ&#45;&gt;μ</title>
<path fill="none" stroke="black" d="M57.46,-266.49C63.83,-252.79 71.17,-236.99 77.57,-223.2"/>
<polygon fill="black" stroke="black" points="80.79,-224.57 81.83,-214.03 74.44,-221.62 80.79,-224.57"/>
</g>
<!-- σ_g -->
<g id="node2" class="node">
<title>σ_g</title>
<ellipse fill="none" stroke="black" cx="86.72" cy="-637.24" rx="57.97" ry="37.45"/>
<text text-anchor="middle" x="86.72" y="-648.54" font-family="Times,serif" font-size="14.00">σ_g</text>
<text text-anchor="middle" x="86.72" y="-633.54" font-family="Times,serif" font-size="14.00">~</text>
<text text-anchor="middle" x="86.72" y="-618.54" font-family="Times,serif" font-size="14.00">Exponential</text>
</g>
<!-- g_s -->
<g id="node6" class="node">
<title>g_s</title>
<ellipse fill="none" stroke="black" cx="145.72" cy="-526.29" rx="41.94" ry="37.45"/>
<text text-anchor="middle" x="145.72" y="-537.59" font-family="Times,serif" font-size="14.00">g_s</text>
<text text-anchor="middle" x="145.72" y="-522.59" font-family="Times,serif" font-size="14.00">~</text>
<text text-anchor="middle" x="145.72" y="-507.59" font-family="Times,serif" font-size="14.00">Normal</text>
</g>
<!-- σ_g&#45;&gt;g_s -->
<g id="edge1" class="edge">
<title>σ_g&#45;&gt;g_s</title>
<path fill="none" stroke="black" d="M105.55,-601.47C111.08,-591.26 117.19,-579.98 122.94,-569.36"/>
<polygon fill="black" stroke="black" points="126.19,-570.71 127.87,-560.25 120.03,-567.38 126.19,-570.71"/>
</g>
<!-- σ_α_s -->
<g id="node3" class="node">
<title>σ_α_s</title>
<ellipse fill="none" stroke="black" cx="266.72" cy="-412.34" rx="57.97" ry="37.45"/>
<text text-anchor="middle" x="266.72" y="-423.64" font-family="Times,serif" font-size="14.00">σ_α_s</text>
<text text-anchor="middle" x="266.72" y="-408.64" font-family="Times,serif" font-size="14.00">~</text>
<text text-anchor="middle" x="266.72" y="-393.64" font-family="Times,serif" font-size="14.00">Exponential</text>
</g>
<!-- α_s -->
<g id="node7" class="node">
<title>α_s</title>
<ellipse fill="none" stroke="black" cx="145.72" cy="-301.38" rx="41.94" ry="37.45"/>
<text text-anchor="middle" x="145.72" y="-312.68" font-family="Times,serif" font-size="14.00">α_s</text>
<text text-anchor="middle" x="145.72" y="-297.68" font-family="Times,serif" font-size="14.00">~</text>
<text text-anchor="middle" x="145.72" y="-282.68" font-family="Times,serif" font-size="14.00">Normal</text>
</g>
<!-- σ_α_s&#45;&gt;α_s -->
<g id="edge4" class="edge">
<title>σ_α_s&#45;&gt;α_s</title>
<path fill="none" stroke="black" d="M233.34,-381.28C217.59,-367.09 198.74,-350.13 182.58,-335.57"/>
<polygon fill="black" stroke="black" points="184.65,-332.73 174.88,-328.64 179.97,-337.93 184.65,-332.73"/>
</g>
<!-- σ -->
<g id="node4" class="node">
<title>σ</title>
<ellipse fill="none" stroke="black" cx="215.72" cy="-187.43" rx="58.88" ry="37.45"/>
<text text-anchor="middle" x="215.72" y="-198.73" font-family="Times,serif" font-size="14.00">σ</text>
<text text-anchor="middle" x="215.72" y="-183.73" font-family="Times,serif" font-size="14.00">~</text>
<text text-anchor="middle" x="215.72" y="-168.73" font-family="Times,serif" font-size="14.00">HalfNormal</text>
</g>
<!-- y -->
<g id="node10" class="node">
<title>y</title>
<ellipse fill="lightgrey" stroke="black" cx="95.72" cy="-76.48" rx="41.94" ry="37.45"/>
<text text-anchor="middle" x="95.72" y="-87.78" font-family="Times,serif" font-size="14.00">y</text>
<text text-anchor="middle" x="95.72" y="-72.78" font-family="Times,serif" font-size="14.00">~</text>
<text text-anchor="middle" x="95.72" y="-57.78" font-family="Times,serif" font-size="14.00">Normal</text>
</g>
<!-- σ&#45;&gt;y -->
<g id="edge9" class="edge">
<title>σ&#45;&gt;y</title>
<path fill="none" stroke="black" d="M182.61,-156.37C166.99,-142.19 148.31,-125.22 132.27,-110.66"/>
<polygon fill="black" stroke="black" points="134.39,-107.86 124.64,-103.73 129.69,-113.05 134.39,-107.86"/>
</g>
<!-- μ_g -->
<g id="node5" class="node">
<title>μ_g</title>
<ellipse fill="none" stroke="black" cx="204.72" cy="-637.24" rx="41.94" ry="37.45"/>
<text text-anchor="middle" x="204.72" y="-648.54" font-family="Times,serif" font-size="14.00">μ_g</text>
<text text-anchor="middle" x="204.72" y="-633.54" font-family="Times,serif" font-size="14.00">~</text>
<text text-anchor="middle" x="204.72" y="-618.54" font-family="Times,serif" font-size="14.00">Normal</text>
</g>
<!-- μ_g&#45;&gt;g_s -->
<g id="edge2" class="edge">
<title>μ_g&#45;&gt;g_s</title>
<path fill="none" stroke="black" d="M186.86,-603.26C181.08,-592.58 174.59,-580.6 168.5,-569.36"/>
<polygon fill="black" stroke="black" points="171.56,-567.67 163.72,-560.54 165.41,-571 171.56,-567.67"/>
</g>
<!-- μ_α_s -->
<g id="node8" class="node">
<title>μ_α_s</title>
<polygon fill="none" stroke="black" points="191.22,-438.84 100.22,-438.84 100.22,-385.84 191.22,-385.84 191.22,-438.84"/>
<text text-anchor="middle" x="145.72" y="-423.64" font-family="Times,serif" font-size="14.00">μ_α_s</text>
<text text-anchor="middle" x="145.72" y="-408.64" font-family="Times,serif" font-size="14.00">~</text>
<text text-anchor="middle" x="145.72" y="-393.64" font-family="Times,serif" font-size="14.00">Deterministic</text>
</g>
<!-- g_s&#45;&gt;μ_α_s -->
<g id="edge3" class="edge">
<title>g_s&#45;&gt;μ_α_s</title>
<path fill="none" stroke="black" d="M145.72,-488.63C145.72,-475.98 145.72,-461.82 145.72,-449.23"/>
<polygon fill="black" stroke="black" points="149.22,-449.09 145.72,-439.09 142.22,-449.09 149.22,-449.09"/>
</g>
<!-- α_s&#45;&gt;μ -->
<g id="edge7" class="edge">
<title>α_s&#45;&gt;μ</title>
<path fill="none" stroke="black" d="M129.98,-266.49C123.61,-252.79 116.27,-236.99 109.87,-223.2"/>
<polygon fill="black" stroke="black" points="113,-221.62 105.61,-214.03 106.65,-224.57 113,-221.62"/>
</g>
<!-- μ_α_s&#45;&gt;α_s -->
<g id="edge5" class="edge">
<title>μ_α_s&#45;&gt;α_s</title>
<path fill="none" stroke="black" d="M145.72,-385.79C145.72,-374.88 145.72,-361.79 145.72,-349.25"/>
<polygon fill="black" stroke="black" points="149.22,-348.91 145.72,-338.91 142.22,-348.91 149.22,-348.91"/>
</g>
<!-- μ&#45;&gt;y -->
<g id="edge8" class="edge">
<title>μ&#45;&gt;y</title>
<path fill="none" stroke="black" d="M94.19,-160.89C94.39,-149.98 94.63,-136.89 94.86,-124.35"/>
<polygon fill="black" stroke="black" points="98.36,-124.06 95.05,-114 91.37,-123.94 98.36,-124.06"/>
</g>
</g>
</svg>
