<?xml version="1.0" encoding="UTF-8" standalone="no"?>
<!DOCTYPE svg PUBLIC "-//W3C//DTD SVG 1.1//EN"
 "http://www.w3.org/Graphics/SVG/1.1/DTD/svg11.dtd">
<!-- Generated by graphviz version 2.42.3 (20191010.1750)
 -->
<!-- Title: %3 Pages: 1 -->
<svg width="468pt" height="683pt"
 viewBox="0.00 0.00 467.70 682.72" xmlns="http://www.w3.org/2000/svg" xmlns:xlink="http://www.w3.org/1999/xlink">
<g id="graph0" class="graph" transform="scale(1 1) rotate(0) translate(4 678.72)">
<title>%3</title>
<polygon fill="white" stroke="transparent" points="-4,4 -4,-678.72 463.7,-678.72 463.7,4 -4,4"/>
<g id="clust1" class="cluster">
<title>cluster26</title>
<path fill="none" stroke="black" d="M242.72,-457.81C242.72,-457.81 318.72,-457.81 318.72,-457.81 324.72,-457.81 330.72,-463.81 330.72,-469.81 330.72,-469.81 330.72,-559.77 330.72,-559.77 330.72,-565.77 324.72,-571.77 318.72,-571.77 318.72,-571.77 242.72,-571.77 242.72,-571.77 236.72,-571.77 230.72,-565.77 230.72,-559.77 230.72,-559.77 230.72,-469.81 230.72,-469.81 230.72,-463.81 236.72,-457.81 242.72,-457.81"/>
<text text-anchor="middle" x="315.72" y="-465.61" font-family="Times,serif" font-size="14.00">26</text>
</g>
<g id="clust2" class="cluster">
<title>cluster103</title>
<path fill="none" stroke="black" d="M238.72,-232.91C238.72,-232.91 322.72,-232.91 322.72,-232.91 328.72,-232.91 334.72,-238.91 334.72,-244.91 334.72,-244.91 334.72,-434.84 334.72,-434.84 334.72,-440.84 328.72,-446.84 322.72,-446.84 322.72,-446.84 238.72,-446.84 238.72,-446.84 232.72,-446.84 226.72,-440.84 226.72,-434.84 226.72,-434.84 226.72,-244.91 226.72,-244.91 226.72,-238.91 232.72,-232.91 238.72,-232.91"/>
<text text-anchor="middle" x="316.22" y="-240.71" font-family="Times,serif" font-size="14.00">103</text>
</g>
<g id="clust3" class="cluster">
<title>cluster258</title>
<path fill="none" stroke="black" d="M121.72,-232.91C121.72,-232.91 197.72,-232.91 197.72,-232.91 203.72,-232.91 209.72,-238.91 209.72,-244.91 209.72,-244.91 209.72,-334.86 209.72,-334.86 209.72,-340.86 203.72,-346.86 197.72,-346.86 197.72,-346.86 121.72,-346.86 121.72,-346.86 115.72,-346.86 109.72,-340.86 109.72,-334.86 109.72,-334.86 109.72,-244.91 109.72,-244.91 109.72,-238.91 115.72,-232.91 121.72,-232.91"/>
<text text-anchor="middle" x="191.22" y="-240.71" font-family="Times,serif" font-size="14.00">258</text>
</g>
<g id="clust4" class="cluster">
<title>cluster60,049</title>
<path fill="none" stroke="black" d="M178.72,-8C178.72,-8 262.72,-8 262.72,-8 268.72,-8 274.72,-14 274.72,-20 274.72,-20 274.72,-209.93 274.72,-209.93 274.72,-215.93 268.72,-221.93 262.72,-221.93 262.72,-221.93 178.72,-221.93 178.72,-221.93 172.72,-221.93 166.72,-215.93 166.72,-209.93 166.72,-209.93 166.72,-20 166.72,-20 166.72,-14 172.72,-8 178.72,-8"/>
<text text-anchor="middle" x="247.72" y="-15.8" font-family="Times,serif" font-size="14.00">60,049</text>
</g>
<!-- μ_β_c -->
<g id="node1" class="node">
<title>μ_β_c</title>
<ellipse fill="none" stroke="black" cx="41.72" cy="-412.34" rx="41.94" ry="37.45"/>
<text text-anchor="middle" x="41.72" y="-423.64" font-family="Times,serif" font-size="14.00">μ_β_c</text>
<text text-anchor="middle" x="41.72" y="-408.64" font-family="Times,serif" font-size="14.00">~</text>
<text text-anchor="middle" x="41.72" y="-393.64" font-family="Times,serif" font-size="14.00">Normal</text>
</g>
<!-- β_c -->
<g id="node10" class="node">
<title>β_c</title>
<ellipse fill="none" stroke="black" cx="159.72" cy="-301.38" rx="41.94" ry="37.45"/>
<text text-anchor="middle" x="159.72" y="-312.68" font-family="Times,serif" font-size="14.00">β_c</text>
<text text-anchor="middle" x="159.72" y="-297.68" font-family="Times,serif" font-size="14.00">~</text>
<text text-anchor="middle" x="159.72" y="-282.68" font-family="Times,serif" font-size="14.00">Normal</text>
</g>
<!-- μ_β_c&#45;&gt;β_c -->
<g id="edge4" class="edge">
<title>μ_β_c&#45;&gt;β_c</title>
<path fill="none" stroke="black" d="M70.28,-384.96C86.25,-370.22 106.32,-351.69 123.4,-335.92"/>
<polygon fill="black" stroke="black" points="126.04,-338.25 131.01,-328.89 121.29,-333.1 126.04,-338.25"/>
</g>
<!-- σ_α_s -->
<g id="node2" class="node">
<title>σ_α_s</title>
<ellipse fill="none" stroke="black" cx="401.72" cy="-412.34" rx="57.97" ry="37.45"/>
<text text-anchor="middle" x="401.72" y="-423.64" font-family="Times,serif" font-size="14.00">σ_α_s</text>
<text text-anchor="middle" x="401.72" y="-408.64" font-family="Times,serif" font-size="14.00">~</text>
<text text-anchor="middle" x="401.72" y="-393.64" font-family="Times,serif" font-size="14.00">Exponential</text>
</g>
<!-- α_s -->
<g id="node9" class="node">
<title>α_s</title>
<ellipse fill="none" stroke="black" cx="280.72" cy="-301.38" rx="41.94" ry="37.45"/>
<text text-anchor="middle" x="280.72" y="-312.68" font-family="Times,serif" font-size="14.00">α_s</text>
<text text-anchor="middle" x="280.72" y="-297.68" font-family="Times,serif" font-size="14.00">~</text>
<text text-anchor="middle" x="280.72" y="-282.68" font-family="Times,serif" font-size="14.00">Normal</text>
</g>
<!-- σ_α_s&#45;&gt;α_s -->
<g id="edge7" class="edge">
<title>σ_α_s&#45;&gt;α_s</title>
<path fill="none" stroke="black" d="M368.34,-381.28C352.59,-367.09 333.74,-350.13 317.58,-335.57"/>
<polygon fill="black" stroke="black" points="319.65,-332.73 309.88,-328.64 314.97,-337.93 319.65,-332.73"/>
</g>
<!-- σ_β_c -->
<g id="node3" class="node">
<title>σ_β_c</title>
<ellipse fill="none" stroke="black" cx="159.72" cy="-412.34" rx="57.97" ry="37.45"/>
<text text-anchor="middle" x="159.72" y="-423.64" font-family="Times,serif" font-size="14.00">σ_β_c</text>
<text text-anchor="middle" x="159.72" y="-408.64" font-family="Times,serif" font-size="14.00">~</text>
<text text-anchor="middle" x="159.72" y="-393.64" font-family="Times,serif" font-size="14.00">Exponential</text>
</g>
<!-- σ_β_c&#45;&gt;β_c -->
<g id="edge5" class="edge">
<title>σ_β_c&#45;&gt;β_c</title>
<path fill="none" stroke="black" d="M159.72,-374.75C159.72,-366.58 159.72,-357.8 159.72,-349.27"/>
<polygon fill="black" stroke="black" points="163.22,-349.06 159.72,-339.06 156.22,-349.06 163.22,-349.06"/>
</g>
<!-- σ -->
<g id="node4" class="node">
<title>σ</title>
<ellipse fill="none" stroke="black" cx="342.72" cy="-187.43" rx="58.88" ry="37.45"/>
<text text-anchor="middle" x="342.72" y="-198.73" font-family="Times,serif" font-size="14.00">σ</text>
<text text-anchor="middle" x="342.72" y="-183.73" font-family="Times,serif" font-size="14.00">~</text>
<text text-anchor="middle" x="342.72" y="-168.73" font-family="Times,serif" font-size="14.00">HalfNormal</text>
</g>
<!-- y -->
<g id="node12" class="node">
<title>y</title>
<ellipse fill="lightgrey" stroke="black" cx="222.72" cy="-76.48" rx="41.94" ry="37.45"/>
<text text-anchor="middle" x="222.72" y="-87.78" font-family="Times,serif" font-size="14.00">y</text>
<text text-anchor="middle" x="222.72" y="-72.78" font-family="Times,serif" font-size="14.00">~</text>
<text text-anchor="middle" x="222.72" y="-57.78" font-family="Times,serif" font-size="14.00">Normal</text>
</g>
<!-- σ&#45;&gt;y -->
<g id="edge11" class="edge">
<title>σ&#45;&gt;y</title>
<path fill="none" stroke="black" d="M309.61,-156.37C293.99,-142.19 275.31,-125.22 259.27,-110.66"/>
<polygon fill="black" stroke="black" points="261.39,-107.86 251.64,-103.73 256.69,-113.05 261.39,-107.86"/>
</g>
<!-- σ_g -->
<g id="node5" class="node">
<title>σ_g</title>
<ellipse fill="none" stroke="black" cx="221.72" cy="-637.24" rx="57.97" ry="37.45"/>
<text text-anchor="middle" x="221.72" y="-648.54" font-family="Times,serif" font-size="14.00">σ_g</text>
<text text-anchor="middle" x="221.72" y="-633.54" font-family="Times,serif" font-size="14.00">~</text>
<text text-anchor="middle" x="221.72" y="-618.54" font-family="Times,serif" font-size="14.00">Exponential</text>
</g>
<!-- g_s -->
<g id="node7" class="node">
<title>g_s</title>
<ellipse fill="none" stroke="black" cx="280.72" cy="-526.29" rx="41.94" ry="37.45"/>
<text text-anchor="middle" x="280.72" y="-537.59" font-family="Times,serif" font-size="14.00">g_s</text>
<text text-anchor="middle" x="280.72" y="-522.59" font-family="Times,serif" font-size="14.00">~</text>
<text text-anchor="middle" x="280.72" y="-507.59" font-family="Times,serif" font-size="14.00">Normal</text>
</g>
<!-- σ_g&#45;&gt;g_s -->
<g id="edge1" class="edge">
<title>σ_g&#45;&gt;g_s</title>
<path fill="none" stroke="black" d="M240.55,-601.47C246.08,-591.26 252.19,-579.98 257.94,-569.36"/>
<polygon fill="black" stroke="black" points="261.19,-570.71 262.87,-560.25 255.03,-567.38 261.19,-570.71"/>
</g>
<!-- μ_g -->
<g id="node6" class="node">
<title>μ_g</title>
<ellipse fill="none" stroke="black" cx="339.72" cy="-637.24" rx="41.94" ry="37.45"/>
<text text-anchor="middle" x="339.72" y="-648.54" font-family="Times,serif" font-size="14.00">μ_g</text>
<text text-anchor="middle" x="339.72" y="-633.54" font-family="Times,serif" font-size="14.00">~</text>
<text text-anchor="middle" x="339.72" y="-618.54" font-family="Times,serif" font-size="14.00">Normal</text>
</g>
<!-- μ_g&#45;&gt;g_s -->
<g id="edge2" class="edge">
<title>μ_g&#45;&gt;g_s</title>
<path fill="none" stroke="black" d="M321.86,-603.26C316.08,-592.58 309.59,-580.6 303.5,-569.36"/>
<polygon fill="black" stroke="black" points="306.56,-567.67 298.72,-560.54 300.41,-571 306.56,-567.67"/>
</g>
<!-- μ_α_s -->
<g id="node8" class="node">
<title>μ_α_s</title>
<polygon fill="none" stroke="black" points="326.22,-438.84 235.22,-438.84 235.22,-385.84 326.22,-385.84 326.22,-438.84"/>
<text text-anchor="middle" x="280.72" y="-423.64" font-family="Times,serif" font-size="14.00">μ_α_s</text>
<text text-anchor="middle" x="280.72" y="-408.64" font-family="Times,serif" font-size="14.00">~</text>
<text text-anchor="middle" x="280.72" y="-393.64" font-family="Times,serif" font-size="14.00">Deterministic</text>
</g>
<!-- g_s&#45;&gt;μ_α_s -->
<g id="edge3" class="edge">
<title>g_s&#45;&gt;μ_α_s</title>
<path fill="none" stroke="black" d="M280.72,-488.63C280.72,-475.98 280.72,-461.82 280.72,-449.23"/>
<polygon fill="black" stroke="black" points="284.22,-449.09 280.72,-439.09 277.22,-449.09 284.22,-449.09"/>
</g>
<!-- μ_α_s&#45;&gt;α_s -->
<g id="edge6" class="edge">
<title>μ_α_s&#45;&gt;α_s</title>
<path fill="none" stroke="black" d="M280.72,-385.79C280.72,-374.88 280.72,-361.79 280.72,-349.25"/>
<polygon fill="black" stroke="black" points="284.22,-348.91 280.72,-338.91 277.22,-348.91 284.22,-348.91"/>
</g>
<!-- μ -->
<g id="node11" class="node">
<title>μ</title>
<polygon fill="none" stroke="black" points="266.22,-213.93 175.22,-213.93 175.22,-160.93 266.22,-160.93 266.22,-213.93"/>
<text text-anchor="middle" x="220.72" y="-198.73" font-family="Times,serif" font-size="14.00">μ</text>
<text text-anchor="middle" x="220.72" y="-183.73" font-family="Times,serif" font-size="14.00">~</text>
<text text-anchor="middle" x="220.72" y="-168.73" font-family="Times,serif" font-size="14.00">Deterministic</text>
</g>
<!-- α_s&#45;&gt;μ -->
<g id="edge8" class="edge">
<title>α_s&#45;&gt;μ</title>
<path fill="none" stroke="black" d="M263.04,-267.4C255.56,-253.43 246.83,-237.15 239.25,-223.01"/>
<polygon fill="black" stroke="black" points="242.27,-221.24 234.47,-214.08 236.1,-224.55 242.27,-221.24"/>
</g>
<!-- β_c&#45;&gt;μ -->
<g id="edge9" class="edge">
<title>β_c&#45;&gt;μ</title>
<path fill="none" stroke="black" d="M177.69,-267.4C185.3,-253.43 194.17,-237.15 201.88,-223.01"/>
<polygon fill="black" stroke="black" points="205.03,-224.53 206.74,-214.08 198.89,-221.19 205.03,-224.53"/>
</g>
<!-- μ&#45;&gt;y -->
<g id="edge10" class="edge">
<title>μ&#45;&gt;y</title>
<path fill="none" stroke="black" d="M221.19,-160.89C221.39,-149.98 221.63,-136.89 221.86,-124.35"/>
<polygon fill="black" stroke="black" points="225.36,-124.06 222.05,-114 218.37,-123.94 225.36,-124.06"/>
</g>
</g>
</svg>
