<?xml version="1.0" encoding="UTF-8" standalone="no"?>
<!DOCTYPE svg PUBLIC "-//W3C//DTD SVG 1.1//EN"
 "http://www.w3.org/Graphics/SVG/1.1/DTD/svg11.dtd">
<!-- Generated by graphviz version 2.42.3 (20191010.1750)
 -->
<!-- Title: %3 Pages: 1 -->
<svg width="289pt" height="458pt"
 viewBox="0.00 0.00 289.41 457.81" xmlns="http://www.w3.org/2000/svg" xmlns:xlink="http://www.w3.org/1999/xlink">
<g id="graph0" class="graph" transform="scale(1 1) rotate(0) translate(4 453.81)">
<title>%3</title>
<polygon fill="white" stroke="transparent" points="-4,4 -4,-453.81 285.41,-453.81 285.41,4 -4,4"/>
<g id="clust1" class="cluster">
<title>cluster26</title>
<path fill="none" stroke="black" d="M62.72,-232.91C62.72,-232.91 138.72,-232.91 138.72,-232.91 144.72,-232.91 150.72,-238.91 150.72,-244.91 150.72,-244.91 150.72,-334.86 150.72,-334.86 150.72,-340.86 144.72,-346.86 138.72,-346.86 138.72,-346.86 62.72,-346.86 62.72,-346.86 56.72,-346.86 50.72,-340.86 50.72,-334.86 50.72,-334.86 50.72,-244.91 50.72,-244.91 50.72,-238.91 56.72,-232.91 62.72,-232.91"/>
<text text-anchor="middle" x="135.72" y="-240.71" font-family="Times,serif" font-size="14.00">26</text>
</g>
<g id="clust2" class="cluster">
<title>cluster60,049</title>
<path fill="none" stroke="black" d="M58.72,-8C58.72,-8 142.72,-8 142.72,-8 148.72,-8 154.72,-14 154.72,-20 154.72,-20 154.72,-209.93 154.72,-209.93 154.72,-215.93 148.72,-221.93 142.72,-221.93 142.72,-221.93 58.72,-221.93 58.72,-221.93 52.72,-221.93 46.72,-215.93 46.72,-209.93 46.72,-209.93 46.72,-20 46.72,-20 46.72,-14 52.72,-8 58.72,-8"/>
<text text-anchor="middle" x="127.72" y="-15.8" font-family="Times,serif" font-size="14.00">60,049</text>
</g>
<!-- μ_α -->
<g id="node1" class="node">
<title>μ_α</title>
<ellipse fill="none" stroke="black" cx="41.72" cy="-412.34" rx="41.94" ry="37.45"/>
<text text-anchor="middle" x="41.72" y="-423.64" font-family="Times,serif" font-size="14.00">μ_α</text>
<text text-anchor="middle" x="41.72" y="-408.64" font-family="Times,serif" font-size="14.00">~</text>
<text text-anchor="middle" x="41.72" y="-393.64" font-family="Times,serif" font-size="14.00">Normal</text>
</g>
<!-- α_g -->
<g id="node4" class="node">
<title>α_g</title>
<ellipse fill="none" stroke="black" cx="100.72" cy="-301.38" rx="41.94" ry="37.45"/>
<text text-anchor="middle" x="100.72" y="-312.68" font-family="Times,serif" font-size="14.00">α_g</text>
<text text-anchor="middle" x="100.72" y="-297.68" font-family="Times,serif" font-size="14.00">~</text>
<text text-anchor="middle" x="100.72" y="-282.68" font-family="Times,serif" font-size="14.00">Normal</text>
</g>
<!-- μ_α&#45;&gt;α_g -->
<g id="edge1" class="edge">
<title>μ_α&#45;&gt;α_g</title>
<path fill="none" stroke="black" d="M59.58,-378.35C65.36,-367.68 71.85,-355.69 77.94,-344.45"/>
<polygon fill="black" stroke="black" points="81.03,-346.09 82.71,-335.63 74.87,-342.76 81.03,-346.09"/>
</g>
<!-- σ -->
<g id="node2" class="node">
<title>σ</title>
<ellipse fill="none" stroke="black" cx="222.72" cy="-187.43" rx="58.88" ry="37.45"/>
<text text-anchor="middle" x="222.72" y="-198.73" font-family="Times,serif" font-size="14.00">σ</text>
<text text-anchor="middle" x="222.72" y="-183.73" font-family="Times,serif" font-size="14.00">~</text>
<text text-anchor="middle" x="222.72" y="-168.73" font-family="Times,serif" font-size="14.00">HalfNormal</text>
</g>
<!-- y -->
<g id="node6" class="node">
<title>y</title>
<ellipse fill="lightgrey" stroke="black" cx="102.72" cy="-76.48" rx="41.94" ry="37.45"/>
<text text-anchor="middle" x="102.72" y="-87.78" font-family="Times,serif" font-size="14.00">y</text>
<text text-anchor="middle" x="102.72" y="-72.78" font-family="Times,serif" font-size="14.00">~</text>
<text text-anchor="middle" x="102.72" y="-57.78" font-family="Times,serif" font-size="14.00">Normal</text>
</g>
<!-- σ&#45;&gt;y -->
<g id="edge5" class="edge">
<title>σ&#45;&gt;y</title>
<path fill="none" stroke="black" d="M189.61,-156.37C173.99,-142.19 155.31,-125.22 139.27,-110.66"/>
<polygon fill="black" stroke="black" points="141.39,-107.86 131.64,-103.73 136.69,-113.05 141.39,-107.86"/>
</g>
<!-- σ_α -->
<g id="node3" class="node">
<title>σ_α</title>
<ellipse fill="none" stroke="black" cx="159.72" cy="-412.34" rx="58.88" ry="37.45"/>
<text text-anchor="middle" x="159.72" y="-423.64" font-family="Times,serif" font-size="14.00">σ_α</text>
<text text-anchor="middle" x="159.72" y="-408.64" font-family="Times,serif" font-size="14.00">~</text>
<text text-anchor="middle" x="159.72" y="-393.64" font-family="Times,serif" font-size="14.00">HalfNormal</text>
</g>
<!-- σ_α&#45;&gt;α_g -->
<g id="edge2" class="edge">
<title>σ_α&#45;&gt;α_g</title>
<path fill="none" stroke="black" d="M140.89,-376.56C135.36,-366.35 129.25,-355.07 123.5,-344.46"/>
<polygon fill="black" stroke="black" points="126.41,-342.47 118.57,-335.34 120.25,-345.8 126.41,-342.47"/>
</g>
<!-- μ -->
<g id="node5" class="node">
<title>μ</title>
<polygon fill="none" stroke="black" points="146.22,-213.93 55.22,-213.93 55.22,-160.93 146.22,-160.93 146.22,-213.93"/>
<text text-anchor="middle" x="100.72" y="-198.73" font-family="Times,serif" font-size="14.00">μ</text>
<text text-anchor="middle" x="100.72" y="-183.73" font-family="Times,serif" font-size="14.00">~</text>
<text text-anchor="middle" x="100.72" y="-168.73" font-family="Times,serif" font-size="14.00">Deterministic</text>
</g>
<!-- α_g&#45;&gt;μ -->
<g id="edge3" class="edge">
<title>α_g&#45;&gt;μ</title>
<path fill="none" stroke="black" d="M100.72,-263.73C100.72,-251.07 100.72,-236.92 100.72,-224.32"/>
<polygon fill="black" stroke="black" points="104.22,-224.18 100.72,-214.18 97.22,-224.18 104.22,-224.18"/>
</g>
<!-- μ&#45;&gt;y -->
<g id="edge4" class="edge">
<title>μ&#45;&gt;y</title>
<path fill="none" stroke="black" d="M101.19,-160.89C101.39,-149.98 101.63,-136.89 101.86,-124.35"/>
<polygon fill="black" stroke="black" points="105.36,-124.06 102.05,-114 98.37,-123.94 105.36,-124.06"/>
</g>
</g>
</svg>
