<?xml version="1.0" encoding="UTF-8" standalone="no"?>
<!DOCTYPE svg PUBLIC "-//W3C//DTD SVG 1.1//EN"
 "http://www.w3.org/Graphics/SVG/1.1/DTD/svg11.dtd">
<!-- Generated by graphviz version 2.42.3 (20191010.1750)
 -->
<!-- Title: %3 Pages: 1 -->
<svg width="462pt" height="683pt"
 viewBox="0.00 0.00 461.67 682.72" xmlns="http://www.w3.org/2000/svg" xmlns:xlink="http://www.w3.org/1999/xlink">
<g id="graph0" class="graph" transform="scale(1 1) rotate(0) translate(4 678.72)">
<title>%3</title>
<polygon fill="white" stroke="transparent" points="-4,4 -4,-678.72 457.67,-678.72 457.67,4 -4,4"/>
<g id="clust1" class="cluster">
<title>cluster26</title>
<path fill="none" stroke="black" d="M137.98,-457.81C137.98,-457.81 314.98,-457.81 314.98,-457.81 320.98,-457.81 326.98,-463.81 326.98,-469.81 326.98,-469.81 326.98,-559.77 326.98,-559.77 326.98,-565.77 320.98,-571.77 314.98,-571.77 314.98,-571.77 137.98,-571.77 137.98,-571.77 131.98,-571.77 125.98,-565.77 125.98,-559.77 125.98,-559.77 125.98,-469.81 125.98,-469.81 125.98,-463.81 131.98,-457.81 137.98,-457.81"/>
<text text-anchor="middle" x="311.98" y="-465.61" font-family="Times,serif" font-size="14.00">26</text>
</g>
<g id="clust2" class="cluster">
<title>cluster103</title>
<path fill="none" stroke="black" d="M143.98,-232.91C143.98,-232.91 227.98,-232.91 227.98,-232.91 233.98,-232.91 239.98,-238.91 239.98,-244.91 239.98,-244.91 239.98,-434.84 239.98,-434.84 239.98,-440.84 233.98,-446.84 227.98,-446.84 227.98,-446.84 143.98,-446.84 143.98,-446.84 137.98,-446.84 131.98,-440.84 131.98,-434.84 131.98,-434.84 131.98,-244.91 131.98,-244.91 131.98,-238.91 137.98,-232.91 143.98,-232.91"/>
<text text-anchor="middle" x="221.48" y="-240.71" font-family="Times,serif" font-size="14.00">103</text>
</g>
<g id="clust3" class="cluster">
<title>cluster60,049</title>
<path fill="none" stroke="black" d="M191.98,-8C191.98,-8 275.98,-8 275.98,-8 281.98,-8 287.98,-14 287.98,-20 287.98,-20 287.98,-209.93 287.98,-209.93 287.98,-215.93 281.98,-221.93 275.98,-221.93 275.98,-221.93 191.98,-221.93 191.98,-221.93 185.98,-221.93 179.98,-215.93 179.98,-209.93 179.98,-209.93 179.98,-20 179.98,-20 179.98,-14 185.98,-8 191.98,-8"/>
<text text-anchor="middle" x="260.98" y="-15.8" font-family="Times,serif" font-size="14.00">60,049</text>
</g>
<!-- σ -->
<g id="node1" class="node">
<title>σ</title>
<ellipse fill="none" stroke="black" cx="111.98" cy="-187.43" rx="58.88" ry="37.45"/>
<text text-anchor="middle" x="111.98" y="-198.73" font-family="Times,serif" font-size="14.00">σ</text>
<text text-anchor="middle" x="111.98" y="-183.73" font-family="Times,serif" font-size="14.00">~</text>
<text text-anchor="middle" x="111.98" y="-168.73" font-family="Times,serif" font-size="14.00">HalfNormal</text>
</g>
<!-- y -->
<g id="node12" class="node">
<title>y</title>
<ellipse fill="lightgrey" stroke="black" cx="231.98" cy="-76.48" rx="41.94" ry="37.45"/>
<text text-anchor="middle" x="231.98" y="-87.78" font-family="Times,serif" font-size="14.00">y</text>
<text text-anchor="middle" x="231.98" y="-72.78" font-family="Times,serif" font-size="14.00">~</text>
<text text-anchor="middle" x="231.98" y="-57.78" font-family="Times,serif" font-size="14.00">Normal</text>
</g>
<!-- σ&#45;&gt;y -->
<g id="edge11" class="edge">
<title>σ&#45;&gt;y</title>
<path fill="none" stroke="black" d="M145.09,-156.37C160.71,-142.19 179.4,-125.22 195.43,-110.66"/>
<polygon fill="black" stroke="black" points="198.01,-113.05 203.06,-103.73 193.31,-107.86 198.01,-113.05"/>
</g>
<!-- σ_g -->
<g id="node2" class="node">
<title>σ_g</title>
<ellipse fill="none" stroke="black" cx="57.98" cy="-637.24" rx="57.97" ry="37.45"/>
<text text-anchor="middle" x="57.98" y="-648.54" font-family="Times,serif" font-size="14.00">σ_g</text>
<text text-anchor="middle" x="57.98" y="-633.54" font-family="Times,serif" font-size="14.00">~</text>
<text text-anchor="middle" x="57.98" y="-618.54" font-family="Times,serif" font-size="14.00">Exponential</text>
</g>
<!-- g_s -->
<g id="node7" class="node">
<title>g_s</title>
<ellipse fill="none" stroke="black" cx="175.98" cy="-526.29" rx="41.94" ry="37.45"/>
<text text-anchor="middle" x="175.98" y="-537.59" font-family="Times,serif" font-size="14.00">g_s</text>
<text text-anchor="middle" x="175.98" y="-522.59" font-family="Times,serif" font-size="14.00">~</text>
<text text-anchor="middle" x="175.98" y="-507.59" font-family="Times,serif" font-size="14.00">Normal</text>
</g>
<!-- σ_g&#45;&gt;g_s -->
<g id="edge1" class="edge">
<title>σ_g&#45;&gt;g_s</title>
<path fill="none" stroke="black" d="M90.54,-606.18C105.78,-592.11 123.99,-575.29 139.68,-560.81"/>
<polygon fill="black" stroke="black" points="142.18,-563.27 147.15,-553.91 137.43,-558.12 142.18,-563.27"/>
</g>
<!-- μ_γ_g -->
<g id="node3" class="node">
<title>μ_γ_g</title>
<ellipse fill="none" stroke="black" cx="276.98" cy="-637.24" rx="41.94" ry="37.45"/>
<text text-anchor="middle" x="276.98" y="-648.54" font-family="Times,serif" font-size="14.00">μ_γ_g</text>
<text text-anchor="middle" x="276.98" y="-633.54" font-family="Times,serif" font-size="14.00">~</text>
<text text-anchor="middle" x="276.98" y="-618.54" font-family="Times,serif" font-size="14.00">Normal</text>
</g>
<!-- γ_g -->
<g id="node8" class="node">
<title>γ_g</title>
<ellipse fill="none" stroke="black" cx="276.98" cy="-526.29" rx="41.94" ry="37.45"/>
<text text-anchor="middle" x="276.98" y="-537.59" font-family="Times,serif" font-size="14.00">γ_g</text>
<text text-anchor="middle" x="276.98" y="-522.59" font-family="Times,serif" font-size="14.00">~</text>
<text text-anchor="middle" x="276.98" y="-507.59" font-family="Times,serif" font-size="14.00">Normal</text>
</g>
<!-- μ_γ_g&#45;&gt;γ_g -->
<g id="edge7" class="edge">
<title>μ_γ_g&#45;&gt;γ_g</title>
<path fill="none" stroke="black" d="M276.98,-599.66C276.98,-591.49 276.98,-582.71 276.98,-574.18"/>
<polygon fill="black" stroke="black" points="280.48,-573.96 276.98,-563.96 273.48,-573.96 280.48,-573.96"/>
</g>
<!-- σ_γ_g -->
<g id="node4" class="node">
<title>σ_γ_g</title>
<ellipse fill="none" stroke="black" cx="394.98" cy="-637.24" rx="58.88" ry="37.45"/>
<text text-anchor="middle" x="394.98" y="-648.54" font-family="Times,serif" font-size="14.00">σ_γ_g</text>
<text text-anchor="middle" x="394.98" y="-633.54" font-family="Times,serif" font-size="14.00">~</text>
<text text-anchor="middle" x="394.98" y="-618.54" font-family="Times,serif" font-size="14.00">HalfNormal</text>
</g>
<!-- σ_γ_g&#45;&gt;γ_g -->
<g id="edge6" class="edge">
<title>σ_γ_g&#45;&gt;γ_g</title>
<path fill="none" stroke="black" d="M362.11,-605.89C346.88,-591.82 328.73,-575.07 313.11,-560.64"/>
<polygon fill="black" stroke="black" points="315.39,-557.99 305.66,-553.77 310.64,-563.13 315.39,-557.99"/>
</g>
<!-- σ_α_s -->
<g id="node5" class="node">
<title>σ_α_s</title>
<ellipse fill="none" stroke="black" cx="64.98" cy="-412.34" rx="57.97" ry="37.45"/>
<text text-anchor="middle" x="64.98" y="-423.64" font-family="Times,serif" font-size="14.00">σ_α_s</text>
<text text-anchor="middle" x="64.98" y="-408.64" font-family="Times,serif" font-size="14.00">~</text>
<text text-anchor="middle" x="64.98" y="-393.64" font-family="Times,serif" font-size="14.00">Exponential</text>
</g>
<!-- α_s -->
<g id="node9" class="node">
<title>α_s</title>
<ellipse fill="none" stroke="black" cx="185.98" cy="-301.38" rx="41.94" ry="37.45"/>
<text text-anchor="middle" x="185.98" y="-312.68" font-family="Times,serif" font-size="14.00">α_s</text>
<text text-anchor="middle" x="185.98" y="-297.68" font-family="Times,serif" font-size="14.00">~</text>
<text text-anchor="middle" x="185.98" y="-282.68" font-family="Times,serif" font-size="14.00">Normal</text>
</g>
<!-- σ_α_s&#45;&gt;α_s -->
<g id="edge4" class="edge">
<title>σ_α_s&#45;&gt;α_s</title>
<path fill="none" stroke="black" d="M98.37,-381.28C114.12,-367.09 132.96,-350.13 149.13,-335.57"/>
<polygon fill="black" stroke="black" points="151.73,-337.93 156.82,-328.64 147.05,-332.73 151.73,-337.93"/>
</g>
<!-- μ_g -->
<g id="node6" class="node">
<title>μ_g</title>
<ellipse fill="none" stroke="black" cx="175.98" cy="-637.24" rx="41.94" ry="37.45"/>
<text text-anchor="middle" x="175.98" y="-648.54" font-family="Times,serif" font-size="14.00">μ_g</text>
<text text-anchor="middle" x="175.98" y="-633.54" font-family="Times,serif" font-size="14.00">~</text>
<text text-anchor="middle" x="175.98" y="-618.54" font-family="Times,serif" font-size="14.00">Normal</text>
</g>
<!-- μ_g&#45;&gt;g_s -->
<g id="edge2" class="edge">
<title>μ_g&#45;&gt;g_s</title>
<path fill="none" stroke="black" d="M175.98,-599.66C175.98,-591.49 175.98,-582.71 175.98,-574.18"/>
<polygon fill="black" stroke="black" points="179.48,-573.96 175.98,-563.96 172.48,-573.96 179.48,-573.96"/>
</g>
<!-- μ_α_s -->
<g id="node10" class="node">
<title>μ_α_s</title>
<polygon fill="none" stroke="black" points="231.48,-438.84 140.48,-438.84 140.48,-385.84 231.48,-385.84 231.48,-438.84"/>
<text text-anchor="middle" x="185.98" y="-423.64" font-family="Times,serif" font-size="14.00">μ_α_s</text>
<text text-anchor="middle" x="185.98" y="-408.64" font-family="Times,serif" font-size="14.00">~</text>
<text text-anchor="middle" x="185.98" y="-393.64" font-family="Times,serif" font-size="14.00">Deterministic</text>
</g>
<!-- g_s&#45;&gt;μ_α_s -->
<g id="edge3" class="edge">
<title>g_s&#45;&gt;μ_α_s</title>
<path fill="none" stroke="black" d="M179.26,-488.63C180.39,-475.98 181.65,-461.82 182.78,-449.23"/>
<polygon fill="black" stroke="black" points="186.28,-449.36 183.68,-439.09 179.31,-448.74 186.28,-449.36"/>
</g>
<!-- μ -->
<g id="node11" class="node">
<title>μ</title>
<polygon fill="none" stroke="black" points="279.48,-213.93 188.48,-213.93 188.48,-160.93 279.48,-160.93 279.48,-213.93"/>
<text text-anchor="middle" x="233.98" y="-198.73" font-family="Times,serif" font-size="14.00">μ</text>
<text text-anchor="middle" x="233.98" y="-183.73" font-family="Times,serif" font-size="14.00">~</text>
<text text-anchor="middle" x="233.98" y="-168.73" font-family="Times,serif" font-size="14.00">Deterministic</text>
</g>
<!-- γ_g&#45;&gt;μ -->
<g id="edge8" class="edge">
<title>γ_g&#45;&gt;μ</title>
<path fill="none" stroke="black" d="M274.14,-488.65C269.53,-433.09 259.37,-324.34 243.98,-232.91 243.5,-230.05 242.96,-227.11 242.37,-224.15"/>
<polygon fill="black" stroke="black" points="245.76,-223.27 240.28,-214.21 238.91,-224.71 245.76,-223.27"/>
</g>
<!-- α_s&#45;&gt;μ -->
<g id="edge9" class="edge">
<title>α_s&#45;&gt;μ</title>
<path fill="none" stroke="black" d="M200.65,-266.19C206.41,-252.73 213.03,-237.29 218.85,-223.73"/>
<polygon fill="black" stroke="black" points="222.19,-224.82 222.91,-214.25 215.76,-222.06 222.19,-224.82"/>
</g>
<!-- μ_α_s&#45;&gt;α_s -->
<g id="edge5" class="edge">
<title>μ_α_s&#45;&gt;α_s</title>
<path fill="none" stroke="black" d="M185.98,-385.79C185.98,-374.88 185.98,-361.79 185.98,-349.25"/>
<polygon fill="black" stroke="black" points="189.48,-348.91 185.98,-338.91 182.48,-348.91 189.48,-348.91"/>
</g>
<!-- μ&#45;&gt;y -->
<g id="edge10" class="edge">
<title>μ&#45;&gt;y</title>
<path fill="none" stroke="black" d="M233.51,-160.89C233.31,-149.98 233.07,-136.89 232.84,-124.35"/>
<polygon fill="black" stroke="black" points="236.34,-123.94 232.65,-114 229.34,-124.06 236.34,-123.94"/>
</g>
</g>
</svg>
