<?xml version="1.0" encoding="UTF-8" standalone="no"?>
<!DOCTYPE svg PUBLIC "-//W3C//DTD SVG 1.1//EN"
 "http://www.w3.org/Graphics/SVG/1.1/DTD/svg11.dtd">
<!-- Generated by graphviz version 2.50.0 (0)
 -->
<!-- Pages: 1 -->
<svg width="354pt" height="471pt"
 viewBox="0.00 0.00 353.72 470.86" xmlns="http://www.w3.org/2000/svg" xmlns:xlink="http://www.w3.org/1999/xlink">
<g id="graph0" class="graph" transform="scale(1 1) rotate(0) translate(4 466.86)">
<polygon fill="white" stroke="transparent" points="-4,4 -4,-466.86 349.72,-466.86 349.72,4 -4,4"/>
<g id="clust1" class="cluster">
<title>cluster2</title>
<path fill="none" stroke="black" d="M119.72,-229.95C119.72,-229.95 201.72,-229.95 201.72,-229.95 207.72,-229.95 213.72,-235.95 213.72,-241.95 213.72,-241.95 213.72,-331.91 213.72,-331.91 213.72,-337.91 207.72,-343.91 201.72,-343.91 201.72,-343.91 119.72,-343.91 119.72,-343.91 113.72,-343.91 107.72,-337.91 107.72,-331.91 107.72,-331.91 107.72,-241.95 107.72,-241.95 107.72,-235.95 113.72,-229.95 119.72,-229.95"/>
<text text-anchor="middle" x="201.72" y="-237.75" font-family="Times,serif" font-size="14.00">2</text>
</g>
<g id="clust2" class="cluster">
<title>cluster7</title>
<path fill="none" stroke="black" d="M239.72,-240.93C239.72,-240.93 325.72,-240.93 325.72,-240.93 331.72,-240.93 337.72,-246.93 337.72,-252.93 337.72,-252.93 337.72,-442.86 337.72,-442.86 337.72,-448.86 331.72,-454.86 325.72,-454.86 325.72,-454.86 239.72,-454.86 239.72,-454.86 233.72,-454.86 227.72,-448.86 227.72,-442.86 227.72,-442.86 227.72,-252.93 227.72,-252.93 227.72,-246.93 233.72,-240.93 239.72,-240.93"/>
<text text-anchor="middle" x="325.72" y="-248.73" font-family="Times,serif" font-size="14.00">7</text>
</g>
<g id="clust3" class="cluster">
<title>cluster9</title>
<path fill="none" stroke="black" d="M178.72,-129.95C178.72,-129.95 264.72,-129.95 264.72,-129.95 270.72,-129.95 276.72,-135.95 276.72,-141.95 276.72,-141.95 276.72,-209.95 276.72,-209.95 276.72,-215.95 270.72,-221.95 264.72,-221.95 264.72,-221.95 178.72,-221.95 178.72,-221.95 172.72,-221.95 166.72,-215.95 166.72,-209.95 166.72,-209.95 166.72,-141.95 166.72,-141.95 166.72,-135.95 172.72,-129.95 178.72,-129.95"/>
<text text-anchor="middle" x="264.72" y="-137.75" font-family="Times,serif" font-size="14.00">9</text>
</g>
<g id="clust4" class="cluster">
<title>cluster1,146</title>
<path fill="none" stroke="black" d="M183.72,-8C183.72,-8 259.72,-8 259.72,-8 265.72,-8 271.72,-14 271.72,-20 271.72,-20 271.72,-109.95 271.72,-109.95 271.72,-115.95 265.72,-121.95 259.72,-121.95 259.72,-121.95 183.72,-121.95 183.72,-121.95 177.72,-121.95 171.72,-115.95 171.72,-109.95 171.72,-109.95 171.72,-20 171.72,-20 171.72,-14 177.72,-8 183.72,-8"/>
<text text-anchor="middle" x="247.72" y="-15.8" font-family="Times,serif" font-size="14.00">1,146</text>
</g>
<!-- tau -->
<g id="node1" class="node">
<title>tau</title>
<ellipse fill="none" stroke="black" cx="160.72" cy="-409.38" rx="59.29" ry="37.45"/>
<text text-anchor="middle" x="160.72" y="-420.68" font-family="Times,serif" font-size="14.00">tau</text>
<text text-anchor="middle" x="160.72" y="-405.68" font-family="Times,serif" font-size="14.00">~</text>
<text text-anchor="middle" x="160.72" y="-390.68" font-family="Times,serif" font-size="14.00">HalfNormal</text>
</g>
<!-- theta_cp -->
<g id="node3" class="node">
<title>theta_cp</title>
<ellipse fill="none" stroke="black" cx="160.72" cy="-298.43" rx="45.01" ry="37.45"/>
<text text-anchor="middle" x="160.72" y="-309.73" font-family="Times,serif" font-size="14.00">theta_cp</text>
<text text-anchor="middle" x="160.72" y="-294.73" font-family="Times,serif" font-size="14.00">~</text>
<text text-anchor="middle" x="160.72" y="-279.73" font-family="Times,serif" font-size="14.00">Normal</text>
</g>
<!-- tau&#45;&gt;theta_cp -->
<g id="edge1" class="edge">
<title>tau&#45;&gt;theta_cp</title>
<path fill="none" stroke="black" d="M160.72,-371.8C160.72,-363.63 160.72,-354.85 160.72,-346.32"/>
<polygon fill="black" stroke="black" points="164.22,-346.1 160.72,-336.1 157.22,-346.1 164.22,-346.1"/>
</g>
<!-- theta_ncp -->
<g id="node5" class="node">
<title>theta_ncp</title>
<polygon fill="none" stroke="black" points="329.22,-324.93 236.22,-324.93 236.22,-271.93 329.22,-271.93 329.22,-324.93"/>
<text text-anchor="middle" x="282.72" y="-309.73" font-family="Times,serif" font-size="14.00">theta_ncp</text>
<text text-anchor="middle" x="282.72" y="-294.73" font-family="Times,serif" font-size="14.00">~</text>
<text text-anchor="middle" x="282.72" y="-279.73" font-family="Times,serif" font-size="14.00">Deterministic</text>
</g>
<!-- tau&#45;&gt;theta_ncp -->
<g id="edge3" class="edge">
<title>tau&#45;&gt;theta_ncp</title>
<path fill="none" stroke="black" d="M194.38,-378.32C210.5,-363.92 229.84,-346.66 246.3,-331.95"/>
<polygon fill="black" stroke="black" points="249,-334.23 254.13,-324.96 244.34,-329.01 249,-334.23"/>
</g>
<!-- mu -->
<g id="node2" class="node">
<title>mu</title>
<ellipse fill="none" stroke="black" cx="41.72" cy="-409.38" rx="41.94" ry="37.45"/>
<text text-anchor="middle" x="41.72" y="-420.68" font-family="Times,serif" font-size="14.00">mu</text>
<text text-anchor="middle" x="41.72" y="-405.68" font-family="Times,serif" font-size="14.00">~</text>
<text text-anchor="middle" x="41.72" y="-390.68" font-family="Times,serif" font-size="14.00">Normal</text>
</g>
<!-- mu&#45;&gt;theta_cp -->
<g id="edge2" class="edge">
<title>mu&#45;&gt;theta_cp</title>
<path fill="none" stroke="black" d="M70.53,-382.01C86.39,-367.48 106.27,-349.28 123.32,-333.67"/>
<polygon fill="black" stroke="black" points="125.92,-336.03 130.94,-326.7 121.2,-330.87 125.92,-336.03"/>
</g>
<!-- mu&#45;&gt;theta_ncp -->
<g id="edge5" class="edge">
<title>mu&#45;&gt;theta_ncp</title>
<path fill="none" stroke="black" d="M72.35,-383.52C78.8,-379.16 85.76,-375.02 92.72,-371.91 144.69,-348.66 165.51,-366.61 217.72,-343.91 225.83,-340.38 233.99,-335.79 241.66,-330.91"/>
<polygon fill="black" stroke="black" points="244.02,-333.55 250.41,-325.09 240.14,-327.72 244.02,-333.55"/>
</g>
<!-- theta -->
<g id="node6" class="node">
<title>theta</title>
<polygon fill="none" stroke="black" points="268.22,-213.95 175.22,-213.95 175.22,-160.95 268.22,-160.95 268.22,-213.95"/>
<text text-anchor="middle" x="221.72" y="-198.75" font-family="Times,serif" font-size="14.00">theta</text>
<text text-anchor="middle" x="221.72" y="-183.75" font-family="Times,serif" font-size="14.00">~</text>
<text text-anchor="middle" x="221.72" y="-168.75" font-family="Times,serif" font-size="14.00">Deterministic</text>
</g>
<!-- theta_cp&#45;&gt;theta -->
<g id="edge6" class="edge">
<title>theta_cp&#45;&gt;theta</title>
<path fill="none" stroke="black" d="M179.35,-264.14C186.64,-251.12 195,-236.19 202.36,-223.05"/>
<polygon fill="black" stroke="black" points="205.43,-224.71 207.26,-214.28 199.32,-221.3 205.43,-224.71"/>
</g>
<!-- eta_ncp -->
<g id="node4" class="node">
<title>eta_ncp</title>
<ellipse fill="none" stroke="black" cx="282.72" cy="-409.38" rx="42.35" ry="37.45"/>
<text text-anchor="middle" x="282.72" y="-420.68" font-family="Times,serif" font-size="14.00">eta_ncp</text>
<text text-anchor="middle" x="282.72" y="-405.68" font-family="Times,serif" font-size="14.00">~</text>
<text text-anchor="middle" x="282.72" y="-390.68" font-family="Times,serif" font-size="14.00">Normal</text>
</g>
<!-- eta_ncp&#45;&gt;theta_ncp -->
<g id="edge4" class="edge">
<title>eta_ncp&#45;&gt;theta_ncp</title>
<path fill="none" stroke="black" d="M282.72,-371.8C282.72,-360.06 282.72,-347.08 282.72,-335.38"/>
<polygon fill="black" stroke="black" points="286.22,-335.08 282.72,-325.08 279.22,-335.08 286.22,-335.08"/>
</g>
<!-- theta_ncp&#45;&gt;theta -->
<g id="edge7" class="edge">
<title>theta_ncp&#45;&gt;theta</title>
<path fill="none" stroke="black" d="M268.42,-271.88C260.29,-257.37 250.01,-238.99 241.16,-223.18"/>
<polygon fill="black" stroke="black" points="244.08,-221.24 236.14,-214.22 237.97,-224.66 244.08,-221.24"/>
</g>
<!-- y -->
<g id="node7" class="node">
<title>y</title>
<ellipse fill="lightgrey" stroke="black" cx="221.72" cy="-76.48" rx="41.94" ry="37.45"/>
<text text-anchor="middle" x="221.72" y="-87.78" font-family="Times,serif" font-size="14.00">y</text>
<text text-anchor="middle" x="221.72" y="-72.78" font-family="Times,serif" font-size="14.00">~</text>
<text text-anchor="middle" x="221.72" y="-57.78" font-family="Times,serif" font-size="14.00">Normal</text>
</g>
<!-- theta&#45;&gt;y -->
<g id="edge8" class="edge">
<title>theta&#45;&gt;y</title>
<path fill="none" stroke="black" d="M221.72,-160.9C221.72,-149.99 221.72,-136.9 221.72,-124.36"/>
<polygon fill="black" stroke="black" points="225.22,-124.01 221.72,-114.01 218.22,-124.01 225.22,-124.01"/>
</g>
</g>
</svg>
