<?xml version="1.0" encoding="UTF-8" standalone="no"?>
<!DOCTYPE svg PUBLIC "-//W3C//DTD SVG 1.1//EN"
 "http://www.w3.org/Graphics/SVG/1.1/DTD/svg11.dtd">
<!-- Generated by graphviz version 3.0.0 (0)
 -->
<!-- Pages: 1 -->
<svg width="1288pt" height="674pt"
 viewBox="0.00 0.00 1288.10 673.79" xmlns="http://www.w3.org/2000/svg" xmlns:xlink="http://www.w3.org/1999/xlink">
<g id="graph0" class="graph" transform="scale(1 1) rotate(0) translate(4 669.79)">
<polygon fill="white" stroke="transparent" points="-4,4 -4,-669.79 1284.1,-669.79 1284.1,4 -4,4"/>
<g id="clust3" class="cluster">
<title>clustergene (113) x lineage (1)</title>
<path fill="none" stroke="black" d="M109.55,-443.86C109.55,-443.86 520.55,-443.86 520.55,-443.86 526.55,-443.86 532.55,-449.86 532.55,-455.86 532.55,-455.86 532.55,-645.79 532.55,-645.79 532.55,-651.79 526.55,-657.79 520.55,-657.79 520.55,-657.79 109.55,-657.79 109.55,-657.79 103.55,-657.79 97.55,-651.79 97.55,-645.79 97.55,-645.79 97.55,-455.86 97.55,-455.86 97.55,-449.86 103.55,-443.86 109.55,-443.86"/>
<text text-anchor="middle" x="458.55" y="-451.66" font-family="Times,serif" font-size="14.00">gene (113) x lineage (1)</text>
</g>
<g id="clust4" class="cluster">
<title>clustergene (113) x screen (2)</title>
<path fill="none" stroke="black" d="M936.55,-321.91C936.55,-321.91 1055.55,-321.91 1055.55,-321.91 1061.55,-321.91 1067.55,-327.91 1067.55,-333.91 1067.55,-333.91 1067.55,-423.86 1067.55,-423.86 1067.55,-429.86 1061.55,-435.86 1055.55,-435.86 1055.55,-435.86 936.55,-435.86 936.55,-435.86 930.55,-435.86 924.55,-429.86 924.55,-423.86 924.55,-423.86 924.55,-333.91 924.55,-333.91 924.55,-327.91 930.55,-321.91 936.55,-321.91"/>
<text text-anchor="middle" x="996.05" y="-329.71" font-family="Times,serif" font-size="14.00">gene (113) x screen (2)</text>
</g>
<g id="clust1" class="cluster">
<title>clustersgrna (338)</title>
<path fill="none" stroke="black" d="M810.55,-321.91C810.55,-321.91 886.55,-321.91 886.55,-321.91 892.55,-321.91 898.55,-327.91 898.55,-333.91 898.55,-333.91 898.55,-423.86 898.55,-423.86 898.55,-429.86 892.55,-435.86 886.55,-435.86 886.55,-435.86 810.55,-435.86 810.55,-435.86 804.55,-435.86 798.55,-429.86 798.55,-423.86 798.55,-423.86 798.55,-333.91 798.55,-333.91 798.55,-327.91 804.55,-321.91 810.55,-321.91"/>
<text text-anchor="middle" x="859.05" y="-329.71" font-family="Times,serif" font-size="14.00">sgrna (338)</text>
</g>
<g id="clust2" class="cluster">
<title>clustercell_line (10)</title>
<path fill="none" stroke="black" d="M871.55,-443.86C871.55,-443.86 1064.55,-443.86 1064.55,-443.86 1070.55,-443.86 1076.55,-449.86 1076.55,-455.86 1076.55,-455.86 1076.55,-645.79 1076.55,-645.79 1076.55,-651.79 1070.55,-657.79 1064.55,-657.79 1064.55,-657.79 871.55,-657.79 871.55,-657.79 865.55,-657.79 859.55,-651.79 859.55,-645.79 859.55,-645.79 859.55,-455.86 859.55,-455.86 859.55,-449.86 865.55,-443.86 871.55,-443.86"/>
<text text-anchor="middle" x="1032.05" y="-451.66" font-family="Times,serif" font-size="14.00">cell_line (10)</text>
</g>
<g id="clust5" class="cluster">
<title>cluster4000</title>
<path fill="none" stroke="black" d="M445.55,-8C445.55,-8 648.55,-8 648.55,-8 654.55,-8 660.55,-14 660.55,-20 660.55,-20 660.55,-412.88 660.55,-412.88 660.55,-418.88 654.55,-424.88 648.55,-424.88 648.55,-424.88 445.55,-424.88 445.55,-424.88 439.55,-424.88 433.55,-418.88 433.55,-412.88 433.55,-412.88 433.55,-20 433.55,-20 433.55,-14 439.55,-8 445.55,-8"/>
<text text-anchor="middle" x="638.55" y="-15.8" font-family="Times,serif" font-size="14.00">4000</text>
</g>
<!-- sigma_h -->
<g id="node1" class="node">
<title>sigma_h</title>
<ellipse fill="none" stroke="black" cx="44.55" cy="-612.31" rx="44.6" ry="37.45"/>
<text text-anchor="middle" x="44.55" y="-623.61" font-family="Times,serif" font-size="14.00">sigma_h</text>
<text text-anchor="middle" x="44.55" y="-608.61" font-family="Times,serif" font-size="14.00">~</text>
<text text-anchor="middle" x="44.55" y="-593.61" font-family="Times,serif" font-size="14.00">Gamma</text>
</g>
<!-- h -->
<g id="node21" class="node">
<title>h</title>
<polygon fill="none" stroke="black" points="197.05,-527.86 106.05,-527.86 106.05,-474.86 197.05,-474.86 197.05,-527.86"/>
<text text-anchor="middle" x="151.55" y="-512.66" font-family="Times,serif" font-size="14.00">h</text>
<text text-anchor="middle" x="151.55" y="-497.66" font-family="Times,serif" font-size="14.00">~</text>
<text text-anchor="middle" x="151.55" y="-482.66" font-family="Times,serif" font-size="14.00">Deterministic</text>
</g>
<!-- sigma_h&#45;&gt;h -->
<g id="edge9" class="edge">
<title>sigma_h&#45;&gt;h</title>
<path fill="none" stroke="black" d="M72.38,-582.97C86.75,-568.34 104.35,-550.42 119.31,-535.19"/>
<polygon fill="black" stroke="black" points="121.9,-537.54 126.41,-527.95 116.91,-532.64 121.9,-537.54"/>
</g>
<!-- sigma_b -->
<g id="node2" class="node">
<title>sigma_b</title>
<ellipse fill="none" stroke="black" cx="1129.55" cy="-612.31" rx="44.6" ry="37.45"/>
<text text-anchor="middle" x="1129.55" y="-623.61" font-family="Times,serif" font-size="14.00">sigma_b</text>
<text text-anchor="middle" x="1129.55" y="-608.61" font-family="Times,serif" font-size="14.00">~</text>
<text text-anchor="middle" x="1129.55" y="-593.61" font-family="Times,serif" font-size="14.00">Gamma</text>
</g>
<!-- b -->
<g id="node15" class="node">
<title>b</title>
<polygon fill="none" stroke="black" points="959.05,-527.86 868.05,-527.86 868.05,-474.86 959.05,-474.86 959.05,-527.86"/>
<text text-anchor="middle" x="913.55" y="-512.66" font-family="Times,serif" font-size="14.00">b</text>
<text text-anchor="middle" x="913.55" y="-497.66" font-family="Times,serif" font-size="14.00">~</text>
<text text-anchor="middle" x="913.55" y="-482.66" font-family="Times,serif" font-size="14.00">Deterministic</text>
</g>
<!-- sigma_b&#45;&gt;b -->
<g id="edge3" class="edge">
<title>sigma_b&#45;&gt;b</title>
<path fill="none" stroke="black" d="M1098.12,-585.59C1092.47,-581.66 1086.49,-577.89 1080.55,-574.84 1034.06,-550.9 1015.67,-561.5 968.55,-538.84 964.99,-537.13 961.39,-535.21 957.83,-533.19"/>
<polygon fill="black" stroke="black" points="959.48,-530.09 949.1,-527.96 955.89,-536.1 959.48,-530.09"/>
</g>
<!-- z -->
<g id="node3" class="node">
<title>z</title>
<ellipse fill="none" stroke="black" cx="711.55" cy="-390.38" rx="41.94" ry="37.45"/>
<text text-anchor="middle" x="711.55" y="-401.68" font-family="Times,serif" font-size="14.00">z</text>
<text text-anchor="middle" x="711.55" y="-386.68" font-family="Times,serif" font-size="14.00">~</text>
<text text-anchor="middle" x="711.55" y="-371.68" font-family="Times,serif" font-size="14.00">Normal</text>
</g>
<!-- eta -->
<g id="node25" class="node">
<title>eta</title>
<polygon fill="none" stroke="black" points="649.05,-313.91 558.05,-313.91 558.05,-260.91 649.05,-260.91 649.05,-313.91"/>
<text text-anchor="middle" x="603.55" y="-298.71" font-family="Times,serif" font-size="14.00">eta</text>
<text text-anchor="middle" x="603.55" y="-283.71" font-family="Times,serif" font-size="14.00">~</text>
<text text-anchor="middle" x="603.55" y="-268.71" font-family="Times,serif" font-size="14.00">Deterministic</text>
</g>
<!-- z&#45;&gt;eta -->
<g id="edge22" class="edge">
<title>z&#45;&gt;eta</title>
<path fill="none" stroke="black" d="M692.97,-356.42C685.23,-344.58 675.48,-331.74 664.55,-321.91 662.36,-319.94 660.03,-318.04 657.62,-316.22"/>
<polygon fill="black" stroke="black" points="659.33,-313.15 649.12,-310.32 655.34,-318.9 659.33,-313.15"/>
</g>
<!-- sigma_p -->
<g id="node4" class="node">
<title>sigma_p</title>
<ellipse fill="none" stroke="black" cx="1235.55" cy="-501.36" rx="44.6" ry="37.45"/>
<text text-anchor="middle" x="1235.55" y="-512.66" font-family="Times,serif" font-size="14.00">sigma_p</text>
<text text-anchor="middle" x="1235.55" y="-497.66" font-family="Times,serif" font-size="14.00">~</text>
<text text-anchor="middle" x="1235.55" y="-482.66" font-family="Times,serif" font-size="14.00">Gamma</text>
</g>
<!-- p -->
<g id="node24" class="node">
<title>p</title>
<ellipse fill="none" stroke="black" cx="995.55" cy="-390.38" rx="41.94" ry="37.45"/>
<text text-anchor="middle" x="995.55" y="-401.68" font-family="Times,serif" font-size="14.00">p</text>
<text text-anchor="middle" x="995.55" y="-386.68" font-family="Times,serif" font-size="14.00">~</text>
<text text-anchor="middle" x="995.55" y="-371.68" font-family="Times,serif" font-size="14.00">Normal</text>
</g>
<!-- sigma_p&#45;&gt;p -->
<g id="edge14" class="edge">
<title>sigma_p&#45;&gt;p</title>
<path fill="none" stroke="black" d="M1211.99,-469.29C1203.59,-459.98 1193.47,-450.49 1182.55,-443.86 1140.65,-418.43 1086.05,-404.96 1046.67,-398.07"/>
<polygon fill="black" stroke="black" points="1047.19,-394.61 1036.76,-396.41 1046.04,-401.51 1047.19,-394.61"/>
</g>
<!-- sigma_m -->
<g id="node5" class="node">
<title>sigma_m</title>
<ellipse fill="none" stroke="black" cx="588.55" cy="-612.31" rx="48.17" ry="37.45"/>
<text text-anchor="middle" x="588.55" y="-623.61" font-family="Times,serif" font-size="14.00">sigma_m</text>
<text text-anchor="middle" x="588.55" y="-608.61" font-family="Times,serif" font-size="14.00">~</text>
<text text-anchor="middle" x="588.55" y="-593.61" font-family="Times,serif" font-size="14.00">Gamma</text>
</g>
<!-- m -->
<g id="node19" class="node">
<title>m</title>
<polygon fill="none" stroke="black" points="306.05,-527.86 215.05,-527.86 215.05,-474.86 306.05,-474.86 306.05,-527.86"/>
<text text-anchor="middle" x="260.55" y="-512.66" font-family="Times,serif" font-size="14.00">m</text>
<text text-anchor="middle" x="260.55" y="-497.66" font-family="Times,serif" font-size="14.00">~</text>
<text text-anchor="middle" x="260.55" y="-482.66" font-family="Times,serif" font-size="14.00">Deterministic</text>
</g>
<!-- sigma_m&#45;&gt;m -->
<g id="edge13" class="edge">
<title>sigma_m&#45;&gt;m</title>
<path fill="none" stroke="black" d="M555.42,-584.84C549.4,-581 542.98,-577.46 536.55,-574.84 444.38,-537.31 408.2,-575.15 315.55,-538.84 311.35,-537.19 307.15,-535.19 303.04,-532.99"/>
<polygon fill="black" stroke="black" points="304.64,-529.87 294.23,-527.88 301.13,-535.92 304.64,-529.87"/>
</g>
<!-- sigma_k -->
<g id="node6" class="node">
<title>sigma_k</title>
<ellipse fill="none" stroke="black" cx="699.55" cy="-612.31" rx="44.6" ry="37.45"/>
<text text-anchor="middle" x="699.55" y="-623.61" font-family="Times,serif" font-size="14.00">sigma_k</text>
<text text-anchor="middle" x="699.55" y="-608.61" font-family="Times,serif" font-size="14.00">~</text>
<text text-anchor="middle" x="699.55" y="-593.61" font-family="Times,serif" font-size="14.00">Gamma</text>
</g>
<!-- k -->
<g id="node18" class="node">
<title>k</title>
<polygon fill="none" stroke="black" points="415.05,-527.86 324.05,-527.86 324.05,-474.86 415.05,-474.86 415.05,-527.86"/>
<text text-anchor="middle" x="369.55" y="-512.66" font-family="Times,serif" font-size="14.00">k</text>
<text text-anchor="middle" x="369.55" y="-497.66" font-family="Times,serif" font-size="14.00">~</text>
<text text-anchor="middle" x="369.55" y="-482.66" font-family="Times,serif" font-size="14.00">Deterministic</text>
</g>
<!-- sigma_k&#45;&gt;k -->
<g id="edge10" class="edge">
<title>sigma_k&#45;&gt;k</title>
<path fill="none" stroke="black" d="M667.4,-586.34C660.49,-581.92 653.01,-577.8 645.55,-574.84 553.05,-538.13 517.2,-575.15 424.55,-538.84 420.35,-537.19 416.15,-535.19 412.04,-532.99"/>
<polygon fill="black" stroke="black" points="413.64,-529.87 403.23,-527.88 410.13,-535.92 413.64,-529.87"/>
</g>
<!-- sigma_d -->
<g id="node7" class="node">
<title>sigma_d</title>
<ellipse fill="none" stroke="black" cx="806.55" cy="-612.31" rx="44.6" ry="37.45"/>
<text text-anchor="middle" x="806.55" y="-623.61" font-family="Times,serif" font-size="14.00">sigma_d</text>
<text text-anchor="middle" x="806.55" y="-608.61" font-family="Times,serif" font-size="14.00">~</text>
<text text-anchor="middle" x="806.55" y="-593.61" font-family="Times,serif" font-size="14.00">Gamma</text>
</g>
<!-- d -->
<g id="node17" class="node">
<title>d</title>
<polygon fill="none" stroke="black" points="524.05,-527.86 433.05,-527.86 433.05,-474.86 524.05,-474.86 524.05,-527.86"/>
<text text-anchor="middle" x="478.55" y="-512.66" font-family="Times,serif" font-size="14.00">d</text>
<text text-anchor="middle" x="478.55" y="-497.66" font-family="Times,serif" font-size="14.00">~</text>
<text text-anchor="middle" x="478.55" y="-482.66" font-family="Times,serif" font-size="14.00">Deterministic</text>
</g>
<!-- sigma_d&#45;&gt;d -->
<g id="edge4" class="edge">
<title>sigma_d&#45;&gt;d</title>
<path fill="none" stroke="black" d="M774.24,-586.5C767.63,-582.18 760.55,-578.05 753.55,-574.84 681.37,-541.71 591.33,-521.6 534.37,-511.23"/>
<polygon fill="black" stroke="black" points="534.94,-507.77 524.48,-509.46 533.71,-514.67 534.94,-507.77"/>
</g>
<!-- sigma_f -->
<g id="node8" class="node">
<title>sigma_f</title>
<ellipse fill="none" stroke="black" cx="1235.55" cy="-612.31" rx="43.27" ry="37.45"/>
<text text-anchor="middle" x="1235.55" y="-623.61" font-family="Times,serif" font-size="14.00">sigma_f</text>
<text text-anchor="middle" x="1235.55" y="-608.61" font-family="Times,serif" font-size="14.00">~</text>
<text text-anchor="middle" x="1235.55" y="-593.61" font-family="Times,serif" font-size="14.00">Gamma</text>
</g>
<!-- f -->
<g id="node12" class="node">
<title>f</title>
<polygon fill="none" stroke="black" points="1068.05,-527.86 977.05,-527.86 977.05,-474.86 1068.05,-474.86 1068.05,-527.86"/>
<text text-anchor="middle" x="1022.55" y="-512.66" font-family="Times,serif" font-size="14.00">f</text>
<text text-anchor="middle" x="1022.55" y="-497.66" font-family="Times,serif" font-size="14.00">~</text>
<text text-anchor="middle" x="1022.55" y="-482.66" font-family="Times,serif" font-size="14.00">Deterministic</text>
</g>
<!-- sigma_f&#45;&gt;f -->
<g id="edge7" class="edge">
<title>sigma_f&#45;&gt;f</title>
<path fill="none" stroke="black" d="M1203.71,-586.85C1197.25,-582.5 1190.34,-578.27 1183.55,-574.84 1138.77,-552.2 1121.52,-561.08 1076.55,-538.84 1073.05,-537.11 1069.52,-535.18 1066.03,-533.15"/>
<polygon fill="black" stroke="black" points="1067.81,-530.14 1057.45,-527.91 1064.16,-536.11 1067.81,-530.14"/>
</g>
<!-- alpha -->
<g id="node9" class="node">
<title>alpha</title>
<ellipse fill="none" stroke="black" cx="711.55" cy="-187.43" rx="43.27" ry="37.45"/>
<text text-anchor="middle" x="711.55" y="-198.73" font-family="Times,serif" font-size="14.00">alpha</text>
<text text-anchor="middle" x="711.55" y="-183.73" font-family="Times,serif" font-size="14.00">~</text>
<text text-anchor="middle" x="711.55" y="-168.73" font-family="Times,serif" font-size="14.00">Gamma</text>
</g>
<!-- ct_final -->
<g id="node29" class="node">
<title>ct_final</title>
<ellipse fill="lightgrey" stroke="black" cx="570.55" cy="-76.48" rx="63.78" ry="37.45"/>
<text text-anchor="middle" x="570.55" y="-87.78" font-family="Times,serif" font-size="14.00">ct_final</text>
<text text-anchor="middle" x="570.55" y="-72.78" font-family="Times,serif" font-size="14.00">~</text>
<text text-anchor="middle" x="570.55" y="-57.78" font-family="Times,serif" font-size="14.00">NegBinomial</text>
</g>
<!-- alpha&#45;&gt;ct_final -->
<g id="edge29" class="edge">
<title>alpha&#45;&gt;ct_final</title>
<path fill="none" stroke="black" d="M679.96,-161.89C674.81,-157.9 669.53,-153.81 664.55,-149.95 649.01,-137.93 632,-124.81 616.78,-113.08"/>
<polygon fill="black" stroke="black" points="618.59,-110.05 608.53,-106.72 614.31,-115.6 618.59,-110.05"/>
</g>
<!-- sigma_a -->
<g id="node10" class="node">
<title>sigma_a</title>
<ellipse fill="none" stroke="black" cx="1129.55" cy="-501.36" rx="43.68" ry="37.45"/>
<text text-anchor="middle" x="1129.55" y="-512.66" font-family="Times,serif" font-size="14.00">sigma_a</text>
<text text-anchor="middle" x="1129.55" y="-497.66" font-family="Times,serif" font-size="14.00">~</text>
<text text-anchor="middle" x="1129.55" y="-482.66" font-family="Times,serif" font-size="14.00">Gamma</text>
</g>
<!-- a -->
<g id="node11" class="node">
<title>a</title>
<ellipse fill="none" stroke="black" cx="848.55" cy="-390.38" rx="41.94" ry="37.45"/>
<text text-anchor="middle" x="848.55" y="-401.68" font-family="Times,serif" font-size="14.00">a</text>
<text text-anchor="middle" x="848.55" y="-386.68" font-family="Times,serif" font-size="14.00">~</text>
<text text-anchor="middle" x="848.55" y="-371.68" font-family="Times,serif" font-size="14.00">Normal</text>
</g>
<!-- sigma_a&#45;&gt;a -->
<g id="edge1" class="edge">
<title>sigma_a&#45;&gt;a</title>
<path fill="none" stroke="black" d="M1109.18,-468.13C1101.45,-458.63 1091.75,-449.32 1080.55,-443.86 1048.54,-428.27 954.54,-446.44 920.55,-435.86 909.48,-432.42 898.4,-426.87 888.36,-420.85"/>
<polygon fill="black" stroke="black" points="890.16,-417.84 879.83,-415.47 886.42,-423.76 890.16,-417.84"/>
</g>
<!-- a&#45;&gt;eta -->
<g id="edge23" class="edge">
<title>a&#45;&gt;eta</title>
<path fill="none" stroke="black" d="M820.54,-362C804.72,-348 783.87,-331.85 762.55,-321.91 730.02,-306.73 690.55,-298.37 659.08,-293.79"/>
<polygon fill="black" stroke="black" points="659.54,-290.32 649.16,-292.43 658.59,-297.26 659.54,-290.32"/>
</g>
<!-- cell_line_effect -->
<g id="node27" class="node">
<title>cell_line_effect</title>
<polygon fill="none" stroke="black" points="652.05,-416.88 551.05,-416.88 551.05,-363.88 652.05,-363.88 652.05,-416.88"/>
<text text-anchor="middle" x="601.55" y="-401.68" font-family="Times,serif" font-size="14.00">cell_line_effect</text>
<text text-anchor="middle" x="601.55" y="-386.68" font-family="Times,serif" font-size="14.00">~</text>
<text text-anchor="middle" x="601.55" y="-371.68" font-family="Times,serif" font-size="14.00">Deterministic</text>
</g>
<!-- f&#45;&gt;cell_line_effect -->
<g id="edge19" class="edge">
<title>f&#45;&gt;cell_line_effect</title>
<path fill="none" stroke="black" d="M1005.39,-474.75C996.02,-463.07 983.31,-450.4 968.55,-443.86 937.25,-429.99 692.87,-447.15 660.55,-435.86 652.19,-432.94 644.05,-428.37 636.62,-423.24"/>
<polygon fill="black" stroke="black" points="638.37,-420.18 628.26,-417.03 634.2,-425.8 638.37,-420.18"/>
</g>
<!-- delta_b -->
<g id="node13" class="node">
<title>delta_b</title>
<ellipse fill="none" stroke="black" cx="913.55" cy="-612.31" rx="41.94" ry="37.45"/>
<text text-anchor="middle" x="913.55" y="-623.61" font-family="Times,serif" font-size="14.00">delta_b</text>
<text text-anchor="middle" x="913.55" y="-608.61" font-family="Times,serif" font-size="14.00">~</text>
<text text-anchor="middle" x="913.55" y="-593.61" font-family="Times,serif" font-size="14.00">Normal</text>
</g>
<!-- delta_b&#45;&gt;b -->
<g id="edge2" class="edge">
<title>delta_b&#45;&gt;b</title>
<path fill="none" stroke="black" d="M913.55,-574.73C913.55,-562.99 913.55,-550.01 913.55,-538.31"/>
<polygon fill="black" stroke="black" points="917.05,-538.01 913.55,-528.01 910.05,-538.01 917.05,-538.01"/>
</g>
<!-- delta_f -->
<g id="node14" class="node">
<title>delta_f</title>
<ellipse fill="none" stroke="black" cx="1022.55" cy="-612.31" rx="41.94" ry="37.45"/>
<text text-anchor="middle" x="1022.55" y="-623.61" font-family="Times,serif" font-size="14.00">delta_f</text>
<text text-anchor="middle" x="1022.55" y="-608.61" font-family="Times,serif" font-size="14.00">~</text>
<text text-anchor="middle" x="1022.55" y="-593.61" font-family="Times,serif" font-size="14.00">Normal</text>
</g>
<!-- delta_f&#45;&gt;f -->
<g id="edge6" class="edge">
<title>delta_f&#45;&gt;f</title>
<path fill="none" stroke="black" d="M1022.55,-574.73C1022.55,-562.99 1022.55,-550.01 1022.55,-538.31"/>
<polygon fill="black" stroke="black" points="1026.05,-538.01 1022.55,-528.01 1019.05,-538.01 1026.05,-538.01"/>
</g>
<!-- b&#45;&gt;cell_line_effect -->
<g id="edge20" class="edge">
<title>b&#45;&gt;cell_line_effect</title>
<path fill="none" stroke="black" d="M867.81,-494.28C815.66,-486.1 728.78,-468.64 660.55,-435.86 653.23,-432.35 645.93,-427.85 639.07,-423.08"/>
<polygon fill="black" stroke="black" points="640.81,-420.01 630.67,-416.93 636.68,-425.66 640.81,-420.01"/>
</g>
<!-- delta_m -->
<g id="node16" class="node">
<title>delta_m</title>
<ellipse fill="none" stroke="black" cx="260.55" cy="-612.31" rx="43.27" ry="37.45"/>
<text text-anchor="middle" x="260.55" y="-623.61" font-family="Times,serif" font-size="14.00">delta_m</text>
<text text-anchor="middle" x="260.55" y="-608.61" font-family="Times,serif" font-size="14.00">~</text>
<text text-anchor="middle" x="260.55" y="-593.61" font-family="Times,serif" font-size="14.00">Normal</text>
</g>
<!-- delta_m&#45;&gt;m -->
<g id="edge12" class="edge">
<title>delta_m&#45;&gt;m</title>
<path fill="none" stroke="black" d="M260.55,-574.73C260.55,-562.99 260.55,-550.01 260.55,-538.31"/>
<polygon fill="black" stroke="black" points="264.05,-538.01 260.55,-528.01 257.05,-538.01 264.05,-538.01"/>
</g>
<!-- gene_effect -->
<g id="node28" class="node">
<title>gene_effect</title>
<polygon fill="none" stroke="black" points="533.05,-416.88 442.05,-416.88 442.05,-363.88 533.05,-363.88 533.05,-416.88"/>
<text text-anchor="middle" x="487.55" y="-401.68" font-family="Times,serif" font-size="14.00">gene_effect</text>
<text text-anchor="middle" x="487.55" y="-386.68" font-family="Times,serif" font-size="14.00">~</text>
<text text-anchor="middle" x="487.55" y="-371.68" font-family="Times,serif" font-size="14.00">Deterministic</text>
</g>
<!-- d&#45;&gt;gene_effect -->
<g id="edge17" class="edge">
<title>d&#45;&gt;gene_effect</title>
<path fill="none" stroke="black" d="M480.66,-474.81C481.82,-460.7 483.29,-442.95 484.57,-427.45"/>
<polygon fill="black" stroke="black" points="488.08,-427.41 485.42,-417.15 481.11,-426.83 488.08,-427.41"/>
</g>
<!-- k&#45;&gt;gene_effect -->
<g id="edge16" class="edge">
<title>k&#45;&gt;gene_effect</title>
<path fill="none" stroke="black" d="M393.37,-474.77C402.85,-464.88 414,-453.62 424.55,-443.86 431.91,-437.04 440,-430 447.85,-423.38"/>
<polygon fill="black" stroke="black" points="450.16,-426.01 455.59,-416.91 445.67,-420.64 450.16,-426.01"/>
</g>
<!-- m&#45;&gt;gene_effect -->
<g id="edge18" class="edge">
<title>m&#45;&gt;gene_effect</title>
<path fill="none" stroke="black" d="M280.5,-474.7C290.08,-463.86 302.34,-451.91 315.55,-443.86 351.21,-422.12 396.58,-408.77 431.76,-400.98"/>
<polygon fill="black" stroke="black" points="432.81,-404.33 441.87,-398.83 431.36,-397.49 432.81,-404.33"/>
</g>
<!-- delta_h -->
<g id="node20" class="node">
<title>delta_h</title>
<ellipse fill="none" stroke="black" cx="151.55" cy="-612.31" rx="41.94" ry="37.45"/>
<text text-anchor="middle" x="151.55" y="-623.61" font-family="Times,serif" font-size="14.00">delta_h</text>
<text text-anchor="middle" x="151.55" y="-608.61" font-family="Times,serif" font-size="14.00">~</text>
<text text-anchor="middle" x="151.55" y="-593.61" font-family="Times,serif" font-size="14.00">Normal</text>
</g>
<!-- delta_h&#45;&gt;h -->
<g id="edge8" class="edge">
<title>delta_h&#45;&gt;h</title>
<path fill="none" stroke="black" d="M151.55,-574.73C151.55,-562.99 151.55,-550.01 151.55,-538.31"/>
<polygon fill="black" stroke="black" points="155.05,-538.01 151.55,-528.01 148.05,-538.01 155.05,-538.01"/>
</g>
<!-- h&#45;&gt;gene_effect -->
<g id="edge15" class="edge">
<title>h&#45;&gt;gene_effect</title>
<path fill="none" stroke="black" d="M170.59,-474.59C180.16,-463.45 192.67,-451.29 206.55,-443.86 277.94,-405.62 372.51,-394.81 431.69,-392"/>
<polygon fill="black" stroke="black" points="432.11,-395.48 441.95,-391.57 431.82,-388.49 432.11,-395.48"/>
</g>
<!-- delta_k -->
<g id="node22" class="node">
<title>delta_k</title>
<ellipse fill="none" stroke="black" cx="369.55" cy="-612.31" rx="41.94" ry="37.45"/>
<text text-anchor="middle" x="369.55" y="-623.61" font-family="Times,serif" font-size="14.00">delta_k</text>
<text text-anchor="middle" x="369.55" y="-608.61" font-family="Times,serif" font-size="14.00">~</text>
<text text-anchor="middle" x="369.55" y="-593.61" font-family="Times,serif" font-size="14.00">Normal</text>
</g>
<!-- delta_k&#45;&gt;k -->
<g id="edge11" class="edge">
<title>delta_k&#45;&gt;k</title>
<path fill="none" stroke="black" d="M369.55,-574.73C369.55,-562.99 369.55,-550.01 369.55,-538.31"/>
<polygon fill="black" stroke="black" points="373.05,-538.01 369.55,-528.01 366.05,-538.01 373.05,-538.01"/>
</g>
<!-- delta_d -->
<g id="node23" class="node">
<title>delta_d</title>
<ellipse fill="none" stroke="black" cx="478.55" cy="-612.31" rx="41.94" ry="37.45"/>
<text text-anchor="middle" x="478.55" y="-623.61" font-family="Times,serif" font-size="14.00">delta_d</text>
<text text-anchor="middle" x="478.55" y="-608.61" font-family="Times,serif" font-size="14.00">~</text>
<text text-anchor="middle" x="478.55" y="-593.61" font-family="Times,serif" font-size="14.00">Normal</text>
</g>
<!-- delta_d&#45;&gt;d -->
<g id="edge5" class="edge">
<title>delta_d&#45;&gt;d</title>
<path fill="none" stroke="black" d="M478.55,-574.73C478.55,-562.99 478.55,-550.01 478.55,-538.31"/>
<polygon fill="black" stroke="black" points="482.05,-538.01 478.55,-528.01 475.05,-538.01 482.05,-538.01"/>
</g>
<!-- p&#45;&gt;eta -->
<g id="edge24" class="edge">
<title>p&#45;&gt;eta</title>
<path fill="none" stroke="black" d="M966.9,-362.56C949.61,-348 926.36,-331.13 902.55,-321.91 859.46,-305.21 733.11,-295.59 659.17,-291.24"/>
<polygon fill="black" stroke="black" points="659.28,-287.74 649.1,-290.66 658.88,-294.73 659.28,-287.74"/>
</g>
<!-- mu -->
<g id="node26" class="node">
<title>mu</title>
<polygon fill="none" stroke="black" points="634.05,-213.93 543.05,-213.93 543.05,-160.93 634.05,-160.93 634.05,-213.93"/>
<text text-anchor="middle" x="588.55" y="-198.73" font-family="Times,serif" font-size="14.00">mu</text>
<text text-anchor="middle" x="588.55" y="-183.73" font-family="Times,serif" font-size="14.00">~</text>
<text text-anchor="middle" x="588.55" y="-168.73" font-family="Times,serif" font-size="14.00">Deterministic</text>
</g>
<!-- eta&#45;&gt;mu -->
<g id="edge26" class="edge">
<title>eta&#45;&gt;mu</title>
<path fill="none" stroke="black" d="M599.61,-260.66C597.9,-249.53 595.88,-236.3 594.03,-224.23"/>
<polygon fill="black" stroke="black" points="597.44,-223.36 592.46,-214 590.52,-224.41 597.44,-223.36"/>
</g>
<!-- mu&#45;&gt;ct_final -->
<g id="edge28" class="edge">
<title>mu&#45;&gt;ct_final</title>
<path fill="none" stroke="black" d="M584.33,-160.89C582.51,-149.87 580.32,-136.63 578.23,-123.97"/>
<polygon fill="black" stroke="black" points="581.67,-123.3 576.58,-114 574.76,-124.44 581.67,-123.3"/>
</g>
<!-- cell_line_effect&#45;&gt;eta -->
<g id="edge21" class="edge">
<title>cell_line_effect&#45;&gt;eta</title>
<path fill="none" stroke="black" d="M602.06,-363.64C602.3,-351.65 602.58,-337.19 602.84,-324.17"/>
<polygon fill="black" stroke="black" points="606.34,-324.17 603.04,-314.1 599.34,-324.03 606.34,-324.17"/>
</g>
<!-- gene_effect&#45;&gt;eta -->
<g id="edge25" class="edge">
<title>gene_effect&#45;&gt;eta</title>
<path fill="none" stroke="black" d="M504.85,-363.63C514.79,-350.11 528.15,-333.9 542.55,-321.91 544.77,-320.06 547.1,-318.26 549.52,-316.53"/>
<polygon fill="black" stroke="black" points="551.6,-319.34 557.95,-310.86 547.7,-313.53 551.6,-319.34"/>
</g>
<!-- ct_final&#45;&gt;ct_final -->
<g id="edge27" class="edge">
<title>ct_final&#45;&gt;ct_final</title>
<path fill="none" stroke="black" d="M623.94,-97.06C639.83,-96.44 652.19,-89.58 652.19,-76.48 652.19,-66.34 644.79,-59.94 634.09,-57.28"/>
<polygon fill="black" stroke="black" points="634.32,-53.78 623.94,-55.9 633.38,-60.71 634.32,-53.78"/>
</g>
</g>
</svg>
