<?xml version="1.0" encoding="UTF-8" standalone="no"?>
<!DOCTYPE svg PUBLIC "-//W3C//DTD SVG 1.1//EN"
 "http://www.w3.org/Graphics/SVG/1.1/DTD/svg11.dtd">
<!-- Generated by graphviz version 2.42.3 (20191010.1750)
 -->
<!-- Title: %3 Pages: 1 -->
<svg width="1235pt" height="308pt"
 viewBox="0.00 0.00 1235.28 308.00" xmlns="http://www.w3.org/2000/svg" xmlns:xlink="http://www.w3.org/1999/xlink">
<g id="graph0" class="graph" transform="scale(1 1) rotate(0) translate(4 304)">
<title>%3</title>
<polygon fill="white" stroke="transparent" points="-4,4 -4,-304 1231.28,-304 1231.28,4 -4,4"/>
<g id="clust1" class="cluster">
<title>cluster5</title>
<path fill="none" stroke="black" d="M282.2,-162C282.2,-162 580.2,-162 580.2,-162 586.2,-162 592.2,-168 592.2,-174 592.2,-174 592.2,-224 592.2,-224 592.2,-230 586.2,-236 580.2,-236 580.2,-236 282.2,-236 282.2,-236 276.2,-236 270.2,-230 270.2,-224 270.2,-224 270.2,-174 270.2,-174 270.2,-168 276.2,-162 282.2,-162"/>
<text text-anchor="middle" x="580.7" y="-168.8" font-family="Times,serif" font-size="14.00">5</text>
</g>
<g id="clust2" class="cluster">
<title>cluster20</title>
<path fill="none" stroke="black" d="M842.2,-162C842.2,-162 996.2,-162 996.2,-162 1002.2,-162 1008.2,-168 1008.2,-174 1008.2,-174 1008.2,-224 1008.2,-224 1008.2,-230 1002.2,-236 996.2,-236 996.2,-236 842.2,-236 842.2,-236 836.2,-236 830.2,-230 830.2,-224 830.2,-224 830.2,-174 830.2,-174 830.2,-168 836.2,-162 842.2,-162"/>
<text text-anchor="middle" x="993.2" y="-168.8" font-family="Times,serif" font-size="14.00">20</text>
</g>
<g id="clust3" class="cluster">
<title>cluster300</title>
<path fill="none" stroke="black" d="M446.2,-8C446.2,-8 582.2,-8 582.2,-8 588.2,-8 594.2,-14 594.2,-20 594.2,-20 594.2,-142 594.2,-142 594.2,-148 588.2,-154 582.2,-154 582.2,-154 446.2,-154 446.2,-154 440.2,-154 434.2,-148 434.2,-142 434.2,-142 434.2,-20 434.2,-20 434.2,-14 440.2,-8 446.2,-8"/>
<text text-anchor="middle" x="575.7" y="-14.8" font-family="Times,serif" font-size="14.00">300</text>
</g>
<!-- sigma -->
<g id="node1" class="node">
<title>sigma</title>
<ellipse fill="none" stroke="black" cx="340.2" cy="-128" rx="83.34" ry="18"/>
<text text-anchor="middle" x="340.2" y="-123.8" font-family="Times,serif" font-size="14.00">sigma ~ Exponential</text>
</g>
<!-- logfc -->
<g id="node12" class="node">
<title>logfc</title>
<ellipse fill="lightgrey" stroke="black" cx="510.2" cy="-56" rx="64.5" ry="18"/>
<text text-anchor="middle" x="510.2" y="-51.8" font-family="Times,serif" font-size="14.00">logfc ~ Normal</text>
</g>
<!-- sigma&#45;&gt;logfc -->
<g id="edge11" class="edge">
<title>sigma&#45;&gt;logfc</title>
<path fill="none" stroke="black" d="M377.09,-111.81C403.21,-101.06 438.36,-86.58 465.99,-75.21"/>
<polygon fill="black" stroke="black" points="467.5,-78.37 475.42,-71.32 464.84,-71.89 467.5,-78.37"/>
</g>
<!-- sigma_gamma -->
<g id="node2" class="node">
<title>sigma_gamma</title>
<ellipse fill="none" stroke="black" cx="919.2" cy="-282" rx="113.74" ry="18"/>
<text text-anchor="middle" x="919.2" y="-277.8" font-family="Times,serif" font-size="14.00">sigma_gamma ~ Exponential</text>
</g>
<!-- gamma_c -->
<g id="node10" class="node">
<title>gamma_c</title>
<ellipse fill="none" stroke="black" cx="919.2" cy="-210" rx="80.91" ry="18"/>
<text text-anchor="middle" x="919.2" y="-205.8" font-family="Times,serif" font-size="14.00">gamma_c ~ Normal</text>
</g>
<!-- sigma_gamma&#45;&gt;gamma_c -->
<g id="edge4" class="edge">
<title>sigma_gamma&#45;&gt;gamma_c</title>
<path fill="none" stroke="black" d="M919.2,-263.7C919.2,-255.98 919.2,-246.71 919.2,-238.11"/>
<polygon fill="black" stroke="black" points="922.7,-238.1 919.2,-228.1 915.7,-238.1 922.7,-238.1"/>
</g>
<!-- mu_gamma -->
<g id="node3" class="node">
<title>mu_gamma</title>
<ellipse fill="none" stroke="black" cx="1139.2" cy="-282" rx="88.16" ry="18"/>
<text text-anchor="middle" x="1139.2" y="-277.8" font-family="Times,serif" font-size="14.00">mu_gamma ~ Normal</text>
</g>
<!-- mu_gamma&#45;&gt;gamma_c -->
<g id="edge3" class="edge">
<title>mu_gamma&#45;&gt;gamma_c</title>
<path fill="none" stroke="black" d="M1093.62,-266.5C1058.61,-255.36 1010.16,-239.94 973.21,-228.19"/>
<polygon fill="black" stroke="black" points="974.19,-224.82 963.6,-225.13 972.07,-231.49 974.19,-224.82"/>
</g>
<!-- mu_alpha -->
<g id="node4" class="node">
<title>mu_alpha</title>
<ellipse fill="none" stroke="black" cx="81.2" cy="-282" rx="81.4" ry="18"/>
<text text-anchor="middle" x="81.2" y="-277.8" font-family="Times,serif" font-size="14.00">mu_alpha ~ Normal</text>
</g>
<!-- alpha_g -->
<g id="node8" class="node">
<title>alpha_g</title>
<ellipse fill="none" stroke="black" cx="352.2" cy="-210" rx="74.14" ry="18"/>
<text text-anchor="middle" x="352.2" y="-205.8" font-family="Times,serif" font-size="14.00">alpha_g ~ Normal</text>
</g>
<!-- mu_alpha&#45;&gt;alpha_g -->
<g id="edge1" class="edge">
<title>mu_alpha&#45;&gt;alpha_g</title>
<path fill="none" stroke="black" d="M131.86,-267.92C177.62,-256.09 245,-238.69 293.19,-226.24"/>
<polygon fill="black" stroke="black" points="294.36,-229.56 303.16,-223.67 292.61,-222.78 294.36,-229.56"/>
</g>
<!-- sigma_beta -->
<g id="node5" class="node">
<title>sigma_beta</title>
<ellipse fill="none" stroke="black" cx="514.2" cy="-282" rx="102.14" ry="18"/>
<text text-anchor="middle" x="514.2" y="-277.8" font-family="Times,serif" font-size="14.00">sigma_beta ~ Exponential</text>
</g>
<!-- beta_g -->
<g id="node9" class="node">
<title>beta_g</title>
<ellipse fill="none" stroke="black" cx="514.2" cy="-210" rx="69.8" ry="18"/>
<text text-anchor="middle" x="514.2" y="-205.8" font-family="Times,serif" font-size="14.00">beta_g ~ Normal</text>
</g>
<!-- sigma_beta&#45;&gt;beta_g -->
<g id="edge5" class="edge">
<title>sigma_beta&#45;&gt;beta_g</title>
<path fill="none" stroke="black" d="M514.2,-263.7C514.2,-255.98 514.2,-246.71 514.2,-238.11"/>
<polygon fill="black" stroke="black" points="517.7,-238.1 514.2,-228.1 510.7,-238.1 517.7,-238.1"/>
</g>
<!-- mu_beta -->
<g id="node6" class="node">
<title>mu_beta</title>
<ellipse fill="none" stroke="black" cx="711.2" cy="-282" rx="76.56" ry="18"/>
<text text-anchor="middle" x="711.2" y="-277.8" font-family="Times,serif" font-size="14.00">mu_beta ~ Normal</text>
</g>
<!-- mu_beta&#45;&gt;beta_g -->
<g id="edge6" class="edge">
<title>mu_beta&#45;&gt;beta_g</title>
<path fill="none" stroke="black" d="M670.86,-266.67C639.61,-255.56 596.19,-240.14 562.99,-228.34"/>
<polygon fill="black" stroke="black" points="564.07,-225.01 553.48,-224.96 561.73,-231.6 564.07,-225.01"/>
</g>
<!-- sigma_alpha -->
<g id="node7" class="node">
<title>sigma_alpha</title>
<ellipse fill="none" stroke="black" cx="287.2" cy="-282" rx="106.98" ry="18"/>
<text text-anchor="middle" x="287.2" y="-277.8" font-family="Times,serif" font-size="14.00">sigma_alpha ~ Exponential</text>
</g>
<!-- sigma_alpha&#45;&gt;alpha_g -->
<g id="edge2" class="edge">
<title>sigma_alpha&#45;&gt;alpha_g</title>
<path fill="none" stroke="black" d="M302.93,-264.05C310.92,-255.46 320.76,-244.86 329.55,-235.4"/>
<polygon fill="black" stroke="black" points="332.37,-237.5 336.61,-227.79 327.24,-232.74 332.37,-237.5"/>
</g>
<!-- mu_gc -->
<g id="node11" class="node">
<title>mu_gc</title>
<polygon fill="none" stroke="black" points="586.58,-146 441.82,-146 441.82,-110 586.58,-110 586.58,-146"/>
<text text-anchor="middle" x="514.2" y="-123.8" font-family="Times,serif" font-size="14.00">mu_gc ~ Deterministic</text>
</g>
<!-- alpha_g&#45;&gt;mu_gc -->
<g id="edge7" class="edge">
<title>alpha_g&#45;&gt;mu_gc</title>
<path fill="none" stroke="black" d="M378.68,-192.93C394.77,-183.44 415.87,-171.47 435.2,-162 443.53,-157.92 452.5,-153.87 461.29,-150.07"/>
<polygon fill="black" stroke="black" points="462.89,-153.19 470.73,-146.06 460.16,-146.75 462.89,-153.19"/>
</g>
<!-- beta_g&#45;&gt;mu_gc -->
<g id="edge9" class="edge">
<title>beta_g&#45;&gt;mu_gc</title>
<path fill="none" stroke="black" d="M514.2,-191.64C514.2,-181.3 514.2,-167.94 514.2,-156.22"/>
<polygon fill="black" stroke="black" points="517.7,-156.05 514.2,-146.05 510.7,-156.05 517.7,-156.05"/>
</g>
<!-- gamma_c&#45;&gt;mu_gc -->
<g id="edge8" class="edge">
<title>gamma_c&#45;&gt;mu_gc</title>
<path fill="none" stroke="black" d="M860.74,-197.45C791.31,-183.74 675.05,-160.77 596.54,-145.26"/>
<polygon fill="black" stroke="black" points="597.16,-141.82 586.68,-143.32 595.81,-148.69 597.16,-141.82"/>
</g>
<!-- mu_gc&#45;&gt;logfc -->
<g id="edge10" class="edge">
<title>mu_gc&#45;&gt;logfc</title>
<path fill="none" stroke="black" d="M513.21,-109.7C512.77,-101.98 512.24,-92.71 511.75,-84.11"/>
<polygon fill="black" stroke="black" points="515.24,-83.89 511.18,-74.1 508.25,-84.29 515.24,-83.89"/>
</g>
</g>
</svg>
