<?xml version="1.0" encoding="UTF-8" standalone="no"?>
<!DOCTYPE svg PUBLIC "-//W3C//DTD SVG 1.1//EN"
 "http://www.w3.org/Graphics/SVG/1.1/DTD/svg11.dtd">
<!-- Generated by graphviz version 2.42.3 (20191010.1750)
 -->
<!-- Title: %3 Pages: 1 -->
<svg width="799pt" height="465pt"
 viewBox="0.00 0.00 798.93 465.00" xmlns="http://www.w3.org/2000/svg" xmlns:xlink="http://www.w3.org/1999/xlink">
<g id="graph0" class="graph" transform="scale(1 1) rotate(0) translate(4 461)">
<title>%3</title>
<polygon fill="white" stroke="transparent" points="-4,4 -4,-461 794.93,-461 794.93,4 -4,4"/>
<g id="clust1" class="cluster">
<title>cluster5</title>
<path fill="none" stroke="black" d="M400.69,-318C400.69,-318 556.69,-318 556.69,-318 562.69,-318 568.69,-324 568.69,-330 568.69,-330 568.69,-381 568.69,-381 568.69,-387 562.69,-393 556.69,-393 556.69,-393 400.69,-393 400.69,-393 394.69,-393 388.69,-387 388.69,-381 388.69,-381 388.69,-330 388.69,-330 388.69,-324 394.69,-318 400.69,-318"/>
<text text-anchor="middle" x="557.19" y="-325.8" font-family="Times,serif" font-size="14.00">5</text>
</g>
<g id="clust2" class="cluster">
<title>cluster15</title>
<path fill="none" stroke="black" d="M402.69,-163C402.69,-163 554.69,-163 554.69,-163 560.69,-163 566.69,-169 566.69,-175 566.69,-175 566.69,-298 566.69,-298 566.69,-304 560.69,-310 554.69,-310 554.69,-310 402.69,-310 402.69,-310 396.69,-310 390.69,-304 390.69,-298 390.69,-298 390.69,-175 390.69,-175 390.69,-169 396.69,-163 402.69,-163"/>
<text text-anchor="middle" x="551.69" y="-170.8" font-family="Times,serif" font-size="14.00">15</text>
</g>
<g id="clust3" class="cluster">
<title>cluster20</title>
<path fill="none" stroke="black" d="M234.69,-163C234.69,-163 368.69,-163 368.69,-163 374.69,-163 380.69,-169 380.69,-175 380.69,-175 380.69,-226 380.69,-226 380.69,-232 374.69,-238 368.69,-238 368.69,-238 234.69,-238 234.69,-238 228.69,-238 222.69,-232 222.69,-226 222.69,-226 222.69,-175 222.69,-175 222.69,-169 228.69,-163 234.69,-163"/>
<text text-anchor="middle" x="365.69" y="-170.8" font-family="Times,serif" font-size="14.00">20</text>
</g>
<g id="clust4" class="cluster">
<title>cluster300</title>
<path fill="none" stroke="black" d="M320.69,-8C320.69,-8 460.69,-8 460.69,-8 466.69,-8 472.69,-14 472.69,-20 472.69,-20 472.69,-143 472.69,-143 472.69,-149 466.69,-155 460.69,-155 460.69,-155 320.69,-155 320.69,-155 314.69,-155 308.69,-149 308.69,-143 308.69,-143 308.69,-20 308.69,-20 308.69,-14 314.69,-8 320.69,-8"/>
<text text-anchor="middle" x="454.19" y="-15.8" font-family="Times,serif" font-size="14.00">300</text>
</g>
<!-- sigma_beta -->
<g id="node1" class="node">
<title>sigma_beta</title>
<ellipse fill="none" stroke="black" cx="102.69" cy="-284" rx="102.88" ry="18"/>
<text text-anchor="middle" x="102.69" y="-280.3" font-family="Times,serif" font-size="14.00">sigma_beta ~ Exponential</text>
</g>
<!-- beta_c -->
<g id="node10" class="node">
<title>beta_c</title>
<ellipse fill="none" stroke="black" cx="301.69" cy="-212" rx="70.69" ry="18"/>
<text text-anchor="middle" x="301.69" y="-208.3" font-family="Times,serif" font-size="14.00">beta_c ~ Normal</text>
</g>
<!-- sigma_beta&#45;&gt;beta_c -->
<g id="edge6" class="edge">
<title>sigma_beta&#45;&gt;beta_c</title>
<path fill="none" stroke="black" d="M146.36,-267.64C177.57,-256.66 219.62,-241.87 252.09,-230.45"/>
<polygon fill="black" stroke="black" points="253.57,-233.64 261.84,-227.02 251.24,-227.03 253.57,-233.64"/>
</g>
<!-- mu_epsilon -->
<g id="node2" class="node">
<title>mu_epsilon</title>
<ellipse fill="none" stroke="black" cx="368.69" cy="-439" rx="89.08" ry="18"/>
<text text-anchor="middle" x="368.69" y="-435.3" font-family="Times,serif" font-size="14.00">mu_epsilon ~ Normal</text>
</g>
<!-- epsilon_g -->
<g id="node7" class="node">
<title>epsilon_g</title>
<ellipse fill="none" stroke="black" cx="478.69" cy="-367" rx="81.79" ry="18"/>
<text text-anchor="middle" x="478.69" y="-363.3" font-family="Times,serif" font-size="14.00">epsilon_g ~ Normal</text>
</g>
<!-- mu_epsilon&#45;&gt;epsilon_g -->
<g id="edge1" class="edge">
<title>mu_epsilon&#45;&gt;epsilon_g</title>
<path fill="none" stroke="black" d="M394.48,-421.59C409.38,-412.11 428.3,-400.07 444.43,-389.8"/>
<polygon fill="black" stroke="black" points="446.5,-392.63 453.06,-384.31 442.75,-386.73 446.5,-392.63"/>
</g>
<!-- sigma_epsilon -->
<g id="node3" class="node">
<title>sigma_epsilon</title>
<ellipse fill="none" stroke="black" cx="589.69" cy="-439" rx="113.98" ry="18"/>
<text text-anchor="middle" x="589.69" y="-435.3" font-family="Times,serif" font-size="14.00">sigma_epsilon ~ Exponential</text>
</g>
<!-- sigma_epsilon&#45;&gt;epsilon_g -->
<g id="edge2" class="edge">
<title>sigma_epsilon&#45;&gt;epsilon_g</title>
<path fill="none" stroke="black" d="M563.39,-421.41C548.35,-411.93 529.31,-399.92 513.1,-389.7"/>
<polygon fill="black" stroke="black" points="514.75,-386.6 504.42,-384.23 511.02,-392.52 514.75,-386.6"/>
</g>
<!-- sigma -->
<g id="node4" class="node">
<title>sigma</title>
<ellipse fill="none" stroke="black" cx="566.69" cy="-129" rx="83.69" ry="18"/>
<text text-anchor="middle" x="566.69" y="-125.3" font-family="Times,serif" font-size="14.00">sigma ~ Exponential</text>
</g>
<!-- logfc -->
<g id="node12" class="node">
<title>logfc</title>
<ellipse fill="lightgrey" stroke="black" cx="394.69" cy="-57" rx="65.79" ry="18"/>
<text text-anchor="middle" x="394.69" y="-53.3" font-family="Times,serif" font-size="14.00">logfc ~ Normal</text>
</g>
<!-- sigma&#45;&gt;logfc -->
<g id="edge10" class="edge">
<title>sigma&#45;&gt;logfc</title>
<path fill="none" stroke="black" d="M529.37,-112.81C502.94,-102.06 467.37,-87.58 439.43,-76.21"/>
<polygon fill="black" stroke="black" points="440.47,-72.85 429.89,-72.32 437.83,-79.33 440.47,-72.85"/>
</g>
<!-- sigma_alpha -->
<g id="node5" class="node">
<title>sigma_alpha</title>
<ellipse fill="none" stroke="black" cx="683.69" cy="-284" rx="107.48" ry="18"/>
<text text-anchor="middle" x="683.69" y="-280.3" font-family="Times,serif" font-size="14.00">sigma_alpha ~ Exponential</text>
</g>
<!-- alpha_s -->
<g id="node9" class="node">
<title>alpha_s</title>
<ellipse fill="none" stroke="black" cx="478.69" cy="-212" rx="74.99" ry="18"/>
<text text-anchor="middle" x="478.69" y="-208.3" font-family="Times,serif" font-size="14.00">alpha_s ~ Normal</text>
</g>
<!-- sigma_alpha&#45;&gt;alpha_s -->
<g id="edge4" class="edge">
<title>sigma_alpha&#45;&gt;alpha_s</title>
<path fill="none" stroke="black" d="M638.7,-267.64C606.52,-256.65 563.16,-241.84 529.69,-230.41"/>
<polygon fill="black" stroke="black" points="530.68,-227.05 520.09,-227.14 528.42,-233.68 530.68,-227.05"/>
</g>
<!-- mu_beta -->
<g id="node6" class="node">
<title>mu_beta</title>
<ellipse fill="none" stroke="black" cx="301.69" cy="-284" rx="78.79" ry="18"/>
<text text-anchor="middle" x="301.69" y="-280.3" font-family="Times,serif" font-size="14.00">mu_beta ~ Normal</text>
</g>
<!-- mu_beta&#45;&gt;beta_c -->
<g id="edge7" class="edge">
<title>mu_beta&#45;&gt;beta_c</title>
<path fill="none" stroke="black" d="M301.69,-265.7C301.69,-257.98 301.69,-248.71 301.69,-240.11"/>
<polygon fill="black" stroke="black" points="305.19,-240.1 301.69,-230.1 298.19,-240.1 305.19,-240.1"/>
</g>
<!-- mu_alpha -->
<g id="node8" class="node">
<title>mu_alpha</title>
<polygon fill="none" stroke="black" points="558.69,-302 398.69,-302 398.69,-266 558.69,-266 558.69,-302"/>
<text text-anchor="middle" x="478.69" y="-280.3" font-family="Times,serif" font-size="14.00">mu_alpha ~ Deterministic</text>
</g>
<!-- epsilon_g&#45;&gt;mu_alpha -->
<g id="edge3" class="edge">
<title>epsilon_g&#45;&gt;mu_alpha</title>
<path fill="none" stroke="black" d="M478.69,-348.82C478.69,-338.19 478.69,-324.31 478.69,-312.2"/>
<polygon fill="black" stroke="black" points="482.19,-312.15 478.69,-302.15 475.19,-312.15 482.19,-312.15"/>
</g>
<!-- mu_alpha&#45;&gt;alpha_s -->
<g id="edge5" class="edge">
<title>mu_alpha&#45;&gt;alpha_s</title>
<path fill="none" stroke="black" d="M478.69,-265.7C478.69,-257.98 478.69,-248.71 478.69,-240.11"/>
<polygon fill="black" stroke="black" points="482.19,-240.1 478.69,-230.1 475.19,-240.1 482.19,-240.1"/>
</g>
<!-- mu_sgc -->
<g id="node11" class="node">
<title>mu_sgc</title>
<polygon fill="none" stroke="black" points="464.69,-147 316.69,-147 316.69,-111 464.69,-111 464.69,-147"/>
<text text-anchor="middle" x="390.69" y="-125.3" font-family="Times,serif" font-size="14.00">mu_sgc ~ Deterministic</text>
</g>
<!-- alpha_s&#45;&gt;mu_sgc -->
<g id="edge9" class="edge">
<title>alpha_s&#45;&gt;mu_sgc</title>
<path fill="none" stroke="black" d="M460.46,-194.22C447.8,-182.57 430.75,-166.87 416.67,-153.91"/>
<polygon fill="black" stroke="black" points="418.93,-151.24 409.2,-147.04 414.19,-156.39 418.93,-151.24"/>
</g>
<!-- beta_c&#45;&gt;mu_sgc -->
<g id="edge8" class="edge">
<title>beta_c&#45;&gt;mu_sgc</title>
<path fill="none" stroke="black" d="M320.13,-194.22C332.93,-182.57 350.18,-166.87 364.42,-153.91"/>
<polygon fill="black" stroke="black" points="366.93,-156.36 371.97,-147.04 362.22,-151.18 366.93,-156.36"/>
</g>
<!-- mu_sgc&#45;&gt;logfc -->
<g id="edge11" class="edge">
<title>mu_sgc&#45;&gt;logfc</title>
<path fill="none" stroke="black" d="M391.68,-110.7C392.12,-102.98 392.65,-93.71 393.14,-85.11"/>
<polygon fill="black" stroke="black" points="396.64,-85.29 393.71,-75.1 389.65,-84.89 396.64,-85.29"/>
</g>
</g>
</svg>
