<?xml version="1.0" encoding="UTF-8" standalone="no"?>
<!DOCTYPE svg PUBLIC "-//W3C//DTD SVG 1.1//EN"
 "http://www.w3.org/Graphics/SVG/1.1/DTD/svg11.dtd">
<!-- Generated by graphviz version 2.42.3 (20191010.1750)
 -->
<!-- Title: %3 Pages: 1 -->
<svg width="387pt" height="226pt"
 viewBox="0.00 0.00 387.22 226.00" xmlns="http://www.w3.org/2000/svg" xmlns:xlink="http://www.w3.org/1999/xlink">
<g id="graph0" class="graph" transform="scale(1 1) rotate(0) translate(4 222)">
<title>%3</title>
<polygon fill="white" stroke="transparent" points="-4,4 -4,-222 383.22,-222 383.22,4 -4,4"/>
<g id="clust1" class="cluster">
<title>cluster20</title>
<path fill="none" stroke="black" d="M186.16,-8C186.16,-8 306.16,-8 306.16,-8 312.16,-8 318.16,-14 318.16,-20 318.16,-20 318.16,-142 318.16,-142 318.16,-148 312.16,-154 306.16,-154 306.16,-154 186.16,-154 186.16,-154 180.16,-154 174.16,-148 174.16,-142 174.16,-142 174.16,-20 174.16,-20 174.16,-14 180.16,-8 186.16,-8"/>
<text text-anchor="middle" x="303.16" y="-14.8" font-family="Times,serif" font-size="14.00">20</text>
</g>
<!-- sigma -->
<g id="node1" class="node">
<title>sigma</title>
<ellipse fill="none" stroke="black" cx="83.16" cy="-128" rx="83.33" ry="18"/>
<text text-anchor="middle" x="83.16" y="-123.8" font-family="Times,serif" font-size="14.00">sigma ~ HalfNormal</text>
</g>
<!-- logfc -->
<g id="node4" class="node">
<title>logfc</title>
<ellipse fill="lightgrey" stroke="black" cx="246.16" cy="-56" rx="64.5" ry="18"/>
<text text-anchor="middle" x="246.16" y="-51.8" font-family="Times,serif" font-size="14.00">logfc ~ Normal</text>
</g>
<!-- sigma&#45;&gt;logfc -->
<g id="edge3" class="edge">
<title>sigma&#45;&gt;logfc</title>
<path fill="none" stroke="black" d="M118.94,-111.64C143.72,-100.99 176.86,-86.76 203.1,-75.49"/>
<polygon fill="black" stroke="black" points="204.62,-78.65 212.43,-71.49 201.86,-72.22 204.62,-78.65"/>
</g>
<!-- alpha -->
<g id="node2" class="node">
<title>alpha</title>
<ellipse fill="none" stroke="black" cx="173.16" cy="-200" rx="65.46" ry="18"/>
<text text-anchor="middle" x="173.16" y="-195.8" font-family="Times,serif" font-size="14.00">alpha ~ Normal</text>
</g>
<!-- mu -->
<g id="node5" class="node">
<title>mu</title>
<polygon fill="none" stroke="black" points="308.33,-146 184,-146 184,-110 308.33,-110 308.33,-146"/>
<text text-anchor="middle" x="246.16" y="-123.8" font-family="Times,serif" font-size="14.00">mu ~ Deterministic</text>
</g>
<!-- alpha&#45;&gt;mu -->
<g id="edge1" class="edge">
<title>alpha&#45;&gt;mu</title>
<path fill="none" stroke="black" d="M190.46,-182.41C199.54,-173.71 210.82,-162.89 220.85,-153.27"/>
<polygon fill="black" stroke="black" points="223.43,-155.65 228.23,-146.2 218.59,-150.6 223.43,-155.65"/>
</g>
<!-- beta -->
<g id="node3" class="node">
<title>beta</title>
<ellipse fill="none" stroke="black" cx="318.16" cy="-200" rx="61.11" ry="18"/>
<text text-anchor="middle" x="318.16" y="-195.8" font-family="Times,serif" font-size="14.00">beta ~ Normal</text>
</g>
<!-- beta&#45;&gt;mu -->
<g id="edge2" class="edge">
<title>beta&#45;&gt;mu</title>
<path fill="none" stroke="black" d="M301.1,-182.41C292.15,-173.71 281.03,-162.89 271.13,-153.27"/>
<polygon fill="black" stroke="black" points="273.47,-150.66 263.86,-146.2 268.59,-155.68 273.47,-150.66"/>
</g>
<!-- mu&#45;&gt;logfc -->
<g id="edge4" class="edge">
<title>mu&#45;&gt;logfc</title>
<path fill="none" stroke="black" d="M246.16,-109.7C246.16,-101.98 246.16,-92.71 246.16,-84.11"/>
<polygon fill="black" stroke="black" points="249.66,-84.1 246.16,-74.1 242.66,-84.1 249.66,-84.1"/>
</g>
</g>
</svg>
