<?xml version="1.0" encoding="UTF-8" standalone="no"?>
<!DOCTYPE svg PUBLIC "-//W3C//DTD SVG 1.1//EN"
 "http://www.w3.org/Graphics/SVG/1.1/DTD/svg11.dtd">
<!-- Generated by graphviz version 2.42.3 (20191010.1750)
 -->
<!-- Title: %3 Pages: 1 -->
<svg width="1253pt" height="310pt"
 viewBox="0.00 0.00 1253.23 310.00" xmlns="http://www.w3.org/2000/svg" xmlns:xlink="http://www.w3.org/1999/xlink">
<g id="graph0" class="graph" transform="scale(1 1) rotate(0) translate(4 306)">
<title>%3</title>
<polygon fill="white" stroke="transparent" points="-4,4 -4,-306 1249.23,-306 1249.23,4 -4,4"/>
<g id="clust1" class="cluster">
<title>cluster5</title>
<path fill="none" stroke="black" d="M283.19,-163C283.19,-163 586.19,-163 586.19,-163 592.19,-163 598.19,-169 598.19,-175 598.19,-175 598.19,-226 598.19,-226 598.19,-232 592.19,-238 586.19,-238 586.19,-238 283.19,-238 283.19,-238 277.19,-238 271.19,-232 271.19,-226 271.19,-226 271.19,-175 271.19,-175 271.19,-169 277.19,-163 283.19,-163"/>
<text text-anchor="middle" x="586.69" y="-170.8" font-family="Times,serif" font-size="14.00">5</text>
</g>
<g id="clust2" class="cluster">
<title>cluster20</title>
<path fill="none" stroke="black" d="M827.19,-163C827.19,-163 985.19,-163 985.19,-163 991.19,-163 997.19,-169 997.19,-175 997.19,-175 997.19,-226 997.19,-226 997.19,-232 991.19,-238 985.19,-238 985.19,-238 827.19,-238 827.19,-238 821.19,-238 815.19,-232 815.19,-226 815.19,-226 815.19,-175 815.19,-175 815.19,-169 821.19,-163 827.19,-163"/>
<text text-anchor="middle" x="982.19" y="-170.8" font-family="Times,serif" font-size="14.00">20</text>
</g>
<g id="clust3" class="cluster">
<title>cluster300</title>
<path fill="none" stroke="black" d="M451.19,-8C451.19,-8 587.19,-8 587.19,-8 593.19,-8 599.19,-14 599.19,-20 599.19,-20 599.19,-143 599.19,-143 599.19,-149 593.19,-155 587.19,-155 587.19,-155 451.19,-155 451.19,-155 445.19,-155 439.19,-149 439.19,-143 439.19,-143 439.19,-20 439.19,-20 439.19,-14 445.19,-8 451.19,-8"/>
<text text-anchor="middle" x="580.69" y="-15.8" font-family="Times,serif" font-size="14.00">300</text>
</g>
<!-- mu_alpha -->
<g id="node1" class="node">
<title>mu_alpha</title>
<ellipse fill="none" stroke="black" cx="83.19" cy="-284" rx="83.39" ry="18"/>
<text text-anchor="middle" x="83.19" y="-280.3" font-family="Times,serif" font-size="14.00">mu_alpha ~ Normal</text>
</g>
<!-- alpha_g -->
<g id="node9" class="node">
<title>alpha_g</title>
<ellipse fill="none" stroke="black" cx="354.19" cy="-212" rx="75.29" ry="18"/>
<text text-anchor="middle" x="354.19" y="-208.3" font-family="Times,serif" font-size="14.00">alpha_g ~ Normal</text>
</g>
<!-- mu_alpha&#45;&gt;alpha_g -->
<g id="edge2" class="edge">
<title>mu_alpha&#45;&gt;alpha_g</title>
<path fill="none" stroke="black" d="M134.48,-269.75C180.18,-257.95 247.06,-240.67 295.01,-228.29"/>
<polygon fill="black" stroke="black" points="296.13,-231.61 304.94,-225.72 294.38,-224.83 296.13,-231.61"/>
</g>
<!-- mu_gamma -->
<g id="node2" class="node">
<title>mu_gamma</title>
<ellipse fill="none" stroke="black" cx="906.19" cy="-284" rx="90.98" ry="18"/>
<text text-anchor="middle" x="906.19" y="-280.3" font-family="Times,serif" font-size="14.00">mu_gamma ~ Normal</text>
</g>
<!-- gamma_c -->
<g id="node10" class="node">
<title>gamma_c</title>
<ellipse fill="none" stroke="black" cx="906.19" cy="-212" rx="83.39" ry="18"/>
<text text-anchor="middle" x="906.19" y="-208.3" font-family="Times,serif" font-size="14.00">gamma_c ~ Normal</text>
</g>
<!-- mu_gamma&#45;&gt;gamma_c -->
<g id="edge4" class="edge">
<title>mu_gamma&#45;&gt;gamma_c</title>
<path fill="none" stroke="black" d="M906.19,-265.7C906.19,-257.98 906.19,-248.71 906.19,-240.11"/>
<polygon fill="black" stroke="black" points="909.69,-240.1 906.19,-230.1 902.69,-240.1 909.69,-240.1"/>
</g>
<!-- sigma_beta -->
<g id="node3" class="node">
<title>sigma_beta</title>
<ellipse fill="none" stroke="black" cx="519.19" cy="-284" rx="102.88" ry="18"/>
<text text-anchor="middle" x="519.19" y="-280.3" font-family="Times,serif" font-size="14.00">sigma_beta ~ Exponential</text>
</g>
<!-- beta_g -->
<g id="node8" class="node">
<title>beta_g</title>
<ellipse fill="none" stroke="black" cx="519.19" cy="-212" rx="71.49" ry="18"/>
<text text-anchor="middle" x="519.19" y="-208.3" font-family="Times,serif" font-size="14.00">beta_g ~ Normal</text>
</g>
<!-- sigma_beta&#45;&gt;beta_g -->
<g id="edge5" class="edge">
<title>sigma_beta&#45;&gt;beta_g</title>
<path fill="none" stroke="black" d="M519.19,-265.7C519.19,-257.98 519.19,-248.71 519.19,-240.11"/>
<polygon fill="black" stroke="black" points="522.69,-240.1 519.19,-230.1 515.69,-240.1 522.69,-240.1"/>
</g>
<!-- sigma -->
<g id="node4" class="node">
<title>sigma</title>
<ellipse fill="none" stroke="black" cx="692.19" cy="-129" rx="83.69" ry="18"/>
<text text-anchor="middle" x="692.19" y="-125.3" font-family="Times,serif" font-size="14.00">sigma ~ Exponential</text>
</g>
<!-- logfc -->
<g id="node11" class="node">
<title>logfc</title>
<ellipse fill="lightgrey" stroke="black" cx="522.19" cy="-57" rx="65.79" ry="18"/>
<text text-anchor="middle" x="522.19" y="-53.3" font-family="Times,serif" font-size="14.00">logfc ~ Normal</text>
</g>
<!-- sigma&#45;&gt;logfc -->
<g id="edge10" class="edge">
<title>sigma&#45;&gt;logfc</title>
<path fill="none" stroke="black" d="M655.31,-112.81C629.19,-102.06 594.03,-87.58 566.41,-76.21"/>
<polygon fill="black" stroke="black" points="567.56,-72.89 556.98,-72.32 564.89,-79.37 567.56,-72.89"/>
</g>
<!-- sigma_gamma -->
<g id="node5" class="node">
<title>sigma_gamma</title>
<ellipse fill="none" stroke="black" cx="1130.19" cy="-284" rx="115.08" ry="18"/>
<text text-anchor="middle" x="1130.19" y="-280.3" font-family="Times,serif" font-size="14.00">sigma_gamma ~ Exponential</text>
</g>
<!-- sigma_gamma&#45;&gt;gamma_c -->
<g id="edge3" class="edge">
<title>sigma_gamma&#45;&gt;gamma_c</title>
<path fill="none" stroke="black" d="M1081.03,-267.64C1045.57,-256.55 997.67,-241.59 960.98,-230.12"/>
<polygon fill="black" stroke="black" points="962.01,-226.78 951.43,-227.14 959.93,-233.46 962.01,-226.78"/>
</g>
<!-- sigma_alpha -->
<g id="node6" class="node">
<title>sigma_alpha</title>
<ellipse fill="none" stroke="black" cx="291.19" cy="-284" rx="107.48" ry="18"/>
<text text-anchor="middle" x="291.19" y="-280.3" font-family="Times,serif" font-size="14.00">sigma_alpha ~ Exponential</text>
</g>
<!-- sigma_alpha&#45;&gt;alpha_g -->
<g id="edge1" class="edge">
<title>sigma_alpha&#45;&gt;alpha_g</title>
<path fill="none" stroke="black" d="M306.44,-266.05C314.18,-257.46 323.72,-246.86 332.23,-237.4"/>
<polygon fill="black" stroke="black" points="334.99,-239.56 339.08,-229.79 329.79,-234.88 334.99,-239.56"/>
</g>
<!-- mu_beta -->
<g id="node7" class="node">
<title>mu_beta</title>
<ellipse fill="none" stroke="black" cx="718.19" cy="-284" rx="78.79" ry="18"/>
<text text-anchor="middle" x="718.19" y="-280.3" font-family="Times,serif" font-size="14.00">mu_beta ~ Normal</text>
</g>
<!-- mu_beta&#45;&gt;beta_g -->
<g id="edge6" class="edge">
<title>mu_beta&#45;&gt;beta_g</title>
<path fill="none" stroke="black" d="M676.96,-268.5C645.46,-257.42 601.93,-242.1 568.57,-230.37"/>
<polygon fill="black" stroke="black" points="569.61,-227.02 559.01,-227.01 567.29,-233.63 569.61,-227.02"/>
</g>
<!-- mu_gc -->
<g id="node12" class="node">
<title>mu_gc</title>
<polygon fill="none" stroke="black" points="590.69,-147 447.69,-147 447.69,-111 590.69,-111 590.69,-147"/>
<text text-anchor="middle" x="519.19" y="-125.3" font-family="Times,serif" font-size="14.00">mu_gc ~ Deterministic</text>
</g>
<!-- beta_g&#45;&gt;mu_gc -->
<g id="edge9" class="edge">
<title>beta_g&#45;&gt;mu_gc</title>
<path fill="none" stroke="black" d="M519.19,-193.82C519.19,-183.19 519.19,-169.31 519.19,-157.2"/>
<polygon fill="black" stroke="black" points="522.69,-157.15 519.19,-147.15 515.69,-157.15 522.69,-157.15"/>
</g>
<!-- alpha_g&#45;&gt;mu_gc -->
<g id="edge8" class="edge">
<title>alpha_g&#45;&gt;mu_gc</title>
<path fill="none" stroke="black" d="M380.54,-195.01C397.1,-185.24 419.08,-172.78 439.19,-163 447.72,-158.85 456.9,-154.75 465.89,-150.91"/>
<polygon fill="black" stroke="black" points="467.3,-154.12 475.17,-147.03 464.59,-147.66 467.3,-154.12"/>
</g>
<!-- gamma_c&#45;&gt;mu_gc -->
<g id="edge7" class="edge">
<title>gamma_c&#45;&gt;mu_gc</title>
<path fill="none" stroke="black" d="M839.22,-201.21C776.69,-191.49 680.99,-175.16 599.19,-155 593.07,-153.49 586.73,-151.78 580.43,-149.97"/>
<polygon fill="black" stroke="black" points="581.15,-146.54 570.57,-147.07 579.18,-153.25 581.15,-146.54"/>
</g>
<!-- mu_gc&#45;&gt;logfc -->
<g id="edge11" class="edge">
<title>mu_gc&#45;&gt;logfc</title>
<path fill="none" stroke="black" d="M519.93,-110.7C520.26,-102.98 520.66,-93.71 521.03,-85.11"/>
<polygon fill="black" stroke="black" points="524.53,-85.25 521.46,-75.1 517.53,-84.95 524.53,-85.25"/>
</g>
</g>
</svg>
