<?xml version="1.0" encoding="UTF-8" standalone="no"?>
<!DOCTYPE svg PUBLIC "-//W3C//DTD SVG 1.1//EN"
 "http://www.w3.org/Graphics/SVG/1.1/DTD/svg11.dtd">
<!-- Generated by graphviz version 2.42.3 (20191010.1750)
 -->
<!-- Title: %3 Pages: 1 -->
<svg width="796pt" height="308pt"
 viewBox="0.00 0.00 795.98 308.00" xmlns="http://www.w3.org/2000/svg" xmlns:xlink="http://www.w3.org/1999/xlink">
<g id="graph0" class="graph" transform="scale(1 1) rotate(0) translate(4 304)">
<title>%3</title>
<polygon fill="white" stroke="transparent" points="-4,4 -4,-304 791.98,-304 791.98,4 -4,4"/>
<g id="clust1" class="cluster">
<title>cluster5</title>
<path fill="none" stroke="black" d="M267.2,-162C267.2,-162 530.2,-162 530.2,-162 536.2,-162 542.2,-168 542.2,-174 542.2,-174 542.2,-224 542.2,-224 542.2,-230 536.2,-236 530.2,-236 530.2,-236 267.2,-236 267.2,-236 261.2,-236 255.2,-230 255.2,-224 255.2,-224 255.2,-174 255.2,-174 255.2,-168 261.2,-162 267.2,-162"/>
<text text-anchor="middle" x="530.7" y="-168.8" font-family="Times,serif" font-size="14.00">5</text>
</g>
<g id="clust2" class="cluster">
<title>cluster150</title>
<path fill="none" stroke="black" d="M339.2,-8C339.2,-8 459.2,-8 459.2,-8 465.2,-8 471.2,-14 471.2,-20 471.2,-20 471.2,-142 471.2,-142 471.2,-148 465.2,-154 459.2,-154 459.2,-154 339.2,-154 339.2,-154 333.2,-154 327.2,-148 327.2,-142 327.2,-142 327.2,-20 327.2,-20 327.2,-14 333.2,-8 339.2,-8"/>
<text text-anchor="middle" x="452.7" y="-14.8" font-family="Times,serif" font-size="14.00">150</text>
</g>
<!-- mu_alpha -->
<g id="node1" class="node">
<title>mu_alpha</title>
<ellipse fill="none" stroke="black" cx="81.2" cy="-282" rx="81.4" ry="18"/>
<text text-anchor="middle" x="81.2" y="-277.8" font-family="Times,serif" font-size="14.00">mu_alpha ~ Normal</text>
</g>
<!-- alpha -->
<g id="node7" class="node">
<title>alpha</title>
<ellipse fill="none" stroke="black" cx="328.2" cy="-210" rx="65.46" ry="18"/>
<text text-anchor="middle" x="328.2" y="-205.8" font-family="Times,serif" font-size="14.00">alpha ~ Normal</text>
</g>
<!-- mu_alpha&#45;&gt;alpha -->
<g id="edge2" class="edge">
<title>mu_alpha&#45;&gt;alpha</title>
<path fill="none" stroke="black" d="M129.12,-267.42C170.77,-255.62 231.05,-238.53 274.35,-226.26"/>
<polygon fill="black" stroke="black" points="275.48,-229.58 284.15,-223.48 273.57,-222.84 275.48,-229.58"/>
</g>
<!-- sigma_beta -->
<g id="node2" class="node">
<title>sigma_beta</title>
<ellipse fill="none" stroke="black" cx="514.2" cy="-282" rx="102.13" ry="18"/>
<text text-anchor="middle" x="514.2" y="-277.8" font-family="Times,serif" font-size="14.00">sigma_beta ~ HalfNormal</text>
</g>
<!-- beta -->
<g id="node6" class="node">
<title>beta</title>
<ellipse fill="none" stroke="black" cx="473.2" cy="-210" rx="61.11" ry="18"/>
<text text-anchor="middle" x="473.2" y="-205.8" font-family="Times,serif" font-size="14.00">beta ~ Normal</text>
</g>
<!-- sigma_beta&#45;&gt;beta -->
<g id="edge3" class="edge">
<title>sigma_beta&#45;&gt;beta</title>
<path fill="none" stroke="black" d="M504.28,-264.05C499.44,-255.8 493.53,-245.7 488.16,-236.54"/>
<polygon fill="black" stroke="black" points="491.11,-234.65 483.03,-227.79 485.07,-238.19 491.11,-234.65"/>
</g>
<!-- sigma -->
<g id="node3" class="node">
<title>sigma</title>
<ellipse fill="none" stroke="black" cx="562.2" cy="-128" rx="83.33" ry="18"/>
<text text-anchor="middle" x="562.2" y="-123.8" font-family="Times,serif" font-size="14.00">sigma ~ HalfNormal</text>
</g>
<!-- logfc -->
<g id="node9" class="node">
<title>logfc</title>
<ellipse fill="lightgrey" stroke="black" cx="399.2" cy="-56" rx="64.5" ry="18"/>
<text text-anchor="middle" x="399.2" y="-51.8" font-family="Times,serif" font-size="14.00">logfc ~ Normal</text>
</g>
<!-- sigma&#45;&gt;logfc -->
<g id="edge8" class="edge">
<title>sigma&#45;&gt;logfc</title>
<path fill="none" stroke="black" d="M526.43,-111.64C501.64,-100.99 468.51,-86.76 442.27,-75.49"/>
<polygon fill="black" stroke="black" points="443.51,-72.22 432.94,-71.49 440.75,-78.65 443.51,-72.22"/>
</g>
<!-- sigma_alpha -->
<g id="node4" class="node">
<title>sigma_alpha</title>
<ellipse fill="none" stroke="black" cx="287.2" cy="-282" rx="106.97" ry="18"/>
<text text-anchor="middle" x="287.2" y="-277.8" font-family="Times,serif" font-size="14.00">sigma_alpha ~ HalfNormal</text>
</g>
<!-- sigma_alpha&#45;&gt;alpha -->
<g id="edge1" class="edge">
<title>sigma_alpha&#45;&gt;alpha</title>
<path fill="none" stroke="black" d="M297.12,-264.05C301.89,-255.92 307.7,-246 313.01,-236.94"/>
<polygon fill="black" stroke="black" points="316.05,-238.67 318.08,-228.28 310.01,-235.14 316.05,-238.67"/>
</g>
<!-- mu_beta -->
<g id="node5" class="node">
<title>mu_beta</title>
<ellipse fill="none" stroke="black" cx="711.2" cy="-282" rx="76.56" ry="18"/>
<text text-anchor="middle" x="711.2" y="-277.8" font-family="Times,serif" font-size="14.00">mu_beta ~ Normal</text>
</g>
<!-- mu_beta&#45;&gt;beta -->
<g id="edge4" class="edge">
<title>mu_beta&#45;&gt;beta</title>
<path fill="none" stroke="black" d="M665.31,-267.5C625.04,-255.66 566.54,-238.45 524.69,-226.14"/>
<polygon fill="black" stroke="black" points="525.54,-222.75 514.96,-223.28 523.57,-229.46 525.54,-222.75"/>
</g>
<!-- mu -->
<g id="node8" class="node">
<title>mu</title>
<polygon fill="none" stroke="black" points="461.36,-146 337.04,-146 337.04,-110 461.36,-110 461.36,-146"/>
<text text-anchor="middle" x="399.2" y="-123.8" font-family="Times,serif" font-size="14.00">mu ~ Deterministic</text>
</g>
<!-- beta&#45;&gt;mu -->
<g id="edge5" class="edge">
<title>beta&#45;&gt;mu</title>
<path fill="none" stroke="black" d="M457.87,-192.42C447.49,-181.21 433.6,-166.19 421.94,-153.59"/>
<polygon fill="black" stroke="black" points="424.38,-151.07 415.02,-146.11 419.24,-155.82 424.38,-151.07"/>
</g>
<!-- alpha&#45;&gt;mu -->
<g id="edge6" class="edge">
<title>alpha&#45;&gt;mu</title>
<path fill="none" stroke="black" d="M342.91,-192.42C352.87,-181.21 366.19,-166.19 377.38,-153.59"/>
<polygon fill="black" stroke="black" points="380,-155.91 384.02,-146.11 374.76,-151.26 380,-155.91"/>
</g>
<!-- mu&#45;&gt;logfc -->
<g id="edge7" class="edge">
<title>mu&#45;&gt;logfc</title>
<path fill="none" stroke="black" d="M399.2,-109.7C399.2,-101.98 399.2,-92.71 399.2,-84.11"/>
<polygon fill="black" stroke="black" points="402.7,-84.1 399.2,-74.1 395.7,-84.1 402.7,-84.1"/>
</g>
</g>
</svg>
