<?xml version="1.0" encoding="UTF-8" standalone="no"?>
<!DOCTYPE svg PUBLIC "-//W3C//DTD SVG 1.1//EN"
 "http://www.w3.org/Graphics/SVG/1.1/DTD/svg11.dtd">
<!-- Generated by graphviz version 2.42.3 (20191010.1750)
 -->
<!-- Title: %3 Pages: 1 -->
<svg width="1253pt" height="310pt"
 viewBox="0.00 0.00 1253.18 310.00" xmlns="http://www.w3.org/2000/svg" xmlns:xlink="http://www.w3.org/1999/xlink">
<g id="graph0" class="graph" transform="scale(1 1) rotate(0) translate(4 306)">
<title>%3</title>
<polygon fill="white" stroke="transparent" points="-4,4 -4,-306 1249.18,-306 1249.18,4 -4,4"/>
<g id="clust1" class="cluster">
<title>cluster5</title>
<path fill="none" stroke="black" d="M658.99,-163C658.99,-163 961.99,-163 961.99,-163 967.99,-163 973.99,-169 973.99,-175 973.99,-175 973.99,-226 973.99,-226 973.99,-232 967.99,-238 961.99,-238 961.99,-238 658.99,-238 658.99,-238 652.99,-238 646.99,-232 646.99,-226 646.99,-226 646.99,-175 646.99,-175 646.99,-169 652.99,-163 658.99,-163"/>
<text text-anchor="middle" x="962.49" y="-170.8" font-family="Times,serif" font-size="14.00">5</text>
</g>
<g id="clust2" class="cluster">
<title>cluster20</title>
<path fill="none" stroke="black" d="M235.99,-163C235.99,-163 393.99,-163 393.99,-163 399.99,-163 405.99,-169 405.99,-175 405.99,-175 405.99,-226 405.99,-226 405.99,-232 399.99,-238 393.99,-238 393.99,-238 235.99,-238 235.99,-238 229.99,-238 223.99,-232 223.99,-226 223.99,-226 223.99,-175 223.99,-175 223.99,-169 229.99,-163 235.99,-163"/>
<text text-anchor="middle" x="390.99" y="-170.8" font-family="Times,serif" font-size="14.00">20</text>
</g>
<g id="clust3" class="cluster">
<title>cluster300</title>
<path fill="none" stroke="black" d="M657.99,-8C657.99,-8 793.99,-8 793.99,-8 799.99,-8 805.99,-14 805.99,-20 805.99,-20 805.99,-143 805.99,-143 805.99,-149 799.99,-155 793.99,-155 793.99,-155 657.99,-155 657.99,-155 651.99,-155 645.99,-149 645.99,-143 645.99,-143 645.99,-20 645.99,-20 645.99,-14 651.99,-8 657.99,-8"/>
<text text-anchor="middle" x="787.49" y="-15.8" font-family="Times,serif" font-size="14.00">300</text>
</g>
<!-- mu_gamma -->
<g id="node1" class="node">
<title>mu_gamma</title>
<ellipse fill="none" stroke="black" cx="90.99" cy="-284" rx="90.98" ry="18"/>
<text text-anchor="middle" x="90.99" y="-280.3" font-family="Times,serif" font-size="14.00">mu_gamma ~ Normal</text>
</g>
<!-- gamma_c -->
<g id="node10" class="node">
<title>gamma_c</title>
<ellipse fill="none" stroke="black" cx="314.99" cy="-212" rx="83.39" ry="18"/>
<text text-anchor="middle" x="314.99" y="-208.3" font-family="Times,serif" font-size="14.00">gamma_c ~ Normal</text>
</g>
<!-- mu_gamma&#45;&gt;gamma_c -->
<g id="edge4" class="edge">
<title>mu_gamma&#45;&gt;gamma_c</title>
<path fill="none" stroke="black" d="M137.4,-268.5C173.05,-257.36 222.37,-241.94 260,-230.19"/>
<polygon fill="black" stroke="black" points="261.29,-233.45 269.79,-227.13 259.2,-226.77 261.29,-233.45"/>
</g>
<!-- sigma -->
<g id="node2" class="node">
<title>sigma</title>
<ellipse fill="none" stroke="black" cx="898.99" cy="-129" rx="83.69" ry="18"/>
<text text-anchor="middle" x="898.99" y="-125.3" font-family="Times,serif" font-size="14.00">sigma ~ Exponential</text>
</g>
<!-- logfc -->
<g id="node12" class="node">
<title>logfc</title>
<ellipse fill="lightgrey" stroke="black" cx="728.99" cy="-57" rx="65.79" ry="18"/>
<text text-anchor="middle" x="728.99" y="-53.3" font-family="Times,serif" font-size="14.00">logfc ~ Normal</text>
</g>
<!-- sigma&#45;&gt;logfc -->
<g id="edge11" class="edge">
<title>sigma&#45;&gt;logfc</title>
<path fill="none" stroke="black" d="M862.1,-112.81C835.99,-102.06 800.83,-87.58 773.21,-76.21"/>
<polygon fill="black" stroke="black" points="774.36,-72.89 763.78,-72.32 771.69,-79.37 774.36,-72.89"/>
</g>
<!-- mu_beta -->
<g id="node3" class="node">
<title>mu_beta</title>
<ellipse fill="none" stroke="black" cx="526.99" cy="-284" rx="78.79" ry="18"/>
<text text-anchor="middle" x="526.99" y="-280.3" font-family="Times,serif" font-size="14.00">mu_beta ~ Normal</text>
</g>
<!-- beta_g -->
<g id="node9" class="node">
<title>beta_g</title>
<ellipse fill="none" stroke="black" cx="725.99" cy="-212" rx="71.49" ry="18"/>
<text text-anchor="middle" x="725.99" y="-208.3" font-family="Times,serif" font-size="14.00">beta_g ~ Normal</text>
</g>
<!-- mu_beta&#45;&gt;beta_g -->
<g id="edge6" class="edge">
<title>mu_beta&#45;&gt;beta_g</title>
<path fill="none" stroke="black" d="M568.22,-268.5C599.72,-257.42 643.25,-242.1 676.61,-230.37"/>
<polygon fill="black" stroke="black" points="677.9,-233.63 686.17,-227.01 675.57,-227.02 677.9,-233.63"/>
</g>
<!-- sigma_beta -->
<g id="node4" class="node">
<title>sigma_beta</title>
<ellipse fill="none" stroke="black" cx="725.99" cy="-284" rx="102.88" ry="18"/>
<text text-anchor="middle" x="725.99" y="-280.3" font-family="Times,serif" font-size="14.00">sigma_beta ~ Exponential</text>
</g>
<!-- sigma_beta&#45;&gt;beta_g -->
<g id="edge5" class="edge">
<title>sigma_beta&#45;&gt;beta_g</title>
<path fill="none" stroke="black" d="M725.99,-265.7C725.99,-257.98 725.99,-248.71 725.99,-240.11"/>
<polygon fill="black" stroke="black" points="729.49,-240.1 725.99,-230.1 722.49,-240.1 729.49,-240.1"/>
</g>
<!-- sigma_alpha -->
<g id="node5" class="node">
<title>sigma_alpha</title>
<ellipse fill="none" stroke="black" cx="953.99" cy="-284" rx="107.48" ry="18"/>
<text text-anchor="middle" x="953.99" y="-280.3" font-family="Times,serif" font-size="14.00">sigma_alpha ~ Exponential</text>
</g>
<!-- alpha_g -->
<g id="node8" class="node">
<title>alpha_g</title>
<ellipse fill="none" stroke="black" cx="890.99" cy="-212" rx="75.29" ry="18"/>
<text text-anchor="middle" x="890.99" y="-208.3" font-family="Times,serif" font-size="14.00">alpha_g ~ Normal</text>
</g>
<!-- sigma_alpha&#45;&gt;alpha_g -->
<g id="edge2" class="edge">
<title>sigma_alpha&#45;&gt;alpha_g</title>
<path fill="none" stroke="black" d="M938.74,-266.05C931,-257.46 921.46,-246.86 912.95,-237.4"/>
<polygon fill="black" stroke="black" points="915.39,-234.88 906.1,-229.79 910.19,-239.56 915.39,-234.88"/>
</g>
<!-- sigma_gamma -->
<g id="node6" class="node">
<title>sigma_gamma</title>
<ellipse fill="none" stroke="black" cx="314.99" cy="-284" rx="115.08" ry="18"/>
<text text-anchor="middle" x="314.99" y="-280.3" font-family="Times,serif" font-size="14.00">sigma_gamma ~ Exponential</text>
</g>
<!-- sigma_gamma&#45;&gt;gamma_c -->
<g id="edge3" class="edge">
<title>sigma_gamma&#45;&gt;gamma_c</title>
<path fill="none" stroke="black" d="M314.99,-265.7C314.99,-257.98 314.99,-248.71 314.99,-240.11"/>
<polygon fill="black" stroke="black" points="318.49,-240.1 314.99,-230.1 311.49,-240.1 318.49,-240.1"/>
</g>
<!-- mu_alpha -->
<g id="node7" class="node">
<title>mu_alpha</title>
<ellipse fill="none" stroke="black" cx="1161.99" cy="-284" rx="83.39" ry="18"/>
<text text-anchor="middle" x="1161.99" y="-280.3" font-family="Times,serif" font-size="14.00">mu_alpha ~ Normal</text>
</g>
<!-- mu_alpha&#45;&gt;alpha_g -->
<g id="edge1" class="edge">
<title>mu_alpha&#45;&gt;alpha_g</title>
<path fill="none" stroke="black" d="M1110.7,-269.75C1065,-257.95 998.13,-240.67 950.18,-228.29"/>
<polygon fill="black" stroke="black" points="950.8,-224.83 940.25,-225.72 949.05,-231.61 950.8,-224.83"/>
</g>
<!-- mu_gc -->
<g id="node11" class="node">
<title>mu_gc</title>
<polygon fill="none" stroke="black" points="797.49,-147 654.49,-147 654.49,-111 797.49,-111 797.49,-147"/>
<text text-anchor="middle" x="725.99" y="-125.3" font-family="Times,serif" font-size="14.00">mu_gc ~ Deterministic</text>
</g>
<!-- alpha_g&#45;&gt;mu_gc -->
<g id="edge7" class="edge">
<title>alpha_g&#45;&gt;mu_gc</title>
<path fill="none" stroke="black" d="M864.64,-195.01C848.08,-185.24 826.11,-172.78 805.99,-163 797.47,-158.85 788.29,-154.75 779.29,-150.91"/>
<polygon fill="black" stroke="black" points="780.59,-147.66 770.02,-147.03 777.89,-154.12 780.59,-147.66"/>
</g>
<!-- beta_g&#45;&gt;mu_gc -->
<g id="edge8" class="edge">
<title>beta_g&#45;&gt;mu_gc</title>
<path fill="none" stroke="black" d="M725.99,-193.82C725.99,-183.19 725.99,-169.31 725.99,-157.2"/>
<polygon fill="black" stroke="black" points="729.49,-157.15 725.99,-147.15 722.49,-157.15 729.49,-157.15"/>
</g>
<!-- gamma_c&#45;&gt;mu_gc -->
<g id="edge9" class="edge">
<title>gamma_c&#45;&gt;mu_gc</title>
<path fill="none" stroke="black" d="M374.32,-199.31C445.31,-185.32 564.55,-161.82 644.24,-146.11"/>
<polygon fill="black" stroke="black" points="645.1,-149.51 654.24,-144.14 643.75,-142.64 645.1,-149.51"/>
</g>
<!-- mu_gc&#45;&gt;logfc -->
<g id="edge10" class="edge">
<title>mu_gc&#45;&gt;logfc</title>
<path fill="none" stroke="black" d="M726.73,-110.7C727.06,-102.98 727.46,-93.71 727.83,-85.11"/>
<polygon fill="black" stroke="black" points="731.33,-85.25 728.26,-75.1 724.33,-84.95 731.33,-85.25"/>
</g>
</g>
</svg>
