<?xml version="1.0" encoding="UTF-8" standalone="no"?>
<!DOCTYPE svg PUBLIC "-//W3C//DTD SVG 1.1//EN"
 "http://www.w3.org/Graphics/SVG/1.1/DTD/svg11.dtd">
<!-- Generated by graphviz version 2.42.3 (20191010.1750)
 -->
<!-- Title: %3 Pages: 1 -->
<svg width="1236pt" height="308pt"
 viewBox="0.00 0.00 1236.40 308.00" xmlns="http://www.w3.org/2000/svg" xmlns:xlink="http://www.w3.org/1999/xlink">
<g id="graph0" class="graph" transform="scale(1 1) rotate(0) translate(4 304)">
<title>%3</title>
<polygon fill="white" stroke="transparent" points="-4,4 -4,-304 1232.4,-304 1232.4,4 -4,4"/>
<g id="clust1" class="cluster">
<title>cluster5</title>
<path fill="none" stroke="black" d="M657.08,-162C657.08,-162 955.08,-162 955.08,-162 961.08,-162 967.08,-168 967.08,-174 967.08,-174 967.08,-224 967.08,-224 967.08,-230 961.08,-236 955.08,-236 955.08,-236 657.08,-236 657.08,-236 651.08,-236 645.08,-230 645.08,-224 645.08,-224 645.08,-174 645.08,-174 645.08,-168 651.08,-162 657.08,-162"/>
<text text-anchor="middle" x="955.58" y="-168.8" font-family="Times,serif" font-size="14.00">5</text>
</g>
<g id="clust2" class="cluster">
<title>cluster20</title>
<path fill="none" stroke="black" d="M231.08,-162C231.08,-162 385.08,-162 385.08,-162 391.08,-162 397.08,-168 397.08,-174 397.08,-174 397.08,-224 397.08,-224 397.08,-230 391.08,-236 385.08,-236 385.08,-236 231.08,-236 231.08,-236 225.08,-236 219.08,-230 219.08,-224 219.08,-224 219.08,-174 219.08,-174 219.08,-168 225.08,-162 231.08,-162"/>
<text text-anchor="middle" x="382.08" y="-168.8" font-family="Times,serif" font-size="14.00">20</text>
</g>
<g id="clust3" class="cluster">
<title>cluster300</title>
<path fill="none" stroke="black" d="M659.08,-8C659.08,-8 795.08,-8 795.08,-8 801.08,-8 807.08,-14 807.08,-20 807.08,-20 807.08,-142 807.08,-142 807.08,-148 801.08,-154 795.08,-154 795.08,-154 659.08,-154 659.08,-154 653.08,-154 647.08,-148 647.08,-142 647.08,-142 647.08,-20 647.08,-20 647.08,-14 653.08,-8 659.08,-8"/>
<text text-anchor="middle" x="788.58" y="-14.8" font-family="Times,serif" font-size="14.00">300</text>
</g>
<!-- mu_gamma -->
<g id="node1" class="node">
<title>mu_gamma</title>
<ellipse fill="none" stroke="black" cx="88.08" cy="-282" rx="88.16" ry="18"/>
<text text-anchor="middle" x="88.08" y="-277.8" font-family="Times,serif" font-size="14.00">mu_gamma ~ Normal</text>
</g>
<!-- gamma_c -->
<g id="node10" class="node">
<title>gamma_c</title>
<ellipse fill="none" stroke="black" cx="308.08" cy="-210" rx="80.91" ry="18"/>
<text text-anchor="middle" x="308.08" y="-205.8" font-family="Times,serif" font-size="14.00">gamma_c ~ Normal</text>
</g>
<!-- mu_gamma&#45;&gt;gamma_c -->
<g id="edge3" class="edge">
<title>mu_gamma&#45;&gt;gamma_c</title>
<path fill="none" stroke="black" d="M133.66,-266.5C168.67,-255.36 217.12,-239.94 254.07,-228.19"/>
<polygon fill="black" stroke="black" points="255.21,-231.49 263.68,-225.13 253.09,-224.82 255.21,-231.49"/>
</g>
<!-- mu_alpha -->
<g id="node2" class="node">
<title>mu_alpha</title>
<ellipse fill="none" stroke="black" cx="521.08" cy="-282" rx="81.4" ry="18"/>
<text text-anchor="middle" x="521.08" y="-277.8" font-family="Times,serif" font-size="14.00">mu_alpha ~ Normal</text>
</g>
<!-- alpha_g -->
<g id="node8" class="node">
<title>alpha_g</title>
<ellipse fill="none" stroke="black" cx="727.08" cy="-210" rx="74.14" ry="18"/>
<text text-anchor="middle" x="727.08" y="-205.8" font-family="Times,serif" font-size="14.00">alpha_g ~ Normal</text>
</g>
<!-- mu_alpha&#45;&gt;alpha_g -->
<g id="edge1" class="edge">
<title>mu_alpha&#45;&gt;alpha_g</title>
<path fill="none" stroke="black" d="M563.76,-266.5C596.37,-255.42 641.43,-240.1 675.96,-228.37"/>
<polygon fill="black" stroke="black" points="677.51,-231.54 685.86,-225.01 675.26,-224.91 677.51,-231.54"/>
</g>
<!-- mu_beta -->
<g id="node3" class="node">
<title>mu_beta</title>
<ellipse fill="none" stroke="black" cx="929.08" cy="-282" rx="76.56" ry="18"/>
<text text-anchor="middle" x="929.08" y="-277.8" font-family="Times,serif" font-size="14.00">mu_beta ~ Normal</text>
</g>
<!-- beta_g -->
<g id="node9" class="node">
<title>beta_g</title>
<ellipse fill="none" stroke="black" cx="889.08" cy="-210" rx="69.8" ry="18"/>
<text text-anchor="middle" x="889.08" y="-205.8" font-family="Times,serif" font-size="14.00">beta_g ~ Normal</text>
</g>
<!-- mu_beta&#45;&gt;beta_g -->
<g id="edge5" class="edge">
<title>mu_beta&#45;&gt;beta_g</title>
<path fill="none" stroke="black" d="M919.4,-264.05C914.8,-256.01 909.2,-246.2 904.06,-237.23"/>
<polygon fill="black" stroke="black" points="906.95,-235.22 898.95,-228.28 900.87,-238.69 906.95,-235.22"/>
</g>
<!-- sigma_alpha -->
<g id="node4" class="node">
<title>sigma_alpha</title>
<ellipse fill="none" stroke="black" cx="727.08" cy="-282" rx="106.98" ry="18"/>
<text text-anchor="middle" x="727.08" y="-277.8" font-family="Times,serif" font-size="14.00">sigma_alpha ~ Exponential</text>
</g>
<!-- sigma_alpha&#45;&gt;alpha_g -->
<g id="edge2" class="edge">
<title>sigma_alpha&#45;&gt;alpha_g</title>
<path fill="none" stroke="black" d="M727.08,-263.7C727.08,-255.98 727.08,-246.71 727.08,-238.11"/>
<polygon fill="black" stroke="black" points="730.58,-238.1 727.08,-228.1 723.58,-238.1 730.58,-238.1"/>
</g>
<!-- sigma -->
<g id="node5" class="node">
<title>sigma</title>
<ellipse fill="none" stroke="black" cx="901.08" cy="-128" rx="83.34" ry="18"/>
<text text-anchor="middle" x="901.08" y="-123.8" font-family="Times,serif" font-size="14.00">sigma ~ Exponential</text>
</g>
<!-- logfc -->
<g id="node11" class="node">
<title>logfc</title>
<ellipse fill="lightgrey" stroke="black" cx="731.08" cy="-56" rx="64.5" ry="18"/>
<text text-anchor="middle" x="731.08" y="-51.8" font-family="Times,serif" font-size="14.00">logfc ~ Normal</text>
</g>
<!-- sigma&#45;&gt;logfc -->
<g id="edge11" class="edge">
<title>sigma&#45;&gt;logfc</title>
<path fill="none" stroke="black" d="M864.19,-111.81C838.07,-101.06 802.92,-86.58 775.29,-75.21"/>
<polygon fill="black" stroke="black" points="776.44,-71.89 765.86,-71.32 773.78,-78.37 776.44,-71.89"/>
</g>
<!-- sigma_gamma -->
<g id="node6" class="node">
<title>sigma_gamma</title>
<ellipse fill="none" stroke="black" cx="308.08" cy="-282" rx="113.74" ry="18"/>
<text text-anchor="middle" x="308.08" y="-277.8" font-family="Times,serif" font-size="14.00">sigma_gamma ~ Exponential</text>
</g>
<!-- sigma_gamma&#45;&gt;gamma_c -->
<g id="edge4" class="edge">
<title>sigma_gamma&#45;&gt;gamma_c</title>
<path fill="none" stroke="black" d="M308.08,-263.7C308.08,-255.98 308.08,-246.71 308.08,-238.11"/>
<polygon fill="black" stroke="black" points="311.58,-238.1 308.08,-228.1 304.58,-238.1 311.58,-238.1"/>
</g>
<!-- sigma_beta -->
<g id="node7" class="node">
<title>sigma_beta</title>
<ellipse fill="none" stroke="black" cx="1126.08" cy="-282" rx="102.14" ry="18"/>
<text text-anchor="middle" x="1126.08" y="-277.8" font-family="Times,serif" font-size="14.00">sigma_beta ~ Exponential</text>
</g>
<!-- sigma_beta&#45;&gt;beta_g -->
<g id="edge6" class="edge">
<title>sigma_beta&#45;&gt;beta_g</title>
<path fill="none" stroke="black" d="M1076.11,-266.24C1037.17,-254.74 983.2,-238.8 943.23,-226.99"/>
<polygon fill="black" stroke="black" points="943.97,-223.56 933.39,-224.09 941.99,-230.28 943.97,-223.56"/>
</g>
<!-- mu_gc -->
<g id="node12" class="node">
<title>mu_gc</title>
<polygon fill="none" stroke="black" points="799.46,-146 654.7,-146 654.7,-110 799.46,-110 799.46,-146"/>
<text text-anchor="middle" x="727.08" y="-123.8" font-family="Times,serif" font-size="14.00">mu_gc ~ Deterministic</text>
</g>
<!-- alpha_g&#45;&gt;mu_gc -->
<g id="edge7" class="edge">
<title>alpha_g&#45;&gt;mu_gc</title>
<path fill="none" stroke="black" d="M727.08,-191.64C727.08,-181.3 727.08,-167.94 727.08,-156.22"/>
<polygon fill="black" stroke="black" points="730.58,-156.05 727.08,-146.05 723.58,-156.05 730.58,-156.05"/>
</g>
<!-- beta_g&#45;&gt;mu_gc -->
<g id="edge8" class="edge">
<title>beta_g&#45;&gt;mu_gc</title>
<path fill="none" stroke="black" d="M864.38,-192.93C849.08,-183.33 828.83,-171.24 810.08,-162 801.51,-157.78 792.26,-153.68 783.15,-149.89"/>
<polygon fill="black" stroke="black" points="784.32,-146.59 773.74,-146.05 781.68,-153.07 784.32,-146.59"/>
</g>
<!-- gamma_c&#45;&gt;mu_gc -->
<g id="edge9" class="edge">
<title>gamma_c&#45;&gt;mu_gc</title>
<path fill="none" stroke="black" d="M367.22,-197.71C439.58,-183.89 562.53,-160.42 644.27,-144.81"/>
<polygon fill="black" stroke="black" points="645.36,-148.17 654.52,-142.85 644.04,-141.29 645.36,-148.17"/>
</g>
<!-- mu_gc&#45;&gt;logfc -->
<g id="edge10" class="edge">
<title>mu_gc&#45;&gt;logfc</title>
<path fill="none" stroke="black" d="M728.07,-109.7C728.51,-101.98 729.04,-92.71 729.53,-84.11"/>
<polygon fill="black" stroke="black" points="733.03,-84.29 730.1,-74.1 726.04,-83.89 733.03,-84.29"/>
</g>
</g>
</svg>
