<?xml version="1.0" encoding="UTF-8" standalone="no"?>
<!DOCTYPE svg PUBLIC "-//W3C//DTD SVG 1.1//EN"
 "http://www.w3.org/Graphics/SVG/1.1/DTD/svg11.dtd">
<!-- Generated by graphviz version 2.42.3 (20191010.1750)
 -->
<!-- Title: %3 Pages: 1 -->
<svg width="394pt" height="227pt"
 viewBox="0.00 0.00 393.89 227.00" xmlns="http://www.w3.org/2000/svg" xmlns:xlink="http://www.w3.org/1999/xlink">
<g id="graph0" class="graph" transform="scale(1 1) rotate(0) translate(4 223)">
<title>%3</title>
<polygon fill="white" stroke="transparent" points="-4,4 -4,-223 389.89,-223 389.89,4 -4,4"/>
<g id="clust1" class="cluster">
<title>cluster20</title>
<path fill="none" stroke="black" d="M73.39,-8C73.39,-8 197.39,-8 197.39,-8 203.39,-8 209.39,-14 209.39,-20 209.39,-20 209.39,-143 209.39,-143 209.39,-149 203.39,-155 197.39,-155 197.39,-155 73.39,-155 73.39,-155 67.39,-155 61.39,-149 61.39,-143 61.39,-143 61.39,-20 61.39,-20 61.39,-14 67.39,-8 73.39,-8"/>
<text text-anchor="middle" x="194.39" y="-15.8" font-family="Times,serif" font-size="14.00">20</text>
</g>
<!-- beta -->
<g id="node1" class="node">
<title>beta</title>
<ellipse fill="none" stroke="black" cx="62.39" cy="-201" rx="62.29" ry="18"/>
<text text-anchor="middle" x="62.39" y="-197.3" font-family="Times,serif" font-size="14.00">beta ~ Normal</text>
</g>
<!-- mu -->
<g id="node4" class="node">
<title>mu</title>
<polygon fill="none" stroke="black" points="197.39,-147 73.39,-147 73.39,-111 197.39,-111 197.39,-147"/>
<text text-anchor="middle" x="135.39" y="-125.3" font-family="Times,serif" font-size="14.00">mu ~ Deterministic</text>
</g>
<!-- beta&#45;&gt;mu -->
<g id="edge1" class="edge">
<title>beta&#45;&gt;mu</title>
<path fill="none" stroke="black" d="M79.69,-183.41C88.77,-174.71 100.05,-163.89 110.08,-154.27"/>
<polygon fill="black" stroke="black" points="112.66,-156.65 117.46,-147.2 107.82,-151.6 112.66,-156.65"/>
</g>
<!-- alpha -->
<g id="node2" class="node">
<title>alpha</title>
<ellipse fill="none" stroke="black" cx="209.39" cy="-201" rx="66.89" ry="18"/>
<text text-anchor="middle" x="209.39" y="-197.3" font-family="Times,serif" font-size="14.00">alpha ~ Normal</text>
</g>
<!-- alpha&#45;&gt;mu -->
<g id="edge2" class="edge">
<title>alpha&#45;&gt;mu</title>
<path fill="none" stroke="black" d="M191.86,-183.41C182.66,-174.71 171.22,-163.89 161.05,-154.27"/>
<polygon fill="black" stroke="black" points="163.25,-151.53 153.58,-147.2 158.44,-156.62 163.25,-151.53"/>
</g>
<!-- sigma -->
<g id="node3" class="node">
<title>sigma</title>
<ellipse fill="none" stroke="black" cx="301.39" cy="-129" rx="84.49" ry="18"/>
<text text-anchor="middle" x="301.39" y="-125.3" font-family="Times,serif" font-size="14.00">sigma ~ HalfNormal</text>
</g>
<!-- logfc -->
<g id="node5" class="node">
<title>logfc</title>
<ellipse fill="lightgrey" stroke="black" cx="135.39" cy="-57" rx="65.79" ry="18"/>
<text text-anchor="middle" x="135.39" y="-53.3" font-family="Times,serif" font-size="14.00">logfc ~ Normal</text>
</g>
<!-- sigma&#45;&gt;logfc -->
<g id="edge4" class="edge">
<title>sigma&#45;&gt;logfc</title>
<path fill="none" stroke="black" d="M264.97,-112.64C239.72,-101.99 205.98,-87.76 179.25,-76.49"/>
<polygon fill="black" stroke="black" points="180.33,-73.15 169.75,-72.49 177.61,-79.6 180.33,-73.15"/>
</g>
<!-- mu&#45;&gt;logfc -->
<g id="edge3" class="edge">
<title>mu&#45;&gt;logfc</title>
<path fill="none" stroke="black" d="M135.39,-110.7C135.39,-102.98 135.39,-93.71 135.39,-85.11"/>
<polygon fill="black" stroke="black" points="138.89,-85.1 135.39,-75.1 131.89,-85.1 138.89,-85.1"/>
</g>
</g>
</svg>
