<?xml version="1.0" encoding="UTF-8" standalone="no"?>
<!DOCTYPE svg PUBLIC "-//W3C//DTD SVG 1.1//EN"
 "http://www.w3.org/Graphics/SVG/1.1/DTD/svg11.dtd">
<!-- Generated by graphviz version 2.42.3 (20191010.1750)
 -->
<!-- Title: %3 Pages: 1 -->
<svg width="392pt" height="226pt"
 viewBox="0.00 0.00 391.64 226.00" xmlns="http://www.w3.org/2000/svg" xmlns:xlink="http://www.w3.org/1999/xlink">
<g id="graph0" class="graph" transform="scale(1 1) rotate(0) translate(4 222)">
<title>%3</title>
<polygon fill="white" stroke="transparent" points="-4,4 -4,-222 387.64,-222 387.64,4 -4,4"/>
<g id="clust1" class="cluster">
<title>cluster20</title>
<path fill="none" stroke="black" d="M77.48,-8C77.48,-8 197.48,-8 197.48,-8 203.48,-8 209.48,-14 209.48,-20 209.48,-20 209.48,-142 209.48,-142 209.48,-148 203.48,-154 197.48,-154 197.48,-154 77.48,-154 77.48,-154 71.48,-154 65.48,-148 65.48,-142 65.48,-142 65.48,-20 65.48,-20 65.48,-14 71.48,-8 77.48,-8"/>
<text text-anchor="middle" x="194.48" y="-14.8" font-family="Times,serif" font-size="14.00">20</text>
</g>
<!-- alpha -->
<g id="node1" class="node">
<title>alpha</title>
<ellipse fill="none" stroke="black" cx="65.48" cy="-200" rx="65.46" ry="18"/>
<text text-anchor="middle" x="65.48" y="-195.8" font-family="Times,serif" font-size="14.00">alpha ~ Normal</text>
</g>
<!-- mu -->
<g id="node5" class="node">
<title>mu</title>
<polygon fill="none" stroke="black" points="199.64,-146 75.31,-146 75.31,-110 199.64,-110 199.64,-146"/>
<text text-anchor="middle" x="137.48" y="-123.8" font-family="Times,serif" font-size="14.00">mu ~ Deterministic</text>
</g>
<!-- alpha&#45;&gt;mu -->
<g id="edge1" class="edge">
<title>alpha&#45;&gt;mu</title>
<path fill="none" stroke="black" d="M82.54,-182.41C91.49,-173.71 102.62,-162.89 112.51,-153.27"/>
<polygon fill="black" stroke="black" points="115.06,-155.68 119.79,-146.2 110.18,-150.66 115.06,-155.68"/>
</g>
<!-- sigma -->
<g id="node2" class="node">
<title>sigma</title>
<ellipse fill="none" stroke="black" cx="300.48" cy="-128" rx="83.33" ry="18"/>
<text text-anchor="middle" x="300.48" y="-123.8" font-family="Times,serif" font-size="14.00">sigma ~ HalfNormal</text>
</g>
<!-- logfc -->
<g id="node4" class="node">
<title>logfc</title>
<ellipse fill="lightgrey" stroke="black" cx="137.48" cy="-56" rx="64.5" ry="18"/>
<text text-anchor="middle" x="137.48" y="-51.8" font-family="Times,serif" font-size="14.00">logfc ~ Normal</text>
</g>
<!-- sigma&#45;&gt;logfc -->
<g id="edge3" class="edge">
<title>sigma&#45;&gt;logfc</title>
<path fill="none" stroke="black" d="M264.71,-111.64C239.92,-100.99 206.78,-86.76 180.54,-75.49"/>
<polygon fill="black" stroke="black" points="181.79,-72.22 171.22,-71.49 179.02,-78.65 181.79,-72.22"/>
</g>
<!-- beta -->
<g id="node3" class="node">
<title>beta</title>
<ellipse fill="none" stroke="black" cx="210.48" cy="-200" rx="61.11" ry="18"/>
<text text-anchor="middle" x="210.48" y="-195.8" font-family="Times,serif" font-size="14.00">beta ~ Normal</text>
</g>
<!-- beta&#45;&gt;mu -->
<g id="edge2" class="edge">
<title>beta&#45;&gt;mu</title>
<path fill="none" stroke="black" d="M193.18,-182.41C184.11,-173.71 172.82,-162.89 162.79,-153.27"/>
<polygon fill="black" stroke="black" points="165.06,-150.6 155.42,-146.2 160.21,-155.65 165.06,-150.6"/>
</g>
<!-- mu&#45;&gt;logfc -->
<g id="edge4" class="edge">
<title>mu&#45;&gt;logfc</title>
<path fill="none" stroke="black" d="M137.48,-109.7C137.48,-101.98 137.48,-92.71 137.48,-84.11"/>
<polygon fill="black" stroke="black" points="140.98,-84.1 137.48,-74.1 133.98,-84.1 140.98,-84.1"/>
</g>
</g>
</svg>
