<?xml version="1.0" encoding="UTF-8" standalone="no"?>
<!DOCTYPE svg PUBLIC "-//W3C//DTD SVG 1.1//EN"
 "http://www.w3.org/Graphics/SVG/1.1/DTD/svg11.dtd">
<!-- Generated by graphviz version 2.42.3 (20191010.1750)
 -->
<!-- Title: %3 Pages: 1 -->
<svg width="912pt" height="462pt"
 viewBox="0.00 0.00 911.91 462.00" xmlns="http://www.w3.org/2000/svg" xmlns:xlink="http://www.w3.org/1999/xlink">
<g id="graph0" class="graph" transform="scale(1 1) rotate(0) translate(4 458)">
<title>%3</title>
<polygon fill="white" stroke="transparent" points="-4,4 -4,-458 907.91,-458 907.91,4 -4,4"/>
<g id="clust1" class="cluster">
<title>cluster5</title>
<path fill="none" stroke="black" d="M119.6,-316C119.6,-316 273.6,-316 273.6,-316 279.6,-316 285.6,-322 285.6,-328 285.6,-328 285.6,-378 285.6,-378 285.6,-384 279.6,-390 273.6,-390 273.6,-390 119.6,-390 119.6,-390 113.6,-390 107.6,-384 107.6,-378 107.6,-378 107.6,-328 107.6,-328 107.6,-322 113.6,-316 119.6,-316"/>
<text text-anchor="middle" x="274.1" y="-322.8" font-family="Times,serif" font-size="14.00">5</text>
</g>
<g id="clust2" class="cluster">
<title>cluster15</title>
<path fill="none" stroke="black" d="M119.6,-162C119.6,-162 273.6,-162 273.6,-162 279.6,-162 285.6,-168 285.6,-174 285.6,-174 285.6,-296 285.6,-296 285.6,-302 279.6,-308 273.6,-308 273.6,-308 119.6,-308 119.6,-308 113.6,-308 107.6,-302 107.6,-296 107.6,-296 107.6,-174 107.6,-174 107.6,-168 113.6,-162 119.6,-162"/>
<text text-anchor="middle" x="270.6" y="-168.8" font-family="Times,serif" font-size="14.00">15</text>
</g>
<g id="clust3" class="cluster">
<title>cluster50</title>
<path fill="none" stroke="black" d="M539.6,-162C539.6,-162 669.6,-162 669.6,-162 675.6,-162 681.6,-168 681.6,-174 681.6,-174 681.6,-224 681.6,-224 681.6,-230 675.6,-236 669.6,-236 669.6,-236 539.6,-236 539.6,-236 533.6,-236 527.6,-230 527.6,-224 527.6,-224 527.6,-174 527.6,-174 527.6,-168 533.6,-162 539.6,-162"/>
<text text-anchor="middle" x="666.6" y="-168.8" font-family="Times,serif" font-size="14.00">50</text>
</g>
<g id="clust4" class="cluster">
<title>cluster750</title>
<path fill="none" stroke="black" d="M330.6,-8C330.6,-8 472.6,-8 472.6,-8 478.6,-8 484.6,-14 484.6,-20 484.6,-20 484.6,-142 484.6,-142 484.6,-148 478.6,-154 472.6,-154 472.6,-154 330.6,-154 330.6,-154 324.6,-154 318.6,-148 318.6,-142 318.6,-142 318.6,-20 318.6,-20 318.6,-14 324.6,-8 330.6,-8"/>
<text text-anchor="middle" x="466.1" y="-14.8" font-family="Times,serif" font-size="14.00">750</text>
</g>
<!-- mu_epsilon -->
<g id="node1" class="node">
<title>mu_epsilon</title>
<ellipse fill="none" stroke="black" cx="87.6" cy="-436" rx="87.69" ry="18"/>
<text text-anchor="middle" x="87.6" y="-431.8" font-family="Times,serif" font-size="14.00">mu_epsilon ~ Normal</text>
</g>
<!-- epsilon_g -->
<g id="node7" class="node">
<title>epsilon_g</title>
<ellipse fill="none" stroke="black" cx="196.6" cy="-364" rx="80.93" ry="18"/>
<text text-anchor="middle" x="196.6" y="-359.8" font-family="Times,serif" font-size="14.00">epsilon_g ~ Normal</text>
</g>
<!-- mu_epsilon&#45;&gt;epsilon_g -->
<g id="edge1" class="edge">
<title>mu_epsilon&#45;&gt;epsilon_g</title>
<path fill="none" stroke="black" d="M112.88,-418.76C127.73,-409.22 146.7,-397.04 162.83,-386.68"/>
<polygon fill="black" stroke="black" points="164.93,-389.5 171.45,-381.15 161.15,-383.61 164.93,-389.5"/>
</g>
<!-- sigma_alpha -->
<g id="node2" class="node">
<title>sigma_alpha</title>
<ellipse fill="none" stroke="black" cx="402.6" cy="-282" rx="106.98" ry="18"/>
<text text-anchor="middle" x="402.6" y="-277.8" font-family="Times,serif" font-size="14.00">sigma_alpha ~ Exponential</text>
</g>
<!-- alpha_s -->
<g id="node8" class="node">
<title>alpha_s</title>
<ellipse fill="none" stroke="black" cx="204.6" cy="-210" rx="73.18" ry="18"/>
<text text-anchor="middle" x="204.6" y="-205.8" font-family="Times,serif" font-size="14.00">alpha_s ~ Normal</text>
</g>
<!-- sigma_alpha&#45;&gt;alpha_s -->
<g id="edge5" class="edge">
<title>sigma_alpha&#45;&gt;alpha_s</title>
<path fill="none" stroke="black" d="M358.65,-265.46C327.78,-254.55 286.44,-239.93 254.35,-228.59"/>
<polygon fill="black" stroke="black" points="255.31,-225.22 244.71,-225.18 252.97,-231.82 255.31,-225.22"/>
</g>
<!-- sigma -->
<g id="node3" class="node">
<title>sigma</title>
<ellipse fill="none" stroke="black" cx="577.6" cy="-128" rx="83.34" ry="18"/>
<text text-anchor="middle" x="577.6" y="-123.8" font-family="Times,serif" font-size="14.00">sigma ~ Exponential</text>
</g>
<!-- logfc -->
<g id="node11" class="node">
<title>logfc</title>
<ellipse fill="lightgrey" stroke="black" cx="406.6" cy="-56" rx="64.5" ry="18"/>
<text text-anchor="middle" x="406.6" y="-51.8" font-family="Times,serif" font-size="14.00">logfc ~ Normal</text>
</g>
<!-- sigma&#45;&gt;logfc -->
<g id="edge10" class="edge">
<title>sigma&#45;&gt;logfc</title>
<path fill="none" stroke="black" d="M540.49,-111.81C514.13,-101.02 478.62,-86.48 450.79,-75.09"/>
<polygon fill="black" stroke="black" points="451.88,-71.75 441.3,-71.21 449.22,-78.23 451.88,-71.75"/>
</g>
<!-- mu_beta -->
<g id="node4" class="node">
<title>mu_beta</title>
<ellipse fill="none" stroke="black" cx="604.6" cy="-282" rx="76.56" ry="18"/>
<text text-anchor="middle" x="604.6" y="-277.8" font-family="Times,serif" font-size="14.00">mu_beta ~ Normal</text>
</g>
<!-- beta_c -->
<g id="node10" class="node">
<title>beta_c</title>
<ellipse fill="none" stroke="black" cx="604.6" cy="-210" rx="69.31" ry="18"/>
<text text-anchor="middle" x="604.6" y="-205.8" font-family="Times,serif" font-size="14.00">beta_c ~ Normal</text>
</g>
<!-- mu_beta&#45;&gt;beta_c -->
<g id="edge7" class="edge">
<title>mu_beta&#45;&gt;beta_c</title>
<path fill="none" stroke="black" d="M604.6,-263.7C604.6,-255.98 604.6,-246.71 604.6,-238.11"/>
<polygon fill="black" stroke="black" points="608.1,-238.1 604.6,-228.1 601.1,-238.1 608.1,-238.1"/>
</g>
<!-- sigma_epsilon -->
<g id="node5" class="node">
<title>sigma_epsilon</title>
<ellipse fill="none" stroke="black" cx="306.6" cy="-436" rx="113.27" ry="18"/>
<text text-anchor="middle" x="306.6" y="-431.8" font-family="Times,serif" font-size="14.00">sigma_epsilon ~ Exponential</text>
</g>
<!-- sigma_epsilon&#45;&gt;epsilon_g -->
<g id="edge2" class="edge">
<title>sigma_epsilon&#45;&gt;epsilon_g</title>
<path fill="none" stroke="black" d="M280.53,-418.41C265.62,-408.93 246.76,-396.92 230.69,-386.7"/>
<polygon fill="black" stroke="black" points="232.41,-383.64 222.1,-381.23 228.65,-389.55 232.41,-383.64"/>
</g>
<!-- sigma_beta -->
<g id="node6" class="node">
<title>sigma_beta</title>
<ellipse fill="none" stroke="black" cx="801.6" cy="-282" rx="102.14" ry="18"/>
<text text-anchor="middle" x="801.6" y="-277.8" font-family="Times,serif" font-size="14.00">sigma_beta ~ Exponential</text>
</g>
<!-- sigma_beta&#45;&gt;beta_c -->
<g id="edge6" class="edge">
<title>sigma_beta&#45;&gt;beta_c</title>
<path fill="none" stroke="black" d="M758.36,-265.64C727.36,-254.62 685.57,-239.77 653.38,-228.33"/>
<polygon fill="black" stroke="black" points="654.31,-224.95 643.72,-224.9 651.97,-231.55 654.31,-224.95"/>
</g>
<!-- mu_alpha -->
<g id="node9" class="node">
<title>mu_alpha</title>
<polygon fill="none" stroke="black" points="277.58,-300 115.61,-300 115.61,-264 277.58,-264 277.58,-300"/>
<text text-anchor="middle" x="196.6" y="-277.8" font-family="Times,serif" font-size="14.00">mu_alpha ~ Deterministic</text>
</g>
<!-- epsilon_g&#45;&gt;mu_alpha -->
<g id="edge3" class="edge">
<title>epsilon_g&#45;&gt;mu_alpha</title>
<path fill="none" stroke="black" d="M196.6,-345.64C196.6,-335.3 196.6,-321.94 196.6,-310.22"/>
<polygon fill="black" stroke="black" points="200.1,-310.05 196.6,-300.05 193.1,-310.05 200.1,-310.05"/>
</g>
<!-- mu_sgc -->
<g id="node12" class="node">
<title>mu_sgc</title>
<polygon fill="none" stroke="black" points="476.92,-146 326.27,-146 326.27,-110 476.92,-110 476.92,-146"/>
<text text-anchor="middle" x="401.6" y="-123.8" font-family="Times,serif" font-size="14.00">mu_sgc ~ Deterministic</text>
</g>
<!-- alpha_s&#45;&gt;mu_sgc -->
<g id="edge8" class="edge">
<title>alpha_s&#45;&gt;mu_sgc</title>
<path fill="none" stroke="black" d="M240.73,-194.33C271.39,-181.87 315.75,-163.86 350.13,-149.9"/>
<polygon fill="black" stroke="black" points="351.59,-153.08 359.54,-146.08 348.96,-146.6 351.59,-153.08"/>
</g>
<!-- mu_alpha&#45;&gt;alpha_s -->
<g id="edge4" class="edge">
<title>mu_alpha&#45;&gt;alpha_s</title>
<path fill="none" stroke="black" d="M198.57,-263.7C199.45,-255.98 200.51,-246.71 201.5,-238.11"/>
<polygon fill="black" stroke="black" points="204.98,-238.44 202.64,-228.1 198.03,-237.64 204.98,-238.44"/>
</g>
<!-- beta_c&#45;&gt;mu_sgc -->
<g id="edge9" class="edge">
<title>beta_c&#45;&gt;mu_sgc</title>
<path fill="none" stroke="black" d="M567.83,-194.51C536.19,-182.04 490.14,-163.89 454.52,-149.86"/>
<polygon fill="black" stroke="black" points="455.36,-146.43 444.78,-146.02 452.8,-152.94 455.36,-146.43"/>
</g>
<!-- mu_sgc&#45;&gt;logfc -->
<g id="edge11" class="edge">
<title>mu_sgc&#45;&gt;logfc</title>
<path fill="none" stroke="black" d="M402.83,-109.7C403.38,-101.98 404.04,-92.71 404.66,-84.11"/>
<polygon fill="black" stroke="black" points="408.15,-84.33 405.37,-74.1 401.17,-83.83 408.15,-84.33"/>
</g>
</g>
</svg>
