<?xml version="1.0" encoding="UTF-8" standalone="no"?>
<!DOCTYPE svg PUBLIC "-//W3C//DTD SVG 1.1//EN"
 "http://www.w3.org/Graphics/SVG/1.1/DTD/svg11.dtd">
<!-- Generated by graphviz version 2.42.3 (20191010.1750)
 -->
<!-- Title: %3 Pages: 1 -->
<svg width="918pt" height="465pt"
 viewBox="0.00 0.00 917.73 465.00" xmlns="http://www.w3.org/2000/svg" xmlns:xlink="http://www.w3.org/1999/xlink">
<g id="graph0" class="graph" transform="scale(1 1) rotate(0) translate(4 461)">
<title>%3</title>
<polygon fill="white" stroke="transparent" points="-4,4 -4,-461 913.73,-461 913.73,4 -4,4"/>
<g id="clust1" class="cluster">
<title>cluster5</title>
<path fill="none" stroke="black" d="M121.04,-318C121.04,-318 277.04,-318 277.04,-318 283.04,-318 289.04,-324 289.04,-330 289.04,-330 289.04,-381 289.04,-381 289.04,-387 283.04,-393 277.04,-393 277.04,-393 121.04,-393 121.04,-393 115.04,-393 109.04,-387 109.04,-381 109.04,-381 109.04,-330 109.04,-330 109.04,-324 115.04,-318 121.04,-318"/>
<text text-anchor="middle" x="277.54" y="-325.8" font-family="Times,serif" font-size="14.00">5</text>
</g>
<g id="clust2" class="cluster">
<title>cluster15</title>
<path fill="none" stroke="black" d="M123.04,-163C123.04,-163 275.04,-163 275.04,-163 281.04,-163 287.04,-169 287.04,-175 287.04,-175 287.04,-298 287.04,-298 287.04,-304 281.04,-310 275.04,-310 275.04,-310 123.04,-310 123.04,-310 117.04,-310 111.04,-304 111.04,-298 111.04,-298 111.04,-175 111.04,-175 111.04,-169 117.04,-163 123.04,-163"/>
<text text-anchor="middle" x="272.04" y="-170.8" font-family="Times,serif" font-size="14.00">15</text>
</g>
<g id="clust3" class="cluster">
<title>cluster20</title>
<path fill="none" stroke="black" d="M541.04,-163C541.04,-163 675.04,-163 675.04,-163 681.04,-163 687.04,-169 687.04,-175 687.04,-175 687.04,-226 687.04,-226 687.04,-232 681.04,-238 675.04,-238 675.04,-238 541.04,-238 541.04,-238 535.04,-238 529.04,-232 529.04,-226 529.04,-226 529.04,-175 529.04,-175 529.04,-169 535.04,-163 541.04,-163"/>
<text text-anchor="middle" x="672.04" y="-170.8" font-family="Times,serif" font-size="14.00">20</text>
</g>
<g id="clust4" class="cluster">
<title>cluster300</title>
<path fill="none" stroke="black" d="M334.04,-8C334.04,-8 474.04,-8 474.04,-8 480.04,-8 486.04,-14 486.04,-20 486.04,-20 486.04,-143 486.04,-143 486.04,-149 480.04,-155 474.04,-155 474.04,-155 334.04,-155 334.04,-155 328.04,-155 322.04,-149 322.04,-143 322.04,-143 322.04,-20 322.04,-20 322.04,-14 328.04,-8 334.04,-8"/>
<text text-anchor="middle" x="467.54" y="-15.8" font-family="Times,serif" font-size="14.00">300</text>
</g>
<!-- sigma -->
<g id="node1" class="node">
<title>sigma</title>
<ellipse fill="none" stroke="black" cx="228.04" cy="-129" rx="83.69" ry="18"/>
<text text-anchor="middle" x="228.04" y="-125.3" font-family="Times,serif" font-size="14.00">sigma ~ Exponential</text>
</g>
<!-- logfc -->
<g id="node12" class="node">
<title>logfc</title>
<ellipse fill="lightgrey" stroke="black" cx="400.04" cy="-57" rx="65.79" ry="18"/>
<text text-anchor="middle" x="400.04" y="-53.3" font-family="Times,serif" font-size="14.00">logfc ~ Normal</text>
</g>
<!-- sigma&#45;&gt;logfc -->
<g id="edge11" class="edge">
<title>sigma&#45;&gt;logfc</title>
<path fill="none" stroke="black" d="M265.36,-112.81C291.79,-102.06 327.36,-87.58 355.31,-76.21"/>
<polygon fill="black" stroke="black" points="356.9,-79.33 364.85,-72.32 354.27,-72.85 356.9,-79.33"/>
</g>
<!-- mu_epsilon -->
<g id="node2" class="node">
<title>mu_epsilon</title>
<ellipse fill="none" stroke="black" cx="89.04" cy="-439" rx="89.08" ry="18"/>
<text text-anchor="middle" x="89.04" y="-435.3" font-family="Times,serif" font-size="14.00">mu_epsilon ~ Normal</text>
</g>
<!-- epsilon_g -->
<g id="node7" class="node">
<title>epsilon_g</title>
<ellipse fill="none" stroke="black" cx="199.04" cy="-367" rx="81.79" ry="18"/>
<text text-anchor="middle" x="199.04" y="-363.3" font-family="Times,serif" font-size="14.00">epsilon_g ~ Normal</text>
</g>
<!-- mu_epsilon&#45;&gt;epsilon_g -->
<g id="edge1" class="edge">
<title>mu_epsilon&#45;&gt;epsilon_g</title>
<path fill="none" stroke="black" d="M114.83,-421.59C129.73,-412.11 148.65,-400.07 164.78,-389.8"/>
<polygon fill="black" stroke="black" points="166.86,-392.63 173.41,-384.31 163.1,-386.73 166.86,-392.63"/>
</g>
<!-- mu_beta -->
<g id="node3" class="node">
<title>mu_beta</title>
<ellipse fill="none" stroke="black" cx="608.04" cy="-284" rx="78.79" ry="18"/>
<text text-anchor="middle" x="608.04" y="-280.3" font-family="Times,serif" font-size="14.00">mu_beta ~ Normal</text>
</g>
<!-- beta_c -->
<g id="node10" class="node">
<title>beta_c</title>
<ellipse fill="none" stroke="black" cx="608.04" cy="-212" rx="70.69" ry="18"/>
<text text-anchor="middle" x="608.04" y="-208.3" font-family="Times,serif" font-size="14.00">beta_c ~ Normal</text>
</g>
<!-- mu_beta&#45;&gt;beta_c -->
<g id="edge7" class="edge">
<title>mu_beta&#45;&gt;beta_c</title>
<path fill="none" stroke="black" d="M608.04,-265.7C608.04,-257.98 608.04,-248.71 608.04,-240.11"/>
<polygon fill="black" stroke="black" points="611.54,-240.1 608.04,-230.1 604.54,-240.1 611.54,-240.1"/>
</g>
<!-- sigma_beta -->
<g id="node4" class="node">
<title>sigma_beta</title>
<ellipse fill="none" stroke="black" cx="807.04" cy="-284" rx="102.88" ry="18"/>
<text text-anchor="middle" x="807.04" y="-280.3" font-family="Times,serif" font-size="14.00">sigma_beta ~ Exponential</text>
</g>
<!-- sigma_beta&#45;&gt;beta_c -->
<g id="edge6" class="edge">
<title>sigma_beta&#45;&gt;beta_c</title>
<path fill="none" stroke="black" d="M763.37,-267.64C732.16,-256.66 690.12,-241.87 657.64,-230.45"/>
<polygon fill="black" stroke="black" points="658.49,-227.03 647.89,-227.02 656.17,-233.64 658.49,-227.03"/>
</g>
<!-- sigma_alpha -->
<g id="node5" class="node">
<title>sigma_alpha</title>
<ellipse fill="none" stroke="black" cx="404.04" cy="-284" rx="107.48" ry="18"/>
<text text-anchor="middle" x="404.04" y="-280.3" font-family="Times,serif" font-size="14.00">sigma_alpha ~ Exponential</text>
</g>
<!-- alpha_s -->
<g id="node8" class="node">
<title>alpha_s</title>
<ellipse fill="none" stroke="black" cx="204.04" cy="-212" rx="74.99" ry="18"/>
<text text-anchor="middle" x="204.04" y="-208.3" font-family="Times,serif" font-size="14.00">alpha_s ~ Normal</text>
</g>
<!-- sigma_alpha&#45;&gt;alpha_s -->
<g id="edge5" class="edge">
<title>sigma_alpha&#45;&gt;alpha_s</title>
<path fill="none" stroke="black" d="M359.66,-267.46C328.47,-256.55 286.71,-241.93 254.3,-230.59"/>
<polygon fill="black" stroke="black" points="255.16,-227.18 244.56,-227.18 252.85,-233.79 255.16,-227.18"/>
</g>
<!-- sigma_epsilon -->
<g id="node6" class="node">
<title>sigma_epsilon</title>
<ellipse fill="none" stroke="black" cx="310.04" cy="-439" rx="113.98" ry="18"/>
<text text-anchor="middle" x="310.04" y="-435.3" font-family="Times,serif" font-size="14.00">sigma_epsilon ~ Exponential</text>
</g>
<!-- sigma_epsilon&#45;&gt;epsilon_g -->
<g id="edge2" class="edge">
<title>sigma_epsilon&#45;&gt;epsilon_g</title>
<path fill="none" stroke="black" d="M283.74,-421.41C268.7,-411.93 249.66,-399.92 233.45,-389.7"/>
<polygon fill="black" stroke="black" points="235.1,-386.6 224.78,-384.23 231.37,-392.52 235.1,-386.6"/>
</g>
<!-- mu_alpha -->
<g id="node9" class="node">
<title>mu_alpha</title>
<polygon fill="none" stroke="black" points="279.04,-302 119.04,-302 119.04,-266 279.04,-266 279.04,-302"/>
<text text-anchor="middle" x="199.04" y="-280.3" font-family="Times,serif" font-size="14.00">mu_alpha ~ Deterministic</text>
</g>
<!-- epsilon_g&#45;&gt;mu_alpha -->
<g id="edge3" class="edge">
<title>epsilon_g&#45;&gt;mu_alpha</title>
<path fill="none" stroke="black" d="M199.04,-348.82C199.04,-338.19 199.04,-324.31 199.04,-312.2"/>
<polygon fill="black" stroke="black" points="202.54,-312.15 199.04,-302.15 195.54,-312.15 202.54,-312.15"/>
</g>
<!-- mu_sgc -->
<g id="node11" class="node">
<title>mu_sgc</title>
<polygon fill="none" stroke="black" points="478.04,-147 330.04,-147 330.04,-111 478.04,-111 478.04,-147"/>
<text text-anchor="middle" x="404.04" y="-125.3" font-family="Times,serif" font-size="14.00">mu_sgc ~ Deterministic</text>
</g>
<!-- alpha_s&#45;&gt;mu_sgc -->
<g id="edge9" class="edge">
<title>alpha_s&#45;&gt;mu_sgc</title>
<path fill="none" stroke="black" d="M240.73,-196.14C272.06,-183.45 317.49,-165.05 352.48,-150.88"/>
<polygon fill="black" stroke="black" points="354.1,-154 362.05,-147 351.47,-147.51 354.1,-154"/>
</g>
<!-- mu_alpha&#45;&gt;alpha_s -->
<g id="edge4" class="edge">
<title>mu_alpha&#45;&gt;alpha_s</title>
<path fill="none" stroke="black" d="M200.28,-265.7C200.83,-257.98 201.49,-248.71 202.11,-240.11"/>
<polygon fill="black" stroke="black" points="205.6,-240.33 202.82,-230.1 198.62,-239.83 205.6,-240.33"/>
</g>
<!-- beta_c&#45;&gt;mu_sgc -->
<g id="edge8" class="edge">
<title>beta_c&#45;&gt;mu_sgc</title>
<path fill="none" stroke="black" d="M571.57,-196.52C539.48,-183.78 492.39,-165.08 456.3,-150.75"/>
<polygon fill="black" stroke="black" points="457.5,-147.46 446.91,-147.02 454.91,-153.96 457.5,-147.46"/>
</g>
<!-- mu_sgc&#45;&gt;logfc -->
<g id="edge10" class="edge">
<title>mu_sgc&#45;&gt;logfc</title>
<path fill="none" stroke="black" d="M403.05,-110.7C402.61,-102.98 402.08,-93.71 401.59,-85.11"/>
<polygon fill="black" stroke="black" points="405.08,-84.89 401.02,-75.1 398.1,-85.29 405.08,-84.89"/>
</g>
</g>
</svg>
