<?xml version="1.0" encoding="UTF-8" standalone="no"?>
<!DOCTYPE svg PUBLIC "-//W3C//DTD SVG 1.1//EN"
 "http://www.w3.org/Graphics/SVG/1.1/DTD/svg11.dtd">
<!-- Generated by graphviz version 2.42.3 (20191010.1750)
 -->
<!-- Title: %3 Pages: 1 -->
<svg width="823pt" height="308pt"
 viewBox="0.00 0.00 823.40 308.00" xmlns="http://www.w3.org/2000/svg" xmlns:xlink="http://www.w3.org/1999/xlink">
<g id="graph0" class="graph" transform="scale(1 1) rotate(0) translate(4 304)">
<title>%3</title>
<polygon fill="white" stroke="transparent" points="-4,4 -4,-304 819.4,-304 819.4,4 -4,4"/>
<g id="clust1" class="cluster">
<title>cluster20</title>
<path fill="none" stroke="black" d="M234.32,-162C234.32,-162 364.32,-162 364.32,-162 370.32,-162 376.32,-168 376.32,-174 376.32,-174 376.32,-224 376.32,-224 376.32,-230 370.32,-236 364.32,-236 364.32,-236 234.32,-236 234.32,-236 228.32,-236 222.32,-230 222.32,-224 222.32,-224 222.32,-174 222.32,-174 222.32,-168 228.32,-162 234.32,-162"/>
<text text-anchor="middle" x="361.32" y="-168.8" font-family="Times,serif" font-size="14.00">20</text>
</g>
<g id="clust2" class="cluster">
<title>cluster5</title>
<path fill="none" stroke="black" d="M430.32,-162C430.32,-162 584.32,-162 584.32,-162 590.32,-162 596.32,-168 596.32,-174 596.32,-174 596.32,-224 596.32,-224 596.32,-230 590.32,-236 584.32,-236 584.32,-236 430.32,-236 430.32,-236 424.32,-236 418.32,-230 418.32,-224 418.32,-224 418.32,-174 418.32,-174 418.32,-168 424.32,-162 430.32,-162"/>
<text text-anchor="middle" x="584.82" y="-168.8" font-family="Times,serif" font-size="14.00">5</text>
</g>
<g id="clust3" class="cluster">
<title>cluster300</title>
<path fill="none" stroke="black" d="M335.32,-8C335.32,-8 477.32,-8 477.32,-8 483.32,-8 489.32,-14 489.32,-20 489.32,-20 489.32,-142 489.32,-142 489.32,-148 483.32,-154 477.32,-154 477.32,-154 335.32,-154 335.32,-154 329.32,-154 323.32,-148 323.32,-142 323.32,-142 323.32,-20 323.32,-20 323.32,-14 329.32,-8 335.32,-8"/>
<text text-anchor="middle" x="470.82" y="-14.8" font-family="Times,serif" font-size="14.00">300</text>
</g>
<!-- sigma -->
<g id="node1" class="node">
<title>sigma</title>
<ellipse fill="none" stroke="black" cx="230.32" cy="-128" rx="83.34" ry="18"/>
<text text-anchor="middle" x="230.32" y="-123.8" font-family="Times,serif" font-size="14.00">sigma ~ Exponential</text>
</g>
<!-- logfc -->
<g id="node8" class="node">
<title>logfc</title>
<ellipse fill="lightgrey" stroke="black" cx="400.32" cy="-56" rx="64.5" ry="18"/>
<text text-anchor="middle" x="400.32" y="-51.8" font-family="Times,serif" font-size="14.00">logfc ~ Normal</text>
</g>
<!-- sigma&#45;&gt;logfc -->
<g id="edge7" class="edge">
<title>sigma&#45;&gt;logfc</title>
<path fill="none" stroke="black" d="M267.21,-111.81C293.33,-101.06 328.48,-86.58 356.11,-75.21"/>
<polygon fill="black" stroke="black" points="357.62,-78.37 365.53,-71.32 354.96,-71.89 357.62,-78.37"/>
</g>
<!-- sigma_gamma -->
<g id="node2" class="node">
<title>sigma_gamma</title>
<ellipse fill="none" stroke="black" cx="507.32" cy="-282" rx="113.74" ry="18"/>
<text text-anchor="middle" x="507.32" y="-277.8" font-family="Times,serif" font-size="14.00">sigma_gamma ~ Exponential</text>
</g>
<!-- gamma_g -->
<g id="node7" class="node">
<title>gamma_g</title>
<ellipse fill="none" stroke="black" cx="507.32" cy="-210" rx="81.4" ry="18"/>
<text text-anchor="middle" x="507.32" y="-205.8" font-family="Times,serif" font-size="14.00">gamma_g ~ Normal</text>
</g>
<!-- sigma_gamma&#45;&gt;gamma_g -->
<g id="edge4" class="edge">
<title>sigma_gamma&#45;&gt;gamma_g</title>
<path fill="none" stroke="black" d="M507.32,-263.7C507.32,-255.98 507.32,-246.71 507.32,-238.11"/>
<polygon fill="black" stroke="black" points="510.82,-238.1 507.32,-228.1 503.82,-238.1 510.82,-238.1"/>
</g>
<!-- mu_gamma -->
<g id="node3" class="node">
<title>mu_gamma</title>
<ellipse fill="none" stroke="black" cx="727.32" cy="-282" rx="88.16" ry="18"/>
<text text-anchor="middle" x="727.32" y="-277.8" font-family="Times,serif" font-size="14.00">mu_gamma ~ Normal</text>
</g>
<!-- mu_gamma&#45;&gt;gamma_g -->
<g id="edge3" class="edge">
<title>mu_gamma&#45;&gt;gamma_g</title>
<path fill="none" stroke="black" d="M681.74,-266.5C646.73,-255.36 598.28,-239.94 561.33,-228.19"/>
<polygon fill="black" stroke="black" points="562.31,-224.82 551.72,-225.13 560.19,-231.49 562.31,-224.82"/>
</g>
<!-- sigma_beta -->
<g id="node4" class="node">
<title>sigma_beta</title>
<ellipse fill="none" stroke="black" cx="102.32" cy="-282" rx="102.14" ry="18"/>
<text text-anchor="middle" x="102.32" y="-277.8" font-family="Times,serif" font-size="14.00">sigma_beta ~ Exponential</text>
</g>
<!-- beta_c -->
<g id="node6" class="node">
<title>beta_c</title>
<ellipse fill="none" stroke="black" cx="299.32" cy="-210" rx="69.31" ry="18"/>
<text text-anchor="middle" x="299.32" y="-205.8" font-family="Times,serif" font-size="14.00">beta_c ~ Normal</text>
</g>
<!-- sigma_beta&#45;&gt;beta_c -->
<g id="edge1" class="edge">
<title>sigma_beta&#45;&gt;beta_c</title>
<path fill="none" stroke="black" d="M145.55,-265.64C176.55,-254.62 218.35,-239.77 250.54,-228.33"/>
<polygon fill="black" stroke="black" points="251.95,-231.55 260.2,-224.9 249.6,-224.95 251.95,-231.55"/>
</g>
<!-- mu_beta -->
<g id="node5" class="node">
<title>mu_beta</title>
<ellipse fill="none" stroke="black" cx="299.32" cy="-282" rx="76.56" ry="18"/>
<text text-anchor="middle" x="299.32" y="-277.8" font-family="Times,serif" font-size="14.00">mu_beta ~ Normal</text>
</g>
<!-- mu_beta&#45;&gt;beta_c -->
<g id="edge2" class="edge">
<title>mu_beta&#45;&gt;beta_c</title>
<path fill="none" stroke="black" d="M299.32,-263.7C299.32,-255.98 299.32,-246.71 299.32,-238.11"/>
<polygon fill="black" stroke="black" points="302.82,-238.1 299.32,-228.1 295.82,-238.1 302.82,-238.1"/>
</g>
<!-- mu_sgc -->
<g id="node9" class="node">
<title>mu_sgc</title>
<polygon fill="none" stroke="black" points="481.65,-146 330.99,-146 330.99,-110 481.65,-110 481.65,-146"/>
<text text-anchor="middle" x="406.32" y="-123.8" font-family="Times,serif" font-size="14.00">mu_sgc ~ Deterministic</text>
</g>
<!-- beta_c&#45;&gt;mu_sgc -->
<g id="edge5" class="edge">
<title>beta_c&#45;&gt;mu_sgc</title>
<path fill="none" stroke="black" d="M320.97,-192.81C336.51,-181.2 357.67,-165.37 375.04,-152.39"/>
<polygon fill="black" stroke="black" points="377.3,-155.06 383.22,-146.27 373.11,-149.46 377.3,-155.06"/>
</g>
<!-- gamma_g&#45;&gt;mu_sgc -->
<g id="edge6" class="edge">
<title>gamma_g&#45;&gt;mu_sgc</title>
<path fill="none" stroke="black" d="M486.39,-192.42C471.83,-180.89 452.2,-165.34 436.02,-152.52"/>
<polygon fill="black" stroke="black" points="437.93,-149.57 427.92,-146.11 433.58,-155.06 437.93,-149.57"/>
</g>
<!-- mu_sgc&#45;&gt;logfc -->
<g id="edge8" class="edge">
<title>mu_sgc&#45;&gt;logfc</title>
<path fill="none" stroke="black" d="M404.84,-109.7C404.18,-101.98 403.38,-92.71 402.64,-84.11"/>
<polygon fill="black" stroke="black" points="406.13,-83.77 401.79,-74.1 399.15,-84.37 406.13,-83.77"/>
</g>
</g>
</svg>
