<?xml version="1.0" encoding="UTF-8" standalone="no"?>
<!DOCTYPE svg PUBLIC "-//W3C//DTD SVG 1.1//EN"
 "http://www.w3.org/Graphics/SVG/1.1/DTD/svg11.dtd">
<!-- Generated by graphviz version 2.42.3 (20191010.1750)
 -->
<!-- Title: %3 Pages: 1 -->
<svg width="808pt" height="310pt"
 viewBox="0.00 0.00 807.84 310.00" xmlns="http://www.w3.org/2000/svg" xmlns:xlink="http://www.w3.org/1999/xlink">
<g id="graph0" class="graph" transform="scale(1 1) rotate(0) translate(4 306)">
<title>%3</title>
<polygon fill="white" stroke="transparent" points="-4,4 -4,-306 803.84,-306 803.84,4 -4,4"/>
<g id="clust1" class="cluster">
<title>cluster5</title>
<path fill="none" stroke="black" d="M261.64,-163C261.64,-163 529.64,-163 529.64,-163 535.64,-163 541.64,-169 541.64,-175 541.64,-175 541.64,-226 541.64,-226 541.64,-232 535.64,-238 529.64,-238 529.64,-238 261.64,-238 261.64,-238 255.64,-238 249.64,-232 249.64,-226 249.64,-226 249.64,-175 249.64,-175 249.64,-169 255.64,-163 261.64,-163"/>
<text text-anchor="middle" x="530.14" y="-170.8" font-family="Times,serif" font-size="14.00">5</text>
</g>
<g id="clust2" class="cluster">
<title>cluster150</title>
<path fill="none" stroke="black" d="M333.64,-8C333.64,-8 457.64,-8 457.64,-8 463.64,-8 469.64,-14 469.64,-20 469.64,-20 469.64,-143 469.64,-143 469.64,-149 463.64,-155 457.64,-155 457.64,-155 333.64,-155 333.64,-155 327.64,-155 321.64,-149 321.64,-143 321.64,-143 321.64,-20 321.64,-20 321.64,-14 327.64,-8 333.64,-8"/>
<text text-anchor="middle" x="451.14" y="-15.8" font-family="Times,serif" font-size="14.00">150</text>
</g>
<!-- sigma -->
<g id="node1" class="node">
<title>sigma</title>
<ellipse fill="none" stroke="black" cx="229.64" cy="-129" rx="84.49" ry="18"/>
<text text-anchor="middle" x="229.64" y="-125.3" font-family="Times,serif" font-size="14.00">sigma ~ HalfNormal</text>
</g>
<!-- logfc -->
<g id="node9" class="node">
<title>logfc</title>
<ellipse fill="lightgrey" stroke="black" cx="395.64" cy="-57" rx="65.79" ry="18"/>
<text text-anchor="middle" x="395.64" y="-53.3" font-family="Times,serif" font-size="14.00">logfc ~ Normal</text>
</g>
<!-- sigma&#45;&gt;logfc -->
<g id="edge8" class="edge">
<title>sigma&#45;&gt;logfc</title>
<path fill="none" stroke="black" d="M266.07,-112.64C291.32,-101.99 325.06,-87.76 351.78,-76.49"/>
<polygon fill="black" stroke="black" points="353.43,-79.6 361.28,-72.49 350.71,-73.15 353.43,-79.6"/>
</g>
<!-- mu_beta -->
<g id="node2" class="node">
<title>mu_beta</title>
<ellipse fill="none" stroke="black" cx="78.64" cy="-284" rx="78.79" ry="18"/>
<text text-anchor="middle" x="78.64" y="-280.3" font-family="Times,serif" font-size="14.00">mu_beta ~ Normal</text>
</g>
<!-- beta -->
<g id="node6" class="node">
<title>beta</title>
<ellipse fill="none" stroke="black" cx="319.64" cy="-212" rx="62.29" ry="18"/>
<text text-anchor="middle" x="319.64" y="-208.3" font-family="Times,serif" font-size="14.00">beta ~ Normal</text>
</g>
<!-- mu_beta&#45;&gt;beta -->
<g id="edge4" class="edge">
<title>mu_beta&#45;&gt;beta</title>
<path fill="none" stroke="black" d="M125.4,-269.42C166.07,-257.61 224.97,-240.5 267.23,-228.22"/>
<polygon fill="black" stroke="black" points="268.43,-231.52 277.06,-225.37 266.48,-224.8 268.43,-231.52"/>
</g>
<!-- sigma_beta -->
<g id="node3" class="node">
<title>sigma_beta</title>
<ellipse fill="none" stroke="black" cx="278.64" cy="-284" rx="103.18" ry="18"/>
<text text-anchor="middle" x="278.64" y="-280.3" font-family="Times,serif" font-size="14.00">sigma_beta ~ HalfNormal</text>
</g>
<!-- sigma_beta&#45;&gt;beta -->
<g id="edge3" class="edge">
<title>sigma_beta&#45;&gt;beta</title>
<path fill="none" stroke="black" d="M288.57,-266.05C293.4,-257.8 299.32,-247.7 304.69,-238.54"/>
<polygon fill="black" stroke="black" points="307.78,-240.19 309.81,-229.79 301.74,-236.65 307.78,-240.19"/>
</g>
<!-- sigma_alpha -->
<g id="node4" class="node">
<title>sigma_alpha</title>
<ellipse fill="none" stroke="black" cx="507.64" cy="-284" rx="107.78" ry="18"/>
<text text-anchor="middle" x="507.64" y="-280.3" font-family="Times,serif" font-size="14.00">sigma_alpha ~ HalfNormal</text>
</g>
<!-- alpha -->
<g id="node7" class="node">
<title>alpha</title>
<ellipse fill="none" stroke="black" cx="466.64" cy="-212" rx="66.89" ry="18"/>
<text text-anchor="middle" x="466.64" y="-208.3" font-family="Times,serif" font-size="14.00">alpha ~ Normal</text>
</g>
<!-- sigma_alpha&#45;&gt;alpha -->
<g id="edge2" class="edge">
<title>sigma_alpha&#45;&gt;alpha</title>
<path fill="none" stroke="black" d="M497.72,-266.05C492.95,-257.92 487.14,-248 481.84,-238.94"/>
<polygon fill="black" stroke="black" points="484.84,-237.14 476.76,-230.28 478.8,-240.67 484.84,-237.14"/>
</g>
<!-- mu_alpha -->
<g id="node5" class="node">
<title>mu_alpha</title>
<ellipse fill="none" stroke="black" cx="716.64" cy="-284" rx="83.39" ry="18"/>
<text text-anchor="middle" x="716.64" y="-280.3" font-family="Times,serif" font-size="14.00">mu_alpha ~ Normal</text>
</g>
<!-- mu_alpha&#45;&gt;alpha -->
<g id="edge1" class="edge">
<title>mu_alpha&#45;&gt;alpha</title>
<path fill="none" stroke="black" d="M667.85,-269.34C625.66,-257.53 564.75,-240.47 521.01,-228.22"/>
<polygon fill="black" stroke="black" points="521.7,-224.78 511.12,-225.45 519.81,-231.52 521.7,-224.78"/>
</g>
<!-- mu -->
<g id="node8" class="node">
<title>mu</title>
<polygon fill="none" stroke="black" points="457.64,-147 333.64,-147 333.64,-111 457.64,-111 457.64,-147"/>
<text text-anchor="middle" x="395.64" y="-125.3" font-family="Times,serif" font-size="14.00">mu ~ Deterministic</text>
</g>
<!-- beta&#45;&gt;mu -->
<g id="edge5" class="edge">
<title>beta&#45;&gt;mu</title>
<path fill="none" stroke="black" d="M335.39,-194.22C346.12,-182.78 360.5,-167.45 372.53,-154.64"/>
<polygon fill="black" stroke="black" points="375.36,-156.73 379.65,-147.04 370.26,-151.94 375.36,-156.73"/>
</g>
<!-- alpha&#45;&gt;mu -->
<g id="edge6" class="edge">
<title>alpha&#45;&gt;mu</title>
<path fill="none" stroke="black" d="M451.93,-194.22C441.91,-182.78 428.47,-167.45 417.24,-154.64"/>
<polygon fill="black" stroke="black" points="419.8,-152.25 410.58,-147.04 414.54,-156.87 419.8,-152.25"/>
</g>
<!-- mu&#45;&gt;logfc -->
<g id="edge7" class="edge">
<title>mu&#45;&gt;logfc</title>
<path fill="none" stroke="black" d="M395.64,-110.7C395.64,-102.98 395.64,-93.71 395.64,-85.11"/>
<polygon fill="black" stroke="black" points="399.14,-85.1 395.64,-75.1 392.14,-85.1 399.14,-85.1"/>
</g>
</g>
</svg>
