<?xml version="1.0" encoding="UTF-8" standalone="no"?>
<!DOCTYPE svg PUBLIC "-//W3C//DTD SVG 1.1//EN"
 "http://www.w3.org/Graphics/SVG/1.1/DTD/svg11.dtd">
<!-- Generated by graphviz version 2.42.3 (20191010.1750)
 -->
<!-- Title: %3 Pages: 1 -->
<svg width="796pt" height="308pt"
 viewBox="0.00 0.00 796.05 308.00" xmlns="http://www.w3.org/2000/svg" xmlns:xlink="http://www.w3.org/1999/xlink">
<g id="graph0" class="graph" transform="scale(1 1) rotate(0) translate(4 304)">
<title>%3</title>
<polygon fill="white" stroke="transparent" points="-4,4 -4,-304 792.05,-304 792.05,4 -4,4"/>
<g id="clust2" class="cluster">
<title>cluster150</title>
<path fill="none" stroke="black" d="M328.32,-8C328.32,-8 448.32,-8 448.32,-8 454.32,-8 460.32,-14 460.32,-20 460.32,-20 460.32,-142 460.32,-142 460.32,-148 454.32,-154 448.32,-154 448.32,-154 328.32,-154 328.32,-154 322.32,-154 316.32,-148 316.32,-142 316.32,-142 316.32,-20 316.32,-20 316.32,-14 322.32,-8 328.32,-8"/>
<text text-anchor="middle" x="441.82" y="-14.8" font-family="Times,serif" font-size="14.00">150</text>
</g>
<g id="clust1" class="cluster">
<title>cluster5</title>
<path fill="none" stroke="black" d="M257.32,-162C257.32,-162 520.32,-162 520.32,-162 526.32,-162 532.32,-168 532.32,-174 532.32,-174 532.32,-224 532.32,-224 532.32,-230 526.32,-236 520.32,-236 520.32,-236 257.32,-236 257.32,-236 251.32,-236 245.32,-230 245.32,-224 245.32,-224 245.32,-174 245.32,-174 245.32,-168 251.32,-162 257.32,-162"/>
<text text-anchor="middle" x="520.82" y="-168.8" font-family="Times,serif" font-size="14.00">5</text>
</g>
<!-- sigma -->
<g id="node1" class="node">
<title>sigma</title>
<ellipse fill="none" stroke="black" cx="225.32" cy="-128" rx="83.33" ry="18"/>
<text text-anchor="middle" x="225.32" y="-123.8" font-family="Times,serif" font-size="14.00">sigma ~ HalfNormal</text>
</g>
<!-- logfc -->
<g id="node8" class="node">
<title>logfc</title>
<ellipse fill="lightgrey" stroke="black" cx="388.32" cy="-56" rx="64.5" ry="18"/>
<text text-anchor="middle" x="388.32" y="-51.8" font-family="Times,serif" font-size="14.00">logfc ~ Normal</text>
</g>
<!-- sigma&#45;&gt;logfc -->
<g id="edge7" class="edge">
<title>sigma&#45;&gt;logfc</title>
<path fill="none" stroke="black" d="M261.09,-111.64C285.88,-100.99 319.01,-86.76 345.25,-75.49"/>
<polygon fill="black" stroke="black" points="346.77,-78.65 354.58,-71.49 344.01,-72.22 346.77,-78.65"/>
</g>
<!-- mu_alpha -->
<g id="node2" class="node">
<title>mu_alpha</title>
<ellipse fill="none" stroke="black" cx="475.32" cy="-282" rx="81.4" ry="18"/>
<text text-anchor="middle" x="475.32" y="-277.8" font-family="Times,serif" font-size="14.00">mu_alpha ~ Normal</text>
</g>
<!-- alpha -->
<g id="node6" class="node">
<title>alpha</title>
<ellipse fill="none" stroke="black" cx="459.32" cy="-210" rx="65.46" ry="18"/>
<text text-anchor="middle" x="459.32" y="-205.8" font-family="Times,serif" font-size="14.00">alpha ~ Normal</text>
</g>
<!-- mu_alpha&#45;&gt;alpha -->
<g id="edge1" class="edge">
<title>mu_alpha&#45;&gt;alpha</title>
<path fill="none" stroke="black" d="M471.36,-263.7C469.6,-255.98 467.48,-246.71 465.51,-238.11"/>
<polygon fill="black" stroke="black" points="468.87,-237.07 463.23,-228.1 462.04,-238.63 468.87,-237.07"/>
</g>
<!-- sigma_beta -->
<g id="node3" class="node">
<title>sigma_beta</title>
<ellipse fill="none" stroke="black" cx="102.32" cy="-282" rx="102.13" ry="18"/>
<text text-anchor="middle" x="102.32" y="-277.8" font-family="Times,serif" font-size="14.00">sigma_beta ~ HalfNormal</text>
</g>
<!-- beta -->
<g id="node7" class="node">
<title>beta</title>
<ellipse fill="none" stroke="black" cx="314.32" cy="-210" rx="61.11" ry="18"/>
<text text-anchor="middle" x="314.32" y="-205.8" font-family="Times,serif" font-size="14.00">beta ~ Normal</text>
</g>
<!-- sigma_beta&#45;&gt;beta -->
<g id="edge3" class="edge">
<title>sigma_beta&#45;&gt;beta</title>
<path fill="none" stroke="black" d="M148.06,-265.9C182.66,-254.47 230.09,-238.81 265.44,-227.14"/>
<polygon fill="black" stroke="black" points="266.67,-230.42 275.07,-223.96 264.47,-223.77 266.67,-230.42"/>
</g>
<!-- mu_beta -->
<g id="node4" class="node">
<title>mu_beta</title>
<ellipse fill="none" stroke="black" cx="299.32" cy="-282" rx="76.56" ry="18"/>
<text text-anchor="middle" x="299.32" y="-277.8" font-family="Times,serif" font-size="14.00">mu_beta ~ Normal</text>
</g>
<!-- mu_beta&#45;&gt;beta -->
<g id="edge4" class="edge">
<title>mu_beta&#45;&gt;beta</title>
<path fill="none" stroke="black" d="M303.02,-263.7C304.68,-255.98 306.66,-246.71 308.51,-238.11"/>
<polygon fill="black" stroke="black" points="311.98,-238.62 310.65,-228.1 305.13,-237.15 311.98,-238.62"/>
</g>
<!-- sigma_alpha -->
<g id="node5" class="node">
<title>sigma_alpha</title>
<ellipse fill="none" stroke="black" cx="681.32" cy="-282" rx="106.97" ry="18"/>
<text text-anchor="middle" x="681.32" y="-277.8" font-family="Times,serif" font-size="14.00">sigma_alpha ~ HalfNormal</text>
</g>
<!-- sigma_alpha&#45;&gt;alpha -->
<g id="edge2" class="edge">
<title>sigma_alpha&#45;&gt;alpha</title>
<path fill="none" stroke="black" d="M633.42,-265.9C597.15,-254.46 547.41,-238.78 510.38,-227.1"/>
<polygon fill="black" stroke="black" points="511.37,-223.74 500.78,-224.07 509.26,-230.42 511.37,-223.74"/>
</g>
<!-- mu -->
<g id="node9" class="node">
<title>mu</title>
<polygon fill="none" stroke="black" points="450.48,-146 326.15,-146 326.15,-110 450.48,-110 450.48,-146"/>
<text text-anchor="middle" x="388.32" y="-123.8" font-family="Times,serif" font-size="14.00">mu ~ Deterministic</text>
</g>
<!-- alpha&#45;&gt;mu -->
<g id="edge5" class="edge">
<title>alpha&#45;&gt;mu</title>
<path fill="none" stroke="black" d="M444.6,-192.42C434.65,-181.21 421.32,-166.19 410.14,-153.59"/>
<polygon fill="black" stroke="black" points="412.75,-151.26 403.5,-146.11 407.52,-155.91 412.75,-151.26"/>
</g>
<!-- beta&#45;&gt;mu -->
<g id="edge6" class="edge">
<title>beta&#45;&gt;mu</title>
<path fill="none" stroke="black" d="M329.65,-192.42C340.03,-181.21 353.91,-166.19 365.57,-153.59"/>
<polygon fill="black" stroke="black" points="368.27,-155.82 372.49,-146.11 363.13,-151.07 368.27,-155.82"/>
</g>
<!-- mu&#45;&gt;logfc -->
<g id="edge8" class="edge">
<title>mu&#45;&gt;logfc</title>
<path fill="none" stroke="black" d="M388.32,-109.7C388.32,-101.98 388.32,-92.71 388.32,-84.11"/>
<polygon fill="black" stroke="black" points="391.82,-84.1 388.32,-74.1 384.82,-84.1 391.82,-84.1"/>
</g>
</g>
</svg>
