<?xml version="1.0" encoding="UTF-8" standalone="no"?>
<!DOCTYPE svg PUBLIC "-//W3C//DTD SVG 1.1//EN"
 "http://www.w3.org/Graphics/SVG/1.1/DTD/svg11.dtd">
<!-- Generated by graphviz version 2.42.3 (20191010.1750)
 -->
<!-- Title: %3 Pages: 1 -->
<svg width="796pt" height="308pt"
 viewBox="0.00 0.00 796.05 308.00" xmlns="http://www.w3.org/2000/svg" xmlns:xlink="http://www.w3.org/1999/xlink">
<g id="graph0" class="graph" transform="scale(1 1) rotate(0) translate(4 304)">
<title>%3</title>
<polygon fill="white" stroke="transparent" points="-4,4 -4,-304 792.05,-304 792.05,4 -4,4"/>
<g id="clust1" class="cluster">
<title>cluster5</title>
<path fill="none" stroke="black" d="M266.74,-162C266.74,-162 529.74,-162 529.74,-162 535.74,-162 541.74,-168 541.74,-174 541.74,-174 541.74,-224 541.74,-224 541.74,-230 535.74,-236 529.74,-236 529.74,-236 266.74,-236 266.74,-236 260.74,-236 254.74,-230 254.74,-224 254.74,-224 254.74,-174 254.74,-174 254.74,-168 260.74,-162 266.74,-162"/>
<text text-anchor="middle" x="530.24" y="-168.8" font-family="Times,serif" font-size="14.00">5</text>
</g>
<g id="clust2" class="cluster">
<title>cluster150</title>
<path fill="none" stroke="black" d="M338.74,-8C338.74,-8 458.74,-8 458.74,-8 464.74,-8 470.74,-14 470.74,-20 470.74,-20 470.74,-142 470.74,-142 470.74,-148 464.74,-154 458.74,-154 458.74,-154 338.74,-154 338.74,-154 332.74,-154 326.74,-148 326.74,-142 326.74,-142 326.74,-20 326.74,-20 326.74,-14 332.74,-8 338.74,-8"/>
<text text-anchor="middle" x="452.24" y="-14.8" font-family="Times,serif" font-size="14.00">150</text>
</g>
<!-- sigma_alpha -->
<g id="node1" class="node">
<title>sigma_alpha</title>
<ellipse fill="none" stroke="black" cx="106.74" cy="-282" rx="106.97" ry="18"/>
<text text-anchor="middle" x="106.74" y="-277.8" font-family="Times,serif" font-size="14.00">sigma_alpha ~ HalfNormal</text>
</g>
<!-- alpha -->
<g id="node7" class="node">
<title>alpha</title>
<ellipse fill="none" stroke="black" cx="327.74" cy="-210" rx="65.46" ry="18"/>
<text text-anchor="middle" x="327.74" y="-205.8" font-family="Times,serif" font-size="14.00">alpha ~ Normal</text>
</g>
<!-- sigma_alpha&#45;&gt;alpha -->
<g id="edge1" class="edge">
<title>sigma_alpha&#45;&gt;alpha</title>
<path fill="none" stroke="black" d="M154.69,-265.81C190.82,-254.37 240.24,-238.71 277.02,-227.06"/>
<polygon fill="black" stroke="black" points="278.09,-230.4 286.56,-224.04 275.97,-223.73 278.09,-230.4"/>
</g>
<!-- mu_beta -->
<g id="node2" class="node">
<title>mu_beta</title>
<ellipse fill="none" stroke="black" cx="488.74" cy="-282" rx="76.56" ry="18"/>
<text text-anchor="middle" x="488.74" y="-277.8" font-family="Times,serif" font-size="14.00">mu_beta ~ Normal</text>
</g>
<!-- beta -->
<g id="node6" class="node">
<title>beta</title>
<ellipse fill="none" stroke="black" cx="472.74" cy="-210" rx="61.11" ry="18"/>
<text text-anchor="middle" x="472.74" y="-205.8" font-family="Times,serif" font-size="14.00">beta ~ Normal</text>
</g>
<!-- mu_beta&#45;&gt;beta -->
<g id="edge3" class="edge">
<title>mu_beta&#45;&gt;beta</title>
<path fill="none" stroke="black" d="M484.78,-263.7C483.02,-255.98 480.9,-246.71 478.93,-238.11"/>
<polygon fill="black" stroke="black" points="482.29,-237.07 476.65,-228.1 475.46,-238.63 482.29,-237.07"/>
</g>
<!-- mu_alpha -->
<g id="node3" class="node">
<title>mu_alpha</title>
<ellipse fill="none" stroke="black" cx="312.74" cy="-282" rx="81.4" ry="18"/>
<text text-anchor="middle" x="312.74" y="-277.8" font-family="Times,serif" font-size="14.00">mu_alpha ~ Normal</text>
</g>
<!-- mu_alpha&#45;&gt;alpha -->
<g id="edge2" class="edge">
<title>mu_alpha&#45;&gt;alpha</title>
<path fill="none" stroke="black" d="M316.45,-263.7C318.1,-255.98 320.08,-246.71 321.93,-238.11"/>
<polygon fill="black" stroke="black" points="325.4,-238.62 324.07,-228.1 318.55,-237.15 325.4,-238.62"/>
</g>
<!-- sigma -->
<g id="node4" class="node">
<title>sigma</title>
<ellipse fill="none" stroke="black" cx="561.74" cy="-128" rx="83.33" ry="18"/>
<text text-anchor="middle" x="561.74" y="-123.8" font-family="Times,serif" font-size="14.00">sigma ~ HalfNormal</text>
</g>
<!-- logfc -->
<g id="node9" class="node">
<title>logfc</title>
<ellipse fill="lightgrey" stroke="black" cx="398.74" cy="-56" rx="64.5" ry="18"/>
<text text-anchor="middle" x="398.74" y="-51.8" font-family="Times,serif" font-size="14.00">logfc ~ Normal</text>
</g>
<!-- sigma&#45;&gt;logfc -->
<g id="edge8" class="edge">
<title>sigma&#45;&gt;logfc</title>
<path fill="none" stroke="black" d="M525.97,-111.64C501.18,-100.99 468.04,-86.76 441.8,-75.49"/>
<polygon fill="black" stroke="black" points="443.05,-72.22 432.48,-71.49 440.28,-78.65 443.05,-72.22"/>
</g>
<!-- sigma_beta -->
<g id="node5" class="node">
<title>sigma_beta</title>
<ellipse fill="none" stroke="black" cx="685.74" cy="-282" rx="102.13" ry="18"/>
<text text-anchor="middle" x="685.74" y="-277.8" font-family="Times,serif" font-size="14.00">sigma_beta ~ HalfNormal</text>
</g>
<!-- sigma_beta&#45;&gt;beta -->
<g id="edge4" class="edge">
<title>sigma_beta&#45;&gt;beta</title>
<path fill="none" stroke="black" d="M639.78,-265.9C604.9,-254.44 557.05,-238.71 521.5,-227.03"/>
<polygon fill="black" stroke="black" points="522.42,-223.64 511.82,-223.85 520.23,-230.29 522.42,-223.64"/>
</g>
<!-- mu -->
<g id="node8" class="node">
<title>mu</title>
<polygon fill="none" stroke="black" points="460.9,-146 336.57,-146 336.57,-110 460.9,-110 460.9,-146"/>
<text text-anchor="middle" x="398.74" y="-123.8" font-family="Times,serif" font-size="14.00">mu ~ Deterministic</text>
</g>
<!-- beta&#45;&gt;mu -->
<g id="edge5" class="edge">
<title>beta&#45;&gt;mu</title>
<path fill="none" stroke="black" d="M457.4,-192.42C447.03,-181.21 433.14,-166.19 421.48,-153.59"/>
<polygon fill="black" stroke="black" points="423.92,-151.07 414.56,-146.11 418.78,-155.82 423.92,-151.07"/>
</g>
<!-- alpha&#45;&gt;mu -->
<g id="edge6" class="edge">
<title>alpha&#45;&gt;mu</title>
<path fill="none" stroke="black" d="M342.45,-192.42C352.4,-181.21 365.73,-166.19 376.92,-153.59"/>
<polygon fill="black" stroke="black" points="379.53,-155.91 383.55,-146.11 374.3,-151.26 379.53,-155.91"/>
</g>
<!-- mu&#45;&gt;logfc -->
<g id="edge7" class="edge">
<title>mu&#45;&gt;logfc</title>
<path fill="none" stroke="black" d="M398.74,-109.7C398.74,-101.98 398.74,-92.71 398.74,-84.11"/>
<polygon fill="black" stroke="black" points="402.24,-84.1 398.74,-74.1 395.24,-84.1 402.24,-84.1"/>
</g>
</g>
</svg>
