<?xml version="1.0" encoding="UTF-8" standalone="no"?>
<!DOCTYPE svg PUBLIC "-//W3C//DTD SVG 1.1//EN"
 "http://www.w3.org/Graphics/SVG/1.1/DTD/svg11.dtd">
<!-- Generated by graphviz version 2.42.3 (20191010.1750)
 -->
<!-- Title: %3 Pages: 1 -->
<svg width="387pt" height="226pt"
 viewBox="0.00 0.00 387.22 226.00" xmlns="http://www.w3.org/2000/svg" xmlns:xlink="http://www.w3.org/1999/xlink">
<g id="graph0" class="graph" transform="scale(1 1) rotate(0) translate(4 222)">
<title>%3</title>
<polygon fill="white" stroke="transparent" points="-4,4 -4,-222 383.22,-222 383.22,4 -4,4"/>
<g id="clust1" class="cluster">
<title>cluster20</title>
<path fill="none" stroke="black" d="M73.06,-8C73.06,-8 193.06,-8 193.06,-8 199.06,-8 205.06,-14 205.06,-20 205.06,-20 205.06,-142 205.06,-142 205.06,-148 199.06,-154 193.06,-154 193.06,-154 73.06,-154 73.06,-154 67.06,-154 61.06,-148 61.06,-142 61.06,-142 61.06,-20 61.06,-20 61.06,-14 67.06,-8 73.06,-8"/>
<text text-anchor="middle" x="190.06" y="-14.8" font-family="Times,serif" font-size="14.00">20</text>
</g>
<!-- beta -->
<g id="node1" class="node">
<title>beta</title>
<ellipse fill="none" stroke="black" cx="61.06" cy="-200" rx="61.11" ry="18"/>
<text text-anchor="middle" x="61.06" y="-195.8" font-family="Times,serif" font-size="14.00">beta ~ Normal</text>
</g>
<!-- mu -->
<g id="node4" class="node">
<title>mu</title>
<polygon fill="none" stroke="black" points="195.22,-146 70.89,-146 70.89,-110 195.22,-110 195.22,-146"/>
<text text-anchor="middle" x="133.06" y="-123.8" font-family="Times,serif" font-size="14.00">mu ~ Deterministic</text>
</g>
<!-- beta&#45;&gt;mu -->
<g id="edge1" class="edge">
<title>beta&#45;&gt;mu</title>
<path fill="none" stroke="black" d="M78.12,-182.41C87.07,-173.71 98.2,-162.89 108.09,-153.27"/>
<polygon fill="black" stroke="black" points="110.63,-155.68 115.36,-146.2 105.75,-150.66 110.63,-155.68"/>
</g>
<!-- sigma -->
<g id="node2" class="node">
<title>sigma</title>
<ellipse fill="none" stroke="black" cx="296.06" cy="-128" rx="83.33" ry="18"/>
<text text-anchor="middle" x="296.06" y="-123.8" font-family="Times,serif" font-size="14.00">sigma ~ HalfNormal</text>
</g>
<!-- logfc -->
<g id="node5" class="node">
<title>logfc</title>
<ellipse fill="lightgrey" stroke="black" cx="133.06" cy="-56" rx="64.5" ry="18"/>
<text text-anchor="middle" x="133.06" y="-51.8" font-family="Times,serif" font-size="14.00">logfc ~ Normal</text>
</g>
<!-- sigma&#45;&gt;logfc -->
<g id="edge4" class="edge">
<title>sigma&#45;&gt;logfc</title>
<path fill="none" stroke="black" d="M260.29,-111.64C235.5,-100.99 202.36,-86.76 176.12,-75.49"/>
<polygon fill="black" stroke="black" points="177.36,-72.22 166.8,-71.49 174.6,-78.65 177.36,-72.22"/>
</g>
<!-- alpha -->
<g id="node3" class="node">
<title>alpha</title>
<ellipse fill="none" stroke="black" cx="206.06" cy="-200" rx="65.46" ry="18"/>
<text text-anchor="middle" x="206.06" y="-195.8" font-family="Times,serif" font-size="14.00">alpha ~ Normal</text>
</g>
<!-- alpha&#45;&gt;mu -->
<g id="edge2" class="edge">
<title>alpha&#45;&gt;mu</title>
<path fill="none" stroke="black" d="M188.76,-182.41C179.68,-173.71 168.4,-162.89 158.37,-153.27"/>
<polygon fill="black" stroke="black" points="160.63,-150.6 150.99,-146.2 155.79,-155.65 160.63,-150.6"/>
</g>
<!-- mu&#45;&gt;logfc -->
<g id="edge3" class="edge">
<title>mu&#45;&gt;logfc</title>
<path fill="none" stroke="black" d="M133.06,-109.7C133.06,-101.98 133.06,-92.71 133.06,-84.11"/>
<polygon fill="black" stroke="black" points="136.56,-84.1 133.06,-74.1 129.56,-84.1 136.56,-84.1"/>
</g>
</g>
</svg>
