<?xml version="1.0" encoding="UTF-8" standalone="no"?>
<!DOCTYPE svg PUBLIC "-//W3C//DTD SVG 1.1//EN"
 "http://www.w3.org/Graphics/SVG/1.1/DTD/svg11.dtd">
<!-- Generated by graphviz version 2.42.3 (20191010.1750)
 -->
<!-- Title: %3 Pages: 1 -->
<svg width="796pt" height="308pt"
 viewBox="0.00 0.00 795.98 308.00" xmlns="http://www.w3.org/2000/svg" xmlns:xlink="http://www.w3.org/1999/xlink">
<g id="graph0" class="graph" transform="scale(1 1) rotate(0) translate(4 304)">
<title>%3</title>
<polygon fill="white" stroke="transparent" points="-4,4 -4,-304 791.98,-304 791.98,4 -4,4"/>
<g id="clust1" class="cluster">
<title>cluster5</title>
<path fill="none" stroke="black" d="M257.78,-162C257.78,-162 520.78,-162 520.78,-162 526.78,-162 532.78,-168 532.78,-174 532.78,-174 532.78,-224 532.78,-224 532.78,-230 526.78,-236 520.78,-236 520.78,-236 257.78,-236 257.78,-236 251.78,-236 245.78,-230 245.78,-224 245.78,-224 245.78,-174 245.78,-174 245.78,-168 251.78,-162 257.78,-162"/>
<text text-anchor="middle" x="521.28" y="-168.8" font-family="Times,serif" font-size="14.00">5</text>
</g>
<g id="clust2" class="cluster">
<title>cluster150</title>
<path fill="none" stroke="black" d="M328.78,-8C328.78,-8 448.78,-8 448.78,-8 454.78,-8 460.78,-14 460.78,-20 460.78,-20 460.78,-142 460.78,-142 460.78,-148 454.78,-154 448.78,-154 448.78,-154 328.78,-154 328.78,-154 322.78,-154 316.78,-148 316.78,-142 316.78,-142 316.78,-20 316.78,-20 316.78,-14 322.78,-8 328.78,-8"/>
<text text-anchor="middle" x="442.28" y="-14.8" font-family="Times,serif" font-size="14.00">150</text>
</g>
<!-- sigma -->
<g id="node1" class="node">
<title>sigma</title>
<ellipse fill="none" stroke="black" cx="225.78" cy="-128" rx="83.33" ry="18"/>
<text text-anchor="middle" x="225.78" y="-123.8" font-family="Times,serif" font-size="14.00">sigma ~ HalfNormal</text>
</g>
<!-- logfc -->
<g id="node8" class="node">
<title>logfc</title>
<ellipse fill="lightgrey" stroke="black" cx="388.78" cy="-56" rx="64.5" ry="18"/>
<text text-anchor="middle" x="388.78" y="-51.8" font-family="Times,serif" font-size="14.00">logfc ~ Normal</text>
</g>
<!-- sigma&#45;&gt;logfc -->
<g id="edge7" class="edge">
<title>sigma&#45;&gt;logfc</title>
<path fill="none" stroke="black" d="M261.55,-111.64C286.34,-100.99 319.47,-86.76 345.71,-75.49"/>
<polygon fill="black" stroke="black" points="347.23,-78.65 355.04,-71.49 344.47,-72.22 347.23,-78.65"/>
</g>
<!-- mu_beta -->
<g id="node2" class="node">
<title>mu_beta</title>
<ellipse fill="none" stroke="black" cx="76.78" cy="-282" rx="76.56" ry="18"/>
<text text-anchor="middle" x="76.78" y="-277.8" font-family="Times,serif" font-size="14.00">mu_beta ~ Normal</text>
</g>
<!-- beta -->
<g id="node7" class="node">
<title>beta</title>
<ellipse fill="none" stroke="black" cx="314.78" cy="-210" rx="61.11" ry="18"/>
<text text-anchor="middle" x="314.78" y="-205.8" font-family="Times,serif" font-size="14.00">beta ~ Normal</text>
</g>
<!-- mu_beta&#45;&gt;beta -->
<g id="edge3" class="edge">
<title>mu_beta&#45;&gt;beta</title>
<path fill="none" stroke="black" d="M122.67,-267.5C162.93,-255.66 221.44,-238.45 263.29,-226.14"/>
<polygon fill="black" stroke="black" points="264.41,-229.46 273.02,-223.28 262.43,-222.75 264.41,-229.46"/>
</g>
<!-- sigma_beta -->
<g id="node3" class="node">
<title>sigma_beta</title>
<ellipse fill="none" stroke="black" cx="273.78" cy="-282" rx="102.13" ry="18"/>
<text text-anchor="middle" x="273.78" y="-277.8" font-family="Times,serif" font-size="14.00">sigma_beta ~ HalfNormal</text>
</g>
<!-- sigma_beta&#45;&gt;beta -->
<g id="edge4" class="edge">
<title>sigma_beta&#45;&gt;beta</title>
<path fill="none" stroke="black" d="M283.7,-264.05C288.54,-255.8 294.45,-245.7 299.82,-236.54"/>
<polygon fill="black" stroke="black" points="302.91,-238.19 304.94,-227.79 296.87,-234.65 302.91,-238.19"/>
</g>
<!-- sigma_alpha -->
<g id="node4" class="node">
<title>sigma_alpha</title>
<ellipse fill="none" stroke="black" cx="500.78" cy="-282" rx="106.97" ry="18"/>
<text text-anchor="middle" x="500.78" y="-277.8" font-family="Times,serif" font-size="14.00">sigma_alpha ~ HalfNormal</text>
</g>
<!-- alpha -->
<g id="node6" class="node">
<title>alpha</title>
<ellipse fill="none" stroke="black" cx="459.78" cy="-210" rx="65.46" ry="18"/>
<text text-anchor="middle" x="459.78" y="-205.8" font-family="Times,serif" font-size="14.00">alpha ~ Normal</text>
</g>
<!-- sigma_alpha&#45;&gt;alpha -->
<g id="edge2" class="edge">
<title>sigma_alpha&#45;&gt;alpha</title>
<path fill="none" stroke="black" d="M490.85,-264.05C486.09,-255.92 480.28,-246 474.97,-236.94"/>
<polygon fill="black" stroke="black" points="477.97,-235.14 469.9,-228.28 471.93,-238.67 477.97,-235.14"/>
</g>
<!-- mu_alpha -->
<g id="node5" class="node">
<title>mu_alpha</title>
<ellipse fill="none" stroke="black" cx="706.78" cy="-282" rx="81.4" ry="18"/>
<text text-anchor="middle" x="706.78" y="-277.8" font-family="Times,serif" font-size="14.00">mu_alpha ~ Normal</text>
</g>
<!-- mu_alpha&#45;&gt;alpha -->
<g id="edge1" class="edge">
<title>mu_alpha&#45;&gt;alpha</title>
<path fill="none" stroke="black" d="M658.86,-267.42C617.21,-255.62 556.93,-238.53 513.62,-226.26"/>
<polygon fill="black" stroke="black" points="514.41,-222.84 503.83,-223.48 512.5,-229.58 514.41,-222.84"/>
</g>
<!-- mu -->
<g id="node9" class="node">
<title>mu</title>
<polygon fill="none" stroke="black" points="450.94,-146 326.61,-146 326.61,-110 450.94,-110 450.94,-146"/>
<text text-anchor="middle" x="388.78" y="-123.8" font-family="Times,serif" font-size="14.00">mu ~ Deterministic</text>
</g>
<!-- alpha&#45;&gt;mu -->
<g id="edge5" class="edge">
<title>alpha&#45;&gt;mu</title>
<path fill="none" stroke="black" d="M445.07,-192.42C435.11,-181.21 421.79,-166.19 410.6,-153.59"/>
<polygon fill="black" stroke="black" points="413.22,-151.26 403.96,-146.11 407.98,-155.91 413.22,-151.26"/>
</g>
<!-- beta&#45;&gt;mu -->
<g id="edge6" class="edge">
<title>beta&#45;&gt;mu</title>
<path fill="none" stroke="black" d="M330.11,-192.42C340.49,-181.21 354.38,-166.19 366.03,-153.59"/>
<polygon fill="black" stroke="black" points="368.73,-155.82 372.95,-146.11 363.59,-151.07 368.73,-155.82"/>
</g>
<!-- mu&#45;&gt;logfc -->
<g id="edge8" class="edge">
<title>mu&#45;&gt;logfc</title>
<path fill="none" stroke="black" d="M388.78,-109.7C388.78,-101.98 388.78,-92.71 388.78,-84.11"/>
<polygon fill="black" stroke="black" points="392.28,-84.1 388.78,-74.1 385.28,-84.1 392.28,-84.1"/>
</g>
</g>
</svg>
