<?xml version="1.0" encoding="UTF-8" standalone="no"?>
<!DOCTYPE svg PUBLIC "-//W3C//DTD SVG 1.1//EN"
 "http://www.w3.org/Graphics/SVG/1.1/DTD/svg11.dtd">
<!-- Generated by graphviz version 2.42.3 (20191010.1750)
 -->
<!-- Title: %3 Pages: 1 -->
<svg width="795pt" height="390pt"
 viewBox="0.00 0.00 794.52 390.00" xmlns="http://www.w3.org/2000/svg" xmlns:xlink="http://www.w3.org/1999/xlink">
<g id="graph0" class="graph" transform="scale(1 1) rotate(0) translate(4 386)">
<title>%3</title>
<polygon fill="white" stroke="transparent" points="-4,4 -4,-386 790.52,-386 790.52,4 -4,4"/>
<g id="clust1" class="cluster">
<title>cluster5</title>
<path fill="none" stroke="black" d="M234.74,-244C234.74,-244 388.74,-244 388.74,-244 394.74,-244 400.74,-250 400.74,-256 400.74,-256 400.74,-306 400.74,-306 400.74,-312 394.74,-318 388.74,-318 388.74,-318 234.74,-318 234.74,-318 228.74,-318 222.74,-312 222.74,-306 222.74,-306 222.74,-256 222.74,-256 222.74,-250 228.74,-244 234.74,-244"/>
<text text-anchor="middle" x="389.24" y="-250.8" font-family="Times,serif" font-size="14.00">5</text>
</g>
<g id="clust2" class="cluster">
<title>cluster15</title>
<path fill="none" stroke="black" d="M242.74,-162C242.74,-162 380.74,-162 380.74,-162 386.74,-162 392.74,-168 392.74,-174 392.74,-174 392.74,-224 392.74,-224 392.74,-230 386.74,-236 380.74,-236 380.74,-236 242.74,-236 242.74,-236 236.74,-236 230.74,-230 230.74,-224 230.74,-224 230.74,-174 230.74,-174 230.74,-168 236.74,-162 242.74,-162"/>
<text text-anchor="middle" x="377.74" y="-168.8" font-family="Times,serif" font-size="14.00">15</text>
</g>
<g id="clust3" class="cluster">
<title>cluster20</title>
<path fill="none" stroke="black" d="M447.74,-162C447.74,-162 577.74,-162 577.74,-162 583.74,-162 589.74,-168 589.74,-174 589.74,-174 589.74,-224 589.74,-224 589.74,-230 583.74,-236 577.74,-236 577.74,-236 447.74,-236 447.74,-236 441.74,-236 435.74,-230 435.74,-224 435.74,-224 435.74,-174 435.74,-174 435.74,-168 441.74,-162 447.74,-162"/>
<text text-anchor="middle" x="574.74" y="-168.8" font-family="Times,serif" font-size="14.00">20</text>
</g>
<g id="clust4" class="cluster">
<title>cluster300</title>
<path fill="none" stroke="black" d="M339.74,-8C339.74,-8 481.74,-8 481.74,-8 487.74,-8 493.74,-14 493.74,-20 493.74,-20 493.74,-142 493.74,-142 493.74,-148 487.74,-154 481.74,-154 481.74,-154 339.74,-154 339.74,-154 333.74,-154 327.74,-148 327.74,-142 327.74,-142 327.74,-20 327.74,-20 327.74,-14 333.74,-8 339.74,-8"/>
<text text-anchor="middle" x="475.24" y="-14.8" font-family="Times,serif" font-size="14.00">300</text>
</g>
<!-- sigma -->
<g id="node1" class="node">
<title>sigma</title>
<ellipse fill="none" stroke="black" cx="234.74" cy="-128" rx="83.34" ry="18"/>
<text text-anchor="middle" x="234.74" y="-123.8" font-family="Times,serif" font-size="14.00">sigma ~ Exponential</text>
</g>
<!-- logfc -->
<g id="node10" class="node">
<title>logfc</title>
<ellipse fill="lightgrey" stroke="black" cx="404.74" cy="-56" rx="64.5" ry="18"/>
<text text-anchor="middle" x="404.74" y="-51.8" font-family="Times,serif" font-size="14.00">logfc ~ Normal</text>
</g>
<!-- sigma&#45;&gt;logfc -->
<g id="edge9" class="edge">
<title>sigma&#45;&gt;logfc</title>
<path fill="none" stroke="black" d="M271.63,-111.81C297.75,-101.06 332.9,-86.58 360.53,-75.21"/>
<polygon fill="black" stroke="black" points="362.04,-78.37 369.96,-71.32 359.38,-71.89 362.04,-78.37"/>
</g>
<!-- sigma_beta -->
<g id="node2" class="node">
<title>sigma_beta</title>
<ellipse fill="none" stroke="black" cx="512.74" cy="-292" rx="102.14" ry="18"/>
<text text-anchor="middle" x="512.74" y="-287.8" font-family="Times,serif" font-size="14.00">sigma_beta ~ Exponential</text>
</g>
<!-- beta_c -->
<g id="node9" class="node">
<title>beta_c</title>
<ellipse fill="none" stroke="black" cx="512.74" cy="-210" rx="69.31" ry="18"/>
<text text-anchor="middle" x="512.74" y="-205.8" font-family="Times,serif" font-size="14.00">beta_c ~ Normal</text>
</g>
<!-- sigma_beta&#45;&gt;beta_c -->
<g id="edge5" class="edge">
<title>sigma_beta&#45;&gt;beta_c</title>
<path fill="none" stroke="black" d="M512.74,-273.64C512.74,-263.3 512.74,-249.94 512.74,-238.22"/>
<polygon fill="black" stroke="black" points="516.24,-238.05 512.74,-228.05 509.24,-238.05 516.24,-238.05"/>
</g>
<!-- sigma_epsilon -->
<g id="node3" class="node">
<title>sigma_epsilon</title>
<ellipse fill="none" stroke="black" cx="202.74" cy="-364" rx="113.27" ry="18"/>
<text text-anchor="middle" x="202.74" y="-359.8" font-family="Times,serif" font-size="14.00">sigma_epsilon ~ Exponential</text>
</g>
<!-- epsilon_g -->
<g id="node7" class="node">
<title>epsilon_g</title>
<ellipse fill="none" stroke="black" cx="311.74" cy="-292" rx="80.93" ry="18"/>
<text text-anchor="middle" x="311.74" y="-287.8" font-family="Times,serif" font-size="14.00">epsilon_g ~ Normal</text>
</g>
<!-- sigma_epsilon&#45;&gt;epsilon_g -->
<g id="edge1" class="edge">
<title>sigma_epsilon&#45;&gt;epsilon_g</title>
<path fill="none" stroke="black" d="M228.57,-346.41C243.34,-336.93 262.03,-324.92 277.95,-314.7"/>
<polygon fill="black" stroke="black" points="279.95,-317.58 286.47,-309.23 276.17,-311.69 279.95,-317.58"/>
</g>
<!-- mu_beta -->
<g id="node4" class="node">
<title>mu_beta</title>
<ellipse fill="none" stroke="black" cx="709.74" cy="-292" rx="76.56" ry="18"/>
<text text-anchor="middle" x="709.74" y="-287.8" font-family="Times,serif" font-size="14.00">mu_beta ~ Normal</text>
</g>
<!-- mu_beta&#45;&gt;beta_c -->
<g id="edge6" class="edge">
<title>mu_beta&#45;&gt;beta_c</title>
<path fill="none" stroke="black" d="M683.73,-274.9C667.03,-265.05 644.63,-252.7 623.74,-244 606.99,-237.02 588.24,-230.86 571,-225.81"/>
<polygon fill="black" stroke="black" points="571.62,-222.35 561.05,-222.97 569.7,-229.08 571.62,-222.35"/>
</g>
<!-- mu_epsilon -->
<g id="node5" class="node">
<title>mu_epsilon</title>
<ellipse fill="none" stroke="black" cx="421.74" cy="-364" rx="87.69" ry="18"/>
<text text-anchor="middle" x="421.74" y="-359.8" font-family="Times,serif" font-size="14.00">mu_epsilon ~ Normal</text>
</g>
<!-- mu_epsilon&#45;&gt;epsilon_g -->
<g id="edge2" class="edge">
<title>mu_epsilon&#45;&gt;epsilon_g</title>
<path fill="none" stroke="black" d="M396.23,-346.76C381.23,-337.22 362.09,-325.04 345.82,-314.68"/>
<polygon fill="black" stroke="black" points="347.43,-311.56 337.12,-309.15 343.67,-317.47 347.43,-311.56"/>
</g>
<!-- sigma_alpha -->
<g id="node6" class="node">
<title>sigma_alpha</title>
<ellipse fill="none" stroke="black" cx="106.74" cy="-292" rx="106.98" ry="18"/>
<text text-anchor="middle" x="106.74" y="-287.8" font-family="Times,serif" font-size="14.00">sigma_alpha ~ Exponential</text>
</g>
<!-- alpha_s -->
<g id="node8" class="node">
<title>alpha_s</title>
<ellipse fill="none" stroke="black" cx="311.74" cy="-210" rx="73.18" ry="18"/>
<text text-anchor="middle" x="311.74" y="-205.8" font-family="Times,serif" font-size="14.00">alpha_s ~ Normal</text>
</g>
<!-- sigma_alpha&#45;&gt;alpha_s -->
<g id="edge3" class="edge">
<title>sigma_alpha&#45;&gt;alpha_s</title>
<path fill="none" stroke="black" d="M143.35,-275.02C165.13,-265.67 193.37,-253.82 218.74,-244 232.37,-238.73 247.24,-233.3 261.01,-228.42"/>
<polygon fill="black" stroke="black" points="262.55,-231.59 270.82,-224.96 260.22,-224.99 262.55,-231.59"/>
</g>
<!-- epsilon_g&#45;&gt;alpha_s -->
<g id="edge4" class="edge">
<title>epsilon_g&#45;&gt;alpha_s</title>
<path fill="none" stroke="black" d="M311.74,-273.64C311.74,-263.3 311.74,-249.94 311.74,-238.22"/>
<polygon fill="black" stroke="black" points="315.24,-238.05 311.74,-228.05 308.24,-238.05 315.24,-238.05"/>
</g>
<!-- mu_sgc -->
<g id="node11" class="node">
<title>mu_sgc</title>
<polygon fill="none" stroke="black" points="486.07,-146 335.42,-146 335.42,-110 486.07,-110 486.07,-146"/>
<text text-anchor="middle" x="410.74" y="-123.8" font-family="Times,serif" font-size="14.00">mu_sgc ~ Deterministic</text>
</g>
<!-- alpha_s&#45;&gt;mu_sgc -->
<g id="edge8" class="edge">
<title>alpha_s&#45;&gt;mu_sgc</title>
<path fill="none" stroke="black" d="M332.25,-192.42C346.53,-180.89 365.77,-165.34 381.63,-152.52"/>
<polygon fill="black" stroke="black" points="383.99,-155.11 389.57,-146.11 379.59,-149.67 383.99,-155.11"/>
</g>
<!-- beta_c&#45;&gt;mu_sgc -->
<g id="edge7" class="edge">
<title>beta_c&#45;&gt;mu_sgc</title>
<path fill="none" stroke="black" d="M492.1,-192.81C477.43,-181.3 457.48,-165.66 441.01,-152.74"/>
<polygon fill="black" stroke="black" points="442.79,-149.69 432.76,-146.27 438.47,-155.2 442.79,-149.69"/>
</g>
<!-- mu_sgc&#45;&gt;logfc -->
<g id="edge10" class="edge">
<title>mu_sgc&#45;&gt;logfc</title>
<path fill="none" stroke="black" d="M409.26,-109.7C408.6,-101.98 407.8,-92.71 407.07,-84.11"/>
<polygon fill="black" stroke="black" points="410.55,-83.77 406.21,-74.1 403.57,-84.37 410.55,-83.77"/>
</g>
</g>
</svg>
