<?xml version="1.0" encoding="UTF-8" standalone="no"?>
<!DOCTYPE svg PUBLIC "-//W3C//DTD SVG 1.1//EN"
 "http://www.w3.org/Graphics/SVG/1.1/DTD/svg11.dtd">
<!-- Generated by graphviz version 2.42.3 (20191010.1750)
 -->
<!-- Title: %3 Pages: 1 -->
<svg width="808pt" height="310pt"
 viewBox="0.00 0.00 807.84 310.00" xmlns="http://www.w3.org/2000/svg" xmlns:xlink="http://www.w3.org/1999/xlink">
<g id="graph0" class="graph" transform="scale(1 1) rotate(0) translate(4 306)">
<title>%3</title>
<polygon fill="white" stroke="transparent" points="-4,4 -4,-306 803.84,-306 803.84,4 -4,4"/>
<g id="clust1" class="cluster">
<title>cluster5</title>
<path fill="none" stroke="black" d="M270.19,-163C270.19,-163 538.19,-163 538.19,-163 544.19,-163 550.19,-169 550.19,-175 550.19,-175 550.19,-226 550.19,-226 550.19,-232 544.19,-238 538.19,-238 538.19,-238 270.19,-238 270.19,-238 264.19,-238 258.19,-232 258.19,-226 258.19,-226 258.19,-175 258.19,-175 258.19,-169 264.19,-163 270.19,-163"/>
<text text-anchor="middle" x="538.69" y="-170.8" font-family="Times,serif" font-size="14.00">5</text>
</g>
<g id="clust2" class="cluster">
<title>cluster150</title>
<path fill="none" stroke="black" d="M342.19,-8C342.19,-8 466.19,-8 466.19,-8 472.19,-8 478.19,-14 478.19,-20 478.19,-20 478.19,-143 478.19,-143 478.19,-149 472.19,-155 466.19,-155 466.19,-155 342.19,-155 342.19,-155 336.19,-155 330.19,-149 330.19,-143 330.19,-143 330.19,-20 330.19,-20 330.19,-14 336.19,-8 342.19,-8"/>
<text text-anchor="middle" x="459.69" y="-15.8" font-family="Times,serif" font-size="14.00">150</text>
</g>
<!-- mu_alpha -->
<g id="node1" class="node">
<title>mu_alpha</title>
<ellipse fill="none" stroke="black" cx="83.19" cy="-284" rx="83.39" ry="18"/>
<text text-anchor="middle" x="83.19" y="-280.3" font-family="Times,serif" font-size="14.00">mu_alpha ~ Normal</text>
</g>
<!-- alpha -->
<g id="node7" class="node">
<title>alpha</title>
<ellipse fill="none" stroke="black" cx="333.19" cy="-212" rx="66.89" ry="18"/>
<text text-anchor="middle" x="333.19" y="-208.3" font-family="Times,serif" font-size="14.00">alpha ~ Normal</text>
</g>
<!-- mu_alpha&#45;&gt;alpha -->
<g id="edge1" class="edge">
<title>mu_alpha&#45;&gt;alpha</title>
<path fill="none" stroke="black" d="M131.99,-269.34C174.17,-257.53 235.08,-240.47 278.82,-228.22"/>
<polygon fill="black" stroke="black" points="280.03,-231.52 288.71,-225.45 278.14,-224.78 280.03,-231.52"/>
</g>
<!-- sigma_beta -->
<g id="node2" class="node">
<title>sigma_beta</title>
<ellipse fill="none" stroke="black" cx="521.19" cy="-284" rx="103.18" ry="18"/>
<text text-anchor="middle" x="521.19" y="-280.3" font-family="Times,serif" font-size="14.00">sigma_beta ~ HalfNormal</text>
</g>
<!-- beta -->
<g id="node6" class="node">
<title>beta</title>
<ellipse fill="none" stroke="black" cx="480.19" cy="-212" rx="62.29" ry="18"/>
<text text-anchor="middle" x="480.19" y="-208.3" font-family="Times,serif" font-size="14.00">beta ~ Normal</text>
</g>
<!-- sigma_beta&#45;&gt;beta -->
<g id="edge3" class="edge">
<title>sigma_beta&#45;&gt;beta</title>
<path fill="none" stroke="black" d="M511.27,-266.05C506.43,-257.8 500.52,-247.7 495.15,-238.54"/>
<polygon fill="black" stroke="black" points="498.1,-236.65 490.03,-229.79 492.06,-240.19 498.1,-236.65"/>
</g>
<!-- sigma -->
<g id="node3" class="node">
<title>sigma</title>
<ellipse fill="none" stroke="black" cx="570.19" cy="-129" rx="84.49" ry="18"/>
<text text-anchor="middle" x="570.19" y="-125.3" font-family="Times,serif" font-size="14.00">sigma ~ HalfNormal</text>
</g>
<!-- logfc -->
<g id="node9" class="node">
<title>logfc</title>
<ellipse fill="lightgrey" stroke="black" cx="404.19" cy="-57" rx="65.79" ry="18"/>
<text text-anchor="middle" x="404.19" y="-53.3" font-family="Times,serif" font-size="14.00">logfc ~ Normal</text>
</g>
<!-- sigma&#45;&gt;logfc -->
<g id="edge8" class="edge">
<title>sigma&#45;&gt;logfc</title>
<path fill="none" stroke="black" d="M533.76,-112.64C508.52,-101.99 474.77,-87.76 448.05,-76.49"/>
<polygon fill="black" stroke="black" points="449.13,-73.15 438.55,-72.49 446.41,-79.6 449.13,-73.15"/>
</g>
<!-- sigma_alpha -->
<g id="node4" class="node">
<title>sigma_alpha</title>
<ellipse fill="none" stroke="black" cx="292.19" cy="-284" rx="107.78" ry="18"/>
<text text-anchor="middle" x="292.19" y="-280.3" font-family="Times,serif" font-size="14.00">sigma_alpha ~ HalfNormal</text>
</g>
<!-- sigma_alpha&#45;&gt;alpha -->
<g id="edge2" class="edge">
<title>sigma_alpha&#45;&gt;alpha</title>
<path fill="none" stroke="black" d="M302.12,-266.05C306.88,-257.92 312.69,-248 318,-238.94"/>
<polygon fill="black" stroke="black" points="321.04,-240.67 323.07,-230.28 315,-237.14 321.04,-240.67"/>
</g>
<!-- mu_beta -->
<g id="node5" class="node">
<title>mu_beta</title>
<ellipse fill="none" stroke="black" cx="721.19" cy="-284" rx="78.79" ry="18"/>
<text text-anchor="middle" x="721.19" y="-280.3" font-family="Times,serif" font-size="14.00">mu_beta ~ Normal</text>
</g>
<!-- mu_beta&#45;&gt;beta -->
<g id="edge4" class="edge">
<title>mu_beta&#45;&gt;beta</title>
<path fill="none" stroke="black" d="M674.44,-269.42C633.76,-257.61 574.86,-240.5 532.6,-228.22"/>
<polygon fill="black" stroke="black" points="533.36,-224.8 522.78,-225.37 531.4,-231.52 533.36,-224.8"/>
</g>
<!-- mu -->
<g id="node8" class="node">
<title>mu</title>
<polygon fill="none" stroke="black" points="466.19,-147 342.19,-147 342.19,-111 466.19,-111 466.19,-147"/>
<text text-anchor="middle" x="404.19" y="-125.3" font-family="Times,serif" font-size="14.00">mu ~ Deterministic</text>
</g>
<!-- beta&#45;&gt;mu -->
<g id="edge5" class="edge">
<title>beta&#45;&gt;mu</title>
<path fill="none" stroke="black" d="M464.45,-194.22C453.72,-182.78 439.33,-167.45 427.31,-154.64"/>
<polygon fill="black" stroke="black" points="429.58,-151.94 420.18,-147.04 424.47,-156.73 429.58,-151.94"/>
</g>
<!-- alpha&#45;&gt;mu -->
<g id="edge6" class="edge">
<title>alpha&#45;&gt;mu</title>
<path fill="none" stroke="black" d="M347.9,-194.22C357.93,-182.78 371.37,-167.45 382.6,-154.64"/>
<polygon fill="black" stroke="black" points="385.3,-156.87 389.26,-147.04 380.03,-152.25 385.3,-156.87"/>
</g>
<!-- mu&#45;&gt;logfc -->
<g id="edge7" class="edge">
<title>mu&#45;&gt;logfc</title>
<path fill="none" stroke="black" d="M404.19,-110.7C404.19,-102.98 404.19,-93.71 404.19,-85.11"/>
<polygon fill="black" stroke="black" points="407.69,-85.1 404.19,-75.1 400.69,-85.1 407.69,-85.1"/>
</g>
</g>
</svg>
