<?xml version="1.0" encoding="UTF-8" standalone="no"?>
<!DOCTYPE svg PUBLIC "-//W3C//DTD SVG 1.1//EN"
 "http://www.w3.org/Graphics/SVG/1.1/DTD/svg11.dtd">
<!-- Generated by graphviz version 2.42.3 (20191010.1750)
 -->
<!-- Title: %3 Pages: 1 -->
<svg width="797pt" height="308pt"
 viewBox="0.00 0.00 796.52 308.00" xmlns="http://www.w3.org/2000/svg" xmlns:xlink="http://www.w3.org/1999/xlink">
<g id="graph0" class="graph" transform="scale(1 1) rotate(0) translate(4 304)">
<title>%3</title>
<polygon fill="white" stroke="transparent" points="-4,4 -4,-304 792.52,-304 792.52,4 -4,4"/>
<g id="clust1" class="cluster">
<title>cluster5</title>
<path fill="none" stroke="black" d="M254.2,-162C254.2,-162 517.2,-162 517.2,-162 523.2,-162 529.2,-168 529.2,-174 529.2,-174 529.2,-224 529.2,-224 529.2,-230 523.2,-236 517.2,-236 517.2,-236 254.2,-236 254.2,-236 248.2,-236 242.2,-230 242.2,-224 242.2,-224 242.2,-174 242.2,-174 242.2,-168 248.2,-162 254.2,-162"/>
<text text-anchor="middle" x="517.7" y="-168.8" font-family="Times,serif" font-size="14.00">5</text>
</g>
<g id="clust2" class="cluster">
<title>cluster150</title>
<path fill="none" stroke="black" d="M326.2,-8C326.2,-8 446.2,-8 446.2,-8 452.2,-8 458.2,-14 458.2,-20 458.2,-20 458.2,-142 458.2,-142 458.2,-148 452.2,-154 446.2,-154 446.2,-154 326.2,-154 326.2,-154 320.2,-154 314.2,-148 314.2,-142 314.2,-142 314.2,-20 314.2,-20 314.2,-14 320.2,-8 326.2,-8"/>
<text text-anchor="middle" x="439.7" y="-14.8" font-family="Times,serif" font-size="14.00">150</text>
</g>
<!-- mu_alpha -->
<g id="node1" class="node">
<title>mu_alpha</title>
<ellipse fill="none" stroke="black" cx="81.2" cy="-282" rx="81.4" ry="18"/>
<text text-anchor="middle" x="81.2" y="-277.8" font-family="Times,serif" font-size="14.00">mu_alpha ~ Normal</text>
</g>
<!-- alpha -->
<g id="node6" class="node">
<title>alpha</title>
<ellipse fill="none" stroke="black" cx="315.2" cy="-210" rx="65.46" ry="18"/>
<text text-anchor="middle" x="315.2" y="-205.8" font-family="Times,serif" font-size="14.00">alpha ~ Normal</text>
</g>
<!-- mu_alpha&#45;&gt;alpha -->
<g id="edge1" class="edge">
<title>mu_alpha&#45;&gt;alpha</title>
<path fill="none" stroke="black" d="M127.43,-267.17C166.44,-255.5 222.25,-238.8 262.89,-226.65"/>
<polygon fill="black" stroke="black" points="264.03,-229.96 272.61,-223.74 262.03,-223.25 264.03,-229.96"/>
</g>
<!-- mu_beta -->
<g id="node2" class="node">
<title>mu_beta</title>
<ellipse fill="none" stroke="black" cx="489.2" cy="-282" rx="76.56" ry="18"/>
<text text-anchor="middle" x="489.2" y="-277.8" font-family="Times,serif" font-size="14.00">mu_beta ~ Normal</text>
</g>
<!-- beta -->
<g id="node7" class="node">
<title>beta</title>
<ellipse fill="none" stroke="black" cx="460.2" cy="-210" rx="61.11" ry="18"/>
<text text-anchor="middle" x="460.2" y="-205.8" font-family="Times,serif" font-size="14.00">beta ~ Normal</text>
</g>
<!-- mu_beta&#45;&gt;beta -->
<g id="edge3" class="edge">
<title>mu_beta&#45;&gt;beta</title>
<path fill="none" stroke="black" d="M482.18,-264.05C478.92,-256.18 474.96,-246.62 471.3,-237.79"/>
<polygon fill="black" stroke="black" points="474.42,-236.17 467.36,-228.28 467.95,-238.85 474.42,-236.17"/>
</g>
<!-- sigma_alpha -->
<g id="node3" class="node">
<title>sigma_alpha</title>
<ellipse fill="none" stroke="black" cx="287.2" cy="-282" rx="106.97" ry="18"/>
<text text-anchor="middle" x="287.2" y="-277.8" font-family="Times,serif" font-size="14.00">sigma_alpha ~ HalfNormal</text>
</g>
<!-- sigma_alpha&#45;&gt;alpha -->
<g id="edge2" class="edge">
<title>sigma_alpha&#45;&gt;alpha</title>
<path fill="none" stroke="black" d="M294.12,-263.7C297.27,-255.81 301.08,-246.3 304.58,-237.55"/>
<polygon fill="black" stroke="black" points="307.89,-238.69 308.36,-228.1 301.39,-236.09 307.89,-238.69"/>
</g>
<!-- sigma -->
<g id="node4" class="node">
<title>sigma</title>
<ellipse fill="none" stroke="black" cx="549.2" cy="-128" rx="83.33" ry="18"/>
<text text-anchor="middle" x="549.2" y="-123.8" font-family="Times,serif" font-size="14.00">sigma ~ HalfNormal</text>
</g>
<!-- logfc -->
<g id="node8" class="node">
<title>logfc</title>
<ellipse fill="lightgrey" stroke="black" cx="386.2" cy="-56" rx="64.5" ry="18"/>
<text text-anchor="middle" x="386.2" y="-51.8" font-family="Times,serif" font-size="14.00">logfc ~ Normal</text>
</g>
<!-- sigma&#45;&gt;logfc -->
<g id="edge7" class="edge">
<title>sigma&#45;&gt;logfc</title>
<path fill="none" stroke="black" d="M513.43,-111.64C488.64,-100.99 455.51,-86.76 429.27,-75.49"/>
<polygon fill="black" stroke="black" points="430.51,-72.22 419.94,-71.49 427.75,-78.65 430.51,-72.22"/>
</g>
<!-- sigma_beta -->
<g id="node5" class="node">
<title>sigma_beta</title>
<ellipse fill="none" stroke="black" cx="686.2" cy="-282" rx="102.13" ry="18"/>
<text text-anchor="middle" x="686.2" y="-277.8" font-family="Times,serif" font-size="14.00">sigma_beta ~ HalfNormal</text>
</g>
<!-- sigma_beta&#45;&gt;beta -->
<g id="edge4" class="edge">
<title>sigma_beta&#45;&gt;beta</title>
<path fill="none" stroke="black" d="M637.99,-266.07C600.51,-254.46 548.66,-238.4 510.62,-226.62"/>
<polygon fill="black" stroke="black" points="511.36,-223.18 500.77,-223.57 509.29,-229.87 511.36,-223.18"/>
</g>
<!-- mu -->
<g id="node9" class="node">
<title>mu</title>
<polygon fill="none" stroke="black" points="448.36,-146 324.04,-146 324.04,-110 448.36,-110 448.36,-146"/>
<text text-anchor="middle" x="386.2" y="-123.8" font-family="Times,serif" font-size="14.00">mu ~ Deterministic</text>
</g>
<!-- alpha&#45;&gt;mu -->
<g id="edge5" class="edge">
<title>alpha&#45;&gt;mu</title>
<path fill="none" stroke="black" d="M329.91,-192.42C339.87,-181.21 353.19,-166.19 364.38,-153.59"/>
<polygon fill="black" stroke="black" points="367,-155.91 371.02,-146.11 361.76,-151.26 367,-155.91"/>
</g>
<!-- beta&#45;&gt;mu -->
<g id="edge6" class="edge">
<title>beta&#45;&gt;mu</title>
<path fill="none" stroke="black" d="M444.87,-192.42C434.49,-181.21 420.6,-166.19 408.94,-153.59"/>
<polygon fill="black" stroke="black" points="411.38,-151.07 402.02,-146.11 406.24,-155.82 411.38,-151.07"/>
</g>
<!-- mu&#45;&gt;logfc -->
<g id="edge8" class="edge">
<title>mu&#45;&gt;logfc</title>
<path fill="none" stroke="black" d="M386.2,-109.7C386.2,-101.98 386.2,-92.71 386.2,-84.11"/>
<polygon fill="black" stroke="black" points="389.7,-84.1 386.2,-74.1 382.7,-84.1 389.7,-84.1"/>
</g>
</g>
</svg>
