<?xml version="1.0" encoding="UTF-8" standalone="no"?>
<!DOCTYPE svg PUBLIC "-//W3C//DTD SVG 1.1//EN"
 "http://www.w3.org/Graphics/SVG/1.1/DTD/svg11.dtd">
<!-- Generated by graphviz version 2.42.3 (20191010.1750)
 -->
<!-- Title: %3 Pages: 1 -->
<svg width="363pt" height="252pt"
 viewBox="0.00 0.00 363.42 252.00" xmlns="http://www.w3.org/2000/svg" xmlns:xlink="http://www.w3.org/1999/xlink">
<g id="graph0" class="graph" transform="scale(1 1) rotate(0) translate(4 248)">
<title>%3</title>
<polygon fill="white" stroke="transparent" points="-4,4 -4,-248 359.42,-248 359.42,4 -4,4"/>
<g id="clust1" class="cluster">
<title>cluster17</title>
<path fill="none" stroke="black" d="M122.25,-162C122.25,-162 220.25,-162 220.25,-162 226.25,-162 232.25,-168 232.25,-174 232.25,-174 232.25,-224 232.25,-224 232.25,-230 226.25,-236 220.25,-236 220.25,-236 122.25,-236 122.25,-236 116.25,-236 110.25,-230 110.25,-224 110.25,-224 110.25,-174 110.25,-174 110.25,-168 116.25,-162 122.25,-162"/>
<text text-anchor="middle" x="217.25" y="-168.8" font-family="Times,serif" font-size="14.00">17</text>
</g>
<g id="clust2" class="cluster">
<title>cluster827</title>
<path fill="none" stroke="black" d="M50.25,-8C50.25,-8 166.25,-8 166.25,-8 172.25,-8 178.25,-14 178.25,-20 178.25,-20 178.25,-142 178.25,-142 178.25,-148 172.25,-154 166.25,-154 166.25,-154 50.25,-154 50.25,-154 44.25,-154 38.25,-148 38.25,-142 38.25,-142 38.25,-20 38.25,-20 38.25,-14 44.25,-8 50.25,-8"/>
<text text-anchor="middle" x="159.75" y="-14.8" font-family="Times,serif" font-size="14.00">827</text>
</g>
<!-- a -->
<g id="node1" class="node">
<title>a</title>
<ellipse fill="none" stroke="black" cx="50.25" cy="-210" rx="50.01" ry="18"/>
<text text-anchor="middle" x="50.25" y="-205.8" font-family="Times,serif" font-size="14.00">a ~ Normal</text>
</g>
<!-- mu -->
<g id="node4" class="node">
<title>mu</title>
<polygon fill="none" stroke="black" points="170.42,-146 46.09,-146 46.09,-110 170.42,-110 170.42,-146"/>
<text text-anchor="middle" x="108.25" y="-123.8" font-family="Times,serif" font-size="14.00">mu ~ Deterministic</text>
</g>
<!-- a&#45;&gt;mu -->
<g id="edge1" class="edge">
<title>a&#45;&gt;mu</title>
<path fill="none" stroke="black" d="M62.27,-192.42C70.25,-181.42 80.88,-166.76 89.91,-154.3"/>
<polygon fill="black" stroke="black" points="92.81,-156.26 95.85,-146.11 87.15,-152.15 92.81,-156.26"/>
</g>
<!-- sigma -->
<g id="node2" class="node">
<title>sigma</title>
<ellipse fill="none" stroke="black" cx="272.25" cy="-128" rx="83.34" ry="18"/>
<text text-anchor="middle" x="272.25" y="-123.8" font-family="Times,serif" font-size="14.00">sigma ~ Exponential</text>
</g>
<!-- D -->
<g id="node5" class="node">
<title>D</title>
<ellipse fill="lightgrey" stroke="black" cx="112.25" cy="-56" rx="52.93" ry="18"/>
<text text-anchor="middle" x="112.25" y="-51.8" font-family="Times,serif" font-size="14.00">D ~ Normal</text>
</g>
<!-- sigma&#45;&gt;D -->
<g id="edge3" class="edge">
<title>sigma&#45;&gt;D</title>
<path fill="none" stroke="black" d="M237.14,-111.64C212.23,-100.74 178.75,-86.09 152.72,-74.7"/>
<polygon fill="black" stroke="black" points="154.06,-71.47 143.49,-70.67 151.25,-77.88 154.06,-71.47"/>
</g>
<!-- w -->
<g id="node3" class="node">
<title>w</title>
<ellipse fill="none" stroke="black" cx="171.25" cy="-210" rx="52.93" ry="18"/>
<text text-anchor="middle" x="171.25" y="-205.8" font-family="Times,serif" font-size="14.00">w ~ Normal</text>
</g>
<!-- w&#45;&gt;mu -->
<g id="edge2" class="edge">
<title>w&#45;&gt;mu</title>
<path fill="none" stroke="black" d="M158.2,-192.42C149.53,-181.42 137.99,-166.76 128.18,-154.3"/>
<polygon fill="black" stroke="black" points="130.66,-151.8 121.72,-146.11 125.16,-156.13 130.66,-151.8"/>
</g>
<!-- mu&#45;&gt;D -->
<g id="edge3" class="edge">
<title>mu&#45;&gt;D</title>
<path fill="none" stroke="black" d="M109.24,-109.7C109.68,-101.98 110.21,-92.71 110.7,-84.11"/>
<polygon fill="black" stroke="black" points="114.2,-84.29 111.27,-74.1 107.21,-83.89 114.2,-84.29"/>
</g>
</g>
</svg>
