<?xml version="1.0" encoding="UTF-8" standalone="no"?>
<!DOCTYPE svg PUBLIC "-//W3C//DTD SVG 1.1//EN"
 "http://www.w3.org/Graphics/SVG/1.1/DTD/svg11.dtd">
<!-- Generated by graphviz version 2.42.3 (20191010.1750)
 -->
<!-- Title: %3 Pages: 1 -->
<svg width="279pt" height="363pt"
 viewBox="0.00 0.00 278.70 362.86" xmlns="http://www.w3.org/2000/svg" xmlns:xlink="http://www.w3.org/1999/xlink">
<g id="graph0" class="graph" transform="scale(1 1) rotate(0) translate(4 358.86)">
<title>%3</title>
<polygon fill="white" stroke="transparent" points="-4,4 -4,-358.86 274.7,-358.86 274.7,4 -4,4"/>
<g id="clust1" class="cluster">
<title>cluster17</title>
<path fill="none" stroke="black" d="M104.72,-232.91C104.72,-232.91 180.72,-232.91 180.72,-232.91 186.72,-232.91 192.72,-238.91 192.72,-244.91 192.72,-244.91 192.72,-334.86 192.72,-334.86 192.72,-340.86 186.72,-346.86 180.72,-346.86 180.72,-346.86 104.72,-346.86 104.72,-346.86 98.72,-346.86 92.72,-340.86 92.72,-334.86 92.72,-334.86 92.72,-244.91 92.72,-244.91 92.72,-238.91 98.72,-232.91 104.72,-232.91"/>
<text text-anchor="middle" x="177.72" y="-240.71" font-family="Times,serif" font-size="14.00">17</text>
</g>
<g id="clust2" class="cluster">
<title>cluster827</title>
<path fill="none" stroke="black" d="M49.72,-8C49.72,-8 133.72,-8 133.72,-8 139.72,-8 145.72,-14 145.72,-20 145.72,-20 145.72,-209.93 145.72,-209.93 145.72,-215.93 139.72,-221.93 133.72,-221.93 133.72,-221.93 49.72,-221.93 49.72,-221.93 43.72,-221.93 37.72,-215.93 37.72,-209.93 37.72,-209.93 37.72,-20 37.72,-20 37.72,-14 43.72,-8 49.72,-8"/>
<text text-anchor="middle" x="127.22" y="-15.8" font-family="Times,serif" font-size="14.00">827</text>
</g>
<!-- a -->
<g id="node1" class="node">
<title>a</title>
<ellipse fill="none" stroke="black" cx="41.72" cy="-301.38" rx="41.94" ry="37.45"/>
<text text-anchor="middle" x="41.72" y="-312.68" font-family="Times,serif" font-size="14.00">a</text>
<text text-anchor="middle" x="41.72" y="-297.68" font-family="Times,serif" font-size="14.00">~</text>
<text text-anchor="middle" x="41.72" y="-282.68" font-family="Times,serif" font-size="14.00">Normal</text>
</g>
<!-- mu -->
<g id="node4" class="node">
<title>mu</title>
<polygon fill="none" stroke="black" points="137.22,-213.93 46.22,-213.93 46.22,-160.93 137.22,-160.93 137.22,-213.93"/>
<text text-anchor="middle" x="91.72" y="-198.73" font-family="Times,serif" font-size="14.00">mu</text>
<text text-anchor="middle" x="91.72" y="-183.73" font-family="Times,serif" font-size="14.00">~</text>
<text text-anchor="middle" x="91.72" y="-168.73" font-family="Times,serif" font-size="14.00">Deterministic</text>
</g>
<!-- a&#45;&gt;mu -->
<g id="edge2" class="edge">
<title>a&#45;&gt;mu</title>
<path fill="none" stroke="black" d="M56.99,-266.19C63,-252.73 69.9,-237.29 75.95,-223.73"/>
<polygon fill="black" stroke="black" points="79.31,-224.8 80.19,-214.25 72.92,-221.95 79.31,-224.8"/>
</g>
<!-- sigma -->
<g id="node2" class="node">
<title>sigma</title>
<ellipse fill="none" stroke="black" cx="212.72" cy="-187.43" rx="57.97" ry="37.45"/>
<text text-anchor="middle" x="212.72" y="-198.73" font-family="Times,serif" font-size="14.00">sigma</text>
<text text-anchor="middle" x="212.72" y="-183.73" font-family="Times,serif" font-size="14.00">~</text>
<text text-anchor="middle" x="212.72" y="-168.73" font-family="Times,serif" font-size="14.00">Exponential</text>
</g>
<!-- D -->
<g id="node5" class="node">
<title>D</title>
<ellipse fill="lightgrey" stroke="black" cx="93.72" cy="-76.48" rx="41.94" ry="37.45"/>
<text text-anchor="middle" x="93.72" y="-87.78" font-family="Times,serif" font-size="14.00">D</text>
<text text-anchor="middle" x="93.72" y="-72.78" font-family="Times,serif" font-size="14.00">~</text>
<text text-anchor="middle" x="93.72" y="-57.78" font-family="Times,serif" font-size="14.00">Normal</text>
</g>
<!-- sigma&#45;&gt;D -->
<g id="edge4" class="edge">
<title>sigma&#45;&gt;D</title>
<path fill="none" stroke="black" d="M179.89,-156.37C164.4,-142.19 145.87,-125.22 129.97,-110.66"/>
<polygon fill="black" stroke="black" points="132.14,-107.9 122.4,-103.73 127.41,-113.07 132.14,-107.9"/>
</g>
<!-- w -->
<g id="node3" class="node">
<title>w</title>
<ellipse fill="none" stroke="black" cx="142.72" cy="-301.38" rx="41.94" ry="37.45"/>
<text text-anchor="middle" x="142.72" y="-312.68" font-family="Times,serif" font-size="14.00">w</text>
<text text-anchor="middle" x="142.72" y="-297.68" font-family="Times,serif" font-size="14.00">~</text>
<text text-anchor="middle" x="142.72" y="-282.68" font-family="Times,serif" font-size="14.00">Normal</text>
</g>
<!-- w&#45;&gt;mu -->
<g id="edge1" class="edge">
<title>w&#45;&gt;mu</title>
<path fill="none" stroke="black" d="M127.28,-266.49C121.04,-252.79 113.84,-236.99 107.56,-223.2"/>
<polygon fill="black" stroke="black" points="110.71,-221.68 103.38,-214.03 104.34,-224.58 110.71,-221.68"/>
</g>
<!-- mu&#45;&gt;D -->
<g id="edge3" class="edge">
<title>mu&#45;&gt;D</title>
<path fill="none" stroke="black" d="M92.19,-160.89C92.39,-149.98 92.63,-136.89 92.86,-124.35"/>
<polygon fill="black" stroke="black" points="96.36,-124.06 93.05,-114 89.37,-123.94 96.36,-124.06"/>
</g>
</g>
</svg>
