<?xml version="1.0" encoding="UTF-8" standalone="no"?>
<!DOCTYPE svg PUBLIC "-//W3C//DTD SVG 1.1//EN"
 "http://www.w3.org/Graphics/SVG/1.1/DTD/svg11.dtd">
<!-- Generated by graphviz version 2.42.3 (20191010.1750)
 -->
<!-- Title: %3 Pages: 1 -->
<svg width="271pt" height="363pt"
 viewBox="0.00 0.00 270.98 362.86" xmlns="http://www.w3.org/2000/svg" xmlns:xlink="http://www.w3.org/1999/xlink">
<g id="graph0" class="graph" transform="scale(1 1) rotate(0) translate(4 358.86)">
<title>%3</title>
<polygon fill="white" stroke="transparent" points="-4,4 -4,-358.86 266.98,-358.86 266.98,4 -4,4"/>
<g id="clust1" class="cluster">
<title>cluster7</title>
<path fill="none" stroke="black" d="M166.98,-232.91C166.98,-232.91 242.98,-232.91 242.98,-232.91 248.98,-232.91 254.98,-238.91 254.98,-244.91 254.98,-244.91 254.98,-334.86 254.98,-334.86 254.98,-340.86 248.98,-346.86 242.98,-346.86 242.98,-346.86 166.98,-346.86 166.98,-346.86 160.98,-346.86 154.98,-340.86 154.98,-334.86 154.98,-334.86 154.98,-244.91 154.98,-244.91 154.98,-238.91 160.98,-232.91 166.98,-232.91"/>
<text text-anchor="middle" x="243.48" y="-240.71" font-family="Times,serif" font-size="14.00">7</text>
</g>
<g id="clust2" class="cluster">
<title>cluster2,332</title>
<path fill="none" stroke="black" d="M136.98,-8C136.98,-8 220.98,-8 220.98,-8 226.98,-8 232.98,-14 232.98,-20 232.98,-20 232.98,-209.93 232.98,-209.93 232.98,-215.93 226.98,-221.93 220.98,-221.93 220.98,-221.93 136.98,-221.93 136.98,-221.93 130.98,-221.93 124.98,-215.93 124.98,-209.93 124.98,-209.93 124.98,-20 124.98,-20 124.98,-14 130.98,-8 136.98,-8"/>
<text text-anchor="middle" x="209.48" y="-15.8" font-family="Times,serif" font-size="14.00">2,332</text>
</g>
<!-- sigma -->
<g id="node1" class="node">
<title>sigma</title>
<ellipse fill="none" stroke="black" cx="57.98" cy="-187.43" rx="57.97" ry="37.45"/>
<text text-anchor="middle" x="57.98" y="-198.73" font-family="Times,serif" font-size="14.00">sigma</text>
<text text-anchor="middle" x="57.98" y="-183.73" font-family="Times,serif" font-size="14.00">~</text>
<text text-anchor="middle" x="57.98" y="-168.73" font-family="Times,serif" font-size="14.00">Exponential</text>
</g>
<!-- D -->
<g id="node5" class="node">
<title>D</title>
<ellipse fill="lightgrey" stroke="black" cx="176.98" cy="-76.48" rx="41.94" ry="37.45"/>
<text text-anchor="middle" x="176.98" y="-87.78" font-family="Times,serif" font-size="14.00">D</text>
<text text-anchor="middle" x="176.98" y="-72.78" font-family="Times,serif" font-size="14.00">~</text>
<text text-anchor="middle" x="176.98" y="-57.78" font-family="Times,serif" font-size="14.00">Normal</text>
</g>
<!-- sigma&#45;&gt;D -->
<g id="edge3" class="edge">
<title>sigma&#45;&gt;D</title>
<path fill="none" stroke="black" d="M90.82,-156.37C106.3,-142.19 124.83,-125.22 140.74,-110.66"/>
<polygon fill="black" stroke="black" points="143.29,-113.07 148.31,-103.73 138.57,-107.9 143.29,-113.07"/>
</g>
<!-- a -->
<g id="node2" class="node">
<title>a</title>
<ellipse fill="none" stroke="black" cx="103.98" cy="-301.38" rx="41.94" ry="37.45"/>
<text text-anchor="middle" x="103.98" y="-312.68" font-family="Times,serif" font-size="14.00">a</text>
<text text-anchor="middle" x="103.98" y="-297.68" font-family="Times,serif" font-size="14.00">~</text>
<text text-anchor="middle" x="103.98" y="-282.68" font-family="Times,serif" font-size="14.00">Normal</text>
</g>
<!-- mu -->
<g id="node4" class="node">
<title>mu</title>
<polygon fill="none" stroke="black" points="224.48,-213.93 133.48,-213.93 133.48,-160.93 224.48,-160.93 224.48,-213.93"/>
<text text-anchor="middle" x="178.98" y="-198.73" font-family="Times,serif" font-size="14.00">mu</text>
<text text-anchor="middle" x="178.98" y="-183.73" font-family="Times,serif" font-size="14.00">~</text>
<text text-anchor="middle" x="178.98" y="-168.73" font-family="Times,serif" font-size="14.00">Deterministic</text>
</g>
<!-- a&#45;&gt;mu -->
<g id="edge2" class="edge">
<title>a&#45;&gt;mu</title>
<path fill="none" stroke="black" d="M125.07,-268.9C134.78,-254.41 146.31,-237.2 156.22,-222.41"/>
<polygon fill="black" stroke="black" points="159.18,-224.28 161.83,-214.03 153.36,-220.39 159.18,-224.28"/>
</g>
<!-- w -->
<g id="node3" class="node">
<title>w</title>
<ellipse fill="none" stroke="black" cx="204.98" cy="-301.38" rx="41.94" ry="37.45"/>
<text text-anchor="middle" x="204.98" y="-312.68" font-family="Times,serif" font-size="14.00">w</text>
<text text-anchor="middle" x="204.98" y="-297.68" font-family="Times,serif" font-size="14.00">~</text>
<text text-anchor="middle" x="204.98" y="-282.68" font-family="Times,serif" font-size="14.00">Normal</text>
</g>
<!-- w&#45;&gt;mu -->
<g id="edge1" class="edge">
<title>w&#45;&gt;mu</title>
<path fill="none" stroke="black" d="M196.68,-264.65C193.68,-251.73 190.29,-237.14 187.29,-224.21"/>
<polygon fill="black" stroke="black" points="190.65,-223.2 184.98,-214.25 183.83,-224.79 190.65,-223.2"/>
</g>
<!-- mu&#45;&gt;D -->
<g id="edge4" class="edge">
<title>mu&#45;&gt;D</title>
<path fill="none" stroke="black" d="M178.51,-160.89C178.31,-149.98 178.07,-136.89 177.84,-124.35"/>
<polygon fill="black" stroke="black" points="181.34,-123.94 177.65,-114 174.34,-124.06 181.34,-123.94"/>
</g>
</g>
</svg>
