<?xml version="1.0" encoding="UTF-8" standalone="no"?>
<!DOCTYPE svg PUBLIC "-//W3C//DTD SVG 1.1//EN"
 "http://www.w3.org/Graphics/SVG/1.1/DTD/svg11.dtd">
<!-- Generated by graphviz version 2.42.3 (20191010.1750)
 -->
<!-- Title: %3 Pages: 1 -->
<svg width="279pt" height="363pt"
 viewBox="0.00 0.00 278.70 362.88" xmlns="http://www.w3.org/2000/svg" xmlns:xlink="http://www.w3.org/1999/xlink">
<g id="graph0" class="graph" transform="scale(1 1) rotate(0) translate(4 358.88)">
<title>%3</title>
<polygon fill="white" stroke="transparent" points="-4,4 -4,-358.88 274.7,-358.88 274.7,4 -4,4"/>
<g id="clust1" class="cluster">
<title>cluster7 x 6</title>
<path fill="none" stroke="black" d="M104.72,-232.93C104.72,-232.93 180.72,-232.93 180.72,-232.93 186.72,-232.93 192.72,-238.93 192.72,-244.93 192.72,-244.93 192.72,-334.88 192.72,-334.88 192.72,-340.88 186.72,-346.88 180.72,-346.88 180.72,-346.88 104.72,-346.88 104.72,-346.88 98.72,-346.88 92.72,-340.88 92.72,-334.88 92.72,-334.88 92.72,-244.93 92.72,-244.93 92.72,-238.93 98.72,-232.93 104.72,-232.93"/>
<text text-anchor="middle" x="170.72" y="-240.73" font-family="Times,serif" font-size="14.00">7 x 6</text>
</g>
<g id="clust2" class="cluster">
<title>cluster7 x 1,176 x 1</title>
<path fill="none" stroke="black" d="M49.72,-129.95C49.72,-129.95 133.72,-129.95 133.72,-129.95 139.72,-129.95 145.72,-135.95 145.72,-141.95 145.72,-141.95 145.72,-209.95 145.72,-209.95 145.72,-215.95 139.72,-221.95 133.72,-221.95 133.72,-221.95 49.72,-221.95 49.72,-221.95 43.72,-221.95 37.72,-215.95 37.72,-209.95 37.72,-209.95 37.72,-141.95 37.72,-141.95 37.72,-135.95 43.72,-129.95 49.72,-129.95"/>
<text text-anchor="middle" x="101.22" y="-137.75" font-family="Times,serif" font-size="14.00">7 x 1,176 x 1</text>
</g>
<g id="clust3" class="cluster">
<title>cluster5,096</title>
<path fill="none" stroke="black" d="M55.72,-8C55.72,-8 131.72,-8 131.72,-8 137.72,-8 143.72,-14 143.72,-20 143.72,-20 143.72,-109.95 143.72,-109.95 143.72,-115.95 137.72,-121.95 131.72,-121.95 131.72,-121.95 55.72,-121.95 55.72,-121.95 49.72,-121.95 43.72,-115.95 43.72,-109.95 43.72,-109.95 43.72,-20 43.72,-20 43.72,-14 49.72,-8 55.72,-8"/>
<text text-anchor="middle" x="120.22" y="-15.8" font-family="Times,serif" font-size="14.00">5,096</text>
</g>
<!-- a -->
<g id="node1" class="node">
<title>a</title>
<ellipse fill="none" stroke="black" cx="41.72" cy="-301.41" rx="41.94" ry="37.45"/>
<text text-anchor="middle" x="41.72" y="-312.71" font-family="Times,serif" font-size="14.00">a</text>
<text text-anchor="middle" x="41.72" y="-297.71" font-family="Times,serif" font-size="14.00">~</text>
<text text-anchor="middle" x="41.72" y="-282.71" font-family="Times,serif" font-size="14.00">Normal</text>
</g>
<!-- mu -->
<g id="node4" class="node">
<title>mu</title>
<polygon fill="none" stroke="black" points="137.22,-213.95 46.22,-213.95 46.22,-160.95 137.22,-160.95 137.22,-213.95"/>
<text text-anchor="middle" x="91.72" y="-198.75" font-family="Times,serif" font-size="14.00">mu</text>
<text text-anchor="middle" x="91.72" y="-183.75" font-family="Times,serif" font-size="14.00">~</text>
<text text-anchor="middle" x="91.72" y="-168.75" font-family="Times,serif" font-size="14.00">Deterministic</text>
</g>
<!-- a&#45;&gt;mu -->
<g id="edge1" class="edge">
<title>a&#45;&gt;mu</title>
<path fill="none" stroke="black" d="M56.99,-266.21C63,-252.76 69.9,-237.31 75.95,-223.75"/>
<polygon fill="black" stroke="black" points="79.31,-224.83 80.19,-214.27 72.92,-221.97 79.31,-224.83"/>
</g>
<!-- sigma -->
<g id="node2" class="node">
<title>sigma</title>
<ellipse fill="none" stroke="black" cx="212.72" cy="-187.45" rx="57.97" ry="37.45"/>
<text text-anchor="middle" x="212.72" y="-198.75" font-family="Times,serif" font-size="14.00">sigma</text>
<text text-anchor="middle" x="212.72" y="-183.75" font-family="Times,serif" font-size="14.00">~</text>
<text text-anchor="middle" x="212.72" y="-168.75" font-family="Times,serif" font-size="14.00">Exponential</text>
</g>
<!-- D -->
<g id="node5" class="node">
<title>D</title>
<ellipse fill="lightgrey" stroke="black" cx="93.72" cy="-76.48" rx="41.94" ry="37.45"/>
<text text-anchor="middle" x="93.72" y="-87.78" font-family="Times,serif" font-size="14.00">D</text>
<text text-anchor="middle" x="93.72" y="-72.78" font-family="Times,serif" font-size="14.00">~</text>
<text text-anchor="middle" x="93.72" y="-57.78" font-family="Times,serif" font-size="14.00">Normal</text>
</g>
<!-- sigma&#45;&gt;D -->
<g id="edge4" class="edge">
<title>sigma&#45;&gt;D</title>
<path fill="none" stroke="black" d="M179.89,-156.39C164.4,-142.2 145.87,-125.23 129.97,-110.67"/>
<polygon fill="black" stroke="black" points="132.14,-107.91 122.4,-103.74 127.41,-113.07 132.14,-107.91"/>
</g>
<!-- w -->
<g id="node3" class="node">
<title>w</title>
<ellipse fill="none" stroke="black" cx="142.72" cy="-301.41" rx="41.94" ry="37.45"/>
<text text-anchor="middle" x="142.72" y="-312.71" font-family="Times,serif" font-size="14.00">w</text>
<text text-anchor="middle" x="142.72" y="-297.71" font-family="Times,serif" font-size="14.00">~</text>
<text text-anchor="middle" x="142.72" y="-282.71" font-family="Times,serif" font-size="14.00">Normal</text>
</g>
<!-- w&#45;&gt;mu -->
<g id="edge2" class="edge">
<title>w&#45;&gt;mu</title>
<path fill="none" stroke="black" d="M127.28,-266.51C121.04,-252.81 113.84,-237.01 107.56,-223.22"/>
<polygon fill="black" stroke="black" points="110.71,-221.7 103.38,-214.05 104.34,-224.6 110.71,-221.7"/>
</g>
<!-- mu&#45;&gt;D -->
<g id="edge3" class="edge">
<title>mu&#45;&gt;D</title>
<path fill="none" stroke="black" d="M92.19,-160.9C92.39,-149.99 92.63,-136.9 92.86,-124.36"/>
<polygon fill="black" stroke="black" points="96.36,-124.07 93.05,-114.01 89.37,-123.94 96.36,-124.07"/>
</g>
</g>
</svg>
