<?xml version="1.0" encoding="UTF-8" standalone="no"?>
<!DOCTYPE svg PUBLIC "-//W3C//DTD SVG 1.1//EN"
 "http://www.w3.org/Graphics/SVG/1.1/DTD/svg11.dtd">
<!-- Generated by graphviz version 2.42.3 (20191010.1750)
 -->
<!-- Title: %3 Pages: 1 -->
<svg width="271pt" height="363pt"
 viewBox="0.00 0.00 270.98 362.88" xmlns="http://www.w3.org/2000/svg" xmlns:xlink="http://www.w3.org/1999/xlink">
<g id="graph0" class="graph" transform="scale(1 1) rotate(0) translate(4 358.88)">
<title>%3</title>
<polygon fill="white" stroke="transparent" points="-4,4 -4,-358.88 266.98,-358.88 266.98,4 -4,4"/>
<g id="clust1" class="cluster">
<title>cluster7 x 6</title>
<path fill="none" stroke="black" d="M166.98,-232.93C166.98,-232.93 242.98,-232.93 242.98,-232.93 248.98,-232.93 254.98,-238.93 254.98,-244.93 254.98,-244.93 254.98,-334.88 254.98,-334.88 254.98,-340.88 248.98,-346.88 242.98,-346.88 242.98,-346.88 166.98,-346.88 166.98,-346.88 160.98,-346.88 154.98,-340.88 154.98,-334.88 154.98,-334.88 154.98,-244.93 154.98,-244.93 154.98,-238.93 160.98,-232.93 166.98,-232.93"/>
<text text-anchor="middle" x="232.98" y="-240.73" font-family="Times,serif" font-size="14.00">7 x 6</text>
</g>
<g id="clust2" class="cluster">
<title>cluster7 x 5,096</title>
<path fill="none" stroke="black" d="M136.98,-129.95C136.98,-129.95 220.98,-129.95 220.98,-129.95 226.98,-129.95 232.98,-135.95 232.98,-141.95 232.98,-141.95 232.98,-209.95 232.98,-209.95 232.98,-215.95 226.98,-221.95 220.98,-221.95 220.98,-221.95 136.98,-221.95 136.98,-221.95 130.98,-221.95 124.98,-215.95 124.98,-209.95 124.98,-209.95 124.98,-141.95 124.98,-141.95 124.98,-135.95 130.98,-129.95 136.98,-129.95"/>
<text text-anchor="middle" x="198.98" y="-137.75" font-family="Times,serif" font-size="14.00">7 x 5,096</text>
</g>
<g id="clust3" class="cluster">
<title>cluster5,096</title>
<path fill="none" stroke="black" d="M79.98,-8C79.98,-8 155.98,-8 155.98,-8 161.98,-8 167.98,-14 167.98,-20 167.98,-20 167.98,-109.95 167.98,-109.95 167.98,-115.95 161.98,-121.95 155.98,-121.95 155.98,-121.95 79.98,-121.95 79.98,-121.95 73.98,-121.95 67.98,-115.95 67.98,-109.95 67.98,-109.95 67.98,-20 67.98,-20 67.98,-14 73.98,-8 79.98,-8"/>
<text text-anchor="middle" x="144.48" y="-15.8" font-family="Times,serif" font-size="14.00">5,096</text>
</g>
<!-- sigma -->
<g id="node1" class="node">
<title>sigma</title>
<ellipse fill="none" stroke="black" cx="57.98" cy="-187.45" rx="57.97" ry="37.45"/>
<text text-anchor="middle" x="57.98" y="-198.75" font-family="Times,serif" font-size="14.00">sigma</text>
<text text-anchor="middle" x="57.98" y="-183.75" font-family="Times,serif" font-size="14.00">~</text>
<text text-anchor="middle" x="57.98" y="-168.75" font-family="Times,serif" font-size="14.00">Exponential</text>
</g>
<!-- D -->
<g id="node5" class="node">
<title>D</title>
<ellipse fill="lightgrey" stroke="black" cx="117.98" cy="-76.48" rx="41.94" ry="37.45"/>
<text text-anchor="middle" x="117.98" y="-87.78" font-family="Times,serif" font-size="14.00">D</text>
<text text-anchor="middle" x="117.98" y="-72.78" font-family="Times,serif" font-size="14.00">~</text>
<text text-anchor="middle" x="117.98" y="-57.78" font-family="Times,serif" font-size="14.00">Normal</text>
</g>
<!-- sigma&#45;&gt;D -->
<g id="edge3" class="edge">
<title>sigma&#45;&gt;D</title>
<path fill="none" stroke="black" d="M76.97,-151.97C82.65,-141.64 88.95,-130.2 94.87,-119.45"/>
<polygon fill="black" stroke="black" points="97.98,-121.07 99.74,-110.62 91.85,-117.69 97.98,-121.07"/>
</g>
<!-- a -->
<g id="node2" class="node">
<title>a</title>
<ellipse fill="none" stroke="black" cx="103.98" cy="-301.41" rx="41.94" ry="37.45"/>
<text text-anchor="middle" x="103.98" y="-312.71" font-family="Times,serif" font-size="14.00">a</text>
<text text-anchor="middle" x="103.98" y="-297.71" font-family="Times,serif" font-size="14.00">~</text>
<text text-anchor="middle" x="103.98" y="-282.71" font-family="Times,serif" font-size="14.00">Normal</text>
</g>
<!-- mu -->
<g id="node4" class="node">
<title>mu</title>
<polygon fill="none" stroke="black" points="224.48,-213.95 133.48,-213.95 133.48,-160.95 224.48,-160.95 224.48,-213.95"/>
<text text-anchor="middle" x="178.98" y="-198.75" font-family="Times,serif" font-size="14.00">mu</text>
<text text-anchor="middle" x="178.98" y="-183.75" font-family="Times,serif" font-size="14.00">~</text>
<text text-anchor="middle" x="178.98" y="-168.75" font-family="Times,serif" font-size="14.00">Deterministic</text>
</g>
<!-- a&#45;&gt;mu -->
<g id="edge1" class="edge">
<title>a&#45;&gt;mu</title>
<path fill="none" stroke="black" d="M125.07,-268.92C134.78,-254.43 146.31,-237.22 156.22,-222.44"/>
<polygon fill="black" stroke="black" points="159.18,-224.31 161.83,-214.05 153.36,-220.41 159.18,-224.31"/>
</g>
<!-- w -->
<g id="node3" class="node">
<title>w</title>
<ellipse fill="none" stroke="black" cx="204.98" cy="-301.41" rx="41.94" ry="37.45"/>
<text text-anchor="middle" x="204.98" y="-312.71" font-family="Times,serif" font-size="14.00">w</text>
<text text-anchor="middle" x="204.98" y="-297.71" font-family="Times,serif" font-size="14.00">~</text>
<text text-anchor="middle" x="204.98" y="-282.71" font-family="Times,serif" font-size="14.00">Normal</text>
</g>
<!-- w&#45;&gt;mu -->
<g id="edge2" class="edge">
<title>w&#45;&gt;mu</title>
<path fill="none" stroke="black" d="M196.68,-264.68C193.68,-251.75 190.29,-237.16 187.29,-224.23"/>
<polygon fill="black" stroke="black" points="190.65,-223.23 184.98,-214.28 183.83,-224.81 190.65,-223.23"/>
</g>
<!-- mu&#45;&gt;D -->
<g id="edge4" class="edge">
<title>mu&#45;&gt;D</title>
<path fill="none" stroke="black" d="M164.68,-160.9C157.75,-148.52 149.24,-133.32 141.4,-119.31"/>
<polygon fill="black" stroke="black" points="144.3,-117.33 136.36,-110.31 138.19,-120.75 144.3,-117.33"/>
</g>
</g>
</svg>
