<?xml version="1.0" encoding="UTF-8" standalone="no"?>
<!DOCTYPE svg PUBLIC "-//W3C//DTD SVG 1.1//EN"
 "http://www.w3.org/Graphics/SVG/1.1/DTD/svg11.dtd">
<!-- Generated by graphviz version 2.42.3 (20191010.1750)
 -->
<!-- Title: %3 Pages: 1 -->
<svg width="479pt" height="683pt"
 viewBox="0.00 0.00 479.36 682.72" xmlns="http://www.w3.org/2000/svg" xmlns:xlink="http://www.w3.org/1999/xlink">
<g id="graph0" class="graph" transform="scale(1 1) rotate(0) translate(4 678.72)">
<title>%3</title>
<polygon fill="white" stroke="transparent" points="-4,4 -4,-678.72 475.36,-678.72 475.36,4 -4,4"/>
<g id="clust1" class="cluster">
<title>cluster5</title>
<path fill="none" stroke="black" d="M139.1,-457.81C139.1,-457.81 229.1,-457.81 229.1,-457.81 235.1,-457.81 241.1,-463.81 241.1,-469.81 241.1,-469.81 241.1,-559.77 241.1,-559.77 241.1,-565.77 235.1,-571.77 229.1,-571.77 229.1,-571.77 139.1,-571.77 139.1,-571.77 133.1,-571.77 127.1,-565.77 127.1,-559.77 127.1,-559.77 127.1,-469.81 127.1,-469.81 127.1,-463.81 133.1,-457.81 139.1,-457.81"/>
<text text-anchor="middle" x="229.6" y="-465.61" font-family="Times,serif" font-size="14.00">5</text>
</g>
<g id="clust2" class="cluster">
<title>cluster15</title>
<path fill="none" stroke="black" d="M142.1,-232.91C142.1,-232.91 226.1,-232.91 226.1,-232.91 232.1,-232.91 238.1,-238.91 238.1,-244.91 238.1,-244.91 238.1,-434.84 238.1,-434.84 238.1,-440.84 232.1,-446.84 226.1,-446.84 226.1,-446.84 142.1,-446.84 142.1,-446.84 136.1,-446.84 130.1,-440.84 130.1,-434.84 130.1,-434.84 130.1,-244.91 130.1,-244.91 130.1,-238.91 136.1,-232.91 142.1,-232.91"/>
<text text-anchor="middle" x="223.1" y="-240.71" font-family="Times,serif" font-size="14.00">15</text>
</g>
<g id="clust3" class="cluster">
<title>cluster20</title>
<path fill="none" stroke="black" d="M267.1,-232.91C267.1,-232.91 343.1,-232.91 343.1,-232.91 349.1,-232.91 355.1,-238.91 355.1,-244.91 355.1,-244.91 355.1,-334.86 355.1,-334.86 355.1,-340.86 349.1,-346.86 343.1,-346.86 343.1,-346.86 267.1,-346.86 267.1,-346.86 261.1,-346.86 255.1,-340.86 255.1,-334.86 255.1,-334.86 255.1,-244.91 255.1,-244.91 255.1,-238.91 261.1,-232.91 267.1,-232.91"/>
<text text-anchor="middle" x="340.1" y="-240.71" font-family="Times,serif" font-size="14.00">20</text>
</g>
<g id="clust4" class="cluster">
<title>cluster300</title>
<path fill="none" stroke="black" d="M200.1,-8C200.1,-8 284.1,-8 284.1,-8 290.1,-8 296.1,-14 296.1,-20 296.1,-20 296.1,-209.93 296.1,-209.93 296.1,-215.93 290.1,-221.93 284.1,-221.93 284.1,-221.93 200.1,-221.93 200.1,-221.93 194.1,-221.93 188.1,-215.93 188.1,-209.93 188.1,-209.93 188.1,-20 188.1,-20 188.1,-14 194.1,-8 200.1,-8"/>
<text text-anchor="middle" x="277.6" y="-15.8" font-family="Times,serif" font-size="14.00">300</text>
</g>
<!-- sigma_alpha -->
<g id="node1" class="node">
<title>sigma_alpha</title>
<ellipse fill="none" stroke="black" cx="60.1" cy="-412.34" rx="60.21" ry="37.45"/>
<text text-anchor="middle" x="60.1" y="-423.64" font-family="Times,serif" font-size="14.00">sigma_alpha</text>
<text text-anchor="middle" x="60.1" y="-408.64" font-family="Times,serif" font-size="14.00">~</text>
<text text-anchor="middle" x="60.1" y="-393.64" font-family="Times,serif" font-size="14.00">Exponential</text>
</g>
<!-- alpha_s -->
<g id="node9" class="node">
<title>alpha_s</title>
<ellipse fill="none" stroke="black" cx="184.1" cy="-301.38" rx="41.94" ry="37.45"/>
<text text-anchor="middle" x="184.1" y="-312.68" font-family="Times,serif" font-size="14.00">alpha_s</text>
<text text-anchor="middle" x="184.1" y="-297.68" font-family="Times,serif" font-size="14.00">~</text>
<text text-anchor="middle" x="184.1" y="-282.68" font-family="Times,serif" font-size="14.00">Normal</text>
</g>
<!-- sigma_alpha&#45;&gt;alpha_s -->
<g id="edge4" class="edge">
<title>sigma_alpha&#45;&gt;alpha_s</title>
<path fill="none" stroke="black" d="M94.32,-381.28C110.58,-366.99 130.06,-349.87 146.71,-335.24"/>
<polygon fill="black" stroke="black" points="149.43,-337.51 154.63,-328.28 144.81,-332.25 149.43,-337.51"/>
</g>
<!-- sigma_beta -->
<g id="node2" class="node">
<title>sigma_beta</title>
<ellipse fill="none" stroke="black" cx="305.1" cy="-412.34" rx="57.97" ry="37.45"/>
<text text-anchor="middle" x="305.1" y="-423.64" font-family="Times,serif" font-size="14.00">sigma_beta</text>
<text text-anchor="middle" x="305.1" y="-408.64" font-family="Times,serif" font-size="14.00">~</text>
<text text-anchor="middle" x="305.1" y="-393.64" font-family="Times,serif" font-size="14.00">Exponential</text>
</g>
<!-- beta_c -->
<g id="node10" class="node">
<title>beta_c</title>
<ellipse fill="none" stroke="black" cx="305.1" cy="-301.38" rx="41.94" ry="37.45"/>
<text text-anchor="middle" x="305.1" y="-312.68" font-family="Times,serif" font-size="14.00">beta_c</text>
<text text-anchor="middle" x="305.1" y="-297.68" font-family="Times,serif" font-size="14.00">~</text>
<text text-anchor="middle" x="305.1" y="-282.68" font-family="Times,serif" font-size="14.00">Normal</text>
</g>
<!-- sigma_beta&#45;&gt;beta_c -->
<g id="edge6" class="edge">
<title>sigma_beta&#45;&gt;beta_c</title>
<path fill="none" stroke="black" d="M305.1,-374.75C305.1,-366.58 305.1,-357.8 305.1,-349.27"/>
<polygon fill="black" stroke="black" points="308.6,-349.06 305.1,-339.06 301.6,-349.06 308.6,-349.06"/>
</g>
<!-- sigma_epsilon -->
<g id="node3" class="node">
<title>sigma_epsilon</title>
<ellipse fill="none" stroke="black" cx="113.1" cy="-637.24" rx="67.35" ry="37.45"/>
<text text-anchor="middle" x="113.1" y="-648.54" font-family="Times,serif" font-size="14.00">sigma_epsilon</text>
<text text-anchor="middle" x="113.1" y="-633.54" font-family="Times,serif" font-size="14.00">~</text>
<text text-anchor="middle" x="113.1" y="-618.54" font-family="Times,serif" font-size="14.00">Exponential</text>
</g>
<!-- epsilon_g -->
<g id="node7" class="node">
<title>epsilon_g</title>
<ellipse fill="none" stroke="black" cx="184.1" cy="-526.29" rx="48.58" ry="37.45"/>
<text text-anchor="middle" x="184.1" y="-537.59" font-family="Times,serif" font-size="14.00">epsilon_g</text>
<text text-anchor="middle" x="184.1" y="-522.59" font-family="Times,serif" font-size="14.00">~</text>
<text text-anchor="middle" x="184.1" y="-507.59" font-family="Times,serif" font-size="14.00">Normal</text>
</g>
<!-- sigma_epsilon&#45;&gt;epsilon_g -->
<g id="edge1" class="edge">
<title>sigma_epsilon&#45;&gt;epsilon_g</title>
<path fill="none" stroke="black" d="M135.57,-601.77C142.43,-591.24 150.04,-579.56 157.17,-568.62"/>
<polygon fill="black" stroke="black" points="160.23,-570.34 162.75,-560.05 154.36,-566.52 160.23,-570.34"/>
</g>
<!-- sigma -->
<g id="node4" class="node">
<title>sigma</title>
<ellipse fill="none" stroke="black" cx="363.1" cy="-187.43" rx="57.97" ry="37.45"/>
<text text-anchor="middle" x="363.1" y="-198.73" font-family="Times,serif" font-size="14.00">sigma</text>
<text text-anchor="middle" x="363.1" y="-183.73" font-family="Times,serif" font-size="14.00">~</text>
<text text-anchor="middle" x="363.1" y="-168.73" font-family="Times,serif" font-size="14.00">Exponential</text>
</g>
<!-- logfc -->
<g id="node11" class="node">
<title>logfc</title>
<ellipse fill="lightgrey" stroke="black" cx="244.1" cy="-76.48" rx="41.94" ry="37.45"/>
<text text-anchor="middle" x="244.1" y="-87.78" font-family="Times,serif" font-size="14.00">logfc</text>
<text text-anchor="middle" x="244.1" y="-72.78" font-family="Times,serif" font-size="14.00">~</text>
<text text-anchor="middle" x="244.1" y="-57.78" font-family="Times,serif" font-size="14.00">Normal</text>
</g>
<!-- sigma&#45;&gt;logfc -->
<g id="edge10" class="edge">
<title>sigma&#45;&gt;logfc</title>
<path fill="none" stroke="black" d="M330.27,-156.37C314.78,-142.19 296.25,-125.22 280.35,-110.66"/>
<polygon fill="black" stroke="black" points="282.52,-107.9 272.78,-103.73 277.79,-113.07 282.52,-107.9"/>
</g>
<!-- mu_epsilon -->
<g id="node5" class="node">
<title>mu_epsilon</title>
<ellipse fill="none" stroke="black" cx="255.1" cy="-637.24" rx="56.64" ry="37.45"/>
<text text-anchor="middle" x="255.1" y="-648.54" font-family="Times,serif" font-size="14.00">mu_epsilon</text>
<text text-anchor="middle" x="255.1" y="-633.54" font-family="Times,serif" font-size="14.00">~</text>
<text text-anchor="middle" x="255.1" y="-618.54" font-family="Times,serif" font-size="14.00">Normal</text>
</g>
<!-- mu_epsilon&#45;&gt;epsilon_g -->
<g id="edge2" class="edge">
<title>mu_epsilon&#45;&gt;epsilon_g</title>
<path fill="none" stroke="black" d="M233.22,-602.66C226.21,-591.9 218.36,-579.86 211.03,-568.61"/>
<polygon fill="black" stroke="black" points="213.94,-566.66 205.55,-560.2 208.08,-570.49 213.94,-566.66"/>
</g>
<!-- mu_beta -->
<g id="node6" class="node">
<title>mu_beta</title>
<ellipse fill="none" stroke="black" cx="426.1" cy="-412.34" rx="45.01" ry="37.45"/>
<text text-anchor="middle" x="426.1" y="-423.64" font-family="Times,serif" font-size="14.00">mu_beta</text>
<text text-anchor="middle" x="426.1" y="-408.64" font-family="Times,serif" font-size="14.00">~</text>
<text text-anchor="middle" x="426.1" y="-393.64" font-family="Times,serif" font-size="14.00">Normal</text>
</g>
<!-- mu_beta&#45;&gt;beta_c -->
<g id="edge7" class="edge">
<title>mu_beta&#45;&gt;beta_c</title>
<path fill="none" stroke="black" d="M395.88,-384.12C379.49,-369.37 359.11,-351.01 341.81,-335.44"/>
<polygon fill="black" stroke="black" points="343.88,-332.59 334.11,-328.5 339.2,-337.79 343.88,-332.59"/>
</g>
<!-- mu_alpha -->
<g id="node8" class="node">
<title>mu_alpha</title>
<polygon fill="none" stroke="black" points="229.6,-438.84 138.6,-438.84 138.6,-385.84 229.6,-385.84 229.6,-438.84"/>
<text text-anchor="middle" x="184.1" y="-423.64" font-family="Times,serif" font-size="14.00">mu_alpha</text>
<text text-anchor="middle" x="184.1" y="-408.64" font-family="Times,serif" font-size="14.00">~</text>
<text text-anchor="middle" x="184.1" y="-393.64" font-family="Times,serif" font-size="14.00">Deterministic</text>
</g>
<!-- epsilon_g&#45;&gt;mu_alpha -->
<g id="edge3" class="edge">
<title>epsilon_g&#45;&gt;mu_alpha</title>
<path fill="none" stroke="black" d="M184.1,-488.63C184.1,-475.98 184.1,-461.82 184.1,-449.23"/>
<polygon fill="black" stroke="black" points="187.6,-449.09 184.1,-439.09 180.6,-449.09 187.6,-449.09"/>
</g>
<!-- mu_alpha&#45;&gt;alpha_s -->
<g id="edge5" class="edge">
<title>mu_alpha&#45;&gt;alpha_s</title>
<path fill="none" stroke="black" d="M184.1,-385.79C184.1,-374.88 184.1,-361.79 184.1,-349.25"/>
<polygon fill="black" stroke="black" points="187.6,-348.91 184.1,-338.91 180.6,-348.91 187.6,-348.91"/>
</g>
<!-- mu_sgc -->
<g id="node12" class="node">
<title>mu_sgc</title>
<polygon fill="none" stroke="black" points="287.6,-213.93 196.6,-213.93 196.6,-160.93 287.6,-160.93 287.6,-213.93"/>
<text text-anchor="middle" x="242.1" y="-198.73" font-family="Times,serif" font-size="14.00">mu_sgc</text>
<text text-anchor="middle" x="242.1" y="-183.73" font-family="Times,serif" font-size="14.00">~</text>
<text text-anchor="middle" x="242.1" y="-168.73" font-family="Times,serif" font-size="14.00">Deterministic</text>
</g>
<!-- alpha_s&#45;&gt;mu_sgc -->
<g id="edge8" class="edge">
<title>alpha_s&#45;&gt;mu_sgc</title>
<path fill="none" stroke="black" d="M201.35,-267.1C208.58,-253.14 216.99,-236.91 224.28,-222.84"/>
<polygon fill="black" stroke="black" points="227.39,-224.43 228.89,-213.94 221.18,-221.21 227.39,-224.43"/>
</g>
<!-- beta_c&#45;&gt;mu_sgc -->
<g id="edge9" class="edge">
<title>beta_c&#45;&gt;mu_sgc</title>
<path fill="none" stroke="black" d="M286.71,-267.7C278.85,-253.72 269.65,-237.39 261.67,-223.19"/>
<polygon fill="black" stroke="black" points="264.57,-221.21 256.61,-214.22 258.47,-224.65 264.57,-221.21"/>
</g>
<!-- mu_sgc&#45;&gt;logfc -->
<g id="edge11" class="edge">
<title>mu_sgc&#45;&gt;logfc</title>
<path fill="none" stroke="black" d="M242.57,-160.89C242.77,-149.98 243.01,-136.89 243.24,-124.35"/>
<polygon fill="black" stroke="black" points="246.75,-124.06 243.43,-114 239.75,-123.94 246.75,-124.06"/>
</g>
</g>
</svg>
