<?xml version="1.0" encoding="UTF-8" standalone="no"?>
<!DOCTYPE svg PUBLIC "-//W3C//DTD SVG 1.1//EN"
 "http://www.w3.org/Graphics/SVG/1.1/DTD/svg11.dtd">
<!-- Generated by graphviz version 2.42.3 (20191010.1750)
 -->
<!-- Title: %3 Pages: 1 -->
<svg width="735pt" height="580pt"
 viewBox="0.00 0.00 735.12 579.77" xmlns="http://www.w3.org/2000/svg" xmlns:xlink="http://www.w3.org/1999/xlink">
<g id="graph0" class="graph" transform="scale(1 1) rotate(0) translate(4 575.77)">
<title>%3</title>
<polygon fill="white" stroke="transparent" points="-4,4 -4,-575.77 731.12,-575.77 731.12,4 -4,4"/>
<g id="clust1" class="cluster">
<title>cluster100</title>
<path fill="none" stroke="black" d="M250.4,-354.86C250.4,-354.86 485.4,-354.86 485.4,-354.86 491.4,-354.86 497.4,-360.86 497.4,-366.86 497.4,-366.86 497.4,-456.81 497.4,-456.81 497.4,-462.81 491.4,-468.81 485.4,-468.81 485.4,-468.81 250.4,-468.81 250.4,-468.81 244.4,-468.81 238.4,-462.81 238.4,-456.81 238.4,-456.81 238.4,-366.86 238.4,-366.86 238.4,-360.86 244.4,-354.86 250.4,-354.86"/>
<text text-anchor="middle" x="478.4" y="-362.66" font-family="Times,serif" font-size="14.00">100</text>
</g>
<g id="clust2" class="cluster">
<title>cluster395</title>
<path fill="none" stroke="black" d="M324.4,-232.91C324.4,-232.91 400.4,-232.91 400.4,-232.91 406.4,-232.91 412.4,-238.91 412.4,-244.91 412.4,-244.91 412.4,-334.86 412.4,-334.86 412.4,-340.86 406.4,-346.86 400.4,-346.86 400.4,-346.86 324.4,-346.86 324.4,-346.86 318.4,-346.86 312.4,-340.86 312.4,-334.86 312.4,-334.86 312.4,-244.91 312.4,-244.91 312.4,-238.91 318.4,-232.91 324.4,-232.91"/>
<text text-anchor="middle" x="393.4" y="-240.71" font-family="Times,serif" font-size="14.00">395</text>
</g>
<g id="clust3" class="cluster">
<title>cluster36</title>
<path fill="none" stroke="black" d="M144.4,-232.91C144.4,-232.91 220.4,-232.91 220.4,-232.91 226.4,-232.91 232.4,-238.91 232.4,-244.91 232.4,-244.91 232.4,-334.86 232.4,-334.86 232.4,-340.86 226.4,-346.86 220.4,-346.86 220.4,-346.86 144.4,-346.86 144.4,-346.86 138.4,-346.86 132.4,-340.86 132.4,-334.86 132.4,-334.86 132.4,-244.91 132.4,-244.91 132.4,-238.91 138.4,-232.91 144.4,-232.91"/>
<text text-anchor="middle" x="216.9" y="-240.71" font-family="Times,serif" font-size="14.00">36</text>
</g>
<g id="clust4" class="cluster">
<title>cluster2</title>
<path fill="none" stroke="black" d="M528.4,-232.91C528.4,-232.91 604.4,-232.91 604.4,-232.91 610.4,-232.91 616.4,-238.91 616.4,-244.91 616.4,-244.91 616.4,-334.86 616.4,-334.86 616.4,-340.86 610.4,-346.86 604.4,-346.86 604.4,-346.86 528.4,-346.86 528.4,-346.86 522.4,-346.86 516.4,-340.86 516.4,-334.86 516.4,-334.86 516.4,-244.91 516.4,-244.91 516.4,-238.91 522.4,-232.91 528.4,-232.91"/>
<text text-anchor="middle" x="604.4" y="-240.71" font-family="Times,serif" font-size="14.00">2</text>
</g>
<g id="clust5" class="cluster">
<title>cluster34,760</title>
<path fill="none" stroke="black" d="M319.4,-8C319.4,-8 405.4,-8 405.4,-8 411.4,-8 417.4,-14 417.4,-20 417.4,-20 417.4,-209.93 417.4,-209.93 417.4,-215.93 411.4,-221.93 405.4,-221.93 405.4,-221.93 319.4,-221.93 319.4,-221.93 313.4,-221.93 307.4,-215.93 307.4,-209.93 307.4,-209.93 307.4,-20 307.4,-20 307.4,-14 313.4,-8 319.4,-8"/>
<text text-anchor="middle" x="389.9" y="-15.8" font-family="Times,serif" font-size="14.00">34,760</text>
</g>
<!-- sigma_beta -->
<g id="node1" class="node">
<title>sigma_beta</title>
<ellipse fill="none" stroke="black" cx="59.4" cy="-423.34" rx="59.29" ry="37.45"/>
<text text-anchor="middle" x="59.4" y="-434.64" font-family="Times,serif" font-size="14.00">sigma_beta</text>
<text text-anchor="middle" x="59.4" y="-419.64" font-family="Times,serif" font-size="14.00">~</text>
<text text-anchor="middle" x="59.4" y="-404.64" font-family="Times,serif" font-size="14.00">HalfNormal</text>
</g>
<!-- beta_l -->
<g id="node12" class="node">
<title>beta_l</title>
<ellipse fill="none" stroke="black" cx="182.4" cy="-301.38" rx="41.94" ry="37.45"/>
<text text-anchor="middle" x="182.4" y="-312.68" font-family="Times,serif" font-size="14.00">beta_l</text>
<text text-anchor="middle" x="182.4" y="-297.68" font-family="Times,serif" font-size="14.00">~</text>
<text text-anchor="middle" x="182.4" y="-282.68" font-family="Times,serif" font-size="14.00">Normal</text>
</g>
<!-- sigma_beta&#45;&gt;beta_l -->
<g id="edge6" class="edge">
<title>sigma_beta&#45;&gt;beta_l</title>
<path fill="none" stroke="black" d="M90.41,-391.3C101.97,-379.81 115.24,-366.69 127.4,-354.86 133.58,-348.84 140.2,-342.47 146.62,-336.32"/>
<polygon fill="black" stroke="black" points="149.22,-338.68 154.03,-329.24 144.38,-333.62 149.22,-338.68"/>
</g>
<!-- sigma_g -->
<g id="node2" class="node">
<title>sigma_g</title>
<ellipse fill="none" stroke="black" cx="178.4" cy="-534.29" rx="59.29" ry="37.45"/>
<text text-anchor="middle" x="178.4" y="-545.59" font-family="Times,serif" font-size="14.00">sigma_g</text>
<text text-anchor="middle" x="178.4" y="-530.59" font-family="Times,serif" font-size="14.00">~</text>
<text text-anchor="middle" x="178.4" y="-515.59" font-family="Times,serif" font-size="14.00">HalfNormal</text>
</g>
<!-- mu_alpha -->
<g id="node9" class="node">
<title>mu_alpha</title>
<ellipse fill="none" stroke="black" cx="297.4" cy="-423.34" rx="50.82" ry="37.45"/>
<text text-anchor="middle" x="297.4" y="-434.64" font-family="Times,serif" font-size="14.00">mu_alpha</text>
<text text-anchor="middle" x="297.4" y="-419.64" font-family="Times,serif" font-size="14.00">~</text>
<text text-anchor="middle" x="297.4" y="-404.64" font-family="Times,serif" font-size="14.00">Normal</text>
</g>
<!-- sigma_g&#45;&gt;mu_alpha -->
<g id="edge2" class="edge">
<title>sigma_g&#45;&gt;mu_alpha</title>
<path fill="none" stroke="black" d="M211.55,-502.94C226.07,-489.64 243.22,-473.94 258.36,-460.08"/>
<polygon fill="black" stroke="black" points="261.05,-462.36 266.06,-453.03 256.32,-457.2 261.05,-462.36"/>
</g>
<!-- sigma -->
<g id="node3" class="node">
<title>sigma</title>
<ellipse fill="none" stroke="black" cx="486.4" cy="-187.43" rx="59.29" ry="37.45"/>
<text text-anchor="middle" x="486.4" y="-198.73" font-family="Times,serif" font-size="14.00">sigma</text>
<text text-anchor="middle" x="486.4" y="-183.73" font-family="Times,serif" font-size="14.00">~</text>
<text text-anchor="middle" x="486.4" y="-168.73" font-family="Times,serif" font-size="14.00">HalfNormal</text>
</g>
<!-- lfc -->
<g id="node14" class="node">
<title>lfc</title>
<ellipse fill="lightgrey" stroke="black" cx="364.4" cy="-76.48" rx="41.94" ry="37.45"/>
<text text-anchor="middle" x="364.4" y="-87.78" font-family="Times,serif" font-size="14.00">lfc</text>
<text text-anchor="middle" x="364.4" y="-72.78" font-family="Times,serif" font-size="14.00">~</text>
<text text-anchor="middle" x="364.4" y="-57.78" font-family="Times,serif" font-size="14.00">Normal</text>
</g>
<!-- sigma&#45;&gt;lfc -->
<g id="edge13" class="edge">
<title>sigma&#45;&gt;lfc</title>
<path fill="none" stroke="black" d="M452.74,-156.37C436.86,-142.19 417.86,-125.22 401.56,-110.66"/>
<polygon fill="black" stroke="black" points="403.59,-107.78 393.8,-103.73 398.92,-113 403.59,-107.78"/>
</g>
<!-- mu_g -->
<g id="node4" class="node">
<title>mu_g</title>
<ellipse fill="none" stroke="black" cx="297.4" cy="-534.29" rx="41.94" ry="37.45"/>
<text text-anchor="middle" x="297.4" y="-545.59" font-family="Times,serif" font-size="14.00">mu_g</text>
<text text-anchor="middle" x="297.4" y="-530.59" font-family="Times,serif" font-size="14.00">~</text>
<text text-anchor="middle" x="297.4" y="-515.59" font-family="Times,serif" font-size="14.00">Normal</text>
</g>
<!-- mu_g&#45;&gt;mu_alpha -->
<g id="edge1" class="edge">
<title>mu_g&#45;&gt;mu_alpha</title>
<path fill="none" stroke="black" d="M297.4,-496.71C297.4,-488.53 297.4,-479.75 297.4,-471.23"/>
<polygon fill="black" stroke="black" points="300.9,-471.01 297.4,-461.01 293.9,-471.01 300.9,-471.01"/>
</g>
<!-- mu_beta -->
<g id="node5" class="node">
<title>mu_beta</title>
<ellipse fill="none" stroke="black" cx="182.4" cy="-423.34" rx="45.92" ry="37.45"/>
<text text-anchor="middle" x="182.4" y="-434.64" font-family="Times,serif" font-size="14.00">mu_beta</text>
<text text-anchor="middle" x="182.4" y="-419.64" font-family="Times,serif" font-size="14.00">~</text>
<text text-anchor="middle" x="182.4" y="-404.64" font-family="Times,serif" font-size="14.00">Normal</text>
</g>
<!-- mu_beta&#45;&gt;beta_l -->
<g id="edge7" class="edge">
<title>mu_beta&#45;&gt;beta_l</title>
<path fill="none" stroke="black" d="M182.4,-385.69C182.4,-374.29 182.4,-361.55 182.4,-349.54"/>
<polygon fill="black" stroke="black" points="185.9,-349.21 182.4,-339.21 178.9,-349.21 185.9,-349.21"/>
</g>
<!-- sigma_eta -->
<g id="node6" class="node">
<title>sigma_eta</title>
<ellipse fill="none" stroke="black" cx="566.4" cy="-423.34" rx="59.29" ry="37.45"/>
<text text-anchor="middle" x="566.4" y="-434.64" font-family="Times,serif" font-size="14.00">sigma_eta</text>
<text text-anchor="middle" x="566.4" y="-419.64" font-family="Times,serif" font-size="14.00">~</text>
<text text-anchor="middle" x="566.4" y="-404.64" font-family="Times,serif" font-size="14.00">HalfNormal</text>
</g>
<!-- eta_b -->
<g id="node13" class="node">
<title>eta_b</title>
<ellipse fill="none" stroke="black" cx="566.4" cy="-301.38" rx="41.94" ry="37.45"/>
<text text-anchor="middle" x="566.4" y="-312.68" font-family="Times,serif" font-size="14.00">eta_b</text>
<text text-anchor="middle" x="566.4" y="-297.68" font-family="Times,serif" font-size="14.00">~</text>
<text text-anchor="middle" x="566.4" y="-282.68" font-family="Times,serif" font-size="14.00">Normal</text>
</g>
<!-- sigma_eta&#45;&gt;eta_b -->
<g id="edge8" class="edge">
<title>sigma_eta&#45;&gt;eta_b</title>
<path fill="none" stroke="black" d="M566.4,-385.69C566.4,-374.29 566.4,-361.55 566.4,-349.54"/>
<polygon fill="black" stroke="black" points="569.9,-349.21 566.4,-339.21 562.9,-349.21 569.9,-349.21"/>
</g>
<!-- mu_eta -->
<g id="node7" class="node">
<title>mu_eta</title>
<ellipse fill="none" stroke="black" cx="685.4" cy="-423.34" rx="41.94" ry="37.45"/>
<text text-anchor="middle" x="685.4" y="-434.64" font-family="Times,serif" font-size="14.00">mu_eta</text>
<text text-anchor="middle" x="685.4" y="-419.64" font-family="Times,serif" font-size="14.00">~</text>
<text text-anchor="middle" x="685.4" y="-404.64" font-family="Times,serif" font-size="14.00">Normal</text>
</g>
<!-- mu_eta&#45;&gt;eta_b -->
<g id="edge9" class="edge">
<title>mu_eta&#45;&gt;eta_b</title>
<path fill="none" stroke="black" d="M664.17,-390.7C655.57,-378.88 645.14,-365.71 634.4,-354.86 626.12,-346.5 616.49,-338.31 607.12,-330.98"/>
<polygon fill="black" stroke="black" points="609.07,-328.06 599,-324.77 604.82,-333.62 609.07,-328.06"/>
</g>
<!-- sigma_sigma_alpha -->
<g id="node8" class="node">
<title>sigma_sigma_alpha</title>
<ellipse fill="none" stroke="black" cx="447.4" cy="-534.29" rx="90.52" ry="37.45"/>
<text text-anchor="middle" x="447.4" y="-545.59" font-family="Times,serif" font-size="14.00">sigma_sigma_alpha</text>
<text text-anchor="middle" x="447.4" y="-530.59" font-family="Times,serif" font-size="14.00">~</text>
<text text-anchor="middle" x="447.4" y="-515.59" font-family="Times,serif" font-size="14.00">HalfNormal</text>
</g>
<!-- sigma_alpha -->
<g id="node10" class="node">
<title>sigma_alpha</title>
<ellipse fill="none" stroke="black" cx="427.4" cy="-423.34" rx="61.54" ry="37.45"/>
<text text-anchor="middle" x="427.4" y="-434.64" font-family="Times,serif" font-size="14.00">sigma_alpha</text>
<text text-anchor="middle" x="427.4" y="-419.64" font-family="Times,serif" font-size="14.00">~</text>
<text text-anchor="middle" x="427.4" y="-404.64" font-family="Times,serif" font-size="14.00">HalfNormal</text>
</g>
<!-- sigma_sigma_alpha&#45;&gt;sigma_alpha -->
<g id="edge3" class="edge">
<title>sigma_sigma_alpha&#45;&gt;sigma_alpha</title>
<path fill="none" stroke="black" d="M440.68,-496.71C439.15,-488.35 437.5,-479.37 435.9,-470.67"/>
<polygon fill="black" stroke="black" points="439.31,-469.84 434.06,-460.64 432.42,-471.11 439.31,-469.84"/>
</g>
<!-- alpha_s -->
<g id="node11" class="node">
<title>alpha_s</title>
<ellipse fill="none" stroke="black" cx="362.4" cy="-301.38" rx="41.94" ry="37.45"/>
<text text-anchor="middle" x="362.4" y="-312.68" font-family="Times,serif" font-size="14.00">alpha_s</text>
<text text-anchor="middle" x="362.4" y="-297.68" font-family="Times,serif" font-size="14.00">~</text>
<text text-anchor="middle" x="362.4" y="-282.68" font-family="Times,serif" font-size="14.00">Normal</text>
</g>
<!-- mu_alpha&#45;&gt;alpha_s -->
<g id="edge4" class="edge">
<title>mu_alpha&#45;&gt;alpha_s</title>
<path fill="none" stroke="black" d="M315.85,-388.28C323.24,-374.65 331.83,-358.8 339.6,-344.45"/>
<polygon fill="black" stroke="black" points="342.88,-345.74 344.57,-335.28 336.73,-342.4 342.88,-345.74"/>
</g>
<!-- sigma_alpha&#45;&gt;alpha_s -->
<g id="edge5" class="edge">
<title>sigma_alpha&#45;&gt;alpha_s</title>
<path fill="none" stroke="black" d="M408.6,-387.64C401.28,-374.13 392.82,-358.53 385.16,-344.39"/>
<polygon fill="black" stroke="black" points="388.1,-342.48 380.26,-335.35 381.95,-345.81 388.1,-342.48"/>
</g>
<!-- mu -->
<g id="node15" class="node">
<title>mu</title>
<polygon fill="none" stroke="black" points="408.9,-213.93 315.9,-213.93 315.9,-160.93 408.9,-160.93 408.9,-213.93"/>
<text text-anchor="middle" x="362.4" y="-198.73" font-family="Times,serif" font-size="14.00">mu</text>
<text text-anchor="middle" x="362.4" y="-183.73" font-family="Times,serif" font-size="14.00">~</text>
<text text-anchor="middle" x="362.4" y="-168.73" font-family="Times,serif" font-size="14.00">Deterministic</text>
</g>
<!-- alpha_s&#45;&gt;mu -->
<g id="edge10" class="edge">
<title>alpha_s&#45;&gt;mu</title>
<path fill="none" stroke="black" d="M362.4,-263.73C362.4,-251.07 362.4,-236.92 362.4,-224.32"/>
<polygon fill="black" stroke="black" points="365.9,-224.18 362.4,-214.18 358.9,-224.18 365.9,-224.18"/>
</g>
<!-- beta_l&#45;&gt;mu -->
<g id="edge12" class="edge">
<title>beta_l&#45;&gt;mu</title>
<path fill="none" stroke="black" d="M216.25,-279.33C243.32,-262.49 281.66,-238.64 312.28,-219.6"/>
<polygon fill="black" stroke="black" points="314.47,-222.36 321.11,-214.11 310.77,-216.42 314.47,-222.36"/>
</g>
<!-- eta_b&#45;&gt;mu -->
<g id="edge11" class="edge">
<title>eta_b&#45;&gt;mu</title>
<path fill="none" stroke="black" d="M529.94,-283.13C499.63,-268.46 455.6,-246.43 418.4,-224.91 415.39,-223.17 412.33,-221.34 409.25,-219.46"/>
<polygon fill="black" stroke="black" points="410.96,-216.4 400.62,-214.09 407.26,-222.35 410.96,-216.4"/>
</g>
<!-- mu&#45;&gt;lfc -->
<g id="edge14" class="edge">
<title>mu&#45;&gt;lfc</title>
<path fill="none" stroke="black" d="M362.87,-160.89C363.07,-149.98 363.31,-136.89 363.54,-124.35"/>
<polygon fill="black" stroke="black" points="367.04,-124.06 363.73,-114 360.04,-123.94 367.04,-124.06"/>
</g>
</g>
</svg>
