<?xml version="1.0" encoding="UTF-8" standalone="no"?>
<!DOCTYPE svg PUBLIC "-//W3C//DTD SVG 1.1//EN"
 "http://www.w3.org/Graphics/SVG/1.1/DTD/svg11.dtd">
<!-- Generated by graphviz version 2.46.1 (0)
 -->
<!-- Pages: 1 -->
<svg width="841pt" height="580pt"
 viewBox="0.00 0.00 841.12 579.77" xmlns="http://www.w3.org/2000/svg" xmlns:xlink="http://www.w3.org/1999/xlink">
<g id="graph0" class="graph" transform="scale(1 1) rotate(0) translate(4 575.77)">
<polygon fill="white" stroke="transparent" points="-4,4 -4,-575.77 837.12,-575.77 837.12,4 -4,4"/>
<g id="clust1" class="cluster">
<title>cluster100 x 2</title>
<path fill="none" stroke="black" d="M242.72,-354.86C242.72,-354.86 352.72,-354.86 352.72,-354.86 358.72,-354.86 364.72,-360.86 364.72,-366.86 364.72,-366.86 364.72,-456.81 364.72,-456.81 364.72,-462.81 358.72,-468.81 352.72,-468.81 352.72,-468.81 242.72,-468.81 242.72,-468.81 236.72,-468.81 230.72,-462.81 230.72,-456.81 230.72,-456.81 230.72,-366.86 230.72,-366.86 230.72,-360.86 236.72,-354.86 242.72,-354.86"/>
<text text-anchor="middle" x="335.22" y="-362.66" font-family="Times,serif" font-size="14.00">100 x 2</text>
</g>
<g id="clust2" class="cluster">
<title>cluster395</title>
<path fill="none" stroke="black" d="M291.72,-232.91C291.72,-232.91 343.72,-232.91 343.72,-232.91 349.72,-232.91 355.72,-238.91 355.72,-244.91 355.72,-244.91 355.72,-334.86 355.72,-334.86 355.72,-340.86 349.72,-346.86 343.72,-346.86 343.72,-346.86 291.72,-346.86 291.72,-346.86 285.72,-346.86 279.72,-340.86 279.72,-334.86 279.72,-334.86 279.72,-244.91 279.72,-244.91 279.72,-238.91 285.72,-232.91 291.72,-232.91"/>
<text text-anchor="middle" x="336.72" y="-240.71" font-family="Times,serif" font-size="14.00">395</text>
</g>
<g id="clust3" class="cluster">
<title>cluster100</title>
<path fill="none" stroke="black" d="M396.72,-232.91C396.72,-232.91 472.72,-232.91 472.72,-232.91 478.72,-232.91 484.72,-238.91 484.72,-244.91 484.72,-244.91 484.72,-334.86 484.72,-334.86 484.72,-340.86 478.72,-346.86 472.72,-346.86 472.72,-346.86 396.72,-346.86 396.72,-346.86 390.72,-346.86 384.72,-340.86 384.72,-334.86 384.72,-334.86 384.72,-244.91 384.72,-244.91 384.72,-238.91 390.72,-232.91 396.72,-232.91"/>
<text text-anchor="middle" x="465.72" y="-240.71" font-family="Times,serif" font-size="14.00">100</text>
</g>
<g id="clust4" class="cluster">
<title>cluster100 x 36</title>
<path fill="none" stroke="black" d="M616.72,-232.91C616.72,-232.91 692.72,-232.91 692.72,-232.91 698.72,-232.91 704.72,-238.91 704.72,-244.91 704.72,-244.91 704.72,-334.86 704.72,-334.86 704.72,-340.86 698.72,-346.86 692.72,-346.86 692.72,-346.86 616.72,-346.86 616.72,-346.86 610.72,-346.86 604.72,-340.86 604.72,-334.86 604.72,-334.86 604.72,-244.91 604.72,-244.91 604.72,-238.91 610.72,-232.91 616.72,-232.91"/>
<text text-anchor="middle" x="671.72" y="-240.71" font-family="Times,serif" font-size="14.00">100 x 36</text>
</g>
<g id="clust5" class="cluster">
<title>cluster2</title>
<path fill="none" stroke="black" d="M122.72,-232.91C122.72,-232.91 198.72,-232.91 198.72,-232.91 204.72,-232.91 210.72,-238.91 210.72,-244.91 210.72,-244.91 210.72,-334.86 210.72,-334.86 210.72,-340.86 204.72,-346.86 198.72,-346.86 198.72,-346.86 122.72,-346.86 122.72,-346.86 116.72,-346.86 110.72,-340.86 110.72,-334.86 110.72,-334.86 110.72,-244.91 110.72,-244.91 110.72,-238.91 116.72,-232.91 122.72,-232.91"/>
<text text-anchor="middle" x="198.72" y="-240.71" font-family="Times,serif" font-size="14.00">2</text>
</g>
<g id="clust6" class="cluster">
<title>cluster34,760</title>
<path fill="none" stroke="black" d="M342.72,-8C342.72,-8 428.72,-8 428.72,-8 434.72,-8 440.72,-14 440.72,-20 440.72,-20 440.72,-209.93 440.72,-209.93 440.72,-215.93 434.72,-221.93 428.72,-221.93 428.72,-221.93 342.72,-221.93 342.72,-221.93 336.72,-221.93 330.72,-215.93 330.72,-209.93 330.72,-209.93 330.72,-20 330.72,-20 330.72,-14 336.72,-8 342.72,-8"/>
<text text-anchor="middle" x="413.22" y="-15.8" font-family="Times,serif" font-size="14.00">34,760</text>
</g>
<!-- μ_η -->
<g id="node1" class="node">
<title>μ_η</title>
<ellipse fill="none" stroke="black" cx="41.72" cy="-423.34" rx="41.94" ry="37.45"/>
<text text-anchor="middle" x="41.72" y="-434.64" font-family="Times,serif" font-size="14.00">μ_η</text>
<text text-anchor="middle" x="41.72" y="-419.64" font-family="Times,serif" font-size="14.00">~</text>
<text text-anchor="middle" x="41.72" y="-404.64" font-family="Times,serif" font-size="14.00">Normal</text>
</g>
<!-- η -->
<g id="node13" class="node">
<title>η</title>
<ellipse fill="none" stroke="black" cx="160.72" cy="-301.38" rx="41.94" ry="37.45"/>
<text text-anchor="middle" x="160.72" y="-312.68" font-family="Times,serif" font-size="14.00">η</text>
<text text-anchor="middle" x="160.72" y="-297.68" font-family="Times,serif" font-size="14.00">~</text>
<text text-anchor="middle" x="160.72" y="-282.68" font-family="Times,serif" font-size="14.00">Normal</text>
</g>
<!-- μ_η&#45;&gt;η -->
<g id="edge7" class="edge">
<title>μ_η&#45;&gt;η</title>
<path fill="none" stroke="black" d="M62.94,-390.7C71.54,-378.88 81.97,-365.71 92.72,-354.86 101,-346.5 110.63,-338.31 120,-330.98"/>
<polygon fill="black" stroke="black" points="122.3,-333.62 128.12,-324.77 118.05,-328.06 122.3,-333.62"/>
</g>
<!-- σ_η -->
<g id="node2" class="node">
<title>σ_η</title>
<ellipse fill="none" stroke="black" cx="160.72" cy="-423.34" rx="59.29" ry="37.45"/>
<text text-anchor="middle" x="160.72" y="-434.64" font-family="Times,serif" font-size="14.00">σ_η</text>
<text text-anchor="middle" x="160.72" y="-419.64" font-family="Times,serif" font-size="14.00">~</text>
<text text-anchor="middle" x="160.72" y="-404.64" font-family="Times,serif" font-size="14.00">HalfNormal</text>
</g>
<!-- σ_η&#45;&gt;η -->
<g id="edge8" class="edge">
<title>σ_η&#45;&gt;η</title>
<path fill="none" stroke="black" d="M160.72,-385.69C160.72,-374.29 160.72,-361.55 160.72,-349.54"/>
<polygon fill="black" stroke="black" points="164.22,-349.21 160.72,-339.21 157.22,-349.21 164.22,-349.21"/>
</g>
<!-- μ_d -->
<g id="node3" class="node">
<title>μ_d</title>
<ellipse fill="none" stroke="black" cx="654.72" cy="-423.34" rx="41.94" ry="37.45"/>
<text text-anchor="middle" x="654.72" y="-434.64" font-family="Times,serif" font-size="14.00">μ_d</text>
<text text-anchor="middle" x="654.72" y="-419.64" font-family="Times,serif" font-size="14.00">~</text>
<text text-anchor="middle" x="654.72" y="-404.64" font-family="Times,serif" font-size="14.00">Normal</text>
</g>
<!-- d -->
<g id="node12" class="node">
<title>d</title>
<ellipse fill="none" stroke="black" cx="654.72" cy="-301.38" rx="41.94" ry="37.45"/>
<text text-anchor="middle" x="654.72" y="-312.68" font-family="Times,serif" font-size="14.00">d</text>
<text text-anchor="middle" x="654.72" y="-297.68" font-family="Times,serif" font-size="14.00">~</text>
<text text-anchor="middle" x="654.72" y="-282.68" font-family="Times,serif" font-size="14.00">Normal</text>
</g>
<!-- μ_d&#45;&gt;d -->
<g id="edge6" class="edge">
<title>μ_d&#45;&gt;d</title>
<path fill="none" stroke="black" d="M654.72,-385.69C654.72,-374.29 654.72,-361.55 654.72,-349.54"/>
<polygon fill="black" stroke="black" points="658.22,-349.21 654.72,-339.21 651.22,-349.21 658.22,-349.21"/>
</g>
<!-- σ_h -->
<g id="node4" class="node">
<title>σ_h</title>
<ellipse fill="none" stroke="black" cx="434.72" cy="-423.34" rx="59.29" ry="37.45"/>
<text text-anchor="middle" x="434.72" y="-434.64" font-family="Times,serif" font-size="14.00">σ_h</text>
<text text-anchor="middle" x="434.72" y="-419.64" font-family="Times,serif" font-size="14.00">~</text>
<text text-anchor="middle" x="434.72" y="-404.64" font-family="Times,serif" font-size="14.00">HalfNormal</text>
</g>
<!-- h -->
<g id="node11" class="node">
<title>h</title>
<ellipse fill="none" stroke="black" cx="434.72" cy="-301.38" rx="41.94" ry="37.45"/>
<text text-anchor="middle" x="434.72" y="-312.68" font-family="Times,serif" font-size="14.00">h</text>
<text text-anchor="middle" x="434.72" y="-297.68" font-family="Times,serif" font-size="14.00">~</text>
<text text-anchor="middle" x="434.72" y="-282.68" font-family="Times,serif" font-size="14.00">Normal</text>
</g>
<!-- σ_h&#45;&gt;h -->
<g id="edge4" class="edge">
<title>σ_h&#45;&gt;h</title>
<path fill="none" stroke="black" d="M434.72,-385.69C434.72,-374.29 434.72,-361.55 434.72,-349.54"/>
<polygon fill="black" stroke="black" points="438.22,-349.21 434.72,-339.21 431.22,-349.21 438.22,-349.21"/>
</g>
<!-- μ_h -->
<g id="node5" class="node">
<title>μ_h</title>
<ellipse fill="none" stroke="black" cx="553.72" cy="-423.34" rx="41.94" ry="37.45"/>
<text text-anchor="middle" x="553.72" y="-434.64" font-family="Times,serif" font-size="14.00">μ_h</text>
<text text-anchor="middle" x="553.72" y="-419.64" font-family="Times,serif" font-size="14.00">~</text>
<text text-anchor="middle" x="553.72" y="-404.64" font-family="Times,serif" font-size="14.00">Normal</text>
</g>
<!-- μ_h&#45;&gt;h -->
<g id="edge3" class="edge">
<title>μ_h&#45;&gt;h</title>
<path fill="none" stroke="black" d="M532.49,-390.7C523.9,-378.88 513.46,-365.71 502.72,-354.86 494.44,-346.5 484.81,-338.31 475.44,-330.98"/>
<polygon fill="black" stroke="black" points="477.39,-328.06 467.32,-324.77 473.14,-333.62 477.39,-328.06"/>
</g>
<!-- σ -->
<g id="node6" class="node">
<title>σ</title>
<ellipse fill="none" stroke="black" cx="509.72" cy="-187.43" rx="59.29" ry="37.45"/>
<text text-anchor="middle" x="509.72" y="-198.73" font-family="Times,serif" font-size="14.00">σ</text>
<text text-anchor="middle" x="509.72" y="-183.73" font-family="Times,serif" font-size="14.00">~</text>
<text text-anchor="middle" x="509.72" y="-168.73" font-family="Times,serif" font-size="14.00">HalfNormal</text>
</g>
<!-- lfc -->
<g id="node15" class="node">
<title>lfc</title>
<ellipse fill="lightgrey" stroke="black" cx="387.72" cy="-76.48" rx="41.94" ry="37.45"/>
<text text-anchor="middle" x="387.72" y="-87.78" font-family="Times,serif" font-size="14.00">lfc</text>
<text text-anchor="middle" x="387.72" y="-72.78" font-family="Times,serif" font-size="14.00">~</text>
<text text-anchor="middle" x="387.72" y="-57.78" font-family="Times,serif" font-size="14.00">Normal</text>
</g>
<!-- σ&#45;&gt;lfc -->
<g id="edge14" class="edge">
<title>σ&#45;&gt;lfc</title>
<path fill="none" stroke="black" d="M476.06,-156.37C460.18,-142.19 441.18,-125.22 424.88,-110.66"/>
<polygon fill="black" stroke="black" points="426.91,-107.78 417.12,-103.73 422.25,-113 426.91,-107.78"/>
</g>
<!-- σ_d -->
<g id="node7" class="node">
<title>σ_d</title>
<ellipse fill="none" stroke="black" cx="773.72" cy="-423.34" rx="59.29" ry="37.45"/>
<text text-anchor="middle" x="773.72" y="-434.64" font-family="Times,serif" font-size="14.00">σ_d</text>
<text text-anchor="middle" x="773.72" y="-419.64" font-family="Times,serif" font-size="14.00">~</text>
<text text-anchor="middle" x="773.72" y="-404.64" font-family="Times,serif" font-size="14.00">HalfNormal</text>
</g>
<!-- σ_d&#45;&gt;d -->
<g id="edge5" class="edge">
<title>σ_d&#45;&gt;d</title>
<path fill="none" stroke="black" d="M742.76,-391.13C726.52,-374.76 706.56,-354.64 689.75,-337.69"/>
<polygon fill="black" stroke="black" points="691.8,-334.79 682.27,-330.16 686.83,-339.72 691.8,-334.79"/>
</g>
<!-- σ_a -->
<g id="node8" class="node">
<title>σ_a</title>
<ellipse fill="none" stroke="black" cx="297.72" cy="-534.29" rx="59.29" ry="37.45"/>
<text text-anchor="middle" x="297.72" y="-545.59" font-family="Times,serif" font-size="14.00">σ_a</text>
<text text-anchor="middle" x="297.72" y="-530.59" font-family="Times,serif" font-size="14.00">~</text>
<text text-anchor="middle" x="297.72" y="-515.59" font-family="Times,serif" font-size="14.00">HalfNormal</text>
</g>
<!-- a -->
<g id="node9" class="node">
<title>a</title>
<ellipse fill="none" stroke="black" cx="297.72" cy="-423.34" rx="59.29" ry="37.45"/>
<text text-anchor="middle" x="297.72" y="-434.64" font-family="Times,serif" font-size="14.00">a</text>
<text text-anchor="middle" x="297.72" y="-419.64" font-family="Times,serif" font-size="14.00">~</text>
<text text-anchor="middle" x="297.72" y="-404.64" font-family="Times,serif" font-size="14.00">HalfNormal</text>
</g>
<!-- σ_a&#45;&gt;a -->
<g id="edge1" class="edge">
<title>σ_a&#45;&gt;a</title>
<path fill="none" stroke="black" d="M297.72,-496.71C297.72,-488.53 297.72,-479.75 297.72,-471.23"/>
<polygon fill="black" stroke="black" points="301.22,-471.01 297.72,-461.01 294.22,-471.01 301.22,-471.01"/>
</g>
<!-- q -->
<g id="node10" class="node">
<title>q</title>
<ellipse fill="none" stroke="black" cx="317.72" cy="-301.38" rx="29.9" ry="37.45"/>
<text text-anchor="middle" x="317.72" y="-312.68" font-family="Times,serif" font-size="14.00">q</text>
<text text-anchor="middle" x="317.72" y="-297.68" font-family="Times,serif" font-size="14.00">~</text>
<text text-anchor="middle" x="317.72" y="-282.68" font-family="Times,serif" font-size="14.00">Beta</text>
</g>
<!-- a&#45;&gt;q -->
<g id="edge2" class="edge">
<title>a&#45;&gt;q</title>
<path fill="none" stroke="black" d="M303.77,-386.02C305.75,-374.17 307.97,-360.85 310.05,-348.38"/>
<polygon fill="black" stroke="black" points="313.56,-348.6 311.75,-338.16 306.66,-347.45 313.56,-348.6"/>
</g>
<!-- μ -->
<g id="node14" class="node">
<title>μ</title>
<polygon fill="none" stroke="black" points="432.22,-213.93 339.22,-213.93 339.22,-160.93 432.22,-160.93 432.22,-213.93"/>
<text text-anchor="middle" x="385.72" y="-198.73" font-family="Times,serif" font-size="14.00">μ</text>
<text text-anchor="middle" x="385.72" y="-183.73" font-family="Times,serif" font-size="14.00">~</text>
<text text-anchor="middle" x="385.72" y="-168.73" font-family="Times,serif" font-size="14.00">Deterministic</text>
</g>
<!-- q&#45;&gt;μ -->
<g id="edge12" class="edge">
<title>q&#45;&gt;μ</title>
<path fill="none" stroke="black" d="M335.41,-271.26C344.42,-256.42 355.44,-238.28 364.86,-222.77"/>
<polygon fill="black" stroke="black" points="368,-224.34 370.2,-213.98 362.02,-220.71 368,-224.34"/>
</g>
<!-- h&#45;&gt;μ -->
<g id="edge11" class="edge">
<title>h&#45;&gt;μ</title>
<path fill="none" stroke="black" d="M419.75,-266.19C413.86,-252.73 407.1,-237.29 401.17,-223.73"/>
<polygon fill="black" stroke="black" points="404.23,-222 397.02,-214.25 397.82,-224.81 404.23,-222"/>
</g>
<!-- d&#45;&gt;μ -->
<g id="edge9" class="edge">
<title>d&#45;&gt;μ</title>
<path fill="none" stroke="black" d="M618.28,-282.88C585.18,-267.64 534.65,-245.98 488.72,-232.91 468.34,-227.11 461.45,-232.63 441.72,-224.91 437.53,-223.27 433.33,-221.29 429.22,-219.12"/>
<polygon fill="black" stroke="black" points="430.8,-215.99 420.38,-214.09 427.34,-222.08 430.8,-215.99"/>
</g>
<!-- η&#45;&gt;μ -->
<g id="edge10" class="edge">
<title>η&#45;&gt;μ</title>
<path fill="none" stroke="black" d="M194.22,-278.97C216.78,-264.99 247.47,-246.81 275.72,-232.91 292.87,-224.46 312.05,-216.3 329.52,-209.31"/>
<polygon fill="black" stroke="black" points="331.01,-212.49 339.03,-205.56 328.44,-205.98 331.01,-212.49"/>
</g>
<!-- μ&#45;&gt;lfc -->
<g id="edge13" class="edge">
<title>μ&#45;&gt;lfc</title>
<path fill="none" stroke="black" d="M386.19,-160.89C386.39,-149.98 386.63,-136.89 386.86,-124.35"/>
<polygon fill="black" stroke="black" points="390.36,-124.06 387.05,-114 383.37,-123.94 390.36,-124.06"/>
</g>
</g>
</svg>
