<?xml version="1.0" encoding="UTF-8" standalone="no"?>
<!DOCTYPE svg PUBLIC "-//W3C//DTD SVG 1.1//EN"
 "http://www.w3.org/Graphics/SVG/1.1/DTD/svg11.dtd">
<!-- Generated by graphviz version 2.47.0 (20210316.1410)
 -->
<!-- Pages: 1 -->
<svg width="1294pt" height="580pt"
 viewBox="0.00 0.00 1293.59 579.77" xmlns="http://www.w3.org/2000/svg" xmlns:xlink="http://www.w3.org/1999/xlink">
<g id="graph0" class="graph" transform="scale(1 1) rotate(0) translate(4 575.77)">
<polygon fill="white" stroke="transparent" points="-4,4 -4,-575.77 1289.59,-575.77 1289.59,4 -4,4"/>
<g id="clust1" class="cluster">
<title>cluster997</title>
<path fill="none" stroke="black" d="M72.3,-354.86C72.3,-354.86 318.3,-354.86 318.3,-354.86 324.3,-354.86 330.3,-360.86 330.3,-366.86 330.3,-366.86 330.3,-456.81 330.3,-456.81 330.3,-462.81 324.3,-468.81 318.3,-468.81 318.3,-468.81 72.3,-468.81 72.3,-468.81 66.3,-468.81 60.3,-462.81 60.3,-456.81 60.3,-456.81 60.3,-366.86 60.3,-366.86 60.3,-360.86 66.3,-354.86 72.3,-354.86"/>
<text text-anchor="middle" x="308.3" y="-362.66" font-family="Times-Roman" font-size="14.00">997</text>
</g>
<g id="clust2" class="cluster">
<title>cluster3,957</title>
<path fill="none" stroke="black" d="M228.3,-232.91C228.3,-232.91 318.3,-232.91 318.3,-232.91 324.3,-232.91 330.3,-238.91 330.3,-244.91 330.3,-244.91 330.3,-334.86 330.3,-334.86 330.3,-340.86 324.3,-346.86 318.3,-346.86 318.3,-346.86 228.3,-346.86 228.3,-346.86 222.3,-346.86 216.3,-340.86 216.3,-334.86 216.3,-334.86 216.3,-244.91 216.3,-244.91 216.3,-238.91 222.3,-232.91 228.3,-232.91"/>
<text text-anchor="middle" x="301.8" y="-240.71" font-family="Times-Roman" font-size="14.00">3,957</text>
</g>
<g id="clust3" class="cluster">
<title>cluster997 x 36</title>
<path fill="none" stroke="black" d="M490.3,-354.86C490.3,-354.86 736.3,-354.86 736.3,-354.86 742.3,-354.86 748.3,-360.86 748.3,-366.86 748.3,-366.86 748.3,-456.81 748.3,-456.81 748.3,-462.81 742.3,-468.81 736.3,-468.81 736.3,-468.81 490.3,-468.81 490.3,-468.81 484.3,-468.81 478.3,-462.81 478.3,-456.81 478.3,-456.81 478.3,-366.86 478.3,-366.86 478.3,-360.86 484.3,-354.86 490.3,-354.86"/>
<text text-anchor="middle" x="708.8" y="-362.66" font-family="Times-Roman" font-size="14.00">997 x 36</text>
</g>
<g id="clust4" class="cluster">
<title>cluster3,957 x 36</title>
<path fill="none" stroke="black" d="M626.3,-232.91C626.3,-232.91 716.3,-232.91 716.3,-232.91 722.3,-232.91 728.3,-238.91 728.3,-244.91 728.3,-244.91 728.3,-334.86 728.3,-334.86 728.3,-340.86 722.3,-346.86 716.3,-346.86 716.3,-346.86 626.3,-346.86 626.3,-346.86 620.3,-346.86 614.3,-340.86 614.3,-334.86 614.3,-334.86 614.3,-244.91 614.3,-244.91 614.3,-238.91 620.3,-232.91 626.3,-232.91"/>
<text text-anchor="middle" x="682.3" y="-240.71" font-family="Times-Roman" font-size="14.00">3,957 x 36</text>
</g>
<g id="clust5" class="cluster">
<title>cluster36</title>
<path fill="none" stroke="black" d="M783.3,-232.91C783.3,-232.91 873.3,-232.91 873.3,-232.91 879.3,-232.91 885.3,-238.91 885.3,-244.91 885.3,-244.91 885.3,-334.86 885.3,-334.86 885.3,-340.86 879.3,-346.86 873.3,-346.86 873.3,-346.86 783.3,-346.86 783.3,-346.86 777.3,-346.86 771.3,-340.86 771.3,-334.86 771.3,-334.86 771.3,-244.91 771.3,-244.91 771.3,-238.91 777.3,-232.91 783.3,-232.91"/>
<text text-anchor="middle" x="867.8" y="-240.71" font-family="Times-Roman" font-size="14.00">36</text>
</g>
<g id="clust6" class="cluster">
<title>cluster2</title>
<path fill="none" stroke="black" d="M1035.3,-232.91C1035.3,-232.91 1125.3,-232.91 1125.3,-232.91 1131.3,-232.91 1137.3,-238.91 1137.3,-244.91 1137.3,-244.91 1137.3,-334.86 1137.3,-334.86 1137.3,-340.86 1131.3,-346.86 1125.3,-346.86 1125.3,-346.86 1035.3,-346.86 1035.3,-346.86 1029.3,-346.86 1023.3,-340.86 1023.3,-334.86 1023.3,-334.86 1023.3,-244.91 1023.3,-244.91 1023.3,-238.91 1029.3,-232.91 1035.3,-232.91"/>
<text text-anchor="middle" x="1124.3" y="-240.71" font-family="Times-Roman" font-size="14.00">2</text>
</g>
<g id="clust7" class="cluster">
<title>cluster349,184</title>
<path fill="none" stroke="black" d="M697.3,-8C697.3,-8 801.3,-8 801.3,-8 807.3,-8 813.3,-14 813.3,-20 813.3,-20 813.3,-209.93 813.3,-209.93 813.3,-215.93 807.3,-221.93 801.3,-221.93 801.3,-221.93 697.3,-221.93 697.3,-221.93 691.3,-221.93 685.3,-215.93 685.3,-209.93 685.3,-209.93 685.3,-20 685.3,-20 685.3,-14 691.3,-8 697.3,-8"/>
<text text-anchor="middle" x="775.8" y="-15.8" font-family="Times-Roman" font-size="14.00">349,184</text>
</g>
<!-- μ_μ_h -->
<g id="node1" class="node">
<title>μ_μ_h</title>
<ellipse fill="none" stroke="black" cx="205.3" cy="-534.29" rx="48.58" ry="37.45"/>
<text text-anchor="middle" x="205.3" y="-545.59" font-family="Times-Roman" font-size="14.00">μ_μ_h</text>
<text text-anchor="middle" x="205.3" y="-530.59" font-family="Times-Roman" font-size="14.00">~</text>
<text text-anchor="middle" x="205.3" y="-515.59" font-family="Times-Roman" font-size="14.00">Normal</text>
</g>
<!-- μ_h -->
<g id="node12" class="node">
<title>μ_h</title>
<ellipse fill="none" stroke="black" cx="273.3" cy="-423.34" rx="48.58" ry="37.45"/>
<text text-anchor="middle" x="273.3" y="-434.64" font-family="Times-Roman" font-size="14.00">μ_h</text>
<text text-anchor="middle" x="273.3" y="-419.64" font-family="Times-Roman" font-size="14.00">~</text>
<text text-anchor="middle" x="273.3" y="-404.64" font-family="Times-Roman" font-size="14.00">Normal</text>
</g>
<!-- μ_μ_h&#45;&gt;μ_h -->
<g id="edge1" class="edge">
<title>μ_μ_h&#45;&gt;μ_h</title>
<path fill="none" stroke="black" d="M225.88,-500.3C232.55,-489.63 240.03,-477.64 247.04,-466.4"/>
<polygon fill="black" stroke="black" points="250.22,-467.92 252.54,-457.59 244.28,-464.22 250.22,-467.92"/>
</g>
<!-- μ_η -->
<g id="node2" class="node">
<title>μ_η</title>
<ellipse fill="none" stroke="black" cx="1080.3" cy="-423.34" rx="48.58" ry="37.45"/>
<text text-anchor="middle" x="1080.3" y="-434.64" font-family="Times-Roman" font-size="14.00">μ_η</text>
<text text-anchor="middle" x="1080.3" y="-419.64" font-family="Times-Roman" font-size="14.00">~</text>
<text text-anchor="middle" x="1080.3" y="-404.64" font-family="Times-Roman" font-size="14.00">Normal</text>
</g>
<!-- η -->
<g id="node19" class="node">
<title>η</title>
<ellipse fill="none" stroke="black" cx="1080.3" cy="-301.38" rx="48.58" ry="37.45"/>
<text text-anchor="middle" x="1080.3" y="-312.68" font-family="Times-Roman" font-size="14.00">η</text>
<text text-anchor="middle" x="1080.3" y="-297.68" font-family="Times-Roman" font-size="14.00">~</text>
<text text-anchor="middle" x="1080.3" y="-282.68" font-family="Times-Roman" font-size="14.00">Normal</text>
</g>
<!-- μ_η&#45;&gt;η -->
<g id="edge13" class="edge">
<title>μ_η&#45;&gt;η</title>
<path fill="none" stroke="black" d="M1080.3,-385.69C1080.3,-374.29 1080.3,-361.55 1080.3,-349.54"/>
<polygon fill="black" stroke="black" points="1083.8,-349.21 1080.3,-339.21 1076.8,-349.21 1083.8,-349.21"/>
</g>
<!-- σ_μ_d -->
<g id="node3" class="node">
<title>σ_μ_d</title>
<ellipse fill="none" stroke="black" cx="477.3" cy="-534.29" rx="48.58" ry="37.45"/>
<text text-anchor="middle" x="477.3" y="-545.59" font-family="Times-Roman" font-size="14.00">σ_μ_d</text>
<text text-anchor="middle" x="477.3" y="-530.59" font-family="Times-Roman" font-size="14.00">~</text>
<text text-anchor="middle" x="477.3" y="-515.59" font-family="Times-Roman" font-size="14.00">Normal</text>
</g>
<!-- μ_d -->
<g id="node16" class="node">
<title>μ_d</title>
<ellipse fill="none" stroke="black" cx="535.3" cy="-423.34" rx="48.58" ry="37.45"/>
<text text-anchor="middle" x="535.3" y="-434.64" font-family="Times-Roman" font-size="14.00">μ_d</text>
<text text-anchor="middle" x="535.3" y="-419.64" font-family="Times-Roman" font-size="14.00">~</text>
<text text-anchor="middle" x="535.3" y="-404.64" font-family="Times-Roman" font-size="14.00">Normal</text>
</g>
<!-- σ_μ_d&#45;&gt;μ_d -->
<g id="edge6" class="edge">
<title>σ_μ_d&#45;&gt;μ_d</title>
<path fill="none" stroke="black" d="M495.33,-499.41C500.79,-489.17 506.85,-477.78 512.57,-467.03"/>
<polygon fill="black" stroke="black" points="515.66,-468.66 517.27,-458.19 509.49,-465.37 515.66,-468.66"/>
</g>
<!-- σ_σ_d -->
<g id="node4" class="node">
<title>σ_σ_d</title>
<ellipse fill="none" stroke="black" cx="729.3" cy="-534.29" rx="69.09" ry="37.45"/>
<text text-anchor="middle" x="729.3" y="-545.59" font-family="Times-Roman" font-size="14.00">σ_σ_d</text>
<text text-anchor="middle" x="729.3" y="-530.59" font-family="Times-Roman" font-size="14.00">~</text>
<text text-anchor="middle" x="729.3" y="-515.59" font-family="Times-Roman" font-size="14.00">HalfNormal</text>
</g>
<!-- σ_d -->
<g id="node15" class="node">
<title>σ_d</title>
<ellipse fill="none" stroke="black" cx="671.3" cy="-423.34" rx="69.09" ry="37.45"/>
<text text-anchor="middle" x="671.3" y="-434.64" font-family="Times-Roman" font-size="14.00">σ_d</text>
<text text-anchor="middle" x="671.3" y="-419.64" font-family="Times-Roman" font-size="14.00">~</text>
<text text-anchor="middle" x="671.3" y="-404.64" font-family="Times-Roman" font-size="14.00">HalfNormal</text>
</g>
<!-- σ_σ_d&#45;&gt;σ_d -->
<g id="edge8" class="edge">
<title>σ_σ_d&#45;&gt;σ_d</title>
<path fill="none" stroke="black" d="M710.47,-497.92C705.45,-488.5 699.97,-478.2 694.74,-468.38"/>
<polygon fill="black" stroke="black" points="697.82,-466.72 690.03,-459.53 691.64,-470.01 697.82,-466.72"/>
</g>
<!-- μ_μ_d -->
<g id="node5" class="node">
<title>μ_μ_d</title>
<ellipse fill="none" stroke="black" cx="593.3" cy="-534.29" rx="48.58" ry="37.45"/>
<text text-anchor="middle" x="593.3" y="-545.59" font-family="Times-Roman" font-size="14.00">μ_μ_d</text>
<text text-anchor="middle" x="593.3" y="-530.59" font-family="Times-Roman" font-size="14.00">~</text>
<text text-anchor="middle" x="593.3" y="-515.59" font-family="Times-Roman" font-size="14.00">Normal</text>
</g>
<!-- μ_μ_d&#45;&gt;μ_d -->
<g id="edge7" class="edge">
<title>μ_μ_d&#45;&gt;μ_d</title>
<path fill="none" stroke="black" d="M575.26,-499.41C569.81,-489.17 563.74,-477.78 558.02,-467.03"/>
<polygon fill="black" stroke="black" points="561.11,-465.37 553.32,-458.19 554.93,-468.66 561.11,-465.37"/>
</g>
<!-- σ -->
<g id="node6" class="node">
<title>σ</title>
<ellipse fill="none" stroke="black" cx="892.3" cy="-187.43" rx="69.09" ry="37.45"/>
<text text-anchor="middle" x="892.3" y="-198.73" font-family="Times-Roman" font-size="14.00">σ</text>
<text text-anchor="middle" x="892.3" y="-183.73" font-family="Times-Roman" font-size="14.00">~</text>
<text text-anchor="middle" x="892.3" y="-168.73" font-family="Times-Roman" font-size="14.00">HalfNormal</text>
</g>
<!-- lfc -->
<g id="node20" class="node">
<title>lfc</title>
<ellipse fill="lightgrey" stroke="black" cx="752.3" cy="-76.48" rx="48.58" ry="37.45"/>
<text text-anchor="middle" x="752.3" y="-87.78" font-family="Times-Roman" font-size="14.00">lfc</text>
<text text-anchor="middle" x="752.3" y="-72.78" font-family="Times-Roman" font-size="14.00">~</text>
<text text-anchor="middle" x="752.3" y="-57.78" font-family="Times-Roman" font-size="14.00">Normal</text>
</g>
<!-- σ&#45;&gt;lfc -->
<g id="edge20" class="edge">
<title>σ&#45;&gt;lfc</title>
<path fill="none" stroke="black" d="M853.3,-156.08C834.97,-141.82 813.1,-124.79 794.4,-110.24"/>
<polygon fill="black" stroke="black" points="796.37,-107.34 786.33,-103.96 792.07,-112.86 796.37,-107.34"/>
</g>
<!-- σ_β -->
<g id="node7" class="node">
<title>σ_β</title>
<ellipse fill="none" stroke="black" cx="828.3" cy="-423.34" rx="69.09" ry="37.45"/>
<text text-anchor="middle" x="828.3" y="-434.64" font-family="Times-Roman" font-size="14.00">σ_β</text>
<text text-anchor="middle" x="828.3" y="-419.64" font-family="Times-Roman" font-size="14.00">~</text>
<text text-anchor="middle" x="828.3" y="-404.64" font-family="Times-Roman" font-size="14.00">HalfNormal</text>
</g>
<!-- β -->
<g id="node18" class="node">
<title>β</title>
<ellipse fill="none" stroke="black" cx="828.3" cy="-301.38" rx="48.58" ry="37.45"/>
<text text-anchor="middle" x="828.3" y="-312.68" font-family="Times-Roman" font-size="14.00">β</text>
<text text-anchor="middle" x="828.3" y="-297.68" font-family="Times-Roman" font-size="14.00">~</text>
<text text-anchor="middle" x="828.3" y="-282.68" font-family="Times-Roman" font-size="14.00">Normal</text>
</g>
<!-- σ_β&#45;&gt;β -->
<g id="edge11" class="edge">
<title>σ_β&#45;&gt;β</title>
<path fill="none" stroke="black" d="M828.3,-385.69C828.3,-374.29 828.3,-361.55 828.3,-349.54"/>
<polygon fill="black" stroke="black" points="831.8,-349.21 828.3,-339.21 824.8,-349.21 831.8,-349.21"/>
</g>
<!-- σ_σ_h -->
<g id="node8" class="node">
<title>σ_σ_h</title>
<ellipse fill="none" stroke="black" cx="69.3" cy="-534.29" rx="69.09" ry="37.45"/>
<text text-anchor="middle" x="69.3" y="-545.59" font-family="Times-Roman" font-size="14.00">σ_σ_h</text>
<text text-anchor="middle" x="69.3" y="-530.59" font-family="Times-Roman" font-size="14.00">~</text>
<text text-anchor="middle" x="69.3" y="-515.59" font-family="Times-Roman" font-size="14.00">HalfNormal</text>
</g>
<!-- σ_h -->
<g id="node13" class="node">
<title>σ_h</title>
<ellipse fill="none" stroke="black" cx="137.3" cy="-423.34" rx="69.09" ry="37.45"/>
<text text-anchor="middle" x="137.3" y="-434.64" font-family="Times-Roman" font-size="14.00">σ_h</text>
<text text-anchor="middle" x="137.3" y="-419.64" font-family="Times-Roman" font-size="14.00">~</text>
<text text-anchor="middle" x="137.3" y="-404.64" font-family="Times-Roman" font-size="14.00">HalfNormal</text>
</g>
<!-- σ_σ_h&#45;&gt;σ_h -->
<g id="edge3" class="edge">
<title>σ_σ_h&#45;&gt;σ_h</title>
<path fill="none" stroke="black" d="M91,-498.52C97.07,-488.79 103.75,-478.09 110.1,-467.92"/>
<polygon fill="black" stroke="black" points="113.24,-469.49 115.57,-459.15 107.3,-465.78 113.24,-469.49"/>
</g>
<!-- σ_η -->
<g id="node9" class="node">
<title>σ_η</title>
<ellipse fill="none" stroke="black" cx="1216.3" cy="-423.34" rx="69.09" ry="37.45"/>
<text text-anchor="middle" x="1216.3" y="-434.64" font-family="Times-Roman" font-size="14.00">σ_η</text>
<text text-anchor="middle" x="1216.3" y="-419.64" font-family="Times-Roman" font-size="14.00">~</text>
<text text-anchor="middle" x="1216.3" y="-404.64" font-family="Times-Roman" font-size="14.00">HalfNormal</text>
</g>
<!-- σ_η&#45;&gt;η -->
<g id="edge14" class="edge">
<title>σ_η&#45;&gt;η</title>
<path fill="none" stroke="black" d="M1180.56,-390.82C1161.89,-374.35 1138.98,-354.15 1119.78,-337.21"/>
<polygon fill="black" stroke="black" points="1121.9,-334.41 1112.08,-330.42 1117.26,-339.66 1121.9,-334.41"/>
</g>
<!-- μ_β -->
<g id="node10" class="node">
<title>μ_β</title>
<ellipse fill="none" stroke="black" cx="964.3" cy="-423.34" rx="48.58" ry="37.45"/>
<text text-anchor="middle" x="964.3" y="-434.64" font-family="Times-Roman" font-size="14.00">μ_β</text>
<text text-anchor="middle" x="964.3" y="-419.64" font-family="Times-Roman" font-size="14.00">~</text>
<text text-anchor="middle" x="964.3" y="-404.64" font-family="Times-Roman" font-size="14.00">Normal</text>
</g>
<!-- μ_β&#45;&gt;β -->
<g id="edge12" class="edge">
<title>μ_β&#45;&gt;β</title>
<path fill="none" stroke="black" d="M939.94,-390.51C930.13,-378.67 918.31,-365.53 906.3,-354.86 896.67,-346.31 885.57,-338.04 874.81,-330.7"/>
<polygon fill="black" stroke="black" points="876.56,-327.65 866.3,-325.02 872.68,-333.48 876.56,-327.65"/>
</g>
<!-- σ_μ_h -->
<g id="node11" class="node">
<title>σ_μ_h</title>
<ellipse fill="none" stroke="black" cx="341.3" cy="-534.29" rx="69.09" ry="37.45"/>
<text text-anchor="middle" x="341.3" y="-545.59" font-family="Times-Roman" font-size="14.00">σ_μ_h</text>
<text text-anchor="middle" x="341.3" y="-530.59" font-family="Times-Roman" font-size="14.00">~</text>
<text text-anchor="middle" x="341.3" y="-515.59" font-family="Times-Roman" font-size="14.00">HalfNormal</text>
</g>
<!-- σ_μ_h&#45;&gt;μ_h -->
<g id="edge2" class="edge">
<title>σ_μ_h&#45;&gt;μ_h</title>
<path fill="none" stroke="black" d="M319.59,-498.52C313.22,-488.3 306.17,-477.01 299.54,-466.39"/>
<polygon fill="black" stroke="black" points="302.36,-464.3 294.1,-457.67 296.42,-468 302.36,-464.3"/>
</g>
<!-- h -->
<g id="node14" class="node">
<title>h</title>
<ellipse fill="none" stroke="black" cx="273.3" cy="-301.38" rx="48.58" ry="37.45"/>
<text text-anchor="middle" x="273.3" y="-312.68" font-family="Times-Roman" font-size="14.00">h</text>
<text text-anchor="middle" x="273.3" y="-297.68" font-family="Times-Roman" font-size="14.00">~</text>
<text text-anchor="middle" x="273.3" y="-282.68" font-family="Times-Roman" font-size="14.00">Normal</text>
</g>
<!-- μ_h&#45;&gt;h -->
<g id="edge4" class="edge">
<title>μ_h&#45;&gt;h</title>
<path fill="none" stroke="black" d="M273.3,-385.69C273.3,-374.29 273.3,-361.55 273.3,-349.54"/>
<polygon fill="black" stroke="black" points="276.8,-349.21 273.3,-339.21 269.8,-349.21 276.8,-349.21"/>
</g>
<!-- σ_h&#45;&gt;h -->
<g id="edge5" class="edge">
<title>σ_h&#45;&gt;h</title>
<path fill="none" stroke="black" d="M173.03,-390.82C191.7,-374.35 214.61,-354.15 233.81,-337.21"/>
<polygon fill="black" stroke="black" points="236.33,-339.66 241.51,-330.42 231.7,-334.41 236.33,-339.66"/>
</g>
<!-- μ -->
<g id="node21" class="node">
<title>μ</title>
<polygon fill="none" stroke="black" points="805.3,-213.93 693.3,-213.93 693.3,-160.93 805.3,-160.93 805.3,-213.93"/>
<text text-anchor="middle" x="749.3" y="-198.73" font-family="Times-Roman" font-size="14.00">μ</text>
<text text-anchor="middle" x="749.3" y="-183.73" font-family="Times-Roman" font-size="14.00">~</text>
<text text-anchor="middle" x="749.3" y="-168.73" font-family="Times-Roman" font-size="14.00">Deterministic</text>
</g>
<!-- h&#45;&gt;μ -->
<g id="edge18" class="edge">
<title>h&#45;&gt;μ</title>
<path fill="none" stroke="black" d="M319.8,-289.44C404.84,-269.44 585.63,-226.92 683.34,-203.94"/>
<polygon fill="black" stroke="black" points="684.17,-207.34 693.1,-201.65 682.57,-200.53 684.17,-207.34"/>
</g>
<!-- d -->
<g id="node17" class="node">
<title>d</title>
<ellipse fill="none" stroke="black" cx="671.3" cy="-301.38" rx="48.58" ry="37.45"/>
<text text-anchor="middle" x="671.3" y="-312.68" font-family="Times-Roman" font-size="14.00">d</text>
<text text-anchor="middle" x="671.3" y="-297.68" font-family="Times-Roman" font-size="14.00">~</text>
<text text-anchor="middle" x="671.3" y="-282.68" font-family="Times-Roman" font-size="14.00">Normal</text>
</g>
<!-- σ_d&#45;&gt;d -->
<g id="edge9" class="edge">
<title>σ_d&#45;&gt;d</title>
<path fill="none" stroke="black" d="M671.3,-385.69C671.3,-374.29 671.3,-361.55 671.3,-349.54"/>
<polygon fill="black" stroke="black" points="674.8,-349.21 671.3,-339.21 667.8,-349.21 674.8,-349.21"/>
</g>
<!-- μ_d&#45;&gt;d -->
<g id="edge10" class="edge">
<title>μ_d&#45;&gt;d</title>
<path fill="none" stroke="black" d="M559.66,-390.51C569.46,-378.67 581.29,-365.53 593.3,-354.86 602.92,-346.31 614.03,-338.04 624.78,-330.7"/>
<polygon fill="black" stroke="black" points="626.92,-333.48 633.29,-325.02 623.03,-327.65 626.92,-333.48"/>
</g>
<!-- d&#45;&gt;μ -->
<g id="edge17" class="edge">
<title>d&#45;&gt;μ</title>
<path fill="none" stroke="black" d="M693.86,-268C703.86,-253.64 715.63,-236.75 725.75,-222.23"/>
<polygon fill="black" stroke="black" points="728.64,-224.2 731.49,-213.99 722.9,-220.19 728.64,-224.2"/>
</g>
<!-- β&#45;&gt;μ -->
<g id="edge16" class="edge">
<title>β&#45;&gt;μ</title>
<path fill="none" stroke="black" d="M805.45,-268C795.31,-253.64 783.39,-236.75 773.15,-222.23"/>
<polygon fill="black" stroke="black" points="775.96,-220.14 767.33,-213.99 770.24,-224.18 775.96,-220.14"/>
</g>
<!-- η&#45;&gt;μ -->
<g id="edge15" class="edge">
<title>η&#45;&gt;μ</title>
<path fill="none" stroke="black" d="M1038.28,-282.33C1000.13,-266.72 941.94,-244.84 889.3,-232.91 856.6,-225.5 846.23,-235.1 814.3,-224.91 808.98,-223.21 803.61,-221.05 798.36,-218.63"/>
<polygon fill="black" stroke="black" points="799.58,-215.33 789.06,-214.04 796.48,-221.61 799.58,-215.33"/>
</g>
<!-- μ&#45;&gt;lfc -->
<g id="edge19" class="edge">
<title>μ&#45;&gt;lfc</title>
<path fill="none" stroke="black" d="M750,-160.89C750.3,-149.98 750.66,-136.89 751.01,-124.35"/>
<polygon fill="black" stroke="black" points="754.51,-124.09 751.29,-114 747.52,-123.9 754.51,-124.09"/>
</g>
</g>
</svg>
