<?xml version="1.0" encoding="UTF-8" standalone="no"?>
<!DOCTYPE svg PUBLIC "-//W3C//DTD SVG 1.1//EN"
 "http://www.w3.org/Graphics/SVG/1.1/DTD/svg11.dtd">
<!-- Generated by graphviz version 2.47.0 (20210327.0129)
 -->
<!-- Pages: 1 -->
<svg width="1184pt" height="474pt"
 viewBox="0.00 0.00 1183.58 473.84" xmlns="http://www.w3.org/2000/svg" xmlns:xlink="http://www.w3.org/1999/xlink">
<g id="graph0" class="graph" transform="scale(1 1) rotate(0) translate(4 469.84)">
<polygon fill="white" stroke="transparent" points="-4,4 -4,-469.84 1179.58,-469.84 1179.58,4 -4,4"/>
<g id="clust1" class="cluster">
<title>cluster64</title>
<path fill="none" stroke="black" d="M399.79,-243.91C399.79,-243.91 503.79,-243.91 503.79,-243.91 509.79,-243.91 515.79,-249.91 515.79,-255.91 515.79,-255.91 515.79,-445.84 515.79,-445.84 515.79,-451.84 509.79,-457.84 503.79,-457.84 503.79,-457.84 399.79,-457.84 399.79,-457.84 393.79,-457.84 387.79,-451.84 387.79,-445.84 387.79,-445.84 387.79,-255.91 387.79,-255.91 387.79,-249.91 393.79,-243.91 399.79,-243.91"/>
<text text-anchor="middle" x="498.29" y="-251.71" font-family="Times-Roman" font-size="14.00">64</text>
</g>
<g id="clust2" class="cluster">
<title>cluster64 x 10</title>
<path fill="none" stroke="black" d="M797.79,-243.91C797.79,-243.91 901.79,-243.91 901.79,-243.91 907.79,-243.91 913.79,-249.91 913.79,-255.91 913.79,-255.91 913.79,-445.84 913.79,-445.84 913.79,-451.84 907.79,-457.84 901.79,-457.84 901.79,-457.84 797.79,-457.84 797.79,-457.84 791.79,-457.84 785.79,-451.84 785.79,-445.84 785.79,-445.84 785.79,-255.91 785.79,-255.91 785.79,-249.91 791.79,-243.91 797.79,-243.91"/>
<text text-anchor="middle" x="878.79" y="-251.71" font-family="Times-Roman" font-size="14.00">64 x 10</text>
</g>
<g id="clust3" class="cluster">
<title>cluster4</title>
<path fill="none" stroke="black" d="M117.79,-243.91C117.79,-243.91 221.79,-243.91 221.79,-243.91 227.79,-243.91 233.79,-249.91 233.79,-255.91 233.79,-255.91 233.79,-445.84 233.79,-445.84 233.79,-451.84 227.79,-457.84 221.79,-457.84 221.79,-457.84 117.79,-457.84 117.79,-457.84 111.79,-457.84 105.79,-451.84 105.79,-445.84 105.79,-445.84 105.79,-255.91 105.79,-255.91 105.79,-249.91 111.79,-243.91 117.79,-243.91"/>
<text text-anchor="middle" x="220.79" y="-251.71" font-family="Times-Roman" font-size="14.00">4</text>
</g>
<g id="clust4" class="cluster">
<title>cluster1,443</title>
<path fill="none" stroke="black" d="M458.79,-8C458.79,-8 562.79,-8 562.79,-8 568.79,-8 574.79,-14 574.79,-20 574.79,-20 574.79,-212.93 574.79,-212.93 574.79,-218.93 568.79,-224.93 562.79,-224.93 562.79,-224.93 458.79,-224.93 458.79,-224.93 452.79,-224.93 446.79,-218.93 446.79,-212.93 446.79,-212.93 446.79,-20 446.79,-20 446.79,-14 452.79,-8 458.79,-8"/>
<text text-anchor="middle" x="546.29" y="-15.8" font-family="Times-Roman" font-size="14.00">1,443</text>
</g>
<g id="clust5" class="cluster">
<title>cluster192</title>
<path fill="none" stroke="black" d="M712.79,-121.95C712.79,-121.95 842.79,-121.95 842.79,-121.95 848.79,-121.95 854.79,-127.95 854.79,-133.95 854.79,-133.95 854.79,-223.91 854.79,-223.91 854.79,-229.91 848.79,-235.91 842.79,-235.91 842.79,-235.91 712.79,-235.91 712.79,-235.91 706.79,-235.91 700.79,-229.91 700.79,-223.91 700.79,-223.91 700.79,-133.95 700.79,-133.95 700.79,-127.95 706.79,-121.95 712.79,-121.95"/>
<text text-anchor="middle" x="832.79" y="-129.75" font-family="Times-Roman" font-size="14.00">192</text>
</g>
<!-- μ_η -->
<g id="node1" class="node">
<title>μ_η</title>
<ellipse fill="none" stroke="black" cx="48.79" cy="-412.36" rx="48.58" ry="37.45"/>
<text text-anchor="middle" x="48.79" y="-423.66" font-family="Times-Roman" font-size="14.00">μ_η</text>
<text text-anchor="middle" x="48.79" y="-408.66" font-family="Times-Roman" font-size="14.00">~</text>
<text text-anchor="middle" x="48.79" y="-393.66" font-family="Times-Roman" font-size="14.00">Normal</text>
</g>
<!-- η -->
<g id="node12" class="node">
<title>η</title>
<polygon fill="none" stroke="black" points="225.79,-327.91 113.79,-327.91 113.79,-274.91 225.79,-274.91 225.79,-327.91"/>
<text text-anchor="middle" x="169.79" y="-312.71" font-family="Times-Roman" font-size="14.00">η</text>
<text text-anchor="middle" x="169.79" y="-297.71" font-family="Times-Roman" font-size="14.00">~</text>
<text text-anchor="middle" x="169.79" y="-282.71" font-family="Times-Roman" font-size="14.00">Deterministic</text>
</g>
<!-- μ_η&#45;&gt;η -->
<g id="edge7" class="edge">
<title>μ_η&#45;&gt;η</title>
<path fill="none" stroke="black" d="M79.95,-383.3C96.35,-368.54 116.53,-350.36 133.62,-334.98"/>
<polygon fill="black" stroke="black" points="136.13,-337.42 141.22,-328.13 131.45,-332.22 136.13,-337.42"/>
</g>
<!-- σ_η -->
<g id="node2" class="node">
<title>σ_η</title>
<ellipse fill="none" stroke="black" cx="310.79" cy="-412.36" rx="69.09" ry="37.45"/>
<text text-anchor="middle" x="310.79" y="-423.66" font-family="Times-Roman" font-size="14.00">σ_η</text>
<text text-anchor="middle" x="310.79" y="-408.66" font-family="Times-Roman" font-size="14.00">~</text>
<text text-anchor="middle" x="310.79" y="-393.66" font-family="Times-Roman" font-size="14.00">HalfNormal</text>
</g>
<!-- σ_η&#45;&gt;η -->
<g id="edge8" class="edge">
<title>σ_η&#45;&gt;η</title>
<path fill="none" stroke="black" d="M271.89,-381.3C252.92,-366.64 230.09,-349 210.84,-334.13"/>
<polygon fill="black" stroke="black" points="212.89,-331.28 202.83,-327.94 208.61,-336.82 212.89,-331.28"/>
</g>
<!-- σ_h -->
<g id="node3" class="node">
<title>σ_h</title>
<ellipse fill="none" stroke="black" cx="592.79" cy="-412.36" rx="69.09" ry="37.45"/>
<text text-anchor="middle" x="592.79" y="-423.66" font-family="Times-Roman" font-size="14.00">σ_h</text>
<text text-anchor="middle" x="592.79" y="-408.66" font-family="Times-Roman" font-size="14.00">~</text>
<text text-anchor="middle" x="592.79" y="-393.66" font-family="Times-Roman" font-size="14.00">HalfNormal</text>
</g>
<!-- h -->
<g id="node9" class="node">
<title>h</title>
<polygon fill="none" stroke="black" points="507.79,-327.91 395.79,-327.91 395.79,-274.91 507.79,-274.91 507.79,-327.91"/>
<text text-anchor="middle" x="451.79" y="-312.71" font-family="Times-Roman" font-size="14.00">h</text>
<text text-anchor="middle" x="451.79" y="-297.71" font-family="Times-Roman" font-size="14.00">~</text>
<text text-anchor="middle" x="451.79" y="-282.71" font-family="Times-Roman" font-size="14.00">Deterministic</text>
</g>
<!-- σ_h&#45;&gt;h -->
<g id="edge2" class="edge">
<title>σ_h&#45;&gt;h</title>
<path fill="none" stroke="black" d="M553.89,-381.3C534.92,-366.64 512.09,-349 492.84,-334.13"/>
<polygon fill="black" stroke="black" points="494.89,-331.28 484.83,-327.94 490.61,-336.82 494.89,-331.28"/>
</g>
<!-- σ_σ -->
<g id="node4" class="node">
<title>σ_σ</title>
<ellipse fill="none" stroke="black" cx="992.79" cy="-301.41" rx="69.09" ry="37.45"/>
<text text-anchor="middle" x="992.79" y="-312.71" font-family="Times-Roman" font-size="14.00">σ_σ</text>
<text text-anchor="middle" x="992.79" y="-297.71" font-family="Times-Roman" font-size="14.00">~</text>
<text text-anchor="middle" x="992.79" y="-282.71" font-family="Times-Roman" font-size="14.00">HalfNormal</text>
</g>
<!-- σ -->
<g id="node16" class="node">
<title>σ</title>
<ellipse fill="none" stroke="black" cx="777.79" cy="-190.43" rx="69.09" ry="37.45"/>
<text text-anchor="middle" x="777.79" y="-201.73" font-family="Times-Roman" font-size="14.00">σ</text>
<text text-anchor="middle" x="777.79" y="-186.73" font-family="Times-Roman" font-size="14.00">~</text>
<text text-anchor="middle" x="777.79" y="-171.73" font-family="Times-Roman" font-size="14.00">HalfNormal</text>
</g>
<!-- σ_σ&#45;&gt;σ -->
<g id="edge13" class="edge">
<title>σ_σ&#45;&gt;σ</title>
<path fill="none" stroke="black" d="M956.07,-269.44C944.32,-260.45 930.94,-251.13 917.79,-243.91 895.79,-231.83 870.44,-221.39 847.4,-213.07"/>
<polygon fill="black" stroke="black" points="848.29,-209.67 837.69,-209.64 845.95,-216.27 848.29,-209.67"/>
</g>
<!-- σ_d -->
<g id="node5" class="node">
<title>σ_d</title>
<ellipse fill="none" stroke="black" cx="990.79" cy="-412.36" rx="69.09" ry="37.45"/>
<text text-anchor="middle" x="990.79" y="-423.66" font-family="Times-Roman" font-size="14.00">σ_d</text>
<text text-anchor="middle" x="990.79" y="-408.66" font-family="Times-Roman" font-size="14.00">~</text>
<text text-anchor="middle" x="990.79" y="-393.66" font-family="Times-Roman" font-size="14.00">HalfNormal</text>
</g>
<!-- d -->
<g id="node10" class="node">
<title>d</title>
<polygon fill="none" stroke="black" points="905.79,-327.91 793.79,-327.91 793.79,-274.91 905.79,-274.91 905.79,-327.91"/>
<text text-anchor="middle" x="849.79" y="-312.71" font-family="Times-Roman" font-size="14.00">d</text>
<text text-anchor="middle" x="849.79" y="-297.71" font-family="Times-Roman" font-size="14.00">~</text>
<text text-anchor="middle" x="849.79" y="-282.71" font-family="Times-Roman" font-size="14.00">Deterministic</text>
</g>
<!-- σ_d&#45;&gt;d -->
<g id="edge6" class="edge">
<title>σ_d&#45;&gt;d</title>
<path fill="none" stroke="black" d="M951.89,-381.3C932.92,-366.64 910.09,-349 890.84,-334.13"/>
<polygon fill="black" stroke="black" points="892.89,-331.28 882.83,-327.94 888.61,-336.82 892.89,-331.28"/>
</g>
<!-- μ_d -->
<g id="node6" class="node">
<title>μ_d</title>
<ellipse fill="none" stroke="black" cx="1126.79" cy="-412.36" rx="48.58" ry="37.45"/>
<text text-anchor="middle" x="1126.79" y="-423.66" font-family="Times-Roman" font-size="14.00">μ_d</text>
<text text-anchor="middle" x="1126.79" y="-408.66" font-family="Times-Roman" font-size="14.00">~</text>
<text text-anchor="middle" x="1126.79" y="-393.66" font-family="Times-Roman" font-size="14.00">Normal</text>
</g>
<!-- μ_d&#45;&gt;d -->
<g id="edge4" class="edge">
<title>μ_d&#45;&gt;d</title>
<path fill="none" stroke="black" d="M1091.28,-386.47C1084.07,-382.15 1076.36,-378.05 1068.79,-374.88 1003.93,-347.8 980.31,-364.33 914.79,-338.88 910.01,-337.03 905.16,-334.87 900.36,-332.56"/>
<polygon fill="black" stroke="black" points="901.76,-329.34 891.25,-327.94 898.59,-335.58 901.76,-329.34"/>
</g>
<!-- μ_h -->
<g id="node7" class="node">
<title>μ_h</title>
<ellipse fill="none" stroke="black" cx="728.79" cy="-412.36" rx="48.58" ry="37.45"/>
<text text-anchor="middle" x="728.79" y="-423.66" font-family="Times-Roman" font-size="14.00">μ_h</text>
<text text-anchor="middle" x="728.79" y="-408.66" font-family="Times-Roman" font-size="14.00">~</text>
<text text-anchor="middle" x="728.79" y="-393.66" font-family="Times-Roman" font-size="14.00">Normal</text>
</g>
<!-- μ_h&#45;&gt;h -->
<g id="edge3" class="edge">
<title>μ_h&#45;&gt;h</title>
<path fill="none" stroke="black" d="M692.73,-386.82C685.63,-382.52 678.11,-378.33 670.79,-374.88 621.28,-351.55 562.22,-332.47 517.92,-319.76"/>
<polygon fill="black" stroke="black" points="518.7,-316.34 508.13,-316.98 516.79,-323.08 518.7,-316.34"/>
</g>
<!-- h_offset -->
<g id="node8" class="node">
<title>h_offset</title>
<ellipse fill="none" stroke="black" cx="451.79" cy="-412.36" rx="52.15" ry="37.45"/>
<text text-anchor="middle" x="451.79" y="-423.66" font-family="Times-Roman" font-size="14.00">h_offset</text>
<text text-anchor="middle" x="451.79" y="-408.66" font-family="Times-Roman" font-size="14.00">~</text>
<text text-anchor="middle" x="451.79" y="-393.66" font-family="Times-Roman" font-size="14.00">Normal</text>
</g>
<!-- h_offset&#45;&gt;h -->
<g id="edge1" class="edge">
<title>h_offset&#45;&gt;h</title>
<path fill="none" stroke="black" d="M451.79,-374.78C451.79,-363.04 451.79,-350.05 451.79,-338.36"/>
<polygon fill="black" stroke="black" points="455.29,-338.06 451.79,-328.06 448.29,-338.06 455.29,-338.06"/>
</g>
<!-- μ -->
<g id="node14" class="node">
<title>μ</title>
<polygon fill="none" stroke="black" points="566.79,-216.93 454.79,-216.93 454.79,-163.93 566.79,-163.93 566.79,-216.93"/>
<text text-anchor="middle" x="510.79" y="-201.73" font-family="Times-Roman" font-size="14.00">μ</text>
<text text-anchor="middle" x="510.79" y="-186.73" font-family="Times-Roman" font-size="14.00">~</text>
<text text-anchor="middle" x="510.79" y="-171.73" font-family="Times-Roman" font-size="14.00">Deterministic</text>
</g>
<!-- h&#45;&gt;μ -->
<g id="edge11" class="edge">
<title>h&#45;&gt;μ</title>
<path fill="none" stroke="black" d="M465.62,-274.86C473.48,-260.34 483.43,-241.97 491.99,-226.16"/>
<polygon fill="black" stroke="black" points="495.16,-227.66 496.84,-217.2 489,-224.33 495.16,-227.66"/>
</g>
<!-- d&#45;&gt;μ -->
<g id="edge12" class="edge">
<title>d&#45;&gt;μ</title>
<path fill="none" stroke="black" d="M793.43,-282.29C733.83,-263.13 639.88,-232.93 576.84,-212.66"/>
<polygon fill="black" stroke="black" points="577.59,-209.23 567,-209.5 575.45,-215.89 577.59,-209.23"/>
</g>
<!-- d_offset -->
<g id="node11" class="node">
<title>d_offset</title>
<ellipse fill="none" stroke="black" cx="849.79" cy="-412.36" rx="52.15" ry="37.45"/>
<text text-anchor="middle" x="849.79" y="-423.66" font-family="Times-Roman" font-size="14.00">d_offset</text>
<text text-anchor="middle" x="849.79" y="-408.66" font-family="Times-Roman" font-size="14.00">~</text>
<text text-anchor="middle" x="849.79" y="-393.66" font-family="Times-Roman" font-size="14.00">Normal</text>
</g>
<!-- d_offset&#45;&gt;d -->
<g id="edge5" class="edge">
<title>d_offset&#45;&gt;d</title>
<path fill="none" stroke="black" d="M849.79,-374.78C849.79,-363.04 849.79,-350.05 849.79,-338.36"/>
<polygon fill="black" stroke="black" points="853.29,-338.06 849.79,-328.06 846.29,-338.06 853.29,-338.06"/>
</g>
<!-- η&#45;&gt;μ -->
<g id="edge10" class="edge">
<title>η&#45;&gt;μ</title>
<path fill="none" stroke="black" d="M226.1,-282.41C286.29,-263.18 381.61,-232.71 445.15,-212.41"/>
<polygon fill="black" stroke="black" points="446.22,-215.74 454.68,-209.36 444.09,-209.07 446.22,-215.74"/>
</g>
<!-- η_offset -->
<g id="node13" class="node">
<title>η_offset</title>
<ellipse fill="none" stroke="black" cx="169.79" cy="-412.36" rx="52.15" ry="37.45"/>
<text text-anchor="middle" x="169.79" y="-423.66" font-family="Times-Roman" font-size="14.00">η_offset</text>
<text text-anchor="middle" x="169.79" y="-408.66" font-family="Times-Roman" font-size="14.00">~</text>
<text text-anchor="middle" x="169.79" y="-393.66" font-family="Times-Roman" font-size="14.00">Normal</text>
</g>
<!-- η_offset&#45;&gt;η -->
<g id="edge9" class="edge">
<title>η_offset&#45;&gt;η</title>
<path fill="none" stroke="black" d="M169.79,-374.78C169.79,-363.04 169.79,-350.05 169.79,-338.36"/>
<polygon fill="black" stroke="black" points="173.29,-338.06 169.79,-328.06 166.29,-338.06 173.29,-338.06"/>
</g>
<!-- lfc -->
<g id="node15" class="node">
<title>lfc</title>
<ellipse fill="lightgrey" stroke="black" cx="513.79" cy="-76.48" rx="48.58" ry="37.45"/>
<text text-anchor="middle" x="513.79" y="-87.78" font-family="Times-Roman" font-size="14.00">lfc</text>
<text text-anchor="middle" x="513.79" y="-72.78" font-family="Times-Roman" font-size="14.00">~</text>
<text text-anchor="middle" x="513.79" y="-57.78" font-family="Times-Roman" font-size="14.00">Normal</text>
</g>
<!-- μ&#45;&gt;lfc -->
<g id="edge15" class="edge">
<title>μ&#45;&gt;lfc</title>
<path fill="none" stroke="black" d="M511.48,-163.75C511.79,-152.02 512.18,-137.75 512.54,-124.22"/>
<polygon fill="black" stroke="black" points="516.04,-124.16 512.81,-114.07 509.04,-123.98 516.04,-124.16"/>
</g>
<!-- σ&#45;&gt;lfc -->
<g id="edge14" class="edge">
<title>σ&#45;&gt;lfc</title>
<path fill="none" stroke="black" d="M724.05,-166.64C677.74,-147 611.32,-118.84 565.59,-99.44"/>
<polygon fill="black" stroke="black" points="566.73,-96.13 556.16,-95.44 564,-102.57 566.73,-96.13"/>
</g>
</g>
</svg>
