<?xml version="1.0" encoding="UTF-8" standalone="no"?>
<!DOCTYPE svg PUBLIC "-//W3C//DTD SVG 1.1//EN"
 "http://www.w3.org/Graphics/SVG/1.1/DTD/svg11.dtd">
<!-- Generated by graphviz version 2.47.0 (20210327.0129)
 -->
<!-- Pages: 1 -->
<svg width="1185pt" height="474pt"
 viewBox="0.00 0.00 1184.59 473.84" xmlns="http://www.w3.org/2000/svg" xmlns:xlink="http://www.w3.org/1999/xlink">
<g id="graph0" class="graph" transform="scale(1 1) rotate(0) translate(4 469.84)">
<polygon fill="white" stroke="transparent" points="-4,4 -4,-469.84 1180.59,-469.84 1180.59,4 -4,4"/>
<g id="clust1" class="cluster">
<title>cluster64</title>
<path fill="none" stroke="black" d="M400.3,-243.91C400.3,-243.91 504.3,-243.91 504.3,-243.91 510.3,-243.91 516.3,-249.91 516.3,-255.91 516.3,-255.91 516.3,-445.84 516.3,-445.84 516.3,-451.84 510.3,-457.84 504.3,-457.84 504.3,-457.84 400.3,-457.84 400.3,-457.84 394.3,-457.84 388.3,-451.84 388.3,-445.84 388.3,-445.84 388.3,-255.91 388.3,-255.91 388.3,-249.91 394.3,-243.91 400.3,-243.91"/>
<text text-anchor="middle" x="498.8" y="-251.71" font-family="Times-Roman" font-size="14.00">64</text>
</g>
<g id="clust2" class="cluster">
<title>cluster64 x 10</title>
<path fill="none" stroke="black" d="M798.3,-243.91C798.3,-243.91 902.3,-243.91 902.3,-243.91 908.3,-243.91 914.3,-249.91 914.3,-255.91 914.3,-255.91 914.3,-445.84 914.3,-445.84 914.3,-451.84 908.3,-457.84 902.3,-457.84 902.3,-457.84 798.3,-457.84 798.3,-457.84 792.3,-457.84 786.3,-451.84 786.3,-445.84 786.3,-445.84 786.3,-255.91 786.3,-255.91 786.3,-249.91 792.3,-243.91 798.3,-243.91"/>
<text text-anchor="middle" x="879.3" y="-251.71" font-family="Times-Roman" font-size="14.00">64 x 10</text>
</g>
<g id="clust3" class="cluster">
<title>cluster4</title>
<path fill="none" stroke="black" d="M158.3,-243.91C158.3,-243.91 262.3,-243.91 262.3,-243.91 268.3,-243.91 274.3,-249.91 274.3,-255.91 274.3,-255.91 274.3,-445.84 274.3,-445.84 274.3,-451.84 268.3,-457.84 262.3,-457.84 262.3,-457.84 158.3,-457.84 158.3,-457.84 152.3,-457.84 146.3,-451.84 146.3,-445.84 146.3,-445.84 146.3,-255.91 146.3,-255.91 146.3,-249.91 152.3,-243.91 158.3,-243.91"/>
<text text-anchor="middle" x="261.3" y="-251.71" font-family="Times-Roman" font-size="14.00">4</text>
</g>
<g id="clust4" class="cluster">
<title>cluster1,443</title>
<path fill="none" stroke="black" d="M459.3,-8C459.3,-8 563.3,-8 563.3,-8 569.3,-8 575.3,-14 575.3,-20 575.3,-20 575.3,-212.93 575.3,-212.93 575.3,-218.93 569.3,-224.93 563.3,-224.93 563.3,-224.93 459.3,-224.93 459.3,-224.93 453.3,-224.93 447.3,-218.93 447.3,-212.93 447.3,-212.93 447.3,-20 447.3,-20 447.3,-14 453.3,-8 459.3,-8"/>
<text text-anchor="middle" x="546.8" y="-15.8" font-family="Times-Roman" font-size="14.00">1,443</text>
</g>
<g id="clust5" class="cluster">
<title>cluster192</title>
<path fill="none" stroke="black" d="M713.3,-121.95C713.3,-121.95 843.3,-121.95 843.3,-121.95 849.3,-121.95 855.3,-127.95 855.3,-133.95 855.3,-133.95 855.3,-223.91 855.3,-223.91 855.3,-229.91 849.3,-235.91 843.3,-235.91 843.3,-235.91 713.3,-235.91 713.3,-235.91 707.3,-235.91 701.3,-229.91 701.3,-223.91 701.3,-223.91 701.3,-133.95 701.3,-133.95 701.3,-127.95 707.3,-121.95 713.3,-121.95"/>
<text text-anchor="middle" x="833.3" y="-129.75" font-family="Times-Roman" font-size="14.00">192</text>
</g>
<!-- σ_η -->
<g id="node1" class="node">
<title>σ_η</title>
<ellipse fill="none" stroke="black" cx="69.3" cy="-412.36" rx="69.09" ry="37.45"/>
<text text-anchor="middle" x="69.3" y="-423.66" font-family="Times-Roman" font-size="14.00">σ_η</text>
<text text-anchor="middle" x="69.3" y="-408.66" font-family="Times-Roman" font-size="14.00">~</text>
<text text-anchor="middle" x="69.3" y="-393.66" font-family="Times-Roman" font-size="14.00">HalfNormal</text>
</g>
<!-- η -->
<g id="node12" class="node">
<title>η</title>
<polygon fill="none" stroke="black" points="266.3,-327.91 154.3,-327.91 154.3,-274.91 266.3,-274.91 266.3,-327.91"/>
<text text-anchor="middle" x="210.3" y="-312.71" font-family="Times-Roman" font-size="14.00">η</text>
<text text-anchor="middle" x="210.3" y="-297.71" font-family="Times-Roman" font-size="14.00">~</text>
<text text-anchor="middle" x="210.3" y="-282.71" font-family="Times-Roman" font-size="14.00">Deterministic</text>
</g>
<!-- σ_η&#45;&gt;η -->
<g id="edge8" class="edge">
<title>σ_η&#45;&gt;η</title>
<path fill="none" stroke="black" d="M108.2,-381.3C127.17,-366.64 149.99,-349 169.24,-334.13"/>
<polygon fill="black" stroke="black" points="171.48,-336.82 177.25,-327.94 167.2,-331.28 171.48,-336.82"/>
</g>
<!-- μ_d -->
<g id="node2" class="node">
<title>μ_d</title>
<ellipse fill="none" stroke="black" cx="971.3" cy="-412.36" rx="48.58" ry="37.45"/>
<text text-anchor="middle" x="971.3" y="-423.66" font-family="Times-Roman" font-size="14.00">μ_d</text>
<text text-anchor="middle" x="971.3" y="-408.66" font-family="Times-Roman" font-size="14.00">~</text>
<text text-anchor="middle" x="971.3" y="-393.66" font-family="Times-Roman" font-size="14.00">Normal</text>
</g>
<!-- d -->
<g id="node10" class="node">
<title>d</title>
<polygon fill="none" stroke="black" points="906.3,-327.91 794.3,-327.91 794.3,-274.91 906.3,-274.91 906.3,-327.91"/>
<text text-anchor="middle" x="850.3" y="-312.71" font-family="Times-Roman" font-size="14.00">d</text>
<text text-anchor="middle" x="850.3" y="-297.71" font-family="Times-Roman" font-size="14.00">~</text>
<text text-anchor="middle" x="850.3" y="-282.71" font-family="Times-Roman" font-size="14.00">Deterministic</text>
</g>
<!-- μ_d&#45;&gt;d -->
<g id="edge4" class="edge">
<title>μ_d&#45;&gt;d</title>
<path fill="none" stroke="black" d="M940.14,-383.3C923.74,-368.54 903.55,-350.36 886.47,-334.98"/>
<polygon fill="black" stroke="black" points="888.64,-332.22 878.86,-328.13 883.95,-337.42 888.64,-332.22"/>
</g>
<!-- σ_h -->
<g id="node3" class="node">
<title>σ_h</title>
<ellipse fill="none" stroke="black" cx="593.3" cy="-412.36" rx="69.09" ry="37.45"/>
<text text-anchor="middle" x="593.3" y="-423.66" font-family="Times-Roman" font-size="14.00">σ_h</text>
<text text-anchor="middle" x="593.3" y="-408.66" font-family="Times-Roman" font-size="14.00">~</text>
<text text-anchor="middle" x="593.3" y="-393.66" font-family="Times-Roman" font-size="14.00">HalfNormal</text>
</g>
<!-- h -->
<g id="node8" class="node">
<title>h</title>
<polygon fill="none" stroke="black" points="508.3,-327.91 396.3,-327.91 396.3,-274.91 508.3,-274.91 508.3,-327.91"/>
<text text-anchor="middle" x="452.3" y="-312.71" font-family="Times-Roman" font-size="14.00">h</text>
<text text-anchor="middle" x="452.3" y="-297.71" font-family="Times-Roman" font-size="14.00">~</text>
<text text-anchor="middle" x="452.3" y="-282.71" font-family="Times-Roman" font-size="14.00">Deterministic</text>
</g>
<!-- σ_h&#45;&gt;h -->
<g id="edge1" class="edge">
<title>σ_h&#45;&gt;h</title>
<path fill="none" stroke="black" d="M554.39,-381.3C535.42,-366.64 512.6,-349 493.35,-334.13"/>
<polygon fill="black" stroke="black" points="495.39,-331.28 485.34,-327.94 491.11,-336.82 495.39,-331.28"/>
</g>
<!-- σ_σ -->
<g id="node4" class="node">
<title>σ_σ</title>
<ellipse fill="none" stroke="black" cx="993.3" cy="-301.41" rx="69.09" ry="37.45"/>
<text text-anchor="middle" x="993.3" y="-312.71" font-family="Times-Roman" font-size="14.00">σ_σ</text>
<text text-anchor="middle" x="993.3" y="-297.71" font-family="Times-Roman" font-size="14.00">~</text>
<text text-anchor="middle" x="993.3" y="-282.71" font-family="Times-Roman" font-size="14.00">HalfNormal</text>
</g>
<!-- σ -->
<g id="node16" class="node">
<title>σ</title>
<ellipse fill="none" stroke="black" cx="778.3" cy="-190.43" rx="69.09" ry="37.45"/>
<text text-anchor="middle" x="778.3" y="-201.73" font-family="Times-Roman" font-size="14.00">σ</text>
<text text-anchor="middle" x="778.3" y="-186.73" font-family="Times-Roman" font-size="14.00">~</text>
<text text-anchor="middle" x="778.3" y="-171.73" font-family="Times-Roman" font-size="14.00">HalfNormal</text>
</g>
<!-- σ_σ&#45;&gt;σ -->
<g id="edge13" class="edge">
<title>σ_σ&#45;&gt;σ</title>
<path fill="none" stroke="black" d="M956.58,-269.44C944.83,-260.45 931.44,-251.13 918.3,-243.91 896.3,-231.83 870.95,-221.39 847.91,-213.07"/>
<polygon fill="black" stroke="black" points="848.79,-209.67 838.2,-209.64 846.46,-216.27 848.79,-209.67"/>
</g>
<!-- σ_d -->
<g id="node5" class="node">
<title>σ_d</title>
<ellipse fill="none" stroke="black" cx="1107.3" cy="-412.36" rx="69.09" ry="37.45"/>
<text text-anchor="middle" x="1107.3" y="-423.66" font-family="Times-Roman" font-size="14.00">σ_d</text>
<text text-anchor="middle" x="1107.3" y="-408.66" font-family="Times-Roman" font-size="14.00">~</text>
<text text-anchor="middle" x="1107.3" y="-393.66" font-family="Times-Roman" font-size="14.00">HalfNormal</text>
</g>
<!-- σ_d&#45;&gt;d -->
<g id="edge5" class="edge">
<title>σ_d&#45;&gt;d</title>
<path fill="none" stroke="black" d="M1056.53,-386.45C1047.54,-382.37 1038.21,-378.36 1029.3,-374.88 979.79,-355.59 964.05,-360 915.3,-338.88 910.93,-336.99 906.47,-334.89 902.04,-332.67"/>
<polygon fill="black" stroke="black" points="903.51,-329.5 893.02,-328.01 900.29,-335.71 903.51,-329.5"/>
</g>
<!-- μ_h -->
<g id="node6" class="node">
<title>μ_h</title>
<ellipse fill="none" stroke="black" cx="729.3" cy="-412.36" rx="48.58" ry="37.45"/>
<text text-anchor="middle" x="729.3" y="-423.66" font-family="Times-Roman" font-size="14.00">μ_h</text>
<text text-anchor="middle" x="729.3" y="-408.66" font-family="Times-Roman" font-size="14.00">~</text>
<text text-anchor="middle" x="729.3" y="-393.66" font-family="Times-Roman" font-size="14.00">Normal</text>
</g>
<!-- μ_h&#45;&gt;h -->
<g id="edge3" class="edge">
<title>μ_h&#45;&gt;h</title>
<path fill="none" stroke="black" d="M693.24,-386.82C686.14,-382.52 678.61,-378.33 671.3,-374.88 621.79,-351.55 562.73,-332.47 518.42,-319.76"/>
<polygon fill="black" stroke="black" points="519.21,-316.34 508.63,-316.98 517.3,-323.08 519.21,-316.34"/>
</g>
<!-- μ_η -->
<g id="node7" class="node">
<title>μ_η</title>
<ellipse fill="none" stroke="black" cx="331.3" cy="-412.36" rx="48.58" ry="37.45"/>
<text text-anchor="middle" x="331.3" y="-423.66" font-family="Times-Roman" font-size="14.00">μ_η</text>
<text text-anchor="middle" x="331.3" y="-408.66" font-family="Times-Roman" font-size="14.00">~</text>
<text text-anchor="middle" x="331.3" y="-393.66" font-family="Times-Roman" font-size="14.00">Normal</text>
</g>
<!-- μ_η&#45;&gt;η -->
<g id="edge7" class="edge">
<title>μ_η&#45;&gt;η</title>
<path fill="none" stroke="black" d="M300.14,-383.3C283.74,-368.54 263.55,-350.36 246.47,-334.98"/>
<polygon fill="black" stroke="black" points="248.64,-332.22 238.86,-328.13 243.95,-337.42 248.64,-332.22"/>
</g>
<!-- μ -->
<g id="node14" class="node">
<title>μ</title>
<polygon fill="none" stroke="black" points="567.3,-216.93 455.3,-216.93 455.3,-163.93 567.3,-163.93 567.3,-216.93"/>
<text text-anchor="middle" x="511.3" y="-201.73" font-family="Times-Roman" font-size="14.00">μ</text>
<text text-anchor="middle" x="511.3" y="-186.73" font-family="Times-Roman" font-size="14.00">~</text>
<text text-anchor="middle" x="511.3" y="-171.73" font-family="Times-Roman" font-size="14.00">Deterministic</text>
</g>
<!-- h&#45;&gt;μ -->
<g id="edge11" class="edge">
<title>h&#45;&gt;μ</title>
<path fill="none" stroke="black" d="M466.13,-274.86C473.99,-260.34 483.94,-241.97 492.49,-226.16"/>
<polygon fill="black" stroke="black" points="495.66,-227.66 497.35,-217.2 489.51,-224.33 495.66,-227.66"/>
</g>
<!-- h_offset -->
<g id="node9" class="node">
<title>h_offset</title>
<ellipse fill="none" stroke="black" cx="452.3" cy="-412.36" rx="52.15" ry="37.45"/>
<text text-anchor="middle" x="452.3" y="-423.66" font-family="Times-Roman" font-size="14.00">h_offset</text>
<text text-anchor="middle" x="452.3" y="-408.66" font-family="Times-Roman" font-size="14.00">~</text>
<text text-anchor="middle" x="452.3" y="-393.66" font-family="Times-Roman" font-size="14.00">Normal</text>
</g>
<!-- h_offset&#45;&gt;h -->
<g id="edge2" class="edge">
<title>h_offset&#45;&gt;h</title>
<path fill="none" stroke="black" d="M452.3,-374.78C452.3,-363.04 452.3,-350.05 452.3,-338.36"/>
<polygon fill="black" stroke="black" points="455.8,-338.06 452.3,-328.06 448.8,-338.06 455.8,-338.06"/>
</g>
<!-- d&#45;&gt;μ -->
<g id="edge10" class="edge">
<title>d&#45;&gt;μ</title>
<path fill="none" stroke="black" d="M793.94,-282.29C734.34,-263.13 640.39,-232.93 577.35,-212.66"/>
<polygon fill="black" stroke="black" points="578.1,-209.23 567.51,-209.5 575.96,-215.89 578.1,-209.23"/>
</g>
<!-- d_offset -->
<g id="node11" class="node">
<title>d_offset</title>
<ellipse fill="none" stroke="black" cx="850.3" cy="-412.36" rx="52.15" ry="37.45"/>
<text text-anchor="middle" x="850.3" y="-423.66" font-family="Times-Roman" font-size="14.00">d_offset</text>
<text text-anchor="middle" x="850.3" y="-408.66" font-family="Times-Roman" font-size="14.00">~</text>
<text text-anchor="middle" x="850.3" y="-393.66" font-family="Times-Roman" font-size="14.00">Normal</text>
</g>
<!-- d_offset&#45;&gt;d -->
<g id="edge6" class="edge">
<title>d_offset&#45;&gt;d</title>
<path fill="none" stroke="black" d="M850.3,-374.78C850.3,-363.04 850.3,-350.05 850.3,-338.36"/>
<polygon fill="black" stroke="black" points="853.8,-338.06 850.3,-328.06 846.8,-338.06 853.8,-338.06"/>
</g>
<!-- η&#45;&gt;μ -->
<g id="edge12" class="edge">
<title>η&#45;&gt;μ</title>
<path fill="none" stroke="black" d="M266.56,-280.04C317.26,-261.68 391.83,-234.68 445.32,-215.32"/>
<polygon fill="black" stroke="black" points="446.84,-218.49 455.05,-211.79 444.46,-211.91 446.84,-218.49"/>
</g>
<!-- η_offset -->
<g id="node13" class="node">
<title>η_offset</title>
<ellipse fill="none" stroke="black" cx="210.3" cy="-412.36" rx="52.15" ry="37.45"/>
<text text-anchor="middle" x="210.3" y="-423.66" font-family="Times-Roman" font-size="14.00">η_offset</text>
<text text-anchor="middle" x="210.3" y="-408.66" font-family="Times-Roman" font-size="14.00">~</text>
<text text-anchor="middle" x="210.3" y="-393.66" font-family="Times-Roman" font-size="14.00">Normal</text>
</g>
<!-- η_offset&#45;&gt;η -->
<g id="edge9" class="edge">
<title>η_offset&#45;&gt;η</title>
<path fill="none" stroke="black" d="M210.3,-374.78C210.3,-363.04 210.3,-350.05 210.3,-338.36"/>
<polygon fill="black" stroke="black" points="213.8,-338.06 210.3,-328.06 206.8,-338.06 213.8,-338.06"/>
</g>
<!-- lfc -->
<g id="node15" class="node">
<title>lfc</title>
<ellipse fill="lightgrey" stroke="black" cx="514.3" cy="-76.48" rx="48.58" ry="37.45"/>
<text text-anchor="middle" x="514.3" y="-87.78" font-family="Times-Roman" font-size="14.00">lfc</text>
<text text-anchor="middle" x="514.3" y="-72.78" font-family="Times-Roman" font-size="14.00">~</text>
<text text-anchor="middle" x="514.3" y="-57.78" font-family="Times-Roman" font-size="14.00">Normal</text>
</g>
<!-- μ&#45;&gt;lfc -->
<g id="edge14" class="edge">
<title>μ&#45;&gt;lfc</title>
<path fill="none" stroke="black" d="M511.98,-163.75C512.3,-152.02 512.68,-137.75 513.04,-124.22"/>
<polygon fill="black" stroke="black" points="516.55,-124.16 513.32,-114.07 509.55,-123.98 516.55,-124.16"/>
</g>
<!-- σ&#45;&gt;lfc -->
<g id="edge15" class="edge">
<title>σ&#45;&gt;lfc</title>
<path fill="none" stroke="black" d="M724.55,-166.64C678.25,-147 611.83,-118.84 566.1,-99.44"/>
<polygon fill="black" stroke="black" points="567.24,-96.13 556.67,-95.44 564.51,-102.57 567.24,-96.13"/>
</g>
</g>
</svg>
