<?xml version="1.0" encoding="UTF-8" standalone="no"?>
<!DOCTYPE svg PUBLIC "-//W3C//DTD SVG 1.1//EN"
 "http://www.w3.org/Graphics/SVG/1.1/DTD/svg11.dtd">
<!-- Generated by graphviz version 2.47.0 (20210327.0129)
 -->
<!-- Pages: 1 -->
<svg width="1436pt" height="677pt"
 viewBox="0.00 0.00 1436.30 676.77" xmlns="http://www.w3.org/2000/svg" xmlns:xlink="http://www.w3.org/1999/xlink">
<g id="graph0" class="graph" transform="scale(1 1) rotate(0) translate(4 672.77)">
<polygon fill="white" stroke="transparent" points="-4,4 -4,-672.77 1432.3,-672.77 1432.3,4 -4,4"/>
<g id="clust1" class="cluster">
<title>cluster2</title>
<path fill="none" stroke="black" d="M1022,-340.91C1022,-340.91 1268,-340.91 1268,-340.91 1274,-340.91 1280,-346.91 1280,-352.91 1280,-352.91 1280,-442.86 1280,-442.86 1280,-448.86 1274,-454.86 1268,-454.86 1268,-454.86 1022,-454.86 1022,-454.86 1016,-454.86 1010,-448.86 1010,-442.86 1010,-442.86 1010,-352.91 1010,-352.91 1010,-346.91 1016,-340.91 1022,-340.91"/>
<text text-anchor="middle" x="1267" y="-348.71" font-family="Times-Roman" font-size="14.00">2</text>
</g>
<g id="clust2" class="cluster">
<title>cluster4</title>
<path fill="none" stroke="black" d="M865,-218.95C865,-218.95 1111,-218.95 1111,-218.95 1117,-218.95 1123,-224.95 1123,-230.95 1123,-230.95 1123,-320.91 1123,-320.91 1123,-326.91 1117,-332.91 1111,-332.91 1111,-332.91 865,-332.91 865,-332.91 859,-332.91 853,-326.91 853,-320.91 853,-320.91 853,-230.95 853,-230.95 853,-224.95 859,-218.95 865,-218.95"/>
<text text-anchor="middle" x="1110" y="-226.75" font-family="Times-Roman" font-size="14.00">4</text>
</g>
<g id="clust3" class="cluster">
<title>cluster64 x 10</title>
<path fill="none" stroke="black" d="M477,-218.95C477,-218.95 567,-218.95 567,-218.95 573,-218.95 579,-224.95 579,-230.95 579,-230.95 579,-320.91 579,-320.91 579,-326.91 573,-332.91 567,-332.91 567,-332.91 477,-332.91 477,-332.91 471,-332.91 465,-326.91 465,-320.91 465,-320.91 465,-230.95 465,-230.95 465,-224.95 471,-218.95 477,-218.95"/>
<text text-anchor="middle" x="544" y="-226.75" font-family="Times-Roman" font-size="14.00">64 x 10</text>
</g>
<g id="clust4" class="cluster">
<title>cluster10</title>
<path fill="none" stroke="black" d="M613,-218.95C613,-218.95 703,-218.95 703,-218.95 709,-218.95 715,-224.95 715,-230.95 715,-230.95 715,-320.91 715,-320.91 715,-326.91 709,-332.91 703,-332.91 703,-332.91 613,-332.91 613,-332.91 607,-332.91 601,-326.91 601,-320.91 601,-320.91 601,-230.95 601,-230.95 601,-224.95 607,-218.95 613,-218.95"/>
<text text-anchor="middle" x="697.5" y="-226.75" font-family="Times-Roman" font-size="14.00">10</text>
</g>
<g id="clust5" class="cluster">
<title>cluster64</title>
<path fill="none" stroke="black" d="M20,-351.88C20,-351.88 296,-351.88 296,-351.88 302,-351.88 308,-357.88 308,-363.88 308,-363.88 308,-553.81 308,-553.81 308,-559.81 302,-565.81 296,-565.81 296,-565.81 20,-565.81 20,-565.81 14,-565.81 8,-559.81 8,-553.81 8,-553.81 8,-363.88 8,-363.88 8,-357.88 14,-351.88 20,-351.88"/>
<text text-anchor="middle" x="290.5" y="-359.68" font-family="Times-Roman" font-size="14.00">64</text>
</g>
<g id="clust6" class="cluster">
<title>cluster192</title>
<path fill="none" stroke="black" d="M277,-218.95C277,-218.95 367,-218.95 367,-218.95 373,-218.95 379,-224.95 379,-230.95 379,-230.95 379,-320.91 379,-320.91 379,-326.91 373,-332.91 367,-332.91 367,-332.91 277,-332.91 277,-332.91 271,-332.91 265,-326.91 265,-320.91 265,-320.91 265,-230.95 265,-230.95 265,-224.95 271,-218.95 277,-218.95"/>
<text text-anchor="middle" x="357" y="-226.75" font-family="Times-Roman" font-size="14.00">192</text>
</g>
<g id="clust7" class="cluster">
<title>cluster1,443</title>
<path fill="none" stroke="black" d="M538,-8C538,-8 642,-8 642,-8 648,-8 654,-14 654,-20 654,-20 654,-198.95 654,-198.95 654,-204.95 648,-210.95 642,-210.95 642,-210.95 538,-210.95 538,-210.95 532,-210.95 526,-204.95 526,-198.95 526,-198.95 526,-20 526,-20 526,-14 532,-8 538,-8"/>
<text text-anchor="middle" x="625.5" y="-15.8" font-family="Times-Roman" font-size="14.00">1,443</text>
</g>
<!-- σ_σ_a -->
<g id="node1" class="node">
<title>σ_σ_a</title>
<ellipse fill="none" stroke="black" cx="85" cy="-631.29" rx="69.09" ry="37.45"/>
<text text-anchor="middle" x="85" y="-642.59" font-family="Times-Roman" font-size="14.00">σ_σ_a</text>
<text text-anchor="middle" x="85" y="-627.59" font-family="Times-Roman" font-size="14.00">~</text>
<text text-anchor="middle" x="85" y="-612.59" font-family="Times-Roman" font-size="14.00">HalfNormal</text>
</g>
<!-- σ_a -->
<g id="node21" class="node">
<title>σ_a</title>
<ellipse fill="none" stroke="black" cx="85" cy="-520.34" rx="69.09" ry="37.45"/>
<text text-anchor="middle" x="85" y="-531.64" font-family="Times-Roman" font-size="14.00">σ_a</text>
<text text-anchor="middle" x="85" y="-516.64" font-family="Times-Roman" font-size="14.00">~</text>
<text text-anchor="middle" x="85" y="-501.64" font-family="Times-Roman" font-size="14.00">HalfNormal</text>
</g>
<!-- σ_σ_a&#45;&gt;σ_a -->
<g id="edge13" class="edge">
<title>σ_σ_a&#45;&gt;σ_a</title>
<path fill="none" stroke="black" d="M85,-593.71C85,-585.53 85,-576.75 85,-568.23"/>
<polygon fill="black" stroke="black" points="88.5,-568.01 85,-558.01 81.5,-568.01 88.5,-568.01"/>
</g>
<!-- σ_σ -->
<g id="node2" class="node">
<title>σ_σ</title>
<ellipse fill="none" stroke="black" cx="930" cy="-409.38" rx="69.09" ry="37.45"/>
<text text-anchor="middle" x="930" y="-420.68" font-family="Times-Roman" font-size="14.00">σ_σ</text>
<text text-anchor="middle" x="930" y="-405.68" font-family="Times-Roman" font-size="14.00">~</text>
<text text-anchor="middle" x="930" y="-390.68" font-family="Times-Roman" font-size="14.00">HalfNormal</text>
</g>
<!-- σ -->
<g id="node16" class="node">
<title>σ</title>
<ellipse fill="none" stroke="black" cx="930" cy="-287.43" rx="69.09" ry="37.45"/>
<text text-anchor="middle" x="930" y="-298.73" font-family="Times-Roman" font-size="14.00">σ</text>
<text text-anchor="middle" x="930" y="-283.73" font-family="Times-Roman" font-size="14.00">~</text>
<text text-anchor="middle" x="930" y="-268.73" font-family="Times-Roman" font-size="14.00">HalfNormal</text>
</g>
<!-- σ_σ&#45;&gt;σ -->
<g id="edge21" class="edge">
<title>σ_σ&#45;&gt;σ</title>
<path fill="none" stroke="black" d="M930,-371.74C930,-360.34 930,-347.6 930,-335.58"/>
<polygon fill="black" stroke="black" points="933.5,-335.26 930,-325.26 926.5,-335.26 933.5,-335.26"/>
</g>
<!-- σ_σ_j -->
<g id="node3" class="node">
<title>σ_σ_j</title>
<ellipse fill="none" stroke="black" cx="1087" cy="-520.34" rx="69.09" ry="37.45"/>
<text text-anchor="middle" x="1087" y="-531.64" font-family="Times-Roman" font-size="14.00">σ_σ_j</text>
<text text-anchor="middle" x="1087" y="-516.64" font-family="Times-Roman" font-size="14.00">~</text>
<text text-anchor="middle" x="1087" y="-501.64" font-family="Times-Roman" font-size="14.00">HalfNormal</text>
</g>
<!-- σ_j -->
<g id="node13" class="node">
<title>σ_j</title>
<ellipse fill="none" stroke="black" cx="1087" cy="-409.38" rx="69.09" ry="37.45"/>
<text text-anchor="middle" x="1087" y="-420.68" font-family="Times-Roman" font-size="14.00">σ_j</text>
<text text-anchor="middle" x="1087" y="-405.68" font-family="Times-Roman" font-size="14.00">~</text>
<text text-anchor="middle" x="1087" y="-390.68" font-family="Times-Roman" font-size="14.00">HalfNormal</text>
</g>
<!-- σ_σ_j&#45;&gt;σ_j -->
<g id="edge3" class="edge">
<title>σ_σ_j&#45;&gt;σ_j</title>
<path fill="none" stroke="black" d="M1087,-482.75C1087,-474.58 1087,-465.8 1087,-457.27"/>
<polygon fill="black" stroke="black" points="1090.5,-457.06 1087,-447.06 1083.5,-457.06 1090.5,-457.06"/>
</g>
<!-- σ_h -->
<g id="node4" class="node">
<title>σ_h</title>
<ellipse fill="none" stroke="black" cx="386" cy="-409.38" rx="69.09" ry="37.45"/>
<text text-anchor="middle" x="386" y="-420.68" font-family="Times-Roman" font-size="14.00">σ_h</text>
<text text-anchor="middle" x="386" y="-405.68" font-family="Times-Roman" font-size="14.00">~</text>
<text text-anchor="middle" x="386" y="-390.68" font-family="Times-Roman" font-size="14.00">HalfNormal</text>
</g>
<!-- h -->
<g id="node17" class="node">
<title>h</title>
<ellipse fill="none" stroke="black" cx="522" cy="-287.43" rx="48.58" ry="37.45"/>
<text text-anchor="middle" x="522" y="-298.73" font-family="Times-Roman" font-size="14.00">h</text>
<text text-anchor="middle" x="522" y="-283.73" font-family="Times-Roman" font-size="14.00">~</text>
<text text-anchor="middle" x="522" y="-268.73" font-family="Times-Roman" font-size="14.00">Normal</text>
</g>
<!-- σ_h&#45;&gt;h -->
<g id="edge6" class="edge">
<title>σ_h&#45;&gt;h</title>
<path fill="none" stroke="black" d="M421.73,-376.87C440.41,-360.39 463.31,-340.19 482.51,-323.26"/>
<polygon fill="black" stroke="black" points="485.03,-325.7 490.22,-316.46 480.4,-320.45 485.03,-325.7"/>
</g>
<!-- μ_h -->
<g id="node5" class="node">
<title>μ_h</title>
<ellipse fill="none" stroke="black" cx="522" cy="-409.38" rx="48.58" ry="37.45"/>
<text text-anchor="middle" x="522" y="-420.68" font-family="Times-Roman" font-size="14.00">μ_h</text>
<text text-anchor="middle" x="522" y="-405.68" font-family="Times-Roman" font-size="14.00">~</text>
<text text-anchor="middle" x="522" y="-390.68" font-family="Times-Roman" font-size="14.00">Normal</text>
</g>
<!-- μ_h&#45;&gt;h -->
<g id="edge7" class="edge">
<title>μ_h&#45;&gt;h</title>
<path fill="none" stroke="black" d="M522,-371.74C522,-360.34 522,-347.6 522,-335.58"/>
<polygon fill="black" stroke="black" points="525.5,-335.26 522,-325.26 518.5,-335.26 525.5,-335.26"/>
</g>
<!-- σ_μ_a -->
<g id="node6" class="node">
<title>σ_μ_a</title>
<ellipse fill="none" stroke="black" cx="387" cy="-520.34" rx="69.09" ry="37.45"/>
<text text-anchor="middle" x="387" y="-531.64" font-family="Times-Roman" font-size="14.00">σ_μ_a</text>
<text text-anchor="middle" x="387" y="-516.64" font-family="Times-Roman" font-size="14.00">~</text>
<text text-anchor="middle" x="387" y="-501.64" font-family="Times-Roman" font-size="14.00">HalfNormal</text>
</g>
<!-- μ_a -->
<g id="node20" class="node">
<title>μ_a</title>
<polygon fill="none" stroke="black" points="299,-435.88 187,-435.88 187,-382.88 299,-382.88 299,-435.88"/>
<text text-anchor="middle" x="243" y="-420.68" font-family="Times-Roman" font-size="14.00">μ_a</text>
<text text-anchor="middle" x="243" y="-405.68" font-family="Times-Roman" font-size="14.00">~</text>
<text text-anchor="middle" x="243" y="-390.68" font-family="Times-Roman" font-size="14.00">Deterministic</text>
</g>
<!-- σ_μ_a&#45;&gt;μ_a -->
<g id="edge11" class="edge">
<title>σ_μ_a&#45;&gt;μ_a</title>
<path fill="none" stroke="black" d="M347.27,-489.28C327.89,-474.62 304.59,-456.98 284.93,-442.11"/>
<polygon fill="black" stroke="black" points="286.83,-439.16 276.75,-435.92 282.61,-444.74 286.83,-439.16"/>
</g>
<!-- μ_μ_a -->
<g id="node7" class="node">
<title>μ_μ_a</title>
<ellipse fill="none" stroke="black" cx="523" cy="-520.34" rx="48.58" ry="37.45"/>
<text text-anchor="middle" x="523" y="-531.64" font-family="Times-Roman" font-size="14.00">μ_μ_a</text>
<text text-anchor="middle" x="523" y="-516.64" font-family="Times-Roman" font-size="14.00">~</text>
<text text-anchor="middle" x="523" y="-501.64" font-family="Times-Roman" font-size="14.00">Normal</text>
</g>
<!-- μ_μ_a&#45;&gt;μ_a -->
<g id="edge12" class="edge">
<title>μ_μ_a&#45;&gt;μ_a</title>
<path fill="none" stroke="black" d="M487.62,-494.12C480.4,-489.83 472.66,-485.82 465,-482.86 398.89,-457.3 373.6,-481.69 308,-454.86 299.45,-451.36 290.88,-446.61 282.91,-441.52"/>
<polygon fill="black" stroke="black" points="284.77,-438.55 274.51,-435.89 280.87,-444.37 284.77,-438.55"/>
</g>
<!-- i -->
<g id="node8" class="node">
<title>i</title>
<ellipse fill="none" stroke="black" cx="206" cy="-287.43" rx="48.58" ry="37.45"/>
<text text-anchor="middle" x="206" y="-298.73" font-family="Times-Roman" font-size="14.00">i</text>
<text text-anchor="middle" x="206" y="-283.73" font-family="Times-Roman" font-size="14.00">~</text>
<text text-anchor="middle" x="206" y="-268.73" font-family="Times-Roman" font-size="14.00">Normal</text>
</g>
<!-- μ -->
<g id="node24" class="node">
<title>μ</title>
<polygon fill="none" stroke="black" points="646,-202.95 534,-202.95 534,-149.95 646,-149.95 646,-202.95"/>
<text text-anchor="middle" x="590" y="-187.75" font-family="Times-Roman" font-size="14.00">μ</text>
<text text-anchor="middle" x="590" y="-172.75" font-family="Times-Roman" font-size="14.00">~</text>
<text text-anchor="middle" x="590" y="-157.75" font-family="Times-Roman" font-size="14.00">Deterministic</text>
</g>
<!-- i&#45;&gt;μ -->
<g id="edge20" class="edge">
<title>i&#45;&gt;μ</title>
<path fill="none" stroke="black" d="M225.58,-252.78C234.71,-240.11 246.72,-226.87 261,-218.95 304.8,-194.67 441.04,-184.22 523.83,-180.02"/>
<polygon fill="black" stroke="black" points="524.08,-183.52 533.9,-179.53 523.74,-176.53 524.08,-183.52"/>
</g>
<!-- σ_d -->
<g id="node9" class="node">
<title>σ_d</title>
<ellipse fill="none" stroke="black" cx="658" cy="-409.38" rx="69.09" ry="37.45"/>
<text text-anchor="middle" x="658" y="-420.68" font-family="Times-Roman" font-size="14.00">σ_d</text>
<text text-anchor="middle" x="658" y="-405.68" font-family="Times-Roman" font-size="14.00">~</text>
<text text-anchor="middle" x="658" y="-390.68" font-family="Times-Roman" font-size="14.00">HalfNormal</text>
</g>
<!-- d -->
<g id="node18" class="node">
<title>d</title>
<ellipse fill="none" stroke="black" cx="658" cy="-287.43" rx="48.58" ry="37.45"/>
<text text-anchor="middle" x="658" y="-298.73" font-family="Times-Roman" font-size="14.00">d</text>
<text text-anchor="middle" x="658" y="-283.73" font-family="Times-Roman" font-size="14.00">~</text>
<text text-anchor="middle" x="658" y="-268.73" font-family="Times-Roman" font-size="14.00">Normal</text>
</g>
<!-- σ_d&#45;&gt;d -->
<g id="edge9" class="edge">
<title>σ_d&#45;&gt;d</title>
<path fill="none" stroke="black" d="M658,-371.74C658,-360.34 658,-347.6 658,-335.58"/>
<polygon fill="black" stroke="black" points="661.5,-335.26 658,-325.26 654.5,-335.26 661.5,-335.26"/>
</g>
<!-- μ_d -->
<g id="node10" class="node">
<title>μ_d</title>
<ellipse fill="none" stroke="black" cx="794" cy="-409.38" rx="48.58" ry="37.45"/>
<text text-anchor="middle" x="794" y="-420.68" font-family="Times-Roman" font-size="14.00">μ_d</text>
<text text-anchor="middle" x="794" y="-405.68" font-family="Times-Roman" font-size="14.00">~</text>
<text text-anchor="middle" x="794" y="-390.68" font-family="Times-Roman" font-size="14.00">Normal</text>
</g>
<!-- μ_d&#45;&gt;d -->
<g id="edge8" class="edge">
<title>μ_d&#45;&gt;d</title>
<path fill="none" stroke="black" d="M769.64,-376.55C759.83,-364.72 748.01,-351.58 736,-340.91 726.37,-332.35 715.27,-324.09 704.52,-316.74"/>
<polygon fill="black" stroke="black" points="706.26,-313.7 696,-311.06 702.38,-319.52 706.26,-313.7"/>
</g>
<!-- σ_μ_j -->
<g id="node11" class="node">
<title>σ_μ_j</title>
<ellipse fill="none" stroke="black" cx="1359" cy="-520.34" rx="69.09" ry="37.45"/>
<text text-anchor="middle" x="1359" y="-531.64" font-family="Times-Roman" font-size="14.00">σ_μ_j</text>
<text text-anchor="middle" x="1359" y="-516.64" font-family="Times-Roman" font-size="14.00">~</text>
<text text-anchor="middle" x="1359" y="-501.64" font-family="Times-Roman" font-size="14.00">HalfNormal</text>
</g>
<!-- μ_j -->
<g id="node14" class="node">
<title>μ_j</title>
<ellipse fill="none" stroke="black" cx="1223" cy="-409.38" rx="48.58" ry="37.45"/>
<text text-anchor="middle" x="1223" y="-420.68" font-family="Times-Roman" font-size="14.00">μ_j</text>
<text text-anchor="middle" x="1223" y="-405.68" font-family="Times-Roman" font-size="14.00">~</text>
<text text-anchor="middle" x="1223" y="-390.68" font-family="Times-Roman" font-size="14.00">Normal</text>
</g>
<!-- σ_μ_j&#45;&gt;μ_j -->
<g id="edge1" class="edge">
<title>σ_μ_j&#45;&gt;μ_j</title>
<path fill="none" stroke="black" d="M1320.75,-488.7C1303.18,-474.62 1282.29,-457.89 1264.35,-443.51"/>
<polygon fill="black" stroke="black" points="1266.33,-440.61 1256.34,-437.09 1261.95,-446.08 1266.33,-440.61"/>
</g>
<!-- μ_μ_j -->
<g id="node12" class="node">
<title>μ_μ_j</title>
<ellipse fill="none" stroke="black" cx="1223" cy="-520.34" rx="48.58" ry="37.45"/>
<text text-anchor="middle" x="1223" y="-531.64" font-family="Times-Roman" font-size="14.00">μ_μ_j</text>
<text text-anchor="middle" x="1223" y="-516.64" font-family="Times-Roman" font-size="14.00">~</text>
<text text-anchor="middle" x="1223" y="-501.64" font-family="Times-Roman" font-size="14.00">Normal</text>
</g>
<!-- μ_μ_j&#45;&gt;μ_j -->
<g id="edge2" class="edge">
<title>μ_μ_j&#45;&gt;μ_j</title>
<path fill="none" stroke="black" d="M1223,-482.75C1223,-474.58 1223,-465.8 1223,-457.27"/>
<polygon fill="black" stroke="black" points="1226.5,-457.06 1223,-447.06 1219.5,-457.06 1226.5,-457.06"/>
</g>
<!-- j -->
<g id="node15" class="node">
<title>j</title>
<ellipse fill="none" stroke="black" cx="1066" cy="-287.43" rx="48.58" ry="37.45"/>
<text text-anchor="middle" x="1066" y="-298.73" font-family="Times-Roman" font-size="14.00">j</text>
<text text-anchor="middle" x="1066" y="-283.73" font-family="Times-Roman" font-size="14.00">~</text>
<text text-anchor="middle" x="1066" y="-268.73" font-family="Times-Roman" font-size="14.00">Normal</text>
</g>
<!-- σ_j&#45;&gt;j -->
<g id="edge4" class="edge">
<title>σ_j&#45;&gt;j</title>
<path fill="none" stroke="black" d="M1080.59,-371.74C1078.55,-360.11 1076.27,-347.1 1074.13,-334.88"/>
<polygon fill="black" stroke="black" points="1077.55,-334.09 1072.38,-324.85 1070.65,-335.3 1077.55,-334.09"/>
</g>
<!-- μ_j&#45;&gt;j -->
<g id="edge5" class="edge">
<title>μ_j&#45;&gt;j</title>
<path fill="none" stroke="black" d="M1199.49,-376.22C1189.71,-364.2 1177.67,-351.03 1165,-340.91 1150.64,-329.44 1133.4,-319.29 1117.36,-311.04"/>
<polygon fill="black" stroke="black" points="1118.6,-307.75 1108.09,-306.42 1115.47,-314.01 1118.6,-307.75"/>
</g>
<!-- j&#45;&gt;μ -->
<g id="edge18" class="edge">
<title>j&#45;&gt;μ</title>
<path fill="none" stroke="black" d="M1045.63,-253.28C1035.9,-240.36 1023.07,-226.8 1008,-218.95 948.51,-187.99 758.72,-180.1 656.58,-178.11"/>
<polygon fill="black" stroke="black" points="656.44,-174.6 646.38,-177.92 656.31,-181.6 656.44,-174.6"/>
</g>
<!-- lfc -->
<g id="node23" class="node">
<title>lfc</title>
<ellipse fill="lightgrey" stroke="black" cx="593" cy="-76.48" rx="48.58" ry="37.45"/>
<text text-anchor="middle" x="593" y="-87.78" font-family="Times-Roman" font-size="14.00">lfc</text>
<text text-anchor="middle" x="593" y="-72.78" font-family="Times-Roman" font-size="14.00">~</text>
<text text-anchor="middle" x="593" y="-57.78" font-family="Times-Roman" font-size="14.00">Normal</text>
</g>
<!-- σ&#45;&gt;lfc -->
<g id="edge23" class="edge">
<title>σ&#45;&gt;lfc</title>
<path fill="none" stroke="black" d="M885.25,-258.68C821.21,-218.98 704.02,-146.31 639.19,-106.12"/>
<polygon fill="black" stroke="black" points="640.75,-102.96 630.4,-100.67 637.06,-108.91 640.75,-102.96"/>
</g>
<!-- h&#45;&gt;μ -->
<g id="edge19" class="edge">
<title>h&#45;&gt;μ</title>
<path fill="none" stroke="black" d="M542.59,-253.44C550.78,-240.31 560.21,-225.19 568.5,-211.92"/>
<polygon fill="black" stroke="black" points="571.69,-213.4 574.02,-203.07 565.75,-209.7 571.69,-213.4"/>
</g>
<!-- d&#45;&gt;μ -->
<g id="edge16" class="edge">
<title>d&#45;&gt;μ</title>
<path fill="none" stroke="black" d="M637.41,-253.44C629.22,-240.31 619.79,-225.19 611.5,-211.92"/>
<polygon fill="black" stroke="black" points="614.25,-209.7 605.98,-203.07 608.31,-213.4 614.25,-209.7"/>
</g>
<!-- μ_a_offset -->
<g id="node19" class="node">
<title>μ_a_offset</title>
<ellipse fill="none" stroke="black" cx="236" cy="-520.34" rx="63.78" ry="37.45"/>
<text text-anchor="middle" x="236" y="-531.64" font-family="Times-Roman" font-size="14.00">μ_a_offset</text>
<text text-anchor="middle" x="236" y="-516.64" font-family="Times-Roman" font-size="14.00">~</text>
<text text-anchor="middle" x="236" y="-501.64" font-family="Times-Roman" font-size="14.00">Normal</text>
</g>
<!-- μ_a_offset&#45;&gt;μ_a -->
<g id="edge10" class="edge">
<title>μ_a_offset&#45;&gt;μ_a</title>
<path fill="none" stroke="black" d="M238.35,-482.75C239.1,-471.02 239.94,-458.03 240.69,-446.34"/>
<polygon fill="black" stroke="black" points="244.2,-446.24 241.35,-436.04 237.22,-445.79 244.2,-446.24"/>
</g>
<!-- a -->
<g id="node22" class="node">
<title>a</title>
<ellipse fill="none" stroke="black" cx="322" cy="-287.43" rx="48.58" ry="37.45"/>
<text text-anchor="middle" x="322" y="-298.73" font-family="Times-Roman" font-size="14.00">a</text>
<text text-anchor="middle" x="322" y="-283.73" font-family="Times-Roman" font-size="14.00">~</text>
<text text-anchor="middle" x="322" y="-268.73" font-family="Times-Roman" font-size="14.00">Normal</text>
</g>
<!-- μ_a&#45;&gt;a -->
<g id="edge14" class="edge">
<title>μ_a&#45;&gt;a</title>
<path fill="none" stroke="black" d="M259.95,-382.65C270.08,-367.27 283.18,-347.37 294.74,-329.82"/>
<polygon fill="black" stroke="black" points="297.69,-331.71 300.27,-321.43 291.84,-327.85 297.69,-331.71"/>
</g>
<!-- σ_a&#45;&gt;a -->
<g id="edge15" class="edge">
<title>σ_a&#45;&gt;a</title>
<path fill="none" stroke="black" d="M92.94,-482.93C104.16,-441.04 129,-373.83 178,-340.91 193.93,-330.2 246.13,-339.91 264,-332.91 270.51,-330.36 276.9,-326.84 282.93,-322.9"/>
<polygon fill="black" stroke="black" points="285.31,-325.5 291.47,-316.88 281.28,-319.78 285.31,-325.5"/>
</g>
<!-- a&#45;&gt;μ -->
<g id="edge17" class="edge">
<title>a&#45;&gt;μ</title>
<path fill="none" stroke="black" d="M361.77,-265.27C389.21,-251.14 426.77,-232.69 461,-218.95 481.26,-210.82 503.79,-203.13 524.27,-196.63"/>
<polygon fill="black" stroke="black" points="525.34,-199.97 533.83,-193.64 523.24,-193.29 525.34,-199.97"/>
</g>
<!-- μ&#45;&gt;lfc -->
<g id="edge22" class="edge">
<title>μ&#45;&gt;lfc</title>
<path fill="none" stroke="black" d="M590.79,-149.71C591.03,-141.89 591.3,-133.03 591.57,-124.27"/>
<polygon fill="black" stroke="black" points="595.07,-124.2 591.88,-114.1 588.07,-123.99 595.07,-124.2"/>
</g>
</g>
</svg>
