<?xml version="1.0" encoding="UTF-8" standalone="no"?>
<!DOCTYPE svg PUBLIC "-//W3C//DTD SVG 1.1//EN"
 "http://www.w3.org/Graphics/SVG/1.1/DTD/svg11.dtd">
<!-- Generated by graphviz version 2.47.0 (20210327.0129)
 -->
<!-- Pages: 1 -->
<svg width="1301pt" height="677pt"
 viewBox="0.00 0.00 1301.30 676.77" xmlns="http://www.w3.org/2000/svg" xmlns:xlink="http://www.w3.org/1999/xlink">
<g id="graph0" class="graph" transform="scale(1 1) rotate(0) translate(4 672.77)">
<polygon fill="white" stroke="transparent" points="-4,4 -4,-672.77 1297.3,-672.77 1297.3,4 -4,4"/>
<g id="clust1" class="cluster">
<title>cluster2</title>
<path fill="none" stroke="black" d="M25.3,-340.91C25.3,-340.91 271.3,-340.91 271.3,-340.91 277.3,-340.91 283.3,-346.91 283.3,-352.91 283.3,-352.91 283.3,-442.86 283.3,-442.86 283.3,-448.86 277.3,-454.86 271.3,-454.86 271.3,-454.86 25.3,-454.86 25.3,-454.86 19.3,-454.86 13.3,-448.86 13.3,-442.86 13.3,-442.86 13.3,-352.91 13.3,-352.91 13.3,-346.91 19.3,-340.91 25.3,-340.91"/>
<text text-anchor="middle" x="270.3" y="-348.71" font-family="Times-Roman" font-size="14.00">2</text>
</g>
<g id="clust2" class="cluster">
<title>cluster4</title>
<path fill="none" stroke="black" d="M181.3,-218.95C181.3,-218.95 427.3,-218.95 427.3,-218.95 433.3,-218.95 439.3,-224.95 439.3,-230.95 439.3,-230.95 439.3,-320.91 439.3,-320.91 439.3,-326.91 433.3,-332.91 427.3,-332.91 427.3,-332.91 181.3,-332.91 181.3,-332.91 175.3,-332.91 169.3,-326.91 169.3,-320.91 169.3,-320.91 169.3,-230.95 169.3,-230.95 169.3,-224.95 175.3,-218.95 181.3,-218.95"/>
<text text-anchor="middle" x="426.3" y="-226.75" font-family="Times-Roman" font-size="14.00">4</text>
</g>
<g id="clust3" class="cluster">
<title>cluster64 x 10</title>
<path fill="none" stroke="black" d="M589.3,-218.95C589.3,-218.95 679.3,-218.95 679.3,-218.95 685.3,-218.95 691.3,-224.95 691.3,-230.95 691.3,-230.95 691.3,-320.91 691.3,-320.91 691.3,-326.91 685.3,-332.91 679.3,-332.91 679.3,-332.91 589.3,-332.91 589.3,-332.91 583.3,-332.91 577.3,-326.91 577.3,-320.91 577.3,-320.91 577.3,-230.95 577.3,-230.95 577.3,-224.95 583.3,-218.95 589.3,-218.95"/>
<text text-anchor="middle" x="656.3" y="-226.75" font-family="Times-Roman" font-size="14.00">64 x 10</text>
</g>
<g id="clust4" class="cluster">
<title>cluster10</title>
<path fill="none" stroke="black" d="M746.3,-218.95C746.3,-218.95 836.3,-218.95 836.3,-218.95 842.3,-218.95 848.3,-224.95 848.3,-230.95 848.3,-230.95 848.3,-320.91 848.3,-320.91 848.3,-326.91 842.3,-332.91 836.3,-332.91 836.3,-332.91 746.3,-332.91 746.3,-332.91 740.3,-332.91 734.3,-326.91 734.3,-320.91 734.3,-320.91 734.3,-230.95 734.3,-230.95 734.3,-224.95 740.3,-218.95 746.3,-218.95"/>
<text text-anchor="middle" x="830.8" y="-226.75" font-family="Times-Roman" font-size="14.00">10</text>
</g>
<g id="clust5" class="cluster">
<title>cluster64</title>
<path fill="none" stroke="black" d="M997.3,-351.88C997.3,-351.88 1273.3,-351.88 1273.3,-351.88 1279.3,-351.88 1285.3,-357.88 1285.3,-363.88 1285.3,-363.88 1285.3,-553.81 1285.3,-553.81 1285.3,-559.81 1279.3,-565.81 1273.3,-565.81 1273.3,-565.81 997.3,-565.81 997.3,-565.81 991.3,-565.81 985.3,-559.81 985.3,-553.81 985.3,-553.81 985.3,-363.88 985.3,-363.88 985.3,-357.88 991.3,-351.88 997.3,-351.88"/>
<text text-anchor="middle" x="1267.8" y="-359.68" font-family="Times-Roman" font-size="14.00">64</text>
</g>
<g id="clust6" class="cluster">
<title>cluster192</title>
<path fill="none" stroke="black" d="M1005.3,-218.95C1005.3,-218.95 1095.3,-218.95 1095.3,-218.95 1101.3,-218.95 1107.3,-224.95 1107.3,-230.95 1107.3,-230.95 1107.3,-320.91 1107.3,-320.91 1107.3,-326.91 1101.3,-332.91 1095.3,-332.91 1095.3,-332.91 1005.3,-332.91 1005.3,-332.91 999.3,-332.91 993.3,-326.91 993.3,-320.91 993.3,-320.91 993.3,-230.95 993.3,-230.95 993.3,-224.95 999.3,-218.95 1005.3,-218.95"/>
<text text-anchor="middle" x="1085.3" y="-226.75" font-family="Times-Roman" font-size="14.00">192</text>
</g>
<g id="clust7" class="cluster">
<title>cluster1,443</title>
<path fill="none" stroke="black" d="M524.3,-8C524.3,-8 628.3,-8 628.3,-8 634.3,-8 640.3,-14 640.3,-20 640.3,-20 640.3,-198.95 640.3,-198.95 640.3,-204.95 634.3,-210.95 628.3,-210.95 628.3,-210.95 524.3,-210.95 524.3,-210.95 518.3,-210.95 512.3,-204.95 512.3,-198.95 512.3,-198.95 512.3,-20 512.3,-20 512.3,-14 518.3,-8 524.3,-8"/>
<text text-anchor="middle" x="611.8" y="-15.8" font-family="Times-Roman" font-size="14.00">1,443</text>
</g>
<!-- σ_σ_j -->
<g id="node1" class="node">
<title>σ_σ_j</title>
<ellipse fill="none" stroke="black" cx="69.3" cy="-520.34" rx="69.09" ry="37.45"/>
<text text-anchor="middle" x="69.3" y="-531.64" font-family="Times-Roman" font-size="14.00">σ_σ_j</text>
<text text-anchor="middle" x="69.3" y="-516.64" font-family="Times-Roman" font-size="14.00">~</text>
<text text-anchor="middle" x="69.3" y="-501.64" font-family="Times-Roman" font-size="14.00">HalfNormal</text>
</g>
<!-- σ_j -->
<g id="node14" class="node">
<title>σ_j</title>
<ellipse fill="none" stroke="black" cx="90.3" cy="-409.38" rx="69.09" ry="37.45"/>
<text text-anchor="middle" x="90.3" y="-420.68" font-family="Times-Roman" font-size="14.00">σ_j</text>
<text text-anchor="middle" x="90.3" y="-405.68" font-family="Times-Roman" font-size="14.00">~</text>
<text text-anchor="middle" x="90.3" y="-390.68" font-family="Times-Roman" font-size="14.00">HalfNormal</text>
</g>
<!-- σ_σ_j&#45;&gt;σ_j -->
<g id="edge3" class="edge">
<title>σ_σ_j&#45;&gt;σ_j</title>
<path fill="none" stroke="black" d="M76.35,-482.75C77.96,-474.4 79.69,-465.42 81.37,-456.71"/>
<polygon fill="black" stroke="black" points="84.84,-457.17 83.3,-446.68 77.97,-455.84 84.84,-457.17"/>
</g>
<!-- σ_h -->
<g id="node2" class="node">
<title>σ_h</title>
<ellipse fill="none" stroke="black" cx="519.3" cy="-409.38" rx="69.09" ry="37.45"/>
<text text-anchor="middle" x="519.3" y="-420.68" font-family="Times-Roman" font-size="14.00">σ_h</text>
<text text-anchor="middle" x="519.3" y="-405.68" font-family="Times-Roman" font-size="14.00">~</text>
<text text-anchor="middle" x="519.3" y="-390.68" font-family="Times-Roman" font-size="14.00">HalfNormal</text>
</g>
<!-- h -->
<g id="node17" class="node">
<title>h</title>
<ellipse fill="none" stroke="black" cx="634.3" cy="-287.43" rx="48.58" ry="37.45"/>
<text text-anchor="middle" x="634.3" y="-298.73" font-family="Times-Roman" font-size="14.00">h</text>
<text text-anchor="middle" x="634.3" y="-283.73" font-family="Times-Roman" font-size="14.00">~</text>
<text text-anchor="middle" x="634.3" y="-268.73" font-family="Times-Roman" font-size="14.00">Normal</text>
</g>
<!-- σ_h&#45;&gt;h -->
<g id="edge6" class="edge">
<title>σ_h&#45;&gt;h</title>
<path fill="none" stroke="black" d="M550.72,-375.61C565.47,-360.23 583.11,-341.82 598.38,-325.89"/>
<polygon fill="black" stroke="black" points="601.27,-327.93 605.67,-318.29 596.22,-323.09 601.27,-327.93"/>
</g>
<!-- σ_d -->
<g id="node3" class="node">
<title>σ_d</title>
<ellipse fill="none" stroke="black" cx="791.3" cy="-409.38" rx="69.09" ry="37.45"/>
<text text-anchor="middle" x="791.3" y="-420.68" font-family="Times-Roman" font-size="14.00">σ_d</text>
<text text-anchor="middle" x="791.3" y="-405.68" font-family="Times-Roman" font-size="14.00">~</text>
<text text-anchor="middle" x="791.3" y="-390.68" font-family="Times-Roman" font-size="14.00">HalfNormal</text>
</g>
<!-- d -->
<g id="node18" class="node">
<title>d</title>
<ellipse fill="none" stroke="black" cx="791.3" cy="-287.43" rx="48.58" ry="37.45"/>
<text text-anchor="middle" x="791.3" y="-298.73" font-family="Times-Roman" font-size="14.00">d</text>
<text text-anchor="middle" x="791.3" y="-283.73" font-family="Times-Roman" font-size="14.00">~</text>
<text text-anchor="middle" x="791.3" y="-268.73" font-family="Times-Roman" font-size="14.00">Normal</text>
</g>
<!-- σ_d&#45;&gt;d -->
<g id="edge9" class="edge">
<title>σ_d&#45;&gt;d</title>
<path fill="none" stroke="black" d="M791.3,-371.74C791.3,-360.34 791.3,-347.6 791.3,-335.58"/>
<polygon fill="black" stroke="black" points="794.8,-335.26 791.3,-325.26 787.8,-335.26 794.8,-335.26"/>
</g>
<!-- i -->
<g id="node4" class="node">
<title>i</title>
<ellipse fill="none" stroke="black" cx="518.3" cy="-287.43" rx="48.58" ry="37.45"/>
<text text-anchor="middle" x="518.3" y="-298.73" font-family="Times-Roman" font-size="14.00">i</text>
<text text-anchor="middle" x="518.3" y="-283.73" font-family="Times-Roman" font-size="14.00">~</text>
<text text-anchor="middle" x="518.3" y="-268.73" font-family="Times-Roman" font-size="14.00">Normal</text>
</g>
<!-- μ -->
<g id="node23" class="node">
<title>μ</title>
<polygon fill="none" stroke="black" points="632.3,-202.95 520.3,-202.95 520.3,-149.95 632.3,-149.95 632.3,-202.95"/>
<text text-anchor="middle" x="576.3" y="-187.75" font-family="Times-Roman" font-size="14.00">μ</text>
<text text-anchor="middle" x="576.3" y="-172.75" font-family="Times-Roman" font-size="14.00">~</text>
<text text-anchor="middle" x="576.3" y="-157.75" font-family="Times-Roman" font-size="14.00">Deterministic</text>
</g>
<!-- i&#45;&gt;μ -->
<g id="edge18" class="edge">
<title>i&#45;&gt;μ</title>
<path fill="none" stroke="black" d="M536.33,-252.55C543.18,-239.68 550.99,-225.01 557.87,-212.07"/>
<polygon fill="black" stroke="black" points="561.09,-213.48 562.7,-203 554.91,-210.19 561.09,-213.48"/>
</g>
<!-- σ_σ_a -->
<g id="node5" class="node">
<title>σ_σ_a</title>
<ellipse fill="none" stroke="black" cx="1208.3" cy="-631.29" rx="69.09" ry="37.45"/>
<text text-anchor="middle" x="1208.3" y="-642.59" font-family="Times-Roman" font-size="14.00">σ_σ_a</text>
<text text-anchor="middle" x="1208.3" y="-627.59" font-family="Times-Roman" font-size="14.00">~</text>
<text text-anchor="middle" x="1208.3" y="-612.59" font-family="Times-Roman" font-size="14.00">HalfNormal</text>
</g>
<!-- σ_a -->
<g id="node20" class="node">
<title>σ_a</title>
<ellipse fill="none" stroke="black" cx="1208.3" cy="-520.34" rx="69.09" ry="37.45"/>
<text text-anchor="middle" x="1208.3" y="-531.64" font-family="Times-Roman" font-size="14.00">σ_a</text>
<text text-anchor="middle" x="1208.3" y="-516.64" font-family="Times-Roman" font-size="14.00">~</text>
<text text-anchor="middle" x="1208.3" y="-501.64" font-family="Times-Roman" font-size="14.00">HalfNormal</text>
</g>
<!-- σ_σ_a&#45;&gt;σ_a -->
<g id="edge13" class="edge">
<title>σ_σ_a&#45;&gt;σ_a</title>
<path fill="none" stroke="black" d="M1208.3,-593.71C1208.3,-585.53 1208.3,-576.75 1208.3,-568.23"/>
<polygon fill="black" stroke="black" points="1211.8,-568.01 1208.3,-558.01 1204.8,-568.01 1211.8,-568.01"/>
</g>
<!-- μ_μ_j -->
<g id="node6" class="node">
<title>μ_μ_j</title>
<ellipse fill="none" stroke="black" cx="362.3" cy="-520.34" rx="48.58" ry="37.45"/>
<text text-anchor="middle" x="362.3" y="-531.64" font-family="Times-Roman" font-size="14.00">μ_μ_j</text>
<text text-anchor="middle" x="362.3" y="-516.64" font-family="Times-Roman" font-size="14.00">~</text>
<text text-anchor="middle" x="362.3" y="-501.64" font-family="Times-Roman" font-size="14.00">Normal</text>
</g>
<!-- μ_j -->
<g id="node13" class="node">
<title>μ_j</title>
<ellipse fill="none" stroke="black" cx="226.3" cy="-409.38" rx="48.58" ry="37.45"/>
<text text-anchor="middle" x="226.3" y="-420.68" font-family="Times-Roman" font-size="14.00">μ_j</text>
<text text-anchor="middle" x="226.3" y="-405.68" font-family="Times-Roman" font-size="14.00">~</text>
<text text-anchor="middle" x="226.3" y="-390.68" font-family="Times-Roman" font-size="14.00">Normal</text>
</g>
<!-- μ_μ_j&#45;&gt;μ_j -->
<g id="edge1" class="edge">
<title>μ_μ_j&#45;&gt;μ_j</title>
<path fill="none" stroke="black" d="M329.03,-492.68C310.5,-477.84 287.28,-459.24 267.6,-443.48"/>
<polygon fill="black" stroke="black" points="269.69,-440.66 259.69,-437.14 265.31,-446.12 269.69,-440.66"/>
</g>
<!-- μ_μ_a -->
<g id="node7" class="node">
<title>μ_μ_a</title>
<ellipse fill="none" stroke="black" cx="770.3" cy="-520.34" rx="48.58" ry="37.45"/>
<text text-anchor="middle" x="770.3" y="-531.64" font-family="Times-Roman" font-size="14.00">μ_μ_a</text>
<text text-anchor="middle" x="770.3" y="-516.64" font-family="Times-Roman" font-size="14.00">~</text>
<text text-anchor="middle" x="770.3" y="-501.64" font-family="Times-Roman" font-size="14.00">Normal</text>
</g>
<!-- μ_a -->
<g id="node21" class="node">
<title>μ_a</title>
<polygon fill="none" stroke="black" points="1106.3,-435.88 994.3,-435.88 994.3,-382.88 1106.3,-382.88 1106.3,-435.88"/>
<text text-anchor="middle" x="1050.3" y="-420.68" font-family="Times-Roman" font-size="14.00">μ_a</text>
<text text-anchor="middle" x="1050.3" y="-405.68" font-family="Times-Roman" font-size="14.00">~</text>
<text text-anchor="middle" x="1050.3" y="-390.68" font-family="Times-Roman" font-size="14.00">Deterministic</text>
</g>
<!-- μ_μ_a&#45;&gt;μ_a -->
<g id="edge10" class="edge">
<title>μ_μ_a&#45;&gt;μ_a</title>
<path fill="none" stroke="black" d="M805.67,-494.12C812.9,-489.83 820.64,-485.82 828.3,-482.86 894.41,-457.3 919.69,-481.69 985.3,-454.86 993.85,-451.36 1002.41,-446.61 1010.39,-441.52"/>
<polygon fill="black" stroke="black" points="1012.42,-444.37 1018.78,-435.89 1008.53,-438.55 1012.42,-444.37"/>
</g>
<!-- σ_σ -->
<g id="node8" class="node">
<title>σ_σ</title>
<ellipse fill="none" stroke="black" cx="362.3" cy="-409.38" rx="69.09" ry="37.45"/>
<text text-anchor="middle" x="362.3" y="-420.68" font-family="Times-Roman" font-size="14.00">σ_σ</text>
<text text-anchor="middle" x="362.3" y="-405.68" font-family="Times-Roman" font-size="14.00">~</text>
<text text-anchor="middle" x="362.3" y="-390.68" font-family="Times-Roman" font-size="14.00">HalfNormal</text>
</g>
<!-- σ -->
<g id="node15" class="node">
<title>σ</title>
<ellipse fill="none" stroke="black" cx="362.3" cy="-287.43" rx="69.09" ry="37.45"/>
<text text-anchor="middle" x="362.3" y="-298.73" font-family="Times-Roman" font-size="14.00">σ</text>
<text text-anchor="middle" x="362.3" y="-283.73" font-family="Times-Roman" font-size="14.00">~</text>
<text text-anchor="middle" x="362.3" y="-268.73" font-family="Times-Roman" font-size="14.00">HalfNormal</text>
</g>
<!-- σ_σ&#45;&gt;σ -->
<g id="edge21" class="edge">
<title>σ_σ&#45;&gt;σ</title>
<path fill="none" stroke="black" d="M362.3,-371.74C362.3,-360.34 362.3,-347.6 362.3,-335.58"/>
<polygon fill="black" stroke="black" points="365.8,-335.26 362.3,-325.26 358.8,-335.26 365.8,-335.26"/>
</g>
<!-- σ_μ_j -->
<g id="node9" class="node">
<title>σ_μ_j</title>
<ellipse fill="none" stroke="black" cx="226.3" cy="-520.34" rx="69.09" ry="37.45"/>
<text text-anchor="middle" x="226.3" y="-531.64" font-family="Times-Roman" font-size="14.00">σ_μ_j</text>
<text text-anchor="middle" x="226.3" y="-516.64" font-family="Times-Roman" font-size="14.00">~</text>
<text text-anchor="middle" x="226.3" y="-501.64" font-family="Times-Roman" font-size="14.00">HalfNormal</text>
</g>
<!-- σ_μ_j&#45;&gt;μ_j -->
<g id="edge2" class="edge">
<title>σ_μ_j&#45;&gt;μ_j</title>
<path fill="none" stroke="black" d="M226.3,-482.75C226.3,-474.58 226.3,-465.8 226.3,-457.27"/>
<polygon fill="black" stroke="black" points="229.8,-457.06 226.3,-447.06 222.8,-457.06 229.8,-457.06"/>
</g>
<!-- σ_μ_a -->
<g id="node10" class="node">
<title>σ_μ_a</title>
<ellipse fill="none" stroke="black" cx="906.3" cy="-520.34" rx="69.09" ry="37.45"/>
<text text-anchor="middle" x="906.3" y="-531.64" font-family="Times-Roman" font-size="14.00">σ_μ_a</text>
<text text-anchor="middle" x="906.3" y="-516.64" font-family="Times-Roman" font-size="14.00">~</text>
<text text-anchor="middle" x="906.3" y="-501.64" font-family="Times-Roman" font-size="14.00">HalfNormal</text>
</g>
<!-- σ_μ_a&#45;&gt;μ_a -->
<g id="edge11" class="edge">
<title>σ_μ_a&#45;&gt;μ_a</title>
<path fill="none" stroke="black" d="M946.03,-489.28C965.4,-474.62 988.71,-456.98 1008.37,-442.11"/>
<polygon fill="black" stroke="black" points="1010.69,-444.74 1016.55,-435.92 1006.46,-439.16 1010.69,-444.74"/>
</g>
<!-- μ_h -->
<g id="node11" class="node">
<title>μ_h</title>
<ellipse fill="none" stroke="black" cx="655.3" cy="-409.38" rx="48.58" ry="37.45"/>
<text text-anchor="middle" x="655.3" y="-420.68" font-family="Times-Roman" font-size="14.00">μ_h</text>
<text text-anchor="middle" x="655.3" y="-405.68" font-family="Times-Roman" font-size="14.00">~</text>
<text text-anchor="middle" x="655.3" y="-390.68" font-family="Times-Roman" font-size="14.00">Normal</text>
</g>
<!-- μ_h&#45;&gt;h -->
<g id="edge7" class="edge">
<title>μ_h&#45;&gt;h</title>
<path fill="none" stroke="black" d="M648.94,-372.07C646.88,-360.32 644.57,-347.14 642.41,-334.77"/>
<polygon fill="black" stroke="black" points="645.8,-333.87 640.63,-324.62 638.91,-335.08 645.8,-333.87"/>
</g>
<!-- μ_d -->
<g id="node12" class="node">
<title>μ_d</title>
<ellipse fill="none" stroke="black" cx="927.3" cy="-409.38" rx="48.58" ry="37.45"/>
<text text-anchor="middle" x="927.3" y="-420.68" font-family="Times-Roman" font-size="14.00">μ_d</text>
<text text-anchor="middle" x="927.3" y="-405.68" font-family="Times-Roman" font-size="14.00">~</text>
<text text-anchor="middle" x="927.3" y="-390.68" font-family="Times-Roman" font-size="14.00">Normal</text>
</g>
<!-- μ_d&#45;&gt;d -->
<g id="edge8" class="edge">
<title>μ_d&#45;&gt;d</title>
<path fill="none" stroke="black" d="M902.94,-376.55C893.13,-364.72 881.31,-351.58 869.3,-340.91 859.67,-332.35 848.57,-324.09 837.81,-316.74"/>
<polygon fill="black" stroke="black" points="839.56,-313.7 829.3,-311.06 835.68,-319.52 839.56,-313.7"/>
</g>
<!-- j -->
<g id="node16" class="node">
<title>j</title>
<ellipse fill="none" stroke="black" cx="226.3" cy="-287.43" rx="48.58" ry="37.45"/>
<text text-anchor="middle" x="226.3" y="-298.73" font-family="Times-Roman" font-size="14.00">j</text>
<text text-anchor="middle" x="226.3" y="-283.73" font-family="Times-Roman" font-size="14.00">~</text>
<text text-anchor="middle" x="226.3" y="-268.73" font-family="Times-Roman" font-size="14.00">Normal</text>
</g>
<!-- μ_j&#45;&gt;j -->
<g id="edge4" class="edge">
<title>μ_j&#45;&gt;j</title>
<path fill="none" stroke="black" d="M226.3,-371.74C226.3,-360.34 226.3,-347.6 226.3,-335.58"/>
<polygon fill="black" stroke="black" points="229.8,-335.26 226.3,-325.26 222.8,-335.26 229.8,-335.26"/>
</g>
<!-- σ_j&#45;&gt;j -->
<g id="edge5" class="edge">
<title>σ_j&#45;&gt;j</title>
<path fill="none" stroke="black" d="M126.03,-376.87C144.7,-360.39 167.61,-340.19 186.81,-323.26"/>
<polygon fill="black" stroke="black" points="189.33,-325.7 194.51,-316.46 184.7,-320.45 189.33,-325.7"/>
</g>
<!-- lfc -->
<g id="node24" class="node">
<title>lfc</title>
<ellipse fill="lightgrey" stroke="black" cx="572.3" cy="-76.48" rx="48.58" ry="37.45"/>
<text text-anchor="middle" x="572.3" y="-87.78" font-family="Times-Roman" font-size="14.00">lfc</text>
<text text-anchor="middle" x="572.3" y="-72.78" font-family="Times-Roman" font-size="14.00">~</text>
<text text-anchor="middle" x="572.3" y="-57.78" font-family="Times-Roman" font-size="14.00">Normal</text>
</g>
<!-- σ&#45;&gt;lfc -->
<g id="edge23" class="edge">
<title>σ&#45;&gt;lfc</title>
<path fill="none" stroke="black" d="M394.65,-254.24C432.77,-216.3 495.96,-153.43 535.8,-113.79"/>
<polygon fill="black" stroke="black" points="538.34,-116.2 542.96,-106.67 533.4,-111.24 538.34,-116.2"/>
</g>
<!-- j&#45;&gt;μ -->
<g id="edge17" class="edge">
<title>j&#45;&gt;μ</title>
<path fill="none" stroke="black" d="M247.1,-253.23C256.82,-240.47 269.53,-227.04 284.3,-218.95 322.04,-198.28 436.11,-186.87 510,-181.46"/>
<polygon fill="black" stroke="black" points="510.42,-184.94 520.15,-180.74 509.93,-177.96 510.42,-184.94"/>
</g>
<!-- h&#45;&gt;μ -->
<g id="edge16" class="edge">
<title>h&#45;&gt;μ</title>
<path fill="none" stroke="black" d="M616.26,-252.55C609.41,-239.68 601.6,-225.01 594.72,-212.07"/>
<polygon fill="black" stroke="black" points="597.68,-210.19 589.89,-203 591.5,-213.48 597.68,-210.19"/>
</g>
<!-- d&#45;&gt;μ -->
<g id="edge19" class="edge">
<title>d&#45;&gt;μ</title>
<path fill="none" stroke="black" d="M758.1,-259.65C740.25,-246.16 717.41,-230.3 695.3,-218.95 678.63,-210.4 659.79,-202.92 642.11,-196.76"/>
<polygon fill="black" stroke="black" points="643.01,-193.37 632.42,-193.48 640.77,-200 643.01,-193.37"/>
</g>
<!-- μ_a_offset -->
<g id="node19" class="node">
<title>μ_a_offset</title>
<ellipse fill="none" stroke="black" cx="1057.3" cy="-520.34" rx="63.78" ry="37.45"/>
<text text-anchor="middle" x="1057.3" y="-531.64" font-family="Times-Roman" font-size="14.00">μ_a_offset</text>
<text text-anchor="middle" x="1057.3" y="-516.64" font-family="Times-Roman" font-size="14.00">~</text>
<text text-anchor="middle" x="1057.3" y="-501.64" font-family="Times-Roman" font-size="14.00">Normal</text>
</g>
<!-- μ_a_offset&#45;&gt;μ_a -->
<g id="edge12" class="edge">
<title>μ_a_offset&#45;&gt;μ_a</title>
<path fill="none" stroke="black" d="M1054.95,-482.75C1054.19,-471.02 1053.36,-458.03 1052.61,-446.34"/>
<polygon fill="black" stroke="black" points="1056.08,-445.79 1051.94,-436.04 1049.09,-446.24 1056.08,-445.79"/>
</g>
<!-- a -->
<g id="node22" class="node">
<title>a</title>
<ellipse fill="none" stroke="black" cx="1050.3" cy="-287.43" rx="48.58" ry="37.45"/>
<text text-anchor="middle" x="1050.3" y="-298.73" font-family="Times-Roman" font-size="14.00">a</text>
<text text-anchor="middle" x="1050.3" y="-283.73" font-family="Times-Roman" font-size="14.00">~</text>
<text text-anchor="middle" x="1050.3" y="-268.73" font-family="Times-Roman" font-size="14.00">Normal</text>
</g>
<!-- σ_a&#45;&gt;a -->
<g id="edge15" class="edge">
<title>σ_a&#45;&gt;a</title>
<path fill="none" stroke="black" d="M1194.67,-483.25C1179.21,-445.26 1151.37,-384.96 1115.3,-340.91 1109.16,-333.41 1101.79,-326.25 1094.26,-319.76"/>
<polygon fill="black" stroke="black" points="1096.02,-316.67 1086.08,-313 1091.56,-322.07 1096.02,-316.67"/>
</g>
<!-- μ_a&#45;&gt;a -->
<g id="edge14" class="edge">
<title>μ_a&#45;&gt;a</title>
<path fill="none" stroke="black" d="M1050.3,-382.65C1050.3,-368.87 1050.3,-351.47 1050.3,-335.38"/>
<polygon fill="black" stroke="black" points="1053.8,-335.04 1050.3,-325.04 1046.8,-335.04 1053.8,-335.04"/>
</g>
<!-- a&#45;&gt;μ -->
<g id="edge20" class="edge">
<title>a&#45;&gt;μ</title>
<path fill="none" stroke="black" d="M1007.31,-269.28C967.64,-254.06 906.81,-232.23 852.3,-218.95 781.6,-201.74 698.89,-190.44 642.57,-184.04"/>
<polygon fill="black" stroke="black" points="642.7,-180.53 632.37,-182.9 641.92,-187.49 642.7,-180.53"/>
</g>
<!-- μ&#45;&gt;lfc -->
<g id="edge22" class="edge">
<title>μ&#45;&gt;lfc</title>
<path fill="none" stroke="black" d="M575.25,-149.71C574.93,-141.89 574.56,-133.03 574.21,-124.27"/>
<polygon fill="black" stroke="black" points="577.7,-123.95 573.79,-114.1 570.7,-124.23 577.7,-123.95"/>
</g>
</g>
</svg>
