<?xml version="1.0" encoding="UTF-8" standalone="no"?>
<!DOCTYPE svg PUBLIC "-//W3C//DTD SVG 1.1//EN"
 "http://www.w3.org/Graphics/SVG/1.1/DTD/svg11.dtd">
<!-- Generated by graphviz version 2.47.0 (20210327.0129)
 -->
<!-- Pages: 1 -->
<svg width="1277pt" height="677pt"
 viewBox="0.00 0.00 1276.79 676.77" xmlns="http://www.w3.org/2000/svg" xmlns:xlink="http://www.w3.org/1999/xlink">
<g id="graph0" class="graph" transform="scale(1 1) rotate(0) translate(4 672.77)">
<polygon fill="white" stroke="transparent" points="-4,4 -4,-672.77 1272.79,-672.77 1272.79,4 -4,4"/>
<g id="clust1" class="cluster">
<title>cluster2</title>
<path fill="none" stroke="black" d="M1002.79,-340.91C1002.79,-340.91 1248.79,-340.91 1248.79,-340.91 1254.79,-340.91 1260.79,-346.91 1260.79,-352.91 1260.79,-352.91 1260.79,-442.86 1260.79,-442.86 1260.79,-448.86 1254.79,-454.86 1248.79,-454.86 1248.79,-454.86 1002.79,-454.86 1002.79,-454.86 996.79,-454.86 990.79,-448.86 990.79,-442.86 990.79,-442.86 990.79,-352.91 990.79,-352.91 990.79,-346.91 996.79,-340.91 1002.79,-340.91"/>
<text text-anchor="middle" x="1247.79" y="-348.71" font-family="Times-Roman" font-size="14.00">2</text>
</g>
<g id="clust2" class="cluster">
<title>cluster4</title>
<path fill="none" stroke="black" d="M846.79,-218.95C846.79,-218.95 1092.79,-218.95 1092.79,-218.95 1098.79,-218.95 1104.79,-224.95 1104.79,-230.95 1104.79,-230.95 1104.79,-320.91 1104.79,-320.91 1104.79,-326.91 1098.79,-332.91 1092.79,-332.91 1092.79,-332.91 846.79,-332.91 846.79,-332.91 840.79,-332.91 834.79,-326.91 834.79,-320.91 834.79,-320.91 834.79,-230.95 834.79,-230.95 834.79,-224.95 840.79,-218.95 846.79,-218.95"/>
<text text-anchor="middle" x="1091.79" y="-226.75" font-family="Times-Roman" font-size="14.00">4</text>
</g>
<g id="clust3" class="cluster">
<title>cluster64 x 10</title>
<path fill="none" stroke="black" d="M225.79,-218.95C225.79,-218.95 315.79,-218.95 315.79,-218.95 321.79,-218.95 327.79,-224.95 327.79,-230.95 327.79,-230.95 327.79,-320.91 327.79,-320.91 327.79,-326.91 321.79,-332.91 315.79,-332.91 315.79,-332.91 225.79,-332.91 225.79,-332.91 219.79,-332.91 213.79,-326.91 213.79,-320.91 213.79,-320.91 213.79,-230.95 213.79,-230.95 213.79,-224.95 219.79,-218.95 225.79,-218.95"/>
<text text-anchor="middle" x="292.79" y="-226.75" font-family="Times-Roman" font-size="14.00">64 x 10</text>
</g>
<g id="clust4" class="cluster">
<title>cluster10</title>
<path fill="none" stroke="black" d="M432.79,-218.95C432.79,-218.95 522.79,-218.95 522.79,-218.95 528.79,-218.95 534.79,-224.95 534.79,-230.95 534.79,-230.95 534.79,-320.91 534.79,-320.91 534.79,-326.91 528.79,-332.91 522.79,-332.91 522.79,-332.91 432.79,-332.91 432.79,-332.91 426.79,-332.91 420.79,-326.91 420.79,-320.91 420.79,-320.91 420.79,-230.95 420.79,-230.95 420.79,-224.95 426.79,-218.95 432.79,-218.95"/>
<text text-anchor="middle" x="517.29" y="-226.75" font-family="Times-Roman" font-size="14.00">10</text>
</g>
<g id="clust5" class="cluster">
<title>cluster64</title>
<path fill="none" stroke="black" d="M546.79,-351.88C546.79,-351.88 822.79,-351.88 822.79,-351.88 828.79,-351.88 834.79,-357.88 834.79,-363.88 834.79,-363.88 834.79,-553.81 834.79,-553.81 834.79,-559.81 828.79,-565.81 822.79,-565.81 822.79,-565.81 546.79,-565.81 546.79,-565.81 540.79,-565.81 534.79,-559.81 534.79,-553.81 534.79,-553.81 534.79,-363.88 534.79,-363.88 534.79,-357.88 540.79,-351.88 546.79,-351.88"/>
<text text-anchor="middle" x="817.29" y="-359.68" font-family="Times-Roman" font-size="14.00">64</text>
</g>
<g id="clust6" class="cluster">
<title>cluster192</title>
<path fill="none" stroke="black" d="M555.79,-218.95C555.79,-218.95 645.79,-218.95 645.79,-218.95 651.79,-218.95 657.79,-224.95 657.79,-230.95 657.79,-230.95 657.79,-320.91 657.79,-320.91 657.79,-326.91 651.79,-332.91 645.79,-332.91 645.79,-332.91 555.79,-332.91 555.79,-332.91 549.79,-332.91 543.79,-326.91 543.79,-320.91 543.79,-320.91 543.79,-230.95 543.79,-230.95 543.79,-224.95 549.79,-218.95 555.79,-218.95"/>
<text text-anchor="middle" x="635.79" y="-226.75" font-family="Times-Roman" font-size="14.00">192</text>
</g>
<g id="clust7" class="cluster">
<title>cluster1,443</title>
<path fill="none" stroke="black" d="M486.79,-8C486.79,-8 590.79,-8 590.79,-8 596.79,-8 602.79,-14 602.79,-20 602.79,-20 602.79,-198.95 602.79,-198.95 602.79,-204.95 596.79,-210.95 590.79,-210.95 590.79,-210.95 486.79,-210.95 486.79,-210.95 480.79,-210.95 474.79,-204.95 474.79,-198.95 474.79,-198.95 474.79,-20 474.79,-20 474.79,-14 480.79,-8 486.79,-8"/>
<text text-anchor="middle" x="574.29" y="-15.8" font-family="Times-Roman" font-size="14.00">1,443</text>
</g>
<!-- μ_h -->
<g id="node1" class="node">
<title>μ_h</title>
<ellipse fill="none" stroke="black" cx="48.79" cy="-409.38" rx="48.58" ry="37.45"/>
<text text-anchor="middle" x="48.79" y="-420.68" font-family="Times-Roman" font-size="14.00">μ_h</text>
<text text-anchor="middle" x="48.79" y="-405.68" font-family="Times-Roman" font-size="14.00">~</text>
<text text-anchor="middle" x="48.79" y="-390.68" font-family="Times-Roman" font-size="14.00">Normal</text>
</g>
<!-- h -->
<g id="node17" class="node">
<title>h</title>
<ellipse fill="none" stroke="black" cx="270.79" cy="-287.43" rx="48.58" ry="37.45"/>
<text text-anchor="middle" x="270.79" y="-298.73" font-family="Times-Roman" font-size="14.00">h</text>
<text text-anchor="middle" x="270.79" y="-283.73" font-family="Times-Roman" font-size="14.00">~</text>
<text text-anchor="middle" x="270.79" y="-268.73" font-family="Times-Roman" font-size="14.00">Normal</text>
</g>
<!-- μ_h&#45;&gt;h -->
<g id="edge6" class="edge">
<title>μ_h&#45;&gt;h</title>
<path fill="none" stroke="black" d="M69.07,-375.06C78.78,-362.11 91.63,-348.57 106.79,-340.91 148.95,-319.59 168.65,-349.76 212.79,-332.91 219.32,-330.41 225.73,-326.93 231.76,-323.01"/>
<polygon fill="black" stroke="black" points="234.14,-325.61 240.3,-317 230.11,-319.89 234.14,-325.61"/>
</g>
<!-- μ_μ_j -->
<g id="node2" class="node">
<title>μ_μ_j</title>
<ellipse fill="none" stroke="black" cx="1050.79" cy="-520.34" rx="48.58" ry="37.45"/>
<text text-anchor="middle" x="1050.79" y="-531.64" font-family="Times-Roman" font-size="14.00">μ_μ_j</text>
<text text-anchor="middle" x="1050.79" y="-516.64" font-family="Times-Roman" font-size="14.00">~</text>
<text text-anchor="middle" x="1050.79" y="-501.64" font-family="Times-Roman" font-size="14.00">Normal</text>
</g>
<!-- μ_j -->
<g id="node14" class="node">
<title>μ_j</title>
<ellipse fill="none" stroke="black" cx="1047.79" cy="-409.38" rx="48.58" ry="37.45"/>
<text text-anchor="middle" x="1047.79" y="-420.68" font-family="Times-Roman" font-size="14.00">μ_j</text>
<text text-anchor="middle" x="1047.79" y="-405.68" font-family="Times-Roman" font-size="14.00">~</text>
<text text-anchor="middle" x="1047.79" y="-390.68" font-family="Times-Roman" font-size="14.00">Normal</text>
</g>
<!-- μ_μ_j&#45;&gt;μ_j -->
<g id="edge1" class="edge">
<title>μ_μ_j&#45;&gt;μ_j</title>
<path fill="none" stroke="black" d="M1049.78,-482.75C1049.56,-474.58 1049.32,-465.8 1049.08,-457.27"/>
<polygon fill="black" stroke="black" points="1052.57,-456.96 1048.8,-447.06 1045.58,-457.15 1052.57,-456.96"/>
</g>
<!-- σ_σ_a -->
<g id="node3" class="node">
<title>σ_σ_a</title>
<ellipse fill="none" stroke="black" cx="757.79" cy="-631.29" rx="69.09" ry="37.45"/>
<text text-anchor="middle" x="757.79" y="-642.59" font-family="Times-Roman" font-size="14.00">σ_σ_a</text>
<text text-anchor="middle" x="757.79" y="-627.59" font-family="Times-Roman" font-size="14.00">~</text>
<text text-anchor="middle" x="757.79" y="-612.59" font-family="Times-Roman" font-size="14.00">HalfNormal</text>
</g>
<!-- σ_a -->
<g id="node21" class="node">
<title>σ_a</title>
<ellipse fill="none" stroke="black" cx="757.79" cy="-520.34" rx="69.09" ry="37.45"/>
<text text-anchor="middle" x="757.79" y="-531.64" font-family="Times-Roman" font-size="14.00">σ_a</text>
<text text-anchor="middle" x="757.79" y="-516.64" font-family="Times-Roman" font-size="14.00">~</text>
<text text-anchor="middle" x="757.79" y="-501.64" font-family="Times-Roman" font-size="14.00">HalfNormal</text>
</g>
<!-- σ_σ_a&#45;&gt;σ_a -->
<g id="edge13" class="edge">
<title>σ_σ_a&#45;&gt;σ_a</title>
<path fill="none" stroke="black" d="M757.79,-593.71C757.79,-585.53 757.79,-576.75 757.79,-568.23"/>
<polygon fill="black" stroke="black" points="761.29,-568.01 757.79,-558.01 754.29,-568.01 761.29,-568.01"/>
</g>
<!-- σ_σ_j -->
<g id="node4" class="node">
<title>σ_σ_j</title>
<ellipse fill="none" stroke="black" cx="1186.79" cy="-520.34" rx="69.09" ry="37.45"/>
<text text-anchor="middle" x="1186.79" y="-531.64" font-family="Times-Roman" font-size="14.00">σ_σ_j</text>
<text text-anchor="middle" x="1186.79" y="-516.64" font-family="Times-Roman" font-size="14.00">~</text>
<text text-anchor="middle" x="1186.79" y="-501.64" font-family="Times-Roman" font-size="14.00">HalfNormal</text>
</g>
<!-- σ_j -->
<g id="node13" class="node">
<title>σ_j</title>
<ellipse fill="none" stroke="black" cx="1183.79" cy="-409.38" rx="69.09" ry="37.45"/>
<text text-anchor="middle" x="1183.79" y="-420.68" font-family="Times-Roman" font-size="14.00">σ_j</text>
<text text-anchor="middle" x="1183.79" y="-405.68" font-family="Times-Roman" font-size="14.00">~</text>
<text text-anchor="middle" x="1183.79" y="-390.68" font-family="Times-Roman" font-size="14.00">HalfNormal</text>
</g>
<!-- σ_σ_j&#45;&gt;σ_j -->
<g id="edge3" class="edge">
<title>σ_σ_j&#45;&gt;σ_j</title>
<path fill="none" stroke="black" d="M1185.78,-482.75C1185.56,-474.58 1185.32,-465.8 1185.08,-457.27"/>
<polygon fill="black" stroke="black" points="1188.57,-456.96 1184.8,-447.06 1181.58,-457.15 1188.57,-456.96"/>
</g>
<!-- σ_μ_a -->
<g id="node5" class="node">
<title>σ_μ_a</title>
<ellipse fill="none" stroke="black" cx="455.79" cy="-520.34" rx="69.09" ry="37.45"/>
<text text-anchor="middle" x="455.79" y="-531.64" font-family="Times-Roman" font-size="14.00">σ_μ_a</text>
<text text-anchor="middle" x="455.79" y="-516.64" font-family="Times-Roman" font-size="14.00">~</text>
<text text-anchor="middle" x="455.79" y="-501.64" font-family="Times-Roman" font-size="14.00">HalfNormal</text>
</g>
<!-- μ_a -->
<g id="node19" class="node">
<title>μ_a</title>
<polygon fill="none" stroke="black" points="656.79,-435.88 544.79,-435.88 544.79,-382.88 656.79,-382.88 656.79,-435.88"/>
<text text-anchor="middle" x="600.79" y="-420.68" font-family="Times-Roman" font-size="14.00">μ_a</text>
<text text-anchor="middle" x="600.79" y="-405.68" font-family="Times-Roman" font-size="14.00">~</text>
<text text-anchor="middle" x="600.79" y="-390.68" font-family="Times-Roman" font-size="14.00">Deterministic</text>
</g>
<!-- σ_μ_a&#45;&gt;μ_a -->
<g id="edge12" class="edge">
<title>σ_μ_a&#45;&gt;μ_a</title>
<path fill="none" stroke="black" d="M495.41,-489.56C515.02,-474.83 538.69,-457.05 558.63,-442.07"/>
<polygon fill="black" stroke="black" points="560.74,-444.85 566.63,-436.05 556.54,-439.26 560.74,-444.85"/>
</g>
<!-- σ_σ -->
<g id="node6" class="node">
<title>σ_σ</title>
<ellipse fill="none" stroke="black" cx="911.79" cy="-409.38" rx="69.09" ry="37.45"/>
<text text-anchor="middle" x="911.79" y="-420.68" font-family="Times-Roman" font-size="14.00">σ_σ</text>
<text text-anchor="middle" x="911.79" y="-405.68" font-family="Times-Roman" font-size="14.00">~</text>
<text text-anchor="middle" x="911.79" y="-390.68" font-family="Times-Roman" font-size="14.00">HalfNormal</text>
</g>
<!-- σ -->
<g id="node16" class="node">
<title>σ</title>
<ellipse fill="none" stroke="black" cx="911.79" cy="-287.43" rx="69.09" ry="37.45"/>
<text text-anchor="middle" x="911.79" y="-298.73" font-family="Times-Roman" font-size="14.00">σ</text>
<text text-anchor="middle" x="911.79" y="-283.73" font-family="Times-Roman" font-size="14.00">~</text>
<text text-anchor="middle" x="911.79" y="-268.73" font-family="Times-Roman" font-size="14.00">HalfNormal</text>
</g>
<!-- σ_σ&#45;&gt;σ -->
<g id="edge21" class="edge">
<title>σ_σ&#45;&gt;σ</title>
<path fill="none" stroke="black" d="M911.79,-371.74C911.79,-360.34 911.79,-347.6 911.79,-335.58"/>
<polygon fill="black" stroke="black" points="915.29,-335.26 911.79,-325.26 908.29,-335.26 915.29,-335.26"/>
</g>
<!-- σ_d -->
<g id="node7" class="node">
<title>σ_d</title>
<ellipse fill="none" stroke="black" cx="341.79" cy="-409.38" rx="69.09" ry="37.45"/>
<text text-anchor="middle" x="341.79" y="-420.68" font-family="Times-Roman" font-size="14.00">σ_d</text>
<text text-anchor="middle" x="341.79" y="-405.68" font-family="Times-Roman" font-size="14.00">~</text>
<text text-anchor="middle" x="341.79" y="-390.68" font-family="Times-Roman" font-size="14.00">HalfNormal</text>
</g>
<!-- d -->
<g id="node18" class="node">
<title>d</title>
<ellipse fill="none" stroke="black" cx="477.79" cy="-287.43" rx="48.58" ry="37.45"/>
<text text-anchor="middle" x="477.79" y="-298.73" font-family="Times-Roman" font-size="14.00">d</text>
<text text-anchor="middle" x="477.79" y="-283.73" font-family="Times-Roman" font-size="14.00">~</text>
<text text-anchor="middle" x="477.79" y="-268.73" font-family="Times-Roman" font-size="14.00">Normal</text>
</g>
<!-- σ_d&#45;&gt;d -->
<g id="edge9" class="edge">
<title>σ_d&#45;&gt;d</title>
<path fill="none" stroke="black" d="M377.52,-376.87C396.2,-360.39 419.1,-340.19 438.3,-323.26"/>
<polygon fill="black" stroke="black" points="440.82,-325.7 446.01,-316.46 436.19,-320.45 440.82,-325.7"/>
</g>
<!-- σ_μ_j -->
<g id="node8" class="node">
<title>σ_μ_j</title>
<ellipse fill="none" stroke="black" cx="914.79" cy="-520.34" rx="69.09" ry="37.45"/>
<text text-anchor="middle" x="914.79" y="-531.64" font-family="Times-Roman" font-size="14.00">σ_μ_j</text>
<text text-anchor="middle" x="914.79" y="-516.64" font-family="Times-Roman" font-size="14.00">~</text>
<text text-anchor="middle" x="914.79" y="-501.64" font-family="Times-Roman" font-size="14.00">HalfNormal</text>
</g>
<!-- σ_μ_j&#45;&gt;μ_j -->
<g id="edge2" class="edge">
<title>σ_μ_j&#45;&gt;μ_j</title>
<path fill="none" stroke="black" d="M952.19,-488.7C969.25,-474.72 989.49,-458.15 1006.94,-443.85"/>
<polygon fill="black" stroke="black" points="1009.23,-446.5 1014.74,-437.46 1004.79,-441.09 1009.23,-446.5"/>
</g>
<!-- σ_h -->
<g id="node9" class="node">
<title>σ_h</title>
<ellipse fill="none" stroke="black" cx="184.79" cy="-409.38" rx="69.09" ry="37.45"/>
<text text-anchor="middle" x="184.79" y="-420.68" font-family="Times-Roman" font-size="14.00">σ_h</text>
<text text-anchor="middle" x="184.79" y="-405.68" font-family="Times-Roman" font-size="14.00">~</text>
<text text-anchor="middle" x="184.79" y="-390.68" font-family="Times-Roman" font-size="14.00">HalfNormal</text>
</g>
<!-- σ_h&#45;&gt;h -->
<g id="edge7" class="edge">
<title>σ_h&#45;&gt;h</title>
<path fill="none" stroke="black" d="M209.43,-374.01C219.48,-360 231.16,-343.71 241.62,-329.11"/>
<polygon fill="black" stroke="black" points="244.64,-330.92 247.62,-320.75 238.95,-326.84 244.64,-330.92"/>
</g>
<!-- μ_d -->
<g id="node10" class="node">
<title>μ_d</title>
<ellipse fill="none" stroke="black" cx="477.79" cy="-409.38" rx="48.58" ry="37.45"/>
<text text-anchor="middle" x="477.79" y="-420.68" font-family="Times-Roman" font-size="14.00">μ_d</text>
<text text-anchor="middle" x="477.79" y="-405.68" font-family="Times-Roman" font-size="14.00">~</text>
<text text-anchor="middle" x="477.79" y="-390.68" font-family="Times-Roman" font-size="14.00">Normal</text>
</g>
<!-- μ_d&#45;&gt;d -->
<g id="edge8" class="edge">
<title>μ_d&#45;&gt;d</title>
<path fill="none" stroke="black" d="M477.79,-371.74C477.79,-360.34 477.79,-347.6 477.79,-335.58"/>
<polygon fill="black" stroke="black" points="481.29,-335.26 477.79,-325.26 474.29,-335.26 481.29,-335.26"/>
</g>
<!-- μ_μ_a -->
<g id="node11" class="node">
<title>μ_μ_a</title>
<ellipse fill="none" stroke="black" cx="319.79" cy="-520.34" rx="48.58" ry="37.45"/>
<text text-anchor="middle" x="319.79" y="-531.64" font-family="Times-Roman" font-size="14.00">μ_μ_a</text>
<text text-anchor="middle" x="319.79" y="-516.64" font-family="Times-Roman" font-size="14.00">~</text>
<text text-anchor="middle" x="319.79" y="-501.64" font-family="Times-Roman" font-size="14.00">Normal</text>
</g>
<!-- μ_μ_a&#45;&gt;μ_a -->
<g id="edge11" class="edge">
<title>μ_μ_a&#45;&gt;μ_a</title>
<path fill="none" stroke="black" d="M355.16,-494.11C362.39,-489.83 370.13,-485.82 377.79,-482.86 444.32,-457.18 469.77,-481.82 535.79,-454.86 544.34,-451.37 552.91,-446.62 560.88,-441.52"/>
<polygon fill="black" stroke="black" points="562.92,-444.37 569.28,-435.9 559.02,-438.56 562.92,-444.37"/>
</g>
<!-- i -->
<g id="node12" class="node">
<title>i</title>
<ellipse fill="none" stroke="black" cx="154.79" cy="-287.43" rx="48.58" ry="37.45"/>
<text text-anchor="middle" x="154.79" y="-298.73" font-family="Times-Roman" font-size="14.00">i</text>
<text text-anchor="middle" x="154.79" y="-283.73" font-family="Times-Roman" font-size="14.00">~</text>
<text text-anchor="middle" x="154.79" y="-268.73" font-family="Times-Roman" font-size="14.00">Normal</text>
</g>
<!-- μ -->
<g id="node23" class="node">
<title>μ</title>
<polygon fill="none" stroke="black" points="594.79,-202.95 482.79,-202.95 482.79,-149.95 594.79,-149.95 594.79,-202.95"/>
<text text-anchor="middle" x="538.79" y="-187.75" font-family="Times-Roman" font-size="14.00">μ</text>
<text text-anchor="middle" x="538.79" y="-172.75" font-family="Times-Roman" font-size="14.00">~</text>
<text text-anchor="middle" x="538.79" y="-157.75" font-family="Times-Roman" font-size="14.00">Deterministic</text>
</g>
<!-- i&#45;&gt;μ -->
<g id="edge20" class="edge">
<title>i&#45;&gt;μ</title>
<path fill="none" stroke="black" d="M174.37,-252.78C183.5,-240.11 195.51,-226.87 209.79,-218.95 253.59,-194.67 389.83,-184.22 472.62,-180.02"/>
<polygon fill="black" stroke="black" points="472.87,-183.52 482.69,-179.53 472.53,-176.53 472.87,-183.52"/>
</g>
<!-- j -->
<g id="node15" class="node">
<title>j</title>
<ellipse fill="none" stroke="black" cx="1047.79" cy="-287.43" rx="48.58" ry="37.45"/>
<text text-anchor="middle" x="1047.79" y="-298.73" font-family="Times-Roman" font-size="14.00">j</text>
<text text-anchor="middle" x="1047.79" y="-283.73" font-family="Times-Roman" font-size="14.00">~</text>
<text text-anchor="middle" x="1047.79" y="-268.73" font-family="Times-Roman" font-size="14.00">Normal</text>
</g>
<!-- σ_j&#45;&gt;j -->
<g id="edge4" class="edge">
<title>σ_j&#45;&gt;j</title>
<path fill="none" stroke="black" d="M1148.06,-376.87C1129.38,-360.39 1106.48,-340.19 1087.28,-323.26"/>
<polygon fill="black" stroke="black" points="1089.39,-320.45 1079.57,-316.46 1084.76,-325.7 1089.39,-320.45"/>
</g>
<!-- μ_j&#45;&gt;j -->
<g id="edge5" class="edge">
<title>μ_j&#45;&gt;j</title>
<path fill="none" stroke="black" d="M1047.79,-371.74C1047.79,-360.34 1047.79,-347.6 1047.79,-335.58"/>
<polygon fill="black" stroke="black" points="1051.29,-335.26 1047.79,-325.26 1044.29,-335.26 1051.29,-335.26"/>
</g>
<!-- j&#45;&gt;μ -->
<g id="edge16" class="edge">
<title>j&#45;&gt;μ</title>
<path fill="none" stroke="black" d="M1027.45,-253.22C1017.72,-240.3 1004.89,-226.74 989.79,-218.95 924.46,-185.25 713.99,-178.64 605.24,-177.53"/>
<polygon fill="black" stroke="black" points="605.07,-174.03 595.04,-177.44 605,-181.03 605.07,-174.03"/>
</g>
<!-- lfc -->
<g id="node24" class="node">
<title>lfc</title>
<ellipse fill="lightgrey" stroke="black" cx="541.79" cy="-76.48" rx="48.58" ry="37.45"/>
<text text-anchor="middle" x="541.79" y="-87.78" font-family="Times-Roman" font-size="14.00">lfc</text>
<text text-anchor="middle" x="541.79" y="-72.78" font-family="Times-Roman" font-size="14.00">~</text>
<text text-anchor="middle" x="541.79" y="-57.78" font-family="Times-Roman" font-size="14.00">Normal</text>
</g>
<!-- σ&#45;&gt;lfc -->
<g id="edge22" class="edge">
<title>σ&#45;&gt;lfc</title>
<path fill="none" stroke="black" d="M864.55,-259.75C793.65,-219.71 660.47,-144.5 589.37,-104.35"/>
<polygon fill="black" stroke="black" points="591.02,-101.26 580.6,-99.39 587.58,-107.36 591.02,-101.26"/>
</g>
<!-- h&#45;&gt;μ -->
<g id="edge19" class="edge">
<title>h&#45;&gt;μ</title>
<path fill="none" stroke="black" d="M311.2,-266.36C340.23,-252.29 380.49,-233.47 416.79,-218.95 434.84,-211.74 454.69,-204.64 473.04,-198.41"/>
<polygon fill="black" stroke="black" points="474.4,-201.64 482.77,-195.14 472.17,-195.01 474.4,-201.64"/>
</g>
<!-- d&#45;&gt;μ -->
<g id="edge18" class="edge">
<title>d&#45;&gt;μ</title>
<path fill="none" stroke="black" d="M496.59,-252.84C503.87,-239.84 512.2,-224.95 519.53,-211.87"/>
<polygon fill="black" stroke="black" points="522.58,-213.58 524.41,-203.14 516.47,-210.16 522.58,-213.58"/>
</g>
<!-- a -->
<g id="node22" class="node">
<title>a</title>
<ellipse fill="none" stroke="black" cx="600.79" cy="-287.43" rx="48.58" ry="37.45"/>
<text text-anchor="middle" x="600.79" y="-298.73" font-family="Times-Roman" font-size="14.00">a</text>
<text text-anchor="middle" x="600.79" y="-283.73" font-family="Times-Roman" font-size="14.00">~</text>
<text text-anchor="middle" x="600.79" y="-268.73" font-family="Times-Roman" font-size="14.00">Normal</text>
</g>
<!-- μ_a&#45;&gt;a -->
<g id="edge14" class="edge">
<title>μ_a&#45;&gt;a</title>
<path fill="none" stroke="black" d="M600.79,-382.65C600.79,-368.87 600.79,-351.47 600.79,-335.38"/>
<polygon fill="black" stroke="black" points="604.29,-335.04 600.79,-325.04 597.29,-335.04 604.29,-335.04"/>
</g>
<!-- μ_a_offset -->
<g id="node20" class="node">
<title>μ_a_offset</title>
<ellipse fill="none" stroke="black" cx="606.79" cy="-520.34" rx="63.78" ry="37.45"/>
<text text-anchor="middle" x="606.79" y="-531.64" font-family="Times-Roman" font-size="14.00">μ_a_offset</text>
<text text-anchor="middle" x="606.79" y="-516.64" font-family="Times-Roman" font-size="14.00">~</text>
<text text-anchor="middle" x="606.79" y="-501.64" font-family="Times-Roman" font-size="14.00">Normal</text>
</g>
<!-- μ_a_offset&#45;&gt;μ_a -->
<g id="edge10" class="edge">
<title>μ_a_offset&#45;&gt;μ_a</title>
<path fill="none" stroke="black" d="M604.78,-482.75C604.13,-471.02 603.41,-458.03 602.77,-446.34"/>
<polygon fill="black" stroke="black" points="606.25,-445.83 602.2,-436.04 599.26,-446.21 606.25,-445.83"/>
</g>
<!-- σ_a&#45;&gt;a -->
<g id="edge15" class="edge">
<title>σ_a&#45;&gt;a</title>
<path fill="none" stroke="black" d="M744.4,-483.24C729.16,-445.24 701.68,-384.94 665.79,-340.91 659.67,-333.39 652.31,-326.23 644.78,-319.74"/>
<polygon fill="black" stroke="black" points="646.54,-316.65 636.6,-312.98 642.08,-322.04 646.54,-316.65"/>
</g>
<!-- a&#45;&gt;μ -->
<g id="edge17" class="edge">
<title>a&#45;&gt;μ</title>
<path fill="none" stroke="black" d="M581.68,-252.84C574.28,-239.84 565.82,-224.95 558.37,-211.87"/>
<polygon fill="black" stroke="black" points="561.39,-210.1 553.4,-203.14 555.31,-213.56 561.39,-210.1"/>
</g>
<!-- μ&#45;&gt;lfc -->
<g id="edge23" class="edge">
<title>μ&#45;&gt;lfc</title>
<path fill="none" stroke="black" d="M539.58,-149.71C539.82,-141.89 540.09,-133.03 540.36,-124.27"/>
<polygon fill="black" stroke="black" points="543.86,-124.2 540.67,-114.1 536.86,-123.99 543.86,-124.2"/>
</g>
</g>
</svg>
