<?xml version="1.0" encoding="UTF-8" standalone="no"?>
<!DOCTYPE svg PUBLIC "-//W3C//DTD SVG 1.1//EN"
 "http://www.w3.org/Graphics/SVG/1.1/DTD/svg11.dtd">
<!-- Generated by graphviz version 2.47.0 (20210327.0129)
 -->
<!-- Pages: 1 -->
<svg width="1397pt" height="677pt"
 viewBox="0.00 0.00 1396.58 676.77" xmlns="http://www.w3.org/2000/svg" xmlns:xlink="http://www.w3.org/1999/xlink">
<g id="graph0" class="graph" transform="scale(1 1) rotate(0) translate(4 672.77)">
<polygon fill="white" stroke="transparent" points="-4,4 -4,-672.77 1392.58,-672.77 1392.58,4 -4,4"/>
<g id="clust1" class="cluster">
<title>cluster2</title>
<path fill="none" stroke="black" d="M1002.79,-340.91C1002.79,-340.91 1248.79,-340.91 1248.79,-340.91 1254.79,-340.91 1260.79,-346.91 1260.79,-352.91 1260.79,-352.91 1260.79,-442.86 1260.79,-442.86 1260.79,-448.86 1254.79,-454.86 1248.79,-454.86 1248.79,-454.86 1002.79,-454.86 1002.79,-454.86 996.79,-454.86 990.79,-448.86 990.79,-442.86 990.79,-442.86 990.79,-352.91 990.79,-352.91 990.79,-346.91 996.79,-340.91 1002.79,-340.91"/>
<text text-anchor="middle" x="1247.79" y="-348.71" font-family="Times-Roman" font-size="14.00">2</text>
</g>
<g id="clust2" class="cluster">
<title>cluster4</title>
<path fill="none" stroke="black" d="M845.79,-218.95C845.79,-218.95 1091.79,-218.95 1091.79,-218.95 1097.79,-218.95 1103.79,-224.95 1103.79,-230.95 1103.79,-230.95 1103.79,-320.91 1103.79,-320.91 1103.79,-326.91 1097.79,-332.91 1091.79,-332.91 1091.79,-332.91 845.79,-332.91 845.79,-332.91 839.79,-332.91 833.79,-326.91 833.79,-320.91 833.79,-320.91 833.79,-230.95 833.79,-230.95 833.79,-224.95 839.79,-218.95 845.79,-218.95"/>
<text text-anchor="middle" x="1090.79" y="-226.75" font-family="Times-Roman" font-size="14.00">4</text>
</g>
<g id="clust3" class="cluster">
<title>cluster64 x 10</title>
<path fill="none" stroke="black" d="M411.79,-218.95C411.79,-218.95 501.79,-218.95 501.79,-218.95 507.79,-218.95 513.79,-224.95 513.79,-230.95 513.79,-230.95 513.79,-320.91 513.79,-320.91 513.79,-326.91 507.79,-332.91 501.79,-332.91 501.79,-332.91 411.79,-332.91 411.79,-332.91 405.79,-332.91 399.79,-326.91 399.79,-320.91 399.79,-320.91 399.79,-230.95 399.79,-230.95 399.79,-224.95 405.79,-218.95 411.79,-218.95"/>
<text text-anchor="middle" x="478.79" y="-226.75" font-family="Times-Roman" font-size="14.00">64 x 10</text>
</g>
<g id="clust4" class="cluster">
<title>cluster10</title>
<path fill="none" stroke="black" d="M214.79,-218.95C214.79,-218.95 304.79,-218.95 304.79,-218.95 310.79,-218.95 316.79,-224.95 316.79,-230.95 316.79,-230.95 316.79,-320.91 316.79,-320.91 316.79,-326.91 310.79,-332.91 304.79,-332.91 304.79,-332.91 214.79,-332.91 214.79,-332.91 208.79,-332.91 202.79,-326.91 202.79,-320.91 202.79,-320.91 202.79,-230.95 202.79,-230.95 202.79,-224.95 208.79,-218.95 214.79,-218.95"/>
<text text-anchor="middle" x="299.29" y="-226.75" font-family="Times-Roman" font-size="14.00">10</text>
</g>
<g id="clust5" class="cluster">
<title>cluster64</title>
<path fill="none" stroke="black" d="M545.79,-351.88C545.79,-351.88 821.79,-351.88 821.79,-351.88 827.79,-351.88 833.79,-357.88 833.79,-363.88 833.79,-363.88 833.79,-553.81 833.79,-553.81 833.79,-559.81 827.79,-565.81 821.79,-565.81 821.79,-565.81 545.79,-565.81 545.79,-565.81 539.79,-565.81 533.79,-559.81 533.79,-553.81 533.79,-553.81 533.79,-363.88 533.79,-363.88 533.79,-357.88 539.79,-351.88 545.79,-351.88"/>
<text text-anchor="middle" x="816.29" y="-359.68" font-family="Times-Roman" font-size="14.00">64</text>
</g>
<g id="clust6" class="cluster">
<title>cluster192</title>
<path fill="none" stroke="black" d="M554.79,-218.95C554.79,-218.95 644.79,-218.95 644.79,-218.95 650.79,-218.95 656.79,-224.95 656.79,-230.95 656.79,-230.95 656.79,-320.91 656.79,-320.91 656.79,-326.91 650.79,-332.91 644.79,-332.91 644.79,-332.91 554.79,-332.91 554.79,-332.91 548.79,-332.91 542.79,-326.91 542.79,-320.91 542.79,-320.91 542.79,-230.95 542.79,-230.95 542.79,-224.95 548.79,-218.95 554.79,-218.95"/>
<text text-anchor="middle" x="634.79" y="-226.75" font-family="Times-Roman" font-size="14.00">192</text>
</g>
<g id="clust7" class="cluster">
<title>cluster1,443</title>
<path fill="none" stroke="black" d="M475.79,-8C475.79,-8 579.79,-8 579.79,-8 585.79,-8 591.79,-14 591.79,-20 591.79,-20 591.79,-198.95 591.79,-198.95 591.79,-204.95 585.79,-210.95 579.79,-210.95 579.79,-210.95 475.79,-210.95 475.79,-210.95 469.79,-210.95 463.79,-204.95 463.79,-198.95 463.79,-198.95 463.79,-20 463.79,-20 463.79,-14 469.79,-8 475.79,-8"/>
<text text-anchor="middle" x="563.29" y="-15.8" font-family="Times-Roman" font-size="14.00">1,443</text>
</g>
<!-- μ_d -->
<g id="node1" class="node">
<title>μ_d</title>
<ellipse fill="none" stroke="black" cx="48.79" cy="-409.38" rx="48.58" ry="37.45"/>
<text text-anchor="middle" x="48.79" y="-420.68" font-family="Times-Roman" font-size="14.00">μ_d</text>
<text text-anchor="middle" x="48.79" y="-405.68" font-family="Times-Roman" font-size="14.00">~</text>
<text text-anchor="middle" x="48.79" y="-390.68" font-family="Times-Roman" font-size="14.00">Normal</text>
</g>
<!-- d -->
<g id="node18" class="node">
<title>d</title>
<ellipse fill="none" stroke="black" cx="259.79" cy="-287.43" rx="48.58" ry="37.45"/>
<text text-anchor="middle" x="259.79" y="-298.73" font-family="Times-Roman" font-size="14.00">d</text>
<text text-anchor="middle" x="259.79" y="-283.73" font-family="Times-Roman" font-size="14.00">~</text>
<text text-anchor="middle" x="259.79" y="-268.73" font-family="Times-Roman" font-size="14.00">Normal</text>
</g>
<!-- μ_d&#45;&gt;d -->
<g id="edge8" class="edge">
<title>μ_d&#45;&gt;d</title>
<path fill="none" stroke="black" d="M69.1,-375.12C78.82,-362.18 91.66,-348.64 106.79,-340.91 144.52,-321.63 162.27,-348.19 201.79,-332.91 208.31,-330.38 214.71,-326.89 220.74,-322.95"/>
<polygon fill="black" stroke="black" points="223.12,-325.56 229.28,-316.94 219.09,-319.83 223.12,-325.56"/>
</g>
<!-- σ_σ -->
<g id="node2" class="node">
<title>σ_σ</title>
<ellipse fill="none" stroke="black" cx="910.79" cy="-409.38" rx="69.09" ry="37.45"/>
<text text-anchor="middle" x="910.79" y="-420.68" font-family="Times-Roman" font-size="14.00">σ_σ</text>
<text text-anchor="middle" x="910.79" y="-405.68" font-family="Times-Roman" font-size="14.00">~</text>
<text text-anchor="middle" x="910.79" y="-390.68" font-family="Times-Roman" font-size="14.00">HalfNormal</text>
</g>
<!-- σ -->
<g id="node16" class="node">
<title>σ</title>
<ellipse fill="none" stroke="black" cx="910.79" cy="-287.43" rx="69.09" ry="37.45"/>
<text text-anchor="middle" x="910.79" y="-298.73" font-family="Times-Roman" font-size="14.00">σ</text>
<text text-anchor="middle" x="910.79" y="-283.73" font-family="Times-Roman" font-size="14.00">~</text>
<text text-anchor="middle" x="910.79" y="-268.73" font-family="Times-Roman" font-size="14.00">HalfNormal</text>
</g>
<!-- σ_σ&#45;&gt;σ -->
<g id="edge21" class="edge">
<title>σ_σ&#45;&gt;σ</title>
<path fill="none" stroke="black" d="M910.79,-371.74C910.79,-360.34 910.79,-347.6 910.79,-335.58"/>
<polygon fill="black" stroke="black" points="914.29,-335.26 910.79,-325.26 907.29,-335.26 914.29,-335.26"/>
</g>
<!-- σ_σ_a -->
<g id="node3" class="node">
<title>σ_σ_a</title>
<ellipse fill="none" stroke="black" cx="756.79" cy="-631.29" rx="69.09" ry="37.45"/>
<text text-anchor="middle" x="756.79" y="-642.59" font-family="Times-Roman" font-size="14.00">σ_σ_a</text>
<text text-anchor="middle" x="756.79" y="-627.59" font-family="Times-Roman" font-size="14.00">~</text>
<text text-anchor="middle" x="756.79" y="-612.59" font-family="Times-Roman" font-size="14.00">HalfNormal</text>
</g>
<!-- σ_a -->
<g id="node21" class="node">
<title>σ_a</title>
<ellipse fill="none" stroke="black" cx="756.79" cy="-520.34" rx="69.09" ry="37.45"/>
<text text-anchor="middle" x="756.79" y="-531.64" font-family="Times-Roman" font-size="14.00">σ_a</text>
<text text-anchor="middle" x="756.79" y="-516.64" font-family="Times-Roman" font-size="14.00">~</text>
<text text-anchor="middle" x="756.79" y="-501.64" font-family="Times-Roman" font-size="14.00">HalfNormal</text>
</g>
<!-- σ_σ_a&#45;&gt;σ_a -->
<g id="edge13" class="edge">
<title>σ_σ_a&#45;&gt;σ_a</title>
<path fill="none" stroke="black" d="M756.79,-593.71C756.79,-585.53 756.79,-576.75 756.79,-568.23"/>
<polygon fill="black" stroke="black" points="760.29,-568.01 756.79,-558.01 753.29,-568.01 760.29,-568.01"/>
</g>
<!-- σ_d -->
<g id="node4" class="node">
<title>σ_d</title>
<ellipse fill="none" stroke="black" cx="184.79" cy="-409.38" rx="69.09" ry="37.45"/>
<text text-anchor="middle" x="184.79" y="-420.68" font-family="Times-Roman" font-size="14.00">σ_d</text>
<text text-anchor="middle" x="184.79" y="-405.68" font-family="Times-Roman" font-size="14.00">~</text>
<text text-anchor="middle" x="184.79" y="-390.68" font-family="Times-Roman" font-size="14.00">HalfNormal</text>
</g>
<!-- σ_d&#45;&gt;d -->
<g id="edge9" class="edge">
<title>σ_d&#45;&gt;d</title>
<path fill="none" stroke="black" d="M206.48,-373.69C215.01,-360.05 224.87,-344.28 233.78,-330.04"/>
<polygon fill="black" stroke="black" points="236.84,-331.73 239.18,-321.4 230.91,-328.02 236.84,-331.73"/>
</g>
<!-- σ_μ_a -->
<g id="node5" class="node">
<title>σ_μ_a</title>
<ellipse fill="none" stroke="black" cx="454.79" cy="-520.34" rx="69.09" ry="37.45"/>
<text text-anchor="middle" x="454.79" y="-531.64" font-family="Times-Roman" font-size="14.00">σ_μ_a</text>
<text text-anchor="middle" x="454.79" y="-516.64" font-family="Times-Roman" font-size="14.00">~</text>
<text text-anchor="middle" x="454.79" y="-501.64" font-family="Times-Roman" font-size="14.00">HalfNormal</text>
</g>
<!-- μ_a -->
<g id="node19" class="node">
<title>μ_a</title>
<polygon fill="none" stroke="black" points="655.79,-435.88 543.79,-435.88 543.79,-382.88 655.79,-382.88 655.79,-435.88"/>
<text text-anchor="middle" x="599.79" y="-420.68" font-family="Times-Roman" font-size="14.00">μ_a</text>
<text text-anchor="middle" x="599.79" y="-405.68" font-family="Times-Roman" font-size="14.00">~</text>
<text text-anchor="middle" x="599.79" y="-390.68" font-family="Times-Roman" font-size="14.00">Deterministic</text>
</g>
<!-- σ_μ_a&#45;&gt;μ_a -->
<g id="edge12" class="edge">
<title>σ_μ_a&#45;&gt;μ_a</title>
<path fill="none" stroke="black" d="M494.41,-489.56C514.02,-474.83 537.69,-457.05 557.63,-442.07"/>
<polygon fill="black" stroke="black" points="559.74,-444.85 565.63,-436.05 555.54,-439.26 559.74,-444.85"/>
</g>
<!-- σ_σ_j -->
<g id="node6" class="node">
<title>σ_σ_j</title>
<ellipse fill="none" stroke="black" cx="1046.79" cy="-520.34" rx="69.09" ry="37.45"/>
<text text-anchor="middle" x="1046.79" y="-531.64" font-family="Times-Roman" font-size="14.00">σ_σ_j</text>
<text text-anchor="middle" x="1046.79" y="-516.64" font-family="Times-Roman" font-size="14.00">~</text>
<text text-anchor="middle" x="1046.79" y="-501.64" font-family="Times-Roman" font-size="14.00">HalfNormal</text>
</g>
<!-- σ_j -->
<g id="node13" class="node">
<title>σ_j</title>
<ellipse fill="none" stroke="black" cx="1067.79" cy="-409.38" rx="69.09" ry="37.45"/>
<text text-anchor="middle" x="1067.79" y="-420.68" font-family="Times-Roman" font-size="14.00">σ_j</text>
<text text-anchor="middle" x="1067.79" y="-405.68" font-family="Times-Roman" font-size="14.00">~</text>
<text text-anchor="middle" x="1067.79" y="-390.68" font-family="Times-Roman" font-size="14.00">HalfNormal</text>
</g>
<!-- σ_σ_j&#45;&gt;σ_j -->
<g id="edge3" class="edge">
<title>σ_σ_j&#45;&gt;σ_j</title>
<path fill="none" stroke="black" d="M1053.84,-482.75C1055.45,-474.4 1057.18,-465.42 1058.86,-456.71"/>
<polygon fill="black" stroke="black" points="1062.34,-457.17 1060.79,-446.68 1055.46,-455.84 1062.34,-457.17"/>
</g>
<!-- μ_μ_j -->
<g id="node7" class="node">
<title>μ_μ_j</title>
<ellipse fill="none" stroke="black" cx="1339.79" cy="-520.34" rx="48.58" ry="37.45"/>
<text text-anchor="middle" x="1339.79" y="-531.64" font-family="Times-Roman" font-size="14.00">μ_μ_j</text>
<text text-anchor="middle" x="1339.79" y="-516.64" font-family="Times-Roman" font-size="14.00">~</text>
<text text-anchor="middle" x="1339.79" y="-501.64" font-family="Times-Roman" font-size="14.00">Normal</text>
</g>
<!-- μ_j -->
<g id="node14" class="node">
<title>μ_j</title>
<ellipse fill="none" stroke="black" cx="1203.79" cy="-409.38" rx="48.58" ry="37.45"/>
<text text-anchor="middle" x="1203.79" y="-420.68" font-family="Times-Roman" font-size="14.00">μ_j</text>
<text text-anchor="middle" x="1203.79" y="-405.68" font-family="Times-Roman" font-size="14.00">~</text>
<text text-anchor="middle" x="1203.79" y="-390.68" font-family="Times-Roman" font-size="14.00">Normal</text>
</g>
<!-- μ_μ_j&#45;&gt;μ_j -->
<g id="edge1" class="edge">
<title>μ_μ_j&#45;&gt;μ_j</title>
<path fill="none" stroke="black" d="M1306.52,-492.68C1288,-477.84 1264.78,-459.24 1245.1,-443.48"/>
<polygon fill="black" stroke="black" points="1247.18,-440.66 1237.19,-437.14 1242.8,-446.12 1247.18,-440.66"/>
</g>
<!-- μ_h -->
<g id="node8" class="node">
<title>μ_h</title>
<ellipse fill="none" stroke="black" cx="320.79" cy="-409.38" rx="48.58" ry="37.45"/>
<text text-anchor="middle" x="320.79" y="-420.68" font-family="Times-Roman" font-size="14.00">μ_h</text>
<text text-anchor="middle" x="320.79" y="-405.68" font-family="Times-Roman" font-size="14.00">~</text>
<text text-anchor="middle" x="320.79" y="-390.68" font-family="Times-Roman" font-size="14.00">Normal</text>
</g>
<!-- h -->
<g id="node17" class="node">
<title>h</title>
<ellipse fill="none" stroke="black" cx="456.79" cy="-287.43" rx="48.58" ry="37.45"/>
<text text-anchor="middle" x="456.79" y="-298.73" font-family="Times-Roman" font-size="14.00">h</text>
<text text-anchor="middle" x="456.79" y="-283.73" font-family="Times-Roman" font-size="14.00">~</text>
<text text-anchor="middle" x="456.79" y="-268.73" font-family="Times-Roman" font-size="14.00">Normal</text>
</g>
<!-- μ_h&#45;&gt;h -->
<g id="edge6" class="edge">
<title>μ_h&#45;&gt;h</title>
<path fill="none" stroke="black" d="M345.15,-376.55C354.96,-364.72 366.78,-351.58 378.79,-340.91 388.42,-332.35 399.52,-324.09 410.27,-316.74"/>
<polygon fill="black" stroke="black" points="412.41,-319.52 418.79,-311.06 408.53,-313.7 412.41,-319.52"/>
</g>
<!-- μ_μ_a -->
<g id="node9" class="node">
<title>μ_μ_a</title>
<ellipse fill="none" stroke="black" cx="318.79" cy="-520.34" rx="48.58" ry="37.45"/>
<text text-anchor="middle" x="318.79" y="-531.64" font-family="Times-Roman" font-size="14.00">μ_μ_a</text>
<text text-anchor="middle" x="318.79" y="-516.64" font-family="Times-Roman" font-size="14.00">~</text>
<text text-anchor="middle" x="318.79" y="-501.64" font-family="Times-Roman" font-size="14.00">Normal</text>
</g>
<!-- μ_μ_a&#45;&gt;μ_a -->
<g id="edge10" class="edge">
<title>μ_μ_a&#45;&gt;μ_a</title>
<path fill="none" stroke="black" d="M354.16,-494.11C361.39,-489.83 369.13,-485.82 376.79,-482.86 443.32,-457.18 468.77,-481.82 534.79,-454.86 543.34,-451.37 551.91,-446.62 559.88,-441.52"/>
<polygon fill="black" stroke="black" points="561.92,-444.37 568.28,-435.9 558.02,-438.56 561.92,-444.37"/>
</g>
<!-- σ_h -->
<g id="node10" class="node">
<title>σ_h</title>
<ellipse fill="none" stroke="black" cx="456.79" cy="-409.38" rx="69.09" ry="37.45"/>
<text text-anchor="middle" x="456.79" y="-420.68" font-family="Times-Roman" font-size="14.00">σ_h</text>
<text text-anchor="middle" x="456.79" y="-405.68" font-family="Times-Roman" font-size="14.00">~</text>
<text text-anchor="middle" x="456.79" y="-390.68" font-family="Times-Roman" font-size="14.00">HalfNormal</text>
</g>
<!-- σ_h&#45;&gt;h -->
<g id="edge7" class="edge">
<title>σ_h&#45;&gt;h</title>
<path fill="none" stroke="black" d="M456.79,-371.74C456.79,-360.34 456.79,-347.6 456.79,-335.58"/>
<polygon fill="black" stroke="black" points="460.29,-335.26 456.79,-325.26 453.29,-335.26 460.29,-335.26"/>
</g>
<!-- σ_μ_j -->
<g id="node11" class="node">
<title>σ_μ_j</title>
<ellipse fill="none" stroke="black" cx="1203.79" cy="-520.34" rx="69.09" ry="37.45"/>
<text text-anchor="middle" x="1203.79" y="-531.64" font-family="Times-Roman" font-size="14.00">σ_μ_j</text>
<text text-anchor="middle" x="1203.79" y="-516.64" font-family="Times-Roman" font-size="14.00">~</text>
<text text-anchor="middle" x="1203.79" y="-501.64" font-family="Times-Roman" font-size="14.00">HalfNormal</text>
</g>
<!-- σ_μ_j&#45;&gt;μ_j -->
<g id="edge2" class="edge">
<title>σ_μ_j&#45;&gt;μ_j</title>
<path fill="none" stroke="black" d="M1203.79,-482.75C1203.79,-474.58 1203.79,-465.8 1203.79,-457.27"/>
<polygon fill="black" stroke="black" points="1207.29,-457.06 1203.79,-447.06 1200.29,-457.06 1207.29,-457.06"/>
</g>
<!-- i -->
<g id="node12" class="node">
<title>i</title>
<ellipse fill="none" stroke="black" cx="143.79" cy="-287.43" rx="48.58" ry="37.45"/>
<text text-anchor="middle" x="143.79" y="-298.73" font-family="Times-Roman" font-size="14.00">i</text>
<text text-anchor="middle" x="143.79" y="-283.73" font-family="Times-Roman" font-size="14.00">~</text>
<text text-anchor="middle" x="143.79" y="-268.73" font-family="Times-Roman" font-size="14.00">Normal</text>
</g>
<!-- μ -->
<g id="node23" class="node">
<title>μ</title>
<polygon fill="none" stroke="black" points="583.79,-202.95 471.79,-202.95 471.79,-149.95 583.79,-149.95 583.79,-202.95"/>
<text text-anchor="middle" x="527.79" y="-187.75" font-family="Times-Roman" font-size="14.00">μ</text>
<text text-anchor="middle" x="527.79" y="-172.75" font-family="Times-Roman" font-size="14.00">~</text>
<text text-anchor="middle" x="527.79" y="-157.75" font-family="Times-Roman" font-size="14.00">Deterministic</text>
</g>
<!-- i&#45;&gt;μ -->
<g id="edge20" class="edge">
<title>i&#45;&gt;μ</title>
<path fill="none" stroke="black" d="M163.37,-252.78C172.5,-240.11 184.51,-226.87 198.79,-218.95 242.59,-194.67 378.83,-184.22 461.62,-180.02"/>
<polygon fill="black" stroke="black" points="461.87,-183.52 471.69,-179.53 461.53,-176.53 461.87,-183.52"/>
</g>
<!-- j -->
<g id="node15" class="node">
<title>j</title>
<ellipse fill="none" stroke="black" cx="1046.79" cy="-287.43" rx="48.58" ry="37.45"/>
<text text-anchor="middle" x="1046.79" y="-298.73" font-family="Times-Roman" font-size="14.00">j</text>
<text text-anchor="middle" x="1046.79" y="-283.73" font-family="Times-Roman" font-size="14.00">~</text>
<text text-anchor="middle" x="1046.79" y="-268.73" font-family="Times-Roman" font-size="14.00">Normal</text>
</g>
<!-- σ_j&#45;&gt;j -->
<g id="edge4" class="edge">
<title>σ_j&#45;&gt;j</title>
<path fill="none" stroke="black" d="M1061.38,-371.74C1059.34,-360.11 1057.06,-347.1 1054.92,-334.88"/>
<polygon fill="black" stroke="black" points="1058.34,-334.09 1053.17,-324.85 1051.44,-335.3 1058.34,-334.09"/>
</g>
<!-- μ_j&#45;&gt;j -->
<g id="edge5" class="edge">
<title>μ_j&#45;&gt;j</title>
<path fill="none" stroke="black" d="M1180.28,-376.22C1170.5,-364.2 1158.46,-351.03 1145.79,-340.91 1131.43,-329.44 1114.19,-319.29 1098.15,-311.04"/>
<polygon fill="black" stroke="black" points="1099.39,-307.75 1088.88,-306.42 1096.26,-314.01 1099.39,-307.75"/>
</g>
<!-- j&#45;&gt;μ -->
<g id="edge18" class="edge">
<title>j&#45;&gt;μ</title>
<path fill="none" stroke="black" d="M1026.46,-253.21C1016.73,-240.28 1003.9,-226.73 988.79,-218.95 921.67,-184.41 704.76,-178.22 594.08,-177.37"/>
<polygon fill="black" stroke="black" points="594.05,-173.87 584.03,-177.3 594.01,-180.87 594.05,-173.87"/>
</g>
<!-- lfc -->
<g id="node24" class="node">
<title>lfc</title>
<ellipse fill="lightgrey" stroke="black" cx="530.79" cy="-76.48" rx="48.58" ry="37.45"/>
<text text-anchor="middle" x="530.79" y="-87.78" font-family="Times-Roman" font-size="14.00">lfc</text>
<text text-anchor="middle" x="530.79" y="-72.78" font-family="Times-Roman" font-size="14.00">~</text>
<text text-anchor="middle" x="530.79" y="-57.78" font-family="Times-Roman" font-size="14.00">Normal</text>
</g>
<!-- σ&#45;&gt;lfc -->
<g id="edge23" class="edge">
<title>σ&#45;&gt;lfc</title>
<path fill="none" stroke="black" d="M863.05,-260.18C790.22,-220.13 652.13,-144.2 579.01,-103.99"/>
<polygon fill="black" stroke="black" points="580.45,-100.79 570,-99.04 577.07,-106.92 580.45,-100.79"/>
</g>
<!-- h&#45;&gt;μ -->
<g id="edge19" class="edge">
<title>h&#45;&gt;μ</title>
<path fill="none" stroke="black" d="M478.29,-253.44C486.92,-240.18 496.88,-224.9 505.59,-211.53"/>
<polygon fill="black" stroke="black" points="508.58,-213.36 511.1,-203.07 502.71,-209.54 508.58,-213.36"/>
</g>
<!-- d&#45;&gt;μ -->
<g id="edge16" class="edge">
<title>d&#45;&gt;μ</title>
<path fill="none" stroke="black" d="M298.91,-264.98C325.7,-250.81 362.29,-232.43 395.79,-218.95 416.95,-210.44 440.58,-202.53 461.92,-195.95"/>
<polygon fill="black" stroke="black" points="463.01,-199.28 471.56,-193.02 460.97,-192.58 463.01,-199.28"/>
</g>
<!-- a -->
<g id="node22" class="node">
<title>a</title>
<ellipse fill="none" stroke="black" cx="599.79" cy="-287.43" rx="48.58" ry="37.45"/>
<text text-anchor="middle" x="599.79" y="-298.73" font-family="Times-Roman" font-size="14.00">a</text>
<text text-anchor="middle" x="599.79" y="-283.73" font-family="Times-Roman" font-size="14.00">~</text>
<text text-anchor="middle" x="599.79" y="-268.73" font-family="Times-Roman" font-size="14.00">Normal</text>
</g>
<!-- μ_a&#45;&gt;a -->
<g id="edge14" class="edge">
<title>μ_a&#45;&gt;a</title>
<path fill="none" stroke="black" d="M599.79,-382.65C599.79,-368.87 599.79,-351.47 599.79,-335.38"/>
<polygon fill="black" stroke="black" points="603.29,-335.04 599.79,-325.04 596.29,-335.04 603.29,-335.04"/>
</g>
<!-- μ_a_offset -->
<g id="node20" class="node">
<title>μ_a_offset</title>
<ellipse fill="none" stroke="black" cx="605.79" cy="-520.34" rx="63.78" ry="37.45"/>
<text text-anchor="middle" x="605.79" y="-531.64" font-family="Times-Roman" font-size="14.00">μ_a_offset</text>
<text text-anchor="middle" x="605.79" y="-516.64" font-family="Times-Roman" font-size="14.00">~</text>
<text text-anchor="middle" x="605.79" y="-501.64" font-family="Times-Roman" font-size="14.00">Normal</text>
</g>
<!-- μ_a_offset&#45;&gt;μ_a -->
<g id="edge11" class="edge">
<title>μ_a_offset&#45;&gt;μ_a</title>
<path fill="none" stroke="black" d="M603.78,-482.75C603.13,-471.02 602.41,-458.03 601.77,-446.34"/>
<polygon fill="black" stroke="black" points="605.25,-445.83 601.2,-436.04 598.26,-446.21 605.25,-445.83"/>
</g>
<!-- σ_a&#45;&gt;a -->
<g id="edge15" class="edge">
<title>σ_a&#45;&gt;a</title>
<path fill="none" stroke="black" d="M743.4,-483.24C728.16,-445.24 700.68,-384.94 664.79,-340.91 658.67,-333.39 651.31,-326.23 643.78,-319.74"/>
<polygon fill="black" stroke="black" points="645.54,-316.65 635.6,-312.98 641.08,-322.04 645.54,-316.65"/>
</g>
<!-- a&#45;&gt;μ -->
<g id="edge17" class="edge">
<title>a&#45;&gt;μ</title>
<path fill="none" stroke="black" d="M578.19,-253.73C569.42,-240.46 559.29,-225.13 550.42,-211.71"/>
<polygon fill="black" stroke="black" points="553.24,-209.62 544.8,-203.2 547.4,-213.48 553.24,-209.62"/>
</g>
<!-- μ&#45;&gt;lfc -->
<g id="edge22" class="edge">
<title>μ&#45;&gt;lfc</title>
<path fill="none" stroke="black" d="M528.58,-149.71C528.82,-141.89 529.09,-133.03 529.36,-124.27"/>
<polygon fill="black" stroke="black" points="532.86,-124.2 529.67,-114.1 525.86,-123.99 532.86,-124.2"/>
</g>
</g>
</svg>
