<?xml version="1.0" encoding="UTF-8" standalone="no"?>
<!DOCTYPE svg PUBLIC "-//W3C//DTD SVG 1.1//EN"
 "http://www.w3.org/Graphics/SVG/1.1/DTD/svg11.dtd">
<!-- Generated by graphviz version 2.47.0 (20210327.0129)
 -->
<!-- Pages: 1 -->
<svg width="2314pt" height="655pt"
 viewBox="0.00 0.00 2314.30 654.79" xmlns="http://www.w3.org/2000/svg" xmlns:xlink="http://www.w3.org/1999/xlink">
<g id="graph0" class="graph" transform="scale(1 1) rotate(0) translate(4 650.79)">
<polygon fill="white" stroke="transparent" points="-4,4 -4,-650.79 2310.3,-650.79 2310.3,4 -4,4"/>
<g id="clust1" class="cluster">
<title>cluster2</title>
<path fill="none" stroke="black" d="M705.3,-329.91C705.3,-329.91 1276.3,-329.91 1276.3,-329.91 1282.3,-329.91 1288.3,-335.91 1288.3,-341.91 1288.3,-341.91 1288.3,-531.84 1288.3,-531.84 1288.3,-537.84 1282.3,-543.84 1276.3,-543.84 1276.3,-543.84 705.3,-543.84 705.3,-543.84 699.3,-543.84 693.3,-537.84 693.3,-531.84 693.3,-531.84 693.3,-341.91 693.3,-341.91 693.3,-335.91 699.3,-329.91 705.3,-329.91"/>
<text text-anchor="middle" x="1275.3" y="-337.71" font-family="Times-Roman" font-size="14.00">2</text>
</g>
<g id="clust2" class="cluster">
<title>cluster3</title>
<path fill="none" stroke="black" d="M427.3,-218.95C427.3,-218.95 673.3,-218.95 673.3,-218.95 679.3,-218.95 685.3,-224.95 685.3,-230.95 685.3,-230.95 685.3,-420.88 685.3,-420.88 685.3,-426.88 679.3,-432.88 673.3,-432.88 673.3,-432.88 427.3,-432.88 427.3,-432.88 421.3,-432.88 415.3,-426.88 415.3,-420.88 415.3,-420.88 415.3,-230.95 415.3,-230.95 415.3,-224.95 421.3,-218.95 427.3,-218.95"/>
<text text-anchor="middle" x="672.3" y="-226.75" font-family="Times-Roman" font-size="14.00">3</text>
</g>
<g id="clust3" class="cluster">
<title>cluster25 x 12</title>
<path fill="none" stroke="black" d="M1738.3,-218.95C1738.3,-218.95 1842.3,-218.95 1842.3,-218.95 1848.3,-218.95 1854.3,-224.95 1854.3,-230.95 1854.3,-230.95 1854.3,-420.88 1854.3,-420.88 1854.3,-426.88 1848.3,-432.88 1842.3,-432.88 1842.3,-432.88 1738.3,-432.88 1738.3,-432.88 1732.3,-432.88 1726.3,-426.88 1726.3,-420.88 1726.3,-420.88 1726.3,-230.95 1726.3,-230.95 1726.3,-224.95 1732.3,-218.95 1738.3,-218.95"/>
<text text-anchor="middle" x="1819.3" y="-226.75" font-family="Times-Roman" font-size="14.00">25 x 12</text>
</g>
<g id="clust4" class="cluster">
<title>cluster12</title>
<path fill="none" stroke="black" d="M1308.3,-218.95C1308.3,-218.95 1412.3,-218.95 1412.3,-218.95 1418.3,-218.95 1424.3,-224.95 1424.3,-230.95 1424.3,-230.95 1424.3,-420.88 1424.3,-420.88 1424.3,-426.88 1418.3,-432.88 1412.3,-432.88 1412.3,-432.88 1308.3,-432.88 1308.3,-432.88 1302.3,-432.88 1296.3,-426.88 1296.3,-420.88 1296.3,-420.88 1296.3,-230.95 1296.3,-230.95 1296.3,-224.95 1302.3,-218.95 1308.3,-218.95"/>
<text text-anchor="middle" x="1406.8" y="-226.75" font-family="Times-Roman" font-size="14.00">12</text>
</g>
<g id="clust5" class="cluster">
<title>cluster25</title>
<path fill="none" stroke="black" d="M1874.3,-329.91C1874.3,-329.91 2150.3,-329.91 2150.3,-329.91 2156.3,-329.91 2162.3,-335.91 2162.3,-341.91 2162.3,-341.91 2162.3,-531.84 2162.3,-531.84 2162.3,-537.84 2156.3,-543.84 2150.3,-543.84 2150.3,-543.84 1874.3,-543.84 1874.3,-543.84 1868.3,-543.84 1862.3,-537.84 1862.3,-531.84 1862.3,-531.84 1862.3,-341.91 1862.3,-341.91 1862.3,-335.91 1868.3,-329.91 1874.3,-329.91"/>
<text text-anchor="middle" x="2144.8" y="-337.71" font-family="Times-Roman" font-size="14.00">25</text>
</g>
<g id="clust6" class="cluster">
<title>cluster125</title>
<path fill="none" stroke="black" d="M2182.3,-218.95C2182.3,-218.95 2286.3,-218.95 2286.3,-218.95 2292.3,-218.95 2298.3,-224.95 2298.3,-230.95 2298.3,-230.95 2298.3,-420.88 2298.3,-420.88 2298.3,-426.88 2292.3,-432.88 2286.3,-432.88 2286.3,-432.88 2182.3,-432.88 2182.3,-432.88 2176.3,-432.88 2170.3,-426.88 2170.3,-420.88 2170.3,-420.88 2170.3,-230.95 2170.3,-230.95 2170.3,-224.95 2176.3,-218.95 2182.3,-218.95"/>
<text text-anchor="middle" x="2276.3" y="-226.75" font-family="Times-Roman" font-size="14.00">125</text>
</g>
<g id="clust7" class="cluster">
<title>cluster1,500</title>
<path fill="none" stroke="black" d="M1246.3,-8C1246.3,-8 1350.3,-8 1350.3,-8 1356.3,-8 1362.3,-14 1362.3,-20 1362.3,-20 1362.3,-198.95 1362.3,-198.95 1362.3,-204.95 1356.3,-210.95 1350.3,-210.95 1350.3,-210.95 1246.3,-210.95 1246.3,-210.95 1240.3,-210.95 1234.3,-204.95 1234.3,-198.95 1234.3,-198.95 1234.3,-20 1234.3,-20 1234.3,-14 1240.3,-8 1246.3,-8"/>
<text text-anchor="middle" x="1333.8" y="-15.8" font-family="Times-Roman" font-size="14.00">1,500</text>
</g>
<!-- μ_μ_d -->
<g id="node1" class="node">
<title>μ_μ_d</title>
<ellipse fill="none" stroke="black" cx="478.3" cy="-498.36" rx="48.58" ry="37.45"/>
<text text-anchor="middle" x="478.3" y="-509.66" font-family="Times-Roman" font-size="14.00">μ_μ_d</text>
<text text-anchor="middle" x="478.3" y="-494.66" font-family="Times-Roman" font-size="14.00">~</text>
<text text-anchor="middle" x="478.3" y="-479.66" font-family="Times-Roman" font-size="14.00">Normal</text>
</g>
<!-- μ_d -->
<g id="node16" class="node">
<title>μ_d</title>
<polygon fill="none" stroke="black" points="951.3,-413.91 839.3,-413.91 839.3,-360.91 951.3,-360.91 951.3,-413.91"/>
<text text-anchor="middle" x="895.3" y="-398.71" font-family="Times-Roman" font-size="14.00">μ_d</text>
<text text-anchor="middle" x="895.3" y="-383.71" font-family="Times-Roman" font-size="14.00">~</text>
<text text-anchor="middle" x="895.3" y="-368.71" font-family="Times-Roman" font-size="14.00">Deterministic</text>
</g>
<!-- μ_μ_d&#45;&gt;μ_d -->
<g id="edge12" class="edge">
<title>μ_μ_d&#45;&gt;μ_d</title>
<path fill="none" stroke="black" d="M513.18,-471.84C520.51,-467.53 528.42,-463.58 536.3,-460.88 657.14,-419.56 701.16,-473.35 822.3,-432.88 832.32,-429.53 842.42,-424.6 851.78,-419.23"/>
<polygon fill="black" stroke="black" points="853.73,-422.14 860.49,-413.99 850.12,-416.15 853.73,-422.14"/>
</g>
<!-- σ_μ_d -->
<g id="node2" class="node">
<title>σ_μ_d</title>
<ellipse fill="none" stroke="black" cx="614.3" cy="-498.36" rx="69.09" ry="37.45"/>
<text text-anchor="middle" x="614.3" y="-509.66" font-family="Times-Roman" font-size="14.00">σ_μ_d</text>
<text text-anchor="middle" x="614.3" y="-494.66" font-family="Times-Roman" font-size="14.00">~</text>
<text text-anchor="middle" x="614.3" y="-479.66" font-family="Times-Roman" font-size="14.00">HalfNormal</text>
</g>
<!-- σ_μ_d&#45;&gt;μ_d -->
<g id="edge11" class="edge">
<title>σ_μ_d&#45;&gt;μ_d</title>
<path fill="none" stroke="black" d="M663.19,-471.46C671.74,-467.55 680.67,-463.84 689.3,-460.88 746.44,-441.3 766.14,-455.14 822.3,-432.88 831.61,-429.19 841.09,-424.36 849.99,-419.23"/>
<polygon fill="black" stroke="black" points="851.89,-422.18 858.68,-414.05 848.3,-416.17 851.89,-422.18"/>
</g>
<!-- σ_μ_a -->
<g id="node3" class="node">
<title>σ_μ_a</title>
<ellipse fill="none" stroke="black" cx="1783.3" cy="-498.36" rx="69.09" ry="37.45"/>
<text text-anchor="middle" x="1783.3" y="-509.66" font-family="Times-Roman" font-size="14.00">σ_μ_a</text>
<text text-anchor="middle" x="1783.3" y="-494.66" font-family="Times-Roman" font-size="14.00">~</text>
<text text-anchor="middle" x="1783.3" y="-479.66" font-family="Times-Roman" font-size="14.00">HalfNormal</text>
</g>
<!-- μ_a -->
<g id="node29" class="node">
<title>μ_a</title>
<polygon fill="none" stroke="black" points="1986.3,-413.91 1874.3,-413.91 1874.3,-360.91 1986.3,-360.91 1986.3,-413.91"/>
<text text-anchor="middle" x="1930.3" y="-398.71" font-family="Times-Roman" font-size="14.00">μ_a</text>
<text text-anchor="middle" x="1930.3" y="-383.71" font-family="Times-Roman" font-size="14.00">~</text>
<text text-anchor="middle" x="1930.3" y="-368.71" font-family="Times-Roman" font-size="14.00">Deterministic</text>
</g>
<!-- σ_μ_a&#45;&gt;μ_a -->
<g id="edge19" class="edge">
<title>σ_μ_a&#45;&gt;μ_a</title>
<path fill="none" stroke="black" d="M1823.46,-467.59C1843.34,-452.86 1867.34,-435.07 1887.55,-420.09"/>
<polygon fill="black" stroke="black" points="1889.72,-422.84 1895.67,-414.07 1885.55,-417.21 1889.72,-422.84"/>
</g>
<!-- μ_μ_j -->
<g id="node4" class="node">
<title>μ_μ_j</title>
<ellipse fill="none" stroke="black" cx="362.3" cy="-498.36" rx="48.58" ry="37.45"/>
<text text-anchor="middle" x="362.3" y="-509.66" font-family="Times-Roman" font-size="14.00">μ_μ_j</text>
<text text-anchor="middle" x="362.3" y="-494.66" font-family="Times-Roman" font-size="14.00">~</text>
<text text-anchor="middle" x="362.3" y="-479.66" font-family="Times-Roman" font-size="14.00">Normal</text>
</g>
<!-- μ_j -->
<g id="node14" class="node">
<title>μ_j</title>
<polygon fill="none" stroke="black" points="813.3,-413.91 701.3,-413.91 701.3,-360.91 813.3,-360.91 813.3,-413.91"/>
<text text-anchor="middle" x="757.3" y="-398.71" font-family="Times-Roman" font-size="14.00">μ_j</text>
<text text-anchor="middle" x="757.3" y="-383.71" font-family="Times-Roman" font-size="14.00">~</text>
<text text-anchor="middle" x="757.3" y="-368.71" font-family="Times-Roman" font-size="14.00">Deterministic</text>
</g>
<!-- μ_μ_j&#45;&gt;μ_j -->
<g id="edge1" class="edge">
<title>μ_μ_j&#45;&gt;μ_j</title>
<path fill="none" stroke="black" d="M397.19,-471.88C404.52,-467.56 412.43,-463.6 420.3,-460.88 533.91,-421.64 576.04,-473.14 689.3,-432.88 698.57,-429.59 707.84,-424.79 716.42,-419.54"/>
<polygon fill="black" stroke="black" points="718.57,-422.32 725.08,-413.96 714.78,-416.44 718.57,-422.32"/>
</g>
<!-- σ_σ_d -->
<g id="node5" class="node">
<title>σ_σ_d</title>
<ellipse fill="none" stroke="black" cx="1211.3" cy="-609.31" rx="69.09" ry="37.45"/>
<text text-anchor="middle" x="1211.3" y="-620.61" font-family="Times-Roman" font-size="14.00">σ_σ_d</text>
<text text-anchor="middle" x="1211.3" y="-605.61" font-family="Times-Roman" font-size="14.00">~</text>
<text text-anchor="middle" x="1211.3" y="-590.61" font-family="Times-Roman" font-size="14.00">HalfNormal</text>
</g>
<!-- σ_d -->
<g id="node19" class="node">
<title>σ_d</title>
<ellipse fill="none" stroke="black" cx="1211.3" cy="-498.36" rx="69.09" ry="37.45"/>
<text text-anchor="middle" x="1211.3" y="-509.66" font-family="Times-Roman" font-size="14.00">σ_d</text>
<text text-anchor="middle" x="1211.3" y="-494.66" font-family="Times-Roman" font-size="14.00">~</text>
<text text-anchor="middle" x="1211.3" y="-479.66" font-family="Times-Roman" font-size="14.00">HalfNormal</text>
</g>
<!-- σ_σ_d&#45;&gt;σ_d -->
<g id="edge14" class="edge">
<title>σ_σ_d&#45;&gt;σ_d</title>
<path fill="none" stroke="black" d="M1211.3,-571.73C1211.3,-563.56 1211.3,-554.78 1211.3,-546.25"/>
<polygon fill="black" stroke="black" points="1214.8,-546.03 1211.3,-536.03 1207.8,-546.03 1214.8,-546.03"/>
</g>
<!-- μ_h -->
<g id="node6" class="node">
<title>μ_h</title>
<ellipse fill="none" stroke="black" cx="1513.3" cy="-387.41" rx="48.58" ry="37.45"/>
<text text-anchor="middle" x="1513.3" y="-398.71" font-family="Times-Roman" font-size="14.00">μ_h</text>
<text text-anchor="middle" x="1513.3" y="-383.71" font-family="Times-Roman" font-size="14.00">~</text>
<text text-anchor="middle" x="1513.3" y="-368.71" font-family="Times-Roman" font-size="14.00">Normal</text>
</g>
<!-- h -->
<g id="node23" class="node">
<title>h</title>
<polygon fill="none" stroke="black" points="1846.3,-302.95 1734.3,-302.95 1734.3,-249.95 1846.3,-249.95 1846.3,-302.95"/>
<text text-anchor="middle" x="1790.3" y="-287.75" font-family="Times-Roman" font-size="14.00">h</text>
<text text-anchor="middle" x="1790.3" y="-272.75" font-family="Times-Roman" font-size="14.00">~</text>
<text text-anchor="middle" x="1790.3" y="-257.75" font-family="Times-Roman" font-size="14.00">Deterministic</text>
</g>
<!-- μ_h&#45;&gt;h -->
<g id="edge9" class="edge">
<title>μ_h&#45;&gt;h</title>
<path fill="none" stroke="black" d="M1539.09,-355.42C1548.37,-345.99 1559.48,-336.42 1571.3,-329.91 1618.73,-303.77 1678.95,-290.56 1724.23,-283.94"/>
<polygon fill="black" stroke="black" points="1724.82,-287.39 1734.24,-282.55 1723.85,-280.46 1724.82,-287.39"/>
</g>
<!-- σ_σ_j -->
<g id="node7" class="node">
<title>σ_σ_j</title>
<ellipse fill="none" stroke="black" cx="1054.3" cy="-609.31" rx="69.09" ry="37.45"/>
<text text-anchor="middle" x="1054.3" y="-620.61" font-family="Times-Roman" font-size="14.00">σ_σ_j</text>
<text text-anchor="middle" x="1054.3" y="-605.61" font-family="Times-Roman" font-size="14.00">~</text>
<text text-anchor="middle" x="1054.3" y="-590.61" font-family="Times-Roman" font-size="14.00">HalfNormal</text>
</g>
<!-- σ_j -->
<g id="node15" class="node">
<title>σ_j</title>
<ellipse fill="none" stroke="black" cx="1054.3" cy="-498.36" rx="69.09" ry="37.45"/>
<text text-anchor="middle" x="1054.3" y="-509.66" font-family="Times-Roman" font-size="14.00">σ_j</text>
<text text-anchor="middle" x="1054.3" y="-494.66" font-family="Times-Roman" font-size="14.00">~</text>
<text text-anchor="middle" x="1054.3" y="-479.66" font-family="Times-Roman" font-size="14.00">HalfNormal</text>
</g>
<!-- σ_σ_j&#45;&gt;σ_j -->
<g id="edge4" class="edge">
<title>σ_σ_j&#45;&gt;σ_j</title>
<path fill="none" stroke="black" d="M1054.3,-571.73C1054.3,-563.56 1054.3,-554.78 1054.3,-546.25"/>
<polygon fill="black" stroke="black" points="1057.8,-546.03 1054.3,-536.03 1050.8,-546.03 1057.8,-546.03"/>
</g>
<!-- σ_σ -->
<g id="node8" class="node">
<title>σ_σ</title>
<ellipse fill="none" stroke="black" cx="69.3" cy="-498.36" rx="69.09" ry="37.45"/>
<text text-anchor="middle" x="69.3" y="-509.66" font-family="Times-Roman" font-size="14.00">σ_σ</text>
<text text-anchor="middle" x="69.3" y="-494.66" font-family="Times-Roman" font-size="14.00">~</text>
<text text-anchor="middle" x="69.3" y="-479.66" font-family="Times-Roman" font-size="14.00">HalfNormal</text>
</g>
<!-- σ -->
<g id="node22" class="node">
<title>σ</title>
<ellipse fill="none" stroke="black" cx="492.3" cy="-387.41" rx="69.09" ry="37.45"/>
<text text-anchor="middle" x="492.3" y="-398.71" font-family="Times-Roman" font-size="14.00">σ</text>
<text text-anchor="middle" x="492.3" y="-383.71" font-family="Times-Roman" font-size="14.00">~</text>
<text text-anchor="middle" x="492.3" y="-368.71" font-family="Times-Roman" font-size="14.00">HalfNormal</text>
</g>
<!-- σ_σ&#45;&gt;σ -->
<g id="edge30" class="edge">
<title>σ_σ&#45;&gt;σ</title>
<path fill="none" stroke="black" d="M119.19,-472.28C128.7,-468.08 138.69,-464.07 148.3,-460.88 237.89,-431.18 344.77,-410.92 415.36,-399.53"/>
<polygon fill="black" stroke="black" points="416.18,-402.94 425.5,-397.91 415.08,-396.03 416.18,-402.94"/>
</g>
<!-- i -->
<g id="node9" class="node">
<title>i</title>
<ellipse fill="none" stroke="black" cx="1237.3" cy="-276.45" rx="48.58" ry="37.45"/>
<text text-anchor="middle" x="1237.3" y="-287.75" font-family="Times-Roman" font-size="14.00">i</text>
<text text-anchor="middle" x="1237.3" y="-272.75" font-family="Times-Roman" font-size="14.00">~</text>
<text text-anchor="middle" x="1237.3" y="-257.75" font-family="Times-Roman" font-size="14.00">Normal</text>
</g>
<!-- μ -->
<g id="node32" class="node">
<title>μ</title>
<polygon fill="none" stroke="black" points="1354.3,-202.95 1242.3,-202.95 1242.3,-149.95 1354.3,-149.95 1354.3,-202.95"/>
<text text-anchor="middle" x="1298.3" y="-187.75" font-family="Times-Roman" font-size="14.00">μ</text>
<text text-anchor="middle" x="1298.3" y="-172.75" font-family="Times-Roman" font-size="14.00">~</text>
<text text-anchor="middle" x="1298.3" y="-157.75" font-family="Times-Roman" font-size="14.00">Deterministic</text>
</g>
<!-- i&#45;&gt;μ -->
<g id="edge29" class="edge">
<title>i&#45;&gt;μ</title>
<path fill="none" stroke="black" d="M1257.95,-242.27C1264.03,-232.5 1270.71,-221.78 1276.84,-211.92"/>
<polygon fill="black" stroke="black" points="1279.98,-213.5 1282.29,-203.16 1274.04,-209.8 1279.98,-213.5"/>
</g>
<!-- μ_μ_a -->
<g id="node10" class="node">
<title>μ_μ_a</title>
<ellipse fill="none" stroke="black" cx="1647.3" cy="-498.36" rx="48.58" ry="37.45"/>
<text text-anchor="middle" x="1647.3" y="-509.66" font-family="Times-Roman" font-size="14.00">μ_μ_a</text>
<text text-anchor="middle" x="1647.3" y="-494.66" font-family="Times-Roman" font-size="14.00">~</text>
<text text-anchor="middle" x="1647.3" y="-479.66" font-family="Times-Roman" font-size="14.00">Normal</text>
</g>
<!-- μ_μ_a&#45;&gt;μ_a -->
<g id="edge20" class="edge">
<title>μ_μ_a&#45;&gt;μ_a</title>
<path fill="none" stroke="black" d="M1682.68,-472.17C1689.91,-467.88 1697.65,-463.86 1705.3,-460.88 1769.72,-435.81 1793.78,-457.7 1858.3,-432.88 1867.66,-429.28 1877.14,-424.44 1886.02,-419.28"/>
<polygon fill="black" stroke="black" points="1887.93,-422.21 1894.67,-414.04 1884.31,-416.22 1887.93,-422.21"/>
</g>
<!-- σ_μ_j -->
<g id="node11" class="node">
<title>σ_μ_j</title>
<ellipse fill="none" stroke="black" cx="226.3" cy="-498.36" rx="69.09" ry="37.45"/>
<text text-anchor="middle" x="226.3" y="-509.66" font-family="Times-Roman" font-size="14.00">σ_μ_j</text>
<text text-anchor="middle" x="226.3" y="-494.66" font-family="Times-Roman" font-size="14.00">~</text>
<text text-anchor="middle" x="226.3" y="-479.66" font-family="Times-Roman" font-size="14.00">HalfNormal</text>
</g>
<!-- σ_μ_j&#45;&gt;μ_j -->
<g id="edge3" class="edge">
<title>σ_μ_j&#45;&gt;μ_j</title>
<path fill="none" stroke="black" d="M274.79,-471.39C284.35,-467.22 294.46,-463.45 304.3,-460.88 470.31,-417.6 526.76,-487.81 689.3,-432.88 698.82,-429.67 708.31,-424.79 717.04,-419.44"/>
<polygon fill="black" stroke="black" points="719.01,-422.33 725.5,-413.96 715.21,-416.46 719.01,-422.33"/>
</g>
<!-- σ_h -->
<g id="node12" class="node">
<title>σ_h</title>
<ellipse fill="none" stroke="black" cx="1649.3" cy="-387.41" rx="69.09" ry="37.45"/>
<text text-anchor="middle" x="1649.3" y="-398.71" font-family="Times-Roman" font-size="14.00">σ_h</text>
<text text-anchor="middle" x="1649.3" y="-383.71" font-family="Times-Roman" font-size="14.00">~</text>
<text text-anchor="middle" x="1649.3" y="-368.71" font-family="Times-Roman" font-size="14.00">HalfNormal</text>
</g>
<!-- σ_h&#45;&gt;h -->
<g id="edge8" class="edge">
<title>σ_h&#45;&gt;h</title>
<path fill="none" stroke="black" d="M1688.31,-356.19C1699.3,-347.69 1711.26,-338.43 1722.3,-329.91 1730.97,-323.21 1740.27,-316.03 1749.11,-309.2"/>
<polygon fill="black" stroke="black" points="1751.3,-311.93 1757.08,-303.05 1747.03,-306.39 1751.3,-311.93"/>
</g>
<!-- σ_σ_a -->
<g id="node13" class="node">
<title>σ_σ_a</title>
<ellipse fill="none" stroke="black" cx="2085.3" cy="-609.31" rx="69.09" ry="37.45"/>
<text text-anchor="middle" x="2085.3" y="-620.61" font-family="Times-Roman" font-size="14.00">σ_σ_a</text>
<text text-anchor="middle" x="2085.3" y="-605.61" font-family="Times-Roman" font-size="14.00">~</text>
<text text-anchor="middle" x="2085.3" y="-590.61" font-family="Times-Roman" font-size="14.00">HalfNormal</text>
</g>
<!-- σ_a -->
<g id="node28" class="node">
<title>σ_a</title>
<ellipse fill="none" stroke="black" cx="2085.3" cy="-498.36" rx="69.09" ry="37.45"/>
<text text-anchor="middle" x="2085.3" y="-509.66" font-family="Times-Roman" font-size="14.00">σ_a</text>
<text text-anchor="middle" x="2085.3" y="-494.66" font-family="Times-Roman" font-size="14.00">~</text>
<text text-anchor="middle" x="2085.3" y="-479.66" font-family="Times-Roman" font-size="14.00">HalfNormal</text>
</g>
<!-- σ_σ_a&#45;&gt;σ_a -->
<g id="edge21" class="edge">
<title>σ_σ_a&#45;&gt;σ_a</title>
<path fill="none" stroke="black" d="M2085.3,-571.73C2085.3,-563.56 2085.3,-554.78 2085.3,-546.25"/>
<polygon fill="black" stroke="black" points="2088.8,-546.03 2085.3,-536.03 2081.8,-546.03 2088.8,-546.03"/>
</g>
<!-- j -->
<g id="node20" class="node">
<title>j</title>
<polygon fill="none" stroke="black" points="677.3,-302.95 565.3,-302.95 565.3,-249.95 677.3,-249.95 677.3,-302.95"/>
<text text-anchor="middle" x="621.3" y="-287.75" font-family="Times-Roman" font-size="14.00">j</text>
<text text-anchor="middle" x="621.3" y="-272.75" font-family="Times-Roman" font-size="14.00">~</text>
<text text-anchor="middle" x="621.3" y="-257.75" font-family="Times-Roman" font-size="14.00">Deterministic</text>
</g>
<!-- μ_j&#45;&gt;j -->
<g id="edge6" class="edge">
<title>μ_j&#45;&gt;j</title>
<path fill="none" stroke="black" d="M727.02,-360.86C715.32,-351.08 701.76,-339.88 689.3,-329.91 680.92,-323.2 671.87,-316.11 663.2,-309.4"/>
<polygon fill="black" stroke="black" points="665.09,-306.43 655.03,-303.09 660.81,-311.97 665.09,-306.43"/>
</g>
<!-- σ_j&#45;&gt;j -->
<g id="edge5" class="edge">
<title>σ_j&#45;&gt;j</title>
<path fill="none" stroke="black" d="M1044.36,-461.16C1031.64,-422.13 1005.64,-361.35 960.3,-329.91 917.27,-300.06 773.39,-286.47 687.52,-280.88"/>
<polygon fill="black" stroke="black" points="687.55,-277.38 677.35,-280.24 687.11,-284.36 687.55,-277.38"/>
</g>
<!-- d -->
<g id="node25" class="node">
<title>d</title>
<polygon fill="none" stroke="black" points="1416.3,-302.95 1304.3,-302.95 1304.3,-249.95 1416.3,-249.95 1416.3,-302.95"/>
<text text-anchor="middle" x="1360.3" y="-287.75" font-family="Times-Roman" font-size="14.00">d</text>
<text text-anchor="middle" x="1360.3" y="-272.75" font-family="Times-Roman" font-size="14.00">~</text>
<text text-anchor="middle" x="1360.3" y="-257.75" font-family="Times-Roman" font-size="14.00">Deterministic</text>
</g>
<!-- μ_d&#45;&gt;d -->
<g id="edge15" class="edge">
<title>μ_d&#45;&gt;d</title>
<path fill="none" stroke="black" d="M951.48,-382.13C1030.29,-374.83 1177.25,-356.39 1295.3,-313.93 1300.19,-312.17 1305.16,-310.06 1310.04,-307.76"/>
<polygon fill="black" stroke="black" points="1311.93,-310.73 1319.31,-303.13 1308.8,-304.47 1311.93,-310.73"/>
</g>
<!-- μ_j_offset -->
<g id="node17" class="node">
<title>μ_j_offset</title>
<ellipse fill="none" stroke="black" cx="761.3" cy="-498.36" rx="60.21" ry="37.45"/>
<text text-anchor="middle" x="761.3" y="-509.66" font-family="Times-Roman" font-size="14.00">μ_j_offset</text>
<text text-anchor="middle" x="761.3" y="-494.66" font-family="Times-Roman" font-size="14.00">~</text>
<text text-anchor="middle" x="761.3" y="-479.66" font-family="Times-Roman" font-size="14.00">Normal</text>
</g>
<!-- μ_j_offset&#45;&gt;μ_j -->
<g id="edge2" class="edge">
<title>μ_j_offset&#45;&gt;μ_j</title>
<path fill="none" stroke="black" d="M759.95,-460.78C759.52,-449.04 759.05,-436.05 758.62,-424.36"/>
<polygon fill="black" stroke="black" points="762.1,-423.92 758.24,-414.06 755.11,-424.18 762.1,-423.92"/>
</g>
<!-- μ_d_offset -->
<g id="node18" class="node">
<title>μ_d_offset</title>
<ellipse fill="none" stroke="black" cx="903.3" cy="-498.36" rx="63.78" ry="37.45"/>
<text text-anchor="middle" x="903.3" y="-509.66" font-family="Times-Roman" font-size="14.00">μ_d_offset</text>
<text text-anchor="middle" x="903.3" y="-494.66" font-family="Times-Roman" font-size="14.00">~</text>
<text text-anchor="middle" x="903.3" y="-479.66" font-family="Times-Roman" font-size="14.00">Normal</text>
</g>
<!-- μ_d_offset&#45;&gt;μ_d -->
<g id="edge13" class="edge">
<title>μ_d_offset&#45;&gt;μ_d</title>
<path fill="none" stroke="black" d="M900.61,-460.78C899.75,-449.04 898.8,-436.05 897.94,-424.36"/>
<polygon fill="black" stroke="black" points="901.4,-423.78 897.18,-414.06 894.42,-424.29 901.4,-423.78"/>
</g>
<!-- σ_d&#45;&gt;d -->
<g id="edge16" class="edge">
<title>σ_d&#45;&gt;d</title>
<path fill="none" stroke="black" d="M1280.47,-495.71C1327.32,-490.53 1386.17,-475.24 1417.3,-432.88 1444.4,-396 1435.68,-371.82 1417.3,-329.91 1414.25,-322.96 1409.78,-316.54 1404.66,-310.73"/>
<polygon fill="black" stroke="black" points="1406.84,-307.94 1397.36,-303.21 1401.82,-312.82 1406.84,-307.94"/>
</g>
<!-- j&#45;&gt;μ -->
<g id="edge25" class="edge">
<title>j&#45;&gt;μ</title>
<path fill="none" stroke="black" d="M677.56,-267.31C801.72,-249.34 1098.67,-206.35 1231.78,-187.08"/>
<polygon fill="black" stroke="black" points="1232.44,-190.52 1241.84,-185.63 1231.44,-183.59 1232.44,-190.52"/>
</g>
<!-- j_offset -->
<g id="node21" class="node">
<title>j_offset</title>
<ellipse fill="none" stroke="black" cx="628.3" cy="-387.41" rx="48.58" ry="37.45"/>
<text text-anchor="middle" x="628.3" y="-398.71" font-family="Times-Roman" font-size="14.00">j_offset</text>
<text text-anchor="middle" x="628.3" y="-383.71" font-family="Times-Roman" font-size="14.00">~</text>
<text text-anchor="middle" x="628.3" y="-368.71" font-family="Times-Roman" font-size="14.00">Normal</text>
</g>
<!-- j_offset&#45;&gt;j -->
<g id="edge7" class="edge">
<title>j_offset&#45;&gt;j</title>
<path fill="none" stroke="black" d="M625.95,-349.82C625.19,-338.09 624.36,-325.1 623.61,-313.41"/>
<polygon fill="black" stroke="black" points="627.08,-312.86 622.94,-303.11 620.09,-313.31 627.08,-312.86"/>
</g>
<!-- lfc -->
<g id="node33" class="node">
<title>lfc</title>
<ellipse fill="lightgrey" stroke="black" cx="1294.3" cy="-76.48" rx="48.58" ry="37.45"/>
<text text-anchor="middle" x="1294.3" y="-87.78" font-family="Times-Roman" font-size="14.00">lfc</text>
<text text-anchor="middle" x="1294.3" y="-72.78" font-family="Times-Roman" font-size="14.00">~</text>
<text text-anchor="middle" x="1294.3" y="-57.78" font-family="Times-Roman" font-size="14.00">Normal</text>
</g>
<!-- σ&#45;&gt;lfc -->
<g id="edge32" class="edge">
<title>σ&#45;&gt;lfc</title>
<path fill="none" stroke="black" d="M496,-349.77C501.91,-311.24 517.18,-251.74 556.3,-218.95 659.9,-132.12 1079.4,-93.16 1235.45,-81.47"/>
<polygon fill="black" stroke="black" points="1236.06,-84.93 1245.78,-80.71 1235.55,-77.95 1236.06,-84.93"/>
</g>
<!-- h&#45;&gt;μ -->
<g id="edge26" class="edge">
<title>h&#45;&gt;μ</title>
<path fill="none" stroke="black" d="M1733.86,-264.21C1642.32,-245.98 1461.92,-210.05 1364.48,-190.64"/>
<polygon fill="black" stroke="black" points="1364.95,-187.16 1354.45,-188.64 1363.58,-194.03 1364.95,-187.16"/>
</g>
<!-- h_offset -->
<g id="node24" class="node">
<title>h_offset</title>
<ellipse fill="none" stroke="black" cx="1790.3" cy="-387.41" rx="52.15" ry="37.45"/>
<text text-anchor="middle" x="1790.3" y="-398.71" font-family="Times-Roman" font-size="14.00">h_offset</text>
<text text-anchor="middle" x="1790.3" y="-383.71" font-family="Times-Roman" font-size="14.00">~</text>
<text text-anchor="middle" x="1790.3" y="-368.71" font-family="Times-Roman" font-size="14.00">Normal</text>
</g>
<!-- h_offset&#45;&gt;h -->
<g id="edge10" class="edge">
<title>h_offset&#45;&gt;h</title>
<path fill="none" stroke="black" d="M1790.3,-349.82C1790.3,-338.09 1790.3,-325.1 1790.3,-313.41"/>
<polygon fill="black" stroke="black" points="1793.8,-313.11 1790.3,-303.11 1786.8,-313.11 1793.8,-313.11"/>
</g>
<!-- d&#45;&gt;μ -->
<g id="edge27" class="edge">
<title>d&#45;&gt;μ</title>
<path fill="none" stroke="black" d="M1344.01,-249.7C1336.67,-238.11 1327.91,-224.26 1320.03,-211.8"/>
<polygon fill="black" stroke="black" points="1322.78,-209.61 1314.48,-203.03 1316.87,-213.35 1322.78,-209.61"/>
</g>
<!-- d_offset -->
<g id="node26" class="node">
<title>d_offset</title>
<ellipse fill="none" stroke="black" cx="1356.3" cy="-387.41" rx="52.15" ry="37.45"/>
<text text-anchor="middle" x="1356.3" y="-398.71" font-family="Times-Roman" font-size="14.00">d_offset</text>
<text text-anchor="middle" x="1356.3" y="-383.71" font-family="Times-Roman" font-size="14.00">~</text>
<text text-anchor="middle" x="1356.3" y="-368.71" font-family="Times-Roman" font-size="14.00">Normal</text>
</g>
<!-- d_offset&#45;&gt;d -->
<g id="edge17" class="edge">
<title>d_offset&#45;&gt;d</title>
<path fill="none" stroke="black" d="M1357.64,-349.82C1358.07,-338.09 1358.55,-325.1 1358.98,-313.41"/>
<polygon fill="black" stroke="black" points="1362.49,-313.23 1359.35,-303.11 1355.49,-312.97 1362.49,-313.23"/>
</g>
<!-- μ_a_offset -->
<g id="node27" class="node">
<title>μ_a_offset</title>
<ellipse fill="none" stroke="black" cx="1934.3" cy="-498.36" rx="63.78" ry="37.45"/>
<text text-anchor="middle" x="1934.3" y="-509.66" font-family="Times-Roman" font-size="14.00">μ_a_offset</text>
<text text-anchor="middle" x="1934.3" y="-494.66" font-family="Times-Roman" font-size="14.00">~</text>
<text text-anchor="middle" x="1934.3" y="-479.66" font-family="Times-Roman" font-size="14.00">Normal</text>
</g>
<!-- μ_a_offset&#45;&gt;μ_a -->
<g id="edge18" class="edge">
<title>μ_a_offset&#45;&gt;μ_a</title>
<path fill="none" stroke="black" d="M1932.95,-460.78C1932.52,-449.04 1932.05,-436.05 1931.62,-424.36"/>
<polygon fill="black" stroke="black" points="1935.1,-423.92 1931.24,-414.06 1928.11,-424.18 1935.1,-423.92"/>
</g>
<!-- a -->
<g id="node31" class="node">
<title>a</title>
<polygon fill="none" stroke="black" points="2290.3,-302.95 2178.3,-302.95 2178.3,-249.95 2290.3,-249.95 2290.3,-302.95"/>
<text text-anchor="middle" x="2234.3" y="-287.75" font-family="Times-Roman" font-size="14.00">a</text>
<text text-anchor="middle" x="2234.3" y="-272.75" font-family="Times-Roman" font-size="14.00">~</text>
<text text-anchor="middle" x="2234.3" y="-257.75" font-family="Times-Roman" font-size="14.00">Deterministic</text>
</g>
<!-- σ_a&#45;&gt;a -->
<g id="edge23" class="edge">
<title>σ_a&#45;&gt;a</title>
<path fill="none" stroke="black" d="M2099.48,-461.39C2114.54,-425.81 2140.68,-370.89 2173.3,-329.91 2178.8,-322.99 2185.3,-316.3 2191.98,-310.13"/>
<polygon fill="black" stroke="black" points="2194.69,-312.4 2199.85,-303.15 2190.05,-307.16 2194.69,-312.4"/>
</g>
<!-- μ_a&#45;&gt;a -->
<g id="edge24" class="edge">
<title>μ_a&#45;&gt;a</title>
<path fill="none" stroke="black" d="M1986.41,-366.3C2037.96,-347.82 2114.37,-320.43 2168.71,-300.96"/>
<polygon fill="black" stroke="black" points="2170.02,-304.21 2178.25,-297.54 2167.66,-297.62 2170.02,-304.21"/>
</g>
<!-- a_offset -->
<g id="node30" class="node">
<title>a_offset</title>
<ellipse fill="none" stroke="black" cx="2234.3" cy="-387.41" rx="52.15" ry="37.45"/>
<text text-anchor="middle" x="2234.3" y="-398.71" font-family="Times-Roman" font-size="14.00">a_offset</text>
<text text-anchor="middle" x="2234.3" y="-383.71" font-family="Times-Roman" font-size="14.00">~</text>
<text text-anchor="middle" x="2234.3" y="-368.71" font-family="Times-Roman" font-size="14.00">Normal</text>
</g>
<!-- a_offset&#45;&gt;a -->
<g id="edge22" class="edge">
<title>a_offset&#45;&gt;a</title>
<path fill="none" stroke="black" d="M2234.3,-349.82C2234.3,-338.09 2234.3,-325.1 2234.3,-313.41"/>
<polygon fill="black" stroke="black" points="2237.8,-313.11 2234.3,-303.11 2230.8,-313.11 2237.8,-313.11"/>
</g>
<!-- a&#45;&gt;μ -->
<g id="edge28" class="edge">
<title>a&#45;&gt;μ</title>
<path fill="none" stroke="black" d="M2178.09,-265.66C2104.74,-253.18 1972.28,-231.72 1858.3,-218.95 1680.39,-199.02 1469.56,-186.33 1364.59,-180.75"/>
<polygon fill="black" stroke="black" points="1364.63,-177.25 1354.46,-180.22 1364.26,-184.24 1364.63,-177.25"/>
</g>
<!-- μ&#45;&gt;lfc -->
<g id="edge31" class="edge">
<title>μ&#45;&gt;lfc</title>
<path fill="none" stroke="black" d="M1297.25,-149.71C1296.93,-141.89 1296.56,-133.03 1296.21,-124.27"/>
<polygon fill="black" stroke="black" points="1299.7,-123.95 1295.79,-114.1 1292.7,-124.23 1299.7,-123.95"/>
</g>
</g>
</svg>
