<?xml version="1.0" encoding="UTF-8" standalone="no"?>
<!DOCTYPE svg PUBLIC "-//W3C//DTD SVG 1.1//EN"
 "http://www.w3.org/Graphics/SVG/1.1/DTD/svg11.dtd">
<!-- Generated by graphviz version 2.47.0 (20210327.0129)
 -->
<!-- Pages: 1 -->
<svg width="1766pt" height="644pt"
 viewBox="0.00 0.00 1766.30 643.81" xmlns="http://www.w3.org/2000/svg" xmlns:xlink="http://www.w3.org/1999/xlink">
<g id="graph0" class="graph" transform="scale(1 1) rotate(0) translate(4 639.81)">
<polygon fill="white" stroke="transparent" points="-4,4 -4,-639.81 1762.3,-639.81 1762.3,4 -4,4"/>
<g id="clust1" class="cluster">
<title>cluster2</title>
<path fill="none" stroke="black" d="M548.3,-318.93C548.3,-318.93 1096.3,-318.93 1096.3,-318.93 1102.3,-318.93 1108.3,-324.93 1108.3,-330.93 1108.3,-330.93 1108.3,-520.86 1108.3,-520.86 1108.3,-526.86 1102.3,-532.86 1096.3,-532.86 1096.3,-532.86 548.3,-532.86 548.3,-532.86 542.3,-532.86 536.3,-526.86 536.3,-520.86 536.3,-520.86 536.3,-330.93 536.3,-330.93 536.3,-324.93 542.3,-318.93 548.3,-318.93"/>
<text text-anchor="middle" x="1095.3" y="-326.73" font-family="Times-Roman" font-size="14.00">2</text>
</g>
<g id="clust2" class="cluster">
<title>cluster10 x 5</title>
<path fill="none" stroke="black" d="M148.3,-218.95C148.3,-218.95 252.3,-218.95 252.3,-218.95 258.3,-218.95 264.3,-224.95 264.3,-230.95 264.3,-230.95 264.3,-409.91 264.3,-409.91 264.3,-415.91 258.3,-421.91 252.3,-421.91 252.3,-421.91 148.3,-421.91 148.3,-421.91 142.3,-421.91 136.3,-415.91 136.3,-409.91 136.3,-409.91 136.3,-230.95 136.3,-230.95 136.3,-224.95 142.3,-218.95 148.3,-218.95"/>
<text text-anchor="middle" x="233.8" y="-226.75" font-family="Times-Roman" font-size="14.00">10 x 5</text>
</g>
<g id="clust3" class="cluster">
<title>cluster5</title>
<path fill="none" stroke="black" d="M1128.3,-218.95C1128.3,-218.95 1232.3,-218.95 1232.3,-218.95 1238.3,-218.95 1244.3,-224.95 1244.3,-230.95 1244.3,-230.95 1244.3,-409.91 1244.3,-409.91 1244.3,-415.91 1238.3,-421.91 1232.3,-421.91 1232.3,-421.91 1128.3,-421.91 1128.3,-421.91 1122.3,-421.91 1116.3,-415.91 1116.3,-409.91 1116.3,-409.91 1116.3,-230.95 1116.3,-230.95 1116.3,-224.95 1122.3,-218.95 1128.3,-218.95"/>
<text text-anchor="middle" x="1231.3" y="-226.75" font-family="Times-Roman" font-size="14.00">5</text>
</g>
<g id="clust4" class="cluster">
<title>cluster10</title>
<path fill="none" stroke="black" d="M1462.3,-318.93C1462.3,-318.93 1738.3,-318.93 1738.3,-318.93 1744.3,-318.93 1750.3,-324.93 1750.3,-330.93 1750.3,-330.93 1750.3,-520.86 1750.3,-520.86 1750.3,-526.86 1744.3,-532.86 1738.3,-532.86 1738.3,-532.86 1462.3,-532.86 1462.3,-532.86 1456.3,-532.86 1450.3,-526.86 1450.3,-520.86 1450.3,-520.86 1450.3,-330.93 1450.3,-330.93 1450.3,-324.93 1456.3,-318.93 1462.3,-318.93"/>
<text text-anchor="middle" x="1732.8" y="-326.73" font-family="Times-Roman" font-size="14.00">10</text>
</g>
<g id="clust5" class="cluster">
<title>cluster30</title>
<path fill="none" stroke="black" d="M1326.3,-218.95C1326.3,-218.95 1430.3,-218.95 1430.3,-218.95 1436.3,-218.95 1442.3,-224.95 1442.3,-230.95 1442.3,-230.95 1442.3,-409.91 1442.3,-409.91 1442.3,-415.91 1436.3,-421.91 1430.3,-421.91 1430.3,-421.91 1326.3,-421.91 1326.3,-421.91 1320.3,-421.91 1314.3,-415.91 1314.3,-409.91 1314.3,-409.91 1314.3,-230.95 1314.3,-230.95 1314.3,-224.95 1320.3,-218.95 1326.3,-218.95"/>
<text text-anchor="middle" x="1424.8" y="-226.75" font-family="Times-Roman" font-size="14.00">30</text>
</g>
<g id="clust6" class="cluster">
<title>cluster150</title>
<path fill="none" stroke="black" d="M1128.3,-8C1128.3,-8 1232.3,-8 1232.3,-8 1238.3,-8 1244.3,-14 1244.3,-20 1244.3,-20 1244.3,-198.95 1244.3,-198.95 1244.3,-204.95 1238.3,-210.95 1232.3,-210.95 1232.3,-210.95 1128.3,-210.95 1128.3,-210.95 1122.3,-210.95 1116.3,-204.95 1116.3,-198.95 1116.3,-198.95 1116.3,-20 1116.3,-20 1116.3,-14 1122.3,-8 1128.3,-8"/>
<text text-anchor="middle" x="1222.3" y="-15.8" font-family="Times-Roman" font-size="14.00">150</text>
</g>
<!-- μ_h -->
<g id="node1" class="node">
<title>μ_h</title>
<ellipse fill="none" stroke="black" cx="321.3" cy="-376.43" rx="48.58" ry="37.45"/>
<text text-anchor="middle" x="321.3" y="-387.73" font-family="Times-Roman" font-size="14.00">μ_h</text>
<text text-anchor="middle" x="321.3" y="-372.73" font-family="Times-Roman" font-size="14.00">~</text>
<text text-anchor="middle" x="321.3" y="-357.73" font-family="Times-Roman" font-size="14.00">Normal</text>
</g>
<!-- h -->
<g id="node19" class="node">
<title>h</title>
<polygon fill="none" stroke="black" points="256.3,-302.95 144.3,-302.95 144.3,-249.95 256.3,-249.95 256.3,-302.95"/>
<text text-anchor="middle" x="200.3" y="-287.75" font-family="Times-Roman" font-size="14.00">h</text>
<text text-anchor="middle" x="200.3" y="-272.75" font-family="Times-Roman" font-size="14.00">~</text>
<text text-anchor="middle" x="200.3" y="-257.75" font-family="Times-Roman" font-size="14.00">Deterministic</text>
</g>
<!-- μ_h&#45;&gt;h -->
<g id="edge4" class="edge">
<title>μ_h&#45;&gt;h</title>
<path fill="none" stroke="black" d="M295.19,-344.6C287.03,-335.81 277.69,-326.56 268.3,-318.93 264,-315.44 259.39,-312.03 254.67,-308.76"/>
<polygon fill="black" stroke="black" points="256.34,-305.67 246.08,-303.03 252.46,-311.49 256.34,-305.67"/>
</g>
<!-- σ_σ_d -->
<g id="node2" class="node">
<title>σ_σ_d</title>
<ellipse fill="none" stroke="black" cx="874.3" cy="-598.34" rx="69.09" ry="37.45"/>
<text text-anchor="middle" x="874.3" y="-609.64" font-family="Times-Roman" font-size="14.00">σ_σ_d</text>
<text text-anchor="middle" x="874.3" y="-594.64" font-family="Times-Roman" font-size="14.00">~</text>
<text text-anchor="middle" x="874.3" y="-579.64" font-family="Times-Roman" font-size="14.00">HalfNormal</text>
</g>
<!-- σ_d -->
<g id="node17" class="node">
<title>σ_d</title>
<ellipse fill="none" stroke="black" cx="874.3" cy="-487.38" rx="69.09" ry="37.45"/>
<text text-anchor="middle" x="874.3" y="-498.68" font-family="Times-Roman" font-size="14.00">σ_d</text>
<text text-anchor="middle" x="874.3" y="-483.68" font-family="Times-Roman" font-size="14.00">~</text>
<text text-anchor="middle" x="874.3" y="-468.68" font-family="Times-Roman" font-size="14.00">HalfNormal</text>
</g>
<!-- σ_σ_d&#45;&gt;σ_d -->
<g id="edge10" class="edge">
<title>σ_σ_d&#45;&gt;σ_d</title>
<path fill="none" stroke="black" d="M874.3,-560.75C874.3,-552.58 874.3,-543.8 874.3,-535.27"/>
<polygon fill="black" stroke="black" points="877.8,-535.06 874.3,-525.06 870.8,-535.06 877.8,-535.06"/>
</g>
<!-- σ_μ_a -->
<g id="node3" class="node">
<title>σ_μ_a</title>
<ellipse fill="none" stroke="black" cx="1256.3" cy="-487.38" rx="69.09" ry="37.45"/>
<text text-anchor="middle" x="1256.3" y="-498.68" font-family="Times-Roman" font-size="14.00">σ_μ_a</text>
<text text-anchor="middle" x="1256.3" y="-483.68" font-family="Times-Roman" font-size="14.00">~</text>
<text text-anchor="middle" x="1256.3" y="-468.68" font-family="Times-Roman" font-size="14.00">HalfNormal</text>
</g>
<!-- μ_a -->
<g id="node23" class="node">
<title>μ_a</title>
<polygon fill="none" stroke="black" points="1570.3,-402.93 1458.3,-402.93 1458.3,-349.93 1570.3,-349.93 1570.3,-402.93"/>
<text text-anchor="middle" x="1514.3" y="-387.73" font-family="Times-Roman" font-size="14.00">μ_a</text>
<text text-anchor="middle" x="1514.3" y="-372.73" font-family="Times-Roman" font-size="14.00">~</text>
<text text-anchor="middle" x="1514.3" y="-357.73" font-family="Times-Roman" font-size="14.00">Deterministic</text>
</g>
<!-- σ_μ_a&#45;&gt;μ_a -->
<g id="edge15" class="edge">
<title>σ_μ_a&#45;&gt;μ_a</title>
<path fill="none" stroke="black" d="M1306.47,-461.2C1315.6,-457.11 1325.14,-453.16 1334.3,-449.91 1382.65,-432.74 1399.28,-442.46 1446.3,-421.91 1454.74,-418.21 1463.31,-413.51 1471.39,-408.55"/>
<polygon fill="black" stroke="black" points="1473.38,-411.43 1479.92,-403.1 1469.61,-405.53 1473.38,-411.43"/>
</g>
<!-- σ_j -->
<g id="node4" class="node">
<title>σ_j</title>
<ellipse fill="none" stroke="black" cx="69.3" cy="-487.38" rx="69.09" ry="37.45"/>
<text text-anchor="middle" x="69.3" y="-498.68" font-family="Times-Roman" font-size="14.00">σ_j</text>
<text text-anchor="middle" x="69.3" y="-483.68" font-family="Times-Roman" font-size="14.00">~</text>
<text text-anchor="middle" x="69.3" y="-468.68" font-family="Times-Roman" font-size="14.00">HalfNormal</text>
</g>
<!-- j -->
<g id="node16" class="node">
<title>j</title>
<polygon fill="none" stroke="black" points="656.3,-402.93 544.3,-402.93 544.3,-349.93 656.3,-349.93 656.3,-402.93"/>
<text text-anchor="middle" x="600.3" y="-387.73" font-family="Times-Roman" font-size="14.00">j</text>
<text text-anchor="middle" x="600.3" y="-372.73" font-family="Times-Roman" font-size="14.00">~</text>
<text text-anchor="middle" x="600.3" y="-357.73" font-family="Times-Roman" font-size="14.00">Deterministic</text>
</g>
<!-- σ_j&#45;&gt;j -->
<g id="edge2" class="edge">
<title>σ_j&#45;&gt;j</title>
<path fill="none" stroke="black" d="M117.79,-460.4C127.34,-456.24 137.46,-452.47 147.3,-449.91 314.61,-406.34 372.08,-478.92 535.3,-421.91 544.4,-418.73 553.42,-413.93 561.71,-408.64"/>
<polygon fill="black" stroke="black" points="563.73,-411.49 570.06,-402.99 559.81,-405.69 563.73,-411.49"/>
</g>
<!-- μ_j -->
<g id="node5" class="node">
<title>μ_j</title>
<ellipse fill="none" stroke="black" cx="205.3" cy="-487.38" rx="48.58" ry="37.45"/>
<text text-anchor="middle" x="205.3" y="-498.68" font-family="Times-Roman" font-size="14.00">μ_j</text>
<text text-anchor="middle" x="205.3" y="-483.68" font-family="Times-Roman" font-size="14.00">~</text>
<text text-anchor="middle" x="205.3" y="-468.68" font-family="Times-Roman" font-size="14.00">Normal</text>
</g>
<!-- μ_j&#45;&gt;j -->
<g id="edge1" class="edge">
<title>μ_j&#45;&gt;j</title>
<path fill="none" stroke="black" d="M240.19,-460.89C247.52,-456.58 255.42,-452.62 263.3,-449.91 378.19,-410.3 421.19,-463.73 535.3,-421.91 544.16,-418.66 552.97,-413.93 561.11,-408.75"/>
<polygon fill="black" stroke="black" points="563.3,-411.49 569.65,-403.01 559.4,-405.68 563.3,-411.49"/>
</g>
<!-- σ_σ_a -->
<g id="node6" class="node">
<title>σ_σ_a</title>
<ellipse fill="none" stroke="black" cx="1673.3" cy="-598.34" rx="69.09" ry="37.45"/>
<text text-anchor="middle" x="1673.3" y="-609.64" font-family="Times-Roman" font-size="14.00">σ_σ_a</text>
<text text-anchor="middle" x="1673.3" y="-594.64" font-family="Times-Roman" font-size="14.00">~</text>
<text text-anchor="middle" x="1673.3" y="-579.64" font-family="Times-Roman" font-size="14.00">HalfNormal</text>
</g>
<!-- σ_a -->
<g id="node24" class="node">
<title>σ_a</title>
<ellipse fill="none" stroke="black" cx="1673.3" cy="-487.38" rx="69.09" ry="37.45"/>
<text text-anchor="middle" x="1673.3" y="-498.68" font-family="Times-Roman" font-size="14.00">σ_a</text>
<text text-anchor="middle" x="1673.3" y="-483.68" font-family="Times-Roman" font-size="14.00">~</text>
<text text-anchor="middle" x="1673.3" y="-468.68" font-family="Times-Roman" font-size="14.00">HalfNormal</text>
</g>
<!-- σ_σ_a&#45;&gt;σ_a -->
<g id="edge17" class="edge">
<title>σ_σ_a&#45;&gt;σ_a</title>
<path fill="none" stroke="black" d="M1673.3,-560.75C1673.3,-552.58 1673.3,-543.8 1673.3,-535.27"/>
<polygon fill="black" stroke="black" points="1676.8,-535.06 1673.3,-525.06 1669.8,-535.06 1676.8,-535.06"/>
</g>
<!-- σ_σ -->
<g id="node7" class="node">
<title>σ_σ</title>
<ellipse fill="none" stroke="black" cx="1031.3" cy="-598.34" rx="69.09" ry="37.45"/>
<text text-anchor="middle" x="1031.3" y="-609.64" font-family="Times-Roman" font-size="14.00">σ_σ</text>
<text text-anchor="middle" x="1031.3" y="-594.64" font-family="Times-Roman" font-size="14.00">~</text>
<text text-anchor="middle" x="1031.3" y="-579.64" font-family="Times-Roman" font-size="14.00">HalfNormal</text>
</g>
<!-- σ -->
<g id="node13" class="node">
<title>σ</title>
<ellipse fill="none" stroke="black" cx="1031.3" cy="-487.38" rx="69.09" ry="37.45"/>
<text text-anchor="middle" x="1031.3" y="-498.68" font-family="Times-Roman" font-size="14.00">σ</text>
<text text-anchor="middle" x="1031.3" y="-483.68" font-family="Times-Roman" font-size="14.00">~</text>
<text text-anchor="middle" x="1031.3" y="-468.68" font-family="Times-Roman" font-size="14.00">HalfNormal</text>
</g>
<!-- σ_σ&#45;&gt;σ -->
<g id="edge25" class="edge">
<title>σ_σ&#45;&gt;σ</title>
<path fill="none" stroke="black" d="M1031.3,-560.75C1031.3,-552.58 1031.3,-543.8 1031.3,-535.27"/>
<polygon fill="black" stroke="black" points="1034.8,-535.06 1031.3,-525.06 1027.8,-535.06 1034.8,-535.06"/>
</g>
<!-- σ_μ_d -->
<g id="node8" class="node">
<title>σ_μ_d</title>
<ellipse fill="none" stroke="black" cx="341.3" cy="-487.38" rx="69.09" ry="37.45"/>
<text text-anchor="middle" x="341.3" y="-498.68" font-family="Times-Roman" font-size="14.00">σ_μ_d</text>
<text text-anchor="middle" x="341.3" y="-483.68" font-family="Times-Roman" font-size="14.00">~</text>
<text text-anchor="middle" x="341.3" y="-468.68" font-family="Times-Roman" font-size="14.00">HalfNormal</text>
</g>
<!-- μ_d -->
<g id="node14" class="node">
<title>μ_d</title>
<polygon fill="none" stroke="black" points="786.3,-402.93 674.3,-402.93 674.3,-349.93 786.3,-349.93 786.3,-402.93"/>
<text text-anchor="middle" x="730.3" y="-387.73" font-family="Times-Roman" font-size="14.00">μ_d</text>
<text text-anchor="middle" x="730.3" y="-372.73" font-family="Times-Roman" font-size="14.00">~</text>
<text text-anchor="middle" x="730.3" y="-357.73" font-family="Times-Roman" font-size="14.00">Deterministic</text>
</g>
<!-- σ_μ_d&#45;&gt;μ_d -->
<g id="edge9" class="edge">
<title>σ_μ_d&#45;&gt;μ_d</title>
<path fill="none" stroke="black" d="M390.3,-460.55C399.72,-456.43 409.66,-452.63 419.3,-449.91 525.19,-419.99 562.18,-460.33 665.3,-421.91 674.05,-418.65 682.76,-413.96 690.82,-408.84"/>
<polygon fill="black" stroke="black" points="692.93,-411.64 699.29,-403.16 689.04,-405.82 692.93,-411.64"/>
</g>
<!-- σ_h -->
<g id="node9" class="node">
<title>σ_h</title>
<ellipse fill="none" stroke="black" cx="457.3" cy="-376.43" rx="69.09" ry="37.45"/>
<text text-anchor="middle" x="457.3" y="-387.73" font-family="Times-Roman" font-size="14.00">σ_h</text>
<text text-anchor="middle" x="457.3" y="-372.73" font-family="Times-Roman" font-size="14.00">~</text>
<text text-anchor="middle" x="457.3" y="-357.73" font-family="Times-Roman" font-size="14.00">HalfNormal</text>
</g>
<!-- σ_h&#45;&gt;h -->
<g id="edge6" class="edge">
<title>σ_h&#45;&gt;h</title>
<path fill="none" stroke="black" d="M420.7,-344.31C408.22,-334.99 393.75,-325.51 379.3,-318.93 343.76,-302.75 301.28,-292.56 266.62,-286.33"/>
<polygon fill="black" stroke="black" points="267.05,-282.85 256.6,-284.6 265.86,-289.75 267.05,-282.85"/>
</g>
<!-- μ_μ_d -->
<g id="node10" class="node">
<title>μ_μ_d</title>
<ellipse fill="none" stroke="black" cx="477.3" cy="-487.38" rx="48.58" ry="37.45"/>
<text text-anchor="middle" x="477.3" y="-498.68" font-family="Times-Roman" font-size="14.00">μ_μ_d</text>
<text text-anchor="middle" x="477.3" y="-483.68" font-family="Times-Roman" font-size="14.00">~</text>
<text text-anchor="middle" x="477.3" y="-468.68" font-family="Times-Roman" font-size="14.00">Normal</text>
</g>
<!-- μ_μ_d&#45;&gt;μ_d -->
<g id="edge7" class="edge">
<title>μ_μ_d&#45;&gt;μ_d</title>
<path fill="none" stroke="black" d="M511.69,-460.76C518.29,-456.67 525.32,-452.83 532.3,-449.91 588.02,-426.58 609.75,-445.64 665.3,-421.91 673.7,-418.32 682.14,-413.57 690.04,-408.51"/>
<polygon fill="black" stroke="black" points="691.99,-411.42 698.36,-402.95 688.1,-405.6 691.99,-411.42"/>
</g>
<!-- μ_μ_a -->
<g id="node11" class="node">
<title>μ_μ_a</title>
<ellipse fill="none" stroke="black" cx="1392.3" cy="-487.38" rx="48.58" ry="37.45"/>
<text text-anchor="middle" x="1392.3" y="-498.68" font-family="Times-Roman" font-size="14.00">μ_μ_a</text>
<text text-anchor="middle" x="1392.3" y="-483.68" font-family="Times-Roman" font-size="14.00">~</text>
<text text-anchor="middle" x="1392.3" y="-468.68" font-family="Times-Roman" font-size="14.00">Normal</text>
</g>
<!-- μ_μ_a&#45;&gt;μ_a -->
<g id="edge16" class="edge">
<title>μ_μ_a&#45;&gt;μ_a</title>
<path fill="none" stroke="black" d="M1423.71,-458.33C1440.25,-443.56 1460.6,-425.38 1477.82,-410"/>
<polygon fill="black" stroke="black" points="1480.37,-412.42 1485.49,-403.15 1475.7,-407.2 1480.37,-412.42"/>
</g>
<!-- j_offset -->
<g id="node12" class="node">
<title>j_offset</title>
<ellipse fill="none" stroke="black" cx="593.3" cy="-487.38" rx="48.58" ry="37.45"/>
<text text-anchor="middle" x="593.3" y="-498.68" font-family="Times-Roman" font-size="14.00">j_offset</text>
<text text-anchor="middle" x="593.3" y="-483.68" font-family="Times-Roman" font-size="14.00">~</text>
<text text-anchor="middle" x="593.3" y="-468.68" font-family="Times-Roman" font-size="14.00">Normal</text>
</g>
<!-- j_offset&#45;&gt;j -->
<g id="edge3" class="edge">
<title>j_offset&#45;&gt;j</title>
<path fill="none" stroke="black" d="M595.65,-449.8C596.4,-438.06 597.24,-425.08 597.99,-413.38"/>
<polygon fill="black" stroke="black" points="601.5,-413.29 598.65,-403.08 594.51,-412.84 601.5,-413.29"/>
</g>
<!-- lfc -->
<g id="node27" class="node">
<title>lfc</title>
<ellipse fill="lightgrey" stroke="black" cx="1183.3" cy="-76.48" rx="48.58" ry="37.45"/>
<text text-anchor="middle" x="1183.3" y="-87.78" font-family="Times-Roman" font-size="14.00">lfc</text>
<text text-anchor="middle" x="1183.3" y="-72.78" font-family="Times-Roman" font-size="14.00">~</text>
<text text-anchor="middle" x="1183.3" y="-57.78" font-family="Times-Roman" font-size="14.00">Normal</text>
</g>
<!-- σ&#45;&gt;lfc -->
<g id="edge27" class="edge">
<title>σ&#45;&gt;lfc</title>
<path fill="none" stroke="black" d="M1093.5,-470.84C1159.51,-454.05 1255.1,-428.77 1260.3,-421.91 1282.73,-392.28 1258.21,-180.66 1245.3,-149.95 1239.72,-136.69 1230.78,-124.08 1221.41,-113.2"/>
<polygon fill="black" stroke="black" points="1223.85,-110.69 1214.55,-105.61 1218.66,-115.38 1223.85,-110.69"/>
</g>
<!-- d -->
<g id="node20" class="node">
<title>d</title>
<polygon fill="none" stroke="black" points="1236.3,-302.95 1124.3,-302.95 1124.3,-249.95 1236.3,-249.95 1236.3,-302.95"/>
<text text-anchor="middle" x="1180.3" y="-287.75" font-family="Times-Roman" font-size="14.00">d</text>
<text text-anchor="middle" x="1180.3" y="-272.75" font-family="Times-Roman" font-size="14.00">~</text>
<text text-anchor="middle" x="1180.3" y="-257.75" font-family="Times-Roman" font-size="14.00">Deterministic</text>
</g>
<!-- μ_d&#45;&gt;d -->
<g id="edge12" class="edge">
<title>μ_d&#45;&gt;d</title>
<path fill="none" stroke="black" d="M786.38,-363.22C869.64,-345.09 1025.62,-311.13 1114.27,-291.83"/>
<polygon fill="black" stroke="black" points="1115.19,-295.21 1124.22,-289.66 1113.7,-288.37 1115.19,-295.21"/>
</g>
<!-- μ_d_offset -->
<g id="node15" class="node">
<title>μ_d_offset</title>
<ellipse fill="none" stroke="black" cx="723.3" cy="-487.38" rx="63.78" ry="37.45"/>
<text text-anchor="middle" x="723.3" y="-498.68" font-family="Times-Roman" font-size="14.00">μ_d_offset</text>
<text text-anchor="middle" x="723.3" y="-483.68" font-family="Times-Roman" font-size="14.00">~</text>
<text text-anchor="middle" x="723.3" y="-468.68" font-family="Times-Roman" font-size="14.00">Normal</text>
</g>
<!-- μ_d_offset&#45;&gt;μ_d -->
<g id="edge8" class="edge">
<title>μ_d_offset&#45;&gt;μ_d</title>
<path fill="none" stroke="black" d="M725.65,-449.8C726.4,-438.06 727.24,-425.08 727.99,-413.38"/>
<polygon fill="black" stroke="black" points="731.5,-413.29 728.65,-403.08 724.51,-412.84 731.5,-413.29"/>
</g>
<!-- μ -->
<g id="node28" class="node">
<title>μ</title>
<polygon fill="none" stroke="black" points="1236.3,-202.95 1124.3,-202.95 1124.3,-149.95 1236.3,-149.95 1236.3,-202.95"/>
<text text-anchor="middle" x="1180.3" y="-187.75" font-family="Times-Roman" font-size="14.00">μ</text>
<text text-anchor="middle" x="1180.3" y="-172.75" font-family="Times-Roman" font-size="14.00">~</text>
<text text-anchor="middle" x="1180.3" y="-157.75" font-family="Times-Roman" font-size="14.00">Deterministic</text>
</g>
<!-- j&#45;&gt;μ -->
<g id="edge23" class="edge">
<title>j&#45;&gt;μ</title>
<path fill="none" stroke="black" d="M624.54,-349.71C635.99,-338.85 650.4,-326.91 665.3,-318.93 814.44,-239.03 1012.64,-201.15 1114.17,-185.99"/>
<polygon fill="black" stroke="black" points="1114.9,-189.42 1124.29,-184.5 1113.89,-182.49 1114.9,-189.42"/>
</g>
<!-- σ_d&#45;&gt;d -->
<g id="edge13" class="edge">
<title>σ_d&#45;&gt;d</title>
<path fill="none" stroke="black" d="M923.5,-460.62C933.16,-456.44 943.38,-452.6 953.3,-449.91 1014.49,-433.27 1194.71,-468.9 1237.3,-421.91 1268.03,-387.99 1258.06,-359.72 1237.3,-318.93 1235.8,-315.99 1233.98,-313.2 1231.93,-310.57"/>
<polygon fill="black" stroke="black" points="1234.49,-308.19 1225.16,-303.17 1229.32,-312.91 1234.49,-308.19"/>
</g>
<!-- h_offset -->
<g id="node18" class="node">
<title>h_offset</title>
<ellipse fill="none" stroke="black" cx="200.3" cy="-376.43" rx="52.15" ry="37.45"/>
<text text-anchor="middle" x="200.3" y="-387.73" font-family="Times-Roman" font-size="14.00">h_offset</text>
<text text-anchor="middle" x="200.3" y="-372.73" font-family="Times-Roman" font-size="14.00">~</text>
<text text-anchor="middle" x="200.3" y="-357.73" font-family="Times-Roman" font-size="14.00">Normal</text>
</g>
<!-- h_offset&#45;&gt;h -->
<g id="edge5" class="edge">
<title>h_offset&#45;&gt;h</title>
<path fill="none" stroke="black" d="M200.3,-338.95C200.3,-330.53 200.3,-321.59 200.3,-313.2"/>
<polygon fill="black" stroke="black" points="203.8,-312.96 200.3,-302.96 196.8,-312.96 203.8,-312.96"/>
</g>
<!-- h&#45;&gt;μ -->
<g id="edge24" class="edge">
<title>h&#45;&gt;μ</title>
<path fill="none" stroke="black" d="M256.51,-269.83C426.05,-252.88 931.91,-202.29 1114.03,-184.08"/>
<polygon fill="black" stroke="black" points="1114.41,-187.56 1124.01,-183.08 1113.71,-180.59 1114.41,-187.56"/>
</g>
<!-- d&#45;&gt;μ -->
<g id="edge21" class="edge">
<title>d&#45;&gt;μ</title>
<path fill="none" stroke="black" d="M1180.3,-249.7C1180.3,-238.56 1180.3,-225.34 1180.3,-213.26"/>
<polygon fill="black" stroke="black" points="1183.8,-213.03 1180.3,-203.03 1176.8,-213.03 1183.8,-213.03"/>
</g>
<!-- d_offset -->
<g id="node21" class="node">
<title>d_offset</title>
<ellipse fill="none" stroke="black" cx="1176.3" cy="-376.43" rx="52.15" ry="37.45"/>
<text text-anchor="middle" x="1176.3" y="-387.73" font-family="Times-Roman" font-size="14.00">d_offset</text>
<text text-anchor="middle" x="1176.3" y="-372.73" font-family="Times-Roman" font-size="14.00">~</text>
<text text-anchor="middle" x="1176.3" y="-357.73" font-family="Times-Roman" font-size="14.00">Normal</text>
</g>
<!-- d_offset&#45;&gt;d -->
<g id="edge11" class="edge">
<title>d_offset&#45;&gt;d</title>
<path fill="none" stroke="black" d="M1177.79,-338.95C1178.13,-330.53 1178.49,-321.59 1178.84,-313.2"/>
<polygon fill="black" stroke="black" points="1182.34,-313.1 1179.25,-302.96 1175.35,-312.81 1182.34,-313.1"/>
</g>
<!-- μ_a_offset -->
<g id="node22" class="node">
<title>μ_a_offset</title>
<ellipse fill="none" stroke="black" cx="1522.3" cy="-487.38" rx="63.78" ry="37.45"/>
<text text-anchor="middle" x="1522.3" y="-498.68" font-family="Times-Roman" font-size="14.00">μ_a_offset</text>
<text text-anchor="middle" x="1522.3" y="-483.68" font-family="Times-Roman" font-size="14.00">~</text>
<text text-anchor="middle" x="1522.3" y="-468.68" font-family="Times-Roman" font-size="14.00">Normal</text>
</g>
<!-- μ_a_offset&#45;&gt;μ_a -->
<g id="edge14" class="edge">
<title>μ_a_offset&#45;&gt;μ_a</title>
<path fill="none" stroke="black" d="M1519.61,-449.8C1518.75,-438.06 1517.8,-425.08 1516.94,-413.38"/>
<polygon fill="black" stroke="black" points="1520.4,-412.8 1516.18,-403.08 1513.42,-413.31 1520.4,-412.8"/>
</g>
<!-- a -->
<g id="node26" class="node">
<title>a</title>
<polygon fill="none" stroke="black" points="1434.3,-302.95 1322.3,-302.95 1322.3,-249.95 1434.3,-249.95 1434.3,-302.95"/>
<text text-anchor="middle" x="1378.3" y="-287.75" font-family="Times-Roman" font-size="14.00">a</text>
<text text-anchor="middle" x="1378.3" y="-272.75" font-family="Times-Roman" font-size="14.00">~</text>
<text text-anchor="middle" x="1378.3" y="-257.75" font-family="Times-Roman" font-size="14.00">Deterministic</text>
</g>
<!-- μ_a&#45;&gt;a -->
<g id="edge18" class="edge">
<title>μ_a&#45;&gt;a</title>
<path fill="none" stroke="black" d="M1485.25,-349.71C1473.47,-339.7 1459.53,-328.39 1446.3,-318.93 1441.47,-315.48 1436.35,-312.02 1431.17,-308.65"/>
<polygon fill="black" stroke="black" points="1432.75,-305.51 1422.44,-303.09 1428.99,-311.41 1432.75,-305.51"/>
</g>
<!-- σ_a&#45;&gt;a -->
<g id="edge19" class="edge">
<title>σ_a&#45;&gt;a</title>
<path fill="none" stroke="black" d="M1662.94,-450.26C1649.91,-411.58 1623.7,-351.4 1579.3,-318.93 1558.11,-303.43 1494.72,-292.04 1444.73,-285.15"/>
<polygon fill="black" stroke="black" points="1444.99,-281.65 1434.61,-283.79 1444.05,-288.59 1444.99,-281.65"/>
</g>
<!-- a_offset -->
<g id="node25" class="node">
<title>a_offset</title>
<ellipse fill="none" stroke="black" cx="1378.3" cy="-376.43" rx="52.15" ry="37.45"/>
<text text-anchor="middle" x="1378.3" y="-387.73" font-family="Times-Roman" font-size="14.00">a_offset</text>
<text text-anchor="middle" x="1378.3" y="-372.73" font-family="Times-Roman" font-size="14.00">~</text>
<text text-anchor="middle" x="1378.3" y="-357.73" font-family="Times-Roman" font-size="14.00">Normal</text>
</g>
<!-- a_offset&#45;&gt;a -->
<g id="edge20" class="edge">
<title>a_offset&#45;&gt;a</title>
<path fill="none" stroke="black" d="M1378.3,-338.95C1378.3,-330.53 1378.3,-321.59 1378.3,-313.2"/>
<polygon fill="black" stroke="black" points="1381.8,-312.96 1378.3,-302.96 1374.8,-312.96 1381.8,-312.96"/>
</g>
<!-- a&#45;&gt;μ -->
<g id="edge22" class="edge">
<title>a&#45;&gt;μ</title>
<path fill="none" stroke="black" d="M1326.53,-249.83C1300.39,-236.89 1268.5,-221.11 1241.18,-207.59"/>
<polygon fill="black" stroke="black" points="1242.62,-204.39 1232.1,-203.09 1239.51,-210.67 1242.62,-204.39"/>
</g>
<!-- μ&#45;&gt;lfc -->
<g id="edge26" class="edge">
<title>μ&#45;&gt;lfc</title>
<path fill="none" stroke="black" d="M1181.08,-149.71C1181.32,-141.89 1181.6,-133.03 1181.86,-124.27"/>
<polygon fill="black" stroke="black" points="1185.37,-124.2 1182.18,-114.1 1178.37,-123.99 1185.37,-124.2"/>
</g>
</g>
</svg>
