<?xml version="1.0" encoding="UTF-8" standalone="no"?>
<!DOCTYPE svg PUBLIC "-//W3C//DTD SVG 1.1//EN"
 "http://www.w3.org/Graphics/SVG/1.1/DTD/svg11.dtd">
<!-- Generated by graphviz version 2.47.0 (20210316.1410)
 -->
<!-- Pages: 1 -->
<svg width="766pt" height="702pt"
 viewBox="0.00 0.00 765.79 701.72" xmlns="http://www.w3.org/2000/svg" xmlns:xlink="http://www.w3.org/1999/xlink">
<g id="graph0" class="graph" transform="scale(1 1) rotate(0) translate(4 697.72)">
<polygon fill="white" stroke="transparent" points="-4,4 -4,-697.72 761.79,-697.72 761.79,4 -4,4"/>
<g id="clust1" class="cluster">
<title>cluster2</title>
<path fill="none" stroke="black" d="M490.79,-476.81C490.79,-476.81 736.79,-476.81 736.79,-476.81 742.79,-476.81 748.79,-482.81 748.79,-488.81 748.79,-488.81 748.79,-578.77 748.79,-578.77 748.79,-584.77 742.79,-590.77 736.79,-590.77 736.79,-590.77 490.79,-590.77 490.79,-590.77 484.79,-590.77 478.79,-584.77 478.79,-578.77 478.79,-578.77 478.79,-488.81 478.79,-488.81 478.79,-482.81 484.79,-476.81 490.79,-476.81"/>
<text text-anchor="middle" x="735.79" y="-484.61" font-family="Times-Roman" font-size="14.00">2</text>
</g>
<g id="clust2" class="cluster">
<title>cluster100 x 2</title>
<path fill="none" stroke="black" d="M603.79,-354.86C603.79,-354.86 737.79,-354.86 737.79,-354.86 743.79,-354.86 749.79,-360.86 749.79,-366.86 749.79,-366.86 749.79,-456.81 749.79,-456.81 749.79,-462.81 743.79,-468.81 737.79,-468.81 737.79,-468.81 603.79,-468.81 603.79,-468.81 597.79,-468.81 591.79,-462.81 591.79,-456.81 591.79,-456.81 591.79,-366.86 591.79,-366.86 591.79,-360.86 597.79,-354.86 603.79,-354.86"/>
<text text-anchor="middle" x="714.79" y="-362.66" font-family="Times-Roman" font-size="14.00">100 x 2</text>
</g>
<g id="clust3" class="cluster">
<title>cluster395</title>
<path fill="none" stroke="black" d="M612.79,-232.91C612.79,-232.91 674.79,-232.91 674.79,-232.91 680.79,-232.91 686.79,-238.91 686.79,-244.91 686.79,-244.91 686.79,-334.86 686.79,-334.86 686.79,-340.86 680.79,-346.86 674.79,-346.86 674.79,-346.86 612.79,-346.86 612.79,-346.86 606.79,-346.86 600.79,-340.86 600.79,-334.86 600.79,-334.86 600.79,-244.91 600.79,-244.91 600.79,-238.91 606.79,-232.91 612.79,-232.91"/>
<text text-anchor="middle" x="664.79" y="-240.71" font-family="Times-Roman" font-size="14.00">395</text>
</g>
<g id="clust4" class="cluster">
<title>cluster100</title>
<path fill="none" stroke="black" d="M139.79,-232.91C139.79,-232.91 229.79,-232.91 229.79,-232.91 235.79,-232.91 241.79,-238.91 241.79,-244.91 241.79,-244.91 241.79,-334.86 241.79,-334.86 241.79,-340.86 235.79,-346.86 229.79,-346.86 229.79,-346.86 139.79,-346.86 139.79,-346.86 133.79,-346.86 127.79,-340.86 127.79,-334.86 127.79,-334.86 127.79,-244.91 127.79,-244.91 127.79,-238.91 133.79,-232.91 139.79,-232.91"/>
<text text-anchor="middle" x="219.79" y="-240.71" font-family="Times-Roman" font-size="14.00">100</text>
</g>
<g id="clust5" class="cluster">
<title>cluster100 x 36</title>
<path fill="none" stroke="black" d="M411.79,-232.91C411.79,-232.91 501.79,-232.91 501.79,-232.91 507.79,-232.91 513.79,-238.91 513.79,-244.91 513.79,-244.91 513.79,-334.86 513.79,-334.86 513.79,-340.86 507.79,-346.86 501.79,-346.86 501.79,-346.86 411.79,-346.86 411.79,-346.86 405.79,-346.86 399.79,-340.86 399.79,-334.86 399.79,-334.86 399.79,-244.91 399.79,-244.91 399.79,-238.91 405.79,-232.91 411.79,-232.91"/>
<text text-anchor="middle" x="474.29" y="-240.71" font-family="Times-Roman" font-size="14.00">100 x 36</text>
</g>
<g id="clust6" class="cluster">
<title>cluster34,760</title>
<path fill="none" stroke="black" d="M452.79,-8C452.79,-8 556.79,-8 556.79,-8 562.79,-8 568.79,-14 568.79,-20 568.79,-20 568.79,-209.93 568.79,-209.93 568.79,-215.93 562.79,-221.93 556.79,-221.93 556.79,-221.93 452.79,-221.93 452.79,-221.93 446.79,-221.93 440.79,-215.93 440.79,-209.93 440.79,-209.93 440.79,-20 440.79,-20 440.79,-14 446.79,-8 452.79,-8"/>
<text text-anchor="middle" x="535.79" y="-15.8" font-family="Times-Roman" font-size="14.00">34,760</text>
</g>
<!-- η -->
<g id="node1" class="node">
<title>η</title>
<ellipse fill="none" stroke="black" cx="535.79" cy="-545.29" rx="48.58" ry="37.45"/>
<text text-anchor="middle" x="535.79" y="-556.59" font-family="Times-Roman" font-size="14.00">η</text>
<text text-anchor="middle" x="535.79" y="-541.59" font-family="Times-Roman" font-size="14.00">~</text>
<text text-anchor="middle" x="535.79" y="-526.59" font-family="Times-Roman" font-size="14.00">Normal</text>
</g>
<!-- μ -->
<g id="node15" class="node">
<title>μ</title>
<polygon fill="none" stroke="black" points="560.79,-213.93 448.79,-213.93 448.79,-160.93 560.79,-160.93 560.79,-213.93"/>
<text text-anchor="middle" x="504.79" y="-198.73" font-family="Times-Roman" font-size="14.00">μ</text>
<text text-anchor="middle" x="504.79" y="-183.73" font-family="Times-Roman" font-size="14.00">~</text>
<text text-anchor="middle" x="504.79" y="-168.73" font-family="Times-Roman" font-size="14.00">Deterministic</text>
</g>
<!-- η&#45;&gt;μ -->
<g id="edge9" class="edge">
<title>η&#45;&gt;μ</title>
<path fill="none" stroke="black" d="M537.04,-507.57C538.01,-469.36 538.61,-407.84 534.79,-354.86 530.86,-300.28 529.28,-286.41 517.79,-232.91 517.15,-229.93 516.42,-226.87 515.63,-223.81"/>
<polygon fill="black" stroke="black" points="519,-222.86 513,-214.14 512.25,-224.71 519,-222.86"/>
</g>
<!-- σ_a -->
<g id="node2" class="node">
<title>σ_a</title>
<ellipse fill="none" stroke="black" cx="671.79" cy="-545.29" rx="69.09" ry="37.45"/>
<text text-anchor="middle" x="671.79" y="-556.59" font-family="Times-Roman" font-size="14.00">σ_a</text>
<text text-anchor="middle" x="671.79" y="-541.59" font-family="Times-Roman" font-size="14.00">~</text>
<text text-anchor="middle" x="671.79" y="-526.59" font-family="Times-Roman" font-size="14.00">HalfNormal</text>
</g>
<!-- a -->
<g id="node3" class="node">
<title>a</title>
<ellipse fill="none" stroke="black" cx="670.79" cy="-423.34" rx="71.34" ry="37.45"/>
<text text-anchor="middle" x="670.79" y="-434.64" font-family="Times-Roman" font-size="14.00">a</text>
<text text-anchor="middle" x="670.79" y="-419.64" font-family="Times-Roman" font-size="14.00">~</text>
<text text-anchor="middle" x="670.79" y="-404.64" font-family="Times-Roman" font-size="14.00">Exponential</text>
</g>
<!-- σ_a&#45;&gt;a -->
<g id="edge1" class="edge">
<title>σ_a&#45;&gt;a</title>
<path fill="none" stroke="black" d="M671.48,-507.65C671.39,-496.24 671.28,-483.51 671.18,-471.49"/>
<polygon fill="black" stroke="black" points="674.68,-471.14 671.1,-461.17 667.68,-471.2 674.68,-471.14"/>
</g>
<!-- q -->
<g id="node11" class="node">
<title>q</title>
<ellipse fill="none" stroke="black" cx="643.79" cy="-301.38" rx="35.21" ry="37.45"/>
<text text-anchor="middle" x="643.79" y="-312.68" font-family="Times-Roman" font-size="14.00">q</text>
<text text-anchor="middle" x="643.79" y="-297.68" font-family="Times-Roman" font-size="14.00">~</text>
<text text-anchor="middle" x="643.79" y="-282.68" font-family="Times-Roman" font-size="14.00">Beta</text>
</g>
<!-- a&#45;&gt;q -->
<g id="edge2" class="edge">
<title>a&#45;&gt;q</title>
<path fill="none" stroke="black" d="M662.62,-386.02C659.92,-374.05 656.89,-360.58 654.06,-348.01"/>
<polygon fill="black" stroke="black" points="657.45,-347.15 651.84,-338.16 650.63,-348.69 657.45,-347.15"/>
</g>
<!-- μ_η -->
<g id="node4" class="node">
<title>μ_η</title>
<ellipse fill="none" stroke="black" cx="467.79" cy="-656.24" rx="48.58" ry="37.45"/>
<text text-anchor="middle" x="467.79" y="-667.54" font-family="Times-Roman" font-size="14.00">μ_η</text>
<text text-anchor="middle" x="467.79" y="-652.54" font-family="Times-Roman" font-size="14.00">~</text>
<text text-anchor="middle" x="467.79" y="-637.54" font-family="Times-Roman" font-size="14.00">Normal</text>
</g>
<!-- μ_η&#45;&gt;η -->
<g id="edge7" class="edge">
<title>μ_η&#45;&gt;η</title>
<path fill="none" stroke="black" d="M488.38,-622.26C495.04,-611.58 502.52,-599.6 509.54,-588.36"/>
<polygon fill="black" stroke="black" points="512.71,-589.88 515.04,-579.54 506.78,-586.17 512.71,-589.88"/>
</g>
<!-- μ_h -->
<g id="node5" class="node">
<title>μ_h</title>
<ellipse fill="none" stroke="black" cx="48.79" cy="-423.34" rx="48.58" ry="37.45"/>
<text text-anchor="middle" x="48.79" y="-434.64" font-family="Times-Roman" font-size="14.00">μ_h</text>
<text text-anchor="middle" x="48.79" y="-419.64" font-family="Times-Roman" font-size="14.00">~</text>
<text text-anchor="middle" x="48.79" y="-404.64" font-family="Times-Roman" font-size="14.00">Normal</text>
</g>
<!-- h -->
<g id="node12" class="node">
<title>h</title>
<ellipse fill="none" stroke="black" cx="184.79" cy="-301.38" rx="48.58" ry="37.45"/>
<text text-anchor="middle" x="184.79" y="-312.68" font-family="Times-Roman" font-size="14.00">h</text>
<text text-anchor="middle" x="184.79" y="-297.68" font-family="Times-Roman" font-size="14.00">~</text>
<text text-anchor="middle" x="184.79" y="-282.68" font-family="Times-Roman" font-size="14.00">Normal</text>
</g>
<!-- μ_h&#45;&gt;h -->
<g id="edge3" class="edge">
<title>μ_h&#45;&gt;h</title>
<path fill="none" stroke="black" d="M73.15,-390.51C82.96,-378.67 94.78,-365.53 106.79,-354.86 116.42,-346.31 127.52,-338.04 138.27,-330.7"/>
<polygon fill="black" stroke="black" points="140.41,-333.48 146.79,-325.02 136.53,-327.65 140.41,-333.48"/>
</g>
<!-- μ_d -->
<g id="node6" class="node">
<title>μ_d</title>
<ellipse fill="none" stroke="black" cx="320.79" cy="-423.34" rx="48.58" ry="37.45"/>
<text text-anchor="middle" x="320.79" y="-434.64" font-family="Times-Roman" font-size="14.00">μ_d</text>
<text text-anchor="middle" x="320.79" y="-419.64" font-family="Times-Roman" font-size="14.00">~</text>
<text text-anchor="middle" x="320.79" y="-404.64" font-family="Times-Roman" font-size="14.00">Normal</text>
</g>
<!-- d -->
<g id="node13" class="node">
<title>d</title>
<ellipse fill="none" stroke="black" cx="456.79" cy="-301.38" rx="48.58" ry="37.45"/>
<text text-anchor="middle" x="456.79" y="-312.68" font-family="Times-Roman" font-size="14.00">d</text>
<text text-anchor="middle" x="456.79" y="-297.68" font-family="Times-Roman" font-size="14.00">~</text>
<text text-anchor="middle" x="456.79" y="-282.68" font-family="Times-Roman" font-size="14.00">Normal</text>
</g>
<!-- μ_d&#45;&gt;d -->
<g id="edge6" class="edge">
<title>μ_d&#45;&gt;d</title>
<path fill="none" stroke="black" d="M345.15,-390.51C354.96,-378.67 366.78,-365.53 378.79,-354.86 388.42,-346.31 399.52,-338.04 410.27,-330.7"/>
<polygon fill="black" stroke="black" points="412.41,-333.48 418.79,-325.02 408.53,-327.65 412.41,-333.48"/>
</g>
<!-- σ_d -->
<g id="node7" class="node">
<title>σ_d</title>
<ellipse fill="none" stroke="black" cx="456.79" cy="-423.34" rx="69.09" ry="37.45"/>
<text text-anchor="middle" x="456.79" y="-434.64" font-family="Times-Roman" font-size="14.00">σ_d</text>
<text text-anchor="middle" x="456.79" y="-419.64" font-family="Times-Roman" font-size="14.00">~</text>
<text text-anchor="middle" x="456.79" y="-404.64" font-family="Times-Roman" font-size="14.00">HalfNormal</text>
</g>
<!-- σ_d&#45;&gt;d -->
<g id="edge5" class="edge">
<title>σ_d&#45;&gt;d</title>
<path fill="none" stroke="black" d="M456.79,-385.69C456.79,-374.29 456.79,-361.55 456.79,-349.54"/>
<polygon fill="black" stroke="black" points="460.29,-349.21 456.79,-339.21 453.29,-349.21 460.29,-349.21"/>
</g>
<!-- σ -->
<g id="node8" class="node">
<title>σ</title>
<ellipse fill="none" stroke="black" cx="361.79" cy="-187.43" rx="69.09" ry="37.45"/>
<text text-anchor="middle" x="361.79" y="-198.73" font-family="Times-Roman" font-size="14.00">σ</text>
<text text-anchor="middle" x="361.79" y="-183.73" font-family="Times-Roman" font-size="14.00">~</text>
<text text-anchor="middle" x="361.79" y="-168.73" font-family="Times-Roman" font-size="14.00">HalfNormal</text>
</g>
<!-- lfc -->
<g id="node14" class="node">
<title>lfc</title>
<ellipse fill="lightgrey" stroke="black" cx="500.79" cy="-76.48" rx="48.58" ry="37.45"/>
<text text-anchor="middle" x="500.79" y="-87.78" font-family="Times-Roman" font-size="14.00">lfc</text>
<text text-anchor="middle" x="500.79" y="-72.78" font-family="Times-Roman" font-size="14.00">~</text>
<text text-anchor="middle" x="500.79" y="-57.78" font-family="Times-Roman" font-size="14.00">Normal</text>
</g>
<!-- σ&#45;&gt;lfc -->
<g id="edge14" class="edge">
<title>σ&#45;&gt;lfc</title>
<path fill="none" stroke="black" d="M400.51,-156.08C418.7,-141.82 440.42,-124.79 458.99,-110.24"/>
<polygon fill="black" stroke="black" points="461.29,-112.88 467,-103.96 456.97,-107.37 461.29,-112.88"/>
</g>
<!-- σ_η -->
<g id="node9" class="node">
<title>σ_η</title>
<ellipse fill="none" stroke="black" cx="603.79" cy="-656.24" rx="69.09" ry="37.45"/>
<text text-anchor="middle" x="603.79" y="-667.54" font-family="Times-Roman" font-size="14.00">σ_η</text>
<text text-anchor="middle" x="603.79" y="-652.54" font-family="Times-Roman" font-size="14.00">~</text>
<text text-anchor="middle" x="603.79" y="-637.54" font-family="Times-Roman" font-size="14.00">HalfNormal</text>
</g>
<!-- σ_η&#45;&gt;η -->
<g id="edge8" class="edge">
<title>σ_η&#45;&gt;η</title>
<path fill="none" stroke="black" d="M582.09,-620.47C575.71,-610.25 568.67,-598.97 562.04,-588.35"/>
<polygon fill="black" stroke="black" points="564.86,-586.25 556.59,-579.62 558.92,-589.96 564.86,-586.25"/>
</g>
<!-- σ_h -->
<g id="node10" class="node">
<title>σ_h</title>
<ellipse fill="none" stroke="black" cx="184.79" cy="-423.34" rx="69.09" ry="37.45"/>
<text text-anchor="middle" x="184.79" y="-434.64" font-family="Times-Roman" font-size="14.00">σ_h</text>
<text text-anchor="middle" x="184.79" y="-419.64" font-family="Times-Roman" font-size="14.00">~</text>
<text text-anchor="middle" x="184.79" y="-404.64" font-family="Times-Roman" font-size="14.00">HalfNormal</text>
</g>
<!-- σ_h&#45;&gt;h -->
<g id="edge4" class="edge">
<title>σ_h&#45;&gt;h</title>
<path fill="none" stroke="black" d="M184.79,-385.69C184.79,-374.29 184.79,-361.55 184.79,-349.54"/>
<polygon fill="black" stroke="black" points="188.29,-349.21 184.79,-339.21 181.29,-349.21 188.29,-349.21"/>
</g>
<!-- q&#45;&gt;μ -->
<g id="edge11" class="edge">
<title>q&#45;&gt;μ</title>
<path fill="none" stroke="black" d="M617.68,-275.91C603.3,-262.76 584.93,-246.5 567.79,-232.91 562.43,-228.66 556.71,-224.34 550.97,-220.14"/>
<polygon fill="black" stroke="black" points="552.76,-217.11 542.6,-214.1 548.66,-222.79 552.76,-217.11"/>
</g>
<!-- h&#45;&gt;μ -->
<g id="edge10" class="edge">
<title>h&#45;&gt;μ</title>
<path fill="none" stroke="black" d="M228.77,-284.48C271.12,-269.6 337.21,-247.53 395.79,-232.91 415.07,-228.09 421.09,-231.64 439.79,-224.91 444.69,-223.14 449.65,-221.03 454.54,-218.73"/>
<polygon fill="black" stroke="black" points="456.42,-221.7 463.8,-214.1 453.29,-215.44 456.42,-221.7"/>
</g>
<!-- d&#45;&gt;μ -->
<g id="edge12" class="edge">
<title>d&#45;&gt;μ</title>
<path fill="none" stroke="black" d="M471.71,-265.57C477.47,-252.14 484.05,-236.81 489.81,-223.37"/>
<polygon fill="black" stroke="black" points="493.12,-224.54 493.84,-213.97 486.68,-221.78 493.12,-224.54"/>
</g>
<!-- μ&#45;&gt;lfc -->
<g id="edge13" class="edge">
<title>μ&#45;&gt;lfc</title>
<path fill="none" stroke="black" d="M503.85,-160.89C503.45,-149.98 502.97,-136.89 502.51,-124.35"/>
<polygon fill="black" stroke="black" points="506,-123.87 502.13,-114 499,-124.12 506,-123.87"/>
</g>
</g>
</svg>
