<?xml version="1.0" encoding="UTF-8" standalone="no"?>
<!DOCTYPE svg PUBLIC "-//W3C//DTD SVG 1.1//EN"
 "http://www.w3.org/Graphics/SVG/1.1/DTD/svg11.dtd">
<!-- Generated by graphviz version 2.47.0 (20210316.1410)
 -->
<!-- Pages: 1 -->
<svg width="1269pt" height="702pt"
 viewBox="0.00 0.00 1269.09 701.72" xmlns="http://www.w3.org/2000/svg" xmlns:xlink="http://www.w3.org/1999/xlink">
<g id="graph0" class="graph" transform="scale(1 1) rotate(0) translate(4 697.72)">
<polygon fill="white" stroke="transparent" points="-4,4 -4,-697.72 1265.09,-697.72 1265.09,4 -4,4"/>
<g id="clust1" class="cluster">
<title>cluster2</title>
<path fill="none" stroke="black" d="M688.3,-476.81C688.3,-476.81 934.3,-476.81 934.3,-476.81 940.3,-476.81 946.3,-482.81 946.3,-488.81 946.3,-488.81 946.3,-578.77 946.3,-578.77 946.3,-584.77 940.3,-590.77 934.3,-590.77 934.3,-590.77 688.3,-590.77 688.3,-590.77 682.3,-590.77 676.3,-584.77 676.3,-578.77 676.3,-578.77 676.3,-488.81 676.3,-488.81 676.3,-482.81 682.3,-476.81 688.3,-476.81"/>
<text text-anchor="middle" x="933.3" y="-484.61" font-family="Times-Roman" font-size="14.00">2</text>
</g>
<g id="clust2" class="cluster">
<title>cluster997 x 2</title>
<path fill="none" stroke="black" d="M549.3,-354.86C549.3,-354.86 683.3,-354.86 683.3,-354.86 689.3,-354.86 695.3,-360.86 695.3,-366.86 695.3,-366.86 695.3,-456.81 695.3,-456.81 695.3,-462.81 689.3,-468.81 683.3,-468.81 683.3,-468.81 549.3,-468.81 549.3,-468.81 543.3,-468.81 537.3,-462.81 537.3,-456.81 537.3,-456.81 537.3,-366.86 537.3,-366.86 537.3,-360.86 543.3,-354.86 549.3,-354.86"/>
<text text-anchor="middle" x="660.3" y="-362.66" font-family="Times-Roman" font-size="14.00">997 x 2</text>
</g>
<g id="clust3" class="cluster">
<title>cluster3,957</title>
<path fill="none" stroke="black" d="M469.3,-232.91C469.3,-232.91 647.3,-232.91 647.3,-232.91 653.3,-232.91 659.3,-238.91 659.3,-244.91 659.3,-244.91 659.3,-334.86 659.3,-334.86 659.3,-340.86 653.3,-346.86 647.3,-346.86 647.3,-346.86 469.3,-346.86 469.3,-346.86 463.3,-346.86 457.3,-340.86 457.3,-334.86 457.3,-334.86 457.3,-244.91 457.3,-244.91 457.3,-238.91 463.3,-232.91 469.3,-232.91"/>
<text text-anchor="middle" x="630.8" y="-240.71" font-family="Times-Roman" font-size="14.00">3,957</text>
</g>
<g id="clust4" class="cluster">
<title>cluster997</title>
<path fill="none" stroke="black" d="M160.3,-354.86C160.3,-354.86 366.3,-354.86 366.3,-354.86 372.3,-354.86 378.3,-360.86 378.3,-366.86 378.3,-366.86 378.3,-456.81 378.3,-456.81 378.3,-462.81 372.3,-468.81 366.3,-468.81 366.3,-468.81 160.3,-468.81 160.3,-468.81 154.3,-468.81 148.3,-462.81 148.3,-456.81 148.3,-456.81 148.3,-366.86 148.3,-366.86 148.3,-360.86 154.3,-354.86 160.3,-354.86"/>
<text text-anchor="middle" x="356.3" y="-362.66" font-family="Times-Roman" font-size="14.00">997</text>
</g>
<g id="clust5" class="cluster">
<title>cluster997 x 36</title>
<path fill="none" stroke="black" d="M709.3,-232.91C709.3,-232.91 799.3,-232.91 799.3,-232.91 805.3,-232.91 811.3,-238.91 811.3,-244.91 811.3,-244.91 811.3,-334.86 811.3,-334.86 811.3,-340.86 805.3,-346.86 799.3,-346.86 799.3,-346.86 709.3,-346.86 709.3,-346.86 703.3,-346.86 697.3,-340.86 697.3,-334.86 697.3,-334.86 697.3,-244.91 697.3,-244.91 697.3,-238.91 703.3,-232.91 709.3,-232.91"/>
<text text-anchor="middle" x="771.8" y="-240.71" font-family="Times-Roman" font-size="14.00">997 x 36</text>
</g>
<g id="clust6" class="cluster">
<title>cluster36</title>
<path fill="none" stroke="black" d="M981.3,-232.91C981.3,-232.91 1071.3,-232.91 1071.3,-232.91 1077.3,-232.91 1083.3,-238.91 1083.3,-244.91 1083.3,-244.91 1083.3,-334.86 1083.3,-334.86 1083.3,-340.86 1077.3,-346.86 1071.3,-346.86 1071.3,-346.86 981.3,-346.86 981.3,-346.86 975.3,-346.86 969.3,-340.86 969.3,-334.86 969.3,-334.86 969.3,-244.91 969.3,-244.91 969.3,-238.91 975.3,-232.91 981.3,-232.91"/>
<text text-anchor="middle" x="1065.8" y="-240.71" font-family="Times-Roman" font-size="14.00">36</text>
</g>
<g id="clust7" class="cluster">
<title>cluster349,184</title>
<path fill="none" stroke="black" d="M702.3,-8C702.3,-8 806.3,-8 806.3,-8 812.3,-8 818.3,-14 818.3,-20 818.3,-20 818.3,-209.93 818.3,-209.93 818.3,-215.93 812.3,-221.93 806.3,-221.93 806.3,-221.93 702.3,-221.93 702.3,-221.93 696.3,-221.93 690.3,-215.93 690.3,-209.93 690.3,-209.93 690.3,-20 690.3,-20 690.3,-14 696.3,-8 702.3,-8"/>
<text text-anchor="middle" x="780.8" y="-15.8" font-family="Times-Roman" font-size="14.00">349,184</text>
</g>
<!-- η -->
<g id="node1" class="node">
<title>η</title>
<ellipse fill="none" stroke="black" cx="889.3" cy="-545.29" rx="48.58" ry="37.45"/>
<text text-anchor="middle" x="889.3" y="-556.59" font-family="Times-Roman" font-size="14.00">η</text>
<text text-anchor="middle" x="889.3" y="-541.59" font-family="Times-Roman" font-size="14.00">~</text>
<text text-anchor="middle" x="889.3" y="-526.59" font-family="Times-Roman" font-size="14.00">Normal</text>
</g>
<!-- μ -->
<g id="node22" class="node">
<title>μ</title>
<polygon fill="none" stroke="black" points="810.3,-213.93 698.3,-213.93 698.3,-160.93 810.3,-160.93 810.3,-213.93"/>
<text text-anchor="middle" x="754.3" y="-198.73" font-family="Times-Roman" font-size="14.00">μ</text>
<text text-anchor="middle" x="754.3" y="-183.73" font-family="Times-Roman" font-size="14.00">~</text>
<text text-anchor="middle" x="754.3" y="-168.73" font-family="Times-Roman" font-size="14.00">Deterministic</text>
</g>
<!-- η&#45;&gt;μ -->
<g id="edge15" class="edge">
<title>η&#45;&gt;μ</title>
<path fill="none" stroke="black" d="M938.11,-541.15C1025.45,-534.39 1202.84,-515.18 1240.3,-468.81 1272.12,-429.42 1262.28,-400.49 1240.3,-354.86 1202.56,-276.52 1167.29,-267 1087.3,-232.91 1040.62,-213.01 903.56,-199.62 820.55,-193.07"/>
<polygon fill="black" stroke="black" points="820.69,-189.57 810.45,-192.29 820.15,-196.55 820.69,-189.57"/>
</g>
<!-- σ_a -->
<g id="node2" class="node">
<title>σ_a</title>
<ellipse fill="none" stroke="black" cx="753.3" cy="-545.29" rx="69.09" ry="37.45"/>
<text text-anchor="middle" x="753.3" y="-556.59" font-family="Times-Roman" font-size="14.00">σ_a</text>
<text text-anchor="middle" x="753.3" y="-541.59" font-family="Times-Roman" font-size="14.00">~</text>
<text text-anchor="middle" x="753.3" y="-526.59" font-family="Times-Roman" font-size="14.00">HalfNormal</text>
</g>
<!-- a -->
<g id="node3" class="node">
<title>a</title>
<ellipse fill="none" stroke="black" cx="616.3" cy="-423.34" rx="71.34" ry="37.45"/>
<text text-anchor="middle" x="616.3" y="-434.64" font-family="Times-Roman" font-size="14.00">a</text>
<text text-anchor="middle" x="616.3" y="-419.64" font-family="Times-Roman" font-size="14.00">~</text>
<text text-anchor="middle" x="616.3" y="-404.64" font-family="Times-Roman" font-size="14.00">Exponential</text>
</g>
<!-- σ_a&#45;&gt;a -->
<g id="edge1" class="edge">
<title>σ_a&#45;&gt;a</title>
<path fill="none" stroke="black" d="M717.66,-513.09C700.04,-497.66 678.62,-478.9 660.01,-462.61"/>
<polygon fill="black" stroke="black" points="662.06,-459.75 652.23,-455.8 657.45,-465.02 662.06,-459.75"/>
</g>
<!-- q -->
<g id="node17" class="node">
<title>q</title>
<ellipse fill="none" stroke="black" cx="616.3" cy="-301.38" rx="35.21" ry="37.45"/>
<text text-anchor="middle" x="616.3" y="-312.68" font-family="Times-Roman" font-size="14.00">q</text>
<text text-anchor="middle" x="616.3" y="-297.68" font-family="Times-Roman" font-size="14.00">~</text>
<text text-anchor="middle" x="616.3" y="-282.68" font-family="Times-Roman" font-size="14.00">Beta</text>
</g>
<!-- a&#45;&gt;q -->
<g id="edge2" class="edge">
<title>a&#45;&gt;q</title>
<path fill="none" stroke="black" d="M616.3,-385.69C616.3,-374.29 616.3,-361.55 616.3,-349.54"/>
<polygon fill="black" stroke="black" points="619.8,-349.21 616.3,-339.21 612.8,-349.21 619.8,-349.21"/>
</g>
<!-- σ_h -->
<g id="node4" class="node">
<title>σ_h</title>
<ellipse fill="none" stroke="black" cx="69.3" cy="-545.29" rx="69.09" ry="37.45"/>
<text text-anchor="middle" x="69.3" y="-556.59" font-family="Times-Roman" font-size="14.00">σ_h</text>
<text text-anchor="middle" x="69.3" y="-541.59" font-family="Times-Roman" font-size="14.00">~</text>
<text text-anchor="middle" x="69.3" y="-526.59" font-family="Times-Roman" font-size="14.00">HalfNormal</text>
</g>
<!-- h -->
<g id="node18" class="node">
<title>h</title>
<ellipse fill="none" stroke="black" cx="205.3" cy="-423.34" rx="48.58" ry="37.45"/>
<text text-anchor="middle" x="205.3" y="-434.64" font-family="Times-Roman" font-size="14.00">h</text>
<text text-anchor="middle" x="205.3" y="-419.64" font-family="Times-Roman" font-size="14.00">~</text>
<text text-anchor="middle" x="205.3" y="-404.64" font-family="Times-Roman" font-size="14.00">Normal</text>
</g>
<!-- σ_h&#45;&gt;h -->
<g id="edge4" class="edge">
<title>σ_h&#45;&gt;h</title>
<path fill="none" stroke="black" d="M105.03,-512.77C123.7,-496.3 146.61,-476.1 165.81,-459.17"/>
<polygon fill="black" stroke="black" points="168.33,-461.61 173.51,-452.37 163.7,-456.36 168.33,-461.61"/>
</g>
<!-- σ_β -->
<g id="node5" class="node">
<title>σ_β</title>
<ellipse fill="none" stroke="black" cx="1162.3" cy="-423.34" rx="69.09" ry="37.45"/>
<text text-anchor="middle" x="1162.3" y="-434.64" font-family="Times-Roman" font-size="14.00">σ_β</text>
<text text-anchor="middle" x="1162.3" y="-419.64" font-family="Times-Roman" font-size="14.00">~</text>
<text text-anchor="middle" x="1162.3" y="-404.64" font-family="Times-Roman" font-size="14.00">HalfNormal</text>
</g>
<!-- β -->
<g id="node21" class="node">
<title>β</title>
<ellipse fill="none" stroke="black" cx="1026.3" cy="-301.38" rx="48.58" ry="37.45"/>
<text text-anchor="middle" x="1026.3" y="-312.68" font-family="Times-Roman" font-size="14.00">β</text>
<text text-anchor="middle" x="1026.3" y="-297.68" font-family="Times-Roman" font-size="14.00">~</text>
<text text-anchor="middle" x="1026.3" y="-282.68" font-family="Times-Roman" font-size="14.00">Normal</text>
</g>
<!-- σ_β&#45;&gt;β -->
<g id="edge9" class="edge">
<title>σ_β&#45;&gt;β</title>
<path fill="none" stroke="black" d="M1126.56,-390.82C1107.89,-374.35 1084.98,-354.15 1065.78,-337.21"/>
<polygon fill="black" stroke="black" points="1067.9,-334.41 1058.08,-330.42 1063.26,-339.66 1067.9,-334.41"/>
</g>
<!-- μ_og -->
<g id="node6" class="node">
<title>μ_og</title>
<ellipse fill="none" stroke="black" cx="321.3" cy="-545.29" rx="48.58" ry="37.45"/>
<text text-anchor="middle" x="321.3" y="-556.59" font-family="Times-Roman" font-size="14.00">μ_og</text>
<text text-anchor="middle" x="321.3" y="-541.59" font-family="Times-Roman" font-size="14.00">~</text>
<text text-anchor="middle" x="321.3" y="-526.59" font-family="Times-Roman" font-size="14.00">Normal</text>
</g>
<!-- μ_o -->
<g id="node19" class="node">
<title>μ_o</title>
<ellipse fill="none" stroke="black" cx="321.3" cy="-423.34" rx="48.58" ry="37.45"/>
<text text-anchor="middle" x="321.3" y="-434.64" font-family="Times-Roman" font-size="14.00">μ_o</text>
<text text-anchor="middle" x="321.3" y="-419.64" font-family="Times-Roman" font-size="14.00">~</text>
<text text-anchor="middle" x="321.3" y="-404.64" font-family="Times-Roman" font-size="14.00">Normal</text>
</g>
<!-- μ_og&#45;&gt;μ_o -->
<g id="edge16" class="edge">
<title>μ_og&#45;&gt;μ_o</title>
<path fill="none" stroke="black" d="M321.3,-507.65C321.3,-496.24 321.3,-483.51 321.3,-471.49"/>
<polygon fill="black" stroke="black" points="324.8,-471.17 321.3,-461.17 317.8,-471.17 324.8,-471.17"/>
</g>
<!-- μ_h -->
<g id="node7" class="node">
<title>μ_h</title>
<ellipse fill="none" stroke="black" cx="205.3" cy="-545.29" rx="48.58" ry="37.45"/>
<text text-anchor="middle" x="205.3" y="-556.59" font-family="Times-Roman" font-size="14.00">μ_h</text>
<text text-anchor="middle" x="205.3" y="-541.59" font-family="Times-Roman" font-size="14.00">~</text>
<text text-anchor="middle" x="205.3" y="-526.59" font-family="Times-Roman" font-size="14.00">Normal</text>
</g>
<!-- μ_h&#45;&gt;h -->
<g id="edge3" class="edge">
<title>μ_h&#45;&gt;h</title>
<path fill="none" stroke="black" d="M205.3,-507.65C205.3,-496.24 205.3,-483.51 205.3,-471.49"/>
<polygon fill="black" stroke="black" points="208.8,-471.17 205.3,-461.17 201.8,-471.17 208.8,-471.17"/>
</g>
<!-- σ_η -->
<g id="node8" class="node">
<title>σ_η</title>
<ellipse fill="none" stroke="black" cx="821.3" cy="-656.24" rx="69.09" ry="37.45"/>
<text text-anchor="middle" x="821.3" y="-667.54" font-family="Times-Roman" font-size="14.00">σ_η</text>
<text text-anchor="middle" x="821.3" y="-652.54" font-family="Times-Roman" font-size="14.00">~</text>
<text text-anchor="middle" x="821.3" y="-637.54" font-family="Times-Roman" font-size="14.00">HalfNormal</text>
</g>
<!-- σ_η&#45;&gt;η -->
<g id="edge7" class="edge">
<title>σ_η&#45;&gt;η</title>
<path fill="none" stroke="black" d="M843,-620.47C849.38,-610.25 856.42,-598.97 863.05,-588.35"/>
<polygon fill="black" stroke="black" points="866.17,-589.96 868.5,-579.62 860.23,-586.25 866.17,-589.96"/>
</g>
<!-- σ -->
<g id="node9" class="node">
<title>σ</title>
<ellipse fill="none" stroke="black" cx="611.3" cy="-187.43" rx="69.09" ry="37.45"/>
<text text-anchor="middle" x="611.3" y="-198.73" font-family="Times-Roman" font-size="14.00">σ</text>
<text text-anchor="middle" x="611.3" y="-183.73" font-family="Times-Roman" font-size="14.00">~</text>
<text text-anchor="middle" x="611.3" y="-168.73" font-family="Times-Roman" font-size="14.00">HalfNormal</text>
</g>
<!-- lfc -->
<g id="node23" class="node">
<title>lfc</title>
<ellipse fill="lightgrey" stroke="black" cx="747.3" cy="-76.48" rx="48.58" ry="37.45"/>
<text text-anchor="middle" x="747.3" y="-87.78" font-family="Times-Roman" font-size="14.00">lfc</text>
<text text-anchor="middle" x="747.3" y="-72.78" font-family="Times-Roman" font-size="14.00">~</text>
<text text-anchor="middle" x="747.3" y="-57.78" font-family="Times-Roman" font-size="14.00">Normal</text>
</g>
<!-- σ&#45;&gt;lfc -->
<g id="edge22" class="edge">
<title>σ&#45;&gt;lfc</title>
<path fill="none" stroke="black" d="M649.54,-155.79C667.12,-141.71 688,-124.98 705.94,-110.61"/>
<polygon fill="black" stroke="black" points="708.34,-113.17 713.96,-104.19 703.97,-107.71 708.34,-113.17"/>
</g>
<!-- σ_d -->
<g id="node10" class="node">
<title>σ_d</title>
<ellipse fill="none" stroke="black" cx="890.3" cy="-423.34" rx="69.09" ry="37.45"/>
<text text-anchor="middle" x="890.3" y="-434.64" font-family="Times-Roman" font-size="14.00">σ_d</text>
<text text-anchor="middle" x="890.3" y="-419.64" font-family="Times-Roman" font-size="14.00">~</text>
<text text-anchor="middle" x="890.3" y="-404.64" font-family="Times-Roman" font-size="14.00">HalfNormal</text>
</g>
<!-- d -->
<g id="node20" class="node">
<title>d</title>
<ellipse fill="none" stroke="black" cx="754.3" cy="-301.38" rx="48.58" ry="37.45"/>
<text text-anchor="middle" x="754.3" y="-312.68" font-family="Times-Roman" font-size="14.00">d</text>
<text text-anchor="middle" x="754.3" y="-297.68" font-family="Times-Roman" font-size="14.00">~</text>
<text text-anchor="middle" x="754.3" y="-282.68" font-family="Times-Roman" font-size="14.00">Normal</text>
</g>
<!-- σ_d&#45;&gt;d -->
<g id="edge6" class="edge">
<title>σ_d&#45;&gt;d</title>
<path fill="none" stroke="black" d="M854.56,-390.82C835.89,-374.35 812.98,-354.15 793.78,-337.21"/>
<polygon fill="black" stroke="black" points="795.9,-334.41 786.08,-330.42 791.26,-339.66 795.9,-334.41"/>
</g>
<!-- μ_η -->
<g id="node11" class="node">
<title>μ_η</title>
<ellipse fill="none" stroke="black" cx="957.3" cy="-656.24" rx="48.58" ry="37.45"/>
<text text-anchor="middle" x="957.3" y="-667.54" font-family="Times-Roman" font-size="14.00">μ_η</text>
<text text-anchor="middle" x="957.3" y="-652.54" font-family="Times-Roman" font-size="14.00">~</text>
<text text-anchor="middle" x="957.3" y="-637.54" font-family="Times-Roman" font-size="14.00">Normal</text>
</g>
<!-- μ_η&#45;&gt;η -->
<g id="edge8" class="edge">
<title>μ_η&#45;&gt;η</title>
<path fill="none" stroke="black" d="M936.71,-622.26C930.05,-611.58 922.57,-599.6 915.55,-588.36"/>
<polygon fill="black" stroke="black" points="918.31,-586.17 910.05,-579.54 912.37,-589.88 918.31,-586.17"/>
</g>
<!-- σ_o -->
<g id="node12" class="node">
<title>σ_o</title>
<ellipse fill="none" stroke="black" cx="457.3" cy="-423.34" rx="69.09" ry="37.45"/>
<text text-anchor="middle" x="457.3" y="-434.64" font-family="Times-Roman" font-size="14.00">σ_o</text>
<text text-anchor="middle" x="457.3" y="-419.64" font-family="Times-Roman" font-size="14.00">~</text>
<text text-anchor="middle" x="457.3" y="-404.64" font-family="Times-Roman" font-size="14.00">HalfNormal</text>
</g>
<!-- o -->
<g id="node16" class="node">
<title>o</title>
<ellipse fill="none" stroke="black" cx="514.3" cy="-301.38" rx="48.58" ry="37.45"/>
<text text-anchor="middle" x="514.3" y="-312.68" font-family="Times-Roman" font-size="14.00">o</text>
<text text-anchor="middle" x="514.3" y="-297.68" font-family="Times-Roman" font-size="14.00">~</text>
<text text-anchor="middle" x="514.3" y="-282.68" font-family="Times-Roman" font-size="14.00">Normal</text>
</g>
<!-- σ_o&#45;&gt;o -->
<g id="edge18" class="edge">
<title>σ_o&#45;&gt;o</title>
<path fill="none" stroke="black" d="M474.24,-386.67C480.32,-373.88 487.25,-359.31 493.61,-345.92"/>
<polygon fill="black" stroke="black" points="496.77,-347.41 497.9,-336.88 490.45,-344.41 496.77,-347.41"/>
</g>
<!-- μ_β -->
<g id="node13" class="node">
<title>μ_β</title>
<ellipse fill="none" stroke="black" cx="1026.3" cy="-423.34" rx="48.58" ry="37.45"/>
<text text-anchor="middle" x="1026.3" y="-434.64" font-family="Times-Roman" font-size="14.00">μ_β</text>
<text text-anchor="middle" x="1026.3" y="-419.64" font-family="Times-Roman" font-size="14.00">~</text>
<text text-anchor="middle" x="1026.3" y="-404.64" font-family="Times-Roman" font-size="14.00">Normal</text>
</g>
<!-- μ_β&#45;&gt;β -->
<g id="edge10" class="edge">
<title>μ_β&#45;&gt;β</title>
<path fill="none" stroke="black" d="M1026.3,-385.69C1026.3,-374.29 1026.3,-361.55 1026.3,-349.54"/>
<polygon fill="black" stroke="black" points="1029.8,-349.21 1026.3,-339.21 1022.8,-349.21 1029.8,-349.21"/>
</g>
<!-- μ_d -->
<g id="node14" class="node">
<title>μ_d</title>
<ellipse fill="none" stroke="black" cx="754.3" cy="-423.34" rx="48.58" ry="37.45"/>
<text text-anchor="middle" x="754.3" y="-434.64" font-family="Times-Roman" font-size="14.00">μ_d</text>
<text text-anchor="middle" x="754.3" y="-419.64" font-family="Times-Roman" font-size="14.00">~</text>
<text text-anchor="middle" x="754.3" y="-404.64" font-family="Times-Roman" font-size="14.00">Normal</text>
</g>
<!-- μ_d&#45;&gt;d -->
<g id="edge5" class="edge">
<title>μ_d&#45;&gt;d</title>
<path fill="none" stroke="black" d="M754.3,-385.69C754.3,-374.29 754.3,-361.55 754.3,-349.54"/>
<polygon fill="black" stroke="black" points="757.8,-349.21 754.3,-339.21 750.8,-349.21 757.8,-349.21"/>
</g>
<!-- σ_og -->
<g id="node15" class="node">
<title>σ_og</title>
<ellipse fill="none" stroke="black" cx="457.3" cy="-545.29" rx="69.09" ry="37.45"/>
<text text-anchor="middle" x="457.3" y="-556.59" font-family="Times-Roman" font-size="14.00">σ_og</text>
<text text-anchor="middle" x="457.3" y="-541.59" font-family="Times-Roman" font-size="14.00">~</text>
<text text-anchor="middle" x="457.3" y="-526.59" font-family="Times-Roman" font-size="14.00">HalfNormal</text>
</g>
<!-- σ_og&#45;&gt;μ_o -->
<g id="edge17" class="edge">
<title>σ_og&#45;&gt;μ_o</title>
<path fill="none" stroke="black" d="M421.56,-512.77C402.89,-496.3 379.98,-476.1 360.78,-459.17"/>
<polygon fill="black" stroke="black" points="362.9,-456.36 353.08,-452.37 358.26,-461.61 362.9,-456.36"/>
</g>
<!-- o&#45;&gt;lfc -->
<g id="edge21" class="edge">
<title>o&#45;&gt;lfc</title>
<path fill="none" stroke="black" d="M508.84,-264.01C505.94,-230.66 507.32,-181.76 533.3,-149.95 570.94,-103.87 639.13,-86.95 688.43,-80.82"/>
<polygon fill="black" stroke="black" points="689.1,-84.26 698.65,-79.66 688.32,-77.31 689.1,-84.26"/>
</g>
<!-- q&#45;&gt;μ -->
<g id="edge13" class="edge">
<title>q&#45;&gt;μ</title>
<path fill="none" stroke="black" d="M642.87,-276.05C657.48,-262.94 676.09,-246.68 693.3,-232.91 698.59,-228.67 704.24,-224.33 709.88,-220.1"/>
<polygon fill="black" stroke="black" points="712.14,-222.78 718.09,-214.01 707.97,-217.15 712.14,-222.78"/>
</g>
<!-- h&#45;&gt;μ -->
<g id="edge12" class="edge">
<title>h&#45;&gt;μ</title>
<path fill="none" stroke="black" d="M229.54,-390.37C239.33,-378.51 251.17,-365.4 263.3,-354.86 339.02,-289.02 357.5,-262.78 453.3,-232.91 503.39,-217.29 638.76,-239.04 689.3,-224.91 695.04,-223.3 700.83,-221.09 706.46,-218.54"/>
<polygon fill="black" stroke="black" points="708.3,-221.53 715.74,-213.99 705.22,-215.25 708.3,-221.53"/>
</g>
<!-- μ_o&#45;&gt;o -->
<g id="edge19" class="edge">
<title>μ_o&#45;&gt;o</title>
<path fill="none" stroke="black" d="M343.93,-389.73C353.69,-377.51 365.93,-364.32 379.3,-354.86 403.05,-338.05 432.91,-325.72 458.51,-317.25"/>
<polygon fill="black" stroke="black" points="459.63,-320.56 468.09,-314.19 457.5,-313.9 459.63,-320.56"/>
</g>
<!-- d&#45;&gt;μ -->
<g id="edge14" class="edge">
<title>d&#45;&gt;μ</title>
<path fill="none" stroke="black" d="M754.3,-263.73C754.3,-251.07 754.3,-236.92 754.3,-224.32"/>
<polygon fill="black" stroke="black" points="757.8,-224.18 754.3,-214.18 750.8,-224.18 757.8,-224.18"/>
</g>
<!-- β&#45;&gt;μ -->
<g id="edge11" class="edge">
<title>β&#45;&gt;μ</title>
<path fill="none" stroke="black" d="M983.8,-282.89C939.91,-264.83 870.85,-236.4 819.94,-215.45"/>
<polygon fill="black" stroke="black" points="821.23,-212.2 810.66,-211.63 818.57,-218.67 821.23,-212.2"/>
</g>
<!-- μ&#45;&gt;lfc -->
<g id="edge20" class="edge">
<title>μ&#45;&gt;lfc</title>
<path fill="none" stroke="black" d="M752.66,-160.89C751.95,-149.98 751.11,-136.89 750.31,-124.35"/>
<polygon fill="black" stroke="black" points="753.78,-123.76 749.64,-114 746.79,-124.21 753.78,-123.76"/>
</g>
</g>
</svg>
