<?xml version="1.0" encoding="UTF-8" standalone="no"?>
<!DOCTYPE svg PUBLIC "-//W3C//DTD SVG 1.1//EN"
 "http://www.w3.org/Graphics/SVG/1.1/DTD/svg11.dtd">
<!-- Generated by graphviz version 2.42.3 (20191010.1750)
 -->
<!-- Title: %3 Pages: 1 -->
<svg width="653pt" height="580pt"
 viewBox="0.00 0.00 652.67 579.77" xmlns="http://www.w3.org/2000/svg" xmlns:xlink="http://www.w3.org/1999/xlink">
<g id="graph0" class="graph" transform="scale(1 1) rotate(0) translate(4 575.77)">
<title>%3</title>
<polygon fill="white" stroke="transparent" points="-4,4 -4,-575.77 648.67,-575.77 648.67,4 -4,4"/>
<g id="clust1" class="cluster">
<title>cluster5</title>
<path fill="none" stroke="black" d="M275.98,-354.86C275.98,-354.86 469.98,-354.86 469.98,-354.86 475.98,-354.86 481.98,-360.86 481.98,-366.86 481.98,-366.86 481.98,-456.81 481.98,-456.81 481.98,-462.81 475.98,-468.81 469.98,-468.81 469.98,-468.81 275.98,-468.81 275.98,-468.81 269.98,-468.81 263.98,-462.81 263.98,-456.81 263.98,-456.81 263.98,-366.86 263.98,-366.86 263.98,-360.86 269.98,-354.86 275.98,-354.86"/>
<text text-anchor="middle" x="470.48" y="-362.66" font-family="Times,serif" font-size="14.00">5</text>
</g>
<g id="clust2" class="cluster">
<title>cluster15</title>
<path fill="none" stroke="black" d="M164.98,-232.91C164.98,-232.91 341.98,-232.91 341.98,-232.91 347.98,-232.91 353.98,-238.91 353.98,-244.91 353.98,-244.91 353.98,-334.86 353.98,-334.86 353.98,-340.86 347.98,-346.86 341.98,-346.86 341.98,-346.86 164.98,-346.86 164.98,-346.86 158.98,-346.86 152.98,-340.86 152.98,-334.86 152.98,-334.86 152.98,-244.91 152.98,-244.91 152.98,-238.91 158.98,-232.91 164.98,-232.91"/>
<text text-anchor="middle" x="338.98" y="-240.71" font-family="Times,serif" font-size="14.00">15</text>
</g>
<g id="clust3" class="cluster">
<title>cluster300</title>
<path fill="none" stroke="black" d="M211.98,-8C211.98,-8 295.98,-8 295.98,-8 301.98,-8 307.98,-14 307.98,-20 307.98,-20 307.98,-209.93 307.98,-209.93 307.98,-215.93 301.98,-221.93 295.98,-221.93 295.98,-221.93 211.98,-221.93 211.98,-221.93 205.98,-221.93 199.98,-215.93 199.98,-209.93 199.98,-209.93 199.98,-20 199.98,-20 199.98,-14 205.98,-8 211.98,-8"/>
<text text-anchor="middle" x="289.48" y="-15.8" font-family="Times,serif" font-size="14.00">300</text>
</g>
<!-- sigma_beta -->
<g id="node1" class="node">
<title>sigma_beta</title>
<ellipse fill="none" stroke="black" cx="57.98" cy="-423.34" rx="57.97" ry="37.45"/>
<text text-anchor="middle" x="57.98" y="-434.64" font-family="Times,serif" font-size="14.00">sigma_beta</text>
<text text-anchor="middle" x="57.98" y="-419.64" font-family="Times,serif" font-size="14.00">~</text>
<text text-anchor="middle" x="57.98" y="-404.64" font-family="Times,serif" font-size="14.00">Exponential</text>
</g>
<!-- beta_s -->
<g id="node11" class="node">
<title>beta_s</title>
<ellipse fill="none" stroke="black" cx="202.98" cy="-301.38" rx="41.94" ry="37.45"/>
<text text-anchor="middle" x="202.98" y="-312.68" font-family="Times,serif" font-size="14.00">beta_s</text>
<text text-anchor="middle" x="202.98" y="-297.68" font-family="Times,serif" font-size="14.00">~</text>
<text text-anchor="middle" x="202.98" y="-282.68" font-family="Times,serif" font-size="14.00">Normal</text>
</g>
<!-- sigma_beta&#45;&gt;beta_s -->
<g id="edge8" class="edge">
<title>sigma_beta&#45;&gt;beta_s</title>
<path fill="none" stroke="black" d="M86.8,-390.79C98.21,-378.98 111.75,-365.8 124.98,-354.86 136.02,-345.74 148.65,-336.71 160.48,-328.78"/>
<polygon fill="black" stroke="black" points="162.51,-331.64 168.93,-323.21 158.65,-325.79 162.51,-331.64"/>
</g>
<!-- sigma_gamma -->
<g id="node2" class="node">
<title>sigma_gamma</title>
<ellipse fill="none" stroke="black" cx="440.98" cy="-534.29" rx="68.68" ry="37.45"/>
<text text-anchor="middle" x="440.98" y="-545.59" font-family="Times,serif" font-size="14.00">sigma_gamma</text>
<text text-anchor="middle" x="440.98" y="-530.59" font-family="Times,serif" font-size="14.00">~</text>
<text text-anchor="middle" x="440.98" y="-515.59" font-family="Times,serif" font-size="14.00">Exponential</text>
</g>
<!-- gamma_g -->
<g id="node9" class="node">
<title>gamma_g</title>
<ellipse fill="none" stroke="black" cx="423.98" cy="-423.34" rx="50.41" ry="37.45"/>
<text text-anchor="middle" x="423.98" y="-434.64" font-family="Times,serif" font-size="14.00">gamma_g</text>
<text text-anchor="middle" x="423.98" y="-419.64" font-family="Times,serif" font-size="14.00">~</text>
<text text-anchor="middle" x="423.98" y="-404.64" font-family="Times,serif" font-size="14.00">Normal</text>
</g>
<!-- sigma_gamma&#45;&gt;gamma_g -->
<g id="edge1" class="edge">
<title>sigma_gamma&#45;&gt;gamma_g</title>
<path fill="none" stroke="black" d="M435.27,-496.71C433.97,-488.35 432.57,-479.37 431.21,-470.67"/>
<polygon fill="black" stroke="black" points="434.65,-469.98 429.65,-460.64 427.73,-471.06 434.65,-469.98"/>
</g>
<!-- sigma_alpha -->
<g id="node3" class="node">
<title>sigma_alpha</title>
<ellipse fill="none" stroke="black" cx="193.98" cy="-423.34" rx="60.21" ry="37.45"/>
<text text-anchor="middle" x="193.98" y="-434.64" font-family="Times,serif" font-size="14.00">sigma_alpha</text>
<text text-anchor="middle" x="193.98" y="-419.64" font-family="Times,serif" font-size="14.00">~</text>
<text text-anchor="middle" x="193.98" y="-404.64" font-family="Times,serif" font-size="14.00">Exponential</text>
</g>
<!-- alpha_s -->
<g id="node10" class="node">
<title>alpha_s</title>
<ellipse fill="none" stroke="black" cx="303.98" cy="-301.38" rx="41.94" ry="37.45"/>
<text text-anchor="middle" x="303.98" y="-312.68" font-family="Times,serif" font-size="14.00">alpha_s</text>
<text text-anchor="middle" x="303.98" y="-297.68" font-family="Times,serif" font-size="14.00">~</text>
<text text-anchor="middle" x="303.98" y="-282.68" font-family="Times,serif" font-size="14.00">Normal</text>
</g>
<!-- sigma_alpha&#45;&gt;alpha_s -->
<g id="edge5" class="edge">
<title>sigma_alpha&#45;&gt;alpha_s</title>
<path fill="none" stroke="black" d="M223.17,-390.51C237.85,-374.5 255.71,-355.02 270.9,-338.46"/>
<polygon fill="black" stroke="black" points="273.49,-340.81 277.67,-331.08 268.33,-336.08 273.49,-340.81"/>
</g>
<!-- mu_gamma -->
<g id="node4" class="node">
<title>mu_gamma</title>
<ellipse fill="none" stroke="black" cx="585.98" cy="-534.29" rx="58.88" ry="37.45"/>
<text text-anchor="middle" x="585.98" y="-545.59" font-family="Times,serif" font-size="14.00">mu_gamma</text>
<text text-anchor="middle" x="585.98" y="-530.59" font-family="Times,serif" font-size="14.00">~</text>
<text text-anchor="middle" x="585.98" y="-515.59" font-family="Times,serif" font-size="14.00">Normal</text>
</g>
<!-- mu_gamma&#45;&gt;gamma_g -->
<g id="edge2" class="edge">
<title>mu_gamma&#45;&gt;gamma_g</title>
<path fill="none" stroke="black" d="M546.35,-506.64C522.98,-490.91 493.31,-470.96 469.05,-454.64"/>
<polygon fill="black" stroke="black" points="470.96,-451.71 460.71,-449.04 467.05,-457.52 470.96,-451.71"/>
</g>
<!-- mu_delta -->
<g id="node5" class="node">
<title>mu_delta</title>
<ellipse fill="none" stroke="black" cx="171.98" cy="-534.29" rx="48.17" ry="37.45"/>
<text text-anchor="middle" x="171.98" y="-545.59" font-family="Times,serif" font-size="14.00">mu_delta</text>
<text text-anchor="middle" x="171.98" y="-530.59" font-family="Times,serif" font-size="14.00">~</text>
<text text-anchor="middle" x="171.98" y="-515.59" font-family="Times,serif" font-size="14.00">Normal</text>
</g>
<!-- delta_g -->
<g id="node8" class="node">
<title>delta_g</title>
<ellipse fill="none" stroke="black" cx="313.98" cy="-423.34" rx="41.94" ry="37.45"/>
<text text-anchor="middle" x="313.98" y="-434.64" font-family="Times,serif" font-size="14.00">delta_g</text>
<text text-anchor="middle" x="313.98" y="-419.64" font-family="Times,serif" font-size="14.00">~</text>
<text text-anchor="middle" x="313.98" y="-404.64" font-family="Times,serif" font-size="14.00">Normal</text>
</g>
<!-- mu_delta&#45;&gt;delta_g -->
<g id="edge4" class="edge">
<title>mu_delta&#45;&gt;delta_g</title>
<path fill="none" stroke="black" d="M208.03,-508.99C224.99,-497.25 245.33,-482.7 262.98,-468.81 267.65,-465.14 272.47,-461.17 277.2,-457.18"/>
<polygon fill="black" stroke="black" points="279.7,-459.65 285.01,-450.49 275.14,-454.34 279.7,-459.65"/>
</g>
<!-- sigma -->
<g id="node6" class="node">
<title>sigma</title>
<ellipse fill="none" stroke="black" cx="374.98" cy="-187.43" rx="57.97" ry="37.45"/>
<text text-anchor="middle" x="374.98" y="-198.73" font-family="Times,serif" font-size="14.00">sigma</text>
<text text-anchor="middle" x="374.98" y="-183.73" font-family="Times,serif" font-size="14.00">~</text>
<text text-anchor="middle" x="374.98" y="-168.73" font-family="Times,serif" font-size="14.00">Exponential</text>
</g>
<!-- logfc -->
<g id="node13" class="node">
<title>logfc</title>
<ellipse fill="lightgrey" stroke="black" cx="255.98" cy="-76.48" rx="41.94" ry="37.45"/>
<text text-anchor="middle" x="255.98" y="-87.78" font-family="Times,serif" font-size="14.00">logfc</text>
<text text-anchor="middle" x="255.98" y="-72.78" font-family="Times,serif" font-size="14.00">~</text>
<text text-anchor="middle" x="255.98" y="-57.78" font-family="Times,serif" font-size="14.00">Normal</text>
</g>
<!-- sigma&#45;&gt;logfc -->
<g id="edge12" class="edge">
<title>sigma&#45;&gt;logfc</title>
<path fill="none" stroke="black" d="M342.15,-156.37C326.66,-142.19 308.13,-125.22 292.23,-110.66"/>
<polygon fill="black" stroke="black" points="294.4,-107.9 284.66,-103.73 289.67,-113.07 294.4,-107.9"/>
</g>
<!-- sigma_delta -->
<g id="node7" class="node">
<title>sigma_delta</title>
<ellipse fill="none" stroke="black" cx="295.98" cy="-534.29" rx="57.97" ry="37.45"/>
<text text-anchor="middle" x="295.98" y="-545.59" font-family="Times,serif" font-size="14.00">sigma_delta</text>
<text text-anchor="middle" x="295.98" y="-530.59" font-family="Times,serif" font-size="14.00">~</text>
<text text-anchor="middle" x="295.98" y="-515.59" font-family="Times,serif" font-size="14.00">Exponential</text>
</g>
<!-- sigma_delta&#45;&gt;delta_g -->
<g id="edge3" class="edge">
<title>sigma_delta&#45;&gt;delta_g</title>
<path fill="none" stroke="black" d="M301.98,-497.01C303.39,-488.46 304.91,-479.24 306.38,-470.33"/>
<polygon fill="black" stroke="black" points="309.84,-470.89 308.02,-460.46 302.93,-469.75 309.84,-470.89"/>
</g>
<!-- delta_g&#45;&gt;beta_s -->
<g id="edge7" class="edge">
<title>delta_g&#45;&gt;beta_s</title>
<path fill="none" stroke="black" d="M292.66,-390.8C284.05,-379 273.63,-365.81 262.98,-354.86 259.01,-350.78 257.33,-350.53 252.98,-346.86 248.55,-343.12 243.94,-339.14 239.39,-335.16"/>
<polygon fill="black" stroke="black" points="241.66,-332.5 231.84,-328.51 237.03,-337.75 241.66,-332.5"/>
</g>
<!-- gamma_g&#45;&gt;alpha_s -->
<g id="edge6" class="edge">
<title>gamma_g&#45;&gt;alpha_s</title>
<path fill="none" stroke="black" d="M398.14,-390.94C388.14,-379.28 376.36,-366.15 364.98,-354.86 357.84,-347.78 349.89,-340.53 342.15,-333.76"/>
<polygon fill="black" stroke="black" points="344.38,-331.07 334.52,-327.19 339.81,-336.37 344.38,-331.07"/>
</g>
<!-- mu_s -->
<g id="node12" class="node">
<title>mu_s</title>
<polygon fill="none" stroke="black" points="299.48,-213.93 208.48,-213.93 208.48,-160.93 299.48,-160.93 299.48,-213.93"/>
<text text-anchor="middle" x="253.98" y="-198.73" font-family="Times,serif" font-size="14.00">mu_s</text>
<text text-anchor="middle" x="253.98" y="-183.73" font-family="Times,serif" font-size="14.00">~</text>
<text text-anchor="middle" x="253.98" y="-168.73" font-family="Times,serif" font-size="14.00">Deterministic</text>
</g>
<!-- alpha_s&#45;&gt;mu_s -->
<g id="edge9" class="edge">
<title>alpha_s&#45;&gt;mu_s</title>
<path fill="none" stroke="black" d="M288.71,-266.19C282.7,-252.73 275.8,-237.29 269.75,-223.73"/>
<polygon fill="black" stroke="black" points="272.79,-221.95 265.51,-214.25 266.39,-224.8 272.79,-221.95"/>
</g>
<!-- beta_s&#45;&gt;mu_s -->
<g id="edge10" class="edge">
<title>beta_s&#45;&gt;mu_s</title>
<path fill="none" stroke="black" d="M218.42,-266.49C224.66,-252.79 231.86,-236.99 238.14,-223.2"/>
<polygon fill="black" stroke="black" points="241.36,-224.58 242.32,-214.03 234.99,-221.68 241.36,-224.58"/>
</g>
<!-- mu_s&#45;&gt;logfc -->
<g id="edge11" class="edge">
<title>mu_s&#45;&gt;logfc</title>
<path fill="none" stroke="black" d="M254.45,-160.89C254.65,-149.98 254.89,-136.89 255.12,-124.35"/>
<polygon fill="black" stroke="black" points="258.63,-124.06 255.31,-114 251.63,-123.94 258.63,-124.06"/>
</g>
</g>
</svg>
