<?xml version="1.0" encoding="UTF-8" standalone="no"?>
<!DOCTYPE svg PUBLIC "-//W3C//DTD SVG 1.1//EN"
 "http://www.w3.org/Graphics/SVG/1.1/DTD/svg11.dtd">
<!-- Generated by graphviz version 3.0.0 (0)
 -->
<!-- Pages: 1 -->
<svg width="808pt" height="571pt"
 viewBox="0.00 0.00 808.08 570.81" xmlns="http://www.w3.org/2000/svg" xmlns:xlink="http://www.w3.org/1999/xlink">
<g id="graph0" class="graph" transform="scale(1 1) rotate(0) translate(4 566.81)">
<polygon fill="white" stroke="transparent" points="-4,4 -4,-566.81 804.08,-566.81 804.08,4 -4,4"/>
<g id="clust2" class="cluster">
<title>clustergene (113) x lineage (2)</title>
<path fill="none" stroke="black" d="M116.08,-340.88C116.08,-340.88 309.08,-340.88 309.08,-340.88 315.08,-340.88 321.08,-346.88 321.08,-352.88 321.08,-352.88 321.08,-542.81 321.08,-542.81 321.08,-548.81 315.08,-554.81 309.08,-554.81 309.08,-554.81 116.08,-554.81 116.08,-554.81 110.08,-554.81 104.08,-548.81 104.08,-542.81 104.08,-542.81 104.08,-352.88 104.08,-352.88 104.08,-346.88 110.08,-340.88 116.08,-340.88"/>
<text text-anchor="middle" x="247.08" y="-348.68" font-family="Times,serif" font-size="14.00">gene (113) x lineage (2)</text>
</g>
<g id="clust3" class="cluster">
<title>clustergene (113) x cancer_gene (5) x lineage (2)</title>
<path fill="none" stroke="black" d="M555.08,-329.91C555.08,-329.91 780.08,-329.91 780.08,-329.91 786.08,-329.91 792.08,-335.91 792.08,-341.91 792.08,-341.91 792.08,-431.86 792.08,-431.86 792.08,-437.86 786.08,-443.86 780.08,-443.86 780.08,-443.86 555.08,-443.86 555.08,-443.86 549.08,-443.86 543.08,-437.86 543.08,-431.86 543.08,-431.86 543.08,-341.91 543.08,-341.91 543.08,-335.91 549.08,-329.91 555.08,-329.91"/>
<text text-anchor="middle" x="667.58" y="-337.71" font-family="Times,serif" font-size="14.00">gene (113) x cancer_gene (5) x lineage (2)</text>
</g>
<g id="clust1" class="cluster">
<title>clustercell_line (10)</title>
<path fill="none" stroke="black" d="M439.08,-340.88C439.08,-340.88 523.08,-340.88 523.08,-340.88 529.08,-340.88 535.08,-346.88 535.08,-352.88 535.08,-352.88 535.08,-542.81 535.08,-542.81 535.08,-548.81 529.08,-554.81 523.08,-554.81 523.08,-554.81 439.08,-554.81 439.08,-554.81 433.08,-554.81 427.08,-548.81 427.08,-542.81 427.08,-542.81 427.08,-352.88 427.08,-352.88 427.08,-346.88 433.08,-340.88 439.08,-340.88"/>
<text text-anchor="middle" x="490.58" y="-348.68" font-family="Times,serif" font-size="14.00">cell_line (10)</text>
</g>
<g id="clust4" class="cluster">
<title>cluster1976</title>
<path fill="none" stroke="black" d="M314.08,-8C314.08,-8 452.08,-8 452.08,-8 458.08,-8 464.08,-14 464.08,-20 464.08,-20 464.08,-309.91 464.08,-309.91 464.08,-315.91 458.08,-321.91 452.08,-321.91 452.08,-321.91 314.08,-321.91 314.08,-321.91 308.08,-321.91 302.08,-315.91 302.08,-309.91 302.08,-309.91 302.08,-20 302.08,-20 302.08,-14 308.08,-8 314.08,-8"/>
<text text-anchor="middle" x="442.08" y="-15.8" font-family="Times,serif" font-size="14.00">1976</text>
</g>
<!-- sigma_m -->
<g id="node1" class="node">
<title>sigma_m</title>
<ellipse fill="none" stroke="black" cx="48.08" cy="-509.34" rx="48.17" ry="37.45"/>
<text text-anchor="middle" x="48.08" y="-520.64" font-family="Times,serif" font-size="14.00">sigma_m</text>
<text text-anchor="middle" x="48.08" y="-505.64" font-family="Times,serif" font-size="14.00">~</text>
<text text-anchor="middle" x="48.08" y="-490.64" font-family="Times,serif" font-size="14.00">Gamma</text>
</g>
<!-- m -->
<g id="node8" class="node">
<title>m</title>
<polygon fill="none" stroke="black" points="203.58,-424.88 112.58,-424.88 112.58,-371.88 203.58,-371.88 203.58,-424.88"/>
<text text-anchor="middle" x="158.08" y="-409.68" font-family="Times,serif" font-size="14.00">m</text>
<text text-anchor="middle" x="158.08" y="-394.68" font-family="Times,serif" font-size="14.00">~</text>
<text text-anchor="middle" x="158.08" y="-379.68" font-family="Times,serif" font-size="14.00">Deterministic</text>
</g>
<!-- sigma_m&#45;&gt;m -->
<g id="edge6" class="edge">
<title>sigma_m&#45;&gt;m</title>
<path fill="none" stroke="black" d="M77.27,-479.43C91.93,-464.91 109.75,-447.25 124.93,-432.22"/>
<polygon fill="black" stroke="black" points="127.5,-434.6 132.14,-425.08 122.57,-429.63 127.5,-434.6"/>
</g>
<!-- alpha -->
<g id="node2" class="node">
<title>alpha</title>
<ellipse fill="none" stroke="black" cx="515.08" cy="-187.43" rx="43.27" ry="37.45"/>
<text text-anchor="middle" x="515.08" y="-198.73" font-family="Times,serif" font-size="14.00">alpha</text>
<text text-anchor="middle" x="515.08" y="-183.73" font-family="Times,serif" font-size="14.00">~</text>
<text text-anchor="middle" x="515.08" y="-168.73" font-family="Times,serif" font-size="14.00">Gamma</text>
</g>
<!-- ct_final -->
<g id="node13" class="node">
<title>ct_final</title>
<ellipse fill="lightgrey" stroke="black" cx="374.08" cy="-76.48" rx="63.78" ry="37.45"/>
<text text-anchor="middle" x="374.08" y="-87.78" font-family="Times,serif" font-size="14.00">ct_final</text>
<text text-anchor="middle" x="374.08" y="-72.78" font-family="Times,serif" font-size="14.00">~</text>
<text text-anchor="middle" x="374.08" y="-57.78" font-family="Times,serif" font-size="14.00">NegBinomial</text>
</g>
<!-- alpha&#45;&gt;ct_final -->
<g id="edge13" class="edge">
<title>alpha&#45;&gt;ct_final</title>
<path fill="none" stroke="black" d="M483.49,-161.89C478.34,-157.9 473.07,-153.81 468.08,-149.95 452.54,-137.93 435.54,-124.81 420.32,-113.08"/>
<polygon fill="black" stroke="black" points="422.12,-110.05 412.07,-106.72 417.85,-115.6 422.12,-110.05"/>
</g>
<!-- z -->
<g id="node3" class="node">
<title>z</title>
<ellipse fill="none" stroke="black" cx="374.08" cy="-398.38" rx="41.94" ry="37.45"/>
<text text-anchor="middle" x="374.08" y="-409.68" font-family="Times,serif" font-size="14.00">z</text>
<text text-anchor="middle" x="374.08" y="-394.68" font-family="Times,serif" font-size="14.00">~</text>
<text text-anchor="middle" x="374.08" y="-379.68" font-family="Times,serif" font-size="14.00">Normal</text>
</g>
<!-- eta -->
<g id="node15" class="node">
<title>eta</title>
<polygon fill="none" stroke="black" points="419.58,-313.91 328.58,-313.91 328.58,-260.91 419.58,-260.91 419.58,-313.91"/>
<text text-anchor="middle" x="374.08" y="-298.71" font-family="Times,serif" font-size="14.00">eta</text>
<text text-anchor="middle" x="374.08" y="-283.71" font-family="Times,serif" font-size="14.00">~</text>
<text text-anchor="middle" x="374.08" y="-268.71" font-family="Times,serif" font-size="14.00">Deterministic</text>
</g>
<!-- z&#45;&gt;eta -->
<g id="edge9" class="edge">
<title>z&#45;&gt;eta</title>
<path fill="none" stroke="black" d="M374.08,-360.79C374.08,-349.05 374.08,-336.06 374.08,-324.37"/>
<polygon fill="black" stroke="black" points="377.58,-324.06 374.08,-314.06 370.58,-324.06 377.58,-324.06"/>
</g>
<!-- sigma_d -->
<g id="node4" class="node">
<title>sigma_d</title>
<ellipse fill="none" stroke="black" cx="374.08" cy="-509.34" rx="44.6" ry="37.45"/>
<text text-anchor="middle" x="374.08" y="-520.64" font-family="Times,serif" font-size="14.00">sigma_d</text>
<text text-anchor="middle" x="374.08" y="-505.64" font-family="Times,serif" font-size="14.00">~</text>
<text text-anchor="middle" x="374.08" y="-490.64" font-family="Times,serif" font-size="14.00">Gamma</text>
</g>
<!-- d -->
<g id="node10" class="node">
<title>d</title>
<polygon fill="none" stroke="black" points="312.58,-424.88 221.58,-424.88 221.58,-371.88 312.58,-371.88 312.58,-424.88"/>
<text text-anchor="middle" x="267.08" y="-409.68" font-family="Times,serif" font-size="14.00">d</text>
<text text-anchor="middle" x="267.08" y="-394.68" font-family="Times,serif" font-size="14.00">~</text>
<text text-anchor="middle" x="267.08" y="-379.68" font-family="Times,serif" font-size="14.00">Deterministic</text>
</g>
<!-- sigma_d&#45;&gt;d -->
<g id="edge3" class="edge">
<title>sigma_d&#45;&gt;d</title>
<path fill="none" stroke="black" d="M346.25,-479.99C331.88,-465.36 314.28,-447.44 299.32,-432.21"/>
<polygon fill="black" stroke="black" points="301.72,-429.66 292.22,-424.98 296.73,-434.56 301.72,-429.66"/>
</g>
<!-- sigma_b -->
<g id="node5" class="node">
<title>sigma_b</title>
<ellipse fill="none" stroke="black" cx="588.08" cy="-509.34" rx="44.6" ry="37.45"/>
<text text-anchor="middle" x="588.08" y="-520.64" font-family="Times,serif" font-size="14.00">sigma_b</text>
<text text-anchor="middle" x="588.08" y="-505.64" font-family="Times,serif" font-size="14.00">~</text>
<text text-anchor="middle" x="588.08" y="-490.64" font-family="Times,serif" font-size="14.00">Gamma</text>
</g>
<!-- b -->
<g id="node6" class="node">
<title>b</title>
<polygon fill="none" stroke="black" points="526.58,-424.88 435.58,-424.88 435.58,-371.88 526.58,-371.88 526.58,-424.88"/>
<text text-anchor="middle" x="481.08" y="-409.68" font-family="Times,serif" font-size="14.00">b</text>
<text text-anchor="middle" x="481.08" y="-394.68" font-family="Times,serif" font-size="14.00">~</text>
<text text-anchor="middle" x="481.08" y="-379.68" font-family="Times,serif" font-size="14.00">Deterministic</text>
</g>
<!-- sigma_b&#45;&gt;b -->
<g id="edge1" class="edge">
<title>sigma_b&#45;&gt;b</title>
<path fill="none" stroke="black" d="M560.25,-479.99C545.88,-465.36 528.28,-447.44 513.32,-432.21"/>
<polygon fill="black" stroke="black" points="515.72,-429.66 506.22,-424.98 510.73,-434.56 515.72,-429.66"/>
</g>
<!-- b&#45;&gt;eta -->
<g id="edge7" class="edge">
<title>b&#45;&gt;eta</title>
<path fill="none" stroke="black" d="M461.71,-371.69C451.4,-358.65 438.17,-342.87 425.08,-329.91 421.94,-326.8 418.58,-323.68 415.15,-320.62"/>
<polygon fill="black" stroke="black" points="417.4,-317.95 407.55,-314.07 412.83,-323.25 417.4,-317.95"/>
</g>
<!-- delta_b -->
<g id="node7" class="node">
<title>delta_b</title>
<ellipse fill="none" stroke="black" cx="481.08" cy="-509.34" rx="41.94" ry="37.45"/>
<text text-anchor="middle" x="481.08" y="-520.64" font-family="Times,serif" font-size="14.00">delta_b</text>
<text text-anchor="middle" x="481.08" y="-505.64" font-family="Times,serif" font-size="14.00">~</text>
<text text-anchor="middle" x="481.08" y="-490.64" font-family="Times,serif" font-size="14.00">Normal</text>
</g>
<!-- delta_b&#45;&gt;b -->
<g id="edge2" class="edge">
<title>delta_b&#45;&gt;b</title>
<path fill="none" stroke="black" d="M481.08,-471.75C481.08,-460.02 481.08,-447.03 481.08,-435.34"/>
<polygon fill="black" stroke="black" points="484.58,-435.04 481.08,-425.04 477.58,-435.04 484.58,-435.04"/>
</g>
<!-- m&#45;&gt;eta -->
<g id="edge11" class="edge">
<title>m&#45;&gt;eta</title>
<path fill="none" stroke="black" d="M173.14,-371.8C182.83,-357.47 196.67,-340.42 213.08,-329.91 244.56,-309.75 285.38,-299.37 318.05,-294.03"/>
<polygon fill="black" stroke="black" points="318.98,-297.43 328.34,-292.46 317.93,-290.5 318.98,-297.43"/>
</g>
<!-- delta_m -->
<g id="node9" class="node">
<title>delta_m</title>
<ellipse fill="none" stroke="black" cx="158.08" cy="-509.34" rx="43.27" ry="37.45"/>
<text text-anchor="middle" x="158.08" y="-520.64" font-family="Times,serif" font-size="14.00">delta_m</text>
<text text-anchor="middle" x="158.08" y="-505.64" font-family="Times,serif" font-size="14.00">~</text>
<text text-anchor="middle" x="158.08" y="-490.64" font-family="Times,serif" font-size="14.00">Normal</text>
</g>
<!-- delta_m&#45;&gt;m -->
<g id="edge5" class="edge">
<title>delta_m&#45;&gt;m</title>
<path fill="none" stroke="black" d="M158.08,-471.75C158.08,-460.02 158.08,-447.03 158.08,-435.34"/>
<polygon fill="black" stroke="black" points="161.58,-435.04 158.08,-425.04 154.58,-435.04 161.58,-435.04"/>
</g>
<!-- d&#45;&gt;eta -->
<g id="edge10" class="edge">
<title>d&#45;&gt;eta</title>
<path fill="none" stroke="black" d="M286.46,-371.69C296.77,-358.65 310,-342.87 323.08,-329.91 326.22,-326.8 329.58,-323.68 333.02,-320.62"/>
<polygon fill="black" stroke="black" points="335.33,-323.25 340.62,-314.07 330.76,-317.95 335.33,-323.25"/>
</g>
<!-- delta_d -->
<g id="node11" class="node">
<title>delta_d</title>
<ellipse fill="none" stroke="black" cx="267.08" cy="-509.34" rx="41.94" ry="37.45"/>
<text text-anchor="middle" x="267.08" y="-520.64" font-family="Times,serif" font-size="14.00">delta_d</text>
<text text-anchor="middle" x="267.08" y="-505.64" font-family="Times,serif" font-size="14.00">~</text>
<text text-anchor="middle" x="267.08" y="-490.64" font-family="Times,serif" font-size="14.00">Normal</text>
</g>
<!-- delta_d&#45;&gt;d -->
<g id="edge4" class="edge">
<title>delta_d&#45;&gt;d</title>
<path fill="none" stroke="black" d="M267.08,-471.75C267.08,-460.02 267.08,-447.03 267.08,-435.34"/>
<polygon fill="black" stroke="black" points="270.58,-435.04 267.08,-425.04 263.58,-435.04 270.58,-435.04"/>
</g>
<!-- w -->
<g id="node12" class="node">
<title>w</title>
<ellipse fill="none" stroke="black" cx="593.08" cy="-398.38" rx="41.94" ry="37.45"/>
<text text-anchor="middle" x="593.08" y="-409.68" font-family="Times,serif" font-size="14.00">w</text>
<text text-anchor="middle" x="593.08" y="-394.68" font-family="Times,serif" font-size="14.00">~</text>
<text text-anchor="middle" x="593.08" y="-379.68" font-family="Times,serif" font-size="14.00">Normal</text>
</g>
<!-- w&#45;&gt;eta -->
<g id="edge8" class="edge">
<title>w&#45;&gt;eta</title>
<path fill="none" stroke="black" d="M573.73,-364.93C564.67,-352.29 552.84,-338.75 539.08,-329.91 506.43,-308.92 463.82,-298.55 430.09,-293.42"/>
<polygon fill="black" stroke="black" points="430.31,-289.91 419.92,-291.99 429.34,-296.85 430.31,-289.91"/>
</g>
<!-- ct_final&#45;&gt;ct_final -->
<g id="edge14" class="edge">
<title>ct_final&#45;&gt;ct_final</title>
<path fill="none" stroke="black" d="M427.48,-97.06C443.36,-96.44 455.72,-89.58 455.72,-76.48 455.72,-66.34 448.33,-59.94 437.63,-57.28"/>
<polygon fill="black" stroke="black" points="437.86,-53.78 427.48,-55.9 436.91,-60.71 437.86,-53.78"/>
</g>
<!-- mu -->
<g id="node14" class="node">
<title>mu</title>
<polygon fill="none" stroke="black" points="419.58,-213.93 328.58,-213.93 328.58,-160.93 419.58,-160.93 419.58,-213.93"/>
<text text-anchor="middle" x="374.08" y="-198.73" font-family="Times,serif" font-size="14.00">mu</text>
<text text-anchor="middle" x="374.08" y="-183.73" font-family="Times,serif" font-size="14.00">~</text>
<text text-anchor="middle" x="374.08" y="-168.73" font-family="Times,serif" font-size="14.00">Deterministic</text>
</g>
<!-- mu&#45;&gt;ct_final -->
<g id="edge15" class="edge">
<title>mu&#45;&gt;ct_final</title>
<path fill="none" stroke="black" d="M374.08,-160.89C374.08,-149.98 374.08,-136.89 374.08,-124.35"/>
<polygon fill="black" stroke="black" points="377.58,-124 374.08,-114 370.58,-124 377.58,-124"/>
</g>
<!-- eta&#45;&gt;mu -->
<g id="edge12" class="edge">
<title>eta&#45;&gt;mu</title>
<path fill="none" stroke="black" d="M374.08,-260.66C374.08,-249.53 374.08,-236.3 374.08,-224.23"/>
<polygon fill="black" stroke="black" points="377.58,-224 374.08,-214 370.58,-224 377.58,-224"/>
</g>
</g>
</svg>
