<?xml version="1.0" encoding="UTF-8" standalone="no"?>
<!DOCTYPE svg PUBLIC "-//W3C//DTD SVG 1.1//EN"
 "http://www.w3.org/Graphics/SVG/1.1/DTD/svg11.dtd">
<!-- Generated by graphviz version 2.47.0 (20210316.1410)
 -->
<!-- Pages: 1 -->
<svg width="887pt" height="702pt"
 viewBox="0.00 0.00 887.09 701.72" xmlns="http://www.w3.org/2000/svg" xmlns:xlink="http://www.w3.org/1999/xlink">
<g id="graph0" class="graph" transform="scale(1 1) rotate(0) translate(4 697.72)">
<polygon fill="white" stroke="transparent" points="-4,4 -4,-697.72 883.09,-697.72 883.09,4 -4,4"/>
<g id="clust1" class="cluster">
<title>cluster2</title>
<path fill="none" stroke="black" d="M540.79,-476.81C540.79,-476.81 786.79,-476.81 786.79,-476.81 792.79,-476.81 798.79,-482.81 798.79,-488.81 798.79,-488.81 798.79,-578.77 798.79,-578.77 798.79,-584.77 792.79,-590.77 786.79,-590.77 786.79,-590.77 540.79,-590.77 540.79,-590.77 534.79,-590.77 528.79,-584.77 528.79,-578.77 528.79,-578.77 528.79,-488.81 528.79,-488.81 528.79,-482.81 534.79,-476.81 540.79,-476.81"/>
<text text-anchor="middle" x="785.79" y="-484.61" font-family="Times-Roman" font-size="14.00">2</text>
</g>
<g id="clust2" class="cluster">
<title>cluster100 x 2</title>
<path fill="none" stroke="black" d="M548.79,-354.86C548.79,-354.86 682.79,-354.86 682.79,-354.86 688.79,-354.86 694.79,-360.86 694.79,-366.86 694.79,-366.86 694.79,-456.81 694.79,-456.81 694.79,-462.81 688.79,-468.81 682.79,-468.81 682.79,-468.81 548.79,-468.81 548.79,-468.81 542.79,-468.81 536.79,-462.81 536.79,-456.81 536.79,-456.81 536.79,-366.86 536.79,-366.86 536.79,-360.86 542.79,-354.86 548.79,-354.86"/>
<text text-anchor="middle" x="659.79" y="-362.66" font-family="Times-Roman" font-size="14.00">100 x 2</text>
</g>
<g id="clust3" class="cluster">
<title>cluster395</title>
<path fill="none" stroke="black" d="M559.79,-232.91C559.79,-232.91 621.79,-232.91 621.79,-232.91 627.79,-232.91 633.79,-238.91 633.79,-244.91 633.79,-244.91 633.79,-334.86 633.79,-334.86 633.79,-340.86 627.79,-346.86 621.79,-346.86 621.79,-346.86 559.79,-346.86 559.79,-346.86 553.79,-346.86 547.79,-340.86 547.79,-334.86 547.79,-334.86 547.79,-244.91 547.79,-244.91 547.79,-238.91 553.79,-232.91 559.79,-232.91"/>
<text text-anchor="middle" x="611.79" y="-240.71" font-family="Times-Roman" font-size="14.00">395</text>
</g>
<g id="clust4" class="cluster">
<title>cluster100</title>
<path fill="none" stroke="black" d="M139.79,-232.91C139.79,-232.91 229.79,-232.91 229.79,-232.91 235.79,-232.91 241.79,-238.91 241.79,-244.91 241.79,-244.91 241.79,-334.86 241.79,-334.86 241.79,-340.86 235.79,-346.86 229.79,-346.86 229.79,-346.86 139.79,-346.86 139.79,-346.86 133.79,-346.86 127.79,-340.86 127.79,-334.86 127.79,-334.86 127.79,-244.91 127.79,-244.91 127.79,-238.91 133.79,-232.91 139.79,-232.91"/>
<text text-anchor="middle" x="219.79" y="-240.71" font-family="Times-Roman" font-size="14.00">100</text>
</g>
<g id="clust5" class="cluster">
<title>cluster100 x 36</title>
<path fill="none" stroke="black" d="M411.79,-232.91C411.79,-232.91 501.79,-232.91 501.79,-232.91 507.79,-232.91 513.79,-238.91 513.79,-244.91 513.79,-244.91 513.79,-334.86 513.79,-334.86 513.79,-340.86 507.79,-346.86 501.79,-346.86 501.79,-346.86 411.79,-346.86 411.79,-346.86 405.79,-346.86 399.79,-340.86 399.79,-334.86 399.79,-334.86 399.79,-244.91 399.79,-244.91 399.79,-238.91 405.79,-232.91 411.79,-232.91"/>
<text text-anchor="middle" x="474.29" y="-240.71" font-family="Times-Roman" font-size="14.00">100 x 36</text>
</g>
<g id="clust6" class="cluster">
<title>cluster34,760</title>
<path fill="none" stroke="black" d="M471.79,-8C471.79,-8 575.79,-8 575.79,-8 581.79,-8 587.79,-14 587.79,-20 587.79,-20 587.79,-209.93 587.79,-209.93 587.79,-215.93 581.79,-221.93 575.79,-221.93 575.79,-221.93 471.79,-221.93 471.79,-221.93 465.79,-221.93 459.79,-215.93 459.79,-209.93 459.79,-209.93 459.79,-20 459.79,-20 459.79,-14 465.79,-8 471.79,-8"/>
<text text-anchor="middle" x="554.79" y="-15.8" font-family="Times-Roman" font-size="14.00">34,760</text>
</g>
<!-- σ_a -->
<g id="node1" class="node">
<title>σ_a</title>
<ellipse fill="none" stroke="black" cx="605.79" cy="-545.29" rx="69.09" ry="37.45"/>
<text text-anchor="middle" x="605.79" y="-556.59" font-family="Times-Roman" font-size="14.00">σ_a</text>
<text text-anchor="middle" x="605.79" y="-541.59" font-family="Times-Roman" font-size="14.00">~</text>
<text text-anchor="middle" x="605.79" y="-526.59" font-family="Times-Roman" font-size="14.00">HalfNormal</text>
</g>
<!-- a -->
<g id="node3" class="node">
<title>a</title>
<ellipse fill="none" stroke="black" cx="615.79" cy="-423.34" rx="71.34" ry="37.45"/>
<text text-anchor="middle" x="615.79" y="-434.64" font-family="Times-Roman" font-size="14.00">a</text>
<text text-anchor="middle" x="615.79" y="-419.64" font-family="Times-Roman" font-size="14.00">~</text>
<text text-anchor="middle" x="615.79" y="-404.64" font-family="Times-Roman" font-size="14.00">Exponential</text>
</g>
<!-- σ_a&#45;&gt;a -->
<g id="edge1" class="edge">
<title>σ_a&#45;&gt;a</title>
<path fill="none" stroke="black" d="M608.85,-507.65C609.8,-496.24 610.86,-483.51 611.86,-471.49"/>
<polygon fill="black" stroke="black" points="615.38,-471.42 612.72,-461.17 608.4,-470.84 615.38,-471.42"/>
</g>
<!-- η -->
<g id="node2" class="node">
<title>η</title>
<ellipse fill="none" stroke="black" cx="741.79" cy="-545.29" rx="48.58" ry="37.45"/>
<text text-anchor="middle" x="741.79" y="-556.59" font-family="Times-Roman" font-size="14.00">η</text>
<text text-anchor="middle" x="741.79" y="-541.59" font-family="Times-Roman" font-size="14.00">~</text>
<text text-anchor="middle" x="741.79" y="-526.59" font-family="Times-Roman" font-size="14.00">Normal</text>
</g>
<!-- μ -->
<g id="node15" class="node">
<title>μ</title>
<polygon fill="none" stroke="black" points="579.79,-213.93 467.79,-213.93 467.79,-160.93 579.79,-160.93 579.79,-213.93"/>
<text text-anchor="middle" x="523.79" y="-198.73" font-family="Times-Roman" font-size="14.00">μ</text>
<text text-anchor="middle" x="523.79" y="-183.73" font-family="Times-Roman" font-size="14.00">~</text>
<text text-anchor="middle" x="523.79" y="-168.73" font-family="Times-Roman" font-size="14.00">Deterministic</text>
</g>
<!-- η&#45;&gt;μ -->
<g id="edge10" class="edge">
<title>η&#45;&gt;μ</title>
<path fill="none" stroke="black" d="M740.59,-507.68C736.38,-442.42 717.9,-305.98 637.79,-232.91 624.15,-220.46 606.63,-211.34 589.44,-204.72"/>
<polygon fill="black" stroke="black" points="590.55,-201.4 579.95,-201.3 588.17,-207.99 590.55,-201.4"/>
</g>
<!-- q -->
<g id="node11" class="node">
<title>q</title>
<ellipse fill="none" stroke="black" cx="590.79" cy="-301.38" rx="35.21" ry="37.45"/>
<text text-anchor="middle" x="590.79" y="-312.68" font-family="Times-Roman" font-size="14.00">q</text>
<text text-anchor="middle" x="590.79" y="-297.68" font-family="Times-Roman" font-size="14.00">~</text>
<text text-anchor="middle" x="590.79" y="-282.68" font-family="Times-Roman" font-size="14.00">Beta</text>
</g>
<!-- a&#45;&gt;q -->
<g id="edge2" class="edge">
<title>a&#45;&gt;q</title>
<path fill="none" stroke="black" d="M608.22,-386.02C605.73,-374.05 602.92,-360.58 600.3,-348.01"/>
<polygon fill="black" stroke="black" points="603.71,-347.24 598.25,-338.16 596.86,-348.67 603.71,-347.24"/>
</g>
<!-- μ_h -->
<g id="node4" class="node">
<title>μ_h</title>
<ellipse fill="none" stroke="black" cx="48.79" cy="-423.34" rx="48.58" ry="37.45"/>
<text text-anchor="middle" x="48.79" y="-434.64" font-family="Times-Roman" font-size="14.00">μ_h</text>
<text text-anchor="middle" x="48.79" y="-419.64" font-family="Times-Roman" font-size="14.00">~</text>
<text text-anchor="middle" x="48.79" y="-404.64" font-family="Times-Roman" font-size="14.00">Normal</text>
</g>
<!-- h -->
<g id="node12" class="node">
<title>h</title>
<ellipse fill="none" stroke="black" cx="184.79" cy="-301.38" rx="48.58" ry="37.45"/>
<text text-anchor="middle" x="184.79" y="-312.68" font-family="Times-Roman" font-size="14.00">h</text>
<text text-anchor="middle" x="184.79" y="-297.68" font-family="Times-Roman" font-size="14.00">~</text>
<text text-anchor="middle" x="184.79" y="-282.68" font-family="Times-Roman" font-size="14.00">Normal</text>
</g>
<!-- μ_h&#45;&gt;h -->
<g id="edge3" class="edge">
<title>μ_h&#45;&gt;h</title>
<path fill="none" stroke="black" d="M73.15,-390.51C82.96,-378.67 94.78,-365.53 106.79,-354.86 116.42,-346.31 127.52,-338.04 138.27,-330.7"/>
<polygon fill="black" stroke="black" points="140.41,-333.48 146.79,-325.02 136.53,-327.65 140.41,-333.48"/>
</g>
<!-- σ -->
<g id="node5" class="node">
<title>σ</title>
<ellipse fill="none" stroke="black" cx="380.79" cy="-187.43" rx="69.09" ry="37.45"/>
<text text-anchor="middle" x="380.79" y="-198.73" font-family="Times-Roman" font-size="14.00">σ</text>
<text text-anchor="middle" x="380.79" y="-183.73" font-family="Times-Roman" font-size="14.00">~</text>
<text text-anchor="middle" x="380.79" y="-168.73" font-family="Times-Roman" font-size="14.00">HalfNormal</text>
</g>
<!-- lfc -->
<g id="node14" class="node">
<title>lfc</title>
<ellipse fill="lightgrey" stroke="black" cx="519.79" cy="-76.48" rx="48.58" ry="37.45"/>
<text text-anchor="middle" x="519.79" y="-87.78" font-family="Times-Roman" font-size="14.00">lfc</text>
<text text-anchor="middle" x="519.79" y="-72.78" font-family="Times-Roman" font-size="14.00">~</text>
<text text-anchor="middle" x="519.79" y="-57.78" font-family="Times-Roman" font-size="14.00">Normal</text>
</g>
<!-- σ&#45;&gt;lfc -->
<g id="edge14" class="edge">
<title>σ&#45;&gt;lfc</title>
<path fill="none" stroke="black" d="M419.51,-156.08C437.7,-141.82 459.42,-124.79 477.99,-110.24"/>
<polygon fill="black" stroke="black" points="480.29,-112.88 486,-103.96 475.97,-107.37 480.29,-112.88"/>
</g>
<!-- μ_η -->
<g id="node6" class="node">
<title>μ_η</title>
<ellipse fill="none" stroke="black" cx="673.79" cy="-656.24" rx="48.58" ry="37.45"/>
<text text-anchor="middle" x="673.79" y="-667.54" font-family="Times-Roman" font-size="14.00">μ_η</text>
<text text-anchor="middle" x="673.79" y="-652.54" font-family="Times-Roman" font-size="14.00">~</text>
<text text-anchor="middle" x="673.79" y="-637.54" font-family="Times-Roman" font-size="14.00">Normal</text>
</g>
<!-- μ_η&#45;&gt;η -->
<g id="edge7" class="edge">
<title>μ_η&#45;&gt;η</title>
<path fill="none" stroke="black" d="M694.38,-622.26C701.04,-611.58 708.52,-599.6 715.54,-588.36"/>
<polygon fill="black" stroke="black" points="718.71,-589.88 721.04,-579.54 712.78,-586.17 718.71,-589.88"/>
</g>
<!-- σ_h -->
<g id="node7" class="node">
<title>σ_h</title>
<ellipse fill="none" stroke="black" cx="184.79" cy="-423.34" rx="69.09" ry="37.45"/>
<text text-anchor="middle" x="184.79" y="-434.64" font-family="Times-Roman" font-size="14.00">σ_h</text>
<text text-anchor="middle" x="184.79" y="-419.64" font-family="Times-Roman" font-size="14.00">~</text>
<text text-anchor="middle" x="184.79" y="-404.64" font-family="Times-Roman" font-size="14.00">HalfNormal</text>
</g>
<!-- σ_h&#45;&gt;h -->
<g id="edge4" class="edge">
<title>σ_h&#45;&gt;h</title>
<path fill="none" stroke="black" d="M184.79,-385.69C184.79,-374.29 184.79,-361.55 184.79,-349.54"/>
<polygon fill="black" stroke="black" points="188.29,-349.21 184.79,-339.21 181.29,-349.21 188.29,-349.21"/>
</g>
<!-- μ_d -->
<g id="node8" class="node">
<title>μ_d</title>
<ellipse fill="none" stroke="black" cx="320.79" cy="-423.34" rx="48.58" ry="37.45"/>
<text text-anchor="middle" x="320.79" y="-434.64" font-family="Times-Roman" font-size="14.00">μ_d</text>
<text text-anchor="middle" x="320.79" y="-419.64" font-family="Times-Roman" font-size="14.00">~</text>
<text text-anchor="middle" x="320.79" y="-404.64" font-family="Times-Roman" font-size="14.00">Normal</text>
</g>
<!-- d -->
<g id="node13" class="node">
<title>d</title>
<ellipse fill="none" stroke="black" cx="456.79" cy="-301.38" rx="48.58" ry="37.45"/>
<text text-anchor="middle" x="456.79" y="-312.68" font-family="Times-Roman" font-size="14.00">d</text>
<text text-anchor="middle" x="456.79" y="-297.68" font-family="Times-Roman" font-size="14.00">~</text>
<text text-anchor="middle" x="456.79" y="-282.68" font-family="Times-Roman" font-size="14.00">Normal</text>
</g>
<!-- μ_d&#45;&gt;d -->
<g id="edge5" class="edge">
<title>μ_d&#45;&gt;d</title>
<path fill="none" stroke="black" d="M345.15,-390.51C354.96,-378.67 366.78,-365.53 378.79,-354.86 388.42,-346.31 399.52,-338.04 410.27,-330.7"/>
<polygon fill="black" stroke="black" points="412.41,-333.48 418.79,-325.02 408.53,-327.65 412.41,-333.48"/>
</g>
<!-- σ_η -->
<g id="node9" class="node">
<title>σ_η</title>
<ellipse fill="none" stroke="black" cx="809.79" cy="-656.24" rx="69.09" ry="37.45"/>
<text text-anchor="middle" x="809.79" y="-667.54" font-family="Times-Roman" font-size="14.00">σ_η</text>
<text text-anchor="middle" x="809.79" y="-652.54" font-family="Times-Roman" font-size="14.00">~</text>
<text text-anchor="middle" x="809.79" y="-637.54" font-family="Times-Roman" font-size="14.00">HalfNormal</text>
</g>
<!-- σ_η&#45;&gt;η -->
<g id="edge8" class="edge">
<title>σ_η&#45;&gt;η</title>
<path fill="none" stroke="black" d="M788.09,-620.47C781.71,-610.25 774.67,-598.97 768.04,-588.35"/>
<polygon fill="black" stroke="black" points="770.86,-586.25 762.59,-579.62 764.92,-589.96 770.86,-586.25"/>
</g>
<!-- σ_d -->
<g id="node10" class="node">
<title>σ_d</title>
<ellipse fill="none" stroke="black" cx="456.79" cy="-423.34" rx="69.09" ry="37.45"/>
<text text-anchor="middle" x="456.79" y="-434.64" font-family="Times-Roman" font-size="14.00">σ_d</text>
<text text-anchor="middle" x="456.79" y="-419.64" font-family="Times-Roman" font-size="14.00">~</text>
<text text-anchor="middle" x="456.79" y="-404.64" font-family="Times-Roman" font-size="14.00">HalfNormal</text>
</g>
<!-- σ_d&#45;&gt;d -->
<g id="edge6" class="edge">
<title>σ_d&#45;&gt;d</title>
<path fill="none" stroke="black" d="M456.79,-385.69C456.79,-374.29 456.79,-361.55 456.79,-349.54"/>
<polygon fill="black" stroke="black" points="460.29,-349.21 456.79,-339.21 453.29,-349.21 460.29,-349.21"/>
</g>
<!-- q&#45;&gt;μ -->
<g id="edge12" class="edge">
<title>q&#45;&gt;μ</title>
<path fill="none" stroke="black" d="M572.13,-269.2C563.53,-254.84 553.31,-237.75 544.48,-223"/>
<polygon fill="black" stroke="black" points="547.33,-220.95 539.19,-214.16 541.32,-224.54 547.33,-220.95"/>
</g>
<!-- h&#45;&gt;μ -->
<g id="edge11" class="edge">
<title>h&#45;&gt;μ</title>
<path fill="none" stroke="black" d="M228.2,-283.92C270.41,-268.52 336.65,-246 395.79,-232.91 423.35,-226.8 431.99,-233.75 458.79,-224.91 464.01,-223.18 469.29,-221.03 474.47,-218.63"/>
<polygon fill="black" stroke="black" points="476.22,-221.66 483.63,-214.09 473.12,-215.39 476.22,-221.66"/>
</g>
<!-- d&#45;&gt;μ -->
<g id="edge9" class="edge">
<title>d&#45;&gt;μ</title>
<path fill="none" stroke="black" d="M476.71,-267.1C485.06,-253.14 494.77,-236.91 503.2,-222.84"/>
<polygon fill="black" stroke="black" points="506.39,-224.32 508.52,-213.94 500.38,-220.73 506.39,-224.32"/>
</g>
<!-- μ&#45;&gt;lfc -->
<g id="edge13" class="edge">
<title>μ&#45;&gt;lfc</title>
<path fill="none" stroke="black" d="M522.85,-160.89C522.45,-149.98 521.97,-136.89 521.51,-124.35"/>
<polygon fill="black" stroke="black" points="525,-123.87 521.13,-114 518,-124.12 525,-123.87"/>
</g>
</g>
</svg>
