<?xml version="1.0" encoding="UTF-8" standalone="no"?>
<!DOCTYPE svg PUBLIC "-//W3C//DTD SVG 1.1//EN"
 "http://www.w3.org/Graphics/SVG/1.1/DTD/svg11.dtd">
<!-- Generated by graphviz version 2.42.3 (20191010.1750)
 -->
<!-- Title: %3 Pages: 1 -->
<svg width="249pt" height="363pt"
 viewBox="0.00 0.00 248.98 362.86" xmlns="http://www.w3.org/2000/svg" xmlns:xlink="http://www.w3.org/1999/xlink">
<g id="graph0" class="graph" transform="scale(1 1) rotate(0) translate(4 358.86)">
<title>%3</title>
<polygon fill="white" stroke="transparent" points="-4,4 -4,-358.86 244.98,-358.86 244.98,4 -4,4"/>
<g id="clust1" class="cluster">
<title>cluster55 x 20</title>
<path fill="none" stroke="black" d="M21,-232.91C21,-232.91 103,-232.91 103,-232.91 109,-232.91 115,-238.91 115,-244.91 115,-244.91 115,-334.86 115,-334.86 115,-340.86 109,-346.86 103,-346.86 103,-346.86 21,-346.86 21,-346.86 15,-346.86 9,-340.86 9,-334.86 9,-334.86 9,-244.91 9,-244.91 9,-238.91 15,-232.91 21,-232.91"/>
<text text-anchor="middle" x="86" y="-240.71" font-family="Times,serif" font-size="14.00">55 x 20</text>
</g>
<g id="clust2" class="cluster">
<title>cluster1,100</title>
<path fill="none" stroke="black" d="M20,-8C20,-8 104,-8 104,-8 110,-8 116,-14 116,-20 116,-20 116,-209.93 116,-209.93 116,-215.93 110,-221.93 104,-221.93 104,-221.93 20,-221.93 20,-221.93 14,-221.93 8,-215.93 8,-209.93 8,-209.93 8,-20 8,-20 8,-14 14,-8 20,-8"/>
<text text-anchor="middle" x="92.5" y="-15.8" font-family="Times,serif" font-size="14.00">1,100</text>
</g>
<!-- alpha_sc -->
<g id="node1" class="node">
<title>alpha_sc</title>
<ellipse fill="none" stroke="black" cx="62" cy="-301.38" rx="45.01" ry="37.45"/>
<text text-anchor="middle" x="62" y="-312.68" font-family="Times,serif" font-size="14.00">alpha_sc</text>
<text text-anchor="middle" x="62" y="-297.68" font-family="Times,serif" font-size="14.00">~</text>
<text text-anchor="middle" x="62" y="-282.68" font-family="Times,serif" font-size="14.00">Normal</text>
</g>
<!-- mu_sc -->
<g id="node2" class="node">
<title>mu_sc</title>
<polygon fill="none" stroke="black" points="107.5,-213.93 16.5,-213.93 16.5,-160.93 107.5,-160.93 107.5,-213.93"/>
<text text-anchor="middle" x="62" y="-198.73" font-family="Times,serif" font-size="14.00">mu_sc</text>
<text text-anchor="middle" x="62" y="-183.73" font-family="Times,serif" font-size="14.00">~</text>
<text text-anchor="middle" x="62" y="-168.73" font-family="Times,serif" font-size="14.00">Deterministic</text>
</g>
<!-- alpha_sc&#45;&gt;mu_sc -->
<g id="edge1" class="edge">
<title>alpha_sc&#45;&gt;mu_sc</title>
<path fill="none" stroke="black" d="M62,-263.73C62,-251.07 62,-236.92 62,-224.32"/>
<polygon fill="black" stroke="black" points="65.5,-224.18 62,-214.18 58.5,-224.18 65.5,-224.18"/>
</g>
<!-- log_fc -->
<g id="node3" class="node">
<title>log_fc</title>
<ellipse fill="lightgrey" stroke="black" cx="64" cy="-76.48" rx="41.94" ry="37.45"/>
<text text-anchor="middle" x="64" y="-87.78" font-family="Times,serif" font-size="14.00">log_fc</text>
<text text-anchor="middle" x="64" y="-72.78" font-family="Times,serif" font-size="14.00">~</text>
<text text-anchor="middle" x="64" y="-57.78" font-family="Times,serif" font-size="14.00">Normal</text>
</g>
<!-- mu_sc&#45;&gt;log_fc -->
<g id="edge2" class="edge">
<title>mu_sc&#45;&gt;log_fc</title>
<path fill="none" stroke="black" d="M62.47,-160.89C62.67,-149.98 62.91,-136.89 63.14,-124.35"/>
<polygon fill="black" stroke="black" points="66.65,-124.06 63.33,-114 59.65,-123.94 66.65,-124.06"/>
</g>
<!-- sigma -->
<g id="node4" class="node">
<title>sigma</title>
<ellipse fill="none" stroke="black" cx="183" cy="-187.43" rx="57.97" ry="37.45"/>
<text text-anchor="middle" x="183" y="-198.73" font-family="Times,serif" font-size="14.00">sigma</text>
<text text-anchor="middle" x="183" y="-183.73" font-family="Times,serif" font-size="14.00">~</text>
<text text-anchor="middle" x="183" y="-168.73" font-family="Times,serif" font-size="14.00">Exponential</text>
</g>
<!-- sigma&#45;&gt;log_fc -->
<g id="edge3" class="edge">
<title>sigma&#45;&gt;log_fc</title>
<path fill="none" stroke="black" d="M150.17,-156.37C134.68,-142.19 116.15,-125.22 100.25,-110.66"/>
<polygon fill="black" stroke="black" points="102.42,-107.9 92.68,-103.73 97.69,-113.07 102.42,-107.9"/>
</g>
</g>
</svg>
