<?xml version="1.0" encoding="UTF-8" standalone="no"?>
<!DOCTYPE svg PUBLIC "-//W3C//DTD SVG 1.1//EN"
 "http://www.w3.org/Graphics/SVG/1.1/DTD/svg11.dtd">
<!-- Generated by graphviz version 2.42.3 (20191010.1750)
 -->
<!-- Title: %3 Pages: 1 -->
<svg width="488pt" height="458pt"
 viewBox="0.00 0.00 488.36 457.81" xmlns="http://www.w3.org/2000/svg" xmlns:xlink="http://www.w3.org/1999/xlink">
<g id="graph0" class="graph" transform="scale(1 1) rotate(0) translate(4 453.81)">
<title>%3</title>
<polygon fill="white" stroke="transparent" points="-4,4 -4,-453.81 484.36,-453.81 484.36,4 -4,4"/>
<g id="clust1" class="cluster">
<title>cluster10</title>
<path fill="none" stroke="black" d="M150.1,-232.91C150.1,-232.91 226.1,-232.91 226.1,-232.91 232.1,-232.91 238.1,-238.91 238.1,-244.91 238.1,-244.91 238.1,-334.86 238.1,-334.86 238.1,-340.86 232.1,-346.86 226.1,-346.86 226.1,-346.86 150.1,-346.86 150.1,-346.86 144.1,-346.86 138.1,-340.86 138.1,-334.86 138.1,-334.86 138.1,-244.91 138.1,-244.91 138.1,-238.91 144.1,-232.91 150.1,-232.91"/>
<text text-anchor="middle" x="223.1" y="-240.71" font-family="Times,serif" font-size="14.00">10</text>
</g>
<g id="clust2" class="cluster">
<title>cluster20</title>
<path fill="none" stroke="black" d="M276.1,-232.91C276.1,-232.91 352.1,-232.91 352.1,-232.91 358.1,-232.91 364.1,-238.91 364.1,-244.91 364.1,-244.91 364.1,-334.86 364.1,-334.86 364.1,-340.86 358.1,-346.86 352.1,-346.86 352.1,-346.86 276.1,-346.86 276.1,-346.86 270.1,-346.86 264.1,-340.86 264.1,-334.86 264.1,-334.86 264.1,-244.91 264.1,-244.91 264.1,-238.91 270.1,-232.91 276.1,-232.91"/>
<text text-anchor="middle" x="349.1" y="-240.71" font-family="Times,serif" font-size="14.00">20</text>
</g>
<g id="clust3" class="cluster">
<title>cluster1,100</title>
<path fill="none" stroke="black" d="M208.1,-8C208.1,-8 292.1,-8 292.1,-8 298.1,-8 304.1,-14 304.1,-20 304.1,-20 304.1,-209.93 304.1,-209.93 304.1,-215.93 298.1,-221.93 292.1,-221.93 292.1,-221.93 208.1,-221.93 208.1,-221.93 202.1,-221.93 196.1,-215.93 196.1,-209.93 196.1,-209.93 196.1,-20 196.1,-20 196.1,-14 202.1,-8 208.1,-8"/>
<text text-anchor="middle" x="280.6" y="-15.8" font-family="Times,serif" font-size="14.00">1,100</text>
</g>
<!-- sigma_alpha -->
<g id="node1" class="node">
<title>sigma_alpha</title>
<ellipse fill="none" stroke="black" cx="60.1" cy="-412.34" rx="60.21" ry="37.45"/>
<text text-anchor="middle" x="60.1" y="-423.64" font-family="Times,serif" font-size="14.00">sigma_alpha</text>
<text text-anchor="middle" x="60.1" y="-408.64" font-family="Times,serif" font-size="14.00">~</text>
<text text-anchor="middle" x="60.1" y="-393.64" font-family="Times,serif" font-size="14.00">Exponential</text>
</g>
<!-- alpha_g -->
<g id="node6" class="node">
<title>alpha_g</title>
<ellipse fill="none" stroke="black" cx="188.1" cy="-301.38" rx="41.94" ry="37.45"/>
<text text-anchor="middle" x="188.1" y="-312.68" font-family="Times,serif" font-size="14.00">alpha_g</text>
<text text-anchor="middle" x="188.1" y="-297.68" font-family="Times,serif" font-size="14.00">~</text>
<text text-anchor="middle" x="188.1" y="-282.68" font-family="Times,serif" font-size="14.00">Normal</text>
</g>
<!-- sigma_alpha&#45;&gt;alpha_g -->
<g id="edge1" class="edge">
<title>sigma_alpha&#45;&gt;alpha_g</title>
<path fill="none" stroke="black" d="M95.08,-381.56C112.28,-366.92 133.04,-349.26 150.57,-334.33"/>
<polygon fill="black" stroke="black" points="153.03,-336.83 158.38,-327.69 148.49,-331.5 153.03,-336.83"/>
</g>
<!-- sigma_beta -->
<g id="node2" class="node">
<title>sigma_beta</title>
<ellipse fill="none" stroke="black" cx="314.1" cy="-412.34" rx="57.97" ry="37.45"/>
<text text-anchor="middle" x="314.1" y="-423.64" font-family="Times,serif" font-size="14.00">sigma_beta</text>
<text text-anchor="middle" x="314.1" y="-408.64" font-family="Times,serif" font-size="14.00">~</text>
<text text-anchor="middle" x="314.1" y="-393.64" font-family="Times,serif" font-size="14.00">Exponential</text>
</g>
<!-- beta_c -->
<g id="node7" class="node">
<title>beta_c</title>
<ellipse fill="none" stroke="black" cx="314.1" cy="-301.38" rx="41.94" ry="37.45"/>
<text text-anchor="middle" x="314.1" y="-312.68" font-family="Times,serif" font-size="14.00">beta_c</text>
<text text-anchor="middle" x="314.1" y="-297.68" font-family="Times,serif" font-size="14.00">~</text>
<text text-anchor="middle" x="314.1" y="-282.68" font-family="Times,serif" font-size="14.00">Normal</text>
</g>
<!-- sigma_beta&#45;&gt;beta_c -->
<g id="edge4" class="edge">
<title>sigma_beta&#45;&gt;beta_c</title>
<path fill="none" stroke="black" d="M314.1,-374.75C314.1,-366.58 314.1,-357.8 314.1,-349.27"/>
<polygon fill="black" stroke="black" points="317.6,-349.06 314.1,-339.06 310.6,-349.06 317.6,-349.06"/>
</g>
<!-- mu_beta -->
<g id="node3" class="node">
<title>mu_beta</title>
<ellipse fill="none" stroke="black" cx="435.1" cy="-412.34" rx="45.01" ry="37.45"/>
<text text-anchor="middle" x="435.1" y="-423.64" font-family="Times,serif" font-size="14.00">mu_beta</text>
<text text-anchor="middle" x="435.1" y="-408.64" font-family="Times,serif" font-size="14.00">~</text>
<text text-anchor="middle" x="435.1" y="-393.64" font-family="Times,serif" font-size="14.00">Normal</text>
</g>
<!-- mu_beta&#45;&gt;beta_c -->
<g id="edge3" class="edge">
<title>mu_beta&#45;&gt;beta_c</title>
<path fill="none" stroke="black" d="M404.88,-384.12C388.49,-369.37 368.11,-351.01 350.81,-335.44"/>
<polygon fill="black" stroke="black" points="352.88,-332.59 343.11,-328.5 348.2,-337.79 352.88,-332.59"/>
</g>
<!-- sigma -->
<g id="node4" class="node">
<title>sigma</title>
<ellipse fill="none" stroke="black" cx="371.1" cy="-187.43" rx="57.97" ry="37.45"/>
<text text-anchor="middle" x="371.1" y="-198.73" font-family="Times,serif" font-size="14.00">sigma</text>
<text text-anchor="middle" x="371.1" y="-183.73" font-family="Times,serif" font-size="14.00">~</text>
<text text-anchor="middle" x="371.1" y="-168.73" font-family="Times,serif" font-size="14.00">Exponential</text>
</g>
<!-- log_fc -->
<g id="node8" class="node">
<title>log_fc</title>
<ellipse fill="lightgrey" stroke="black" cx="252.1" cy="-76.48" rx="41.94" ry="37.45"/>
<text text-anchor="middle" x="252.1" y="-87.78" font-family="Times,serif" font-size="14.00">log_fc</text>
<text text-anchor="middle" x="252.1" y="-72.78" font-family="Times,serif" font-size="14.00">~</text>
<text text-anchor="middle" x="252.1" y="-57.78" font-family="Times,serif" font-size="14.00">Normal</text>
</g>
<!-- sigma&#45;&gt;log_fc -->
<g id="edge7" class="edge">
<title>sigma&#45;&gt;log_fc</title>
<path fill="none" stroke="black" d="M338.27,-156.37C322.78,-142.19 304.25,-125.22 288.35,-110.66"/>
<polygon fill="black" stroke="black" points="290.52,-107.9 280.78,-103.73 285.79,-113.07 290.52,-107.9"/>
</g>
<!-- mu_alpha -->
<g id="node5" class="node">
<title>mu_alpha</title>
<ellipse fill="none" stroke="black" cx="188.1" cy="-412.34" rx="50.41" ry="37.45"/>
<text text-anchor="middle" x="188.1" y="-423.64" font-family="Times,serif" font-size="14.00">mu_alpha</text>
<text text-anchor="middle" x="188.1" y="-408.64" font-family="Times,serif" font-size="14.00">~</text>
<text text-anchor="middle" x="188.1" y="-393.64" font-family="Times,serif" font-size="14.00">Normal</text>
</g>
<!-- mu_alpha&#45;&gt;alpha_g -->
<g id="edge2" class="edge">
<title>mu_alpha&#45;&gt;alpha_g</title>
<path fill="none" stroke="black" d="M188.1,-374.75C188.1,-366.58 188.1,-357.8 188.1,-349.27"/>
<polygon fill="black" stroke="black" points="191.6,-349.06 188.1,-339.06 184.6,-349.06 191.6,-349.06"/>
</g>
<!-- mu_gc -->
<g id="node9" class="node">
<title>mu_gc</title>
<polygon fill="none" stroke="black" points="295.6,-213.93 204.6,-213.93 204.6,-160.93 295.6,-160.93 295.6,-213.93"/>
<text text-anchor="middle" x="250.1" y="-198.73" font-family="Times,serif" font-size="14.00">mu_gc</text>
<text text-anchor="middle" x="250.1" y="-183.73" font-family="Times,serif" font-size="14.00">~</text>
<text text-anchor="middle" x="250.1" y="-168.73" font-family="Times,serif" font-size="14.00">Deterministic</text>
</g>
<!-- alpha_g&#45;&gt;mu_gc -->
<g id="edge5" class="edge">
<title>alpha_g&#45;&gt;mu_gc</title>
<path fill="none" stroke="black" d="M206.37,-267.4C214.11,-253.43 223.12,-237.15 230.95,-223.01"/>
<polygon fill="black" stroke="black" points="234.12,-224.52 235.9,-214.08 227.99,-221.13 234.12,-224.52"/>
</g>
<!-- beta_c&#45;&gt;mu_gc -->
<g id="edge6" class="edge">
<title>beta_c&#45;&gt;mu_gc</title>
<path fill="none" stroke="black" d="M295.42,-267.7C287.43,-253.72 278.09,-237.39 269.98,-223.19"/>
<polygon fill="black" stroke="black" points="272.85,-221.16 264.84,-214.22 266.77,-224.63 272.85,-221.16"/>
</g>
<!-- mu_gc&#45;&gt;log_fc -->
<g id="edge8" class="edge">
<title>mu_gc&#45;&gt;log_fc</title>
<path fill="none" stroke="black" d="M250.57,-160.89C250.77,-149.98 251.01,-136.89 251.24,-124.35"/>
<polygon fill="black" stroke="black" points="254.75,-124.06 251.43,-114 247.75,-123.94 254.75,-124.06"/>
</g>
</g>
</svg>
