<?xml version="1.0" encoding="UTF-8" standalone="no"?>
<!DOCTYPE svg PUBLIC "-//W3C//DTD SVG 1.1//EN"
 "http://www.w3.org/Graphics/SVG/1.1/DTD/svg11.dtd">
<!-- Generated by graphviz version 2.47.0 (20210316.1410)
 -->
<!-- Pages: 1 -->
<svg width="1038pt" height="702pt"
 viewBox="0.00 0.00 1038.30 701.72" xmlns="http://www.w3.org/2000/svg" xmlns:xlink="http://www.w3.org/1999/xlink">
<g id="graph0" class="graph" transform="scale(1 1) rotate(0) translate(4 697.72)">
<polygon fill="white" stroke="transparent" points="-4,4 -4,-697.72 1034.3,-697.72 1034.3,4 -4,4"/>
<g id="clust1" class="cluster">
<title>cluster2</title>
<path fill="none" stroke="black" d="M763.3,-476.81C763.3,-476.81 1009.3,-476.81 1009.3,-476.81 1015.3,-476.81 1021.3,-482.81 1021.3,-488.81 1021.3,-488.81 1021.3,-578.77 1021.3,-578.77 1021.3,-584.77 1015.3,-590.77 1009.3,-590.77 1009.3,-590.77 763.3,-590.77 763.3,-590.77 757.3,-590.77 751.3,-584.77 751.3,-578.77 751.3,-578.77 751.3,-488.81 751.3,-488.81 751.3,-482.81 757.3,-476.81 763.3,-476.81"/>
<text text-anchor="middle" x="1008.3" y="-484.61" font-family="Times-Roman" font-size="14.00">2</text>
</g>
<g id="clust2" class="cluster">
<title>cluster997 x 2</title>
<path fill="none" stroke="black" d="M876.3,-354.86C876.3,-354.86 1010.3,-354.86 1010.3,-354.86 1016.3,-354.86 1022.3,-360.86 1022.3,-366.86 1022.3,-366.86 1022.3,-456.81 1022.3,-456.81 1022.3,-462.81 1016.3,-468.81 1010.3,-468.81 1010.3,-468.81 876.3,-468.81 876.3,-468.81 870.3,-468.81 864.3,-462.81 864.3,-456.81 864.3,-456.81 864.3,-366.86 864.3,-366.86 864.3,-360.86 870.3,-354.86 876.3,-354.86"/>
<text text-anchor="middle" x="987.3" y="-362.66" font-family="Times-Roman" font-size="14.00">997 x 2</text>
</g>
<g id="clust3" class="cluster">
<title>cluster3,957</title>
<path fill="none" stroke="black" d="M885.3,-232.91C885.3,-232.91 947.3,-232.91 947.3,-232.91 953.3,-232.91 959.3,-238.91 959.3,-244.91 959.3,-244.91 959.3,-334.86 959.3,-334.86 959.3,-340.86 953.3,-346.86 947.3,-346.86 947.3,-346.86 885.3,-346.86 885.3,-346.86 879.3,-346.86 873.3,-340.86 873.3,-334.86 873.3,-334.86 873.3,-244.91 873.3,-244.91 873.3,-238.91 879.3,-232.91 885.3,-232.91"/>
<text text-anchor="middle" x="930.8" y="-240.71" font-family="Times-Roman" font-size="14.00">3,957</text>
</g>
<g id="clust4" class="cluster">
<title>cluster997</title>
<path fill="none" stroke="black" d="M160.3,-232.91C160.3,-232.91 250.3,-232.91 250.3,-232.91 256.3,-232.91 262.3,-238.91 262.3,-244.91 262.3,-244.91 262.3,-334.86 262.3,-334.86 262.3,-340.86 256.3,-346.86 250.3,-346.86 250.3,-346.86 160.3,-346.86 160.3,-346.86 154.3,-346.86 148.3,-340.86 148.3,-334.86 148.3,-334.86 148.3,-244.91 148.3,-244.91 148.3,-238.91 154.3,-232.91 160.3,-232.91"/>
<text text-anchor="middle" x="240.3" y="-240.71" font-family="Times-Roman" font-size="14.00">997</text>
</g>
<g id="clust5" class="cluster">
<title>cluster997 x 36</title>
<path fill="none" stroke="black" d="M432.3,-232.91C432.3,-232.91 522.3,-232.91 522.3,-232.91 528.3,-232.91 534.3,-238.91 534.3,-244.91 534.3,-244.91 534.3,-334.86 534.3,-334.86 534.3,-340.86 528.3,-346.86 522.3,-346.86 522.3,-346.86 432.3,-346.86 432.3,-346.86 426.3,-346.86 420.3,-340.86 420.3,-334.86 420.3,-334.86 420.3,-244.91 420.3,-244.91 420.3,-238.91 426.3,-232.91 432.3,-232.91"/>
<text text-anchor="middle" x="494.8" y="-240.71" font-family="Times-Roman" font-size="14.00">997 x 36</text>
</g>
<g id="clust6" class="cluster">
<title>cluster36</title>
<path fill="none" stroke="black" d="M636.3,-232.91C636.3,-232.91 726.3,-232.91 726.3,-232.91 732.3,-232.91 738.3,-238.91 738.3,-244.91 738.3,-244.91 738.3,-334.86 738.3,-334.86 738.3,-340.86 732.3,-346.86 726.3,-346.86 726.3,-346.86 636.3,-346.86 636.3,-346.86 630.3,-346.86 624.3,-340.86 624.3,-334.86 624.3,-334.86 624.3,-244.91 624.3,-244.91 624.3,-238.91 630.3,-232.91 636.3,-232.91"/>
<text text-anchor="middle" x="720.8" y="-240.71" font-family="Times-Roman" font-size="14.00">36</text>
</g>
<g id="clust7" class="cluster">
<title>cluster349,184</title>
<path fill="none" stroke="black" d="M629.3,-8C629.3,-8 733.3,-8 733.3,-8 739.3,-8 745.3,-14 745.3,-20 745.3,-20 745.3,-209.93 745.3,-209.93 745.3,-215.93 739.3,-221.93 733.3,-221.93 733.3,-221.93 629.3,-221.93 629.3,-221.93 623.3,-221.93 617.3,-215.93 617.3,-209.93 617.3,-209.93 617.3,-20 617.3,-20 617.3,-14 623.3,-8 629.3,-8"/>
<text text-anchor="middle" x="707.8" y="-15.8" font-family="Times-Roman" font-size="14.00">349,184</text>
</g>
<!-- η -->
<g id="node1" class="node">
<title>η</title>
<ellipse fill="none" stroke="black" cx="808.3" cy="-545.29" rx="48.58" ry="37.45"/>
<text text-anchor="middle" x="808.3" y="-556.59" font-family="Times-Roman" font-size="14.00">η</text>
<text text-anchor="middle" x="808.3" y="-541.59" font-family="Times-Roman" font-size="14.00">~</text>
<text text-anchor="middle" x="808.3" y="-526.59" font-family="Times-Roman" font-size="14.00">Normal</text>
</g>
<!-- μ -->
<g id="node18" class="node">
<title>μ</title>
<polygon fill="none" stroke="black" points="737.3,-213.93 625.3,-213.93 625.3,-160.93 737.3,-160.93 737.3,-213.93"/>
<text text-anchor="middle" x="681.3" y="-198.73" font-family="Times-Roman" font-size="14.00">μ</text>
<text text-anchor="middle" x="681.3" y="-183.73" font-family="Times-Roman" font-size="14.00">~</text>
<text text-anchor="middle" x="681.3" y="-168.73" font-family="Times-Roman" font-size="14.00">Deterministic</text>
</g>
<!-- η&#45;&gt;μ -->
<g id="edge11" class="edge">
<title>η&#45;&gt;μ</title>
<path fill="none" stroke="black" d="M813.23,-507.68C817.26,-469.04 820.39,-406.67 807.3,-354.86 792.25,-295.31 782.58,-279.27 742.3,-232.91 738.5,-228.53 734.19,-224.34 729.67,-220.41"/>
<polygon fill="black" stroke="black" points="731.85,-217.67 721.9,-214.03 727.41,-223.08 731.85,-217.67"/>
</g>
<!-- σ_a -->
<g id="node2" class="node">
<title>σ_a</title>
<ellipse fill="none" stroke="black" cx="944.3" cy="-545.29" rx="69.09" ry="37.45"/>
<text text-anchor="middle" x="944.3" y="-556.59" font-family="Times-Roman" font-size="14.00">σ_a</text>
<text text-anchor="middle" x="944.3" y="-541.59" font-family="Times-Roman" font-size="14.00">~</text>
<text text-anchor="middle" x="944.3" y="-526.59" font-family="Times-Roman" font-size="14.00">HalfNormal</text>
</g>
<!-- a -->
<g id="node3" class="node">
<title>a</title>
<ellipse fill="none" stroke="black" cx="943.3" cy="-423.34" rx="71.34" ry="37.45"/>
<text text-anchor="middle" x="943.3" y="-434.64" font-family="Times-Roman" font-size="14.00">a</text>
<text text-anchor="middle" x="943.3" y="-419.64" font-family="Times-Roman" font-size="14.00">~</text>
<text text-anchor="middle" x="943.3" y="-404.64" font-family="Times-Roman" font-size="14.00">Exponential</text>
</g>
<!-- σ_a&#45;&gt;a -->
<g id="edge1" class="edge">
<title>σ_a&#45;&gt;a</title>
<path fill="none" stroke="black" d="M943.99,-507.65C943.9,-496.24 943.79,-483.51 943.69,-471.49"/>
<polygon fill="black" stroke="black" points="947.19,-471.14 943.6,-461.17 940.19,-471.2 947.19,-471.14"/>
</g>
<!-- q -->
<g id="node13" class="node">
<title>q</title>
<ellipse fill="none" stroke="black" cx="916.3" cy="-301.38" rx="35.21" ry="37.45"/>
<text text-anchor="middle" x="916.3" y="-312.68" font-family="Times-Roman" font-size="14.00">q</text>
<text text-anchor="middle" x="916.3" y="-297.68" font-family="Times-Roman" font-size="14.00">~</text>
<text text-anchor="middle" x="916.3" y="-282.68" font-family="Times-Roman" font-size="14.00">Beta</text>
</g>
<!-- a&#45;&gt;q -->
<g id="edge2" class="edge">
<title>a&#45;&gt;q</title>
<path fill="none" stroke="black" d="M935.12,-386.02C932.43,-374.05 929.4,-360.58 926.57,-348.01"/>
<polygon fill="black" stroke="black" points="929.96,-347.15 924.35,-338.16 923.13,-348.69 929.96,-347.15"/>
</g>
<!-- σ_h -->
<g id="node4" class="node">
<title>σ_h</title>
<ellipse fill="none" stroke="black" cx="69.3" cy="-423.34" rx="69.09" ry="37.45"/>
<text text-anchor="middle" x="69.3" y="-434.64" font-family="Times-Roman" font-size="14.00">σ_h</text>
<text text-anchor="middle" x="69.3" y="-419.64" font-family="Times-Roman" font-size="14.00">~</text>
<text text-anchor="middle" x="69.3" y="-404.64" font-family="Times-Roman" font-size="14.00">HalfNormal</text>
</g>
<!-- h -->
<g id="node14" class="node">
<title>h</title>
<ellipse fill="none" stroke="black" cx="205.3" cy="-301.38" rx="48.58" ry="37.45"/>
<text text-anchor="middle" x="205.3" y="-312.68" font-family="Times-Roman" font-size="14.00">h</text>
<text text-anchor="middle" x="205.3" y="-297.68" font-family="Times-Roman" font-size="14.00">~</text>
<text text-anchor="middle" x="205.3" y="-282.68" font-family="Times-Roman" font-size="14.00">Normal</text>
</g>
<!-- σ_h&#45;&gt;h -->
<g id="edge4" class="edge">
<title>σ_h&#45;&gt;h</title>
<path fill="none" stroke="black" d="M105.03,-390.82C123.7,-374.35 146.61,-354.15 165.81,-337.21"/>
<polygon fill="black" stroke="black" points="168.33,-339.66 173.51,-330.42 163.7,-334.41 168.33,-339.66"/>
</g>
<!-- σ -->
<g id="node5" class="node">
<title>σ</title>
<ellipse fill="none" stroke="black" cx="538.3" cy="-187.43" rx="69.09" ry="37.45"/>
<text text-anchor="middle" x="538.3" y="-198.73" font-family="Times-Roman" font-size="14.00">σ</text>
<text text-anchor="middle" x="538.3" y="-183.73" font-family="Times-Roman" font-size="14.00">~</text>
<text text-anchor="middle" x="538.3" y="-168.73" font-family="Times-Roman" font-size="14.00">HalfNormal</text>
</g>
<!-- lfc -->
<g id="node17" class="node">
<title>lfc</title>
<ellipse fill="lightgrey" stroke="black" cx="677.3" cy="-76.48" rx="48.58" ry="37.45"/>
<text text-anchor="middle" x="677.3" y="-87.78" font-family="Times-Roman" font-size="14.00">lfc</text>
<text text-anchor="middle" x="677.3" y="-72.78" font-family="Times-Roman" font-size="14.00">~</text>
<text text-anchor="middle" x="677.3" y="-57.78" font-family="Times-Roman" font-size="14.00">Normal</text>
</g>
<!-- σ&#45;&gt;lfc -->
<g id="edge16" class="edge">
<title>σ&#45;&gt;lfc</title>
<path fill="none" stroke="black" d="M577.02,-156.08C595.21,-141.82 616.93,-124.79 635.5,-110.24"/>
<polygon fill="black" stroke="black" points="637.8,-112.88 643.51,-103.96 633.48,-107.37 637.8,-112.88"/>
</g>
<!-- σ_η -->
<g id="node6" class="node">
<title>σ_η</title>
<ellipse fill="none" stroke="black" cx="740.3" cy="-656.24" rx="69.09" ry="37.45"/>
<text text-anchor="middle" x="740.3" y="-667.54" font-family="Times-Roman" font-size="14.00">σ_η</text>
<text text-anchor="middle" x="740.3" y="-652.54" font-family="Times-Roman" font-size="14.00">~</text>
<text text-anchor="middle" x="740.3" y="-637.54" font-family="Times-Roman" font-size="14.00">HalfNormal</text>
</g>
<!-- σ_η&#45;&gt;η -->
<g id="edge8" class="edge">
<title>σ_η&#45;&gt;η</title>
<path fill="none" stroke="black" d="M762,-620.47C768.38,-610.25 775.42,-598.97 782.05,-588.35"/>
<polygon fill="black" stroke="black" points="785.17,-589.96 787.5,-579.62 779.23,-586.25 785.17,-589.96"/>
</g>
<!-- σ_d -->
<g id="node7" class="node">
<title>σ_d</title>
<ellipse fill="none" stroke="black" cx="341.3" cy="-423.34" rx="69.09" ry="37.45"/>
<text text-anchor="middle" x="341.3" y="-434.64" font-family="Times-Roman" font-size="14.00">σ_d</text>
<text text-anchor="middle" x="341.3" y="-419.64" font-family="Times-Roman" font-size="14.00">~</text>
<text text-anchor="middle" x="341.3" y="-404.64" font-family="Times-Roman" font-size="14.00">HalfNormal</text>
</g>
<!-- d -->
<g id="node15" class="node">
<title>d</title>
<ellipse fill="none" stroke="black" cx="477.3" cy="-301.38" rx="48.58" ry="37.45"/>
<text text-anchor="middle" x="477.3" y="-312.68" font-family="Times-Roman" font-size="14.00">d</text>
<text text-anchor="middle" x="477.3" y="-297.68" font-family="Times-Roman" font-size="14.00">~</text>
<text text-anchor="middle" x="477.3" y="-282.68" font-family="Times-Roman" font-size="14.00">Normal</text>
</g>
<!-- σ_d&#45;&gt;d -->
<g id="edge5" class="edge">
<title>σ_d&#45;&gt;d</title>
<path fill="none" stroke="black" d="M377.03,-390.82C395.7,-374.35 418.61,-354.15 437.81,-337.21"/>
<polygon fill="black" stroke="black" points="440.33,-339.66 445.51,-330.42 435.7,-334.41 440.33,-339.66"/>
</g>
<!-- μ_η -->
<g id="node8" class="node">
<title>μ_η</title>
<ellipse fill="none" stroke="black" cx="876.3" cy="-656.24" rx="48.58" ry="37.45"/>
<text text-anchor="middle" x="876.3" y="-667.54" font-family="Times-Roman" font-size="14.00">μ_η</text>
<text text-anchor="middle" x="876.3" y="-652.54" font-family="Times-Roman" font-size="14.00">~</text>
<text text-anchor="middle" x="876.3" y="-637.54" font-family="Times-Roman" font-size="14.00">Normal</text>
</g>
<!-- μ_η&#45;&gt;η -->
<g id="edge7" class="edge">
<title>μ_η&#45;&gt;η</title>
<path fill="none" stroke="black" d="M855.71,-622.26C849.05,-611.58 841.57,-599.6 834.55,-588.36"/>
<polygon fill="black" stroke="black" points="837.31,-586.17 829.05,-579.54 831.37,-589.88 837.31,-586.17"/>
</g>
<!-- μ_d -->
<g id="node9" class="node">
<title>μ_d</title>
<ellipse fill="none" stroke="black" cx="477.3" cy="-423.34" rx="48.58" ry="37.45"/>
<text text-anchor="middle" x="477.3" y="-434.64" font-family="Times-Roman" font-size="14.00">μ_d</text>
<text text-anchor="middle" x="477.3" y="-419.64" font-family="Times-Roman" font-size="14.00">~</text>
<text text-anchor="middle" x="477.3" y="-404.64" font-family="Times-Roman" font-size="14.00">Normal</text>
</g>
<!-- μ_d&#45;&gt;d -->
<g id="edge6" class="edge">
<title>μ_d&#45;&gt;d</title>
<path fill="none" stroke="black" d="M477.3,-385.69C477.3,-374.29 477.3,-361.55 477.3,-349.54"/>
<polygon fill="black" stroke="black" points="480.8,-349.21 477.3,-339.21 473.8,-349.21 480.8,-349.21"/>
</g>
<!-- σ_β -->
<g id="node10" class="node">
<title>σ_β</title>
<ellipse fill="none" stroke="black" cx="613.3" cy="-423.34" rx="69.09" ry="37.45"/>
<text text-anchor="middle" x="613.3" y="-434.64" font-family="Times-Roman" font-size="14.00">σ_β</text>
<text text-anchor="middle" x="613.3" y="-419.64" font-family="Times-Roman" font-size="14.00">~</text>
<text text-anchor="middle" x="613.3" y="-404.64" font-family="Times-Roman" font-size="14.00">HalfNormal</text>
</g>
<!-- β -->
<g id="node16" class="node">
<title>β</title>
<ellipse fill="none" stroke="black" cx="681.3" cy="-301.38" rx="48.58" ry="37.45"/>
<text text-anchor="middle" x="681.3" y="-312.68" font-family="Times-Roman" font-size="14.00">β</text>
<text text-anchor="middle" x="681.3" y="-297.68" font-family="Times-Roman" font-size="14.00">~</text>
<text text-anchor="middle" x="681.3" y="-282.68" font-family="Times-Roman" font-size="14.00">Normal</text>
</g>
<!-- σ_β&#45;&gt;β -->
<g id="edge10" class="edge">
<title>σ_β&#45;&gt;β</title>
<path fill="none" stroke="black" d="M633.15,-387.32C640.67,-374.04 649.32,-358.79 657.2,-344.9"/>
<polygon fill="black" stroke="black" points="660.35,-346.43 662.24,-336 654.26,-342.97 660.35,-346.43"/>
</g>
<!-- μ_β -->
<g id="node11" class="node">
<title>μ_β</title>
<ellipse fill="none" stroke="black" cx="749.3" cy="-423.34" rx="48.58" ry="37.45"/>
<text text-anchor="middle" x="749.3" y="-434.64" font-family="Times-Roman" font-size="14.00">μ_β</text>
<text text-anchor="middle" x="749.3" y="-419.64" font-family="Times-Roman" font-size="14.00">~</text>
<text text-anchor="middle" x="749.3" y="-404.64" font-family="Times-Roman" font-size="14.00">Normal</text>
</g>
<!-- μ_β&#45;&gt;β -->
<g id="edge9" class="edge">
<title>μ_β&#45;&gt;β</title>
<path fill="none" stroke="black" d="M730.17,-388.6C722.57,-375.19 713.73,-359.59 705.67,-345.38"/>
<polygon fill="black" stroke="black" points="708.49,-343.25 700.51,-336.28 702.4,-346.7 708.49,-343.25"/>
</g>
<!-- μ_h -->
<g id="node12" class="node">
<title>μ_h</title>
<ellipse fill="none" stroke="black" cx="205.3" cy="-423.34" rx="48.58" ry="37.45"/>
<text text-anchor="middle" x="205.3" y="-434.64" font-family="Times-Roman" font-size="14.00">μ_h</text>
<text text-anchor="middle" x="205.3" y="-419.64" font-family="Times-Roman" font-size="14.00">~</text>
<text text-anchor="middle" x="205.3" y="-404.64" font-family="Times-Roman" font-size="14.00">Normal</text>
</g>
<!-- μ_h&#45;&gt;h -->
<g id="edge3" class="edge">
<title>μ_h&#45;&gt;h</title>
<path fill="none" stroke="black" d="M205.3,-385.69C205.3,-374.29 205.3,-361.55 205.3,-349.54"/>
<polygon fill="black" stroke="black" points="208.8,-349.21 205.3,-339.21 201.8,-349.21 208.8,-349.21"/>
</g>
<!-- q&#45;&gt;μ -->
<g id="edge12" class="edge">
<title>q&#45;&gt;μ</title>
<path fill="none" stroke="black" d="M892.17,-273.76C878.23,-259.8 859.66,-243.47 840.3,-232.91 811.59,-217.24 776.88,-206.71 747.23,-199.84"/>
<polygon fill="black" stroke="black" points="747.91,-196.4 737.38,-197.65 746.39,-203.24 747.91,-196.4"/>
</g>
<!-- h&#45;&gt;μ -->
<g id="edge13" class="edge">
<title>h&#45;&gt;μ</title>
<path fill="none" stroke="black" d="M248.08,-282.93C290.11,-266.7 356.46,-243.47 416.3,-232.91 460.1,-225.17 573.5,-237.01 616.3,-224.91 622.04,-223.28 627.82,-221.06 633.45,-218.5"/>
<polygon fill="black" stroke="black" points="635.29,-221.5 642.72,-213.94 632.21,-215.22 635.29,-221.5"/>
</g>
<!-- d&#45;&gt;μ -->
<g id="edge15" class="edge">
<title>d&#45;&gt;μ</title>
<path fill="none" stroke="black" d="M516.92,-279.06C544.77,-264.02 582.88,-243.35 616.3,-224.91 619.77,-222.99 623.34,-221.01 626.93,-219.01"/>
<polygon fill="black" stroke="black" points="628.85,-221.95 635.88,-214.02 625.44,-215.83 628.85,-221.95"/>
</g>
<!-- β&#45;&gt;μ -->
<g id="edge14" class="edge">
<title>β&#45;&gt;μ</title>
<path fill="none" stroke="black" d="M681.3,-263.73C681.3,-251.07 681.3,-236.92 681.3,-224.32"/>
<polygon fill="black" stroke="black" points="684.8,-224.18 681.3,-214.18 677.8,-224.18 684.8,-224.18"/>
</g>
<!-- μ&#45;&gt;lfc -->
<g id="edge17" class="edge">
<title>μ&#45;&gt;lfc</title>
<path fill="none" stroke="black" d="M680.36,-160.89C679.96,-149.98 679.48,-136.89 679.02,-124.35"/>
<polygon fill="black" stroke="black" points="682.5,-123.87 678.64,-114 675.51,-124.12 682.5,-123.87"/>
</g>
</g>
</svg>
