<?xml version="1.0" encoding="UTF-8" standalone="no"?>
<!DOCTYPE svg PUBLIC "-//W3C//DTD SVG 1.1//EN"
 "http://www.w3.org/Graphics/SVG/1.1/DTD/svg11.dtd">
<!-- Generated by graphviz version 2.50.0 (0)
 -->
<!-- Pages: 1 -->
<svg width="1389pt" height="571pt"
 viewBox="0.00 0.00 1389.10 570.81" xmlns="http://www.w3.org/2000/svg" xmlns:xlink="http://www.w3.org/1999/xlink">
<g id="graph0" class="graph" transform="scale(1 1) rotate(0) translate(4 566.81)">
<polygon fill="white" stroke="transparent" points="-4,4 -4,-566.81 1385.1,-566.81 1385.1,4 -4,4"/>
<g id="clust3" class="cluster">
<title>clustergene (2000) x lineage (2)</title>
<path fill="none" stroke="black" d="M109.55,-340.88C109.55,-340.88 411.55,-340.88 411.55,-340.88 417.55,-340.88 423.55,-346.88 423.55,-352.88 423.55,-352.88 423.55,-542.81 423.55,-542.81 423.55,-548.81 417.55,-554.81 411.55,-554.81 411.55,-554.81 109.55,-554.81 109.55,-554.81 103.55,-554.81 97.55,-548.81 97.55,-542.81 97.55,-542.81 97.55,-352.88 97.55,-352.88 97.55,-346.88 103.55,-340.88 109.55,-340.88"/>
<text text-anchor="middle" x="346.05" y="-348.68" font-family="Times,serif" font-size="14.00">gene (2000) x lineage (2)</text>
</g>
<g id="clust1" class="cluster">
<title>clustersgrna (16954)</title>
<path fill="none" stroke="black" d="M652.55,-329.91C652.55,-329.91 728.55,-329.91 728.55,-329.91 734.55,-329.91 740.55,-335.91 740.55,-341.91 740.55,-341.91 740.55,-431.86 740.55,-431.86 740.55,-437.86 734.55,-443.86 728.55,-443.86 728.55,-443.86 652.55,-443.86 652.55,-443.86 646.55,-443.86 640.55,-437.86 640.55,-431.86 640.55,-431.86 640.55,-341.91 640.55,-341.91 640.55,-335.91 646.55,-329.91 652.55,-329.91"/>
<text text-anchor="middle" x="694.55" y="-337.71" font-family="Times,serif" font-size="14.00">sgrna (16954)</text>
</g>
<g id="clust2" class="cluster">
<title>clustercell_line (86)</title>
<path fill="none" stroke="black" d="M760.55,-340.88C760.55,-340.88 953.55,-340.88 953.55,-340.88 959.55,-340.88 965.55,-346.88 965.55,-352.88 965.55,-352.88 965.55,-542.81 965.55,-542.81 965.55,-548.81 959.55,-554.81 953.55,-554.81 953.55,-554.81 760.55,-554.81 760.55,-554.81 754.55,-554.81 748.55,-548.81 748.55,-542.81 748.55,-542.81 748.55,-352.88 748.55,-352.88 748.55,-346.88 754.55,-340.88 760.55,-340.88"/>
<text text-anchor="middle" x="921.05" y="-348.68" font-family="Times,serif" font-size="14.00">cell_line (86)</text>
</g>
<g id="clust4" class="cluster">
<title>clustergene (2000)</title>
<path fill="none" stroke="black" d="M1187.55,-340.88C1187.55,-340.88 1271.55,-340.88 1271.55,-340.88 1277.55,-340.88 1283.55,-346.88 1283.55,-352.88 1283.55,-352.88 1283.55,-542.81 1283.55,-542.81 1283.55,-548.81 1277.55,-554.81 1271.55,-554.81 1271.55,-554.81 1187.55,-554.81 1187.55,-554.81 1181.55,-554.81 1175.55,-548.81 1175.55,-542.81 1175.55,-542.81 1175.55,-352.88 1175.55,-352.88 1175.55,-346.88 1181.55,-340.88 1187.55,-340.88"/>
<text text-anchor="middle" x="1242.55" y="-348.68" font-family="Times,serif" font-size="14.00">gene (2000)</text>
</g>
<g id="clust5" class="cluster">
<title>cluster865044</title>
<path fill="none" stroke="black" d="M579.55,-8C579.55,-8 717.55,-8 717.55,-8 723.55,-8 729.55,-14 729.55,-20 729.55,-20 729.55,-309.91 729.55,-309.91 729.55,-315.91 723.55,-321.91 717.55,-321.91 717.55,-321.91 579.55,-321.91 579.55,-321.91 573.55,-321.91 567.55,-315.91 567.55,-309.91 567.55,-309.91 567.55,-20 567.55,-20 567.55,-14 573.55,-8 579.55,-8"/>
<text text-anchor="middle" x="701.05" y="-15.8" font-family="Times,serif" font-size="14.00">865044</text>
</g>
<!-- sigma_d -->
<g id="node1" class="node">
<title>sigma_d</title>
<ellipse fill="none" stroke="black" cx="44.55" cy="-509.34" rx="44.6" ry="37.45"/>
<text text-anchor="middle" x="44.55" y="-520.64" font-family="Times,serif" font-size="14.00">sigma_d</text>
<text text-anchor="middle" x="44.55" y="-505.64" font-family="Times,serif" font-size="14.00">~</text>
<text text-anchor="middle" x="44.55" y="-490.64" font-family="Times,serif" font-size="14.00">Gamma</text>
</g>
<!-- d -->
<g id="node16" class="node">
<title>d</title>
<polygon fill="none" stroke="black" points="197.05,-424.88 106.05,-424.88 106.05,-371.88 197.05,-371.88 197.05,-424.88"/>
<text text-anchor="middle" x="151.55" y="-409.68" font-family="Times,serif" font-size="14.00">d</text>
<text text-anchor="middle" x="151.55" y="-394.68" font-family="Times,serif" font-size="14.00">~</text>
<text text-anchor="middle" x="151.55" y="-379.68" font-family="Times,serif" font-size="14.00">Deterministic</text>
</g>
<!-- sigma_d&#45;&gt;d -->
<g id="edge4" class="edge">
<title>sigma_d&#45;&gt;d</title>
<path fill="none" stroke="black" d="M72.38,-479.99C86.75,-465.36 104.35,-447.44 119.31,-432.21"/>
<polygon fill="black" stroke="black" points="121.9,-434.56 126.41,-424.98 116.91,-429.66 121.9,-434.56"/>
</g>
<!-- sigma_b -->
<g id="node2" class="node">
<title>sigma_b</title>
<ellipse fill="none" stroke="black" cx="1018.55" cy="-509.34" rx="44.6" ry="37.45"/>
<text text-anchor="middle" x="1018.55" y="-520.64" font-family="Times,serif" font-size="14.00">sigma_b</text>
<text text-anchor="middle" x="1018.55" y="-505.64" font-family="Times,serif" font-size="14.00">~</text>
<text text-anchor="middle" x="1018.55" y="-490.64" font-family="Times,serif" font-size="14.00">Gamma</text>
</g>
<!-- b -->
<g id="node13" class="node">
<title>b</title>
<polygon fill="none" stroke="black" points="848.05,-424.88 757.05,-424.88 757.05,-371.88 848.05,-371.88 848.05,-424.88"/>
<text text-anchor="middle" x="802.55" y="-409.68" font-family="Times,serif" font-size="14.00">b</text>
<text text-anchor="middle" x="802.55" y="-394.68" font-family="Times,serif" font-size="14.00">~</text>
<text text-anchor="middle" x="802.55" y="-379.68" font-family="Times,serif" font-size="14.00">Deterministic</text>
</g>
<!-- sigma_b&#45;&gt;b -->
<g id="edge3" class="edge">
<title>sigma_b&#45;&gt;b</title>
<path fill="none" stroke="black" d="M987.29,-482.28C981.62,-478.38 975.59,-474.72 969.55,-471.86 923.18,-449.89 903.47,-466.75 857.55,-443.86 850.75,-440.47 844.02,-436.12 837.73,-431.47"/>
<polygon fill="black" stroke="black" points="839.49,-428.41 829.46,-425.01 835.19,-433.93 839.49,-428.41"/>
</g>
<!-- sigma_m -->
<g id="node3" class="node">
<title>sigma_m</title>
<ellipse fill="none" stroke="black" cx="479.55" cy="-509.34" rx="48.17" ry="37.45"/>
<text text-anchor="middle" x="479.55" y="-520.64" font-family="Times,serif" font-size="14.00">sigma_m</text>
<text text-anchor="middle" x="479.55" y="-505.64" font-family="Times,serif" font-size="14.00">~</text>
<text text-anchor="middle" x="479.55" y="-490.64" font-family="Times,serif" font-size="14.00">Gamma</text>
</g>
<!-- m -->
<g id="node18" class="node">
<title>m</title>
<polygon fill="none" stroke="black" points="306.05,-424.88 215.05,-424.88 215.05,-371.88 306.05,-371.88 306.05,-424.88"/>
<text text-anchor="middle" x="260.55" y="-409.68" font-family="Times,serif" font-size="14.00">m</text>
<text text-anchor="middle" x="260.55" y="-394.68" font-family="Times,serif" font-size="14.00">~</text>
<text text-anchor="middle" x="260.55" y="-379.68" font-family="Times,serif" font-size="14.00">Deterministic</text>
</g>
<!-- sigma_m&#45;&gt;m -->
<g id="edge12" class="edge">
<title>sigma_m&#45;&gt;m</title>
<path fill="none" stroke="black" d="M446.22,-482.32C440.23,-478.42 433.87,-474.75 427.55,-471.86 380.87,-450.55 361.47,-466.75 315.55,-443.86 308.75,-440.47 302.02,-436.12 295.73,-431.47"/>
<polygon fill="black" stroke="black" points="297.49,-428.41 287.46,-425.01 293.19,-433.93 297.49,-428.41"/>
</g>
<!-- z -->
<g id="node4" class="node">
<title>z</title>
<ellipse fill="none" stroke="black" cx="589.55" cy="-398.38" rx="41.94" ry="37.45"/>
<text text-anchor="middle" x="589.55" y="-409.68" font-family="Times,serif" font-size="14.00">z</text>
<text text-anchor="middle" x="589.55" y="-394.68" font-family="Times,serif" font-size="14.00">~</text>
<text text-anchor="middle" x="589.55" y="-379.68" font-family="Times,serif" font-size="14.00">Normal</text>
</g>
<!-- eta -->
<g id="node25" class="node">
<title>eta</title>
<polygon fill="none" stroke="black" points="685.05,-313.91 594.05,-313.91 594.05,-260.91 685.05,-260.91 685.05,-313.91"/>
<text text-anchor="middle" x="639.55" y="-298.71" font-family="Times,serif" font-size="14.00">eta</text>
<text text-anchor="middle" x="639.55" y="-283.71" font-family="Times,serif" font-size="14.00">~</text>
<text text-anchor="middle" x="639.55" y="-268.71" font-family="Times,serif" font-size="14.00">Deterministic</text>
</g>
<!-- z&#45;&gt;eta -->
<g id="edge20" class="edge">
<title>z&#45;&gt;eta</title>
<path fill="none" stroke="black" d="M605.09,-363.5C610.94,-350.75 617.6,-336.24 623.49,-323.4"/>
<polygon fill="black" stroke="black" points="626.84,-324.51 627.82,-313.96 620.47,-321.59 626.84,-324.51"/>
</g>
<!-- alpha -->
<g id="node5" class="node">
<title>alpha</title>
<ellipse fill="none" stroke="black" cx="780.55" cy="-187.43" rx="43.27" ry="37.45"/>
<text text-anchor="middle" x="780.55" y="-198.73" font-family="Times,serif" font-size="14.00">alpha</text>
<text text-anchor="middle" x="780.55" y="-183.73" font-family="Times,serif" font-size="14.00">~</text>
<text text-anchor="middle" x="780.55" y="-168.73" font-family="Times,serif" font-size="14.00">Gamma</text>
</g>
<!-- ct_final -->
<g id="node23" class="node">
<title>ct_final</title>
<ellipse fill="lightgrey" stroke="black" cx="639.55" cy="-76.48" rx="63.78" ry="37.45"/>
<text text-anchor="middle" x="639.55" y="-87.78" font-family="Times,serif" font-size="14.00">ct_final</text>
<text text-anchor="middle" x="639.55" y="-72.78" font-family="Times,serif" font-size="14.00">~</text>
<text text-anchor="middle" x="639.55" y="-57.78" font-family="Times,serif" font-size="14.00">NegBinomial</text>
</g>
<!-- alpha&#45;&gt;ct_final -->
<g id="edge23" class="edge">
<title>alpha&#45;&gt;ct_final</title>
<path fill="none" stroke="black" d="M748.96,-161.89C743.81,-157.9 738.53,-153.81 733.55,-149.95 718.01,-137.93 701,-124.81 685.78,-113.08"/>
<polygon fill="black" stroke="black" points="687.59,-110.05 677.53,-106.72 683.31,-115.6 687.59,-110.05"/>
</g>
<!-- sigma_k -->
<g id="node6" class="node">
<title>sigma_k</title>
<ellipse fill="none" stroke="black" cx="590.55" cy="-509.34" rx="44.6" ry="37.45"/>
<text text-anchor="middle" x="590.55" y="-520.64" font-family="Times,serif" font-size="14.00">sigma_k</text>
<text text-anchor="middle" x="590.55" y="-505.64" font-family="Times,serif" font-size="14.00">~</text>
<text text-anchor="middle" x="590.55" y="-490.64" font-family="Times,serif" font-size="14.00">Gamma</text>
</g>
<!-- k -->
<g id="node17" class="node">
<title>k</title>
<polygon fill="none" stroke="black" points="415.05,-424.88 324.05,-424.88 324.05,-371.88 415.05,-371.88 415.05,-424.88"/>
<text text-anchor="middle" x="369.55" y="-409.68" font-family="Times,serif" font-size="14.00">k</text>
<text text-anchor="middle" x="369.55" y="-394.68" font-family="Times,serif" font-size="14.00">~</text>
<text text-anchor="middle" x="369.55" y="-379.68" font-family="Times,serif" font-size="14.00">Deterministic</text>
</g>
<!-- sigma_k&#45;&gt;k -->
<g id="edge10" class="edge">
<title>sigma_k&#45;&gt;k</title>
<path fill="none" stroke="black" d="M557.16,-484.39C550.47,-480 543.39,-475.61 536.55,-471.86 500.48,-452.07 457.92,-433.67 424.8,-420.36"/>
<polygon fill="black" stroke="black" points="425.86,-417.02 415.28,-416.57 423.27,-423.52 425.86,-417.02"/>
</g>
<!-- sigma_h -->
<g id="node7" class="node">
<title>sigma_h</title>
<ellipse fill="none" stroke="black" cx="1336.55" cy="-509.34" rx="44.6" ry="37.45"/>
<text text-anchor="middle" x="1336.55" y="-520.64" font-family="Times,serif" font-size="14.00">sigma_h</text>
<text text-anchor="middle" x="1336.55" y="-505.64" font-family="Times,serif" font-size="14.00">~</text>
<text text-anchor="middle" x="1336.55" y="-490.64" font-family="Times,serif" font-size="14.00">Gamma</text>
</g>
<!-- h -->
<g id="node21" class="node">
<title>h</title>
<polygon fill="none" stroke="black" points="1275.05,-424.88 1184.05,-424.88 1184.05,-371.88 1275.05,-371.88 1275.05,-424.88"/>
<text text-anchor="middle" x="1229.55" y="-409.68" font-family="Times,serif" font-size="14.00">h</text>
<text text-anchor="middle" x="1229.55" y="-394.68" font-family="Times,serif" font-size="14.00">~</text>
<text text-anchor="middle" x="1229.55" y="-379.68" font-family="Times,serif" font-size="14.00">Deterministic</text>
</g>
<!-- sigma_h&#45;&gt;h -->
<g id="edge9" class="edge">
<title>sigma_h&#45;&gt;h</title>
<path fill="none" stroke="black" d="M1308.71,-479.99C1294.35,-465.36 1276.74,-447.44 1261.79,-432.21"/>
<polygon fill="black" stroke="black" points="1264.19,-429.66 1254.68,-424.98 1259.19,-434.56 1264.19,-429.66"/>
</g>
<!-- sigma_f -->
<g id="node8" class="node">
<title>sigma_f</title>
<ellipse fill="none" stroke="black" cx="1124.55" cy="-509.34" rx="43.27" ry="37.45"/>
<text text-anchor="middle" x="1124.55" y="-520.64" font-family="Times,serif" font-size="14.00">sigma_f</text>
<text text-anchor="middle" x="1124.55" y="-505.64" font-family="Times,serif" font-size="14.00">~</text>
<text text-anchor="middle" x="1124.55" y="-490.64" font-family="Times,serif" font-size="14.00">Gamma</text>
</g>
<!-- f -->
<g id="node14" class="node">
<title>f</title>
<polygon fill="none" stroke="black" points="957.05,-424.88 866.05,-424.88 866.05,-371.88 957.05,-371.88 957.05,-424.88"/>
<text text-anchor="middle" x="911.55" y="-409.68" font-family="Times,serif" font-size="14.00">f</text>
<text text-anchor="middle" x="911.55" y="-394.68" font-family="Times,serif" font-size="14.00">~</text>
<text text-anchor="middle" x="911.55" y="-379.68" font-family="Times,serif" font-size="14.00">Deterministic</text>
</g>
<!-- sigma_f&#45;&gt;f -->
<g id="edge6" class="edge">
<title>sigma_f&#45;&gt;f</title>
<path fill="none" stroke="black" d="M1092.15,-484.21C1085.79,-479.88 1079.07,-475.57 1072.55,-471.86 1038.5,-452.49 998.33,-434.4 966.63,-421.14"/>
<polygon fill="black" stroke="black" points="967.66,-417.77 957.08,-417.18 964.98,-424.24 967.66,-417.77"/>
</g>
<!-- sigma_a -->
<g id="node9" class="node">
<title>sigma_a</title>
<ellipse fill="none" stroke="black" cx="696.55" cy="-509.34" rx="43.68" ry="37.45"/>
<text text-anchor="middle" x="696.55" y="-520.64" font-family="Times,serif" font-size="14.00">sigma_a</text>
<text text-anchor="middle" x="696.55" y="-505.64" font-family="Times,serif" font-size="14.00">~</text>
<text text-anchor="middle" x="696.55" y="-490.64" font-family="Times,serif" font-size="14.00">Gamma</text>
</g>
<!-- a -->
<g id="node10" class="node">
<title>a</title>
<ellipse fill="none" stroke="black" cx="690.55" cy="-398.38" rx="41.94" ry="37.45"/>
<text text-anchor="middle" x="690.55" y="-409.68" font-family="Times,serif" font-size="14.00">a</text>
<text text-anchor="middle" x="690.55" y="-394.68" font-family="Times,serif" font-size="14.00">~</text>
<text text-anchor="middle" x="690.55" y="-379.68" font-family="Times,serif" font-size="14.00">Normal</text>
</g>
<!-- sigma_a&#45;&gt;a -->
<g id="edge1" class="edge">
<title>sigma_a&#45;&gt;a</title>
<path fill="none" stroke="black" d="M694.53,-471.75C694.08,-463.58 693.6,-454.8 693.13,-446.27"/>
<polygon fill="black" stroke="black" points="696.61,-445.85 692.57,-436.06 689.62,-446.23 696.61,-445.85"/>
</g>
<!-- a&#45;&gt;eta -->
<g id="edge14" class="edge">
<title>a&#45;&gt;eta</title>
<path fill="none" stroke="black" d="M674.69,-363.5C668.67,-350.63 661.8,-335.96 655.75,-323.02"/>
<polygon fill="black" stroke="black" points="658.91,-321.53 651.5,-313.96 652.57,-324.5 658.91,-321.53"/>
</g>
<!-- delta_b -->
<g id="node11" class="node">
<title>delta_b</title>
<ellipse fill="none" stroke="black" cx="802.55" cy="-509.34" rx="41.94" ry="37.45"/>
<text text-anchor="middle" x="802.55" y="-520.64" font-family="Times,serif" font-size="14.00">delta_b</text>
<text text-anchor="middle" x="802.55" y="-505.64" font-family="Times,serif" font-size="14.00">~</text>
<text text-anchor="middle" x="802.55" y="-490.64" font-family="Times,serif" font-size="14.00">Normal</text>
</g>
<!-- delta_b&#45;&gt;b -->
<g id="edge2" class="edge">
<title>delta_b&#45;&gt;b</title>
<path fill="none" stroke="black" d="M802.55,-471.75C802.55,-460.02 802.55,-447.03 802.55,-435.34"/>
<polygon fill="black" stroke="black" points="806.05,-435.04 802.55,-425.04 799.05,-435.04 806.05,-435.04"/>
</g>
<!-- delta_f -->
<g id="node12" class="node">
<title>delta_f</title>
<ellipse fill="none" stroke="black" cx="911.55" cy="-509.34" rx="41.94" ry="37.45"/>
<text text-anchor="middle" x="911.55" y="-520.64" font-family="Times,serif" font-size="14.00">delta_f</text>
<text text-anchor="middle" x="911.55" y="-505.64" font-family="Times,serif" font-size="14.00">~</text>
<text text-anchor="middle" x="911.55" y="-490.64" font-family="Times,serif" font-size="14.00">Normal</text>
</g>
<!-- delta_f&#45;&gt;f -->
<g id="edge7" class="edge">
<title>delta_f&#45;&gt;f</title>
<path fill="none" stroke="black" d="M911.55,-471.75C911.55,-460.02 911.55,-447.03 911.55,-435.34"/>
<polygon fill="black" stroke="black" points="915.05,-435.04 911.55,-425.04 908.05,-435.04 915.05,-435.04"/>
</g>
<!-- b&#45;&gt;eta -->
<g id="edge19" class="edge">
<title>b&#45;&gt;eta</title>
<path fill="none" stroke="black" d="M785.14,-371.59C774.7,-357.72 760.4,-341.19 744.55,-329.91 729.66,-319.31 711.7,-310.93 694.87,-304.56"/>
<polygon fill="black" stroke="black" points="695.72,-301.14 685.12,-301.03 693.34,-307.72 695.72,-301.14"/>
</g>
<!-- f&#45;&gt;eta -->
<g id="edge16" class="edge">
<title>f&#45;&gt;eta</title>
<path fill="none" stroke="black" d="M897.32,-371.75C887.92,-357.21 874.26,-339.97 857.55,-329.91 808.15,-300.16 741.99,-291.01 695.56,-288.54"/>
<polygon fill="black" stroke="black" points="695.52,-285.04 685.38,-288.09 695.21,-292.03 695.52,-285.04"/>
</g>
<!-- delta_d -->
<g id="node15" class="node">
<title>delta_d</title>
<ellipse fill="none" stroke="black" cx="151.55" cy="-509.34" rx="41.94" ry="37.45"/>
<text text-anchor="middle" x="151.55" y="-520.64" font-family="Times,serif" font-size="14.00">delta_d</text>
<text text-anchor="middle" x="151.55" y="-505.64" font-family="Times,serif" font-size="14.00">~</text>
<text text-anchor="middle" x="151.55" y="-490.64" font-family="Times,serif" font-size="14.00">Normal</text>
</g>
<!-- delta_d&#45;&gt;d -->
<g id="edge5" class="edge">
<title>delta_d&#45;&gt;d</title>
<path fill="none" stroke="black" d="M151.55,-471.75C151.55,-460.02 151.55,-447.03 151.55,-435.34"/>
<polygon fill="black" stroke="black" points="155.05,-435.04 151.55,-425.04 148.05,-435.04 155.05,-435.04"/>
</g>
<!-- d&#45;&gt;eta -->
<g id="edge15" class="edge">
<title>d&#45;&gt;eta</title>
<path fill="none" stroke="black" d="M165.38,-371.85C174.88,-356.96 188.96,-339.32 206.55,-329.91 270.44,-295.72 481.87,-289.47 583.73,-288.48"/>
<polygon fill="black" stroke="black" points="583.86,-291.98 593.83,-288.4 583.8,-284.98 583.86,-291.98"/>
</g>
<!-- k&#45;&gt;eta -->
<g id="edge18" class="edge">
<title>k&#45;&gt;eta</title>
<path fill="none" stroke="black" d="M415.35,-378.9C462.13,-360.01 534.79,-330.69 584.63,-310.57"/>
<polygon fill="black" stroke="black" points="586.01,-313.79 593.97,-306.8 583.39,-307.3 586.01,-313.79"/>
</g>
<!-- m&#45;&gt;eta -->
<g id="edge21" class="edge">
<title>m&#45;&gt;eta</title>
<path fill="none" stroke="black" d="M274.7,-371.71C284.24,-356.97 298.24,-339.52 315.55,-329.91 360.32,-305.03 503.23,-294.6 583.49,-290.61"/>
<polygon fill="black" stroke="black" points="584.08,-294.09 593.9,-290.11 583.75,-287.09 584.08,-294.09"/>
</g>
<!-- delta_m -->
<g id="node19" class="node">
<title>delta_m</title>
<ellipse fill="none" stroke="black" cx="260.55" cy="-509.34" rx="43.27" ry="37.45"/>
<text text-anchor="middle" x="260.55" y="-520.64" font-family="Times,serif" font-size="14.00">delta_m</text>
<text text-anchor="middle" x="260.55" y="-505.64" font-family="Times,serif" font-size="14.00">~</text>
<text text-anchor="middle" x="260.55" y="-490.64" font-family="Times,serif" font-size="14.00">Normal</text>
</g>
<!-- delta_m&#45;&gt;m -->
<g id="edge13" class="edge">
<title>delta_m&#45;&gt;m</title>
<path fill="none" stroke="black" d="M260.55,-471.75C260.55,-460.02 260.55,-447.03 260.55,-435.34"/>
<polygon fill="black" stroke="black" points="264.05,-435.04 260.55,-425.04 257.05,-435.04 264.05,-435.04"/>
</g>
<!-- delta_k -->
<g id="node20" class="node">
<title>delta_k</title>
<ellipse fill="none" stroke="black" cx="369.55" cy="-509.34" rx="41.94" ry="37.45"/>
<text text-anchor="middle" x="369.55" y="-520.64" font-family="Times,serif" font-size="14.00">delta_k</text>
<text text-anchor="middle" x="369.55" y="-505.64" font-family="Times,serif" font-size="14.00">~</text>
<text text-anchor="middle" x="369.55" y="-490.64" font-family="Times,serif" font-size="14.00">Normal</text>
</g>
<!-- delta_k&#45;&gt;k -->
<g id="edge11" class="edge">
<title>delta_k&#45;&gt;k</title>
<path fill="none" stroke="black" d="M369.55,-471.75C369.55,-460.02 369.55,-447.03 369.55,-435.34"/>
<polygon fill="black" stroke="black" points="373.05,-435.04 369.55,-425.04 366.05,-435.04 373.05,-435.04"/>
</g>
<!-- h&#45;&gt;eta -->
<g id="edge17" class="edge">
<title>h&#45;&gt;eta</title>
<path fill="none" stroke="black" d="M1183.93,-383.63C1132.33,-368.53 1045.57,-344.49 969.55,-329.91 874,-311.58 761.28,-299.4 695.38,-293.21"/>
<polygon fill="black" stroke="black" points="695.49,-289.71 685.21,-292.27 694.85,-296.68 695.49,-289.71"/>
</g>
<!-- delta_h -->
<g id="node22" class="node">
<title>delta_h</title>
<ellipse fill="none" stroke="black" cx="1229.55" cy="-509.34" rx="41.94" ry="37.45"/>
<text text-anchor="middle" x="1229.55" y="-520.64" font-family="Times,serif" font-size="14.00">delta_h</text>
<text text-anchor="middle" x="1229.55" y="-505.64" font-family="Times,serif" font-size="14.00">~</text>
<text text-anchor="middle" x="1229.55" y="-490.64" font-family="Times,serif" font-size="14.00">Normal</text>
</g>
<!-- delta_h&#45;&gt;h -->
<g id="edge8" class="edge">
<title>delta_h&#45;&gt;h</title>
<path fill="none" stroke="black" d="M1229.55,-471.75C1229.55,-460.02 1229.55,-447.03 1229.55,-435.34"/>
<polygon fill="black" stroke="black" points="1233.05,-435.04 1229.55,-425.04 1226.05,-435.04 1233.05,-435.04"/>
</g>
<!-- ct_final&#45;&gt;ct_final -->
<g id="edge25" class="edge">
<title>ct_final&#45;&gt;ct_final</title>
<path fill="none" stroke="black" d="M692.94,-97.06C708.83,-96.44 721.19,-89.58 721.19,-76.48 721.19,-66.34 713.79,-59.94 703.09,-57.28"/>
<polygon fill="black" stroke="black" points="703.32,-53.78 692.94,-55.9 702.38,-60.71 703.32,-53.78"/>
</g>
<!-- mu -->
<g id="node24" class="node">
<title>mu</title>
<polygon fill="none" stroke="black" points="685.05,-213.93 594.05,-213.93 594.05,-160.93 685.05,-160.93 685.05,-213.93"/>
<text text-anchor="middle" x="639.55" y="-198.73" font-family="Times,serif" font-size="14.00">mu</text>
<text text-anchor="middle" x="639.55" y="-183.73" font-family="Times,serif" font-size="14.00">~</text>
<text text-anchor="middle" x="639.55" y="-168.73" font-family="Times,serif" font-size="14.00">Deterministic</text>
</g>
<!-- mu&#45;&gt;ct_final -->
<g id="edge24" class="edge">
<title>mu&#45;&gt;ct_final</title>
<path fill="none" stroke="black" d="M639.55,-160.89C639.55,-149.98 639.55,-136.89 639.55,-124.35"/>
<polygon fill="black" stroke="black" points="643.05,-124 639.55,-114 636.05,-124 643.05,-124"/>
</g>
<!-- eta&#45;&gt;mu -->
<g id="edge22" class="edge">
<title>eta&#45;&gt;mu</title>
<path fill="none" stroke="black" d="M639.55,-260.66C639.55,-249.53 639.55,-236.3 639.55,-224.23"/>
<polygon fill="black" stroke="black" points="643.05,-224 639.55,-214 636.05,-224 643.05,-224"/>
</g>
</g>
</svg>
