<?xml version="1.0" encoding="UTF-8" standalone="no"?>
<!DOCTYPE svg PUBLIC "-//W3C//DTD SVG 1.1//EN"
 "http://www.w3.org/Graphics/SVG/1.1/DTD/svg11.dtd">
<!-- Generated by graphviz version 2.47.0 (20210327.0129)
 -->
<!-- Pages: 1 -->
<svg width="1079pt" height="469pt"
 viewBox="0.00 0.00 1078.58 468.81" xmlns="http://www.w3.org/2000/svg" xmlns:xlink="http://www.w3.org/1999/xlink">
<g id="graph0" class="graph" transform="scale(1 1) rotate(0) translate(4 464.81)">
<polygon fill="white" stroke="transparent" points="-4,4 -4,-464.81 1074.58,-464.81 1074.58,4 -4,4"/>
<g id="clust1" class="cluster">
<title>cluster99</title>
<path fill="none" stroke="black" d="M411.79,-243.91C411.79,-243.91 501.79,-243.91 501.79,-243.91 507.79,-243.91 513.79,-249.91 513.79,-255.91 513.79,-255.91 513.79,-345.86 513.79,-345.86 513.79,-351.86 507.79,-357.86 501.79,-357.86 501.79,-357.86 411.79,-357.86 411.79,-357.86 405.79,-357.86 399.79,-351.86 399.79,-345.86 399.79,-345.86 399.79,-255.91 399.79,-255.91 399.79,-249.91 405.79,-243.91 411.79,-243.91"/>
<text text-anchor="middle" x="496.29" y="-251.71" font-family="Times-Roman" font-size="14.00">99</text>
</g>
<g id="clust2" class="cluster">
<title>cluster99 x 36</title>
<path fill="none" stroke="black" d="M615.79,-243.91C615.79,-243.91 705.79,-243.91 705.79,-243.91 711.79,-243.91 717.79,-249.91 717.79,-255.91 717.79,-255.91 717.79,-345.86 717.79,-345.86 717.79,-351.86 711.79,-357.86 705.79,-357.86 705.79,-357.86 615.79,-357.86 615.79,-357.86 609.79,-357.86 603.79,-351.86 603.79,-345.86 603.79,-345.86 603.79,-255.91 603.79,-255.91 603.79,-249.91 609.79,-243.91 615.79,-243.91"/>
<text text-anchor="middle" x="682.79" y="-251.71" font-family="Times-Roman" font-size="14.00">99 x 36</text>
</g>
<g id="clust3" class="cluster">
<title>cluster2</title>
<path fill="none" stroke="black" d="M139.79,-243.91C139.79,-243.91 229.79,-243.91 229.79,-243.91 235.79,-243.91 241.79,-249.91 241.79,-255.91 241.79,-255.91 241.79,-345.86 241.79,-345.86 241.79,-351.86 235.79,-357.86 229.79,-357.86 229.79,-357.86 139.79,-357.86 139.79,-357.86 133.79,-357.86 127.79,-351.86 127.79,-345.86 127.79,-345.86 127.79,-255.91 127.79,-255.91 127.79,-249.91 133.79,-243.91 139.79,-243.91"/>
<text text-anchor="middle" x="228.79" y="-251.71" font-family="Times-Roman" font-size="14.00">2</text>
</g>
<g id="clust4" class="cluster">
<title>cluster99 x 5</title>
<path fill="none" stroke="black" d="M760.79,-243.91C760.79,-243.91 850.79,-243.91 850.79,-243.91 856.79,-243.91 862.79,-249.91 862.79,-255.91 862.79,-255.91 862.79,-345.86 862.79,-345.86 862.79,-351.86 856.79,-357.86 850.79,-357.86 850.79,-357.86 760.79,-357.86 760.79,-357.86 754.79,-357.86 748.79,-351.86 748.79,-345.86 748.79,-345.86 748.79,-255.91 748.79,-255.91 748.79,-249.91 754.79,-243.91 760.79,-243.91"/>
<text text-anchor="middle" x="832.29" y="-251.71" font-family="Times-Roman" font-size="14.00">99 x 5</text>
</g>
<g id="clust5" class="cluster">
<title>cluster34,408</title>
<path fill="none" stroke="black" d="M608.79,-8C608.79,-8 712.79,-8 712.79,-8 718.79,-8 724.79,-14 724.79,-20 724.79,-20 724.79,-212.93 724.79,-212.93 724.79,-218.93 718.79,-224.93 712.79,-224.93 712.79,-224.93 608.79,-224.93 608.79,-224.93 602.79,-224.93 596.79,-218.93 596.79,-212.93 596.79,-212.93 596.79,-20 596.79,-20 596.79,-14 602.79,-8 608.79,-8"/>
<text text-anchor="middle" x="691.79" y="-15.8" font-family="Times-Roman" font-size="14.00">34,408</text>
</g>
<g id="clust6" class="cluster">
<title>cluster391</title>
<path fill="none" stroke="black" d="M810.79,-121.95C810.79,-121.95 940.79,-121.95 940.79,-121.95 946.79,-121.95 952.79,-127.95 952.79,-133.95 952.79,-133.95 952.79,-223.91 952.79,-223.91 952.79,-229.91 946.79,-235.91 940.79,-235.91 940.79,-235.91 810.79,-235.91 810.79,-235.91 804.79,-235.91 798.79,-229.91 798.79,-223.91 798.79,-223.91 798.79,-133.95 798.79,-133.95 798.79,-127.95 804.79,-121.95 810.79,-121.95"/>
<text text-anchor="middle" x="930.79" y="-129.75" font-family="Times-Roman" font-size="14.00">391</text>
</g>
<!-- μ_b -->
<g id="node1" class="node">
<title>μ_b</title>
<ellipse fill="none" stroke="black" cx="48.79" cy="-423.34" rx="48.58" ry="37.45"/>
<text text-anchor="middle" x="48.79" y="-434.64" font-family="Times-Roman" font-size="14.00">μ_b</text>
<text text-anchor="middle" x="48.79" y="-419.64" font-family="Times-Roman" font-size="14.00">~</text>
<text text-anchor="middle" x="48.79" y="-404.64" font-family="Times-Roman" font-size="14.00">Normal</text>
</g>
<!-- b -->
<g id="node12" class="node">
<title>b</title>
<ellipse fill="none" stroke="black" cx="184.79" cy="-312.38" rx="48.58" ry="37.45"/>
<text text-anchor="middle" x="184.79" y="-323.68" font-family="Times-Roman" font-size="14.00">b</text>
<text text-anchor="middle" x="184.79" y="-308.68" font-family="Times-Roman" font-size="14.00">~</text>
<text text-anchor="middle" x="184.79" y="-293.68" font-family="Times-Roman" font-size="14.00">Normal</text>
</g>
<!-- μ_b&#45;&gt;b -->
<g id="edge5" class="edge">
<title>μ_b&#45;&gt;b</title>
<path fill="none" stroke="black" d="M82.06,-395.68C100.58,-380.84 123.81,-362.24 143.48,-346.48"/>
<polygon fill="black" stroke="black" points="145.78,-349.12 151.39,-340.14 141.4,-343.66 145.78,-349.12"/>
</g>
<!-- μ_g -->
<g id="node2" class="node">
<title>μ_g</title>
<ellipse fill="none" stroke="black" cx="592.79" cy="-423.34" rx="48.58" ry="37.45"/>
<text text-anchor="middle" x="592.79" y="-434.64" font-family="Times-Roman" font-size="14.00">μ_g</text>
<text text-anchor="middle" x="592.79" y="-419.64" font-family="Times-Roman" font-size="14.00">~</text>
<text text-anchor="middle" x="592.79" y="-404.64" font-family="Times-Roman" font-size="14.00">Normal</text>
</g>
<!-- g -->
<g id="node11" class="node">
<title>g</title>
<ellipse fill="none" stroke="black" cx="660.79" cy="-312.38" rx="48.58" ry="37.45"/>
<text text-anchor="middle" x="660.79" y="-323.68" font-family="Times-Roman" font-size="14.00">g</text>
<text text-anchor="middle" x="660.79" y="-308.68" font-family="Times-Roman" font-size="14.00">~</text>
<text text-anchor="middle" x="660.79" y="-293.68" font-family="Times-Roman" font-size="14.00">Normal</text>
</g>
<!-- μ_g&#45;&gt;g -->
<g id="edge4" class="edge">
<title>μ_g&#45;&gt;g</title>
<path fill="none" stroke="black" d="M613.38,-389.35C620.04,-378.68 627.52,-366.69 634.54,-355.45"/>
<polygon fill="black" stroke="black" points="637.71,-356.97 640.04,-346.63 631.78,-353.26 637.71,-356.97"/>
</g>
<!-- μ_h -->
<g id="node3" class="node">
<title>μ_h</title>
<ellipse fill="none" stroke="black" cx="320.79" cy="-423.34" rx="48.58" ry="37.45"/>
<text text-anchor="middle" x="320.79" y="-434.64" font-family="Times-Roman" font-size="14.00">μ_h</text>
<text text-anchor="middle" x="320.79" y="-419.64" font-family="Times-Roman" font-size="14.00">~</text>
<text text-anchor="middle" x="320.79" y="-404.64" font-family="Times-Roman" font-size="14.00">Normal</text>
</g>
<!-- h -->
<g id="node10" class="node">
<title>h</title>
<ellipse fill="none" stroke="black" cx="456.79" cy="-312.38" rx="48.58" ry="37.45"/>
<text text-anchor="middle" x="456.79" y="-323.68" font-family="Times-Roman" font-size="14.00">h</text>
<text text-anchor="middle" x="456.79" y="-308.68" font-family="Times-Roman" font-size="14.00">~</text>
<text text-anchor="middle" x="456.79" y="-293.68" font-family="Times-Roman" font-size="14.00">Normal</text>
</g>
<!-- μ_h&#45;&gt;h -->
<g id="edge1" class="edge">
<title>μ_h&#45;&gt;h</title>
<path fill="none" stroke="black" d="M354.06,-395.68C372.58,-380.84 395.81,-362.24 415.48,-346.48"/>
<polygon fill="black" stroke="black" points="417.78,-349.12 423.39,-340.14 413.4,-343.66 417.78,-349.12"/>
</g>
<!-- σ_h -->
<g id="node4" class="node">
<title>σ_h</title>
<ellipse fill="none" stroke="black" cx="456.79" cy="-423.34" rx="69.09" ry="37.45"/>
<text text-anchor="middle" x="456.79" y="-434.64" font-family="Times-Roman" font-size="14.00">σ_h</text>
<text text-anchor="middle" x="456.79" y="-419.64" font-family="Times-Roman" font-size="14.00">~</text>
<text text-anchor="middle" x="456.79" y="-404.64" font-family="Times-Roman" font-size="14.00">HalfNormal</text>
</g>
<!-- σ_h&#45;&gt;h -->
<g id="edge2" class="edge">
<title>σ_h&#45;&gt;h</title>
<path fill="none" stroke="black" d="M456.79,-385.75C456.79,-377.58 456.79,-368.8 456.79,-360.27"/>
<polygon fill="black" stroke="black" points="460.29,-360.06 456.79,-350.06 453.29,-360.06 460.29,-360.06"/>
</g>
<!-- σ_b -->
<g id="node5" class="node">
<title>σ_b</title>
<ellipse fill="none" stroke="black" cx="184.79" cy="-423.34" rx="69.09" ry="37.45"/>
<text text-anchor="middle" x="184.79" y="-434.64" font-family="Times-Roman" font-size="14.00">σ_b</text>
<text text-anchor="middle" x="184.79" y="-419.64" font-family="Times-Roman" font-size="14.00">~</text>
<text text-anchor="middle" x="184.79" y="-404.64" font-family="Times-Roman" font-size="14.00">HalfNormal</text>
</g>
<!-- σ_b&#45;&gt;b -->
<g id="edge6" class="edge">
<title>σ_b&#45;&gt;b</title>
<path fill="none" stroke="black" d="M184.79,-385.75C184.79,-377.58 184.79,-368.8 184.79,-360.27"/>
<polygon fill="black" stroke="black" points="188.29,-360.06 184.79,-350.06 181.29,-360.06 188.29,-360.06"/>
</g>
<!-- σ_a -->
<g id="node6" class="node">
<title>σ_a</title>
<ellipse fill="none" stroke="black" cx="885.79" cy="-423.34" rx="69.09" ry="37.45"/>
<text text-anchor="middle" x="885.79" y="-434.64" font-family="Times-Roman" font-size="14.00">σ_a</text>
<text text-anchor="middle" x="885.79" y="-419.64" font-family="Times-Roman" font-size="14.00">~</text>
<text text-anchor="middle" x="885.79" y="-404.64" font-family="Times-Roman" font-size="14.00">HalfNormal</text>
</g>
<!-- a -->
<g id="node13" class="node">
<title>a</title>
<ellipse fill="none" stroke="black" cx="805.79" cy="-312.38" rx="48.58" ry="37.45"/>
<text text-anchor="middle" x="805.79" y="-323.68" font-family="Times-Roman" font-size="14.00">a</text>
<text text-anchor="middle" x="805.79" y="-308.68" font-family="Times-Roman" font-size="14.00">~</text>
<text text-anchor="middle" x="805.79" y="-293.68" font-family="Times-Roman" font-size="14.00">Normal</text>
</g>
<!-- σ_a&#45;&gt;a -->
<g id="edge7" class="edge">
<title>σ_a&#45;&gt;a</title>
<path fill="none" stroke="black" d="M860.7,-388.16C852.66,-377.21 843.68,-364.99 835.36,-353.65"/>
<polygon fill="black" stroke="black" points="838.17,-351.57 829.43,-345.58 832.53,-355.71 838.17,-351.57"/>
</g>
<!-- σ_g -->
<g id="node7" class="node">
<title>σ_g</title>
<ellipse fill="none" stroke="black" cx="728.79" cy="-423.34" rx="69.09" ry="37.45"/>
<text text-anchor="middle" x="728.79" y="-434.64" font-family="Times-Roman" font-size="14.00">σ_g</text>
<text text-anchor="middle" x="728.79" y="-419.64" font-family="Times-Roman" font-size="14.00">~</text>
<text text-anchor="middle" x="728.79" y="-404.64" font-family="Times-Roman" font-size="14.00">HalfNormal</text>
</g>
<!-- σ_g&#45;&gt;g -->
<g id="edge3" class="edge">
<title>σ_g&#45;&gt;g</title>
<path fill="none" stroke="black" d="M707.09,-387.56C700.71,-377.35 693.67,-366.06 687.04,-355.44"/>
<polygon fill="black" stroke="black" points="689.86,-353.34 681.59,-346.71 683.92,-357.05 689.86,-353.34"/>
</g>
<!-- μ_a -->
<g id="node8" class="node">
<title>μ_a</title>
<ellipse fill="none" stroke="black" cx="1021.79" cy="-423.34" rx="48.58" ry="37.45"/>
<text text-anchor="middle" x="1021.79" y="-434.64" font-family="Times-Roman" font-size="14.00">μ_a</text>
<text text-anchor="middle" x="1021.79" y="-419.64" font-family="Times-Roman" font-size="14.00">~</text>
<text text-anchor="middle" x="1021.79" y="-404.64" font-family="Times-Roman" font-size="14.00">Normal</text>
</g>
<!-- μ_a&#45;&gt;a -->
<g id="edge8" class="edge">
<title>μ_a&#45;&gt;a</title>
<path fill="none" stroke="black" d="M986.17,-397.71C978.97,-393.37 971.29,-389.19 963.79,-385.86 921.6,-367.16 905.07,-378.5 863.79,-357.86 857.69,-354.81 851.59,-351.08 845.77,-347.09"/>
<polygon fill="black" stroke="black" points="847.62,-344.11 837.46,-341.11 843.53,-349.79 847.62,-344.11"/>
</g>
<!-- σ_σ -->
<g id="node9" class="node">
<title>σ_σ</title>
<ellipse fill="none" stroke="black" cx="941.79" cy="-312.38" rx="69.09" ry="37.45"/>
<text text-anchor="middle" x="941.79" y="-323.68" font-family="Times-Roman" font-size="14.00">σ_σ</text>
<text text-anchor="middle" x="941.79" y="-308.68" font-family="Times-Roman" font-size="14.00">~</text>
<text text-anchor="middle" x="941.79" y="-293.68" font-family="Times-Roman" font-size="14.00">HalfNormal</text>
</g>
<!-- σ -->
<g id="node16" class="node">
<title>σ</title>
<ellipse fill="none" stroke="black" cx="875.79" cy="-190.43" rx="69.09" ry="37.45"/>
<text text-anchor="middle" x="875.79" y="-201.73" font-family="Times-Roman" font-size="14.00">σ</text>
<text text-anchor="middle" x="875.79" y="-186.73" font-family="Times-Roman" font-size="14.00">~</text>
<text text-anchor="middle" x="875.79" y="-171.73" font-family="Times-Roman" font-size="14.00">HalfNormal</text>
</g>
<!-- σ_σ&#45;&gt;σ -->
<g id="edge13" class="edge">
<title>σ_σ&#45;&gt;σ</title>
<path fill="none" stroke="black" d="M922.52,-276.37C915.54,-263.67 907.55,-249.15 900.18,-235.76"/>
<polygon fill="black" stroke="black" points="903.08,-233.77 895.2,-226.7 896.95,-237.15 903.08,-233.77"/>
</g>
<!-- μ -->
<g id="node15" class="node">
<title>μ</title>
<polygon fill="none" stroke="black" points="716.79,-216.93 604.79,-216.93 604.79,-163.93 716.79,-163.93 716.79,-216.93"/>
<text text-anchor="middle" x="660.79" y="-201.73" font-family="Times-Roman" font-size="14.00">μ</text>
<text text-anchor="middle" x="660.79" y="-186.73" font-family="Times-Roman" font-size="14.00">~</text>
<text text-anchor="middle" x="660.79" y="-171.73" font-family="Times-Roman" font-size="14.00">Deterministic</text>
</g>
<!-- h&#45;&gt;μ -->
<g id="edge10" class="edge">
<title>h&#45;&gt;μ</title>
<path fill="none" stroke="black" d="M495.16,-288.82C527.19,-269.99 573.15,-242.96 608.53,-222.16"/>
<polygon fill="black" stroke="black" points="610.44,-225.1 617.29,-217.01 606.89,-219.06 610.44,-225.1"/>
</g>
<!-- g&#45;&gt;μ -->
<g id="edge9" class="edge">
<title>g&#45;&gt;μ</title>
<path fill="none" stroke="black" d="M660.79,-274.74C660.79,-259.77 660.79,-242.51 660.79,-227.59"/>
<polygon fill="black" stroke="black" points="664.29,-227.2 660.79,-217.2 657.29,-227.2 664.29,-227.2"/>
</g>
<!-- b&#45;&gt;μ -->
<g id="edge11" class="edge">
<title>b&#45;&gt;μ</title>
<path fill="none" stroke="black" d="M228.82,-295.68C271.21,-280.95 337.32,-258.99 395.79,-243.91 462.77,-226.62 540.54,-211.84 594.43,-202.41"/>
<polygon fill="black" stroke="black" points="595.28,-205.81 604.54,-200.65 594.09,-198.91 595.28,-205.81"/>
</g>
<!-- a&#45;&gt;μ -->
<g id="edge12" class="edge">
<title>a&#45;&gt;μ</title>
<path fill="none" stroke="black" d="M772.89,-284.16C751.21,-266.23 722.72,-242.67 699.89,-223.78"/>
<polygon fill="black" stroke="black" points="702.01,-220.99 692.07,-217.31 697.55,-226.38 702.01,-220.99"/>
</g>
<!-- lfc -->
<g id="node14" class="node">
<title>lfc</title>
<ellipse fill="lightgrey" stroke="black" cx="663.79" cy="-76.48" rx="48.58" ry="37.45"/>
<text text-anchor="middle" x="663.79" y="-87.78" font-family="Times-Roman" font-size="14.00">lfc</text>
<text text-anchor="middle" x="663.79" y="-72.78" font-family="Times-Roman" font-size="14.00">~</text>
<text text-anchor="middle" x="663.79" y="-57.78" font-family="Times-Roman" font-size="14.00">Normal</text>
</g>
<!-- μ&#45;&gt;lfc -->
<g id="edge15" class="edge">
<title>μ&#45;&gt;lfc</title>
<path fill="none" stroke="black" d="M661.48,-163.75C661.79,-152.02 662.18,-137.75 662.54,-124.22"/>
<polygon fill="black" stroke="black" points="666.04,-124.16 662.81,-114.07 659.04,-123.98 666.04,-124.16"/>
</g>
<!-- σ&#45;&gt;lfc -->
<g id="edge14" class="edge">
<title>σ&#45;&gt;lfc</title>
<path fill="none" stroke="black" d="M826.89,-163.61C792.54,-145.47 746.79,-121.31 712.48,-103.19"/>
<polygon fill="black" stroke="black" points="714.06,-100.06 703.58,-98.49 710.79,-106.25 714.06,-100.06"/>
</g>
</g>
</svg>
