<?xml version="1.0" encoding="UTF-8" standalone="no"?>
<!DOCTYPE svg PUBLIC "-//W3C//DTD SVG 1.1//EN"
 "http://www.w3.org/Graphics/SVG/1.1/DTD/svg11.dtd">
<!-- Generated by graphviz version 2.42.3 (20191010.1750)
 -->
<!-- Title: %3 Pages: 1 -->
<svg width="289pt" height="494pt"
 viewBox="0.00 0.00 289.41 493.81" xmlns="http://www.w3.org/2000/svg" xmlns:xlink="http://www.w3.org/1999/xlink">
<g id="graph0" class="graph" transform="scale(1 1) rotate(0) translate(4 489.81)">
<title>%3</title>
<polygon fill="white" stroke="transparent" points="-4,4 -4,-489.81 285.41,-489.81 285.41,4 -4,4"/>
<g id="clust1" class="cluster">
<title>cluster100</title>
<path fill="none" stroke="black" d="M142.69,-268.91C142.69,-268.91 218.69,-268.91 218.69,-268.91 224.69,-268.91 230.69,-274.91 230.69,-280.91 230.69,-280.91 230.69,-370.86 230.69,-370.86 230.69,-376.86 224.69,-382.86 218.69,-382.86 218.69,-382.86 142.69,-382.86 142.69,-382.86 136.69,-382.86 130.69,-376.86 130.69,-370.86 130.69,-370.86 130.69,-280.91 130.69,-280.91 130.69,-274.91 136.69,-268.91 142.69,-268.91"/>
<text text-anchor="middle" x="212.19" y="-276.71" font-family="Times,serif" font-size="14.00">100</text>
</g>
<g id="clust2" class="cluster">
<title>cluster1,000</title>
<path fill="none" stroke="black" d="M138.69,-44C138.69,-44 222.69,-44 222.69,-44 228.69,-44 234.69,-50 234.69,-56 234.69,-56 234.69,-245.93 234.69,-245.93 234.69,-251.93 228.69,-257.93 222.69,-257.93 222.69,-257.93 138.69,-257.93 138.69,-257.93 132.69,-257.93 126.69,-251.93 126.69,-245.93 126.69,-245.93 126.69,-56 126.69,-56 126.69,-50 132.69,-44 138.69,-44"/>
<text text-anchor="middle" x="211.19" y="-51.8" font-family="Times,serif" font-size="14.00">1,000</text>
</g>
<!-- σ -->
<g id="node1" class="node">
<title>σ</title>
<ellipse fill="none" stroke="black" cx="58.69" cy="-223.43" rx="58.88" ry="37.45"/>
<text text-anchor="middle" x="58.69" y="-234.73" font-family="Times,serif" font-size="14.00">σ</text>
<text text-anchor="middle" x="58.69" y="-219.73" font-family="Times,serif" font-size="14.00">~</text>
<text text-anchor="middle" x="58.69" y="-204.73" font-family="Times,serif" font-size="14.00">HalfNormal</text>
</g>
<!-- lfc -->
<g id="node5" class="node">
<title>lfc</title>
<ellipse fill="lightgrey" stroke="black" cx="178.69" cy="-112.48" rx="41.94" ry="37.45"/>
<text text-anchor="middle" x="178.69" y="-123.78" font-family="Times,serif" font-size="14.00">lfc</text>
<text text-anchor="middle" x="178.69" y="-108.78" font-family="Times,serif" font-size="14.00">~</text>
<text text-anchor="middle" x="178.69" y="-93.78" font-family="Times,serif" font-size="14.00">Normal</text>
</g>
<!-- σ&#45;&gt;lfc -->
<g id="edge4" class="edge">
<title>σ&#45;&gt;lfc</title>
<path fill="none" stroke="black" d="M91.8,-192.37C107.42,-178.19 126.1,-161.22 142.14,-146.66"/>
<polygon fill="black" stroke="black" points="144.72,-149.05 149.77,-139.73 140.02,-143.86 144.72,-149.05"/>
</g>
<!-- σ_α -->
<g id="node2" class="node">
<title>σ_α</title>
<ellipse fill="none" stroke="black" cx="121.69" cy="-448.34" rx="57.97" ry="37.45"/>
<text text-anchor="middle" x="121.69" y="-459.64" font-family="Times,serif" font-size="14.00">σ_α</text>
<text text-anchor="middle" x="121.69" y="-444.64" font-family="Times,serif" font-size="14.00">~</text>
<text text-anchor="middle" x="121.69" y="-429.64" font-family="Times,serif" font-size="14.00">Exponential</text>
</g>
<!-- α_g -->
<g id="node4" class="node">
<title>α_g</title>
<ellipse fill="none" stroke="black" cx="180.69" cy="-337.38" rx="41.94" ry="37.45"/>
<text text-anchor="middle" x="180.69" y="-348.68" font-family="Times,serif" font-size="14.00">α_g</text>
<text text-anchor="middle" x="180.69" y="-333.68" font-family="Times,serif" font-size="14.00">~</text>
<text text-anchor="middle" x="180.69" y="-318.68" font-family="Times,serif" font-size="14.00">Normal</text>
</g>
<!-- σ_α&#45;&gt;α_g -->
<g id="edge1" class="edge">
<title>σ_α&#45;&gt;α_g</title>
<path fill="none" stroke="black" d="M140.52,-412.56C146.05,-402.35 152.16,-391.07 157.91,-380.46"/>
<polygon fill="black" stroke="black" points="161.16,-381.8 162.84,-371.34 155,-378.47 161.16,-381.8"/>
</g>
<!-- μ_α -->
<g id="node3" class="node">
<title>μ_α</title>
<ellipse fill="none" stroke="black" cx="239.69" cy="-448.34" rx="41.94" ry="37.45"/>
<text text-anchor="middle" x="239.69" y="-459.64" font-family="Times,serif" font-size="14.00">μ_α</text>
<text text-anchor="middle" x="239.69" y="-444.64" font-family="Times,serif" font-size="14.00">~</text>
<text text-anchor="middle" x="239.69" y="-429.64" font-family="Times,serif" font-size="14.00">Normal</text>
</g>
<!-- μ_α&#45;&gt;α_g -->
<g id="edge2" class="edge">
<title>μ_α&#45;&gt;α_g</title>
<path fill="none" stroke="black" d="M221.83,-414.35C216.05,-403.68 209.56,-391.69 203.47,-380.45"/>
<polygon fill="black" stroke="black" points="206.53,-378.76 198.69,-371.63 200.38,-382.09 206.53,-378.76"/>
</g>
<!-- μ -->
<g id="node6" class="node">
<title>μ</title>
<polygon fill="none" stroke="black" points="226.19,-249.93 135.19,-249.93 135.19,-196.93 226.19,-196.93 226.19,-249.93"/>
<text text-anchor="middle" x="180.69" y="-234.73" font-family="Times,serif" font-size="14.00">μ</text>
<text text-anchor="middle" x="180.69" y="-219.73" font-family="Times,serif" font-size="14.00">~</text>
<text text-anchor="middle" x="180.69" y="-204.73" font-family="Times,serif" font-size="14.00">Deterministic</text>
</g>
<!-- α_g&#45;&gt;μ -->
<g id="edge3" class="edge">
<title>α_g&#45;&gt;μ</title>
<path fill="none" stroke="black" d="M180.69,-299.73C180.69,-287.07 180.69,-272.92 180.69,-260.32"/>
<polygon fill="black" stroke="black" points="184.19,-260.18 180.69,-250.18 177.19,-260.18 184.19,-260.18"/>
</g>
<!-- Minibatch -->
<g id="node7" class="node">
<title>Minibatch</title>
<ellipse fill="none" stroke="black" cx="178.69" cy="-18" rx="47.39" ry="18"/>
<text text-anchor="middle" x="178.69" y="-14.3" font-family="Times,serif" font-size="14.00">Minibatch</text>
</g>
<!-- lfc&#45;&gt;Minibatch -->
<g id="edge6" class="edge">
<title>lfc&#45;&gt;Minibatch</title>
<path fill="none" stroke="black" d="M178.69,-74.93C178.69,-65.45 178.69,-55.41 178.69,-46.49"/>
<polygon fill="black" stroke="black" points="182.19,-46.27 178.69,-36.27 175.19,-46.27 182.19,-46.27"/>
</g>
<!-- μ&#45;&gt;lfc -->
<g id="edge5" class="edge">
<title>μ&#45;&gt;lfc</title>
<path fill="none" stroke="black" d="M180.22,-196.89C180.02,-185.98 179.78,-172.89 179.55,-160.35"/>
<polygon fill="black" stroke="black" points="183.04,-159.94 179.36,-150 176.04,-160.06 183.04,-159.94"/>
</g>
</g>
</svg>
