<?xml version="1.0" encoding="UTF-8" standalone="no"?>
<!DOCTYPE svg PUBLIC "-//W3C//DTD SVG 1.1//EN"
 "http://www.w3.org/Graphics/SVG/1.1/DTD/svg11.dtd">
<!-- Generated by graphviz version 2.42.3 (20191010.1750)
 -->
<!-- Title: %3 Pages: 1 -->
<svg width="378pt" height="477pt"
 viewBox="0.00 0.00 377.69 476.81" xmlns="http://www.w3.org/2000/svg" xmlns:xlink="http://www.w3.org/1999/xlink">
<g id="graph0" class="graph" transform="scale(1 1) rotate(0) translate(4 472.81)">
<title>%3</title>
<polygon fill="white" stroke="transparent" points="-4,4 -4,-472.81 373.69,-472.81 373.69,4 -4,4"/>
<g id="clust1" class="cluster">
<title>cluster100</title>
<path fill="none" stroke="black" d="M138.69,-251.91C138.69,-251.91 349.69,-251.91 349.69,-251.91 355.69,-251.91 361.69,-257.91 361.69,-263.91 361.69,-263.91 361.69,-353.86 361.69,-353.86 361.69,-359.86 355.69,-365.86 349.69,-365.86 349.69,-365.86 138.69,-365.86 138.69,-365.86 132.69,-365.86 126.69,-359.86 126.69,-353.86 126.69,-353.86 126.69,-263.91 126.69,-263.91 126.69,-257.91 132.69,-251.91 138.69,-251.91"/>
<text text-anchor="middle" x="343.19" y="-259.71" font-family="Times,serif" font-size="14.00">100</text>
</g>
<g id="clust2" class="cluster">
<title>cluster395</title>
<path fill="none" stroke="black" d="M138.69,-129.95C138.69,-129.95 214.69,-129.95 214.69,-129.95 220.69,-129.95 226.69,-135.95 226.69,-141.95 226.69,-141.95 226.69,-231.91 226.69,-231.91 226.69,-237.91 220.69,-243.91 214.69,-243.91 214.69,-243.91 138.69,-243.91 138.69,-243.91 132.69,-243.91 126.69,-237.91 126.69,-231.91 126.69,-231.91 126.69,-141.95 126.69,-141.95 126.69,-135.95 132.69,-129.95 138.69,-129.95"/>
<text text-anchor="middle" x="208.19" y="-137.75" font-family="Times,serif" font-size="14.00">395</text>
</g>
<g id="clust3" class="cluster">
<title>cluster34,760</title>
<path fill="none" stroke="black" d="M197.69,-8C197.69,-8 273.69,-8 273.69,-8 279.69,-8 285.69,-14 285.69,-20 285.69,-20 285.69,-109.95 285.69,-109.95 285.69,-115.95 279.69,-121.95 273.69,-121.95 273.69,-121.95 197.69,-121.95 197.69,-121.95 191.69,-121.95 185.69,-115.95 185.69,-109.95 185.69,-109.95 185.69,-20 185.69,-20 185.69,-14 191.69,-8 197.69,-8"/>
<text text-anchor="middle" x="258.69" y="-15.8" font-family="Times,serif" font-size="14.00">34,760</text>
</g>
<!-- σ_g -->
<g id="node1" class="node">
<title>σ_g</title>
<ellipse fill="none" stroke="black" cx="58.69" cy="-431.34" rx="58.88" ry="37.45"/>
<text text-anchor="middle" x="58.69" y="-442.64" font-family="Times,serif" font-size="14.00">σ_g</text>
<text text-anchor="middle" x="58.69" y="-427.64" font-family="Times,serif" font-size="14.00">~</text>
<text text-anchor="middle" x="58.69" y="-412.64" font-family="Times,serif" font-size="14.00">HalfNormal</text>
</g>
<!-- μ_α -->
<g id="node5" class="node">
<title>μ_α</title>
<ellipse fill="none" stroke="black" cx="176.69" cy="-320.38" rx="41.94" ry="37.45"/>
<text text-anchor="middle" x="176.69" y="-331.68" font-family="Times,serif" font-size="14.00">μ_α</text>
<text text-anchor="middle" x="176.69" y="-316.68" font-family="Times,serif" font-size="14.00">~</text>
<text text-anchor="middle" x="176.69" y="-301.68" font-family="Times,serif" font-size="14.00">Normal</text>
</g>
<!-- σ_g&#45;&gt;μ_α -->
<g id="edge1" class="edge">
<title>σ_g&#45;&gt;μ_α</title>
<path fill="none" stroke="black" d="M91.56,-399.99C106.8,-385.92 124.95,-369.16 140.57,-354.74"/>
<polygon fill="black" stroke="black" points="143.03,-357.22 148.01,-347.87 138.29,-352.08 143.03,-357.22"/>
</g>
<!-- μ_g -->
<g id="node2" class="node">
<title>μ_g</title>
<ellipse fill="none" stroke="black" cx="176.69" cy="-431.34" rx="41.94" ry="37.45"/>
<text text-anchor="middle" x="176.69" y="-442.64" font-family="Times,serif" font-size="14.00">μ_g</text>
<text text-anchor="middle" x="176.69" y="-427.64" font-family="Times,serif" font-size="14.00">~</text>
<text text-anchor="middle" x="176.69" y="-412.64" font-family="Times,serif" font-size="14.00">Normal</text>
</g>
<!-- μ_g&#45;&gt;μ_α -->
<g id="edge2" class="edge">
<title>μ_g&#45;&gt;μ_α</title>
<path fill="none" stroke="black" d="M176.69,-393.75C176.69,-385.58 176.69,-376.8 176.69,-368.27"/>
<polygon fill="black" stroke="black" points="180.19,-368.06 176.69,-358.06 173.19,-368.06 180.19,-368.06"/>
</g>
<!-- σ_σ_α -->
<g id="node3" class="node">
<title>σ_σ_α</title>
<ellipse fill="none" stroke="black" cx="294.69" cy="-431.34" rx="58.88" ry="37.45"/>
<text text-anchor="middle" x="294.69" y="-442.64" font-family="Times,serif" font-size="14.00">σ_σ_α</text>
<text text-anchor="middle" x="294.69" y="-427.64" font-family="Times,serif" font-size="14.00">~</text>
<text text-anchor="middle" x="294.69" y="-412.64" font-family="Times,serif" font-size="14.00">HalfNormal</text>
</g>
<!-- σ_α -->
<g id="node6" class="node">
<title>σ_α</title>
<ellipse fill="none" stroke="black" cx="294.69" cy="-320.38" rx="58.88" ry="37.45"/>
<text text-anchor="middle" x="294.69" y="-331.68" font-family="Times,serif" font-size="14.00">σ_α</text>
<text text-anchor="middle" x="294.69" y="-316.68" font-family="Times,serif" font-size="14.00">~</text>
<text text-anchor="middle" x="294.69" y="-301.68" font-family="Times,serif" font-size="14.00">HalfNormal</text>
</g>
<!-- σ_σ_α&#45;&gt;σ_α -->
<g id="edge3" class="edge">
<title>σ_σ_α&#45;&gt;σ_α</title>
<path fill="none" stroke="black" d="M294.69,-393.75C294.69,-385.58 294.69,-376.8 294.69,-368.27"/>
<polygon fill="black" stroke="black" points="298.19,-368.06 294.69,-358.06 291.19,-368.06 298.19,-368.06"/>
</g>
<!-- σ -->
<g id="node4" class="node">
<title>σ</title>
<ellipse fill="none" stroke="black" cx="294.69" cy="-198.43" rx="58.88" ry="37.45"/>
<text text-anchor="middle" x="294.69" y="-209.73" font-family="Times,serif" font-size="14.00">σ</text>
<text text-anchor="middle" x="294.69" y="-194.73" font-family="Times,serif" font-size="14.00">~</text>
<text text-anchor="middle" x="294.69" y="-179.73" font-family="Times,serif" font-size="14.00">HalfNormal</text>
</g>
<!-- lfc -->
<g id="node8" class="node">
<title>lfc</title>
<ellipse fill="lightgrey" stroke="black" cx="235.69" cy="-76.48" rx="41.94" ry="37.45"/>
<text text-anchor="middle" x="235.69" y="-87.78" font-family="Times,serif" font-size="14.00">lfc</text>
<text text-anchor="middle" x="235.69" y="-72.78" font-family="Times,serif" font-size="14.00">~</text>
<text text-anchor="middle" x="235.69" y="-57.78" font-family="Times,serif" font-size="14.00">Normal</text>
</g>
<!-- σ&#45;&gt;lfc -->
<g id="edge7" class="edge">
<title>σ&#45;&gt;lfc</title>
<path fill="none" stroke="black" d="M277.47,-162.41C271,-149.26 263.57,-134.17 256.8,-120.39"/>
<polygon fill="black" stroke="black" points="259.78,-118.52 252.22,-111.09 253.5,-121.61 259.78,-118.52"/>
</g>
<!-- α_s -->
<g id="node7" class="node">
<title>α_s</title>
<ellipse fill="none" stroke="black" cx="176.69" cy="-198.43" rx="41.94" ry="37.45"/>
<text text-anchor="middle" x="176.69" y="-209.73" font-family="Times,serif" font-size="14.00">α_s</text>
<text text-anchor="middle" x="176.69" y="-194.73" font-family="Times,serif" font-size="14.00">~</text>
<text text-anchor="middle" x="176.69" y="-179.73" font-family="Times,serif" font-size="14.00">Normal</text>
</g>
<!-- μ_α&#45;&gt;α_s -->
<g id="edge4" class="edge">
<title>μ_α&#45;&gt;α_s</title>
<path fill="none" stroke="black" d="M176.69,-282.74C176.69,-271.34 176.69,-258.6 176.69,-246.58"/>
<polygon fill="black" stroke="black" points="180.19,-246.26 176.69,-236.26 173.19,-246.26 180.19,-246.26"/>
</g>
<!-- σ_α&#45;&gt;α_s -->
<g id="edge5" class="edge">
<title>σ_α&#45;&gt;α_s</title>
<path fill="none" stroke="black" d="M263.99,-288.18C247.89,-271.81 228.09,-251.68 211.42,-234.74"/>
<polygon fill="black" stroke="black" points="213.52,-231.88 204.01,-227.2 208.53,-236.79 213.52,-231.88"/>
</g>
<!-- α_s&#45;&gt;lfc -->
<g id="edge6" class="edge">
<title>α_s&#45;&gt;lfc</title>
<path fill="none" stroke="black" d="M193.28,-163.7C199.94,-150.17 207.68,-134.42 214.72,-120.11"/>
<polygon fill="black" stroke="black" points="217.95,-121.47 219.22,-110.96 211.67,-118.38 217.95,-121.47"/>
</g>
</g>
</svg>
