<?xml version="1.0" encoding="UTF-8" standalone="no"?>
<!DOCTYPE svg PUBLIC "-//W3C//DTD SVG 1.1//EN"
 "http://www.w3.org/Graphics/SVG/1.1/DTD/svg11.dtd">
<!-- Generated by graphviz version 2.42.3 (20191010.1750)
 -->
<!-- Title: %3 Pages: 1 -->
<svg width="479pt" height="580pt"
 viewBox="0.00 0.00 478.72 579.77" xmlns="http://www.w3.org/2000/svg" xmlns:xlink="http://www.w3.org/1999/xlink">
<g id="graph0" class="graph" transform="scale(1 1) rotate(0) translate(4 575.77)">
<title>%3</title>
<polygon fill="white" stroke="transparent" points="-4,4 -4,-575.77 474.72,-575.77 474.72,4 -4,4"/>
<g id="clust1" class="cluster">
<title>cluster100</title>
<path fill="none" stroke="black" d="M20,-354.86C20,-354.86 231,-354.86 231,-354.86 237,-354.86 243,-360.86 243,-366.86 243,-366.86 243,-456.81 243,-456.81 243,-462.81 237,-468.81 231,-468.81 231,-468.81 20,-468.81 20,-468.81 14,-468.81 8,-462.81 8,-456.81 8,-456.81 8,-366.86 8,-366.86 8,-360.86 14,-354.86 20,-354.86"/>
<text text-anchor="middle" x="224.5" y="-362.66" font-family="Times,serif" font-size="14.00">100</text>
</g>
<g id="clust2" class="cluster">
<title>cluster395</title>
<path fill="none" stroke="black" d="M155,-232.91C155,-232.91 231,-232.91 231,-232.91 237,-232.91 243,-238.91 243,-244.91 243,-244.91 243,-334.86 243,-334.86 243,-340.86 237,-346.86 231,-346.86 231,-346.86 155,-346.86 155,-346.86 149,-346.86 143,-340.86 143,-334.86 143,-334.86 143,-244.91 143,-244.91 143,-238.91 149,-232.91 155,-232.91"/>
<text text-anchor="middle" x="224.5" y="-240.71" font-family="Times,serif" font-size="14.00">395</text>
</g>
<g id="clust3" class="cluster">
<title>cluster36</title>
<path fill="none" stroke="black" d="M273,-232.91C273,-232.91 349,-232.91 349,-232.91 355,-232.91 361,-238.91 361,-244.91 361,-244.91 361,-334.86 361,-334.86 361,-340.86 355,-346.86 349,-346.86 349,-346.86 273,-346.86 273,-346.86 267,-346.86 261,-340.86 261,-334.86 261,-334.86 261,-244.91 261,-244.91 261,-238.91 267,-232.91 273,-232.91"/>
<text text-anchor="middle" x="346" y="-240.71" font-family="Times,serif" font-size="14.00">36</text>
</g>
<g id="clust4" class="cluster">
<title>cluster34,760</title>
<path fill="none" stroke="black" d="M208,-8C208,-8 292,-8 292,-8 298,-8 304,-14 304,-20 304,-20 304,-209.93 304,-209.93 304,-215.93 298,-221.93 292,-221.93 292,-221.93 208,-221.93 208,-221.93 202,-221.93 196,-215.93 196,-209.93 196,-209.93 196,-20 196,-20 196,-14 202,-8 208,-8"/>
<text text-anchor="middle" x="277" y="-15.8" font-family="Times,serif" font-size="14.00">34,760</text>
</g>
<!-- σ_σ_α -->
<g id="node1" class="node">
<title>σ_σ_α</title>
<ellipse fill="none" stroke="black" cx="75" cy="-534.29" rx="58.88" ry="37.45"/>
<text text-anchor="middle" x="75" y="-545.59" font-family="Times,serif" font-size="14.00">σ_σ_α</text>
<text text-anchor="middle" x="75" y="-530.59" font-family="Times,serif" font-size="14.00">~</text>
<text text-anchor="middle" x="75" y="-515.59" font-family="Times,serif" font-size="14.00">HalfNormal</text>
</g>
<!-- σ_α -->
<g id="node8" class="node">
<title>σ_α</title>
<ellipse fill="none" stroke="black" cx="75" cy="-423.34" rx="58.88" ry="37.45"/>
<text text-anchor="middle" x="75" y="-434.64" font-family="Times,serif" font-size="14.00">σ_α</text>
<text text-anchor="middle" x="75" y="-419.64" font-family="Times,serif" font-size="14.00">~</text>
<text text-anchor="middle" x="75" y="-404.64" font-family="Times,serif" font-size="14.00">HalfNormal</text>
</g>
<!-- σ_σ_α&#45;&gt;σ_α -->
<g id="edge3" class="edge">
<title>σ_σ_α&#45;&gt;σ_α</title>
<path fill="none" stroke="black" d="M75,-496.71C75,-488.53 75,-479.75 75,-471.23"/>
<polygon fill="black" stroke="black" points="78.5,-471.01 75,-461.01 71.5,-471.01 78.5,-471.01"/>
</g>
<!-- σ -->
<g id="node2" class="node">
<title>σ</title>
<ellipse fill="none" stroke="black" cx="372" cy="-187.43" rx="58.88" ry="37.45"/>
<text text-anchor="middle" x="372" y="-198.73" font-family="Times,serif" font-size="14.00">σ</text>
<text text-anchor="middle" x="372" y="-183.73" font-family="Times,serif" font-size="14.00">~</text>
<text text-anchor="middle" x="372" y="-168.73" font-family="Times,serif" font-size="14.00">HalfNormal</text>
</g>
<!-- lfc -->
<g id="node12" class="node">
<title>lfc</title>
<ellipse fill="lightgrey" stroke="black" cx="252" cy="-76.48" rx="41.94" ry="37.45"/>
<text text-anchor="middle" x="252" y="-87.78" font-family="Times,serif" font-size="14.00">lfc</text>
<text text-anchor="middle" x="252" y="-72.78" font-family="Times,serif" font-size="14.00">~</text>
<text text-anchor="middle" x="252" y="-57.78" font-family="Times,serif" font-size="14.00">Normal</text>
</g>
<!-- σ&#45;&gt;lfc -->
<g id="edge11" class="edge">
<title>σ&#45;&gt;lfc</title>
<path fill="none" stroke="black" d="M338.89,-156.37C323.27,-142.19 304.59,-125.22 288.55,-110.66"/>
<polygon fill="black" stroke="black" points="290.67,-107.86 280.92,-103.73 285.97,-113.05 290.67,-107.86"/>
</g>
<!-- μ_g -->
<g id="node3" class="node">
<title>μ_g</title>
<ellipse fill="none" stroke="black" cx="193" cy="-534.29" rx="41.94" ry="37.45"/>
<text text-anchor="middle" x="193" y="-545.59" font-family="Times,serif" font-size="14.00">μ_g</text>
<text text-anchor="middle" x="193" y="-530.59" font-family="Times,serif" font-size="14.00">~</text>
<text text-anchor="middle" x="193" y="-515.59" font-family="Times,serif" font-size="14.00">Normal</text>
</g>
<!-- μ_α -->
<g id="node7" class="node">
<title>μ_α</title>
<ellipse fill="none" stroke="black" cx="193" cy="-423.34" rx="41.94" ry="37.45"/>
<text text-anchor="middle" x="193" y="-434.64" font-family="Times,serif" font-size="14.00">μ_α</text>
<text text-anchor="middle" x="193" y="-419.64" font-family="Times,serif" font-size="14.00">~</text>
<text text-anchor="middle" x="193" y="-404.64" font-family="Times,serif" font-size="14.00">Normal</text>
</g>
<!-- μ_g&#45;&gt;μ_α -->
<g id="edge2" class="edge">
<title>μ_g&#45;&gt;μ_α</title>
<path fill="none" stroke="black" d="M193,-496.71C193,-488.53 193,-479.75 193,-471.23"/>
<polygon fill="black" stroke="black" points="196.5,-471.01 193,-461.01 189.5,-471.01 196.5,-471.01"/>
</g>
<!-- σ_β -->
<g id="node4" class="node">
<title>σ_β</title>
<ellipse fill="none" stroke="black" cx="311" cy="-423.34" rx="58.88" ry="37.45"/>
<text text-anchor="middle" x="311" y="-434.64" font-family="Times,serif" font-size="14.00">σ_β</text>
<text text-anchor="middle" x="311" y="-419.64" font-family="Times,serif" font-size="14.00">~</text>
<text text-anchor="middle" x="311" y="-404.64" font-family="Times,serif" font-size="14.00">HalfNormal</text>
</g>
<!-- β_c -->
<g id="node10" class="node">
<title>β_c</title>
<ellipse fill="none" stroke="black" cx="311" cy="-301.38" rx="41.94" ry="37.45"/>
<text text-anchor="middle" x="311" y="-312.68" font-family="Times,serif" font-size="14.00">β_c</text>
<text text-anchor="middle" x="311" y="-297.68" font-family="Times,serif" font-size="14.00">~</text>
<text text-anchor="middle" x="311" y="-282.68" font-family="Times,serif" font-size="14.00">Normal</text>
</g>
<!-- σ_β&#45;&gt;β_c -->
<g id="edge6" class="edge">
<title>σ_β&#45;&gt;β_c</title>
<path fill="none" stroke="black" d="M311,-385.69C311,-374.29 311,-361.55 311,-349.54"/>
<polygon fill="black" stroke="black" points="314.5,-349.21 311,-339.21 307.5,-349.21 314.5,-349.21"/>
</g>
<!-- σ_g -->
<g id="node5" class="node">
<title>σ_g</title>
<ellipse fill="none" stroke="black" cx="311" cy="-534.29" rx="58.88" ry="37.45"/>
<text text-anchor="middle" x="311" y="-545.59" font-family="Times,serif" font-size="14.00">σ_g</text>
<text text-anchor="middle" x="311" y="-530.59" font-family="Times,serif" font-size="14.00">~</text>
<text text-anchor="middle" x="311" y="-515.59" font-family="Times,serif" font-size="14.00">HalfNormal</text>
</g>
<!-- σ_g&#45;&gt;μ_α -->
<g id="edge1" class="edge">
<title>σ_g&#45;&gt;μ_α</title>
<path fill="none" stroke="black" d="M278.13,-502.94C262.89,-488.87 244.74,-472.11 229.12,-457.69"/>
<polygon fill="black" stroke="black" points="231.4,-455.03 221.68,-450.82 226.65,-460.18 231.4,-455.03"/>
</g>
<!-- μ_β -->
<g id="node6" class="node">
<title>μ_β</title>
<ellipse fill="none" stroke="black" cx="429" cy="-423.34" rx="41.94" ry="37.45"/>
<text text-anchor="middle" x="429" y="-434.64" font-family="Times,serif" font-size="14.00">μ_β</text>
<text text-anchor="middle" x="429" y="-419.64" font-family="Times,serif" font-size="14.00">~</text>
<text text-anchor="middle" x="429" y="-404.64" font-family="Times,serif" font-size="14.00">Normal</text>
</g>
<!-- μ_β&#45;&gt;β_c -->
<g id="edge7" class="edge">
<title>μ_β&#45;&gt;β_c</title>
<path fill="none" stroke="black" d="M408.28,-390.67C399.86,-378.85 389.62,-365.69 379,-354.86 370.76,-346.46 361.15,-338.25 351.78,-330.92"/>
<polygon fill="black" stroke="black" points="353.73,-328 343.66,-324.72 349.48,-333.57 353.73,-328"/>
</g>
<!-- α_s -->
<g id="node9" class="node">
<title>α_s</title>
<ellipse fill="none" stroke="black" cx="193" cy="-301.38" rx="41.94" ry="37.45"/>
<text text-anchor="middle" x="193" y="-312.68" font-family="Times,serif" font-size="14.00">α_s</text>
<text text-anchor="middle" x="193" y="-297.68" font-family="Times,serif" font-size="14.00">~</text>
<text text-anchor="middle" x="193" y="-282.68" font-family="Times,serif" font-size="14.00">Normal</text>
</g>
<!-- μ_α&#45;&gt;α_s -->
<g id="edge4" class="edge">
<title>μ_α&#45;&gt;α_s</title>
<path fill="none" stroke="black" d="M193,-385.69C193,-374.29 193,-361.55 193,-349.54"/>
<polygon fill="black" stroke="black" points="196.5,-349.21 193,-339.21 189.5,-349.21 196.5,-349.21"/>
</g>
<!-- σ_α&#45;&gt;α_s -->
<g id="edge5" class="edge">
<title>σ_α&#45;&gt;α_s</title>
<path fill="none" stroke="black" d="M105.7,-391.13C121.8,-374.76 141.6,-354.64 158.27,-337.69"/>
<polygon fill="black" stroke="black" points="161.16,-339.74 165.68,-330.16 156.17,-334.83 161.16,-339.74"/>
</g>
<!-- μ -->
<g id="node11" class="node">
<title>μ</title>
<polygon fill="none" stroke="black" points="295.5,-213.93 204.5,-213.93 204.5,-160.93 295.5,-160.93 295.5,-213.93"/>
<text text-anchor="middle" x="250" y="-198.73" font-family="Times,serif" font-size="14.00">μ</text>
<text text-anchor="middle" x="250" y="-183.73" font-family="Times,serif" font-size="14.00">~</text>
<text text-anchor="middle" x="250" y="-168.73" font-family="Times,serif" font-size="14.00">Deterministic</text>
</g>
<!-- α_s&#45;&gt;μ -->
<g id="edge8" class="edge">
<title>α_s&#45;&gt;μ</title>
<path fill="none" stroke="black" d="M209.95,-267.1C216.99,-253.27 225.16,-237.22 232.28,-223.24"/>
<polygon fill="black" stroke="black" points="235.59,-224.44 237.01,-213.94 229.35,-221.27 235.59,-224.44"/>
</g>
<!-- β_c&#45;&gt;μ -->
<g id="edge9" class="edge">
<title>β_c&#45;&gt;μ</title>
<path fill="none" stroke="black" d="M293.03,-267.4C285.42,-253.43 276.55,-237.15 268.84,-223.01"/>
<polygon fill="black" stroke="black" points="271.83,-221.19 263.98,-214.08 265.69,-224.53 271.83,-221.19"/>
</g>
<!-- μ&#45;&gt;lfc -->
<g id="edge10" class="edge">
<title>μ&#45;&gt;lfc</title>
<path fill="none" stroke="black" d="M250.47,-160.89C250.67,-149.98 250.91,-136.89 251.14,-124.35"/>
<polygon fill="black" stroke="black" points="254.65,-124.06 251.33,-114 247.65,-123.94 254.65,-124.06"/>
</g>
</g>
</svg>
