<?xml version="1.0" encoding="UTF-8" standalone="no"?>
<!DOCTYPE svg PUBLIC "-//W3C//DTD SVG 1.1//EN"
 "http://www.w3.org/Graphics/SVG/1.1/DTD/svg11.dtd">
<!-- Generated by graphviz version 2.42.3 (20191010.1750)
 -->
<!-- Title: %3 Pages: 1 -->
<svg width="629pt" height="580pt"
 viewBox="0.00 0.00 629.09 579.77" xmlns="http://www.w3.org/2000/svg" xmlns:xlink="http://www.w3.org/1999/xlink">
<g id="graph0" class="graph" transform="scale(1 1) rotate(0) translate(4 575.77)">
<title>%3</title>
<polygon fill="white" stroke="transparent" points="-4,4 -4,-575.77 625.09,-575.77 625.09,4 -4,4"/>
<g id="clust1" class="cluster">
<title>cluster5</title>
<path fill="none" stroke="black" d="M276.1,-354.86C276.1,-354.86 470.1,-354.86 470.1,-354.86 476.1,-354.86 482.1,-360.86 482.1,-366.86 482.1,-366.86 482.1,-456.81 482.1,-456.81 482.1,-462.81 476.1,-468.81 470.1,-468.81 470.1,-468.81 276.1,-468.81 276.1,-468.81 270.1,-468.81 264.1,-462.81 264.1,-456.81 264.1,-456.81 264.1,-366.86 264.1,-366.86 264.1,-360.86 270.1,-354.86 276.1,-354.86"/>
<text text-anchor="middle" x="470.6" y="-362.66" font-family="Times,serif" font-size="14.00">5</text>
</g>
<g id="clust2" class="cluster">
<title>cluster15</title>
<path fill="none" stroke="black" d="M166.1,-232.91C166.1,-232.91 343.1,-232.91 343.1,-232.91 349.1,-232.91 355.1,-238.91 355.1,-244.91 355.1,-244.91 355.1,-334.86 355.1,-334.86 355.1,-340.86 349.1,-346.86 343.1,-346.86 343.1,-346.86 166.1,-346.86 166.1,-346.86 160.1,-346.86 154.1,-340.86 154.1,-334.86 154.1,-334.86 154.1,-244.91 154.1,-244.91 154.1,-238.91 160.1,-232.91 166.1,-232.91"/>
<text text-anchor="middle" x="340.1" y="-240.71" font-family="Times,serif" font-size="14.00">15</text>
</g>
<g id="clust3" class="cluster">
<title>cluster300</title>
<path fill="none" stroke="black" d="M263.1,-8C263.1,-8 347.1,-8 347.1,-8 353.1,-8 359.1,-14 359.1,-20 359.1,-20 359.1,-209.93 359.1,-209.93 359.1,-215.93 353.1,-221.93 347.1,-221.93 347.1,-221.93 263.1,-221.93 263.1,-221.93 257.1,-221.93 251.1,-215.93 251.1,-209.93 251.1,-209.93 251.1,-20 251.1,-20 251.1,-14 257.1,-8 263.1,-8"/>
<text text-anchor="middle" x="340.6" y="-15.8" font-family="Times,serif" font-size="14.00">300</text>
</g>
<!-- sigma_beta -->
<g id="node1" class="node">
<title>sigma_beta</title>
<ellipse fill="none" stroke="black" cx="196.1" cy="-423.34" rx="57.97" ry="37.45"/>
<text text-anchor="middle" x="196.1" y="-434.64" font-family="Times,serif" font-size="14.00">sigma_beta</text>
<text text-anchor="middle" x="196.1" y="-419.64" font-family="Times,serif" font-size="14.00">~</text>
<text text-anchor="middle" x="196.1" y="-404.64" font-family="Times,serif" font-size="14.00">Exponential</text>
</g>
<!-- beta_s -->
<g id="node12" class="node">
<title>beta_s</title>
<ellipse fill="none" stroke="black" cx="305.1" cy="-301.38" rx="41.94" ry="37.45"/>
<text text-anchor="middle" x="305.1" y="-312.68" font-family="Times,serif" font-size="14.00">beta_s</text>
<text text-anchor="middle" x="305.1" y="-297.68" font-family="Times,serif" font-size="14.00">~</text>
<text text-anchor="middle" x="305.1" y="-282.68" font-family="Times,serif" font-size="14.00">Normal</text>
</g>
<!-- sigma_beta&#45;&gt;beta_s -->
<g id="edge8" class="edge">
<title>sigma_beta&#45;&gt;beta_s</title>
<path fill="none" stroke="black" d="M225.03,-390.51C239.45,-374.64 256.95,-355.38 271.91,-338.91"/>
<polygon fill="black" stroke="black" points="274.89,-340.83 279.03,-331.08 269.71,-336.13 274.89,-340.83"/>
</g>
<!-- sigma_gamma -->
<g id="node2" class="node">
<title>sigma_gamma</title>
<ellipse fill="none" stroke="black" cx="169.1" cy="-534.29" rx="68.68" ry="37.45"/>
<text text-anchor="middle" x="169.1" y="-545.59" font-family="Times,serif" font-size="14.00">sigma_gamma</text>
<text text-anchor="middle" x="169.1" y="-530.59" font-family="Times,serif" font-size="14.00">~</text>
<text text-anchor="middle" x="169.1" y="-515.59" font-family="Times,serif" font-size="14.00">Exponential</text>
</g>
<!-- gamma_g -->
<g id="node10" class="node">
<title>gamma_g</title>
<ellipse fill="none" stroke="black" cx="322.1" cy="-423.34" rx="50.41" ry="37.45"/>
<text text-anchor="middle" x="322.1" y="-434.64" font-family="Times,serif" font-size="14.00">gamma_g</text>
<text text-anchor="middle" x="322.1" y="-419.64" font-family="Times,serif" font-size="14.00">~</text>
<text text-anchor="middle" x="322.1" y="-404.64" font-family="Times,serif" font-size="14.00">Normal</text>
</g>
<!-- sigma_gamma&#45;&gt;gamma_g -->
<g id="edge1" class="edge">
<title>sigma_gamma&#45;&gt;gamma_g</title>
<path fill="none" stroke="black" d="M211.5,-504.8C227.75,-493.73 246.4,-480.83 263.1,-468.81 268.49,-464.94 274.11,-460.81 279.65,-456.7"/>
<polygon fill="black" stroke="black" points="281.75,-459.49 287.67,-450.7 277.56,-453.89 281.75,-459.49"/>
</g>
<!-- sigma_alpha -->
<g id="node3" class="node">
<title>sigma_alpha</title>
<ellipse fill="none" stroke="black" cx="60.1" cy="-423.34" rx="60.21" ry="37.45"/>
<text text-anchor="middle" x="60.1" y="-434.64" font-family="Times,serif" font-size="14.00">sigma_alpha</text>
<text text-anchor="middle" x="60.1" y="-419.64" font-family="Times,serif" font-size="14.00">~</text>
<text text-anchor="middle" x="60.1" y="-404.64" font-family="Times,serif" font-size="14.00">Exponential</text>
</g>
<!-- alpha_s -->
<g id="node11" class="node">
<title>alpha_s</title>
<ellipse fill="none" stroke="black" cx="204.1" cy="-301.38" rx="41.94" ry="37.45"/>
<text text-anchor="middle" x="204.1" y="-312.68" font-family="Times,serif" font-size="14.00">alpha_s</text>
<text text-anchor="middle" x="204.1" y="-297.68" font-family="Times,serif" font-size="14.00">~</text>
<text text-anchor="middle" x="204.1" y="-282.68" font-family="Times,serif" font-size="14.00">Normal</text>
</g>
<!-- sigma_alpha&#45;&gt;alpha_s -->
<g id="edge5" class="edge">
<title>sigma_alpha&#45;&gt;alpha_s</title>
<path fill="none" stroke="black" d="M90.35,-390.65C102.06,-378.95 115.82,-365.88 129.1,-354.86 139.53,-346.21 151.34,-337.5 162.44,-329.73"/>
<polygon fill="black" stroke="black" points="164.52,-332.55 170.76,-323.99 160.54,-326.79 164.52,-332.55"/>
</g>
<!-- mu_gamma -->
<g id="node4" class="node">
<title>mu_gamma</title>
<ellipse fill="none" stroke="black" cx="314.1" cy="-534.29" rx="58.88" ry="37.45"/>
<text text-anchor="middle" x="314.1" y="-545.59" font-family="Times,serif" font-size="14.00">mu_gamma</text>
<text text-anchor="middle" x="314.1" y="-530.59" font-family="Times,serif" font-size="14.00">~</text>
<text text-anchor="middle" x="314.1" y="-515.59" font-family="Times,serif" font-size="14.00">Normal</text>
</g>
<!-- mu_gamma&#45;&gt;gamma_g -->
<g id="edge2" class="edge">
<title>mu_gamma&#45;&gt;gamma_g</title>
<path fill="none" stroke="black" d="M316.79,-496.71C317.39,-488.53 318.04,-479.75 318.66,-471.23"/>
<polygon fill="black" stroke="black" points="322.17,-471.24 319.41,-461.01 315.19,-470.73 322.17,-471.24"/>
</g>
<!-- mu_delta -->
<g id="node5" class="node">
<title>mu_delta</title>
<ellipse fill="none" stroke="black" cx="439.1" cy="-534.29" rx="48.17" ry="37.45"/>
<text text-anchor="middle" x="439.1" y="-545.59" font-family="Times,serif" font-size="14.00">mu_delta</text>
<text text-anchor="middle" x="439.1" y="-530.59" font-family="Times,serif" font-size="14.00">~</text>
<text text-anchor="middle" x="439.1" y="-515.59" font-family="Times,serif" font-size="14.00">Normal</text>
</g>
<!-- delta_g -->
<g id="node9" class="node">
<title>delta_g</title>
<ellipse fill="none" stroke="black" cx="432.1" cy="-423.34" rx="41.94" ry="37.45"/>
<text text-anchor="middle" x="432.1" y="-434.64" font-family="Times,serif" font-size="14.00">delta_g</text>
<text text-anchor="middle" x="432.1" y="-419.64" font-family="Times,serif" font-size="14.00">~</text>
<text text-anchor="middle" x="432.1" y="-404.64" font-family="Times,serif" font-size="14.00">Normal</text>
</g>
<!-- mu_delta&#45;&gt;delta_g -->
<g id="edge4" class="edge">
<title>mu_delta&#45;&gt;delta_g</title>
<path fill="none" stroke="black" d="M436.75,-496.71C436.23,-488.53 435.66,-479.75 435.12,-471.23"/>
<polygon fill="black" stroke="black" points="438.59,-470.76 434.46,-461.01 431.61,-471.21 438.59,-470.76"/>
</g>
<!-- sigma -->
<g id="node6" class="node">
<title>sigma</title>
<ellipse fill="none" stroke="black" cx="426.1" cy="-187.43" rx="57.97" ry="37.45"/>
<text text-anchor="middle" x="426.1" y="-198.73" font-family="Times,serif" font-size="14.00">sigma</text>
<text text-anchor="middle" x="426.1" y="-183.73" font-family="Times,serif" font-size="14.00">~</text>
<text text-anchor="middle" x="426.1" y="-168.73" font-family="Times,serif" font-size="14.00">Exponential</text>
</g>
<!-- logfc -->
<g id="node14" class="node">
<title>logfc</title>
<ellipse fill="lightgrey" stroke="black" cx="307.1" cy="-76.48" rx="41.94" ry="37.45"/>
<text text-anchor="middle" x="307.1" y="-87.78" font-family="Times,serif" font-size="14.00">logfc</text>
<text text-anchor="middle" x="307.1" y="-72.78" font-family="Times,serif" font-size="14.00">~</text>
<text text-anchor="middle" x="307.1" y="-57.78" font-family="Times,serif" font-size="14.00">Normal</text>
</g>
<!-- sigma&#45;&gt;logfc -->
<g id="edge13" class="edge">
<title>sigma&#45;&gt;logfc</title>
<path fill="none" stroke="black" d="M393.27,-156.37C377.78,-142.19 359.25,-125.22 343.35,-110.66"/>
<polygon fill="black" stroke="black" points="345.52,-107.9 335.78,-103.73 340.79,-113.07 345.52,-107.9"/>
</g>
<!-- sigma_delta -->
<g id="node7" class="node">
<title>sigma_delta</title>
<ellipse fill="none" stroke="black" cx="563.1" cy="-534.29" rx="57.97" ry="37.45"/>
<text text-anchor="middle" x="563.1" y="-545.59" font-family="Times,serif" font-size="14.00">sigma_delta</text>
<text text-anchor="middle" x="563.1" y="-530.59" font-family="Times,serif" font-size="14.00">~</text>
<text text-anchor="middle" x="563.1" y="-515.59" font-family="Times,serif" font-size="14.00">Exponential</text>
</g>
<!-- sigma_delta&#45;&gt;delta_g -->
<g id="edge3" class="edge">
<title>sigma_delta&#45;&gt;delta_g</title>
<path fill="none" stroke="black" d="M528,-504.09C510.25,-489.33 488.68,-471.39 470.5,-456.27"/>
<polygon fill="black" stroke="black" points="472.33,-453.24 462.41,-449.54 467.86,-458.63 472.33,-453.24"/>
</g>
<!-- alpha -->
<g id="node8" class="node">
<title>alpha</title>
<ellipse fill="none" stroke="black" cx="406.1" cy="-301.38" rx="41.94" ry="37.45"/>
<text text-anchor="middle" x="406.1" y="-312.68" font-family="Times,serif" font-size="14.00">alpha</text>
<text text-anchor="middle" x="406.1" y="-297.68" font-family="Times,serif" font-size="14.00">~</text>
<text text-anchor="middle" x="406.1" y="-282.68" font-family="Times,serif" font-size="14.00">Normal</text>
</g>
<!-- mu_s -->
<g id="node13" class="node">
<title>mu_s</title>
<polygon fill="none" stroke="black" points="350.6,-213.93 259.6,-213.93 259.6,-160.93 350.6,-160.93 350.6,-213.93"/>
<text text-anchor="middle" x="305.1" y="-198.73" font-family="Times,serif" font-size="14.00">mu_s</text>
<text text-anchor="middle" x="305.1" y="-183.73" font-family="Times,serif" font-size="14.00">~</text>
<text text-anchor="middle" x="305.1" y="-168.73" font-family="Times,serif" font-size="14.00">Deterministic</text>
</g>
<!-- alpha&#45;&gt;mu_s -->
<g id="edge11" class="edge">
<title>alpha&#45;&gt;mu_s</title>
<path fill="none" stroke="black" d="M386.26,-268.13C378.44,-256.5 368.98,-243.61 359.1,-232.91 355.35,-228.83 351.21,-224.8 346.96,-220.92"/>
<polygon fill="black" stroke="black" points="349.04,-218.09 339.22,-214.13 344.43,-223.36 349.04,-218.09"/>
</g>
<!-- delta_g&#45;&gt;beta_s -->
<g id="edge7" class="edge">
<title>delta_g&#45;&gt;beta_s</title>
<path fill="none" stroke="black" d="M413.46,-389.53C404.99,-377.14 393.97,-363.87 381.1,-354.86 371.2,-347.92 365.64,-352.79 355.1,-346.86 349.92,-343.94 344.8,-340.4 339.94,-336.62"/>
<polygon fill="black" stroke="black" points="341.96,-333.75 332.02,-330.08 337.5,-339.15 341.96,-333.75"/>
</g>
<!-- gamma_g&#45;&gt;alpha_s -->
<g id="edge6" class="edge">
<title>gamma_g&#45;&gt;alpha_s</title>
<path fill="none" stroke="black" d="M296.17,-391.03C286.15,-379.39 274.39,-366.24 263.1,-354.86 259.34,-351.06 258.1,-350.42 254.1,-346.86 249.77,-343 245.22,-338.96 240.7,-334.94"/>
<polygon fill="black" stroke="black" points="242.98,-332.29 233.19,-328.26 238.33,-337.52 242.98,-332.29"/>
</g>
<!-- alpha_s&#45;&gt;mu_s -->
<g id="edge9" class="edge">
<title>alpha_s&#45;&gt;mu_s</title>
<path fill="none" stroke="black" d="M225.42,-268.71C233.83,-257.02 243.92,-243.94 254.1,-232.91 257.84,-228.86 261.92,-224.81 266.09,-220.88"/>
<polygon fill="black" stroke="black" points="268.61,-223.31 273.64,-213.98 263.89,-218.14 268.61,-223.31"/>
</g>
<!-- beta_s&#45;&gt;mu_s -->
<g id="edge10" class="edge">
<title>beta_s&#45;&gt;mu_s</title>
<path fill="none" stroke="black" d="M305.1,-263.73C305.1,-251.07 305.1,-236.92 305.1,-224.32"/>
<polygon fill="black" stroke="black" points="308.6,-224.18 305.1,-214.18 301.6,-224.18 308.6,-224.18"/>
</g>
<!-- mu_s&#45;&gt;logfc -->
<g id="edge12" class="edge">
<title>mu_s&#45;&gt;logfc</title>
<path fill="none" stroke="black" d="M305.57,-160.89C305.77,-149.98 306.01,-136.89 306.24,-124.35"/>
<polygon fill="black" stroke="black" points="309.75,-124.06 306.43,-114 302.75,-123.94 309.75,-124.06"/>
</g>
</g>
</svg>
