<?xml version="1.0" encoding="UTF-8" standalone="no"?>
<!DOCTYPE svg PUBLIC "-//W3C//DTD SVG 1.1//EN"
 "http://www.w3.org/Graphics/SVG/1.1/DTD/svg11.dtd">
<!-- Generated by graphviz version 3.0.0 (20220315.2325)
 -->
<!-- Pages: 1 -->
<svg width="1867pt" height="674pt"
 viewBox="0.00 0.00 1867.13 673.79" xmlns="http://www.w3.org/2000/svg" xmlns:xlink="http://www.w3.org/1999/xlink">
<g id="graph0" class="graph" transform="scale(1 1) rotate(0) translate(4 669.79)">
<polygon fill="white" stroke="transparent" points="-4,4 -4,-669.79 1863.13,-669.79 1863.13,4 -4,4"/>
<g id="clust1" class="cluster">
<title>clustersgrna (60)</title>
<path fill="none" stroke="black" d="M1560.13,-332.88C1560.13,-332.88 1644.13,-332.88 1644.13,-332.88 1650.13,-332.88 1656.13,-338.88 1656.13,-344.88 1656.13,-344.88 1656.13,-534.84 1656.13,-534.84 1656.13,-540.84 1650.13,-546.84 1644.13,-546.84 1644.13,-546.84 1560.13,-546.84 1560.13,-546.84 1554.13,-546.84 1548.13,-540.84 1548.13,-534.84 1548.13,-534.84 1548.13,-344.88 1548.13,-344.88 1548.13,-338.88 1554.13,-332.88 1560.13,-332.88"/>
<text text-anchor="middle" x="1619.13" y="-340.68" font-family="Times,serif" font-size="14.00">sgrna (60)</text>
</g>
<g id="clust2" class="cluster">
<title>clustercell_line (10)</title>
<path fill="none" stroke="black" d="M106.13,-443.86C106.13,-443.86 300.13,-443.86 300.13,-443.86 306.13,-443.86 312.13,-449.86 312.13,-455.86 312.13,-455.86 312.13,-645.79 312.13,-645.79 312.13,-651.79 306.13,-657.79 300.13,-657.79 300.13,-657.79 106.13,-657.79 106.13,-657.79 100.13,-657.79 94.13,-651.79 94.13,-645.79 94.13,-645.79 94.13,-455.86 94.13,-455.86 94.13,-449.86 100.13,-443.86 106.13,-443.86"/>
<text text-anchor="middle" x="267.63" y="-451.66" font-family="Times,serif" font-size="14.00">cell_line (10)</text>
</g>
<g id="clust3" class="cluster">
<title>clustergene (20) x lineage (2)</title>
<path fill="none" stroke="black" d="M430.13,-443.86C430.13,-443.86 844.13,-443.86 844.13,-443.86 850.13,-443.86 856.13,-449.86 856.13,-455.86 856.13,-455.86 856.13,-645.79 856.13,-645.79 856.13,-651.79 850.13,-657.79 844.13,-657.79 844.13,-657.79 430.13,-657.79 430.13,-657.79 424.13,-657.79 418.13,-651.79 418.13,-645.79 418.13,-645.79 418.13,-455.86 418.13,-455.86 418.13,-449.86 424.13,-443.86 430.13,-443.86"/>
<text text-anchor="middle" x="785.63" y="-451.66" font-family="Times,serif" font-size="14.00">gene (20) x lineage (2)</text>
</g>
<g id="clust4" class="cluster">
<title>clustergene (20) x cancer_gene (31) x lineage (2)</title>
<path fill="none" stroke="black" d="M1303.13,-443.86C1303.13,-443.86 1528.13,-443.86 1528.13,-443.86 1534.13,-443.86 1540.13,-449.86 1540.13,-455.86 1540.13,-455.86 1540.13,-645.79 1540.13,-645.79 1540.13,-651.79 1534.13,-657.79 1528.13,-657.79 1528.13,-657.79 1303.13,-657.79 1303.13,-657.79 1297.13,-657.79 1291.13,-651.79 1291.13,-645.79 1291.13,-645.79 1291.13,-455.86 1291.13,-455.86 1291.13,-449.86 1297.13,-443.86 1303.13,-443.86"/>
<text text-anchor="middle" x="1415.63" y="-451.66" font-family="Times,serif" font-size="14.00">gene (20) x cancer_gene (31) x lineage (2)</text>
</g>
<g id="clust5" class="cluster">
<title>clustergene (20) x screen (2)</title>
<path fill="none" stroke="black" d="M1726.13,-321.91C1726.13,-321.91 1839.13,-321.91 1839.13,-321.91 1845.13,-321.91 1851.13,-327.91 1851.13,-333.91 1851.13,-333.91 1851.13,-423.86 1851.13,-423.86 1851.13,-429.86 1845.13,-435.86 1839.13,-435.86 1839.13,-435.86 1726.13,-435.86 1726.13,-435.86 1720.13,-435.86 1714.13,-429.86 1714.13,-423.86 1714.13,-423.86 1714.13,-333.91 1714.13,-333.91 1714.13,-327.91 1720.13,-321.91 1726.13,-321.91"/>
<text text-anchor="middle" x="1782.63" y="-329.71" font-family="Times,serif" font-size="14.00">gene (20) x screen (2)</text>
</g>
<g id="clust6" class="cluster">
<title>cluster336</title>
<path fill="none" stroke="black" d="M532.13,-8C532.13,-8 734.13,-8 734.13,-8 740.13,-8 746.13,-14 746.13,-20 746.13,-20 746.13,-412.88 746.13,-412.88 746.13,-418.88 740.13,-424.88 734.13,-424.88 734.13,-424.88 532.13,-424.88 532.13,-424.88 526.13,-424.88 520.13,-418.88 520.13,-412.88 520.13,-412.88 520.13,-20 520.13,-20 520.13,-14 526.13,-8 532.13,-8"/>
<text text-anchor="middle" x="727.63" y="-15.8" font-family="Times,serif" font-size="14.00">336</text>
</g>
<!-- sigma_f -->
<g id="node1" class="node">
<title>sigma_f</title>
<ellipse fill="none" stroke="black" cx="43.13" cy="-612.31" rx="43.27" ry="37.45"/>
<text text-anchor="middle" x="43.13" y="-623.61" font-family="Times,serif" font-size="14.00">sigma_f</text>
<text text-anchor="middle" x="43.13" y="-608.61" font-family="Times,serif" font-size="14.00">~</text>
<text text-anchor="middle" x="43.13" y="-593.61" font-family="Times,serif" font-size="14.00">Gamma</text>
</g>
<!-- f -->
<g id="node17" class="node">
<title>f</title>
<polygon fill="none" stroke="black" points="194.13,-527.86 102.13,-527.86 102.13,-474.86 194.13,-474.86 194.13,-527.86"/>
<text text-anchor="middle" x="148.13" y="-512.66" font-family="Times,serif" font-size="14.00">f</text>
<text text-anchor="middle" x="148.13" y="-497.66" font-family="Times,serif" font-size="14.00">~</text>
<text text-anchor="middle" x="148.13" y="-482.66" font-family="Times,serif" font-size="14.00">Deterministic</text>
</g>
<!-- sigma_f&#45;&gt;f -->
<g id="edge8" class="edge">
<title>sigma_f&#45;&gt;f</title>
<path fill="none" stroke="black" d="M70.45,-582.97C84.55,-568.34 101.82,-550.42 116.5,-535.19"/>
<polygon fill="black" stroke="black" points="119.05,-537.58 123.47,-527.95 114.01,-532.72 119.05,-537.58"/>
</g>
<!-- alpha -->
<g id="node2" class="node">
<title>alpha</title>
<ellipse fill="none" stroke="black" cx="797.13" cy="-187.43" rx="43.27" ry="37.45"/>
<text text-anchor="middle" x="797.13" y="-198.73" font-family="Times,serif" font-size="14.00">alpha</text>
<text text-anchor="middle" x="797.13" y="-183.73" font-family="Times,serif" font-size="14.00">~</text>
<text text-anchor="middle" x="797.13" y="-168.73" font-family="Times,serif" font-size="14.00">Gamma</text>
</g>
<!-- ct_final -->
<g id="node33" class="node">
<title>ct_final</title>
<ellipse fill="lightgrey" stroke="black" cx="656.13" cy="-76.48" rx="63.78" ry="37.45"/>
<text text-anchor="middle" x="656.13" y="-87.78" font-family="Times,serif" font-size="14.00">ct_final</text>
<text text-anchor="middle" x="656.13" y="-72.78" font-family="Times,serif" font-size="14.00">~</text>
<text text-anchor="middle" x="656.13" y="-57.78" font-family="Times,serif" font-size="14.00">NegBinomial</text>
</g>
<!-- alpha&#45;&gt;ct_final -->
<g id="edge31" class="edge">
<title>alpha&#45;&gt;ct_final</title>
<path fill="none" stroke="black" d="M765.54,-161.89C760.39,-157.9 755.12,-153.81 750.13,-149.95 734.59,-137.93 717.59,-124.81 702.37,-113.08"/>
<polygon fill="black" stroke="black" points="704.17,-110.05 694.12,-106.72 699.9,-115.6 704.17,-110.05"/>
</g>
<!-- sigma_b -->
<g id="node3" class="node">
<title>sigma_b</title>
<ellipse fill="none" stroke="black" cx="365.13" cy="-612.31" rx="44.6" ry="37.45"/>
<text text-anchor="middle" x="365.13" y="-623.61" font-family="Times,serif" font-size="14.00">sigma_b</text>
<text text-anchor="middle" x="365.13" y="-608.61" font-family="Times,serif" font-size="14.00">~</text>
<text text-anchor="middle" x="365.13" y="-593.61" font-family="Times,serif" font-size="14.00">Gamma</text>
</g>
<!-- b -->
<g id="node16" class="node">
<title>b</title>
<polygon fill="none" stroke="black" points="304.13,-527.86 212.13,-527.86 212.13,-474.86 304.13,-474.86 304.13,-527.86"/>
<text text-anchor="middle" x="258.13" y="-512.66" font-family="Times,serif" font-size="14.00">b</text>
<text text-anchor="middle" x="258.13" y="-497.66" font-family="Times,serif" font-size="14.00">~</text>
<text text-anchor="middle" x="258.13" y="-482.66" font-family="Times,serif" font-size="14.00">Deterministic</text>
</g>
<!-- sigma_b&#45;&gt;b -->
<g id="edge4" class="edge">
<title>sigma_b&#45;&gt;b</title>
<path fill="none" stroke="black" d="M337.3,-582.97C322.93,-568.34 305.33,-550.42 290.37,-535.19"/>
<polygon fill="black" stroke="black" points="292.77,-532.64 283.27,-527.95 287.78,-537.54 292.77,-532.64"/>
</g>
<!-- sigma_h -->
<g id="node4" class="node">
<title>sigma_h</title>
<ellipse fill="none" stroke="black" cx="909.13" cy="-612.31" rx="44.6" ry="37.45"/>
<text text-anchor="middle" x="909.13" y="-623.61" font-family="Times,serif" font-size="14.00">sigma_h</text>
<text text-anchor="middle" x="909.13" y="-608.61" font-family="Times,serif" font-size="14.00">~</text>
<text text-anchor="middle" x="909.13" y="-593.61" font-family="Times,serif" font-size="14.00">Gamma</text>
</g>
<!-- h -->
<g id="node20" class="node">
<title>h</title>
<polygon fill="none" stroke="black" points="518.13,-527.86 426.13,-527.86 426.13,-474.86 518.13,-474.86 518.13,-527.86"/>
<text text-anchor="middle" x="472.13" y="-512.66" font-family="Times,serif" font-size="14.00">h</text>
<text text-anchor="middle" x="472.13" y="-497.66" font-family="Times,serif" font-size="14.00">~</text>
<text text-anchor="middle" x="472.13" y="-482.66" font-family="Times,serif" font-size="14.00">Deterministic</text>
</g>
<!-- sigma_h&#45;&gt;h -->
<g id="edge9" class="edge">
<title>sigma_h&#45;&gt;h</title>
<path fill="none" stroke="black" d="M878.77,-584.77C872.91,-580.83 866.58,-577.28 860.13,-574.84 721.23,-522.25 664.95,-602.19 527.13,-546.84 519.6,-543.81 512.29,-539.38 505.59,-534.48"/>
<polygon fill="black" stroke="black" points="507.49,-531.52 497.46,-528.08 503.16,-537.02 507.49,-531.52"/>
</g>
<!-- sigma_m -->
<g id="node5" class="node">
<title>sigma_m</title>
<ellipse fill="none" stroke="black" cx="1020.13" cy="-612.31" rx="48.17" ry="37.45"/>
<text text-anchor="middle" x="1020.13" y="-623.61" font-family="Times,serif" font-size="14.00">sigma_m</text>
<text text-anchor="middle" x="1020.13" y="-608.61" font-family="Times,serif" font-size="14.00">~</text>
<text text-anchor="middle" x="1020.13" y="-593.61" font-family="Times,serif" font-size="14.00">Gamma</text>
</g>
<!-- m -->
<g id="node24" class="node">
<title>m</title>
<polygon fill="none" stroke="black" points="628.13,-527.86 536.13,-527.86 536.13,-474.86 628.13,-474.86 628.13,-527.86"/>
<text text-anchor="middle" x="582.13" y="-512.66" font-family="Times,serif" font-size="14.00">m</text>
<text text-anchor="middle" x="582.13" y="-497.66" font-family="Times,serif" font-size="14.00">~</text>
<text text-anchor="middle" x="582.13" y="-482.66" font-family="Times,serif" font-size="14.00">Deterministic</text>
</g>
<!-- sigma_m&#45;&gt;m -->
<g id="edge13" class="edge">
<title>sigma_m&#45;&gt;m</title>
<path fill="none" stroke="black" d="M985.92,-585.72C978.71,-581.41 970.92,-577.48 963.13,-574.84 825.44,-528.06 772.03,-601.16 637.13,-546.84 629.6,-543.8 622.3,-539.37 615.6,-534.47"/>
<polygon fill="black" stroke="black" points="617.49,-531.5 607.47,-528.07 613.16,-537 617.49,-531.5"/>
</g>
<!-- z -->
<g id="node6" class="node">
<title>z</title>
<ellipse fill="none" stroke="black" cx="798.13" cy="-390.38" rx="41.94" ry="37.45"/>
<text text-anchor="middle" x="798.13" y="-401.68" font-family="Times,serif" font-size="14.00">z</text>
<text text-anchor="middle" x="798.13" y="-386.68" font-family="Times,serif" font-size="14.00">~</text>
<text text-anchor="middle" x="798.13" y="-371.68" font-family="Times,serif" font-size="14.00">Normal</text>
</g>
<!-- eta -->
<g id="node29" class="node">
<title>eta</title>
<polygon fill="none" stroke="black" points="738.13,-313.91 646.13,-313.91 646.13,-260.91 738.13,-260.91 738.13,-313.91"/>
<text text-anchor="middle" x="692.13" y="-298.71" font-family="Times,serif" font-size="14.00">eta</text>
<text text-anchor="middle" x="692.13" y="-283.71" font-family="Times,serif" font-size="14.00">~</text>
<text text-anchor="middle" x="692.13" y="-268.71" font-family="Times,serif" font-size="14.00">Deterministic</text>
</g>
<!-- z&#45;&gt;eta -->
<g id="edge25" class="edge">
<title>z&#45;&gt;eta</title>
<path fill="none" stroke="black" d="M779.16,-356.91C771.19,-344.99 761.19,-331.97 750.13,-321.91 749,-320.88 747.84,-319.87 746.64,-318.88"/>
<polygon fill="black" stroke="black" points="748.47,-315.87 738.39,-312.61 744.23,-321.44 748.47,-315.87"/>
</g>
<!-- sigma_a -->
<g id="node7" class="node">
<title>sigma_a</title>
<ellipse fill="none" stroke="black" cx="1708.13" cy="-501.36" rx="43.68" ry="37.45"/>
<text text-anchor="middle" x="1708.13" y="-512.66" font-family="Times,serif" font-size="14.00">sigma_a</text>
<text text-anchor="middle" x="1708.13" y="-497.66" font-family="Times,serif" font-size="14.00">~</text>
<text text-anchor="middle" x="1708.13" y="-482.66" font-family="Times,serif" font-size="14.00">Gamma</text>
</g>
<!-- a -->
<g id="node12" class="node">
<title>a</title>
<polygon fill="none" stroke="black" points="1648.13,-416.88 1556.13,-416.88 1556.13,-363.88 1648.13,-363.88 1648.13,-416.88"/>
<text text-anchor="middle" x="1602.13" y="-401.68" font-family="Times,serif" font-size="14.00">a</text>
<text text-anchor="middle" x="1602.13" y="-386.68" font-family="Times,serif" font-size="14.00">~</text>
<text text-anchor="middle" x="1602.13" y="-371.68" font-family="Times,serif" font-size="14.00">Deterministic</text>
</g>
<!-- sigma_a&#45;&gt;a -->
<g id="edge1" class="edge">
<title>sigma_a&#45;&gt;a</title>
<path fill="none" stroke="black" d="M1683.68,-470.1C1676.34,-461.42 1668.11,-452.09 1660.13,-443.86 1653.68,-437.2 1646.54,-430.36 1639.54,-423.91"/>
<polygon fill="black" stroke="black" points="1641.79,-421.23 1632.04,-417.09 1637.08,-426.4 1641.79,-421.23"/>
</g>
<!-- sigma_d -->
<g id="node8" class="node">
<title>sigma_d</title>
<ellipse fill="none" stroke="black" cx="1131.13" cy="-612.31" rx="44.6" ry="37.45"/>
<text text-anchor="middle" x="1131.13" y="-623.61" font-family="Times,serif" font-size="14.00">sigma_d</text>
<text text-anchor="middle" x="1131.13" y="-608.61" font-family="Times,serif" font-size="14.00">~</text>
<text text-anchor="middle" x="1131.13" y="-593.61" font-family="Times,serif" font-size="14.00">Gamma</text>
</g>
<!-- d -->
<g id="node21" class="node">
<title>d</title>
<polygon fill="none" stroke="black" points="738.13,-527.86 646.13,-527.86 646.13,-474.86 738.13,-474.86 738.13,-527.86"/>
<text text-anchor="middle" x="692.13" y="-512.66" font-family="Times,serif" font-size="14.00">d</text>
<text text-anchor="middle" x="692.13" y="-497.66" font-family="Times,serif" font-size="14.00">~</text>
<text text-anchor="middle" x="692.13" y="-482.66" font-family="Times,serif" font-size="14.00">Deterministic</text>
</g>
<!-- sigma_d&#45;&gt;d -->
<g id="edge6" class="edge">
<title>sigma_d&#45;&gt;d</title>
<path fill="none" stroke="black" d="M1099.16,-585.89C1092.23,-581.51 1084.71,-577.51 1077.13,-574.84 938.33,-525.84 883.7,-601.75 747.13,-546.84 739.6,-543.81 732.3,-539.38 725.6,-534.47"/>
<polygon fill="black" stroke="black" points="727.49,-531.51 717.47,-528.08 723.16,-537.01 727.49,-531.51"/>
</g>
<!-- sigma_k -->
<g id="node9" class="node">
<title>sigma_k</title>
<ellipse fill="none" stroke="black" cx="1238.13" cy="-612.31" rx="44.6" ry="37.45"/>
<text text-anchor="middle" x="1238.13" y="-623.61" font-family="Times,serif" font-size="14.00">sigma_k</text>
<text text-anchor="middle" x="1238.13" y="-608.61" font-family="Times,serif" font-size="14.00">~</text>
<text text-anchor="middle" x="1238.13" y="-593.61" font-family="Times,serif" font-size="14.00">Gamma</text>
</g>
<!-- k -->
<g id="node19" class="node">
<title>k</title>
<polygon fill="none" stroke="black" points="848.13,-527.86 756.13,-527.86 756.13,-474.86 848.13,-474.86 848.13,-527.86"/>
<text text-anchor="middle" x="802.13" y="-512.66" font-family="Times,serif" font-size="14.00">k</text>
<text text-anchor="middle" x="802.13" y="-497.66" font-family="Times,serif" font-size="14.00">~</text>
<text text-anchor="middle" x="802.13" y="-482.66" font-family="Times,serif" font-size="14.00">Deterministic</text>
</g>
<!-- sigma_k&#45;&gt;k -->
<g id="edge11" class="edge">
<title>sigma_k&#45;&gt;k</title>
<path fill="none" stroke="black" d="M1206,-586.1C1199.38,-581.82 1192.25,-577.8 1185.13,-574.84 1075.21,-529.02 935.44,-511.95 858.79,-505.75"/>
<polygon fill="black" stroke="black" points="858.64,-502.23 848.4,-504.94 858.1,-509.21 858.64,-502.23"/>
</g>
<!-- sigma_w -->
<g id="node10" class="node">
<title>sigma_w</title>
<ellipse fill="none" stroke="black" cx="1595.13" cy="-612.31" rx="46.84" ry="37.45"/>
<text text-anchor="middle" x="1595.13" y="-623.61" font-family="Times,serif" font-size="14.00">sigma_w</text>
<text text-anchor="middle" x="1595.13" y="-608.61" font-family="Times,serif" font-size="14.00">~</text>
<text text-anchor="middle" x="1595.13" y="-593.61" font-family="Times,serif" font-size="14.00">Gamma</text>
</g>
<!-- w -->
<g id="node26" class="node">
<title>w</title>
<polygon fill="none" stroke="black" points="1461.13,-527.86 1369.13,-527.86 1369.13,-474.86 1461.13,-474.86 1461.13,-527.86"/>
<text text-anchor="middle" x="1415.13" y="-512.66" font-family="Times,serif" font-size="14.00">w</text>
<text text-anchor="middle" x="1415.13" y="-497.66" font-family="Times,serif" font-size="14.00">~</text>
<text text-anchor="middle" x="1415.13" y="-482.66" font-family="Times,serif" font-size="14.00">Deterministic</text>
</g>
<!-- sigma_w&#45;&gt;w -->
<g id="edge15" class="edge">
<title>sigma_w&#45;&gt;w</title>
<path fill="none" stroke="black" d="M1561.19,-586.26C1555.57,-582.34 1549.74,-578.4 1544.13,-574.84 1520.4,-559.75 1493.38,-544.31 1470.22,-531.58"/>
<polygon fill="black" stroke="black" points="1471.67,-528.39 1461.22,-526.66 1468.31,-534.53 1471.67,-528.39"/>
</g>
<!-- sigma_p -->
<g id="node11" class="node">
<title>sigma_p</title>
<ellipse fill="none" stroke="black" cx="1814.13" cy="-501.36" rx="44.6" ry="37.45"/>
<text text-anchor="middle" x="1814.13" y="-512.66" font-family="Times,serif" font-size="14.00">sigma_p</text>
<text text-anchor="middle" x="1814.13" y="-497.66" font-family="Times,serif" font-size="14.00">~</text>
<text text-anchor="middle" x="1814.13" y="-482.66" font-family="Times,serif" font-size="14.00">Gamma</text>
</g>
<!-- p -->
<g id="node28" class="node">
<title>p</title>
<ellipse fill="none" stroke="black" cx="1782.13" cy="-390.38" rx="41.94" ry="37.45"/>
<text text-anchor="middle" x="1782.13" y="-401.68" font-family="Times,serif" font-size="14.00">p</text>
<text text-anchor="middle" x="1782.13" y="-386.68" font-family="Times,serif" font-size="14.00">~</text>
<text text-anchor="middle" x="1782.13" y="-371.68" font-family="Times,serif" font-size="14.00">Normal</text>
</g>
<!-- sigma_p&#45;&gt;p -->
<g id="edge17" class="edge">
<title>sigma_p&#45;&gt;p</title>
<path fill="none" stroke="black" d="M1803.66,-464.68C1801,-455.65 1798.12,-445.83 1795.35,-436.41"/>
<polygon fill="black" stroke="black" points="1798.7,-435.38 1792.53,-426.77 1791.99,-437.36 1798.7,-435.38"/>
</g>
<!-- a&#45;&gt;eta -->
<g id="edge28" class="edge">
<title>a&#45;&gt;eta</title>
<path fill="none" stroke="black" d="M1556.07,-384.27C1403.45,-367.34 914.62,-313.09 748.22,-294.63"/>
<polygon fill="black" stroke="black" points="748.52,-291.14 738.2,-293.52 747.75,-298.1 748.52,-291.14"/>
</g>
<!-- delta_a -->
<g id="node13" class="node">
<title>delta_a</title>
<ellipse fill="none" stroke="black" cx="1602.13" cy="-501.36" rx="41.94" ry="37.45"/>
<text text-anchor="middle" x="1602.13" y="-512.66" font-family="Times,serif" font-size="14.00">delta_a</text>
<text text-anchor="middle" x="1602.13" y="-497.66" font-family="Times,serif" font-size="14.00">~</text>
<text text-anchor="middle" x="1602.13" y="-482.66" font-family="Times,serif" font-size="14.00">Normal</text>
</g>
<!-- delta_a&#45;&gt;a -->
<g id="edge2" class="edge">
<title>delta_a&#45;&gt;a</title>
<path fill="none" stroke="black" d="M1602.13,-463.77C1602.13,-452.03 1602.13,-439.04 1602.13,-427.35"/>
<polygon fill="black" stroke="black" points="1605.63,-427.04 1602.13,-417.04 1598.63,-427.04 1605.63,-427.04"/>
</g>
<!-- delta_f -->
<g id="node14" class="node">
<title>delta_f</title>
<ellipse fill="none" stroke="black" cx="148.13" cy="-612.31" rx="41.94" ry="37.45"/>
<text text-anchor="middle" x="148.13" y="-623.61" font-family="Times,serif" font-size="14.00">delta_f</text>
<text text-anchor="middle" x="148.13" y="-608.61" font-family="Times,serif" font-size="14.00">~</text>
<text text-anchor="middle" x="148.13" y="-593.61" font-family="Times,serif" font-size="14.00">Normal</text>
</g>
<!-- delta_f&#45;&gt;f -->
<g id="edge7" class="edge">
<title>delta_f&#45;&gt;f</title>
<path fill="none" stroke="black" d="M148.13,-574.73C148.13,-562.99 148.13,-550.01 148.13,-538.31"/>
<polygon fill="black" stroke="black" points="151.63,-538.01 148.13,-528.01 144.63,-538.01 151.63,-538.01"/>
</g>
<!-- delta_b -->
<g id="node15" class="node">
<title>delta_b</title>
<ellipse fill="none" stroke="black" cx="258.13" cy="-612.31" rx="41.94" ry="37.45"/>
<text text-anchor="middle" x="258.13" y="-623.61" font-family="Times,serif" font-size="14.00">delta_b</text>
<text text-anchor="middle" x="258.13" y="-608.61" font-family="Times,serif" font-size="14.00">~</text>
<text text-anchor="middle" x="258.13" y="-593.61" font-family="Times,serif" font-size="14.00">Normal</text>
</g>
<!-- delta_b&#45;&gt;b -->
<g id="edge3" class="edge">
<title>delta_b&#45;&gt;b</title>
<path fill="none" stroke="black" d="M258.13,-574.73C258.13,-562.99 258.13,-550.01 258.13,-538.31"/>
<polygon fill="black" stroke="black" points="261.63,-538.01 258.13,-528.01 254.63,-538.01 261.63,-538.01"/>
</g>
<!-- cell_line_effect -->
<g id="node31" class="node">
<title>cell_line_effect</title>
<polygon fill="none" stroke="black" points="628.13,-416.88 528.13,-416.88 528.13,-363.88 628.13,-363.88 628.13,-416.88"/>
<text text-anchor="middle" x="578.13" y="-401.68" font-family="Times,serif" font-size="14.00">cell_line_effect</text>
<text text-anchor="middle" x="578.13" y="-386.68" font-family="Times,serif" font-size="14.00">~</text>
<text text-anchor="middle" x="578.13" y="-371.68" font-family="Times,serif" font-size="14.00">Deterministic</text>
</g>
<!-- b&#45;&gt;cell_line_effect -->
<g id="edge24" class="edge">
<title>b&#45;&gt;cell_line_effect</title>
<path fill="none" stroke="black" d="M304.39,-483.09C335.34,-471.66 377.05,-456.5 414.13,-443.86 448.47,-432.15 487.11,-419.75 518.26,-409.94"/>
<polygon fill="black" stroke="black" points="519.6,-413.19 528.09,-406.86 517.5,-406.51 519.6,-413.19"/>
</g>
<!-- f&#45;&gt;cell_line_effect -->
<g id="edge23" class="edge">
<title>f&#45;&gt;cell_line_effect</title>
<path fill="none" stroke="black" d="M166.78,-474.59C176.35,-463.31 188.97,-451.04 203.13,-443.86 256.92,-416.61 426.15,-401.47 517.78,-395.07"/>
<polygon fill="black" stroke="black" points="518.28,-398.55 528.02,-394.37 517.8,-391.56 518.28,-398.55"/>
</g>
<!-- delta_m -->
<g id="node18" class="node">
<title>delta_m</title>
<ellipse fill="none" stroke="black" cx="582.13" cy="-612.31" rx="43.27" ry="37.45"/>
<text text-anchor="middle" x="582.13" y="-623.61" font-family="Times,serif" font-size="14.00">delta_m</text>
<text text-anchor="middle" x="582.13" y="-608.61" font-family="Times,serif" font-size="14.00">~</text>
<text text-anchor="middle" x="582.13" y="-593.61" font-family="Times,serif" font-size="14.00">Normal</text>
</g>
<!-- delta_m&#45;&gt;m -->
<g id="edge14" class="edge">
<title>delta_m&#45;&gt;m</title>
<path fill="none" stroke="black" d="M582.13,-574.73C582.13,-562.99 582.13,-550.01 582.13,-538.31"/>
<polygon fill="black" stroke="black" points="585.63,-538.01 582.13,-528.01 578.63,-538.01 585.63,-538.01"/>
</g>
<!-- gene_effect -->
<g id="node30" class="node">
<title>gene_effect</title>
<polygon fill="none" stroke="black" points="738.13,-416.88 646.13,-416.88 646.13,-363.88 738.13,-363.88 738.13,-416.88"/>
<text text-anchor="middle" x="692.13" y="-401.68" font-family="Times,serif" font-size="14.00">gene_effect</text>
<text text-anchor="middle" x="692.13" y="-386.68" font-family="Times,serif" font-size="14.00">~</text>
<text text-anchor="middle" x="692.13" y="-371.68" font-family="Times,serif" font-size="14.00">Deterministic</text>
</g>
<!-- k&#45;&gt;gene_effect -->
<g id="edge21" class="edge">
<title>k&#45;&gt;gene_effect</title>
<path fill="none" stroke="black" d="M777.69,-474.85C768.22,-465.08 757.25,-453.88 747.13,-443.86 740.59,-437.38 733.53,-430.54 726.72,-424.01"/>
<polygon fill="black" stroke="black" points="729.11,-421.45 719.46,-417.08 724.28,-426.51 729.11,-421.45"/>
</g>
<!-- h&#45;&gt;gene_effect -->
<g id="edge19" class="edge">
<title>h&#45;&gt;gene_effect</title>
<path fill="none" stroke="black" d="M490.08,-474.75C499.66,-463.21 512.49,-450.68 527.13,-443.86 571.57,-423.17 591.55,-453.87 637.13,-435.86 644.76,-432.85 652.15,-428.38 658.91,-423.42"/>
<polygon fill="black" stroke="black" points="661.43,-425.89 667.11,-416.94 657.09,-420.4 661.43,-425.89"/>
</g>
<!-- d&#45;&gt;gene_effect -->
<g id="edge22" class="edge">
<title>d&#45;&gt;gene_effect</title>
<path fill="none" stroke="black" d="M692.13,-474.81C692.13,-460.7 692.13,-442.95 692.13,-427.45"/>
<polygon fill="black" stroke="black" points="695.63,-427.15 692.13,-417.15 688.63,-427.15 695.63,-427.15"/>
</g>
<!-- delta_h -->
<g id="node22" class="node">
<title>delta_h</title>
<ellipse fill="none" stroke="black" cx="472.13" cy="-612.31" rx="41.94" ry="37.45"/>
<text text-anchor="middle" x="472.13" y="-623.61" font-family="Times,serif" font-size="14.00">delta_h</text>
<text text-anchor="middle" x="472.13" y="-608.61" font-family="Times,serif" font-size="14.00">~</text>
<text text-anchor="middle" x="472.13" y="-593.61" font-family="Times,serif" font-size="14.00">Normal</text>
</g>
<!-- delta_h&#45;&gt;h -->
<g id="edge10" class="edge">
<title>delta_h&#45;&gt;h</title>
<path fill="none" stroke="black" d="M472.13,-574.73C472.13,-562.99 472.13,-550.01 472.13,-538.31"/>
<polygon fill="black" stroke="black" points="475.63,-538.01 472.13,-528.01 468.63,-538.01 475.63,-538.01"/>
</g>
<!-- delta_d -->
<g id="node23" class="node">
<title>delta_d</title>
<ellipse fill="none" stroke="black" cx="692.13" cy="-612.31" rx="41.94" ry="37.45"/>
<text text-anchor="middle" x="692.13" y="-623.61" font-family="Times,serif" font-size="14.00">delta_d</text>
<text text-anchor="middle" x="692.13" y="-608.61" font-family="Times,serif" font-size="14.00">~</text>
<text text-anchor="middle" x="692.13" y="-593.61" font-family="Times,serif" font-size="14.00">Normal</text>
</g>
<!-- delta_d&#45;&gt;d -->
<g id="edge5" class="edge">
<title>delta_d&#45;&gt;d</title>
<path fill="none" stroke="black" d="M692.13,-574.73C692.13,-562.99 692.13,-550.01 692.13,-538.31"/>
<polygon fill="black" stroke="black" points="695.63,-538.01 692.13,-528.01 688.63,-538.01 695.63,-538.01"/>
</g>
<!-- m&#45;&gt;gene_effect -->
<g id="edge20" class="edge">
<title>m&#45;&gt;gene_effect</title>
<path fill="none" stroke="black" d="M606.58,-474.85C616.04,-465.08 627.02,-453.88 637.13,-443.86 643.68,-437.38 650.74,-430.54 657.55,-424.01"/>
<polygon fill="black" stroke="black" points="659.99,-426.51 664.81,-417.08 655.16,-421.45 659.99,-426.51"/>
</g>
<!-- delta_k -->
<g id="node25" class="node">
<title>delta_k</title>
<ellipse fill="none" stroke="black" cx="802.13" cy="-612.31" rx="41.94" ry="37.45"/>
<text text-anchor="middle" x="802.13" y="-623.61" font-family="Times,serif" font-size="14.00">delta_k</text>
<text text-anchor="middle" x="802.13" y="-608.61" font-family="Times,serif" font-size="14.00">~</text>
<text text-anchor="middle" x="802.13" y="-593.61" font-family="Times,serif" font-size="14.00">Normal</text>
</g>
<!-- delta_k&#45;&gt;k -->
<g id="edge12" class="edge">
<title>delta_k&#45;&gt;k</title>
<path fill="none" stroke="black" d="M802.13,-574.73C802.13,-562.99 802.13,-550.01 802.13,-538.31"/>
<polygon fill="black" stroke="black" points="805.63,-538.01 802.13,-528.01 798.63,-538.01 805.63,-538.01"/>
</g>
<!-- w&#45;&gt;gene_effect -->
<g id="edge18" class="edge">
<title>w&#45;&gt;gene_effect</title>
<path fill="none" stroke="black" d="M1369.13,-495.19C1274.12,-484.63 1049.26,-460.18 860.13,-443.86 835.05,-441.7 770.55,-445.09 747.13,-435.86 739.5,-432.85 732.11,-428.39 725.35,-423.43"/>
<polygon fill="black" stroke="black" points="727.17,-420.41 717.15,-416.96 722.83,-425.9 727.17,-420.41"/>
</g>
<!-- delta_w -->
<g id="node27" class="node">
<title>delta_w</title>
<ellipse fill="none" stroke="black" cx="1415.13" cy="-612.31" rx="41.94" ry="37.45"/>
<text text-anchor="middle" x="1415.13" y="-623.61" font-family="Times,serif" font-size="14.00">delta_w</text>
<text text-anchor="middle" x="1415.13" y="-608.61" font-family="Times,serif" font-size="14.00">~</text>
<text text-anchor="middle" x="1415.13" y="-593.61" font-family="Times,serif" font-size="14.00">Normal</text>
</g>
<!-- delta_w&#45;&gt;w -->
<g id="edge16" class="edge">
<title>delta_w&#45;&gt;w</title>
<path fill="none" stroke="black" d="M1415.13,-574.73C1415.13,-562.99 1415.13,-550.01 1415.13,-538.31"/>
<polygon fill="black" stroke="black" points="1418.63,-538.01 1415.13,-528.01 1411.63,-538.01 1418.63,-538.01"/>
</g>
<!-- p&#45;&gt;eta -->
<g id="edge26" class="edge">
<title>p&#45;&gt;eta</title>
<path fill="none" stroke="black" d="M1750.06,-366.11C1726.46,-350.41 1692.91,-330.97 1660.13,-321.91 1572.51,-297.66 942.07,-290.47 748.51,-288.83"/>
<polygon fill="black" stroke="black" points="748.3,-285.32 738.27,-288.74 748.24,-292.32 748.3,-285.32"/>
</g>
<!-- mu -->
<g id="node32" class="node">
<title>mu</title>
<polygon fill="none" stroke="black" points="719.13,-213.93 627.13,-213.93 627.13,-160.93 719.13,-160.93 719.13,-213.93"/>
<text text-anchor="middle" x="673.13" y="-198.73" font-family="Times,serif" font-size="14.00">mu</text>
<text text-anchor="middle" x="673.13" y="-183.73" font-family="Times,serif" font-size="14.00">~</text>
<text text-anchor="middle" x="673.13" y="-168.73" font-family="Times,serif" font-size="14.00">Deterministic</text>
</g>
<!-- eta&#45;&gt;mu -->
<g id="edge30" class="edge">
<title>eta&#45;&gt;mu</title>
<path fill="none" stroke="black" d="M687.14,-260.66C684.96,-249.41 682.36,-236.03 680.01,-223.86"/>
<polygon fill="black" stroke="black" points="683.43,-223.15 678.09,-214 676.56,-224.48 683.43,-223.15"/>
</g>
<!-- gene_effect&#45;&gt;eta -->
<g id="edge27" class="edge">
<title>gene_effect&#45;&gt;eta</title>
<path fill="none" stroke="black" d="M692.13,-363.64C692.13,-351.65 692.13,-337.19 692.13,-324.17"/>
<polygon fill="black" stroke="black" points="695.63,-324.1 692.13,-314.1 688.63,-324.1 695.63,-324.1"/>
</g>
<!-- cell_line_effect&#45;&gt;eta -->
<g id="edge29" class="edge">
<title>cell_line_effect&#45;&gt;eta</title>
<path fill="none" stroke="black" d="M597.5,-363.65C608.3,-350.29 622.49,-334.23 637.13,-321.91 637.84,-321.31 638.57,-320.71 639.3,-320.12"/>
<polygon fill="black" stroke="black" points="641.6,-322.77 647.48,-313.96 637.39,-317.18 641.6,-322.77"/>
</g>
<!-- mu&#45;&gt;ct_final -->
<g id="edge33" class="edge">
<title>mu&#45;&gt;ct_final</title>
<path fill="none" stroke="black" d="M669.15,-160.89C667.43,-149.87 665.36,-136.63 663.39,-123.97"/>
<polygon fill="black" stroke="black" points="666.83,-123.34 661.83,-114 659.92,-124.42 666.83,-123.34"/>
</g>
<!-- ct_final&#45;&gt;ct_final -->
<g id="edge32" class="edge">
<title>ct_final&#45;&gt;ct_final</title>
<path fill="none" stroke="black" d="M709.53,-97.06C725.41,-96.44 737.77,-89.58 737.77,-76.48 737.77,-66.34 730.38,-59.94 719.68,-57.28"/>
<polygon fill="black" stroke="black" points="719.91,-53.78 709.53,-55.9 718.96,-60.71 719.91,-53.78"/>
</g>
</g>
</svg>
