<?xml version="1.0" encoding="UTF-8" standalone="no"?>
<!DOCTYPE svg PUBLIC "-//W3C//DTD SVG 1.1//EN"
 "http://www.w3.org/Graphics/SVG/1.1/DTD/svg11.dtd">
<!-- Generated by graphviz version 3.0.0 (20220315.2325)
 -->
<!-- Pages: 1 -->
<svg width="260pt" height="363pt"
 viewBox="0.00 0.00 259.69 362.86" xmlns="http://www.w3.org/2000/svg" xmlns:xlink="http://www.w3.org/1999/xlink">
<g id="graph0" class="graph" transform="scale(1 1) rotate(0) translate(4 358.86)">
<polygon fill="white" stroke="transparent" points="-4,4 -4,-358.86 255.69,-358.86 255.69,4 -4,4"/>
<g id="clust1" class="cluster">
<title>cluster4</title>
<path fill="none" stroke="black" d="M24,-232.91C24,-232.91 100,-232.91 100,-232.91 106,-232.91 112,-238.91 112,-244.91 112,-244.91 112,-334.86 112,-334.86 112,-340.86 106,-346.86 100,-346.86 100,-346.86 24,-346.86 24,-346.86 18,-346.86 12,-340.86 12,-334.86 12,-334.86 12,-244.91 12,-244.91 12,-238.91 18,-232.91 24,-232.91"/>
<text text-anchor="middle" x="100.5" y="-240.71" font-family="Times,serif" font-size="14.00">4</text>
</g>
<g id="clust2" class="cluster">
<title>cluster30000</title>
<path fill="none" stroke="black" d="M20,-8C20,-8 114,-8 114,-8 120,-8 126,-14 126,-20 126,-20 126,-209.93 126,-209.93 126,-215.93 120,-221.93 114,-221.93 114,-221.93 20,-221.93 20,-221.93 14,-221.93 8,-215.93 8,-209.93 8,-209.93 8,-20 8,-20 8,-14 14,-8 20,-8"/>
<text text-anchor="middle" x="101" y="-15.8" font-family="Times,serif" font-size="14.00">30000</text>
</g>
<!-- beta -->
<g id="node1" class="node">
<title>beta</title>
<ellipse fill="none" stroke="black" cx="62" cy="-301.38" rx="41.94" ry="37.45"/>
<text text-anchor="middle" x="62" y="-312.68" font-family="Times,serif" font-size="14.00">beta</text>
<text text-anchor="middle" x="62" y="-297.68" font-family="Times,serif" font-size="14.00">~</text>
<text text-anchor="middle" x="62" y="-282.68" font-family="Times,serif" font-size="14.00">Normal</text>
</g>
<!-- mu -->
<g id="node3" class="node">
<title>mu</title>
<polygon fill="none" stroke="black" points="108,-213.93 16,-213.93 16,-160.93 108,-160.93 108,-213.93"/>
<text text-anchor="middle" x="62" y="-198.73" font-family="Times,serif" font-size="14.00">mu</text>
<text text-anchor="middle" x="62" y="-183.73" font-family="Times,serif" font-size="14.00">~</text>
<text text-anchor="middle" x="62" y="-168.73" font-family="Times,serif" font-size="14.00">Deterministic</text>
</g>
<!-- beta&#45;&gt;mu -->
<g id="edge1" class="edge">
<title>beta&#45;&gt;mu</title>
<path fill="none" stroke="black" d="M62,-263.73C62,-251.07 62,-236.92 62,-224.32"/>
<polygon fill="black" stroke="black" points="65.5,-224.18 62,-214.18 58.5,-224.18 65.5,-224.18"/>
</g>
<!-- y -->
<g id="node2" class="node">
<title>y</title>
<ellipse fill="lightgrey" stroke="black" cx="58" cy="-76.48" rx="41.94" ry="37.45"/>
<text text-anchor="middle" x="58" y="-87.78" font-family="Times,serif" font-size="14.00">y</text>
<text text-anchor="middle" x="58" y="-72.78" font-family="Times,serif" font-size="14.00">~</text>
<text text-anchor="middle" x="58" y="-57.78" font-family="Times,serif" font-size="14.00">Normal</text>
</g>
<!-- y&#45;&gt;y -->
<g id="edge2" class="edge">
<title>y&#45;&gt;y</title>
<path fill="none" stroke="black" d="M92.96,-97.02C106.48,-97.93 117.72,-91.09 117.72,-76.48 117.72,-65.75 111.66,-59.2 103.09,-56.85"/>
<polygon fill="black" stroke="black" points="103.24,-53.35 92.96,-55.93 102.61,-60.32 103.24,-53.35"/>
</g>
<!-- mu&#45;&gt;y -->
<g id="edge4" class="edge">
<title>mu&#45;&gt;y</title>
<path fill="none" stroke="black" d="M61.06,-160.89C60.66,-149.98 60.18,-136.89 59.72,-124.35"/>
<polygon fill="black" stroke="black" points="63.21,-123.87 59.34,-114 56.21,-124.12 63.21,-123.87"/>
</g>
<!-- sigma -->
<g id="node4" class="node">
<title>sigma</title>
<ellipse fill="none" stroke="black" cx="193" cy="-187.43" rx="58.88" ry="37.45"/>
<text text-anchor="middle" x="193" y="-198.73" font-family="Times,serif" font-size="14.00">sigma</text>
<text text-anchor="middle" x="193" y="-183.73" font-family="Times,serif" font-size="14.00">~</text>
<text text-anchor="middle" x="193" y="-168.73" font-family="Times,serif" font-size="14.00">HalfNormal</text>
</g>
<!-- sigma&#45;&gt;y -->
<g id="edge3" class="edge">
<title>sigma&#45;&gt;y</title>
<path fill="none" stroke="black" d="M157.18,-157.52C138.45,-142.4 115.51,-123.89 96.42,-108.48"/>
<polygon fill="black" stroke="black" points="98.47,-105.64 88.49,-102.09 94.08,-111.09 98.47,-105.64"/>
</g>
</g>
</svg>
