<?xml version="1.0" encoding="UTF-8" standalone="no"?>
<!DOCTYPE svg PUBLIC "-//W3C//DTD SVG 1.1//EN"
 "http://www.w3.org/Graphics/SVG/1.1/DTD/svg11.dtd">
<!-- Generated by graphviz version 2.47.0 (20210327.0129)
 -->
<!-- Pages: 1 -->
<svg width="1281pt" height="677pt"
 viewBox="0.00 0.00 1281.30 676.77" xmlns="http://www.w3.org/2000/svg" xmlns:xlink="http://www.w3.org/1999/xlink">
<g id="graph0" class="graph" transform="scale(1 1) rotate(0) translate(4 672.77)">
<polygon fill="white" stroke="transparent" points="-4,4 -4,-672.77 1277.3,-672.77 1277.3,4 -4,4"/>
<g id="clust1" class="cluster">
<title>cluster2</title>
<path fill="none" stroke="black" d="M161.3,-340.91C161.3,-340.91 407.3,-340.91 407.3,-340.91 413.3,-340.91 419.3,-346.91 419.3,-352.91 419.3,-352.91 419.3,-442.86 419.3,-442.86 419.3,-448.86 413.3,-454.86 407.3,-454.86 407.3,-454.86 161.3,-454.86 161.3,-454.86 155.3,-454.86 149.3,-448.86 149.3,-442.86 149.3,-442.86 149.3,-352.91 149.3,-352.91 149.3,-346.91 155.3,-340.91 161.3,-340.91"/>
<text text-anchor="middle" x="406.3" y="-348.71" font-family="Times-Roman" font-size="14.00">2</text>
</g>
<g id="clust2" class="cluster">
<title>cluster4</title>
<path fill="none" stroke="black" d="M161.3,-218.95C161.3,-218.95 407.3,-218.95 407.3,-218.95 413.3,-218.95 419.3,-224.95 419.3,-230.95 419.3,-230.95 419.3,-320.91 419.3,-320.91 419.3,-326.91 413.3,-332.91 407.3,-332.91 407.3,-332.91 161.3,-332.91 161.3,-332.91 155.3,-332.91 149.3,-326.91 149.3,-320.91 149.3,-320.91 149.3,-230.95 149.3,-230.95 149.3,-224.95 155.3,-218.95 161.3,-218.95"/>
<text text-anchor="middle" x="406.3" y="-226.75" font-family="Times-Roman" font-size="14.00">4</text>
</g>
<g id="clust3" class="cluster">
<title>cluster64 x 10</title>
<path fill="none" stroke="black" d="M559.3,-218.95C559.3,-218.95 649.3,-218.95 649.3,-218.95 655.3,-218.95 661.3,-224.95 661.3,-230.95 661.3,-230.95 661.3,-320.91 661.3,-320.91 661.3,-326.91 655.3,-332.91 649.3,-332.91 649.3,-332.91 559.3,-332.91 559.3,-332.91 553.3,-332.91 547.3,-326.91 547.3,-320.91 547.3,-320.91 547.3,-230.95 547.3,-230.95 547.3,-224.95 553.3,-218.95 559.3,-218.95"/>
<text text-anchor="middle" x="626.3" y="-226.75" font-family="Times-Roman" font-size="14.00">64 x 10</text>
</g>
<g id="clust4" class="cluster">
<title>cluster10</title>
<path fill="none" stroke="black" d="M726.3,-218.95C726.3,-218.95 816.3,-218.95 816.3,-218.95 822.3,-218.95 828.3,-224.95 828.3,-230.95 828.3,-230.95 828.3,-320.91 828.3,-320.91 828.3,-326.91 822.3,-332.91 816.3,-332.91 816.3,-332.91 726.3,-332.91 726.3,-332.91 720.3,-332.91 714.3,-326.91 714.3,-320.91 714.3,-320.91 714.3,-230.95 714.3,-230.95 714.3,-224.95 720.3,-218.95 726.3,-218.95"/>
<text text-anchor="middle" x="810.8" y="-226.75" font-family="Times-Roman" font-size="14.00">10</text>
</g>
<g id="clust5" class="cluster">
<title>cluster64</title>
<path fill="none" stroke="black" d="M977.3,-351.88C977.3,-351.88 1253.3,-351.88 1253.3,-351.88 1259.3,-351.88 1265.3,-357.88 1265.3,-363.88 1265.3,-363.88 1265.3,-553.81 1265.3,-553.81 1265.3,-559.81 1259.3,-565.81 1253.3,-565.81 1253.3,-565.81 977.3,-565.81 977.3,-565.81 971.3,-565.81 965.3,-559.81 965.3,-553.81 965.3,-553.81 965.3,-363.88 965.3,-363.88 965.3,-357.88 971.3,-351.88 977.3,-351.88"/>
<text text-anchor="middle" x="1247.8" y="-359.68" font-family="Times-Roman" font-size="14.00">64</text>
</g>
<g id="clust6" class="cluster">
<title>cluster192</title>
<path fill="none" stroke="black" d="M985.3,-218.95C985.3,-218.95 1075.3,-218.95 1075.3,-218.95 1081.3,-218.95 1087.3,-224.95 1087.3,-230.95 1087.3,-230.95 1087.3,-320.91 1087.3,-320.91 1087.3,-326.91 1081.3,-332.91 1075.3,-332.91 1075.3,-332.91 985.3,-332.91 985.3,-332.91 979.3,-332.91 973.3,-326.91 973.3,-320.91 973.3,-320.91 973.3,-230.95 973.3,-230.95 973.3,-224.95 979.3,-218.95 985.3,-218.95"/>
<text text-anchor="middle" x="1065.3" y="-226.75" font-family="Times-Roman" font-size="14.00">192</text>
</g>
<g id="clust7" class="cluster">
<title>cluster1,443</title>
<path fill="none" stroke="black" d="M494.3,-8C494.3,-8 598.3,-8 598.3,-8 604.3,-8 610.3,-14 610.3,-20 610.3,-20 610.3,-198.95 610.3,-198.95 610.3,-204.95 604.3,-210.95 598.3,-210.95 598.3,-210.95 494.3,-210.95 494.3,-210.95 488.3,-210.95 482.3,-204.95 482.3,-198.95 482.3,-198.95 482.3,-20 482.3,-20 482.3,-14 488.3,-8 494.3,-8"/>
<text text-anchor="middle" x="581.8" y="-15.8" font-family="Times-Roman" font-size="14.00">1,443</text>
</g>
<!-- i -->
<g id="node1" class="node">
<title>i</title>
<ellipse fill="none" stroke="black" cx="488.3" cy="-287.43" rx="48.58" ry="37.45"/>
<text text-anchor="middle" x="488.3" y="-298.73" font-family="Times-Roman" font-size="14.00">i</text>
<text text-anchor="middle" x="488.3" y="-283.73" font-family="Times-Roman" font-size="14.00">~</text>
<text text-anchor="middle" x="488.3" y="-268.73" font-family="Times-Roman" font-size="14.00">Normal</text>
</g>
<!-- μ -->
<g id="node24" class="node">
<title>μ</title>
<polygon fill="none" stroke="black" points="602.3,-202.95 490.3,-202.95 490.3,-149.95 602.3,-149.95 602.3,-202.95"/>
<text text-anchor="middle" x="546.3" y="-187.75" font-family="Times-Roman" font-size="14.00">μ</text>
<text text-anchor="middle" x="546.3" y="-172.75" font-family="Times-Roman" font-size="14.00">~</text>
<text text-anchor="middle" x="546.3" y="-157.75" font-family="Times-Roman" font-size="14.00">Deterministic</text>
</g>
<!-- i&#45;&gt;μ -->
<g id="edge16" class="edge">
<title>i&#45;&gt;μ</title>
<path fill="none" stroke="black" d="M506.33,-252.55C513.18,-239.68 520.99,-225.01 527.87,-212.07"/>
<polygon fill="black" stroke="black" points="531.09,-213.48 532.7,-203 524.91,-210.19 531.09,-213.48"/>
</g>
<!-- σ_d -->
<g id="node2" class="node">
<title>σ_d</title>
<ellipse fill="none" stroke="black" cx="771.3" cy="-409.38" rx="69.09" ry="37.45"/>
<text text-anchor="middle" x="771.3" y="-420.68" font-family="Times-Roman" font-size="14.00">σ_d</text>
<text text-anchor="middle" x="771.3" y="-405.68" font-family="Times-Roman" font-size="14.00">~</text>
<text text-anchor="middle" x="771.3" y="-390.68" font-family="Times-Roman" font-size="14.00">HalfNormal</text>
</g>
<!-- d -->
<g id="node18" class="node">
<title>d</title>
<ellipse fill="none" stroke="black" cx="771.3" cy="-287.43" rx="48.58" ry="37.45"/>
<text text-anchor="middle" x="771.3" y="-298.73" font-family="Times-Roman" font-size="14.00">d</text>
<text text-anchor="middle" x="771.3" y="-283.73" font-family="Times-Roman" font-size="14.00">~</text>
<text text-anchor="middle" x="771.3" y="-268.73" font-family="Times-Roman" font-size="14.00">Normal</text>
</g>
<!-- σ_d&#45;&gt;d -->
<g id="edge8" class="edge">
<title>σ_d&#45;&gt;d</title>
<path fill="none" stroke="black" d="M771.3,-371.74C771.3,-360.34 771.3,-347.6 771.3,-335.58"/>
<polygon fill="black" stroke="black" points="774.8,-335.26 771.3,-325.26 767.8,-335.26 774.8,-335.26"/>
</g>
<!-- σ_μ_a -->
<g id="node3" class="node">
<title>σ_μ_a</title>
<ellipse fill="none" stroke="black" cx="771.3" cy="-520.34" rx="69.09" ry="37.45"/>
<text text-anchor="middle" x="771.3" y="-531.64" font-family="Times-Roman" font-size="14.00">σ_μ_a</text>
<text text-anchor="middle" x="771.3" y="-516.64" font-family="Times-Roman" font-size="14.00">~</text>
<text text-anchor="middle" x="771.3" y="-501.64" font-family="Times-Roman" font-size="14.00">HalfNormal</text>
</g>
<!-- μ_a -->
<g id="node20" class="node">
<title>μ_a</title>
<polygon fill="none" stroke="black" points="1086.3,-435.88 974.3,-435.88 974.3,-382.88 1086.3,-382.88 1086.3,-435.88"/>
<text text-anchor="middle" x="1030.3" y="-420.68" font-family="Times-Roman" font-size="14.00">μ_a</text>
<text text-anchor="middle" x="1030.3" y="-405.68" font-family="Times-Roman" font-size="14.00">~</text>
<text text-anchor="middle" x="1030.3" y="-390.68" font-family="Times-Roman" font-size="14.00">Deterministic</text>
</g>
<!-- σ_μ_a&#45;&gt;μ_a -->
<g id="edge11" class="edge">
<title>σ_μ_a&#45;&gt;μ_a</title>
<path fill="none" stroke="black" d="M821.45,-494.09C830.58,-490.01 840.13,-486.07 849.3,-482.86 899.35,-465.32 916.84,-476.41 965.3,-454.86 973.38,-451.27 981.53,-446.65 989.19,-441.75"/>
<polygon fill="black" stroke="black" points="991.55,-444.38 997.93,-435.93 987.67,-438.56 991.55,-444.38"/>
</g>
<!-- σ_σ_a -->
<g id="node4" class="node">
<title>σ_σ_a</title>
<ellipse fill="none" stroke="black" cx="1188.3" cy="-631.29" rx="69.09" ry="37.45"/>
<text text-anchor="middle" x="1188.3" y="-642.59" font-family="Times-Roman" font-size="14.00">σ_σ_a</text>
<text text-anchor="middle" x="1188.3" y="-627.59" font-family="Times-Roman" font-size="14.00">~</text>
<text text-anchor="middle" x="1188.3" y="-612.59" font-family="Times-Roman" font-size="14.00">HalfNormal</text>
</g>
<!-- σ_a -->
<g id="node19" class="node">
<title>σ_a</title>
<ellipse fill="none" stroke="black" cx="1188.3" cy="-520.34" rx="69.09" ry="37.45"/>
<text text-anchor="middle" x="1188.3" y="-531.64" font-family="Times-Roman" font-size="14.00">σ_a</text>
<text text-anchor="middle" x="1188.3" y="-516.64" font-family="Times-Roman" font-size="14.00">~</text>
<text text-anchor="middle" x="1188.3" y="-501.64" font-family="Times-Roman" font-size="14.00">HalfNormal</text>
</g>
<!-- σ_σ_a&#45;&gt;σ_a -->
<g id="edge13" class="edge">
<title>σ_σ_a&#45;&gt;σ_a</title>
<path fill="none" stroke="black" d="M1188.3,-593.71C1188.3,-585.53 1188.3,-576.75 1188.3,-568.23"/>
<polygon fill="black" stroke="black" points="1191.8,-568.01 1188.3,-558.01 1184.8,-568.01 1191.8,-568.01"/>
</g>
<!-- σ_σ_j -->
<g id="node5" class="node">
<title>σ_σ_j</title>
<ellipse fill="none" stroke="black" cx="226.3" cy="-520.34" rx="69.09" ry="37.45"/>
<text text-anchor="middle" x="226.3" y="-531.64" font-family="Times-Roman" font-size="14.00">σ_σ_j</text>
<text text-anchor="middle" x="226.3" y="-516.64" font-family="Times-Roman" font-size="14.00">~</text>
<text text-anchor="middle" x="226.3" y="-501.64" font-family="Times-Roman" font-size="14.00">HalfNormal</text>
</g>
<!-- σ_j -->
<g id="node13" class="node">
<title>σ_j</title>
<ellipse fill="none" stroke="black" cx="226.3" cy="-409.38" rx="69.09" ry="37.45"/>
<text text-anchor="middle" x="226.3" y="-420.68" font-family="Times-Roman" font-size="14.00">σ_j</text>
<text text-anchor="middle" x="226.3" y="-405.68" font-family="Times-Roman" font-size="14.00">~</text>
<text text-anchor="middle" x="226.3" y="-390.68" font-family="Times-Roman" font-size="14.00">HalfNormal</text>
</g>
<!-- σ_σ_j&#45;&gt;σ_j -->
<g id="edge3" class="edge">
<title>σ_σ_j&#45;&gt;σ_j</title>
<path fill="none" stroke="black" d="M226.3,-482.75C226.3,-474.58 226.3,-465.8 226.3,-457.27"/>
<polygon fill="black" stroke="black" points="229.8,-457.06 226.3,-447.06 222.8,-457.06 229.8,-457.06"/>
</g>
<!-- μ_μ_j -->
<g id="node6" class="node">
<title>μ_μ_j</title>
<ellipse fill="none" stroke="black" cx="362.3" cy="-520.34" rx="48.58" ry="37.45"/>
<text text-anchor="middle" x="362.3" y="-531.64" font-family="Times-Roman" font-size="14.00">μ_μ_j</text>
<text text-anchor="middle" x="362.3" y="-516.64" font-family="Times-Roman" font-size="14.00">~</text>
<text text-anchor="middle" x="362.3" y="-501.64" font-family="Times-Roman" font-size="14.00">Normal</text>
</g>
<!-- μ_j -->
<g id="node14" class="node">
<title>μ_j</title>
<ellipse fill="none" stroke="black" cx="362.3" cy="-409.38" rx="48.58" ry="37.45"/>
<text text-anchor="middle" x="362.3" y="-420.68" font-family="Times-Roman" font-size="14.00">μ_j</text>
<text text-anchor="middle" x="362.3" y="-405.68" font-family="Times-Roman" font-size="14.00">~</text>
<text text-anchor="middle" x="362.3" y="-390.68" font-family="Times-Roman" font-size="14.00">Normal</text>
</g>
<!-- μ_μ_j&#45;&gt;μ_j -->
<g id="edge2" class="edge">
<title>μ_μ_j&#45;&gt;μ_j</title>
<path fill="none" stroke="black" d="M362.3,-482.75C362.3,-474.58 362.3,-465.8 362.3,-457.27"/>
<polygon fill="black" stroke="black" points="365.8,-457.06 362.3,-447.06 358.8,-457.06 365.8,-457.06"/>
</g>
<!-- μ_h -->
<g id="node7" class="node">
<title>μ_h</title>
<ellipse fill="none" stroke="black" cx="478.3" cy="-409.38" rx="48.58" ry="37.45"/>
<text text-anchor="middle" x="478.3" y="-420.68" font-family="Times-Roman" font-size="14.00">μ_h</text>
<text text-anchor="middle" x="478.3" y="-405.68" font-family="Times-Roman" font-size="14.00">~</text>
<text text-anchor="middle" x="478.3" y="-390.68" font-family="Times-Roman" font-size="14.00">Normal</text>
</g>
<!-- h -->
<g id="node17" class="node">
<title>h</title>
<ellipse fill="none" stroke="black" cx="604.3" cy="-287.43" rx="48.58" ry="37.45"/>
<text text-anchor="middle" x="604.3" y="-298.73" font-family="Times-Roman" font-size="14.00">h</text>
<text text-anchor="middle" x="604.3" y="-283.73" font-family="Times-Roman" font-size="14.00">~</text>
<text text-anchor="middle" x="604.3" y="-268.73" font-family="Times-Roman" font-size="14.00">Normal</text>
</g>
<!-- μ_h&#45;&gt;h -->
<g id="edge7" class="edge">
<title>μ_h&#45;&gt;h</title>
<path fill="none" stroke="black" d="M503.03,-376.96C512.88,-365.17 524.64,-351.96 536.3,-340.91 537.69,-339.59 548.9,-330.89 561.84,-320.93"/>
<polygon fill="black" stroke="black" points="564.24,-323.5 570.04,-314.63 559.98,-317.95 564.24,-323.5"/>
</g>
<!-- μ_μ_a -->
<g id="node8" class="node">
<title>μ_μ_a</title>
<ellipse fill="none" stroke="black" cx="907.3" cy="-520.34" rx="48.58" ry="37.45"/>
<text text-anchor="middle" x="907.3" y="-531.64" font-family="Times-Roman" font-size="14.00">μ_μ_a</text>
<text text-anchor="middle" x="907.3" y="-516.64" font-family="Times-Roman" font-size="14.00">~</text>
<text text-anchor="middle" x="907.3" y="-501.64" font-family="Times-Roman" font-size="14.00">Normal</text>
</g>
<!-- μ_μ_a&#45;&gt;μ_a -->
<g id="edge10" class="edge">
<title>μ_μ_a&#45;&gt;μ_a</title>
<path fill="none" stroke="black" d="M938.65,-491.56C955.32,-476.8 975.91,-458.56 993.34,-443.12"/>
<polygon fill="black" stroke="black" points="995.94,-445.49 1001.11,-436.24 991.3,-440.25 995.94,-445.49"/>
</g>
<!-- σ_h -->
<g id="node9" class="node">
<title>σ_h</title>
<ellipse fill="none" stroke="black" cx="614.3" cy="-409.38" rx="69.09" ry="37.45"/>
<text text-anchor="middle" x="614.3" y="-420.68" font-family="Times-Roman" font-size="14.00">σ_h</text>
<text text-anchor="middle" x="614.3" y="-405.68" font-family="Times-Roman" font-size="14.00">~</text>
<text text-anchor="middle" x="614.3" y="-390.68" font-family="Times-Roman" font-size="14.00">HalfNormal</text>
</g>
<!-- σ_h&#45;&gt;h -->
<g id="edge6" class="edge">
<title>σ_h&#45;&gt;h</title>
<path fill="none" stroke="black" d="M611.24,-371.74C610.27,-360.11 609.19,-347.1 608.17,-334.88"/>
<polygon fill="black" stroke="black" points="611.65,-334.52 607.33,-324.85 604.68,-335.1 611.65,-334.52"/>
</g>
<!-- μ_d -->
<g id="node10" class="node">
<title>μ_d</title>
<ellipse fill="none" stroke="black" cx="907.3" cy="-409.38" rx="48.58" ry="37.45"/>
<text text-anchor="middle" x="907.3" y="-420.68" font-family="Times-Roman" font-size="14.00">μ_d</text>
<text text-anchor="middle" x="907.3" y="-405.68" font-family="Times-Roman" font-size="14.00">~</text>
<text text-anchor="middle" x="907.3" y="-390.68" font-family="Times-Roman" font-size="14.00">Normal</text>
</g>
<!-- μ_d&#45;&gt;d -->
<g id="edge9" class="edge">
<title>μ_d&#45;&gt;d</title>
<path fill="none" stroke="black" d="M882.94,-376.55C873.13,-364.72 861.31,-351.58 849.3,-340.91 839.67,-332.35 828.57,-324.09 817.81,-316.74"/>
<polygon fill="black" stroke="black" points="819.56,-313.7 809.3,-311.06 815.68,-319.52 819.56,-313.7"/>
</g>
<!-- σ_μ_j -->
<g id="node11" class="node">
<title>σ_μ_j</title>
<ellipse fill="none" stroke="black" cx="498.3" cy="-520.34" rx="69.09" ry="37.45"/>
<text text-anchor="middle" x="498.3" y="-531.64" font-family="Times-Roman" font-size="14.00">σ_μ_j</text>
<text text-anchor="middle" x="498.3" y="-516.64" font-family="Times-Roman" font-size="14.00">~</text>
<text text-anchor="middle" x="498.3" y="-501.64" font-family="Times-Roman" font-size="14.00">HalfNormal</text>
</g>
<!-- σ_μ_j&#45;&gt;μ_j -->
<g id="edge1" class="edge">
<title>σ_μ_j&#45;&gt;μ_j</title>
<path fill="none" stroke="black" d="M460.05,-488.7C442.47,-474.62 421.59,-457.89 403.65,-443.51"/>
<polygon fill="black" stroke="black" points="405.63,-440.61 395.64,-437.09 401.25,-446.08 405.63,-440.61"/>
</g>
<!-- σ_σ -->
<g id="node12" class="node">
<title>σ_σ</title>
<ellipse fill="none" stroke="black" cx="69.3" cy="-409.38" rx="69.09" ry="37.45"/>
<text text-anchor="middle" x="69.3" y="-420.68" font-family="Times-Roman" font-size="14.00">σ_σ</text>
<text text-anchor="middle" x="69.3" y="-405.68" font-family="Times-Roman" font-size="14.00">~</text>
<text text-anchor="middle" x="69.3" y="-390.68" font-family="Times-Roman" font-size="14.00">HalfNormal</text>
</g>
<!-- σ -->
<g id="node15" class="node">
<title>σ</title>
<ellipse fill="none" stroke="black" cx="226.3" cy="-287.43" rx="69.09" ry="37.45"/>
<text text-anchor="middle" x="226.3" y="-298.73" font-family="Times-Roman" font-size="14.00">σ</text>
<text text-anchor="middle" x="226.3" y="-283.73" font-family="Times-Roman" font-size="14.00">~</text>
<text text-anchor="middle" x="226.3" y="-268.73" font-family="Times-Roman" font-size="14.00">HalfNormal</text>
</g>
<!-- σ_σ&#45;&gt;σ -->
<g id="edge21" class="edge">
<title>σ_σ&#45;&gt;σ</title>
<path fill="none" stroke="black" d="M103.17,-376.34C116,-364.73 130.97,-351.81 145.3,-340.91 153.87,-334.38 163.25,-327.82 172.49,-321.66"/>
<polygon fill="black" stroke="black" points="174.47,-324.54 180.9,-316.12 170.63,-318.69 174.47,-324.54"/>
</g>
<!-- j -->
<g id="node16" class="node">
<title>j</title>
<ellipse fill="none" stroke="black" cx="362.3" cy="-287.43" rx="48.58" ry="37.45"/>
<text text-anchor="middle" x="362.3" y="-298.73" font-family="Times-Roman" font-size="14.00">j</text>
<text text-anchor="middle" x="362.3" y="-283.73" font-family="Times-Roman" font-size="14.00">~</text>
<text text-anchor="middle" x="362.3" y="-268.73" font-family="Times-Roman" font-size="14.00">Normal</text>
</g>
<!-- σ_j&#45;&gt;j -->
<g id="edge4" class="edge">
<title>σ_j&#45;&gt;j</title>
<path fill="none" stroke="black" d="M262.03,-376.87C280.7,-360.39 303.61,-340.19 322.81,-323.26"/>
<polygon fill="black" stroke="black" points="325.33,-325.7 330.51,-316.46 320.7,-320.45 325.33,-325.7"/>
</g>
<!-- μ_j&#45;&gt;j -->
<g id="edge5" class="edge">
<title>μ_j&#45;&gt;j</title>
<path fill="none" stroke="black" d="M362.3,-371.74C362.3,-360.34 362.3,-347.6 362.3,-335.58"/>
<polygon fill="black" stroke="black" points="365.8,-335.26 362.3,-325.26 358.8,-335.26 365.8,-335.26"/>
</g>
<!-- lfc -->
<g id="node23" class="node">
<title>lfc</title>
<ellipse fill="lightgrey" stroke="black" cx="542.3" cy="-76.48" rx="48.58" ry="37.45"/>
<text text-anchor="middle" x="542.3" y="-87.78" font-family="Times-Roman" font-size="14.00">lfc</text>
<text text-anchor="middle" x="542.3" y="-72.78" font-family="Times-Roman" font-size="14.00">~</text>
<text text-anchor="middle" x="542.3" y="-57.78" font-family="Times-Roman" font-size="14.00">Normal</text>
</g>
<!-- σ&#45;&gt;lfc -->
<g id="edge22" class="edge">
<title>σ&#45;&gt;lfc</title>
<path fill="none" stroke="black" d="M260.55,-254.49C273.79,-242.77 289.34,-229.74 304.3,-218.95 366.69,-173.96 444.09,-129.93 493.35,-103.24"/>
<polygon fill="black" stroke="black" points="495.06,-106.29 502.2,-98.47 491.74,-100.13 495.06,-106.29"/>
</g>
<!-- j&#45;&gt;μ -->
<g id="edge19" class="edge">
<title>j&#45;&gt;μ</title>
<path fill="none" stroke="black" d="M388,-255.49C399.82,-242.79 414.68,-228.8 430.3,-218.95 445.5,-209.37 463.21,-201.61 480.16,-195.5"/>
<polygon fill="black" stroke="black" points="481.71,-198.67 490.02,-192.1 479.42,-192.05 481.71,-198.67"/>
</g>
<!-- h&#45;&gt;μ -->
<g id="edge20" class="edge">
<title>h&#45;&gt;μ</title>
<path fill="none" stroke="black" d="M586.26,-252.55C579.41,-239.68 571.6,-225.01 564.72,-212.07"/>
<polygon fill="black" stroke="black" points="567.68,-210.19 559.89,-203 561.5,-213.48 567.68,-210.19"/>
</g>
<!-- d&#45;&gt;μ -->
<g id="edge18" class="edge">
<title>d&#45;&gt;μ</title>
<path fill="none" stroke="black" d="M736.19,-261.17C716.1,-247.47 690.03,-230.94 665.3,-218.95 648.52,-210.82 629.72,-203.51 612.11,-197.36"/>
<polygon fill="black" stroke="black" points="613.07,-193.99 602.47,-194.07 610.81,-200.62 613.07,-193.99"/>
</g>
<!-- a -->
<g id="node22" class="node">
<title>a</title>
<ellipse fill="none" stroke="black" cx="1030.3" cy="-287.43" rx="48.58" ry="37.45"/>
<text text-anchor="middle" x="1030.3" y="-298.73" font-family="Times-Roman" font-size="14.00">a</text>
<text text-anchor="middle" x="1030.3" y="-283.73" font-family="Times-Roman" font-size="14.00">~</text>
<text text-anchor="middle" x="1030.3" y="-268.73" font-family="Times-Roman" font-size="14.00">Normal</text>
</g>
<!-- σ_a&#45;&gt;a -->
<g id="edge14" class="edge">
<title>σ_a&#45;&gt;a</title>
<path fill="none" stroke="black" d="M1174.67,-483.25C1159.21,-445.26 1131.37,-384.96 1095.3,-340.91 1089.16,-333.41 1081.79,-326.25 1074.26,-319.76"/>
<polygon fill="black" stroke="black" points="1076.02,-316.67 1066.08,-313 1071.56,-322.07 1076.02,-316.67"/>
</g>
<!-- μ_a&#45;&gt;a -->
<g id="edge15" class="edge">
<title>μ_a&#45;&gt;a</title>
<path fill="none" stroke="black" d="M1030.3,-382.65C1030.3,-368.87 1030.3,-351.47 1030.3,-335.38"/>
<polygon fill="black" stroke="black" points="1033.8,-335.04 1030.3,-325.04 1026.8,-335.04 1033.8,-335.04"/>
</g>
<!-- μ_a_offset -->
<g id="node21" class="node">
<title>μ_a_offset</title>
<ellipse fill="none" stroke="black" cx="1037.3" cy="-520.34" rx="63.78" ry="37.45"/>
<text text-anchor="middle" x="1037.3" y="-531.64" font-family="Times-Roman" font-size="14.00">μ_a_offset</text>
<text text-anchor="middle" x="1037.3" y="-516.64" font-family="Times-Roman" font-size="14.00">~</text>
<text text-anchor="middle" x="1037.3" y="-501.64" font-family="Times-Roman" font-size="14.00">Normal</text>
</g>
<!-- μ_a_offset&#45;&gt;μ_a -->
<g id="edge12" class="edge">
<title>μ_a_offset&#45;&gt;μ_a</title>
<path fill="none" stroke="black" d="M1034.95,-482.75C1034.19,-471.02 1033.36,-458.03 1032.61,-446.34"/>
<polygon fill="black" stroke="black" points="1036.08,-445.79 1031.94,-436.04 1029.09,-446.24 1036.08,-445.79"/>
</g>
<!-- a&#45;&gt;μ -->
<g id="edge17" class="edge">
<title>a&#45;&gt;μ</title>
<path fill="none" stroke="black" d="M987.33,-269.21C947.67,-253.95 886.85,-232.09 832.3,-218.95 758.1,-201.09 671.09,-189.8 612.7,-183.58"/>
<polygon fill="black" stroke="black" points="612.82,-180.08 602.51,-182.52 612.09,-187.04 612.82,-180.08"/>
</g>
<!-- μ&#45;&gt;lfc -->
<g id="edge23" class="edge">
<title>μ&#45;&gt;lfc</title>
<path fill="none" stroke="black" d="M545.25,-149.71C544.93,-141.89 544.56,-133.03 544.21,-124.27"/>
<polygon fill="black" stroke="black" points="547.7,-123.95 543.79,-114.1 540.7,-124.23 547.7,-123.95"/>
</g>
</g>
</svg>
