<?xml version="1.0" encoding="UTF-8" standalone="no"?>
<!DOCTYPE svg PUBLIC "-//W3C//DTD SVG 1.1//EN"
 "http://www.w3.org/Graphics/SVG/1.1/DTD/svg11.dtd">
<!-- Generated by graphviz version 2.47.0 (20210327.0129)
 -->
<!-- Pages: 1 -->
<svg width="1295pt" height="677pt"
 viewBox="0.00 0.00 1295.00 676.77" xmlns="http://www.w3.org/2000/svg" xmlns:xlink="http://www.w3.org/1999/xlink">
<g id="graph0" class="graph" transform="scale(1 1) rotate(0) translate(4 672.77)">
<polygon fill="white" stroke="transparent" points="-4,4 -4,-672.77 1291,-672.77 1291,4 -4,4"/>
<g id="clust1" class="cluster">
<title>cluster2</title>
<path fill="none" stroke="black" d="M20,-340.91C20,-340.91 266,-340.91 266,-340.91 272,-340.91 278,-346.91 278,-352.91 278,-352.91 278,-442.86 278,-442.86 278,-448.86 272,-454.86 266,-454.86 266,-454.86 20,-454.86 20,-454.86 14,-454.86 8,-448.86 8,-442.86 8,-442.86 8,-352.91 8,-352.91 8,-346.91 14,-340.91 20,-340.91"/>
<text text-anchor="middle" x="265" y="-348.71" font-family="Times-Roman" font-size="14.00">2</text>
</g>
<g id="clust2" class="cluster">
<title>cluster4</title>
<path fill="none" stroke="black" d="M176,-218.95C176,-218.95 422,-218.95 422,-218.95 428,-218.95 434,-224.95 434,-230.95 434,-230.95 434,-320.91 434,-320.91 434,-326.91 428,-332.91 422,-332.91 422,-332.91 176,-332.91 176,-332.91 170,-332.91 164,-326.91 164,-320.91 164,-320.91 164,-230.95 164,-230.95 164,-224.95 170,-218.95 176,-218.95"/>
<text text-anchor="middle" x="421" y="-226.75" font-family="Times-Roman" font-size="14.00">4</text>
</g>
<g id="clust3" class="cluster">
<title>cluster64 x 10</title>
<path fill="none" stroke="black" d="M574,-218.95C574,-218.95 664,-218.95 664,-218.95 670,-218.95 676,-224.95 676,-230.95 676,-230.95 676,-320.91 676,-320.91 676,-326.91 670,-332.91 664,-332.91 664,-332.91 574,-332.91 574,-332.91 568,-332.91 562,-326.91 562,-320.91 562,-320.91 562,-230.95 562,-230.95 562,-224.95 568,-218.95 574,-218.95"/>
<text text-anchor="middle" x="641" y="-226.75" font-family="Times-Roman" font-size="14.00">64 x 10</text>
</g>
<g id="clust4" class="cluster">
<title>cluster10</title>
<path fill="none" stroke="black" d="M720,-218.95C720,-218.95 810,-218.95 810,-218.95 816,-218.95 822,-224.95 822,-230.95 822,-230.95 822,-320.91 822,-320.91 822,-326.91 816,-332.91 810,-332.91 810,-332.91 720,-332.91 720,-332.91 714,-332.91 708,-326.91 708,-320.91 708,-320.91 708,-230.95 708,-230.95 708,-224.95 714,-218.95 720,-218.95"/>
<text text-anchor="middle" x="804.5" y="-226.75" font-family="Times-Roman" font-size="14.00">10</text>
</g>
<g id="clust5" class="cluster">
<title>cluster64</title>
<path fill="none" stroke="black" d="M991,-351.88C991,-351.88 1267,-351.88 1267,-351.88 1273,-351.88 1279,-357.88 1279,-363.88 1279,-363.88 1279,-553.81 1279,-553.81 1279,-559.81 1273,-565.81 1267,-565.81 1267,-565.81 991,-565.81 991,-565.81 985,-565.81 979,-559.81 979,-553.81 979,-553.81 979,-363.88 979,-363.88 979,-357.88 985,-351.88 991,-351.88"/>
<text text-anchor="middle" x="1261.5" y="-359.68" font-family="Times-Roman" font-size="14.00">64</text>
</g>
<g id="clust6" class="cluster">
<title>cluster192</title>
<path fill="none" stroke="black" d="M999,-218.95C999,-218.95 1089,-218.95 1089,-218.95 1095,-218.95 1101,-224.95 1101,-230.95 1101,-230.95 1101,-320.91 1101,-320.91 1101,-326.91 1095,-332.91 1089,-332.91 1089,-332.91 999,-332.91 999,-332.91 993,-332.91 987,-326.91 987,-320.91 987,-320.91 987,-230.95 987,-230.95 987,-224.95 993,-218.95 999,-218.95"/>
<text text-anchor="middle" x="1079" y="-226.75" font-family="Times-Roman" font-size="14.00">192</text>
</g>
<g id="clust7" class="cluster">
<title>cluster1,443</title>
<path fill="none" stroke="black" d="M509,-8C509,-8 613,-8 613,-8 619,-8 625,-14 625,-20 625,-20 625,-198.95 625,-198.95 625,-204.95 619,-210.95 613,-210.95 613,-210.95 509,-210.95 509,-210.95 503,-210.95 497,-204.95 497,-198.95 497,-198.95 497,-20 497,-20 497,-14 503,-8 509,-8"/>
<text text-anchor="middle" x="596.5" y="-15.8" font-family="Times-Roman" font-size="14.00">1,443</text>
</g>
<!-- σ_μ_j -->
<g id="node1" class="node">
<title>σ_μ_j</title>
<ellipse fill="none" stroke="black" cx="357" cy="-520.34" rx="69.09" ry="37.45"/>
<text text-anchor="middle" x="357" y="-531.64" font-family="Times-Roman" font-size="14.00">σ_μ_j</text>
<text text-anchor="middle" x="357" y="-516.64" font-family="Times-Roman" font-size="14.00">~</text>
<text text-anchor="middle" x="357" y="-501.64" font-family="Times-Roman" font-size="14.00">HalfNormal</text>
</g>
<!-- μ_j -->
<g id="node14" class="node">
<title>μ_j</title>
<ellipse fill="none" stroke="black" cx="221" cy="-409.38" rx="48.58" ry="37.45"/>
<text text-anchor="middle" x="221" y="-420.68" font-family="Times-Roman" font-size="14.00">μ_j</text>
<text text-anchor="middle" x="221" y="-405.68" font-family="Times-Roman" font-size="14.00">~</text>
<text text-anchor="middle" x="221" y="-390.68" font-family="Times-Roman" font-size="14.00">Normal</text>
</g>
<!-- σ_μ_j&#45;&gt;μ_j -->
<g id="edge1" class="edge">
<title>σ_μ_j&#45;&gt;μ_j</title>
<path fill="none" stroke="black" d="M318.75,-488.7C301.18,-474.62 280.29,-457.89 262.35,-443.51"/>
<polygon fill="black" stroke="black" points="264.33,-440.61 254.34,-437.09 259.95,-446.08 264.33,-440.61"/>
</g>
<!-- σ_σ_a -->
<g id="node2" class="node">
<title>σ_σ_a</title>
<ellipse fill="none" stroke="black" cx="1202" cy="-631.29" rx="69.09" ry="37.45"/>
<text text-anchor="middle" x="1202" y="-642.59" font-family="Times-Roman" font-size="14.00">σ_σ_a</text>
<text text-anchor="middle" x="1202" y="-627.59" font-family="Times-Roman" font-size="14.00">~</text>
<text text-anchor="middle" x="1202" y="-612.59" font-family="Times-Roman" font-size="14.00">HalfNormal</text>
</g>
<!-- σ_a -->
<g id="node20" class="node">
<title>σ_a</title>
<ellipse fill="none" stroke="black" cx="1202" cy="-520.34" rx="69.09" ry="37.45"/>
<text text-anchor="middle" x="1202" y="-531.64" font-family="Times-Roman" font-size="14.00">σ_a</text>
<text text-anchor="middle" x="1202" y="-516.64" font-family="Times-Roman" font-size="14.00">~</text>
<text text-anchor="middle" x="1202" y="-501.64" font-family="Times-Roman" font-size="14.00">HalfNormal</text>
</g>
<!-- σ_σ_a&#45;&gt;σ_a -->
<g id="edge13" class="edge">
<title>σ_σ_a&#45;&gt;σ_a</title>
<path fill="none" stroke="black" d="M1202,-593.71C1202,-585.53 1202,-576.75 1202,-568.23"/>
<polygon fill="black" stroke="black" points="1205.5,-568.01 1202,-558.01 1198.5,-568.01 1205.5,-568.01"/>
</g>
<!-- i -->
<g id="node3" class="node">
<title>i</title>
<ellipse fill="none" stroke="black" cx="503" cy="-287.43" rx="48.58" ry="37.45"/>
<text text-anchor="middle" x="503" y="-298.73" font-family="Times-Roman" font-size="14.00">i</text>
<text text-anchor="middle" x="503" y="-283.73" font-family="Times-Roman" font-size="14.00">~</text>
<text text-anchor="middle" x="503" y="-268.73" font-family="Times-Roman" font-size="14.00">Normal</text>
</g>
<!-- μ -->
<g id="node24" class="node">
<title>μ</title>
<polygon fill="none" stroke="black" points="617,-202.95 505,-202.95 505,-149.95 617,-149.95 617,-202.95"/>
<text text-anchor="middle" x="561" y="-187.75" font-family="Times-Roman" font-size="14.00">μ</text>
<text text-anchor="middle" x="561" y="-172.75" font-family="Times-Roman" font-size="14.00">~</text>
<text text-anchor="middle" x="561" y="-157.75" font-family="Times-Roman" font-size="14.00">Deterministic</text>
</g>
<!-- i&#45;&gt;μ -->
<g id="edge16" class="edge">
<title>i&#45;&gt;μ</title>
<path fill="none" stroke="black" d="M521.03,-252.55C527.88,-239.68 535.69,-225.01 542.58,-212.07"/>
<polygon fill="black" stroke="black" points="545.79,-213.48 547.4,-203 539.61,-210.19 545.79,-213.48"/>
</g>
<!-- σ_μ_a -->
<g id="node4" class="node">
<title>σ_μ_a</title>
<ellipse fill="none" stroke="black" cx="785" cy="-520.34" rx="69.09" ry="37.45"/>
<text text-anchor="middle" x="785" y="-531.64" font-family="Times-Roman" font-size="14.00">σ_μ_a</text>
<text text-anchor="middle" x="785" y="-516.64" font-family="Times-Roman" font-size="14.00">~</text>
<text text-anchor="middle" x="785" y="-501.64" font-family="Times-Roman" font-size="14.00">HalfNormal</text>
</g>
<!-- μ_a -->
<g id="node21" class="node">
<title>μ_a</title>
<polygon fill="none" stroke="black" points="1100,-435.88 988,-435.88 988,-382.88 1100,-382.88 1100,-435.88"/>
<text text-anchor="middle" x="1044" y="-420.68" font-family="Times-Roman" font-size="14.00">μ_a</text>
<text text-anchor="middle" x="1044" y="-405.68" font-family="Times-Roman" font-size="14.00">~</text>
<text text-anchor="middle" x="1044" y="-390.68" font-family="Times-Roman" font-size="14.00">Deterministic</text>
</g>
<!-- σ_μ_a&#45;&gt;μ_a -->
<g id="edge12" class="edge">
<title>σ_μ_a&#45;&gt;μ_a</title>
<path fill="none" stroke="black" d="M835.15,-494.09C844.29,-490.01 853.83,-486.07 863,-482.86 913.05,-465.32 930.54,-476.41 979,-454.86 987.08,-451.27 995.23,-446.65 1002.89,-441.75"/>
<polygon fill="black" stroke="black" points="1005.26,-444.38 1011.64,-435.93 1001.37,-438.56 1005.26,-444.38"/>
</g>
<!-- σ_σ -->
<g id="node5" class="node">
<title>σ_σ</title>
<ellipse fill="none" stroke="black" cx="357" cy="-409.38" rx="69.09" ry="37.45"/>
<text text-anchor="middle" x="357" y="-420.68" font-family="Times-Roman" font-size="14.00">σ_σ</text>
<text text-anchor="middle" x="357" y="-405.68" font-family="Times-Roman" font-size="14.00">~</text>
<text text-anchor="middle" x="357" y="-390.68" font-family="Times-Roman" font-size="14.00">HalfNormal</text>
</g>
<!-- σ -->
<g id="node15" class="node">
<title>σ</title>
<ellipse fill="none" stroke="black" cx="357" cy="-287.43" rx="69.09" ry="37.45"/>
<text text-anchor="middle" x="357" y="-298.73" font-family="Times-Roman" font-size="14.00">σ</text>
<text text-anchor="middle" x="357" y="-283.73" font-family="Times-Roman" font-size="14.00">~</text>
<text text-anchor="middle" x="357" y="-268.73" font-family="Times-Roman" font-size="14.00">HalfNormal</text>
</g>
<!-- σ_σ&#45;&gt;σ -->
<g id="edge21" class="edge">
<title>σ_σ&#45;&gt;σ</title>
<path fill="none" stroke="black" d="M357,-371.74C357,-360.34 357,-347.6 357,-335.58"/>
<polygon fill="black" stroke="black" points="360.5,-335.26 357,-325.26 353.5,-335.26 360.5,-335.26"/>
</g>
<!-- μ_h -->
<g id="node6" class="node">
<title>μ_h</title>
<ellipse fill="none" stroke="black" cx="493" cy="-409.38" rx="48.58" ry="37.45"/>
<text text-anchor="middle" x="493" y="-420.68" font-family="Times-Roman" font-size="14.00">μ_h</text>
<text text-anchor="middle" x="493" y="-405.68" font-family="Times-Roman" font-size="14.00">~</text>
<text text-anchor="middle" x="493" y="-390.68" font-family="Times-Roman" font-size="14.00">Normal</text>
</g>
<!-- h -->
<g id="node17" class="node">
<title>h</title>
<ellipse fill="none" stroke="black" cx="619" cy="-287.43" rx="48.58" ry="37.45"/>
<text text-anchor="middle" x="619" y="-298.73" font-family="Times-Roman" font-size="14.00">h</text>
<text text-anchor="middle" x="619" y="-283.73" font-family="Times-Roman" font-size="14.00">~</text>
<text text-anchor="middle" x="619" y="-268.73" font-family="Times-Roman" font-size="14.00">Normal</text>
</g>
<!-- μ_h&#45;&gt;h -->
<g id="edge7" class="edge">
<title>μ_h&#45;&gt;h</title>
<path fill="none" stroke="black" d="M517.73,-376.96C527.59,-365.17 539.34,-351.96 551,-340.91 552.39,-339.59 563.6,-330.89 576.54,-320.93"/>
<polygon fill="black" stroke="black" points="578.95,-323.5 584.74,-314.63 574.68,-317.95 578.95,-323.5"/>
</g>
<!-- σ_σ_j -->
<g id="node7" class="node">
<title>σ_σ_j</title>
<ellipse fill="none" stroke="black" cx="85" cy="-520.34" rx="69.09" ry="37.45"/>
<text text-anchor="middle" x="85" y="-531.64" font-family="Times-Roman" font-size="14.00">σ_σ_j</text>
<text text-anchor="middle" x="85" y="-516.64" font-family="Times-Roman" font-size="14.00">~</text>
<text text-anchor="middle" x="85" y="-501.64" font-family="Times-Roman" font-size="14.00">HalfNormal</text>
</g>
<!-- σ_j -->
<g id="node13" class="node">
<title>σ_j</title>
<ellipse fill="none" stroke="black" cx="85" cy="-409.38" rx="69.09" ry="37.45"/>
<text text-anchor="middle" x="85" y="-420.68" font-family="Times-Roman" font-size="14.00">σ_j</text>
<text text-anchor="middle" x="85" y="-405.68" font-family="Times-Roman" font-size="14.00">~</text>
<text text-anchor="middle" x="85" y="-390.68" font-family="Times-Roman" font-size="14.00">HalfNormal</text>
</g>
<!-- σ_σ_j&#45;&gt;σ_j -->
<g id="edge3" class="edge">
<title>σ_σ_j&#45;&gt;σ_j</title>
<path fill="none" stroke="black" d="M85,-482.75C85,-474.58 85,-465.8 85,-457.27"/>
<polygon fill="black" stroke="black" points="88.5,-457.06 85,-447.06 81.5,-457.06 88.5,-457.06"/>
</g>
<!-- σ_h -->
<g id="node8" class="node">
<title>σ_h</title>
<ellipse fill="none" stroke="black" cx="629" cy="-409.38" rx="69.09" ry="37.45"/>
<text text-anchor="middle" x="629" y="-420.68" font-family="Times-Roman" font-size="14.00">σ_h</text>
<text text-anchor="middle" x="629" y="-405.68" font-family="Times-Roman" font-size="14.00">~</text>
<text text-anchor="middle" x="629" y="-390.68" font-family="Times-Roman" font-size="14.00">HalfNormal</text>
</g>
<!-- σ_h&#45;&gt;h -->
<g id="edge6" class="edge">
<title>σ_h&#45;&gt;h</title>
<path fill="none" stroke="black" d="M625.95,-371.74C624.98,-360.11 623.89,-347.1 622.87,-334.88"/>
<polygon fill="black" stroke="black" points="626.35,-334.52 622.04,-324.85 619.38,-335.1 626.35,-334.52"/>
</g>
<!-- μ_μ_j -->
<g id="node9" class="node">
<title>μ_μ_j</title>
<ellipse fill="none" stroke="black" cx="221" cy="-520.34" rx="48.58" ry="37.45"/>
<text text-anchor="middle" x="221" y="-531.64" font-family="Times-Roman" font-size="14.00">μ_μ_j</text>
<text text-anchor="middle" x="221" y="-516.64" font-family="Times-Roman" font-size="14.00">~</text>
<text text-anchor="middle" x="221" y="-501.64" font-family="Times-Roman" font-size="14.00">Normal</text>
</g>
<!-- μ_μ_j&#45;&gt;μ_j -->
<g id="edge2" class="edge">
<title>μ_μ_j&#45;&gt;μ_j</title>
<path fill="none" stroke="black" d="M221,-482.75C221,-474.58 221,-465.8 221,-457.27"/>
<polygon fill="black" stroke="black" points="224.5,-457.06 221,-447.06 217.5,-457.06 224.5,-457.06"/>
</g>
<!-- μ_d -->
<g id="node10" class="node">
<title>μ_d</title>
<ellipse fill="none" stroke="black" cx="765" cy="-409.38" rx="48.58" ry="37.45"/>
<text text-anchor="middle" x="765" y="-420.68" font-family="Times-Roman" font-size="14.00">μ_d</text>
<text text-anchor="middle" x="765" y="-405.68" font-family="Times-Roman" font-size="14.00">~</text>
<text text-anchor="middle" x="765" y="-390.68" font-family="Times-Roman" font-size="14.00">Normal</text>
</g>
<!-- d -->
<g id="node18" class="node">
<title>d</title>
<ellipse fill="none" stroke="black" cx="765" cy="-287.43" rx="48.58" ry="37.45"/>
<text text-anchor="middle" x="765" y="-298.73" font-family="Times-Roman" font-size="14.00">d</text>
<text text-anchor="middle" x="765" y="-283.73" font-family="Times-Roman" font-size="14.00">~</text>
<text text-anchor="middle" x="765" y="-268.73" font-family="Times-Roman" font-size="14.00">Normal</text>
</g>
<!-- μ_d&#45;&gt;d -->
<g id="edge8" class="edge">
<title>μ_d&#45;&gt;d</title>
<path fill="none" stroke="black" d="M765,-371.74C765,-360.34 765,-347.6 765,-335.58"/>
<polygon fill="black" stroke="black" points="768.5,-335.26 765,-325.26 761.5,-335.26 768.5,-335.26"/>
</g>
<!-- σ_d -->
<g id="node11" class="node">
<title>σ_d</title>
<ellipse fill="none" stroke="black" cx="901" cy="-409.38" rx="69.09" ry="37.45"/>
<text text-anchor="middle" x="901" y="-420.68" font-family="Times-Roman" font-size="14.00">σ_d</text>
<text text-anchor="middle" x="901" y="-405.68" font-family="Times-Roman" font-size="14.00">~</text>
<text text-anchor="middle" x="901" y="-390.68" font-family="Times-Roman" font-size="14.00">HalfNormal</text>
</g>
<!-- σ_d&#45;&gt;d -->
<g id="edge9" class="edge">
<title>σ_d&#45;&gt;d</title>
<path fill="none" stroke="black" d="M865.27,-376.87C846.59,-360.39 823.69,-340.19 804.49,-323.26"/>
<polygon fill="black" stroke="black" points="806.6,-320.45 796.78,-316.46 801.97,-325.7 806.6,-320.45"/>
</g>
<!-- μ_μ_a -->
<g id="node12" class="node">
<title>μ_μ_a</title>
<ellipse fill="none" stroke="black" cx="921" cy="-520.34" rx="48.58" ry="37.45"/>
<text text-anchor="middle" x="921" y="-531.64" font-family="Times-Roman" font-size="14.00">μ_μ_a</text>
<text text-anchor="middle" x="921" y="-516.64" font-family="Times-Roman" font-size="14.00">~</text>
<text text-anchor="middle" x="921" y="-501.64" font-family="Times-Roman" font-size="14.00">Normal</text>
</g>
<!-- μ_μ_a&#45;&gt;μ_a -->
<g id="edge11" class="edge">
<title>μ_μ_a&#45;&gt;μ_a</title>
<path fill="none" stroke="black" d="M952.36,-491.56C969.02,-476.8 989.61,-458.56 1007.05,-443.12"/>
<polygon fill="black" stroke="black" points="1009.65,-445.49 1014.81,-436.24 1005.01,-440.25 1009.65,-445.49"/>
</g>
<!-- j -->
<g id="node16" class="node">
<title>j</title>
<ellipse fill="none" stroke="black" cx="221" cy="-287.43" rx="48.58" ry="37.45"/>
<text text-anchor="middle" x="221" y="-298.73" font-family="Times-Roman" font-size="14.00">j</text>
<text text-anchor="middle" x="221" y="-283.73" font-family="Times-Roman" font-size="14.00">~</text>
<text text-anchor="middle" x="221" y="-268.73" font-family="Times-Roman" font-size="14.00">Normal</text>
</g>
<!-- σ_j&#45;&gt;j -->
<g id="edge4" class="edge">
<title>σ_j&#45;&gt;j</title>
<path fill="none" stroke="black" d="M120.73,-376.87C139.41,-360.39 162.31,-340.19 181.51,-323.26"/>
<polygon fill="black" stroke="black" points="184.03,-325.7 189.22,-316.46 179.4,-320.45 184.03,-325.7"/>
</g>
<!-- μ_j&#45;&gt;j -->
<g id="edge5" class="edge">
<title>μ_j&#45;&gt;j</title>
<path fill="none" stroke="black" d="M221,-371.74C221,-360.34 221,-347.6 221,-335.58"/>
<polygon fill="black" stroke="black" points="224.5,-335.26 221,-325.26 217.5,-335.26 224.5,-335.26"/>
</g>
<!-- lfc -->
<g id="node23" class="node">
<title>lfc</title>
<ellipse fill="lightgrey" stroke="black" cx="557" cy="-76.48" rx="48.58" ry="37.45"/>
<text text-anchor="middle" x="557" y="-87.78" font-family="Times-Roman" font-size="14.00">lfc</text>
<text text-anchor="middle" x="557" y="-72.78" font-family="Times-Roman" font-size="14.00">~</text>
<text text-anchor="middle" x="557" y="-57.78" font-family="Times-Roman" font-size="14.00">Normal</text>
</g>
<!-- σ&#45;&gt;lfc -->
<g id="edge22" class="edge">
<title>σ&#45;&gt;lfc</title>
<path fill="none" stroke="black" d="M388.25,-253.78C424.3,-216.12 483.45,-154.32 521.29,-114.79"/>
<polygon fill="black" stroke="black" points="524.17,-116.84 528.56,-107.19 519.11,-112 524.17,-116.84"/>
</g>
<!-- j&#45;&gt;μ -->
<g id="edge19" class="edge">
<title>j&#45;&gt;μ</title>
<path fill="none" stroke="black" d="M241.82,-253.27C251.55,-240.52 264.25,-227.08 279,-218.95 315.05,-199.1 423.29,-187.53 494.7,-181.85"/>
<polygon fill="black" stroke="black" points="495.25,-185.32 504.95,-181.06 494.71,-178.34 495.25,-185.32"/>
</g>
<!-- h&#45;&gt;μ -->
<g id="edge20" class="edge">
<title>h&#45;&gt;μ</title>
<path fill="none" stroke="black" d="M600.97,-252.55C594.12,-239.68 586.31,-225.01 579.42,-212.07"/>
<polygon fill="black" stroke="black" points="582.39,-210.19 574.6,-203 576.21,-213.48 582.39,-210.19"/>
</g>
<!-- d&#45;&gt;μ -->
<g id="edge17" class="edge">
<title>d&#45;&gt;μ</title>
<path fill="none" stroke="black" d="M734.51,-258.09C719.06,-244.85 699.48,-229.68 680,-218.95 663.5,-209.87 644.65,-202.21 626.89,-196.03"/>
<polygon fill="black" stroke="black" points="627.75,-192.63 617.15,-192.75 625.52,-199.26 627.75,-192.63"/>
</g>
<!-- μ_a_offset -->
<g id="node19" class="node">
<title>μ_a_offset</title>
<ellipse fill="none" stroke="black" cx="1051" cy="-520.34" rx="63.78" ry="37.45"/>
<text text-anchor="middle" x="1051" y="-531.64" font-family="Times-Roman" font-size="14.00">μ_a_offset</text>
<text text-anchor="middle" x="1051" y="-516.64" font-family="Times-Roman" font-size="14.00">~</text>
<text text-anchor="middle" x="1051" y="-501.64" font-family="Times-Roman" font-size="14.00">Normal</text>
</g>
<!-- μ_a_offset&#45;&gt;μ_a -->
<g id="edge10" class="edge">
<title>μ_a_offset&#45;&gt;μ_a</title>
<path fill="none" stroke="black" d="M1048.65,-482.75C1047.9,-471.02 1047.06,-458.03 1046.31,-446.34"/>
<polygon fill="black" stroke="black" points="1049.78,-445.79 1045.65,-436.04 1042.8,-446.24 1049.78,-445.79"/>
</g>
<!-- a -->
<g id="node22" class="node">
<title>a</title>
<ellipse fill="none" stroke="black" cx="1044" cy="-287.43" rx="48.58" ry="37.45"/>
<text text-anchor="middle" x="1044" y="-298.73" font-family="Times-Roman" font-size="14.00">a</text>
<text text-anchor="middle" x="1044" y="-283.73" font-family="Times-Roman" font-size="14.00">~</text>
<text text-anchor="middle" x="1044" y="-268.73" font-family="Times-Roman" font-size="14.00">Normal</text>
</g>
<!-- σ_a&#45;&gt;a -->
<g id="edge14" class="edge">
<title>σ_a&#45;&gt;a</title>
<path fill="none" stroke="black" d="M1188.38,-483.25C1172.91,-445.26 1145.07,-384.96 1109,-340.91 1102.86,-333.41 1095.5,-326.25 1087.97,-319.76"/>
<polygon fill="black" stroke="black" points="1089.72,-316.67 1079.78,-313 1085.26,-322.07 1089.72,-316.67"/>
</g>
<!-- μ_a&#45;&gt;a -->
<g id="edge15" class="edge">
<title>μ_a&#45;&gt;a</title>
<path fill="none" stroke="black" d="M1044,-382.65C1044,-368.87 1044,-351.47 1044,-335.38"/>
<polygon fill="black" stroke="black" points="1047.5,-335.04 1044,-325.04 1040.5,-335.04 1047.5,-335.04"/>
</g>
<!-- a&#45;&gt;μ -->
<g id="edge18" class="edge">
<title>a&#45;&gt;μ</title>
<path fill="none" stroke="black" d="M999.84,-270.69C956.16,-255.62 887.17,-233.13 826,-218.95 758.98,-203.42 681.07,-191.99 627.15,-185.11"/>
<polygon fill="black" stroke="black" points="627.39,-181.61 617.03,-183.83 626.51,-188.56 627.39,-181.61"/>
</g>
<!-- μ&#45;&gt;lfc -->
<g id="edge23" class="edge">
<title>μ&#45;&gt;lfc</title>
<path fill="none" stroke="black" d="M559.95,-149.71C559.63,-141.89 559.27,-133.03 558.91,-124.27"/>
<polygon fill="black" stroke="black" points="562.4,-123.95 558.5,-114.1 555.41,-124.23 562.4,-123.95"/>
</g>
</g>
</svg>
