<?xml version="1.0" encoding="UTF-8" standalone="no"?>
<!DOCTYPE svg PUBLIC "-//W3C//DTD SVG 1.1//EN"
 "http://www.w3.org/Graphics/SVG/1.1/DTD/svg11.dtd">
<!-- Generated by graphviz version 2.47.0 (20210327.0129)
 -->
<!-- Pages: 1 -->
<svg width="1397pt" height="677pt"
 viewBox="0.00 0.00 1396.58 676.77" xmlns="http://www.w3.org/2000/svg" xmlns:xlink="http://www.w3.org/1999/xlink">
<g id="graph0" class="graph" transform="scale(1 1) rotate(0) translate(4 672.77)">
<polygon fill="white" stroke="transparent" points="-4,4 -4,-672.77 1392.58,-672.77 1392.58,4 -4,4"/>
<g id="clust1" class="cluster">
<title>cluster2</title>
<path fill="none" stroke="black" d="M1002.79,-340.91C1002.79,-340.91 1248.79,-340.91 1248.79,-340.91 1254.79,-340.91 1260.79,-346.91 1260.79,-352.91 1260.79,-352.91 1260.79,-442.86 1260.79,-442.86 1260.79,-448.86 1254.79,-454.86 1248.79,-454.86 1248.79,-454.86 1002.79,-454.86 1002.79,-454.86 996.79,-454.86 990.79,-448.86 990.79,-442.86 990.79,-442.86 990.79,-352.91 990.79,-352.91 990.79,-346.91 996.79,-340.91 1002.79,-340.91"/>
<text text-anchor="middle" x="1247.79" y="-348.71" font-family="Times-Roman" font-size="14.00">2</text>
</g>
<g id="clust2" class="cluster">
<title>cluster4</title>
<path fill="none" stroke="black" d="M845.79,-218.95C845.79,-218.95 1091.79,-218.95 1091.79,-218.95 1097.79,-218.95 1103.79,-224.95 1103.79,-230.95 1103.79,-230.95 1103.79,-320.91 1103.79,-320.91 1103.79,-326.91 1097.79,-332.91 1091.79,-332.91 1091.79,-332.91 845.79,-332.91 845.79,-332.91 839.79,-332.91 833.79,-326.91 833.79,-320.91 833.79,-320.91 833.79,-230.95 833.79,-230.95 833.79,-224.95 839.79,-218.95 845.79,-218.95"/>
<text text-anchor="middle" x="1090.79" y="-226.75" font-family="Times-Roman" font-size="14.00">4</text>
</g>
<g id="clust3" class="cluster">
<title>cluster64 x 10</title>
<path fill="none" stroke="black" d="M139.79,-218.95C139.79,-218.95 229.79,-218.95 229.79,-218.95 235.79,-218.95 241.79,-224.95 241.79,-230.95 241.79,-230.95 241.79,-320.91 241.79,-320.91 241.79,-326.91 235.79,-332.91 229.79,-332.91 229.79,-332.91 139.79,-332.91 139.79,-332.91 133.79,-332.91 127.79,-326.91 127.79,-320.91 127.79,-320.91 127.79,-230.95 127.79,-230.95 127.79,-224.95 133.79,-218.95 139.79,-218.95"/>
<text text-anchor="middle" x="206.79" y="-226.75" font-family="Times-Roman" font-size="14.00">64 x 10</text>
</g>
<g id="clust4" class="cluster">
<title>cluster10</title>
<path fill="none" stroke="black" d="M421.79,-218.95C421.79,-218.95 511.79,-218.95 511.79,-218.95 517.79,-218.95 523.79,-224.95 523.79,-230.95 523.79,-230.95 523.79,-320.91 523.79,-320.91 523.79,-326.91 517.79,-332.91 511.79,-332.91 511.79,-332.91 421.79,-332.91 421.79,-332.91 415.79,-332.91 409.79,-326.91 409.79,-320.91 409.79,-320.91 409.79,-230.95 409.79,-230.95 409.79,-224.95 415.79,-218.95 421.79,-218.95"/>
<text text-anchor="middle" x="506.29" y="-226.75" font-family="Times-Roman" font-size="14.00">10</text>
</g>
<g id="clust5" class="cluster">
<title>cluster64</title>
<path fill="none" stroke="black" d="M545.79,-351.88C545.79,-351.88 821.79,-351.88 821.79,-351.88 827.79,-351.88 833.79,-357.88 833.79,-363.88 833.79,-363.88 833.79,-553.81 833.79,-553.81 833.79,-559.81 827.79,-565.81 821.79,-565.81 821.79,-565.81 545.79,-565.81 545.79,-565.81 539.79,-565.81 533.79,-559.81 533.79,-553.81 533.79,-553.81 533.79,-363.88 533.79,-363.88 533.79,-357.88 539.79,-351.88 545.79,-351.88"/>
<text text-anchor="middle" x="816.29" y="-359.68" font-family="Times-Roman" font-size="14.00">64</text>
</g>
<g id="clust6" class="cluster">
<title>cluster192</title>
<path fill="none" stroke="black" d="M554.79,-218.95C554.79,-218.95 644.79,-218.95 644.79,-218.95 650.79,-218.95 656.79,-224.95 656.79,-230.95 656.79,-230.95 656.79,-320.91 656.79,-320.91 656.79,-326.91 650.79,-332.91 644.79,-332.91 644.79,-332.91 554.79,-332.91 554.79,-332.91 548.79,-332.91 542.79,-326.91 542.79,-320.91 542.79,-320.91 542.79,-230.95 542.79,-230.95 542.79,-224.95 548.79,-218.95 554.79,-218.95"/>
<text text-anchor="middle" x="634.79" y="-226.75" font-family="Times-Roman" font-size="14.00">192</text>
</g>
<g id="clust7" class="cluster">
<title>cluster1,443</title>
<path fill="none" stroke="black" d="M485.79,-8C485.79,-8 589.79,-8 589.79,-8 595.79,-8 601.79,-14 601.79,-20 601.79,-20 601.79,-198.95 601.79,-198.95 601.79,-204.95 595.79,-210.95 589.79,-210.95 589.79,-210.95 485.79,-210.95 485.79,-210.95 479.79,-210.95 473.79,-204.95 473.79,-198.95 473.79,-198.95 473.79,-20 473.79,-20 473.79,-14 479.79,-8 485.79,-8"/>
<text text-anchor="middle" x="573.29" y="-15.8" font-family="Times-Roman" font-size="14.00">1,443</text>
</g>
<!-- σ_σ -->
<g id="node1" class="node">
<title>σ_σ</title>
<ellipse fill="none" stroke="black" cx="910.79" cy="-409.38" rx="69.09" ry="37.45"/>
<text text-anchor="middle" x="910.79" y="-420.68" font-family="Times-Roman" font-size="14.00">σ_σ</text>
<text text-anchor="middle" x="910.79" y="-405.68" font-family="Times-Roman" font-size="14.00">~</text>
<text text-anchor="middle" x="910.79" y="-390.68" font-family="Times-Roman" font-size="14.00">HalfNormal</text>
</g>
<!-- σ -->
<g id="node15" class="node">
<title>σ</title>
<ellipse fill="none" stroke="black" cx="910.79" cy="-287.43" rx="69.09" ry="37.45"/>
<text text-anchor="middle" x="910.79" y="-298.73" font-family="Times-Roman" font-size="14.00">σ</text>
<text text-anchor="middle" x="910.79" y="-283.73" font-family="Times-Roman" font-size="14.00">~</text>
<text text-anchor="middle" x="910.79" y="-268.73" font-family="Times-Roman" font-size="14.00">HalfNormal</text>
</g>
<!-- σ_σ&#45;&gt;σ -->
<g id="edge21" class="edge">
<title>σ_σ&#45;&gt;σ</title>
<path fill="none" stroke="black" d="M910.79,-371.74C910.79,-360.34 910.79,-347.6 910.79,-335.58"/>
<polygon fill="black" stroke="black" points="914.29,-335.26 910.79,-325.26 907.29,-335.26 914.29,-335.26"/>
</g>
<!-- σ_σ_j -->
<g id="node2" class="node">
<title>σ_σ_j</title>
<ellipse fill="none" stroke="black" cx="1046.79" cy="-520.34" rx="69.09" ry="37.45"/>
<text text-anchor="middle" x="1046.79" y="-531.64" font-family="Times-Roman" font-size="14.00">σ_σ_j</text>
<text text-anchor="middle" x="1046.79" y="-516.64" font-family="Times-Roman" font-size="14.00">~</text>
<text text-anchor="middle" x="1046.79" y="-501.64" font-family="Times-Roman" font-size="14.00">HalfNormal</text>
</g>
<!-- σ_j -->
<g id="node13" class="node">
<title>σ_j</title>
<ellipse fill="none" stroke="black" cx="1067.79" cy="-409.38" rx="69.09" ry="37.45"/>
<text text-anchor="middle" x="1067.79" y="-420.68" font-family="Times-Roman" font-size="14.00">σ_j</text>
<text text-anchor="middle" x="1067.79" y="-405.68" font-family="Times-Roman" font-size="14.00">~</text>
<text text-anchor="middle" x="1067.79" y="-390.68" font-family="Times-Roman" font-size="14.00">HalfNormal</text>
</g>
<!-- σ_σ_j&#45;&gt;σ_j -->
<g id="edge3" class="edge">
<title>σ_σ_j&#45;&gt;σ_j</title>
<path fill="none" stroke="black" d="M1053.84,-482.75C1055.45,-474.4 1057.18,-465.42 1058.86,-456.71"/>
<polygon fill="black" stroke="black" points="1062.34,-457.17 1060.79,-446.68 1055.46,-455.84 1062.34,-457.17"/>
</g>
<!-- μ_d -->
<g id="node3" class="node">
<title>μ_d</title>
<ellipse fill="none" stroke="black" cx="320.79" cy="-409.38" rx="48.58" ry="37.45"/>
<text text-anchor="middle" x="320.79" y="-420.68" font-family="Times-Roman" font-size="14.00">μ_d</text>
<text text-anchor="middle" x="320.79" y="-405.68" font-family="Times-Roman" font-size="14.00">~</text>
<text text-anchor="middle" x="320.79" y="-390.68" font-family="Times-Roman" font-size="14.00">Normal</text>
</g>
<!-- d -->
<g id="node18" class="node">
<title>d</title>
<ellipse fill="none" stroke="black" cx="466.79" cy="-287.43" rx="48.58" ry="37.45"/>
<text text-anchor="middle" x="466.79" y="-298.73" font-family="Times-Roman" font-size="14.00">d</text>
<text text-anchor="middle" x="466.79" y="-283.73" font-family="Times-Roman" font-size="14.00">~</text>
<text text-anchor="middle" x="466.79" y="-268.73" font-family="Times-Roman" font-size="14.00">Normal</text>
</g>
<!-- μ_d&#45;&gt;d -->
<g id="edge8" class="edge">
<title>μ_d&#45;&gt;d</title>
<path fill="none" stroke="black" d="M342.37,-375.7C352.13,-363.17 364.66,-349.78 378.79,-340.91 390.48,-333.57 396.41,-339 408.79,-332.91 414.91,-329.89 421.02,-326.19 426.85,-322.21"/>
<polygon fill="black" stroke="black" points="429.08,-324.91 435.16,-316.23 424.99,-319.23 429.08,-324.91"/>
</g>
<!-- μ_μ_j -->
<g id="node4" class="node">
<title>μ_μ_j</title>
<ellipse fill="none" stroke="black" cx="1339.79" cy="-520.34" rx="48.58" ry="37.45"/>
<text text-anchor="middle" x="1339.79" y="-531.64" font-family="Times-Roman" font-size="14.00">μ_μ_j</text>
<text text-anchor="middle" x="1339.79" y="-516.64" font-family="Times-Roman" font-size="14.00">~</text>
<text text-anchor="middle" x="1339.79" y="-501.64" font-family="Times-Roman" font-size="14.00">Normal</text>
</g>
<!-- μ_j -->
<g id="node14" class="node">
<title>μ_j</title>
<ellipse fill="none" stroke="black" cx="1203.79" cy="-409.38" rx="48.58" ry="37.45"/>
<text text-anchor="middle" x="1203.79" y="-420.68" font-family="Times-Roman" font-size="14.00">μ_j</text>
<text text-anchor="middle" x="1203.79" y="-405.68" font-family="Times-Roman" font-size="14.00">~</text>
<text text-anchor="middle" x="1203.79" y="-390.68" font-family="Times-Roman" font-size="14.00">Normal</text>
</g>
<!-- μ_μ_j&#45;&gt;μ_j -->
<g id="edge1" class="edge">
<title>μ_μ_j&#45;&gt;μ_j</title>
<path fill="none" stroke="black" d="M1306.52,-492.68C1288,-477.84 1264.78,-459.24 1245.1,-443.48"/>
<polygon fill="black" stroke="black" points="1247.18,-440.66 1237.19,-437.14 1242.8,-446.12 1247.18,-440.66"/>
</g>
<!-- σ_d -->
<g id="node5" class="node">
<title>σ_d</title>
<ellipse fill="none" stroke="black" cx="456.79" cy="-409.38" rx="69.09" ry="37.45"/>
<text text-anchor="middle" x="456.79" y="-420.68" font-family="Times-Roman" font-size="14.00">σ_d</text>
<text text-anchor="middle" x="456.79" y="-405.68" font-family="Times-Roman" font-size="14.00">~</text>
<text text-anchor="middle" x="456.79" y="-390.68" font-family="Times-Roman" font-size="14.00">HalfNormal</text>
</g>
<!-- σ_d&#45;&gt;d -->
<g id="edge9" class="edge">
<title>σ_d&#45;&gt;d</title>
<path fill="none" stroke="black" d="M459.85,-371.74C460.81,-360.11 461.9,-347.1 462.92,-334.88"/>
<polygon fill="black" stroke="black" points="466.41,-335.1 463.75,-324.85 459.44,-334.52 466.41,-335.1"/>
</g>
<!-- μ_μ_a -->
<g id="node6" class="node">
<title>μ_μ_a</title>
<ellipse fill="none" stroke="black" cx="318.79" cy="-520.34" rx="48.58" ry="37.45"/>
<text text-anchor="middle" x="318.79" y="-531.64" font-family="Times-Roman" font-size="14.00">μ_μ_a</text>
<text text-anchor="middle" x="318.79" y="-516.64" font-family="Times-Roman" font-size="14.00">~</text>
<text text-anchor="middle" x="318.79" y="-501.64" font-family="Times-Roman" font-size="14.00">Normal</text>
</g>
<!-- μ_a -->
<g id="node19" class="node">
<title>μ_a</title>
<polygon fill="none" stroke="black" points="655.79,-435.88 543.79,-435.88 543.79,-382.88 655.79,-382.88 655.79,-435.88"/>
<text text-anchor="middle" x="599.79" y="-420.68" font-family="Times-Roman" font-size="14.00">μ_a</text>
<text text-anchor="middle" x="599.79" y="-405.68" font-family="Times-Roman" font-size="14.00">~</text>
<text text-anchor="middle" x="599.79" y="-390.68" font-family="Times-Roman" font-size="14.00">Deterministic</text>
</g>
<!-- μ_μ_a&#45;&gt;μ_a -->
<g id="edge10" class="edge">
<title>μ_μ_a&#45;&gt;μ_a</title>
<path fill="none" stroke="black" d="M354.16,-494.11C361.39,-489.83 369.13,-485.82 376.79,-482.86 443.32,-457.18 468.77,-481.82 534.79,-454.86 543.34,-451.37 551.91,-446.62 559.88,-441.52"/>
<polygon fill="black" stroke="black" points="561.92,-444.37 568.28,-435.9 558.02,-438.56 561.92,-444.37"/>
</g>
<!-- i -->
<g id="node7" class="node">
<title>i</title>
<ellipse fill="none" stroke="black" cx="350.79" cy="-287.43" rx="48.58" ry="37.45"/>
<text text-anchor="middle" x="350.79" y="-298.73" font-family="Times-Roman" font-size="14.00">i</text>
<text text-anchor="middle" x="350.79" y="-283.73" font-family="Times-Roman" font-size="14.00">~</text>
<text text-anchor="middle" x="350.79" y="-268.73" font-family="Times-Roman" font-size="14.00">Normal</text>
</g>
<!-- μ -->
<g id="node24" class="node">
<title>μ</title>
<polygon fill="none" stroke="black" points="593.79,-202.95 481.79,-202.95 481.79,-149.95 593.79,-149.95 593.79,-202.95"/>
<text text-anchor="middle" x="537.79" y="-187.75" font-family="Times-Roman" font-size="14.00">μ</text>
<text text-anchor="middle" x="537.79" y="-172.75" font-family="Times-Roman" font-size="14.00">~</text>
<text text-anchor="middle" x="537.79" y="-157.75" font-family="Times-Roman" font-size="14.00">Deterministic</text>
</g>
<!-- i&#45;&gt;μ -->
<g id="edge20" class="edge">
<title>i&#45;&gt;μ</title>
<path fill="none" stroke="black" d="M371.65,-253.34C380.82,-241.06 392.53,-227.94 405.79,-218.95 425.45,-205.63 449.61,-196.4 471.87,-190.1"/>
<polygon fill="black" stroke="black" points="472.85,-193.46 481.6,-187.49 471.04,-186.7 472.85,-193.46"/>
</g>
<!-- σ_σ_a -->
<g id="node8" class="node">
<title>σ_σ_a</title>
<ellipse fill="none" stroke="black" cx="756.79" cy="-631.29" rx="69.09" ry="37.45"/>
<text text-anchor="middle" x="756.79" y="-642.59" font-family="Times-Roman" font-size="14.00">σ_σ_a</text>
<text text-anchor="middle" x="756.79" y="-627.59" font-family="Times-Roman" font-size="14.00">~</text>
<text text-anchor="middle" x="756.79" y="-612.59" font-family="Times-Roman" font-size="14.00">HalfNormal</text>
</g>
<!-- σ_a -->
<g id="node20" class="node">
<title>σ_a</title>
<ellipse fill="none" stroke="black" cx="756.79" cy="-520.34" rx="69.09" ry="37.45"/>
<text text-anchor="middle" x="756.79" y="-531.64" font-family="Times-Roman" font-size="14.00">σ_a</text>
<text text-anchor="middle" x="756.79" y="-516.64" font-family="Times-Roman" font-size="14.00">~</text>
<text text-anchor="middle" x="756.79" y="-501.64" font-family="Times-Roman" font-size="14.00">HalfNormal</text>
</g>
<!-- σ_σ_a&#45;&gt;σ_a -->
<g id="edge13" class="edge">
<title>σ_σ_a&#45;&gt;σ_a</title>
<path fill="none" stroke="black" d="M756.79,-593.71C756.79,-585.53 756.79,-576.75 756.79,-568.23"/>
<polygon fill="black" stroke="black" points="760.29,-568.01 756.79,-558.01 753.29,-568.01 760.29,-568.01"/>
</g>
<!-- μ_h -->
<g id="node9" class="node">
<title>μ_h</title>
<ellipse fill="none" stroke="black" cx="48.79" cy="-409.38" rx="48.58" ry="37.45"/>
<text text-anchor="middle" x="48.79" y="-420.68" font-family="Times-Roman" font-size="14.00">μ_h</text>
<text text-anchor="middle" x="48.79" y="-405.68" font-family="Times-Roman" font-size="14.00">~</text>
<text text-anchor="middle" x="48.79" y="-390.68" font-family="Times-Roman" font-size="14.00">Normal</text>
</g>
<!-- h -->
<g id="node17" class="node">
<title>h</title>
<ellipse fill="none" stroke="black" cx="184.79" cy="-287.43" rx="48.58" ry="37.45"/>
<text text-anchor="middle" x="184.79" y="-298.73" font-family="Times-Roman" font-size="14.00">h</text>
<text text-anchor="middle" x="184.79" y="-283.73" font-family="Times-Roman" font-size="14.00">~</text>
<text text-anchor="middle" x="184.79" y="-268.73" font-family="Times-Roman" font-size="14.00">Normal</text>
</g>
<!-- μ_h&#45;&gt;h -->
<g id="edge7" class="edge">
<title>μ_h&#45;&gt;h</title>
<path fill="none" stroke="black" d="M73.15,-376.55C82.96,-364.72 94.78,-351.58 106.79,-340.91 116.42,-332.35 127.52,-324.09 138.27,-316.74"/>
<polygon fill="black" stroke="black" points="140.41,-319.52 146.79,-311.06 136.53,-313.7 140.41,-319.52"/>
</g>
<!-- σ_h -->
<g id="node10" class="node">
<title>σ_h</title>
<ellipse fill="none" stroke="black" cx="184.79" cy="-409.38" rx="69.09" ry="37.45"/>
<text text-anchor="middle" x="184.79" y="-420.68" font-family="Times-Roman" font-size="14.00">σ_h</text>
<text text-anchor="middle" x="184.79" y="-405.68" font-family="Times-Roman" font-size="14.00">~</text>
<text text-anchor="middle" x="184.79" y="-390.68" font-family="Times-Roman" font-size="14.00">HalfNormal</text>
</g>
<!-- σ_h&#45;&gt;h -->
<g id="edge6" class="edge">
<title>σ_h&#45;&gt;h</title>
<path fill="none" stroke="black" d="M184.79,-371.74C184.79,-360.34 184.79,-347.6 184.79,-335.58"/>
<polygon fill="black" stroke="black" points="188.29,-335.26 184.79,-325.26 181.29,-335.26 188.29,-335.26"/>
</g>
<!-- σ_μ_j -->
<g id="node11" class="node">
<title>σ_μ_j</title>
<ellipse fill="none" stroke="black" cx="1203.79" cy="-520.34" rx="69.09" ry="37.45"/>
<text text-anchor="middle" x="1203.79" y="-531.64" font-family="Times-Roman" font-size="14.00">σ_μ_j</text>
<text text-anchor="middle" x="1203.79" y="-516.64" font-family="Times-Roman" font-size="14.00">~</text>
<text text-anchor="middle" x="1203.79" y="-501.64" font-family="Times-Roman" font-size="14.00">HalfNormal</text>
</g>
<!-- σ_μ_j&#45;&gt;μ_j -->
<g id="edge2" class="edge">
<title>σ_μ_j&#45;&gt;μ_j</title>
<path fill="none" stroke="black" d="M1203.79,-482.75C1203.79,-474.58 1203.79,-465.8 1203.79,-457.27"/>
<polygon fill="black" stroke="black" points="1207.29,-457.06 1203.79,-447.06 1200.29,-457.06 1207.29,-457.06"/>
</g>
<!-- σ_μ_a -->
<g id="node12" class="node">
<title>σ_μ_a</title>
<ellipse fill="none" stroke="black" cx="454.79" cy="-520.34" rx="69.09" ry="37.45"/>
<text text-anchor="middle" x="454.79" y="-531.64" font-family="Times-Roman" font-size="14.00">σ_μ_a</text>
<text text-anchor="middle" x="454.79" y="-516.64" font-family="Times-Roman" font-size="14.00">~</text>
<text text-anchor="middle" x="454.79" y="-501.64" font-family="Times-Roman" font-size="14.00">HalfNormal</text>
</g>
<!-- σ_μ_a&#45;&gt;μ_a -->
<g id="edge11" class="edge">
<title>σ_μ_a&#45;&gt;μ_a</title>
<path fill="none" stroke="black" d="M494.41,-489.56C514.02,-474.83 537.69,-457.05 557.63,-442.07"/>
<polygon fill="black" stroke="black" points="559.74,-444.85 565.63,-436.05 555.54,-439.26 559.74,-444.85"/>
</g>
<!-- j -->
<g id="node16" class="node">
<title>j</title>
<ellipse fill="none" stroke="black" cx="1046.79" cy="-287.43" rx="48.58" ry="37.45"/>
<text text-anchor="middle" x="1046.79" y="-298.73" font-family="Times-Roman" font-size="14.00">j</text>
<text text-anchor="middle" x="1046.79" y="-283.73" font-family="Times-Roman" font-size="14.00">~</text>
<text text-anchor="middle" x="1046.79" y="-268.73" font-family="Times-Roman" font-size="14.00">Normal</text>
</g>
<!-- σ_j&#45;&gt;j -->
<g id="edge4" class="edge">
<title>σ_j&#45;&gt;j</title>
<path fill="none" stroke="black" d="M1061.38,-371.74C1059.34,-360.11 1057.06,-347.1 1054.92,-334.88"/>
<polygon fill="black" stroke="black" points="1058.34,-334.09 1053.17,-324.85 1051.44,-335.3 1058.34,-334.09"/>
</g>
<!-- μ_j&#45;&gt;j -->
<g id="edge5" class="edge">
<title>μ_j&#45;&gt;j</title>
<path fill="none" stroke="black" d="M1180.28,-376.22C1170.5,-364.2 1158.46,-351.03 1145.79,-340.91 1131.43,-329.44 1114.19,-319.29 1098.15,-311.04"/>
<polygon fill="black" stroke="black" points="1099.39,-307.75 1088.88,-306.42 1096.26,-314.01 1099.39,-307.75"/>
</g>
<!-- lfc -->
<g id="node23" class="node">
<title>lfc</title>
<ellipse fill="lightgrey" stroke="black" cx="540.79" cy="-76.48" rx="48.58" ry="37.45"/>
<text text-anchor="middle" x="540.79" y="-87.78" font-family="Times-Roman" font-size="14.00">lfc</text>
<text text-anchor="middle" x="540.79" y="-72.78" font-family="Times-Roman" font-size="14.00">~</text>
<text text-anchor="middle" x="540.79" y="-57.78" font-family="Times-Roman" font-size="14.00">Normal</text>
</g>
<!-- σ&#45;&gt;lfc -->
<g id="edge22" class="edge">
<title>σ&#45;&gt;lfc</title>
<path fill="none" stroke="black" d="M863.55,-259.75C792.65,-219.71 659.47,-144.5 588.37,-104.35"/>
<polygon fill="black" stroke="black" points="590.02,-101.26 579.6,-99.39 586.58,-107.36 590.02,-101.26"/>
</g>
<!-- j&#45;&gt;μ -->
<g id="edge18" class="edge">
<title>j&#45;&gt;μ</title>
<path fill="none" stroke="black" d="M1026.45,-253.22C1016.72,-240.3 1003.89,-226.74 988.79,-218.95 923.46,-185.25 712.99,-178.64 604.24,-177.53"/>
<polygon fill="black" stroke="black" points="604.07,-174.03 594.04,-177.44 604,-181.03 604.07,-174.03"/>
</g>
<!-- h&#45;&gt;μ -->
<g id="edge19" class="edge">
<title>h&#45;&gt;μ</title>
<path fill="none" stroke="black" d="M218.95,-260.23C239.34,-245.87 266.34,-229 292.79,-218.95 350.89,-196.88 421.2,-186.5 471.56,-181.66"/>
<polygon fill="black" stroke="black" points="472.04,-185.13 481.68,-180.73 471.4,-178.16 472.04,-185.13"/>
</g>
<!-- d&#45;&gt;μ -->
<g id="edge16" class="edge">
<title>d&#45;&gt;μ</title>
<path fill="none" stroke="black" d="M488.29,-253.44C496.92,-240.18 506.88,-224.9 515.59,-211.53"/>
<polygon fill="black" stroke="black" points="518.58,-213.36 521.1,-203.07 512.71,-209.54 518.58,-213.36"/>
</g>
<!-- a -->
<g id="node22" class="node">
<title>a</title>
<ellipse fill="none" stroke="black" cx="599.79" cy="-287.43" rx="48.58" ry="37.45"/>
<text text-anchor="middle" x="599.79" y="-298.73" font-family="Times-Roman" font-size="14.00">a</text>
<text text-anchor="middle" x="599.79" y="-283.73" font-family="Times-Roman" font-size="14.00">~</text>
<text text-anchor="middle" x="599.79" y="-268.73" font-family="Times-Roman" font-size="14.00">Normal</text>
</g>
<!-- μ_a&#45;&gt;a -->
<g id="edge14" class="edge">
<title>μ_a&#45;&gt;a</title>
<path fill="none" stroke="black" d="M599.79,-382.65C599.79,-368.87 599.79,-351.47 599.79,-335.38"/>
<polygon fill="black" stroke="black" points="603.29,-335.04 599.79,-325.04 596.29,-335.04 603.29,-335.04"/>
</g>
<!-- σ_a&#45;&gt;a -->
<g id="edge15" class="edge">
<title>σ_a&#45;&gt;a</title>
<path fill="none" stroke="black" d="M743.4,-483.24C728.16,-445.24 700.68,-384.94 664.79,-340.91 658.67,-333.39 651.31,-326.23 643.78,-319.74"/>
<polygon fill="black" stroke="black" points="645.54,-316.65 635.6,-312.98 641.08,-322.04 645.54,-316.65"/>
</g>
<!-- μ_a_offset -->
<g id="node21" class="node">
<title>μ_a_offset</title>
<ellipse fill="none" stroke="black" cx="605.79" cy="-520.34" rx="63.78" ry="37.45"/>
<text text-anchor="middle" x="605.79" y="-531.64" font-family="Times-Roman" font-size="14.00">μ_a_offset</text>
<text text-anchor="middle" x="605.79" y="-516.64" font-family="Times-Roman" font-size="14.00">~</text>
<text text-anchor="middle" x="605.79" y="-501.64" font-family="Times-Roman" font-size="14.00">Normal</text>
</g>
<!-- μ_a_offset&#45;&gt;μ_a -->
<g id="edge12" class="edge">
<title>μ_a_offset&#45;&gt;μ_a</title>
<path fill="none" stroke="black" d="M603.78,-482.75C603.13,-471.02 602.41,-458.03 601.77,-446.34"/>
<polygon fill="black" stroke="black" points="605.25,-445.83 601.2,-436.04 598.26,-446.21 605.25,-445.83"/>
</g>
<!-- a&#45;&gt;μ -->
<g id="edge17" class="edge">
<title>a&#45;&gt;μ</title>
<path fill="none" stroke="black" d="M580.68,-252.84C573.28,-239.84 564.82,-224.95 557.37,-211.87"/>
<polygon fill="black" stroke="black" points="560.39,-210.1 552.4,-203.14 554.31,-213.56 560.39,-210.1"/>
</g>
<!-- μ&#45;&gt;lfc -->
<g id="edge23" class="edge">
<title>μ&#45;&gt;lfc</title>
<path fill="none" stroke="black" d="M538.58,-149.71C538.82,-141.89 539.09,-133.03 539.36,-124.27"/>
<polygon fill="black" stroke="black" points="542.86,-124.2 539.67,-114.1 535.86,-123.99 542.86,-124.2"/>
</g>
</g>
</svg>
