<?xml version="1.0" encoding="UTF-8" standalone="no"?>
<!DOCTYPE svg PUBLIC "-//W3C//DTD SVG 1.1//EN"
 "http://www.w3.org/Graphics/SVG/1.1/DTD/svg11.dtd">
<!-- Generated by graphviz version 2.47.0 (20210327.0129)
 -->
<!-- Pages: 1 -->
<svg width="1276pt" height="677pt"
 viewBox="0.00 0.00 1276.30 676.77" xmlns="http://www.w3.org/2000/svg" xmlns:xlink="http://www.w3.org/1999/xlink">
<g id="graph0" class="graph" transform="scale(1 1) rotate(0) translate(4 672.77)">
<polygon fill="white" stroke="transparent" points="-4,4 -4,-672.77 1272.3,-672.77 1272.3,4 -4,4"/>
<g id="clust1" class="cluster">
<title>cluster2</title>
<path fill="none" stroke="black" d="M1002.3,-340.91C1002.3,-340.91 1248.3,-340.91 1248.3,-340.91 1254.3,-340.91 1260.3,-346.91 1260.3,-352.91 1260.3,-352.91 1260.3,-442.86 1260.3,-442.86 1260.3,-448.86 1254.3,-454.86 1248.3,-454.86 1248.3,-454.86 1002.3,-454.86 1002.3,-454.86 996.3,-454.86 990.3,-448.86 990.3,-442.86 990.3,-442.86 990.3,-352.91 990.3,-352.91 990.3,-346.91 996.3,-340.91 1002.3,-340.91"/>
<text text-anchor="middle" x="1247.3" y="-348.71" font-family="Times-Roman" font-size="14.00">2</text>
</g>
<g id="clust2" class="cluster">
<title>cluster4</title>
<path fill="none" stroke="black" d="M846.3,-218.95C846.3,-218.95 1092.3,-218.95 1092.3,-218.95 1098.3,-218.95 1104.3,-224.95 1104.3,-230.95 1104.3,-230.95 1104.3,-320.91 1104.3,-320.91 1104.3,-326.91 1098.3,-332.91 1092.3,-332.91 1092.3,-332.91 846.3,-332.91 846.3,-332.91 840.3,-332.91 834.3,-326.91 834.3,-320.91 834.3,-320.91 834.3,-230.95 834.3,-230.95 834.3,-224.95 840.3,-218.95 846.3,-218.95"/>
<text text-anchor="middle" x="1091.3" y="-226.75" font-family="Times-Roman" font-size="14.00">4</text>
</g>
<g id="clust3" class="cluster">
<title>cluster64 x 10</title>
<path fill="none" stroke="black" d="M225.3,-218.95C225.3,-218.95 315.3,-218.95 315.3,-218.95 321.3,-218.95 327.3,-224.95 327.3,-230.95 327.3,-230.95 327.3,-320.91 327.3,-320.91 327.3,-326.91 321.3,-332.91 315.3,-332.91 315.3,-332.91 225.3,-332.91 225.3,-332.91 219.3,-332.91 213.3,-326.91 213.3,-320.91 213.3,-320.91 213.3,-230.95 213.3,-230.95 213.3,-224.95 219.3,-218.95 225.3,-218.95"/>
<text text-anchor="middle" x="292.3" y="-226.75" font-family="Times-Roman" font-size="14.00">64 x 10</text>
</g>
<g id="clust4" class="cluster">
<title>cluster10</title>
<path fill="none" stroke="black" d="M412.3,-218.95C412.3,-218.95 502.3,-218.95 502.3,-218.95 508.3,-218.95 514.3,-224.95 514.3,-230.95 514.3,-230.95 514.3,-320.91 514.3,-320.91 514.3,-326.91 508.3,-332.91 502.3,-332.91 502.3,-332.91 412.3,-332.91 412.3,-332.91 406.3,-332.91 400.3,-326.91 400.3,-320.91 400.3,-320.91 400.3,-230.95 400.3,-230.95 400.3,-224.95 406.3,-218.95 412.3,-218.95"/>
<text text-anchor="middle" x="496.8" y="-226.75" font-family="Times-Roman" font-size="14.00">10</text>
</g>
<g id="clust5" class="cluster">
<title>cluster64</title>
<path fill="none" stroke="black" d="M546.3,-351.88C546.3,-351.88 822.3,-351.88 822.3,-351.88 828.3,-351.88 834.3,-357.88 834.3,-363.88 834.3,-363.88 834.3,-553.81 834.3,-553.81 834.3,-559.81 828.3,-565.81 822.3,-565.81 822.3,-565.81 546.3,-565.81 546.3,-565.81 540.3,-565.81 534.3,-559.81 534.3,-553.81 534.3,-553.81 534.3,-363.88 534.3,-363.88 534.3,-357.88 540.3,-351.88 546.3,-351.88"/>
<text text-anchor="middle" x="816.8" y="-359.68" font-family="Times-Roman" font-size="14.00">64</text>
</g>
<g id="clust6" class="cluster">
<title>cluster192</title>
<path fill="none" stroke="black" d="M555.3,-218.95C555.3,-218.95 645.3,-218.95 645.3,-218.95 651.3,-218.95 657.3,-224.95 657.3,-230.95 657.3,-230.95 657.3,-320.91 657.3,-320.91 657.3,-326.91 651.3,-332.91 645.3,-332.91 645.3,-332.91 555.3,-332.91 555.3,-332.91 549.3,-332.91 543.3,-326.91 543.3,-320.91 543.3,-320.91 543.3,-230.95 543.3,-230.95 543.3,-224.95 549.3,-218.95 555.3,-218.95"/>
<text text-anchor="middle" x="635.3" y="-226.75" font-family="Times-Roman" font-size="14.00">192</text>
</g>
<g id="clust7" class="cluster">
<title>cluster1,443</title>
<path fill="none" stroke="black" d="M476.3,-8C476.3,-8 580.3,-8 580.3,-8 586.3,-8 592.3,-14 592.3,-20 592.3,-20 592.3,-198.95 592.3,-198.95 592.3,-204.95 586.3,-210.95 580.3,-210.95 580.3,-210.95 476.3,-210.95 476.3,-210.95 470.3,-210.95 464.3,-204.95 464.3,-198.95 464.3,-198.95 464.3,-20 464.3,-20 464.3,-14 470.3,-8 476.3,-8"/>
<text text-anchor="middle" x="563.8" y="-15.8" font-family="Times-Roman" font-size="14.00">1,443</text>
</g>
<!-- σ_h -->
<g id="node1" class="node">
<title>σ_h</title>
<ellipse fill="none" stroke="black" cx="69.3" cy="-409.38" rx="69.09" ry="37.45"/>
<text text-anchor="middle" x="69.3" y="-420.68" font-family="Times-Roman" font-size="14.00">σ_h</text>
<text text-anchor="middle" x="69.3" y="-405.68" font-family="Times-Roman" font-size="14.00">~</text>
<text text-anchor="middle" x="69.3" y="-390.68" font-family="Times-Roman" font-size="14.00">HalfNormal</text>
</g>
<!-- h -->
<g id="node17" class="node">
<title>h</title>
<ellipse fill="none" stroke="black" cx="270.3" cy="-287.43" rx="48.58" ry="37.45"/>
<text text-anchor="middle" x="270.3" y="-298.73" font-family="Times-Roman" font-size="14.00">h</text>
<text text-anchor="middle" x="270.3" y="-283.73" font-family="Times-Roman" font-size="14.00">~</text>
<text text-anchor="middle" x="270.3" y="-268.73" font-family="Times-Roman" font-size="14.00">Normal</text>
</g>
<!-- σ_h&#45;&gt;h -->
<g id="edge6" class="edge">
<title>σ_h&#45;&gt;h</title>
<path fill="none" stroke="black" d="M98.9,-375.37C112.36,-362.48 129.29,-348.9 147.3,-340.91 173.9,-329.1 185.36,-343.93 212.3,-332.91 218.77,-330.26 225.14,-326.69 231.15,-322.72"/>
<polygon fill="black" stroke="black" points="233.55,-325.32 239.68,-316.68 229.5,-319.6 233.55,-325.32"/>
</g>
<!-- μ_μ_j -->
<g id="node2" class="node">
<title>μ_μ_j</title>
<ellipse fill="none" stroke="black" cx="1050.3" cy="-520.34" rx="48.58" ry="37.45"/>
<text text-anchor="middle" x="1050.3" y="-531.64" font-family="Times-Roman" font-size="14.00">μ_μ_j</text>
<text text-anchor="middle" x="1050.3" y="-516.64" font-family="Times-Roman" font-size="14.00">~</text>
<text text-anchor="middle" x="1050.3" y="-501.64" font-family="Times-Roman" font-size="14.00">Normal</text>
</g>
<!-- μ_j -->
<g id="node13" class="node">
<title>μ_j</title>
<ellipse fill="none" stroke="black" cx="1047.3" cy="-409.38" rx="48.58" ry="37.45"/>
<text text-anchor="middle" x="1047.3" y="-420.68" font-family="Times-Roman" font-size="14.00">μ_j</text>
<text text-anchor="middle" x="1047.3" y="-405.68" font-family="Times-Roman" font-size="14.00">~</text>
<text text-anchor="middle" x="1047.3" y="-390.68" font-family="Times-Roman" font-size="14.00">Normal</text>
</g>
<!-- μ_μ_j&#45;&gt;μ_j -->
<g id="edge1" class="edge">
<title>μ_μ_j&#45;&gt;μ_j</title>
<path fill="none" stroke="black" d="M1049.29,-482.75C1049.06,-474.58 1048.82,-465.8 1048.59,-457.27"/>
<polygon fill="black" stroke="black" points="1052.08,-456.96 1048.31,-447.06 1045.08,-457.15 1052.08,-456.96"/>
</g>
<!-- σ_μ_j -->
<g id="node3" class="node">
<title>σ_μ_j</title>
<ellipse fill="none" stroke="black" cx="914.3" cy="-520.34" rx="69.09" ry="37.45"/>
<text text-anchor="middle" x="914.3" y="-531.64" font-family="Times-Roman" font-size="14.00">σ_μ_j</text>
<text text-anchor="middle" x="914.3" y="-516.64" font-family="Times-Roman" font-size="14.00">~</text>
<text text-anchor="middle" x="914.3" y="-501.64" font-family="Times-Roman" font-size="14.00">HalfNormal</text>
</g>
<!-- σ_μ_j&#45;&gt;μ_j -->
<g id="edge2" class="edge">
<title>σ_μ_j&#45;&gt;μ_j</title>
<path fill="none" stroke="black" d="M951.7,-488.7C968.76,-474.72 988.99,-458.15 1006.45,-443.85"/>
<polygon fill="black" stroke="black" points="1008.73,-446.5 1014.25,-437.46 1004.3,-441.09 1008.73,-446.5"/>
</g>
<!-- μ_d -->
<g id="node4" class="node">
<title>μ_d</title>
<ellipse fill="none" stroke="black" cx="321.3" cy="-409.38" rx="48.58" ry="37.45"/>
<text text-anchor="middle" x="321.3" y="-420.68" font-family="Times-Roman" font-size="14.00">μ_d</text>
<text text-anchor="middle" x="321.3" y="-405.68" font-family="Times-Roman" font-size="14.00">~</text>
<text text-anchor="middle" x="321.3" y="-390.68" font-family="Times-Roman" font-size="14.00">Normal</text>
</g>
<!-- d -->
<g id="node18" class="node">
<title>d</title>
<ellipse fill="none" stroke="black" cx="457.3" cy="-287.43" rx="48.58" ry="37.45"/>
<text text-anchor="middle" x="457.3" y="-298.73" font-family="Times-Roman" font-size="14.00">d</text>
<text text-anchor="middle" x="457.3" y="-283.73" font-family="Times-Roman" font-size="14.00">~</text>
<text text-anchor="middle" x="457.3" y="-268.73" font-family="Times-Roman" font-size="14.00">Normal</text>
</g>
<!-- μ_d&#45;&gt;d -->
<g id="edge8" class="edge">
<title>μ_d&#45;&gt;d</title>
<path fill="none" stroke="black" d="M345.66,-376.55C355.46,-364.72 367.29,-351.58 379.3,-340.91 388.92,-332.35 400.03,-324.09 410.78,-316.74"/>
<polygon fill="black" stroke="black" points="412.92,-319.52 419.29,-311.06 409.03,-313.7 412.92,-319.52"/>
</g>
<!-- σ_d -->
<g id="node5" class="node">
<title>σ_d</title>
<ellipse fill="none" stroke="black" cx="457.3" cy="-409.38" rx="69.09" ry="37.45"/>
<text text-anchor="middle" x="457.3" y="-420.68" font-family="Times-Roman" font-size="14.00">σ_d</text>
<text text-anchor="middle" x="457.3" y="-405.68" font-family="Times-Roman" font-size="14.00">~</text>
<text text-anchor="middle" x="457.3" y="-390.68" font-family="Times-Roman" font-size="14.00">HalfNormal</text>
</g>
<!-- σ_d&#45;&gt;d -->
<g id="edge9" class="edge">
<title>σ_d&#45;&gt;d</title>
<path fill="none" stroke="black" d="M457.3,-371.74C457.3,-360.34 457.3,-347.6 457.3,-335.58"/>
<polygon fill="black" stroke="black" points="460.8,-335.26 457.3,-325.26 453.8,-335.26 460.8,-335.26"/>
</g>
<!-- σ_σ -->
<g id="node6" class="node">
<title>σ_σ</title>
<ellipse fill="none" stroke="black" cx="911.3" cy="-409.38" rx="69.09" ry="37.45"/>
<text text-anchor="middle" x="911.3" y="-420.68" font-family="Times-Roman" font-size="14.00">σ_σ</text>
<text text-anchor="middle" x="911.3" y="-405.68" font-family="Times-Roman" font-size="14.00">~</text>
<text text-anchor="middle" x="911.3" y="-390.68" font-family="Times-Roman" font-size="14.00">HalfNormal</text>
</g>
<!-- σ -->
<g id="node15" class="node">
<title>σ</title>
<ellipse fill="none" stroke="black" cx="911.3" cy="-287.43" rx="69.09" ry="37.45"/>
<text text-anchor="middle" x="911.3" y="-298.73" font-family="Times-Roman" font-size="14.00">σ</text>
<text text-anchor="middle" x="911.3" y="-283.73" font-family="Times-Roman" font-size="14.00">~</text>
<text text-anchor="middle" x="911.3" y="-268.73" font-family="Times-Roman" font-size="14.00">HalfNormal</text>
</g>
<!-- σ_σ&#45;&gt;σ -->
<g id="edge21" class="edge">
<title>σ_σ&#45;&gt;σ</title>
<path fill="none" stroke="black" d="M911.3,-371.74C911.3,-360.34 911.3,-347.6 911.3,-335.58"/>
<polygon fill="black" stroke="black" points="914.8,-335.26 911.3,-325.26 907.8,-335.26 914.8,-335.26"/>
</g>
<!-- σ_σ_j -->
<g id="node7" class="node">
<title>σ_σ_j</title>
<ellipse fill="none" stroke="black" cx="1186.3" cy="-520.34" rx="69.09" ry="37.45"/>
<text text-anchor="middle" x="1186.3" y="-531.64" font-family="Times-Roman" font-size="14.00">σ_σ_j</text>
<text text-anchor="middle" x="1186.3" y="-516.64" font-family="Times-Roman" font-size="14.00">~</text>
<text text-anchor="middle" x="1186.3" y="-501.64" font-family="Times-Roman" font-size="14.00">HalfNormal</text>
</g>
<!-- σ_j -->
<g id="node14" class="node">
<title>σ_j</title>
<ellipse fill="none" stroke="black" cx="1183.3" cy="-409.38" rx="69.09" ry="37.45"/>
<text text-anchor="middle" x="1183.3" y="-420.68" font-family="Times-Roman" font-size="14.00">σ_j</text>
<text text-anchor="middle" x="1183.3" y="-405.68" font-family="Times-Roman" font-size="14.00">~</text>
<text text-anchor="middle" x="1183.3" y="-390.68" font-family="Times-Roman" font-size="14.00">HalfNormal</text>
</g>
<!-- σ_σ_j&#45;&gt;σ_j -->
<g id="edge3" class="edge">
<title>σ_σ_j&#45;&gt;σ_j</title>
<path fill="none" stroke="black" d="M1185.29,-482.75C1185.06,-474.58 1184.82,-465.8 1184.59,-457.27"/>
<polygon fill="black" stroke="black" points="1188.08,-456.96 1184.31,-447.06 1181.08,-457.15 1188.08,-456.96"/>
</g>
<!-- μ_h -->
<g id="node8" class="node">
<title>μ_h</title>
<ellipse fill="none" stroke="black" cx="205.3" cy="-409.38" rx="48.58" ry="37.45"/>
<text text-anchor="middle" x="205.3" y="-420.68" font-family="Times-Roman" font-size="14.00">μ_h</text>
<text text-anchor="middle" x="205.3" y="-405.68" font-family="Times-Roman" font-size="14.00">~</text>
<text text-anchor="middle" x="205.3" y="-390.68" font-family="Times-Roman" font-size="14.00">Normal</text>
</g>
<!-- μ_h&#45;&gt;h -->
<g id="edge7" class="edge">
<title>μ_h&#45;&gt;h</title>
<path fill="none" stroke="black" d="M223.75,-374.33C230.95,-361.03 239.3,-345.63 246.92,-331.58"/>
<polygon fill="black" stroke="black" points="250.11,-333.03 251.8,-322.57 243.96,-329.69 250.11,-333.03"/>
</g>
<!-- σ_σ_a -->
<g id="node9" class="node">
<title>σ_σ_a</title>
<ellipse fill="none" stroke="black" cx="757.3" cy="-631.29" rx="69.09" ry="37.45"/>
<text text-anchor="middle" x="757.3" y="-642.59" font-family="Times-Roman" font-size="14.00">σ_σ_a</text>
<text text-anchor="middle" x="757.3" y="-627.59" font-family="Times-Roman" font-size="14.00">~</text>
<text text-anchor="middle" x="757.3" y="-612.59" font-family="Times-Roman" font-size="14.00">HalfNormal</text>
</g>
<!-- σ_a -->
<g id="node21" class="node">
<title>σ_a</title>
<ellipse fill="none" stroke="black" cx="757.3" cy="-520.34" rx="69.09" ry="37.45"/>
<text text-anchor="middle" x="757.3" y="-531.64" font-family="Times-Roman" font-size="14.00">σ_a</text>
<text text-anchor="middle" x="757.3" y="-516.64" font-family="Times-Roman" font-size="14.00">~</text>
<text text-anchor="middle" x="757.3" y="-501.64" font-family="Times-Roman" font-size="14.00">HalfNormal</text>
</g>
<!-- σ_σ_a&#45;&gt;σ_a -->
<g id="edge13" class="edge">
<title>σ_σ_a&#45;&gt;σ_a</title>
<path fill="none" stroke="black" d="M757.3,-593.71C757.3,-585.53 757.3,-576.75 757.3,-568.23"/>
<polygon fill="black" stroke="black" points="760.8,-568.01 757.3,-558.01 753.8,-568.01 760.8,-568.01"/>
</g>
<!-- i -->
<g id="node10" class="node">
<title>i</title>
<ellipse fill="none" stroke="black" cx="154.3" cy="-287.43" rx="48.58" ry="37.45"/>
<text text-anchor="middle" x="154.3" y="-298.73" font-family="Times-Roman" font-size="14.00">i</text>
<text text-anchor="middle" x="154.3" y="-283.73" font-family="Times-Roman" font-size="14.00">~</text>
<text text-anchor="middle" x="154.3" y="-268.73" font-family="Times-Roman" font-size="14.00">Normal</text>
</g>
<!-- μ -->
<g id="node24" class="node">
<title>μ</title>
<polygon fill="none" stroke="black" points="584.3,-202.95 472.3,-202.95 472.3,-149.95 584.3,-149.95 584.3,-202.95"/>
<text text-anchor="middle" x="528.3" y="-187.75" font-family="Times-Roman" font-size="14.00">μ</text>
<text text-anchor="middle" x="528.3" y="-172.75" font-family="Times-Roman" font-size="14.00">~</text>
<text text-anchor="middle" x="528.3" y="-157.75" font-family="Times-Roman" font-size="14.00">Deterministic</text>
</g>
<!-- i&#45;&gt;μ -->
<g id="edge19" class="edge">
<title>i&#45;&gt;μ</title>
<path fill="none" stroke="black" d="M173.89,-252.81C183.02,-240.15 195.04,-226.9 209.3,-218.95 251.41,-195.5 381.77,-184.81 462.22,-180.33"/>
<polygon fill="black" stroke="black" points="462.46,-183.82 472.26,-179.79 462.08,-176.83 462.46,-183.82"/>
</g>
<!-- σ_μ_a -->
<g id="node11" class="node">
<title>σ_μ_a</title>
<ellipse fill="none" stroke="black" cx="455.3" cy="-520.34" rx="69.09" ry="37.45"/>
<text text-anchor="middle" x="455.3" y="-531.64" font-family="Times-Roman" font-size="14.00">σ_μ_a</text>
<text text-anchor="middle" x="455.3" y="-516.64" font-family="Times-Roman" font-size="14.00">~</text>
<text text-anchor="middle" x="455.3" y="-501.64" font-family="Times-Roman" font-size="14.00">HalfNormal</text>
</g>
<!-- μ_a -->
<g id="node19" class="node">
<title>μ_a</title>
<polygon fill="none" stroke="black" points="656.3,-435.88 544.3,-435.88 544.3,-382.88 656.3,-382.88 656.3,-435.88"/>
<text text-anchor="middle" x="600.3" y="-420.68" font-family="Times-Roman" font-size="14.00">μ_a</text>
<text text-anchor="middle" x="600.3" y="-405.68" font-family="Times-Roman" font-size="14.00">~</text>
<text text-anchor="middle" x="600.3" y="-390.68" font-family="Times-Roman" font-size="14.00">Deterministic</text>
</g>
<!-- σ_μ_a&#45;&gt;μ_a -->
<g id="edge10" class="edge">
<title>σ_μ_a&#45;&gt;μ_a</title>
<path fill="none" stroke="black" d="M494.92,-489.56C514.52,-474.83 538.19,-457.05 558.13,-442.07"/>
<polygon fill="black" stroke="black" points="560.25,-444.85 566.14,-436.05 556.04,-439.26 560.25,-444.85"/>
</g>
<!-- μ_μ_a -->
<g id="node12" class="node">
<title>μ_μ_a</title>
<ellipse fill="none" stroke="black" cx="319.3" cy="-520.34" rx="48.58" ry="37.45"/>
<text text-anchor="middle" x="319.3" y="-531.64" font-family="Times-Roman" font-size="14.00">μ_μ_a</text>
<text text-anchor="middle" x="319.3" y="-516.64" font-family="Times-Roman" font-size="14.00">~</text>
<text text-anchor="middle" x="319.3" y="-501.64" font-family="Times-Roman" font-size="14.00">Normal</text>
</g>
<!-- μ_μ_a&#45;&gt;μ_a -->
<g id="edge12" class="edge">
<title>μ_μ_a&#45;&gt;μ_a</title>
<path fill="none" stroke="black" d="M354.67,-494.11C361.9,-489.83 369.64,-485.82 377.3,-482.86 443.83,-457.18 469.27,-481.82 535.3,-454.86 543.85,-451.37 552.41,-446.62 560.39,-441.52"/>
<polygon fill="black" stroke="black" points="562.43,-444.37 568.79,-435.9 558.53,-438.56 562.43,-444.37"/>
</g>
<!-- j -->
<g id="node16" class="node">
<title>j</title>
<ellipse fill="none" stroke="black" cx="1047.3" cy="-287.43" rx="48.58" ry="37.45"/>
<text text-anchor="middle" x="1047.3" y="-298.73" font-family="Times-Roman" font-size="14.00">j</text>
<text text-anchor="middle" x="1047.3" y="-283.73" font-family="Times-Roman" font-size="14.00">~</text>
<text text-anchor="middle" x="1047.3" y="-268.73" font-family="Times-Roman" font-size="14.00">Normal</text>
</g>
<!-- μ_j&#45;&gt;j -->
<g id="edge4" class="edge">
<title>μ_j&#45;&gt;j</title>
<path fill="none" stroke="black" d="M1047.3,-371.74C1047.3,-360.34 1047.3,-347.6 1047.3,-335.58"/>
<polygon fill="black" stroke="black" points="1050.8,-335.26 1047.3,-325.26 1043.8,-335.26 1050.8,-335.26"/>
</g>
<!-- σ_j&#45;&gt;j -->
<g id="edge5" class="edge">
<title>σ_j&#45;&gt;j</title>
<path fill="none" stroke="black" d="M1147.56,-376.87C1128.89,-360.39 1105.98,-340.19 1086.78,-323.26"/>
<polygon fill="black" stroke="black" points="1088.9,-320.45 1079.08,-316.46 1084.26,-325.7 1088.9,-320.45"/>
</g>
<!-- lfc -->
<g id="node23" class="node">
<title>lfc</title>
<ellipse fill="lightgrey" stroke="black" cx="531.3" cy="-76.48" rx="48.58" ry="37.45"/>
<text text-anchor="middle" x="531.3" y="-87.78" font-family="Times-Roman" font-size="14.00">lfc</text>
<text text-anchor="middle" x="531.3" y="-72.78" font-family="Times-Roman" font-size="14.00">~</text>
<text text-anchor="middle" x="531.3" y="-57.78" font-family="Times-Roman" font-size="14.00">Normal</text>
</g>
<!-- σ&#45;&gt;lfc -->
<g id="edge22" class="edge">
<title>σ&#45;&gt;lfc</title>
<path fill="none" stroke="black" d="M863.55,-260.18C790.72,-220.13 652.64,-144.2 579.52,-103.99"/>
<polygon fill="black" stroke="black" points="580.95,-100.79 570.5,-99.04 577.58,-106.92 580.95,-100.79"/>
</g>
<!-- j&#45;&gt;μ -->
<g id="edge20" class="edge">
<title>j&#45;&gt;μ</title>
<path fill="none" stroke="black" d="M1026.96,-253.21C1017.24,-240.28 1004.41,-226.73 989.3,-218.95 922.17,-184.41 705.26,-178.22 594.58,-177.37"/>
<polygon fill="black" stroke="black" points="594.56,-173.87 584.54,-177.3 594.51,-180.87 594.56,-173.87"/>
</g>
<!-- h&#45;&gt;μ -->
<g id="edge17" class="edge">
<title>h&#45;&gt;μ</title>
<path fill="none" stroke="black" d="M308.26,-263.69C332.81,-249.59 365.76,-231.8 396.3,-218.95 417.42,-210.07 441.13,-202.04 462.56,-195.47"/>
<polygon fill="black" stroke="black" points="463.67,-198.79 472.23,-192.55 461.65,-192.09 463.67,-198.79"/>
</g>
<!-- d&#45;&gt;μ -->
<g id="edge18" class="edge">
<title>d&#45;&gt;μ</title>
<path fill="none" stroke="black" d="M478.79,-253.44C487.43,-240.18 497.39,-224.9 506.09,-211.53"/>
<polygon fill="black" stroke="black" points="509.08,-213.36 511.61,-203.07 503.22,-209.54 509.08,-213.36"/>
</g>
<!-- a -->
<g id="node22" class="node">
<title>a</title>
<ellipse fill="none" stroke="black" cx="600.3" cy="-287.43" rx="48.58" ry="37.45"/>
<text text-anchor="middle" x="600.3" y="-298.73" font-family="Times-Roman" font-size="14.00">a</text>
<text text-anchor="middle" x="600.3" y="-283.73" font-family="Times-Roman" font-size="14.00">~</text>
<text text-anchor="middle" x="600.3" y="-268.73" font-family="Times-Roman" font-size="14.00">Normal</text>
</g>
<!-- μ_a&#45;&gt;a -->
<g id="edge14" class="edge">
<title>μ_a&#45;&gt;a</title>
<path fill="none" stroke="black" d="M600.3,-382.65C600.3,-368.87 600.3,-351.47 600.3,-335.38"/>
<polygon fill="black" stroke="black" points="603.8,-335.04 600.3,-325.04 596.8,-335.04 603.8,-335.04"/>
</g>
<!-- μ_a_offset -->
<g id="node20" class="node">
<title>μ_a_offset</title>
<ellipse fill="none" stroke="black" cx="606.3" cy="-520.34" rx="63.78" ry="37.45"/>
<text text-anchor="middle" x="606.3" y="-531.64" font-family="Times-Roman" font-size="14.00">μ_a_offset</text>
<text text-anchor="middle" x="606.3" y="-516.64" font-family="Times-Roman" font-size="14.00">~</text>
<text text-anchor="middle" x="606.3" y="-501.64" font-family="Times-Roman" font-size="14.00">Normal</text>
</g>
<!-- μ_a_offset&#45;&gt;μ_a -->
<g id="edge11" class="edge">
<title>μ_a_offset&#45;&gt;μ_a</title>
<path fill="none" stroke="black" d="M604.28,-482.75C603.64,-471.02 602.92,-458.03 602.28,-446.34"/>
<polygon fill="black" stroke="black" points="605.75,-445.83 601.71,-436.04 598.76,-446.21 605.75,-445.83"/>
</g>
<!-- σ_a&#45;&gt;a -->
<g id="edge15" class="edge">
<title>σ_a&#45;&gt;a</title>
<path fill="none" stroke="black" d="M743.9,-483.24C728.67,-445.24 701.19,-384.94 665.3,-340.91 659.17,-333.39 651.82,-326.23 644.29,-319.74"/>
<polygon fill="black" stroke="black" points="646.04,-316.65 636.1,-312.98 641.59,-322.04 646.04,-316.65"/>
</g>
<!-- a&#45;&gt;μ -->
<g id="edge16" class="edge">
<title>a&#45;&gt;μ</title>
<path fill="none" stroke="black" d="M578.69,-253.73C569.93,-240.46 559.8,-225.13 550.93,-211.71"/>
<polygon fill="black" stroke="black" points="553.74,-209.62 545.31,-203.2 547.9,-213.48 553.74,-209.62"/>
</g>
<!-- μ&#45;&gt;lfc -->
<g id="edge23" class="edge">
<title>μ&#45;&gt;lfc</title>
<path fill="none" stroke="black" d="M529.08,-149.71C529.32,-141.89 529.6,-133.03 529.86,-124.27"/>
<polygon fill="black" stroke="black" points="533.37,-124.2 530.18,-114.1 526.37,-123.99 533.37,-124.2"/>
</g>
</g>
</svg>
