<?xml version="1.0" encoding="UTF-8" standalone="no"?>
<!DOCTYPE svg PUBLIC "-//W3C//DTD SVG 1.1//EN"
 "http://www.w3.org/Graphics/SVG/1.1/DTD/svg11.dtd">
<!-- Generated by graphviz version 2.47.0 (20210327.0129)
 -->
<!-- Pages: 1 -->
<svg width="1416pt" height="677pt"
 viewBox="0.00 0.00 1415.79 676.77" xmlns="http://www.w3.org/2000/svg" xmlns:xlink="http://www.w3.org/1999/xlink">
<g id="graph0" class="graph" transform="scale(1 1) rotate(0) translate(4 672.77)">
<polygon fill="white" stroke="transparent" points="-4,4 -4,-672.77 1411.79,-672.77 1411.79,4 -4,4"/>
<g id="clust1" class="cluster">
<title>cluster2</title>
<path fill="none" stroke="black" d="M139.79,-340.91C139.79,-340.91 385.79,-340.91 385.79,-340.91 391.79,-340.91 397.79,-346.91 397.79,-352.91 397.79,-352.91 397.79,-442.86 397.79,-442.86 397.79,-448.86 391.79,-454.86 385.79,-454.86 385.79,-454.86 139.79,-454.86 139.79,-454.86 133.79,-454.86 127.79,-448.86 127.79,-442.86 127.79,-442.86 127.79,-352.91 127.79,-352.91 127.79,-346.91 133.79,-340.91 139.79,-340.91"/>
<text text-anchor="middle" x="384.79" y="-348.71" font-family="Times-Roman" font-size="14.00">2</text>
</g>
<g id="clust2" class="cluster">
<title>cluster4</title>
<path fill="none" stroke="black" d="M296.79,-218.95C296.79,-218.95 542.79,-218.95 542.79,-218.95 548.79,-218.95 554.79,-224.95 554.79,-230.95 554.79,-230.95 554.79,-320.91 554.79,-320.91 554.79,-326.91 548.79,-332.91 542.79,-332.91 542.79,-332.91 296.79,-332.91 296.79,-332.91 290.79,-332.91 284.79,-326.91 284.79,-320.91 284.79,-320.91 284.79,-230.95 284.79,-230.95 284.79,-224.95 290.79,-218.95 296.79,-218.95"/>
<text text-anchor="middle" x="541.79" y="-226.75" font-family="Times-Roman" font-size="14.00">4</text>
</g>
<g id="clust3" class="cluster">
<title>cluster64 x 10</title>
<path fill="none" stroke="black" d="M694.79,-218.95C694.79,-218.95 784.79,-218.95 784.79,-218.95 790.79,-218.95 796.79,-224.95 796.79,-230.95 796.79,-230.95 796.79,-320.91 796.79,-320.91 796.79,-326.91 790.79,-332.91 784.79,-332.91 784.79,-332.91 694.79,-332.91 694.79,-332.91 688.79,-332.91 682.79,-326.91 682.79,-320.91 682.79,-320.91 682.79,-230.95 682.79,-230.95 682.79,-224.95 688.79,-218.95 694.79,-218.95"/>
<text text-anchor="middle" x="761.79" y="-226.75" font-family="Times-Roman" font-size="14.00">64 x 10</text>
</g>
<g id="clust4" class="cluster">
<title>cluster10</title>
<path fill="none" stroke="black" d="M840.79,-218.95C840.79,-218.95 930.79,-218.95 930.79,-218.95 936.79,-218.95 942.79,-224.95 942.79,-230.95 942.79,-230.95 942.79,-320.91 942.79,-320.91 942.79,-326.91 936.79,-332.91 930.79,-332.91 930.79,-332.91 840.79,-332.91 840.79,-332.91 834.79,-332.91 828.79,-326.91 828.79,-320.91 828.79,-320.91 828.79,-230.95 828.79,-230.95 828.79,-224.95 834.79,-218.95 840.79,-218.95"/>
<text text-anchor="middle" x="925.29" y="-226.75" font-family="Times-Roman" font-size="14.00">10</text>
</g>
<g id="clust5" class="cluster">
<title>cluster64</title>
<path fill="none" stroke="black" d="M1111.79,-351.88C1111.79,-351.88 1387.79,-351.88 1387.79,-351.88 1393.79,-351.88 1399.79,-357.88 1399.79,-363.88 1399.79,-363.88 1399.79,-553.81 1399.79,-553.81 1399.79,-559.81 1393.79,-565.81 1387.79,-565.81 1387.79,-565.81 1111.79,-565.81 1111.79,-565.81 1105.79,-565.81 1099.79,-559.81 1099.79,-553.81 1099.79,-553.81 1099.79,-363.88 1099.79,-363.88 1099.79,-357.88 1105.79,-351.88 1111.79,-351.88"/>
<text text-anchor="middle" x="1382.29" y="-359.68" font-family="Times-Roman" font-size="14.00">64</text>
</g>
<g id="clust6" class="cluster">
<title>cluster192</title>
<path fill="none" stroke="black" d="M1119.79,-218.95C1119.79,-218.95 1209.79,-218.95 1209.79,-218.95 1215.79,-218.95 1221.79,-224.95 1221.79,-230.95 1221.79,-230.95 1221.79,-320.91 1221.79,-320.91 1221.79,-326.91 1215.79,-332.91 1209.79,-332.91 1209.79,-332.91 1119.79,-332.91 1119.79,-332.91 1113.79,-332.91 1107.79,-326.91 1107.79,-320.91 1107.79,-320.91 1107.79,-230.95 1107.79,-230.95 1107.79,-224.95 1113.79,-218.95 1119.79,-218.95"/>
<text text-anchor="middle" x="1199.79" y="-226.75" font-family="Times-Roman" font-size="14.00">192</text>
</g>
<g id="clust7" class="cluster">
<title>cluster1,443</title>
<path fill="none" stroke="black" d="M629.79,-8C629.79,-8 733.79,-8 733.79,-8 739.79,-8 745.79,-14 745.79,-20 745.79,-20 745.79,-198.95 745.79,-198.95 745.79,-204.95 739.79,-210.95 733.79,-210.95 733.79,-210.95 629.79,-210.95 629.79,-210.95 623.79,-210.95 617.79,-204.95 617.79,-198.95 617.79,-198.95 617.79,-20 617.79,-20 617.79,-14 623.79,-8 629.79,-8"/>
<text text-anchor="middle" x="717.29" y="-15.8" font-family="Times-Roman" font-size="14.00">1,443</text>
</g>
<!-- σ_μ_j -->
<g id="node1" class="node">
<title>σ_μ_j</title>
<ellipse fill="none" stroke="black" cx="184.79" cy="-520.34" rx="69.09" ry="37.45"/>
<text text-anchor="middle" x="184.79" y="-531.64" font-family="Times-Roman" font-size="14.00">σ_μ_j</text>
<text text-anchor="middle" x="184.79" y="-516.64" font-family="Times-Roman" font-size="14.00">~</text>
<text text-anchor="middle" x="184.79" y="-501.64" font-family="Times-Roman" font-size="14.00">HalfNormal</text>
</g>
<!-- μ_j -->
<g id="node14" class="node">
<title>μ_j</title>
<ellipse fill="none" stroke="black" cx="184.79" cy="-409.38" rx="48.58" ry="37.45"/>
<text text-anchor="middle" x="184.79" y="-420.68" font-family="Times-Roman" font-size="14.00">μ_j</text>
<text text-anchor="middle" x="184.79" y="-405.68" font-family="Times-Roman" font-size="14.00">~</text>
<text text-anchor="middle" x="184.79" y="-390.68" font-family="Times-Roman" font-size="14.00">Normal</text>
</g>
<!-- σ_μ_j&#45;&gt;μ_j -->
<g id="edge1" class="edge">
<title>σ_μ_j&#45;&gt;μ_j</title>
<path fill="none" stroke="black" d="M184.79,-482.75C184.79,-474.58 184.79,-465.8 184.79,-457.27"/>
<polygon fill="black" stroke="black" points="188.29,-457.06 184.79,-447.06 181.29,-457.06 188.29,-457.06"/>
</g>
<!-- σ_σ_a -->
<g id="node2" class="node">
<title>σ_σ_a</title>
<ellipse fill="none" stroke="black" cx="1322.79" cy="-631.29" rx="69.09" ry="37.45"/>
<text text-anchor="middle" x="1322.79" y="-642.59" font-family="Times-Roman" font-size="14.00">σ_σ_a</text>
<text text-anchor="middle" x="1322.79" y="-627.59" font-family="Times-Roman" font-size="14.00">~</text>
<text text-anchor="middle" x="1322.79" y="-612.59" font-family="Times-Roman" font-size="14.00">HalfNormal</text>
</g>
<!-- σ_a -->
<g id="node20" class="node">
<title>σ_a</title>
<ellipse fill="none" stroke="black" cx="1322.79" cy="-520.34" rx="69.09" ry="37.45"/>
<text text-anchor="middle" x="1322.79" y="-531.64" font-family="Times-Roman" font-size="14.00">σ_a</text>
<text text-anchor="middle" x="1322.79" y="-516.64" font-family="Times-Roman" font-size="14.00">~</text>
<text text-anchor="middle" x="1322.79" y="-501.64" font-family="Times-Roman" font-size="14.00">HalfNormal</text>
</g>
<!-- σ_σ_a&#45;&gt;σ_a -->
<g id="edge13" class="edge">
<title>σ_σ_a&#45;&gt;σ_a</title>
<path fill="none" stroke="black" d="M1322.79,-593.71C1322.79,-585.53 1322.79,-576.75 1322.79,-568.23"/>
<polygon fill="black" stroke="black" points="1326.29,-568.01 1322.79,-558.01 1319.29,-568.01 1326.29,-568.01"/>
</g>
<!-- μ_h -->
<g id="node3" class="node">
<title>μ_h</title>
<ellipse fill="none" stroke="black" cx="613.79" cy="-409.38" rx="48.58" ry="37.45"/>
<text text-anchor="middle" x="613.79" y="-420.68" font-family="Times-Roman" font-size="14.00">μ_h</text>
<text text-anchor="middle" x="613.79" y="-405.68" font-family="Times-Roman" font-size="14.00">~</text>
<text text-anchor="middle" x="613.79" y="-390.68" font-family="Times-Roman" font-size="14.00">Normal</text>
</g>
<!-- h -->
<g id="node17" class="node">
<title>h</title>
<ellipse fill="none" stroke="black" cx="739.79" cy="-287.43" rx="48.58" ry="37.45"/>
<text text-anchor="middle" x="739.79" y="-298.73" font-family="Times-Roman" font-size="14.00">h</text>
<text text-anchor="middle" x="739.79" y="-283.73" font-family="Times-Roman" font-size="14.00">~</text>
<text text-anchor="middle" x="739.79" y="-268.73" font-family="Times-Roman" font-size="14.00">Normal</text>
</g>
<!-- μ_h&#45;&gt;h -->
<g id="edge7" class="edge">
<title>μ_h&#45;&gt;h</title>
<path fill="none" stroke="black" d="M638.52,-376.96C648.38,-365.17 660.13,-351.96 671.79,-340.91 673.18,-339.59 684.39,-330.89 697.33,-320.93"/>
<polygon fill="black" stroke="black" points="699.74,-323.5 705.53,-314.63 695.47,-317.95 699.74,-323.5"/>
</g>
<!-- μ_d -->
<g id="node4" class="node">
<title>μ_d</title>
<ellipse fill="none" stroke="black" cx="885.79" cy="-409.38" rx="48.58" ry="37.45"/>
<text text-anchor="middle" x="885.79" y="-420.68" font-family="Times-Roman" font-size="14.00">μ_d</text>
<text text-anchor="middle" x="885.79" y="-405.68" font-family="Times-Roman" font-size="14.00">~</text>
<text text-anchor="middle" x="885.79" y="-390.68" font-family="Times-Roman" font-size="14.00">Normal</text>
</g>
<!-- d -->
<g id="node18" class="node">
<title>d</title>
<ellipse fill="none" stroke="black" cx="885.79" cy="-287.43" rx="48.58" ry="37.45"/>
<text text-anchor="middle" x="885.79" y="-298.73" font-family="Times-Roman" font-size="14.00">d</text>
<text text-anchor="middle" x="885.79" y="-283.73" font-family="Times-Roman" font-size="14.00">~</text>
<text text-anchor="middle" x="885.79" y="-268.73" font-family="Times-Roman" font-size="14.00">Normal</text>
</g>
<!-- μ_d&#45;&gt;d -->
<g id="edge9" class="edge">
<title>μ_d&#45;&gt;d</title>
<path fill="none" stroke="black" d="M885.79,-371.74C885.79,-360.34 885.79,-347.6 885.79,-335.58"/>
<polygon fill="black" stroke="black" points="889.29,-335.26 885.79,-325.26 882.29,-335.26 889.29,-335.26"/>
</g>
<!-- σ_h -->
<g id="node5" class="node">
<title>σ_h</title>
<ellipse fill="none" stroke="black" cx="749.79" cy="-409.38" rx="69.09" ry="37.45"/>
<text text-anchor="middle" x="749.79" y="-420.68" font-family="Times-Roman" font-size="14.00">σ_h</text>
<text text-anchor="middle" x="749.79" y="-405.68" font-family="Times-Roman" font-size="14.00">~</text>
<text text-anchor="middle" x="749.79" y="-390.68" font-family="Times-Roman" font-size="14.00">HalfNormal</text>
</g>
<!-- σ_h&#45;&gt;h -->
<g id="edge6" class="edge">
<title>σ_h&#45;&gt;h</title>
<path fill="none" stroke="black" d="M746.74,-371.74C745.77,-360.11 744.68,-347.1 743.66,-334.88"/>
<polygon fill="black" stroke="black" points="747.15,-334.52 742.83,-324.85 740.17,-335.1 747.15,-334.52"/>
</g>
<!-- μ_μ_j -->
<g id="node6" class="node">
<title>μ_μ_j</title>
<ellipse fill="none" stroke="black" cx="48.79" cy="-520.34" rx="48.58" ry="37.45"/>
<text text-anchor="middle" x="48.79" y="-531.64" font-family="Times-Roman" font-size="14.00">μ_μ_j</text>
<text text-anchor="middle" x="48.79" y="-516.64" font-family="Times-Roman" font-size="14.00">~</text>
<text text-anchor="middle" x="48.79" y="-501.64" font-family="Times-Roman" font-size="14.00">Normal</text>
</g>
<!-- μ_μ_j&#45;&gt;μ_j -->
<g id="edge2" class="edge">
<title>μ_μ_j&#45;&gt;μ_j</title>
<path fill="none" stroke="black" d="M82.06,-492.68C100.58,-477.84 123.81,-459.24 143.48,-443.48"/>
<polygon fill="black" stroke="black" points="145.78,-446.12 151.39,-437.14 141.4,-440.66 145.78,-446.12"/>
</g>
<!-- μ_μ_a -->
<g id="node7" class="node">
<title>μ_μ_a</title>
<ellipse fill="none" stroke="black" cx="884.79" cy="-520.34" rx="48.58" ry="37.45"/>
<text text-anchor="middle" x="884.79" y="-531.64" font-family="Times-Roman" font-size="14.00">μ_μ_a</text>
<text text-anchor="middle" x="884.79" y="-516.64" font-family="Times-Roman" font-size="14.00">~</text>
<text text-anchor="middle" x="884.79" y="-501.64" font-family="Times-Roman" font-size="14.00">Normal</text>
</g>
<!-- μ_a -->
<g id="node21" class="node">
<title>μ_a</title>
<polygon fill="none" stroke="black" points="1220.79,-435.88 1108.79,-435.88 1108.79,-382.88 1220.79,-382.88 1220.79,-435.88"/>
<text text-anchor="middle" x="1164.79" y="-420.68" font-family="Times-Roman" font-size="14.00">μ_a</text>
<text text-anchor="middle" x="1164.79" y="-405.68" font-family="Times-Roman" font-size="14.00">~</text>
<text text-anchor="middle" x="1164.79" y="-390.68" font-family="Times-Roman" font-size="14.00">Deterministic</text>
</g>
<!-- μ_μ_a&#45;&gt;μ_a -->
<g id="edge10" class="edge">
<title>μ_μ_a&#45;&gt;μ_a</title>
<path fill="none" stroke="black" d="M920.17,-494.12C927.39,-489.83 935.13,-485.82 942.79,-482.86 1008.9,-457.3 1034.19,-481.69 1099.79,-454.86 1108.34,-451.36 1116.91,-446.61 1124.88,-441.52"/>
<polygon fill="black" stroke="black" points="1126.92,-444.37 1133.28,-435.89 1123.02,-438.55 1126.92,-444.37"/>
</g>
<!-- σ_d -->
<g id="node8" class="node">
<title>σ_d</title>
<ellipse fill="none" stroke="black" cx="1021.79" cy="-409.38" rx="69.09" ry="37.45"/>
<text text-anchor="middle" x="1021.79" y="-420.68" font-family="Times-Roman" font-size="14.00">σ_d</text>
<text text-anchor="middle" x="1021.79" y="-405.68" font-family="Times-Roman" font-size="14.00">~</text>
<text text-anchor="middle" x="1021.79" y="-390.68" font-family="Times-Roman" font-size="14.00">HalfNormal</text>
</g>
<!-- σ_d&#45;&gt;d -->
<g id="edge8" class="edge">
<title>σ_d&#45;&gt;d</title>
<path fill="none" stroke="black" d="M986.06,-376.87C967.38,-360.39 944.48,-340.19 925.28,-323.26"/>
<polygon fill="black" stroke="black" points="927.39,-320.45 917.57,-316.46 922.76,-325.7 927.39,-320.45"/>
</g>
<!-- σ_σ -->
<g id="node9" class="node">
<title>σ_σ</title>
<ellipse fill="none" stroke="black" cx="477.79" cy="-409.38" rx="69.09" ry="37.45"/>
<text text-anchor="middle" x="477.79" y="-420.68" font-family="Times-Roman" font-size="14.00">σ_σ</text>
<text text-anchor="middle" x="477.79" y="-405.68" font-family="Times-Roman" font-size="14.00">~</text>
<text text-anchor="middle" x="477.79" y="-390.68" font-family="Times-Roman" font-size="14.00">HalfNormal</text>
</g>
<!-- σ -->
<g id="node15" class="node">
<title>σ</title>
<ellipse fill="none" stroke="black" cx="477.79" cy="-287.43" rx="69.09" ry="37.45"/>
<text text-anchor="middle" x="477.79" y="-298.73" font-family="Times-Roman" font-size="14.00">σ</text>
<text text-anchor="middle" x="477.79" y="-283.73" font-family="Times-Roman" font-size="14.00">~</text>
<text text-anchor="middle" x="477.79" y="-268.73" font-family="Times-Roman" font-size="14.00">HalfNormal</text>
</g>
<!-- σ_σ&#45;&gt;σ -->
<g id="edge21" class="edge">
<title>σ_σ&#45;&gt;σ</title>
<path fill="none" stroke="black" d="M477.79,-371.74C477.79,-360.34 477.79,-347.6 477.79,-335.58"/>
<polygon fill="black" stroke="black" points="481.29,-335.26 477.79,-325.26 474.29,-335.26 481.29,-335.26"/>
</g>
<!-- σ_μ_a -->
<g id="node10" class="node">
<title>σ_μ_a</title>
<ellipse fill="none" stroke="black" cx="1020.79" cy="-520.34" rx="69.09" ry="37.45"/>
<text text-anchor="middle" x="1020.79" y="-531.64" font-family="Times-Roman" font-size="14.00">σ_μ_a</text>
<text text-anchor="middle" x="1020.79" y="-516.64" font-family="Times-Roman" font-size="14.00">~</text>
<text text-anchor="middle" x="1020.79" y="-501.64" font-family="Times-Roman" font-size="14.00">HalfNormal</text>
</g>
<!-- σ_μ_a&#45;&gt;μ_a -->
<g id="edge12" class="edge">
<title>σ_μ_a&#45;&gt;μ_a</title>
<path fill="none" stroke="black" d="M1060.52,-489.28C1079.9,-474.62 1103.2,-456.98 1122.86,-442.11"/>
<polygon fill="black" stroke="black" points="1125.18,-444.74 1131.04,-435.92 1120.96,-439.16 1125.18,-444.74"/>
</g>
<!-- σ_σ_j -->
<g id="node11" class="node">
<title>σ_σ_j</title>
<ellipse fill="none" stroke="black" cx="341.79" cy="-520.34" rx="69.09" ry="37.45"/>
<text text-anchor="middle" x="341.79" y="-531.64" font-family="Times-Roman" font-size="14.00">σ_σ_j</text>
<text text-anchor="middle" x="341.79" y="-516.64" font-family="Times-Roman" font-size="14.00">~</text>
<text text-anchor="middle" x="341.79" y="-501.64" font-family="Times-Roman" font-size="14.00">HalfNormal</text>
</g>
<!-- σ_j -->
<g id="node13" class="node">
<title>σ_j</title>
<ellipse fill="none" stroke="black" cx="320.79" cy="-409.38" rx="69.09" ry="37.45"/>
<text text-anchor="middle" x="320.79" y="-420.68" font-family="Times-Roman" font-size="14.00">σ_j</text>
<text text-anchor="middle" x="320.79" y="-405.68" font-family="Times-Roman" font-size="14.00">~</text>
<text text-anchor="middle" x="320.79" y="-390.68" font-family="Times-Roman" font-size="14.00">HalfNormal</text>
</g>
<!-- σ_σ_j&#45;&gt;σ_j -->
<g id="edge3" class="edge">
<title>σ_σ_j&#45;&gt;σ_j</title>
<path fill="none" stroke="black" d="M334.74,-482.75C333.13,-474.4 331.4,-465.42 329.72,-456.71"/>
<polygon fill="black" stroke="black" points="333.12,-455.84 327.79,-446.68 326.24,-457.17 333.12,-455.84"/>
</g>
<!-- i -->
<g id="node12" class="node">
<title>i</title>
<ellipse fill="none" stroke="black" cx="623.79" cy="-287.43" rx="48.58" ry="37.45"/>
<text text-anchor="middle" x="623.79" y="-298.73" font-family="Times-Roman" font-size="14.00">i</text>
<text text-anchor="middle" x="623.79" y="-283.73" font-family="Times-Roman" font-size="14.00">~</text>
<text text-anchor="middle" x="623.79" y="-268.73" font-family="Times-Roman" font-size="14.00">Normal</text>
</g>
<!-- μ -->
<g id="node24" class="node">
<title>μ</title>
<polygon fill="none" stroke="black" points="737.79,-202.95 625.79,-202.95 625.79,-149.95 737.79,-149.95 737.79,-202.95"/>
<text text-anchor="middle" x="681.79" y="-187.75" font-family="Times-Roman" font-size="14.00">μ</text>
<text text-anchor="middle" x="681.79" y="-172.75" font-family="Times-Roman" font-size="14.00">~</text>
<text text-anchor="middle" x="681.79" y="-157.75" font-family="Times-Roman" font-size="14.00">Deterministic</text>
</g>
<!-- i&#45;&gt;μ -->
<g id="edge20" class="edge">
<title>i&#45;&gt;μ</title>
<path fill="none" stroke="black" d="M641.82,-252.55C648.67,-239.68 656.48,-225.01 663.37,-212.07"/>
<polygon fill="black" stroke="black" points="666.58,-213.48 668.19,-203 660.4,-210.19 666.58,-213.48"/>
</g>
<!-- j -->
<g id="node16" class="node">
<title>j</title>
<ellipse fill="none" stroke="black" cx="341.79" cy="-287.43" rx="48.58" ry="37.45"/>
<text text-anchor="middle" x="341.79" y="-298.73" font-family="Times-Roman" font-size="14.00">j</text>
<text text-anchor="middle" x="341.79" y="-283.73" font-family="Times-Roman" font-size="14.00">~</text>
<text text-anchor="middle" x="341.79" y="-268.73" font-family="Times-Roman" font-size="14.00">Normal</text>
</g>
<!-- σ_j&#45;&gt;j -->
<g id="edge5" class="edge">
<title>σ_j&#45;&gt;j</title>
<path fill="none" stroke="black" d="M327.21,-371.74C329.24,-360.11 331.52,-347.1 333.66,-334.88"/>
<polygon fill="black" stroke="black" points="337.14,-335.3 335.41,-324.85 330.24,-334.09 337.14,-335.3"/>
</g>
<!-- μ_j&#45;&gt;j -->
<g id="edge4" class="edge">
<title>μ_j&#45;&gt;j</title>
<path fill="none" stroke="black" d="M208.3,-376.22C218.08,-364.2 230.12,-351.03 242.79,-340.91 257.15,-329.44 274.39,-319.29 290.43,-311.04"/>
<polygon fill="black" stroke="black" points="292.32,-314.01 299.7,-306.42 289.19,-307.75 292.32,-314.01"/>
</g>
<!-- lfc -->
<g id="node23" class="node">
<title>lfc</title>
<ellipse fill="lightgrey" stroke="black" cx="677.79" cy="-76.48" rx="48.58" ry="37.45"/>
<text text-anchor="middle" x="677.79" y="-87.78" font-family="Times-Roman" font-size="14.00">lfc</text>
<text text-anchor="middle" x="677.79" y="-72.78" font-family="Times-Roman" font-size="14.00">~</text>
<text text-anchor="middle" x="677.79" y="-57.78" font-family="Times-Roman" font-size="14.00">Normal</text>
</g>
<!-- σ&#45;&gt;lfc -->
<g id="edge22" class="edge">
<title>σ&#45;&gt;lfc</title>
<path fill="none" stroke="black" d="M509.04,-253.78C545.09,-216.12 604.24,-154.32 642.08,-114.79"/>
<polygon fill="black" stroke="black" points="644.96,-116.84 649.35,-107.19 639.9,-112 644.96,-116.84"/>
</g>
<!-- j&#45;&gt;μ -->
<g id="edge17" class="edge">
<title>j&#45;&gt;μ</title>
<path fill="none" stroke="black" d="M362.61,-253.27C372.34,-240.52 385.04,-227.08 399.79,-218.95 435.84,-199.1 544.08,-187.53 615.49,-181.85"/>
<polygon fill="black" stroke="black" points="616.04,-185.32 625.74,-181.06 615.5,-178.34 616.04,-185.32"/>
</g>
<!-- h&#45;&gt;μ -->
<g id="edge19" class="edge">
<title>h&#45;&gt;μ</title>
<path fill="none" stroke="black" d="M721.76,-252.55C714.91,-239.68 707.1,-225.01 700.21,-212.07"/>
<polygon fill="black" stroke="black" points="703.18,-210.19 695.39,-203 697,-213.48 703.18,-210.19"/>
</g>
<!-- d&#45;&gt;μ -->
<g id="edge16" class="edge">
<title>d&#45;&gt;μ</title>
<path fill="none" stroke="black" d="M855.3,-258.09C839.85,-244.85 820.27,-229.68 800.79,-218.95 784.29,-209.87 765.44,-202.21 747.68,-196.03"/>
<polygon fill="black" stroke="black" points="748.54,-192.63 737.95,-192.75 746.31,-199.26 748.54,-192.63"/>
</g>
<!-- μ_a_offset -->
<g id="node19" class="node">
<title>μ_a_offset</title>
<ellipse fill="none" stroke="black" cx="1171.79" cy="-520.34" rx="63.78" ry="37.45"/>
<text text-anchor="middle" x="1171.79" y="-531.64" font-family="Times-Roman" font-size="14.00">μ_a_offset</text>
<text text-anchor="middle" x="1171.79" y="-516.64" font-family="Times-Roman" font-size="14.00">~</text>
<text text-anchor="middle" x="1171.79" y="-501.64" font-family="Times-Roman" font-size="14.00">Normal</text>
</g>
<!-- μ_a_offset&#45;&gt;μ_a -->
<g id="edge11" class="edge">
<title>μ_a_offset&#45;&gt;μ_a</title>
<path fill="none" stroke="black" d="M1169.44,-482.75C1168.69,-471.02 1167.85,-458.03 1167.1,-446.34"/>
<polygon fill="black" stroke="black" points="1170.57,-445.79 1166.44,-436.04 1163.59,-446.24 1170.57,-445.79"/>
</g>
<!-- a -->
<g id="node22" class="node">
<title>a</title>
<ellipse fill="none" stroke="black" cx="1164.79" cy="-287.43" rx="48.58" ry="37.45"/>
<text text-anchor="middle" x="1164.79" y="-298.73" font-family="Times-Roman" font-size="14.00">a</text>
<text text-anchor="middle" x="1164.79" y="-283.73" font-family="Times-Roman" font-size="14.00">~</text>
<text text-anchor="middle" x="1164.79" y="-268.73" font-family="Times-Roman" font-size="14.00">Normal</text>
</g>
<!-- σ_a&#45;&gt;a -->
<g id="edge14" class="edge">
<title>σ_a&#45;&gt;a</title>
<path fill="none" stroke="black" d="M1309.17,-483.25C1293.7,-445.26 1265.86,-384.96 1229.79,-340.91 1223.65,-333.41 1216.29,-326.25 1208.76,-319.76"/>
<polygon fill="black" stroke="black" points="1210.51,-316.67 1200.57,-313 1206.05,-322.07 1210.51,-316.67"/>
</g>
<!-- μ_a&#45;&gt;a -->
<g id="edge15" class="edge">
<title>μ_a&#45;&gt;a</title>
<path fill="none" stroke="black" d="M1164.79,-382.65C1164.79,-368.87 1164.79,-351.47 1164.79,-335.38"/>
<polygon fill="black" stroke="black" points="1168.29,-335.04 1164.79,-325.04 1161.29,-335.04 1168.29,-335.04"/>
</g>
<!-- a&#45;&gt;μ -->
<g id="edge18" class="edge">
<title>a&#45;&gt;μ</title>
<path fill="none" stroke="black" d="M1120.63,-270.69C1076.95,-255.62 1007.96,-233.13 946.79,-218.95 879.77,-203.42 801.86,-191.99 747.94,-185.11"/>
<polygon fill="black" stroke="black" points="748.18,-181.61 737.82,-183.83 747.3,-188.56 748.18,-181.61"/>
</g>
<!-- μ&#45;&gt;lfc -->
<g id="edge23" class="edge">
<title>μ&#45;&gt;lfc</title>
<path fill="none" stroke="black" d="M680.74,-149.71C680.42,-141.89 680.06,-133.03 679.7,-124.27"/>
<polygon fill="black" stroke="black" points="683.19,-123.95 679.29,-114.1 676.2,-124.23 683.19,-123.95"/>
</g>
</g>
</svg>
