<?xml version="1.0" encoding="UTF-8" standalone="no"?>
<!DOCTYPE svg PUBLIC "-//W3C//DTD SVG 1.1//EN"
 "http://www.w3.org/Graphics/SVG/1.1/DTD/svg11.dtd">
<!-- Generated by graphviz version 2.47.0 (20210327.0129)
 -->
<!-- Pages: 1 -->
<svg width="1497pt" height="935pt"
 viewBox="0.00 0.00 1497.09 934.63" xmlns="http://www.w3.org/2000/svg" xmlns:xlink="http://www.w3.org/1999/xlink">
<g id="graph0" class="graph" transform="scale(1 1) rotate(0) translate(4 930.63)">
<polygon fill="white" stroke="transparent" points="-4,4 -4,-930.63 1493.09,-930.63 1493.09,4 -4,4"/>
<g id="clust1" class="cluster">
<title>cluster25 x 2</title>
<path fill="none" stroke="black" d="M609.3,-587.77C609.3,-587.77 931.3,-587.77 931.3,-587.77 937.3,-587.77 943.3,-593.77 943.3,-599.77 943.3,-599.77 943.3,-689.72 943.3,-689.72 943.3,-695.72 937.3,-701.72 931.3,-701.72 931.3,-701.72 609.3,-701.72 609.3,-701.72 603.3,-701.72 597.3,-695.72 597.3,-689.72 597.3,-689.72 597.3,-599.77 597.3,-599.77 597.3,-593.77 603.3,-587.77 609.3,-587.77"/>
<text text-anchor="middle" x="912.8" y="-595.57" font-family="Times-Roman" font-size="14.00">25 x 2</text>
</g>
<g id="clust2" class="cluster">
<title>cluster1 x 12</title>
<path fill="none" stroke="black" d="M140.3,-587.77C140.3,-587.77 386.3,-587.77 386.3,-587.77 392.3,-587.77 398.3,-593.77 398.3,-599.77 398.3,-599.77 398.3,-689.72 398.3,-689.72 398.3,-695.72 392.3,-701.72 386.3,-701.72 386.3,-701.72 140.3,-701.72 140.3,-701.72 134.3,-701.72 128.3,-695.72 128.3,-689.72 128.3,-689.72 128.3,-599.77 128.3,-599.77 128.3,-593.77 134.3,-587.77 140.3,-587.77"/>
<text text-anchor="middle" x="367.8" y="-595.57" font-family="Times-Roman" font-size="14.00">1 x 12</text>
</g>
<g id="clust3" class="cluster">
<title>cluster25 x 12</title>
<path fill="none" stroke="black" d="M648.3,-365.84C648.3,-365.84 752.3,-365.84 752.3,-365.84 758.3,-365.84 764.3,-371.84 764.3,-377.84 764.3,-377.84 764.3,-567.77 764.3,-567.77 764.3,-573.77 758.3,-579.77 752.3,-579.77 752.3,-579.77 648.3,-579.77 648.3,-579.77 642.3,-579.77 636.3,-573.77 636.3,-567.77 636.3,-567.77 636.3,-377.84 636.3,-377.84 636.3,-371.84 642.3,-365.84 648.3,-365.84"/>
<text text-anchor="middle" x="729.3" y="-373.64" font-family="Times-Roman" font-size="14.00">25 x 12</text>
</g>
<g id="clust4" class="cluster">
<title>cluster2</title>
<path fill="none" stroke="black" d="M160.3,-709.72C160.3,-709.72 406.3,-709.72 406.3,-709.72 412.3,-709.72 418.3,-715.72 418.3,-721.72 418.3,-721.72 418.3,-811.67 418.3,-811.67 418.3,-817.67 412.3,-823.67 406.3,-823.67 406.3,-823.67 160.3,-823.67 160.3,-823.67 154.3,-823.67 148.3,-817.67 148.3,-811.67 148.3,-811.67 148.3,-721.72 148.3,-721.72 148.3,-715.72 154.3,-709.72 160.3,-709.72"/>
<text text-anchor="middle" x="405.3" y="-717.52" font-family="Times-Roman" font-size="14.00">2</text>
</g>
<g id="clust5" class="cluster">
<title>cluster25 x 1</title>
<path fill="none" stroke="black" d="M1133.3,-709.72C1133.3,-709.72 1339.3,-709.72 1339.3,-709.72 1345.3,-709.72 1351.3,-715.72 1351.3,-721.72 1351.3,-721.72 1351.3,-811.67 1351.3,-811.67 1351.3,-817.67 1345.3,-823.67 1339.3,-823.67 1339.3,-823.67 1133.3,-823.67 1133.3,-823.67 1127.3,-823.67 1121.3,-817.67 1121.3,-811.67 1121.3,-811.67 1121.3,-721.72 1121.3,-721.72 1121.3,-715.72 1127.3,-709.72 1133.3,-709.72"/>
<text text-anchor="middle" x="1320.8" y="-717.52" font-family="Times-Roman" font-size="14.00">25 x 1</text>
</g>
<g id="clust6" class="cluster">
<title>cluster125 x 1</title>
<path fill="none" stroke="black" d="M889.3,-354.86C889.3,-354.86 1019.3,-354.86 1019.3,-354.86 1025.3,-354.86 1031.3,-360.86 1031.3,-366.86 1031.3,-366.86 1031.3,-456.81 1031.3,-456.81 1031.3,-462.81 1025.3,-468.81 1019.3,-468.81 1019.3,-468.81 889.3,-468.81 889.3,-468.81 883.3,-468.81 877.3,-462.81 877.3,-456.81 877.3,-456.81 877.3,-366.86 877.3,-366.86 877.3,-360.86 883.3,-354.86 889.3,-354.86"/>
<text text-anchor="middle" x="996.3" y="-362.66" font-family="Times-Roman" font-size="14.00">125 x 1</text>
</g>
<g id="clust7" class="cluster">
<title>cluster125 x 12</title>
<path fill="none" stroke="black" d="M909.3,-232.91C909.3,-232.91 999.3,-232.91 999.3,-232.91 1005.3,-232.91 1011.3,-238.91 1011.3,-244.91 1011.3,-244.91 1011.3,-334.86 1011.3,-334.86 1011.3,-340.86 1005.3,-346.86 999.3,-346.86 999.3,-346.86 909.3,-346.86 909.3,-346.86 903.3,-346.86 897.3,-340.86 897.3,-334.86 897.3,-334.86 897.3,-244.91 897.3,-244.91 897.3,-238.91 903.3,-232.91 909.3,-232.91"/>
<text text-anchor="middle" x="971.8" y="-240.71" font-family="Times-Roman" font-size="14.00">125 x 12</text>
</g>
<g id="clust8" class="cluster">
<title>cluster3</title>
<path fill="none" stroke="black" d="M1045.3,-232.91C1045.3,-232.91 1135.3,-232.91 1135.3,-232.91 1141.3,-232.91 1147.3,-238.91 1147.3,-244.91 1147.3,-244.91 1147.3,-334.86 1147.3,-334.86 1147.3,-340.86 1141.3,-346.86 1135.3,-346.86 1135.3,-346.86 1045.3,-346.86 1045.3,-346.86 1039.3,-346.86 1033.3,-340.86 1033.3,-334.86 1033.3,-334.86 1033.3,-244.91 1033.3,-244.91 1033.3,-238.91 1039.3,-232.91 1045.3,-232.91"/>
<text text-anchor="middle" x="1134.3" y="-240.71" font-family="Times-Roman" font-size="14.00">3</text>
</g>
<g id="clust9" class="cluster">
<title>cluster1,500</title>
<path fill="none" stroke="black" d="M970.3,-8C970.3,-8 1074.3,-8 1074.3,-8 1080.3,-8 1086.3,-14 1086.3,-20 1086.3,-20 1086.3,-209.93 1086.3,-209.93 1086.3,-215.93 1080.3,-221.93 1074.3,-221.93 1074.3,-221.93 970.3,-221.93 970.3,-221.93 964.3,-221.93 958.3,-215.93 958.3,-209.93 958.3,-209.93 958.3,-20 958.3,-20 958.3,-14 964.3,-8 970.3,-8"/>
<text text-anchor="middle" x="1057.8" y="-15.8" font-family="Times-Roman" font-size="14.00">1,500</text>
</g>
<!-- μ_μ_h -->
<g id="node1" class="node">
<title>μ_μ_h</title>
<ellipse fill="none" stroke="black" cx="477.3" cy="-778.2" rx="48.58" ry="37.45"/>
<text text-anchor="middle" x="477.3" y="-789.5" font-family="Times-Roman" font-size="14.00">μ_μ_h</text>
<text text-anchor="middle" x="477.3" y="-774.5" font-family="Times-Roman" font-size="14.00">~</text>
<text text-anchor="middle" x="477.3" y="-759.5" font-family="Times-Roman" font-size="14.00">Normal</text>
</g>
<!-- μ_h -->
<g id="node20" class="node">
<title>μ_h</title>
<ellipse fill="none" stroke="black" cx="654.3" cy="-656.24" rx="48.58" ry="37.45"/>
<text text-anchor="middle" x="654.3" y="-667.54" font-family="Times-Roman" font-size="14.00">μ_h</text>
<text text-anchor="middle" x="654.3" y="-652.54" font-family="Times-Roman" font-size="14.00">~</text>
<text text-anchor="middle" x="654.3" y="-637.54" font-family="Times-Roman" font-size="14.00">Normal</text>
</g>
<!-- μ_μ_h&#45;&gt;μ_h -->
<g id="edge1" class="edge">
<title>μ_μ_h&#45;&gt;μ_h</title>
<path fill="none" stroke="black" d="M500.15,-744.89C509.94,-732.72 522.14,-719.47 535.3,-709.72 554.72,-695.32 578.72,-683.78 600.07,-675.23"/>
<polygon fill="black" stroke="black" points="601.6,-678.39 609.66,-671.52 599.07,-671.86 601.6,-678.39"/>
</g>
<!-- μ_n -->
<g id="node2" class="node">
<title>μ_n</title>
<ellipse fill="none" stroke="black" cx="1440.3" cy="-889.15" rx="48.58" ry="37.45"/>
<text text-anchor="middle" x="1440.3" y="-900.45" font-family="Times-Roman" font-size="14.00">μ_n</text>
<text text-anchor="middle" x="1440.3" y="-885.45" font-family="Times-Roman" font-size="14.00">~</text>
<text text-anchor="middle" x="1440.3" y="-870.45" font-family="Times-Roman" font-size="14.00">Normal</text>
</g>
<!-- n -->
<g id="node28" class="node">
<title>n</title>
<ellipse fill="none" stroke="black" cx="1294.3" cy="-778.2" rx="48.58" ry="37.45"/>
<text text-anchor="middle" x="1294.3" y="-789.5" font-family="Times-Roman" font-size="14.00">n</text>
<text text-anchor="middle" x="1294.3" y="-774.5" font-family="Times-Roman" font-size="14.00">~</text>
<text text-anchor="middle" x="1294.3" y="-759.5" font-family="Times-Roman" font-size="14.00">Normal</text>
</g>
<!-- μ_n&#45;&gt;n -->
<g id="edge11" class="edge">
<title>μ_n&#45;&gt;n</title>
<path fill="none" stroke="black" d="M1405.7,-862.33C1385.06,-846.93 1358.7,-827.26 1336.8,-810.92"/>
<polygon fill="black" stroke="black" points="1338.76,-808.01 1328.65,-804.83 1334.57,-813.62 1338.76,-808.01"/>
</g>
<!-- σ_μ_h -->
<g id="node3" class="node">
<title>σ_μ_h</title>
<ellipse fill="none" stroke="black" cx="613.3" cy="-778.2" rx="69.09" ry="37.45"/>
<text text-anchor="middle" x="613.3" y="-789.5" font-family="Times-Roman" font-size="14.00">σ_μ_h</text>
<text text-anchor="middle" x="613.3" y="-774.5" font-family="Times-Roman" font-size="14.00">~</text>
<text text-anchor="middle" x="613.3" y="-759.5" font-family="Times-Roman" font-size="14.00">HalfNormal</text>
</g>
<!-- σ_μ_h&#45;&gt;μ_h -->
<g id="edge2" class="edge">
<title>σ_μ_h&#45;&gt;μ_h</title>
<path fill="none" stroke="black" d="M625.6,-741.21C629.77,-729 634.49,-715.2 638.87,-702.37"/>
<polygon fill="black" stroke="black" points="642.22,-703.39 642.15,-692.79 635.6,-701.12 642.22,-703.39"/>
</g>
<!-- μ_μ_m -->
<g id="node4" class="node">
<title>μ_μ_m</title>
<ellipse fill="none" stroke="black" cx="1168.3" cy="-889.15" rx="48.58" ry="37.45"/>
<text text-anchor="middle" x="1168.3" y="-900.45" font-family="Times-Roman" font-size="14.00">μ_μ_m</text>
<text text-anchor="middle" x="1168.3" y="-885.45" font-family="Times-Roman" font-size="14.00">~</text>
<text text-anchor="middle" x="1168.3" y="-870.45" font-family="Times-Roman" font-size="14.00">Normal</text>
</g>
<!-- μ_m -->
<g id="node27" class="node">
<title>μ_m</title>
<ellipse fill="none" stroke="black" cx="1178.3" cy="-778.2" rx="48.58" ry="37.45"/>
<text text-anchor="middle" x="1178.3" y="-789.5" font-family="Times-Roman" font-size="14.00">μ_m</text>
<text text-anchor="middle" x="1178.3" y="-774.5" font-family="Times-Roman" font-size="14.00">~</text>
<text text-anchor="middle" x="1178.3" y="-759.5" font-family="Times-Roman" font-size="14.00">Normal</text>
</g>
<!-- μ_μ_m&#45;&gt;μ_m -->
<g id="edge15" class="edge">
<title>μ_μ_m&#45;&gt;μ_m</title>
<path fill="none" stroke="black" d="M1171.65,-851.57C1172.4,-843.39 1173.21,-834.61 1173.99,-826.09"/>
<polygon fill="black" stroke="black" points="1177.5,-826.15 1174.93,-815.87 1170.53,-825.51 1177.5,-826.15"/>
</g>
<!-- σ_μ_k -->
<g id="node5" class="node">
<title>σ_μ_k</title>
<ellipse fill="none" stroke="black" cx="205.3" cy="-889.15" rx="69.09" ry="37.45"/>
<text text-anchor="middle" x="205.3" y="-900.45" font-family="Times-Roman" font-size="14.00">σ_μ_k</text>
<text text-anchor="middle" x="205.3" y="-885.45" font-family="Times-Roman" font-size="14.00">~</text>
<text text-anchor="middle" x="205.3" y="-870.45" font-family="Times-Roman" font-size="14.00">HalfNormal</text>
</g>
<!-- μ_k -->
<g id="node25" class="node">
<title>μ_k</title>
<ellipse fill="none" stroke="black" cx="205.3" cy="-778.2" rx="48.58" ry="37.45"/>
<text text-anchor="middle" x="205.3" y="-789.5" font-family="Times-Roman" font-size="14.00">μ_k</text>
<text text-anchor="middle" x="205.3" y="-774.5" font-family="Times-Roman" font-size="14.00">~</text>
<text text-anchor="middle" x="205.3" y="-759.5" font-family="Times-Roman" font-size="14.00">Normal</text>
</g>
<!-- σ_μ_k&#45;&gt;μ_k -->
<g id="edge6" class="edge">
<title>σ_μ_k&#45;&gt;μ_k</title>
<path fill="none" stroke="black" d="M205.3,-851.57C205.3,-843.39 205.3,-834.61 205.3,-826.09"/>
<polygon fill="black" stroke="black" points="208.8,-825.87 205.3,-815.87 201.8,-825.87 208.8,-825.87"/>
</g>
<!-- σ_m -->
<g id="node6" class="node">
<title>σ_m</title>
<ellipse fill="none" stroke="black" cx="1042.3" cy="-778.2" rx="69.09" ry="37.45"/>
<text text-anchor="middle" x="1042.3" y="-789.5" font-family="Times-Roman" font-size="14.00">σ_m</text>
<text text-anchor="middle" x="1042.3" y="-774.5" font-family="Times-Roman" font-size="14.00">~</text>
<text text-anchor="middle" x="1042.3" y="-759.5" font-family="Times-Roman" font-size="14.00">HalfNormal</text>
</g>
<!-- m -->
<g id="node18" class="node">
<title>m</title>
<ellipse fill="none" stroke="black" cx="886.3" cy="-656.24" rx="48.58" ry="37.45"/>
<text text-anchor="middle" x="886.3" y="-667.54" font-family="Times-Roman" font-size="14.00">m</text>
<text text-anchor="middle" x="886.3" y="-652.54" font-family="Times-Roman" font-size="14.00">~</text>
<text text-anchor="middle" x="886.3" y="-637.54" font-family="Times-Roman" font-size="14.00">Normal</text>
</g>
<!-- σ_m&#45;&gt;m -->
<g id="edge18" class="edge">
<title>σ_m&#45;&gt;m</title>
<path fill="none" stroke="black" d="M1008.69,-745.23C995.4,-733.37 979.65,-720.26 964.3,-709.72 958.07,-705.44 955.73,-705.68 949.3,-701.72 942.73,-697.67 935.92,-693.19 929.31,-688.67"/>
<polygon fill="black" stroke="black" points="931.3,-685.79 921.09,-682.97 927.31,-691.55 931.3,-685.79"/>
</g>
<!-- μ_μ_k -->
<g id="node7" class="node">
<title>μ_μ_k</title>
<ellipse fill="none" stroke="black" cx="69.3" cy="-889.15" rx="48.58" ry="37.45"/>
<text text-anchor="middle" x="69.3" y="-900.45" font-family="Times-Roman" font-size="14.00">μ_μ_k</text>
<text text-anchor="middle" x="69.3" y="-885.45" font-family="Times-Roman" font-size="14.00">~</text>
<text text-anchor="middle" x="69.3" y="-870.45" font-family="Times-Roman" font-size="14.00">Normal</text>
</g>
<!-- μ_μ_k&#45;&gt;μ_k -->
<g id="edge7" class="edge">
<title>μ_μ_k&#45;&gt;μ_k</title>
<path fill="none" stroke="black" d="M102.57,-861.5C121.09,-846.66 144.31,-828.05 163.99,-812.29"/>
<polygon fill="black" stroke="black" points="166.28,-814.94 171.9,-805.95 161.91,-809.47 166.28,-814.94"/>
</g>
<!-- σ_n -->
<g id="node8" class="node">
<title>σ_n</title>
<ellipse fill="none" stroke="black" cx="1304.3" cy="-889.15" rx="69.09" ry="37.45"/>
<text text-anchor="middle" x="1304.3" y="-900.45" font-family="Times-Roman" font-size="14.00">σ_n</text>
<text text-anchor="middle" x="1304.3" y="-885.45" font-family="Times-Roman" font-size="14.00">~</text>
<text text-anchor="middle" x="1304.3" y="-870.45" font-family="Times-Roman" font-size="14.00">HalfNormal</text>
</g>
<!-- σ_n&#45;&gt;n -->
<g id="edge12" class="edge">
<title>σ_n&#45;&gt;n</title>
<path fill="none" stroke="black" d="M1300.94,-851.57C1300.19,-843.39 1299.38,-834.61 1298.6,-826.09"/>
<polygon fill="black" stroke="black" points="1302.06,-825.51 1297.66,-815.87 1295.09,-826.15 1302.06,-825.51"/>
</g>
<!-- σ_σ_a -->
<g id="node9" class="node">
<title>σ_σ_a</title>
<ellipse fill="none" stroke="black" cx="1060.3" cy="-534.29" rx="69.09" ry="37.45"/>
<text text-anchor="middle" x="1060.3" y="-545.59" font-family="Times-Roman" font-size="14.00">σ_σ_a</text>
<text text-anchor="middle" x="1060.3" y="-530.59" font-family="Times-Roman" font-size="14.00">~</text>
<text text-anchor="middle" x="1060.3" y="-515.59" font-family="Times-Roman" font-size="14.00">HalfNormal</text>
</g>
<!-- σ_a -->
<g id="node29" class="node">
<title>σ_a</title>
<ellipse fill="none" stroke="black" cx="954.3" cy="-423.34" rx="69.09" ry="37.45"/>
<text text-anchor="middle" x="954.3" y="-434.64" font-family="Times-Roman" font-size="14.00">σ_a</text>
<text text-anchor="middle" x="954.3" y="-419.64" font-family="Times-Roman" font-size="14.00">~</text>
<text text-anchor="middle" x="954.3" y="-404.64" font-family="Times-Roman" font-size="14.00">HalfNormal</text>
</g>
<!-- σ_σ_a&#45;&gt;σ_a -->
<g id="edge24" class="edge">
<title>σ_σ_a&#45;&gt;σ_a</title>
<path fill="none" stroke="black" d="M1028.78,-500.9C1017.56,-489.36 1004.79,-476.24 993.04,-464.16"/>
<polygon fill="black" stroke="black" points="995.36,-461.52 985.87,-456.79 990.34,-466.4 995.36,-461.52"/>
</g>
<!-- μ_j -->
<g id="node10" class="node">
<title>μ_j</title>
<ellipse fill="none" stroke="black" cx="1090.3" cy="-423.34" rx="48.58" ry="37.45"/>
<text text-anchor="middle" x="1090.3" y="-434.64" font-family="Times-Roman" font-size="14.00">μ_j</text>
<text text-anchor="middle" x="1090.3" y="-419.64" font-family="Times-Roman" font-size="14.00">~</text>
<text text-anchor="middle" x="1090.3" y="-404.64" font-family="Times-Roman" font-size="14.00">Normal</text>
</g>
<!-- j -->
<g id="node31" class="node">
<title>j</title>
<ellipse fill="none" stroke="black" cx="1090.3" cy="-301.38" rx="48.58" ry="37.45"/>
<text text-anchor="middle" x="1090.3" y="-312.68" font-family="Times-Roman" font-size="14.00">j</text>
<text text-anchor="middle" x="1090.3" y="-297.68" font-family="Times-Roman" font-size="14.00">~</text>
<text text-anchor="middle" x="1090.3" y="-282.68" font-family="Times-Roman" font-size="14.00">Normal</text>
</g>
<!-- μ_j&#45;&gt;j -->
<g id="edge28" class="edge">
<title>μ_j&#45;&gt;j</title>
<path fill="none" stroke="black" d="M1090.3,-385.69C1090.3,-374.29 1090.3,-361.55 1090.3,-349.54"/>
<polygon fill="black" stroke="black" points="1093.8,-349.21 1090.3,-339.21 1086.8,-349.21 1093.8,-349.21"/>
</g>
<!-- σ_σ_h -->
<g id="node11" class="node">
<title>σ_σ_h</title>
<ellipse fill="none" stroke="black" cx="69.3" cy="-778.2" rx="69.09" ry="37.45"/>
<text text-anchor="middle" x="69.3" y="-789.5" font-family="Times-Roman" font-size="14.00">σ_σ_h</text>
<text text-anchor="middle" x="69.3" y="-774.5" font-family="Times-Roman" font-size="14.00">~</text>
<text text-anchor="middle" x="69.3" y="-759.5" font-family="Times-Roman" font-size="14.00">HalfNormal</text>
</g>
<!-- σ_h -->
<g id="node21" class="node">
<title>σ_h</title>
<ellipse fill="none" stroke="black" cx="205.3" cy="-656.24" rx="69.09" ry="37.45"/>
<text text-anchor="middle" x="205.3" y="-667.54" font-family="Times-Roman" font-size="14.00">σ_h</text>
<text text-anchor="middle" x="205.3" y="-652.54" font-family="Times-Roman" font-size="14.00">~</text>
<text text-anchor="middle" x="205.3" y="-637.54" font-family="Times-Roman" font-size="14.00">HalfNormal</text>
</g>
<!-- σ_σ_h&#45;&gt;σ_h -->
<g id="edge3" class="edge">
<title>σ_σ_h&#45;&gt;σ_h</title>
<path fill="none" stroke="black" d="M104.26,-745.45C116.83,-734.12 131.15,-721.29 144.3,-709.72 149.78,-704.9 155.56,-699.86 161.3,-694.89"/>
<polygon fill="black" stroke="black" points="163.78,-697.38 169.06,-688.19 159.2,-692.08 163.78,-697.38"/>
</g>
<!-- σ -->
<g id="node12" class="node">
<title>σ</title>
<ellipse fill="none" stroke="black" cx="1165.3" cy="-187.43" rx="69.09" ry="37.45"/>
<text text-anchor="middle" x="1165.3" y="-198.73" font-family="Times-Roman" font-size="14.00">σ</text>
<text text-anchor="middle" x="1165.3" y="-183.73" font-family="Times-Roman" font-size="14.00">~</text>
<text text-anchor="middle" x="1165.3" y="-168.73" font-family="Times-Roman" font-size="14.00">HalfNormal</text>
</g>
<!-- lfc -->
<g id="node32" class="node">
<title>lfc</title>
<ellipse fill="lightgrey" stroke="black" cx="1025.3" cy="-76.48" rx="48.58" ry="37.45"/>
<text text-anchor="middle" x="1025.3" y="-87.78" font-family="Times-Roman" font-size="14.00">lfc</text>
<text text-anchor="middle" x="1025.3" y="-72.78" font-family="Times-Roman" font-size="14.00">~</text>
<text text-anchor="middle" x="1025.3" y="-57.78" font-family="Times-Roman" font-size="14.00">Normal</text>
</g>
<!-- σ&#45;&gt;lfc -->
<g id="edge32" class="edge">
<title>σ&#45;&gt;lfc</title>
<path fill="none" stroke="black" d="M1126.3,-156.08C1107.97,-141.82 1086.1,-124.79 1067.4,-110.24"/>
<polygon fill="black" stroke="black" points="1069.37,-107.34 1059.33,-103.96 1065.07,-112.86 1069.37,-107.34"/>
</g>
<!-- σ_q -->
<g id="node13" class="node">
<title>σ_q</title>
<ellipse fill="none" stroke="black" cx="770.3" cy="-778.2" rx="69.09" ry="37.45"/>
<text text-anchor="middle" x="770.3" y="-789.5" font-family="Times-Roman" font-size="14.00">σ_q</text>
<text text-anchor="middle" x="770.3" y="-774.5" font-family="Times-Roman" font-size="14.00">~</text>
<text text-anchor="middle" x="770.3" y="-759.5" font-family="Times-Roman" font-size="14.00">HalfNormal</text>
</g>
<!-- q -->
<g id="node19" class="node">
<title>q</title>
<ellipse fill="none" stroke="black" cx="770.3" cy="-656.24" rx="48.58" ry="37.45"/>
<text text-anchor="middle" x="770.3" y="-667.54" font-family="Times-Roman" font-size="14.00">q</text>
<text text-anchor="middle" x="770.3" y="-652.54" font-family="Times-Roman" font-size="14.00">~</text>
<text text-anchor="middle" x="770.3" y="-637.54" font-family="Times-Roman" font-size="14.00">Normal</text>
</g>
<!-- σ_q&#45;&gt;q -->
<g id="edge14" class="edge">
<title>σ_q&#45;&gt;q</title>
<path fill="none" stroke="black" d="M770.3,-740.55C770.3,-729.15 770.3,-716.41 770.3,-704.4"/>
<polygon fill="black" stroke="black" points="773.8,-704.07 770.3,-694.07 766.8,-704.07 773.8,-704.07"/>
</g>
<!-- μ_q -->
<g id="node14" class="node">
<title>μ_q</title>
<ellipse fill="none" stroke="black" cx="906.3" cy="-778.2" rx="48.58" ry="37.45"/>
<text text-anchor="middle" x="906.3" y="-789.5" font-family="Times-Roman" font-size="14.00">μ_q</text>
<text text-anchor="middle" x="906.3" y="-774.5" font-family="Times-Roman" font-size="14.00">~</text>
<text text-anchor="middle" x="906.3" y="-759.5" font-family="Times-Roman" font-size="14.00">Normal</text>
</g>
<!-- μ_q&#45;&gt;q -->
<g id="edge13" class="edge">
<title>μ_q&#45;&gt;q</title>
<path fill="none" stroke="black" d="M883.61,-744.65C873.85,-732.45 861.62,-719.24 848.3,-709.72 840.51,-704.15 836.62,-706.45 828.3,-701.72 822.44,-698.39 816.52,-694.53 810.82,-690.5"/>
<polygon fill="black" stroke="black" points="812.78,-687.6 802.64,-684.52 808.65,-693.25 812.78,-687.6"/>
</g>
<!-- σ_j -->
<g id="node15" class="node">
<title>σ_j</title>
<ellipse fill="none" stroke="black" cx="1226.3" cy="-423.34" rx="69.09" ry="37.45"/>
<text text-anchor="middle" x="1226.3" y="-434.64" font-family="Times-Roman" font-size="14.00">σ_j</text>
<text text-anchor="middle" x="1226.3" y="-419.64" font-family="Times-Roman" font-size="14.00">~</text>
<text text-anchor="middle" x="1226.3" y="-404.64" font-family="Times-Roman" font-size="14.00">HalfNormal</text>
</g>
<!-- σ_j&#45;&gt;j -->
<g id="edge27" class="edge">
<title>σ_j&#45;&gt;j</title>
<path fill="none" stroke="black" d="M1190.56,-390.82C1171.89,-374.35 1148.98,-354.15 1129.78,-337.21"/>
<polygon fill="black" stroke="black" points="1131.9,-334.41 1122.08,-330.42 1127.26,-339.66 1131.9,-334.41"/>
</g>
<!-- σ_σ_k -->
<g id="node16" class="node">
<title>σ_σ_k</title>
<ellipse fill="none" stroke="black" cx="362.3" cy="-889.15" rx="69.09" ry="37.45"/>
<text text-anchor="middle" x="362.3" y="-900.45" font-family="Times-Roman" font-size="14.00">σ_σ_k</text>
<text text-anchor="middle" x="362.3" y="-885.45" font-family="Times-Roman" font-size="14.00">~</text>
<text text-anchor="middle" x="362.3" y="-870.45" font-family="Times-Roman" font-size="14.00">HalfNormal</text>
</g>
<!-- σ_k -->
<g id="node26" class="node">
<title>σ_k</title>
<ellipse fill="none" stroke="black" cx="341.3" cy="-778.2" rx="69.09" ry="37.45"/>
<text text-anchor="middle" x="341.3" y="-789.5" font-family="Times-Roman" font-size="14.00">σ_k</text>
<text text-anchor="middle" x="341.3" y="-774.5" font-family="Times-Roman" font-size="14.00">~</text>
<text text-anchor="middle" x="341.3" y="-759.5" font-family="Times-Roman" font-size="14.00">HalfNormal</text>
</g>
<!-- σ_σ_k&#45;&gt;σ_k -->
<g id="edge8" class="edge">
<title>σ_σ_k&#45;&gt;σ_k</title>
<path fill="none" stroke="black" d="M355.25,-851.57C353.64,-843.21 351.9,-834.23 350.23,-825.53"/>
<polygon fill="black" stroke="black" points="353.62,-824.65 348.29,-815.5 346.75,-825.98 353.62,-824.65"/>
</g>
<!-- σ_μ_m -->
<g id="node17" class="node">
<title>σ_μ_m</title>
<ellipse fill="none" stroke="black" cx="1032.3" cy="-889.15" rx="69.09" ry="37.45"/>
<text text-anchor="middle" x="1032.3" y="-900.45" font-family="Times-Roman" font-size="14.00">σ_μ_m</text>
<text text-anchor="middle" x="1032.3" y="-885.45" font-family="Times-Roman" font-size="14.00">~</text>
<text text-anchor="middle" x="1032.3" y="-870.45" font-family="Times-Roman" font-size="14.00">HalfNormal</text>
</g>
<!-- σ_μ_m&#45;&gt;μ_m -->
<g id="edge16" class="edge">
<title>σ_μ_m&#45;&gt;μ_m</title>
<path fill="none" stroke="black" d="M1073.18,-858.48C1088.06,-847.6 1104.99,-835.15 1120.3,-823.67 1125.43,-819.83 1130.79,-815.77 1136.1,-811.73"/>
<polygon fill="black" stroke="black" points="1138.52,-814.28 1144.35,-805.43 1134.28,-808.71 1138.52,-814.28"/>
</g>
<!-- μ_a -->
<g id="node23" class="node">
<title>μ_a</title>
<polygon fill="none" stroke="black" points="756.3,-449.84 644.3,-449.84 644.3,-396.84 756.3,-396.84 756.3,-449.84"/>
<text text-anchor="middle" x="700.3" y="-434.64" font-family="Times-Roman" font-size="14.00">μ_a</text>
<text text-anchor="middle" x="700.3" y="-419.64" font-family="Times-Roman" font-size="14.00">~</text>
<text text-anchor="middle" x="700.3" y="-404.64" font-family="Times-Roman" font-size="14.00">Deterministic</text>
</g>
<!-- m&#45;&gt;μ_a -->
<g id="edge20" class="edge">
<title>m&#45;&gt;μ_a</title>
<path fill="none" stroke="black" d="M865.11,-622.18C843.47,-589.27 808.19,-537.88 773.3,-496.81 761.81,-483.29 748.24,-469.34 735.93,-457.34"/>
<polygon fill="black" stroke="black" points="738.09,-454.56 728.47,-450.14 733.23,-459.6 738.09,-454.56"/>
</g>
<!-- q&#45;&gt;μ_a -->
<g id="edge22" class="edge">
<title>q&#45;&gt;μ_a</title>
<path fill="none" stroke="black" d="M770.92,-618.48C770.32,-585.57 766.53,-536.52 751.3,-496.81 746.06,-483.17 737.7,-469.68 729.24,-458.1"/>
<polygon fill="black" stroke="black" points="731.95,-455.88 723.11,-450.04 726.37,-460.12 731.95,-455.88"/>
</g>
<!-- h -->
<g id="node24" class="node">
<title>h</title>
<ellipse fill="none" stroke="black" cx="693.3" cy="-534.29" rx="48.58" ry="37.45"/>
<text text-anchor="middle" x="693.3" y="-545.59" font-family="Times-Roman" font-size="14.00">h</text>
<text text-anchor="middle" x="693.3" y="-530.59" font-family="Times-Roman" font-size="14.00">~</text>
<text text-anchor="middle" x="693.3" y="-515.59" font-family="Times-Roman" font-size="14.00">Normal</text>
</g>
<!-- μ_h&#45;&gt;h -->
<g id="edge5" class="edge">
<title>μ_h&#45;&gt;h</title>
<path fill="none" stroke="black" d="M665.89,-619.58C669.86,-607.36 674.36,-593.52 678.55,-580.64"/>
<polygon fill="black" stroke="black" points="681.91,-581.62 681.68,-571.02 675.26,-579.45 681.91,-581.62"/>
</g>
<!-- σ_h&#45;&gt;h -->
<g id="edge4" class="edge">
<title>σ_h&#45;&gt;h</title>
<path fill="none" stroke="black" d="M234.92,-622.28C248.38,-609.39 265.31,-595.8 283.3,-587.77 344.83,-560.27 536.83,-544.87 634.68,-538.62"/>
<polygon fill="black" stroke="black" points="634.95,-542.11 644.71,-537.99 634.51,-535.12 634.95,-542.11"/>
</g>
<!-- k -->
<g id="node22" class="node">
<title>k</title>
<ellipse fill="none" stroke="black" cx="341.3" cy="-656.24" rx="48.58" ry="37.45"/>
<text text-anchor="middle" x="341.3" y="-667.54" font-family="Times-Roman" font-size="14.00">k</text>
<text text-anchor="middle" x="341.3" y="-652.54" font-family="Times-Roman" font-size="14.00">~</text>
<text text-anchor="middle" x="341.3" y="-637.54" font-family="Times-Roman" font-size="14.00">Normal</text>
</g>
<!-- k&#45;&gt;μ_a -->
<g id="edge19" class="edge">
<title>k&#45;&gt;μ_a</title>
<path fill="none" stroke="black" d="M378.36,-631.4C443.69,-589.38 579.28,-502.17 651.9,-455.47"/>
<polygon fill="black" stroke="black" points="653.92,-458.33 660.43,-449.98 650.13,-452.44 653.92,-458.33"/>
</g>
<!-- a -->
<g id="node30" class="node">
<title>a</title>
<ellipse fill="none" stroke="black" cx="954.3" cy="-301.38" rx="48.58" ry="37.45"/>
<text text-anchor="middle" x="954.3" y="-312.68" font-family="Times-Roman" font-size="14.00">a</text>
<text text-anchor="middle" x="954.3" y="-297.68" font-family="Times-Roman" font-size="14.00">~</text>
<text text-anchor="middle" x="954.3" y="-282.68" font-family="Times-Roman" font-size="14.00">Normal</text>
</g>
<!-- μ_a&#45;&gt;a -->
<g id="edge26" class="edge">
<title>μ_a&#45;&gt;a</title>
<path fill="none" stroke="black" d="M754.47,-396.75C798.72,-375.85 860.79,-346.54 903.96,-326.15"/>
<polygon fill="black" stroke="black" points="905.6,-329.25 913.15,-321.82 902.61,-322.92 905.6,-329.25"/>
</g>
<!-- h&#45;&gt;μ_a -->
<g id="edge23" class="edge">
<title>h&#45;&gt;μ_a</title>
<path fill="none" stroke="black" d="M695.65,-496.71C696.4,-484.97 697.24,-471.98 697.99,-460.29"/>
<polygon fill="black" stroke="black" points="701.5,-460.19 698.65,-449.99 694.51,-459.74 701.5,-460.19"/>
</g>
<!-- μ_k&#45;&gt;k -->
<g id="edge9" class="edge">
<title>μ_k&#45;&gt;k</title>
<path fill="none" stroke="black" d="M227.98,-744.65C237.74,-732.45 249.98,-719.24 263.3,-709.72 271.08,-704.15 274.98,-706.45 283.3,-701.72 289.15,-698.39 295.07,-694.53 300.78,-690.5"/>
<polygon fill="black" stroke="black" points="302.95,-693.25 308.95,-684.52 298.82,-687.6 302.95,-693.25"/>
</g>
<!-- σ_k&#45;&gt;k -->
<g id="edge10" class="edge">
<title>σ_k&#45;&gt;k</title>
<path fill="none" stroke="black" d="M341.3,-740.55C341.3,-729.15 341.3,-716.41 341.3,-704.4"/>
<polygon fill="black" stroke="black" points="344.8,-704.07 341.3,-694.07 337.8,-704.07 344.8,-704.07"/>
</g>
<!-- μ_m&#45;&gt;m -->
<g id="edge17" class="edge">
<title>μ_m&#45;&gt;m</title>
<path fill="none" stroke="black" d="M1158.12,-743.66C1148.43,-730.67 1135.57,-717.17 1120.3,-709.72 1086.1,-693.04 985.28,-714.07 949.3,-701.72 941.55,-699.06 933.91,-695.13 926.76,-690.69"/>
<polygon fill="black" stroke="black" points="928.27,-687.49 918.01,-684.86 924.39,-693.32 928.27,-687.49"/>
</g>
<!-- n&#45;&gt;μ_a -->
<g id="edge21" class="edge">
<title>n&#45;&gt;μ_a</title>
<path fill="none" stroke="black" d="M1270.87,-744.93C1261.09,-732.91 1249.04,-719.75 1236.3,-709.72 1136.66,-631.29 1094.28,-639.26 982.3,-579.77 902.63,-537.45 811.35,-486.72 754.75,-455"/>
<polygon fill="black" stroke="black" points="756.41,-451.92 745.97,-450.08 752.98,-458.02 756.41,-451.92"/>
</g>
<!-- σ_a&#45;&gt;a -->
<g id="edge25" class="edge">
<title>σ_a&#45;&gt;a</title>
<path fill="none" stroke="black" d="M954.3,-385.69C954.3,-374.29 954.3,-361.55 954.3,-349.54"/>
<polygon fill="black" stroke="black" points="957.8,-349.21 954.3,-339.21 950.8,-349.21 957.8,-349.21"/>
</g>
<!-- μ -->
<g id="node33" class="node">
<title>μ</title>
<polygon fill="none" stroke="black" points="1078.3,-213.93 966.3,-213.93 966.3,-160.93 1078.3,-160.93 1078.3,-213.93"/>
<text text-anchor="middle" x="1022.3" y="-198.73" font-family="Times-Roman" font-size="14.00">μ</text>
<text text-anchor="middle" x="1022.3" y="-183.73" font-family="Times-Roman" font-size="14.00">~</text>
<text text-anchor="middle" x="1022.3" y="-168.73" font-family="Times-Roman" font-size="14.00">Deterministic</text>
</g>
<!-- a&#45;&gt;μ -->
<g id="edge30" class="edge">
<title>a&#45;&gt;μ</title>
<path fill="none" stroke="black" d="M974.51,-267.1C982.99,-253.14 992.85,-236.91 1001.4,-222.84"/>
<polygon fill="black" stroke="black" points="1004.6,-224.31 1006.8,-213.94 998.62,-220.67 1004.6,-224.31"/>
</g>
<!-- j&#45;&gt;μ -->
<g id="edge29" class="edge">
<title>j&#45;&gt;μ</title>
<path fill="none" stroke="black" d="M1070.08,-267.1C1061.6,-253.14 1051.75,-236.91 1043.2,-222.84"/>
<polygon fill="black" stroke="black" points="1045.98,-220.67 1037.79,-213.94 1039.99,-224.31 1045.98,-220.67"/>
</g>
<!-- μ&#45;&gt;lfc -->
<g id="edge31" class="edge">
<title>μ&#45;&gt;lfc</title>
<path fill="none" stroke="black" d="M1023,-160.89C1023.3,-149.98 1023.66,-136.89 1024.01,-124.35"/>
<polygon fill="black" stroke="black" points="1027.51,-124.09 1024.29,-114 1020.52,-123.9 1027.51,-124.09"/>
</g>
</g>
</svg>
