<?xml version="1.0" encoding="UTF-8" standalone="no"?>
<!DOCTYPE svg PUBLIC "-//W3C//DTD SVG 1.1//EN"
 "http://www.w3.org/Graphics/SVG/1.1/DTD/svg11.dtd">
<!-- Generated by graphviz version 2.47.0 (20210327.0129)
 -->
<!-- Pages: 1 -->
<svg width="807pt" height="469pt"
 viewBox="0.00 0.00 806.59 468.81" xmlns="http://www.w3.org/2000/svg" xmlns:xlink="http://www.w3.org/1999/xlink">
<g id="graph0" class="graph" transform="scale(1 1) rotate(0) translate(4 464.81)">
<polygon fill="white" stroke="transparent" points="-4,4 -4,-464.81 802.59,-464.81 802.59,4 -4,4"/>
<g id="clust1" class="cluster">
<title>cluster64</title>
<path fill="none" stroke="black" d="M160.3,-243.91C160.3,-243.91 250.3,-243.91 250.3,-243.91 256.3,-243.91 262.3,-249.91 262.3,-255.91 262.3,-255.91 262.3,-345.86 262.3,-345.86 262.3,-351.86 256.3,-357.86 250.3,-357.86 250.3,-357.86 160.3,-357.86 160.3,-357.86 154.3,-357.86 148.3,-351.86 148.3,-345.86 148.3,-345.86 148.3,-255.91 148.3,-255.91 148.3,-249.91 154.3,-243.91 160.3,-243.91"/>
<text text-anchor="middle" x="244.8" y="-251.71" font-family="Times-Roman" font-size="14.00">64</text>
</g>
<g id="clust2" class="cluster">
<title>cluster64 x 10</title>
<path fill="none" stroke="black" d="M282.3,-243.91C282.3,-243.91 372.3,-243.91 372.3,-243.91 378.3,-243.91 384.3,-249.91 384.3,-255.91 384.3,-255.91 384.3,-345.86 384.3,-345.86 384.3,-351.86 378.3,-357.86 372.3,-357.86 372.3,-357.86 282.3,-357.86 282.3,-357.86 276.3,-357.86 270.3,-351.86 270.3,-345.86 270.3,-345.86 270.3,-255.91 270.3,-255.91 270.3,-249.91 276.3,-243.91 282.3,-243.91"/>
<text text-anchor="middle" x="349.3" y="-251.71" font-family="Times-Roman" font-size="14.00">64 x 10</text>
</g>
<g id="clust3" class="cluster">
<title>cluster4</title>
<path fill="none" stroke="black" d="M548.3,-243.91C548.3,-243.91 638.3,-243.91 638.3,-243.91 644.3,-243.91 650.3,-249.91 650.3,-255.91 650.3,-255.91 650.3,-345.86 650.3,-345.86 650.3,-351.86 644.3,-357.86 638.3,-357.86 638.3,-357.86 548.3,-357.86 548.3,-357.86 542.3,-357.86 536.3,-351.86 536.3,-345.86 536.3,-345.86 536.3,-255.91 536.3,-255.91 536.3,-249.91 542.3,-243.91 548.3,-243.91"/>
<text text-anchor="middle" x="637.3" y="-251.71" font-family="Times-Roman" font-size="14.00">4</text>
</g>
<g id="clust4" class="cluster">
<title>cluster1,443</title>
<path fill="none" stroke="black" d="M248.3,-8C248.3,-8 352.3,-8 352.3,-8 358.3,-8 364.3,-14 364.3,-20 364.3,-20 364.3,-212.93 364.3,-212.93 364.3,-218.93 358.3,-224.93 352.3,-224.93 352.3,-224.93 248.3,-224.93 248.3,-224.93 242.3,-224.93 236.3,-218.93 236.3,-212.93 236.3,-212.93 236.3,-20 236.3,-20 236.3,-14 242.3,-8 248.3,-8"/>
<text text-anchor="middle" x="335.8" y="-15.8" font-family="Times-Roman" font-size="14.00">1,443</text>
</g>
<g id="clust5" class="cluster">
<title>cluster192</title>
<path fill="none" stroke="black" d="M32.3,-121.95C32.3,-121.95 162.3,-121.95 162.3,-121.95 168.3,-121.95 174.3,-127.95 174.3,-133.95 174.3,-133.95 174.3,-223.91 174.3,-223.91 174.3,-229.91 168.3,-235.91 162.3,-235.91 162.3,-235.91 32.3,-235.91 32.3,-235.91 26.3,-235.91 20.3,-229.91 20.3,-223.91 20.3,-223.91 20.3,-133.95 20.3,-133.95 20.3,-127.95 26.3,-121.95 32.3,-121.95"/>
<text text-anchor="middle" x="152.3" y="-129.75" font-family="Times-Roman" font-size="14.00">192</text>
</g>
<!-- σ_σ -->
<g id="node1" class="node">
<title>σ_σ</title>
<ellipse fill="none" stroke="black" cx="69.3" cy="-312.38" rx="69.09" ry="37.45"/>
<text text-anchor="middle" x="69.3" y="-323.68" font-family="Times-Roman" font-size="14.00">σ_σ</text>
<text text-anchor="middle" x="69.3" y="-308.68" font-family="Times-Roman" font-size="14.00">~</text>
<text text-anchor="middle" x="69.3" y="-293.68" font-family="Times-Roman" font-size="14.00">HalfNormal</text>
</g>
<!-- σ -->
<g id="node13" class="node">
<title>σ</title>
<ellipse fill="none" stroke="black" cx="97.3" cy="-190.43" rx="69.09" ry="37.45"/>
<text text-anchor="middle" x="97.3" y="-201.73" font-family="Times-Roman" font-size="14.00">σ</text>
<text text-anchor="middle" x="97.3" y="-186.73" font-family="Times-Roman" font-size="14.00">~</text>
<text text-anchor="middle" x="97.3" y="-171.73" font-family="Times-Roman" font-size="14.00">HalfNormal</text>
</g>
<!-- σ_σ&#45;&gt;σ -->
<g id="edge10" class="edge">
<title>σ_σ&#45;&gt;σ</title>
<path fill="none" stroke="black" d="M77.77,-275.07C80.49,-263.43 83.54,-250.38 86.4,-238.11"/>
<polygon fill="black" stroke="black" points="89.89,-238.57 88.75,-228.04 83.07,-236.98 89.89,-238.57"/>
</g>
<!-- μ_d -->
<g id="node2" class="node">
<title>μ_d</title>
<ellipse fill="none" stroke="black" cx="321.3" cy="-423.34" rx="48.58" ry="37.45"/>
<text text-anchor="middle" x="321.3" y="-434.64" font-family="Times-Roman" font-size="14.00">μ_d</text>
<text text-anchor="middle" x="321.3" y="-419.64" font-family="Times-Roman" font-size="14.00">~</text>
<text text-anchor="middle" x="321.3" y="-404.64" font-family="Times-Roman" font-size="14.00">Normal</text>
</g>
<!-- d -->
<g id="node9" class="node">
<title>d</title>
<ellipse fill="none" stroke="black" cx="327.3" cy="-312.38" rx="48.58" ry="37.45"/>
<text text-anchor="middle" x="327.3" y="-323.68" font-family="Times-Roman" font-size="14.00">d</text>
<text text-anchor="middle" x="327.3" y="-308.68" font-family="Times-Roman" font-size="14.00">~</text>
<text text-anchor="middle" x="327.3" y="-293.68" font-family="Times-Roman" font-size="14.00">Normal</text>
</g>
<!-- μ_d&#45;&gt;d -->
<g id="edge3" class="edge">
<title>μ_d&#45;&gt;d</title>
<path fill="none" stroke="black" d="M323.31,-385.75C323.76,-377.58 324.24,-368.8 324.71,-360.27"/>
<polygon fill="black" stroke="black" points="328.22,-360.23 325.28,-350.06 321.23,-359.85 328.22,-360.23"/>
</g>
<!-- μ_η -->
<g id="node3" class="node">
<title>μ_η</title>
<ellipse fill="none" stroke="black" cx="593.3" cy="-423.34" rx="48.58" ry="37.45"/>
<text text-anchor="middle" x="593.3" y="-434.64" font-family="Times-Roman" font-size="14.00">μ_η</text>
<text text-anchor="middle" x="593.3" y="-419.64" font-family="Times-Roman" font-size="14.00">~</text>
<text text-anchor="middle" x="593.3" y="-404.64" font-family="Times-Roman" font-size="14.00">Normal</text>
</g>
<!-- η -->
<g id="node10" class="node">
<title>η</title>
<ellipse fill="none" stroke="black" cx="593.3" cy="-312.38" rx="48.58" ry="37.45"/>
<text text-anchor="middle" x="593.3" y="-323.68" font-family="Times-Roman" font-size="14.00">η</text>
<text text-anchor="middle" x="593.3" y="-308.68" font-family="Times-Roman" font-size="14.00">~</text>
<text text-anchor="middle" x="593.3" y="-293.68" font-family="Times-Roman" font-size="14.00">Normal</text>
</g>
<!-- μ_η&#45;&gt;η -->
<g id="edge5" class="edge">
<title>μ_η&#45;&gt;η</title>
<path fill="none" stroke="black" d="M593.3,-385.75C593.3,-377.58 593.3,-368.8 593.3,-360.27"/>
<polygon fill="black" stroke="black" points="596.8,-360.06 593.3,-350.06 589.8,-360.06 596.8,-360.06"/>
</g>
<!-- σ_h -->
<g id="node4" class="node">
<title>σ_h</title>
<ellipse fill="none" stroke="black" cx="69.3" cy="-423.34" rx="69.09" ry="37.45"/>
<text text-anchor="middle" x="69.3" y="-434.64" font-family="Times-Roman" font-size="14.00">σ_h</text>
<text text-anchor="middle" x="69.3" y="-419.64" font-family="Times-Roman" font-size="14.00">~</text>
<text text-anchor="middle" x="69.3" y="-404.64" font-family="Times-Roman" font-size="14.00">HalfNormal</text>
</g>
<!-- h -->
<g id="node8" class="node">
<title>h</title>
<ellipse fill="none" stroke="black" cx="205.3" cy="-312.38" rx="48.58" ry="37.45"/>
<text text-anchor="middle" x="205.3" y="-323.68" font-family="Times-Roman" font-size="14.00">h</text>
<text text-anchor="middle" x="205.3" y="-308.68" font-family="Times-Roman" font-size="14.00">~</text>
<text text-anchor="middle" x="205.3" y="-293.68" font-family="Times-Roman" font-size="14.00">Normal</text>
</g>
<!-- σ_h&#45;&gt;h -->
<g id="edge2" class="edge">
<title>σ_h&#45;&gt;h</title>
<path fill="none" stroke="black" d="M107.54,-391.7C125.12,-377.62 146,-360.89 163.94,-346.51"/>
<polygon fill="black" stroke="black" points="166.34,-349.08 171.96,-340.09 161.97,-343.61 166.34,-349.08"/>
</g>
<!-- μ_h -->
<g id="node5" class="node">
<title>μ_h</title>
<ellipse fill="none" stroke="black" cx="205.3" cy="-423.34" rx="48.58" ry="37.45"/>
<text text-anchor="middle" x="205.3" y="-434.64" font-family="Times-Roman" font-size="14.00">μ_h</text>
<text text-anchor="middle" x="205.3" y="-419.64" font-family="Times-Roman" font-size="14.00">~</text>
<text text-anchor="middle" x="205.3" y="-404.64" font-family="Times-Roman" font-size="14.00">Normal</text>
</g>
<!-- μ_h&#45;&gt;h -->
<g id="edge1" class="edge">
<title>μ_h&#45;&gt;h</title>
<path fill="none" stroke="black" d="M205.3,-385.75C205.3,-377.58 205.3,-368.8 205.3,-360.27"/>
<polygon fill="black" stroke="black" points="208.8,-360.06 205.3,-350.06 201.8,-360.06 208.8,-360.06"/>
</g>
<!-- σ_η -->
<g id="node6" class="node">
<title>σ_η</title>
<ellipse fill="none" stroke="black" cx="729.3" cy="-423.34" rx="69.09" ry="37.45"/>
<text text-anchor="middle" x="729.3" y="-434.64" font-family="Times-Roman" font-size="14.00">σ_η</text>
<text text-anchor="middle" x="729.3" y="-419.64" font-family="Times-Roman" font-size="14.00">~</text>
<text text-anchor="middle" x="729.3" y="-404.64" font-family="Times-Roman" font-size="14.00">HalfNormal</text>
</g>
<!-- σ_η&#45;&gt;η -->
<g id="edge6" class="edge">
<title>σ_η&#45;&gt;η</title>
<path fill="none" stroke="black" d="M691.05,-391.7C673.47,-377.62 652.59,-360.89 634.65,-346.51"/>
<polygon fill="black" stroke="black" points="636.63,-343.61 626.64,-340.09 632.25,-349.08 636.63,-343.61"/>
</g>
<!-- σ_d -->
<g id="node7" class="node">
<title>σ_d</title>
<ellipse fill="none" stroke="black" cx="457.3" cy="-423.34" rx="69.09" ry="37.45"/>
<text text-anchor="middle" x="457.3" y="-434.64" font-family="Times-Roman" font-size="14.00">σ_d</text>
<text text-anchor="middle" x="457.3" y="-419.64" font-family="Times-Roman" font-size="14.00">~</text>
<text text-anchor="middle" x="457.3" y="-404.64" font-family="Times-Roman" font-size="14.00">HalfNormal</text>
</g>
<!-- σ_d&#45;&gt;d -->
<g id="edge4" class="edge">
<title>σ_d&#45;&gt;d</title>
<path fill="none" stroke="black" d="M420.39,-391.41C404.01,-377.67 384.67,-361.47 367.88,-347.4"/>
<polygon fill="black" stroke="black" points="369.78,-344.42 359.87,-340.68 365.28,-349.79 369.78,-344.42"/>
</g>
<!-- μ -->
<g id="node11" class="node">
<title>μ</title>
<polygon fill="none" stroke="black" points="356.3,-216.93 244.3,-216.93 244.3,-163.93 356.3,-163.93 356.3,-216.93"/>
<text text-anchor="middle" x="300.3" y="-201.73" font-family="Times-Roman" font-size="14.00">μ</text>
<text text-anchor="middle" x="300.3" y="-186.73" font-family="Times-Roman" font-size="14.00">~</text>
<text text-anchor="middle" x="300.3" y="-171.73" font-family="Times-Roman" font-size="14.00">Deterministic</text>
</g>
<!-- h&#45;&gt;μ -->
<g id="edge9" class="edge">
<title>h&#45;&gt;μ</title>
<path fill="none" stroke="black" d="M230.26,-279.87C243.58,-263.04 259.98,-242.33 273.56,-225.18"/>
<polygon fill="black" stroke="black" points="276.51,-227.1 279.98,-217.08 271.03,-222.75 276.51,-227.1"/>
</g>
<!-- d&#45;&gt;μ -->
<g id="edge7" class="edge">
<title>d&#45;&gt;μ</title>
<path fill="none" stroke="black" d="M319.2,-275.39C315.76,-260.14 311.77,-242.41 308.35,-227.19"/>
<polygon fill="black" stroke="black" points="311.69,-226.1 306.08,-217.11 304.86,-227.63 311.69,-226.1"/>
</g>
<!-- η&#45;&gt;μ -->
<g id="edge8" class="edge">
<title>η&#45;&gt;μ</title>
<path fill="none" stroke="black" d="M550.69,-293.94C502.23,-274.1 422.52,-241.47 366.06,-218.35"/>
<polygon fill="black" stroke="black" points="367.09,-214.99 356.51,-214.44 364.44,-221.47 367.09,-214.99"/>
</g>
<!-- lfc -->
<g id="node12" class="node">
<title>lfc</title>
<ellipse fill="lightgrey" stroke="black" cx="296.3" cy="-76.48" rx="48.58" ry="37.45"/>
<text text-anchor="middle" x="296.3" y="-87.78" font-family="Times-Roman" font-size="14.00">lfc</text>
<text text-anchor="middle" x="296.3" y="-72.78" font-family="Times-Roman" font-size="14.00">~</text>
<text text-anchor="middle" x="296.3" y="-57.78" font-family="Times-Roman" font-size="14.00">Normal</text>
</g>
<!-- μ&#45;&gt;lfc -->
<g id="edge12" class="edge">
<title>μ&#45;&gt;lfc</title>
<path fill="none" stroke="black" d="M299.38,-163.75C298.96,-152.02 298.45,-137.75 297.97,-124.22"/>
<polygon fill="black" stroke="black" points="301.46,-123.94 297.6,-114.07 294.46,-124.19 301.46,-123.94"/>
</g>
<!-- σ&#45;&gt;lfc -->
<g id="edge11" class="edge">
<title>σ&#45;&gt;lfc</title>
<path fill="none" stroke="black" d="M144.46,-162.9C175.84,-145.24 216.93,-122.12 248.46,-104.39"/>
<polygon fill="black" stroke="black" points="250.49,-107.26 257.49,-99.31 247.06,-101.16 250.49,-107.26"/>
</g>
</g>
</svg>
