<?xml version="1.0" encoding="UTF-8" standalone="no"?>
<!DOCTYPE svg PUBLIC "-//W3C//DTD SVG 1.1//EN"
 "http://www.w3.org/Graphics/SVG/1.1/DTD/svg11.dtd">
<!-- Generated by graphviz version 2.47.0 (20210327.0129)
 -->
<!-- Pages: 1 -->
<svg width="807pt" height="469pt"
 viewBox="0.00 0.00 806.59 468.81" xmlns="http://www.w3.org/2000/svg" xmlns:xlink="http://www.w3.org/1999/xlink">
<g id="graph0" class="graph" transform="scale(1 1) rotate(0) translate(4 464.81)">
<polygon fill="white" stroke="transparent" points="-4,4 -4,-464.81 802.59,-464.81 802.59,4 -4,4"/>
<g id="clust1" class="cluster">
<title>cluster64</title>
<path fill="none" stroke="black" d="M426.3,-243.91C426.3,-243.91 516.3,-243.91 516.3,-243.91 522.3,-243.91 528.3,-249.91 528.3,-255.91 528.3,-255.91 528.3,-345.86 528.3,-345.86 528.3,-351.86 522.3,-357.86 516.3,-357.86 516.3,-357.86 426.3,-357.86 426.3,-357.86 420.3,-357.86 414.3,-351.86 414.3,-345.86 414.3,-345.86 414.3,-255.91 414.3,-255.91 414.3,-249.91 420.3,-243.91 426.3,-243.91"/>
<text text-anchor="middle" x="510.8" y="-251.71" font-family="Times-Roman" font-size="14.00">64</text>
</g>
<g id="clust2" class="cluster">
<title>cluster64 x 10</title>
<path fill="none" stroke="black" d="M548.3,-243.91C548.3,-243.91 638.3,-243.91 638.3,-243.91 644.3,-243.91 650.3,-249.91 650.3,-255.91 650.3,-255.91 650.3,-345.86 650.3,-345.86 650.3,-351.86 644.3,-357.86 638.3,-357.86 638.3,-357.86 548.3,-357.86 548.3,-357.86 542.3,-357.86 536.3,-351.86 536.3,-345.86 536.3,-345.86 536.3,-255.91 536.3,-255.91 536.3,-249.91 542.3,-243.91 548.3,-243.91"/>
<text text-anchor="middle" x="615.3" y="-251.71" font-family="Times-Roman" font-size="14.00">64 x 10</text>
</g>
<g id="clust3" class="cluster">
<title>cluster4</title>
<path fill="none" stroke="black" d="M160.3,-243.91C160.3,-243.91 250.3,-243.91 250.3,-243.91 256.3,-243.91 262.3,-249.91 262.3,-255.91 262.3,-255.91 262.3,-345.86 262.3,-345.86 262.3,-351.86 256.3,-357.86 250.3,-357.86 250.3,-357.86 160.3,-357.86 160.3,-357.86 154.3,-357.86 148.3,-351.86 148.3,-345.86 148.3,-345.86 148.3,-255.91 148.3,-255.91 148.3,-249.91 154.3,-243.91 160.3,-243.91"/>
<text text-anchor="middle" x="249.3" y="-251.71" font-family="Times-Roman" font-size="14.00">4</text>
</g>
<g id="clust4" class="cluster">
<title>cluster1,443</title>
<path fill="none" stroke="black" d="M446.3,-8C446.3,-8 550.3,-8 550.3,-8 556.3,-8 562.3,-14 562.3,-20 562.3,-20 562.3,-212.93 562.3,-212.93 562.3,-218.93 556.3,-224.93 550.3,-224.93 550.3,-224.93 446.3,-224.93 446.3,-224.93 440.3,-224.93 434.3,-218.93 434.3,-212.93 434.3,-212.93 434.3,-20 434.3,-20 434.3,-14 440.3,-8 446.3,-8"/>
<text text-anchor="middle" x="533.8" y="-15.8" font-family="Times-Roman" font-size="14.00">1,443</text>
</g>
<g id="clust5" class="cluster">
<title>cluster192</title>
<path fill="none" stroke="black" d="M636.3,-121.95C636.3,-121.95 766.3,-121.95 766.3,-121.95 772.3,-121.95 778.3,-127.95 778.3,-133.95 778.3,-133.95 778.3,-223.91 778.3,-223.91 778.3,-229.91 772.3,-235.91 766.3,-235.91 766.3,-235.91 636.3,-235.91 636.3,-235.91 630.3,-235.91 624.3,-229.91 624.3,-223.91 624.3,-223.91 624.3,-133.95 624.3,-133.95 624.3,-127.95 630.3,-121.95 636.3,-121.95"/>
<text text-anchor="middle" x="756.3" y="-129.75" font-family="Times-Roman" font-size="14.00">192</text>
</g>
<!-- σ_η -->
<g id="node1" class="node">
<title>σ_η</title>
<ellipse fill="none" stroke="black" cx="69.3" cy="-423.34" rx="69.09" ry="37.45"/>
<text text-anchor="middle" x="69.3" y="-434.64" font-family="Times-Roman" font-size="14.00">σ_η</text>
<text text-anchor="middle" x="69.3" y="-419.64" font-family="Times-Roman" font-size="14.00">~</text>
<text text-anchor="middle" x="69.3" y="-404.64" font-family="Times-Roman" font-size="14.00">HalfNormal</text>
</g>
<!-- η -->
<g id="node10" class="node">
<title>η</title>
<ellipse fill="none" stroke="black" cx="205.3" cy="-312.38" rx="48.58" ry="37.45"/>
<text text-anchor="middle" x="205.3" y="-323.68" font-family="Times-Roman" font-size="14.00">η</text>
<text text-anchor="middle" x="205.3" y="-308.68" font-family="Times-Roman" font-size="14.00">~</text>
<text text-anchor="middle" x="205.3" y="-293.68" font-family="Times-Roman" font-size="14.00">Normal</text>
</g>
<!-- σ_η&#45;&gt;η -->
<g id="edge6" class="edge">
<title>σ_η&#45;&gt;η</title>
<path fill="none" stroke="black" d="M107.54,-391.7C125.12,-377.62 146,-360.89 163.94,-346.51"/>
<polygon fill="black" stroke="black" points="166.34,-349.08 171.96,-340.09 161.97,-343.61 166.34,-349.08"/>
</g>
<!-- σ_h -->
<g id="node2" class="node">
<title>σ_h</title>
<ellipse fill="none" stroke="black" cx="341.3" cy="-423.34" rx="69.09" ry="37.45"/>
<text text-anchor="middle" x="341.3" y="-434.64" font-family="Times-Roman" font-size="14.00">σ_h</text>
<text text-anchor="middle" x="341.3" y="-419.64" font-family="Times-Roman" font-size="14.00">~</text>
<text text-anchor="middle" x="341.3" y="-404.64" font-family="Times-Roman" font-size="14.00">HalfNormal</text>
</g>
<!-- h -->
<g id="node8" class="node">
<title>h</title>
<ellipse fill="none" stroke="black" cx="471.3" cy="-312.38" rx="48.58" ry="37.45"/>
<text text-anchor="middle" x="471.3" y="-323.68" font-family="Times-Roman" font-size="14.00">h</text>
<text text-anchor="middle" x="471.3" y="-308.68" font-family="Times-Roman" font-size="14.00">~</text>
<text text-anchor="middle" x="471.3" y="-293.68" font-family="Times-Roman" font-size="14.00">Normal</text>
</g>
<!-- σ_h&#45;&gt;h -->
<g id="edge2" class="edge">
<title>σ_h&#45;&gt;h</title>
<path fill="none" stroke="black" d="M378.2,-391.41C394.59,-377.67 413.92,-361.47 430.71,-347.4"/>
<polygon fill="black" stroke="black" points="433.31,-349.79 438.73,-340.68 428.82,-344.42 433.31,-349.79"/>
</g>
<!-- μ_η -->
<g id="node3" class="node">
<title>μ_η</title>
<ellipse fill="none" stroke="black" cx="205.3" cy="-423.34" rx="48.58" ry="37.45"/>
<text text-anchor="middle" x="205.3" y="-434.64" font-family="Times-Roman" font-size="14.00">μ_η</text>
<text text-anchor="middle" x="205.3" y="-419.64" font-family="Times-Roman" font-size="14.00">~</text>
<text text-anchor="middle" x="205.3" y="-404.64" font-family="Times-Roman" font-size="14.00">Normal</text>
</g>
<!-- μ_η&#45;&gt;η -->
<g id="edge5" class="edge">
<title>μ_η&#45;&gt;η</title>
<path fill="none" stroke="black" d="M205.3,-385.75C205.3,-377.58 205.3,-368.8 205.3,-360.27"/>
<polygon fill="black" stroke="black" points="208.8,-360.06 205.3,-350.06 201.8,-360.06 208.8,-360.06"/>
</g>
<!-- μ_d -->
<g id="node4" class="node">
<title>μ_d</title>
<ellipse fill="none" stroke="black" cx="593.3" cy="-423.34" rx="48.58" ry="37.45"/>
<text text-anchor="middle" x="593.3" y="-434.64" font-family="Times-Roman" font-size="14.00">μ_d</text>
<text text-anchor="middle" x="593.3" y="-419.64" font-family="Times-Roman" font-size="14.00">~</text>
<text text-anchor="middle" x="593.3" y="-404.64" font-family="Times-Roman" font-size="14.00">Normal</text>
</g>
<!-- d -->
<g id="node9" class="node">
<title>d</title>
<ellipse fill="none" stroke="black" cx="593.3" cy="-312.38" rx="48.58" ry="37.45"/>
<text text-anchor="middle" x="593.3" y="-323.68" font-family="Times-Roman" font-size="14.00">d</text>
<text text-anchor="middle" x="593.3" y="-308.68" font-family="Times-Roman" font-size="14.00">~</text>
<text text-anchor="middle" x="593.3" y="-293.68" font-family="Times-Roman" font-size="14.00">Normal</text>
</g>
<!-- μ_d&#45;&gt;d -->
<g id="edge4" class="edge">
<title>μ_d&#45;&gt;d</title>
<path fill="none" stroke="black" d="M593.3,-385.75C593.3,-377.58 593.3,-368.8 593.3,-360.27"/>
<polygon fill="black" stroke="black" points="596.8,-360.06 593.3,-350.06 589.8,-360.06 596.8,-360.06"/>
</g>
<!-- μ_h -->
<g id="node5" class="node">
<title>μ_h</title>
<ellipse fill="none" stroke="black" cx="477.3" cy="-423.34" rx="48.58" ry="37.45"/>
<text text-anchor="middle" x="477.3" y="-434.64" font-family="Times-Roman" font-size="14.00">μ_h</text>
<text text-anchor="middle" x="477.3" y="-419.64" font-family="Times-Roman" font-size="14.00">~</text>
<text text-anchor="middle" x="477.3" y="-404.64" font-family="Times-Roman" font-size="14.00">Normal</text>
</g>
<!-- μ_h&#45;&gt;h -->
<g id="edge1" class="edge">
<title>μ_h&#45;&gt;h</title>
<path fill="none" stroke="black" d="M475.28,-385.75C474.83,-377.58 474.35,-368.8 473.88,-360.27"/>
<polygon fill="black" stroke="black" points="477.36,-359.85 473.32,-350.06 470.37,-360.23 477.36,-359.85"/>
</g>
<!-- σ_σ -->
<g id="node6" class="node">
<title>σ_σ</title>
<ellipse fill="none" stroke="black" cx="729.3" cy="-312.38" rx="69.09" ry="37.45"/>
<text text-anchor="middle" x="729.3" y="-323.68" font-family="Times-Roman" font-size="14.00">σ_σ</text>
<text text-anchor="middle" x="729.3" y="-308.68" font-family="Times-Roman" font-size="14.00">~</text>
<text text-anchor="middle" x="729.3" y="-293.68" font-family="Times-Roman" font-size="14.00">HalfNormal</text>
</g>
<!-- σ -->
<g id="node13" class="node">
<title>σ</title>
<ellipse fill="none" stroke="black" cx="701.3" cy="-190.43" rx="69.09" ry="37.45"/>
<text text-anchor="middle" x="701.3" y="-201.73" font-family="Times-Roman" font-size="14.00">σ</text>
<text text-anchor="middle" x="701.3" y="-186.73" font-family="Times-Roman" font-size="14.00">~</text>
<text text-anchor="middle" x="701.3" y="-171.73" font-family="Times-Roman" font-size="14.00">HalfNormal</text>
</g>
<!-- σ_σ&#45;&gt;σ -->
<g id="edge10" class="edge">
<title>σ_σ&#45;&gt;σ</title>
<path fill="none" stroke="black" d="M720.82,-275.07C718.1,-263.43 715.06,-250.38 712.19,-238.11"/>
<polygon fill="black" stroke="black" points="715.52,-236.98 709.84,-228.04 708.71,-238.57 715.52,-236.98"/>
</g>
<!-- σ_d -->
<g id="node7" class="node">
<title>σ_d</title>
<ellipse fill="none" stroke="black" cx="729.3" cy="-423.34" rx="69.09" ry="37.45"/>
<text text-anchor="middle" x="729.3" y="-434.64" font-family="Times-Roman" font-size="14.00">σ_d</text>
<text text-anchor="middle" x="729.3" y="-419.64" font-family="Times-Roman" font-size="14.00">~</text>
<text text-anchor="middle" x="729.3" y="-404.64" font-family="Times-Roman" font-size="14.00">HalfNormal</text>
</g>
<!-- σ_d&#45;&gt;d -->
<g id="edge3" class="edge">
<title>σ_d&#45;&gt;d</title>
<path fill="none" stroke="black" d="M691.05,-391.7C673.47,-377.62 652.59,-360.89 634.65,-346.51"/>
<polygon fill="black" stroke="black" points="636.63,-343.61 626.64,-340.09 632.25,-349.08 636.63,-343.61"/>
</g>
<!-- μ -->
<g id="node11" class="node">
<title>μ</title>
<polygon fill="none" stroke="black" points="554.3,-216.93 442.3,-216.93 442.3,-163.93 554.3,-163.93 554.3,-216.93"/>
<text text-anchor="middle" x="498.3" y="-201.73" font-family="Times-Roman" font-size="14.00">μ</text>
<text text-anchor="middle" x="498.3" y="-186.73" font-family="Times-Roman" font-size="14.00">~</text>
<text text-anchor="middle" x="498.3" y="-171.73" font-family="Times-Roman" font-size="14.00">Deterministic</text>
</g>
<!-- h&#45;&gt;μ -->
<g id="edge8" class="edge">
<title>h&#45;&gt;μ</title>
<path fill="none" stroke="black" d="M479.4,-275.39C482.83,-260.14 486.82,-242.41 490.25,-227.19"/>
<polygon fill="black" stroke="black" points="493.74,-227.63 492.52,-217.11 486.91,-226.1 493.74,-227.63"/>
</g>
<!-- d&#45;&gt;μ -->
<g id="edge7" class="edge">
<title>d&#45;&gt;μ</title>
<path fill="none" stroke="black" d="M568.34,-279.87C555.01,-263.04 538.61,-242.33 525.03,-225.18"/>
<polygon fill="black" stroke="black" points="527.57,-222.75 518.61,-217.08 522.08,-227.1 527.57,-222.75"/>
</g>
<!-- η&#45;&gt;μ -->
<g id="edge9" class="edge">
<title>η&#45;&gt;μ</title>
<path fill="none" stroke="black" d="M247.9,-293.94C296.36,-274.1 376.08,-241.47 432.53,-218.35"/>
<polygon fill="black" stroke="black" points="434.16,-221.47 442.08,-214.44 431.5,-214.99 434.16,-221.47"/>
</g>
<!-- lfc -->
<g id="node12" class="node">
<title>lfc</title>
<ellipse fill="lightgrey" stroke="black" cx="501.3" cy="-76.48" rx="48.58" ry="37.45"/>
<text text-anchor="middle" x="501.3" y="-87.78" font-family="Times-Roman" font-size="14.00">lfc</text>
<text text-anchor="middle" x="501.3" y="-72.78" font-family="Times-Roman" font-size="14.00">~</text>
<text text-anchor="middle" x="501.3" y="-57.78" font-family="Times-Roman" font-size="14.00">Normal</text>
</g>
<!-- μ&#45;&gt;lfc -->
<g id="edge11" class="edge">
<title>μ&#45;&gt;lfc</title>
<path fill="none" stroke="black" d="M498.98,-163.75C499.3,-152.02 499.68,-137.75 500.04,-124.22"/>
<polygon fill="black" stroke="black" points="503.55,-124.16 500.32,-114.07 496.55,-123.98 503.55,-124.16"/>
</g>
<!-- σ&#45;&gt;lfc -->
<g id="edge12" class="edge">
<title>σ&#45;&gt;lfc</title>
<path fill="none" stroke="black" d="M653.9,-162.9C622.36,-145.24 581.06,-122.12 549.38,-104.39"/>
<polygon fill="black" stroke="black" points="550.73,-101.14 540.3,-99.31 547.31,-107.25 550.73,-101.14"/>
</g>
</g>
</svg>
