<?xml version="1.0" encoding="UTF-8" standalone="no"?>
<!DOCTYPE svg PUBLIC "-//W3C//DTD SVG 1.1//EN"
 "http://www.w3.org/Graphics/SVG/1.1/DTD/svg11.dtd">
<!-- Generated by graphviz version 2.42.3 (20191010.1750)
 -->
<!-- Title: %3 Pages: 1 -->
<svg width="283pt" height="547pt"
 viewBox="0.00 0.00 282.72 546.81" xmlns="http://www.w3.org/2000/svg" xmlns:xlink="http://www.w3.org/1999/xlink">
<g id="graph0" class="graph" transform="scale(1 1) rotate(0) translate(4 542.81)">
<title>%3</title>
<polygon fill="white" stroke="transparent" points="-4,4 -4,-542.81 278.72,-542.81 278.72,4 -4,4"/>
<g id="clust1" class="cluster">
<title>cluster34,936</title>
<path fill="none" stroke="black" d="M20,-8C20,-8 104,-8 104,-8 110,-8 116,-14 116,-20 116,-20 116,-412.88 116,-412.88 116,-418.88 110,-424.88 104,-424.88 104,-424.88 20,-424.88 20,-424.88 14,-424.88 8,-418.88 8,-412.88 8,-412.88 8,-20 8,-20 8,-14 14,-8 20,-8"/>
<text text-anchor="middle" x="89" y="-15.8" font-family="Times,serif" font-size="14.00">34,936</text>
</g>
<g id="clust2" class="cluster">
<title>cluster99</title>
<path fill="none" stroke="black" d="M136,-321.91C136,-321.91 212,-321.91 212,-321.91 218,-321.91 224,-327.91 224,-333.91 224,-333.91 224,-423.86 224,-423.86 224,-429.86 218,-435.86 212,-435.86 212,-435.86 136,-435.86 136,-435.86 130,-435.86 124,-429.86 124,-423.86 124,-423.86 124,-333.91 124,-333.91 124,-327.91 130,-321.91 136,-321.91"/>
<text text-anchor="middle" x="209" y="-329.71" font-family="Times,serif" font-size="14.00">99</text>
</g>
<!-- lfc_observed -->
<g id="node1" class="node">
<title>lfc_observed</title>
<path fill="lightgrey" stroke="black" d="M93.5,-92C93.5,-92 32.5,-92 32.5,-92 26.5,-92 20.5,-86 20.5,-80 20.5,-80 20.5,-51 20.5,-51 20.5,-45 26.5,-39 32.5,-39 32.5,-39 93.5,-39 93.5,-39 99.5,-39 105.5,-45 105.5,-51 105.5,-51 105.5,-80 105.5,-80 105.5,-86 99.5,-92 93.5,-92"/>
<text text-anchor="middle" x="63" y="-76.8" font-family="Times,serif" font-size="14.00">lfc_observed</text>
<text text-anchor="middle" x="63" y="-61.8" font-family="Times,serif" font-size="14.00">~</text>
<text text-anchor="middle" x="63" y="-46.8" font-family="Times,serif" font-size="14.00">Data</text>
</g>
<!-- lfc -->
<g id="node2" class="node">
<title>lfc</title>
<ellipse fill="lightgrey" stroke="black" cx="63" cy="-165.48" rx="41.94" ry="37.45"/>
<text text-anchor="middle" x="63" y="-176.78" font-family="Times,serif" font-size="14.00">lfc</text>
<text text-anchor="middle" x="63" y="-161.78" font-family="Times,serif" font-size="14.00">~</text>
<text text-anchor="middle" x="63" y="-146.78" font-family="Times,serif" font-size="14.00">Normal</text>
</g>
<!-- lfc&#45;&gt;lfc_observed -->
<g id="edge1" class="edge">
<title>lfc&#45;&gt;lfc_observed</title>
<path fill="none" stroke="black" d="M63,-127.99C63,-119.58 63,-110.63 63,-102.25"/>
<polygon fill="black" stroke="black" points="66.5,-102.01 63,-92.01 59.5,-102.01 66.5,-102.01"/>
</g>
<!-- μ -->
<g id="node3" class="node">
<title>μ</title>
<polygon fill="none" stroke="black" points="107.5,-302.93 16.5,-302.93 16.5,-249.93 107.5,-249.93 107.5,-302.93"/>
<text text-anchor="middle" x="62" y="-287.73" font-family="Times,serif" font-size="14.00">μ</text>
<text text-anchor="middle" x="62" y="-272.73" font-family="Times,serif" font-size="14.00">~</text>
<text text-anchor="middle" x="62" y="-257.73" font-family="Times,serif" font-size="14.00">Deterministic</text>
</g>
<!-- μ&#45;&gt;lfc -->
<g id="edge7" class="edge">
<title>μ&#45;&gt;lfc</title>
<path fill="none" stroke="black" d="M62.23,-249.89C62.33,-238.98 62.45,-225.89 62.57,-213.35"/>
<polygon fill="black" stroke="black" points="66.07,-213.03 62.66,-203 59.07,-212.97 66.07,-213.03"/>
</g>
<!-- gene_idx -->
<g id="node4" class="node">
<title>gene_idx</title>
<path fill="lightgrey" stroke="black" d="M82.5,-416.88C82.5,-416.88 41.5,-416.88 41.5,-416.88 35.5,-416.88 29.5,-410.88 29.5,-404.88 29.5,-404.88 29.5,-375.88 29.5,-375.88 29.5,-369.88 35.5,-363.88 41.5,-363.88 41.5,-363.88 82.5,-363.88 82.5,-363.88 88.5,-363.88 94.5,-369.88 94.5,-375.88 94.5,-375.88 94.5,-404.88 94.5,-404.88 94.5,-410.88 88.5,-416.88 82.5,-416.88"/>
<text text-anchor="middle" x="62" y="-401.68" font-family="Times,serif" font-size="14.00">gene_idx</text>
<text text-anchor="middle" x="62" y="-386.68" font-family="Times,serif" font-size="14.00">~</text>
<text text-anchor="middle" x="62" y="-371.68" font-family="Times,serif" font-size="14.00">Data</text>
</g>
<!-- gene_idx&#45;&gt;μ -->
<g id="edge5" class="edge">
<title>gene_idx&#45;&gt;μ</title>
<path fill="none" stroke="black" d="M62,-363.7C62,-348.77 62,-329.72 62,-313.32"/>
<polygon fill="black" stroke="black" points="65.5,-312.99 62,-302.99 58.5,-312.99 65.5,-312.99"/>
</g>
<!-- σ -->
<g id="node5" class="node">
<title>σ</title>
<ellipse fill="none" stroke="black" cx="184" cy="-276.43" rx="58.88" ry="37.45"/>
<text text-anchor="middle" x="184" y="-287.73" font-family="Times,serif" font-size="14.00">σ</text>
<text text-anchor="middle" x="184" y="-272.73" font-family="Times,serif" font-size="14.00">~</text>
<text text-anchor="middle" x="184" y="-257.73" font-family="Times,serif" font-size="14.00">HalfNormal</text>
</g>
<!-- σ&#45;&gt;lfc -->
<g id="edge6" class="edge">
<title>σ&#45;&gt;lfc</title>
<path fill="none" stroke="black" d="M150.62,-245.37C134.87,-231.19 116.02,-214.22 99.86,-199.66"/>
<polygon fill="black" stroke="black" points="101.93,-196.82 92.16,-192.73 97.25,-202.03 101.93,-196.82"/>
</g>
<!-- σ_α -->
<g id="node6" class="node">
<title>σ_α</title>
<ellipse fill="none" stroke="black" cx="115" cy="-501.34" rx="57.97" ry="37.45"/>
<text text-anchor="middle" x="115" y="-512.64" font-family="Times,serif" font-size="14.00">σ_α</text>
<text text-anchor="middle" x="115" y="-497.64" font-family="Times,serif" font-size="14.00">~</text>
<text text-anchor="middle" x="115" y="-482.64" font-family="Times,serif" font-size="14.00">Exponential</text>
</g>
<!-- α_g -->
<g id="node8" class="node">
<title>α_g</title>
<ellipse fill="none" stroke="black" cx="174" cy="-390.38" rx="41.94" ry="37.45"/>
<text text-anchor="middle" x="174" y="-401.68" font-family="Times,serif" font-size="14.00">α_g</text>
<text text-anchor="middle" x="174" y="-386.68" font-family="Times,serif" font-size="14.00">~</text>
<text text-anchor="middle" x="174" y="-371.68" font-family="Times,serif" font-size="14.00">Normal</text>
</g>
<!-- σ_α&#45;&gt;α_g -->
<g id="edge2" class="edge">
<title>σ_α&#45;&gt;α_g</title>
<path fill="none" stroke="black" d="M133.83,-465.56C139.36,-455.35 145.47,-444.07 151.22,-433.46"/>
<polygon fill="black" stroke="black" points="154.47,-434.8 156.15,-424.34 148.31,-431.47 154.47,-434.8"/>
</g>
<!-- μ_α -->
<g id="node7" class="node">
<title>μ_α</title>
<ellipse fill="none" stroke="black" cx="233" cy="-501.34" rx="41.94" ry="37.45"/>
<text text-anchor="middle" x="233" y="-512.64" font-family="Times,serif" font-size="14.00">μ_α</text>
<text text-anchor="middle" x="233" y="-497.64" font-family="Times,serif" font-size="14.00">~</text>
<text text-anchor="middle" x="233" y="-482.64" font-family="Times,serif" font-size="14.00">Normal</text>
</g>
<!-- μ_α&#45;&gt;α_g -->
<g id="edge3" class="edge">
<title>μ_α&#45;&gt;α_g</title>
<path fill="none" stroke="black" d="M215.14,-467.35C209.36,-456.68 202.87,-444.69 196.78,-433.45"/>
<polygon fill="black" stroke="black" points="199.84,-431.76 192,-424.63 193.69,-435.09 199.84,-431.76"/>
</g>
<!-- α_g&#45;&gt;μ -->
<g id="edge4" class="edge">
<title>α_g&#45;&gt;μ</title>
<path fill="none" stroke="black" d="M151.81,-358.49C142.57,-346.52 131.36,-333.04 120,-321.91 115.7,-317.7 111.01,-313.52 106.21,-309.51"/>
<polygon fill="black" stroke="black" points="108.07,-306.51 98.09,-302.94 103.66,-311.95 108.07,-306.51"/>
</g>
</g>
</svg>
