<?xml version="1.0" encoding="UTF-8" standalone="no"?>
<!DOCTYPE svg PUBLIC "-//W3C//DTD SVG 1.1//EN"
 "http://www.w3.org/Graphics/SVG/1.1/DTD/svg11.dtd">
<!-- Generated by graphviz version 2.42.3 (20191010.1750)
 -->
<!-- Title: %3 Pages: 1 -->
<svg width="361pt" height="477pt"
 viewBox="0.00 0.00 361.41 476.81" xmlns="http://www.w3.org/2000/svg" xmlns:xlink="http://www.w3.org/1999/xlink">
<g id="graph0" class="graph" transform="scale(1 1) rotate(0) translate(4 472.81)">
<title>%3</title>
<polygon fill="white" stroke="transparent" points="-4,4 -4,-472.81 357.41,-472.81 357.41,4 -4,4"/>
<g id="clust1" class="cluster">
<title>cluster100</title>
<path fill="none" stroke="black" d="M121.72,-251.91C121.72,-251.91 332.72,-251.91 332.72,-251.91 338.72,-251.91 344.72,-257.91 344.72,-263.91 344.72,-263.91 344.72,-353.86 344.72,-353.86 344.72,-359.86 338.72,-365.86 332.72,-365.86 332.72,-365.86 121.72,-365.86 121.72,-365.86 115.72,-365.86 109.72,-359.86 109.72,-353.86 109.72,-353.86 109.72,-263.91 109.72,-263.91 109.72,-257.91 115.72,-251.91 121.72,-251.91"/>
<text text-anchor="middle" x="326.22" y="-259.71" font-family="Times,serif" font-size="14.00">100</text>
</g>
<g id="clust2" class="cluster">
<title>cluster395</title>
<path fill="none" stroke="black" d="M121.72,-129.95C121.72,-129.95 197.72,-129.95 197.72,-129.95 203.72,-129.95 209.72,-135.95 209.72,-141.95 209.72,-141.95 209.72,-231.91 209.72,-231.91 209.72,-237.91 203.72,-243.91 197.72,-243.91 197.72,-243.91 121.72,-243.91 121.72,-243.91 115.72,-243.91 109.72,-237.91 109.72,-231.91 109.72,-231.91 109.72,-141.95 109.72,-141.95 109.72,-135.95 115.72,-129.95 121.72,-129.95"/>
<text text-anchor="middle" x="191.22" y="-137.75" font-family="Times,serif" font-size="14.00">395</text>
</g>
<g id="clust3" class="cluster">
<title>cluster34,760</title>
<path fill="none" stroke="black" d="M180.72,-8C180.72,-8 256.72,-8 256.72,-8 262.72,-8 268.72,-14 268.72,-20 268.72,-20 268.72,-109.95 268.72,-109.95 268.72,-115.95 262.72,-121.95 256.72,-121.95 256.72,-121.95 180.72,-121.95 180.72,-121.95 174.72,-121.95 168.72,-115.95 168.72,-109.95 168.72,-109.95 168.72,-20 168.72,-20 168.72,-14 174.72,-8 180.72,-8"/>
<text text-anchor="middle" x="241.72" y="-15.8" font-family="Times,serif" font-size="14.00">34,760</text>
</g>
<!-- μ_g -->
<g id="node1" class="node">
<title>μ_g</title>
<ellipse fill="none" stroke="black" cx="41.72" cy="-431.34" rx="41.94" ry="37.45"/>
<text text-anchor="middle" x="41.72" y="-442.64" font-family="Times,serif" font-size="14.00">μ_g</text>
<text text-anchor="middle" x="41.72" y="-427.64" font-family="Times,serif" font-size="14.00">~</text>
<text text-anchor="middle" x="41.72" y="-412.64" font-family="Times,serif" font-size="14.00">Normal</text>
</g>
<!-- μ_α -->
<g id="node5" class="node">
<title>μ_α</title>
<ellipse fill="none" stroke="black" cx="159.72" cy="-320.38" rx="41.94" ry="37.45"/>
<text text-anchor="middle" x="159.72" y="-331.68" font-family="Times,serif" font-size="14.00">μ_α</text>
<text text-anchor="middle" x="159.72" y="-316.68" font-family="Times,serif" font-size="14.00">~</text>
<text text-anchor="middle" x="159.72" y="-301.68" font-family="Times,serif" font-size="14.00">Normal</text>
</g>
<!-- μ_g&#45;&gt;μ_α -->
<g id="edge2" class="edge">
<title>μ_g&#45;&gt;μ_α</title>
<path fill="none" stroke="black" d="M70.28,-403.96C86.25,-389.22 106.32,-370.69 123.4,-354.92"/>
<polygon fill="black" stroke="black" points="126.04,-357.25 131.01,-347.89 121.29,-352.1 126.04,-357.25"/>
</g>
<!-- σ_g -->
<g id="node2" class="node">
<title>σ_g</title>
<ellipse fill="none" stroke="black" cx="159.72" cy="-431.34" rx="58.88" ry="37.45"/>
<text text-anchor="middle" x="159.72" y="-442.64" font-family="Times,serif" font-size="14.00">σ_g</text>
<text text-anchor="middle" x="159.72" y="-427.64" font-family="Times,serif" font-size="14.00">~</text>
<text text-anchor="middle" x="159.72" y="-412.64" font-family="Times,serif" font-size="14.00">HalfNormal</text>
</g>
<!-- σ_g&#45;&gt;μ_α -->
<g id="edge1" class="edge">
<title>σ_g&#45;&gt;μ_α</title>
<path fill="none" stroke="black" d="M159.72,-393.75C159.72,-385.58 159.72,-376.8 159.72,-368.27"/>
<polygon fill="black" stroke="black" points="163.22,-368.06 159.72,-358.06 156.22,-368.06 163.22,-368.06"/>
</g>
<!-- σ_σ_α -->
<g id="node3" class="node">
<title>σ_σ_α</title>
<ellipse fill="none" stroke="black" cx="294.72" cy="-431.34" rx="58.88" ry="37.45"/>
<text text-anchor="middle" x="294.72" y="-442.64" font-family="Times,serif" font-size="14.00">σ_σ_α</text>
<text text-anchor="middle" x="294.72" y="-427.64" font-family="Times,serif" font-size="14.00">~</text>
<text text-anchor="middle" x="294.72" y="-412.64" font-family="Times,serif" font-size="14.00">HalfNormal</text>
</g>
<!-- σ_α -->
<g id="node6" class="node">
<title>σ_α</title>
<ellipse fill="none" stroke="black" cx="277.72" cy="-320.38" rx="58.88" ry="37.45"/>
<text text-anchor="middle" x="277.72" y="-331.68" font-family="Times,serif" font-size="14.00">σ_α</text>
<text text-anchor="middle" x="277.72" y="-316.68" font-family="Times,serif" font-size="14.00">~</text>
<text text-anchor="middle" x="277.72" y="-301.68" font-family="Times,serif" font-size="14.00">HalfNormal</text>
</g>
<!-- σ_σ_α&#45;&gt;σ_α -->
<g id="edge3" class="edge">
<title>σ_σ_α&#45;&gt;σ_α</title>
<path fill="none" stroke="black" d="M289.01,-393.75C287.72,-385.49 286.34,-376.61 284.99,-367.99"/>
<polygon fill="black" stroke="black" points="288.44,-367.4 283.44,-358.06 281.52,-368.48 288.44,-367.4"/>
</g>
<!-- σ -->
<g id="node4" class="node">
<title>σ</title>
<ellipse fill="none" stroke="black" cx="277.72" cy="-198.43" rx="58.88" ry="37.45"/>
<text text-anchor="middle" x="277.72" y="-209.73" font-family="Times,serif" font-size="14.00">σ</text>
<text text-anchor="middle" x="277.72" y="-194.73" font-family="Times,serif" font-size="14.00">~</text>
<text text-anchor="middle" x="277.72" y="-179.73" font-family="Times,serif" font-size="14.00">HalfNormal</text>
</g>
<!-- lfc -->
<g id="node8" class="node">
<title>lfc</title>
<ellipse fill="lightgrey" stroke="black" cx="218.72" cy="-76.48" rx="41.94" ry="37.45"/>
<text text-anchor="middle" x="218.72" y="-87.78" font-family="Times,serif" font-size="14.00">lfc</text>
<text text-anchor="middle" x="218.72" y="-72.78" font-family="Times,serif" font-size="14.00">~</text>
<text text-anchor="middle" x="218.72" y="-57.78" font-family="Times,serif" font-size="14.00">Normal</text>
</g>
<!-- σ&#45;&gt;lfc -->
<g id="edge7" class="edge">
<title>σ&#45;&gt;lfc</title>
<path fill="none" stroke="black" d="M260.5,-162.41C254.03,-149.26 246.6,-134.17 239.82,-120.39"/>
<polygon fill="black" stroke="black" points="242.81,-118.52 235.25,-111.09 236.53,-121.61 242.81,-118.52"/>
</g>
<!-- α_s -->
<g id="node7" class="node">
<title>α_s</title>
<ellipse fill="none" stroke="black" cx="159.72" cy="-198.43" rx="41.94" ry="37.45"/>
<text text-anchor="middle" x="159.72" y="-209.73" font-family="Times,serif" font-size="14.00">α_s</text>
<text text-anchor="middle" x="159.72" y="-194.73" font-family="Times,serif" font-size="14.00">~</text>
<text text-anchor="middle" x="159.72" y="-179.73" font-family="Times,serif" font-size="14.00">Normal</text>
</g>
<!-- μ_α&#45;&gt;α_s -->
<g id="edge4" class="edge">
<title>μ_α&#45;&gt;α_s</title>
<path fill="none" stroke="black" d="M159.72,-282.74C159.72,-271.34 159.72,-258.6 159.72,-246.58"/>
<polygon fill="black" stroke="black" points="163.22,-246.26 159.72,-236.26 156.22,-246.26 163.22,-246.26"/>
</g>
<!-- σ_α&#45;&gt;α_s -->
<g id="edge5" class="edge">
<title>σ_α&#45;&gt;α_s</title>
<path fill="none" stroke="black" d="M247.02,-288.18C230.92,-271.81 211.12,-251.68 194.45,-234.74"/>
<polygon fill="black" stroke="black" points="196.55,-231.88 187.04,-227.2 191.56,-236.79 196.55,-231.88"/>
</g>
<!-- α_s&#45;&gt;lfc -->
<g id="edge6" class="edge">
<title>α_s&#45;&gt;lfc</title>
<path fill="none" stroke="black" d="M176.31,-163.7C182.97,-150.17 190.71,-134.42 197.75,-120.11"/>
<polygon fill="black" stroke="black" points="200.98,-121.47 202.25,-110.96 194.7,-118.38 200.98,-121.47"/>
</g>
</g>
</svg>
