<?xml version="1.0" encoding="UTF-8" standalone="no"?>
<!DOCTYPE svg PUBLIC "-//W3C//DTD SVG 1.1//EN"
 "http://www.w3.org/Graphics/SVG/1.1/DTD/svg11.dtd">
<!-- Generated by graphviz version 2.42.3 (20191010.1750)
 -->
<!-- Title: %3 Pages: 1 -->
<svg width="569pt" height="661pt"
 viewBox="0.00 0.00 568.98 660.77" xmlns="http://www.w3.org/2000/svg" xmlns:xlink="http://www.w3.org/1999/xlink">
<g id="graph0" class="graph" transform="scale(1 1) rotate(0) translate(4 656.77)">
<title>%3</title>
<polygon fill="white" stroke="transparent" points="-4,4 -4,-656.77 564.98,-656.77 564.98,4 -4,4"/>
<g id="clust1" class="cluster">
<title>cluster34,936</title>
<path fill="none" stroke="black" d="M20,-8C20,-8 104,-8 104,-8 110,-8 116,-14 116,-20 116,-20 116,-412.88 116,-412.88 116,-418.88 110,-424.88 104,-424.88 104,-424.88 20,-424.88 20,-424.88 14,-424.88 8,-418.88 8,-412.88 8,-412.88 8,-20 8,-20 8,-14 14,-8 20,-8"/>
<text text-anchor="middle" x="89" y="-15.8" font-family="Times,serif" font-size="14.00">34,936</text>
</g>
<g id="clust2" class="cluster">
<title>cluster396</title>
<path fill="none" stroke="black" d="M136,-321.91C136,-321.91 246,-321.91 246,-321.91 252,-321.91 258,-327.91 258,-333.91 258,-333.91 258,-526.84 258,-526.84 258,-532.84 252,-538.84 246,-538.84 246,-538.84 136,-538.84 136,-538.84 130,-538.84 124,-532.84 124,-526.84 124,-526.84 124,-333.91 124,-333.91 124,-327.91 130,-321.91 136,-321.91"/>
<text text-anchor="middle" x="239.5" y="-329.71" font-family="Times,serif" font-size="14.00">396</text>
</g>
<g id="clust3" class="cluster">
<title>cluster99</title>
<path fill="none" stroke="black" d="M406,-435.86C406,-435.86 482,-435.86 482,-435.86 488,-435.86 494,-441.86 494,-447.86 494,-447.86 494,-537.81 494,-537.81 494,-543.81 488,-549.81 482,-549.81 482,-549.81 406,-549.81 406,-549.81 400,-549.81 394,-543.81 394,-537.81 394,-537.81 394,-447.86 394,-447.86 394,-441.86 400,-435.86 406,-435.86"/>
<text text-anchor="middle" x="479" y="-443.66" font-family="Times,serif" font-size="14.00">99</text>
</g>
<!-- sgrna_idx -->
<g id="node1" class="node">
<title>sgrna_idx</title>
<path fill="lightgrey" stroke="black" d="M84.5,-416.88C84.5,-416.88 39.5,-416.88 39.5,-416.88 33.5,-416.88 27.5,-410.88 27.5,-404.88 27.5,-404.88 27.5,-375.88 27.5,-375.88 27.5,-369.88 33.5,-363.88 39.5,-363.88 39.5,-363.88 84.5,-363.88 84.5,-363.88 90.5,-363.88 96.5,-369.88 96.5,-375.88 96.5,-375.88 96.5,-404.88 96.5,-404.88 96.5,-410.88 90.5,-416.88 84.5,-416.88"/>
<text text-anchor="middle" x="62" y="-401.68" font-family="Times,serif" font-size="14.00">sgrna_idx</text>
<text text-anchor="middle" x="62" y="-386.68" font-family="Times,serif" font-size="14.00">~</text>
<text text-anchor="middle" x="62" y="-371.68" font-family="Times,serif" font-size="14.00">Data</text>
</g>
<!-- μ -->
<g id="node2" class="node">
<title>μ</title>
<polygon fill="none" stroke="black" points="107.5,-302.93 16.5,-302.93 16.5,-249.93 107.5,-249.93 107.5,-302.93"/>
<text text-anchor="middle" x="62" y="-287.73" font-family="Times,serif" font-size="14.00">μ</text>
<text text-anchor="middle" x="62" y="-272.73" font-family="Times,serif" font-size="14.00">~</text>
<text text-anchor="middle" x="62" y="-257.73" font-family="Times,serif" font-size="14.00">Deterministic</text>
</g>
<!-- sgrna_idx&#45;&gt;μ -->
<g id="edge7" class="edge">
<title>sgrna_idx&#45;&gt;μ</title>
<path fill="none" stroke="black" d="M62,-363.7C62,-348.77 62,-329.72 62,-313.32"/>
<polygon fill="black" stroke="black" points="65.5,-312.99 62,-302.99 58.5,-312.99 65.5,-312.99"/>
</g>
<!-- lfc -->
<g id="node3" class="node">
<title>lfc</title>
<ellipse fill="lightgrey" stroke="black" cx="63" cy="-165.48" rx="41.94" ry="37.45"/>
<text text-anchor="middle" x="63" y="-176.78" font-family="Times,serif" font-size="14.00">lfc</text>
<text text-anchor="middle" x="63" y="-161.78" font-family="Times,serif" font-size="14.00">~</text>
<text text-anchor="middle" x="63" y="-146.78" font-family="Times,serif" font-size="14.00">Normal</text>
</g>
<!-- μ&#45;&gt;lfc -->
<g id="edge10" class="edge">
<title>μ&#45;&gt;lfc</title>
<path fill="none" stroke="black" d="M62.23,-249.89C62.33,-238.98 62.45,-225.89 62.57,-213.35"/>
<polygon fill="black" stroke="black" points="66.07,-213.03 62.66,-203 59.07,-212.97 66.07,-213.03"/>
</g>
<!-- lfc_observed -->
<g id="node4" class="node">
<title>lfc_observed</title>
<path fill="lightgrey" stroke="black" d="M93.5,-92C93.5,-92 32.5,-92 32.5,-92 26.5,-92 20.5,-86 20.5,-80 20.5,-80 20.5,-51 20.5,-51 20.5,-45 26.5,-39 32.5,-39 32.5,-39 93.5,-39 93.5,-39 99.5,-39 105.5,-45 105.5,-51 105.5,-51 105.5,-80 105.5,-80 105.5,-86 99.5,-92 93.5,-92"/>
<text text-anchor="middle" x="63" y="-76.8" font-family="Times,serif" font-size="14.00">lfc_observed</text>
<text text-anchor="middle" x="63" y="-61.8" font-family="Times,serif" font-size="14.00">~</text>
<text text-anchor="middle" x="63" y="-46.8" font-family="Times,serif" font-size="14.00">Data</text>
</g>
<!-- lfc&#45;&gt;lfc_observed -->
<g id="edge1" class="edge">
<title>lfc&#45;&gt;lfc_observed</title>
<path fill="none" stroke="black" d="M63,-127.99C63,-119.58 63,-110.63 63,-102.25"/>
<polygon fill="black" stroke="black" points="66.5,-102.01 63,-92.01 59.5,-102.01 66.5,-102.01"/>
</g>
<!-- α_g -->
<g id="node5" class="node">
<title>α_g</title>
<ellipse fill="none" stroke="black" cx="199" cy="-390.38" rx="41.94" ry="37.45"/>
<text text-anchor="middle" x="199" y="-401.68" font-family="Times,serif" font-size="14.00">α_g</text>
<text text-anchor="middle" x="199" y="-386.68" font-family="Times,serif" font-size="14.00">~</text>
<text text-anchor="middle" x="199" y="-371.68" font-family="Times,serif" font-size="14.00">Normal</text>
</g>
<!-- α_g&#45;&gt;μ -->
<g id="edge8" class="edge">
<title>α_g&#45;&gt;μ</title>
<path fill="none" stroke="black" d="M169.67,-363.7C154.93,-350.94 136.68,-335.41 120,-321.91 114.83,-317.72 109.35,-313.39 103.9,-309.14"/>
<polygon fill="black" stroke="black" points="106.02,-306.36 95.97,-303 101.74,-311.89 106.02,-306.36"/>
</g>
<!-- sgrna_to_gene_idx -->
<g id="node6" class="node">
<title>sgrna_to_gene_idx</title>
<path fill="lightgrey" stroke="black" d="M238,-530.84C238,-530.84 144,-530.84 144,-530.84 138,-530.84 132,-524.84 132,-518.84 132,-518.84 132,-489.84 132,-489.84 132,-483.84 138,-477.84 144,-477.84 144,-477.84 238,-477.84 238,-477.84 244,-477.84 250,-483.84 250,-489.84 250,-489.84 250,-518.84 250,-518.84 250,-524.84 244,-530.84 238,-530.84"/>
<text text-anchor="middle" x="191" y="-515.64" font-family="Times,serif" font-size="14.00">sgrna_to_gene_idx</text>
<text text-anchor="middle" x="191" y="-500.64" font-family="Times,serif" font-size="14.00">~</text>
<text text-anchor="middle" x="191" y="-485.64" font-family="Times,serif" font-size="14.00">Data</text>
</g>
<!-- sgrna_to_gene_idx&#45;&gt;α_g -->
<g id="edge4" class="edge">
<title>sgrna_to_gene_idx&#45;&gt;α_g</title>
<path fill="none" stroke="black" d="M192.84,-477.65C193.67,-465.92 194.69,-451.66 195.66,-438.13"/>
<polygon fill="black" stroke="black" points="199.16,-438.2 196.38,-427.98 192.18,-437.71 199.16,-438.2"/>
</g>
<!-- μ_g -->
<g id="node7" class="node">
<title>μ_g</title>
<ellipse fill="none" stroke="black" cx="385" cy="-615.29" rx="41.94" ry="37.45"/>
<text text-anchor="middle" x="385" y="-626.59" font-family="Times,serif" font-size="14.00">μ_g</text>
<text text-anchor="middle" x="385" y="-611.59" font-family="Times,serif" font-size="14.00">~</text>
<text text-anchor="middle" x="385" y="-596.59" font-family="Times,serif" font-size="14.00">Normal</text>
</g>
<!-- μ_α -->
<g id="node11" class="node">
<title>μ_α</title>
<ellipse fill="none" stroke="black" cx="444" cy="-504.34" rx="41.94" ry="37.45"/>
<text text-anchor="middle" x="444" y="-515.64" font-family="Times,serif" font-size="14.00">μ_α</text>
<text text-anchor="middle" x="444" y="-500.64" font-family="Times,serif" font-size="14.00">~</text>
<text text-anchor="middle" x="444" y="-485.64" font-family="Times,serif" font-size="14.00">Normal</text>
</g>
<!-- μ_g&#45;&gt;μ_α -->
<g id="edge3" class="edge">
<title>μ_g&#45;&gt;μ_α</title>
<path fill="none" stroke="black" d="M402.86,-581.3C408.64,-570.63 415.13,-558.64 421.22,-547.4"/>
<polygon fill="black" stroke="black" points="424.31,-549.05 426,-538.59 418.16,-545.71 424.31,-549.05"/>
</g>
<!-- σ_g -->
<g id="node8" class="node">
<title>σ_g</title>
<ellipse fill="none" stroke="black" cx="503" cy="-615.29" rx="57.97" ry="37.45"/>
<text text-anchor="middle" x="503" y="-626.59" font-family="Times,serif" font-size="14.00">σ_g</text>
<text text-anchor="middle" x="503" y="-611.59" font-family="Times,serif" font-size="14.00">~</text>
<text text-anchor="middle" x="503" y="-596.59" font-family="Times,serif" font-size="14.00">Exponential</text>
</g>
<!-- σ_g&#45;&gt;μ_α -->
<g id="edge2" class="edge">
<title>σ_g&#45;&gt;μ_α</title>
<path fill="none" stroke="black" d="M484.17,-579.52C478.64,-569.31 472.53,-558.03 466.78,-547.41"/>
<polygon fill="black" stroke="black" points="469.69,-545.42 461.85,-538.3 463.53,-548.76 469.69,-545.42"/>
</g>
<!-- σ -->
<g id="node9" class="node">
<title>σ</title>
<ellipse fill="none" stroke="black" cx="184" cy="-276.43" rx="58.88" ry="37.45"/>
<text text-anchor="middle" x="184" y="-287.73" font-family="Times,serif" font-size="14.00">σ</text>
<text text-anchor="middle" x="184" y="-272.73" font-family="Times,serif" font-size="14.00">~</text>
<text text-anchor="middle" x="184" y="-257.73" font-family="Times,serif" font-size="14.00">HalfNormal</text>
</g>
<!-- σ&#45;&gt;lfc -->
<g id="edge9" class="edge">
<title>σ&#45;&gt;lfc</title>
<path fill="none" stroke="black" d="M150.62,-245.37C134.87,-231.19 116.02,-214.22 99.86,-199.66"/>
<polygon fill="black" stroke="black" points="101.93,-196.82 92.16,-192.73 97.25,-202.03 101.93,-196.82"/>
</g>
<!-- σ_α -->
<g id="node10" class="node">
<title>σ_α</title>
<ellipse fill="none" stroke="black" cx="326" cy="-504.34" rx="57.97" ry="37.45"/>
<text text-anchor="middle" x="326" y="-515.64" font-family="Times,serif" font-size="14.00">σ_α</text>
<text text-anchor="middle" x="326" y="-500.64" font-family="Times,serif" font-size="14.00">~</text>
<text text-anchor="middle" x="326" y="-485.64" font-family="Times,serif" font-size="14.00">Exponential</text>
</g>
<!-- σ_α&#45;&gt;α_g -->
<g id="edge5" class="edge">
<title>σ_α&#45;&gt;α_g</title>
<path fill="none" stroke="black" d="M297.9,-471.16C287.14,-459.54 274.45,-446.64 262,-435.86 255.38,-430.13 248.03,-424.42 240.75,-419.11"/>
<polygon fill="black" stroke="black" points="242.47,-416.03 232.3,-413.06 238.4,-421.72 242.47,-416.03"/>
</g>
<!-- μ_α&#45;&gt;α_g -->
<g id="edge6" class="edge">
<title>μ_α&#45;&gt;α_g</title>
<path fill="none" stroke="black" d="M425.92,-470.4C417.47,-457.83 406.31,-444.48 393,-435.86 350.21,-408.16 292.33,-397.62 250.95,-393.65"/>
<polygon fill="black" stroke="black" points="251.07,-390.15 240.8,-392.78 250.47,-397.13 251.07,-390.15"/>
</g>
</g>
</svg>
