<?xml version="1.0" encoding="UTF-8" standalone="no"?>
<!DOCTYPE svg PUBLIC "-//W3C//DTD SVG 1.1//EN"
 "http://www.w3.org/Graphics/SVG/1.1/DTD/svg11.dtd">
<!-- Generated by graphviz version 2.42.3 (20191010.1750)
 -->
<!-- Title: %3 Pages: 1 -->
<svg width="580pt" height="580pt"
 viewBox="0.00 0.00 580.44 579.77" xmlns="http://www.w3.org/2000/svg" xmlns:xlink="http://www.w3.org/1999/xlink">
<g id="graph0" class="graph" transform="scale(1 1) rotate(0) translate(4 575.77)">
<title>%3</title>
<polygon fill="white" stroke="transparent" points="-4,4 -4,-575.77 576.44,-575.77 576.44,4 -4,4"/>
<g id="clust1" class="cluster">
<title>cluster100</title>
<path fill="none" stroke="black" d="M121.72,-354.86C121.72,-354.86 332.72,-354.86 332.72,-354.86 338.72,-354.86 344.72,-360.86 344.72,-366.86 344.72,-366.86 344.72,-456.81 344.72,-456.81 344.72,-462.81 338.72,-468.81 332.72,-468.81 332.72,-468.81 121.72,-468.81 121.72,-468.81 115.72,-468.81 109.72,-462.81 109.72,-456.81 109.72,-456.81 109.72,-366.86 109.72,-366.86 109.72,-360.86 115.72,-354.86 121.72,-354.86"/>
<text text-anchor="middle" x="326.22" y="-362.66" font-family="Times,serif" font-size="14.00">100</text>
</g>
<g id="clust2" class="cluster">
<title>cluster36</title>
<path fill="none" stroke="black" d="M374.72,-232.91C374.72,-232.91 450.72,-232.91 450.72,-232.91 456.72,-232.91 462.72,-238.91 462.72,-244.91 462.72,-244.91 462.72,-334.86 462.72,-334.86 462.72,-340.86 456.72,-346.86 450.72,-346.86 450.72,-346.86 374.72,-346.86 374.72,-346.86 368.72,-346.86 362.72,-340.86 362.72,-334.86 362.72,-334.86 362.72,-244.91 362.72,-244.91 362.72,-238.91 368.72,-232.91 374.72,-232.91"/>
<text text-anchor="middle" x="447.72" y="-240.71" font-family="Times,serif" font-size="14.00">36</text>
</g>
<g id="clust3" class="cluster">
<title>cluster395</title>
<path fill="none" stroke="black" d="M239.72,-232.91C239.72,-232.91 315.72,-232.91 315.72,-232.91 321.72,-232.91 327.72,-238.91 327.72,-244.91 327.72,-244.91 327.72,-334.86 327.72,-334.86 327.72,-340.86 321.72,-346.86 315.72,-346.86 315.72,-346.86 239.72,-346.86 239.72,-346.86 233.72,-346.86 227.72,-340.86 227.72,-334.86 227.72,-334.86 227.72,-244.91 227.72,-244.91 227.72,-238.91 233.72,-232.91 239.72,-232.91"/>
<text text-anchor="middle" x="309.22" y="-240.71" font-family="Times,serif" font-size="14.00">395</text>
</g>
<g id="clust4" class="cluster">
<title>cluster34,760</title>
<path fill="none" stroke="black" d="M300.72,-8C300.72,-8 384.72,-8 384.72,-8 390.72,-8 396.72,-14 396.72,-20 396.72,-20 396.72,-209.93 396.72,-209.93 396.72,-215.93 390.72,-221.93 384.72,-221.93 384.72,-221.93 300.72,-221.93 300.72,-221.93 294.72,-221.93 288.72,-215.93 288.72,-209.93 288.72,-209.93 288.72,-20 288.72,-20 288.72,-14 294.72,-8 300.72,-8"/>
<text text-anchor="middle" x="369.72" y="-15.8" font-family="Times,serif" font-size="14.00">34,760</text>
</g>
<!-- μ_g -->
<g id="node1" class="node">
<title>μ_g</title>
<ellipse fill="none" stroke="black" cx="41.72" cy="-534.29" rx="41.94" ry="37.45"/>
<text text-anchor="middle" x="41.72" y="-545.59" font-family="Times,serif" font-size="14.00">μ_g</text>
<text text-anchor="middle" x="41.72" y="-530.59" font-family="Times,serif" font-size="14.00">~</text>
<text text-anchor="middle" x="41.72" y="-515.59" font-family="Times,serif" font-size="14.00">Normal</text>
</g>
<!-- μ_α -->
<g id="node8" class="node">
<title>μ_α</title>
<ellipse fill="none" stroke="black" cx="159.72" cy="-423.34" rx="41.94" ry="37.45"/>
<text text-anchor="middle" x="159.72" y="-434.64" font-family="Times,serif" font-size="14.00">μ_α</text>
<text text-anchor="middle" x="159.72" y="-419.64" font-family="Times,serif" font-size="14.00">~</text>
<text text-anchor="middle" x="159.72" y="-404.64" font-family="Times,serif" font-size="14.00">Normal</text>
</g>
<!-- μ_g&#45;&gt;μ_α -->
<g id="edge1" class="edge">
<title>μ_g&#45;&gt;μ_α</title>
<path fill="none" stroke="black" d="M70.28,-506.92C86.25,-492.17 106.32,-473.64 123.4,-457.87"/>
<polygon fill="black" stroke="black" points="126.04,-460.2 131.01,-450.85 121.29,-455.06 126.04,-460.2"/>
</g>
<!-- σ_β -->
<g id="node2" class="node">
<title>σ_β</title>
<ellipse fill="none" stroke="black" cx="412.72" cy="-423.34" rx="58.88" ry="37.45"/>
<text text-anchor="middle" x="412.72" y="-434.64" font-family="Times,serif" font-size="14.00">σ_β</text>
<text text-anchor="middle" x="412.72" y="-419.64" font-family="Times,serif" font-size="14.00">~</text>
<text text-anchor="middle" x="412.72" y="-404.64" font-family="Times,serif" font-size="14.00">HalfNormal</text>
</g>
<!-- β_c -->
<g id="node9" class="node">
<title>β_c</title>
<ellipse fill="none" stroke="black" cx="412.72" cy="-301.38" rx="41.94" ry="37.45"/>
<text text-anchor="middle" x="412.72" y="-312.68" font-family="Times,serif" font-size="14.00">β_c</text>
<text text-anchor="middle" x="412.72" y="-297.68" font-family="Times,serif" font-size="14.00">~</text>
<text text-anchor="middle" x="412.72" y="-282.68" font-family="Times,serif" font-size="14.00">Normal</text>
</g>
<!-- σ_β&#45;&gt;β_c -->
<g id="edge5" class="edge">
<title>σ_β&#45;&gt;β_c</title>
<path fill="none" stroke="black" d="M412.72,-385.69C412.72,-374.29 412.72,-361.55 412.72,-349.54"/>
<polygon fill="black" stroke="black" points="416.22,-349.21 412.72,-339.21 409.22,-349.21 416.22,-349.21"/>
</g>
<!-- σ -->
<g id="node3" class="node">
<title>σ</title>
<ellipse fill="none" stroke="black" cx="464.72" cy="-187.43" rx="58.88" ry="37.45"/>
<text text-anchor="middle" x="464.72" y="-198.73" font-family="Times,serif" font-size="14.00">σ</text>
<text text-anchor="middle" x="464.72" y="-183.73" font-family="Times,serif" font-size="14.00">~</text>
<text text-anchor="middle" x="464.72" y="-168.73" font-family="Times,serif" font-size="14.00">HalfNormal</text>
</g>
<!-- lfc -->
<g id="node12" class="node">
<title>lfc</title>
<ellipse fill="lightgrey" stroke="black" cx="344.72" cy="-76.48" rx="41.94" ry="37.45"/>
<text text-anchor="middle" x="344.72" y="-87.78" font-family="Times,serif" font-size="14.00">lfc</text>
<text text-anchor="middle" x="344.72" y="-72.78" font-family="Times,serif" font-size="14.00">~</text>
<text text-anchor="middle" x="344.72" y="-57.78" font-family="Times,serif" font-size="14.00">Normal</text>
</g>
<!-- σ&#45;&gt;lfc -->
<g id="edge10" class="edge">
<title>σ&#45;&gt;lfc</title>
<path fill="none" stroke="black" d="M431.61,-156.37C415.99,-142.19 397.31,-125.22 381.27,-110.66"/>
<polygon fill="black" stroke="black" points="383.39,-107.86 373.64,-103.73 378.69,-113.05 383.39,-107.86"/>
</g>
<!-- μ_β -->
<g id="node4" class="node">
<title>μ_β</title>
<ellipse fill="none" stroke="black" cx="530.72" cy="-423.34" rx="41.94" ry="37.45"/>
<text text-anchor="middle" x="530.72" y="-434.64" font-family="Times,serif" font-size="14.00">μ_β</text>
<text text-anchor="middle" x="530.72" y="-419.64" font-family="Times,serif" font-size="14.00">~</text>
<text text-anchor="middle" x="530.72" y="-404.64" font-family="Times,serif" font-size="14.00">Normal</text>
</g>
<!-- μ_β&#45;&gt;β_c -->
<g id="edge4" class="edge">
<title>μ_β&#45;&gt;β_c</title>
<path fill="none" stroke="black" d="M510,-390.67C501.58,-378.85 491.34,-365.69 480.72,-354.86 472.48,-346.46 462.86,-338.25 453.5,-330.92"/>
<polygon fill="black" stroke="black" points="455.45,-328 445.37,-324.72 451.2,-333.57 455.45,-328"/>
</g>
<!-- σ_g -->
<g id="node5" class="node">
<title>σ_g</title>
<ellipse fill="none" stroke="black" cx="159.72" cy="-534.29" rx="58.88" ry="37.45"/>
<text text-anchor="middle" x="159.72" y="-545.59" font-family="Times,serif" font-size="14.00">σ_g</text>
<text text-anchor="middle" x="159.72" y="-530.59" font-family="Times,serif" font-size="14.00">~</text>
<text text-anchor="middle" x="159.72" y="-515.59" font-family="Times,serif" font-size="14.00">HalfNormal</text>
</g>
<!-- σ_g&#45;&gt;μ_α -->
<g id="edge2" class="edge">
<title>σ_g&#45;&gt;μ_α</title>
<path fill="none" stroke="black" d="M159.72,-496.71C159.72,-488.53 159.72,-479.75 159.72,-471.23"/>
<polygon fill="black" stroke="black" points="163.22,-471.01 159.72,-461.01 156.22,-471.01 163.22,-471.01"/>
</g>
<!-- σ_σ_α -->
<g id="node6" class="node">
<title>σ_σ_α</title>
<ellipse fill="none" stroke="black" cx="294.72" cy="-534.29" rx="58.88" ry="37.45"/>
<text text-anchor="middle" x="294.72" y="-545.59" font-family="Times,serif" font-size="14.00">σ_σ_α</text>
<text text-anchor="middle" x="294.72" y="-530.59" font-family="Times,serif" font-size="14.00">~</text>
<text text-anchor="middle" x="294.72" y="-515.59" font-family="Times,serif" font-size="14.00">HalfNormal</text>
</g>
<!-- σ_α -->
<g id="node7" class="node">
<title>σ_α</title>
<ellipse fill="none" stroke="black" cx="277.72" cy="-423.34" rx="58.88" ry="37.45"/>
<text text-anchor="middle" x="277.72" y="-434.64" font-family="Times,serif" font-size="14.00">σ_α</text>
<text text-anchor="middle" x="277.72" y="-419.64" font-family="Times,serif" font-size="14.00">~</text>
<text text-anchor="middle" x="277.72" y="-404.64" font-family="Times,serif" font-size="14.00">HalfNormal</text>
</g>
<!-- σ_σ_α&#45;&gt;σ_α -->
<g id="edge3" class="edge">
<title>σ_σ_α&#45;&gt;σ_α</title>
<path fill="none" stroke="black" d="M289.01,-496.71C287.72,-488.44 286.34,-479.56 284.99,-470.95"/>
<polygon fill="black" stroke="black" points="288.44,-470.35 283.44,-461.01 281.52,-471.43 288.44,-470.35"/>
</g>
<!-- α_s -->
<g id="node10" class="node">
<title>α_s</title>
<ellipse fill="none" stroke="black" cx="277.72" cy="-301.38" rx="41.94" ry="37.45"/>
<text text-anchor="middle" x="277.72" y="-312.68" font-family="Times,serif" font-size="14.00">α_s</text>
<text text-anchor="middle" x="277.72" y="-297.68" font-family="Times,serif" font-size="14.00">~</text>
<text text-anchor="middle" x="277.72" y="-282.68" font-family="Times,serif" font-size="14.00">Normal</text>
</g>
<!-- σ_α&#45;&gt;α_s -->
<g id="edge6" class="edge">
<title>σ_α&#45;&gt;α_s</title>
<path fill="none" stroke="black" d="M277.72,-385.69C277.72,-374.29 277.72,-361.55 277.72,-349.54"/>
<polygon fill="black" stroke="black" points="281.22,-349.21 277.72,-339.21 274.22,-349.21 281.22,-349.21"/>
</g>
<!-- μ_α&#45;&gt;α_s -->
<g id="edge7" class="edge">
<title>μ_α&#45;&gt;α_s</title>
<path fill="none" stroke="black" d="M180.44,-390.67C188.86,-378.85 199.1,-365.69 209.72,-354.86 217.96,-346.46 227.57,-338.25 236.94,-330.92"/>
<polygon fill="black" stroke="black" points="239.24,-333.57 245.06,-324.72 234.99,-328 239.24,-333.57"/>
</g>
<!-- μ -->
<g id="node11" class="node">
<title>μ</title>
<polygon fill="none" stroke="black" points="388.22,-213.93 297.22,-213.93 297.22,-160.93 388.22,-160.93 388.22,-213.93"/>
<text text-anchor="middle" x="342.72" y="-198.73" font-family="Times,serif" font-size="14.00">μ</text>
<text text-anchor="middle" x="342.72" y="-183.73" font-family="Times,serif" font-size="14.00">~</text>
<text text-anchor="middle" x="342.72" y="-168.73" font-family="Times,serif" font-size="14.00">Deterministic</text>
</g>
<!-- β_c&#45;&gt;μ -->
<g id="edge8" class="edge">
<title>β_c&#45;&gt;μ</title>
<path fill="none" stroke="black" d="M392.66,-268.3C383.76,-254.07 373.27,-237.3 364.21,-222.81"/>
<polygon fill="black" stroke="black" points="367.05,-220.75 358.78,-214.12 361.12,-224.46 367.05,-220.75"/>
</g>
<!-- α_s&#45;&gt;μ -->
<g id="edge9" class="edge">
<title>α_s&#45;&gt;μ</title>
<path fill="none" stroke="black" d="M296.69,-267.7C304.81,-253.72 314.29,-237.39 322.54,-223.19"/>
<polygon fill="black" stroke="black" points="325.75,-224.62 327.75,-214.22 319.7,-221.11 325.75,-224.62"/>
</g>
<!-- μ&#45;&gt;lfc -->
<g id="edge11" class="edge">
<title>μ&#45;&gt;lfc</title>
<path fill="none" stroke="black" d="M343.19,-160.89C343.39,-149.98 343.63,-136.89 343.86,-124.35"/>
<polygon fill="black" stroke="black" points="347.36,-124.06 344.05,-114 340.37,-123.94 347.36,-124.06"/>
</g>
</g>
</svg>
