<?xml version="1.0" encoding="UTF-8" standalone="no"?>
<!DOCTYPE svg PUBLIC "-//W3C//DTD SVG 1.1//EN"
 "http://www.w3.org/Graphics/SVG/1.1/DTD/svg11.dtd">
<!-- Generated by graphviz version 2.47.0 (20210327.0129)
 -->
<!-- Pages: 1 -->
<svg width="1236pt" height="355pt"
 viewBox="0.00 0.00 1236.09 354.86" xmlns="http://www.w3.org/2000/svg" xmlns:xlink="http://www.w3.org/1999/xlink">
<g id="graph0" class="graph" transform="scale(1 1) rotate(0) translate(4 350.86)">
<polygon fill="white" stroke="transparent" points="-4,4 -4,-350.86 1232.09,-350.86 1232.09,4 -4,4"/>
<g id="clust1" class="cluster">
<title>cluster4</title>
<path fill="none" stroke="black" d="M167.79,-129.95C167.79,-129.95 413.79,-129.95 413.79,-129.95 419.79,-129.95 425.79,-135.95 425.79,-141.95 425.79,-141.95 425.79,-231.91 425.79,-231.91 425.79,-237.91 419.79,-243.91 413.79,-243.91 413.79,-243.91 167.79,-243.91 167.79,-243.91 161.79,-243.91 155.79,-237.91 155.79,-231.91 155.79,-231.91 155.79,-141.95 155.79,-141.95 155.79,-135.95 161.79,-129.95 167.79,-129.95"/>
<text text-anchor="middle" x="412.79" y="-137.75" font-family="Times-Roman" font-size="14.00">4</text>
</g>
<g id="clust2" class="cluster">
<title>cluster64 x 10</title>
<path fill="none" stroke="black" d="M453.79,-129.95C453.79,-129.95 543.79,-129.95 543.79,-129.95 549.79,-129.95 555.79,-135.95 555.79,-141.95 555.79,-141.95 555.79,-231.91 555.79,-231.91 555.79,-237.91 549.79,-243.91 543.79,-243.91 543.79,-243.91 453.79,-243.91 453.79,-243.91 447.79,-243.91 441.79,-237.91 441.79,-231.91 441.79,-231.91 441.79,-141.95 441.79,-141.95 441.79,-135.95 447.79,-129.95 453.79,-129.95"/>
<text text-anchor="middle" x="520.79" y="-137.75" font-family="Times-Roman" font-size="14.00">64 x 10</text>
</g>
<g id="clust3" class="cluster">
<title>cluster10</title>
<path fill="none" stroke="black" d="M725.79,-129.95C725.79,-129.95 815.79,-129.95 815.79,-129.95 821.79,-129.95 827.79,-135.95 827.79,-141.95 827.79,-141.95 827.79,-231.91 827.79,-231.91 827.79,-237.91 821.79,-243.91 815.79,-243.91 815.79,-243.91 725.79,-243.91 725.79,-243.91 719.79,-243.91 713.79,-237.91 713.79,-231.91 713.79,-231.91 713.79,-141.95 713.79,-141.95 713.79,-135.95 719.79,-129.95 725.79,-129.95"/>
<text text-anchor="middle" x="810.29" y="-137.75" font-family="Times-Roman" font-size="14.00">10</text>
</g>
<g id="clust4" class="cluster">
<title>cluster64</title>
<path fill="none" stroke="black" d="M977.79,-129.95C977.79,-129.95 1067.79,-129.95 1067.79,-129.95 1073.79,-129.95 1079.79,-135.95 1079.79,-141.95 1079.79,-141.95 1079.79,-231.91 1079.79,-231.91 1079.79,-237.91 1073.79,-243.91 1067.79,-243.91 1067.79,-243.91 977.79,-243.91 977.79,-243.91 971.79,-243.91 965.79,-237.91 965.79,-231.91 965.79,-231.91 965.79,-141.95 965.79,-141.95 965.79,-135.95 971.79,-129.95 977.79,-129.95"/>
<text text-anchor="middle" x="1062.29" y="-137.75" font-family="Times-Roman" font-size="14.00">64</text>
</g>
<g id="clust5" class="cluster">
<title>cluster1,443</title>
<path fill="none" stroke="black" d="M381.79,-8C381.79,-8 471.79,-8 471.79,-8 477.79,-8 483.79,-14 483.79,-20 483.79,-20 483.79,-109.95 483.79,-109.95 483.79,-115.95 477.79,-121.95 471.79,-121.95 471.79,-121.95 381.79,-121.95 381.79,-121.95 375.79,-121.95 369.79,-115.95 369.79,-109.95 369.79,-109.95 369.79,-20 369.79,-20 369.79,-14 375.79,-8 381.79,-8"/>
<text text-anchor="middle" x="455.29" y="-15.8" font-family="Times-Roman" font-size="14.00">1,443</text>
</g>
<!-- i -->
<g id="node1" class="node">
<title>i</title>
<ellipse fill="none" stroke="black" cx="96.79" cy="-198.43" rx="48.58" ry="37.45"/>
<text text-anchor="middle" x="96.79" y="-209.73" font-family="Times-Roman" font-size="14.00">i</text>
<text text-anchor="middle" x="96.79" y="-194.73" font-family="Times-Roman" font-size="14.00">~</text>
<text text-anchor="middle" x="96.79" y="-179.73" font-family="Times-Roman" font-size="14.00">Normal</text>
</g>
<!-- lfc -->
<g id="node16" class="node">
<title>lfc</title>
<ellipse fill="lightgrey" stroke="black" cx="426.79" cy="-76.48" rx="48.58" ry="37.45"/>
<text text-anchor="middle" x="426.79" y="-87.78" font-family="Times-Roman" font-size="14.00">lfc</text>
<text text-anchor="middle" x="426.79" y="-72.78" font-family="Times-Roman" font-size="14.00">~</text>
<text text-anchor="middle" x="426.79" y="-57.78" font-family="Times-Roman" font-size="14.00">Normal</text>
</g>
<!-- i&#45;&gt;lfc -->
<g id="edge10" class="edge">
<title>i&#45;&gt;lfc</title>
<path fill="none" stroke="black" d="M116.88,-163.88C126.01,-151.38 137.9,-138.24 151.79,-129.95 218.44,-90.21 308.92,-79.63 367.59,-77.29"/>
<polygon fill="black" stroke="black" points="367.92,-80.78 377.8,-76.96 367.69,-73.79 367.92,-80.78"/>
</g>
<!-- μ_j -->
<g id="node2" class="node">
<title>μ_j</title>
<ellipse fill="none" stroke="black" cx="48.79" cy="-309.38" rx="48.58" ry="37.45"/>
<text text-anchor="middle" x="48.79" y="-320.68" font-family="Times-Roman" font-size="14.00">μ_j</text>
<text text-anchor="middle" x="48.79" y="-305.68" font-family="Times-Roman" font-size="14.00">~</text>
<text text-anchor="middle" x="48.79" y="-290.68" font-family="Times-Roman" font-size="14.00">Normal</text>
</g>
<!-- j -->
<g id="node11" class="node">
<title>j</title>
<ellipse fill="none" stroke="black" cx="212.79" cy="-198.43" rx="48.58" ry="37.45"/>
<text text-anchor="middle" x="212.79" y="-209.73" font-family="Times-Roman" font-size="14.00">j</text>
<text text-anchor="middle" x="212.79" y="-194.73" font-family="Times-Roman" font-size="14.00">~</text>
<text text-anchor="middle" x="212.79" y="-179.73" font-family="Times-Roman" font-size="14.00">Normal</text>
</g>
<!-- μ_j&#45;&gt;j -->
<g id="edge1" class="edge">
<title>μ_j&#45;&gt;j</title>
<path fill="none" stroke="black" d="M85.81,-284.85C92.75,-280.5 99.97,-276.04 106.79,-271.91 127.91,-259.11 134.28,-257.67 154.79,-243.91 160.31,-240.2 166,-236.15 171.56,-232.05"/>
<polygon fill="black" stroke="black" points="173.68,-234.83 179.58,-226.04 169.48,-229.23 173.68,-234.83"/>
</g>
<!-- σ_h -->
<g id="node3" class="node">
<title>σ_h</title>
<ellipse fill="none" stroke="black" cx="498.79" cy="-309.38" rx="69.09" ry="37.45"/>
<text text-anchor="middle" x="498.79" y="-320.68" font-family="Times-Roman" font-size="14.00">σ_h</text>
<text text-anchor="middle" x="498.79" y="-305.68" font-family="Times-Roman" font-size="14.00">~</text>
<text text-anchor="middle" x="498.79" y="-290.68" font-family="Times-Roman" font-size="14.00">HalfNormal</text>
</g>
<!-- h -->
<g id="node13" class="node">
<title>h</title>
<ellipse fill="none" stroke="black" cx="498.79" cy="-198.43" rx="48.58" ry="37.45"/>
<text text-anchor="middle" x="498.79" y="-209.73" font-family="Times-Roman" font-size="14.00">h</text>
<text text-anchor="middle" x="498.79" y="-194.73" font-family="Times-Roman" font-size="14.00">~</text>
<text text-anchor="middle" x="498.79" y="-179.73" font-family="Times-Roman" font-size="14.00">Normal</text>
</g>
<!-- σ_h&#45;&gt;h -->
<g id="edge4" class="edge">
<title>σ_h&#45;&gt;h</title>
<path fill="none" stroke="black" d="M498.79,-271.8C498.79,-263.63 498.79,-254.85 498.79,-246.32"/>
<polygon fill="black" stroke="black" points="502.29,-246.1 498.79,-236.1 495.29,-246.1 502.29,-246.1"/>
</g>
<!-- σ_d -->
<g id="node4" class="node">
<title>σ_d</title>
<ellipse fill="none" stroke="black" cx="770.79" cy="-309.38" rx="69.09" ry="37.45"/>
<text text-anchor="middle" x="770.79" y="-320.68" font-family="Times-Roman" font-size="14.00">σ_d</text>
<text text-anchor="middle" x="770.79" y="-305.68" font-family="Times-Roman" font-size="14.00">~</text>
<text text-anchor="middle" x="770.79" y="-290.68" font-family="Times-Roman" font-size="14.00">HalfNormal</text>
</g>
<!-- d -->
<g id="node14" class="node">
<title>d</title>
<ellipse fill="none" stroke="black" cx="770.79" cy="-198.43" rx="48.58" ry="37.45"/>
<text text-anchor="middle" x="770.79" y="-209.73" font-family="Times-Roman" font-size="14.00">d</text>
<text text-anchor="middle" x="770.79" y="-194.73" font-family="Times-Roman" font-size="14.00">~</text>
<text text-anchor="middle" x="770.79" y="-179.73" font-family="Times-Roman" font-size="14.00">Normal</text>
</g>
<!-- σ_d&#45;&gt;d -->
<g id="edge5" class="edge">
<title>σ_d&#45;&gt;d</title>
<path fill="none" stroke="black" d="M770.79,-271.8C770.79,-263.63 770.79,-254.85 770.79,-246.32"/>
<polygon fill="black" stroke="black" points="774.29,-246.1 770.79,-236.1 767.29,-246.1 774.29,-246.1"/>
</g>
<!-- μ_a -->
<g id="node5" class="node">
<title>μ_a</title>
<ellipse fill="none" stroke="black" cx="1022.79" cy="-309.38" rx="48.58" ry="37.45"/>
<text text-anchor="middle" x="1022.79" y="-320.68" font-family="Times-Roman" font-size="14.00">μ_a</text>
<text text-anchor="middle" x="1022.79" y="-305.68" font-family="Times-Roman" font-size="14.00">~</text>
<text text-anchor="middle" x="1022.79" y="-290.68" font-family="Times-Roman" font-size="14.00">Normal</text>
</g>
<!-- a -->
<g id="node15" class="node">
<title>a</title>
<ellipse fill="none" stroke="black" cx="1022.79" cy="-198.43" rx="48.58" ry="37.45"/>
<text text-anchor="middle" x="1022.79" y="-209.73" font-family="Times-Roman" font-size="14.00">a</text>
<text text-anchor="middle" x="1022.79" y="-194.73" font-family="Times-Roman" font-size="14.00">~</text>
<text text-anchor="middle" x="1022.79" y="-179.73" font-family="Times-Roman" font-size="14.00">Normal</text>
</g>
<!-- μ_a&#45;&gt;a -->
<g id="edge7" class="edge">
<title>μ_a&#45;&gt;a</title>
<path fill="none" stroke="black" d="M1022.79,-271.8C1022.79,-263.63 1022.79,-254.85 1022.79,-246.32"/>
<polygon fill="black" stroke="black" points="1026.29,-246.1 1022.79,-236.1 1019.29,-246.1 1026.29,-246.1"/>
</g>
<!-- σ_j -->
<g id="node6" class="node">
<title>σ_j</title>
<ellipse fill="none" stroke="black" cx="184.79" cy="-309.38" rx="69.09" ry="37.45"/>
<text text-anchor="middle" x="184.79" y="-320.68" font-family="Times-Roman" font-size="14.00">σ_j</text>
<text text-anchor="middle" x="184.79" y="-305.68" font-family="Times-Roman" font-size="14.00">~</text>
<text text-anchor="middle" x="184.79" y="-290.68" font-family="Times-Roman" font-size="14.00">HalfNormal</text>
</g>
<!-- σ_j&#45;&gt;j -->
<g id="edge2" class="edge">
<title>σ_j&#45;&gt;j</title>
<path fill="none" stroke="black" d="M194.11,-272.1C196.31,-263.56 198.68,-254.34 200.97,-245.43"/>
<polygon fill="black" stroke="black" points="204.41,-246.11 203.51,-235.55 197.63,-244.37 204.41,-246.11"/>
</g>
<!-- μ_h -->
<g id="node7" class="node">
<title>μ_h</title>
<ellipse fill="none" stroke="black" cx="634.79" cy="-309.38" rx="48.58" ry="37.45"/>
<text text-anchor="middle" x="634.79" y="-320.68" font-family="Times-Roman" font-size="14.00">μ_h</text>
<text text-anchor="middle" x="634.79" y="-305.68" font-family="Times-Roman" font-size="14.00">~</text>
<text text-anchor="middle" x="634.79" y="-290.68" font-family="Times-Roman" font-size="14.00">Normal</text>
</g>
<!-- μ_h&#45;&gt;h -->
<g id="edge3" class="edge">
<title>μ_h&#45;&gt;h</title>
<path fill="none" stroke="black" d="M601.52,-281.73C583,-266.89 559.78,-248.29 540.1,-232.52"/>
<polygon fill="black" stroke="black" points="542.18,-229.71 532.19,-226.19 537.8,-235.17 542.18,-229.71"/>
</g>
<!-- σ_σ -->
<g id="node8" class="node">
<title>σ_σ</title>
<ellipse fill="none" stroke="black" cx="341.79" cy="-309.38" rx="69.09" ry="37.45"/>
<text text-anchor="middle" x="341.79" y="-320.68" font-family="Times-Roman" font-size="14.00">σ_σ</text>
<text text-anchor="middle" x="341.79" y="-305.68" font-family="Times-Roman" font-size="14.00">~</text>
<text text-anchor="middle" x="341.79" y="-290.68" font-family="Times-Roman" font-size="14.00">HalfNormal</text>
</g>
<!-- σ -->
<g id="node12" class="node">
<title>σ</title>
<ellipse fill="none" stroke="black" cx="348.79" cy="-198.43" rx="69.09" ry="37.45"/>
<text text-anchor="middle" x="348.79" y="-209.73" font-family="Times-Roman" font-size="14.00">σ</text>
<text text-anchor="middle" x="348.79" y="-194.73" font-family="Times-Roman" font-size="14.00">~</text>
<text text-anchor="middle" x="348.79" y="-179.73" font-family="Times-Roman" font-size="14.00">HalfNormal</text>
</g>
<!-- σ_σ&#45;&gt;σ -->
<g id="edge9" class="edge">
<title>σ_σ&#45;&gt;σ</title>
<path fill="none" stroke="black" d="M344.14,-271.8C344.67,-263.63 345.23,-254.85 345.78,-246.32"/>
<polygon fill="black" stroke="black" points="349.29,-246.31 346.43,-236.1 342.3,-245.86 349.29,-246.31"/>
</g>
<!-- σ_a -->
<g id="node9" class="node">
<title>σ_a</title>
<ellipse fill="none" stroke="black" cx="1158.79" cy="-309.38" rx="69.09" ry="37.45"/>
<text text-anchor="middle" x="1158.79" y="-320.68" font-family="Times-Roman" font-size="14.00">σ_a</text>
<text text-anchor="middle" x="1158.79" y="-305.68" font-family="Times-Roman" font-size="14.00">~</text>
<text text-anchor="middle" x="1158.79" y="-290.68" font-family="Times-Roman" font-size="14.00">HalfNormal</text>
</g>
<!-- σ_a&#45;&gt;a -->
<g id="edge8" class="edge">
<title>σ_a&#45;&gt;a</title>
<path fill="none" stroke="black" d="M1120.54,-277.74C1102.97,-263.66 1082.09,-246.93 1064.14,-232.56"/>
<polygon fill="black" stroke="black" points="1066.12,-229.66 1056.13,-226.14 1061.75,-235.12 1066.12,-229.66"/>
</g>
<!-- μ_d -->
<g id="node10" class="node">
<title>μ_d</title>
<ellipse fill="none" stroke="black" cx="906.79" cy="-309.38" rx="48.58" ry="37.45"/>
<text text-anchor="middle" x="906.79" y="-320.68" font-family="Times-Roman" font-size="14.00">μ_d</text>
<text text-anchor="middle" x="906.79" y="-305.68" font-family="Times-Roman" font-size="14.00">~</text>
<text text-anchor="middle" x="906.79" y="-290.68" font-family="Times-Roman" font-size="14.00">Normal</text>
</g>
<!-- μ_d&#45;&gt;d -->
<g id="edge6" class="edge">
<title>μ_d&#45;&gt;d</title>
<path fill="none" stroke="black" d="M873.52,-281.73C855,-266.89 831.78,-248.29 812.1,-232.52"/>
<polygon fill="black" stroke="black" points="814.18,-229.71 804.19,-226.19 809.8,-235.17 814.18,-229.71"/>
</g>
<!-- j&#45;&gt;lfc -->
<g id="edge11" class="edge">
<title>j&#45;&gt;lfc</title>
<path fill="none" stroke="black" d="M234.93,-164.85C244.7,-152.49 257.08,-139.19 270.79,-129.95 300.52,-109.93 338.56,-96.94 369.64,-88.88"/>
<polygon fill="black" stroke="black" points="370.61,-92.25 379.47,-86.44 368.92,-85.46 370.61,-92.25"/>
</g>
<!-- σ&#45;&gt;lfc -->
<g id="edge13" class="edge">
<title>σ&#45;&gt;lfc</title>
<path fill="none" stroke="black" d="M371.35,-162.73C380.22,-149.1 390.47,-133.33 399.74,-119.08"/>
<polygon fill="black" stroke="black" points="402.84,-120.74 405.35,-110.45 396.97,-116.92 402.84,-120.74"/>
</g>
<!-- h&#45;&gt;lfc -->
<g id="edge14" class="edge">
<title>h&#45;&gt;lfc</title>
<path fill="none" stroke="black" d="M478.73,-164.02C470.46,-150.24 460.79,-134.12 452.04,-119.55"/>
<polygon fill="black" stroke="black" points="454.89,-117.48 446.74,-110.71 448.88,-121.09 454.89,-117.48"/>
</g>
<!-- d&#45;&gt;lfc -->
<g id="edge12" class="edge">
<title>d&#45;&gt;lfc</title>
<path fill="none" stroke="black" d="M726.52,-181.99C663.57,-160.04 548.31,-119.85 480.53,-96.22"/>
<polygon fill="black" stroke="black" points="481.48,-92.84 470.89,-92.85 479.18,-99.45 481.48,-92.84"/>
</g>
<!-- a&#45;&gt;lfc -->
<g id="edge15" class="edge">
<title>a&#45;&gt;lfc</title>
<path fill="none" stroke="black" d="M980.33,-179.51C942.13,-164.1 884.13,-142.44 831.79,-129.95 710.68,-101.06 565.14,-87.11 485.69,-81.2"/>
<polygon fill="black" stroke="black" points="485.62,-77.69 475.39,-80.45 485.11,-84.67 485.62,-77.69"/>
</g>
</g>
</svg>
