<?xml version="1.0" encoding="UTF-8" standalone="no"?>
<!DOCTYPE svg PUBLIC "-//W3C//DTD SVG 1.1//EN"
 "http://www.w3.org/Graphics/SVG/1.1/DTD/svg11.dtd">
<!-- Generated by graphviz version 2.47.0 (20210327.0129)
 -->
<!-- Pages: 1 -->
<svg width="1236pt" height="355pt"
 viewBox="0.00 0.00 1235.58 354.86" xmlns="http://www.w3.org/2000/svg" xmlns:xlink="http://www.w3.org/1999/xlink">
<g id="graph0" class="graph" transform="scale(1 1) rotate(0) translate(4 350.86)">
<polygon fill="white" stroke="transparent" points="-4,4 -4,-350.86 1231.58,-350.86 1231.58,4 -4,4"/>
<g id="clust1" class="cluster">
<title>cluster4</title>
<path fill="none" stroke="black" d="M160.79,-129.95C160.79,-129.95 406.79,-129.95 406.79,-129.95 412.79,-129.95 418.79,-135.95 418.79,-141.95 418.79,-141.95 418.79,-231.91 418.79,-231.91 418.79,-237.91 412.79,-243.91 406.79,-243.91 406.79,-243.91 160.79,-243.91 160.79,-243.91 154.79,-243.91 148.79,-237.91 148.79,-231.91 148.79,-231.91 148.79,-141.95 148.79,-141.95 148.79,-135.95 154.79,-129.95 160.79,-129.95"/>
<text text-anchor="middle" x="405.79" y="-137.75" font-family="Times-Roman" font-size="14.00">4</text>
</g>
<g id="clust2" class="cluster">
<title>cluster64 x 10</title>
<path fill="none" stroke="black" d="M558.79,-129.95C558.79,-129.95 648.79,-129.95 648.79,-129.95 654.79,-129.95 660.79,-135.95 660.79,-141.95 660.79,-141.95 660.79,-231.91 660.79,-231.91 660.79,-237.91 654.79,-243.91 648.79,-243.91 648.79,-243.91 558.79,-243.91 558.79,-243.91 552.79,-243.91 546.79,-237.91 546.79,-231.91 546.79,-231.91 546.79,-141.95 546.79,-141.95 546.79,-135.95 552.79,-129.95 558.79,-129.95"/>
<text text-anchor="middle" x="625.79" y="-137.75" font-family="Times-Roman" font-size="14.00">64 x 10</text>
</g>
<g id="clust3" class="cluster">
<title>cluster10</title>
<path fill="none" stroke="black" d="M725.79,-129.95C725.79,-129.95 815.79,-129.95 815.79,-129.95 821.79,-129.95 827.79,-135.95 827.79,-141.95 827.79,-141.95 827.79,-231.91 827.79,-231.91 827.79,-237.91 821.79,-243.91 815.79,-243.91 815.79,-243.91 725.79,-243.91 725.79,-243.91 719.79,-243.91 713.79,-237.91 713.79,-231.91 713.79,-231.91 713.79,-141.95 713.79,-141.95 713.79,-135.95 719.79,-129.95 725.79,-129.95"/>
<text text-anchor="middle" x="810.29" y="-137.75" font-family="Times-Roman" font-size="14.00">10</text>
</g>
<g id="clust4" class="cluster">
<title>cluster64</title>
<path fill="none" stroke="black" d="M997.79,-129.95C997.79,-129.95 1087.79,-129.95 1087.79,-129.95 1093.79,-129.95 1099.79,-135.95 1099.79,-141.95 1099.79,-141.95 1099.79,-231.91 1099.79,-231.91 1099.79,-237.91 1093.79,-243.91 1087.79,-243.91 1087.79,-243.91 997.79,-243.91 997.79,-243.91 991.79,-243.91 985.79,-237.91 985.79,-231.91 985.79,-231.91 985.79,-141.95 985.79,-141.95 985.79,-135.95 991.79,-129.95 997.79,-129.95"/>
<text text-anchor="middle" x="1082.29" y="-137.75" font-family="Times-Roman" font-size="14.00">64</text>
</g>
<g id="clust5" class="cluster">
<title>cluster1,443</title>
<path fill="none" stroke="black" d="M500.79,-8C500.79,-8 590.79,-8 590.79,-8 596.79,-8 602.79,-14 602.79,-20 602.79,-20 602.79,-109.95 602.79,-109.95 602.79,-115.95 596.79,-121.95 590.79,-121.95 590.79,-121.95 500.79,-121.95 500.79,-121.95 494.79,-121.95 488.79,-115.95 488.79,-109.95 488.79,-109.95 488.79,-20 488.79,-20 488.79,-14 494.79,-8 500.79,-8"/>
<text text-anchor="middle" x="574.29" y="-15.8" font-family="Times-Roman" font-size="14.00">1,443</text>
</g>
<!-- μ_j -->
<g id="node1" class="node">
<title>μ_j</title>
<ellipse fill="none" stroke="black" cx="48.79" cy="-309.38" rx="48.58" ry="37.45"/>
<text text-anchor="middle" x="48.79" y="-320.68" font-family="Times-Roman" font-size="14.00">μ_j</text>
<text text-anchor="middle" x="48.79" y="-305.68" font-family="Times-Roman" font-size="14.00">~</text>
<text text-anchor="middle" x="48.79" y="-290.68" font-family="Times-Roman" font-size="14.00">Normal</text>
</g>
<!-- j -->
<g id="node12" class="node">
<title>j</title>
<ellipse fill="none" stroke="black" cx="205.79" cy="-198.43" rx="48.58" ry="37.45"/>
<text text-anchor="middle" x="205.79" y="-209.73" font-family="Times-Roman" font-size="14.00">j</text>
<text text-anchor="middle" x="205.79" y="-194.73" font-family="Times-Roman" font-size="14.00">~</text>
<text text-anchor="middle" x="205.79" y="-179.73" font-family="Times-Roman" font-size="14.00">Normal</text>
</g>
<!-- μ_j&#45;&gt;j -->
<g id="edge1" class="edge">
<title>μ_j&#45;&gt;j</title>
<path fill="none" stroke="black" d="M84.42,-283.66C107.32,-267.77 137.25,-247 161.65,-230.06"/>
<polygon fill="black" stroke="black" points="163.81,-232.82 170.03,-224.24 159.82,-227.07 163.81,-232.82"/>
</g>
<!-- μ_h -->
<g id="node2" class="node">
<title>μ_h</title>
<ellipse fill="none" stroke="black" cx="477.79" cy="-309.38" rx="48.58" ry="37.45"/>
<text text-anchor="middle" x="477.79" y="-320.68" font-family="Times-Roman" font-size="14.00">μ_h</text>
<text text-anchor="middle" x="477.79" y="-305.68" font-family="Times-Roman" font-size="14.00">~</text>
<text text-anchor="middle" x="477.79" y="-290.68" font-family="Times-Roman" font-size="14.00">Normal</text>
</g>
<!-- h -->
<g id="node13" class="node">
<title>h</title>
<ellipse fill="none" stroke="black" cx="603.79" cy="-198.43" rx="48.58" ry="37.45"/>
<text text-anchor="middle" x="603.79" y="-209.73" font-family="Times-Roman" font-size="14.00">h</text>
<text text-anchor="middle" x="603.79" y="-194.73" font-family="Times-Roman" font-size="14.00">~</text>
<text text-anchor="middle" x="603.79" y="-179.73" font-family="Times-Roman" font-size="14.00">Normal</text>
</g>
<!-- μ_h&#45;&gt;h -->
<g id="edge4" class="edge">
<title>μ_h&#45;&gt;h</title>
<path fill="none" stroke="black" d="M509.59,-280.89C526.15,-266.57 546.56,-248.91 564.15,-233.71"/>
<polygon fill="black" stroke="black" points="566.73,-236.1 572.01,-226.91 562.15,-230.81 566.73,-236.1"/>
</g>
<!-- σ_d -->
<g id="node3" class="node">
<title>σ_d</title>
<ellipse fill="none" stroke="black" cx="770.79" cy="-309.38" rx="69.09" ry="37.45"/>
<text text-anchor="middle" x="770.79" y="-320.68" font-family="Times-Roman" font-size="14.00">σ_d</text>
<text text-anchor="middle" x="770.79" y="-305.68" font-family="Times-Roman" font-size="14.00">~</text>
<text text-anchor="middle" x="770.79" y="-290.68" font-family="Times-Roman" font-size="14.00">HalfNormal</text>
</g>
<!-- d -->
<g id="node14" class="node">
<title>d</title>
<ellipse fill="none" stroke="black" cx="770.79" cy="-198.43" rx="48.58" ry="37.45"/>
<text text-anchor="middle" x="770.79" y="-209.73" font-family="Times-Roman" font-size="14.00">d</text>
<text text-anchor="middle" x="770.79" y="-194.73" font-family="Times-Roman" font-size="14.00">~</text>
<text text-anchor="middle" x="770.79" y="-179.73" font-family="Times-Roman" font-size="14.00">Normal</text>
</g>
<!-- σ_d&#45;&gt;d -->
<g id="edge5" class="edge">
<title>σ_d&#45;&gt;d</title>
<path fill="none" stroke="black" d="M770.79,-271.8C770.79,-263.63 770.79,-254.85 770.79,-246.32"/>
<polygon fill="black" stroke="black" points="774.29,-246.1 770.79,-236.1 767.29,-246.1 774.29,-246.1"/>
</g>
<!-- σ_j -->
<g id="node4" class="node">
<title>σ_j</title>
<ellipse fill="none" stroke="black" cx="184.79" cy="-309.38" rx="69.09" ry="37.45"/>
<text text-anchor="middle" x="184.79" y="-320.68" font-family="Times-Roman" font-size="14.00">σ_j</text>
<text text-anchor="middle" x="184.79" y="-305.68" font-family="Times-Roman" font-size="14.00">~</text>
<text text-anchor="middle" x="184.79" y="-290.68" font-family="Times-Roman" font-size="14.00">HalfNormal</text>
</g>
<!-- σ_j&#45;&gt;j -->
<g id="edge2" class="edge">
<title>σ_j&#45;&gt;j</title>
<path fill="none" stroke="black" d="M191.84,-271.8C193.45,-263.45 195.18,-254.46 196.86,-245.76"/>
<polygon fill="black" stroke="black" points="200.34,-246.21 198.79,-235.73 193.46,-244.89 200.34,-246.21"/>
</g>
<!-- σ_a -->
<g id="node5" class="node">
<title>σ_a</title>
<ellipse fill="none" stroke="black" cx="1042.79" cy="-309.38" rx="69.09" ry="37.45"/>
<text text-anchor="middle" x="1042.79" y="-320.68" font-family="Times-Roman" font-size="14.00">σ_a</text>
<text text-anchor="middle" x="1042.79" y="-305.68" font-family="Times-Roman" font-size="14.00">~</text>
<text text-anchor="middle" x="1042.79" y="-290.68" font-family="Times-Roman" font-size="14.00">HalfNormal</text>
</g>
<!-- a -->
<g id="node15" class="node">
<title>a</title>
<ellipse fill="none" stroke="black" cx="1042.79" cy="-198.43" rx="48.58" ry="37.45"/>
<text text-anchor="middle" x="1042.79" y="-209.73" font-family="Times-Roman" font-size="14.00">a</text>
<text text-anchor="middle" x="1042.79" y="-194.73" font-family="Times-Roman" font-size="14.00">~</text>
<text text-anchor="middle" x="1042.79" y="-179.73" font-family="Times-Roman" font-size="14.00">Normal</text>
</g>
<!-- σ_a&#45;&gt;a -->
<g id="edge7" class="edge">
<title>σ_a&#45;&gt;a</title>
<path fill="none" stroke="black" d="M1042.79,-271.8C1042.79,-263.63 1042.79,-254.85 1042.79,-246.32"/>
<polygon fill="black" stroke="black" points="1046.29,-246.1 1042.79,-236.1 1039.29,-246.1 1046.29,-246.1"/>
</g>
<!-- i -->
<g id="node6" class="node">
<title>i</title>
<ellipse fill="none" stroke="black" cx="487.79" cy="-198.43" rx="48.58" ry="37.45"/>
<text text-anchor="middle" x="487.79" y="-209.73" font-family="Times-Roman" font-size="14.00">i</text>
<text text-anchor="middle" x="487.79" y="-194.73" font-family="Times-Roman" font-size="14.00">~</text>
<text text-anchor="middle" x="487.79" y="-179.73" font-family="Times-Roman" font-size="14.00">Normal</text>
</g>
<!-- lfc -->
<g id="node16" class="node">
<title>lfc</title>
<ellipse fill="lightgrey" stroke="black" cx="545.79" cy="-76.48" rx="48.58" ry="37.45"/>
<text text-anchor="middle" x="545.79" y="-87.78" font-family="Times-Roman" font-size="14.00">lfc</text>
<text text-anchor="middle" x="545.79" y="-72.78" font-family="Times-Roman" font-size="14.00">~</text>
<text text-anchor="middle" x="545.79" y="-57.78" font-family="Times-Roman" font-size="14.00">Normal</text>
</g>
<!-- i&#45;&gt;lfc -->
<g id="edge11" class="edge">
<title>i&#45;&gt;lfc</title>
<path fill="none" stroke="black" d="M504.41,-163.06C510.72,-150.01 517.99,-134.97 524.66,-121.17"/>
<polygon fill="black" stroke="black" points="527.97,-122.38 529.17,-111.86 521.66,-119.33 527.97,-122.38"/>
</g>
<!-- σ_σ -->
<g id="node7" class="node">
<title>σ_σ</title>
<ellipse fill="none" stroke="black" cx="341.79" cy="-309.38" rx="69.09" ry="37.45"/>
<text text-anchor="middle" x="341.79" y="-320.68" font-family="Times-Roman" font-size="14.00">σ_σ</text>
<text text-anchor="middle" x="341.79" y="-305.68" font-family="Times-Roman" font-size="14.00">~</text>
<text text-anchor="middle" x="341.79" y="-290.68" font-family="Times-Roman" font-size="14.00">HalfNormal</text>
</g>
<!-- σ -->
<g id="node11" class="node">
<title>σ</title>
<ellipse fill="none" stroke="black" cx="341.79" cy="-198.43" rx="69.09" ry="37.45"/>
<text text-anchor="middle" x="341.79" y="-209.73" font-family="Times-Roman" font-size="14.00">σ</text>
<text text-anchor="middle" x="341.79" y="-194.73" font-family="Times-Roman" font-size="14.00">~</text>
<text text-anchor="middle" x="341.79" y="-179.73" font-family="Times-Roman" font-size="14.00">HalfNormal</text>
</g>
<!-- σ_σ&#45;&gt;σ -->
<g id="edge9" class="edge">
<title>σ_σ&#45;&gt;σ</title>
<path fill="none" stroke="black" d="M341.79,-271.8C341.79,-263.63 341.79,-254.85 341.79,-246.32"/>
<polygon fill="black" stroke="black" points="345.29,-246.1 341.79,-236.1 338.29,-246.1 345.29,-246.1"/>
</g>
<!-- σ_h -->
<g id="node8" class="node">
<title>σ_h</title>
<ellipse fill="none" stroke="black" cx="613.79" cy="-309.38" rx="69.09" ry="37.45"/>
<text text-anchor="middle" x="613.79" y="-320.68" font-family="Times-Roman" font-size="14.00">σ_h</text>
<text text-anchor="middle" x="613.79" y="-305.68" font-family="Times-Roman" font-size="14.00">~</text>
<text text-anchor="middle" x="613.79" y="-290.68" font-family="Times-Roman" font-size="14.00">HalfNormal</text>
</g>
<!-- σ_h&#45;&gt;h -->
<g id="edge3" class="edge">
<title>σ_h&#45;&gt;h</title>
<path fill="none" stroke="black" d="M610.43,-271.8C609.68,-263.63 608.88,-254.85 608.09,-246.32"/>
<polygon fill="black" stroke="black" points="611.56,-245.74 607.16,-236.1 604.58,-246.38 611.56,-245.74"/>
</g>
<!-- μ_a -->
<g id="node9" class="node">
<title>μ_a</title>
<ellipse fill="none" stroke="black" cx="1178.79" cy="-309.38" rx="48.58" ry="37.45"/>
<text text-anchor="middle" x="1178.79" y="-320.68" font-family="Times-Roman" font-size="14.00">μ_a</text>
<text text-anchor="middle" x="1178.79" y="-305.68" font-family="Times-Roman" font-size="14.00">~</text>
<text text-anchor="middle" x="1178.79" y="-290.68" font-family="Times-Roman" font-size="14.00">Normal</text>
</g>
<!-- μ_a&#45;&gt;a -->
<g id="edge8" class="edge">
<title>μ_a&#45;&gt;a</title>
<path fill="none" stroke="black" d="M1145.52,-281.73C1127,-266.89 1103.78,-248.29 1084.1,-232.52"/>
<polygon fill="black" stroke="black" points="1086.18,-229.71 1076.19,-226.19 1081.8,-235.17 1086.18,-229.71"/>
</g>
<!-- μ_d -->
<g id="node10" class="node">
<title>μ_d</title>
<ellipse fill="none" stroke="black" cx="906.79" cy="-309.38" rx="48.58" ry="37.45"/>
<text text-anchor="middle" x="906.79" y="-320.68" font-family="Times-Roman" font-size="14.00">μ_d</text>
<text text-anchor="middle" x="906.79" y="-305.68" font-family="Times-Roman" font-size="14.00">~</text>
<text text-anchor="middle" x="906.79" y="-290.68" font-family="Times-Roman" font-size="14.00">Normal</text>
</g>
<!-- μ_d&#45;&gt;d -->
<g id="edge6" class="edge">
<title>μ_d&#45;&gt;d</title>
<path fill="none" stroke="black" d="M873.52,-281.73C855,-266.89 831.78,-248.29 812.1,-232.52"/>
<polygon fill="black" stroke="black" points="814.18,-229.71 804.19,-226.19 809.8,-235.17 814.18,-229.71"/>
</g>
<!-- σ&#45;&gt;lfc -->
<g id="edge10" class="edge">
<title>σ&#45;&gt;lfc</title>
<path fill="none" stroke="black" d="M378.56,-166.22C393.84,-154.06 412.12,-140.54 429.79,-129.95 449.76,-117.99 472.94,-106.99 493.3,-98.19"/>
<polygon fill="black" stroke="black" points="494.9,-101.31 502.73,-94.17 492.16,-94.87 494.9,-101.31"/>
</g>
<!-- j&#45;&gt;lfc -->
<g id="edge12" class="edge">
<title>j&#45;&gt;lfc</title>
<path fill="none" stroke="black" d="M226.77,-164.55C236.52,-151.83 249.2,-138.35 263.79,-129.95 333.25,-89.96 426.83,-79.52 486.75,-77.27"/>
<polygon fill="black" stroke="black" points="486.91,-80.77 496.8,-76.96 486.69,-73.77 486.91,-80.77"/>
</g>
<!-- h&#45;&gt;lfc -->
<g id="edge14" class="edge">
<title>h&#45;&gt;lfc</title>
<path fill="none" stroke="black" d="M587.17,-163.06C580.86,-150.01 573.59,-134.97 566.92,-121.17"/>
<polygon fill="black" stroke="black" points="569.92,-119.33 562.41,-111.86 563.62,-122.38 569.92,-119.33"/>
</g>
<!-- d&#45;&gt;lfc -->
<g id="edge13" class="edge">
<title>d&#45;&gt;lfc</title>
<path fill="none" stroke="black" d="M734.82,-172.61C714.67,-159.2 688.84,-142.81 664.79,-129.95 643.47,-118.55 619.16,-107.5 598.09,-98.51"/>
<polygon fill="black" stroke="black" points="599.24,-95.2 588.66,-94.53 596.52,-101.64 599.24,-95.2"/>
</g>
<!-- a&#45;&gt;lfc -->
<g id="edge15" class="edge">
<title>a&#45;&gt;lfc</title>
<path fill="none" stroke="black" d="M998.81,-181.55C956.45,-166.68 890.36,-144.63 831.79,-129.95 753.61,-110.36 661.7,-94.8 603.6,-85.86"/>
<polygon fill="black" stroke="black" points="603.92,-82.36 593.51,-84.32 602.86,-89.28 603.92,-82.36"/>
</g>
</g>
</svg>
