<?xml version="1.0" encoding="UTF-8" standalone="no"?>
<!DOCTYPE svg PUBLIC "-//W3C//DTD SVG 1.1//EN"
 "http://www.w3.org/Graphics/SVG/1.1/DTD/svg11.dtd">
<!-- Generated by graphviz version 2.47.0 (20210327.0129)
 -->
<!-- Pages: 1 -->
<svg width="1235pt" height="355pt"
 viewBox="0.00 0.00 1234.59 354.86" xmlns="http://www.w3.org/2000/svg" xmlns:xlink="http://www.w3.org/1999/xlink">
<g id="graph0" class="graph" transform="scale(1 1) rotate(0) translate(4 350.86)">
<polygon fill="white" stroke="transparent" points="-4,4 -4,-350.86 1230.59,-350.86 1230.59,4 -4,4"/>
<g id="clust1" class="cluster">
<title>cluster4</title>
<path fill="none" stroke="black" d="M402.3,-129.95C402.3,-129.95 648.3,-129.95 648.3,-129.95 654.3,-129.95 660.3,-135.95 660.3,-141.95 660.3,-141.95 660.3,-231.91 660.3,-231.91 660.3,-237.91 654.3,-243.91 648.3,-243.91 648.3,-243.91 402.3,-243.91 402.3,-243.91 396.3,-243.91 390.3,-237.91 390.3,-231.91 390.3,-231.91 390.3,-141.95 390.3,-141.95 390.3,-135.95 396.3,-129.95 402.3,-129.95"/>
<text text-anchor="middle" x="647.3" y="-137.75" font-family="Times-Roman" font-size="14.00">4</text>
</g>
<g id="clust2" class="cluster">
<title>cluster64 x 10</title>
<path fill="none" stroke="black" d="M160.3,-129.95C160.3,-129.95 250.3,-129.95 250.3,-129.95 256.3,-129.95 262.3,-135.95 262.3,-141.95 262.3,-141.95 262.3,-231.91 262.3,-231.91 262.3,-237.91 256.3,-243.91 250.3,-243.91 250.3,-243.91 160.3,-243.91 160.3,-243.91 154.3,-243.91 148.3,-237.91 148.3,-231.91 148.3,-231.91 148.3,-141.95 148.3,-141.95 148.3,-135.95 154.3,-129.95 160.3,-129.95"/>
<text text-anchor="middle" x="227.3" y="-137.75" font-family="Times-Roman" font-size="14.00">64 x 10</text>
</g>
<g id="clust3" class="cluster">
<title>cluster10</title>
<path fill="none" stroke="black" d="M704.3,-129.95C704.3,-129.95 794.3,-129.95 794.3,-129.95 800.3,-129.95 806.3,-135.95 806.3,-141.95 806.3,-141.95 806.3,-231.91 806.3,-231.91 806.3,-237.91 800.3,-243.91 794.3,-243.91 794.3,-243.91 704.3,-243.91 704.3,-243.91 698.3,-243.91 692.3,-237.91 692.3,-231.91 692.3,-231.91 692.3,-141.95 692.3,-141.95 692.3,-135.95 698.3,-129.95 704.3,-129.95"/>
<text text-anchor="middle" x="788.8" y="-137.75" font-family="Times-Roman" font-size="14.00">10</text>
</g>
<g id="clust4" class="cluster">
<title>cluster64</title>
<path fill="none" stroke="black" d="M976.3,-129.95C976.3,-129.95 1066.3,-129.95 1066.3,-129.95 1072.3,-129.95 1078.3,-135.95 1078.3,-141.95 1078.3,-141.95 1078.3,-231.91 1078.3,-231.91 1078.3,-237.91 1072.3,-243.91 1066.3,-243.91 1066.3,-243.91 976.3,-243.91 976.3,-243.91 970.3,-243.91 964.3,-237.91 964.3,-231.91 964.3,-231.91 964.3,-141.95 964.3,-141.95 964.3,-135.95 970.3,-129.95 976.3,-129.95"/>
<text text-anchor="middle" x="1060.8" y="-137.75" font-family="Times-Roman" font-size="14.00">64</text>
</g>
<g id="clust5" class="cluster">
<title>cluster1,443</title>
<path fill="none" stroke="black" d="M490.3,-8C490.3,-8 580.3,-8 580.3,-8 586.3,-8 592.3,-14 592.3,-20 592.3,-20 592.3,-109.95 592.3,-109.95 592.3,-115.95 586.3,-121.95 580.3,-121.95 580.3,-121.95 490.3,-121.95 490.3,-121.95 484.3,-121.95 478.3,-115.95 478.3,-109.95 478.3,-109.95 478.3,-20 478.3,-20 478.3,-14 484.3,-8 490.3,-8"/>
<text text-anchor="middle" x="563.8" y="-15.8" font-family="Times-Roman" font-size="14.00">1,443</text>
</g>
<!-- σ_h -->
<g id="node1" class="node">
<title>σ_h</title>
<ellipse fill="none" stroke="black" cx="69.3" cy="-309.38" rx="69.09" ry="37.45"/>
<text text-anchor="middle" x="69.3" y="-320.68" font-family="Times-Roman" font-size="14.00">σ_h</text>
<text text-anchor="middle" x="69.3" y="-305.68" font-family="Times-Roman" font-size="14.00">~</text>
<text text-anchor="middle" x="69.3" y="-290.68" font-family="Times-Roman" font-size="14.00">HalfNormal</text>
</g>
<!-- h -->
<g id="node13" class="node">
<title>h</title>
<ellipse fill="none" stroke="black" cx="205.3" cy="-198.43" rx="48.58" ry="37.45"/>
<text text-anchor="middle" x="205.3" y="-209.73" font-family="Times-Roman" font-size="14.00">h</text>
<text text-anchor="middle" x="205.3" y="-194.73" font-family="Times-Roman" font-size="14.00">~</text>
<text text-anchor="middle" x="205.3" y="-179.73" font-family="Times-Roman" font-size="14.00">Normal</text>
</g>
<!-- σ_h&#45;&gt;h -->
<g id="edge3" class="edge">
<title>σ_h&#45;&gt;h</title>
<path fill="none" stroke="black" d="M107.54,-277.74C125.12,-263.66 146,-246.93 163.94,-232.56"/>
<polygon fill="black" stroke="black" points="166.34,-235.12 171.96,-226.14 161.97,-229.66 166.34,-235.12"/>
</g>
<!-- μ_a -->
<g id="node2" class="node">
<title>μ_a</title>
<ellipse fill="none" stroke="black" cx="1021.3" cy="-309.38" rx="48.58" ry="37.45"/>
<text text-anchor="middle" x="1021.3" y="-320.68" font-family="Times-Roman" font-size="14.00">μ_a</text>
<text text-anchor="middle" x="1021.3" y="-305.68" font-family="Times-Roman" font-size="14.00">~</text>
<text text-anchor="middle" x="1021.3" y="-290.68" font-family="Times-Roman" font-size="14.00">Normal</text>
</g>
<!-- a -->
<g id="node15" class="node">
<title>a</title>
<ellipse fill="none" stroke="black" cx="1021.3" cy="-198.43" rx="48.58" ry="37.45"/>
<text text-anchor="middle" x="1021.3" y="-209.73" font-family="Times-Roman" font-size="14.00">a</text>
<text text-anchor="middle" x="1021.3" y="-194.73" font-family="Times-Roman" font-size="14.00">~</text>
<text text-anchor="middle" x="1021.3" y="-179.73" font-family="Times-Roman" font-size="14.00">Normal</text>
</g>
<!-- μ_a&#45;&gt;a -->
<g id="edge7" class="edge">
<title>μ_a&#45;&gt;a</title>
<path fill="none" stroke="black" d="M1021.3,-271.8C1021.3,-263.63 1021.3,-254.85 1021.3,-246.32"/>
<polygon fill="black" stroke="black" points="1024.8,-246.1 1021.3,-236.1 1017.8,-246.1 1024.8,-246.1"/>
</g>
<!-- σ_a -->
<g id="node3" class="node">
<title>σ_a</title>
<ellipse fill="none" stroke="black" cx="1157.3" cy="-309.38" rx="69.09" ry="37.45"/>
<text text-anchor="middle" x="1157.3" y="-320.68" font-family="Times-Roman" font-size="14.00">σ_a</text>
<text text-anchor="middle" x="1157.3" y="-305.68" font-family="Times-Roman" font-size="14.00">~</text>
<text text-anchor="middle" x="1157.3" y="-290.68" font-family="Times-Roman" font-size="14.00">HalfNormal</text>
</g>
<!-- σ_a&#45;&gt;a -->
<g id="edge8" class="edge">
<title>σ_a&#45;&gt;a</title>
<path fill="none" stroke="black" d="M1119.05,-277.74C1101.47,-263.66 1080.59,-246.93 1062.65,-232.56"/>
<polygon fill="black" stroke="black" points="1064.63,-229.66 1054.64,-226.14 1060.25,-235.12 1064.63,-229.66"/>
</g>
<!-- μ_j -->
<g id="node4" class="node">
<title>μ_j</title>
<ellipse fill="none" stroke="black" cx="477.3" cy="-309.38" rx="48.58" ry="37.45"/>
<text text-anchor="middle" x="477.3" y="-320.68" font-family="Times-Roman" font-size="14.00">μ_j</text>
<text text-anchor="middle" x="477.3" y="-305.68" font-family="Times-Roman" font-size="14.00">~</text>
<text text-anchor="middle" x="477.3" y="-290.68" font-family="Times-Roman" font-size="14.00">Normal</text>
</g>
<!-- j -->
<g id="node11" class="node">
<title>j</title>
<ellipse fill="none" stroke="black" cx="603.3" cy="-198.43" rx="48.58" ry="37.45"/>
<text text-anchor="middle" x="603.3" y="-209.73" font-family="Times-Roman" font-size="14.00">j</text>
<text text-anchor="middle" x="603.3" y="-194.73" font-family="Times-Roman" font-size="14.00">~</text>
<text text-anchor="middle" x="603.3" y="-179.73" font-family="Times-Roman" font-size="14.00">Normal</text>
</g>
<!-- μ_j&#45;&gt;j -->
<g id="edge1" class="edge">
<title>μ_j&#45;&gt;j</title>
<path fill="none" stroke="black" d="M509.09,-280.89C525.66,-266.57 546.07,-248.91 563.65,-233.71"/>
<polygon fill="black" stroke="black" points="566.24,-236.1 571.51,-226.91 561.66,-230.81 566.24,-236.1"/>
</g>
<!-- μ_d -->
<g id="node5" class="node">
<title>μ_d</title>
<ellipse fill="none" stroke="black" cx="749.3" cy="-309.38" rx="48.58" ry="37.45"/>
<text text-anchor="middle" x="749.3" y="-320.68" font-family="Times-Roman" font-size="14.00">μ_d</text>
<text text-anchor="middle" x="749.3" y="-305.68" font-family="Times-Roman" font-size="14.00">~</text>
<text text-anchor="middle" x="749.3" y="-290.68" font-family="Times-Roman" font-size="14.00">Normal</text>
</g>
<!-- d -->
<g id="node14" class="node">
<title>d</title>
<ellipse fill="none" stroke="black" cx="749.3" cy="-198.43" rx="48.58" ry="37.45"/>
<text text-anchor="middle" x="749.3" y="-209.73" font-family="Times-Roman" font-size="14.00">d</text>
<text text-anchor="middle" x="749.3" y="-194.73" font-family="Times-Roman" font-size="14.00">~</text>
<text text-anchor="middle" x="749.3" y="-179.73" font-family="Times-Roman" font-size="14.00">Normal</text>
</g>
<!-- μ_d&#45;&gt;d -->
<g id="edge6" class="edge">
<title>μ_d&#45;&gt;d</title>
<path fill="none" stroke="black" d="M749.3,-271.8C749.3,-263.63 749.3,-254.85 749.3,-246.32"/>
<polygon fill="black" stroke="black" points="752.8,-246.1 749.3,-236.1 745.8,-246.1 752.8,-246.1"/>
</g>
<!-- σ_d -->
<g id="node6" class="node">
<title>σ_d</title>
<ellipse fill="none" stroke="black" cx="885.3" cy="-309.38" rx="69.09" ry="37.45"/>
<text text-anchor="middle" x="885.3" y="-320.68" font-family="Times-Roman" font-size="14.00">σ_d</text>
<text text-anchor="middle" x="885.3" y="-305.68" font-family="Times-Roman" font-size="14.00">~</text>
<text text-anchor="middle" x="885.3" y="-290.68" font-family="Times-Roman" font-size="14.00">HalfNormal</text>
</g>
<!-- σ_d&#45;&gt;d -->
<g id="edge5" class="edge">
<title>σ_d&#45;&gt;d</title>
<path fill="none" stroke="black" d="M847.05,-277.74C829.47,-263.66 808.59,-246.93 790.65,-232.56"/>
<polygon fill="black" stroke="black" points="792.63,-229.66 782.64,-226.14 788.25,-235.12 792.63,-229.66"/>
</g>
<!-- i -->
<g id="node7" class="node">
<title>i</title>
<ellipse fill="none" stroke="black" cx="331.3" cy="-198.43" rx="48.58" ry="37.45"/>
<text text-anchor="middle" x="331.3" y="-209.73" font-family="Times-Roman" font-size="14.00">i</text>
<text text-anchor="middle" x="331.3" y="-194.73" font-family="Times-Roman" font-size="14.00">~</text>
<text text-anchor="middle" x="331.3" y="-179.73" font-family="Times-Roman" font-size="14.00">Normal</text>
</g>
<!-- lfc -->
<g id="node16" class="node">
<title>lfc</title>
<ellipse fill="lightgrey" stroke="black" cx="535.3" cy="-76.48" rx="48.58" ry="37.45"/>
<text text-anchor="middle" x="535.3" y="-87.78" font-family="Times-Roman" font-size="14.00">lfc</text>
<text text-anchor="middle" x="535.3" y="-72.78" font-family="Times-Roman" font-size="14.00">~</text>
<text text-anchor="middle" x="535.3" y="-57.78" font-family="Times-Roman" font-size="14.00">Normal</text>
</g>
<!-- i&#45;&gt;lfc -->
<g id="edge11" class="edge">
<title>i&#45;&gt;lfc</title>
<path fill="none" stroke="black" d="M352.32,-164.57C361.51,-152.32 373.19,-139.17 386.3,-129.95 413.81,-110.61 449.16,-97.76 478.52,-89.61"/>
<polygon fill="black" stroke="black" points="479.46,-92.98 488.23,-87.03 477.66,-86.22 479.46,-92.98"/>
</g>
<!-- σ_σ -->
<g id="node8" class="node">
<title>σ_σ</title>
<ellipse fill="none" stroke="black" cx="341.3" cy="-309.38" rx="69.09" ry="37.45"/>
<text text-anchor="middle" x="341.3" y="-320.68" font-family="Times-Roman" font-size="14.00">σ_σ</text>
<text text-anchor="middle" x="341.3" y="-305.68" font-family="Times-Roman" font-size="14.00">~</text>
<text text-anchor="middle" x="341.3" y="-290.68" font-family="Times-Roman" font-size="14.00">HalfNormal</text>
</g>
<!-- σ -->
<g id="node12" class="node">
<title>σ</title>
<ellipse fill="none" stroke="black" cx="467.3" cy="-198.43" rx="69.09" ry="37.45"/>
<text text-anchor="middle" x="467.3" y="-209.73" font-family="Times-Roman" font-size="14.00">σ</text>
<text text-anchor="middle" x="467.3" y="-194.73" font-family="Times-Roman" font-size="14.00">~</text>
<text text-anchor="middle" x="467.3" y="-179.73" font-family="Times-Roman" font-size="14.00">HalfNormal</text>
</g>
<!-- σ_σ&#45;&gt;σ -->
<g id="edge9" class="edge">
<title>σ_σ&#45;&gt;σ</title>
<path fill="none" stroke="black" d="M377.4,-277.16C391.77,-264.74 408.43,-250.33 423.48,-237.32"/>
<polygon fill="black" stroke="black" points="425.91,-239.84 431.18,-230.66 421.33,-234.55 425.91,-239.84"/>
</g>
<!-- μ_h -->
<g id="node9" class="node">
<title>μ_h</title>
<ellipse fill="none" stroke="black" cx="205.3" cy="-309.38" rx="48.58" ry="37.45"/>
<text text-anchor="middle" x="205.3" y="-320.68" font-family="Times-Roman" font-size="14.00">μ_h</text>
<text text-anchor="middle" x="205.3" y="-305.68" font-family="Times-Roman" font-size="14.00">~</text>
<text text-anchor="middle" x="205.3" y="-290.68" font-family="Times-Roman" font-size="14.00">Normal</text>
</g>
<!-- μ_h&#45;&gt;h -->
<g id="edge4" class="edge">
<title>μ_h&#45;&gt;h</title>
<path fill="none" stroke="black" d="M205.3,-271.8C205.3,-263.63 205.3,-254.85 205.3,-246.32"/>
<polygon fill="black" stroke="black" points="208.8,-246.1 205.3,-236.1 201.8,-246.1 208.8,-246.1"/>
</g>
<!-- σ_j -->
<g id="node10" class="node">
<title>σ_j</title>
<ellipse fill="none" stroke="black" cx="613.3" cy="-309.38" rx="69.09" ry="37.45"/>
<text text-anchor="middle" x="613.3" y="-320.68" font-family="Times-Roman" font-size="14.00">σ_j</text>
<text text-anchor="middle" x="613.3" y="-305.68" font-family="Times-Roman" font-size="14.00">~</text>
<text text-anchor="middle" x="613.3" y="-290.68" font-family="Times-Roman" font-size="14.00">HalfNormal</text>
</g>
<!-- σ_j&#45;&gt;j -->
<g id="edge2" class="edge">
<title>σ_j&#45;&gt;j</title>
<path fill="none" stroke="black" d="M609.94,-271.8C609.19,-263.63 608.38,-254.85 607.6,-246.32"/>
<polygon fill="black" stroke="black" points="611.06,-245.74 606.66,-236.1 604.09,-246.38 611.06,-245.74"/>
</g>
<!-- j&#45;&gt;lfc -->
<g id="edge12" class="edge">
<title>j&#45;&gt;lfc</title>
<path fill="none" stroke="black" d="M584.17,-163.7C576.57,-150.28 567.73,-134.68 559.67,-120.47"/>
<polygon fill="black" stroke="black" points="562.49,-118.35 554.51,-111.37 556.4,-121.8 562.49,-118.35"/>
</g>
<!-- σ&#45;&gt;lfc -->
<g id="edge15" class="edge">
<title>σ&#45;&gt;lfc</title>
<path fill="none" stroke="black" d="M487.15,-162.41C494.67,-149.14 503.32,-133.88 511.2,-119.99"/>
<polygon fill="black" stroke="black" points="514.35,-121.52 516.24,-111.09 508.26,-118.07 514.35,-121.52"/>
</g>
<!-- h&#45;&gt;lfc -->
<g id="edge14" class="edge">
<title>h&#45;&gt;lfc</title>
<path fill="none" stroke="black" d="M230.03,-165.71C241.79,-152.72 256.86,-138.71 273.3,-129.95 337.27,-95.86 420.77,-83.84 476.12,-79.64"/>
<polygon fill="black" stroke="black" points="476.38,-83.13 486.12,-78.95 475.9,-76.15 476.38,-83.13"/>
</g>
<!-- d&#45;&gt;lfc -->
<g id="edge13" class="edge">
<title>d&#45;&gt;lfc</title>
<path fill="none" stroke="black" d="M718.17,-169.19C702.72,-156.12 683.33,-141.07 664.3,-129.95 640.81,-116.23 613.05,-104.44 589.32,-95.53"/>
<polygon fill="black" stroke="black" points="590.35,-92.18 579.75,-92.01 587.93,-98.75 590.35,-92.18"/>
</g>
<!-- a&#45;&gt;lfc -->
<g id="edge10" class="edge">
<title>a&#45;&gt;lfc</title>
<path fill="none" stroke="black" d="M977.29,-181.64C934.92,-166.84 868.82,-144.84 810.3,-129.95 736.02,-111.06 648.91,-95.53 592.96,-86.39"/>
<polygon fill="black" stroke="black" points="593.31,-82.9 582.88,-84.76 592.19,-89.81 593.31,-82.9"/>
</g>
</g>
</svg>
