<?xml version="1.0" encoding="UTF-8" standalone="no"?>
<!DOCTYPE svg PUBLIC "-//W3C//DTD SVG 1.1//EN"
 "http://www.w3.org/Graphics/SVG/1.1/DTD/svg11.dtd">
<!-- Generated by graphviz version 2.42.3 (20191010.1750)
 -->
<!-- Title: %3 Pages: 1 -->
<svg width="323pt" height="683pt"
 viewBox="0.00 0.00 322.79 682.72" xmlns="http://www.w3.org/2000/svg" xmlns:xlink="http://www.w3.org/1999/xlink">
<g id="graph0" class="graph" transform="scale(1 1) rotate(0) translate(4 678.72)">
<title>%3</title>
<polygon fill="white" stroke="transparent" points="-4,4 -4,-678.72 318.79,-678.72 318.79,4 -4,4"/>
<g id="clust1" class="cluster">
<title>cluster10 x 20</title>
<path fill="none" stroke="black" d="M80.69,-457.81C80.69,-457.81 180.69,-457.81 180.69,-457.81 186.69,-457.81 192.69,-463.81 192.69,-469.81 192.69,-469.81 192.69,-559.77 192.69,-559.77 192.69,-565.77 186.69,-571.77 180.69,-571.77 180.69,-571.77 80.69,-571.77 80.69,-571.77 74.69,-571.77 68.69,-565.77 68.69,-559.77 68.69,-559.77 68.69,-469.81 68.69,-469.81 68.69,-463.81 74.69,-457.81 80.69,-457.81"/>
<text text-anchor="middle" x="163.69" y="-465.61" font-family="Times,serif" font-size="14.00">10 x 20</text>
</g>
<g id="clust2" class="cluster">
<title>cluster55 x 20</title>
<path fill="none" stroke="black" d="M88.69,-232.91C88.69,-232.91 172.69,-232.91 172.69,-232.91 178.69,-232.91 184.69,-238.91 184.69,-244.91 184.69,-244.91 184.69,-434.84 184.69,-434.84 184.69,-440.84 178.69,-446.84 172.69,-446.84 172.69,-446.84 88.69,-446.84 88.69,-446.84 82.69,-446.84 76.69,-440.84 76.69,-434.84 76.69,-434.84 76.69,-244.91 76.69,-244.91 76.69,-238.91 82.69,-232.91 88.69,-232.91"/>
<text text-anchor="middle" x="155.69" y="-240.71" font-family="Times,serif" font-size="14.00">55 x 20</text>
</g>
<g id="clust3" class="cluster">
<title>cluster1,100</title>
<path fill="none" stroke="black" d="M88.69,-8C88.69,-8 172.69,-8 172.69,-8 178.69,-8 184.69,-14 184.69,-20 184.69,-20 184.69,-209.93 184.69,-209.93 184.69,-215.93 178.69,-221.93 172.69,-221.93 172.69,-221.93 88.69,-221.93 88.69,-221.93 82.69,-221.93 76.69,-215.93 76.69,-209.93 76.69,-209.93 76.69,-20 76.69,-20 76.69,-14 82.69,-8 88.69,-8"/>
<text text-anchor="middle" x="161.19" y="-15.8" font-family="Times,serif" font-size="14.00">1,100</text>
</g>
<!-- mu_gamma -->
<g id="node1" class="node">
<title>mu_gamma</title>
<ellipse fill="none" stroke="black" cx="58.69" cy="-637.24" rx="58.88" ry="37.45"/>
<text text-anchor="middle" x="58.69" y="-648.54" font-family="Times,serif" font-size="14.00">mu_gamma</text>
<text text-anchor="middle" x="58.69" y="-633.54" font-family="Times,serif" font-size="14.00">~</text>
<text text-anchor="middle" x="58.69" y="-618.54" font-family="Times,serif" font-size="14.00">Normal</text>
</g>
<!-- gamma_gc -->
<g id="node5" class="node">
<title>gamma_gc</title>
<ellipse fill="none" stroke="black" cx="130.69" cy="-526.29" rx="54.39" ry="37.45"/>
<text text-anchor="middle" x="130.69" y="-537.59" font-family="Times,serif" font-size="14.00">gamma_gc</text>
<text text-anchor="middle" x="130.69" y="-522.59" font-family="Times,serif" font-size="14.00">~</text>
<text text-anchor="middle" x="130.69" y="-507.59" font-family="Times,serif" font-size="14.00">Normal</text>
</g>
<!-- mu_gamma&#45;&gt;gamma_gc -->
<g id="edge1" class="edge">
<title>mu_gamma&#45;&gt;gamma_gc</title>
<path fill="none" stroke="black" d="M81.08,-602.37C87.98,-591.92 95.67,-580.28 102.89,-569.35"/>
<polygon fill="black" stroke="black" points="105.97,-571.04 108.56,-560.77 100.13,-567.18 105.97,-571.04"/>
</g>
<!-- sigma_alpha -->
<g id="node2" class="node">
<title>sigma_alpha</title>
<ellipse fill="none" stroke="black" cx="254.69" cy="-412.34" rx="60.21" ry="37.45"/>
<text text-anchor="middle" x="254.69" y="-423.64" font-family="Times,serif" font-size="14.00">sigma_alpha</text>
<text text-anchor="middle" x="254.69" y="-408.64" font-family="Times,serif" font-size="14.00">~</text>
<text text-anchor="middle" x="254.69" y="-393.64" font-family="Times,serif" font-size="14.00">Exponential</text>
</g>
<!-- alpha_sc -->
<g id="node6" class="node">
<title>alpha_sc</title>
<ellipse fill="none" stroke="black" cx="130.69" cy="-301.38" rx="45.01" ry="37.45"/>
<text text-anchor="middle" x="130.69" y="-312.68" font-family="Times,serif" font-size="14.00">alpha_sc</text>
<text text-anchor="middle" x="130.69" y="-297.68" font-family="Times,serif" font-size="14.00">~</text>
<text text-anchor="middle" x="130.69" y="-282.68" font-family="Times,serif" font-size="14.00">Normal</text>
</g>
<!-- sigma_alpha&#45;&gt;alpha_sc -->
<g id="edge4" class="edge">
<title>sigma_alpha&#45;&gt;alpha_sc</title>
<path fill="none" stroke="black" d="M220.48,-381.28C204.58,-367.31 185.62,-350.65 169.22,-336.24"/>
<polygon fill="black" stroke="black" points="171.22,-333.34 161.4,-329.37 166.6,-338.6 171.22,-333.34"/>
</g>
<!-- sigma -->
<g id="node3" class="node">
<title>sigma</title>
<ellipse fill="none" stroke="black" cx="251.69" cy="-187.43" rx="57.97" ry="37.45"/>
<text text-anchor="middle" x="251.69" y="-198.73" font-family="Times,serif" font-size="14.00">sigma</text>
<text text-anchor="middle" x="251.69" y="-183.73" font-family="Times,serif" font-size="14.00">~</text>
<text text-anchor="middle" x="251.69" y="-168.73" font-family="Times,serif" font-size="14.00">Exponential</text>
</g>
<!-- log_fc -->
<g id="node8" class="node">
<title>log_fc</title>
<ellipse fill="lightgrey" stroke="black" cx="132.69" cy="-76.48" rx="41.94" ry="37.45"/>
<text text-anchor="middle" x="132.69" y="-87.78" font-family="Times,serif" font-size="14.00">log_fc</text>
<text text-anchor="middle" x="132.69" y="-72.78" font-family="Times,serif" font-size="14.00">~</text>
<text text-anchor="middle" x="132.69" y="-57.78" font-family="Times,serif" font-size="14.00">Normal</text>
</g>
<!-- sigma&#45;&gt;log_fc -->
<g id="edge8" class="edge">
<title>sigma&#45;&gt;log_fc</title>
<path fill="none" stroke="black" d="M218.86,-156.37C203.37,-142.19 184.84,-125.22 168.94,-110.66"/>
<polygon fill="black" stroke="black" points="171.11,-107.9 161.37,-103.73 166.38,-113.07 171.11,-107.9"/>
</g>
<!-- sigma_gamma -->
<g id="node4" class="node">
<title>sigma_gamma</title>
<ellipse fill="none" stroke="black" cx="203.69" cy="-637.24" rx="68.68" ry="37.45"/>
<text text-anchor="middle" x="203.69" y="-648.54" font-family="Times,serif" font-size="14.00">sigma_gamma</text>
<text text-anchor="middle" x="203.69" y="-633.54" font-family="Times,serif" font-size="14.00">~</text>
<text text-anchor="middle" x="203.69" y="-618.54" font-family="Times,serif" font-size="14.00">Exponential</text>
</g>
<!-- sigma_gamma&#45;&gt;gamma_gc -->
<g id="edge2" class="edge">
<title>sigma_gamma&#45;&gt;gamma_gc</title>
<path fill="none" stroke="black" d="M180.59,-601.77C173.67,-591.44 166,-579.99 158.8,-569.24"/>
<polygon fill="black" stroke="black" points="161.61,-567.15 153.14,-560.79 155.8,-571.05 161.61,-567.15"/>
</g>
<!-- mu_alpha_sc -->
<g id="node7" class="node">
<title>mu_alpha_sc</title>
<polygon fill="none" stroke="black" points="176.19,-438.84 85.19,-438.84 85.19,-385.84 176.19,-385.84 176.19,-438.84"/>
<text text-anchor="middle" x="130.69" y="-423.64" font-family="Times,serif" font-size="14.00">mu_alpha_sc</text>
<text text-anchor="middle" x="130.69" y="-408.64" font-family="Times,serif" font-size="14.00">~</text>
<text text-anchor="middle" x="130.69" y="-393.64" font-family="Times,serif" font-size="14.00">Deterministic</text>
</g>
<!-- gamma_gc&#45;&gt;mu_alpha_sc -->
<g id="edge3" class="edge">
<title>gamma_gc&#45;&gt;mu_alpha_sc</title>
<path fill="none" stroke="black" d="M130.69,-488.63C130.69,-475.98 130.69,-461.82 130.69,-449.23"/>
<polygon fill="black" stroke="black" points="134.19,-449.09 130.69,-439.09 127.19,-449.09 134.19,-449.09"/>
</g>
<!-- mu_gc -->
<g id="node9" class="node">
<title>mu_gc</title>
<polygon fill="none" stroke="black" points="176.19,-213.93 85.19,-213.93 85.19,-160.93 176.19,-160.93 176.19,-213.93"/>
<text text-anchor="middle" x="130.69" y="-198.73" font-family="Times,serif" font-size="14.00">mu_gc</text>
<text text-anchor="middle" x="130.69" y="-183.73" font-family="Times,serif" font-size="14.00">~</text>
<text text-anchor="middle" x="130.69" y="-168.73" font-family="Times,serif" font-size="14.00">Deterministic</text>
</g>
<!-- alpha_sc&#45;&gt;mu_gc -->
<g id="edge6" class="edge">
<title>alpha_sc&#45;&gt;mu_gc</title>
<path fill="none" stroke="black" d="M130.69,-263.73C130.69,-251.07 130.69,-236.92 130.69,-224.32"/>
<polygon fill="black" stroke="black" points="134.19,-224.18 130.69,-214.18 127.19,-224.18 134.19,-224.18"/>
</g>
<!-- mu_alpha_sc&#45;&gt;alpha_sc -->
<g id="edge5" class="edge">
<title>mu_alpha_sc&#45;&gt;alpha_sc</title>
<path fill="none" stroke="black" d="M130.69,-385.79C130.69,-374.88 130.69,-361.79 130.69,-349.25"/>
<polygon fill="black" stroke="black" points="134.19,-348.91 130.69,-338.91 127.19,-348.91 134.19,-348.91"/>
</g>
<!-- mu_gc&#45;&gt;log_fc -->
<g id="edge7" class="edge">
<title>mu_gc&#45;&gt;log_fc</title>
<path fill="none" stroke="black" d="M131.16,-160.89C131.36,-149.98 131.6,-136.89 131.83,-124.35"/>
<polygon fill="black" stroke="black" points="135.34,-124.06 132.02,-114 128.34,-123.94 135.34,-124.06"/>
</g>
</g>
</svg>
