<?xml version="1.0" encoding="UTF-8" standalone="no"?>
<!DOCTYPE svg PUBLIC "-//W3C//DTD SVG 1.1//EN"
 "http://www.w3.org/Graphics/SVG/1.1/DTD/svg11.dtd">
<!-- Generated by graphviz version 2.42.3 (20191010.1750)
 -->
<!-- Title: %3 Pages: 1 -->
<svg width="318pt" height="458pt"
 viewBox="0.00 0.00 318.09 457.81" xmlns="http://www.w3.org/2000/svg" xmlns:xlink="http://www.w3.org/1999/xlink">
<g id="graph0" class="graph" transform="scale(1 1) rotate(0) translate(4 453.81)">
<title>%3</title>
<polygon fill="white" stroke="transparent" points="-4,4 -4,-453.81 314.09,-453.81 314.09,4 -4,4"/>
<g id="clust1" class="cluster">
<title>cluster10 x 20</title>
<path fill="none" stroke="black" d="M89.1,-232.91C89.1,-232.91 173.1,-232.91 173.1,-232.91 179.1,-232.91 185.1,-238.91 185.1,-244.91 185.1,-244.91 185.1,-334.86 185.1,-334.86 185.1,-340.86 179.1,-346.86 173.1,-346.86 173.1,-346.86 89.1,-346.86 89.1,-346.86 83.1,-346.86 77.1,-340.86 77.1,-334.86 77.1,-334.86 77.1,-244.91 77.1,-244.91 77.1,-238.91 83.1,-232.91 89.1,-232.91"/>
<text text-anchor="middle" x="156.1" y="-240.71" font-family="Times,serif" font-size="14.00">10 x 20</text>
</g>
<g id="clust2" class="cluster">
<title>cluster1,100</title>
<path fill="none" stroke="black" d="M89.1,-8C89.1,-8 173.1,-8 173.1,-8 179.1,-8 185.1,-14 185.1,-20 185.1,-20 185.1,-209.93 185.1,-209.93 185.1,-215.93 179.1,-221.93 173.1,-221.93 173.1,-221.93 89.1,-221.93 89.1,-221.93 83.1,-221.93 77.1,-215.93 77.1,-209.93 77.1,-209.93 77.1,-20 77.1,-20 77.1,-14 83.1,-8 89.1,-8"/>
<text text-anchor="middle" x="161.6" y="-15.8" font-family="Times,serif" font-size="14.00">1,100</text>
</g>
<!-- sigma_alpha -->
<g id="node1" class="node">
<title>sigma_alpha</title>
<ellipse fill="none" stroke="black" cx="60.1" cy="-412.34" rx="60.21" ry="37.45"/>
<text text-anchor="middle" x="60.1" y="-423.64" font-family="Times,serif" font-size="14.00">sigma_alpha</text>
<text text-anchor="middle" x="60.1" y="-408.64" font-family="Times,serif" font-size="14.00">~</text>
<text text-anchor="middle" x="60.1" y="-393.64" font-family="Times,serif" font-size="14.00">Exponential</text>
</g>
<!-- alpha_gc -->
<g id="node4" class="node">
<title>alpha_gc</title>
<ellipse fill="none" stroke="black" cx="131.1" cy="-301.38" rx="45.92" ry="37.45"/>
<text text-anchor="middle" x="131.1" y="-312.68" font-family="Times,serif" font-size="14.00">alpha_gc</text>
<text text-anchor="middle" x="131.1" y="-297.68" font-family="Times,serif" font-size="14.00">~</text>
<text text-anchor="middle" x="131.1" y="-282.68" font-family="Times,serif" font-size="14.00">Normal</text>
</g>
<!-- sigma_alpha&#45;&gt;alpha_gc -->
<g id="edge1" class="edge">
<title>sigma_alpha&#45;&gt;alpha_gc</title>
<path fill="none" stroke="black" d="M82.18,-377.46C89.25,-366.61 97.16,-354.48 104.52,-343.19"/>
<polygon fill="black" stroke="black" points="107.49,-345.04 110.01,-334.75 101.62,-341.22 107.49,-345.04"/>
</g>
<!-- mu_alpha_gc -->
<g id="node2" class="node">
<title>mu_alpha_gc</title>
<ellipse fill="none" stroke="black" cx="202.1" cy="-412.34" rx="63.78" ry="37.45"/>
<text text-anchor="middle" x="202.1" y="-423.64" font-family="Times,serif" font-size="14.00">mu_alpha_gc</text>
<text text-anchor="middle" x="202.1" y="-408.64" font-family="Times,serif" font-size="14.00">~</text>
<text text-anchor="middle" x="202.1" y="-393.64" font-family="Times,serif" font-size="14.00">Normal</text>
</g>
<!-- mu_alpha_gc&#45;&gt;alpha_gc -->
<g id="edge2" class="edge">
<title>mu_alpha_gc&#45;&gt;alpha_gc</title>
<path fill="none" stroke="black" d="M179.83,-377.16C172.9,-366.53 165.19,-354.68 157.98,-343.62"/>
<polygon fill="black" stroke="black" points="160.72,-341.42 152.33,-334.95 154.85,-345.24 160.72,-341.42"/>
</g>
<!-- sigma -->
<g id="node3" class="node">
<title>sigma</title>
<ellipse fill="none" stroke="black" cx="252.1" cy="-187.43" rx="57.97" ry="37.45"/>
<text text-anchor="middle" x="252.1" y="-198.73" font-family="Times,serif" font-size="14.00">sigma</text>
<text text-anchor="middle" x="252.1" y="-183.73" font-family="Times,serif" font-size="14.00">~</text>
<text text-anchor="middle" x="252.1" y="-168.73" font-family="Times,serif" font-size="14.00">Exponential</text>
</g>
<!-- log_fc -->
<g id="node6" class="node">
<title>log_fc</title>
<ellipse fill="lightgrey" stroke="black" cx="133.1" cy="-76.48" rx="41.94" ry="37.45"/>
<text text-anchor="middle" x="133.1" y="-87.78" font-family="Times,serif" font-size="14.00">log_fc</text>
<text text-anchor="middle" x="133.1" y="-72.78" font-family="Times,serif" font-size="14.00">~</text>
<text text-anchor="middle" x="133.1" y="-57.78" font-family="Times,serif" font-size="14.00">Normal</text>
</g>
<!-- sigma&#45;&gt;log_fc -->
<g id="edge5" class="edge">
<title>sigma&#45;&gt;log_fc</title>
<path fill="none" stroke="black" d="M219.27,-156.37C203.78,-142.19 185.25,-125.22 169.35,-110.66"/>
<polygon fill="black" stroke="black" points="171.52,-107.9 161.78,-103.73 166.79,-113.07 171.52,-107.9"/>
</g>
<!-- mu_gc -->
<g id="node5" class="node">
<title>mu_gc</title>
<polygon fill="none" stroke="black" points="176.6,-213.93 85.6,-213.93 85.6,-160.93 176.6,-160.93 176.6,-213.93"/>
<text text-anchor="middle" x="131.1" y="-198.73" font-family="Times,serif" font-size="14.00">mu_gc</text>
<text text-anchor="middle" x="131.1" y="-183.73" font-family="Times,serif" font-size="14.00">~</text>
<text text-anchor="middle" x="131.1" y="-168.73" font-family="Times,serif" font-size="14.00">Deterministic</text>
</g>
<!-- alpha_gc&#45;&gt;mu_gc -->
<g id="edge3" class="edge">
<title>alpha_gc&#45;&gt;mu_gc</title>
<path fill="none" stroke="black" d="M131.1,-263.73C131.1,-251.07 131.1,-236.92 131.1,-224.32"/>
<polygon fill="black" stroke="black" points="134.6,-224.18 131.1,-214.18 127.6,-224.18 134.6,-224.18"/>
</g>
<!-- mu_gc&#45;&gt;log_fc -->
<g id="edge4" class="edge">
<title>mu_gc&#45;&gt;log_fc</title>
<path fill="none" stroke="black" d="M131.57,-160.89C131.77,-149.98 132.01,-136.89 132.24,-124.35"/>
<polygon fill="black" stroke="black" points="135.75,-124.06 132.43,-114 128.75,-123.94 135.75,-124.06"/>
</g>
</g>
</svg>
