<?xml version="1.0" encoding="UTF-8" standalone="no"?>
<!DOCTYPE svg PUBLIC "-//W3C//DTD SVG 1.1//EN"
 "http://www.w3.org/Graphics/SVG/1.1/DTD/svg11.dtd">
<!-- Generated by graphviz version 2.42.3 (20191010.1750)
 -->
<!-- Title: %3 Pages: 1 -->
<svg width="370pt" height="683pt"
 viewBox="0.00 0.00 370.09 682.72" xmlns="http://www.w3.org/2000/svg" xmlns:xlink="http://www.w3.org/1999/xlink">
<g id="graph0" class="graph" transform="scale(1 1) rotate(0) translate(4 678.72)">
<title>%3</title>
<polygon fill="white" stroke="transparent" points="-4,4 -4,-678.72 366.09,-678.72 366.09,4 -4,4"/>
<g id="clust1" class="cluster">
<title>cluster10 x 20</title>
<path fill="none" stroke="black" d="M134.1,-457.81C134.1,-457.81 234.1,-457.81 234.1,-457.81 240.1,-457.81 246.1,-463.81 246.1,-469.81 246.1,-469.81 246.1,-559.77 246.1,-559.77 246.1,-565.77 240.1,-571.77 234.1,-571.77 234.1,-571.77 134.1,-571.77 134.1,-571.77 128.1,-571.77 122.1,-565.77 122.1,-559.77 122.1,-559.77 122.1,-469.81 122.1,-469.81 122.1,-463.81 128.1,-457.81 134.1,-457.81"/>
<text text-anchor="middle" x="217.1" y="-465.61" font-family="Times,serif" font-size="14.00">10 x 20</text>
</g>
<g id="clust2" class="cluster">
<title>cluster55 x 20</title>
<path fill="none" stroke="black" d="M142.1,-232.91C142.1,-232.91 226.1,-232.91 226.1,-232.91 232.1,-232.91 238.1,-238.91 238.1,-244.91 238.1,-244.91 238.1,-434.84 238.1,-434.84 238.1,-440.84 232.1,-446.84 226.1,-446.84 226.1,-446.84 142.1,-446.84 142.1,-446.84 136.1,-446.84 130.1,-440.84 130.1,-434.84 130.1,-434.84 130.1,-244.91 130.1,-244.91 130.1,-238.91 136.1,-232.91 142.1,-232.91"/>
<text text-anchor="middle" x="209.1" y="-240.71" font-family="Times,serif" font-size="14.00">55 x 20</text>
</g>
<g id="clust3" class="cluster">
<title>cluster1,100</title>
<path fill="none" stroke="black" d="M141.1,-8C141.1,-8 225.1,-8 225.1,-8 231.1,-8 237.1,-14 237.1,-20 237.1,-20 237.1,-209.93 237.1,-209.93 237.1,-215.93 231.1,-221.93 225.1,-221.93 225.1,-221.93 141.1,-221.93 141.1,-221.93 135.1,-221.93 129.1,-215.93 129.1,-209.93 129.1,-209.93 129.1,-20 129.1,-20 129.1,-14 135.1,-8 141.1,-8"/>
<text text-anchor="middle" x="213.6" y="-15.8" font-family="Times,serif" font-size="14.00">1,100</text>
</g>
<!-- sigma_alpha -->
<g id="node1" class="node">
<title>sigma_alpha</title>
<ellipse fill="none" stroke="black" cx="60.1" cy="-412.34" rx="60.21" ry="37.45"/>
<text text-anchor="middle" x="60.1" y="-423.64" font-family="Times,serif" font-size="14.00">sigma_alpha</text>
<text text-anchor="middle" x="60.1" y="-408.64" font-family="Times,serif" font-size="14.00">~</text>
<text text-anchor="middle" x="60.1" y="-393.64" font-family="Times,serif" font-size="14.00">Exponential</text>
</g>
<!-- alpha_sc -->
<g id="node7" class="node">
<title>alpha_sc</title>
<ellipse fill="none" stroke="black" cx="183.1" cy="-301.38" rx="45.01" ry="37.45"/>
<text text-anchor="middle" x="183.1" y="-312.68" font-family="Times,serif" font-size="14.00">alpha_sc</text>
<text text-anchor="middle" x="183.1" y="-297.68" font-family="Times,serif" font-size="14.00">~</text>
<text text-anchor="middle" x="183.1" y="-282.68" font-family="Times,serif" font-size="14.00">Normal</text>
</g>
<!-- sigma_alpha&#45;&gt;alpha_sc -->
<g id="edge5" class="edge">
<title>sigma_alpha&#45;&gt;alpha_sc</title>
<path fill="none" stroke="black" d="M94.04,-381.28C109.81,-367.31 128.62,-350.65 144.88,-336.24"/>
<polygon fill="black" stroke="black" points="147.47,-338.62 152.64,-329.37 142.83,-333.38 147.47,-338.62"/>
</g>
<!-- sigma -->
<g id="node2" class="node">
<title>sigma</title>
<ellipse fill="none" stroke="black" cx="304.1" cy="-187.43" rx="57.97" ry="37.45"/>
<text text-anchor="middle" x="304.1" y="-198.73" font-family="Times,serif" font-size="14.00">sigma</text>
<text text-anchor="middle" x="304.1" y="-183.73" font-family="Times,serif" font-size="14.00">~</text>
<text text-anchor="middle" x="304.1" y="-168.73" font-family="Times,serif" font-size="14.00">Exponential</text>
</g>
<!-- log_fc -->
<g id="node9" class="node">
<title>log_fc</title>
<ellipse fill="lightgrey" stroke="black" cx="185.1" cy="-76.48" rx="41.94" ry="37.45"/>
<text text-anchor="middle" x="185.1" y="-87.78" font-family="Times,serif" font-size="14.00">log_fc</text>
<text text-anchor="middle" x="185.1" y="-72.78" font-family="Times,serif" font-size="14.00">~</text>
<text text-anchor="middle" x="185.1" y="-57.78" font-family="Times,serif" font-size="14.00">Normal</text>
</g>
<!-- sigma&#45;&gt;log_fc -->
<g id="edge8" class="edge">
<title>sigma&#45;&gt;log_fc</title>
<path fill="none" stroke="black" d="M271.27,-156.37C255.78,-142.19 237.25,-125.22 221.35,-110.66"/>
<polygon fill="black" stroke="black" points="223.52,-107.9 213.78,-103.73 218.79,-113.07 223.52,-107.9"/>
</g>
<!-- sigma_gamma -->
<g id="node3" class="node">
<title>sigma_gamma</title>
<ellipse fill="none" stroke="black" cx="112.1" cy="-637.24" rx="68.68" ry="37.45"/>
<text text-anchor="middle" x="112.1" y="-648.54" font-family="Times,serif" font-size="14.00">sigma_gamma</text>
<text text-anchor="middle" x="112.1" y="-633.54" font-family="Times,serif" font-size="14.00">~</text>
<text text-anchor="middle" x="112.1" y="-618.54" font-family="Times,serif" font-size="14.00">Exponential</text>
</g>
<!-- gamma_gc -->
<g id="node5" class="node">
<title>gamma_gc</title>
<ellipse fill="none" stroke="black" cx="184.1" cy="-526.29" rx="54.39" ry="37.45"/>
<text text-anchor="middle" x="184.1" y="-537.59" font-family="Times,serif" font-size="14.00">gamma_gc</text>
<text text-anchor="middle" x="184.1" y="-522.59" font-family="Times,serif" font-size="14.00">~</text>
<text text-anchor="middle" x="184.1" y="-507.59" font-family="Times,serif" font-size="14.00">Normal</text>
</g>
<!-- sigma_gamma&#45;&gt;gamma_gc -->
<g id="edge1" class="edge">
<title>sigma_gamma&#45;&gt;gamma_gc</title>
<path fill="none" stroke="black" d="M134.89,-601.77C141.71,-591.44 149.28,-579.99 156.38,-569.24"/>
<polygon fill="black" stroke="black" points="159.37,-571.07 161.96,-560.79 153.53,-567.21 159.37,-571.07"/>
</g>
<!-- mu_gamma -->
<g id="node4" class="node">
<title>mu_gamma</title>
<ellipse fill="none" stroke="black" cx="257.1" cy="-637.24" rx="58.88" ry="37.45"/>
<text text-anchor="middle" x="257.1" y="-648.54" font-family="Times,serif" font-size="14.00">mu_gamma</text>
<text text-anchor="middle" x="257.1" y="-633.54" font-family="Times,serif" font-size="14.00">~</text>
<text text-anchor="middle" x="257.1" y="-618.54" font-family="Times,serif" font-size="14.00">Normal</text>
</g>
<!-- mu_gamma&#45;&gt;gamma_gc -->
<g id="edge2" class="edge">
<title>mu_gamma&#45;&gt;gamma_gc</title>
<path fill="none" stroke="black" d="M234.41,-602.37C227.41,-591.92 219.61,-580.28 212.29,-569.35"/>
<polygon fill="black" stroke="black" points="215.01,-567.13 206.54,-560.77 209.2,-571.03 215.01,-567.13"/>
</g>
<!-- mu_alpha_sc -->
<g id="node6" class="node">
<title>mu_alpha_sc</title>
<polygon fill="none" stroke="black" points="229.6,-438.84 138.6,-438.84 138.6,-385.84 229.6,-385.84 229.6,-438.84"/>
<text text-anchor="middle" x="184.1" y="-423.64" font-family="Times,serif" font-size="14.00">mu_alpha_sc</text>
<text text-anchor="middle" x="184.1" y="-408.64" font-family="Times,serif" font-size="14.00">~</text>
<text text-anchor="middle" x="184.1" y="-393.64" font-family="Times,serif" font-size="14.00">Deterministic</text>
</g>
<!-- gamma_gc&#45;&gt;mu_alpha_sc -->
<g id="edge3" class="edge">
<title>gamma_gc&#45;&gt;mu_alpha_sc</title>
<path fill="none" stroke="black" d="M184.1,-488.63C184.1,-475.98 184.1,-461.82 184.1,-449.23"/>
<polygon fill="black" stroke="black" points="187.6,-449.09 184.1,-439.09 180.6,-449.09 187.6,-449.09"/>
</g>
<!-- mu_alpha_sc&#45;&gt;alpha_sc -->
<g id="edge4" class="edge">
<title>mu_alpha_sc&#45;&gt;alpha_sc</title>
<path fill="none" stroke="black" d="M183.87,-385.79C183.77,-374.88 183.65,-361.79 183.53,-349.25"/>
<polygon fill="black" stroke="black" points="187.03,-348.88 183.44,-338.91 180.03,-348.94 187.03,-348.88"/>
</g>
<!-- mu_gc -->
<g id="node8" class="node">
<title>mu_gc</title>
<polygon fill="none" stroke="black" points="228.6,-213.93 137.6,-213.93 137.6,-160.93 228.6,-160.93 228.6,-213.93"/>
<text text-anchor="middle" x="183.1" y="-198.73" font-family="Times,serif" font-size="14.00">mu_gc</text>
<text text-anchor="middle" x="183.1" y="-183.73" font-family="Times,serif" font-size="14.00">~</text>
<text text-anchor="middle" x="183.1" y="-168.73" font-family="Times,serif" font-size="14.00">Deterministic</text>
</g>
<!-- alpha_sc&#45;&gt;mu_gc -->
<g id="edge6" class="edge">
<title>alpha_sc&#45;&gt;mu_gc</title>
<path fill="none" stroke="black" d="M183.1,-263.73C183.1,-251.07 183.1,-236.92 183.1,-224.32"/>
<polygon fill="black" stroke="black" points="186.6,-224.18 183.1,-214.18 179.6,-224.18 186.6,-224.18"/>
</g>
<!-- mu_gc&#45;&gt;log_fc -->
<g id="edge7" class="edge">
<title>mu_gc&#45;&gt;log_fc</title>
<path fill="none" stroke="black" d="M183.57,-160.89C183.77,-149.98 184.01,-136.89 184.24,-124.35"/>
<polygon fill="black" stroke="black" points="187.75,-124.06 184.43,-114 180.75,-123.94 187.75,-124.06"/>
</g>
</g>
</svg>
