<?xml version="1.0" encoding="UTF-8" standalone="no"?>
<!DOCTYPE svg PUBLIC "-//W3C//DTD SVG 1.1//EN"
 "http://www.w3.org/Graphics/SVG/1.1/DTD/svg11.dtd">
<!-- Generated by graphviz version 2.42.3 (20191010.1750)
 -->
<!-- Title: %3 Pages: 1 -->
<svg width="322pt" height="458pt"
 viewBox="0.00 0.00 321.62 457.81" xmlns="http://www.w3.org/2000/svg" xmlns:xlink="http://www.w3.org/1999/xlink">
<g id="graph0" class="graph" transform="scale(1 1) rotate(0) translate(4 453.81)">
<title>%3</title>
<polygon fill="white" stroke="transparent" points="-4,4 -4,-453.81 317.62,-453.81 317.62,4 -4,4"/>
<g id="clust1" class="cluster">
<title>cluster10 x 20</title>
<path fill="none" stroke="black" d="M92.64,-232.91C92.64,-232.91 176.64,-232.91 176.64,-232.91 182.64,-232.91 188.64,-238.91 188.64,-244.91 188.64,-244.91 188.64,-334.86 188.64,-334.86 188.64,-340.86 182.64,-346.86 176.64,-346.86 176.64,-346.86 92.64,-346.86 92.64,-346.86 86.64,-346.86 80.64,-340.86 80.64,-334.86 80.64,-334.86 80.64,-244.91 80.64,-244.91 80.64,-238.91 86.64,-232.91 92.64,-232.91"/>
<text text-anchor="middle" x="159.64" y="-240.71" font-family="Times,serif" font-size="14.00">10 x 20</text>
</g>
<g id="clust2" class="cluster">
<title>cluster1,100</title>
<path fill="none" stroke="black" d="M92.64,-8C92.64,-8 176.64,-8 176.64,-8 182.64,-8 188.64,-14 188.64,-20 188.64,-20 188.64,-209.93 188.64,-209.93 188.64,-215.93 182.64,-221.93 176.64,-221.93 176.64,-221.93 92.64,-221.93 92.64,-221.93 86.64,-221.93 80.64,-215.93 80.64,-209.93 80.64,-209.93 80.64,-20 80.64,-20 80.64,-14 86.64,-8 92.64,-8"/>
<text text-anchor="middle" x="165.14" y="-15.8" font-family="Times,serif" font-size="14.00">1,100</text>
</g>
<!-- mu_alpha_gc -->
<g id="node1" class="node">
<title>mu_alpha_gc</title>
<ellipse fill="none" stroke="black" cx="63.64" cy="-412.34" rx="63.78" ry="37.45"/>
<text text-anchor="middle" x="63.64" y="-423.64" font-family="Times,serif" font-size="14.00">mu_alpha_gc</text>
<text text-anchor="middle" x="63.64" y="-408.64" font-family="Times,serif" font-size="14.00">~</text>
<text text-anchor="middle" x="63.64" y="-393.64" font-family="Times,serif" font-size="14.00">Normal</text>
</g>
<!-- alpha_gc -->
<g id="node4" class="node">
<title>alpha_gc</title>
<ellipse fill="none" stroke="black" cx="134.64" cy="-301.38" rx="45.92" ry="37.45"/>
<text text-anchor="middle" x="134.64" y="-312.68" font-family="Times,serif" font-size="14.00">alpha_gc</text>
<text text-anchor="middle" x="134.64" y="-297.68" font-family="Times,serif" font-size="14.00">~</text>
<text text-anchor="middle" x="134.64" y="-282.68" font-family="Times,serif" font-size="14.00">Normal</text>
</g>
<!-- mu_alpha_gc&#45;&gt;alpha_gc -->
<g id="edge1" class="edge">
<title>mu_alpha_gc&#45;&gt;alpha_gc</title>
<path fill="none" stroke="black" d="M85.91,-377.16C92.84,-366.53 100.56,-354.68 107.77,-343.62"/>
<polygon fill="black" stroke="black" points="110.89,-345.24 113.42,-334.95 105.03,-341.42 110.89,-345.24"/>
</g>
<!-- sigma_alpha -->
<g id="node2" class="node">
<title>sigma_alpha</title>
<ellipse fill="none" stroke="black" cx="205.64" cy="-412.34" rx="60.21" ry="37.45"/>
<text text-anchor="middle" x="205.64" y="-423.64" font-family="Times,serif" font-size="14.00">sigma_alpha</text>
<text text-anchor="middle" x="205.64" y="-408.64" font-family="Times,serif" font-size="14.00">~</text>
<text text-anchor="middle" x="205.64" y="-393.64" font-family="Times,serif" font-size="14.00">Exponential</text>
</g>
<!-- sigma_alpha&#45;&gt;alpha_gc -->
<g id="edge2" class="edge">
<title>sigma_alpha&#45;&gt;alpha_gc</title>
<path fill="none" stroke="black" d="M183.56,-377.46C176.49,-366.61 168.59,-354.48 161.23,-343.19"/>
<polygon fill="black" stroke="black" points="164.12,-341.22 155.73,-334.75 158.26,-345.04 164.12,-341.22"/>
</g>
<!-- sigma -->
<g id="node3" class="node">
<title>sigma</title>
<ellipse fill="none" stroke="black" cx="255.64" cy="-187.43" rx="57.97" ry="37.45"/>
<text text-anchor="middle" x="255.64" y="-198.73" font-family="Times,serif" font-size="14.00">sigma</text>
<text text-anchor="middle" x="255.64" y="-183.73" font-family="Times,serif" font-size="14.00">~</text>
<text text-anchor="middle" x="255.64" y="-168.73" font-family="Times,serif" font-size="14.00">Exponential</text>
</g>
<!-- log_fc -->
<g id="node5" class="node">
<title>log_fc</title>
<ellipse fill="lightgrey" stroke="black" cx="136.64" cy="-76.48" rx="41.94" ry="37.45"/>
<text text-anchor="middle" x="136.64" y="-87.78" font-family="Times,serif" font-size="14.00">log_fc</text>
<text text-anchor="middle" x="136.64" y="-72.78" font-family="Times,serif" font-size="14.00">~</text>
<text text-anchor="middle" x="136.64" y="-57.78" font-family="Times,serif" font-size="14.00">Normal</text>
</g>
<!-- sigma&#45;&gt;log_fc -->
<g id="edge5" class="edge">
<title>sigma&#45;&gt;log_fc</title>
<path fill="none" stroke="black" d="M222.81,-156.37C207.32,-142.19 188.79,-125.22 172.89,-110.66"/>
<polygon fill="black" stroke="black" points="175.06,-107.9 165.32,-103.73 170.33,-113.07 175.06,-107.9"/>
</g>
<!-- mu_gc -->
<g id="node6" class="node">
<title>mu_gc</title>
<polygon fill="none" stroke="black" points="180.14,-213.93 89.14,-213.93 89.14,-160.93 180.14,-160.93 180.14,-213.93"/>
<text text-anchor="middle" x="134.64" y="-198.73" font-family="Times,serif" font-size="14.00">mu_gc</text>
<text text-anchor="middle" x="134.64" y="-183.73" font-family="Times,serif" font-size="14.00">~</text>
<text text-anchor="middle" x="134.64" y="-168.73" font-family="Times,serif" font-size="14.00">Deterministic</text>
</g>
<!-- alpha_gc&#45;&gt;mu_gc -->
<g id="edge3" class="edge">
<title>alpha_gc&#45;&gt;mu_gc</title>
<path fill="none" stroke="black" d="M134.64,-263.73C134.64,-251.07 134.64,-236.92 134.64,-224.32"/>
<polygon fill="black" stroke="black" points="138.14,-224.18 134.64,-214.18 131.14,-224.18 138.14,-224.18"/>
</g>
<!-- mu_gc&#45;&gt;log_fc -->
<g id="edge4" class="edge">
<title>mu_gc&#45;&gt;log_fc</title>
<path fill="none" stroke="black" d="M135.11,-160.89C135.31,-149.98 135.55,-136.89 135.78,-124.35"/>
<polygon fill="black" stroke="black" points="139.28,-124.06 135.97,-114 132.29,-123.94 139.28,-124.06"/>
</g>
</g>
</svg>
