<?xml version="1.0" encoding="UTF-8" standalone="no"?>
<!DOCTYPE svg PUBLIC "-//W3C//DTD SVG 1.1//EN"
 "http://www.w3.org/Graphics/SVG/1.1/DTD/svg11.dtd">
<!-- Generated by graphviz version 2.42.3 (20191010.1750)
 -->
<!-- Title: %3 Pages: 1 -->
<svg width="322pt" height="458pt"
 viewBox="0.00 0.00 321.62 457.81" xmlns="http://www.w3.org/2000/svg" xmlns:xlink="http://www.w3.org/1999/xlink">
<g id="graph0" class="graph" transform="scale(1 1) rotate(0) translate(4 453.81)">
<title>%3</title>
<polygon fill="white" stroke="transparent" points="-4,4 -4,-453.81 317.62,-453.81 317.62,4 -4,4"/>
<g id="clust1" class="cluster">
<title>cluster10 x 20</title>
<path fill="none" stroke="black" d="M137.98,-232.91C137.98,-232.91 219.98,-232.91 219.98,-232.91 225.98,-232.91 231.98,-238.91 231.98,-244.91 231.98,-244.91 231.98,-334.86 231.98,-334.86 231.98,-340.86 225.98,-346.86 219.98,-346.86 219.98,-346.86 137.98,-346.86 137.98,-346.86 131.98,-346.86 125.98,-340.86 125.98,-334.86 125.98,-334.86 125.98,-244.91 125.98,-244.91 125.98,-238.91 131.98,-232.91 137.98,-232.91"/>
<text text-anchor="middle" x="202.98" y="-240.71" font-family="Times,serif" font-size="14.00">10 x 20</text>
</g>
<g id="clust2" class="cluster">
<title>cluster1,100</title>
<path fill="none" stroke="black" d="M136.98,-8C136.98,-8 220.98,-8 220.98,-8 226.98,-8 232.98,-14 232.98,-20 232.98,-20 232.98,-209.93 232.98,-209.93 232.98,-215.93 226.98,-221.93 220.98,-221.93 220.98,-221.93 136.98,-221.93 136.98,-221.93 130.98,-221.93 124.98,-215.93 124.98,-209.93 124.98,-209.93 124.98,-20 124.98,-20 124.98,-14 130.98,-8 136.98,-8"/>
<text text-anchor="middle" x="209.48" y="-15.8" font-family="Times,serif" font-size="14.00">1,100</text>
</g>
<!-- sigma -->
<g id="node1" class="node">
<title>sigma</title>
<ellipse fill="none" stroke="black" cx="57.98" cy="-187.43" rx="57.97" ry="37.45"/>
<text text-anchor="middle" x="57.98" y="-198.73" font-family="Times,serif" font-size="14.00">sigma</text>
<text text-anchor="middle" x="57.98" y="-183.73" font-family="Times,serif" font-size="14.00">~</text>
<text text-anchor="middle" x="57.98" y="-168.73" font-family="Times,serif" font-size="14.00">Exponential</text>
</g>
<!-- log_fc -->
<g id="node6" class="node">
<title>log_fc</title>
<ellipse fill="lightgrey" stroke="black" cx="176.98" cy="-76.48" rx="41.94" ry="37.45"/>
<text text-anchor="middle" x="176.98" y="-87.78" font-family="Times,serif" font-size="14.00">log_fc</text>
<text text-anchor="middle" x="176.98" y="-72.78" font-family="Times,serif" font-size="14.00">~</text>
<text text-anchor="middle" x="176.98" y="-57.78" font-family="Times,serif" font-size="14.00">Normal</text>
</g>
<!-- sigma&#45;&gt;log_fc -->
<g id="edge5" class="edge">
<title>sigma&#45;&gt;log_fc</title>
<path fill="none" stroke="black" d="M90.82,-156.37C106.3,-142.19 124.83,-125.22 140.74,-110.66"/>
<polygon fill="black" stroke="black" points="143.29,-113.07 148.31,-103.73 138.57,-107.9 143.29,-113.07"/>
</g>
<!-- sigma_alpha -->
<g id="node2" class="node">
<title>sigma_alpha</title>
<ellipse fill="none" stroke="black" cx="107.98" cy="-412.34" rx="60.21" ry="37.45"/>
<text text-anchor="middle" x="107.98" y="-423.64" font-family="Times,serif" font-size="14.00">sigma_alpha</text>
<text text-anchor="middle" x="107.98" y="-408.64" font-family="Times,serif" font-size="14.00">~</text>
<text text-anchor="middle" x="107.98" y="-393.64" font-family="Times,serif" font-size="14.00">Exponential</text>
</g>
<!-- alpha_sc -->
<g id="node4" class="node">
<title>alpha_sc</title>
<ellipse fill="none" stroke="black" cx="178.98" cy="-301.38" rx="45.01" ry="37.45"/>
<text text-anchor="middle" x="178.98" y="-312.68" font-family="Times,serif" font-size="14.00">alpha_sc</text>
<text text-anchor="middle" x="178.98" y="-297.68" font-family="Times,serif" font-size="14.00">~</text>
<text text-anchor="middle" x="178.98" y="-282.68" font-family="Times,serif" font-size="14.00">Normal</text>
</g>
<!-- sigma_alpha&#45;&gt;alpha_sc -->
<g id="edge1" class="edge">
<title>sigma_alpha&#45;&gt;alpha_sc</title>
<path fill="none" stroke="black" d="M130.06,-377.46C137.13,-366.61 145.04,-354.48 152.39,-343.19"/>
<polygon fill="black" stroke="black" points="155.36,-345.04 157.89,-334.75 149.5,-341.22 155.36,-345.04"/>
</g>
<!-- mu_alpha_gc -->
<g id="node3" class="node">
<title>mu_alpha_gc</title>
<ellipse fill="none" stroke="black" cx="249.98" cy="-412.34" rx="63.78" ry="37.45"/>
<text text-anchor="middle" x="249.98" y="-423.64" font-family="Times,serif" font-size="14.00">mu_alpha_gc</text>
<text text-anchor="middle" x="249.98" y="-408.64" font-family="Times,serif" font-size="14.00">~</text>
<text text-anchor="middle" x="249.98" y="-393.64" font-family="Times,serif" font-size="14.00">Normal</text>
</g>
<!-- mu_alpha_gc&#45;&gt;alpha_sc -->
<g id="edge2" class="edge">
<title>mu_alpha_gc&#45;&gt;alpha_sc</title>
<path fill="none" stroke="black" d="M227.71,-377.16C220.78,-366.53 213.06,-354.68 205.85,-343.62"/>
<polygon fill="black" stroke="black" points="208.6,-341.42 200.2,-334.95 202.73,-345.24 208.6,-341.42"/>
</g>
<!-- mu_gc -->
<g id="node5" class="node">
<title>mu_gc</title>
<polygon fill="none" stroke="black" points="224.48,-213.93 133.48,-213.93 133.48,-160.93 224.48,-160.93 224.48,-213.93"/>
<text text-anchor="middle" x="178.98" y="-198.73" font-family="Times,serif" font-size="14.00">mu_gc</text>
<text text-anchor="middle" x="178.98" y="-183.73" font-family="Times,serif" font-size="14.00">~</text>
<text text-anchor="middle" x="178.98" y="-168.73" font-family="Times,serif" font-size="14.00">Deterministic</text>
</g>
<!-- alpha_sc&#45;&gt;mu_gc -->
<g id="edge3" class="edge">
<title>alpha_sc&#45;&gt;mu_gc</title>
<path fill="none" stroke="black" d="M178.98,-263.73C178.98,-251.07 178.98,-236.92 178.98,-224.32"/>
<polygon fill="black" stroke="black" points="182.48,-224.18 178.98,-214.18 175.48,-224.18 182.48,-224.18"/>
</g>
<!-- mu_gc&#45;&gt;log_fc -->
<g id="edge4" class="edge">
<title>mu_gc&#45;&gt;log_fc</title>
<path fill="none" stroke="black" d="M178.51,-160.89C178.31,-149.98 178.07,-136.89 177.84,-124.35"/>
<polygon fill="black" stroke="black" points="181.34,-123.94 177.65,-114 174.34,-124.06 181.34,-123.94"/>
</g>
</g>
</svg>
