<?xml version="1.0" encoding="UTF-8" standalone="no"?>
<!DOCTYPE svg PUBLIC "-//W3C//DTD SVG 1.1//EN"
 "http://www.w3.org/Graphics/SVG/1.1/DTD/svg11.dtd">
<!-- Generated by graphviz version 2.47.0 (20210327.0129)
 -->
<!-- Pages: 1 -->
<svg width="584pt" height="702pt"
 viewBox="0.00 0.00 584.03 701.72" xmlns="http://www.w3.org/2000/svg" xmlns:xlink="http://www.w3.org/1999/xlink">
<g id="graph0" class="graph" transform="scale(1 1) rotate(0) translate(4 697.72)">
<polygon fill="white" stroke="transparent" points="-4,4 -4,-697.72 580.03,-697.72 580.03,4 -4,4"/>
<g id="clust1" class="cluster">
<title>cluster1 x 10</title>
<path fill="none" stroke="black" d="M169,-476.81C169,-476.81 299,-476.81 299,-476.81 305,-476.81 311,-482.81 311,-488.81 311,-488.81 311,-578.77 311,-578.77 311,-584.77 305,-590.77 299,-590.77 299,-590.77 169,-590.77 169,-590.77 163,-590.77 157,-584.77 157,-578.77 157,-578.77 157,-488.81 157,-488.81 157,-482.81 163,-476.81 169,-476.81"/>
<text text-anchor="middle" x="280.5" y="-484.61" font-family="Times-Roman" font-size="14.00">1 x 10</text>
</g>
<g id="clust2" class="cluster">
<title>cluster192 x 1</title>
<path fill="none" stroke="black" d="M20,-354.86C20,-354.86 150,-354.86 150,-354.86 156,-354.86 162,-360.86 162,-366.86 162,-366.86 162,-456.81 162,-456.81 162,-462.81 156,-468.81 150,-468.81 150,-468.81 20,-468.81 20,-468.81 14,-468.81 8,-462.81 8,-456.81 8,-456.81 8,-366.86 8,-366.86 8,-360.86 14,-354.86 20,-354.86"/>
<text text-anchor="middle" x="127" y="-362.66" font-family="Times-Roman" font-size="14.00">192 x 1</text>
</g>
<g id="clust3" class="cluster">
<title>cluster64 x 1</title>
<path fill="none" stroke="black" d="M338,-476.81C338,-476.81 428,-476.81 428,-476.81 434,-476.81 440,-482.81 440,-488.81 440,-488.81 440,-578.77 440,-578.77 440,-584.77 434,-590.77 428,-590.77 428,-590.77 338,-590.77 338,-590.77 332,-590.77 326,-584.77 326,-578.77 326,-578.77 326,-488.81 326,-488.81 326,-482.81 332,-476.81 338,-476.81"/>
<text text-anchor="middle" x="409.5" y="-484.61" font-family="Times-Roman" font-size="14.00">64 x 1</text>
</g>
<g id="clust4" class="cluster">
<title>cluster64 x 10</title>
<path fill="none" stroke="black" d="M189,-354.86C189,-354.86 279,-354.86 279,-354.86 285,-354.86 291,-360.86 291,-366.86 291,-366.86 291,-456.81 291,-456.81 291,-462.81 285,-468.81 279,-468.81 279,-468.81 189,-468.81 189,-468.81 183,-468.81 177,-462.81 177,-456.81 177,-456.81 177,-366.86 177,-366.86 177,-360.86 183,-354.86 189,-354.86"/>
<text text-anchor="middle" x="256" y="-362.66" font-family="Times-Roman" font-size="14.00">64 x 10</text>
</g>
<g id="clust5" class="cluster">
<title>cluster192 x 10</title>
<path fill="none" stroke="black" d="M114,-232.91C114,-232.91 204,-232.91 204,-232.91 210,-232.91 216,-238.91 216,-244.91 216,-244.91 216,-334.86 216,-334.86 216,-340.86 210,-346.86 204,-346.86 204,-346.86 114,-346.86 114,-346.86 108,-346.86 102,-340.86 102,-334.86 102,-334.86 102,-244.91 102,-244.91 102,-238.91 108,-232.91 114,-232.91"/>
<text text-anchor="middle" x="176.5" y="-240.71" font-family="Times-Roman" font-size="14.00">192 x 10</text>
</g>
<g id="clust6" class="cluster">
<title>cluster1,443</title>
<path fill="none" stroke="black" d="M107,-8C107,-8 211,-8 211,-8 217,-8 223,-14 223,-20 223,-20 223,-209.93 223,-209.93 223,-215.93 217,-221.93 211,-221.93 211,-221.93 107,-221.93 107,-221.93 101,-221.93 95,-215.93 95,-209.93 95,-209.93 95,-20 95,-20 95,-14 101,-8 107,-8"/>
<text text-anchor="middle" x="194.5" y="-15.8" font-family="Times-Roman" font-size="14.00">1,443</text>
</g>
<!-- σ_σ_a -->
<g id="node1" class="node">
<title>σ_σ_a</title>
<ellipse fill="none" stroke="black" cx="77" cy="-545.29" rx="69.09" ry="37.45"/>
<text text-anchor="middle" x="77" y="-556.59" font-family="Times-Roman" font-size="14.00">σ_σ_a</text>
<text text-anchor="middle" x="77" y="-541.59" font-family="Times-Roman" font-size="14.00">~</text>
<text text-anchor="middle" x="77" y="-526.59" font-family="Times-Roman" font-size="14.00">HalfNormal</text>
</g>
<!-- σ_a -->
<g id="node7" class="node">
<title>σ_a</title>
<ellipse fill="none" stroke="black" cx="85" cy="-423.34" rx="69.09" ry="37.45"/>
<text text-anchor="middle" x="85" y="-434.64" font-family="Times-Roman" font-size="14.00">σ_a</text>
<text text-anchor="middle" x="85" y="-419.64" font-family="Times-Roman" font-size="14.00">~</text>
<text text-anchor="middle" x="85" y="-404.64" font-family="Times-Roman" font-size="14.00">HalfNormal</text>
</g>
<!-- σ_σ_a&#45;&gt;σ_a -->
<g id="edge2" class="edge">
<title>σ_σ_a&#45;&gt;σ_a</title>
<path fill="none" stroke="black" d="M79.44,-507.65C80.2,-496.24 81.05,-483.51 81.86,-471.49"/>
<polygon fill="black" stroke="black" points="85.37,-471.38 82.54,-461.17 78.39,-470.91 85.37,-471.38"/>
</g>
<!-- σ_μ_μ_a -->
<g id="node2" class="node">
<title>σ_μ_μ_a</title>
<ellipse fill="none" stroke="black" cx="383" cy="-656.24" rx="69.09" ry="37.45"/>
<text text-anchor="middle" x="383" y="-667.54" font-family="Times-Roman" font-size="14.00">σ_μ_μ_a</text>
<text text-anchor="middle" x="383" y="-652.54" font-family="Times-Roman" font-size="14.00">~</text>
<text text-anchor="middle" x="383" y="-637.54" font-family="Times-Roman" font-size="14.00">HalfNormal</text>
</g>
<!-- μ_μ_a -->
<g id="node8" class="node">
<title>μ_μ_a</title>
<ellipse fill="none" stroke="black" cx="383" cy="-545.29" rx="48.58" ry="37.45"/>
<text text-anchor="middle" x="383" y="-556.59" font-family="Times-Roman" font-size="14.00">μ_μ_a</text>
<text text-anchor="middle" x="383" y="-541.59" font-family="Times-Roman" font-size="14.00">~</text>
<text text-anchor="middle" x="383" y="-526.59" font-family="Times-Roman" font-size="14.00">Normal</text>
</g>
<!-- σ_μ_μ_a&#45;&gt;μ_μ_a -->
<g id="edge3" class="edge">
<title>σ_μ_μ_a&#45;&gt;μ_μ_a</title>
<path fill="none" stroke="black" d="M383,-618.66C383,-610.49 383,-601.71 383,-593.18"/>
<polygon fill="black" stroke="black" points="386.5,-592.96 383,-582.96 379.5,-592.96 386.5,-592.96"/>
</g>
<!-- σ_σ_μ_a -->
<g id="node3" class="node">
<title>σ_σ_μ_a</title>
<ellipse fill="none" stroke="black" cx="226" cy="-656.24" rx="69.09" ry="37.45"/>
<text text-anchor="middle" x="226" y="-667.54" font-family="Times-Roman" font-size="14.00">σ_σ_μ_a</text>
<text text-anchor="middle" x="226" y="-652.54" font-family="Times-Roman" font-size="14.00">~</text>
<text text-anchor="middle" x="226" y="-637.54" font-family="Times-Roman" font-size="14.00">HalfNormal</text>
</g>
<!-- σ_μ_a -->
<g id="node6" class="node">
<title>σ_μ_a</title>
<ellipse fill="none" stroke="black" cx="234" cy="-545.29" rx="69.09" ry="37.45"/>
<text text-anchor="middle" x="234" y="-556.59" font-family="Times-Roman" font-size="14.00">σ_μ_a</text>
<text text-anchor="middle" x="234" y="-541.59" font-family="Times-Roman" font-size="14.00">~</text>
<text text-anchor="middle" x="234" y="-526.59" font-family="Times-Roman" font-size="14.00">HalfNormal</text>
</g>
<!-- σ_σ_μ_a&#45;&gt;σ_μ_a -->
<g id="edge1" class="edge">
<title>σ_σ_μ_a&#45;&gt;σ_μ_a</title>
<path fill="none" stroke="black" d="M228.69,-618.66C229.29,-610.49 229.93,-601.71 230.56,-593.18"/>
<polygon fill="black" stroke="black" points="234.07,-593.19 231.31,-582.96 227.08,-592.68 234.07,-593.19"/>
</g>
<!-- σ -->
<g id="node4" class="node">
<title>σ</title>
<ellipse fill="none" stroke="black" cx="302" cy="-187.43" rx="69.09" ry="37.45"/>
<text text-anchor="middle" x="302" y="-198.73" font-family="Times-Roman" font-size="14.00">σ</text>
<text text-anchor="middle" x="302" y="-183.73" font-family="Times-Roman" font-size="14.00">~</text>
<text text-anchor="middle" x="302" y="-168.73" font-family="Times-Roman" font-size="14.00">HalfNormal</text>
</g>
<!-- lfc -->
<g id="node12" class="node">
<title>lfc</title>
<ellipse fill="lightgrey" stroke="black" cx="162" cy="-76.48" rx="48.58" ry="37.45"/>
<text text-anchor="middle" x="162" y="-87.78" font-family="Times-Roman" font-size="14.00">lfc</text>
<text text-anchor="middle" x="162" y="-72.78" font-family="Times-Roman" font-size="14.00">~</text>
<text text-anchor="middle" x="162" y="-57.78" font-family="Times-Roman" font-size="14.00">Normal</text>
</g>
<!-- σ&#45;&gt;lfc -->
<g id="edge10" class="edge">
<title>σ&#45;&gt;lfc</title>
<path fill="none" stroke="black" d="M263,-156.08C244.68,-141.82 222.8,-124.79 204.1,-110.24"/>
<polygon fill="black" stroke="black" points="206.07,-107.34 196.03,-103.96 201.77,-112.86 206.07,-107.34"/>
</g>
<!-- μ_μ_μ_a -->
<g id="node5" class="node">
<title>μ_μ_μ_a</title>
<ellipse fill="none" stroke="black" cx="523" cy="-656.24" rx="53.07" ry="37.45"/>
<text text-anchor="middle" x="523" y="-667.54" font-family="Times-Roman" font-size="14.00">μ_μ_μ_a</text>
<text text-anchor="middle" x="523" y="-652.54" font-family="Times-Roman" font-size="14.00">~</text>
<text text-anchor="middle" x="523" y="-637.54" font-family="Times-Roman" font-size="14.00">Normal</text>
</g>
<!-- μ_μ_μ_a&#45;&gt;μ_μ_a -->
<g id="edge4" class="edge">
<title>μ_μ_μ_a&#45;&gt;μ_μ_a</title>
<path fill="none" stroke="black" d="M488.03,-628.03C468.96,-613.18 445.2,-594.7 425.11,-579.06"/>
<polygon fill="black" stroke="black" points="427.08,-576.16 417.04,-572.78 422.78,-581.68 427.08,-576.16"/>
</g>
<!-- μ_a -->
<g id="node9" class="node">
<title>μ_a</title>
<ellipse fill="none" stroke="black" cx="234" cy="-423.34" rx="48.58" ry="37.45"/>
<text text-anchor="middle" x="234" y="-434.64" font-family="Times-Roman" font-size="14.00">μ_a</text>
<text text-anchor="middle" x="234" y="-419.64" font-family="Times-Roman" font-size="14.00">~</text>
<text text-anchor="middle" x="234" y="-404.64" font-family="Times-Roman" font-size="14.00">Normal</text>
</g>
<!-- σ_μ_a&#45;&gt;μ_a -->
<g id="edge6" class="edge">
<title>σ_μ_a&#45;&gt;μ_a</title>
<path fill="none" stroke="black" d="M234,-507.65C234,-496.24 234,-483.51 234,-471.49"/>
<polygon fill="black" stroke="black" points="237.5,-471.17 234,-461.17 230.5,-471.17 237.5,-471.17"/>
</g>
<!-- a -->
<g id="node10" class="node">
<title>a</title>
<ellipse fill="none" stroke="black" cx="159" cy="-301.38" rx="48.58" ry="37.45"/>
<text text-anchor="middle" x="159" y="-312.68" font-family="Times-Roman" font-size="14.00">a</text>
<text text-anchor="middle" x="159" y="-297.68" font-family="Times-Roman" font-size="14.00">~</text>
<text text-anchor="middle" x="159" y="-282.68" font-family="Times-Roman" font-size="14.00">Normal</text>
</g>
<!-- σ_a&#45;&gt;a -->
<g id="edge7" class="edge">
<title>σ_a&#45;&gt;a</title>
<path fill="none" stroke="black" d="M106.4,-387.64C114.75,-374.12 124.38,-358.5 133.11,-344.35"/>
<polygon fill="black" stroke="black" points="136.14,-346.11 138.41,-335.76 130.18,-342.44 136.14,-346.11"/>
</g>
<!-- μ_μ_a&#45;&gt;μ_a -->
<g id="edge5" class="edge">
<title>μ_μ_a&#45;&gt;μ_a</title>
<path fill="none" stroke="black" d="M355.45,-514.35C343.54,-502.11 329.12,-488.19 315,-476.81 304.39,-468.27 292.36,-459.86 280.87,-452.36"/>
<polygon fill="black" stroke="black" points="282.53,-449.27 272.22,-446.82 278.75,-455.16 282.53,-449.27"/>
</g>
<!-- μ_a&#45;&gt;a -->
<g id="edge8" class="edge">
<title>μ_a&#45;&gt;a</title>
<path fill="none" stroke="black" d="M213.31,-389.24C204.54,-375.21 194.22,-358.71 184.94,-343.88"/>
<polygon fill="black" stroke="black" points="187.89,-341.99 179.63,-335.37 181.96,-345.71 187.89,-341.99"/>
</g>
<!-- μ -->
<g id="node11" class="node">
<title>μ</title>
<polygon fill="none" stroke="black" points="215,-213.93 103,-213.93 103,-160.93 215,-160.93 215,-213.93"/>
<text text-anchor="middle" x="159" y="-198.73" font-family="Times-Roman" font-size="14.00">μ</text>
<text text-anchor="middle" x="159" y="-183.73" font-family="Times-Roman" font-size="14.00">~</text>
<text text-anchor="middle" x="159" y="-168.73" font-family="Times-Roman" font-size="14.00">Deterministic</text>
</g>
<!-- a&#45;&gt;μ -->
<g id="edge9" class="edge">
<title>a&#45;&gt;μ</title>
<path fill="none" stroke="black" d="M159,-263.73C159,-251.07 159,-236.92 159,-224.32"/>
<polygon fill="black" stroke="black" points="162.5,-224.18 159,-214.18 155.5,-224.18 162.5,-224.18"/>
</g>
<!-- μ&#45;&gt;lfc -->
<g id="edge11" class="edge">
<title>μ&#45;&gt;lfc</title>
<path fill="none" stroke="black" d="M159.7,-160.89C160,-149.98 160.36,-136.89 160.71,-124.35"/>
<polygon fill="black" stroke="black" points="164.22,-124.09 160.99,-114 157.22,-123.9 164.22,-124.09"/>
</g>
</g>
</svg>
