<?xml version="1.0" encoding="UTF-8" standalone="no"?>
<!DOCTYPE svg PUBLIC "-//W3C//DTD SVG 1.1//EN"
 "http://www.w3.org/Graphics/SVG/1.1/DTD/svg11.dtd">
<!-- Generated by graphviz version 2.47.0 (20210327.0129)
 -->
<!-- Pages: 1 -->
<svg width="515pt" height="702pt"
 viewBox="0.00 0.00 515.30 701.72" xmlns="http://www.w3.org/2000/svg" xmlns:xlink="http://www.w3.org/1999/xlink">
<g id="graph0" class="graph" transform="scale(1 1) rotate(0) translate(4 697.72)">
<polygon fill="white" stroke="transparent" points="-4,4 -4,-697.72 511.3,-697.72 511.3,4 -4,4"/>
<g id="clust1" class="cluster">
<title>cluster1 x 10</title>
<path fill="none" stroke="black" d="M20,-476.81C20,-476.81 150,-476.81 150,-476.81 156,-476.81 162,-482.81 162,-488.81 162,-488.81 162,-578.77 162,-578.77 162,-584.77 156,-590.77 150,-590.77 150,-590.77 20,-590.77 20,-590.77 14,-590.77 8,-584.77 8,-578.77 8,-578.77 8,-488.81 8,-488.81 8,-482.81 14,-476.81 20,-476.81"/>
<text text-anchor="middle" x="131.5" y="-484.61" font-family="Times-Roman" font-size="14.00">1 x 10</text>
</g>
<g id="clust2" class="cluster">
<title>cluster192 x 1</title>
<path fill="none" stroke="black" d="M301,-354.86C301,-354.86 431,-354.86 431,-354.86 437,-354.86 443,-360.86 443,-366.86 443,-366.86 443,-456.81 443,-456.81 443,-462.81 437,-468.81 431,-468.81 431,-468.81 301,-468.81 301,-468.81 295,-468.81 289,-462.81 289,-456.81 289,-456.81 289,-366.86 289,-366.86 289,-360.86 295,-354.86 301,-354.86"/>
<text text-anchor="middle" x="408" y="-362.66" font-family="Times-Roman" font-size="14.00">192 x 1</text>
</g>
<g id="clust3" class="cluster">
<title>cluster64 x 1</title>
<path fill="none" stroke="black" d="M182,-476.81C182,-476.81 272,-476.81 272,-476.81 278,-476.81 284,-482.81 284,-488.81 284,-488.81 284,-578.77 284,-578.77 284,-584.77 278,-590.77 272,-590.77 272,-590.77 182,-590.77 182,-590.77 176,-590.77 170,-584.77 170,-578.77 170,-578.77 170,-488.81 170,-488.81 170,-482.81 176,-476.81 182,-476.81"/>
<text text-anchor="middle" x="253.5" y="-484.61" font-family="Times-Roman" font-size="14.00">64 x 1</text>
</g>
<g id="clust4" class="cluster">
<title>cluster64 x 10</title>
<path fill="none" stroke="black" d="M179,-354.86C179,-354.86 269,-354.86 269,-354.86 275,-354.86 281,-360.86 281,-366.86 281,-366.86 281,-456.81 281,-456.81 281,-462.81 275,-468.81 269,-468.81 269,-468.81 179,-468.81 179,-468.81 173,-468.81 167,-462.81 167,-456.81 167,-456.81 167,-366.86 167,-366.86 167,-360.86 173,-354.86 179,-354.86"/>
<text text-anchor="middle" x="246" y="-362.66" font-family="Times-Roman" font-size="14.00">64 x 10</text>
</g>
<g id="clust5" class="cluster">
<title>cluster192 x 10</title>
<path fill="none" stroke="black" d="M250,-232.91C250,-232.91 340,-232.91 340,-232.91 346,-232.91 352,-238.91 352,-244.91 352,-244.91 352,-334.86 352,-334.86 352,-340.86 346,-346.86 340,-346.86 340,-346.86 250,-346.86 250,-346.86 244,-346.86 238,-340.86 238,-334.86 238,-334.86 238,-244.91 238,-244.91 238,-238.91 244,-232.91 250,-232.91"/>
<text text-anchor="middle" x="312.5" y="-240.71" font-family="Times-Roman" font-size="14.00">192 x 10</text>
</g>
<g id="clust6" class="cluster">
<title>cluster1,443</title>
<path fill="none" stroke="black" d="M243,-8C243,-8 347,-8 347,-8 353,-8 359,-14 359,-20 359,-20 359,-209.93 359,-209.93 359,-215.93 353,-221.93 347,-221.93 347,-221.93 243,-221.93 243,-221.93 237,-221.93 231,-215.93 231,-209.93 231,-209.93 231,-20 231,-20 231,-14 237,-8 243,-8"/>
<text text-anchor="middle" x="330.5" y="-15.8" font-family="Times-Roman" font-size="14.00">1,443</text>
</g>
<!-- σ_σ_μ_a -->
<g id="node1" class="node">
<title>σ_σ_μ_a</title>
<ellipse fill="none" stroke="black" cx="85" cy="-656.24" rx="69.09" ry="37.45"/>
<text text-anchor="middle" x="85" y="-667.54" font-family="Times-Roman" font-size="14.00">σ_σ_μ_a</text>
<text text-anchor="middle" x="85" y="-652.54" font-family="Times-Roman" font-size="14.00">~</text>
<text text-anchor="middle" x="85" y="-637.54" font-family="Times-Roman" font-size="14.00">HalfNormal</text>
</g>
<!-- σ_μ_a -->
<g id="node6" class="node">
<title>σ_μ_a</title>
<ellipse fill="none" stroke="black" cx="85" cy="-545.29" rx="69.09" ry="37.45"/>
<text text-anchor="middle" x="85" y="-556.59" font-family="Times-Roman" font-size="14.00">σ_μ_a</text>
<text text-anchor="middle" x="85" y="-541.59" font-family="Times-Roman" font-size="14.00">~</text>
<text text-anchor="middle" x="85" y="-526.59" font-family="Times-Roman" font-size="14.00">HalfNormal</text>
</g>
<!-- σ_σ_μ_a&#45;&gt;σ_μ_a -->
<g id="edge1" class="edge">
<title>σ_σ_μ_a&#45;&gt;σ_μ_a</title>
<path fill="none" stroke="black" d="M85,-618.66C85,-610.49 85,-601.71 85,-593.18"/>
<polygon fill="black" stroke="black" points="88.5,-592.96 85,-582.96 81.5,-592.96 88.5,-592.96"/>
</g>
<!-- μ_μ_μ_a -->
<g id="node2" class="node">
<title>μ_μ_μ_a</title>
<ellipse fill="none" stroke="black" cx="226" cy="-656.24" rx="53.07" ry="37.45"/>
<text text-anchor="middle" x="226" y="-667.54" font-family="Times-Roman" font-size="14.00">μ_μ_μ_a</text>
<text text-anchor="middle" x="226" y="-652.54" font-family="Times-Roman" font-size="14.00">~</text>
<text text-anchor="middle" x="226" y="-637.54" font-family="Times-Roman" font-size="14.00">Normal</text>
</g>
<!-- μ_μ_a -->
<g id="node8" class="node">
<title>μ_μ_a</title>
<ellipse fill="none" stroke="black" cx="227" cy="-545.29" rx="48.58" ry="37.45"/>
<text text-anchor="middle" x="227" y="-556.59" font-family="Times-Roman" font-size="14.00">μ_μ_a</text>
<text text-anchor="middle" x="227" y="-541.59" font-family="Times-Roman" font-size="14.00">~</text>
<text text-anchor="middle" x="227" y="-526.59" font-family="Times-Roman" font-size="14.00">Normal</text>
</g>
<!-- μ_μ_μ_a&#45;&gt;μ_μ_a -->
<g id="edge4" class="edge">
<title>μ_μ_μ_a&#45;&gt;μ_μ_a</title>
<path fill="none" stroke="black" d="M226.34,-618.66C226.41,-610.49 226.49,-601.71 226.57,-593.18"/>
<polygon fill="black" stroke="black" points="230.07,-592.99 226.66,-582.96 223.07,-592.93 230.07,-592.99"/>
</g>
<!-- σ_μ_μ_a -->
<g id="node3" class="node">
<title>σ_μ_μ_a</title>
<ellipse fill="none" stroke="black" cx="366" cy="-656.24" rx="69.09" ry="37.45"/>
<text text-anchor="middle" x="366" y="-667.54" font-family="Times-Roman" font-size="14.00">σ_μ_μ_a</text>
<text text-anchor="middle" x="366" y="-652.54" font-family="Times-Roman" font-size="14.00">~</text>
<text text-anchor="middle" x="366" y="-637.54" font-family="Times-Roman" font-size="14.00">HalfNormal</text>
</g>
<!-- σ_μ_μ_a&#45;&gt;μ_μ_a -->
<g id="edge3" class="edge">
<title>σ_μ_μ_a&#45;&gt;μ_μ_a</title>
<path fill="none" stroke="black" d="M327.28,-624.89C309.09,-610.63 287.37,-593.61 268.8,-579.05"/>
<polygon fill="black" stroke="black" points="270.82,-576.19 260.79,-572.77 266.5,-581.7 270.82,-576.19"/>
</g>
<!-- σ -->
<g id="node4" class="node">
<title>σ</title>
<ellipse fill="none" stroke="black" cx="438" cy="-187.43" rx="69.09" ry="37.45"/>
<text text-anchor="middle" x="438" y="-198.73" font-family="Times-Roman" font-size="14.00">σ</text>
<text text-anchor="middle" x="438" y="-183.73" font-family="Times-Roman" font-size="14.00">~</text>
<text text-anchor="middle" x="438" y="-168.73" font-family="Times-Roman" font-size="14.00">HalfNormal</text>
</g>
<!-- lfc -->
<g id="node11" class="node">
<title>lfc</title>
<ellipse fill="lightgrey" stroke="black" cx="298" cy="-76.48" rx="48.58" ry="37.45"/>
<text text-anchor="middle" x="298" y="-87.78" font-family="Times-Roman" font-size="14.00">lfc</text>
<text text-anchor="middle" x="298" y="-72.78" font-family="Times-Roman" font-size="14.00">~</text>
<text text-anchor="middle" x="298" y="-57.78" font-family="Times-Roman" font-size="14.00">Normal</text>
</g>
<!-- σ&#45;&gt;lfc -->
<g id="edge10" class="edge">
<title>σ&#45;&gt;lfc</title>
<path fill="none" stroke="black" d="M399,-156.08C380.68,-141.82 358.8,-124.79 340.1,-110.24"/>
<polygon fill="black" stroke="black" points="342.07,-107.34 332.03,-103.96 337.77,-112.86 342.07,-107.34"/>
</g>
<!-- σ_σ_a -->
<g id="node5" class="node">
<title>σ_σ_a</title>
<ellipse fill="none" stroke="black" cx="366" cy="-545.29" rx="69.09" ry="37.45"/>
<text text-anchor="middle" x="366" y="-556.59" font-family="Times-Roman" font-size="14.00">σ_σ_a</text>
<text text-anchor="middle" x="366" y="-541.59" font-family="Times-Roman" font-size="14.00">~</text>
<text text-anchor="middle" x="366" y="-526.59" font-family="Times-Roman" font-size="14.00">HalfNormal</text>
</g>
<!-- σ_a -->
<g id="node7" class="node">
<title>σ_a</title>
<ellipse fill="none" stroke="black" cx="366" cy="-423.34" rx="69.09" ry="37.45"/>
<text text-anchor="middle" x="366" y="-434.64" font-family="Times-Roman" font-size="14.00">σ_a</text>
<text text-anchor="middle" x="366" y="-419.64" font-family="Times-Roman" font-size="14.00">~</text>
<text text-anchor="middle" x="366" y="-404.64" font-family="Times-Roman" font-size="14.00">HalfNormal</text>
</g>
<!-- σ_σ_a&#45;&gt;σ_a -->
<g id="edge2" class="edge">
<title>σ_σ_a&#45;&gt;σ_a</title>
<path fill="none" stroke="black" d="M366,-507.65C366,-496.24 366,-483.51 366,-471.49"/>
<polygon fill="black" stroke="black" points="369.5,-471.17 366,-461.17 362.5,-471.17 369.5,-471.17"/>
</g>
<!-- μ_a -->
<g id="node9" class="node">
<title>μ_a</title>
<ellipse fill="none" stroke="black" cx="224" cy="-423.34" rx="48.58" ry="37.45"/>
<text text-anchor="middle" x="224" y="-434.64" font-family="Times-Roman" font-size="14.00">μ_a</text>
<text text-anchor="middle" x="224" y="-419.64" font-family="Times-Roman" font-size="14.00">~</text>
<text text-anchor="middle" x="224" y="-404.64" font-family="Times-Roman" font-size="14.00">Normal</text>
</g>
<!-- σ_μ_a&#45;&gt;μ_a -->
<g id="edge6" class="edge">
<title>σ_μ_a&#45;&gt;μ_a</title>
<path fill="none" stroke="black" d="M121.16,-513.09C140.47,-496.42 164.29,-475.86 184.14,-458.73"/>
<polygon fill="black" stroke="black" points="186.53,-461.29 191.82,-452.11 181.96,-455.99 186.53,-461.29"/>
</g>
<!-- a -->
<g id="node10" class="node">
<title>a</title>
<ellipse fill="none" stroke="black" cx="295" cy="-301.38" rx="48.58" ry="37.45"/>
<text text-anchor="middle" x="295" y="-312.68" font-family="Times-Roman" font-size="14.00">a</text>
<text text-anchor="middle" x="295" y="-297.68" font-family="Times-Roman" font-size="14.00">~</text>
<text text-anchor="middle" x="295" y="-282.68" font-family="Times-Roman" font-size="14.00">Normal</text>
</g>
<!-- σ_a&#45;&gt;a -->
<g id="edge7" class="edge">
<title>σ_a&#45;&gt;a</title>
<path fill="none" stroke="black" d="M345.27,-387.32C337.42,-374.04 328.38,-358.79 320.16,-344.9"/>
<polygon fill="black" stroke="black" points="323,-342.82 314.9,-336 316.98,-346.39 323,-342.82"/>
</g>
<!-- μ_μ_a&#45;&gt;μ_a -->
<g id="edge5" class="edge">
<title>μ_μ_a&#45;&gt;μ_a</title>
<path fill="none" stroke="black" d="M226.08,-507.65C225.8,-496.24 225.48,-483.51 225.18,-471.49"/>
<polygon fill="black" stroke="black" points="228.67,-471.08 224.92,-461.17 221.67,-471.25 228.67,-471.08"/>
</g>
<!-- μ_a&#45;&gt;a -->
<g id="edge8" class="edge">
<title>μ_a&#45;&gt;a</title>
<path fill="none" stroke="black" d="M243.78,-388.92C251.86,-375.26 261.32,-359.29 269.88,-344.82"/>
<polygon fill="black" stroke="black" points="273,-346.42 275.08,-336.03 266.98,-342.86 273,-346.42"/>
</g>
<!-- μ -->
<g id="node12" class="node">
<title>μ</title>
<polygon fill="none" stroke="black" points="351,-213.93 239,-213.93 239,-160.93 351,-160.93 351,-213.93"/>
<text text-anchor="middle" x="295" y="-198.73" font-family="Times-Roman" font-size="14.00">μ</text>
<text text-anchor="middle" x="295" y="-183.73" font-family="Times-Roman" font-size="14.00">~</text>
<text text-anchor="middle" x="295" y="-168.73" font-family="Times-Roman" font-size="14.00">Deterministic</text>
</g>
<!-- a&#45;&gt;μ -->
<g id="edge9" class="edge">
<title>a&#45;&gt;μ</title>
<path fill="none" stroke="black" d="M295,-263.73C295,-251.07 295,-236.92 295,-224.32"/>
<polygon fill="black" stroke="black" points="298.5,-224.18 295,-214.18 291.5,-224.18 298.5,-224.18"/>
</g>
<!-- μ&#45;&gt;lfc -->
<g id="edge11" class="edge">
<title>μ&#45;&gt;lfc</title>
<path fill="none" stroke="black" d="M295.7,-160.89C296,-149.98 296.36,-136.89 296.71,-124.35"/>
<polygon fill="black" stroke="black" points="300.22,-124.09 296.99,-114 293.22,-123.9 300.22,-124.09"/>
</g>
</g>
</svg>
