<?xml version="1.0" encoding="UTF-8" standalone="no"?>
<!DOCTYPE svg PUBLIC "-//W3C//DTD SVG 1.1//EN"
 "http://www.w3.org/Graphics/SVG/1.1/DTD/svg11.dtd">
<!-- Generated by graphviz version 2.47.0 (20210327.0129)
 -->
<!-- Pages: 1 -->
<svg width="637pt" height="702pt"
 viewBox="0.00 0.00 637.33 701.72" xmlns="http://www.w3.org/2000/svg" xmlns:xlink="http://www.w3.org/1999/xlink">
<g id="graph0" class="graph" transform="scale(1 1) rotate(0) translate(4 697.72)">
<polygon fill="white" stroke="transparent" points="-4,4 -4,-697.72 633.33,-697.72 633.33,4 -4,4"/>
<g id="clust1" class="cluster">
<title>cluster1 x 10</title>
<path fill="none" stroke="black" d="M222.3,-476.81C222.3,-476.81 352.3,-476.81 352.3,-476.81 358.3,-476.81 364.3,-482.81 364.3,-488.81 364.3,-488.81 364.3,-578.77 364.3,-578.77 364.3,-584.77 358.3,-590.77 352.3,-590.77 352.3,-590.77 222.3,-590.77 222.3,-590.77 216.3,-590.77 210.3,-584.77 210.3,-578.77 210.3,-578.77 210.3,-488.81 210.3,-488.81 210.3,-482.81 216.3,-476.81 222.3,-476.81"/>
<text text-anchor="middle" x="333.8" y="-484.61" font-family="Times-Roman" font-size="14.00">1 x 10</text>
</g>
<g id="clust2" class="cluster">
<title>cluster192 x 1</title>
<path fill="none" stroke="black" d="M73.3,-354.86C73.3,-354.86 203.3,-354.86 203.3,-354.86 209.3,-354.86 215.3,-360.86 215.3,-366.86 215.3,-366.86 215.3,-456.81 215.3,-456.81 215.3,-462.81 209.3,-468.81 203.3,-468.81 203.3,-468.81 73.3,-468.81 73.3,-468.81 67.3,-468.81 61.3,-462.81 61.3,-456.81 61.3,-456.81 61.3,-366.86 61.3,-366.86 61.3,-360.86 67.3,-354.86 73.3,-354.86"/>
<text text-anchor="middle" x="180.3" y="-362.66" font-family="Times-Roman" font-size="14.00">192 x 1</text>
</g>
<g id="clust3" class="cluster">
<title>cluster64 x 1</title>
<path fill="none" stroke="black" d="M391.3,-476.81C391.3,-476.81 481.3,-476.81 481.3,-476.81 487.3,-476.81 493.3,-482.81 493.3,-488.81 493.3,-488.81 493.3,-578.77 493.3,-578.77 493.3,-584.77 487.3,-590.77 481.3,-590.77 481.3,-590.77 391.3,-590.77 391.3,-590.77 385.3,-590.77 379.3,-584.77 379.3,-578.77 379.3,-578.77 379.3,-488.81 379.3,-488.81 379.3,-482.81 385.3,-476.81 391.3,-476.81"/>
<text text-anchor="middle" x="462.8" y="-484.61" font-family="Times-Roman" font-size="14.00">64 x 1</text>
</g>
<g id="clust4" class="cluster">
<title>cluster64 x 10</title>
<path fill="none" stroke="black" d="M242.3,-354.86C242.3,-354.86 332.3,-354.86 332.3,-354.86 338.3,-354.86 344.3,-360.86 344.3,-366.86 344.3,-366.86 344.3,-456.81 344.3,-456.81 344.3,-462.81 338.3,-468.81 332.3,-468.81 332.3,-468.81 242.3,-468.81 242.3,-468.81 236.3,-468.81 230.3,-462.81 230.3,-456.81 230.3,-456.81 230.3,-366.86 230.3,-366.86 230.3,-360.86 236.3,-354.86 242.3,-354.86"/>
<text text-anchor="middle" x="309.3" y="-362.66" font-family="Times-Roman" font-size="14.00">64 x 10</text>
</g>
<g id="clust5" class="cluster">
<title>cluster192 x 10</title>
<path fill="none" stroke="black" d="M167.3,-232.91C167.3,-232.91 257.3,-232.91 257.3,-232.91 263.3,-232.91 269.3,-238.91 269.3,-244.91 269.3,-244.91 269.3,-334.86 269.3,-334.86 269.3,-340.86 263.3,-346.86 257.3,-346.86 257.3,-346.86 167.3,-346.86 167.3,-346.86 161.3,-346.86 155.3,-340.86 155.3,-334.86 155.3,-334.86 155.3,-244.91 155.3,-244.91 155.3,-238.91 161.3,-232.91 167.3,-232.91"/>
<text text-anchor="middle" x="229.8" y="-240.71" font-family="Times-Roman" font-size="14.00">192 x 10</text>
</g>
<g id="clust6" class="cluster">
<title>cluster1,443</title>
<path fill="none" stroke="black" d="M160.3,-8C160.3,-8 264.3,-8 264.3,-8 270.3,-8 276.3,-14 276.3,-20 276.3,-20 276.3,-209.93 276.3,-209.93 276.3,-215.93 270.3,-221.93 264.3,-221.93 264.3,-221.93 160.3,-221.93 160.3,-221.93 154.3,-221.93 148.3,-215.93 148.3,-209.93 148.3,-209.93 148.3,-20 148.3,-20 148.3,-14 154.3,-8 160.3,-8"/>
<text text-anchor="middle" x="247.8" y="-15.8" font-family="Times-Roman" font-size="14.00">1,443</text>
</g>
<!-- σ -->
<g id="node1" class="node">
<title>σ</title>
<ellipse fill="none" stroke="black" cx="69.3" cy="-187.43" rx="69.09" ry="37.45"/>
<text text-anchor="middle" x="69.3" y="-198.73" font-family="Times-Roman" font-size="14.00">σ</text>
<text text-anchor="middle" x="69.3" y="-183.73" font-family="Times-Roman" font-size="14.00">~</text>
<text text-anchor="middle" x="69.3" y="-168.73" font-family="Times-Roman" font-size="14.00">HalfNormal</text>
</g>
<!-- lfc -->
<g id="node11" class="node">
<title>lfc</title>
<ellipse fill="lightgrey" stroke="black" cx="208.3" cy="-76.48" rx="48.58" ry="37.45"/>
<text text-anchor="middle" x="208.3" y="-87.78" font-family="Times-Roman" font-size="14.00">lfc</text>
<text text-anchor="middle" x="208.3" y="-72.78" font-family="Times-Roman" font-size="14.00">~</text>
<text text-anchor="middle" x="208.3" y="-57.78" font-family="Times-Roman" font-size="14.00">Normal</text>
</g>
<!-- σ&#45;&gt;lfc -->
<g id="edge11" class="edge">
<title>σ&#45;&gt;lfc</title>
<path fill="none" stroke="black" d="M108.02,-156.08C126.21,-141.82 147.93,-124.79 166.5,-110.24"/>
<polygon fill="black" stroke="black" points="168.8,-112.88 174.51,-103.96 164.48,-107.37 168.8,-112.88"/>
</g>
<!-- σ_μ_μ_a -->
<g id="node2" class="node">
<title>σ_μ_μ_a</title>
<ellipse fill="none" stroke="black" cx="436.3" cy="-656.24" rx="69.09" ry="37.45"/>
<text text-anchor="middle" x="436.3" y="-667.54" font-family="Times-Roman" font-size="14.00">σ_μ_μ_a</text>
<text text-anchor="middle" x="436.3" y="-652.54" font-family="Times-Roman" font-size="14.00">~</text>
<text text-anchor="middle" x="436.3" y="-637.54" font-family="Times-Roman" font-size="14.00">HalfNormal</text>
</g>
<!-- μ_μ_a -->
<g id="node8" class="node">
<title>μ_μ_a</title>
<ellipse fill="none" stroke="black" cx="436.3" cy="-545.29" rx="48.58" ry="37.45"/>
<text text-anchor="middle" x="436.3" y="-556.59" font-family="Times-Roman" font-size="14.00">μ_μ_a</text>
<text text-anchor="middle" x="436.3" y="-541.59" font-family="Times-Roman" font-size="14.00">~</text>
<text text-anchor="middle" x="436.3" y="-526.59" font-family="Times-Roman" font-size="14.00">Normal</text>
</g>
<!-- σ_μ_μ_a&#45;&gt;μ_μ_a -->
<g id="edge4" class="edge">
<title>σ_μ_μ_a&#45;&gt;μ_μ_a</title>
<path fill="none" stroke="black" d="M436.3,-618.66C436.3,-610.49 436.3,-601.71 436.3,-593.18"/>
<polygon fill="black" stroke="black" points="439.8,-592.96 436.3,-582.96 432.8,-592.96 439.8,-592.96"/>
</g>
<!-- σ_σ_μ_a -->
<g id="node3" class="node">
<title>σ_σ_μ_a</title>
<ellipse fill="none" stroke="black" cx="279.3" cy="-656.24" rx="69.09" ry="37.45"/>
<text text-anchor="middle" x="279.3" y="-667.54" font-family="Times-Roman" font-size="14.00">σ_σ_μ_a</text>
<text text-anchor="middle" x="279.3" y="-652.54" font-family="Times-Roman" font-size="14.00">~</text>
<text text-anchor="middle" x="279.3" y="-637.54" font-family="Times-Roman" font-size="14.00">HalfNormal</text>
</g>
<!-- σ_μ_a -->
<g id="node6" class="node">
<title>σ_μ_a</title>
<ellipse fill="none" stroke="black" cx="287.3" cy="-545.29" rx="69.09" ry="37.45"/>
<text text-anchor="middle" x="287.3" y="-556.59" font-family="Times-Roman" font-size="14.00">σ_μ_a</text>
<text text-anchor="middle" x="287.3" y="-541.59" font-family="Times-Roman" font-size="14.00">~</text>
<text text-anchor="middle" x="287.3" y="-526.59" font-family="Times-Roman" font-size="14.00">HalfNormal</text>
</g>
<!-- σ_σ_μ_a&#45;&gt;σ_μ_a -->
<g id="edge1" class="edge">
<title>σ_σ_μ_a&#45;&gt;σ_μ_a</title>
<path fill="none" stroke="black" d="M281.98,-618.66C282.58,-610.49 283.23,-601.71 283.85,-593.18"/>
<polygon fill="black" stroke="black" points="287.36,-593.19 284.6,-582.96 280.38,-592.68 287.36,-593.19"/>
</g>
<!-- μ_μ_μ_a -->
<g id="node4" class="node">
<title>μ_μ_μ_a</title>
<ellipse fill="none" stroke="black" cx="576.3" cy="-656.24" rx="53.07" ry="37.45"/>
<text text-anchor="middle" x="576.3" y="-667.54" font-family="Times-Roman" font-size="14.00">μ_μ_μ_a</text>
<text text-anchor="middle" x="576.3" y="-652.54" font-family="Times-Roman" font-size="14.00">~</text>
<text text-anchor="middle" x="576.3" y="-637.54" font-family="Times-Roman" font-size="14.00">Normal</text>
</g>
<!-- μ_μ_μ_a&#45;&gt;μ_μ_a -->
<g id="edge3" class="edge">
<title>μ_μ_μ_a&#45;&gt;μ_μ_a</title>
<path fill="none" stroke="black" d="M541.33,-628.03C522.25,-613.18 498.5,-594.7 478.41,-579.06"/>
<polygon fill="black" stroke="black" points="480.38,-576.16 470.33,-572.78 476.08,-581.68 480.38,-576.16"/>
</g>
<!-- σ_σ_a -->
<g id="node5" class="node">
<title>σ_σ_a</title>
<ellipse fill="none" stroke="black" cx="130.3" cy="-545.29" rx="69.09" ry="37.45"/>
<text text-anchor="middle" x="130.3" y="-556.59" font-family="Times-Roman" font-size="14.00">σ_σ_a</text>
<text text-anchor="middle" x="130.3" y="-541.59" font-family="Times-Roman" font-size="14.00">~</text>
<text text-anchor="middle" x="130.3" y="-526.59" font-family="Times-Roman" font-size="14.00">HalfNormal</text>
</g>
<!-- σ_a -->
<g id="node7" class="node">
<title>σ_a</title>
<ellipse fill="none" stroke="black" cx="138.3" cy="-423.34" rx="69.09" ry="37.45"/>
<text text-anchor="middle" x="138.3" y="-434.64" font-family="Times-Roman" font-size="14.00">σ_a</text>
<text text-anchor="middle" x="138.3" y="-419.64" font-family="Times-Roman" font-size="14.00">~</text>
<text text-anchor="middle" x="138.3" y="-404.64" font-family="Times-Roman" font-size="14.00">HalfNormal</text>
</g>
<!-- σ_σ_a&#45;&gt;σ_a -->
<g id="edge2" class="edge">
<title>σ_σ_a&#45;&gt;σ_a</title>
<path fill="none" stroke="black" d="M132.74,-507.65C133.5,-496.24 134.35,-483.51 135.15,-471.49"/>
<polygon fill="black" stroke="black" points="138.67,-471.38 135.84,-461.17 131.68,-470.91 138.67,-471.38"/>
</g>
<!-- μ_a -->
<g id="node9" class="node">
<title>μ_a</title>
<ellipse fill="none" stroke="black" cx="287.3" cy="-423.34" rx="48.58" ry="37.45"/>
<text text-anchor="middle" x="287.3" y="-434.64" font-family="Times-Roman" font-size="14.00">μ_a</text>
<text text-anchor="middle" x="287.3" y="-419.64" font-family="Times-Roman" font-size="14.00">~</text>
<text text-anchor="middle" x="287.3" y="-404.64" font-family="Times-Roman" font-size="14.00">Normal</text>
</g>
<!-- σ_μ_a&#45;&gt;μ_a -->
<g id="edge5" class="edge">
<title>σ_μ_a&#45;&gt;μ_a</title>
<path fill="none" stroke="black" d="M287.3,-507.65C287.3,-496.24 287.3,-483.51 287.3,-471.49"/>
<polygon fill="black" stroke="black" points="290.8,-471.17 287.3,-461.17 283.8,-471.17 290.8,-471.17"/>
</g>
<!-- a -->
<g id="node10" class="node">
<title>a</title>
<ellipse fill="none" stroke="black" cx="212.3" cy="-301.38" rx="48.58" ry="37.45"/>
<text text-anchor="middle" x="212.3" y="-312.68" font-family="Times-Roman" font-size="14.00">a</text>
<text text-anchor="middle" x="212.3" y="-297.68" font-family="Times-Roman" font-size="14.00">~</text>
<text text-anchor="middle" x="212.3" y="-282.68" font-family="Times-Roman" font-size="14.00">Normal</text>
</g>
<!-- σ_a&#45;&gt;a -->
<g id="edge7" class="edge">
<title>σ_a&#45;&gt;a</title>
<path fill="none" stroke="black" d="M159.7,-387.64C168.04,-374.12 177.68,-358.5 186.41,-344.35"/>
<polygon fill="black" stroke="black" points="189.43,-346.11 191.7,-335.76 183.48,-342.44 189.43,-346.11"/>
</g>
<!-- μ_μ_a&#45;&gt;μ_a -->
<g id="edge6" class="edge">
<title>μ_μ_a&#45;&gt;μ_a</title>
<path fill="none" stroke="black" d="M408.75,-514.35C396.84,-502.11 382.41,-488.19 368.3,-476.81 357.69,-468.27 345.65,-459.86 334.17,-452.36"/>
<polygon fill="black" stroke="black" points="335.83,-449.27 325.52,-446.82 332.05,-455.16 335.83,-449.27"/>
</g>
<!-- μ_a&#45;&gt;a -->
<g id="edge8" class="edge">
<title>μ_a&#45;&gt;a</title>
<path fill="none" stroke="black" d="M266.6,-389.24C257.83,-375.21 247.51,-358.71 238.24,-343.88"/>
<polygon fill="black" stroke="black" points="241.19,-341.99 232.92,-335.37 235.26,-345.71 241.19,-341.99"/>
</g>
<!-- μ -->
<g id="node12" class="node">
<title>μ</title>
<polygon fill="none" stroke="black" points="268.3,-213.93 156.3,-213.93 156.3,-160.93 268.3,-160.93 268.3,-213.93"/>
<text text-anchor="middle" x="212.3" y="-198.73" font-family="Times-Roman" font-size="14.00">μ</text>
<text text-anchor="middle" x="212.3" y="-183.73" font-family="Times-Roman" font-size="14.00">~</text>
<text text-anchor="middle" x="212.3" y="-168.73" font-family="Times-Roman" font-size="14.00">Deterministic</text>
</g>
<!-- a&#45;&gt;μ -->
<g id="edge9" class="edge">
<title>a&#45;&gt;μ</title>
<path fill="none" stroke="black" d="M212.3,-263.73C212.3,-251.07 212.3,-236.92 212.3,-224.32"/>
<polygon fill="black" stroke="black" points="215.8,-224.18 212.3,-214.18 208.8,-224.18 215.8,-224.18"/>
</g>
<!-- μ&#45;&gt;lfc -->
<g id="edge10" class="edge">
<title>μ&#45;&gt;lfc</title>
<path fill="none" stroke="black" d="M211.36,-160.89C210.96,-149.98 210.48,-136.89 210.02,-124.35"/>
<polygon fill="black" stroke="black" points="213.5,-123.87 209.64,-114 206.51,-124.12 213.5,-123.87"/>
</g>
</g>
</svg>
