<?xml version="1.0" encoding="UTF-8" standalone="no"?>
<!DOCTYPE svg PUBLIC "-//W3C//DTD SVG 1.1//EN"
 "http://www.w3.org/Graphics/SVG/1.1/DTD/svg11.dtd">
<!-- Generated by graphviz version 2.48.0 (20210717.2242)
 -->
<!-- Pages: 1 -->
<svg width="527pt" height="452pt"
 viewBox="0.00 0.00 527.00 451.86" xmlns="http://www.w3.org/2000/svg" xmlns:xlink="http://www.w3.org/1999/xlink">
<g id="graph0" class="graph" transform="scale(1 1) rotate(0) translate(4 447.86)">
<polygon fill="white" stroke="transparent" points="-4,4 -4,-447.86 523,-447.86 523,4 -4,4"/>
<g id="clust1" class="cluster">
<title>cluster314</title>
<path fill="none" stroke="black" d="M20,-8C20,-8 176,-8 176,-8 182,-8 188,-14 188,-20 188,-20 188,-412.88 188,-412.88 188,-418.88 182,-424.88 176,-424.88 176,-424.88 20,-424.88 20,-424.88 14,-424.88 8,-418.88 8,-412.88 8,-412.88 8,-20 8,-20 8,-14 14,-8 20,-8"/>
<text text-anchor="middle" x="169.5" y="-15.8" font-family="Times,serif" font-size="14.00">314</text>
</g>
<g id="clust2" class="cluster">
<title>cluster314 x 3</title>
<path fill="none" stroke="black" d="M208,-332.88C208,-332.88 296,-332.88 296,-332.88 302,-332.88 308,-338.88 308,-344.88 308,-344.88 308,-412.88 308,-412.88 308,-418.88 302,-424.88 296,-424.88 296,-424.88 208,-424.88 208,-424.88 202,-424.88 196,-418.88 196,-412.88 196,-412.88 196,-344.88 196,-344.88 196,-338.88 202,-332.88 208,-332.88"/>
<text text-anchor="middle" x="279" y="-340.68" font-family="Times,serif" font-size="14.00">314 x 3</text>
</g>
<g id="clust3" class="cluster">
<title>cluster3</title>
<path fill="none" stroke="black" d="M423,-321.91C423,-321.91 499,-321.91 499,-321.91 505,-321.91 511,-327.91 511,-333.91 511,-333.91 511,-423.86 511,-423.86 511,-429.86 505,-435.86 499,-435.86 499,-435.86 423,-435.86 423,-435.86 417,-435.86 411,-429.86 411,-423.86 411,-423.86 411,-333.91 411,-333.91 411,-327.91 417,-321.91 423,-321.91"/>
<text text-anchor="middle" x="499.5" y="-329.71" font-family="Times,serif" font-size="14.00">3</text>
</g>
<!-- y_daysabs_shared -->
<g id="node1" class="node">
<title>y_daysabs_shared</title>
<path fill="lightgrey" stroke="black" d="M143.5,-92C143.5,-92 52.5,-92 52.5,-92 46.5,-92 40.5,-86 40.5,-80 40.5,-80 40.5,-51 40.5,-51 40.5,-45 46.5,-39 52.5,-39 52.5,-39 143.5,-39 143.5,-39 149.5,-39 155.5,-45 155.5,-51 155.5,-51 155.5,-80 155.5,-80 155.5,-86 149.5,-92 143.5,-92"/>
<text text-anchor="middle" x="98" y="-76.8" font-family="Times,serif" font-size="14.00">y_daysabs_shared</text>
<text text-anchor="middle" x="98" y="-61.8" font-family="Times,serif" font-size="14.00">~</text>
<text text-anchor="middle" x="98" y="-46.8" font-family="Times,serif" font-size="14.00">Data</text>
</g>
<!-- daysabs -->
<g id="node2" class="node">
<title>daysabs</title>
<ellipse fill="lightgrey" stroke="black" cx="98" cy="-165.48" rx="82.05" ry="37.45"/>
<text text-anchor="middle" x="98" y="-176.78" font-family="Times,serif" font-size="14.00">daysabs</text>
<text text-anchor="middle" x="98" y="-161.78" font-family="Times,serif" font-size="14.00">~</text>
<text text-anchor="middle" x="98" y="-146.78" font-family="Times,serif" font-size="14.00">NegativeBinomial</text>
</g>
<!-- daysabs&#45;&gt;y_daysabs_shared -->
<g id="edge1" class="edge">
<title>daysabs&#45;&gt;y_daysabs_shared</title>
<path fill="none" stroke="black" d="M98,-127.99C98,-119.58 98,-110.63 98,-102.25"/>
<polygon fill="black" stroke="black" points="101.5,-102.01 98,-92.01 94.5,-102.01 101.5,-102.01"/>
</g>
<!-- η -->
<g id="node3" class="node">
<title>η</title>
<polygon fill="none" stroke="black" points="179,-302.93 87,-302.93 87,-249.93 179,-249.93 179,-302.93"/>
<text text-anchor="middle" x="133" y="-287.73" font-family="Times,serif" font-size="14.00">η</text>
<text text-anchor="middle" x="133" y="-272.73" font-family="Times,serif" font-size="14.00">~</text>
<text text-anchor="middle" x="133" y="-257.73" font-family="Times,serif" font-size="14.00">Deterministic</text>
</g>
<!-- η&#45;&gt;daysabs -->
<g id="edge6" class="edge">
<title>η&#45;&gt;daysabs</title>
<path fill="none" stroke="black" d="M124.79,-249.89C121.19,-238.66 116.84,-225.12 112.7,-212.25"/>
<polygon fill="black" stroke="black" points="115.99,-211.04 109.6,-202.59 109.33,-213.18 115.99,-211.04"/>
</g>
<!-- x_math_shared -->
<g id="node4" class="node">
<title>x_math_shared</title>
<path fill="lightgrey" stroke="black" d="M168,-416.88C168,-416.88 92,-416.88 92,-416.88 86,-416.88 80,-410.88 80,-404.88 80,-404.88 80,-375.88 80,-375.88 80,-369.88 86,-363.88 92,-363.88 92,-363.88 168,-363.88 168,-363.88 174,-363.88 180,-369.88 180,-375.88 180,-375.88 180,-404.88 180,-404.88 180,-410.88 174,-416.88 168,-416.88"/>
<text text-anchor="middle" x="130" y="-401.68" font-family="Times,serif" font-size="14.00">x_math_shared</text>
<text text-anchor="middle" x="130" y="-386.68" font-family="Times,serif" font-size="14.00">~</text>
<text text-anchor="middle" x="130" y="-371.68" font-family="Times,serif" font-size="14.00">Data</text>
</g>
<!-- x_math_shared&#45;&gt;η -->
<g id="edge5" class="edge">
<title>x_math_shared&#45;&gt;η</title>
<path fill="none" stroke="black" d="M130.69,-363.7C131.09,-348.77 131.6,-329.72 132.04,-313.32"/>
<polygon fill="black" stroke="black" points="135.55,-313.09 132.31,-302.99 128.55,-312.9 135.55,-313.09"/>
</g>
<!-- x_prog_shared -->
<g id="node5" class="node">
<title>x_prog_shared</title>
<path fill="lightgrey" stroke="black" d="M288.5,-416.88C288.5,-416.88 215.5,-416.88 215.5,-416.88 209.5,-416.88 203.5,-410.88 203.5,-404.88 203.5,-404.88 203.5,-375.88 203.5,-375.88 203.5,-369.88 209.5,-363.88 215.5,-363.88 215.5,-363.88 288.5,-363.88 288.5,-363.88 294.5,-363.88 300.5,-369.88 300.5,-375.88 300.5,-375.88 300.5,-404.88 300.5,-404.88 300.5,-410.88 294.5,-416.88 288.5,-416.88"/>
<text text-anchor="middle" x="252" y="-401.68" font-family="Times,serif" font-size="14.00">x_prog_shared</text>
<text text-anchor="middle" x="252" y="-386.68" font-family="Times,serif" font-size="14.00">~</text>
<text text-anchor="middle" x="252" y="-371.68" font-family="Times,serif" font-size="14.00">Data</text>
</g>
<!-- x_prog_shared&#45;&gt;η -->
<g id="edge3" class="edge">
<title>x_prog_shared&#45;&gt;η</title>
<path fill="none" stroke="black" d="M231.17,-363.61C220.11,-350.54 205.94,-334.77 192,-321.91 187.42,-317.68 182.46,-313.46 177.42,-309.39"/>
<polygon fill="black" stroke="black" points="179.5,-306.58 169.48,-303.15 175.17,-312.08 179.5,-306.58"/>
</g>
<!-- β_math -->
<g id="node6" class="node">
<title>β_math</title>
<ellipse fill="none" stroke="black" cx="360" cy="-390.38" rx="41.94" ry="37.45"/>
<text text-anchor="middle" x="360" y="-401.68" font-family="Times,serif" font-size="14.00">β_math</text>
<text text-anchor="middle" x="360" y="-386.68" font-family="Times,serif" font-size="14.00">~</text>
<text text-anchor="middle" x="360" y="-371.68" font-family="Times,serif" font-size="14.00">Normal</text>
</g>
<!-- β_math&#45;&gt;η -->
<g id="edge4" class="edge">
<title>β_math&#45;&gt;η</title>
<path fill="none" stroke="black" d="M344.02,-355.38C336.22,-342.66 325.56,-329.47 312,-321.91 287.88,-308.46 214.17,-322.72 188,-313.91 183.42,-312.36 178.86,-310.34 174.44,-308.04"/>
<polygon fill="black" stroke="black" points="176,-304.9 165.58,-302.98 172.52,-310.98 176,-304.9"/>
</g>
<!-- α -->
<g id="node7" class="node">
<title>α</title>
<ellipse fill="none" stroke="black" cx="256" cy="-276.43" rx="58.88" ry="37.45"/>
<text text-anchor="middle" x="256" y="-287.73" font-family="Times,serif" font-size="14.00">α</text>
<text text-anchor="middle" x="256" y="-272.73" font-family="Times,serif" font-size="14.00">~</text>
<text text-anchor="middle" x="256" y="-257.73" font-family="Times,serif" font-size="14.00">HalfNormal</text>
</g>
<!-- α&#45;&gt;daysabs -->
<g id="edge7" class="edge">
<title>α&#45;&gt;daysabs</title>
<path fill="none" stroke="black" d="M216.54,-248.22C196.69,-234.53 172.35,-217.75 150.9,-202.96"/>
<polygon fill="black" stroke="black" points="152.75,-199.98 142.53,-197.19 148.78,-205.74 152.75,-199.98"/>
</g>
<!-- β_prog -->
<g id="node8" class="node">
<title>β_prog</title>
<ellipse fill="none" stroke="black" cx="461" cy="-390.38" rx="41.94" ry="37.45"/>
<text text-anchor="middle" x="461" y="-401.68" font-family="Times,serif" font-size="14.00">β_prog</text>
<text text-anchor="middle" x="461" y="-386.68" font-family="Times,serif" font-size="14.00">~</text>
<text text-anchor="middle" x="461" y="-371.68" font-family="Times,serif" font-size="14.00">Normal</text>
</g>
<!-- β_prog&#45;&gt;η -->
<g id="edge2" class="edge">
<title>β_prog&#45;&gt;η</title>
<path fill="none" stroke="black" d="M444.61,-355.86C436.42,-342.89 425.19,-329.38 411,-321.91 389.06,-310.36 211.61,-321.49 188,-313.91 183.34,-312.41 178.7,-310.39 174.2,-308.08"/>
<polygon fill="black" stroke="black" points="175.64,-304.87 165.22,-302.96 172.18,-310.95 175.64,-304.87"/>
</g>
</g>
</svg>
