<?xml version="1.0" encoding="UTF-8" standalone="no"?>
<!DOCTYPE svg PUBLIC "-//W3C//DTD SVG 1.1//EN"
 "http://www.w3.org/Graphics/SVG/1.1/DTD/svg11.dtd">
<!-- Generated by graphviz version 2.48.0 (0)
 -->
<!-- Pages: 1 -->
<svg width="535pt" height="452pt"
 viewBox="0.00 0.00 535.00 451.86" xmlns="http://www.w3.org/2000/svg" xmlns:xlink="http://www.w3.org/1999/xlink">
<g id="graph0" class="graph" transform="scale(1 1) rotate(0) translate(4 447.86)">
<polygon fill="white" stroke="transparent" points="-4,4 -4,-447.86 531,-447.86 531,4 -4,4"/>
<g id="clust1" class="cluster">
<title>cluster314</title>
<path fill="none" stroke="black" d="M20,-8C20,-8 180,-8 180,-8 186,-8 192,-14 192,-20 192,-20 192,-412.88 192,-412.88 192,-418.88 186,-424.88 180,-424.88 180,-424.88 20,-424.88 20,-424.88 14,-424.88 8,-418.88 8,-412.88 8,-412.88 8,-20 8,-20 8,-14 14,-8 20,-8"/>
<text text-anchor="middle" x="173.5" y="-15.8" font-family="Times,serif" font-size="14.00">314</text>
</g>
<g id="clust2" class="cluster">
<title>cluster314 x 3</title>
<path fill="none" stroke="black" d="M212,-332.88C212,-332.88 304,-332.88 304,-332.88 310,-332.88 316,-338.88 316,-344.88 316,-344.88 316,-412.88 316,-412.88 316,-418.88 310,-424.88 304,-424.88 304,-424.88 212,-424.88 212,-424.88 206,-424.88 200,-418.88 200,-412.88 200,-412.88 200,-344.88 200,-344.88 200,-338.88 206,-332.88 212,-332.88"/>
<text text-anchor="middle" x="287" y="-340.68" font-family="Times,serif" font-size="14.00">314 x 3</text>
</g>
<g id="clust3" class="cluster">
<title>cluster3</title>
<path fill="none" stroke="black" d="M431,-321.91C431,-321.91 507,-321.91 507,-321.91 513,-321.91 519,-327.91 519,-333.91 519,-333.91 519,-423.86 519,-423.86 519,-429.86 513,-435.86 507,-435.86 507,-435.86 431,-435.86 431,-435.86 425,-435.86 419,-429.86 419,-423.86 419,-423.86 419,-333.91 419,-333.91 419,-327.91 425,-321.91 431,-321.91"/>
<text text-anchor="middle" x="507.5" y="-329.71" font-family="Times,serif" font-size="14.00">3</text>
</g>
<!-- daysabs -->
<g id="node1" class="node">
<title>daysabs</title>
<ellipse fill="lightgrey" stroke="black" cx="100" cy="-165.48" rx="84.29" ry="37.45"/>
<text text-anchor="middle" x="100" y="-176.78" font-family="Times,serif" font-size="14.00">daysabs</text>
<text text-anchor="middle" x="100" y="-161.78" font-family="Times,serif" font-size="14.00">~</text>
<text text-anchor="middle" x="100" y="-146.78" font-family="Times,serif" font-size="14.00">NegativeBinomial</text>
</g>
<!-- y_daysabs_shared -->
<g id="node2" class="node">
<title>y_daysabs_shared</title>
<path fill="lightgrey" stroke="black" d="M147,-92C147,-92 53,-92 53,-92 47,-92 41,-86 41,-80 41,-80 41,-51 41,-51 41,-45 47,-39 53,-39 53,-39 147,-39 147,-39 153,-39 159,-45 159,-51 159,-51 159,-80 159,-80 159,-86 153,-92 147,-92"/>
<text text-anchor="middle" x="100" y="-76.8" font-family="Times,serif" font-size="14.00">y_daysabs_shared</text>
<text text-anchor="middle" x="100" y="-61.8" font-family="Times,serif" font-size="14.00">~</text>
<text text-anchor="middle" x="100" y="-46.8" font-family="Times,serif" font-size="14.00">Data</text>
</g>
<!-- daysabs&#45;&gt;y_daysabs_shared -->
<g id="edge1" class="edge">
<title>daysabs&#45;&gt;y_daysabs_shared</title>
<path fill="none" stroke="black" d="M100,-127.99C100,-119.58 100,-110.63 100,-102.25"/>
<polygon fill="black" stroke="black" points="103.5,-102.01 100,-92.01 96.5,-102.01 103.5,-102.01"/>
</g>
<!-- x_math_shared -->
<g id="node3" class="node">
<title>x_math_shared</title>
<path fill="lightgrey" stroke="black" d="M172,-416.88C172,-416.88 94,-416.88 94,-416.88 88,-416.88 82,-410.88 82,-404.88 82,-404.88 82,-375.88 82,-375.88 82,-369.88 88,-363.88 94,-363.88 94,-363.88 172,-363.88 172,-363.88 178,-363.88 184,-369.88 184,-375.88 184,-375.88 184,-404.88 184,-404.88 184,-410.88 178,-416.88 172,-416.88"/>
<text text-anchor="middle" x="133" y="-401.68" font-family="Times,serif" font-size="14.00">x_math_shared</text>
<text text-anchor="middle" x="133" y="-386.68" font-family="Times,serif" font-size="14.00">~</text>
<text text-anchor="middle" x="133" y="-371.68" font-family="Times,serif" font-size="14.00">Data</text>
</g>
<!-- η -->
<g id="node4" class="node">
<title>η</title>
<polygon fill="none" stroke="black" points="182.5,-302.93 89.5,-302.93 89.5,-249.93 182.5,-249.93 182.5,-302.93"/>
<text text-anchor="middle" x="136" y="-287.73" font-family="Times,serif" font-size="14.00">η</text>
<text text-anchor="middle" x="136" y="-272.73" font-family="Times,serif" font-size="14.00">~</text>
<text text-anchor="middle" x="136" y="-257.73" font-family="Times,serif" font-size="14.00">Deterministic</text>
</g>
<!-- x_math_shared&#45;&gt;η -->
<g id="edge3" class="edge">
<title>x_math_shared&#45;&gt;η</title>
<path fill="none" stroke="black" d="M133.69,-363.7C134.09,-348.77 134.6,-329.72 135.04,-313.32"/>
<polygon fill="black" stroke="black" points="138.55,-313.09 135.31,-302.99 131.55,-312.9 138.55,-313.09"/>
</g>
<!-- η&#45;&gt;daysabs -->
<g id="edge6" class="edge">
<title>η&#45;&gt;daysabs</title>
<path fill="none" stroke="black" d="M127.56,-249.89C123.85,-238.66 119.38,-225.12 115.12,-212.25"/>
<polygon fill="black" stroke="black" points="118.39,-210.98 111.93,-202.59 111.75,-213.18 118.39,-210.98"/>
</g>
<!-- x_prog_shared -->
<g id="node5" class="node">
<title>x_prog_shared</title>
<path fill="lightgrey" stroke="black" d="M296,-416.88C296,-416.88 220,-416.88 220,-416.88 214,-416.88 208,-410.88 208,-404.88 208,-404.88 208,-375.88 208,-375.88 208,-369.88 214,-363.88 220,-363.88 220,-363.88 296,-363.88 296,-363.88 302,-363.88 308,-369.88 308,-375.88 308,-375.88 308,-404.88 308,-404.88 308,-410.88 302,-416.88 296,-416.88"/>
<text text-anchor="middle" x="258" y="-401.68" font-family="Times,serif" font-size="14.00">x_prog_shared</text>
<text text-anchor="middle" x="258" y="-386.68" font-family="Times,serif" font-size="14.00">~</text>
<text text-anchor="middle" x="258" y="-371.68" font-family="Times,serif" font-size="14.00">Data</text>
</g>
<!-- x_prog_shared&#45;&gt;η -->
<g id="edge5" class="edge">
<title>x_prog_shared&#45;&gt;η</title>
<path fill="none" stroke="black" d="M236.4,-363.62C224.94,-350.56 210.31,-334.78 196,-321.91 191.26,-317.64 186.12,-313.37 180.91,-309.25"/>
<polygon fill="black" stroke="black" points="182.78,-306.27 172.73,-302.94 178.51,-311.81 182.78,-306.27"/>
</g>
<!-- β_math -->
<g id="node6" class="node">
<title>β_math</title>
<ellipse fill="none" stroke="black" cx="368" cy="-390.38" rx="41.94" ry="37.45"/>
<text text-anchor="middle" x="368" y="-401.68" font-family="Times,serif" font-size="14.00">β_math</text>
<text text-anchor="middle" x="368" y="-386.68" font-family="Times,serif" font-size="14.00">~</text>
<text text-anchor="middle" x="368" y="-371.68" font-family="Times,serif" font-size="14.00">Normal</text>
</g>
<!-- β_math&#45;&gt;η -->
<g id="edge2" class="edge">
<title>β_math&#45;&gt;η</title>
<path fill="none" stroke="black" d="M352.03,-355.37C344.23,-342.64 333.57,-329.45 320,-321.91 295.09,-308.06 219.05,-322.87 192,-313.91 187.36,-312.37 182.72,-310.35 178.22,-308.05"/>
<polygon fill="black" stroke="black" points="179.65,-304.83 169.22,-302.99 176.22,-310.93 179.65,-304.83"/>
</g>
<!-- α -->
<g id="node7" class="node">
<title>α</title>
<ellipse fill="none" stroke="black" cx="260" cy="-276.43" rx="59.29" ry="37.45"/>
<text text-anchor="middle" x="260" y="-287.73" font-family="Times,serif" font-size="14.00">α</text>
<text text-anchor="middle" x="260" y="-272.73" font-family="Times,serif" font-size="14.00">~</text>
<text text-anchor="middle" x="260" y="-257.73" font-family="Times,serif" font-size="14.00">HalfNormal</text>
</g>
<!-- α&#45;&gt;daysabs -->
<g id="edge7" class="edge">
<title>α&#45;&gt;daysabs</title>
<path fill="none" stroke="black" d="M220.04,-248.22C199.94,-234.53 175.29,-217.75 153.57,-202.96"/>
<polygon fill="black" stroke="black" points="155.33,-199.92 145.1,-197.19 151.39,-205.71 155.33,-199.92"/>
</g>
<!-- β_prog -->
<g id="node8" class="node">
<title>β_prog</title>
<ellipse fill="none" stroke="black" cx="469" cy="-390.38" rx="41.94" ry="37.45"/>
<text text-anchor="middle" x="469" y="-401.68" font-family="Times,serif" font-size="14.00">β_prog</text>
<text text-anchor="middle" x="469" y="-386.68" font-family="Times,serif" font-size="14.00">~</text>
<text text-anchor="middle" x="469" y="-371.68" font-family="Times,serif" font-size="14.00">Normal</text>
</g>
<!-- β_prog&#45;&gt;η -->
<g id="edge4" class="edge">
<title>β_prog&#45;&gt;η</title>
<path fill="none" stroke="black" d="M452.61,-355.86C444.42,-342.88 433.2,-329.37 419,-321.91 396.66,-310.16 216.06,-321.52 192,-313.91 187.15,-312.37 182.31,-310.29 177.63,-307.9"/>
<polygon fill="black" stroke="black" points="179.29,-304.82 168.86,-302.97 175.86,-310.92 179.29,-304.82"/>
</g>
</g>
</svg>
