<?xml version="1.0" encoding="UTF-8" standalone="no"?>
<!DOCTYPE svg PUBLIC "-//W3C//DTD SVG 1.1//EN"
 "http://www.w3.org/Graphics/SVG/1.1/DTD/svg11.dtd">
<!-- Generated by graphviz version 2.48.0 (0)
 -->
<!-- Pages: 1 -->
<svg width="426pt" height="433pt"
 viewBox="0.00 0.00 426.12 432.86" xmlns="http://www.w3.org/2000/svg" xmlns:xlink="http://www.w3.org/1999/xlink">
<g id="graph0" class="graph" transform="scale(1 1) rotate(0) translate(4 428.86)">
<polygon fill="white" stroke="transparent" points="-4,4 -4,-428.86 422.12,-428.86 422.12,4 -4,4"/>
<g id="clust1" class="cluster">
<title>cluster262</title>
<path fill="none" stroke="black" d="M119.72,-8C119.72,-8 279.72,-8 279.72,-8 285.72,-8 291.72,-14 291.72,-20 291.72,-20 291.72,-309.91 291.72,-309.91 291.72,-315.91 285.72,-321.91 279.72,-321.91 279.72,-321.91 119.72,-321.91 119.72,-321.91 113.72,-321.91 107.72,-315.91 107.72,-309.91 107.72,-309.91 107.72,-20 107.72,-20 107.72,-14 113.72,-8 119.72,-8"/>
<text text-anchor="middle" x="273.22" y="-15.8" font-family="Times,serif" font-size="14.00">262</text>
</g>
<!-- β -->
<g id="node1" class="node">
<title>β</title>
<ellipse fill="none" stroke="black" cx="41.72" cy="-387.38" rx="41.94" ry="37.45"/>
<text text-anchor="middle" x="41.72" y="-398.68" font-family="Times,serif" font-size="14.00">β</text>
<text text-anchor="middle" x="41.72" y="-383.68" font-family="Times,serif" font-size="14.00">~</text>
<text text-anchor="middle" x="41.72" y="-368.68" font-family="Times,serif" font-size="14.00">Normal</text>
</g>
<!-- η -->
<g id="node7" class="node">
<title>η</title>
<polygon fill="none" stroke="black" points="246.22,-313.91 153.22,-313.91 153.22,-260.91 246.22,-260.91 246.22,-313.91"/>
<text text-anchor="middle" x="199.72" y="-298.71" font-family="Times,serif" font-size="14.00">η</text>
<text text-anchor="middle" x="199.72" y="-283.71" font-family="Times,serif" font-size="14.00">~</text>
<text text-anchor="middle" x="199.72" y="-268.71" font-family="Times,serif" font-size="14.00">Deterministic</text>
</g>
<!-- β&#45;&gt;η -->
<g id="edge4" class="edge">
<title>β&#45;&gt;η</title>
<path fill="none" stroke="black" d="M73.49,-362.93C79.78,-358.49 86.4,-353.97 92.72,-349.91 109.07,-339.4 127.26,-328.62 143.95,-319.07"/>
<polygon fill="black" stroke="black" points="146.07,-321.89 153.04,-313.91 142.61,-315.81 146.07,-321.89"/>
</g>
<!-- α -->
<g id="node2" class="node">
<title>α</title>
<ellipse fill="none" stroke="black" cx="358.72" cy="-187.43" rx="59.29" ry="37.45"/>
<text text-anchor="middle" x="358.72" y="-198.73" font-family="Times,serif" font-size="14.00">α</text>
<text text-anchor="middle" x="358.72" y="-183.73" font-family="Times,serif" font-size="14.00">~</text>
<text text-anchor="middle" x="358.72" y="-168.73" font-family="Times,serif" font-size="14.00">HalfNormal</text>
</g>
<!-- y -->
<g id="node6" class="node">
<title>y</title>
<ellipse fill="lightgrey" stroke="black" cx="199.72" cy="-76.48" rx="84.29" ry="37.45"/>
<text text-anchor="middle" x="199.72" y="-87.78" font-family="Times,serif" font-size="14.00">y</text>
<text text-anchor="middle" x="199.72" y="-72.78" font-family="Times,serif" font-size="14.00">~</text>
<text text-anchor="middle" x="199.72" y="-57.78" font-family="Times,serif" font-size="14.00">NegativeBinomial</text>
</g>
<!-- α&#45;&gt;y -->
<g id="edge6" class="edge">
<title>α&#45;&gt;y</title>
<path fill="none" stroke="black" d="M319.01,-159.22C299.11,-145.58 274.74,-128.88 253.22,-114.14"/>
<polygon fill="black" stroke="black" points="255.05,-111.15 244.82,-108.38 251.09,-116.92 255.05,-111.15"/>
</g>
<!-- β_roach -->
<g id="node3" class="node">
<title>β_roach</title>
<ellipse fill="none" stroke="black" cx="145.72" cy="-387.38" rx="43.68" ry="37.45"/>
<text text-anchor="middle" x="145.72" y="-398.68" font-family="Times,serif" font-size="14.00">β_roach</text>
<text text-anchor="middle" x="145.72" y="-383.68" font-family="Times,serif" font-size="14.00">~</text>
<text text-anchor="middle" x="145.72" y="-368.68" font-family="Times,serif" font-size="14.00">Normal</text>
</g>
<!-- β_roach&#45;&gt;η -->
<g id="edge3" class="edge">
<title>β_roach&#45;&gt;η</title>
<path fill="none" stroke="black" d="M164,-353.21C169.33,-343.54 175.18,-332.94 180.56,-323.17"/>
<polygon fill="black" stroke="black" points="183.79,-324.56 185.55,-314.11 177.66,-321.18 183.79,-324.56"/>
</g>
<!-- β_senior -->
<g id="node4" class="node">
<title>β_senior</title>
<ellipse fill="none" stroke="black" cx="253.72" cy="-387.38" rx="45.92" ry="37.45"/>
<text text-anchor="middle" x="253.72" y="-398.68" font-family="Times,serif" font-size="14.00">β_senior</text>
<text text-anchor="middle" x="253.72" y="-383.68" font-family="Times,serif" font-size="14.00">~</text>
<text text-anchor="middle" x="253.72" y="-368.68" font-family="Times,serif" font-size="14.00">Normal</text>
</g>
<!-- β_senior&#45;&gt;η -->
<g id="edge2" class="edge">
<title>β_senior&#45;&gt;η</title>
<path fill="none" stroke="black" d="M235.29,-352.94C229.96,-343.28 224.14,-332.71 218.78,-322.98"/>
<polygon fill="black" stroke="black" points="221.7,-321.04 213.81,-313.97 215.57,-324.42 221.7,-321.04"/>
</g>
<!-- β_treat -->
<g id="node5" class="node">
<title>β_treat</title>
<ellipse fill="none" stroke="black" cx="359.72" cy="-387.38" rx="41.94" ry="37.45"/>
<text text-anchor="middle" x="359.72" y="-398.68" font-family="Times,serif" font-size="14.00">β_treat</text>
<text text-anchor="middle" x="359.72" y="-383.68" font-family="Times,serif" font-size="14.00">~</text>
<text text-anchor="middle" x="359.72" y="-368.68" font-family="Times,serif" font-size="14.00">Normal</text>
</g>
<!-- β_treat&#45;&gt;η -->
<g id="edge1" class="edge">
<title>β_treat&#45;&gt;η</title>
<path fill="none" stroke="black" d="M327.98,-362.89C321.68,-358.45 315.05,-353.94 308.72,-349.91 291.63,-339.02 272.53,-327.9 255.15,-318.17"/>
<polygon fill="black" stroke="black" points="256.68,-315.02 246.24,-313.22 253.28,-321.13 256.68,-315.02"/>
</g>
<!-- μ -->
<g id="node8" class="node">
<title>μ</title>
<polygon fill="none" stroke="black" points="246.22,-213.93 153.22,-213.93 153.22,-160.93 246.22,-160.93 246.22,-213.93"/>
<text text-anchor="middle" x="199.72" y="-198.73" font-family="Times,serif" font-size="14.00">μ</text>
<text text-anchor="middle" x="199.72" y="-183.73" font-family="Times,serif" font-size="14.00">~</text>
<text text-anchor="middle" x="199.72" y="-168.73" font-family="Times,serif" font-size="14.00">Deterministic</text>
</g>
<!-- η&#45;&gt;μ -->
<g id="edge5" class="edge">
<title>η&#45;&gt;μ</title>
<path fill="none" stroke="black" d="M199.72,-260.66C199.72,-249.53 199.72,-236.3 199.72,-224.23"/>
<polygon fill="black" stroke="black" points="203.22,-224 199.72,-214 196.22,-224 203.22,-224"/>
</g>
<!-- μ&#45;&gt;y -->
<g id="edge7" class="edge">
<title>μ&#45;&gt;y</title>
<path fill="none" stroke="black" d="M199.72,-160.89C199.72,-149.98 199.72,-136.89 199.72,-124.35"/>
<polygon fill="black" stroke="black" points="203.22,-124 199.72,-114 196.22,-124 203.22,-124"/>
</g>
</g>
</svg>
