<?xml version="1.0" encoding="UTF-8" standalone="no"?>
<!DOCTYPE svg PUBLIC "-//W3C//DTD SVG 1.1//EN"
 "http://www.w3.org/Graphics/SVG/1.1/DTD/svg11.dtd">
<!-- Generated by graphviz version 2.48.0 (0)
 -->
<!-- Pages: 1 -->
<svg width="653pt" height="452pt"
 viewBox="0.00 0.00 653.40 451.86" xmlns="http://www.w3.org/2000/svg" xmlns:xlink="http://www.w3.org/1999/xlink">
<g id="graph0" class="graph" transform="scale(1 1) rotate(0) translate(4 447.86)">
<polygon fill="white" stroke="transparent" points="-4,4 -4,-447.86 649.4,-447.86 649.4,4 -4,4"/>
<g id="clust1" class="cluster">
<title>cluster314</title>
<path fill="none" stroke="black" d="M138.4,-8C138.4,-8 298.4,-8 298.4,-8 304.4,-8 310.4,-14 310.4,-20 310.4,-20 310.4,-412.88 310.4,-412.88 310.4,-418.88 304.4,-424.88 298.4,-424.88 298.4,-424.88 138.4,-424.88 138.4,-424.88 132.4,-424.88 126.4,-418.88 126.4,-412.88 126.4,-412.88 126.4,-20 126.4,-20 126.4,-14 132.4,-8 138.4,-8"/>
<text text-anchor="middle" x="291.9" y="-15.8" font-family="Times,serif" font-size="14.00">314</text>
</g>
<g id="clust2" class="cluster">
<title>cluster314 x 3</title>
<path fill="none" stroke="black" d="M330.4,-332.88C330.4,-332.88 422.4,-332.88 422.4,-332.88 428.4,-332.88 434.4,-338.88 434.4,-344.88 434.4,-344.88 434.4,-412.88 434.4,-412.88 434.4,-418.88 428.4,-424.88 422.4,-424.88 422.4,-424.88 330.4,-424.88 330.4,-424.88 324.4,-424.88 318.4,-418.88 318.4,-412.88 318.4,-412.88 318.4,-344.88 318.4,-344.88 318.4,-338.88 324.4,-332.88 330.4,-332.88"/>
<text text-anchor="middle" x="405.4" y="-340.68" font-family="Times,serif" font-size="14.00">314 x 3</text>
</g>
<g id="clust3" class="cluster">
<title>cluster3</title>
<path fill="none" stroke="black" d="M549.4,-321.91C549.4,-321.91 625.4,-321.91 625.4,-321.91 631.4,-321.91 637.4,-327.91 637.4,-333.91 637.4,-333.91 637.4,-423.86 637.4,-423.86 637.4,-429.86 631.4,-435.86 625.4,-435.86 625.4,-435.86 549.4,-435.86 549.4,-435.86 543.4,-435.86 537.4,-429.86 537.4,-423.86 537.4,-423.86 537.4,-333.91 537.4,-333.91 537.4,-327.91 543.4,-321.91 549.4,-321.91"/>
<text text-anchor="middle" x="625.9" y="-329.71" font-family="Times,serif" font-size="14.00">3</text>
</g>
<!-- η -->
<g id="node1" class="node">
<title>η</title>
<polygon fill="none" stroke="black" points="301.9,-302.93 208.9,-302.93 208.9,-249.93 301.9,-249.93 301.9,-302.93"/>
<text text-anchor="middle" x="255.4" y="-287.73" font-family="Times,serif" font-size="14.00">η</text>
<text text-anchor="middle" x="255.4" y="-272.73" font-family="Times,serif" font-size="14.00">~</text>
<text text-anchor="middle" x="255.4" y="-257.73" font-family="Times,serif" font-size="14.00">Deterministic</text>
</g>
<!-- daysabs -->
<g id="node2" class="node">
<title>daysabs</title>
<ellipse fill="lightgrey" stroke="black" cx="218.4" cy="-165.48" rx="84.29" ry="37.45"/>
<text text-anchor="middle" x="218.4" y="-176.78" font-family="Times,serif" font-size="14.00">daysabs</text>
<text text-anchor="middle" x="218.4" y="-161.78" font-family="Times,serif" font-size="14.00">~</text>
<text text-anchor="middle" x="218.4" y="-146.78" font-family="Times,serif" font-size="14.00">NegativeBinomial</text>
</g>
<!-- η&#45;&gt;daysabs -->
<g id="edge7" class="edge">
<title>η&#45;&gt;daysabs</title>
<path fill="none" stroke="black" d="M246.72,-249.89C242.91,-238.66 238.31,-225.12 233.94,-212.25"/>
<polygon fill="black" stroke="black" points="237.19,-210.93 230.66,-202.59 230.56,-213.18 237.19,-210.93"/>
</g>
<!-- y_daysabs_shared -->
<g id="node4" class="node">
<title>y_daysabs_shared</title>
<path fill="lightgrey" stroke="black" d="M265.4,-92C265.4,-92 171.4,-92 171.4,-92 165.4,-92 159.4,-86 159.4,-80 159.4,-80 159.4,-51 159.4,-51 159.4,-45 165.4,-39 171.4,-39 171.4,-39 265.4,-39 265.4,-39 271.4,-39 277.4,-45 277.4,-51 277.4,-51 277.4,-80 277.4,-80 277.4,-86 271.4,-92 265.4,-92"/>
<text text-anchor="middle" x="218.4" y="-76.8" font-family="Times,serif" font-size="14.00">y_daysabs_shared</text>
<text text-anchor="middle" x="218.4" y="-61.8" font-family="Times,serif" font-size="14.00">~</text>
<text text-anchor="middle" x="218.4" y="-46.8" font-family="Times,serif" font-size="14.00">Data</text>
</g>
<!-- daysabs&#45;&gt;y_daysabs_shared -->
<g id="edge1" class="edge">
<title>daysabs&#45;&gt;y_daysabs_shared</title>
<path fill="none" stroke="black" d="M218.4,-127.99C218.4,-119.58 218.4,-110.63 218.4,-102.25"/>
<polygon fill="black" stroke="black" points="221.9,-102.01 218.4,-92.01 214.9,-102.01 221.9,-102.01"/>
</g>
<!-- x_math_shared -->
<g id="node3" class="node">
<title>x_math_shared</title>
<path fill="lightgrey" stroke="black" d="M290.4,-416.88C290.4,-416.88 212.4,-416.88 212.4,-416.88 206.4,-416.88 200.4,-410.88 200.4,-404.88 200.4,-404.88 200.4,-375.88 200.4,-375.88 200.4,-369.88 206.4,-363.88 212.4,-363.88 212.4,-363.88 290.4,-363.88 290.4,-363.88 296.4,-363.88 302.4,-369.88 302.4,-375.88 302.4,-375.88 302.4,-404.88 302.4,-404.88 302.4,-410.88 296.4,-416.88 290.4,-416.88"/>
<text text-anchor="middle" x="251.4" y="-401.68" font-family="Times,serif" font-size="14.00">x_math_shared</text>
<text text-anchor="middle" x="251.4" y="-386.68" font-family="Times,serif" font-size="14.00">~</text>
<text text-anchor="middle" x="251.4" y="-371.68" font-family="Times,serif" font-size="14.00">Data</text>
</g>
<!-- x_math_shared&#45;&gt;η -->
<g id="edge3" class="edge">
<title>x_math_shared&#45;&gt;η</title>
<path fill="none" stroke="black" d="M252.31,-363.7C252.85,-348.77 253.53,-329.72 254.11,-313.32"/>
<polygon fill="black" stroke="black" points="257.62,-313.11 254.48,-302.99 250.63,-312.86 257.62,-313.11"/>
</g>
<!-- x_prog_shared -->
<g id="node5" class="node">
<title>x_prog_shared</title>
<path fill="lightgrey" stroke="black" d="M414.4,-416.88C414.4,-416.88 338.4,-416.88 338.4,-416.88 332.4,-416.88 326.4,-410.88 326.4,-404.88 326.4,-404.88 326.4,-375.88 326.4,-375.88 326.4,-369.88 332.4,-363.88 338.4,-363.88 338.4,-363.88 414.4,-363.88 414.4,-363.88 420.4,-363.88 426.4,-369.88 426.4,-375.88 426.4,-375.88 426.4,-404.88 426.4,-404.88 426.4,-410.88 420.4,-416.88 414.4,-416.88"/>
<text text-anchor="middle" x="376.4" y="-401.68" font-family="Times,serif" font-size="14.00">x_prog_shared</text>
<text text-anchor="middle" x="376.4" y="-386.68" font-family="Times,serif" font-size="14.00">~</text>
<text text-anchor="middle" x="376.4" y="-371.68" font-family="Times,serif" font-size="14.00">Data</text>
</g>
<!-- x_prog_shared&#45;&gt;η -->
<g id="edge2" class="edge">
<title>x_prog_shared&#45;&gt;η</title>
<path fill="none" stroke="black" d="M354.75,-363.67C343.28,-350.62 328.65,-334.84 314.4,-321.91 309.72,-317.66 304.66,-313.41 299.54,-309.3"/>
<polygon fill="black" stroke="black" points="301.52,-306.41 291.49,-303 297.2,-311.92 301.52,-306.41"/>
</g>
<!-- α -->
<g id="node6" class="node">
<title>α</title>
<ellipse fill="none" stroke="black" cx="59.4" cy="-276.43" rx="59.29" ry="37.45"/>
<text text-anchor="middle" x="59.4" y="-287.73" font-family="Times,serif" font-size="14.00">α</text>
<text text-anchor="middle" x="59.4" y="-272.73" font-family="Times,serif" font-size="14.00">~</text>
<text text-anchor="middle" x="59.4" y="-257.73" font-family="Times,serif" font-size="14.00">HalfNormal</text>
</g>
<!-- α&#45;&gt;daysabs -->
<g id="edge6" class="edge">
<title>α&#45;&gt;daysabs</title>
<path fill="none" stroke="black" d="M99.11,-248.22C119,-234.58 143.38,-217.88 164.9,-203.14"/>
<polygon fill="black" stroke="black" points="167.03,-205.92 173.3,-197.38 163.07,-200.15 167.03,-205.92"/>
</g>
<!-- β_math -->
<g id="node7" class="node">
<title>β_math</title>
<ellipse fill="none" stroke="black" cx="486.4" cy="-390.38" rx="41.94" ry="37.45"/>
<text text-anchor="middle" x="486.4" y="-401.68" font-family="Times,serif" font-size="14.00">β_math</text>
<text text-anchor="middle" x="486.4" y="-386.68" font-family="Times,serif" font-size="14.00">~</text>
<text text-anchor="middle" x="486.4" y="-371.68" font-family="Times,serif" font-size="14.00">Normal</text>
</g>
<!-- β_math&#45;&gt;η -->
<g id="edge4" class="edge">
<title>β_math&#45;&gt;η</title>
<path fill="none" stroke="black" d="M469.26,-355.84C461.41,-343.49 451.01,-330.45 438.4,-321.91 401,-296.57 350.67,-285.63 312.26,-280.92"/>
<polygon fill="black" stroke="black" points="312.59,-277.44 302.26,-279.8 311.81,-284.39 312.59,-277.44"/>
</g>
<!-- β_prog -->
<g id="node8" class="node">
<title>β_prog</title>
<ellipse fill="none" stroke="black" cx="587.4" cy="-390.38" rx="41.94" ry="37.45"/>
<text text-anchor="middle" x="587.4" y="-401.68" font-family="Times,serif" font-size="14.00">β_prog</text>
<text text-anchor="middle" x="587.4" y="-386.68" font-family="Times,serif" font-size="14.00">~</text>
<text text-anchor="middle" x="587.4" y="-371.68" font-family="Times,serif" font-size="14.00">Normal</text>
</g>
<!-- β_prog&#45;&gt;η -->
<g id="edge5" class="edge">
<title>β_prog&#45;&gt;η</title>
<path fill="none" stroke="black" d="M570.09,-355.98C561.87,-343.35 550.86,-330.07 537.4,-321.91 500.48,-299.54 383.25,-287.02 312.08,-281.3"/>
<polygon fill="black" stroke="black" points="312.18,-277.8 301.93,-280.51 311.63,-284.78 312.18,-277.8"/>
</g>
</g>
</svg>
