<?xml version="1.0" encoding="UTF-8" standalone="no"?>
<!DOCTYPE svg PUBLIC "-//W3C//DTD SVG 1.1//EN"
 "http://www.w3.org/Graphics/SVG/1.1/DTD/svg11.dtd">
<!-- Generated by graphviz version 2.48.0 (20210717.2242)
 -->
<!-- Pages: 1 -->
<svg width="423pt" height="433pt"
 viewBox="0.00 0.00 423.41 432.86" xmlns="http://www.w3.org/2000/svg" xmlns:xlink="http://www.w3.org/1999/xlink">
<g id="graph0" class="graph" transform="scale(1 1) rotate(0) translate(4 428.86)">
<polygon fill="white" stroke="transparent" points="-4,4 -4,-428.86 419.41,-428.86 419.41,4 -4,4"/>
<g id="clust1" class="cluster">
<title>cluster262</title>
<path fill="none" stroke="black" d="M121.72,-8C121.72,-8 277.72,-8 277.72,-8 283.72,-8 289.72,-14 289.72,-20 289.72,-20 289.72,-309.91 289.72,-309.91 289.72,-315.91 283.72,-321.91 277.72,-321.91 277.72,-321.91 121.72,-321.91 121.72,-321.91 115.72,-321.91 109.72,-315.91 109.72,-309.91 109.72,-309.91 109.72,-20 109.72,-20 109.72,-14 115.72,-8 121.72,-8"/>
<text text-anchor="middle" x="271.22" y="-15.8" font-family="Times,serif" font-size="14.00">262</text>
</g>
<!-- β_treat -->
<g id="node1" class="node">
<title>β_treat</title>
<ellipse fill="none" stroke="black" cx="41.72" cy="-387.38" rx="41.94" ry="37.45"/>
<text text-anchor="middle" x="41.72" y="-398.68" font-family="Times,serif" font-size="14.00">β_treat</text>
<text text-anchor="middle" x="41.72" y="-383.68" font-family="Times,serif" font-size="14.00">~</text>
<text text-anchor="middle" x="41.72" y="-368.68" font-family="Times,serif" font-size="14.00">Normal</text>
</g>
<!-- η -->
<g id="node8" class="node">
<title>η</title>
<polygon fill="none" stroke="black" points="245.72,-313.91 153.72,-313.91 153.72,-260.91 245.72,-260.91 245.72,-313.91"/>
<text text-anchor="middle" x="199.72" y="-298.71" font-family="Times,serif" font-size="14.00">η</text>
<text text-anchor="middle" x="199.72" y="-283.71" font-family="Times,serif" font-size="14.00">~</text>
<text text-anchor="middle" x="199.72" y="-268.71" font-family="Times,serif" font-size="14.00">Deterministic</text>
</g>
<!-- β_treat&#45;&gt;η -->
<g id="edge3" class="edge">
<title>β_treat&#45;&gt;η</title>
<path fill="none" stroke="black" d="M73.49,-362.93C79.78,-358.49 86.4,-353.97 92.72,-349.91 109.22,-339.3 127.6,-328.42 144.41,-318.81"/>
<polygon fill="black" stroke="black" points="146.6,-321.59 153.56,-313.61 143.14,-315.5 146.6,-321.59"/>
</g>
<!-- β_senior -->
<g id="node2" class="node">
<title>β_senior</title>
<ellipse fill="none" stroke="black" cx="146.72" cy="-387.38" rx="45.01" ry="37.45"/>
<text text-anchor="middle" x="146.72" y="-398.68" font-family="Times,serif" font-size="14.00">β_senior</text>
<text text-anchor="middle" x="146.72" y="-383.68" font-family="Times,serif" font-size="14.00">~</text>
<text text-anchor="middle" x="146.72" y="-368.68" font-family="Times,serif" font-size="14.00">Normal</text>
</g>
<!-- β_senior&#45;&gt;η -->
<g id="edge2" class="edge">
<title>β_senior&#45;&gt;η</title>
<path fill="none" stroke="black" d="M164.81,-352.94C170.04,-343.28 175.75,-332.71 181.01,-322.98"/>
<polygon fill="black" stroke="black" points="184.21,-324.43 185.89,-313.97 178.06,-321.1 184.21,-324.43"/>
</g>
<!-- α -->
<g id="node3" class="node">
<title>α</title>
<ellipse fill="none" stroke="black" cx="356.72" cy="-187.43" rx="58.88" ry="37.45"/>
<text text-anchor="middle" x="356.72" y="-198.73" font-family="Times,serif" font-size="14.00">α</text>
<text text-anchor="middle" x="356.72" y="-183.73" font-family="Times,serif" font-size="14.00">~</text>
<text text-anchor="middle" x="356.72" y="-168.73" font-family="Times,serif" font-size="14.00">HalfNormal</text>
</g>
<!-- y -->
<g id="node6" class="node">
<title>y</title>
<ellipse fill="lightgrey" stroke="black" cx="199.72" cy="-76.48" rx="82.05" ry="37.45"/>
<text text-anchor="middle" x="199.72" y="-87.78" font-family="Times,serif" font-size="14.00">y</text>
<text text-anchor="middle" x="199.72" y="-72.78" font-family="Times,serif" font-size="14.00">~</text>
<text text-anchor="middle" x="199.72" y="-57.78" font-family="Times,serif" font-size="14.00">NegativeBinomial</text>
</g>
<!-- α&#45;&gt;y -->
<g id="edge7" class="edge">
<title>α&#45;&gt;y</title>
<path fill="none" stroke="black" d="M317.51,-159.22C297.78,-145.53 273.6,-128.75 252.29,-113.96"/>
<polygon fill="black" stroke="black" points="254.18,-111.01 243.97,-108.19 250.19,-116.76 254.18,-111.01"/>
</g>
<!-- β_roach -->
<g id="node4" class="node">
<title>β_roach</title>
<ellipse fill="none" stroke="black" cx="252.72" cy="-387.38" rx="43.27" ry="37.45"/>
<text text-anchor="middle" x="252.72" y="-398.68" font-family="Times,serif" font-size="14.00">β_roach</text>
<text text-anchor="middle" x="252.72" y="-383.68" font-family="Times,serif" font-size="14.00">~</text>
<text text-anchor="middle" x="252.72" y="-368.68" font-family="Times,serif" font-size="14.00">Normal</text>
</g>
<!-- β_roach&#45;&gt;η -->
<g id="edge1" class="edge">
<title>β_roach&#45;&gt;η</title>
<path fill="none" stroke="black" d="M234.78,-353.21C229.54,-343.54 223.81,-332.94 218.52,-323.17"/>
<polygon fill="black" stroke="black" points="221.46,-321.24 213.62,-314.11 215.3,-324.57 221.46,-321.24"/>
</g>
<!-- β -->
<g id="node5" class="node">
<title>β</title>
<ellipse fill="none" stroke="black" cx="355.72" cy="-387.38" rx="41.94" ry="37.45"/>
<text text-anchor="middle" x="355.72" y="-398.68" font-family="Times,serif" font-size="14.00">β</text>
<text text-anchor="middle" x="355.72" y="-383.68" font-family="Times,serif" font-size="14.00">~</text>
<text text-anchor="middle" x="355.72" y="-368.68" font-family="Times,serif" font-size="14.00">Normal</text>
</g>
<!-- β&#45;&gt;η -->
<g id="edge4" class="edge">
<title>β&#45;&gt;η</title>
<path fill="none" stroke="black" d="M323.92,-362.97C317.63,-358.53 311.02,-353.99 304.72,-349.91 288.64,-339.48 270.78,-328.72 254.41,-319.18"/>
<polygon fill="black" stroke="black" points="255.9,-315.99 245.49,-314.01 252.39,-322.05 255.9,-315.99"/>
</g>
<!-- μ -->
<g id="node7" class="node">
<title>μ</title>
<polygon fill="none" stroke="black" points="245.72,-213.93 153.72,-213.93 153.72,-160.93 245.72,-160.93 245.72,-213.93"/>
<text text-anchor="middle" x="199.72" y="-198.73" font-family="Times,serif" font-size="14.00">μ</text>
<text text-anchor="middle" x="199.72" y="-183.73" font-family="Times,serif" font-size="14.00">~</text>
<text text-anchor="middle" x="199.72" y="-168.73" font-family="Times,serif" font-size="14.00">Deterministic</text>
</g>
<!-- μ&#45;&gt;y -->
<g id="edge6" class="edge">
<title>μ&#45;&gt;y</title>
<path fill="none" stroke="black" d="M199.72,-160.89C199.72,-149.98 199.72,-136.89 199.72,-124.35"/>
<polygon fill="black" stroke="black" points="203.22,-124 199.72,-114 196.22,-124 203.22,-124"/>
</g>
<!-- η&#45;&gt;μ -->
<g id="edge5" class="edge">
<title>η&#45;&gt;μ</title>
<path fill="none" stroke="black" d="M199.72,-260.66C199.72,-249.53 199.72,-236.3 199.72,-224.23"/>
<polygon fill="black" stroke="black" points="203.22,-224 199.72,-214 196.22,-224 203.22,-224"/>
</g>
</g>
</svg>
