<?xml version="1.0" encoding="UTF-8" standalone="no"?>
<!DOCTYPE svg PUBLIC "-//W3C//DTD SVG 1.1//EN"
 "http://www.w3.org/Graphics/SVG/1.1/DTD/svg11.dtd">
<!-- Generated by graphviz version 2.50.0 (0)
 -->
<!-- Pages: 1 -->
<svg width="284pt" height="485pt"
 viewBox="0.00 0.00 284.13 484.81" xmlns="http://www.w3.org/2000/svg" xmlns:xlink="http://www.w3.org/1999/xlink">
<g id="graph0" class="graph" transform="scale(1 1) rotate(0) translate(4 480.81)">
<polygon fill="white" stroke="transparent" points="-4,4 -4,-480.81 280.13,-480.81 280.13,4 -4,4"/>
<g id="clust1" class="cluster">
<title>cluster12 x 1</title>
<path fill="none" stroke="black" d="M20,-354.86C20,-354.86 106,-354.86 106,-354.86 112,-354.86 118,-360.86 118,-366.86 118,-366.86 118,-456.81 118,-456.81 118,-462.81 112,-468.81 106,-468.81 106,-468.81 20,-468.81 20,-468.81 14,-468.81 8,-462.81 8,-456.81 8,-456.81 8,-366.86 8,-366.86 8,-360.86 14,-354.86 20,-354.86"/>
<text text-anchor="middle" x="92.5" y="-362.66" font-family="Times,serif" font-size="14.00">12 x 1</text>
</g>
<g id="clust2" class="cluster">
<title>cluster12 x 2</title>
<path fill="none" stroke="black" d="M80,-232.91C80,-232.91 156,-232.91 156,-232.91 162,-232.91 168,-238.91 168,-244.91 168,-244.91 168,-334.86 168,-334.86 168,-340.86 162,-346.86 156,-346.86 156,-346.86 80,-346.86 80,-346.86 74,-346.86 68,-340.86 68,-334.86 68,-334.86 68,-244.91 68,-244.91 68,-238.91 74,-232.91 80,-232.91"/>
<text text-anchor="middle" x="142.5" y="-240.71" font-family="Times,serif" font-size="14.00">12 x 2</text>
</g>
<g id="clust3" class="cluster">
<title>cluster500</title>
<path fill="none" stroke="black" d="M76,-8C76,-8 170,-8 170,-8 176,-8 182,-14 182,-20 182,-20 182,-209.93 182,-209.93 182,-215.93 176,-221.93 170,-221.93 170,-221.93 76,-221.93 76,-221.93 70,-221.93 64,-215.93 64,-209.93 64,-209.93 64,-20 64,-20 64,-14 70,-8 76,-8"/>
<text text-anchor="middle" x="163.5" y="-15.8" font-family="Times,serif" font-size="14.00">500</text>
</g>
<!-- mu_w -->
<g id="node1" class="node">
<title>mu_w</title>
<ellipse fill="none" stroke="black" cx="63" cy="-423.34" rx="46.84" ry="37.45"/>
<text text-anchor="middle" x="63" y="-434.64" font-family="Times,serif" font-size="14.00">mu_w</text>
<text text-anchor="middle" x="63" y="-419.64" font-family="Times,serif" font-size="14.00">~</text>
<text text-anchor="middle" x="63" y="-404.64" font-family="Times,serif" font-size="14.00">StudentT</text>
</g>
<!-- w -->
<g id="node4" class="node">
<title>w</title>
<ellipse fill="none" stroke="black" cx="118" cy="-301.38" rx="41.94" ry="37.45"/>
<text text-anchor="middle" x="118" y="-312.68" font-family="Times,serif" font-size="14.00">w</text>
<text text-anchor="middle" x="118" y="-297.68" font-family="Times,serif" font-size="14.00">~</text>
<text text-anchor="middle" x="118" y="-282.68" font-family="Times,serif" font-size="14.00">Normal</text>
</g>
<!-- mu_w&#45;&gt;w -->
<g id="edge1" class="edge">
<title>mu_w&#45;&gt;w</title>
<path fill="none" stroke="black" d="M78.76,-387.96C84.8,-374.8 91.76,-359.61 98.13,-345.72"/>
<polygon fill="black" stroke="black" points="101.44,-346.9 102.43,-336.35 95.08,-343.98 101.44,-346.9"/>
</g>
<!-- sigma -->
<g id="node2" class="node">
<title>sigma</title>
<ellipse fill="none" stroke="black" cx="233" cy="-187.43" rx="43.27" ry="37.45"/>
<text text-anchor="middle" x="233" y="-198.73" font-family="Times,serif" font-size="14.00">sigma</text>
<text text-anchor="middle" x="233" y="-183.73" font-family="Times,serif" font-size="14.00">~</text>
<text text-anchor="middle" x="233" y="-168.73" font-family="Times,serif" font-size="14.00">Gamma</text>
</g>
<!-- y -->
<g id="node5" class="node">
<title>y</title>
<ellipse fill="lightgrey" stroke="black" cx="114" cy="-76.48" rx="41.94" ry="37.45"/>
<text text-anchor="middle" x="114" y="-87.78" font-family="Times,serif" font-size="14.00">y</text>
<text text-anchor="middle" x="114" y="-72.78" font-family="Times,serif" font-size="14.00">~</text>
<text text-anchor="middle" x="114" y="-57.78" font-family="Times,serif" font-size="14.00">Normal</text>
</g>
<!-- sigma&#45;&gt;y -->
<g id="edge6" class="edge">
<title>sigma&#45;&gt;y</title>
<path fill="none" stroke="black" d="M203.58,-159.5C187.47,-144.74 167.36,-126.33 150.28,-110.69"/>
<polygon fill="black" stroke="black" points="152.41,-107.89 142.67,-103.72 147.68,-113.06 152.41,-107.89"/>
</g>
<!-- sigma_w -->
<g id="node3" class="node">
<title>sigma_w</title>
<ellipse fill="none" stroke="black" cx="174" cy="-423.34" rx="46.84" ry="37.45"/>
<text text-anchor="middle" x="174" y="-434.64" font-family="Times,serif" font-size="14.00">sigma_w</text>
<text text-anchor="middle" x="174" y="-419.64" font-family="Times,serif" font-size="14.00">~</text>
<text text-anchor="middle" x="174" y="-404.64" font-family="Times,serif" font-size="14.00">Gamma</text>
</g>
<!-- sigma_w&#45;&gt;w -->
<g id="edge2" class="edge">
<title>sigma_w&#45;&gt;w</title>
<path fill="none" stroke="black" d="M157.95,-387.96C151.81,-374.8 144.72,-359.61 138.23,-345.72"/>
<polygon fill="black" stroke="black" points="141.26,-343.93 133.86,-336.35 134.91,-346.89 141.26,-343.93"/>
</g>
<!-- mu -->
<g id="node6" class="node">
<title>mu</title>
<polygon fill="none" stroke="black" points="163.5,-213.93 72.5,-213.93 72.5,-160.93 163.5,-160.93 163.5,-213.93"/>
<text text-anchor="middle" x="118" y="-198.73" font-family="Times,serif" font-size="14.00">mu</text>
<text text-anchor="middle" x="118" y="-183.73" font-family="Times,serif" font-size="14.00">~</text>
<text text-anchor="middle" x="118" y="-168.73" font-family="Times,serif" font-size="14.00">Deterministic</text>
</g>
<!-- w&#45;&gt;mu -->
<g id="edge3" class="edge">
<title>w&#45;&gt;mu</title>
<path fill="none" stroke="black" d="M118,-263.73C118,-251.07 118,-236.92 118,-224.32"/>
<polygon fill="black" stroke="black" points="121.5,-224.18 118,-214.18 114.5,-224.18 121.5,-224.18"/>
</g>
<!-- y&#45;&gt;y -->
<g id="edge4" class="edge">
<title>y&#45;&gt;y</title>
<path fill="none" stroke="black" d="M148.96,-97.02C162.48,-97.93 173.72,-91.09 173.72,-76.48 173.72,-65.75 167.66,-59.2 159.09,-56.85"/>
<polygon fill="black" stroke="black" points="159.24,-53.35 148.96,-55.93 158.61,-60.32 159.24,-53.35"/>
</g>
<!-- mu&#45;&gt;y -->
<g id="edge5" class="edge">
<title>mu&#45;&gt;y</title>
<path fill="none" stroke="black" d="M117.06,-160.89C116.66,-149.98 116.18,-136.89 115.72,-124.35"/>
<polygon fill="black" stroke="black" points="119.21,-123.87 115.34,-114 112.21,-124.12 119.21,-123.87"/>
</g>
</g>
</svg>
