<?xml version="1.0" encoding="UTF-8" standalone="no"?>
<!DOCTYPE svg PUBLIC "-//W3C//DTD SVG 1.1//EN"
 "http://www.w3.org/Graphics/SVG/1.1/DTD/svg11.dtd">
<!-- Generated by graphviz version 2.47.0 (20210327.0129)
 -->
<!-- Pages: 1 -->
<svg width="1542pt" height="474pt"
 viewBox="0.00 0.00 1541.58 473.84" xmlns="http://www.w3.org/2000/svg" xmlns:xlink="http://www.w3.org/1999/xlink">
<g id="graph0" class="graph" transform="scale(1 1) rotate(0) translate(4 469.84)">
<polygon fill="white" stroke="transparent" points="-4,4 -4,-469.84 1537.58,-469.84 1537.58,4 -4,4"/>
<g id="clust1" class="cluster">
<title>cluster64</title>
<path fill="none" stroke="black" d="M117.79,-243.91C117.79,-243.91 221.79,-243.91 221.79,-243.91 227.79,-243.91 233.79,-249.91 233.79,-255.91 233.79,-255.91 233.79,-445.84 233.79,-445.84 233.79,-451.84 227.79,-457.84 221.79,-457.84 221.79,-457.84 117.79,-457.84 117.79,-457.84 111.79,-457.84 105.79,-451.84 105.79,-445.84 105.79,-445.84 105.79,-255.91 105.79,-255.91 105.79,-249.91 111.79,-243.91 117.79,-243.91"/>
<text text-anchor="middle" x="216.29" y="-251.71" font-family="Times-Roman" font-size="14.00">64</text>
</g>
<g id="clust2" class="cluster">
<title>cluster64 x 10</title>
<path fill="none" stroke="black" d="M399.79,-243.91C399.79,-243.91 503.79,-243.91 503.79,-243.91 509.79,-243.91 515.79,-249.91 515.79,-255.91 515.79,-255.91 515.79,-445.84 515.79,-445.84 515.79,-451.84 509.79,-457.84 503.79,-457.84 503.79,-457.84 399.79,-457.84 399.79,-457.84 393.79,-457.84 387.79,-451.84 387.79,-445.84 387.79,-445.84 387.79,-255.91 387.79,-255.91 387.79,-249.91 393.79,-243.91 399.79,-243.91"/>
<text text-anchor="middle" x="480.79" y="-251.71" font-family="Times-Roman" font-size="14.00">64 x 10</text>
</g>
<g id="clust3" class="cluster">
<title>cluster4</title>
<path fill="none" stroke="black" d="M797.79,-243.91C797.79,-243.91 901.79,-243.91 901.79,-243.91 907.79,-243.91 913.79,-249.91 913.79,-255.91 913.79,-255.91 913.79,-445.84 913.79,-445.84 913.79,-451.84 907.79,-457.84 901.79,-457.84 901.79,-457.84 797.79,-457.84 797.79,-457.84 791.79,-457.84 785.79,-451.84 785.79,-445.84 785.79,-445.84 785.79,-255.91 785.79,-255.91 785.79,-249.91 791.79,-243.91 797.79,-243.91"/>
<text text-anchor="middle" x="900.79" y="-251.71" font-family="Times-Roman" font-size="14.00">4</text>
</g>
<g id="clust4" class="cluster">
<title>cluster10</title>
<path fill="none" stroke="black" d="M1195.79,-243.91C1195.79,-243.91 1299.79,-243.91 1299.79,-243.91 1305.79,-243.91 1311.79,-249.91 1311.79,-255.91 1311.79,-255.91 1311.79,-445.84 1311.79,-445.84 1311.79,-451.84 1305.79,-457.84 1299.79,-457.84 1299.79,-457.84 1195.79,-457.84 1195.79,-457.84 1189.79,-457.84 1183.79,-451.84 1183.79,-445.84 1183.79,-445.84 1183.79,-255.91 1183.79,-255.91 1183.79,-249.91 1189.79,-243.91 1195.79,-243.91"/>
<text text-anchor="middle" x="1294.29" y="-251.71" font-family="Times-Roman" font-size="14.00">10</text>
</g>
<g id="clust5" class="cluster">
<title>cluster1,443</title>
<path fill="none" stroke="black" d="M797.79,-8C797.79,-8 901.79,-8 901.79,-8 907.79,-8 913.79,-14 913.79,-20 913.79,-20 913.79,-212.93 913.79,-212.93 913.79,-218.93 907.79,-224.93 901.79,-224.93 901.79,-224.93 797.79,-224.93 797.79,-224.93 791.79,-224.93 785.79,-218.93 785.79,-212.93 785.79,-212.93 785.79,-20 785.79,-20 785.79,-14 791.79,-8 797.79,-8"/>
<text text-anchor="middle" x="885.29" y="-15.8" font-family="Times-Roman" font-size="14.00">1,443</text>
</g>
<g id="clust6" class="cluster">
<title>cluster192</title>
<path fill="none" stroke="black" d="M1051.79,-121.95C1051.79,-121.95 1181.79,-121.95 1181.79,-121.95 1187.79,-121.95 1193.79,-127.95 1193.79,-133.95 1193.79,-133.95 1193.79,-223.91 1193.79,-223.91 1193.79,-229.91 1187.79,-235.91 1181.79,-235.91 1181.79,-235.91 1051.79,-235.91 1051.79,-235.91 1045.79,-235.91 1039.79,-229.91 1039.79,-223.91 1039.79,-223.91 1039.79,-133.95 1039.79,-133.95 1039.79,-127.95 1045.79,-121.95 1051.79,-121.95"/>
<text text-anchor="middle" x="1171.79" y="-129.75" font-family="Times-Roman" font-size="14.00">192</text>
</g>
<!-- μ_h -->
<g id="node1" class="node">
<title>μ_h</title>
<ellipse fill="none" stroke="black" cx="48.79" cy="-412.36" rx="48.58" ry="37.45"/>
<text text-anchor="middle" x="48.79" y="-423.66" font-family="Times-Roman" font-size="14.00">μ_h</text>
<text text-anchor="middle" x="48.79" y="-408.66" font-family="Times-Roman" font-size="14.00">~</text>
<text text-anchor="middle" x="48.79" y="-393.66" font-family="Times-Roman" font-size="14.00">Normal</text>
</g>
<!-- h -->
<g id="node11" class="node">
<title>h</title>
<polygon fill="none" stroke="black" points="225.79,-327.91 113.79,-327.91 113.79,-274.91 225.79,-274.91 225.79,-327.91"/>
<text text-anchor="middle" x="169.79" y="-312.71" font-family="Times-Roman" font-size="14.00">h</text>
<text text-anchor="middle" x="169.79" y="-297.71" font-family="Times-Roman" font-size="14.00">~</text>
<text text-anchor="middle" x="169.79" y="-282.71" font-family="Times-Roman" font-size="14.00">Deterministic</text>
</g>
<!-- μ_h&#45;&gt;h -->
<g id="edge1" class="edge">
<title>μ_h&#45;&gt;h</title>
<path fill="none" stroke="black" d="M79.95,-383.3C96.35,-368.54 116.53,-350.36 133.62,-334.98"/>
<polygon fill="black" stroke="black" points="136.13,-337.42 141.22,-328.13 131.45,-332.22 136.13,-337.42"/>
</g>
<!-- μ_d -->
<g id="node2" class="node">
<title>μ_d</title>
<ellipse fill="none" stroke="black" cx="572.79" cy="-412.36" rx="48.58" ry="37.45"/>
<text text-anchor="middle" x="572.79" y="-423.66" font-family="Times-Roman" font-size="14.00">μ_d</text>
<text text-anchor="middle" x="572.79" y="-408.66" font-family="Times-Roman" font-size="14.00">~</text>
<text text-anchor="middle" x="572.79" y="-393.66" font-family="Times-Roman" font-size="14.00">Normal</text>
</g>
<!-- d -->
<g id="node12" class="node">
<title>d</title>
<polygon fill="none" stroke="black" points="507.79,-327.91 395.79,-327.91 395.79,-274.91 507.79,-274.91 507.79,-327.91"/>
<text text-anchor="middle" x="451.79" y="-312.71" font-family="Times-Roman" font-size="14.00">d</text>
<text text-anchor="middle" x="451.79" y="-297.71" font-family="Times-Roman" font-size="14.00">~</text>
<text text-anchor="middle" x="451.79" y="-282.71" font-family="Times-Roman" font-size="14.00">Deterministic</text>
</g>
<!-- μ_d&#45;&gt;d -->
<g id="edge5" class="edge">
<title>μ_d&#45;&gt;d</title>
<path fill="none" stroke="black" d="M541.63,-383.3C525.23,-368.54 505.05,-350.36 487.96,-334.98"/>
<polygon fill="black" stroke="black" points="490.13,-332.22 480.36,-328.13 485.45,-337.42 490.13,-332.22"/>
</g>
<!-- σ_β -->
<g id="node3" class="node">
<title>σ_β</title>
<ellipse fill="none" stroke="black" cx="1368.79" cy="-412.36" rx="48.58" ry="37.45"/>
<text text-anchor="middle" x="1368.79" y="-423.66" font-family="Times-Roman" font-size="14.00">σ_β</text>
<text text-anchor="middle" x="1368.79" y="-408.66" font-family="Times-Roman" font-size="14.00">~</text>
<text text-anchor="middle" x="1368.79" y="-393.66" font-family="Times-Roman" font-size="14.00">Normal</text>
</g>
<!-- β -->
<g id="node17" class="node">
<title>β</title>
<polygon fill="none" stroke="black" points="1303.79,-327.91 1191.79,-327.91 1191.79,-274.91 1303.79,-274.91 1303.79,-327.91"/>
<text text-anchor="middle" x="1247.79" y="-312.71" font-family="Times-Roman" font-size="14.00">β</text>
<text text-anchor="middle" x="1247.79" y="-297.71" font-family="Times-Roman" font-size="14.00">~</text>
<text text-anchor="middle" x="1247.79" y="-282.71" font-family="Times-Roman" font-size="14.00">Deterministic</text>
</g>
<!-- σ_β&#45;&gt;β -->
<g id="edge11" class="edge">
<title>σ_β&#45;&gt;β</title>
<path fill="none" stroke="black" d="M1337.63,-383.3C1321.23,-368.54 1301.05,-350.36 1283.96,-334.98"/>
<polygon fill="black" stroke="black" points="1286.13,-332.22 1276.36,-328.13 1281.45,-337.42 1286.13,-332.22"/>
</g>
<!-- σ_h -->
<g id="node4" class="node">
<title>σ_h</title>
<ellipse fill="none" stroke="black" cx="310.79" cy="-412.36" rx="69.09" ry="37.45"/>
<text text-anchor="middle" x="310.79" y="-423.66" font-family="Times-Roman" font-size="14.00">σ_h</text>
<text text-anchor="middle" x="310.79" y="-408.66" font-family="Times-Roman" font-size="14.00">~</text>
<text text-anchor="middle" x="310.79" y="-393.66" font-family="Times-Roman" font-size="14.00">HalfNormal</text>
</g>
<!-- σ_h&#45;&gt;h -->
<g id="edge3" class="edge">
<title>σ_h&#45;&gt;h</title>
<path fill="none" stroke="black" d="M271.89,-381.3C252.92,-366.64 230.09,-349 210.84,-334.13"/>
<polygon fill="black" stroke="black" points="212.89,-331.28 202.83,-327.94 208.61,-336.82 212.89,-331.28"/>
</g>
<!-- σ_η -->
<g id="node5" class="node">
<title>σ_η</title>
<ellipse fill="none" stroke="black" cx="990.79" cy="-412.36" rx="69.09" ry="37.45"/>
<text text-anchor="middle" x="990.79" y="-423.66" font-family="Times-Roman" font-size="14.00">σ_η</text>
<text text-anchor="middle" x="990.79" y="-408.66" font-family="Times-Roman" font-size="14.00">~</text>
<text text-anchor="middle" x="990.79" y="-393.66" font-family="Times-Roman" font-size="14.00">HalfNormal</text>
</g>
<!-- η -->
<g id="node14" class="node">
<title>η</title>
<polygon fill="none" stroke="black" points="905.79,-327.91 793.79,-327.91 793.79,-274.91 905.79,-274.91 905.79,-327.91"/>
<text text-anchor="middle" x="849.79" y="-312.71" font-family="Times-Roman" font-size="14.00">η</text>
<text text-anchor="middle" x="849.79" y="-297.71" font-family="Times-Roman" font-size="14.00">~</text>
<text text-anchor="middle" x="849.79" y="-282.71" font-family="Times-Roman" font-size="14.00">Deterministic</text>
</g>
<!-- σ_η&#45;&gt;η -->
<g id="edge8" class="edge">
<title>σ_η&#45;&gt;η</title>
<path fill="none" stroke="black" d="M951.89,-381.3C932.92,-366.64 910.09,-349 890.84,-334.13"/>
<polygon fill="black" stroke="black" points="892.89,-331.28 882.83,-327.94 888.61,-336.82 892.89,-331.28"/>
</g>
<!-- σ_d -->
<g id="node6" class="node">
<title>σ_d</title>
<ellipse fill="none" stroke="black" cx="708.79" cy="-412.36" rx="69.09" ry="37.45"/>
<text text-anchor="middle" x="708.79" y="-423.66" font-family="Times-Roman" font-size="14.00">σ_d</text>
<text text-anchor="middle" x="708.79" y="-408.66" font-family="Times-Roman" font-size="14.00">~</text>
<text text-anchor="middle" x="708.79" y="-393.66" font-family="Times-Roman" font-size="14.00">HalfNormal</text>
</g>
<!-- σ_d&#45;&gt;d -->
<g id="edge4" class="edge">
<title>σ_d&#45;&gt;d</title>
<path fill="none" stroke="black" d="M657.36,-386.84C648.53,-382.77 639.42,-378.65 630.79,-374.88 593.57,-358.66 551.5,-341.56 517.5,-328.05"/>
<polygon fill="black" stroke="black" points="518.73,-324.77 508.14,-324.34 516.15,-331.28 518.73,-324.77"/>
</g>
<!-- μ_β -->
<g id="node7" class="node">
<title>μ_β</title>
<ellipse fill="none" stroke="black" cx="1484.79" cy="-412.36" rx="48.58" ry="37.45"/>
<text text-anchor="middle" x="1484.79" y="-423.66" font-family="Times-Roman" font-size="14.00">μ_β</text>
<text text-anchor="middle" x="1484.79" y="-408.66" font-family="Times-Roman" font-size="14.00">~</text>
<text text-anchor="middle" x="1484.79" y="-393.66" font-family="Times-Roman" font-size="14.00">Normal</text>
</g>
<!-- μ_β&#45;&gt;β -->
<g id="edge10" class="edge">
<title>μ_β&#45;&gt;β</title>
<path fill="none" stroke="black" d="M1448.77,-386.74C1441.66,-382.45 1434.13,-378.28 1426.79,-374.88 1378.58,-352.56 1361.55,-360 1312.79,-338.88 1308.42,-336.99 1303.96,-334.89 1299.53,-332.67"/>
<polygon fill="black" stroke="black" points="1301.01,-329.5 1290.52,-328.01 1297.79,-335.71 1301.01,-329.5"/>
</g>
<!-- μ_η -->
<g id="node8" class="node">
<title>μ_η</title>
<ellipse fill="none" stroke="black" cx="1126.79" cy="-412.36" rx="48.58" ry="37.45"/>
<text text-anchor="middle" x="1126.79" y="-423.66" font-family="Times-Roman" font-size="14.00">μ_η</text>
<text text-anchor="middle" x="1126.79" y="-408.66" font-family="Times-Roman" font-size="14.00">~</text>
<text text-anchor="middle" x="1126.79" y="-393.66" font-family="Times-Roman" font-size="14.00">Normal</text>
</g>
<!-- μ_η&#45;&gt;η -->
<g id="edge7" class="edge">
<title>μ_η&#45;&gt;η</title>
<path fill="none" stroke="black" d="M1090.73,-386.82C1083.63,-382.52 1076.11,-378.33 1068.79,-374.88 1019.28,-351.55 960.22,-332.47 915.92,-319.76"/>
<polygon fill="black" stroke="black" points="916.7,-316.34 906.13,-316.98 914.79,-323.08 916.7,-316.34"/>
</g>
<!-- σ_σ -->
<g id="node9" class="node">
<title>σ_σ</title>
<ellipse fill="none" stroke="black" cx="1390.79" cy="-301.41" rx="69.09" ry="37.45"/>
<text text-anchor="middle" x="1390.79" y="-312.71" font-family="Times-Roman" font-size="14.00">σ_σ</text>
<text text-anchor="middle" x="1390.79" y="-297.71" font-family="Times-Roman" font-size="14.00">~</text>
<text text-anchor="middle" x="1390.79" y="-282.71" font-family="Times-Roman" font-size="14.00">HalfNormal</text>
</g>
<!-- σ -->
<g id="node20" class="node">
<title>σ</title>
<ellipse fill="none" stroke="black" cx="1116.79" cy="-190.43" rx="69.09" ry="37.45"/>
<text text-anchor="middle" x="1116.79" y="-201.73" font-family="Times-Roman" font-size="14.00">σ</text>
<text text-anchor="middle" x="1116.79" y="-186.73" font-family="Times-Roman" font-size="14.00">~</text>
<text text-anchor="middle" x="1116.79" y="-171.73" font-family="Times-Roman" font-size="14.00">HalfNormal</text>
</g>
<!-- σ_σ&#45;&gt;σ -->
<g id="edge17" class="edge">
<title>σ_σ&#45;&gt;σ</title>
<path fill="none" stroke="black" d="M1355.26,-269.2C1343.35,-259.99 1329.58,-250.6 1315.79,-243.91 1277.13,-225.15 1230.88,-212.44 1192.7,-204.23"/>
<polygon fill="black" stroke="black" points="1193.18,-200.75 1182.67,-202.13 1191.75,-207.6 1193.18,-200.75"/>
</g>
<!-- h_offset -->
<g id="node10" class="node">
<title>h_offset</title>
<ellipse fill="none" stroke="black" cx="169.79" cy="-412.36" rx="52.15" ry="37.45"/>
<text text-anchor="middle" x="169.79" y="-423.66" font-family="Times-Roman" font-size="14.00">h_offset</text>
<text text-anchor="middle" x="169.79" y="-408.66" font-family="Times-Roman" font-size="14.00">~</text>
<text text-anchor="middle" x="169.79" y="-393.66" font-family="Times-Roman" font-size="14.00">Normal</text>
</g>
<!-- h_offset&#45;&gt;h -->
<g id="edge2" class="edge">
<title>h_offset&#45;&gt;h</title>
<path fill="none" stroke="black" d="M169.79,-374.78C169.79,-363.04 169.79,-350.05 169.79,-338.36"/>
<polygon fill="black" stroke="black" points="173.29,-338.06 169.79,-328.06 166.29,-338.06 173.29,-338.06"/>
</g>
<!-- μ -->
<g id="node18" class="node">
<title>μ</title>
<polygon fill="none" stroke="black" points="905.79,-216.93 793.79,-216.93 793.79,-163.93 905.79,-163.93 905.79,-216.93"/>
<text text-anchor="middle" x="849.79" y="-201.73" font-family="Times-Roman" font-size="14.00">μ</text>
<text text-anchor="middle" x="849.79" y="-186.73" font-family="Times-Roman" font-size="14.00">~</text>
<text text-anchor="middle" x="849.79" y="-171.73" font-family="Times-Roman" font-size="14.00">Deterministic</text>
</g>
<!-- h&#45;&gt;μ -->
<g id="edge13" class="edge">
<title>h&#45;&gt;μ</title>
<path fill="none" stroke="black" d="M226.05,-283.14C268.91,-270.58 329.59,-254.06 383.79,-243.91 524.8,-217.5 692.47,-202.58 783.29,-195.85"/>
<polygon fill="black" stroke="black" points="783.73,-199.33 793.45,-195.11 783.22,-192.35 783.73,-199.33"/>
</g>
<!-- d&#45;&gt;μ -->
<g id="edge14" class="edge">
<title>d&#45;&gt;μ</title>
<path fill="none" stroke="black" d="M507.97,-285.02C580.46,-265.18 706.39,-230.69 783.5,-209.58"/>
<polygon fill="black" stroke="black" points="784.85,-212.84 793.58,-206.82 783.01,-206.09 784.85,-212.84"/>
</g>
<!-- d_offset -->
<g id="node13" class="node">
<title>d_offset</title>
<ellipse fill="none" stroke="black" cx="451.79" cy="-412.36" rx="52.15" ry="37.45"/>
<text text-anchor="middle" x="451.79" y="-423.66" font-family="Times-Roman" font-size="14.00">d_offset</text>
<text text-anchor="middle" x="451.79" y="-408.66" font-family="Times-Roman" font-size="14.00">~</text>
<text text-anchor="middle" x="451.79" y="-393.66" font-family="Times-Roman" font-size="14.00">Normal</text>
</g>
<!-- d_offset&#45;&gt;d -->
<g id="edge6" class="edge">
<title>d_offset&#45;&gt;d</title>
<path fill="none" stroke="black" d="M451.79,-374.78C451.79,-363.04 451.79,-350.05 451.79,-338.36"/>
<polygon fill="black" stroke="black" points="455.29,-338.06 451.79,-328.06 448.29,-338.06 455.29,-338.06"/>
</g>
<!-- η&#45;&gt;μ -->
<g id="edge15" class="edge">
<title>η&#45;&gt;μ</title>
<path fill="none" stroke="black" d="M849.79,-274.86C849.79,-260.75 849.79,-243 849.79,-227.5"/>
<polygon fill="black" stroke="black" points="853.29,-227.2 849.79,-217.2 846.29,-227.2 853.29,-227.2"/>
</g>
<!-- η_offset -->
<g id="node15" class="node">
<title>η_offset</title>
<ellipse fill="none" stroke="black" cx="849.79" cy="-412.36" rx="52.15" ry="37.45"/>
<text text-anchor="middle" x="849.79" y="-423.66" font-family="Times-Roman" font-size="14.00">η_offset</text>
<text text-anchor="middle" x="849.79" y="-408.66" font-family="Times-Roman" font-size="14.00">~</text>
<text text-anchor="middle" x="849.79" y="-393.66" font-family="Times-Roman" font-size="14.00">Normal</text>
</g>
<!-- η_offset&#45;&gt;η -->
<g id="edge9" class="edge">
<title>η_offset&#45;&gt;η</title>
<path fill="none" stroke="black" d="M849.79,-374.78C849.79,-363.04 849.79,-350.05 849.79,-338.36"/>
<polygon fill="black" stroke="black" points="853.29,-338.06 849.79,-328.06 846.29,-338.06 853.29,-338.06"/>
</g>
<!-- β_offset -->
<g id="node16" class="node">
<title>β_offset</title>
<ellipse fill="none" stroke="black" cx="1247.79" cy="-412.36" rx="52.15" ry="37.45"/>
<text text-anchor="middle" x="1247.79" y="-423.66" font-family="Times-Roman" font-size="14.00">β_offset</text>
<text text-anchor="middle" x="1247.79" y="-408.66" font-family="Times-Roman" font-size="14.00">~</text>
<text text-anchor="middle" x="1247.79" y="-393.66" font-family="Times-Roman" font-size="14.00">Normal</text>
</g>
<!-- β_offset&#45;&gt;β -->
<g id="edge12" class="edge">
<title>β_offset&#45;&gt;β</title>
<path fill="none" stroke="black" d="M1247.79,-374.78C1247.79,-363.04 1247.79,-350.05 1247.79,-338.36"/>
<polygon fill="black" stroke="black" points="1251.29,-338.06 1247.79,-328.06 1244.29,-338.06 1251.29,-338.06"/>
</g>
<!-- β&#45;&gt;μ -->
<g id="edge16" class="edge">
<title>β&#45;&gt;μ</title>
<path fill="none" stroke="black" d="M1191.61,-285.02C1119.12,-265.18 993.19,-230.69 916.09,-209.58"/>
<polygon fill="black" stroke="black" points="916.57,-206.09 906.01,-206.82 914.73,-212.84 916.57,-206.09"/>
</g>
<!-- lfc -->
<g id="node19" class="node">
<title>lfc</title>
<ellipse fill="lightgrey" stroke="black" cx="852.79" cy="-76.48" rx="48.58" ry="37.45"/>
<text text-anchor="middle" x="852.79" y="-87.78" font-family="Times-Roman" font-size="14.00">lfc</text>
<text text-anchor="middle" x="852.79" y="-72.78" font-family="Times-Roman" font-size="14.00">~</text>
<text text-anchor="middle" x="852.79" y="-57.78" font-family="Times-Roman" font-size="14.00">Normal</text>
</g>
<!-- μ&#45;&gt;lfc -->
<g id="edge18" class="edge">
<title>μ&#45;&gt;lfc</title>
<path fill="none" stroke="black" d="M850.48,-163.75C850.79,-152.02 851.18,-137.75 851.54,-124.22"/>
<polygon fill="black" stroke="black" points="855.04,-124.16 851.81,-114.07 848.04,-123.98 855.04,-124.16"/>
</g>
<!-- σ&#45;&gt;lfc -->
<g id="edge19" class="edge">
<title>σ&#45;&gt;lfc</title>
<path fill="none" stroke="black" d="M1063.05,-166.64C1016.74,-147 950.32,-118.84 904.59,-99.44"/>
<polygon fill="black" stroke="black" points="905.73,-96.13 895.16,-95.44 903,-102.57 905.73,-96.13"/>
</g>
</g>
</svg>
