<?xml version="1.0" encoding="UTF-8" standalone="no"?>
<!DOCTYPE svg PUBLIC "-//W3C//DTD SVG 1.1//EN"
 "http://www.w3.org/Graphics/SVG/1.1/DTD/svg11.dtd">
<!-- Generated by graphviz version 2.47.0 (20210327.0129)
 -->
<!-- Pages: 1 -->
<svg width="1582pt" height="474pt"
 viewBox="0.00 0.00 1582.09 473.84" xmlns="http://www.w3.org/2000/svg" xmlns:xlink="http://www.w3.org/1999/xlink">
<g id="graph0" class="graph" transform="scale(1 1) rotate(0) translate(4 469.84)">
<polygon fill="white" stroke="transparent" points="-4,4 -4,-469.84 1578.09,-469.84 1578.09,4 -4,4"/>
<g id="clust1" class="cluster">
<title>cluster64</title>
<path fill="none" stroke="black" d="M400.3,-243.91C400.3,-243.91 504.3,-243.91 504.3,-243.91 510.3,-243.91 516.3,-249.91 516.3,-255.91 516.3,-255.91 516.3,-445.84 516.3,-445.84 516.3,-451.84 510.3,-457.84 504.3,-457.84 504.3,-457.84 400.3,-457.84 400.3,-457.84 394.3,-457.84 388.3,-451.84 388.3,-445.84 388.3,-445.84 388.3,-255.91 388.3,-255.91 388.3,-249.91 394.3,-243.91 400.3,-243.91"/>
<text text-anchor="middle" x="498.8" y="-251.71" font-family="Times-Roman" font-size="14.00">64</text>
</g>
<g id="clust2" class="cluster">
<title>cluster64 x 10</title>
<path fill="none" stroke="black" d="M798.3,-243.91C798.3,-243.91 902.3,-243.91 902.3,-243.91 908.3,-243.91 914.3,-249.91 914.3,-255.91 914.3,-255.91 914.3,-445.84 914.3,-445.84 914.3,-451.84 908.3,-457.84 902.3,-457.84 902.3,-457.84 798.3,-457.84 798.3,-457.84 792.3,-457.84 786.3,-451.84 786.3,-445.84 786.3,-445.84 786.3,-255.91 786.3,-255.91 786.3,-249.91 792.3,-243.91 798.3,-243.91"/>
<text text-anchor="middle" x="879.3" y="-251.71" font-family="Times-Roman" font-size="14.00">64 x 10</text>
</g>
<g id="clust3" class="cluster">
<title>cluster4</title>
<path fill="none" stroke="black" d="M158.3,-243.91C158.3,-243.91 262.3,-243.91 262.3,-243.91 268.3,-243.91 274.3,-249.91 274.3,-255.91 274.3,-255.91 274.3,-445.84 274.3,-445.84 274.3,-451.84 268.3,-457.84 262.3,-457.84 262.3,-457.84 158.3,-457.84 158.3,-457.84 152.3,-457.84 146.3,-451.84 146.3,-445.84 146.3,-445.84 146.3,-255.91 146.3,-255.91 146.3,-249.91 152.3,-243.91 158.3,-243.91"/>
<text text-anchor="middle" x="261.3" y="-251.71" font-family="Times-Roman" font-size="14.00">4</text>
</g>
<g id="clust4" class="cluster">
<title>cluster10</title>
<path fill="none" stroke="black" d="M1196.3,-243.91C1196.3,-243.91 1300.3,-243.91 1300.3,-243.91 1306.3,-243.91 1312.3,-249.91 1312.3,-255.91 1312.3,-255.91 1312.3,-445.84 1312.3,-445.84 1312.3,-451.84 1306.3,-457.84 1300.3,-457.84 1300.3,-457.84 1196.3,-457.84 1196.3,-457.84 1190.3,-457.84 1184.3,-451.84 1184.3,-445.84 1184.3,-445.84 1184.3,-255.91 1184.3,-255.91 1184.3,-249.91 1190.3,-243.91 1196.3,-243.91"/>
<text text-anchor="middle" x="1294.8" y="-251.71" font-family="Times-Roman" font-size="14.00">10</text>
</g>
<g id="clust5" class="cluster">
<title>cluster1,443</title>
<path fill="none" stroke="black" d="M798.3,-8C798.3,-8 902.3,-8 902.3,-8 908.3,-8 914.3,-14 914.3,-20 914.3,-20 914.3,-212.93 914.3,-212.93 914.3,-218.93 908.3,-224.93 902.3,-224.93 902.3,-224.93 798.3,-224.93 798.3,-224.93 792.3,-224.93 786.3,-218.93 786.3,-212.93 786.3,-212.93 786.3,-20 786.3,-20 786.3,-14 792.3,-8 798.3,-8"/>
<text text-anchor="middle" x="885.8" y="-15.8" font-family="Times-Roman" font-size="14.00">1,443</text>
</g>
<g id="clust6" class="cluster">
<title>cluster192</title>
<path fill="none" stroke="black" d="M1052.3,-121.95C1052.3,-121.95 1182.3,-121.95 1182.3,-121.95 1188.3,-121.95 1194.3,-127.95 1194.3,-133.95 1194.3,-133.95 1194.3,-223.91 1194.3,-223.91 1194.3,-229.91 1188.3,-235.91 1182.3,-235.91 1182.3,-235.91 1052.3,-235.91 1052.3,-235.91 1046.3,-235.91 1040.3,-229.91 1040.3,-223.91 1040.3,-223.91 1040.3,-133.95 1040.3,-133.95 1040.3,-127.95 1046.3,-121.95 1052.3,-121.95"/>
<text text-anchor="middle" x="1172.3" y="-129.75" font-family="Times-Roman" font-size="14.00">192</text>
</g>
<!-- σ_η -->
<g id="node1" class="node">
<title>σ_η</title>
<ellipse fill="none" stroke="black" cx="69.3" cy="-412.36" rx="69.09" ry="37.45"/>
<text text-anchor="middle" x="69.3" y="-423.66" font-family="Times-Roman" font-size="14.00">σ_η</text>
<text text-anchor="middle" x="69.3" y="-408.66" font-family="Times-Roman" font-size="14.00">~</text>
<text text-anchor="middle" x="69.3" y="-393.66" font-family="Times-Roman" font-size="14.00">HalfNormal</text>
</g>
<!-- η -->
<g id="node15" class="node">
<title>η</title>
<polygon fill="none" stroke="black" points="266.3,-327.91 154.3,-327.91 154.3,-274.91 266.3,-274.91 266.3,-327.91"/>
<text text-anchor="middle" x="210.3" y="-312.71" font-family="Times-Roman" font-size="14.00">η</text>
<text text-anchor="middle" x="210.3" y="-297.71" font-family="Times-Roman" font-size="14.00">~</text>
<text text-anchor="middle" x="210.3" y="-282.71" font-family="Times-Roman" font-size="14.00">Deterministic</text>
</g>
<!-- σ_η&#45;&gt;η -->
<g id="edge8" class="edge">
<title>σ_η&#45;&gt;η</title>
<path fill="none" stroke="black" d="M108.2,-381.3C127.17,-366.64 149.99,-349 169.24,-334.13"/>
<polygon fill="black" stroke="black" points="171.48,-336.82 177.25,-327.94 167.2,-331.28 171.48,-336.82"/>
</g>
<!-- μ_η -->
<g id="node2" class="node">
<title>μ_η</title>
<ellipse fill="none" stroke="black" cx="331.3" cy="-412.36" rx="48.58" ry="37.45"/>
<text text-anchor="middle" x="331.3" y="-423.66" font-family="Times-Roman" font-size="14.00">μ_η</text>
<text text-anchor="middle" x="331.3" y="-408.66" font-family="Times-Roman" font-size="14.00">~</text>
<text text-anchor="middle" x="331.3" y="-393.66" font-family="Times-Roman" font-size="14.00">Normal</text>
</g>
<!-- μ_η&#45;&gt;η -->
<g id="edge9" class="edge">
<title>μ_η&#45;&gt;η</title>
<path fill="none" stroke="black" d="M300.14,-383.3C283.74,-368.54 263.55,-350.36 246.47,-334.98"/>
<polygon fill="black" stroke="black" points="248.64,-332.22 238.86,-328.13 243.95,-337.42 248.64,-332.22"/>
</g>
<!-- σ_h -->
<g id="node3" class="node">
<title>σ_h</title>
<ellipse fill="none" stroke="black" cx="593.3" cy="-412.36" rx="69.09" ry="37.45"/>
<text text-anchor="middle" x="593.3" y="-423.66" font-family="Times-Roman" font-size="14.00">σ_h</text>
<text text-anchor="middle" x="593.3" y="-408.66" font-family="Times-Roman" font-size="14.00">~</text>
<text text-anchor="middle" x="593.3" y="-393.66" font-family="Times-Roman" font-size="14.00">HalfNormal</text>
</g>
<!-- h -->
<g id="node10" class="node">
<title>h</title>
<polygon fill="none" stroke="black" points="508.3,-327.91 396.3,-327.91 396.3,-274.91 508.3,-274.91 508.3,-327.91"/>
<text text-anchor="middle" x="452.3" y="-312.71" font-family="Times-Roman" font-size="14.00">h</text>
<text text-anchor="middle" x="452.3" y="-297.71" font-family="Times-Roman" font-size="14.00">~</text>
<text text-anchor="middle" x="452.3" y="-282.71" font-family="Times-Roman" font-size="14.00">Deterministic</text>
</g>
<!-- σ_h&#45;&gt;h -->
<g id="edge2" class="edge">
<title>σ_h&#45;&gt;h</title>
<path fill="none" stroke="black" d="M554.39,-381.3C535.42,-366.64 512.6,-349 493.35,-334.13"/>
<polygon fill="black" stroke="black" points="495.39,-331.28 485.34,-327.94 491.11,-336.82 495.39,-331.28"/>
</g>
<!-- σ_d -->
<g id="node4" class="node">
<title>σ_d</title>
<ellipse fill="none" stroke="black" cx="991.3" cy="-412.36" rx="69.09" ry="37.45"/>
<text text-anchor="middle" x="991.3" y="-423.66" font-family="Times-Roman" font-size="14.00">σ_d</text>
<text text-anchor="middle" x="991.3" y="-408.66" font-family="Times-Roman" font-size="14.00">~</text>
<text text-anchor="middle" x="991.3" y="-393.66" font-family="Times-Roman" font-size="14.00">HalfNormal</text>
</g>
<!-- d -->
<g id="node13" class="node">
<title>d</title>
<polygon fill="none" stroke="black" points="906.3,-327.91 794.3,-327.91 794.3,-274.91 906.3,-274.91 906.3,-327.91"/>
<text text-anchor="middle" x="850.3" y="-312.71" font-family="Times-Roman" font-size="14.00">d</text>
<text text-anchor="middle" x="850.3" y="-297.71" font-family="Times-Roman" font-size="14.00">~</text>
<text text-anchor="middle" x="850.3" y="-282.71" font-family="Times-Roman" font-size="14.00">Deterministic</text>
</g>
<!-- σ_d&#45;&gt;d -->
<g id="edge5" class="edge">
<title>σ_d&#45;&gt;d</title>
<path fill="none" stroke="black" d="M952.39,-381.3C933.42,-366.64 910.6,-349 891.35,-334.13"/>
<polygon fill="black" stroke="black" points="893.39,-331.28 883.34,-327.94 889.11,-336.82 893.39,-331.28"/>
</g>
<!-- σ_β -->
<g id="node5" class="node">
<title>σ_β</title>
<ellipse fill="none" stroke="black" cx="1389.3" cy="-412.36" rx="69.09" ry="37.45"/>
<text text-anchor="middle" x="1389.3" y="-423.66" font-family="Times-Roman" font-size="14.00">σ_β</text>
<text text-anchor="middle" x="1389.3" y="-408.66" font-family="Times-Roman" font-size="14.00">~</text>
<text text-anchor="middle" x="1389.3" y="-393.66" font-family="Times-Roman" font-size="14.00">HalfNormal</text>
</g>
<!-- β -->
<g id="node16" class="node">
<title>β</title>
<polygon fill="none" stroke="black" points="1304.3,-327.91 1192.3,-327.91 1192.3,-274.91 1304.3,-274.91 1304.3,-327.91"/>
<text text-anchor="middle" x="1248.3" y="-312.71" font-family="Times-Roman" font-size="14.00">β</text>
<text text-anchor="middle" x="1248.3" y="-297.71" font-family="Times-Roman" font-size="14.00">~</text>
<text text-anchor="middle" x="1248.3" y="-282.71" font-family="Times-Roman" font-size="14.00">Deterministic</text>
</g>
<!-- σ_β&#45;&gt;β -->
<g id="edge11" class="edge">
<title>σ_β&#45;&gt;β</title>
<path fill="none" stroke="black" d="M1350.39,-381.3C1331.42,-366.64 1308.6,-349 1289.35,-334.13"/>
<polygon fill="black" stroke="black" points="1291.39,-331.28 1281.34,-327.94 1287.11,-336.82 1291.39,-331.28"/>
</g>
<!-- σ_σ -->
<g id="node6" class="node">
<title>σ_σ</title>
<ellipse fill="none" stroke="black" cx="1391.3" cy="-301.41" rx="69.09" ry="37.45"/>
<text text-anchor="middle" x="1391.3" y="-312.71" font-family="Times-Roman" font-size="14.00">σ_σ</text>
<text text-anchor="middle" x="1391.3" y="-297.71" font-family="Times-Roman" font-size="14.00">~</text>
<text text-anchor="middle" x="1391.3" y="-282.71" font-family="Times-Roman" font-size="14.00">HalfNormal</text>
</g>
<!-- σ -->
<g id="node20" class="node">
<title>σ</title>
<ellipse fill="none" stroke="black" cx="1117.3" cy="-190.43" rx="69.09" ry="37.45"/>
<text text-anchor="middle" x="1117.3" y="-201.73" font-family="Times-Roman" font-size="14.00">σ</text>
<text text-anchor="middle" x="1117.3" y="-186.73" font-family="Times-Roman" font-size="14.00">~</text>
<text text-anchor="middle" x="1117.3" y="-171.73" font-family="Times-Roman" font-size="14.00">HalfNormal</text>
</g>
<!-- σ_σ&#45;&gt;σ -->
<g id="edge17" class="edge">
<title>σ_σ&#45;&gt;σ</title>
<path fill="none" stroke="black" d="M1355.77,-269.2C1343.86,-259.99 1330.08,-250.6 1316.3,-243.91 1277.64,-225.15 1231.39,-212.44 1193.21,-204.23"/>
<polygon fill="black" stroke="black" points="1193.68,-200.75 1183.18,-202.13 1192.25,-207.6 1193.68,-200.75"/>
</g>
<!-- μ_h -->
<g id="node7" class="node">
<title>μ_h</title>
<ellipse fill="none" stroke="black" cx="729.3" cy="-412.36" rx="48.58" ry="37.45"/>
<text text-anchor="middle" x="729.3" y="-423.66" font-family="Times-Roman" font-size="14.00">μ_h</text>
<text text-anchor="middle" x="729.3" y="-408.66" font-family="Times-Roman" font-size="14.00">~</text>
<text text-anchor="middle" x="729.3" y="-393.66" font-family="Times-Roman" font-size="14.00">Normal</text>
</g>
<!-- μ_h&#45;&gt;h -->
<g id="edge1" class="edge">
<title>μ_h&#45;&gt;h</title>
<path fill="none" stroke="black" d="M693.24,-386.82C686.14,-382.52 678.61,-378.33 671.3,-374.88 621.79,-351.55 562.73,-332.47 518.42,-319.76"/>
<polygon fill="black" stroke="black" points="519.21,-316.34 508.63,-316.98 517.3,-323.08 519.21,-316.34"/>
</g>
<!-- μ_d -->
<g id="node8" class="node">
<title>μ_d</title>
<ellipse fill="none" stroke="black" cx="1127.3" cy="-412.36" rx="48.58" ry="37.45"/>
<text text-anchor="middle" x="1127.3" y="-423.66" font-family="Times-Roman" font-size="14.00">μ_d</text>
<text text-anchor="middle" x="1127.3" y="-408.66" font-family="Times-Roman" font-size="14.00">~</text>
<text text-anchor="middle" x="1127.3" y="-393.66" font-family="Times-Roman" font-size="14.00">Normal</text>
</g>
<!-- μ_d&#45;&gt;d -->
<g id="edge6" class="edge">
<title>μ_d&#45;&gt;d</title>
<path fill="none" stroke="black" d="M1091.24,-386.82C1084.14,-382.52 1076.61,-378.33 1069.3,-374.88 1019.79,-351.55 960.73,-332.47 916.42,-319.76"/>
<polygon fill="black" stroke="black" points="917.21,-316.34 906.63,-316.98 915.3,-323.08 917.21,-316.34"/>
</g>
<!-- μ_β -->
<g id="node9" class="node">
<title>μ_β</title>
<ellipse fill="none" stroke="black" cx="1525.3" cy="-412.36" rx="48.58" ry="37.45"/>
<text text-anchor="middle" x="1525.3" y="-423.66" font-family="Times-Roman" font-size="14.00">μ_β</text>
<text text-anchor="middle" x="1525.3" y="-408.66" font-family="Times-Roman" font-size="14.00">~</text>
<text text-anchor="middle" x="1525.3" y="-393.66" font-family="Times-Roman" font-size="14.00">Normal</text>
</g>
<!-- μ_β&#45;&gt;β -->
<g id="edge10" class="edge">
<title>μ_β&#45;&gt;β</title>
<path fill="none" stroke="black" d="M1489.79,-386.47C1482.58,-382.15 1474.87,-378.05 1467.3,-374.88 1402.43,-347.8 1378.82,-364.33 1313.3,-338.88 1308.52,-337.03 1303.66,-334.87 1298.87,-332.56"/>
<polygon fill="black" stroke="black" points="1300.26,-329.34 1289.76,-327.94 1297.1,-335.58 1300.26,-329.34"/>
</g>
<!-- μ -->
<g id="node19" class="node">
<title>μ</title>
<polygon fill="none" stroke="black" points="906.3,-216.93 794.3,-216.93 794.3,-163.93 906.3,-163.93 906.3,-216.93"/>
<text text-anchor="middle" x="850.3" y="-201.73" font-family="Times-Roman" font-size="14.00">μ</text>
<text text-anchor="middle" x="850.3" y="-186.73" font-family="Times-Roman" font-size="14.00">~</text>
<text text-anchor="middle" x="850.3" y="-171.73" font-family="Times-Roman" font-size="14.00">Deterministic</text>
</g>
<!-- h&#45;&gt;μ -->
<g id="edge14" class="edge">
<title>h&#45;&gt;μ</title>
<path fill="none" stroke="black" d="M508.48,-285.02C580.97,-265.18 706.9,-230.69 784,-209.58"/>
<polygon fill="black" stroke="black" points="785.36,-212.84 794.08,-206.82 783.51,-206.09 785.36,-212.84"/>
</g>
<!-- h_offset -->
<g id="node11" class="node">
<title>h_offset</title>
<ellipse fill="none" stroke="black" cx="452.3" cy="-412.36" rx="52.15" ry="37.45"/>
<text text-anchor="middle" x="452.3" y="-423.66" font-family="Times-Roman" font-size="14.00">h_offset</text>
<text text-anchor="middle" x="452.3" y="-408.66" font-family="Times-Roman" font-size="14.00">~</text>
<text text-anchor="middle" x="452.3" y="-393.66" font-family="Times-Roman" font-size="14.00">Normal</text>
</g>
<!-- h_offset&#45;&gt;h -->
<g id="edge3" class="edge">
<title>h_offset&#45;&gt;h</title>
<path fill="none" stroke="black" d="M452.3,-374.78C452.3,-363.04 452.3,-350.05 452.3,-338.36"/>
<polygon fill="black" stroke="black" points="455.8,-338.06 452.3,-328.06 448.8,-338.06 455.8,-338.06"/>
</g>
<!-- d_offset -->
<g id="node12" class="node">
<title>d_offset</title>
<ellipse fill="none" stroke="black" cx="850.3" cy="-412.36" rx="52.15" ry="37.45"/>
<text text-anchor="middle" x="850.3" y="-423.66" font-family="Times-Roman" font-size="14.00">d_offset</text>
<text text-anchor="middle" x="850.3" y="-408.66" font-family="Times-Roman" font-size="14.00">~</text>
<text text-anchor="middle" x="850.3" y="-393.66" font-family="Times-Roman" font-size="14.00">Normal</text>
</g>
<!-- d_offset&#45;&gt;d -->
<g id="edge4" class="edge">
<title>d_offset&#45;&gt;d</title>
<path fill="none" stroke="black" d="M850.3,-374.78C850.3,-363.04 850.3,-350.05 850.3,-338.36"/>
<polygon fill="black" stroke="black" points="853.8,-338.06 850.3,-328.06 846.8,-338.06 853.8,-338.06"/>
</g>
<!-- d&#45;&gt;μ -->
<g id="edge15" class="edge">
<title>d&#45;&gt;μ</title>
<path fill="none" stroke="black" d="M850.3,-274.86C850.3,-260.75 850.3,-243 850.3,-227.5"/>
<polygon fill="black" stroke="black" points="853.8,-227.2 850.3,-217.2 846.8,-227.2 853.8,-227.2"/>
</g>
<!-- η_offset -->
<g id="node14" class="node">
<title>η_offset</title>
<ellipse fill="none" stroke="black" cx="210.3" cy="-412.36" rx="52.15" ry="37.45"/>
<text text-anchor="middle" x="210.3" y="-423.66" font-family="Times-Roman" font-size="14.00">η_offset</text>
<text text-anchor="middle" x="210.3" y="-408.66" font-family="Times-Roman" font-size="14.00">~</text>
<text text-anchor="middle" x="210.3" y="-393.66" font-family="Times-Roman" font-size="14.00">Normal</text>
</g>
<!-- η_offset&#45;&gt;η -->
<g id="edge7" class="edge">
<title>η_offset&#45;&gt;η</title>
<path fill="none" stroke="black" d="M210.3,-374.78C210.3,-363.04 210.3,-350.05 210.3,-338.36"/>
<polygon fill="black" stroke="black" points="213.8,-338.06 210.3,-328.06 206.8,-338.06 213.8,-338.06"/>
</g>
<!-- η&#45;&gt;μ -->
<g id="edge16" class="edge">
<title>η&#45;&gt;μ</title>
<path fill="none" stroke="black" d="M266.32,-279.02C300.04,-266.96 344.1,-252.6 384.3,-243.91 524.7,-213.53 692.94,-200.1 783.94,-194.68"/>
<polygon fill="black" stroke="black" points="784.33,-198.17 794.11,-194.09 783.93,-191.18 784.33,-198.17"/>
</g>
<!-- β&#45;&gt;μ -->
<g id="edge13" class="edge">
<title>β&#45;&gt;μ</title>
<path fill="none" stroke="black" d="M1192.12,-285.02C1119.63,-265.18 993.69,-230.69 916.59,-209.58"/>
<polygon fill="black" stroke="black" points="917.08,-206.09 906.51,-206.82 915.23,-212.84 917.08,-206.09"/>
</g>
<!-- β_offset -->
<g id="node17" class="node">
<title>β_offset</title>
<ellipse fill="none" stroke="black" cx="1248.3" cy="-412.36" rx="52.15" ry="37.45"/>
<text text-anchor="middle" x="1248.3" y="-423.66" font-family="Times-Roman" font-size="14.00">β_offset</text>
<text text-anchor="middle" x="1248.3" y="-408.66" font-family="Times-Roman" font-size="14.00">~</text>
<text text-anchor="middle" x="1248.3" y="-393.66" font-family="Times-Roman" font-size="14.00">Normal</text>
</g>
<!-- β_offset&#45;&gt;β -->
<g id="edge12" class="edge">
<title>β_offset&#45;&gt;β</title>
<path fill="none" stroke="black" d="M1248.3,-374.78C1248.3,-363.04 1248.3,-350.05 1248.3,-338.36"/>
<polygon fill="black" stroke="black" points="1251.8,-338.06 1248.3,-328.06 1244.8,-338.06 1251.8,-338.06"/>
</g>
<!-- lfc -->
<g id="node18" class="node">
<title>lfc</title>
<ellipse fill="lightgrey" stroke="black" cx="853.3" cy="-76.48" rx="48.58" ry="37.45"/>
<text text-anchor="middle" x="853.3" y="-87.78" font-family="Times-Roman" font-size="14.00">lfc</text>
<text text-anchor="middle" x="853.3" y="-72.78" font-family="Times-Roman" font-size="14.00">~</text>
<text text-anchor="middle" x="853.3" y="-57.78" font-family="Times-Roman" font-size="14.00">Normal</text>
</g>
<!-- μ&#45;&gt;lfc -->
<g id="edge18" class="edge">
<title>μ&#45;&gt;lfc</title>
<path fill="none" stroke="black" d="M850.98,-163.75C851.3,-152.02 851.68,-137.75 852.04,-124.22"/>
<polygon fill="black" stroke="black" points="855.55,-124.16 852.32,-114.07 848.55,-123.98 855.55,-124.16"/>
</g>
<!-- σ&#45;&gt;lfc -->
<g id="edge19" class="edge">
<title>σ&#45;&gt;lfc</title>
<path fill="none" stroke="black" d="M1063.55,-166.64C1017.25,-147 950.83,-118.84 905.1,-99.44"/>
<polygon fill="black" stroke="black" points="906.24,-96.13 895.67,-95.44 903.51,-102.57 906.24,-96.13"/>
</g>
</g>
</svg>
