<?xml version="1.0" encoding="UTF-8" standalone="no"?>
<!DOCTYPE svg PUBLIC "-//W3C//DTD SVG 1.1//EN"
 "http://www.w3.org/Graphics/SVG/1.1/DTD/svg11.dtd">
<!-- Generated by graphviz version 2.47.0 (20210327.0129)
 -->
<!-- Pages: 1 -->
<svg width="1542pt" height="474pt"
 viewBox="0.00 0.00 1542.09 473.84" xmlns="http://www.w3.org/2000/svg" xmlns:xlink="http://www.w3.org/1999/xlink">
<g id="graph0" class="graph" transform="scale(1 1) rotate(0) translate(4 469.84)">
<polygon fill="white" stroke="transparent" points="-4,4 -4,-469.84 1538.09,-469.84 1538.09,4 -4,4"/>
<g id="clust1" class="cluster">
<title>cluster64</title>
<path fill="none" stroke="black" d="M359.79,-243.91C359.79,-243.91 463.79,-243.91 463.79,-243.91 469.79,-243.91 475.79,-249.91 475.79,-255.91 475.79,-255.91 475.79,-445.84 475.79,-445.84 475.79,-451.84 469.79,-457.84 463.79,-457.84 463.79,-457.84 359.79,-457.84 359.79,-457.84 353.79,-457.84 347.79,-451.84 347.79,-445.84 347.79,-445.84 347.79,-255.91 347.79,-255.91 347.79,-249.91 353.79,-243.91 359.79,-243.91"/>
<text text-anchor="middle" x="458.29" y="-251.71" font-family="Times-Roman" font-size="14.00">64</text>
</g>
<g id="clust2" class="cluster">
<title>cluster64 x 10</title>
<path fill="none" stroke="black" d="M757.79,-243.91C757.79,-243.91 861.79,-243.91 861.79,-243.91 867.79,-243.91 873.79,-249.91 873.79,-255.91 873.79,-255.91 873.79,-445.84 873.79,-445.84 873.79,-451.84 867.79,-457.84 861.79,-457.84 861.79,-457.84 757.79,-457.84 757.79,-457.84 751.79,-457.84 745.79,-451.84 745.79,-445.84 745.79,-445.84 745.79,-255.91 745.79,-255.91 745.79,-249.91 751.79,-243.91 757.79,-243.91"/>
<text text-anchor="middle" x="838.79" y="-251.71" font-family="Times-Roman" font-size="14.00">64 x 10</text>
</g>
<g id="clust3" class="cluster">
<title>cluster4</title>
<path fill="none" stroke="black" d="M1155.79,-243.91C1155.79,-243.91 1259.79,-243.91 1259.79,-243.91 1265.79,-243.91 1271.79,-249.91 1271.79,-255.91 1271.79,-255.91 1271.79,-445.84 1271.79,-445.84 1271.79,-451.84 1265.79,-457.84 1259.79,-457.84 1259.79,-457.84 1155.79,-457.84 1155.79,-457.84 1149.79,-457.84 1143.79,-451.84 1143.79,-445.84 1143.79,-445.84 1143.79,-255.91 1143.79,-255.91 1143.79,-249.91 1149.79,-243.91 1155.79,-243.91"/>
<text text-anchor="middle" x="1258.79" y="-251.71" font-family="Times-Roman" font-size="14.00">4</text>
</g>
<g id="clust4" class="cluster">
<title>cluster10</title>
<path fill="none" stroke="black" d="M117.79,-243.91C117.79,-243.91 221.79,-243.91 221.79,-243.91 227.79,-243.91 233.79,-249.91 233.79,-255.91 233.79,-255.91 233.79,-445.84 233.79,-445.84 233.79,-451.84 227.79,-457.84 221.79,-457.84 221.79,-457.84 117.79,-457.84 117.79,-457.84 111.79,-457.84 105.79,-451.84 105.79,-445.84 105.79,-445.84 105.79,-255.91 105.79,-255.91 105.79,-249.91 111.79,-243.91 117.79,-243.91"/>
<text text-anchor="middle" x="216.29" y="-251.71" font-family="Times-Roman" font-size="14.00">10</text>
</g>
<g id="clust5" class="cluster">
<title>cluster1,443</title>
<path fill="none" stroke="black" d="M757.79,-8C757.79,-8 861.79,-8 861.79,-8 867.79,-8 873.79,-14 873.79,-20 873.79,-20 873.79,-212.93 873.79,-212.93 873.79,-218.93 867.79,-224.93 861.79,-224.93 861.79,-224.93 757.79,-224.93 757.79,-224.93 751.79,-224.93 745.79,-218.93 745.79,-212.93 745.79,-212.93 745.79,-20 745.79,-20 745.79,-14 751.79,-8 757.79,-8"/>
<text text-anchor="middle" x="845.29" y="-15.8" font-family="Times-Roman" font-size="14.00">1,443</text>
</g>
<g id="clust6" class="cluster">
<title>cluster192</title>
<path fill="none" stroke="black" d="M1011.79,-121.95C1011.79,-121.95 1141.79,-121.95 1141.79,-121.95 1147.79,-121.95 1153.79,-127.95 1153.79,-133.95 1153.79,-133.95 1153.79,-223.91 1153.79,-223.91 1153.79,-229.91 1147.79,-235.91 1141.79,-235.91 1141.79,-235.91 1011.79,-235.91 1011.79,-235.91 1005.79,-235.91 999.79,-229.91 999.79,-223.91 999.79,-223.91 999.79,-133.95 999.79,-133.95 999.79,-127.95 1005.79,-121.95 1011.79,-121.95"/>
<text text-anchor="middle" x="1131.79" y="-129.75" font-family="Times-Roman" font-size="14.00">192</text>
</g>
<!-- σ_β -->
<g id="node1" class="node">
<title>σ_β</title>
<ellipse fill="none" stroke="black" cx="48.79" cy="-412.36" rx="48.58" ry="37.45"/>
<text text-anchor="middle" x="48.79" y="-423.66" font-family="Times-Roman" font-size="14.00">σ_β</text>
<text text-anchor="middle" x="48.79" y="-408.66" font-family="Times-Roman" font-size="14.00">~</text>
<text text-anchor="middle" x="48.79" y="-393.66" font-family="Times-Roman" font-size="14.00">Normal</text>
</g>
<!-- β -->
<g id="node16" class="node">
<title>β</title>
<polygon fill="none" stroke="black" points="225.79,-327.91 113.79,-327.91 113.79,-274.91 225.79,-274.91 225.79,-327.91"/>
<text text-anchor="middle" x="169.79" y="-312.71" font-family="Times-Roman" font-size="14.00">β</text>
<text text-anchor="middle" x="169.79" y="-297.71" font-family="Times-Roman" font-size="14.00">~</text>
<text text-anchor="middle" x="169.79" y="-282.71" font-family="Times-Roman" font-size="14.00">Deterministic</text>
</g>
<!-- σ_β&#45;&gt;β -->
<g id="edge10" class="edge">
<title>σ_β&#45;&gt;β</title>
<path fill="none" stroke="black" d="M79.95,-383.3C96.35,-368.54 116.53,-350.36 133.62,-334.98"/>
<polygon fill="black" stroke="black" points="136.13,-337.42 141.22,-328.13 131.45,-332.22 136.13,-337.42"/>
</g>
<!-- μ_η -->
<g id="node2" class="node">
<title>μ_η</title>
<ellipse fill="none" stroke="black" cx="1328.79" cy="-412.36" rx="48.58" ry="37.45"/>
<text text-anchor="middle" x="1328.79" y="-423.66" font-family="Times-Roman" font-size="14.00">μ_η</text>
<text text-anchor="middle" x="1328.79" y="-408.66" font-family="Times-Roman" font-size="14.00">~</text>
<text text-anchor="middle" x="1328.79" y="-393.66" font-family="Times-Roman" font-size="14.00">Normal</text>
</g>
<!-- η -->
<g id="node14" class="node">
<title>η</title>
<polygon fill="none" stroke="black" points="1263.79,-327.91 1151.79,-327.91 1151.79,-274.91 1263.79,-274.91 1263.79,-327.91"/>
<text text-anchor="middle" x="1207.79" y="-312.71" font-family="Times-Roman" font-size="14.00">η</text>
<text text-anchor="middle" x="1207.79" y="-297.71" font-family="Times-Roman" font-size="14.00">~</text>
<text text-anchor="middle" x="1207.79" y="-282.71" font-family="Times-Roman" font-size="14.00">Deterministic</text>
</g>
<!-- μ_η&#45;&gt;η -->
<g id="edge7" class="edge">
<title>μ_η&#45;&gt;η</title>
<path fill="none" stroke="black" d="M1297.63,-383.3C1281.23,-368.54 1261.05,-350.36 1243.96,-334.98"/>
<polygon fill="black" stroke="black" points="1246.13,-332.22 1236.36,-328.13 1241.45,-337.42 1246.13,-332.22"/>
</g>
<!-- σ_h -->
<g id="node3" class="node">
<title>σ_h</title>
<ellipse fill="none" stroke="black" cx="552.79" cy="-412.36" rx="69.09" ry="37.45"/>
<text text-anchor="middle" x="552.79" y="-423.66" font-family="Times-Roman" font-size="14.00">σ_h</text>
<text text-anchor="middle" x="552.79" y="-408.66" font-family="Times-Roman" font-size="14.00">~</text>
<text text-anchor="middle" x="552.79" y="-393.66" font-family="Times-Roman" font-size="14.00">HalfNormal</text>
</g>
<!-- h -->
<g id="node11" class="node">
<title>h</title>
<polygon fill="none" stroke="black" points="467.79,-327.91 355.79,-327.91 355.79,-274.91 467.79,-274.91 467.79,-327.91"/>
<text text-anchor="middle" x="411.79" y="-312.71" font-family="Times-Roman" font-size="14.00">h</text>
<text text-anchor="middle" x="411.79" y="-297.71" font-family="Times-Roman" font-size="14.00">~</text>
<text text-anchor="middle" x="411.79" y="-282.71" font-family="Times-Roman" font-size="14.00">Deterministic</text>
</g>
<!-- σ_h&#45;&gt;h -->
<g id="edge3" class="edge">
<title>σ_h&#45;&gt;h</title>
<path fill="none" stroke="black" d="M513.89,-381.3C494.92,-366.64 472.09,-349 452.84,-334.13"/>
<polygon fill="black" stroke="black" points="454.89,-331.28 444.83,-327.94 450.61,-336.82 454.89,-331.28"/>
</g>
<!-- σ_η -->
<g id="node4" class="node">
<title>σ_η</title>
<ellipse fill="none" stroke="black" cx="1464.79" cy="-412.36" rx="69.09" ry="37.45"/>
<text text-anchor="middle" x="1464.79" y="-423.66" font-family="Times-Roman" font-size="14.00">σ_η</text>
<text text-anchor="middle" x="1464.79" y="-408.66" font-family="Times-Roman" font-size="14.00">~</text>
<text text-anchor="middle" x="1464.79" y="-393.66" font-family="Times-Roman" font-size="14.00">HalfNormal</text>
</g>
<!-- σ_η&#45;&gt;η -->
<g id="edge8" class="edge">
<title>σ_η&#45;&gt;η</title>
<path fill="none" stroke="black" d="M1414.02,-386.45C1405.04,-382.37 1395.7,-378.36 1386.79,-374.88 1337.28,-355.59 1321.55,-360 1272.79,-338.88 1268.42,-336.99 1263.96,-334.89 1259.53,-332.67"/>
<polygon fill="black" stroke="black" points="1261.01,-329.5 1250.52,-328.01 1257.79,-335.71 1261.01,-329.5"/>
</g>
<!-- σ_σ -->
<g id="node5" class="node">
<title>σ_σ</title>
<ellipse fill="none" stroke="black" cx="1350.79" cy="-301.41" rx="69.09" ry="37.45"/>
<text text-anchor="middle" x="1350.79" y="-312.71" font-family="Times-Roman" font-size="14.00">σ_σ</text>
<text text-anchor="middle" x="1350.79" y="-297.71" font-family="Times-Roman" font-size="14.00">~</text>
<text text-anchor="middle" x="1350.79" y="-282.71" font-family="Times-Roman" font-size="14.00">HalfNormal</text>
</g>
<!-- σ -->
<g id="node20" class="node">
<title>σ</title>
<ellipse fill="none" stroke="black" cx="1076.79" cy="-190.43" rx="69.09" ry="37.45"/>
<text text-anchor="middle" x="1076.79" y="-201.73" font-family="Times-Roman" font-size="14.00">σ</text>
<text text-anchor="middle" x="1076.79" y="-186.73" font-family="Times-Roman" font-size="14.00">~</text>
<text text-anchor="middle" x="1076.79" y="-171.73" font-family="Times-Roman" font-size="14.00">HalfNormal</text>
</g>
<!-- σ_σ&#45;&gt;σ -->
<g id="edge17" class="edge">
<title>σ_σ&#45;&gt;σ</title>
<path fill="none" stroke="black" d="M1315.26,-269.2C1303.35,-259.99 1289.58,-250.6 1275.79,-243.91 1237.13,-225.15 1190.88,-212.44 1152.7,-204.23"/>
<polygon fill="black" stroke="black" points="1153.18,-200.75 1142.67,-202.13 1151.75,-207.6 1153.18,-200.75"/>
</g>
<!-- μ_h -->
<g id="node6" class="node">
<title>μ_h</title>
<ellipse fill="none" stroke="black" cx="688.79" cy="-412.36" rx="48.58" ry="37.45"/>
<text text-anchor="middle" x="688.79" y="-423.66" font-family="Times-Roman" font-size="14.00">μ_h</text>
<text text-anchor="middle" x="688.79" y="-408.66" font-family="Times-Roman" font-size="14.00">~</text>
<text text-anchor="middle" x="688.79" y="-393.66" font-family="Times-Roman" font-size="14.00">Normal</text>
</g>
<!-- μ_h&#45;&gt;h -->
<g id="edge2" class="edge">
<title>μ_h&#45;&gt;h</title>
<path fill="none" stroke="black" d="M652.73,-386.82C645.63,-382.52 638.11,-378.33 630.79,-374.88 581.28,-351.55 522.22,-332.47 477.92,-319.76"/>
<polygon fill="black" stroke="black" points="478.7,-316.34 468.13,-316.98 476.79,-323.08 478.7,-316.34"/>
</g>
<!-- σ_d -->
<g id="node7" class="node">
<title>σ_d</title>
<ellipse fill="none" stroke="black" cx="950.79" cy="-412.36" rx="69.09" ry="37.45"/>
<text text-anchor="middle" x="950.79" y="-423.66" font-family="Times-Roman" font-size="14.00">σ_d</text>
<text text-anchor="middle" x="950.79" y="-408.66" font-family="Times-Roman" font-size="14.00">~</text>
<text text-anchor="middle" x="950.79" y="-393.66" font-family="Times-Roman" font-size="14.00">HalfNormal</text>
</g>
<!-- d -->
<g id="node12" class="node">
<title>d</title>
<polygon fill="none" stroke="black" points="865.79,-327.91 753.79,-327.91 753.79,-274.91 865.79,-274.91 865.79,-327.91"/>
<text text-anchor="middle" x="809.79" y="-312.71" font-family="Times-Roman" font-size="14.00">d</text>
<text text-anchor="middle" x="809.79" y="-297.71" font-family="Times-Roman" font-size="14.00">~</text>
<text text-anchor="middle" x="809.79" y="-282.71" font-family="Times-Roman" font-size="14.00">Deterministic</text>
</g>
<!-- σ_d&#45;&gt;d -->
<g id="edge5" class="edge">
<title>σ_d&#45;&gt;d</title>
<path fill="none" stroke="black" d="M911.89,-381.3C892.92,-366.64 870.09,-349 850.84,-334.13"/>
<polygon fill="black" stroke="black" points="852.89,-331.28 842.83,-327.94 848.61,-336.82 852.89,-331.28"/>
</g>
<!-- μ_β -->
<g id="node8" class="node">
<title>μ_β</title>
<ellipse fill="none" stroke="black" cx="290.79" cy="-412.36" rx="48.58" ry="37.45"/>
<text text-anchor="middle" x="290.79" y="-423.66" font-family="Times-Roman" font-size="14.00">μ_β</text>
<text text-anchor="middle" x="290.79" y="-408.66" font-family="Times-Roman" font-size="14.00">~</text>
<text text-anchor="middle" x="290.79" y="-393.66" font-family="Times-Roman" font-size="14.00">Normal</text>
</g>
<!-- μ_β&#45;&gt;β -->
<g id="edge11" class="edge">
<title>μ_β&#45;&gt;β</title>
<path fill="none" stroke="black" d="M259.63,-383.3C243.23,-368.54 223.05,-350.36 205.96,-334.98"/>
<polygon fill="black" stroke="black" points="208.13,-332.22 198.36,-328.13 203.45,-337.42 208.13,-332.22"/>
</g>
<!-- μ_d -->
<g id="node9" class="node">
<title>μ_d</title>
<ellipse fill="none" stroke="black" cx="1086.79" cy="-412.36" rx="48.58" ry="37.45"/>
<text text-anchor="middle" x="1086.79" y="-423.66" font-family="Times-Roman" font-size="14.00">μ_d</text>
<text text-anchor="middle" x="1086.79" y="-408.66" font-family="Times-Roman" font-size="14.00">~</text>
<text text-anchor="middle" x="1086.79" y="-393.66" font-family="Times-Roman" font-size="14.00">Normal</text>
</g>
<!-- μ_d&#45;&gt;d -->
<g id="edge4" class="edge">
<title>μ_d&#45;&gt;d</title>
<path fill="none" stroke="black" d="M1050.73,-386.82C1043.63,-382.52 1036.11,-378.33 1028.79,-374.88 979.28,-351.55 920.22,-332.47 875.92,-319.76"/>
<polygon fill="black" stroke="black" points="876.7,-316.34 866.13,-316.98 874.79,-323.08 876.7,-316.34"/>
</g>
<!-- h_offset -->
<g id="node10" class="node">
<title>h_offset</title>
<ellipse fill="none" stroke="black" cx="411.79" cy="-412.36" rx="52.15" ry="37.45"/>
<text text-anchor="middle" x="411.79" y="-423.66" font-family="Times-Roman" font-size="14.00">h_offset</text>
<text text-anchor="middle" x="411.79" y="-408.66" font-family="Times-Roman" font-size="14.00">~</text>
<text text-anchor="middle" x="411.79" y="-393.66" font-family="Times-Roman" font-size="14.00">Normal</text>
</g>
<!-- h_offset&#45;&gt;h -->
<g id="edge1" class="edge">
<title>h_offset&#45;&gt;h</title>
<path fill="none" stroke="black" d="M411.79,-374.78C411.79,-363.04 411.79,-350.05 411.79,-338.36"/>
<polygon fill="black" stroke="black" points="415.29,-338.06 411.79,-328.06 408.29,-338.06 415.29,-338.06"/>
</g>
<!-- μ -->
<g id="node18" class="node">
<title>μ</title>
<polygon fill="none" stroke="black" points="865.79,-216.93 753.79,-216.93 753.79,-163.93 865.79,-163.93 865.79,-216.93"/>
<text text-anchor="middle" x="809.79" y="-201.73" font-family="Times-Roman" font-size="14.00">μ</text>
<text text-anchor="middle" x="809.79" y="-186.73" font-family="Times-Roman" font-size="14.00">~</text>
<text text-anchor="middle" x="809.79" y="-171.73" font-family="Times-Roman" font-size="14.00">Deterministic</text>
</g>
<!-- h&#45;&gt;μ -->
<g id="edge16" class="edge">
<title>h&#45;&gt;μ</title>
<path fill="none" stroke="black" d="M467.97,-285.02C540.46,-265.18 666.39,-230.69 743.5,-209.58"/>
<polygon fill="black" stroke="black" points="744.85,-212.84 753.58,-206.82 743.01,-206.09 744.85,-212.84"/>
</g>
<!-- d&#45;&gt;μ -->
<g id="edge14" class="edge">
<title>d&#45;&gt;μ</title>
<path fill="none" stroke="black" d="M809.79,-274.86C809.79,-260.75 809.79,-243 809.79,-227.5"/>
<polygon fill="black" stroke="black" points="813.29,-227.2 809.79,-217.2 806.29,-227.2 813.29,-227.2"/>
</g>
<!-- d_offset -->
<g id="node13" class="node">
<title>d_offset</title>
<ellipse fill="none" stroke="black" cx="809.79" cy="-412.36" rx="52.15" ry="37.45"/>
<text text-anchor="middle" x="809.79" y="-423.66" font-family="Times-Roman" font-size="14.00">d_offset</text>
<text text-anchor="middle" x="809.79" y="-408.66" font-family="Times-Roman" font-size="14.00">~</text>
<text text-anchor="middle" x="809.79" y="-393.66" font-family="Times-Roman" font-size="14.00">Normal</text>
</g>
<!-- d_offset&#45;&gt;d -->
<g id="edge6" class="edge">
<title>d_offset&#45;&gt;d</title>
<path fill="none" stroke="black" d="M809.79,-374.78C809.79,-363.04 809.79,-350.05 809.79,-338.36"/>
<polygon fill="black" stroke="black" points="813.29,-338.06 809.79,-328.06 806.29,-338.06 813.29,-338.06"/>
</g>
<!-- η&#45;&gt;μ -->
<g id="edge15" class="edge">
<title>η&#45;&gt;μ</title>
<path fill="none" stroke="black" d="M1151.61,-285.02C1079.12,-265.18 953.19,-230.69 876.09,-209.58"/>
<polygon fill="black" stroke="black" points="876.57,-206.09 866.01,-206.82 874.73,-212.84 876.57,-206.09"/>
</g>
<!-- η_offset -->
<g id="node15" class="node">
<title>η_offset</title>
<ellipse fill="none" stroke="black" cx="1207.79" cy="-412.36" rx="52.15" ry="37.45"/>
<text text-anchor="middle" x="1207.79" y="-423.66" font-family="Times-Roman" font-size="14.00">η_offset</text>
<text text-anchor="middle" x="1207.79" y="-408.66" font-family="Times-Roman" font-size="14.00">~</text>
<text text-anchor="middle" x="1207.79" y="-393.66" font-family="Times-Roman" font-size="14.00">Normal</text>
</g>
<!-- η_offset&#45;&gt;η -->
<g id="edge9" class="edge">
<title>η_offset&#45;&gt;η</title>
<path fill="none" stroke="black" d="M1207.79,-374.78C1207.79,-363.04 1207.79,-350.05 1207.79,-338.36"/>
<polygon fill="black" stroke="black" points="1211.29,-338.06 1207.79,-328.06 1204.29,-338.06 1211.29,-338.06"/>
</g>
<!-- β&#45;&gt;μ -->
<g id="edge13" class="edge">
<title>β&#45;&gt;μ</title>
<path fill="none" stroke="black" d="M225.81,-279.02C259.54,-266.96 303.59,-252.6 343.79,-243.91 484.2,-213.53 652.44,-200.1 743.44,-194.68"/>
<polygon fill="black" stroke="black" points="743.83,-198.17 753.61,-194.09 743.42,-191.18 743.83,-198.17"/>
</g>
<!-- β_offset -->
<g id="node17" class="node">
<title>β_offset</title>
<ellipse fill="none" stroke="black" cx="169.79" cy="-412.36" rx="52.15" ry="37.45"/>
<text text-anchor="middle" x="169.79" y="-423.66" font-family="Times-Roman" font-size="14.00">β_offset</text>
<text text-anchor="middle" x="169.79" y="-408.66" font-family="Times-Roman" font-size="14.00">~</text>
<text text-anchor="middle" x="169.79" y="-393.66" font-family="Times-Roman" font-size="14.00">Normal</text>
</g>
<!-- β_offset&#45;&gt;β -->
<g id="edge12" class="edge">
<title>β_offset&#45;&gt;β</title>
<path fill="none" stroke="black" d="M169.79,-374.78C169.79,-363.04 169.79,-350.05 169.79,-338.36"/>
<polygon fill="black" stroke="black" points="173.29,-338.06 169.79,-328.06 166.29,-338.06 173.29,-338.06"/>
</g>
<!-- lfc -->
<g id="node19" class="node">
<title>lfc</title>
<ellipse fill="lightgrey" stroke="black" cx="812.79" cy="-76.48" rx="48.58" ry="37.45"/>
<text text-anchor="middle" x="812.79" y="-87.78" font-family="Times-Roman" font-size="14.00">lfc</text>
<text text-anchor="middle" x="812.79" y="-72.78" font-family="Times-Roman" font-size="14.00">~</text>
<text text-anchor="middle" x="812.79" y="-57.78" font-family="Times-Roman" font-size="14.00">Normal</text>
</g>
<!-- μ&#45;&gt;lfc -->
<g id="edge19" class="edge">
<title>μ&#45;&gt;lfc</title>
<path fill="none" stroke="black" d="M810.48,-163.75C810.79,-152.02 811.18,-137.75 811.54,-124.22"/>
<polygon fill="black" stroke="black" points="815.04,-124.16 811.81,-114.07 808.04,-123.98 815.04,-124.16"/>
</g>
<!-- σ&#45;&gt;lfc -->
<g id="edge18" class="edge">
<title>σ&#45;&gt;lfc</title>
<path fill="none" stroke="black" d="M1023.05,-166.64C976.74,-147 910.32,-118.84 864.59,-99.44"/>
<polygon fill="black" stroke="black" points="865.73,-96.13 855.16,-95.44 863,-102.57 865.73,-96.13"/>
</g>
</g>
</svg>
