<?xml version="1.0" encoding="UTF-8" standalone="no"?>
<!DOCTYPE svg PUBLIC "-//W3C//DTD SVG 1.1//EN"
 "http://www.w3.org/Graphics/SVG/1.1/DTD/svg11.dtd">
<!-- Generated by graphviz version 2.47.0 (20210327.0129)
 -->
<!-- Pages: 1 -->
<svg width="810pt" height="469pt"
 viewBox="0.00 0.00 809.59 468.81" xmlns="http://www.w3.org/2000/svg" xmlns:xlink="http://www.w3.org/1999/xlink">
<g id="graph0" class="graph" transform="scale(1 1) rotate(0) translate(4 464.81)">
<polygon fill="white" stroke="transparent" points="-4,4 -4,-464.81 805.59,-464.81 805.59,4 -4,4"/>
<g id="clust1" class="cluster">
<title>cluster64</title>
<path fill="none" stroke="black" d="M160.3,-243.91C160.3,-243.91 250.3,-243.91 250.3,-243.91 256.3,-243.91 262.3,-249.91 262.3,-255.91 262.3,-255.91 262.3,-345.86 262.3,-345.86 262.3,-351.86 256.3,-357.86 250.3,-357.86 250.3,-357.86 160.3,-357.86 160.3,-357.86 154.3,-357.86 148.3,-351.86 148.3,-345.86 148.3,-345.86 148.3,-255.91 148.3,-255.91 148.3,-249.91 154.3,-243.91 160.3,-243.91"/>
<text text-anchor="middle" x="244.8" y="-251.71" font-family="Times-Roman" font-size="14.00">64</text>
</g>
<g id="clust2" class="cluster">
<title>cluster64 x 10</title>
<path fill="none" stroke="black" d="M412.3,-243.91C412.3,-243.91 502.3,-243.91 502.3,-243.91 508.3,-243.91 514.3,-249.91 514.3,-255.91 514.3,-255.91 514.3,-345.86 514.3,-345.86 514.3,-351.86 508.3,-357.86 502.3,-357.86 502.3,-357.86 412.3,-357.86 412.3,-357.86 406.3,-357.86 400.3,-351.86 400.3,-345.86 400.3,-345.86 400.3,-255.91 400.3,-255.91 400.3,-249.91 406.3,-243.91 412.3,-243.91"/>
<text text-anchor="middle" x="479.3" y="-251.71" font-family="Times-Roman" font-size="14.00">64 x 10</text>
</g>
<g id="clust3" class="cluster">
<title>cluster4</title>
<path fill="none" stroke="black" d="M551.3,-243.91C551.3,-243.91 641.3,-243.91 641.3,-243.91 647.3,-243.91 653.3,-249.91 653.3,-255.91 653.3,-255.91 653.3,-345.86 653.3,-345.86 653.3,-351.86 647.3,-357.86 641.3,-357.86 641.3,-357.86 551.3,-357.86 551.3,-357.86 545.3,-357.86 539.3,-351.86 539.3,-345.86 539.3,-345.86 539.3,-255.91 539.3,-255.91 539.3,-249.91 545.3,-243.91 551.3,-243.91"/>
<text text-anchor="middle" x="640.3" y="-251.71" font-family="Times-Roman" font-size="14.00">4</text>
</g>
<g id="clust4" class="cluster">
<title>cluster1,443</title>
<path fill="none" stroke="black" d="M436.3,-8C436.3,-8 540.3,-8 540.3,-8 546.3,-8 552.3,-14 552.3,-20 552.3,-20 552.3,-212.93 552.3,-212.93 552.3,-218.93 546.3,-224.93 540.3,-224.93 540.3,-224.93 436.3,-224.93 436.3,-224.93 430.3,-224.93 424.3,-218.93 424.3,-212.93 424.3,-212.93 424.3,-20 424.3,-20 424.3,-14 430.3,-8 436.3,-8"/>
<text text-anchor="middle" x="523.8" y="-15.8" font-family="Times-Roman" font-size="14.00">1,443</text>
</g>
<g id="clust5" class="cluster">
<title>cluster192</title>
<path fill="none" stroke="black" d="M635.3,-121.95C635.3,-121.95 765.3,-121.95 765.3,-121.95 771.3,-121.95 777.3,-127.95 777.3,-133.95 777.3,-133.95 777.3,-223.91 777.3,-223.91 777.3,-229.91 771.3,-235.91 765.3,-235.91 765.3,-235.91 635.3,-235.91 635.3,-235.91 629.3,-235.91 623.3,-229.91 623.3,-223.91 623.3,-223.91 623.3,-133.95 623.3,-133.95 623.3,-127.95 629.3,-121.95 635.3,-121.95"/>
<text text-anchor="middle" x="755.3" y="-129.75" font-family="Times-Roman" font-size="14.00">192</text>
</g>
<!-- σ_h -->
<g id="node1" class="node">
<title>σ_h</title>
<ellipse fill="none" stroke="black" cx="69.3" cy="-423.34" rx="69.09" ry="37.45"/>
<text text-anchor="middle" x="69.3" y="-434.64" font-family="Times-Roman" font-size="14.00">σ_h</text>
<text text-anchor="middle" x="69.3" y="-419.64" font-family="Times-Roman" font-size="14.00">~</text>
<text text-anchor="middle" x="69.3" y="-404.64" font-family="Times-Roman" font-size="14.00">HalfNormal</text>
</g>
<!-- h -->
<g id="node8" class="node">
<title>h</title>
<ellipse fill="none" stroke="black" cx="205.3" cy="-312.38" rx="48.58" ry="37.45"/>
<text text-anchor="middle" x="205.3" y="-323.68" font-family="Times-Roman" font-size="14.00">h</text>
<text text-anchor="middle" x="205.3" y="-308.68" font-family="Times-Roman" font-size="14.00">~</text>
<text text-anchor="middle" x="205.3" y="-293.68" font-family="Times-Roman" font-size="14.00">Normal</text>
</g>
<!-- σ_h&#45;&gt;h -->
<g id="edge2" class="edge">
<title>σ_h&#45;&gt;h</title>
<path fill="none" stroke="black" d="M107.54,-391.7C125.12,-377.62 146,-360.89 163.94,-346.51"/>
<polygon fill="black" stroke="black" points="166.34,-349.08 171.96,-340.09 161.97,-343.61 166.34,-349.08"/>
</g>
<!-- σ_η -->
<g id="node2" class="node">
<title>σ_η</title>
<ellipse fill="none" stroke="black" cx="614.3" cy="-423.34" rx="69.09" ry="37.45"/>
<text text-anchor="middle" x="614.3" y="-434.64" font-family="Times-Roman" font-size="14.00">σ_η</text>
<text text-anchor="middle" x="614.3" y="-419.64" font-family="Times-Roman" font-size="14.00">~</text>
<text text-anchor="middle" x="614.3" y="-404.64" font-family="Times-Roman" font-size="14.00">HalfNormal</text>
</g>
<!-- η -->
<g id="node10" class="node">
<title>η</title>
<ellipse fill="none" stroke="black" cx="596.3" cy="-312.38" rx="48.58" ry="37.45"/>
<text text-anchor="middle" x="596.3" y="-323.68" font-family="Times-Roman" font-size="14.00">η</text>
<text text-anchor="middle" x="596.3" y="-308.68" font-family="Times-Roman" font-size="14.00">~</text>
<text text-anchor="middle" x="596.3" y="-293.68" font-family="Times-Roman" font-size="14.00">Normal</text>
</g>
<!-- σ_η&#45;&gt;η -->
<g id="edge5" class="edge">
<title>σ_η&#45;&gt;η</title>
<path fill="none" stroke="black" d="M608.25,-385.75C606.87,-377.4 605.39,-368.42 603.95,-359.71"/>
<polygon fill="black" stroke="black" points="607.38,-358.98 602.29,-349.68 600.47,-360.12 607.38,-358.98"/>
</g>
<!-- σ_σ -->
<g id="node3" class="node">
<title>σ_σ</title>
<ellipse fill="none" stroke="black" cx="732.3" cy="-312.38" rx="69.09" ry="37.45"/>
<text text-anchor="middle" x="732.3" y="-323.68" font-family="Times-Roman" font-size="14.00">σ_σ</text>
<text text-anchor="middle" x="732.3" y="-308.68" font-family="Times-Roman" font-size="14.00">~</text>
<text text-anchor="middle" x="732.3" y="-293.68" font-family="Times-Roman" font-size="14.00">HalfNormal</text>
</g>
<!-- σ -->
<g id="node13" class="node">
<title>σ</title>
<ellipse fill="none" stroke="black" cx="700.3" cy="-190.43" rx="69.09" ry="37.45"/>
<text text-anchor="middle" x="700.3" y="-201.73" font-family="Times-Roman" font-size="14.00">σ</text>
<text text-anchor="middle" x="700.3" y="-186.73" font-family="Times-Roman" font-size="14.00">~</text>
<text text-anchor="middle" x="700.3" y="-171.73" font-family="Times-Roman" font-size="14.00">HalfNormal</text>
</g>
<!-- σ_σ&#45;&gt;σ -->
<g id="edge10" class="edge">
<title>σ_σ&#45;&gt;σ</title>
<path fill="none" stroke="black" d="M722.61,-275.07C719.44,-263.21 715.89,-249.87 712.56,-237.4"/>
<polygon fill="black" stroke="black" points="715.91,-236.38 709.95,-227.62 709.15,-238.19 715.91,-236.38"/>
</g>
<!-- μ_d -->
<g id="node4" class="node">
<title>μ_d</title>
<ellipse fill="none" stroke="black" cx="321.3" cy="-423.34" rx="48.58" ry="37.45"/>
<text text-anchor="middle" x="321.3" y="-434.64" font-family="Times-Roman" font-size="14.00">μ_d</text>
<text text-anchor="middle" x="321.3" y="-419.64" font-family="Times-Roman" font-size="14.00">~</text>
<text text-anchor="middle" x="321.3" y="-404.64" font-family="Times-Roman" font-size="14.00">Normal</text>
</g>
<!-- d -->
<g id="node9" class="node">
<title>d</title>
<ellipse fill="none" stroke="black" cx="457.3" cy="-312.38" rx="48.58" ry="37.45"/>
<text text-anchor="middle" x="457.3" y="-323.68" font-family="Times-Roman" font-size="14.00">d</text>
<text text-anchor="middle" x="457.3" y="-308.68" font-family="Times-Roman" font-size="14.00">~</text>
<text text-anchor="middle" x="457.3" y="-293.68" font-family="Times-Roman" font-size="14.00">Normal</text>
</g>
<!-- μ_d&#45;&gt;d -->
<g id="edge4" class="edge">
<title>μ_d&#45;&gt;d</title>
<path fill="none" stroke="black" d="M354.57,-395.68C373.09,-380.84 396.31,-362.24 415.99,-346.48"/>
<polygon fill="black" stroke="black" points="418.28,-349.12 423.9,-340.14 413.91,-343.66 418.28,-349.12"/>
</g>
<!-- μ_h -->
<g id="node5" class="node">
<title>μ_h</title>
<ellipse fill="none" stroke="black" cx="205.3" cy="-423.34" rx="48.58" ry="37.45"/>
<text text-anchor="middle" x="205.3" y="-434.64" font-family="Times-Roman" font-size="14.00">μ_h</text>
<text text-anchor="middle" x="205.3" y="-419.64" font-family="Times-Roman" font-size="14.00">~</text>
<text text-anchor="middle" x="205.3" y="-404.64" font-family="Times-Roman" font-size="14.00">Normal</text>
</g>
<!-- μ_h&#45;&gt;h -->
<g id="edge1" class="edge">
<title>μ_h&#45;&gt;h</title>
<path fill="none" stroke="black" d="M205.3,-385.75C205.3,-377.58 205.3,-368.8 205.3,-360.27"/>
<polygon fill="black" stroke="black" points="208.8,-360.06 205.3,-350.06 201.8,-360.06 208.8,-360.06"/>
</g>
<!-- σ_d -->
<g id="node6" class="node">
<title>σ_d</title>
<ellipse fill="none" stroke="black" cx="457.3" cy="-423.34" rx="69.09" ry="37.45"/>
<text text-anchor="middle" x="457.3" y="-434.64" font-family="Times-Roman" font-size="14.00">σ_d</text>
<text text-anchor="middle" x="457.3" y="-419.64" font-family="Times-Roman" font-size="14.00">~</text>
<text text-anchor="middle" x="457.3" y="-404.64" font-family="Times-Roman" font-size="14.00">HalfNormal</text>
</g>
<!-- σ_d&#45;&gt;d -->
<g id="edge3" class="edge">
<title>σ_d&#45;&gt;d</title>
<path fill="none" stroke="black" d="M457.3,-385.75C457.3,-377.58 457.3,-368.8 457.3,-360.27"/>
<polygon fill="black" stroke="black" points="460.8,-360.06 457.3,-350.06 453.8,-360.06 460.8,-360.06"/>
</g>
<!-- μ_η -->
<g id="node7" class="node">
<title>μ_η</title>
<ellipse fill="none" stroke="black" cx="750.3" cy="-423.34" rx="48.58" ry="37.45"/>
<text text-anchor="middle" x="750.3" y="-434.64" font-family="Times-Roman" font-size="14.00">μ_η</text>
<text text-anchor="middle" x="750.3" y="-419.64" font-family="Times-Roman" font-size="14.00">~</text>
<text text-anchor="middle" x="750.3" y="-404.64" font-family="Times-Roman" font-size="14.00">Normal</text>
</g>
<!-- μ_η&#45;&gt;η -->
<g id="edge6" class="edge">
<title>μ_η&#45;&gt;η</title>
<path fill="none" stroke="black" d="M713.46,-398.38C695.44,-386.46 673.54,-371.68 654.3,-357.86 649.09,-354.12 643.68,-350.12 638.34,-346.12"/>
<polygon fill="black" stroke="black" points="640.16,-343.1 630.07,-339.85 635.93,-348.68 640.16,-343.1"/>
</g>
<!-- μ -->
<g id="node11" class="node">
<title>μ</title>
<polygon fill="none" stroke="black" points="544.3,-216.93 432.3,-216.93 432.3,-163.93 544.3,-163.93 544.3,-216.93"/>
<text text-anchor="middle" x="488.3" y="-201.73" font-family="Times-Roman" font-size="14.00">μ</text>
<text text-anchor="middle" x="488.3" y="-186.73" font-family="Times-Roman" font-size="14.00">~</text>
<text text-anchor="middle" x="488.3" y="-171.73" font-family="Times-Roman" font-size="14.00">Deterministic</text>
</g>
<!-- h&#45;&gt;μ -->
<g id="edge7" class="edge">
<title>h&#45;&gt;μ</title>
<path fill="none" stroke="black" d="M247.66,-293.43C293.99,-273.79 368.82,-242.07 422.73,-219.22"/>
<polygon fill="black" stroke="black" points="424.37,-222.33 432.21,-215.2 421.64,-215.88 424.37,-222.33"/>
</g>
<!-- d&#45;&gt;μ -->
<g id="edge9" class="edge">
<title>d&#45;&gt;μ</title>
<path fill="none" stroke="black" d="M466.6,-275.39C470.54,-260.14 475.12,-242.41 479.06,-227.19"/>
<polygon fill="black" stroke="black" points="482.55,-227.67 481.66,-217.11 475.77,-225.91 482.55,-227.67"/>
</g>
<!-- η&#45;&gt;μ -->
<g id="edge8" class="edge">
<title>η&#45;&gt;μ</title>
<path fill="none" stroke="black" d="M569.04,-281.11C553.65,-264.02 534.39,-242.62 518.53,-225.01"/>
<polygon fill="black" stroke="black" points="520.81,-222.31 511.51,-217.22 515.6,-226.99 520.81,-222.31"/>
</g>
<!-- lfc -->
<g id="node12" class="node">
<title>lfc</title>
<ellipse fill="lightgrey" stroke="black" cx="491.3" cy="-76.48" rx="48.58" ry="37.45"/>
<text text-anchor="middle" x="491.3" y="-87.78" font-family="Times-Roman" font-size="14.00">lfc</text>
<text text-anchor="middle" x="491.3" y="-72.78" font-family="Times-Roman" font-size="14.00">~</text>
<text text-anchor="middle" x="491.3" y="-57.78" font-family="Times-Roman" font-size="14.00">Normal</text>
</g>
<!-- μ&#45;&gt;lfc -->
<g id="edge12" class="edge">
<title>μ&#45;&gt;lfc</title>
<path fill="none" stroke="black" d="M488.98,-163.75C489.3,-152.02 489.68,-137.75 490.04,-124.22"/>
<polygon fill="black" stroke="black" points="493.55,-124.16 490.32,-114.07 486.55,-123.98 493.55,-124.16"/>
</g>
<!-- σ&#45;&gt;lfc -->
<g id="edge11" class="edge">
<title>σ&#45;&gt;lfc</title>
<path fill="none" stroke="black" d="M651.82,-163.46C618.2,-145.46 573.6,-121.56 539.95,-103.54"/>
<polygon fill="black" stroke="black" points="541.23,-100.25 530.76,-98.62 537.92,-106.42 541.23,-100.25"/>
</g>
</g>
</svg>
