<?xml version="1.0" encoding="UTF-8" standalone="no"?>
<!DOCTYPE svg PUBLIC "-//W3C//DTD SVG 1.1//EN"
 "http://www.w3.org/Graphics/SVG/1.1/DTD/svg11.dtd">
<!-- Generated by graphviz version 2.47.0 (20210327.0129)
 -->
<!-- Pages: 1 -->
<svg width="807pt" height="469pt"
 viewBox="0.00 0.00 806.59 468.81" xmlns="http://www.w3.org/2000/svg" xmlns:xlink="http://www.w3.org/1999/xlink">
<g id="graph0" class="graph" transform="scale(1 1) rotate(0) translate(4 464.81)">
<polygon fill="white" stroke="transparent" points="-4,4 -4,-464.81 802.59,-464.81 802.59,4 -4,4"/>
<g id="clust1" class="cluster">
<title>cluster64</title>
<path fill="none" stroke="black" d="M412.3,-243.91C412.3,-243.91 502.3,-243.91 502.3,-243.91 508.3,-243.91 514.3,-249.91 514.3,-255.91 514.3,-255.91 514.3,-345.86 514.3,-345.86 514.3,-351.86 508.3,-357.86 502.3,-357.86 502.3,-357.86 412.3,-357.86 412.3,-357.86 406.3,-357.86 400.3,-351.86 400.3,-345.86 400.3,-345.86 400.3,-255.91 400.3,-255.91 400.3,-249.91 406.3,-243.91 412.3,-243.91"/>
<text text-anchor="middle" x="496.8" y="-251.71" font-family="Times-Roman" font-size="14.00">64</text>
</g>
<g id="clust2" class="cluster">
<title>cluster64 x 10</title>
<path fill="none" stroke="black" d="M160.3,-243.91C160.3,-243.91 250.3,-243.91 250.3,-243.91 256.3,-243.91 262.3,-249.91 262.3,-255.91 262.3,-255.91 262.3,-345.86 262.3,-345.86 262.3,-351.86 256.3,-357.86 250.3,-357.86 250.3,-357.86 160.3,-357.86 160.3,-357.86 154.3,-357.86 148.3,-351.86 148.3,-345.86 148.3,-345.86 148.3,-255.91 148.3,-255.91 148.3,-249.91 154.3,-243.91 160.3,-243.91"/>
<text text-anchor="middle" x="227.3" y="-251.71" font-family="Times-Roman" font-size="14.00">64 x 10</text>
</g>
<g id="clust3" class="cluster">
<title>cluster4</title>
<path fill="none" stroke="black" d="M541.3,-243.91C541.3,-243.91 631.3,-243.91 631.3,-243.91 637.3,-243.91 643.3,-249.91 643.3,-255.91 643.3,-255.91 643.3,-345.86 643.3,-345.86 643.3,-351.86 637.3,-357.86 631.3,-357.86 631.3,-357.86 541.3,-357.86 541.3,-357.86 535.3,-357.86 529.3,-351.86 529.3,-345.86 529.3,-345.86 529.3,-255.91 529.3,-255.91 529.3,-249.91 535.3,-243.91 541.3,-243.91"/>
<text text-anchor="middle" x="630.3" y="-251.71" font-family="Times-Roman" font-size="14.00">4</text>
</g>
<g id="clust4" class="cluster">
<title>cluster1,443</title>
<path fill="none" stroke="black" d="M434.3,-8C434.3,-8 538.3,-8 538.3,-8 544.3,-8 550.3,-14 550.3,-20 550.3,-20 550.3,-212.93 550.3,-212.93 550.3,-218.93 544.3,-224.93 538.3,-224.93 538.3,-224.93 434.3,-224.93 434.3,-224.93 428.3,-224.93 422.3,-218.93 422.3,-212.93 422.3,-212.93 422.3,-20 422.3,-20 422.3,-14 428.3,-8 434.3,-8"/>
<text text-anchor="middle" x="521.8" y="-15.8" font-family="Times-Roman" font-size="14.00">1,443</text>
</g>
<g id="clust5" class="cluster">
<title>cluster192</title>
<path fill="none" stroke="black" d="M628.3,-121.95C628.3,-121.95 758.3,-121.95 758.3,-121.95 764.3,-121.95 770.3,-127.95 770.3,-133.95 770.3,-133.95 770.3,-223.91 770.3,-223.91 770.3,-229.91 764.3,-235.91 758.3,-235.91 758.3,-235.91 628.3,-235.91 628.3,-235.91 622.3,-235.91 616.3,-229.91 616.3,-223.91 616.3,-223.91 616.3,-133.95 616.3,-133.95 616.3,-127.95 622.3,-121.95 628.3,-121.95"/>
<text text-anchor="middle" x="748.3" y="-129.75" font-family="Times-Roman" font-size="14.00">192</text>
</g>
<!-- σ_d -->
<g id="node1" class="node">
<title>σ_d</title>
<ellipse fill="none" stroke="black" cx="69.3" cy="-423.34" rx="69.09" ry="37.45"/>
<text text-anchor="middle" x="69.3" y="-434.64" font-family="Times-Roman" font-size="14.00">σ_d</text>
<text text-anchor="middle" x="69.3" y="-419.64" font-family="Times-Roman" font-size="14.00">~</text>
<text text-anchor="middle" x="69.3" y="-404.64" font-family="Times-Roman" font-size="14.00">HalfNormal</text>
</g>
<!-- d -->
<g id="node9" class="node">
<title>d</title>
<ellipse fill="none" stroke="black" cx="205.3" cy="-312.38" rx="48.58" ry="37.45"/>
<text text-anchor="middle" x="205.3" y="-323.68" font-family="Times-Roman" font-size="14.00">d</text>
<text text-anchor="middle" x="205.3" y="-308.68" font-family="Times-Roman" font-size="14.00">~</text>
<text text-anchor="middle" x="205.3" y="-293.68" font-family="Times-Roman" font-size="14.00">Normal</text>
</g>
<!-- σ_d&#45;&gt;d -->
<g id="edge3" class="edge">
<title>σ_d&#45;&gt;d</title>
<path fill="none" stroke="black" d="M107.54,-391.7C125.12,-377.62 146,-360.89 163.94,-346.51"/>
<polygon fill="black" stroke="black" points="166.34,-349.08 171.96,-340.09 161.97,-343.61 166.34,-349.08"/>
</g>
<!-- μ_η -->
<g id="node2" class="node">
<title>μ_η</title>
<ellipse fill="none" stroke="black" cx="593.3" cy="-423.34" rx="48.58" ry="37.45"/>
<text text-anchor="middle" x="593.3" y="-434.64" font-family="Times-Roman" font-size="14.00">μ_η</text>
<text text-anchor="middle" x="593.3" y="-419.64" font-family="Times-Roman" font-size="14.00">~</text>
<text text-anchor="middle" x="593.3" y="-404.64" font-family="Times-Roman" font-size="14.00">Normal</text>
</g>
<!-- η -->
<g id="node10" class="node">
<title>η</title>
<ellipse fill="none" stroke="black" cx="586.3" cy="-312.38" rx="48.58" ry="37.45"/>
<text text-anchor="middle" x="586.3" y="-323.68" font-family="Times-Roman" font-size="14.00">η</text>
<text text-anchor="middle" x="586.3" y="-308.68" font-family="Times-Roman" font-size="14.00">~</text>
<text text-anchor="middle" x="586.3" y="-293.68" font-family="Times-Roman" font-size="14.00">Normal</text>
</g>
<!-- μ_η&#45;&gt;η -->
<g id="edge5" class="edge">
<title>μ_η&#45;&gt;η</title>
<path fill="none" stroke="black" d="M590.95,-385.75C590.42,-377.58 589.86,-368.8 589.31,-360.27"/>
<polygon fill="black" stroke="black" points="592.79,-359.81 588.65,-350.06 585.8,-360.26 592.79,-359.81"/>
</g>
<!-- σ_η -->
<g id="node3" class="node">
<title>σ_η</title>
<ellipse fill="none" stroke="black" cx="729.3" cy="-423.34" rx="69.09" ry="37.45"/>
<text text-anchor="middle" x="729.3" y="-434.64" font-family="Times-Roman" font-size="14.00">σ_η</text>
<text text-anchor="middle" x="729.3" y="-419.64" font-family="Times-Roman" font-size="14.00">~</text>
<text text-anchor="middle" x="729.3" y="-404.64" font-family="Times-Roman" font-size="14.00">HalfNormal</text>
</g>
<!-- σ_η&#45;&gt;η -->
<g id="edge6" class="edge">
<title>σ_η&#45;&gt;η</title>
<path fill="none" stroke="black" d="M689.48,-392.2C675.22,-381.39 659.02,-369.09 644.3,-357.86 639.2,-353.97 633.85,-349.89 628.56,-345.83"/>
<polygon fill="black" stroke="black" points="630.38,-342.82 620.32,-339.52 626.13,-348.38 630.38,-342.82"/>
</g>
<!-- μ_h -->
<g id="node4" class="node">
<title>μ_h</title>
<ellipse fill="none" stroke="black" cx="321.3" cy="-423.34" rx="48.58" ry="37.45"/>
<text text-anchor="middle" x="321.3" y="-434.64" font-family="Times-Roman" font-size="14.00">μ_h</text>
<text text-anchor="middle" x="321.3" y="-419.64" font-family="Times-Roman" font-size="14.00">~</text>
<text text-anchor="middle" x="321.3" y="-404.64" font-family="Times-Roman" font-size="14.00">Normal</text>
</g>
<!-- h -->
<g id="node8" class="node">
<title>h</title>
<ellipse fill="none" stroke="black" cx="457.3" cy="-312.38" rx="48.58" ry="37.45"/>
<text text-anchor="middle" x="457.3" y="-323.68" font-family="Times-Roman" font-size="14.00">h</text>
<text text-anchor="middle" x="457.3" y="-308.68" font-family="Times-Roman" font-size="14.00">~</text>
<text text-anchor="middle" x="457.3" y="-293.68" font-family="Times-Roman" font-size="14.00">Normal</text>
</g>
<!-- μ_h&#45;&gt;h -->
<g id="edge2" class="edge">
<title>μ_h&#45;&gt;h</title>
<path fill="none" stroke="black" d="M354.57,-395.68C373.09,-380.84 396.31,-362.24 415.99,-346.48"/>
<polygon fill="black" stroke="black" points="418.28,-349.12 423.9,-340.14 413.91,-343.66 418.28,-349.12"/>
</g>
<!-- σ_h -->
<g id="node5" class="node">
<title>σ_h</title>
<ellipse fill="none" stroke="black" cx="457.3" cy="-423.34" rx="69.09" ry="37.45"/>
<text text-anchor="middle" x="457.3" y="-434.64" font-family="Times-Roman" font-size="14.00">σ_h</text>
<text text-anchor="middle" x="457.3" y="-419.64" font-family="Times-Roman" font-size="14.00">~</text>
<text text-anchor="middle" x="457.3" y="-404.64" font-family="Times-Roman" font-size="14.00">HalfNormal</text>
</g>
<!-- σ_h&#45;&gt;h -->
<g id="edge1" class="edge">
<title>σ_h&#45;&gt;h</title>
<path fill="none" stroke="black" d="M457.3,-385.75C457.3,-377.58 457.3,-368.8 457.3,-360.27"/>
<polygon fill="black" stroke="black" points="460.8,-360.06 457.3,-350.06 453.8,-360.06 460.8,-360.06"/>
</g>
<!-- σ_σ -->
<g id="node6" class="node">
<title>σ_σ</title>
<ellipse fill="none" stroke="black" cx="722.3" cy="-312.38" rx="69.09" ry="37.45"/>
<text text-anchor="middle" x="722.3" y="-323.68" font-family="Times-Roman" font-size="14.00">σ_σ</text>
<text text-anchor="middle" x="722.3" y="-308.68" font-family="Times-Roman" font-size="14.00">~</text>
<text text-anchor="middle" x="722.3" y="-293.68" font-family="Times-Roman" font-size="14.00">HalfNormal</text>
</g>
<!-- σ -->
<g id="node13" class="node">
<title>σ</title>
<ellipse fill="none" stroke="black" cx="693.3" cy="-190.43" rx="69.09" ry="37.45"/>
<text text-anchor="middle" x="693.3" y="-201.73" font-family="Times-Roman" font-size="14.00">σ</text>
<text text-anchor="middle" x="693.3" y="-186.73" font-family="Times-Roman" font-size="14.00">~</text>
<text text-anchor="middle" x="693.3" y="-171.73" font-family="Times-Roman" font-size="14.00">HalfNormal</text>
</g>
<!-- σ_σ&#45;&gt;σ -->
<g id="edge10" class="edge">
<title>σ_σ&#45;&gt;σ</title>
<path fill="none" stroke="black" d="M713.52,-275.07C710.65,-263.21 707.43,-249.87 704.41,-237.4"/>
<polygon fill="black" stroke="black" points="707.8,-236.52 702.05,-227.62 700.99,-238.16 707.8,-236.52"/>
</g>
<!-- μ_d -->
<g id="node7" class="node">
<title>μ_d</title>
<ellipse fill="none" stroke="black" cx="205.3" cy="-423.34" rx="48.58" ry="37.45"/>
<text text-anchor="middle" x="205.3" y="-434.64" font-family="Times-Roman" font-size="14.00">μ_d</text>
<text text-anchor="middle" x="205.3" y="-419.64" font-family="Times-Roman" font-size="14.00">~</text>
<text text-anchor="middle" x="205.3" y="-404.64" font-family="Times-Roman" font-size="14.00">Normal</text>
</g>
<!-- μ_d&#45;&gt;d -->
<g id="edge4" class="edge">
<title>μ_d&#45;&gt;d</title>
<path fill="none" stroke="black" d="M205.3,-385.75C205.3,-377.58 205.3,-368.8 205.3,-360.27"/>
<polygon fill="black" stroke="black" points="208.8,-360.06 205.3,-350.06 201.8,-360.06 208.8,-360.06"/>
</g>
<!-- μ -->
<g id="node12" class="node">
<title>μ</title>
<polygon fill="none" stroke="black" points="542.3,-216.93 430.3,-216.93 430.3,-163.93 542.3,-163.93 542.3,-216.93"/>
<text text-anchor="middle" x="486.3" y="-201.73" font-family="Times-Roman" font-size="14.00">μ</text>
<text text-anchor="middle" x="486.3" y="-186.73" font-family="Times-Roman" font-size="14.00">~</text>
<text text-anchor="middle" x="486.3" y="-171.73" font-family="Times-Roman" font-size="14.00">Deterministic</text>
</g>
<!-- h&#45;&gt;μ -->
<g id="edge8" class="edge">
<title>h&#45;&gt;μ</title>
<path fill="none" stroke="black" d="M466,-275.39C469.68,-260.14 473.97,-242.41 477.65,-227.19"/>
<polygon fill="black" stroke="black" points="481.14,-227.65 480.09,-217.11 474.34,-226.01 481.14,-227.65"/>
</g>
<!-- d&#45;&gt;μ -->
<g id="edge9" class="edge">
<title>d&#45;&gt;μ</title>
<path fill="none" stroke="black" d="M247.67,-293.3C293.59,-273.69 367.45,-242.16 420.84,-219.37"/>
<polygon fill="black" stroke="black" points="422.4,-222.51 430.23,-215.37 419.65,-216.07 422.4,-222.51"/>
</g>
<!-- η&#45;&gt;μ -->
<g id="edge7" class="edge">
<title>η&#45;&gt;μ</title>
<path fill="none" stroke="black" d="M560.54,-280.49C546.29,-263.4 528.57,-242.14 514.02,-224.68"/>
<polygon fill="black" stroke="black" points="516.67,-222.4 507.58,-216.96 511.29,-226.88 516.67,-222.4"/>
</g>
<!-- lfc -->
<g id="node11" class="node">
<title>lfc</title>
<ellipse fill="lightgrey" stroke="black" cx="489.3" cy="-76.48" rx="48.58" ry="37.45"/>
<text text-anchor="middle" x="489.3" y="-87.78" font-family="Times-Roman" font-size="14.00">lfc</text>
<text text-anchor="middle" x="489.3" y="-72.78" font-family="Times-Roman" font-size="14.00">~</text>
<text text-anchor="middle" x="489.3" y="-57.78" font-family="Times-Roman" font-size="14.00">Normal</text>
</g>
<!-- μ&#45;&gt;lfc -->
<g id="edge11" class="edge">
<title>μ&#45;&gt;lfc</title>
<path fill="none" stroke="black" d="M486.98,-163.75C487.3,-152.02 487.68,-137.75 488.04,-124.22"/>
<polygon fill="black" stroke="black" points="491.55,-124.16 488.32,-114.07 484.55,-123.98 491.55,-124.16"/>
</g>
<!-- σ&#45;&gt;lfc -->
<g id="edge12" class="edge">
<title>σ&#45;&gt;lfc</title>
<path fill="none" stroke="black" d="M645.47,-163.18C612.96,-145.34 570.11,-121.82 537.52,-103.94"/>
<polygon fill="black" stroke="black" points="539.06,-100.8 528.61,-99.05 535.7,-106.93 539.06,-100.8"/>
</g>
</g>
</svg>
