<?xml version="1.0" encoding="UTF-8" standalone="no"?>
<!DOCTYPE svg PUBLIC "-//W3C//DTD SVG 1.1//EN"
 "http://www.w3.org/Graphics/SVG/1.1/DTD/svg11.dtd">
<!-- Generated by graphviz version 2.42.3 (20191010.1750)
 -->
<!-- Title: %3 Pages: 1 -->
<svg width="490pt" height="458pt"
 viewBox="0.00 0.00 489.89 457.81" xmlns="http://www.w3.org/2000/svg" xmlns:xlink="http://www.w3.org/1999/xlink">
<g id="graph0" class="graph" transform="scale(1 1) rotate(0) translate(4 453.81)">
<title>%3</title>
<polygon fill="white" stroke="transparent" points="-4,4 -4,-453.81 485.89,-453.81 485.89,4 -4,4"/>
<g id="clust1" class="cluster">
<title>cluster5</title>
<path fill="none" stroke="black" d="M153.69,-232.91C153.69,-232.91 330.69,-232.91 330.69,-232.91 336.69,-232.91 342.69,-238.91 342.69,-244.91 342.69,-244.91 342.69,-334.86 342.69,-334.86 342.69,-340.86 336.69,-346.86 330.69,-346.86 330.69,-346.86 153.69,-346.86 153.69,-346.86 147.69,-346.86 141.69,-340.86 141.69,-334.86 141.69,-334.86 141.69,-244.91 141.69,-244.91 141.69,-238.91 147.69,-232.91 153.69,-232.91"/>
<text text-anchor="middle" x="331.19" y="-240.71" font-family="Times,serif" font-size="14.00">5</text>
</g>
<g id="clust2" class="cluster">
<title>cluster150</title>
<path fill="none" stroke="black" d="M198.69,-8C198.69,-8 282.69,-8 282.69,-8 288.69,-8 294.69,-14 294.69,-20 294.69,-20 294.69,-209.93 294.69,-209.93 294.69,-215.93 288.69,-221.93 282.69,-221.93 282.69,-221.93 198.69,-221.93 198.69,-221.93 192.69,-221.93 186.69,-215.93 186.69,-209.93 186.69,-209.93 186.69,-20 186.69,-20 186.69,-14 192.69,-8 198.69,-8"/>
<text text-anchor="middle" x="276.19" y="-15.8" font-family="Times,serif" font-size="14.00">150</text>
</g>
<!-- sigma_beta -->
<g id="node1" class="node">
<title>sigma_beta</title>
<ellipse fill="none" stroke="black" cx="58.69" cy="-412.34" rx="58.88" ry="37.45"/>
<text text-anchor="middle" x="58.69" y="-423.64" font-family="Times,serif" font-size="14.00">sigma_beta</text>
<text text-anchor="middle" x="58.69" y="-408.64" font-family="Times,serif" font-size="14.00">~</text>
<text text-anchor="middle" x="58.69" y="-393.64" font-family="Times,serif" font-size="14.00">HalfNormal</text>
</g>
<!-- beta -->
<g id="node7" class="node">
<title>beta</title>
<ellipse fill="none" stroke="black" cx="191.69" cy="-301.38" rx="41.94" ry="37.45"/>
<text text-anchor="middle" x="191.69" y="-312.68" font-family="Times,serif" font-size="14.00">beta</text>
<text text-anchor="middle" x="191.69" y="-297.68" font-family="Times,serif" font-size="14.00">~</text>
<text text-anchor="middle" x="191.69" y="-282.68" font-family="Times,serif" font-size="14.00">Normal</text>
</g>
<!-- sigma_beta&#45;&gt;beta -->
<g id="edge4" class="edge">
<title>sigma_beta&#45;&gt;beta</title>
<path fill="none" stroke="black" d="M94.33,-382.14C112.64,-367.14 134.97,-348.85 153.62,-333.57"/>
<polygon fill="black" stroke="black" points="155.85,-336.27 161.36,-327.23 151.41,-330.86 155.85,-336.27"/>
</g>
<!-- sigma_alpha -->
<g id="node2" class="node">
<title>sigma_alpha</title>
<ellipse fill="none" stroke="black" cx="303.69" cy="-412.34" rx="60.21" ry="37.45"/>
<text text-anchor="middle" x="303.69" y="-423.64" font-family="Times,serif" font-size="14.00">sigma_alpha</text>
<text text-anchor="middle" x="303.69" y="-408.64" font-family="Times,serif" font-size="14.00">~</text>
<text text-anchor="middle" x="303.69" y="-393.64" font-family="Times,serif" font-size="14.00">HalfNormal</text>
</g>
<!-- alpha -->
<g id="node6" class="node">
<title>alpha</title>
<ellipse fill="none" stroke="black" cx="292.69" cy="-301.38" rx="41.94" ry="37.45"/>
<text text-anchor="middle" x="292.69" y="-312.68" font-family="Times,serif" font-size="14.00">alpha</text>
<text text-anchor="middle" x="292.69" y="-297.68" font-family="Times,serif" font-size="14.00">~</text>
<text text-anchor="middle" x="292.69" y="-282.68" font-family="Times,serif" font-size="14.00">Normal</text>
</g>
<!-- sigma_alpha&#45;&gt;alpha -->
<g id="edge1" class="edge">
<title>sigma_alpha&#45;&gt;alpha</title>
<path fill="none" stroke="black" d="M300,-374.75C299.17,-366.58 298.28,-357.8 297.42,-349.27"/>
<polygon fill="black" stroke="black" points="300.88,-348.65 296.39,-339.06 293.91,-349.36 300.88,-348.65"/>
</g>
<!-- sigma -->
<g id="node3" class="node">
<title>sigma</title>
<ellipse fill="none" stroke="black" cx="362.69" cy="-187.43" rx="58.88" ry="37.45"/>
<text text-anchor="middle" x="362.69" y="-198.73" font-family="Times,serif" font-size="14.00">sigma</text>
<text text-anchor="middle" x="362.69" y="-183.73" font-family="Times,serif" font-size="14.00">~</text>
<text text-anchor="middle" x="362.69" y="-168.73" font-family="Times,serif" font-size="14.00">HalfNormal</text>
</g>
<!-- logfc -->
<g id="node9" class="node">
<title>logfc</title>
<ellipse fill="lightgrey" stroke="black" cx="242.69" cy="-76.48" rx="41.94" ry="37.45"/>
<text text-anchor="middle" x="242.69" y="-87.78" font-family="Times,serif" font-size="14.00">logfc</text>
<text text-anchor="middle" x="242.69" y="-72.78" font-family="Times,serif" font-size="14.00">~</text>
<text text-anchor="middle" x="242.69" y="-57.78" font-family="Times,serif" font-size="14.00">Normal</text>
</g>
<!-- sigma&#45;&gt;logfc -->
<g id="edge8" class="edge">
<title>sigma&#45;&gt;logfc</title>
<path fill="none" stroke="black" d="M329.58,-156.37C313.96,-142.19 295.28,-125.22 279.24,-110.66"/>
<polygon fill="black" stroke="black" points="281.36,-107.86 271.61,-103.73 276.66,-113.05 281.36,-107.86"/>
</g>
<!-- mu_alpha -->
<g id="node4" class="node">
<title>mu_alpha</title>
<ellipse fill="none" stroke="black" cx="431.69" cy="-412.34" rx="50.41" ry="37.45"/>
<text text-anchor="middle" x="431.69" y="-423.64" font-family="Times,serif" font-size="14.00">mu_alpha</text>
<text text-anchor="middle" x="431.69" y="-408.64" font-family="Times,serif" font-size="14.00">~</text>
<text text-anchor="middle" x="431.69" y="-393.64" font-family="Times,serif" font-size="14.00">Normal</text>
</g>
<!-- mu_alpha&#45;&gt;alpha -->
<g id="edge2" class="edge">
<title>mu_alpha&#45;&gt;alpha</title>
<path fill="none" stroke="black" d="M397.69,-384.68C377.82,-369.11 352.66,-349.39 331.95,-333.16"/>
<polygon fill="black" stroke="black" points="333.99,-330.31 323.97,-326.9 329.68,-335.82 333.99,-330.31"/>
</g>
<!-- mu_beta -->
<g id="node5" class="node">
<title>mu_beta</title>
<ellipse fill="none" stroke="black" cx="180.69" cy="-412.34" rx="45.01" ry="37.45"/>
<text text-anchor="middle" x="180.69" y="-423.64" font-family="Times,serif" font-size="14.00">mu_beta</text>
<text text-anchor="middle" x="180.69" y="-408.64" font-family="Times,serif" font-size="14.00">~</text>
<text text-anchor="middle" x="180.69" y="-393.64" font-family="Times,serif" font-size="14.00">Normal</text>
</g>
<!-- mu_beta&#45;&gt;beta -->
<g id="edge3" class="edge">
<title>mu_beta&#45;&gt;beta</title>
<path fill="none" stroke="black" d="M184.38,-374.75C185.21,-366.58 186.1,-357.8 186.96,-349.27"/>
<polygon fill="black" stroke="black" points="190.47,-349.36 187.99,-339.06 183.5,-348.65 190.47,-349.36"/>
</g>
<!-- mu -->
<g id="node8" class="node">
<title>mu</title>
<polygon fill="none" stroke="black" points="286.19,-213.93 195.19,-213.93 195.19,-160.93 286.19,-160.93 286.19,-213.93"/>
<text text-anchor="middle" x="240.69" y="-198.73" font-family="Times,serif" font-size="14.00">mu</text>
<text text-anchor="middle" x="240.69" y="-183.73" font-family="Times,serif" font-size="14.00">~</text>
<text text-anchor="middle" x="240.69" y="-168.73" font-family="Times,serif" font-size="14.00">Deterministic</text>
</g>
<!-- alpha&#45;&gt;mu -->
<g id="edge5" class="edge">
<title>alpha&#45;&gt;mu</title>
<path fill="none" stroke="black" d="M276.95,-266.49C270.58,-252.79 263.24,-236.99 256.84,-223.2"/>
<polygon fill="black" stroke="black" points="259.97,-221.62 252.58,-214.03 253.62,-224.57 259.97,-221.62"/>
</g>
<!-- beta&#45;&gt;mu -->
<g id="edge6" class="edge">
<title>beta&#45;&gt;mu</title>
<path fill="none" stroke="black" d="M206.66,-266.19C212.55,-252.73 219.3,-237.29 225.24,-223.73"/>
<polygon fill="black" stroke="black" points="228.59,-224.81 229.39,-214.25 222.17,-222 228.59,-224.81"/>
</g>
<!-- mu&#45;&gt;logfc -->
<g id="edge7" class="edge">
<title>mu&#45;&gt;logfc</title>
<path fill="none" stroke="black" d="M241.16,-160.89C241.36,-149.98 241.6,-136.89 241.83,-124.35"/>
<polygon fill="black" stroke="black" points="245.34,-124.06 242.02,-114 238.34,-123.94 245.34,-124.06"/>
</g>
</g>
</svg>
