<?xml version="1.0" encoding="UTF-8" standalone="no"?>
<!DOCTYPE svg PUBLIC "-//W3C//DTD SVG 1.1//EN"
 "http://www.w3.org/Graphics/SVG/1.1/DTD/svg11.dtd">
<!-- Generated by graphviz version 2.42.3 (20191010.1750)
 -->
<!-- Title: %3 Pages: 1 -->
<svg width="488pt" height="458pt"
 viewBox="0.00 0.00 488.46 457.81" xmlns="http://www.w3.org/2000/svg" xmlns:xlink="http://www.w3.org/1999/xlink">
<g id="graph0" class="graph" transform="scale(1 1) rotate(0) translate(4 453.81)">
<title>%3</title>
<polygon fill="white" stroke="transparent" points="-4,4 -4,-453.81 484.46,-453.81 484.46,4 -4,4"/>
<g id="clust1" class="cluster">
<title>cluster10</title>
<path fill="none" stroke="black" d="M140.2,-232.91C140.2,-232.91 216.2,-232.91 216.2,-232.91 222.2,-232.91 228.2,-238.91 228.2,-244.91 228.2,-244.91 228.2,-334.86 228.2,-334.86 228.2,-340.86 222.2,-346.86 216.2,-346.86 216.2,-346.86 140.2,-346.86 140.2,-346.86 134.2,-346.86 128.2,-340.86 128.2,-334.86 128.2,-334.86 128.2,-244.91 128.2,-244.91 128.2,-238.91 134.2,-232.91 140.2,-232.91"/>
<text text-anchor="middle" x="213.2" y="-240.71" font-family="Times,serif" font-size="14.00">10</text>
</g>
<g id="clust2" class="cluster">
<title>cluster20</title>
<path fill="none" stroke="black" d="M276.2,-232.91C276.2,-232.91 352.2,-232.91 352.2,-232.91 358.2,-232.91 364.2,-238.91 364.2,-244.91 364.2,-244.91 364.2,-334.86 364.2,-334.86 364.2,-340.86 358.2,-346.86 352.2,-346.86 352.2,-346.86 276.2,-346.86 276.2,-346.86 270.2,-346.86 264.2,-340.86 264.2,-334.86 264.2,-334.86 264.2,-244.91 264.2,-244.91 264.2,-238.91 270.2,-232.91 276.2,-232.91"/>
<text text-anchor="middle" x="349.2" y="-240.71" font-family="Times,serif" font-size="14.00">20</text>
</g>
<g id="clust3" class="cluster">
<title>cluster1,100</title>
<path fill="none" stroke="black" d="M203.2,-8C203.2,-8 287.2,-8 287.2,-8 293.2,-8 299.2,-14 299.2,-20 299.2,-20 299.2,-209.93 299.2,-209.93 299.2,-215.93 293.2,-221.93 287.2,-221.93 287.2,-221.93 203.2,-221.93 203.2,-221.93 197.2,-221.93 191.2,-215.93 191.2,-209.93 191.2,-209.93 191.2,-20 191.2,-20 191.2,-14 197.2,-8 203.2,-8"/>
<text text-anchor="middle" x="275.7" y="-15.8" font-family="Times,serif" font-size="14.00">1,100</text>
</g>
<!-- mu_alpha -->
<g id="node1" class="node">
<title>mu_alpha</title>
<ellipse fill="none" stroke="black" cx="50.2" cy="-412.34" rx="50.41" ry="37.45"/>
<text text-anchor="middle" x="50.2" y="-423.64" font-family="Times,serif" font-size="14.00">mu_alpha</text>
<text text-anchor="middle" x="50.2" y="-408.64" font-family="Times,serif" font-size="14.00">~</text>
<text text-anchor="middle" x="50.2" y="-393.64" font-family="Times,serif" font-size="14.00">Normal</text>
</g>
<!-- alpha_g -->
<g id="node6" class="node">
<title>alpha_g</title>
<ellipse fill="none" stroke="black" cx="178.2" cy="-301.38" rx="41.94" ry="37.45"/>
<text text-anchor="middle" x="178.2" y="-312.68" font-family="Times,serif" font-size="14.00">alpha_g</text>
<text text-anchor="middle" x="178.2" y="-297.68" font-family="Times,serif" font-size="14.00">~</text>
<text text-anchor="middle" x="178.2" y="-282.68" font-family="Times,serif" font-size="14.00">Normal</text>
</g>
<!-- mu_alpha&#45;&gt;alpha_g -->
<g id="edge2" class="edge">
<title>mu_alpha&#45;&gt;alpha_g</title>
<path fill="none" stroke="black" d="M82.84,-383.56C100.46,-368.56 122.31,-349.96 140.65,-334.35"/>
<polygon fill="black" stroke="black" points="142.92,-337.01 148.26,-327.87 138.38,-331.68 142.92,-337.01"/>
</g>
<!-- sigma_alpha -->
<g id="node2" class="node">
<title>sigma_alpha</title>
<ellipse fill="none" stroke="black" cx="178.2" cy="-412.34" rx="60.21" ry="37.45"/>
<text text-anchor="middle" x="178.2" y="-423.64" font-family="Times,serif" font-size="14.00">sigma_alpha</text>
<text text-anchor="middle" x="178.2" y="-408.64" font-family="Times,serif" font-size="14.00">~</text>
<text text-anchor="middle" x="178.2" y="-393.64" font-family="Times,serif" font-size="14.00">Exponential</text>
</g>
<!-- sigma_alpha&#45;&gt;alpha_g -->
<g id="edge1" class="edge">
<title>sigma_alpha&#45;&gt;alpha_g</title>
<path fill="none" stroke="black" d="M178.2,-374.75C178.2,-366.58 178.2,-357.8 178.2,-349.27"/>
<polygon fill="black" stroke="black" points="181.7,-349.06 178.2,-339.06 174.7,-349.06 181.7,-349.06"/>
</g>
<!-- sigma_beta -->
<g id="node3" class="node">
<title>sigma_beta</title>
<ellipse fill="none" stroke="black" cx="314.2" cy="-412.34" rx="57.97" ry="37.45"/>
<text text-anchor="middle" x="314.2" y="-423.64" font-family="Times,serif" font-size="14.00">sigma_beta</text>
<text text-anchor="middle" x="314.2" y="-408.64" font-family="Times,serif" font-size="14.00">~</text>
<text text-anchor="middle" x="314.2" y="-393.64" font-family="Times,serif" font-size="14.00">Exponential</text>
</g>
<!-- beta_c -->
<g id="node7" class="node">
<title>beta_c</title>
<ellipse fill="none" stroke="black" cx="314.2" cy="-301.38" rx="41.94" ry="37.45"/>
<text text-anchor="middle" x="314.2" y="-312.68" font-family="Times,serif" font-size="14.00">beta_c</text>
<text text-anchor="middle" x="314.2" y="-297.68" font-family="Times,serif" font-size="14.00">~</text>
<text text-anchor="middle" x="314.2" y="-282.68" font-family="Times,serif" font-size="14.00">Normal</text>
</g>
<!-- sigma_beta&#45;&gt;beta_c -->
<g id="edge4" class="edge">
<title>sigma_beta&#45;&gt;beta_c</title>
<path fill="none" stroke="black" d="M314.2,-374.75C314.2,-366.58 314.2,-357.8 314.2,-349.27"/>
<polygon fill="black" stroke="black" points="317.7,-349.06 314.2,-339.06 310.7,-349.06 317.7,-349.06"/>
</g>
<!-- mu_beta -->
<g id="node4" class="node">
<title>mu_beta</title>
<ellipse fill="none" stroke="black" cx="435.2" cy="-412.34" rx="45.01" ry="37.45"/>
<text text-anchor="middle" x="435.2" y="-423.64" font-family="Times,serif" font-size="14.00">mu_beta</text>
<text text-anchor="middle" x="435.2" y="-408.64" font-family="Times,serif" font-size="14.00">~</text>
<text text-anchor="middle" x="435.2" y="-393.64" font-family="Times,serif" font-size="14.00">Normal</text>
</g>
<!-- mu_beta&#45;&gt;beta_c -->
<g id="edge3" class="edge">
<title>mu_beta&#45;&gt;beta_c</title>
<path fill="none" stroke="black" d="M404.98,-384.12C388.59,-369.37 368.21,-351.01 350.91,-335.44"/>
<polygon fill="black" stroke="black" points="352.98,-332.59 343.21,-328.5 348.3,-337.79 352.98,-332.59"/>
</g>
<!-- sigma -->
<g id="node5" class="node">
<title>sigma</title>
<ellipse fill="none" stroke="black" cx="366.2" cy="-187.43" rx="57.97" ry="37.45"/>
<text text-anchor="middle" x="366.2" y="-198.73" font-family="Times,serif" font-size="14.00">sigma</text>
<text text-anchor="middle" x="366.2" y="-183.73" font-family="Times,serif" font-size="14.00">~</text>
<text text-anchor="middle" x="366.2" y="-168.73" font-family="Times,serif" font-size="14.00">Exponential</text>
</g>
<!-- log_fc -->
<g id="node8" class="node">
<title>log_fc</title>
<ellipse fill="lightgrey" stroke="black" cx="247.2" cy="-76.48" rx="41.94" ry="37.45"/>
<text text-anchor="middle" x="247.2" y="-87.78" font-family="Times,serif" font-size="14.00">log_fc</text>
<text text-anchor="middle" x="247.2" y="-72.78" font-family="Times,serif" font-size="14.00">~</text>
<text text-anchor="middle" x="247.2" y="-57.78" font-family="Times,serif" font-size="14.00">Normal</text>
</g>
<!-- sigma&#45;&gt;log_fc -->
<g id="edge8" class="edge">
<title>sigma&#45;&gt;log_fc</title>
<path fill="none" stroke="black" d="M333.37,-156.37C317.88,-142.19 299.35,-125.22 283.45,-110.66"/>
<polygon fill="black" stroke="black" points="285.62,-107.9 275.88,-103.73 280.89,-113.07 285.62,-107.9"/>
</g>
<!-- mu_gc -->
<g id="node9" class="node">
<title>mu_gc</title>
<polygon fill="none" stroke="black" points="290.7,-213.93 199.7,-213.93 199.7,-160.93 290.7,-160.93 290.7,-213.93"/>
<text text-anchor="middle" x="245.2" y="-198.73" font-family="Times,serif" font-size="14.00">mu_gc</text>
<text text-anchor="middle" x="245.2" y="-183.73" font-family="Times,serif" font-size="14.00">~</text>
<text text-anchor="middle" x="245.2" y="-168.73" font-family="Times,serif" font-size="14.00">Deterministic</text>
</g>
<!-- alpha_g&#45;&gt;mu_gc -->
<g id="edge5" class="edge">
<title>alpha_g&#45;&gt;mu_gc</title>
<path fill="none" stroke="black" d="M197.58,-268C206.1,-253.78 216.1,-237.06 224.73,-222.63"/>
<polygon fill="black" stroke="black" points="227.78,-224.37 229.91,-213.99 221.77,-220.77 227.78,-224.37"/>
</g>
<!-- beta_c&#45;&gt;mu_gc -->
<g id="edge6" class="edge">
<title>beta_c&#45;&gt;mu_gc</title>
<path fill="none" stroke="black" d="M294.43,-268.3C285.66,-254.07 275.32,-237.3 266.39,-222.81"/>
<polygon fill="black" stroke="black" points="269.27,-220.8 261.04,-214.12 263.31,-224.47 269.27,-220.8"/>
</g>
<!-- mu_gc&#45;&gt;log_fc -->
<g id="edge7" class="edge">
<title>mu_gc&#45;&gt;log_fc</title>
<path fill="none" stroke="black" d="M245.67,-160.89C245.87,-149.98 246.11,-136.89 246.34,-124.35"/>
<polygon fill="black" stroke="black" points="249.85,-124.06 246.53,-114 242.85,-123.94 249.85,-124.06"/>
</g>
</g>
</svg>
