<?xml version="1.0" encoding="UTF-8" standalone="no"?>
<!DOCTYPE svg PUBLIC "-//W3C//DTD SVG 1.1//EN"
 "http://www.w3.org/Graphics/SVG/1.1/DTD/svg11.dtd">
<!-- Generated by graphviz version 2.47.0 (20210327.0129)
 -->
<!-- Pages: 1 -->
<svg width="1209pt" height="688pt"
 viewBox="0.00 0.00 1208.59 687.77" xmlns="http://www.w3.org/2000/svg" xmlns:xlink="http://www.w3.org/1999/xlink">
<g id="graph0" class="graph" transform="scale(1 1) rotate(0) translate(4 683.77)">
<polygon fill="white" stroke="transparent" points="-4,4 -4,-683.77 1204.59,-683.77 1204.59,4 -4,4"/>
<g id="clust1" class="cluster">
<title>cluster1 x 10</title>
<path fill="none" stroke="black" d="M610.3,-446.86C610.3,-446.86 740.3,-446.86 740.3,-446.86 746.3,-446.86 752.3,-452.86 752.3,-458.86 752.3,-458.86 752.3,-548.81 752.3,-548.81 752.3,-554.81 746.3,-560.81 740.3,-560.81 740.3,-560.81 610.3,-560.81 610.3,-560.81 604.3,-560.81 598.3,-554.81 598.3,-548.81 598.3,-548.81 598.3,-458.86 598.3,-458.86 598.3,-452.86 604.3,-446.86 610.3,-446.86"/>
<text text-anchor="middle" x="721.8" y="-454.66" font-family="Times-Roman" font-size="14.00">1 x 10</text>
</g>
<g id="clust2" class="cluster">
<title>cluster192 x 1</title>
<path fill="none" stroke="black" d="M296.3,-324.91C296.3,-324.91 426.3,-324.91 426.3,-324.91 432.3,-324.91 438.3,-330.91 438.3,-336.91 438.3,-336.91 438.3,-426.86 438.3,-426.86 438.3,-432.86 432.3,-438.86 426.3,-438.86 426.3,-438.86 296.3,-438.86 296.3,-438.86 290.3,-438.86 284.3,-432.86 284.3,-426.86 284.3,-426.86 284.3,-336.91 284.3,-336.91 284.3,-330.91 290.3,-324.91 296.3,-324.91"/>
<text text-anchor="middle" x="403.3" y="-332.71" font-family="Times-Roman" font-size="14.00">192 x 1</text>
</g>
<g id="clust3" class="cluster">
<title>cluster64 x 1</title>
<path fill="none" stroke="black" d="M772.3,-457.84C772.3,-457.84 916.3,-457.84 916.3,-457.84 922.3,-457.84 928.3,-463.84 928.3,-469.84 928.3,-469.84 928.3,-659.77 928.3,-659.77 928.3,-665.77 922.3,-671.77 916.3,-671.77 916.3,-671.77 772.3,-671.77 772.3,-671.77 766.3,-671.77 760.3,-665.77 760.3,-659.77 760.3,-659.77 760.3,-469.84 760.3,-469.84 760.3,-463.84 766.3,-457.84 772.3,-457.84"/>
<text text-anchor="middle" x="897.8" y="-465.64" font-family="Times-Roman" font-size="14.00">64 x 1</text>
</g>
<g id="clust4" class="cluster">
<title>cluster64 x 10</title>
<path fill="none" stroke="black" d="M458.3,-335.88C458.3,-335.88 578.3,-335.88 578.3,-335.88 584.3,-335.88 590.3,-341.88 590.3,-347.88 590.3,-347.88 590.3,-548.81 590.3,-548.81 590.3,-554.81 584.3,-560.81 578.3,-560.81 578.3,-560.81 458.3,-560.81 458.3,-560.81 452.3,-560.81 446.3,-554.81 446.3,-548.81 446.3,-548.81 446.3,-347.88 446.3,-347.88 446.3,-341.88 452.3,-335.88 458.3,-335.88"/>
<text text-anchor="middle" x="555.3" y="-343.68" font-family="Times-Roman" font-size="14.00">64 x 10</text>
</g>
<g id="clust5" class="cluster">
<title>cluster192 x 10</title>
<path fill="none" stroke="black" d="M160.3,-232.91C160.3,-232.91 264.3,-232.91 264.3,-232.91 270.3,-232.91 276.3,-238.91 276.3,-244.91 276.3,-244.91 276.3,-426.86 276.3,-426.86 276.3,-432.86 270.3,-438.86 264.3,-438.86 264.3,-438.86 160.3,-438.86 160.3,-438.86 154.3,-438.86 148.3,-432.86 148.3,-426.86 148.3,-426.86 148.3,-244.91 148.3,-244.91 148.3,-238.91 154.3,-232.91 160.3,-232.91"/>
<text text-anchor="middle" x="236.8" y="-240.71" font-family="Times-Roman" font-size="14.00">192 x 10</text>
</g>
<g id="clust6" class="cluster">
<title>cluster1,443</title>
<path fill="none" stroke="black" d="M160.3,-8C160.3,-8 264.3,-8 264.3,-8 270.3,-8 276.3,-14 276.3,-20 276.3,-20 276.3,-209.93 276.3,-209.93 276.3,-215.93 270.3,-221.93 264.3,-221.93 264.3,-221.93 160.3,-221.93 160.3,-221.93 154.3,-221.93 148.3,-215.93 148.3,-209.93 148.3,-209.93 148.3,-20 148.3,-20 148.3,-14 154.3,-8 160.3,-8"/>
<text text-anchor="middle" x="247.8" y="-15.8" font-family="Times-Roman" font-size="14.00">1,443</text>
</g>
<!-- σ -->
<g id="node1" class="node">
<title>σ</title>
<ellipse fill="none" stroke="black" cx="69.3" cy="-187.43" rx="69.09" ry="37.45"/>
<text text-anchor="middle" x="69.3" y="-198.73" font-family="Times-Roman" font-size="14.00">σ</text>
<text text-anchor="middle" x="69.3" y="-183.73" font-family="Times-Roman" font-size="14.00">~</text>
<text text-anchor="middle" x="69.3" y="-168.73" font-family="Times-Roman" font-size="14.00">HalfNormal</text>
</g>
<!-- lfc -->
<g id="node14" class="node">
<title>lfc</title>
<ellipse fill="lightgrey" stroke="black" cx="208.3" cy="-76.48" rx="48.58" ry="37.45"/>
<text text-anchor="middle" x="208.3" y="-87.78" font-family="Times-Roman" font-size="14.00">lfc</text>
<text text-anchor="middle" x="208.3" y="-72.78" font-family="Times-Roman" font-size="14.00">~</text>
<text text-anchor="middle" x="208.3" y="-57.78" font-family="Times-Roman" font-size="14.00">Normal</text>
</g>
<!-- σ&#45;&gt;lfc -->
<g id="edge13" class="edge">
<title>σ&#45;&gt;lfc</title>
<path fill="none" stroke="black" d="M108.02,-156.08C126.21,-141.82 147.93,-124.79 166.5,-110.24"/>
<polygon fill="black" stroke="black" points="168.8,-112.88 174.51,-103.96 164.48,-107.37 168.8,-112.88"/>
</g>
<!-- σ_σ_a -->
<g id="node2" class="node">
<title>σ_σ_a</title>
<ellipse fill="none" stroke="black" cx="361.3" cy="-515.34" rx="69.09" ry="37.45"/>
<text text-anchor="middle" x="361.3" y="-526.64" font-family="Times-Roman" font-size="14.00">σ_σ_a</text>
<text text-anchor="middle" x="361.3" y="-511.64" font-family="Times-Roman" font-size="14.00">~</text>
<text text-anchor="middle" x="361.3" y="-496.64" font-family="Times-Roman" font-size="14.00">HalfNormal</text>
</g>
<!-- σ_a -->
<g id="node7" class="node">
<title>σ_a</title>
<ellipse fill="none" stroke="black" cx="361.3" cy="-393.38" rx="69.09" ry="37.45"/>
<text text-anchor="middle" x="361.3" y="-404.68" font-family="Times-Roman" font-size="14.00">σ_a</text>
<text text-anchor="middle" x="361.3" y="-389.68" font-family="Times-Roman" font-size="14.00">~</text>
<text text-anchor="middle" x="361.3" y="-374.68" font-family="Times-Roman" font-size="14.00">HalfNormal</text>
</g>
<!-- σ_σ_a&#45;&gt;σ_a -->
<g id="edge2" class="edge">
<title>σ_σ_a&#45;&gt;σ_a</title>
<path fill="none" stroke="black" d="M361.3,-477.69C361.3,-466.29 361.3,-453.55 361.3,-441.54"/>
<polygon fill="black" stroke="black" points="364.8,-441.21 361.3,-431.21 357.8,-441.21 364.8,-441.21"/>
</g>
<!-- σ_σ_μ_a -->
<g id="node3" class="node">
<title>σ_σ_μ_a</title>
<ellipse fill="none" stroke="black" cx="675.3" cy="-626.29" rx="69.09" ry="37.45"/>
<text text-anchor="middle" x="675.3" y="-637.59" font-family="Times-Roman" font-size="14.00">σ_σ_μ_a</text>
<text text-anchor="middle" x="675.3" y="-622.59" font-family="Times-Roman" font-size="14.00">~</text>
<text text-anchor="middle" x="675.3" y="-607.59" font-family="Times-Roman" font-size="14.00">HalfNormal</text>
</g>
<!-- σ_μ_a -->
<g id="node6" class="node">
<title>σ_μ_a</title>
<ellipse fill="none" stroke="black" cx="675.3" cy="-515.34" rx="69.09" ry="37.45"/>
<text text-anchor="middle" x="675.3" y="-526.64" font-family="Times-Roman" font-size="14.00">σ_μ_a</text>
<text text-anchor="middle" x="675.3" y="-511.64" font-family="Times-Roman" font-size="14.00">~</text>
<text text-anchor="middle" x="675.3" y="-496.64" font-family="Times-Roman" font-size="14.00">HalfNormal</text>
</g>
<!-- σ_σ_μ_a&#45;&gt;σ_μ_a -->
<g id="edge1" class="edge">
<title>σ_σ_μ_a&#45;&gt;σ_μ_a</title>
<path fill="none" stroke="black" d="M675.3,-588.71C675.3,-580.53 675.3,-571.75 675.3,-563.23"/>
<polygon fill="black" stroke="black" points="678.8,-563.01 675.3,-553.01 671.8,-563.01 678.8,-563.01"/>
</g>
<!-- μ_μ_μ_a -->
<g id="node4" class="node">
<title>μ_μ_μ_a</title>
<ellipse fill="none" stroke="black" cx="991.3" cy="-626.29" rx="53.07" ry="37.45"/>
<text text-anchor="middle" x="991.3" y="-637.59" font-family="Times-Roman" font-size="14.00">μ_μ_μ_a</text>
<text text-anchor="middle" x="991.3" y="-622.59" font-family="Times-Roman" font-size="14.00">~</text>
<text text-anchor="middle" x="991.3" y="-607.59" font-family="Times-Roman" font-size="14.00">Normal</text>
</g>
<!-- μ_μ_a -->
<g id="node8" class="node">
<title>μ_μ_a</title>
<polygon fill="none" stroke="black" points="910.3,-541.84 798.3,-541.84 798.3,-488.84 910.3,-488.84 910.3,-541.84"/>
<text text-anchor="middle" x="854.3" y="-526.64" font-family="Times-Roman" font-size="14.00">μ_μ_a</text>
<text text-anchor="middle" x="854.3" y="-511.64" font-family="Times-Roman" font-size="14.00">~</text>
<text text-anchor="middle" x="854.3" y="-496.64" font-family="Times-Roman" font-size="14.00">Deterministic</text>
</g>
<!-- μ_μ_μ_a&#45;&gt;μ_μ_a -->
<g id="edge4" class="edge">
<title>μ_μ_μ_a&#45;&gt;μ_μ_a</title>
<path fill="none" stroke="black" d="M956.73,-597.8C937.78,-582.73 914.19,-563.97 894.43,-548.25"/>
<polygon fill="black" stroke="black" points="896.51,-545.44 886.5,-541.95 892.15,-550.91 896.51,-545.44"/>
</g>
<!-- σ_μ_μ_a -->
<g id="node5" class="node">
<title>σ_μ_μ_a</title>
<ellipse fill="none" stroke="black" cx="1131.3" cy="-626.29" rx="69.09" ry="37.45"/>
<text text-anchor="middle" x="1131.3" y="-637.59" font-family="Times-Roman" font-size="14.00">σ_μ_μ_a</text>
<text text-anchor="middle" x="1131.3" y="-622.59" font-family="Times-Roman" font-size="14.00">~</text>
<text text-anchor="middle" x="1131.3" y="-607.59" font-family="Times-Roman" font-size="14.00">HalfNormal</text>
</g>
<!-- σ_μ_μ_a&#45;&gt;μ_μ_a -->
<g id="edge5" class="edge">
<title>σ_μ_μ_a&#45;&gt;μ_μ_a</title>
<path fill="none" stroke="black" d="M1080.4,-600.7C1071.43,-596.59 1062.13,-592.48 1053.3,-588.81 1009.47,-570.62 959.25,-552.35 920.23,-538.71"/>
<polygon fill="black" stroke="black" points="921.15,-535.32 910.56,-535.34 918.85,-541.93 921.15,-535.32"/>
</g>
<!-- μ_a -->
<g id="node10" class="node">
<title>μ_a</title>
<polygon fill="none" stroke="black" points="578.3,-419.88 466.3,-419.88 466.3,-366.88 578.3,-366.88 578.3,-419.88"/>
<text text-anchor="middle" x="522.3" y="-404.68" font-family="Times-Roman" font-size="14.00">μ_a</text>
<text text-anchor="middle" x="522.3" y="-389.68" font-family="Times-Roman" font-size="14.00">~</text>
<text text-anchor="middle" x="522.3" y="-374.68" font-family="Times-Roman" font-size="14.00">Deterministic</text>
</g>
<!-- σ_μ_a&#45;&gt;μ_a -->
<g id="edge7" class="edge">
<title>σ_μ_a&#45;&gt;μ_a</title>
<path fill="none" stroke="black" d="M639.01,-483.26C625.18,-471.64 609.16,-458.45 594.3,-446.86 585.52,-440.02 575.98,-432.87 566.81,-426.14"/>
<polygon fill="black" stroke="black" points="568.67,-423.16 558.53,-420.09 564.54,-428.81 568.67,-423.16"/>
</g>
<!-- a -->
<g id="node12" class="node">
<title>a</title>
<polygon fill="none" stroke="black" points="268.3,-316.91 156.3,-316.91 156.3,-263.91 268.3,-263.91 268.3,-316.91"/>
<text text-anchor="middle" x="212.3" y="-301.71" font-family="Times-Roman" font-size="14.00">a</text>
<text text-anchor="middle" x="212.3" y="-286.71" font-family="Times-Roman" font-size="14.00">~</text>
<text text-anchor="middle" x="212.3" y="-271.71" font-family="Times-Roman" font-size="14.00">Deterministic</text>
</g>
<!-- σ_a&#45;&gt;a -->
<g id="edge11" class="edge">
<title>σ_a&#45;&gt;a</title>
<path fill="none" stroke="black" d="M326.82,-360.58C312.93,-348.61 296.41,-335.38 280.3,-324.91 278.85,-323.97 277.38,-323.04 275.89,-322.12"/>
<polygon fill="black" stroke="black" points="277.52,-319.02 267.12,-316.98 273.98,-325.06 277.52,-319.02"/>
</g>
<!-- μ_μ_a&#45;&gt;μ_a -->
<g id="edge6" class="edge">
<title>μ_μ_a&#45;&gt;μ_a</title>
<path fill="none" stroke="black" d="M823.47,-488.54C805.03,-474.31 780.53,-457.44 756.3,-446.86 702.33,-423.29 636.57,-409.75 588.52,-402.34"/>
<polygon fill="black" stroke="black" points="588.95,-398.87 578.54,-400.86 587.92,-405.79 588.95,-398.87"/>
</g>
<!-- μ_μ_a_offset -->
<g id="node9" class="node">
<title>μ_μ_a_offset</title>
<ellipse fill="none" stroke="black" cx="844.3" cy="-626.29" rx="75.82" ry="37.45"/>
<text text-anchor="middle" x="844.3" y="-637.59" font-family="Times-Roman" font-size="14.00">μ_μ_a_offset</text>
<text text-anchor="middle" x="844.3" y="-622.59" font-family="Times-Roman" font-size="14.00">~</text>
<text text-anchor="middle" x="844.3" y="-607.59" font-family="Times-Roman" font-size="14.00">Normal</text>
</g>
<!-- μ_μ_a_offset&#45;&gt;μ_μ_a -->
<g id="edge3" class="edge">
<title>μ_μ_a_offset&#45;&gt;μ_μ_a</title>
<path fill="none" stroke="black" d="M847.65,-588.71C848.73,-576.97 849.92,-563.98 851,-552.29"/>
<polygon fill="black" stroke="black" points="854.51,-552.27 851.94,-541.99 847.54,-551.63 854.51,-552.27"/>
</g>
<!-- μ_a&#45;&gt;a -->
<g id="edge9" class="edge">
<title>μ_a&#45;&gt;a</title>
<path fill="none" stroke="black" d="M499.23,-366.81C484.44,-352.11 464,-334.67 442.3,-324.91 390.53,-301.62 326.2,-293.81 278.75,-291.5"/>
<polygon fill="black" stroke="black" points="278.73,-288 268.59,-291.08 278.43,-294.99 278.73,-288"/>
</g>
<!-- μ_a_offset -->
<g id="node11" class="node">
<title>μ_a_offset</title>
<ellipse fill="none" stroke="black" cx="518.3" cy="-515.34" rx="63.78" ry="37.45"/>
<text text-anchor="middle" x="518.3" y="-526.64" font-family="Times-Roman" font-size="14.00">μ_a_offset</text>
<text text-anchor="middle" x="518.3" y="-511.64" font-family="Times-Roman" font-size="14.00">~</text>
<text text-anchor="middle" x="518.3" y="-496.64" font-family="Times-Roman" font-size="14.00">Normal</text>
</g>
<!-- μ_a_offset&#45;&gt;μ_a -->
<g id="edge8" class="edge">
<title>μ_a_offset&#45;&gt;μ_a</title>
<path fill="none" stroke="black" d="M519.52,-477.69C520.02,-462.73 520.59,-445.46 521.09,-430.54"/>
<polygon fill="black" stroke="black" points="524.6,-430.27 521.44,-420.16 517.61,-430.04 524.6,-430.27"/>
</g>
<!-- μ -->
<g id="node15" class="node">
<title>μ</title>
<polygon fill="none" stroke="black" points="268.3,-213.93 156.3,-213.93 156.3,-160.93 268.3,-160.93 268.3,-213.93"/>
<text text-anchor="middle" x="212.3" y="-198.73" font-family="Times-Roman" font-size="14.00">μ</text>
<text text-anchor="middle" x="212.3" y="-183.73" font-family="Times-Roman" font-size="14.00">~</text>
<text text-anchor="middle" x="212.3" y="-168.73" font-family="Times-Roman" font-size="14.00">Deterministic</text>
</g>
<!-- a&#45;&gt;μ -->
<g id="edge12" class="edge">
<title>a&#45;&gt;μ</title>
<path fill="none" stroke="black" d="M212.3,-263.66C212.3,-251.68 212.3,-237.22 212.3,-224.19"/>
<polygon fill="black" stroke="black" points="215.8,-224.12 212.3,-214.12 208.8,-224.12 215.8,-224.12"/>
</g>
<!-- a_offset -->
<g id="node13" class="node">
<title>a_offset</title>
<ellipse fill="none" stroke="black" cx="212.3" cy="-393.38" rx="52.15" ry="37.45"/>
<text text-anchor="middle" x="212.3" y="-404.68" font-family="Times-Roman" font-size="14.00">a_offset</text>
<text text-anchor="middle" x="212.3" y="-389.68" font-family="Times-Roman" font-size="14.00">~</text>
<text text-anchor="middle" x="212.3" y="-374.68" font-family="Times-Roman" font-size="14.00">Normal</text>
</g>
<!-- a_offset&#45;&gt;a -->
<g id="edge10" class="edge">
<title>a_offset&#45;&gt;a</title>
<path fill="none" stroke="black" d="M212.3,-355.64C212.3,-346.38 212.3,-336.46 212.3,-327.24"/>
<polygon fill="black" stroke="black" points="215.8,-327.22 212.3,-317.22 208.8,-327.22 215.8,-327.22"/>
</g>
<!-- μ&#45;&gt;lfc -->
<g id="edge14" class="edge">
<title>μ&#45;&gt;lfc</title>
<path fill="none" stroke="black" d="M211.36,-160.89C210.96,-149.98 210.48,-136.89 210.02,-124.35"/>
<polygon fill="black" stroke="black" points="213.5,-123.87 209.64,-114 206.51,-124.12 213.5,-123.87"/>
</g>
</g>
</svg>
