<?xml version="1.0" encoding="UTF-8" standalone="no"?>
<!DOCTYPE svg PUBLIC "-//W3C//DTD SVG 1.1//EN"
 "http://www.w3.org/Graphics/SVG/1.1/DTD/svg11.dtd">
<!-- Generated by graphviz version 3.0.0 (0)
 -->
<!-- Pages: 1 -->
<svg width="1544pt" height="685pt"
 viewBox="0.00 0.00 1544.10 684.77" xmlns="http://www.w3.org/2000/svg" xmlns:xlink="http://www.w3.org/1999/xlink">
<g id="graph0" class="graph" transform="scale(1 1) rotate(0) translate(4 680.77)">
<polygon fill="white" stroke="transparent" points="-4,4 -4,-680.77 1540.1,-680.77 1540.1,4 -4,4"/>
<g id="clust1" class="cluster">
<title>clustersgrna (338)</title>
<path fill="none" stroke="black" d="M1090.55,-321.91C1090.55,-321.91 1166.55,-321.91 1166.55,-321.91 1172.55,-321.91 1178.55,-327.91 1178.55,-333.91 1178.55,-333.91 1178.55,-423.86 1178.55,-423.86 1178.55,-429.86 1172.55,-435.86 1166.55,-435.86 1166.55,-435.86 1090.55,-435.86 1090.55,-435.86 1084.55,-435.86 1078.55,-429.86 1078.55,-423.86 1078.55,-423.86 1078.55,-333.91 1078.55,-333.91 1078.55,-327.91 1084.55,-321.91 1090.55,-321.91"/>
<text text-anchor="middle" x="1139.05" y="-329.71" font-family="Times,serif" font-size="14.00">sgrna (338)</text>
</g>
<g id="clust2" class="cluster">
<title>clustercell_line (10)</title>
<path fill="none" stroke="black" d="M871.55,-454.84C871.55,-454.84 1064.55,-454.84 1064.55,-454.84 1070.55,-454.84 1076.55,-460.84 1076.55,-466.84 1076.55,-466.84 1076.55,-656.77 1076.55,-656.77 1076.55,-662.77 1070.55,-668.77 1064.55,-668.77 1064.55,-668.77 871.55,-668.77 871.55,-668.77 865.55,-668.77 859.55,-662.77 859.55,-656.77 859.55,-656.77 859.55,-466.84 859.55,-466.84 859.55,-460.84 865.55,-454.84 871.55,-454.84"/>
<text text-anchor="middle" x="1032.05" y="-462.64" font-family="Times,serif" font-size="14.00">cell_line (10)</text>
</g>
<g id="clust6" class="cluster">
<title>cluster1976</title>
<path fill="none" stroke="black" d="M757.55,-8C757.55,-8 960.55,-8 960.55,-8 966.55,-8 972.55,-14 972.55,-20 972.55,-20 972.55,-412.88 972.55,-412.88 972.55,-418.88 966.55,-424.88 960.55,-424.88 960.55,-424.88 757.55,-424.88 757.55,-424.88 751.55,-424.88 745.55,-418.88 745.55,-412.88 745.55,-412.88 745.55,-20 745.55,-20 745.55,-14 751.55,-8 757.55,-8"/>
<text text-anchor="middle" x="950.55" y="-15.8" font-family="Times,serif" font-size="14.00">1976</text>
</g>
<g id="clust3" class="cluster">
<title>clustergene (113) x lineage (2)</title>
<path fill="none" stroke="black" d="M109.55,-454.84C109.55,-454.84 520.55,-454.84 520.55,-454.84 526.55,-454.84 532.55,-460.84 532.55,-466.84 532.55,-466.84 532.55,-656.77 532.55,-656.77 532.55,-662.77 526.55,-668.77 520.55,-668.77 520.55,-668.77 109.55,-668.77 109.55,-668.77 103.55,-668.77 97.55,-662.77 97.55,-656.77 97.55,-656.77 97.55,-466.84 97.55,-466.84 97.55,-460.84 103.55,-454.84 109.55,-454.84"/>
<text text-anchor="middle" x="458.55" y="-462.64" font-family="Times,serif" font-size="14.00">gene (113) x lineage (2)</text>
</g>
<g id="clust5" class="cluster">
<title>clustergene (113) x screen (2)</title>
<path fill="none" stroke="black" d="M1200.55,-321.91C1200.55,-321.91 1319.55,-321.91 1319.55,-321.91 1325.55,-321.91 1331.55,-327.91 1331.55,-333.91 1331.55,-333.91 1331.55,-423.86 1331.55,-423.86 1331.55,-429.86 1325.55,-435.86 1319.55,-435.86 1319.55,-435.86 1200.55,-435.86 1200.55,-435.86 1194.55,-435.86 1188.55,-429.86 1188.55,-423.86 1188.55,-423.86 1188.55,-333.91 1188.55,-333.91 1188.55,-327.91 1194.55,-321.91 1200.55,-321.91"/>
<text text-anchor="middle" x="1260.05" y="-329.71" font-family="Times,serif" font-size="14.00">gene (113) x screen (2)</text>
</g>
<g id="clust4" class="cluster">
<title>clustergene (113) x cancer_gene (5) x lineage (2)</title>
<path fill="none" stroke="black" d="M1096.55,-443.86C1096.55,-443.86 1321.55,-443.86 1321.55,-443.86 1327.55,-443.86 1333.55,-449.86 1333.55,-455.86 1333.55,-455.86 1333.55,-545.81 1333.55,-545.81 1333.55,-551.81 1327.55,-557.81 1321.55,-557.81 1321.55,-557.81 1096.55,-557.81 1096.55,-557.81 1090.55,-557.81 1084.55,-551.81 1084.55,-545.81 1084.55,-545.81 1084.55,-455.86 1084.55,-455.86 1084.55,-449.86 1090.55,-443.86 1096.55,-443.86"/>
<text text-anchor="middle" x="1209.05" y="-451.66" font-family="Times,serif" font-size="14.00">gene (113) x cancer_gene (5) x lineage (2)</text>
</g>
<!-- sigma_h -->
<g id="node1" class="node">
<title>sigma_h</title>
<ellipse fill="none" stroke="black" cx="44.55" cy="-623.29" rx="44.6" ry="37.45"/>
<text text-anchor="middle" x="44.55" y="-634.59" font-family="Times,serif" font-size="14.00">sigma_h</text>
<text text-anchor="middle" x="44.55" y="-619.59" font-family="Times,serif" font-size="14.00">~</text>
<text text-anchor="middle" x="44.55" y="-604.59" font-family="Times,serif" font-size="14.00">Gamma</text>
</g>
<!-- h -->
<g id="node22" class="node">
<title>h</title>
<polygon fill="none" stroke="black" points="197.05,-538.84 106.05,-538.84 106.05,-485.84 197.05,-485.84 197.05,-538.84"/>
<text text-anchor="middle" x="151.55" y="-523.64" font-family="Times,serif" font-size="14.00">h</text>
<text text-anchor="middle" x="151.55" y="-508.64" font-family="Times,serif" font-size="14.00">~</text>
<text text-anchor="middle" x="151.55" y="-493.64" font-family="Times,serif" font-size="14.00">Deterministic</text>
</g>
<!-- sigma_h&#45;&gt;h -->
<g id="edge8" class="edge">
<title>sigma_h&#45;&gt;h</title>
<path fill="none" stroke="black" d="M72.38,-593.95C86.75,-579.32 104.35,-561.39 119.31,-546.16"/>
<polygon fill="black" stroke="black" points="121.9,-548.52 126.41,-538.93 116.91,-543.61 121.9,-548.52"/>
</g>
<!-- sigma_m -->
<g id="node2" class="node">
<title>sigma_m</title>
<ellipse fill="none" stroke="black" cx="588.55" cy="-623.29" rx="48.17" ry="37.45"/>
<text text-anchor="middle" x="588.55" y="-634.59" font-family="Times,serif" font-size="14.00">sigma_m</text>
<text text-anchor="middle" x="588.55" y="-619.59" font-family="Times,serif" font-size="14.00">~</text>
<text text-anchor="middle" x="588.55" y="-604.59" font-family="Times,serif" font-size="14.00">Gamma</text>
</g>
<!-- m -->
<g id="node16" class="node">
<title>m</title>
<polygon fill="none" stroke="black" points="306.05,-538.84 215.05,-538.84 215.05,-485.84 306.05,-485.84 306.05,-538.84"/>
<text text-anchor="middle" x="260.55" y="-523.64" font-family="Times,serif" font-size="14.00">m</text>
<text text-anchor="middle" x="260.55" y="-508.64" font-family="Times,serif" font-size="14.00">~</text>
<text text-anchor="middle" x="260.55" y="-493.64" font-family="Times,serif" font-size="14.00">Deterministic</text>
</g>
<!-- sigma_m&#45;&gt;m -->
<g id="edge12" class="edge">
<title>sigma_m&#45;&gt;m</title>
<path fill="none" stroke="black" d="M555.78,-595.81C549.67,-591.91 543.13,-588.36 536.55,-585.81 444.2,-550.11 406.62,-596.64 315.55,-557.81 308.16,-554.66 300.96,-550.22 294.33,-545.35"/>
<polygon fill="black" stroke="black" points="296.3,-542.45 286.27,-539.02 291.97,-547.95 296.3,-542.45"/>
</g>
<!-- alpha -->
<g id="node3" class="node">
<title>alpha</title>
<ellipse fill="none" stroke="black" cx="1023.55" cy="-187.43" rx="43.27" ry="37.45"/>
<text text-anchor="middle" x="1023.55" y="-198.73" font-family="Times,serif" font-size="14.00">alpha</text>
<text text-anchor="middle" x="1023.55" y="-183.73" font-family="Times,serif" font-size="14.00">~</text>
<text text-anchor="middle" x="1023.55" y="-168.73" font-family="Times,serif" font-size="14.00">Gamma</text>
</g>
<!-- ct_final -->
<g id="node27" class="node">
<title>ct_final</title>
<ellipse fill="lightgrey" stroke="black" cx="882.55" cy="-76.48" rx="63.78" ry="37.45"/>
<text text-anchor="middle" x="882.55" y="-87.78" font-family="Times,serif" font-size="14.00">ct_final</text>
<text text-anchor="middle" x="882.55" y="-72.78" font-family="Times,serif" font-size="14.00">~</text>
<text text-anchor="middle" x="882.55" y="-57.78" font-family="Times,serif" font-size="14.00">NegBinomial</text>
</g>
<!-- alpha&#45;&gt;ct_final -->
<g id="edge30" class="edge">
<title>alpha&#45;&gt;ct_final</title>
<path fill="none" stroke="black" d="M991.96,-161.89C986.81,-157.9 981.53,-153.81 976.55,-149.95 961.01,-137.93 944,-124.81 928.78,-113.08"/>
<polygon fill="black" stroke="black" points="930.59,-110.05 920.53,-106.72 926.31,-115.6 930.59,-110.05"/>
</g>
<!-- sigma_d -->
<g id="node4" class="node">
<title>sigma_d</title>
<ellipse fill="none" stroke="black" cx="699.55" cy="-623.29" rx="44.6" ry="37.45"/>
<text text-anchor="middle" x="699.55" y="-634.59" font-family="Times,serif" font-size="14.00">sigma_d</text>
<text text-anchor="middle" x="699.55" y="-619.59" font-family="Times,serif" font-size="14.00">~</text>
<text text-anchor="middle" x="699.55" y="-604.59" font-family="Times,serif" font-size="14.00">Gamma</text>
</g>
<!-- d -->
<g id="node19" class="node">
<title>d</title>
<polygon fill="none" stroke="black" points="415.05,-538.84 324.05,-538.84 324.05,-485.84 415.05,-485.84 415.05,-538.84"/>
<text text-anchor="middle" x="369.55" y="-523.64" font-family="Times,serif" font-size="14.00">d</text>
<text text-anchor="middle" x="369.55" y="-508.64" font-family="Times,serif" font-size="14.00">~</text>
<text text-anchor="middle" x="369.55" y="-493.64" font-family="Times,serif" font-size="14.00">Deterministic</text>
</g>
<!-- sigma_d&#45;&gt;d -->
<g id="edge5" class="edge">
<title>sigma_d&#45;&gt;d</title>
<path fill="none" stroke="black" d="M667.48,-597.11C660.57,-592.71 653.07,-588.64 645.55,-585.81 552.89,-550.93 515.62,-596.64 424.55,-557.81 417.16,-554.66 409.96,-550.22 403.33,-545.35"/>
<polygon fill="black" stroke="black" points="405.3,-542.45 395.27,-539.02 400.97,-547.95 405.3,-542.45"/>
</g>
<!-- sigma_a -->
<g id="node5" class="node">
<title>sigma_a</title>
<ellipse fill="none" stroke="black" cx="1385.55" cy="-512.34" rx="43.68" ry="37.45"/>
<text text-anchor="middle" x="1385.55" y="-523.64" font-family="Times,serif" font-size="14.00">sigma_a</text>
<text text-anchor="middle" x="1385.55" y="-508.64" font-family="Times,serif" font-size="14.00">~</text>
<text text-anchor="middle" x="1385.55" y="-493.64" font-family="Times,serif" font-size="14.00">Gamma</text>
</g>
<!-- a -->
<g id="node11" class="node">
<title>a</title>
<ellipse fill="none" stroke="black" cx="1128.55" cy="-390.38" rx="41.94" ry="37.45"/>
<text text-anchor="middle" x="1128.55" y="-401.68" font-family="Times,serif" font-size="14.00">a</text>
<text text-anchor="middle" x="1128.55" y="-386.68" font-family="Times,serif" font-size="14.00">~</text>
<text text-anchor="middle" x="1128.55" y="-371.68" font-family="Times,serif" font-size="14.00">Normal</text>
</g>
<!-- sigma_a&#45;&gt;a -->
<g id="edge1" class="edge">
<title>sigma_a&#45;&gt;a</title>
<path fill="none" stroke="black" d="M1369.61,-477.25C1361.83,-464.51 1351.16,-451.34 1337.55,-443.86 1307.71,-427.47 1216.39,-447.91 1184.55,-435.86 1177.52,-433.2 1170.69,-429.32 1164.35,-424.93"/>
<polygon fill="black" stroke="black" points="1166.15,-421.9 1156.04,-418.71 1161.95,-427.51 1166.15,-421.9"/>
</g>
<!-- sigma_k -->
<g id="node6" class="node">
<title>sigma_k</title>
<ellipse fill="none" stroke="black" cx="806.55" cy="-623.29" rx="44.6" ry="37.45"/>
<text text-anchor="middle" x="806.55" y="-634.59" font-family="Times,serif" font-size="14.00">sigma_k</text>
<text text-anchor="middle" x="806.55" y="-619.59" font-family="Times,serif" font-size="14.00">~</text>
<text text-anchor="middle" x="806.55" y="-604.59" font-family="Times,serif" font-size="14.00">Gamma</text>
</g>
<!-- k -->
<g id="node18" class="node">
<title>k</title>
<polygon fill="none" stroke="black" points="524.05,-538.84 433.05,-538.84 433.05,-485.84 524.05,-485.84 524.05,-538.84"/>
<text text-anchor="middle" x="478.55" y="-523.64" font-family="Times,serif" font-size="14.00">k</text>
<text text-anchor="middle" x="478.55" y="-508.64" font-family="Times,serif" font-size="14.00">~</text>
<text text-anchor="middle" x="478.55" y="-493.64" font-family="Times,serif" font-size="14.00">Deterministic</text>
</g>
<!-- sigma_k&#45;&gt;k -->
<g id="edge10" class="edge">
<title>sigma_k&#45;&gt;k</title>
<path fill="none" stroke="black" d="M774.24,-597.48C767.63,-593.16 760.55,-589.03 753.55,-585.81 681.37,-552.69 591.33,-532.58 534.37,-522.2"/>
<polygon fill="black" stroke="black" points="534.94,-518.75 524.48,-520.44 533.71,-525.64 534.94,-518.75"/>
</g>
<!-- z -->
<g id="node7" class="node">
<title>z</title>
<ellipse fill="none" stroke="black" cx="1023.55" cy="-390.38" rx="41.94" ry="37.45"/>
<text text-anchor="middle" x="1023.55" y="-401.68" font-family="Times,serif" font-size="14.00">z</text>
<text text-anchor="middle" x="1023.55" y="-386.68" font-family="Times,serif" font-size="14.00">~</text>
<text text-anchor="middle" x="1023.55" y="-371.68" font-family="Times,serif" font-size="14.00">Normal</text>
</g>
<!-- eta -->
<g id="node28" class="node">
<title>eta</title>
<polygon fill="none" stroke="black" points="961.05,-313.91 870.05,-313.91 870.05,-260.91 961.05,-260.91 961.05,-313.91"/>
<text text-anchor="middle" x="915.55" y="-298.71" font-family="Times,serif" font-size="14.00">eta</text>
<text text-anchor="middle" x="915.55" y="-283.71" font-family="Times,serif" font-size="14.00">~</text>
<text text-anchor="middle" x="915.55" y="-268.71" font-family="Times,serif" font-size="14.00">Deterministic</text>
</g>
<!-- z&#45;&gt;eta -->
<g id="edge22" class="edge">
<title>z&#45;&gt;eta</title>
<path fill="none" stroke="black" d="M1004.97,-356.42C997.23,-344.58 987.48,-331.74 976.55,-321.91 974.36,-319.94 972.03,-318.04 969.62,-316.22"/>
<polygon fill="black" stroke="black" points="971.33,-313.15 961.12,-310.32 967.34,-318.9 971.33,-313.15"/>
</g>
<!-- sigma_b -->
<g id="node8" class="node">
<title>sigma_b</title>
<ellipse fill="none" stroke="black" cx="1129.55" cy="-623.29" rx="44.6" ry="37.45"/>
<text text-anchor="middle" x="1129.55" y="-634.59" font-family="Times,serif" font-size="14.00">sigma_b</text>
<text text-anchor="middle" x="1129.55" y="-619.59" font-family="Times,serif" font-size="14.00">~</text>
<text text-anchor="middle" x="1129.55" y="-604.59" font-family="Times,serif" font-size="14.00">Gamma</text>
</g>
<!-- b -->
<g id="node15" class="node">
<title>b</title>
<polygon fill="none" stroke="black" points="959.05,-538.84 868.05,-538.84 868.05,-485.84 959.05,-485.84 959.05,-538.84"/>
<text text-anchor="middle" x="913.55" y="-523.64" font-family="Times,serif" font-size="14.00">b</text>
<text text-anchor="middle" x="913.55" y="-508.64" font-family="Times,serif" font-size="14.00">~</text>
<text text-anchor="middle" x="913.55" y="-493.64" font-family="Times,serif" font-size="14.00">Deterministic</text>
</g>
<!-- sigma_b&#45;&gt;b -->
<g id="edge3" class="edge">
<title>sigma_b&#45;&gt;b</title>
<path fill="none" stroke="black" d="M1098.29,-596.23C1092.62,-592.34 1086.59,-588.67 1080.55,-585.81 1034.18,-563.84 1014.47,-580.71 968.55,-557.81 961.75,-554.42 955.02,-550.07 948.73,-545.43"/>
<polygon fill="black" stroke="black" points="950.49,-542.36 940.46,-538.97 946.19,-547.88 950.49,-542.36"/>
</g>
<!-- sigma_f -->
<g id="node9" class="node">
<title>sigma_f</title>
<ellipse fill="none" stroke="black" cx="1235.55" cy="-623.29" rx="43.27" ry="37.45"/>
<text text-anchor="middle" x="1235.55" y="-634.59" font-family="Times,serif" font-size="14.00">sigma_f</text>
<text text-anchor="middle" x="1235.55" y="-619.59" font-family="Times,serif" font-size="14.00">~</text>
<text text-anchor="middle" x="1235.55" y="-604.59" font-family="Times,serif" font-size="14.00">Gamma</text>
</g>
<!-- f -->
<g id="node13" class="node">
<title>f</title>
<polygon fill="none" stroke="black" points="1068.05,-538.84 977.05,-538.84 977.05,-485.84 1068.05,-485.84 1068.05,-538.84"/>
<text text-anchor="middle" x="1022.55" y="-523.64" font-family="Times,serif" font-size="14.00">f</text>
<text text-anchor="middle" x="1022.55" y="-508.64" font-family="Times,serif" font-size="14.00">~</text>
<text text-anchor="middle" x="1022.55" y="-493.64" font-family="Times,serif" font-size="14.00">Deterministic</text>
</g>
<!-- sigma_f&#45;&gt;f -->
<g id="edge6" class="edge">
<title>sigma_f&#45;&gt;f</title>
<path fill="none" stroke="black" d="M1203.87,-597.51C1197.39,-593.18 1190.44,-589.04 1183.55,-585.81 1140.6,-565.67 1123.06,-578.87 1080.55,-557.81 1073.43,-554.29 1066.33,-549.83 1059.66,-545.1"/>
<polygon fill="black" stroke="black" points="1061.59,-542.18 1051.47,-539.03 1057.41,-547.8 1061.59,-542.18"/>
</g>
<!-- sigma_p -->
<g id="node10" class="node">
<title>sigma_p</title>
<ellipse fill="none" stroke="black" cx="1491.55" cy="-512.34" rx="44.6" ry="37.45"/>
<text text-anchor="middle" x="1491.55" y="-523.64" font-family="Times,serif" font-size="14.00">sigma_p</text>
<text text-anchor="middle" x="1491.55" y="-508.64" font-family="Times,serif" font-size="14.00">~</text>
<text text-anchor="middle" x="1491.55" y="-493.64" font-family="Times,serif" font-size="14.00">Gamma</text>
</g>
<!-- p -->
<g id="node25" class="node">
<title>p</title>
<ellipse fill="none" stroke="black" cx="1259.55" cy="-390.38" rx="41.94" ry="37.45"/>
<text text-anchor="middle" x="1259.55" y="-401.68" font-family="Times,serif" font-size="14.00">p</text>
<text text-anchor="middle" x="1259.55" y="-386.68" font-family="Times,serif" font-size="14.00">~</text>
<text text-anchor="middle" x="1259.55" y="-371.68" font-family="Times,serif" font-size="14.00">Normal</text>
</g>
<!-- sigma_p&#45;&gt;p -->
<g id="edge14" class="edge">
<title>sigma_p&#45;&gt;p</title>
<path fill="none" stroke="black" d="M1472,-478.45C1463.17,-466.05 1451.75,-452.79 1438.55,-443.86 1400.31,-417.97 1349.13,-404.64 1311.29,-397.91"/>
<polygon fill="black" stroke="black" points="1311.44,-394.39 1301,-396.19 1310.28,-401.29 1311.44,-394.39"/>
</g>
<!-- a&#45;&gt;eta -->
<g id="edge26" class="edge">
<title>a&#45;&gt;eta</title>
<path fill="none" stroke="black" d="M1109.36,-356.67C1100.33,-343.98 1088.48,-330.48 1074.55,-321.91 1043.55,-302.83 1003.4,-294.47 971.21,-290.87"/>
<polygon fill="black" stroke="black" points="971.35,-287.37 961.06,-289.87 970.66,-294.34 971.35,-287.37"/>
</g>
<!-- delta_b -->
<g id="node12" class="node">
<title>delta_b</title>
<ellipse fill="none" stroke="black" cx="913.55" cy="-623.29" rx="41.94" ry="37.45"/>
<text text-anchor="middle" x="913.55" y="-634.59" font-family="Times,serif" font-size="14.00">delta_b</text>
<text text-anchor="middle" x="913.55" y="-619.59" font-family="Times,serif" font-size="14.00">~</text>
<text text-anchor="middle" x="913.55" y="-604.59" font-family="Times,serif" font-size="14.00">Normal</text>
</g>
<!-- delta_b&#45;&gt;b -->
<g id="edge2" class="edge">
<title>delta_b&#45;&gt;b</title>
<path fill="none" stroke="black" d="M913.55,-585.71C913.55,-573.97 913.55,-560.98 913.55,-549.29"/>
<polygon fill="black" stroke="black" points="917.05,-548.99 913.55,-538.99 910.05,-548.99 917.05,-548.99"/>
</g>
<!-- cell_line_effect -->
<g id="node30" class="node">
<title>cell_line_effect</title>
<polygon fill="none" stroke="black" points="964.05,-416.88 863.05,-416.88 863.05,-363.88 964.05,-363.88 964.05,-416.88"/>
<text text-anchor="middle" x="913.55" y="-401.68" font-family="Times,serif" font-size="14.00">cell_line_effect</text>
<text text-anchor="middle" x="913.55" y="-386.68" font-family="Times,serif" font-size="14.00">~</text>
<text text-anchor="middle" x="913.55" y="-371.68" font-family="Times,serif" font-size="14.00">Deterministic</text>
</g>
<!-- f&#45;&gt;cell_line_effect -->
<g id="edge20" class="edge">
<title>f&#45;&gt;cell_line_effect</title>
<path fill="none" stroke="black" d="M1003.32,-485.68C993.34,-472.79 980.71,-457.13 968.55,-443.86 962.59,-437.36 955.99,-430.67 949.49,-424.34"/>
<polygon fill="black" stroke="black" points="951.6,-421.51 941.96,-417.11 946.75,-426.56 951.6,-421.51"/>
</g>
<!-- delta_f -->
<g id="node14" class="node">
<title>delta_f</title>
<ellipse fill="none" stroke="black" cx="1022.55" cy="-623.29" rx="41.94" ry="37.45"/>
<text text-anchor="middle" x="1022.55" y="-634.59" font-family="Times,serif" font-size="14.00">delta_f</text>
<text text-anchor="middle" x="1022.55" y="-619.59" font-family="Times,serif" font-size="14.00">~</text>
<text text-anchor="middle" x="1022.55" y="-604.59" font-family="Times,serif" font-size="14.00">Normal</text>
</g>
<!-- delta_f&#45;&gt;f -->
<g id="edge7" class="edge">
<title>delta_f&#45;&gt;f</title>
<path fill="none" stroke="black" d="M1022.55,-585.71C1022.55,-573.97 1022.55,-560.98 1022.55,-549.29"/>
<polygon fill="black" stroke="black" points="1026.05,-548.99 1022.55,-538.99 1019.05,-548.99 1026.05,-548.99"/>
</g>
<!-- b&#45;&gt;cell_line_effect -->
<g id="edge21" class="edge">
<title>b&#45;&gt;cell_line_effect</title>
<path fill="none" stroke="black" d="M913.55,-485.6C913.55,-468.61 913.55,-446.09 913.55,-427.33"/>
<polygon fill="black" stroke="black" points="917.05,-427.07 913.55,-417.07 910.05,-427.07 917.05,-427.07"/>
</g>
<!-- gene_effect -->
<g id="node29" class="node">
<title>gene_effect</title>
<polygon fill="none" stroke="black" points="845.05,-416.88 754.05,-416.88 754.05,-363.88 845.05,-363.88 845.05,-416.88"/>
<text text-anchor="middle" x="799.55" y="-401.68" font-family="Times,serif" font-size="14.00">gene_effect</text>
<text text-anchor="middle" x="799.55" y="-386.68" font-family="Times,serif" font-size="14.00">~</text>
<text text-anchor="middle" x="799.55" y="-371.68" font-family="Times,serif" font-size="14.00">Deterministic</text>
</g>
<!-- m&#45;&gt;gene_effect -->
<g id="edge17" class="edge">
<title>m&#45;&gt;gene_effect</title>
<path fill="none" stroke="black" d="M274.64,-485.54C284.15,-470.76 298.15,-453.31 315.55,-443.86 388.22,-404.4 632.6,-394.6 743.71,-392.18"/>
<polygon fill="black" stroke="black" points="744.11,-395.67 754.04,-391.97 743.97,-388.67 744.11,-395.67"/>
</g>
<!-- delta_m -->
<g id="node17" class="node">
<title>delta_m</title>
<ellipse fill="none" stroke="black" cx="260.55" cy="-623.29" rx="43.27" ry="37.45"/>
<text text-anchor="middle" x="260.55" y="-634.59" font-family="Times,serif" font-size="14.00">delta_m</text>
<text text-anchor="middle" x="260.55" y="-619.59" font-family="Times,serif" font-size="14.00">~</text>
<text text-anchor="middle" x="260.55" y="-604.59" font-family="Times,serif" font-size="14.00">Normal</text>
</g>
<!-- delta_m&#45;&gt;m -->
<g id="edge13" class="edge">
<title>delta_m&#45;&gt;m</title>
<path fill="none" stroke="black" d="M260.55,-585.71C260.55,-573.97 260.55,-560.98 260.55,-549.29"/>
<polygon fill="black" stroke="black" points="264.05,-548.99 260.55,-538.99 257.05,-548.99 264.05,-548.99"/>
</g>
<!-- k&#45;&gt;gene_effect -->
<g id="edge15" class="edge">
<title>k&#45;&gt;gene_effect</title>
<path fill="none" stroke="black" d="M524.2,-494.28C582.11,-472.64 681.93,-435.34 744.14,-412.09"/>
<polygon fill="black" stroke="black" points="745.65,-415.26 753.8,-408.48 743.2,-408.7 745.65,-415.26"/>
</g>
<!-- d&#45;&gt;gene_effect -->
<g id="edge19" class="edge">
<title>d&#45;&gt;gene_effect</title>
<path fill="none" stroke="black" d="M383.74,-485.73C393.3,-471.02 407.3,-453.58 424.55,-443.86 478.04,-413.73 653.14,-399.63 743.89,-394.21"/>
<polygon fill="black" stroke="black" points="744.21,-397.7 753.99,-393.62 743.8,-390.71 744.21,-397.7"/>
</g>
<!-- delta_k -->
<g id="node20" class="node">
<title>delta_k</title>
<ellipse fill="none" stroke="black" cx="478.55" cy="-623.29" rx="41.94" ry="37.45"/>
<text text-anchor="middle" x="478.55" y="-634.59" font-family="Times,serif" font-size="14.00">delta_k</text>
<text text-anchor="middle" x="478.55" y="-619.59" font-family="Times,serif" font-size="14.00">~</text>
<text text-anchor="middle" x="478.55" y="-604.59" font-family="Times,serif" font-size="14.00">Normal</text>
</g>
<!-- delta_k&#45;&gt;k -->
<g id="edge11" class="edge">
<title>delta_k&#45;&gt;k</title>
<path fill="none" stroke="black" d="M478.55,-585.71C478.55,-573.97 478.55,-560.98 478.55,-549.29"/>
<polygon fill="black" stroke="black" points="482.05,-548.99 478.55,-538.99 475.05,-548.99 482.05,-548.99"/>
</g>
<!-- delta_d -->
<g id="node21" class="node">
<title>delta_d</title>
<ellipse fill="none" stroke="black" cx="369.55" cy="-623.29" rx="41.94" ry="37.45"/>
<text text-anchor="middle" x="369.55" y="-634.59" font-family="Times,serif" font-size="14.00">delta_d</text>
<text text-anchor="middle" x="369.55" y="-619.59" font-family="Times,serif" font-size="14.00">~</text>
<text text-anchor="middle" x="369.55" y="-604.59" font-family="Times,serif" font-size="14.00">Normal</text>
</g>
<!-- delta_d&#45;&gt;d -->
<g id="edge4" class="edge">
<title>delta_d&#45;&gt;d</title>
<path fill="none" stroke="black" d="M369.55,-585.71C369.55,-573.97 369.55,-560.98 369.55,-549.29"/>
<polygon fill="black" stroke="black" points="373.05,-548.99 369.55,-538.99 366.05,-548.99 373.05,-548.99"/>
</g>
<!-- h&#45;&gt;gene_effect -->
<g id="edge18" class="edge">
<title>h&#45;&gt;gene_effect</title>
<path fill="none" stroke="black" d="M165.35,-485.76C174.85,-470.85 188.92,-453.21 206.55,-443.86 298.78,-394.95 614.76,-390.55 743.89,-390.88"/>
<polygon fill="black" stroke="black" points="743.95,-394.38 753.96,-390.91 743.97,-387.38 743.95,-394.38"/>
</g>
<!-- delta_h -->
<g id="node23" class="node">
<title>delta_h</title>
<ellipse fill="none" stroke="black" cx="151.55" cy="-623.29" rx="41.94" ry="37.45"/>
<text text-anchor="middle" x="151.55" y="-634.59" font-family="Times,serif" font-size="14.00">delta_h</text>
<text text-anchor="middle" x="151.55" y="-619.59" font-family="Times,serif" font-size="14.00">~</text>
<text text-anchor="middle" x="151.55" y="-604.59" font-family="Times,serif" font-size="14.00">Normal</text>
</g>
<!-- delta_h&#45;&gt;h -->
<g id="edge9" class="edge">
<title>delta_h&#45;&gt;h</title>
<path fill="none" stroke="black" d="M151.55,-585.71C151.55,-573.97 151.55,-560.98 151.55,-549.29"/>
<polygon fill="black" stroke="black" points="155.05,-548.99 151.55,-538.99 148.05,-548.99 155.05,-548.99"/>
</g>
<!-- w -->
<g id="node24" class="node">
<title>w</title>
<ellipse fill="none" stroke="black" cx="1134.55" cy="-512.34" rx="41.94" ry="37.45"/>
<text text-anchor="middle" x="1134.55" y="-523.64" font-family="Times,serif" font-size="14.00">w</text>
<text text-anchor="middle" x="1134.55" y="-508.64" font-family="Times,serif" font-size="14.00">~</text>
<text text-anchor="middle" x="1134.55" y="-493.64" font-family="Times,serif" font-size="14.00">Normal</text>
</g>
<!-- w&#45;&gt;gene_effect -->
<g id="edge16" class="edge">
<title>w&#45;&gt;gene_effect</title>
<path fill="none" stroke="black" d="M1116.52,-478.11C1107.56,-465.02 1095.43,-451.34 1080.55,-443.86 1058.1,-432.58 878.08,-444.66 854.55,-435.86 846.78,-432.96 839.29,-428.49 832.46,-423.49"/>
<polygon fill="black" stroke="black" points="834.22,-420.42 824.2,-416.95 829.87,-425.9 834.22,-420.42"/>
</g>
<!-- p&#45;&gt;eta -->
<g id="edge25" class="edge">
<title>p&#45;&gt;eta</title>
<path fill="none" stroke="black" d="M1234.26,-360.23C1220.44,-346.28 1202.17,-330.72 1182.55,-321.91 1145.99,-305.48 1038.51,-296.03 971.59,-291.58"/>
<polygon fill="black" stroke="black" points="971.42,-288.06 961.21,-290.9 970.96,-295.04 971.42,-288.06"/>
</g>
<!-- mu -->
<g id="node26" class="node">
<title>mu</title>
<polygon fill="none" stroke="black" points="946.05,-213.93 855.05,-213.93 855.05,-160.93 946.05,-160.93 946.05,-213.93"/>
<text text-anchor="middle" x="900.55" y="-198.73" font-family="Times,serif" font-size="14.00">mu</text>
<text text-anchor="middle" x="900.55" y="-183.73" font-family="Times,serif" font-size="14.00">~</text>
<text text-anchor="middle" x="900.55" y="-168.73" font-family="Times,serif" font-size="14.00">Deterministic</text>
</g>
<!-- mu&#45;&gt;ct_final -->
<g id="edge28" class="edge">
<title>mu&#45;&gt;ct_final</title>
<path fill="none" stroke="black" d="M896.33,-160.89C894.51,-149.87 892.32,-136.63 890.23,-123.97"/>
<polygon fill="black" stroke="black" points="893.67,-123.3 888.58,-114 886.76,-124.44 893.67,-123.3"/>
</g>
<!-- ct_final&#45;&gt;ct_final -->
<g id="edge29" class="edge">
<title>ct_final&#45;&gt;ct_final</title>
<path fill="none" stroke="black" d="M935.94,-97.06C951.83,-96.44 964.19,-89.58 964.19,-76.48 964.19,-66.34 956.79,-59.94 946.09,-57.28"/>
<polygon fill="black" stroke="black" points="946.32,-53.78 935.94,-55.9 945.38,-60.71 946.32,-53.78"/>
</g>
<!-- eta&#45;&gt;mu -->
<g id="edge27" class="edge">
<title>eta&#45;&gt;mu</title>
<path fill="none" stroke="black" d="M911.61,-260.66C909.9,-249.53 907.88,-236.3 906.03,-224.23"/>
<polygon fill="black" stroke="black" points="909.44,-223.36 904.46,-214 902.52,-224.41 909.44,-223.36"/>
</g>
<!-- gene_effect&#45;&gt;eta -->
<g id="edge24" class="edge">
<title>gene_effect&#45;&gt;eta</title>
<path fill="none" stroke="black" d="M816.85,-363.63C826.79,-350.11 840.15,-333.9 854.55,-321.91 856.77,-320.06 859.1,-318.26 861.52,-316.53"/>
<polygon fill="black" stroke="black" points="863.6,-319.34 869.95,-310.86 859.7,-313.53 863.6,-319.34"/>
</g>
<!-- cell_line_effect&#45;&gt;eta -->
<g id="edge23" class="edge">
<title>cell_line_effect&#45;&gt;eta</title>
<path fill="none" stroke="black" d="M914.06,-363.64C914.3,-351.65 914.58,-337.19 914.84,-324.17"/>
<polygon fill="black" stroke="black" points="918.34,-324.17 915.04,-314.1 911.34,-324.03 918.34,-324.17"/>
</g>
</g>
</svg>
