<?xml version="1.0" encoding="UTF-8" standalone="no"?>
<!DOCTYPE svg PUBLIC "-//W3C//DTD SVG 1.1//EN"
 "http://www.w3.org/Graphics/SVG/1.1/DTD/svg11.dtd">
<!-- Generated by graphviz version 2.47.0 (20210327.0129)
 -->
<!-- Pages: 1 -->
<svg width="450pt" height="813pt"
 viewBox="0.00 0.00 450.30 812.67" xmlns="http://www.w3.org/2000/svg" xmlns:xlink="http://www.w3.org/1999/xlink">
<g id="graph0" class="graph" transform="scale(1 1) rotate(0) translate(4 808.67)">
<polygon fill="white" stroke="transparent" points="-4,4 -4,-808.67 446.3,-808.67 446.3,4 -4,4"/>
<g id="clust1" class="cluster">
<title>cluster25 x 2</title>
<path fill="none" stroke="black" d="M182,-587.77C182,-587.77 272,-587.77 272,-587.77 278,-587.77 284,-593.77 284,-599.77 284,-599.77 284,-689.72 284,-689.72 284,-695.72 278,-701.72 272,-701.72 272,-701.72 182,-701.72 182,-701.72 176,-701.72 170,-695.72 170,-689.72 170,-689.72 170,-599.77 170,-599.77 170,-593.77 176,-587.77 182,-587.77"/>
<text text-anchor="middle" x="253.5" y="-595.57" font-family="Times-Roman" font-size="14.00">25 x 2</text>
</g>
<g id="clust2" class="cluster">
<title>cluster1 x 12</title>
<path fill="none" stroke="black" d="M20,-587.77C20,-587.77 150,-587.77 150,-587.77 156,-587.77 162,-593.77 162,-599.77 162,-599.77 162,-689.72 162,-689.72 162,-695.72 156,-701.72 150,-701.72 150,-701.72 20,-701.72 20,-701.72 14,-701.72 8,-695.72 8,-689.72 8,-689.72 8,-599.77 8,-599.77 8,-593.77 14,-587.77 20,-587.77"/>
<text text-anchor="middle" x="131.5" y="-595.57" font-family="Times-Roman" font-size="14.00">1 x 12</text>
</g>
<g id="clust3" class="cluster">
<title>cluster25 x 12</title>
<path fill="none" stroke="black" d="M104,-365.84C104,-365.84 208,-365.84 208,-365.84 214,-365.84 220,-371.84 220,-377.84 220,-377.84 220,-567.77 220,-567.77 220,-573.77 214,-579.77 208,-579.77 208,-579.77 104,-579.77 104,-579.77 98,-579.77 92,-573.77 92,-567.77 92,-567.77 92,-377.84 92,-377.84 92,-371.84 98,-365.84 104,-365.84"/>
<text text-anchor="middle" x="185" y="-373.64" font-family="Times-Roman" font-size="14.00">25 x 12</text>
</g>
<g id="clust4" class="cluster">
<title>cluster125 x 1</title>
<path fill="none" stroke="black" d="M240,-354.86C240,-354.86 370,-354.86 370,-354.86 376,-354.86 382,-360.86 382,-366.86 382,-366.86 382,-456.81 382,-456.81 382,-462.81 376,-468.81 370,-468.81 370,-468.81 240,-468.81 240,-468.81 234,-468.81 228,-462.81 228,-456.81 228,-456.81 228,-366.86 228,-366.86 228,-360.86 234,-354.86 240,-354.86"/>
<text text-anchor="middle" x="347" y="-362.66" font-family="Times-Roman" font-size="14.00">125 x 1</text>
</g>
<g id="clust5" class="cluster">
<title>cluster125 x 12</title>
<path fill="none" stroke="black" d="M185,-232.91C185,-232.91 275,-232.91 275,-232.91 281,-232.91 287,-238.91 287,-244.91 287,-244.91 287,-334.86 287,-334.86 287,-340.86 281,-346.86 275,-346.86 275,-346.86 185,-346.86 185,-346.86 179,-346.86 173,-340.86 173,-334.86 173,-334.86 173,-244.91 173,-244.91 173,-238.91 179,-232.91 185,-232.91"/>
<text text-anchor="middle" x="247.5" y="-240.71" font-family="Times-Roman" font-size="14.00">125 x 12</text>
</g>
<g id="clust6" class="cluster">
<title>cluster1,500</title>
<path fill="none" stroke="black" d="M178,-8C178,-8 282,-8 282,-8 288,-8 294,-14 294,-20 294,-20 294,-209.93 294,-209.93 294,-215.93 288,-221.93 282,-221.93 282,-221.93 178,-221.93 178,-221.93 172,-221.93 166,-215.93 166,-209.93 166,-209.93 166,-20 166,-20 166,-14 172,-8 178,-8"/>
<text text-anchor="middle" x="265.5" y="-15.8" font-family="Times-Roman" font-size="14.00">1,500</text>
</g>
<!-- σ_σ_h -->
<g id="node1" class="node">
<title>σ_σ_h</title>
<ellipse fill="none" stroke="black" cx="85" cy="-767.2" rx="69.09" ry="37.45"/>
<text text-anchor="middle" x="85" y="-778.5" font-family="Times-Roman" font-size="14.00">σ_σ_h</text>
<text text-anchor="middle" x="85" y="-763.5" font-family="Times-Roman" font-size="14.00">~</text>
<text text-anchor="middle" x="85" y="-748.5" font-family="Times-Roman" font-size="14.00">HalfNormal</text>
</g>
<!-- σ_h -->
<g id="node7" class="node">
<title>σ_h</title>
<ellipse fill="none" stroke="black" cx="85" cy="-656.24" rx="69.09" ry="37.45"/>
<text text-anchor="middle" x="85" y="-667.54" font-family="Times-Roman" font-size="14.00">σ_h</text>
<text text-anchor="middle" x="85" y="-652.54" font-family="Times-Roman" font-size="14.00">~</text>
<text text-anchor="middle" x="85" y="-637.54" font-family="Times-Roman" font-size="14.00">HalfNormal</text>
</g>
<!-- σ_σ_h&#45;&gt;σ_h -->
<g id="edge3" class="edge">
<title>σ_σ_h&#45;&gt;σ_h</title>
<path fill="none" stroke="black" d="M85,-729.61C85,-721.44 85,-712.66 85,-704.13"/>
<polygon fill="black" stroke="black" points="88.5,-703.92 85,-693.92 81.5,-703.92 88.5,-703.92"/>
</g>
<!-- μ_μ_h -->
<g id="node2" class="node">
<title>μ_μ_h</title>
<ellipse fill="none" stroke="black" cx="224" cy="-767.2" rx="48.58" ry="37.45"/>
<text text-anchor="middle" x="224" y="-778.5" font-family="Times-Roman" font-size="14.00">μ_μ_h</text>
<text text-anchor="middle" x="224" y="-763.5" font-family="Times-Roman" font-size="14.00">~</text>
<text text-anchor="middle" x="224" y="-748.5" font-family="Times-Roman" font-size="14.00">Normal</text>
</g>
<!-- μ_h -->
<g id="node6" class="node">
<title>μ_h</title>
<ellipse fill="none" stroke="black" cx="227" cy="-656.24" rx="48.58" ry="37.45"/>
<text text-anchor="middle" x="227" y="-667.54" font-family="Times-Roman" font-size="14.00">μ_h</text>
<text text-anchor="middle" x="227" y="-652.54" font-family="Times-Roman" font-size="14.00">~</text>
<text text-anchor="middle" x="227" y="-637.54" font-family="Times-Roman" font-size="14.00">Normal</text>
</g>
<!-- μ_μ_h&#45;&gt;μ_h -->
<g id="edge2" class="edge">
<title>μ_μ_h&#45;&gt;μ_h</title>
<path fill="none" stroke="black" d="M225.01,-729.61C225.23,-721.44 225.47,-712.66 225.71,-704.13"/>
<polygon fill="black" stroke="black" points="229.21,-704.01 225.99,-693.92 222.22,-703.81 229.21,-704.01"/>
</g>
<!-- σ_μ_h -->
<g id="node3" class="node">
<title>σ_μ_h</title>
<ellipse fill="none" stroke="black" cx="360" cy="-767.2" rx="69.09" ry="37.45"/>
<text text-anchor="middle" x="360" y="-778.5" font-family="Times-Roman" font-size="14.00">σ_μ_h</text>
<text text-anchor="middle" x="360" y="-763.5" font-family="Times-Roman" font-size="14.00">~</text>
<text text-anchor="middle" x="360" y="-748.5" font-family="Times-Roman" font-size="14.00">HalfNormal</text>
</g>
<!-- σ_μ_h&#45;&gt;μ_h -->
<g id="edge1" class="edge">
<title>σ_μ_h&#45;&gt;μ_h</title>
<path fill="none" stroke="black" d="M322.6,-735.56C305.54,-721.58 285.3,-705.01 267.85,-690.71"/>
<polygon fill="black" stroke="black" points="270,-687.95 260.05,-684.32 265.57,-693.36 270,-687.95"/>
</g>
<!-- σ_σ_a -->
<g id="node4" class="node">
<title>σ_σ_a</title>
<ellipse fill="none" stroke="black" cx="305" cy="-534.29" rx="69.09" ry="37.45"/>
<text text-anchor="middle" x="305" y="-545.59" font-family="Times-Roman" font-size="14.00">σ_σ_a</text>
<text text-anchor="middle" x="305" y="-530.59" font-family="Times-Roman" font-size="14.00">~</text>
<text text-anchor="middle" x="305" y="-515.59" font-family="Times-Roman" font-size="14.00">HalfNormal</text>
</g>
<!-- σ_a -->
<g id="node10" class="node">
<title>σ_a</title>
<ellipse fill="none" stroke="black" cx="305" cy="-423.34" rx="69.09" ry="37.45"/>
<text text-anchor="middle" x="305" y="-434.64" font-family="Times-Roman" font-size="14.00">σ_a</text>
<text text-anchor="middle" x="305" y="-419.64" font-family="Times-Roman" font-size="14.00">~</text>
<text text-anchor="middle" x="305" y="-404.64" font-family="Times-Roman" font-size="14.00">HalfNormal</text>
</g>
<!-- σ_σ_a&#45;&gt;σ_a -->
<g id="edge7" class="edge">
<title>σ_σ_a&#45;&gt;σ_a</title>
<path fill="none" stroke="black" d="M305,-496.71C305,-488.53 305,-479.75 305,-471.23"/>
<polygon fill="black" stroke="black" points="308.5,-471.01 305,-461.01 301.5,-471.01 308.5,-471.01"/>
</g>
<!-- σ -->
<g id="node5" class="node">
<title>σ</title>
<ellipse fill="none" stroke="black" cx="373" cy="-187.43" rx="69.09" ry="37.45"/>
<text text-anchor="middle" x="373" y="-198.73" font-family="Times-Roman" font-size="14.00">σ</text>
<text text-anchor="middle" x="373" y="-183.73" font-family="Times-Roman" font-size="14.00">~</text>
<text text-anchor="middle" x="373" y="-168.73" font-family="Times-Roman" font-size="14.00">HalfNormal</text>
</g>
<!-- lfc -->
<g id="node13" class="node">
<title>lfc</title>
<ellipse fill="lightgrey" stroke="black" cx="233" cy="-76.48" rx="48.58" ry="37.45"/>
<text text-anchor="middle" x="233" y="-87.78" font-family="Times-Roman" font-size="14.00">lfc</text>
<text text-anchor="middle" x="233" y="-72.78" font-family="Times-Roman" font-size="14.00">~</text>
<text text-anchor="middle" x="233" y="-57.78" font-family="Times-Roman" font-size="14.00">Normal</text>
</g>
<!-- σ&#45;&gt;lfc -->
<g id="edge11" class="edge">
<title>σ&#45;&gt;lfc</title>
<path fill="none" stroke="black" d="M334,-156.08C315.68,-141.82 293.8,-124.79 275.1,-110.24"/>
<polygon fill="black" stroke="black" points="277.07,-107.34 267.03,-103.96 272.77,-112.86 277.07,-107.34"/>
</g>
<!-- h -->
<g id="node9" class="node">
<title>h</title>
<ellipse fill="none" stroke="black" cx="156" cy="-534.29" rx="48.58" ry="37.45"/>
<text text-anchor="middle" x="156" y="-545.59" font-family="Times-Roman" font-size="14.00">h</text>
<text text-anchor="middle" x="156" y="-530.59" font-family="Times-Roman" font-size="14.00">~</text>
<text text-anchor="middle" x="156" y="-515.59" font-family="Times-Roman" font-size="14.00">Normal</text>
</g>
<!-- μ_h&#45;&gt;h -->
<g id="edge5" class="edge">
<title>μ_h&#45;&gt;h</title>
<path fill="none" stroke="black" d="M207.22,-621.83C199.14,-608.17 189.68,-592.2 181.12,-577.73"/>
<polygon fill="black" stroke="black" points="184.02,-575.76 175.92,-568.94 178,-579.33 184.02,-575.76"/>
</g>
<!-- σ_h&#45;&gt;h -->
<g id="edge4" class="edge">
<title>σ_h&#45;&gt;h</title>
<path fill="none" stroke="black" d="M105.73,-620.23C113.58,-606.95 122.62,-591.69 130.84,-577.8"/>
<polygon fill="black" stroke="black" points="134.02,-579.3 136.1,-568.91 128,-575.73 134.02,-579.3"/>
</g>
<!-- μ_a -->
<g id="node8" class="node">
<title>μ_a</title>
<polygon fill="none" stroke="black" points="212,-449.84 100,-449.84 100,-396.84 212,-396.84 212,-449.84"/>
<text text-anchor="middle" x="156" y="-434.64" font-family="Times-Roman" font-size="14.00">μ_a</text>
<text text-anchor="middle" x="156" y="-419.64" font-family="Times-Roman" font-size="14.00">~</text>
<text text-anchor="middle" x="156" y="-404.64" font-family="Times-Roman" font-size="14.00">Deterministic</text>
</g>
<!-- a -->
<g id="node11" class="node">
<title>a</title>
<ellipse fill="none" stroke="black" cx="230" cy="-301.38" rx="48.58" ry="37.45"/>
<text text-anchor="middle" x="230" y="-312.68" font-family="Times-Roman" font-size="14.00">a</text>
<text text-anchor="middle" x="230" y="-297.68" font-family="Times-Roman" font-size="14.00">~</text>
<text text-anchor="middle" x="230" y="-282.68" font-family="Times-Roman" font-size="14.00">Normal</text>
</g>
<!-- μ_a&#45;&gt;a -->
<g id="edge8" class="edge">
<title>μ_a&#45;&gt;a</title>
<path fill="none" stroke="black" d="M171.87,-396.6C181.21,-381.48 193.23,-361.99 203.92,-344.66"/>
<polygon fill="black" stroke="black" points="207.1,-346.18 209.37,-335.83 201.14,-342.5 207.1,-346.18"/>
</g>
<!-- h&#45;&gt;μ_a -->
<g id="edge6" class="edge">
<title>h&#45;&gt;μ_a</title>
<path fill="none" stroke="black" d="M156,-496.71C156,-484.97 156,-471.98 156,-460.29"/>
<polygon fill="black" stroke="black" points="159.5,-459.99 156,-449.99 152.5,-459.99 159.5,-459.99"/>
</g>
<!-- σ_a&#45;&gt;a -->
<g id="edge9" class="edge">
<title>σ_a&#45;&gt;a</title>
<path fill="none" stroke="black" d="M283.31,-387.64C274.78,-374 264.92,-358.23 256.01,-343.99"/>
<polygon fill="black" stroke="black" points="258.88,-341.98 250.61,-335.35 252.95,-345.69 258.88,-341.98"/>
</g>
<!-- μ -->
<g id="node12" class="node">
<title>μ</title>
<polygon fill="none" stroke="black" points="286,-213.93 174,-213.93 174,-160.93 286,-160.93 286,-213.93"/>
<text text-anchor="middle" x="230" y="-198.73" font-family="Times-Roman" font-size="14.00">μ</text>
<text text-anchor="middle" x="230" y="-183.73" font-family="Times-Roman" font-size="14.00">~</text>
<text text-anchor="middle" x="230" y="-168.73" font-family="Times-Roman" font-size="14.00">Deterministic</text>
</g>
<!-- a&#45;&gt;μ -->
<g id="edge10" class="edge">
<title>a&#45;&gt;μ</title>
<path fill="none" stroke="black" d="M230,-263.73C230,-251.07 230,-236.92 230,-224.32"/>
<polygon fill="black" stroke="black" points="233.5,-224.18 230,-214.18 226.5,-224.18 233.5,-224.18"/>
</g>
<!-- μ&#45;&gt;lfc -->
<g id="edge12" class="edge">
<title>μ&#45;&gt;lfc</title>
<path fill="none" stroke="black" d="M230.7,-160.89C231,-149.98 231.36,-136.89 231.71,-124.35"/>
<polygon fill="black" stroke="black" points="235.22,-124.09 231.99,-114 228.22,-123.9 235.22,-124.09"/>
</g>
</g>
</svg>
