<?xml version="1.0" encoding="UTF-8" standalone="no"?>
<!DOCTYPE svg PUBLIC "-//W3C//DTD SVG 1.1//EN"
 "http://www.w3.org/Graphics/SVG/1.1/DTD/svg11.dtd">
<!-- Generated by graphviz version 2.47.0 (20210327.0129)
 -->
<!-- Pages: 1 -->
<svg width="585pt" height="829pt"
 viewBox="0.00 0.00 585.30 828.67" xmlns="http://www.w3.org/2000/svg" xmlns:xlink="http://www.w3.org/1999/xlink">
<g id="graph0" class="graph" transform="scale(1 1) rotate(0) translate(4 824.67)">
<polygon fill="white" stroke="transparent" points="-4,4 -4,-824.67 581.3,-824.67 581.3,4 -4,4"/>
<g id="clust1" class="cluster">
<title>cluster25 x 2</title>
<path fill="none" stroke="black" d="M182,-598.74C182,-598.74 302,-598.74 302,-598.74 308,-598.74 314,-604.74 314,-610.74 314,-610.74 314,-800.67 314,-800.67 314,-806.67 308,-812.67 302,-812.67 302,-812.67 182,-812.67 182,-812.67 176,-812.67 170,-806.67 170,-800.67 170,-800.67 170,-610.74 170,-610.74 170,-604.74 176,-598.74 182,-598.74"/>
<text text-anchor="middle" x="283.5" y="-606.54" font-family="Times-Roman" font-size="14.00">25 x 2</text>
</g>
<g id="clust2" class="cluster">
<title>cluster1 x 12</title>
<path fill="none" stroke="black" d="M20,-587.77C20,-587.77 150,-587.77 150,-587.77 156,-587.77 162,-593.77 162,-599.77 162,-599.77 162,-689.72 162,-689.72 162,-695.72 156,-701.72 150,-701.72 150,-701.72 20,-701.72 20,-701.72 14,-701.72 8,-695.72 8,-689.72 8,-689.72 8,-599.77 8,-599.77 8,-593.77 14,-587.77 20,-587.77"/>
<text text-anchor="middle" x="131.5" y="-595.57" font-family="Times-Roman" font-size="14.00">1 x 12</text>
</g>
<g id="clust3" class="cluster">
<title>cluster25 x 12</title>
<path fill="none" stroke="black" d="M34,-365.84C34,-365.84 138,-365.84 138,-365.84 144,-365.84 150,-371.84 150,-377.84 150,-377.84 150,-567.77 150,-567.77 150,-573.77 144,-579.77 138,-579.77 138,-579.77 34,-579.77 34,-579.77 28,-579.77 22,-573.77 22,-567.77 22,-567.77 22,-377.84 22,-377.84 22,-371.84 28,-365.84 34,-365.84"/>
<text text-anchor="middle" x="115" y="-373.64" font-family="Times-Roman" font-size="14.00">25 x 12</text>
</g>
<g id="clust4" class="cluster">
<title>cluster125 x 1</title>
<path fill="none" stroke="black" d="M170,-354.86C170,-354.86 300,-354.86 300,-354.86 306,-354.86 312,-360.86 312,-366.86 312,-366.86 312,-456.81 312,-456.81 312,-462.81 306,-468.81 300,-468.81 300,-468.81 170,-468.81 170,-468.81 164,-468.81 158,-462.81 158,-456.81 158,-456.81 158,-366.86 158,-366.86 158,-360.86 164,-354.86 170,-354.86"/>
<text text-anchor="middle" x="277" y="-362.66" font-family="Times-Roman" font-size="14.00">125 x 1</text>
</g>
<g id="clust5" class="cluster">
<title>cluster125 x 12</title>
<path fill="none" stroke="black" d="M115,-232.91C115,-232.91 205,-232.91 205,-232.91 211,-232.91 217,-238.91 217,-244.91 217,-244.91 217,-334.86 217,-334.86 217,-340.86 211,-346.86 205,-346.86 205,-346.86 115,-346.86 115,-346.86 109,-346.86 103,-340.86 103,-334.86 103,-334.86 103,-244.91 103,-244.91 103,-238.91 109,-232.91 115,-232.91"/>
<text text-anchor="middle" x="177.5" y="-240.71" font-family="Times-Roman" font-size="14.00">125 x 12</text>
</g>
<g id="clust6" class="cluster">
<title>cluster1,500</title>
<path fill="none" stroke="black" d="M108,-8C108,-8 212,-8 212,-8 218,-8 224,-14 224,-20 224,-20 224,-209.93 224,-209.93 224,-215.93 218,-221.93 212,-221.93 212,-221.93 108,-221.93 108,-221.93 102,-221.93 96,-215.93 96,-209.93 96,-209.93 96,-20 96,-20 96,-14 102,-8 108,-8"/>
<text text-anchor="middle" x="195.5" y="-15.8" font-family="Times-Roman" font-size="14.00">1,500</text>
</g>
<!-- σ_σ_h -->
<g id="node1" class="node">
<title>σ_σ_h</title>
<ellipse fill="none" stroke="black" cx="85" cy="-767.2" rx="69.09" ry="37.45"/>
<text text-anchor="middle" x="85" y="-778.5" font-family="Times-Roman" font-size="14.00">σ_σ_h</text>
<text text-anchor="middle" x="85" y="-763.5" font-family="Times-Roman" font-size="14.00">~</text>
<text text-anchor="middle" x="85" y="-748.5" font-family="Times-Roman" font-size="14.00">HalfNormal</text>
</g>
<!-- σ_h -->
<g id="node8" class="node">
<title>σ_h</title>
<ellipse fill="none" stroke="black" cx="85" cy="-656.24" rx="69.09" ry="37.45"/>
<text text-anchor="middle" x="85" y="-667.54" font-family="Times-Roman" font-size="14.00">σ_h</text>
<text text-anchor="middle" x="85" y="-652.54" font-family="Times-Roman" font-size="14.00">~</text>
<text text-anchor="middle" x="85" y="-637.54" font-family="Times-Roman" font-size="14.00">HalfNormal</text>
</g>
<!-- σ_σ_h&#45;&gt;σ_h -->
<g id="edge4" class="edge">
<title>σ_σ_h&#45;&gt;σ_h</title>
<path fill="none" stroke="black" d="M85,-729.61C85,-721.44 85,-712.66 85,-704.13"/>
<polygon fill="black" stroke="black" points="88.5,-703.92 85,-693.92 81.5,-703.92 88.5,-703.92"/>
</g>
<!-- μ_μ_h -->
<g id="node2" class="node">
<title>μ_μ_h</title>
<ellipse fill="none" stroke="black" cx="372" cy="-767.2" rx="48.58" ry="37.45"/>
<text text-anchor="middle" x="372" y="-778.5" font-family="Times-Roman" font-size="14.00">μ_μ_h</text>
<text text-anchor="middle" x="372" y="-763.5" font-family="Times-Roman" font-size="14.00">~</text>
<text text-anchor="middle" x="372" y="-748.5" font-family="Times-Roman" font-size="14.00">Normal</text>
</g>
<!-- μ_h -->
<g id="node7" class="node">
<title>μ_h</title>
<polygon fill="none" stroke="black" points="302,-682.74 190,-682.74 190,-629.74 302,-629.74 302,-682.74"/>
<text text-anchor="middle" x="246" y="-667.54" font-family="Times-Roman" font-size="14.00">μ_h</text>
<text text-anchor="middle" x="246" y="-652.54" font-family="Times-Roman" font-size="14.00">~</text>
<text text-anchor="middle" x="246" y="-637.54" font-family="Times-Roman" font-size="14.00">Deterministic</text>
</g>
<!-- μ_μ_h&#45;&gt;μ_h -->
<g id="edge3" class="edge">
<title>μ_μ_h&#45;&gt;μ_h</title>
<path fill="none" stroke="black" d="M340.2,-738.7C323.01,-723.83 301.66,-705.38 283.64,-689.79"/>
<polygon fill="black" stroke="black" points="285.47,-686.75 275.62,-682.86 280.9,-692.05 285.47,-686.75"/>
</g>
<!-- σ_μ_h -->
<g id="node3" class="node">
<title>σ_μ_h</title>
<ellipse fill="none" stroke="black" cx="508" cy="-767.2" rx="69.09" ry="37.45"/>
<text text-anchor="middle" x="508" y="-778.5" font-family="Times-Roman" font-size="14.00">σ_μ_h</text>
<text text-anchor="middle" x="508" y="-763.5" font-family="Times-Roman" font-size="14.00">~</text>
<text text-anchor="middle" x="508" y="-748.5" font-family="Times-Roman" font-size="14.00">HalfNormal</text>
</g>
<!-- σ_μ_h&#45;&gt;μ_h -->
<g id="edge1" class="edge">
<title>σ_μ_h&#45;&gt;μ_h</title>
<path fill="none" stroke="black" d="M457.02,-741.8C448.06,-737.67 438.79,-733.5 430,-729.72 391.23,-713.04 347.26,-695.66 312.03,-682.11"/>
<polygon fill="black" stroke="black" points="312.92,-678.7 302.33,-678.39 310.42,-685.24 312.92,-678.7"/>
</g>
<!-- σ_σ_a -->
<g id="node4" class="node">
<title>σ_σ_a</title>
<ellipse fill="none" stroke="black" cx="235" cy="-534.29" rx="69.09" ry="37.45"/>
<text text-anchor="middle" x="235" y="-545.59" font-family="Times-Roman" font-size="14.00">σ_σ_a</text>
<text text-anchor="middle" x="235" y="-530.59" font-family="Times-Roman" font-size="14.00">~</text>
<text text-anchor="middle" x="235" y="-515.59" font-family="Times-Roman" font-size="14.00">HalfNormal</text>
</g>
<!-- σ_a -->
<g id="node11" class="node">
<title>σ_a</title>
<ellipse fill="none" stroke="black" cx="235" cy="-423.34" rx="69.09" ry="37.45"/>
<text text-anchor="middle" x="235" y="-434.64" font-family="Times-Roman" font-size="14.00">σ_a</text>
<text text-anchor="middle" x="235" y="-419.64" font-family="Times-Roman" font-size="14.00">~</text>
<text text-anchor="middle" x="235" y="-404.64" font-family="Times-Roman" font-size="14.00">HalfNormal</text>
</g>
<!-- σ_σ_a&#45;&gt;σ_a -->
<g id="edge8" class="edge">
<title>σ_σ_a&#45;&gt;σ_a</title>
<path fill="none" stroke="black" d="M235,-496.71C235,-488.53 235,-479.75 235,-471.23"/>
<polygon fill="black" stroke="black" points="238.5,-471.01 235,-461.01 231.5,-471.01 238.5,-471.01"/>
</g>
<!-- σ -->
<g id="node5" class="node">
<title>σ</title>
<ellipse fill="none" stroke="black" cx="303" cy="-187.43" rx="69.09" ry="37.45"/>
<text text-anchor="middle" x="303" y="-198.73" font-family="Times-Roman" font-size="14.00">σ</text>
<text text-anchor="middle" x="303" y="-183.73" font-family="Times-Roman" font-size="14.00">~</text>
<text text-anchor="middle" x="303" y="-168.73" font-family="Times-Roman" font-size="14.00">HalfNormal</text>
</g>
<!-- lfc -->
<g id="node14" class="node">
<title>lfc</title>
<ellipse fill="lightgrey" stroke="black" cx="163" cy="-76.48" rx="48.58" ry="37.45"/>
<text text-anchor="middle" x="163" y="-87.78" font-family="Times-Roman" font-size="14.00">lfc</text>
<text text-anchor="middle" x="163" y="-72.78" font-family="Times-Roman" font-size="14.00">~</text>
<text text-anchor="middle" x="163" y="-57.78" font-family="Times-Roman" font-size="14.00">Normal</text>
</g>
<!-- σ&#45;&gt;lfc -->
<g id="edge12" class="edge">
<title>σ&#45;&gt;lfc</title>
<path fill="none" stroke="black" d="M264,-156.08C245.68,-141.82 223.8,-124.79 205.1,-110.24"/>
<polygon fill="black" stroke="black" points="207.07,-107.34 197.03,-103.96 202.77,-112.86 207.07,-107.34"/>
</g>
<!-- μ_h_offset -->
<g id="node6" class="node">
<title>μ_h_offset</title>
<ellipse fill="none" stroke="black" cx="242" cy="-767.2" rx="63.78" ry="37.45"/>
<text text-anchor="middle" x="242" y="-778.5" font-family="Times-Roman" font-size="14.00">μ_h_offset</text>
<text text-anchor="middle" x="242" y="-763.5" font-family="Times-Roman" font-size="14.00">~</text>
<text text-anchor="middle" x="242" y="-748.5" font-family="Times-Roman" font-size="14.00">Normal</text>
</g>
<!-- μ_h_offset&#45;&gt;μ_h -->
<g id="edge2" class="edge">
<title>μ_h_offset&#45;&gt;μ_h</title>
<path fill="none" stroke="black" d="M243.34,-729.61C243.77,-717.88 244.25,-704.89 244.68,-693.2"/>
<polygon fill="black" stroke="black" points="248.19,-693.02 245.06,-682.9 241.19,-692.76 248.19,-693.02"/>
</g>
<!-- h -->
<g id="node10" class="node">
<title>h</title>
<ellipse fill="none" stroke="black" cx="86" cy="-534.29" rx="48.58" ry="37.45"/>
<text text-anchor="middle" x="86" y="-545.59" font-family="Times-Roman" font-size="14.00">h</text>
<text text-anchor="middle" x="86" y="-530.59" font-family="Times-Roman" font-size="14.00">~</text>
<text text-anchor="middle" x="86" y="-515.59" font-family="Times-Roman" font-size="14.00">Normal</text>
</g>
<!-- μ_h&#45;&gt;h -->
<g id="edge6" class="edge">
<title>μ_h&#45;&gt;h</title>
<path fill="none" stroke="black" d="M217.43,-629.7C202.46,-616.7 183.63,-600.91 166,-587.77 155.28,-579.78 143.4,-571.62 132.14,-564.2"/>
<polygon fill="black" stroke="black" points="133.96,-561.21 123.68,-558.68 130.14,-567.08 133.96,-561.21"/>
</g>
<!-- σ_h&#45;&gt;h -->
<g id="edge5" class="edge">
<title>σ_h&#45;&gt;h</title>
<path fill="none" stroke="black" d="M85.31,-618.6C85.4,-607.2 85.51,-594.46 85.61,-582.44"/>
<polygon fill="black" stroke="black" points="89.11,-582.15 85.69,-572.12 82.11,-582.09 89.11,-582.15"/>
</g>
<!-- μ_a -->
<g id="node9" class="node">
<title>μ_a</title>
<polygon fill="none" stroke="black" points="142,-449.84 30,-449.84 30,-396.84 142,-396.84 142,-449.84"/>
<text text-anchor="middle" x="86" y="-434.64" font-family="Times-Roman" font-size="14.00">μ_a</text>
<text text-anchor="middle" x="86" y="-419.64" font-family="Times-Roman" font-size="14.00">~</text>
<text text-anchor="middle" x="86" y="-404.64" font-family="Times-Roman" font-size="14.00">Deterministic</text>
</g>
<!-- a -->
<g id="node12" class="node">
<title>a</title>
<ellipse fill="none" stroke="black" cx="160" cy="-301.38" rx="48.58" ry="37.45"/>
<text text-anchor="middle" x="160" y="-312.68" font-family="Times-Roman" font-size="14.00">a</text>
<text text-anchor="middle" x="160" y="-297.68" font-family="Times-Roman" font-size="14.00">~</text>
<text text-anchor="middle" x="160" y="-282.68" font-family="Times-Roman" font-size="14.00">Normal</text>
</g>
<!-- μ_a&#45;&gt;a -->
<g id="edge9" class="edge">
<title>μ_a&#45;&gt;a</title>
<path fill="none" stroke="black" d="M101.87,-396.6C111.21,-381.48 123.23,-361.99 133.92,-344.66"/>
<polygon fill="black" stroke="black" points="137.1,-346.18 139.37,-335.83 131.14,-342.5 137.1,-346.18"/>
</g>
<!-- h&#45;&gt;μ_a -->
<g id="edge7" class="edge">
<title>h&#45;&gt;μ_a</title>
<path fill="none" stroke="black" d="M86,-496.71C86,-484.97 86,-471.98 86,-460.29"/>
<polygon fill="black" stroke="black" points="89.5,-459.99 86,-449.99 82.5,-459.99 89.5,-459.99"/>
</g>
<!-- σ_a&#45;&gt;a -->
<g id="edge10" class="edge">
<title>σ_a&#45;&gt;a</title>
<path fill="none" stroke="black" d="M213.31,-387.64C204.78,-374 194.92,-358.23 186.01,-343.99"/>
<polygon fill="black" stroke="black" points="188.88,-341.98 180.61,-335.35 182.95,-345.69 188.88,-341.98"/>
</g>
<!-- μ -->
<g id="node13" class="node">
<title>μ</title>
<polygon fill="none" stroke="black" points="216,-213.93 104,-213.93 104,-160.93 216,-160.93 216,-213.93"/>
<text text-anchor="middle" x="160" y="-198.73" font-family="Times-Roman" font-size="14.00">μ</text>
<text text-anchor="middle" x="160" y="-183.73" font-family="Times-Roman" font-size="14.00">~</text>
<text text-anchor="middle" x="160" y="-168.73" font-family="Times-Roman" font-size="14.00">Deterministic</text>
</g>
<!-- a&#45;&gt;μ -->
<g id="edge11" class="edge">
<title>a&#45;&gt;μ</title>
<path fill="none" stroke="black" d="M160,-263.73C160,-251.07 160,-236.92 160,-224.32"/>
<polygon fill="black" stroke="black" points="163.5,-224.18 160,-214.18 156.5,-224.18 163.5,-224.18"/>
</g>
<!-- μ&#45;&gt;lfc -->
<g id="edge13" class="edge">
<title>μ&#45;&gt;lfc</title>
<path fill="none" stroke="black" d="M160.7,-160.89C161,-149.98 161.36,-136.89 161.71,-124.35"/>
<polygon fill="black" stroke="black" points="165.22,-124.09 161.99,-114 158.22,-123.9 165.22,-124.09"/>
</g>
</g>
</svg>
