<?xml version="1.0" encoding="UTF-8" standalone="no"?>
<!DOCTYPE svg PUBLIC "-//W3C//DTD SVG 1.1//EN"
 "http://www.w3.org/Graphics/SVG/1.1/DTD/svg11.dtd">
<!-- Generated by graphviz version 2.42.3 (20191010.1750)
 -->
<!-- Title: %3 Pages: 1 -->
<svg width="1477pt" height="772pt"
 viewBox="0.00 0.00 1476.67 771.72" xmlns="http://www.w3.org/2000/svg" xmlns:xlink="http://www.w3.org/1999/xlink">
<g id="graph0" class="graph" transform="scale(1 1) rotate(0) translate(4 767.72)">
<title>%3</title>
<polygon fill="white" stroke="transparent" points="-4,4 -4,-767.72 1472.67,-767.72 1472.67,4 -4,4"/>
<g id="clust1" class="cluster">
<title>cluster103</title>
<path fill="none" stroke="black" d="M960.69,-321.91C960.69,-321.91 1096.69,-321.91 1096.69,-321.91 1102.69,-321.91 1108.69,-327.91 1108.69,-333.91 1108.69,-333.91 1108.69,-637.79 1108.69,-637.79 1108.69,-643.79 1102.69,-649.79 1096.69,-649.79 1096.69,-649.79 960.69,-649.79 960.69,-649.79 954.69,-649.79 948.69,-643.79 948.69,-637.79 948.69,-637.79 948.69,-333.91 948.69,-333.91 948.69,-327.91 954.69,-321.91 960.69,-321.91"/>
<text text-anchor="middle" x="1090.19" y="-329.71" font-family="Times,serif" font-size="14.00">103</text>
</g>
<g id="clust2" class="cluster">
<title>cluster60,049</title>
<path fill="none" stroke="black" d="M137.69,-8C137.69,-8 789.69,-8 789.69,-8 795.69,-8 801.69,-14 801.69,-20 801.69,-20 801.69,-412.88 801.69,-412.88 801.69,-418.88 795.69,-424.88 789.69,-424.88 789.69,-424.88 137.69,-424.88 137.69,-424.88 131.69,-424.88 125.69,-418.88 125.69,-412.88 125.69,-412.88 125.69,-20 125.69,-20 125.69,-14 131.69,-8 137.69,-8"/>
<text text-anchor="middle" x="774.69" y="-15.8" font-family="Times,serif" font-size="14.00">60,049</text>
</g>
<g id="clust3" class="cluster">
<title>cluster26</title>
<path fill="none" stroke="black" d="M650.69,-546.81C650.69,-546.81 928.69,-546.81 928.69,-546.81 934.69,-546.81 940.69,-552.81 940.69,-558.81 940.69,-558.81 940.69,-648.77 940.69,-648.77 940.69,-654.77 934.69,-660.77 928.69,-660.77 928.69,-660.77 650.69,-660.77 650.69,-660.77 644.69,-660.77 638.69,-654.77 638.69,-648.77 638.69,-648.77 638.69,-558.81 638.69,-558.81 638.69,-552.81 644.69,-546.81 650.69,-546.81"/>
<text text-anchor="middle" x="925.69" y="-554.61" font-family="Times,serif" font-size="14.00">26</text>
</g>
<g id="clust4" class="cluster">
<title>cluster26 x 5</title>
<path fill="none" stroke="black" d="M1254.69,-321.91C1254.69,-321.91 1330.69,-321.91 1330.69,-321.91 1336.69,-321.91 1342.69,-327.91 1342.69,-333.91 1342.69,-333.91 1342.69,-423.86 1342.69,-423.86 1342.69,-429.86 1336.69,-435.86 1330.69,-435.86 1330.69,-435.86 1254.69,-435.86 1254.69,-435.86 1248.69,-435.86 1242.69,-429.86 1242.69,-423.86 1242.69,-423.86 1242.69,-333.91 1242.69,-333.91 1242.69,-327.91 1248.69,-321.91 1254.69,-321.91"/>
<text text-anchor="middle" x="1317.19" y="-329.71" font-family="Times,serif" font-size="14.00">26 x 5</text>
</g>
<!-- μ_α_s -->
<g id="node1" class="node">
<title>μ_α_s</title>
<polygon fill="none" stroke="black" points="1049.19,-527.84 958.19,-527.84 958.19,-474.84 1049.19,-474.84 1049.19,-527.84"/>
<text text-anchor="middle" x="1003.69" y="-512.64" font-family="Times,serif" font-size="14.00">μ_α_s</text>
<text text-anchor="middle" x="1003.69" y="-497.64" font-family="Times,serif" font-size="14.00">~</text>
<text text-anchor="middle" x="1003.69" y="-482.64" font-family="Times,serif" font-size="14.00">Deterministic</text>
</g>
<!-- α_s -->
<g id="node2" class="node">
<title>α_s</title>
<ellipse fill="none" stroke="black" cx="1003.69" cy="-390.38" rx="41.94" ry="37.45"/>
<text text-anchor="middle" x="1003.69" y="-401.68" font-family="Times,serif" font-size="14.00">α_s</text>
<text text-anchor="middle" x="1003.69" y="-386.68" font-family="Times,serif" font-size="14.00">~</text>
<text text-anchor="middle" x="1003.69" y="-371.68" font-family="Times,serif" font-size="14.00">Normal</text>
</g>
<!-- μ_α_s&#45;&gt;α_s -->
<g id="edge6" class="edge">
<title>μ_α_s&#45;&gt;α_s</title>
<path fill="none" stroke="black" d="M1003.69,-474.79C1003.69,-463.88 1003.69,-450.79 1003.69,-438.25"/>
<polygon fill="black" stroke="black" points="1007.19,-437.91 1003.69,-427.91 1000.19,-437.91 1007.19,-437.91"/>
</g>
<!-- μ -->
<g id="node9" class="node">
<title>μ</title>
<polygon fill="none" stroke="black" points="713.19,-302.93 622.19,-302.93 622.19,-249.93 713.19,-249.93 713.19,-302.93"/>
<text text-anchor="middle" x="667.69" y="-287.73" font-family="Times,serif" font-size="14.00">μ</text>
<text text-anchor="middle" x="667.69" y="-272.73" font-family="Times,serif" font-size="14.00">~</text>
<text text-anchor="middle" x="667.69" y="-257.73" font-family="Times,serif" font-size="14.00">Deterministic</text>
</g>
<!-- α_s&#45;&gt;μ -->
<g id="edge20" class="edge">
<title>α_s&#45;&gt;μ</title>
<path fill="none" stroke="black" d="M969.52,-368.44C943.94,-353.57 907.66,-334.14 873.69,-321.91 824.24,-304.1 765.42,-292.27 723.32,-285.32"/>
<polygon fill="black" stroke="black" points="723.69,-281.83 713.26,-283.7 722.57,-288.74 723.69,-281.83"/>
</g>
<!-- sgrna_gene_idx_shared -->
<g id="node3" class="node">
<title>sgrna_gene_idx_shared</title>
<path fill="lightgrey" stroke="black" d="M1088.19,-641.79C1088.19,-641.79 969.19,-641.79 969.19,-641.79 963.19,-641.79 957.19,-635.79 957.19,-629.79 957.19,-629.79 957.19,-600.79 957.19,-600.79 957.19,-594.79 963.19,-588.79 969.19,-588.79 969.19,-588.79 1088.19,-588.79 1088.19,-588.79 1094.19,-588.79 1100.19,-594.79 1100.19,-600.79 1100.19,-600.79 1100.19,-629.79 1100.19,-629.79 1100.19,-635.79 1094.19,-641.79 1088.19,-641.79"/>
<text text-anchor="middle" x="1028.69" y="-626.59" font-family="Times,serif" font-size="14.00">sgrna_gene_idx_shared</text>
<text text-anchor="middle" x="1028.69" y="-611.59" font-family="Times,serif" font-size="14.00">~</text>
<text text-anchor="middle" x="1028.69" y="-596.59" font-family="Times,serif" font-size="14.00">Data</text>
</g>
<!-- sgrna_gene_idx_shared&#45;&gt;μ_α_s -->
<g id="edge4" class="edge">
<title>sgrna_gene_idx_shared&#45;&gt;μ_α_s</title>
<path fill="none" stroke="black" d="M1022.95,-588.61C1019.59,-573.53 1015.28,-554.26 1011.6,-537.76"/>
<polygon fill="black" stroke="black" points="1014.99,-536.9 1009.4,-527.9 1008.16,-538.42 1014.99,-536.9"/>
</g>
<!-- scaled_log2_cn_shared -->
<g id="node4" class="node">
<title>scaled_log2_cn_shared</title>
<path fill="lightgrey" stroke="black" d="M265.19,-416.88C265.19,-416.88 146.19,-416.88 146.19,-416.88 140.19,-416.88 134.19,-410.88 134.19,-404.88 134.19,-404.88 134.19,-375.88 134.19,-375.88 134.19,-369.88 140.19,-363.88 146.19,-363.88 146.19,-363.88 265.19,-363.88 265.19,-363.88 271.19,-363.88 277.19,-369.88 277.19,-375.88 277.19,-375.88 277.19,-404.88 277.19,-404.88 277.19,-410.88 271.19,-416.88 265.19,-416.88"/>
<text text-anchor="middle" x="205.69" y="-401.68" font-family="Times,serif" font-size="14.00">scaled_log2_cn_shared</text>
<text text-anchor="middle" x="205.69" y="-386.68" font-family="Times,serif" font-size="14.00">~</text>
<text text-anchor="middle" x="205.69" y="-371.68" font-family="Times,serif" font-size="14.00">Data</text>
</g>
<!-- scaled_log2_cn_shared&#45;&gt;μ -->
<g id="edge14" class="edge">
<title>scaled_log2_cn_shared&#45;&gt;μ</title>
<path fill="none" stroke="black" d="M229.01,-363.59C243.96,-348.81 264.66,-331.36 286.69,-321.91 343.85,-297.38 520.45,-284.96 611.75,-280.05"/>
<polygon fill="black" stroke="black" points="612.12,-283.53 621.92,-279.51 611.75,-276.54 612.12,-283.53"/>
</g>
<!-- lfc_shared -->
<g id="node5" class="node">
<title>lfc_shared</title>
<path fill="lightgrey" stroke="black" d="M412.69,-92C412.69,-92 364.69,-92 364.69,-92 358.69,-92 352.69,-86 352.69,-80 352.69,-80 352.69,-51 352.69,-51 352.69,-45 358.69,-39 364.69,-39 364.69,-39 412.69,-39 412.69,-39 418.69,-39 424.69,-45 424.69,-51 424.69,-51 424.69,-80 424.69,-80 424.69,-86 418.69,-92 412.69,-92"/>
<text text-anchor="middle" x="388.69" y="-76.8" font-family="Times,serif" font-size="14.00">lfc_shared</text>
<text text-anchor="middle" x="388.69" y="-61.8" font-family="Times,serif" font-size="14.00">~</text>
<text text-anchor="middle" x="388.69" y="-46.8" font-family="Times,serif" font-size="14.00">Data</text>
</g>
<!-- is_mutated_shared -->
<g id="node6" class="node">
<title>is_mutated_shared</title>
<path fill="lightgrey" stroke="black" d="M781.19,-416.88C781.19,-416.88 686.19,-416.88 686.19,-416.88 680.19,-416.88 674.19,-410.88 674.19,-404.88 674.19,-404.88 674.19,-375.88 674.19,-375.88 674.19,-369.88 680.19,-363.88 686.19,-363.88 686.19,-363.88 781.19,-363.88 781.19,-363.88 787.19,-363.88 793.19,-369.88 793.19,-375.88 793.19,-375.88 793.19,-404.88 793.19,-404.88 793.19,-410.88 787.19,-416.88 781.19,-416.88"/>
<text text-anchor="middle" x="733.69" y="-401.68" font-family="Times,serif" font-size="14.00">is_mutated_shared</text>
<text text-anchor="middle" x="733.69" y="-386.68" font-family="Times,serif" font-size="14.00">~</text>
<text text-anchor="middle" x="733.69" y="-371.68" font-family="Times,serif" font-size="14.00">Data</text>
</g>
<!-- is_mutated_shared&#45;&gt;μ -->
<g id="edge17" class="edge">
<title>is_mutated_shared&#45;&gt;μ</title>
<path fill="none" stroke="black" d="M718.55,-363.7C709.49,-348.34 697.87,-328.62 688.02,-311.92"/>
<polygon fill="black" stroke="black" points="690.85,-309.83 682.76,-302.99 684.82,-313.39 690.85,-309.83"/>
</g>
<!-- gene_idx_shared -->
<g id="node7" class="node">
<title>gene_idx_shared</title>
<path fill="lightgrey" stroke="black" d="M644.19,-416.88C644.19,-416.88 561.19,-416.88 561.19,-416.88 555.19,-416.88 549.19,-410.88 549.19,-404.88 549.19,-404.88 549.19,-375.88 549.19,-375.88 549.19,-369.88 555.19,-363.88 561.19,-363.88 561.19,-363.88 644.19,-363.88 644.19,-363.88 650.19,-363.88 656.19,-369.88 656.19,-375.88 656.19,-375.88 656.19,-404.88 656.19,-404.88 656.19,-410.88 650.19,-416.88 644.19,-416.88"/>
<text text-anchor="middle" x="602.69" y="-401.68" font-family="Times,serif" font-size="14.00">gene_idx_shared</text>
<text text-anchor="middle" x="602.69" y="-386.68" font-family="Times,serif" font-size="14.00">~</text>
<text text-anchor="middle" x="602.69" y="-371.68" font-family="Times,serif" font-size="14.00">Data</text>
</g>
<!-- gene_idx_shared&#45;&gt;μ -->
<g id="edge18" class="edge">
<title>gene_idx_shared&#45;&gt;μ</title>
<path fill="none" stroke="black" d="M617.6,-363.7C626.52,-348.34 637.97,-328.62 647.67,-311.92"/>
<polygon fill="black" stroke="black" points="650.85,-313.4 652.85,-302.99 644.8,-309.89 650.85,-313.4"/>
</g>
<!-- y -->
<g id="node8" class="node">
<title>y</title>
<ellipse fill="lightgrey" stroke="black" cx="388.69" cy="-165.48" rx="41.94" ry="37.45"/>
<text text-anchor="middle" x="388.69" y="-176.78" font-family="Times,serif" font-size="14.00">y</text>
<text text-anchor="middle" x="388.69" y="-161.78" font-family="Times,serif" font-size="14.00">~</text>
<text text-anchor="middle" x="388.69" y="-146.78" font-family="Times,serif" font-size="14.00">Normal</text>
</g>
<!-- y&#45;&gt;lfc_shared -->
<g id="edge1" class="edge">
<title>y&#45;&gt;lfc_shared</title>
<path fill="none" stroke="black" d="M388.69,-127.99C388.69,-119.58 388.69,-110.63 388.69,-102.25"/>
<polygon fill="black" stroke="black" points="392.19,-102.01 388.69,-92.01 385.19,-102.01 392.19,-102.01"/>
</g>
<!-- μ&#45;&gt;y -->
<g id="edge24" class="edge">
<title>μ&#45;&gt;y</title>
<path fill="none" stroke="black" d="M621.93,-257.56C570.7,-237.56 488.08,-205.29 436.17,-185.02"/>
<polygon fill="black" stroke="black" points="437.43,-181.75 426.84,-181.38 434.89,-188.27 437.43,-181.75"/>
</g>
<!-- sgrna_idx_shared -->
<g id="node10" class="node">
<title>sgrna_idx_shared</title>
<path fill="lightgrey" stroke="black" d="M519.19,-416.88C519.19,-416.88 432.19,-416.88 432.19,-416.88 426.19,-416.88 420.19,-410.88 420.19,-404.88 420.19,-404.88 420.19,-375.88 420.19,-375.88 420.19,-369.88 426.19,-363.88 432.19,-363.88 432.19,-363.88 519.19,-363.88 519.19,-363.88 525.19,-363.88 531.19,-369.88 531.19,-375.88 531.19,-375.88 531.19,-404.88 531.19,-404.88 531.19,-410.88 525.19,-416.88 519.19,-416.88"/>
<text text-anchor="middle" x="475.69" y="-401.68" font-family="Times,serif" font-size="14.00">sgrna_idx_shared</text>
<text text-anchor="middle" x="475.69" y="-386.68" font-family="Times,serif" font-size="14.00">~</text>
<text text-anchor="middle" x="475.69" y="-371.68" font-family="Times,serif" font-size="14.00">Data</text>
</g>
<!-- sgrna_idx_shared&#45;&gt;μ -->
<g id="edge21" class="edge">
<title>sgrna_idx_shared&#45;&gt;μ</title>
<path fill="none" stroke="black" d="M495.33,-363.75C507.17,-349.76 523.3,-333.06 540.69,-321.91 562.45,-307.94 589.14,-297.74 612.42,-290.65"/>
<polygon fill="black" stroke="black" points="613.55,-293.97 622.17,-287.81 611.59,-287.25 613.55,-293.97"/>
</g>
<!-- kras_idx_shared -->
<g id="node11" class="node">
<title>kras_idx_shared</title>
<path fill="lightgrey" stroke="black" d="M389.69,-416.88C389.69,-416.88 307.69,-416.88 307.69,-416.88 301.69,-416.88 295.69,-410.88 295.69,-404.88 295.69,-404.88 295.69,-375.88 295.69,-375.88 295.69,-369.88 301.69,-363.88 307.69,-363.88 307.69,-363.88 389.69,-363.88 389.69,-363.88 395.69,-363.88 401.69,-369.88 401.69,-375.88 401.69,-375.88 401.69,-404.88 401.69,-404.88 401.69,-410.88 395.69,-416.88 389.69,-416.88"/>
<text text-anchor="middle" x="348.69" y="-401.68" font-family="Times,serif" font-size="14.00">kras_idx_shared</text>
<text text-anchor="middle" x="348.69" y="-386.68" font-family="Times,serif" font-size="14.00">~</text>
<text text-anchor="middle" x="348.69" y="-371.68" font-family="Times,serif" font-size="14.00">Data</text>
</g>
<!-- kras_idx_shared&#45;&gt;μ -->
<g id="edge22" class="edge">
<title>kras_idx_shared&#45;&gt;μ</title>
<path fill="none" stroke="black" d="M366.13,-363.64C377.4,-349.07 393.36,-331.82 411.69,-321.91 474.5,-287.93 557.51,-278.97 611.73,-277.07"/>
<polygon fill="black" stroke="black" points="611.95,-280.57 621.84,-276.79 611.75,-273.57 611.95,-280.57"/>
</g>
<!-- σ_γ_g -->
<g id="node12" class="node">
<title>σ_γ_g</title>
<ellipse fill="none" stroke="black" cx="730.69" cy="-726.24" rx="57.97" ry="37.45"/>
<text text-anchor="middle" x="730.69" y="-737.54" font-family="Times,serif" font-size="14.00">σ_γ_g</text>
<text text-anchor="middle" x="730.69" y="-722.54" font-family="Times,serif" font-size="14.00">~</text>
<text text-anchor="middle" x="730.69" y="-707.54" font-family="Times,serif" font-size="14.00">Exponential</text>
</g>
<!-- γ_g -->
<g id="node22" class="node">
<title>γ_g</title>
<ellipse fill="none" stroke="black" cx="789.69" cy="-615.29" rx="41.94" ry="37.45"/>
<text text-anchor="middle" x="789.69" y="-626.59" font-family="Times,serif" font-size="14.00">γ_g</text>
<text text-anchor="middle" x="789.69" y="-611.59" font-family="Times,serif" font-size="14.00">~</text>
<text text-anchor="middle" x="789.69" y="-596.59" font-family="Times,serif" font-size="14.00">Normal</text>
</g>
<!-- σ_γ_g&#45;&gt;γ_g -->
<g id="edge8" class="edge">
<title>σ_γ_g&#45;&gt;γ_g</title>
<path fill="none" stroke="black" d="M749.52,-690.47C755.05,-680.26 761.16,-668.98 766.91,-658.36"/>
<polygon fill="black" stroke="black" points="770.16,-659.71 771.84,-649.25 764,-656.38 770.16,-659.71"/>
</g>
<!-- μ_ϵ_g -->
<g id="node13" class="node">
<title>μ_ϵ_g</title>
<ellipse fill="none" stroke="black" cx="1292.69" cy="-501.34" rx="41.94" ry="37.45"/>
<text text-anchor="middle" x="1292.69" y="-512.64" font-family="Times,serif" font-size="14.00">μ_ϵ_g</text>
<text text-anchor="middle" x="1292.69" y="-497.64" font-family="Times,serif" font-size="14.00">~</text>
<text text-anchor="middle" x="1292.69" y="-482.64" font-family="Times,serif" font-size="14.00">Normal</text>
</g>
<!-- ϵ_gk -->
<g id="node25" class="node">
<title>ϵ_gk</title>
<ellipse fill="none" stroke="black" cx="1292.69" cy="-390.38" rx="41.94" ry="37.45"/>
<text text-anchor="middle" x="1292.69" y="-401.68" font-family="Times,serif" font-size="14.00">ϵ_gk</text>
<text text-anchor="middle" x="1292.69" y="-386.68" font-family="Times,serif" font-size="14.00">~</text>
<text text-anchor="middle" x="1292.69" y="-371.68" font-family="Times,serif" font-size="14.00">Normal</text>
</g>
<!-- μ_ϵ_g&#45;&gt;ϵ_gk -->
<g id="edge12" class="edge">
<title>μ_ϵ_g&#45;&gt;ϵ_gk</title>
<path fill="none" stroke="black" d="M1292.69,-463.75C1292.69,-455.58 1292.69,-446.8 1292.69,-438.27"/>
<polygon fill="black" stroke="black" points="1296.19,-438.06 1292.69,-428.06 1289.19,-438.06 1296.19,-438.06"/>
</g>
<!-- σ_g -->
<g id="node14" class="node">
<title>σ_g</title>
<ellipse fill="none" stroke="black" cx="966.69" cy="-726.24" rx="58.88" ry="37.45"/>
<text text-anchor="middle" x="966.69" y="-737.54" font-family="Times,serif" font-size="14.00">σ_g</text>
<text text-anchor="middle" x="966.69" y="-722.54" font-family="Times,serif" font-size="14.00">~</text>
<text text-anchor="middle" x="966.69" y="-707.54" font-family="Times,serif" font-size="14.00">HalfNormal</text>
</g>
<!-- g_s -->
<g id="node24" class="node">
<title>g_s</title>
<ellipse fill="none" stroke="black" cx="890.69" cy="-615.29" rx="41.94" ry="37.45"/>
<text text-anchor="middle" x="890.69" y="-626.59" font-family="Times,serif" font-size="14.00">g_s</text>
<text text-anchor="middle" x="890.69" y="-611.59" font-family="Times,serif" font-size="14.00">~</text>
<text text-anchor="middle" x="890.69" y="-596.59" font-family="Times,serif" font-size="14.00">Normal</text>
</g>
<!-- σ_g&#45;&gt;g_s -->
<g id="edge2" class="edge">
<title>σ_g&#45;&gt;g_s</title>
<path fill="none" stroke="black" d="M943.27,-691.66C935.34,-680.29 926.41,-667.49 918.19,-655.71"/>
<polygon fill="black" stroke="black" points="920.94,-653.54 912.35,-647.34 915.2,-657.55 920.94,-653.54"/>
</g>
<!-- σ -->
<g id="node15" class="node">
<title>σ</title>
<ellipse fill="none" stroke="black" cx="58.69" cy="-276.43" rx="58.88" ry="37.45"/>
<text text-anchor="middle" x="58.69" y="-287.73" font-family="Times,serif" font-size="14.00">σ</text>
<text text-anchor="middle" x="58.69" y="-272.73" font-family="Times,serif" font-size="14.00">~</text>
<text text-anchor="middle" x="58.69" y="-257.73" font-family="Times,serif" font-size="14.00">HalfNormal</text>
</g>
<!-- σ&#45;&gt;y -->
<g id="edge23" class="edge">
<title>σ&#45;&gt;y</title>
<path fill="none" stroke="black" d="M99.93,-249.53C107.03,-245.66 114.46,-241.97 121.69,-238.95 194.31,-208.68 283.31,-187.48 338,-176.13"/>
<polygon fill="black" stroke="black" points="338.7,-179.56 347.8,-174.12 337.3,-172.7 338.7,-179.56"/>
</g>
<!-- σ_ϵ_g -->
<g id="node16" class="node">
<title>σ_ϵ_g</title>
<ellipse fill="none" stroke="black" cx="1410.69" cy="-501.34" rx="57.97" ry="37.45"/>
<text text-anchor="middle" x="1410.69" y="-512.64" font-family="Times,serif" font-size="14.00">σ_ϵ_g</text>
<text text-anchor="middle" x="1410.69" y="-497.64" font-family="Times,serif" font-size="14.00">~</text>
<text text-anchor="middle" x="1410.69" y="-482.64" font-family="Times,serif" font-size="14.00">Exponential</text>
</g>
<!-- σ_ϵ_g&#45;&gt;ϵ_gk -->
<g id="edge13" class="edge">
<title>σ_ϵ_g&#45;&gt;ϵ_gk</title>
<path fill="none" stroke="black" d="M1378.13,-470.28C1362.89,-456.2 1344.68,-439.39 1328.99,-424.9"/>
<polygon fill="black" stroke="black" points="1331.24,-422.22 1321.52,-418 1326.49,-427.36 1331.24,-422.22"/>
</g>
<!-- μ_g -->
<g id="node17" class="node">
<title>μ_g</title>
<ellipse fill="none" stroke="black" cx="1084.69" cy="-726.24" rx="41.94" ry="37.45"/>
<text text-anchor="middle" x="1084.69" y="-737.54" font-family="Times,serif" font-size="14.00">μ_g</text>
<text text-anchor="middle" x="1084.69" y="-722.54" font-family="Times,serif" font-size="14.00">~</text>
<text text-anchor="middle" x="1084.69" y="-707.54" font-family="Times,serif" font-size="14.00">Normal</text>
</g>
<!-- μ_g&#45;&gt;g_s -->
<g id="edge3" class="edge">
<title>μ_g&#45;&gt;g_s</title>
<path fill="none" stroke="black" d="M1054.23,-700.62C1048,-696.28 1041.31,-692.1 1034.69,-688.77 997.26,-669.95 981.55,-680.68 944.69,-660.77 938.66,-657.51 932.66,-653.53 926.98,-649.3"/>
<polygon fill="black" stroke="black" points="928.94,-646.38 918.91,-642.98 924.62,-651.9 928.94,-646.38"/>
</g>
<!-- μ_γ_g -->
<g id="node18" class="node">
<title>μ_γ_g</title>
<ellipse fill="none" stroke="black" cx="848.69" cy="-726.24" rx="41.94" ry="37.45"/>
<text text-anchor="middle" x="848.69" y="-737.54" font-family="Times,serif" font-size="14.00">μ_γ_g</text>
<text text-anchor="middle" x="848.69" y="-722.54" font-family="Times,serif" font-size="14.00">~</text>
<text text-anchor="middle" x="848.69" y="-707.54" font-family="Times,serif" font-size="14.00">Normal</text>
</g>
<!-- μ_γ_g&#45;&gt;γ_g -->
<g id="edge9" class="edge">
<title>μ_γ_g&#45;&gt;γ_g</title>
<path fill="none" stroke="black" d="M830.83,-692.26C825.05,-681.58 818.56,-669.6 812.47,-658.36"/>
<polygon fill="black" stroke="black" points="815.53,-656.67 807.69,-649.54 809.38,-660 815.53,-656.67"/>
</g>
<!-- σ_δ_g -->
<g id="node19" class="node">
<title>σ_δ_g</title>
<ellipse fill="none" stroke="black" cx="494.69" cy="-726.24" rx="57.97" ry="37.45"/>
<text text-anchor="middle" x="494.69" y="-737.54" font-family="Times,serif" font-size="14.00">σ_δ_g</text>
<text text-anchor="middle" x="494.69" y="-722.54" font-family="Times,serif" font-size="14.00">~</text>
<text text-anchor="middle" x="494.69" y="-707.54" font-family="Times,serif" font-size="14.00">Exponential</text>
</g>
<!-- δ_g -->
<g id="node23" class="node">
<title>δ_g</title>
<ellipse fill="none" stroke="black" cx="688.69" cy="-615.29" rx="41.94" ry="37.45"/>
<text text-anchor="middle" x="688.69" y="-626.59" font-family="Times,serif" font-size="14.00">δ_g</text>
<text text-anchor="middle" x="688.69" y="-611.59" font-family="Times,serif" font-size="14.00">~</text>
<text text-anchor="middle" x="688.69" y="-596.59" font-family="Times,serif" font-size="14.00">Normal</text>
</g>
<!-- σ_δ_g&#45;&gt;δ_g -->
<g id="edge10" class="edge">
<title>σ_δ_g&#45;&gt;δ_g</title>
<path fill="none" stroke="black" d="M537.74,-701.06C569.44,-683.26 612.41,-659.13 644.4,-641.16"/>
<polygon fill="black" stroke="black" points="646.52,-643.98 653.53,-636.04 643.1,-637.88 646.52,-643.98"/>
</g>
<!-- μ_δ_g -->
<g id="node20" class="node">
<title>μ_δ_g</title>
<ellipse fill="none" stroke="black" cx="612.69" cy="-726.24" rx="41.94" ry="37.45"/>
<text text-anchor="middle" x="612.69" y="-737.54" font-family="Times,serif" font-size="14.00">μ_δ_g</text>
<text text-anchor="middle" x="612.69" y="-722.54" font-family="Times,serif" font-size="14.00">~</text>
<text text-anchor="middle" x="612.69" y="-707.54" font-family="Times,serif" font-size="14.00">Normal</text>
</g>
<!-- μ_δ_g&#45;&gt;δ_g -->
<g id="edge11" class="edge">
<title>μ_δ_g&#45;&gt;δ_g</title>
<path fill="none" stroke="black" d="M634.47,-694.02C642.74,-682.17 652.27,-668.51 661.01,-655.98"/>
<polygon fill="black" stroke="black" points="664.06,-657.72 666.91,-647.52 658.32,-653.72 664.06,-657.72"/>
</g>
<!-- σ_α_s -->
<g id="node21" class="node">
<title>σ_α_s</title>
<ellipse fill="none" stroke="black" cx="1174.69" cy="-501.34" rx="57.97" ry="37.45"/>
<text text-anchor="middle" x="1174.69" y="-512.64" font-family="Times,serif" font-size="14.00">σ_α_s</text>
<text text-anchor="middle" x="1174.69" y="-497.64" font-family="Times,serif" font-size="14.00">~</text>
<text text-anchor="middle" x="1174.69" y="-482.64" font-family="Times,serif" font-size="14.00">Exponential</text>
</g>
<!-- σ_α_s&#45;&gt;α_s -->
<g id="edge7" class="edge">
<title>σ_α_s&#45;&gt;α_s</title>
<path fill="none" stroke="black" d="M1134.17,-474.52C1107.52,-457.54 1072.72,-435.37 1045.77,-418.19"/>
<polygon fill="black" stroke="black" points="1047.63,-415.23 1037.31,-412.81 1043.87,-421.13 1047.63,-415.23"/>
</g>
<!-- γ_g&#45;&gt;μ -->
<g id="edge16" class="edge">
<title>γ_g&#45;&gt;μ</title>
<path fill="none" stroke="black" d="M807.38,-581C835.87,-522.27 883.12,-399.18 824.69,-321.91 812.29,-305.5 763.45,-293.4 723.5,-285.99"/>
<polygon fill="black" stroke="black" points="724.02,-282.53 713.56,-284.21 722.78,-289.42 724.02,-282.53"/>
</g>
<!-- δ_g&#45;&gt;μ -->
<g id="edge15" class="edge">
<title>δ_g&#45;&gt;μ</title>
<path fill="none" stroke="black" d="M711.43,-583.44C741.98,-541.26 793.51,-467.26 802.69,-435.86 816.89,-387.25 832.37,-362.94 802.69,-321.91 784.58,-296.87 751.88,-285.68 723.2,-280.79"/>
<polygon fill="black" stroke="black" points="723.66,-277.32 713.25,-279.31 722.63,-284.24 723.66,-277.32"/>
</g>
<!-- g_s&#45;&gt;μ_α_s -->
<g id="edge5" class="edge">
<title>g_s&#45;&gt;μ_α_s</title>
<path fill="none" stroke="black" d="M912.83,-583.35C922.06,-571.37 933.28,-557.9 944.69,-546.81 948.99,-542.63 953.69,-538.5 958.5,-534.53"/>
<polygon fill="black" stroke="black" points="961.01,-537 966.64,-528.02 956.64,-531.53 961.01,-537"/>
</g>
<!-- ϵ_gk&#45;&gt;μ -->
<g id="edge19" class="edge">
<title>ϵ_gk&#45;&gt;μ</title>
<path fill="none" stroke="black" d="M1255.99,-372.4C1220.21,-356.63 1163.88,-333.85 1112.69,-321.91 975.32,-289.87 808.81,-280.9 723.71,-278.4"/>
<polygon fill="black" stroke="black" points="723.58,-274.89 713.49,-278.12 723.39,-281.89 723.58,-274.89"/>
</g>
</g>
</svg>
