<?xml version="1.0" encoding="UTF-8" standalone="no"?>
<!DOCTYPE svg PUBLIC "-//W3C//DTD SVG 1.1//EN"
 "http://www.w3.org/Graphics/SVG/1.1/DTD/svg11.dtd">
<!-- Generated by graphviz version 2.42.3 (20191010.1750)
 -->
<!-- Title: %3 Pages: 1 -->
<svg width="1413pt" height="772pt"
 viewBox="0.00 0.00 1412.67 771.72" xmlns="http://www.w3.org/2000/svg" xmlns:xlink="http://www.w3.org/1999/xlink">
<g id="graph0" class="graph" transform="scale(1 1) rotate(0) translate(4 767.72)">
<title>%3</title>
<polygon fill="white" stroke="transparent" points="-4,4 -4,-767.72 1408.67,-767.72 1408.67,4 -4,4"/>
<g id="clust1" class="cluster">
<title>cluster103</title>
<path fill="none" stroke="black" d="M1026.69,-321.91C1026.69,-321.91 1162.69,-321.91 1162.69,-321.91 1168.69,-321.91 1174.69,-327.91 1174.69,-333.91 1174.69,-333.91 1174.69,-637.79 1174.69,-637.79 1174.69,-643.79 1168.69,-649.79 1162.69,-649.79 1162.69,-649.79 1026.69,-649.79 1026.69,-649.79 1020.69,-649.79 1014.69,-643.79 1014.69,-637.79 1014.69,-637.79 1014.69,-333.91 1014.69,-333.91 1014.69,-327.91 1020.69,-321.91 1026.69,-321.91"/>
<text text-anchor="middle" x="1156.19" y="-329.71" font-family="Times,serif" font-size="14.00">103</text>
</g>
<g id="clust2" class="cluster">
<title>cluster60,049</title>
<path fill="none" stroke="black" d="M137.69,-8C137.69,-8 788.69,-8 788.69,-8 794.69,-8 800.69,-14 800.69,-20 800.69,-20 800.69,-412.88 800.69,-412.88 800.69,-418.88 794.69,-424.88 788.69,-424.88 788.69,-424.88 137.69,-424.88 137.69,-424.88 131.69,-424.88 125.69,-418.88 125.69,-412.88 125.69,-412.88 125.69,-20 125.69,-20 125.69,-14 131.69,-8 137.69,-8"/>
<text text-anchor="middle" x="773.69" y="-15.8" font-family="Times,serif" font-size="14.00">60,049</text>
</g>
<g id="clust3" class="cluster">
<title>cluster26</title>
<path fill="none" stroke="black" d="M716.69,-546.81C716.69,-546.81 994.69,-546.81 994.69,-546.81 1000.69,-546.81 1006.69,-552.81 1006.69,-558.81 1006.69,-558.81 1006.69,-648.77 1006.69,-648.77 1006.69,-654.77 1000.69,-660.77 994.69,-660.77 994.69,-660.77 716.69,-660.77 716.69,-660.77 710.69,-660.77 704.69,-654.77 704.69,-648.77 704.69,-648.77 704.69,-558.81 704.69,-558.81 704.69,-552.81 710.69,-546.81 716.69,-546.81"/>
<text text-anchor="middle" x="991.69" y="-554.61" font-family="Times,serif" font-size="14.00">26</text>
</g>
<g id="clust4" class="cluster">
<title>cluster26 x 5</title>
<path fill="none" stroke="black" d="M1194.69,-321.91C1194.69,-321.91 1270.69,-321.91 1270.69,-321.91 1276.69,-321.91 1282.69,-327.91 1282.69,-333.91 1282.69,-333.91 1282.69,-423.86 1282.69,-423.86 1282.69,-429.86 1276.69,-435.86 1270.69,-435.86 1270.69,-435.86 1194.69,-435.86 1194.69,-435.86 1188.69,-435.86 1182.69,-429.86 1182.69,-423.86 1182.69,-423.86 1182.69,-333.91 1182.69,-333.91 1182.69,-327.91 1188.69,-321.91 1194.69,-321.91"/>
<text text-anchor="middle" x="1257.19" y="-329.71" font-family="Times,serif" font-size="14.00">26 x 5</text>
</g>
<!-- μ_α_s -->
<g id="node1" class="node">
<title>μ_α_s</title>
<polygon fill="none" stroke="black" points="1114.19,-527.84 1023.19,-527.84 1023.19,-474.84 1114.19,-474.84 1114.19,-527.84"/>
<text text-anchor="middle" x="1068.69" y="-512.64" font-family="Times,serif" font-size="14.00">μ_α_s</text>
<text text-anchor="middle" x="1068.69" y="-497.64" font-family="Times,serif" font-size="14.00">~</text>
<text text-anchor="middle" x="1068.69" y="-482.64" font-family="Times,serif" font-size="14.00">Deterministic</text>
</g>
<!-- α_s -->
<g id="node2" class="node">
<title>α_s</title>
<ellipse fill="none" stroke="black" cx="1064.69" cy="-390.38" rx="41.94" ry="37.45"/>
<text text-anchor="middle" x="1064.69" y="-401.68" font-family="Times,serif" font-size="14.00">α_s</text>
<text text-anchor="middle" x="1064.69" y="-386.68" font-family="Times,serif" font-size="14.00">~</text>
<text text-anchor="middle" x="1064.69" y="-371.68" font-family="Times,serif" font-size="14.00">Normal</text>
</g>
<!-- μ_α_s&#45;&gt;α_s -->
<g id="edge6" class="edge">
<title>μ_α_s&#45;&gt;α_s</title>
<path fill="none" stroke="black" d="M1067.75,-474.79C1067.35,-463.88 1066.87,-450.79 1066.41,-438.25"/>
<polygon fill="black" stroke="black" points="1069.9,-437.77 1066.03,-427.91 1062.9,-438.03 1069.9,-437.77"/>
</g>
<!-- μ -->
<g id="node6" class="node">
<title>μ</title>
<polygon fill="none" stroke="black" points="703.19,-302.93 612.19,-302.93 612.19,-249.93 703.19,-249.93 703.19,-302.93"/>
<text text-anchor="middle" x="657.69" y="-287.73" font-family="Times,serif" font-size="14.00">μ</text>
<text text-anchor="middle" x="657.69" y="-272.73" font-family="Times,serif" font-size="14.00">~</text>
<text text-anchor="middle" x="657.69" y="-257.73" font-family="Times,serif" font-size="14.00">Deterministic</text>
</g>
<!-- α_s&#45;&gt;μ -->
<g id="edge21" class="edge">
<title>α_s&#45;&gt;μ</title>
<path fill="none" stroke="black" d="M1026.92,-374.42C988.54,-359.61 927.16,-337.04 872.69,-321.91 819.2,-307.05 756.98,-294.7 713.27,-286.81"/>
<polygon fill="black" stroke="black" points="713.87,-283.36 703.41,-285.05 712.64,-290.26 713.87,-283.36"/>
</g>
<!-- sgrna_gene_idx_shared -->
<g id="node3" class="node">
<title>sgrna_gene_idx_shared</title>
<path fill="lightgrey" stroke="black" d="M1154.19,-641.79C1154.19,-641.79 1035.19,-641.79 1035.19,-641.79 1029.19,-641.79 1023.19,-635.79 1023.19,-629.79 1023.19,-629.79 1023.19,-600.79 1023.19,-600.79 1023.19,-594.79 1029.19,-588.79 1035.19,-588.79 1035.19,-588.79 1154.19,-588.79 1154.19,-588.79 1160.19,-588.79 1166.19,-594.79 1166.19,-600.79 1166.19,-600.79 1166.19,-629.79 1166.19,-629.79 1166.19,-635.79 1160.19,-641.79 1154.19,-641.79"/>
<text text-anchor="middle" x="1094.69" y="-626.59" font-family="Times,serif" font-size="14.00">sgrna_gene_idx_shared</text>
<text text-anchor="middle" x="1094.69" y="-611.59" font-family="Times,serif" font-size="14.00">~</text>
<text text-anchor="middle" x="1094.69" y="-596.59" font-family="Times,serif" font-size="14.00">Data</text>
</g>
<!-- sgrna_gene_idx_shared&#45;&gt;μ_α_s -->
<g id="edge5" class="edge">
<title>sgrna_gene_idx_shared&#45;&gt;μ_α_s</title>
<path fill="none" stroke="black" d="M1088.72,-588.61C1085.22,-573.53 1080.75,-554.26 1076.92,-537.76"/>
<polygon fill="black" stroke="black" points="1080.3,-536.85 1074.63,-527.9 1073.48,-538.43 1080.3,-536.85"/>
</g>
<!-- kras_idx_shared -->
<g id="node4" class="node">
<title>kras_idx_shared</title>
<path fill="lightgrey" stroke="black" d="M227.69,-416.88C227.69,-416.88 145.69,-416.88 145.69,-416.88 139.69,-416.88 133.69,-410.88 133.69,-404.88 133.69,-404.88 133.69,-375.88 133.69,-375.88 133.69,-369.88 139.69,-363.88 145.69,-363.88 145.69,-363.88 227.69,-363.88 227.69,-363.88 233.69,-363.88 239.69,-369.88 239.69,-375.88 239.69,-375.88 239.69,-404.88 239.69,-404.88 239.69,-410.88 233.69,-416.88 227.69,-416.88"/>
<text text-anchor="middle" x="186.69" y="-401.68" font-family="Times,serif" font-size="14.00">kras_idx_shared</text>
<text text-anchor="middle" x="186.69" y="-386.68" font-family="Times,serif" font-size="14.00">~</text>
<text text-anchor="middle" x="186.69" y="-371.68" font-family="Times,serif" font-size="14.00">Data</text>
</g>
<!-- kras_idx_shared&#45;&gt;μ -->
<g id="edge14" class="edge">
<title>kras_idx_shared&#45;&gt;μ</title>
<path fill="none" stroke="black" d="M203.65,-363.55C214.86,-348.75 230.92,-331.31 249.69,-321.91 310.09,-291.67 504.8,-281.82 601.76,-278.75"/>
<polygon fill="black" stroke="black" points="602.07,-282.24 611.96,-278.44 601.86,-275.25 602.07,-282.24"/>
</g>
<!-- lfc_shared -->
<g id="node5" class="node">
<title>lfc_shared</title>
<path fill="lightgrey" stroke="black" d="M403.69,-92C403.69,-92 355.69,-92 355.69,-92 349.69,-92 343.69,-86 343.69,-80 343.69,-80 343.69,-51 343.69,-51 343.69,-45 349.69,-39 355.69,-39 355.69,-39 403.69,-39 403.69,-39 409.69,-39 415.69,-45 415.69,-51 415.69,-51 415.69,-80 415.69,-80 415.69,-86 409.69,-92 403.69,-92"/>
<text text-anchor="middle" x="379.69" y="-76.8" font-family="Times,serif" font-size="14.00">lfc_shared</text>
<text text-anchor="middle" x="379.69" y="-61.8" font-family="Times,serif" font-size="14.00">~</text>
<text text-anchor="middle" x="379.69" y="-46.8" font-family="Times,serif" font-size="14.00">Data</text>
</g>
<!-- y -->
<g id="node9" class="node">
<title>y</title>
<ellipse fill="lightgrey" stroke="black" cx="379.69" cy="-165.48" rx="41.94" ry="37.45"/>
<text text-anchor="middle" x="379.69" y="-176.78" font-family="Times,serif" font-size="14.00">y</text>
<text text-anchor="middle" x="379.69" y="-161.78" font-family="Times,serif" font-size="14.00">~</text>
<text text-anchor="middle" x="379.69" y="-146.78" font-family="Times,serif" font-size="14.00">Normal</text>
</g>
<!-- μ&#45;&gt;y -->
<g id="edge24" class="edge">
<title>μ&#45;&gt;y</title>
<path fill="none" stroke="black" d="M612.1,-257.56C561.16,-237.6 479.07,-205.43 427.32,-185.14"/>
<polygon fill="black" stroke="black" points="428.29,-181.77 417.71,-181.38 425.74,-188.28 428.29,-181.77"/>
</g>
<!-- is_mutated_shared -->
<g id="node7" class="node">
<title>is_mutated_shared</title>
<path fill="lightgrey" stroke="black" d="M780.19,-416.88C780.19,-416.88 685.19,-416.88 685.19,-416.88 679.19,-416.88 673.19,-410.88 673.19,-404.88 673.19,-404.88 673.19,-375.88 673.19,-375.88 673.19,-369.88 679.19,-363.88 685.19,-363.88 685.19,-363.88 780.19,-363.88 780.19,-363.88 786.19,-363.88 792.19,-369.88 792.19,-375.88 792.19,-375.88 792.19,-404.88 792.19,-404.88 792.19,-410.88 786.19,-416.88 780.19,-416.88"/>
<text text-anchor="middle" x="732.69" y="-401.68" font-family="Times,serif" font-size="14.00">is_mutated_shared</text>
<text text-anchor="middle" x="732.69" y="-386.68" font-family="Times,serif" font-size="14.00">~</text>
<text text-anchor="middle" x="732.69" y="-371.68" font-family="Times,serif" font-size="14.00">Data</text>
</g>
<!-- is_mutated_shared&#45;&gt;μ -->
<g id="edge17" class="edge">
<title>is_mutated_shared&#45;&gt;μ</title>
<path fill="none" stroke="black" d="M715.48,-363.7C705.1,-348.2 691.74,-328.26 680.48,-311.46"/>
<polygon fill="black" stroke="black" points="683.29,-309.35 674.82,-302.99 677.47,-313.25 683.29,-309.35"/>
</g>
<!-- scaled_log2_cn_shared -->
<g id="node8" class="node">
<title>scaled_log2_cn_shared</title>
<path fill="lightgrey" stroke="black" d="M643.19,-416.88C643.19,-416.88 524.19,-416.88 524.19,-416.88 518.19,-416.88 512.19,-410.88 512.19,-404.88 512.19,-404.88 512.19,-375.88 512.19,-375.88 512.19,-369.88 518.19,-363.88 524.19,-363.88 524.19,-363.88 643.19,-363.88 643.19,-363.88 649.19,-363.88 655.19,-369.88 655.19,-375.88 655.19,-375.88 655.19,-404.88 655.19,-404.88 655.19,-410.88 649.19,-416.88 643.19,-416.88"/>
<text text-anchor="middle" x="583.69" y="-401.68" font-family="Times,serif" font-size="14.00">scaled_log2_cn_shared</text>
<text text-anchor="middle" x="583.69" y="-386.68" font-family="Times,serif" font-size="14.00">~</text>
<text text-anchor="middle" x="583.69" y="-371.68" font-family="Times,serif" font-size="14.00">Data</text>
</g>
<!-- scaled_log2_cn_shared&#45;&gt;μ -->
<g id="edge18" class="edge">
<title>scaled_log2_cn_shared&#45;&gt;μ</title>
<path fill="none" stroke="black" d="M600.67,-363.7C610.91,-348.2 624.09,-328.26 635.2,-311.46"/>
<polygon fill="black" stroke="black" points="638.2,-313.27 640.79,-302.99 632.36,-309.41 638.2,-313.27"/>
</g>
<!-- y&#45;&gt;lfc_shared -->
<g id="edge1" class="edge">
<title>y&#45;&gt;lfc_shared</title>
<path fill="none" stroke="black" d="M379.69,-127.99C379.69,-119.58 379.69,-110.63 379.69,-102.25"/>
<polygon fill="black" stroke="black" points="383.19,-102.01 379.69,-92.01 376.19,-102.01 383.19,-102.01"/>
</g>
<!-- sgrna_idx_shared -->
<g id="node10" class="node">
<title>sgrna_idx_shared</title>
<path fill="lightgrey" stroke="black" d="M482.19,-416.88C482.19,-416.88 395.19,-416.88 395.19,-416.88 389.19,-416.88 383.19,-410.88 383.19,-404.88 383.19,-404.88 383.19,-375.88 383.19,-375.88 383.19,-369.88 389.19,-363.88 395.19,-363.88 395.19,-363.88 482.19,-363.88 482.19,-363.88 488.19,-363.88 494.19,-369.88 494.19,-375.88 494.19,-375.88 494.19,-404.88 494.19,-404.88 494.19,-410.88 488.19,-416.88 482.19,-416.88"/>
<text text-anchor="middle" x="438.69" y="-401.68" font-family="Times,serif" font-size="14.00">sgrna_idx_shared</text>
<text text-anchor="middle" x="438.69" y="-386.68" font-family="Times,serif" font-size="14.00">~</text>
<text text-anchor="middle" x="438.69" y="-371.68" font-family="Times,serif" font-size="14.00">Data</text>
</g>
<!-- sgrna_idx_shared&#45;&gt;μ -->
<g id="edge19" class="edge">
<title>sgrna_idx_shared&#45;&gt;μ</title>
<path fill="none" stroke="black" d="M457.82,-363.71C469.61,-349.53 485.86,-332.66 503.69,-321.91 533.67,-303.83 571.36,-292.78 601.96,-286.22"/>
<polygon fill="black" stroke="black" points="602.94,-289.59 612.04,-284.16 601.54,-282.73 602.94,-289.59"/>
</g>
<!-- gene_idx_shared -->
<g id="node11" class="node">
<title>gene_idx_shared</title>
<path fill="lightgrey" stroke="black" d="M353.19,-416.88C353.19,-416.88 270.19,-416.88 270.19,-416.88 264.19,-416.88 258.19,-410.88 258.19,-404.88 258.19,-404.88 258.19,-375.88 258.19,-375.88 258.19,-369.88 264.19,-363.88 270.19,-363.88 270.19,-363.88 353.19,-363.88 353.19,-363.88 359.19,-363.88 365.19,-369.88 365.19,-375.88 365.19,-375.88 365.19,-404.88 365.19,-404.88 365.19,-410.88 359.19,-416.88 353.19,-416.88"/>
<text text-anchor="middle" x="311.69" y="-401.68" font-family="Times,serif" font-size="14.00">gene_idx_shared</text>
<text text-anchor="middle" x="311.69" y="-386.68" font-family="Times,serif" font-size="14.00">~</text>
<text text-anchor="middle" x="311.69" y="-371.68" font-family="Times,serif" font-size="14.00">Data</text>
</g>
<!-- gene_idx_shared&#45;&gt;μ -->
<g id="edge20" class="edge">
<title>gene_idx_shared&#45;&gt;μ</title>
<path fill="none" stroke="black" d="M328.82,-363.87C340.08,-349.19 356.14,-331.75 374.69,-321.91 413.11,-301.52 531.13,-288.23 602.05,-281.86"/>
<polygon fill="black" stroke="black" points="602.5,-285.33 612.15,-280.97 601.88,-278.36 602.5,-285.33"/>
</g>
<!-- σ_α_s -->
<g id="node12" class="node">
<title>σ_α_s</title>
<ellipse fill="none" stroke="black" cx="947.69" cy="-501.34" rx="57.97" ry="37.45"/>
<text text-anchor="middle" x="947.69" y="-512.64" font-family="Times,serif" font-size="14.00">σ_α_s</text>
<text text-anchor="middle" x="947.69" y="-497.64" font-family="Times,serif" font-size="14.00">~</text>
<text text-anchor="middle" x="947.69" y="-482.64" font-family="Times,serif" font-size="14.00">Exponential</text>
</g>
<!-- σ_α_s&#45;&gt;α_s -->
<g id="edge7" class="edge">
<title>σ_α_s&#45;&gt;α_s</title>
<path fill="none" stroke="black" d="M980.28,-469.99C995.39,-455.92 1013.39,-439.16 1028.87,-424.74"/>
<polygon fill="black" stroke="black" points="1031.32,-427.24 1036.25,-417.87 1026.55,-422.12 1031.32,-427.24"/>
</g>
<!-- μ_γ_g -->
<g id="node13" class="node">
<title>μ_γ_g</title>
<ellipse fill="none" stroke="black" cx="796.69" cy="-726.24" rx="41.94" ry="37.45"/>
<text text-anchor="middle" x="796.69" y="-737.54" font-family="Times,serif" font-size="14.00">μ_γ_g</text>
<text text-anchor="middle" x="796.69" y="-722.54" font-family="Times,serif" font-size="14.00">~</text>
<text text-anchor="middle" x="796.69" y="-707.54" font-family="Times,serif" font-size="14.00">Normal</text>
</g>
<!-- γ_g -->
<g id="node22" class="node">
<title>γ_g</title>
<ellipse fill="none" stroke="black" cx="855.69" cy="-615.29" rx="41.94" ry="37.45"/>
<text text-anchor="middle" x="855.69" y="-626.59" font-family="Times,serif" font-size="14.00">γ_g</text>
<text text-anchor="middle" x="855.69" y="-611.59" font-family="Times,serif" font-size="14.00">~</text>
<text text-anchor="middle" x="855.69" y="-596.59" font-family="Times,serif" font-size="14.00">Normal</text>
</g>
<!-- μ_γ_g&#45;&gt;γ_g -->
<g id="edge9" class="edge">
<title>μ_γ_g&#45;&gt;γ_g</title>
<path fill="none" stroke="black" d="M814.55,-692.26C820.33,-681.58 826.82,-669.6 832.91,-658.36"/>
<polygon fill="black" stroke="black" points="836,-660 837.68,-649.54 829.85,-656.67 836,-660"/>
</g>
<!-- σ -->
<g id="node14" class="node">
<title>σ</title>
<ellipse fill="none" stroke="black" cx="58.69" cy="-276.43" rx="58.88" ry="37.45"/>
<text text-anchor="middle" x="58.69" y="-287.73" font-family="Times,serif" font-size="14.00">σ</text>
<text text-anchor="middle" x="58.69" y="-272.73" font-family="Times,serif" font-size="14.00">~</text>
<text text-anchor="middle" x="58.69" y="-257.73" font-family="Times,serif" font-size="14.00">HalfNormal</text>
</g>
<!-- σ&#45;&gt;y -->
<g id="edge23" class="edge">
<title>σ&#45;&gt;y</title>
<path fill="none" stroke="black" d="M99.96,-249.58C107.05,-245.71 114.47,-242 121.69,-238.95 191.15,-209.64 276.06,-188.39 329.02,-176.75"/>
<polygon fill="black" stroke="black" points="329.82,-180.16 338.85,-174.62 328.34,-173.32 329.82,-180.16"/>
</g>
<!-- σ_γ_g -->
<g id="node15" class="node">
<title>σ_γ_g</title>
<ellipse fill="none" stroke="black" cx="914.69" cy="-726.24" rx="57.97" ry="37.45"/>
<text text-anchor="middle" x="914.69" y="-737.54" font-family="Times,serif" font-size="14.00">σ_γ_g</text>
<text text-anchor="middle" x="914.69" y="-722.54" font-family="Times,serif" font-size="14.00">~</text>
<text text-anchor="middle" x="914.69" y="-707.54" font-family="Times,serif" font-size="14.00">Exponential</text>
</g>
<!-- σ_γ_g&#45;&gt;γ_g -->
<g id="edge8" class="edge">
<title>σ_γ_g&#45;&gt;γ_g</title>
<path fill="none" stroke="black" d="M895.86,-690.47C890.33,-680.26 884.22,-668.98 878.47,-658.36"/>
<polygon fill="black" stroke="black" points="881.38,-656.38 873.54,-649.25 875.22,-659.71 881.38,-656.38"/>
</g>
<!-- σ_g -->
<g id="node16" class="node">
<title>σ_g</title>
<ellipse fill="none" stroke="black" cx="1049.69" cy="-726.24" rx="58.88" ry="37.45"/>
<text text-anchor="middle" x="1049.69" y="-737.54" font-family="Times,serif" font-size="14.00">σ_g</text>
<text text-anchor="middle" x="1049.69" y="-722.54" font-family="Times,serif" font-size="14.00">~</text>
<text text-anchor="middle" x="1049.69" y="-707.54" font-family="Times,serif" font-size="14.00">HalfNormal</text>
</g>
<!-- g_s -->
<g id="node23" class="node">
<title>g_s</title>
<ellipse fill="none" stroke="black" cx="956.69" cy="-615.29" rx="41.94" ry="37.45"/>
<text text-anchor="middle" x="956.69" y="-626.59" font-family="Times,serif" font-size="14.00">g_s</text>
<text text-anchor="middle" x="956.69" y="-611.59" font-family="Times,serif" font-size="14.00">~</text>
<text text-anchor="middle" x="956.69" y="-596.59" font-family="Times,serif" font-size="14.00">Normal</text>
</g>
<!-- σ_g&#45;&gt;g_s -->
<g id="edge2" class="edge">
<title>σ_g&#45;&gt;g_s</title>
<path fill="none" stroke="black" d="M1022.04,-692.85C1011.4,-680.38 999.17,-666.06 988.19,-653.2"/>
<polygon fill="black" stroke="black" points="990.7,-650.74 981.54,-645.41 985.37,-655.29 990.7,-650.74"/>
</g>
<!-- μ_g -->
<g id="node17" class="node">
<title>μ_g</title>
<ellipse fill="none" stroke="black" cx="1167.69" cy="-726.24" rx="41.94" ry="37.45"/>
<text text-anchor="middle" x="1167.69" y="-737.54" font-family="Times,serif" font-size="14.00">μ_g</text>
<text text-anchor="middle" x="1167.69" y="-722.54" font-family="Times,serif" font-size="14.00">~</text>
<text text-anchor="middle" x="1167.69" y="-707.54" font-family="Times,serif" font-size="14.00">Normal</text>
</g>
<!-- μ_g&#45;&gt;g_s -->
<g id="edge3" class="edge">
<title>μ_g&#45;&gt;g_s</title>
<path fill="none" stroke="black" d="M1137.35,-700.38C1131.11,-696.06 1124.39,-691.95 1117.69,-688.77 1073.28,-667.69 1054.46,-683.14 1010.69,-660.77 1004.59,-657.65 998.55,-653.74 992.85,-649.55"/>
<polygon fill="black" stroke="black" points="994.8,-646.63 984.76,-643.26 990.5,-652.16 994.8,-646.63"/>
</g>
<!-- μ_ϵ_g -->
<g id="node18" class="node">
<title>μ_ϵ_g</title>
<ellipse fill="none" stroke="black" cx="1228.69" cy="-501.34" rx="41.94" ry="37.45"/>
<text text-anchor="middle" x="1228.69" y="-512.64" font-family="Times,serif" font-size="14.00">μ_ϵ_g</text>
<text text-anchor="middle" x="1228.69" y="-497.64" font-family="Times,serif" font-size="14.00">~</text>
<text text-anchor="middle" x="1228.69" y="-482.64" font-family="Times,serif" font-size="14.00">Normal</text>
</g>
<!-- ϵ_gk -->
<g id="node25" class="node">
<title>ϵ_gk</title>
<ellipse fill="none" stroke="black" cx="1232.69" cy="-390.38" rx="41.94" ry="37.45"/>
<text text-anchor="middle" x="1232.69" y="-401.68" font-family="Times,serif" font-size="14.00">ϵ_gk</text>
<text text-anchor="middle" x="1232.69" y="-386.68" font-family="Times,serif" font-size="14.00">~</text>
<text text-anchor="middle" x="1232.69" y="-371.68" font-family="Times,serif" font-size="14.00">Normal</text>
</g>
<!-- μ_ϵ_g&#45;&gt;ϵ_gk -->
<g id="edge12" class="edge">
<title>μ_ϵ_g&#45;&gt;ϵ_gk</title>
<path fill="none" stroke="black" d="M1230.03,-463.75C1230.33,-455.58 1230.66,-446.8 1230.97,-438.27"/>
<polygon fill="black" stroke="black" points="1234.47,-438.18 1231.34,-428.06 1227.48,-437.92 1234.47,-438.18"/>
</g>
<!-- σ_ϵ_g -->
<g id="node19" class="node">
<title>σ_ϵ_g</title>
<ellipse fill="none" stroke="black" cx="1346.69" cy="-501.34" rx="57.97" ry="37.45"/>
<text text-anchor="middle" x="1346.69" y="-512.64" font-family="Times,serif" font-size="14.00">σ_ϵ_g</text>
<text text-anchor="middle" x="1346.69" y="-497.64" font-family="Times,serif" font-size="14.00">~</text>
<text text-anchor="middle" x="1346.69" y="-482.64" font-family="Times,serif" font-size="14.00">Exponential</text>
</g>
<!-- σ_ϵ_g&#45;&gt;ϵ_gk -->
<g id="edge13" class="edge">
<title>σ_ϵ_g&#45;&gt;ϵ_gk</title>
<path fill="none" stroke="black" d="M1314.63,-469.7C1300.27,-455.98 1283.29,-439.74 1268.51,-425.62"/>
<polygon fill="black" stroke="black" points="1270.66,-422.83 1261.02,-418.46 1265.83,-427.9 1270.66,-422.83"/>
</g>
<!-- μ_δ_g -->
<g id="node20" class="node">
<title>μ_δ_g</title>
<ellipse fill="none" stroke="black" cx="560.69" cy="-726.24" rx="41.94" ry="37.45"/>
<text text-anchor="middle" x="560.69" y="-737.54" font-family="Times,serif" font-size="14.00">μ_δ_g</text>
<text text-anchor="middle" x="560.69" y="-722.54" font-family="Times,serif" font-size="14.00">~</text>
<text text-anchor="middle" x="560.69" y="-707.54" font-family="Times,serif" font-size="14.00">Normal</text>
</g>
<!-- δ_g -->
<g id="node24" class="node">
<title>δ_g</title>
<ellipse fill="none" stroke="black" cx="754.69" cy="-615.29" rx="41.94" ry="37.45"/>
<text text-anchor="middle" x="754.69" y="-626.59" font-family="Times,serif" font-size="14.00">δ_g</text>
<text text-anchor="middle" x="754.69" y="-611.59" font-family="Times,serif" font-size="14.00">~</text>
<text text-anchor="middle" x="754.69" y="-596.59" font-family="Times,serif" font-size="14.00">Normal</text>
</g>
<!-- μ_δ_g&#45;&gt;δ_g -->
<g id="edge10" class="edge">
<title>μ_δ_g&#45;&gt;δ_g</title>
<path fill="none" stroke="black" d="M592.29,-701.52C598.6,-697.11 605.27,-692.66 611.69,-688.77 643.02,-669.78 679.93,-651.15 708.41,-637.54"/>
<polygon fill="black" stroke="black" points="710.19,-640.57 717.72,-633.12 707.19,-634.25 710.19,-640.57"/>
</g>
<!-- σ_δ_g -->
<g id="node21" class="node">
<title>σ_δ_g</title>
<ellipse fill="none" stroke="black" cx="678.69" cy="-726.24" rx="57.97" ry="37.45"/>
<text text-anchor="middle" x="678.69" y="-737.54" font-family="Times,serif" font-size="14.00">σ_δ_g</text>
<text text-anchor="middle" x="678.69" y="-722.54" font-family="Times,serif" font-size="14.00">~</text>
<text text-anchor="middle" x="678.69" y="-707.54" font-family="Times,serif" font-size="14.00">Exponential</text>
</g>
<!-- σ_δ_g&#45;&gt;δ_g -->
<g id="edge11" class="edge">
<title>σ_δ_g&#45;&gt;δ_g</title>
<path fill="none" stroke="black" d="M702.11,-691.66C710.04,-680.29 718.97,-667.49 727.19,-655.71"/>
<polygon fill="black" stroke="black" points="730.18,-657.55 733.03,-647.34 724.44,-653.54 730.18,-657.55"/>
</g>
<!-- γ_g&#45;&gt;μ -->
<g id="edge15" class="edge">
<title>γ_g&#45;&gt;μ</title>
<path fill="none" stroke="black" d="M864.06,-578.33C875.88,-517.72 889.66,-394.71 827.69,-321.91 812.88,-304.5 757.17,-292.24 713.51,-285.05"/>
<polygon fill="black" stroke="black" points="713.98,-281.59 703.56,-283.47 712.88,-288.5 713.98,-281.59"/>
</g>
<!-- g_s&#45;&gt;μ_α_s -->
<g id="edge4" class="edge">
<title>g_s&#45;&gt;μ_α_s</title>
<path fill="none" stroke="black" d="M978.88,-583.4C988.12,-571.42 999.33,-557.94 1010.69,-546.81 1014.99,-542.6 1019.68,-538.43 1024.48,-534.42"/>
<polygon fill="black" stroke="black" points="1027.03,-536.86 1032.6,-527.85 1022.62,-531.42 1027.03,-536.86"/>
</g>
<!-- δ_g&#45;&gt;μ -->
<g id="edge22" class="edge">
<title>δ_g&#45;&gt;μ</title>
<path fill="none" stroke="black" d="M774.01,-581.68C805.7,-523.5 859.68,-400.51 801.69,-321.91 781.51,-294.55 744.71,-283.5 713.37,-279.26"/>
<polygon fill="black" stroke="black" points="713.75,-275.78 703.42,-278.11 712.95,-282.74 713.75,-275.78"/>
</g>
<!-- ϵ_gk&#45;&gt;μ -->
<g id="edge16" class="edge">
<title>ϵ_gk&#45;&gt;μ</title>
<path fill="none" stroke="black" d="M1214.48,-356.51C1205.48,-343.48 1193.38,-329.75 1178.69,-321.91 1099.41,-279.56 831.04,-276.12 713.55,-276.73"/>
<polygon fill="black" stroke="black" points="713.31,-273.23 703.34,-276.79 713.36,-280.23 713.31,-273.23"/>
</g>
</g>
</svg>
