<?xml version="1.0" encoding="UTF-8" standalone="no"?>
<!DOCTYPE svg PUBLIC "-//W3C//DTD SVG 1.1//EN"
 "http://www.w3.org/Graphics/SVG/1.1/DTD/svg11.dtd">
<!-- Generated by graphviz version 2.42.3 (20191010.1750)
 -->
<!-- Title: %3 Pages: 1 -->
<svg width="1446pt" height="772pt"
 viewBox="0.00 0.00 1446.41 771.72" xmlns="http://www.w3.org/2000/svg" xmlns:xlink="http://www.w3.org/1999/xlink">
<g id="graph0" class="graph" transform="scale(1 1) rotate(0) translate(4 767.72)">
<title>%3</title>
<polygon fill="white" stroke="transparent" points="-4,4 -4,-767.72 1442.41,-767.72 1442.41,4 -4,4"/>
<g id="clust1" class="cluster">
<title>cluster103</title>
<path fill="none" stroke="black" d="M819.69,-321.91C819.69,-321.91 913.69,-321.91 913.69,-321.91 919.69,-321.91 925.69,-327.91 925.69,-333.91 925.69,-333.91 925.69,-637.79 925.69,-637.79 925.69,-643.79 919.69,-649.79 913.69,-649.79 913.69,-649.79 819.69,-649.79 819.69,-649.79 813.69,-649.79 807.69,-643.79 807.69,-637.79 807.69,-637.79 807.69,-333.91 807.69,-333.91 807.69,-327.91 813.69,-321.91 819.69,-321.91"/>
<text text-anchor="middle" x="907.19" y="-329.71" font-family="Times,serif" font-size="14.00">103</text>
</g>
<g id="clust2" class="cluster">
<title>cluster60,049</title>
<path fill="none" stroke="black" d="M137.69,-8C137.69,-8 787.69,-8 787.69,-8 793.69,-8 799.69,-14 799.69,-20 799.69,-20 799.69,-412.88 799.69,-412.88 799.69,-418.88 793.69,-424.88 787.69,-424.88 787.69,-424.88 137.69,-424.88 137.69,-424.88 131.69,-424.88 125.69,-418.88 125.69,-412.88 125.69,-412.88 125.69,-20 125.69,-20 125.69,-14 131.69,-8 137.69,-8"/>
<text text-anchor="middle" x="772.69" y="-15.8" font-family="Times,serif" font-size="14.00">60,049</text>
</g>
<g id="clust3" class="cluster">
<title>cluster26</title>
<path fill="none" stroke="black" d="M945.69,-546.81C945.69,-546.81 1223.69,-546.81 1223.69,-546.81 1229.69,-546.81 1235.69,-552.81 1235.69,-558.81 1235.69,-558.81 1235.69,-648.77 1235.69,-648.77 1235.69,-654.77 1229.69,-660.77 1223.69,-660.77 1223.69,-660.77 945.69,-660.77 945.69,-660.77 939.69,-660.77 933.69,-654.77 933.69,-648.77 933.69,-648.77 933.69,-558.81 933.69,-558.81 933.69,-552.81 939.69,-546.81 945.69,-546.81"/>
<text text-anchor="middle" x="1220.69" y="-554.61" font-family="Times,serif" font-size="14.00">26</text>
</g>
<g id="clust4" class="cluster">
<title>cluster26 x 8</title>
<path fill="none" stroke="black" d="M1147.69,-321.91C1147.69,-321.91 1223.69,-321.91 1223.69,-321.91 1229.69,-321.91 1235.69,-327.91 1235.69,-333.91 1235.69,-333.91 1235.69,-423.86 1235.69,-423.86 1235.69,-429.86 1229.69,-435.86 1223.69,-435.86 1223.69,-435.86 1147.69,-435.86 1147.69,-435.86 1141.69,-435.86 1135.69,-429.86 1135.69,-423.86 1135.69,-423.86 1135.69,-333.91 1135.69,-333.91 1135.69,-327.91 1141.69,-321.91 1147.69,-321.91"/>
<text text-anchor="middle" x="1210.19" y="-329.71" font-family="Times,serif" font-size="14.00">26 x 8</text>
</g>
<!-- μ_α_s -->
<g id="node1" class="node">
<title>μ_α_s</title>
<polygon fill="none" stroke="black" points="914.19,-527.84 823.19,-527.84 823.19,-474.84 914.19,-474.84 914.19,-527.84"/>
<text text-anchor="middle" x="868.69" y="-512.64" font-family="Times,serif" font-size="14.00">μ_α_s</text>
<text text-anchor="middle" x="868.69" y="-497.64" font-family="Times,serif" font-size="14.00">~</text>
<text text-anchor="middle" x="868.69" y="-482.64" font-family="Times,serif" font-size="14.00">Deterministic</text>
</g>
<!-- α_s -->
<g id="node2" class="node">
<title>α_s</title>
<ellipse fill="none" stroke="black" cx="868.69" cy="-390.38" rx="41.94" ry="37.45"/>
<text text-anchor="middle" x="868.69" y="-401.68" font-family="Times,serif" font-size="14.00">α_s</text>
<text text-anchor="middle" x="868.69" y="-386.68" font-family="Times,serif" font-size="14.00">~</text>
<text text-anchor="middle" x="868.69" y="-371.68" font-family="Times,serif" font-size="14.00">Normal</text>
</g>
<!-- μ_α_s&#45;&gt;α_s -->
<g id="edge6" class="edge">
<title>μ_α_s&#45;&gt;α_s</title>
<path fill="none" stroke="black" d="M868.69,-474.79C868.69,-463.88 868.69,-450.79 868.69,-438.25"/>
<polygon fill="black" stroke="black" points="872.19,-437.91 868.69,-427.91 865.19,-437.91 872.19,-437.91"/>
</g>
<!-- μ -->
<g id="node9" class="node">
<title>μ</title>
<polygon fill="none" stroke="black" points="709.19,-302.93 618.19,-302.93 618.19,-249.93 709.19,-249.93 709.19,-302.93"/>
<text text-anchor="middle" x="663.69" y="-287.73" font-family="Times,serif" font-size="14.00">μ</text>
<text text-anchor="middle" x="663.69" y="-272.73" font-family="Times,serif" font-size="14.00">~</text>
<text text-anchor="middle" x="663.69" y="-257.73" font-family="Times,serif" font-size="14.00">Deterministic</text>
</g>
<!-- α_s&#45;&gt;μ -->
<g id="edge19" class="edge">
<title>α_s&#45;&gt;μ</title>
<path fill="none" stroke="black" d="M845.42,-359.16C834.05,-346.14 819.44,-331.69 803.69,-321.91 778.05,-305.98 746.18,-295.27 719.34,-288.36"/>
<polygon fill="black" stroke="black" points="719.86,-284.89 709.31,-285.9 718.19,-291.68 719.86,-284.89"/>
</g>
<!-- sgrna_gene_idx -->
<g id="node3" class="node">
<title>sgrna_gene_idx</title>
<path fill="lightgrey" stroke="black" d="M905.19,-641.79C905.19,-641.79 828.19,-641.79 828.19,-641.79 822.19,-641.79 816.19,-635.79 816.19,-629.79 816.19,-629.79 816.19,-600.79 816.19,-600.79 816.19,-594.79 822.19,-588.79 828.19,-588.79 828.19,-588.79 905.19,-588.79 905.19,-588.79 911.19,-588.79 917.19,-594.79 917.19,-600.79 917.19,-600.79 917.19,-629.79 917.19,-629.79 917.19,-635.79 911.19,-641.79 905.19,-641.79"/>
<text text-anchor="middle" x="866.69" y="-626.59" font-family="Times,serif" font-size="14.00">sgrna_gene_idx</text>
<text text-anchor="middle" x="866.69" y="-611.59" font-family="Times,serif" font-size="14.00">~</text>
<text text-anchor="middle" x="866.69" y="-596.59" font-family="Times,serif" font-size="14.00">Data</text>
</g>
<!-- sgrna_gene_idx&#45;&gt;μ_α_s -->
<g id="edge5" class="edge">
<title>sgrna_gene_idx&#45;&gt;μ_α_s</title>
<path fill="none" stroke="black" d="M867.15,-588.61C867.42,-573.67 867.76,-554.62 868.05,-538.22"/>
<polygon fill="black" stroke="black" points="871.55,-537.96 868.23,-527.9 864.56,-537.84 871.55,-537.96"/>
</g>
<!-- sgrna_idx_shared -->
<g id="node4" class="node">
<title>sgrna_idx_shared</title>
<path fill="lightgrey" stroke="black" d="M780.19,-416.88C780.19,-416.88 693.19,-416.88 693.19,-416.88 687.19,-416.88 681.19,-410.88 681.19,-404.88 681.19,-404.88 681.19,-375.88 681.19,-375.88 681.19,-369.88 687.19,-363.88 693.19,-363.88 693.19,-363.88 780.19,-363.88 780.19,-363.88 786.19,-363.88 792.19,-369.88 792.19,-375.88 792.19,-375.88 792.19,-404.88 792.19,-404.88 792.19,-410.88 786.19,-416.88 780.19,-416.88"/>
<text text-anchor="middle" x="736.69" y="-401.68" font-family="Times,serif" font-size="14.00">sgrna_idx_shared</text>
<text text-anchor="middle" x="736.69" y="-386.68" font-family="Times,serif" font-size="14.00">~</text>
<text text-anchor="middle" x="736.69" y="-371.68" font-family="Times,serif" font-size="14.00">Data</text>
</g>
<!-- sgrna_idx_shared&#45;&gt;μ -->
<g id="edge14" class="edge">
<title>sgrna_idx_shared&#45;&gt;μ</title>
<path fill="none" stroke="black" d="M719.94,-363.7C709.83,-348.2 696.83,-328.26 685.88,-311.46"/>
<polygon fill="black" stroke="black" points="688.75,-309.46 680.36,-302.99 682.89,-313.28 688.75,-309.46"/>
</g>
<!-- scaled_log2_cn_shared -->
<g id="node5" class="node">
<title>scaled_log2_cn_shared</title>
<path fill="lightgrey" stroke="black" d="M651.19,-416.88C651.19,-416.88 532.19,-416.88 532.19,-416.88 526.19,-416.88 520.19,-410.88 520.19,-404.88 520.19,-404.88 520.19,-375.88 520.19,-375.88 520.19,-369.88 526.19,-363.88 532.19,-363.88 532.19,-363.88 651.19,-363.88 651.19,-363.88 657.19,-363.88 663.19,-369.88 663.19,-375.88 663.19,-375.88 663.19,-404.88 663.19,-404.88 663.19,-410.88 657.19,-416.88 651.19,-416.88"/>
<text text-anchor="middle" x="591.69" y="-401.68" font-family="Times,serif" font-size="14.00">scaled_log2_cn_shared</text>
<text text-anchor="middle" x="591.69" y="-386.68" font-family="Times,serif" font-size="14.00">~</text>
<text text-anchor="middle" x="591.69" y="-371.68" font-family="Times,serif" font-size="14.00">Data</text>
</g>
<!-- scaled_log2_cn_shared&#45;&gt;μ -->
<g id="edge15" class="edge">
<title>scaled_log2_cn_shared&#45;&gt;μ</title>
<path fill="none" stroke="black" d="M608.21,-363.7C618.18,-348.2 631,-328.26 641.81,-311.46"/>
<polygon fill="black" stroke="black" points="644.78,-313.3 647.25,-302.99 638.9,-309.51 644.78,-313.3"/>
</g>
<!-- y -->
<g id="node6" class="node">
<title>y</title>
<ellipse fill="lightgrey" stroke="black" cx="383.69" cy="-165.48" rx="41.94" ry="37.45"/>
<text text-anchor="middle" x="383.69" y="-176.78" font-family="Times,serif" font-size="14.00">y</text>
<text text-anchor="middle" x="383.69" y="-161.78" font-family="Times,serif" font-size="14.00">~</text>
<text text-anchor="middle" x="383.69" y="-146.78" font-family="Times,serif" font-size="14.00">Normal</text>
</g>
<!-- lfc_shared -->
<g id="node8" class="node">
<title>lfc_shared</title>
<path fill="lightgrey" stroke="black" d="M407.69,-92C407.69,-92 359.69,-92 359.69,-92 353.69,-92 347.69,-86 347.69,-80 347.69,-80 347.69,-51 347.69,-51 347.69,-45 353.69,-39 359.69,-39 359.69,-39 407.69,-39 407.69,-39 413.69,-39 419.69,-45 419.69,-51 419.69,-51 419.69,-80 419.69,-80 419.69,-86 413.69,-92 407.69,-92"/>
<text text-anchor="middle" x="383.69" y="-76.8" font-family="Times,serif" font-size="14.00">lfc_shared</text>
<text text-anchor="middle" x="383.69" y="-61.8" font-family="Times,serif" font-size="14.00">~</text>
<text text-anchor="middle" x="383.69" y="-46.8" font-family="Times,serif" font-size="14.00">Data</text>
</g>
<!-- y&#45;&gt;lfc_shared -->
<g id="edge1" class="edge">
<title>y&#45;&gt;lfc_shared</title>
<path fill="none" stroke="black" d="M383.69,-127.99C383.69,-119.58 383.69,-110.63 383.69,-102.25"/>
<polygon fill="black" stroke="black" points="387.19,-102.01 383.69,-92.01 380.19,-102.01 387.19,-102.01"/>
</g>
<!-- is_mutated_shared -->
<g id="node7" class="node">
<title>is_mutated_shared</title>
<path fill="lightgrey" stroke="black" d="M490.19,-416.88C490.19,-416.88 395.19,-416.88 395.19,-416.88 389.19,-416.88 383.19,-410.88 383.19,-404.88 383.19,-404.88 383.19,-375.88 383.19,-375.88 383.19,-369.88 389.19,-363.88 395.19,-363.88 395.19,-363.88 490.19,-363.88 490.19,-363.88 496.19,-363.88 502.19,-369.88 502.19,-375.88 502.19,-375.88 502.19,-404.88 502.19,-404.88 502.19,-410.88 496.19,-416.88 490.19,-416.88"/>
<text text-anchor="middle" x="442.69" y="-401.68" font-family="Times,serif" font-size="14.00">is_mutated_shared</text>
<text text-anchor="middle" x="442.69" y="-386.68" font-family="Times,serif" font-size="14.00">~</text>
<text text-anchor="middle" x="442.69" y="-371.68" font-family="Times,serif" font-size="14.00">Data</text>
</g>
<!-- is_mutated_shared&#45;&gt;μ -->
<g id="edge16" class="edge">
<title>is_mutated_shared&#45;&gt;μ</title>
<path fill="none" stroke="black" d="M463.31,-363.77C475.93,-349.61 493.18,-332.74 511.69,-321.91 541.33,-304.56 578.22,-293.56 608.24,-286.83"/>
<polygon fill="black" stroke="black" points="609.09,-290.23 618.13,-284.71 607.62,-283.39 609.09,-290.23"/>
</g>
<!-- μ&#45;&gt;y -->
<g id="edge23" class="edge">
<title>μ&#45;&gt;y</title>
<path fill="none" stroke="black" d="M618.08,-257.68C566.58,-237.64 483.19,-205.2 431,-184.89"/>
<polygon fill="black" stroke="black" points="432.23,-181.61 421.64,-181.24 429.69,-188.13 432.23,-181.61"/>
</g>
<!-- kras_idx_shared -->
<g id="node10" class="node">
<title>kras_idx_shared</title>
<path fill="lightgrey" stroke="black" d="M352.69,-416.88C352.69,-416.88 270.69,-416.88 270.69,-416.88 264.69,-416.88 258.69,-410.88 258.69,-404.88 258.69,-404.88 258.69,-375.88 258.69,-375.88 258.69,-369.88 264.69,-363.88 270.69,-363.88 270.69,-363.88 352.69,-363.88 352.69,-363.88 358.69,-363.88 364.69,-369.88 364.69,-375.88 364.69,-375.88 364.69,-404.88 364.69,-404.88 364.69,-410.88 358.69,-416.88 352.69,-416.88"/>
<text text-anchor="middle" x="311.69" y="-401.68" font-family="Times,serif" font-size="14.00">kras_idx_shared</text>
<text text-anchor="middle" x="311.69" y="-386.68" font-family="Times,serif" font-size="14.00">~</text>
<text text-anchor="middle" x="311.69" y="-371.68" font-family="Times,serif" font-size="14.00">Data</text>
</g>
<!-- kras_idx_shared&#45;&gt;μ -->
<g id="edge18" class="edge">
<title>kras_idx_shared&#45;&gt;μ</title>
<path fill="none" stroke="black" d="M328.81,-363.85C340.07,-349.16 356.13,-331.72 374.69,-321.91 414.1,-301.08 535.44,-287.9 607.76,-281.67"/>
<polygon fill="black" stroke="black" points="608.38,-285.13 618.05,-280.8 607.79,-278.16 608.38,-285.13"/>
</g>
<!-- gene_idx_shared -->
<g id="node11" class="node">
<title>gene_idx_shared</title>
<path fill="lightgrey" stroke="black" d="M228.19,-416.88C228.19,-416.88 145.19,-416.88 145.19,-416.88 139.19,-416.88 133.19,-410.88 133.19,-404.88 133.19,-404.88 133.19,-375.88 133.19,-375.88 133.19,-369.88 139.19,-363.88 145.19,-363.88 145.19,-363.88 228.19,-363.88 228.19,-363.88 234.19,-363.88 240.19,-369.88 240.19,-375.88 240.19,-375.88 240.19,-404.88 240.19,-404.88 240.19,-410.88 234.19,-416.88 228.19,-416.88"/>
<text text-anchor="middle" x="186.69" y="-401.68" font-family="Times,serif" font-size="14.00">gene_idx_shared</text>
<text text-anchor="middle" x="186.69" y="-386.68" font-family="Times,serif" font-size="14.00">~</text>
<text text-anchor="middle" x="186.69" y="-371.68" font-family="Times,serif" font-size="14.00">Data</text>
</g>
<!-- gene_idx_shared&#45;&gt;μ -->
<g id="edge21" class="edge">
<title>gene_idx_shared&#45;&gt;μ</title>
<path fill="none" stroke="black" d="M203.39,-363.88C214.61,-349.01 230.77,-331.36 249.69,-321.91 311.21,-291.17 509.97,-281.55 607.99,-278.64"/>
<polygon fill="black" stroke="black" points="608.11,-282.14 618.01,-278.36 607.91,-275.14 608.11,-282.14"/>
</g>
<!-- σ_g -->
<g id="node12" class="node">
<title>σ_g</title>
<ellipse fill="none" stroke="black" cx="806.69" cy="-726.24" rx="57.97" ry="37.45"/>
<text text-anchor="middle" x="806.69" y="-737.54" font-family="Times,serif" font-size="14.00">σ_g</text>
<text text-anchor="middle" x="806.69" y="-722.54" font-family="Times,serif" font-size="14.00">~</text>
<text text-anchor="middle" x="806.69" y="-707.54" font-family="Times,serif" font-size="14.00">Exponential</text>
</g>
<!-- g_s -->
<g id="node22" class="node">
<title>g_s</title>
<ellipse fill="none" stroke="black" cx="983.69" cy="-615.29" rx="41.94" ry="37.45"/>
<text text-anchor="middle" x="983.69" y="-626.59" font-family="Times,serif" font-size="14.00">g_s</text>
<text text-anchor="middle" x="983.69" y="-611.59" font-family="Times,serif" font-size="14.00">~</text>
<text text-anchor="middle" x="983.69" y="-596.59" font-family="Times,serif" font-size="14.00">Normal</text>
</g>
<!-- σ_g&#45;&gt;g_s -->
<g id="edge2" class="edge">
<title>σ_g&#45;&gt;g_s</title>
<path fill="none" stroke="black" d="M850.18,-701.28C857.98,-697.06 866.06,-692.75 873.69,-688.77 898.36,-675.89 906.36,-675.93 929.69,-660.77 935.37,-657.08 941.14,-652.88 946.68,-648.58"/>
<polygon fill="black" stroke="black" points="948.99,-651.22 954.62,-642.25 944.62,-645.75 948.99,-651.22"/>
</g>
<!-- μ_δ_g -->
<g id="node13" class="node">
<title>μ_δ_g</title>
<ellipse fill="none" stroke="black" cx="1025.69" cy="-726.24" rx="41.94" ry="37.45"/>
<text text-anchor="middle" x="1025.69" y="-737.54" font-family="Times,serif" font-size="14.00">μ_δ_g</text>
<text text-anchor="middle" x="1025.69" y="-722.54" font-family="Times,serif" font-size="14.00">~</text>
<text text-anchor="middle" x="1025.69" y="-707.54" font-family="Times,serif" font-size="14.00">Normal</text>
</g>
<!-- δ_g -->
<g id="node23" class="node">
<title>δ_g</title>
<ellipse fill="none" stroke="black" cx="1084.69" cy="-615.29" rx="41.94" ry="37.45"/>
<text text-anchor="middle" x="1084.69" y="-626.59" font-family="Times,serif" font-size="14.00">δ_g</text>
<text text-anchor="middle" x="1084.69" y="-611.59" font-family="Times,serif" font-size="14.00">~</text>
<text text-anchor="middle" x="1084.69" y="-596.59" font-family="Times,serif" font-size="14.00">Normal</text>
</g>
<!-- μ_δ_g&#45;&gt;δ_g -->
<g id="edge10" class="edge">
<title>μ_δ_g&#45;&gt;δ_g</title>
<path fill="none" stroke="black" d="M1043.55,-692.26C1049.33,-681.58 1055.82,-669.6 1061.91,-658.36"/>
<polygon fill="black" stroke="black" points="1065,-660 1066.68,-649.54 1058.85,-656.67 1065,-660"/>
</g>
<!-- σ -->
<g id="node14" class="node">
<title>σ</title>
<ellipse fill="none" stroke="black" cx="58.69" cy="-276.43" rx="58.88" ry="37.45"/>
<text text-anchor="middle" x="58.69" y="-287.73" font-family="Times,serif" font-size="14.00">σ</text>
<text text-anchor="middle" x="58.69" y="-272.73" font-family="Times,serif" font-size="14.00">~</text>
<text text-anchor="middle" x="58.69" y="-257.73" font-family="Times,serif" font-size="14.00">HalfNormal</text>
</g>
<!-- σ&#45;&gt;y -->
<g id="edge24" class="edge">
<title>σ&#45;&gt;y</title>
<path fill="none" stroke="black" d="M99.95,-249.56C107.04,-245.69 114.46,-241.99 121.69,-238.95 192.62,-209.18 279.44,-187.94 333.16,-176.44"/>
<polygon fill="black" stroke="black" points="334.06,-179.82 343.12,-174.33 332.61,-172.98 334.06,-179.82"/>
</g>
<!-- μ_g -->
<g id="node15" class="node">
<title>μ_g</title>
<ellipse fill="none" stroke="black" cx="924.69" cy="-726.24" rx="41.94" ry="37.45"/>
<text text-anchor="middle" x="924.69" y="-737.54" font-family="Times,serif" font-size="14.00">μ_g</text>
<text text-anchor="middle" x="924.69" y="-722.54" font-family="Times,serif" font-size="14.00">~</text>
<text text-anchor="middle" x="924.69" y="-707.54" font-family="Times,serif" font-size="14.00">Normal</text>
</g>
<!-- μ_g&#45;&gt;g_s -->
<g id="edge3" class="edge">
<title>μ_g&#45;&gt;g_s</title>
<path fill="none" stroke="black" d="M942.55,-692.26C948.33,-681.58 954.82,-669.6 960.91,-658.36"/>
<polygon fill="black" stroke="black" points="964,-660 965.68,-649.54 957.85,-656.67 964,-660"/>
</g>
<!-- σ_γ_g -->
<g id="node16" class="node">
<title>σ_γ_g</title>
<ellipse fill="none" stroke="black" cx="1278.69" cy="-726.24" rx="58.88" ry="37.45"/>
<text text-anchor="middle" x="1278.69" y="-737.54" font-family="Times,serif" font-size="14.00">σ_γ_g</text>
<text text-anchor="middle" x="1278.69" y="-722.54" font-family="Times,serif" font-size="14.00">~</text>
<text text-anchor="middle" x="1278.69" y="-707.54" font-family="Times,serif" font-size="14.00">HalfNormal</text>
</g>
<!-- γ_g -->
<g id="node24" class="node">
<title>γ_g</title>
<ellipse fill="none" stroke="black" cx="1185.69" cy="-615.29" rx="41.94" ry="37.45"/>
<text text-anchor="middle" x="1185.69" y="-626.59" font-family="Times,serif" font-size="14.00">γ_g</text>
<text text-anchor="middle" x="1185.69" y="-611.59" font-family="Times,serif" font-size="14.00">~</text>
<text text-anchor="middle" x="1185.69" y="-596.59" font-family="Times,serif" font-size="14.00">Normal</text>
</g>
<!-- σ_γ_g&#45;&gt;γ_g -->
<g id="edge8" class="edge">
<title>σ_γ_g&#45;&gt;γ_g</title>
<path fill="none" stroke="black" d="M1251.04,-692.85C1240.4,-680.38 1228.17,-666.06 1217.19,-653.2"/>
<polygon fill="black" stroke="black" points="1219.7,-650.74 1210.54,-645.41 1214.37,-655.29 1219.7,-650.74"/>
</g>
<!-- μ_ϵ_g -->
<g id="node17" class="node">
<title>μ_ϵ_g</title>
<ellipse fill="none" stroke="black" cx="1185.69" cy="-501.34" rx="41.94" ry="37.45"/>
<text text-anchor="middle" x="1185.69" y="-512.64" font-family="Times,serif" font-size="14.00">μ_ϵ_g</text>
<text text-anchor="middle" x="1185.69" y="-497.64" font-family="Times,serif" font-size="14.00">~</text>
<text text-anchor="middle" x="1185.69" y="-482.64" font-family="Times,serif" font-size="14.00">Normal</text>
</g>
<!-- ϵ_gk -->
<g id="node25" class="node">
<title>ϵ_gk</title>
<ellipse fill="none" stroke="black" cx="1185.69" cy="-390.38" rx="41.94" ry="37.45"/>
<text text-anchor="middle" x="1185.69" y="-401.68" font-family="Times,serif" font-size="14.00">ϵ_gk</text>
<text text-anchor="middle" x="1185.69" y="-386.68" font-family="Times,serif" font-size="14.00">~</text>
<text text-anchor="middle" x="1185.69" y="-371.68" font-family="Times,serif" font-size="14.00">Normal</text>
</g>
<!-- μ_ϵ_g&#45;&gt;ϵ_gk -->
<g id="edge12" class="edge">
<title>μ_ϵ_g&#45;&gt;ϵ_gk</title>
<path fill="none" stroke="black" d="M1185.69,-463.75C1185.69,-455.58 1185.69,-446.8 1185.69,-438.27"/>
<polygon fill="black" stroke="black" points="1189.19,-438.06 1185.69,-428.06 1182.19,-438.06 1189.19,-438.06"/>
</g>
<!-- σ_α_s -->
<g id="node18" class="node">
<title>σ_α_s</title>
<ellipse fill="none" stroke="black" cx="991.69" cy="-501.34" rx="57.97" ry="37.45"/>
<text text-anchor="middle" x="991.69" y="-512.64" font-family="Times,serif" font-size="14.00">σ_α_s</text>
<text text-anchor="middle" x="991.69" y="-497.64" font-family="Times,serif" font-size="14.00">~</text>
<text text-anchor="middle" x="991.69" y="-482.64" font-family="Times,serif" font-size="14.00">Exponential</text>
</g>
<!-- σ_α_s&#45;&gt;α_s -->
<g id="edge7" class="edge">
<title>σ_α_s&#45;&gt;α_s</title>
<path fill="none" stroke="black" d="M958.08,-470.56C941.94,-456.27 922.55,-439.1 905.97,-424.4"/>
<polygon fill="black" stroke="black" points="907.88,-421.42 898.07,-417.41 903.24,-426.66 907.88,-421.42"/>
</g>
<!-- σ_ϵ_g -->
<g id="node19" class="node">
<title>σ_ϵ_g</title>
<ellipse fill="none" stroke="black" cx="1303.69" cy="-501.34" rx="57.97" ry="37.45"/>
<text text-anchor="middle" x="1303.69" y="-512.64" font-family="Times,serif" font-size="14.00">σ_ϵ_g</text>
<text text-anchor="middle" x="1303.69" y="-497.64" font-family="Times,serif" font-size="14.00">~</text>
<text text-anchor="middle" x="1303.69" y="-482.64" font-family="Times,serif" font-size="14.00">Exponential</text>
</g>
<!-- σ_ϵ_g&#45;&gt;ϵ_gk -->
<g id="edge13" class="edge">
<title>σ_ϵ_g&#45;&gt;ϵ_gk</title>
<path fill="none" stroke="black" d="M1271.13,-470.28C1255.89,-456.2 1237.68,-439.39 1221.99,-424.9"/>
<polygon fill="black" stroke="black" points="1224.24,-422.22 1214.52,-418 1219.49,-427.36 1224.24,-422.22"/>
</g>
<!-- μ_γ_g -->
<g id="node20" class="node">
<title>μ_γ_g</title>
<ellipse fill="none" stroke="black" cx="1396.69" cy="-726.24" rx="41.94" ry="37.45"/>
<text text-anchor="middle" x="1396.69" y="-737.54" font-family="Times,serif" font-size="14.00">μ_γ_g</text>
<text text-anchor="middle" x="1396.69" y="-722.54" font-family="Times,serif" font-size="14.00">~</text>
<text text-anchor="middle" x="1396.69" y="-707.54" font-family="Times,serif" font-size="14.00">Normal</text>
</g>
<!-- μ_γ_g&#45;&gt;γ_g -->
<g id="edge9" class="edge">
<title>μ_γ_g&#45;&gt;γ_g</title>
<path fill="none" stroke="black" d="M1365.62,-701.06C1359.5,-696.73 1353.01,-692.44 1346.69,-688.77 1310.03,-667.45 1265.97,-648.01 1233.22,-634.64"/>
<polygon fill="black" stroke="black" points="1234.45,-631.36 1223.87,-630.86 1231.83,-637.85 1234.45,-631.36"/>
</g>
<!-- σ_δ_g -->
<g id="node21" class="node">
<title>σ_δ_g</title>
<ellipse fill="none" stroke="black" cx="1143.69" cy="-726.24" rx="58.88" ry="37.45"/>
<text text-anchor="middle" x="1143.69" y="-737.54" font-family="Times,serif" font-size="14.00">σ_δ_g</text>
<text text-anchor="middle" x="1143.69" y="-722.54" font-family="Times,serif" font-size="14.00">~</text>
<text text-anchor="middle" x="1143.69" y="-707.54" font-family="Times,serif" font-size="14.00">HalfNormal</text>
</g>
<!-- σ_δ_g&#45;&gt;δ_g -->
<g id="edge11" class="edge">
<title>σ_δ_g&#45;&gt;δ_g</title>
<path fill="none" stroke="black" d="M1124.86,-690.47C1119.33,-680.26 1113.22,-668.98 1107.47,-658.36"/>
<polygon fill="black" stroke="black" points="1110.38,-656.38 1102.54,-649.25 1104.22,-659.71 1110.38,-656.38"/>
</g>
<!-- g_s&#45;&gt;μ_α_s -->
<g id="edge4" class="edge">
<title>g_s&#45;&gt;μ_α_s</title>
<path fill="none" stroke="black" d="M961.64,-583.26C952.42,-571.26 941.19,-557.8 929.69,-546.81 925.15,-542.47 920.18,-538.2 915.08,-534.12"/>
<polygon fill="black" stroke="black" points="917.09,-531.25 907.04,-527.89 912.8,-536.78 917.09,-531.25"/>
</g>
<!-- δ_g&#45;&gt;μ -->
<g id="edge17" class="edge">
<title>δ_g&#45;&gt;μ</title>
<path fill="none" stroke="black" d="M1084.04,-577.59C1082.18,-546 1076.31,-499.94 1058.69,-463.86 1021.27,-387.26 1004.53,-362.73 929.69,-321.91 894.31,-302.6 786.21,-289.15 719.21,-282.41"/>
<polygon fill="black" stroke="black" points="719.52,-278.92 709.23,-281.42 718.83,-285.89 719.52,-278.92"/>
</g>
<!-- γ_g&#45;&gt;μ -->
<g id="edge20" class="edge">
<title>γ_g&#45;&gt;μ</title>
<path fill="none" stroke="black" d="M1164.06,-582.9C1154.88,-569.41 1144.13,-553.42 1134.69,-538.81 1073.18,-443.65 1095.83,-383.47 1000.69,-321.91 955.39,-292.59 802.84,-282.46 719.39,-279.07"/>
<polygon fill="black" stroke="black" points="719.44,-275.57 709.32,-278.68 719.17,-282.56 719.44,-275.57"/>
</g>
<!-- ϵ_gk&#45;&gt;μ -->
<g id="edge22" class="edge">
<title>ϵ_gk&#45;&gt;μ</title>
<path fill="none" stroke="black" d="M1166.77,-356.92C1157.36,-343.79 1144.76,-329.88 1129.69,-321.91 1059.84,-284.95 827.18,-278.48 719.39,-277.5"/>
<polygon fill="black" stroke="black" points="719.39,-274 709.36,-277.42 719.33,-281 719.39,-274"/>
</g>
</g>
</svg>
