<?xml version="1.0" encoding="UTF-8" standalone="no"?>
<!DOCTYPE svg PUBLIC "-//W3C//DTD SVG 1.1//EN"
 "http://www.w3.org/Graphics/SVG/1.1/DTD/svg11.dtd">
<!-- Generated by graphviz version 2.47.0 (0)
 -->
<!-- Pages: 1 -->
<svg width="1057pt" height="688pt"
 viewBox="0.00 0.00 1056.79 687.77" xmlns="http://www.w3.org/2000/svg" xmlns:xlink="http://www.w3.org/1999/xlink">
<g id="graph0" class="graph" transform="scale(1 1) rotate(0) translate(4 683.77)">
<polygon fill="white" stroke="transparent" points="-4,4 -4,-683.77 1052.79,-683.77 1052.79,4 -4,4"/>
<g id="clust1" class="cluster">
<title>cluster1 x 12</title>
<path fill="none" stroke="black" d="M532.4,-446.86C532.4,-446.86 642.4,-446.86 642.4,-446.86 648.4,-446.86 654.4,-452.86 654.4,-458.86 654.4,-458.86 654.4,-548.81 654.4,-548.81 654.4,-554.81 648.4,-560.81 642.4,-560.81 642.4,-560.81 532.4,-560.81 532.4,-560.81 526.4,-560.81 520.4,-554.81 520.4,-548.81 520.4,-548.81 520.4,-458.86 520.4,-458.86 520.4,-452.86 526.4,-446.86 532.4,-446.86"/>
<text text-anchor="middle" x="628.4" y="-454.66" font-family="Times,serif" font-size="14.00">1 x 12</text>
</g>
<g id="clust2" class="cluster">
<title>cluster125 x 1</title>
<path fill="none" stroke="black" d="M258.4,-324.91C258.4,-324.91 368.4,-324.91 368.4,-324.91 374.4,-324.91 380.4,-330.91 380.4,-336.91 380.4,-336.91 380.4,-426.86 380.4,-426.86 380.4,-432.86 374.4,-438.86 368.4,-438.86 368.4,-438.86 258.4,-438.86 258.4,-438.86 252.4,-438.86 246.4,-432.86 246.4,-426.86 246.4,-426.86 246.4,-336.91 246.4,-336.91 246.4,-330.91 252.4,-324.91 258.4,-324.91"/>
<text text-anchor="middle" x="350.9" y="-332.71" font-family="Times,serif" font-size="14.00">125 x 1</text>
</g>
<g id="clust3" class="cluster">
<title>cluster25 x 2</title>
<path fill="none" stroke="black" d="M674.4,-457.84C674.4,-457.84 794.4,-457.84 794.4,-457.84 800.4,-457.84 806.4,-463.84 806.4,-469.84 806.4,-469.84 806.4,-659.77 806.4,-659.77 806.4,-665.77 800.4,-671.77 794.4,-671.77 794.4,-671.77 674.4,-671.77 674.4,-671.77 668.4,-671.77 662.4,-665.77 662.4,-659.77 662.4,-659.77 662.4,-469.84 662.4,-469.84 662.4,-463.84 668.4,-457.84 674.4,-457.84"/>
<text text-anchor="middle" x="780.4" y="-465.64" font-family="Times,serif" font-size="14.00">25 x 2</text>
</g>
<g id="clust4" class="cluster">
<title>cluster25 x 12</title>
<path fill="none" stroke="black" d="M400.4,-335.88C400.4,-335.88 500.4,-335.88 500.4,-335.88 506.4,-335.88 512.4,-341.88 512.4,-347.88 512.4,-347.88 512.4,-548.81 512.4,-548.81 512.4,-554.81 506.4,-560.81 500.4,-560.81 500.4,-560.81 400.4,-560.81 400.4,-560.81 394.4,-560.81 388.4,-554.81 388.4,-548.81 388.4,-548.81 388.4,-347.88 388.4,-347.88 388.4,-341.88 394.4,-335.88 400.4,-335.88"/>
<text text-anchor="middle" x="482.9" y="-343.68" font-family="Times,serif" font-size="14.00">25 x 12</text>
</g>
<g id="clust5" class="cluster">
<title>cluster125 x 12</title>
<path fill="none" stroke="black" d="M140.4,-232.91C140.4,-232.91 226.4,-232.91 226.4,-232.91 232.4,-232.91 238.4,-238.91 238.4,-244.91 238.4,-244.91 238.4,-426.86 238.4,-426.86 238.4,-432.86 232.4,-438.86 226.4,-438.86 226.4,-438.86 140.4,-438.86 140.4,-438.86 134.4,-438.86 128.4,-432.86 128.4,-426.86 128.4,-426.86 128.4,-244.91 128.4,-244.91 128.4,-238.91 134.4,-232.91 140.4,-232.91"/>
<text text-anchor="middle" x="205.4" y="-240.71" font-family="Times,serif" font-size="14.00">125 x 12</text>
</g>
<g id="clust6" class="cluster">
<title>cluster1,500</title>
<path fill="none" stroke="black" d="M140.4,-8C140.4,-8 226.4,-8 226.4,-8 232.4,-8 238.4,-14 238.4,-20 238.4,-20 238.4,-209.93 238.4,-209.93 238.4,-215.93 232.4,-221.93 226.4,-221.93 226.4,-221.93 140.4,-221.93 140.4,-221.93 134.4,-221.93 128.4,-215.93 128.4,-209.93 128.4,-209.93 128.4,-20 128.4,-20 128.4,-14 134.4,-8 140.4,-8"/>
<text text-anchor="middle" x="214.4" y="-15.8" font-family="Times,serif" font-size="14.00">1,500</text>
</g>
<!-- σ -->
<g id="node1" class="node">
<title>σ</title>
<ellipse fill="none" stroke="black" cx="59.4" cy="-187.43" rx="59.29" ry="37.45"/>
<text text-anchor="middle" x="59.4" y="-198.73" font-family="Times,serif" font-size="14.00">σ</text>
<text text-anchor="middle" x="59.4" y="-183.73" font-family="Times,serif" font-size="14.00">~</text>
<text text-anchor="middle" x="59.4" y="-168.73" font-family="Times,serif" font-size="14.00">HalfNormal</text>
</g>
<!-- lfc -->
<g id="node15" class="node">
<title>lfc</title>
<ellipse fill="lightgrey" stroke="black" cx="180.4" cy="-76.48" rx="41.94" ry="37.45"/>
<text text-anchor="middle" x="180.4" y="-87.78" font-family="Times,serif" font-size="14.00">lfc</text>
<text text-anchor="middle" x="180.4" y="-72.78" font-family="Times,serif" font-size="14.00">~</text>
<text text-anchor="middle" x="180.4" y="-57.78" font-family="Times,serif" font-size="14.00">Normal</text>
</g>
<!-- σ&#45;&gt;lfc -->
<g id="edge13" class="edge">
<title>σ&#45;&gt;lfc</title>
<path fill="none" stroke="black" d="M92.78,-156.37C108.53,-142.19 127.37,-125.22 143.54,-110.66"/>
<polygon fill="black" stroke="black" points="146.15,-113.03 151.24,-103.73 141.46,-107.82 146.15,-113.03"/>
</g>
<!-- μ_μ_μ_a -->
<g id="node2" class="node">
<title>μ_μ_μ_a</title>
<ellipse fill="none" stroke="black" cx="864.4" cy="-626.29" rx="47.25" ry="37.45"/>
<text text-anchor="middle" x="864.4" y="-637.59" font-family="Times,serif" font-size="14.00">μ_μ_μ_a</text>
<text text-anchor="middle" x="864.4" y="-622.59" font-family="Times,serif" font-size="14.00">~</text>
<text text-anchor="middle" x="864.4" y="-607.59" font-family="Times,serif" font-size="14.00">Normal</text>
</g>
<!-- μ_μ_a -->
<g id="node9" class="node">
<title>μ_μ_a</title>
<polygon fill="none" stroke="black" points="788.9,-541.84 695.9,-541.84 695.9,-488.84 788.9,-488.84 788.9,-541.84"/>
<text text-anchor="middle" x="742.4" y="-526.64" font-family="Times,serif" font-size="14.00">μ_μ_a</text>
<text text-anchor="middle" x="742.4" y="-511.64" font-family="Times,serif" font-size="14.00">~</text>
<text text-anchor="middle" x="742.4" y="-496.64" font-family="Times,serif" font-size="14.00">Deterministic</text>
</g>
<!-- μ_μ_μ_a&#45;&gt;μ_μ_a -->
<g id="edge3" class="edge">
<title>μ_μ_μ_a&#45;&gt;μ_μ_a</title>
<path fill="none" stroke="black" d="M833.61,-597.8C816.96,-582.93 796.29,-564.47 778.84,-548.88"/>
<polygon fill="black" stroke="black" points="780.87,-546 771.08,-541.95 776.2,-551.22 780.87,-546"/>
</g>
<!-- σ_μ_μ_a -->
<g id="node3" class="node">
<title>σ_μ_μ_a</title>
<ellipse fill="none" stroke="black" cx="989.4" cy="-626.29" rx="59.29" ry="37.45"/>
<text text-anchor="middle" x="989.4" y="-637.59" font-family="Times,serif" font-size="14.00">σ_μ_μ_a</text>
<text text-anchor="middle" x="989.4" y="-622.59" font-family="Times,serif" font-size="14.00">~</text>
<text text-anchor="middle" x="989.4" y="-607.59" font-family="Times,serif" font-size="14.00">HalfNormal</text>
</g>
<!-- σ_μ_μ_a&#45;&gt;μ_μ_a -->
<g id="edge4" class="edge">
<title>σ_μ_μ_a&#45;&gt;μ_μ_a</title>
<path fill="none" stroke="black" d="M945.18,-601.08C937.01,-596.85 928.5,-592.59 920.4,-588.81 880.32,-570.12 834.03,-551.35 798.7,-537.6"/>
<polygon fill="black" stroke="black" points="799.63,-534.21 789.04,-533.86 797.1,-540.74 799.63,-534.21"/>
</g>
<!-- σ_σ_a -->
<g id="node4" class="node">
<title>σ_σ_a</title>
<ellipse fill="none" stroke="black" cx="313.4" cy="-515.34" rx="59.29" ry="37.45"/>
<text text-anchor="middle" x="313.4" y="-526.64" font-family="Times,serif" font-size="14.00">σ_σ_a</text>
<text text-anchor="middle" x="313.4" y="-511.64" font-family="Times,serif" font-size="14.00">~</text>
<text text-anchor="middle" x="313.4" y="-496.64" font-family="Times,serif" font-size="14.00">HalfNormal</text>
</g>
<!-- σ_a -->
<g id="node7" class="node">
<title>σ_a</title>
<ellipse fill="none" stroke="black" cx="313.4" cy="-393.38" rx="59.29" ry="37.45"/>
<text text-anchor="middle" x="313.4" y="-404.68" font-family="Times,serif" font-size="14.00">σ_a</text>
<text text-anchor="middle" x="313.4" y="-389.68" font-family="Times,serif" font-size="14.00">~</text>
<text text-anchor="middle" x="313.4" y="-374.68" font-family="Times,serif" font-size="14.00">HalfNormal</text>
</g>
<!-- σ_σ_a&#45;&gt;σ_a -->
<g id="edge2" class="edge">
<title>σ_σ_a&#45;&gt;σ_a</title>
<path fill="none" stroke="black" d="M313.4,-477.69C313.4,-466.29 313.4,-453.55 313.4,-441.54"/>
<polygon fill="black" stroke="black" points="316.9,-441.21 313.4,-431.21 309.9,-441.21 316.9,-441.21"/>
</g>
<!-- σ_σ_μ_a -->
<g id="node5" class="node">
<title>σ_σ_μ_a</title>
<ellipse fill="none" stroke="black" cx="587.4" cy="-626.29" rx="59.29" ry="37.45"/>
<text text-anchor="middle" x="587.4" y="-637.59" font-family="Times,serif" font-size="14.00">σ_σ_μ_a</text>
<text text-anchor="middle" x="587.4" y="-622.59" font-family="Times,serif" font-size="14.00">~</text>
<text text-anchor="middle" x="587.4" y="-607.59" font-family="Times,serif" font-size="14.00">HalfNormal</text>
</g>
<!-- σ_μ_a -->
<g id="node6" class="node">
<title>σ_μ_a</title>
<ellipse fill="none" stroke="black" cx="587.4" cy="-515.34" rx="59.29" ry="37.45"/>
<text text-anchor="middle" x="587.4" y="-526.64" font-family="Times,serif" font-size="14.00">σ_μ_a</text>
<text text-anchor="middle" x="587.4" y="-511.64" font-family="Times,serif" font-size="14.00">~</text>
<text text-anchor="middle" x="587.4" y="-496.64" font-family="Times,serif" font-size="14.00">HalfNormal</text>
</g>
<!-- σ_σ_μ_a&#45;&gt;σ_μ_a -->
<g id="edge1" class="edge">
<title>σ_σ_μ_a&#45;&gt;σ_μ_a</title>
<path fill="none" stroke="black" d="M587.4,-588.71C587.4,-580.53 587.4,-571.75 587.4,-563.23"/>
<polygon fill="black" stroke="black" points="590.9,-563.01 587.4,-553.01 583.9,-563.01 590.9,-563.01"/>
</g>
<!-- μ_a -->
<g id="node11" class="node">
<title>μ_a</title>
<polygon fill="none" stroke="black" points="499.9,-419.88 406.9,-419.88 406.9,-366.88 499.9,-366.88 499.9,-419.88"/>
<text text-anchor="middle" x="453.4" y="-404.68" font-family="Times,serif" font-size="14.00">μ_a</text>
<text text-anchor="middle" x="453.4" y="-389.68" font-family="Times,serif" font-size="14.00">~</text>
<text text-anchor="middle" x="453.4" y="-374.68" font-family="Times,serif" font-size="14.00">Deterministic</text>
</g>
<!-- σ_μ_a&#45;&gt;μ_a -->
<g id="edge7" class="edge">
<title>σ_μ_a&#45;&gt;μ_a</title>
<path fill="none" stroke="black" d="M555.65,-483.32C543.53,-471.7 529.48,-458.5 516.4,-446.86 508.9,-440.19 500.75,-433.21 492.89,-426.6"/>
<polygon fill="black" stroke="black" points="495.06,-423.86 485.14,-420.14 490.58,-429.24 495.06,-423.86"/>
</g>
<!-- a -->
<g id="node13" class="node">
<title>a</title>
<polygon fill="none" stroke="black" points="229.9,-316.91 136.9,-316.91 136.9,-263.91 229.9,-263.91 229.9,-316.91"/>
<text text-anchor="middle" x="183.4" y="-301.71" font-family="Times,serif" font-size="14.00">a</text>
<text text-anchor="middle" x="183.4" y="-286.71" font-family="Times,serif" font-size="14.00">~</text>
<text text-anchor="middle" x="183.4" y="-271.71" font-family="Times,serif" font-size="14.00">Deterministic</text>
</g>
<!-- σ_a&#45;&gt;a -->
<g id="edge10" class="edge">
<title>σ_a&#45;&gt;a</title>
<path fill="none" stroke="black" d="M283.4,-360.75C271.26,-348.81 256.74,-335.54 242.4,-324.91 241.18,-324.01 239.95,-323.11 238.69,-322.23"/>
<polygon fill="black" stroke="black" points="240.39,-319.16 230.13,-316.52 236.51,-324.98 240.39,-319.16"/>
</g>
<!-- μ_μ_a_offset -->
<g id="node8" class="node">
<title>μ_μ_a_offset</title>
<ellipse fill="none" stroke="black" cx="734.4" cy="-626.29" rx="64.19" ry="37.45"/>
<text text-anchor="middle" x="734.4" y="-637.59" font-family="Times,serif" font-size="14.00">μ_μ_a_offset</text>
<text text-anchor="middle" x="734.4" y="-622.59" font-family="Times,serif" font-size="14.00">~</text>
<text text-anchor="middle" x="734.4" y="-607.59" font-family="Times,serif" font-size="14.00">Normal</text>
</g>
<!-- μ_μ_a_offset&#45;&gt;μ_μ_a -->
<g id="edge5" class="edge">
<title>μ_μ_a_offset&#45;&gt;μ_μ_a</title>
<path fill="none" stroke="black" d="M737.08,-588.71C737.94,-576.97 738.9,-563.98 739.76,-552.29"/>
<polygon fill="black" stroke="black" points="743.27,-552.22 740.51,-541.99 736.29,-551.71 743.27,-552.22"/>
</g>
<!-- μ_μ_a&#45;&gt;μ_a -->
<g id="edge8" class="edge">
<title>μ_μ_a&#45;&gt;μ_a</title>
<path fill="none" stroke="black" d="M716.46,-488.63C700.81,-474.44 679.81,-457.57 658.4,-446.86 611.25,-423.28 552.54,-409.65 510.06,-402.22"/>
<polygon fill="black" stroke="black" points="510.61,-398.76 500.16,-400.55 509.44,-405.67 510.61,-398.76"/>
</g>
<!-- μ_a_offset -->
<g id="node10" class="node">
<title>μ_a_offset</title>
<ellipse fill="none" stroke="black" cx="450.4" cy="-515.34" rx="53.98" ry="37.45"/>
<text text-anchor="middle" x="450.4" y="-526.64" font-family="Times,serif" font-size="14.00">μ_a_offset</text>
<text text-anchor="middle" x="450.4" y="-511.64" font-family="Times,serif" font-size="14.00">~</text>
<text text-anchor="middle" x="450.4" y="-496.64" font-family="Times,serif" font-size="14.00">Normal</text>
</g>
<!-- μ_a_offset&#45;&gt;μ_a -->
<g id="edge6" class="edge">
<title>μ_a_offset&#45;&gt;μ_a</title>
<path fill="none" stroke="black" d="M451.31,-477.69C451.69,-462.73 452.12,-445.46 452.49,-430.54"/>
<polygon fill="black" stroke="black" points="456,-430.24 452.75,-420.16 449,-430.07 456,-430.24"/>
</g>
<!-- μ_a&#45;&gt;a -->
<g id="edge11" class="edge">
<title>μ_a&#45;&gt;a</title>
<path fill="none" stroke="black" d="M433.82,-366.6C421.31,-352.01 403.82,-334.77 384.4,-324.91 339.37,-302.05 282.07,-294.27 240.18,-291.86"/>
<polygon fill="black" stroke="black" points="240.31,-288.36 230.15,-291.36 239.96,-295.35 240.31,-288.36"/>
</g>
<!-- a_offset -->
<g id="node12" class="node">
<title>a_offset</title>
<ellipse fill="none" stroke="black" cx="183.4" cy="-393.38" rx="43.68" ry="37.45"/>
<text text-anchor="middle" x="183.4" y="-404.68" font-family="Times,serif" font-size="14.00">a_offset</text>
<text text-anchor="middle" x="183.4" y="-389.68" font-family="Times,serif" font-size="14.00">~</text>
<text text-anchor="middle" x="183.4" y="-374.68" font-family="Times,serif" font-size="14.00">Normal</text>
</g>
<!-- a_offset&#45;&gt;a -->
<g id="edge9" class="edge">
<title>a_offset&#45;&gt;a</title>
<path fill="none" stroke="black" d="M183.4,-355.64C183.4,-346.38 183.4,-336.46 183.4,-327.24"/>
<polygon fill="black" stroke="black" points="186.9,-327.22 183.4,-317.22 179.9,-327.22 186.9,-327.22"/>
</g>
<!-- μ -->
<g id="node14" class="node">
<title>μ</title>
<polygon fill="none" stroke="black" points="229.9,-213.93 136.9,-213.93 136.9,-160.93 229.9,-160.93 229.9,-213.93"/>
<text text-anchor="middle" x="183.4" y="-198.73" font-family="Times,serif" font-size="14.00">μ</text>
<text text-anchor="middle" x="183.4" y="-183.73" font-family="Times,serif" font-size="14.00">~</text>
<text text-anchor="middle" x="183.4" y="-168.73" font-family="Times,serif" font-size="14.00">Deterministic</text>
</g>
<!-- a&#45;&gt;μ -->
<g id="edge12" class="edge">
<title>a&#45;&gt;μ</title>
<path fill="none" stroke="black" d="M183.4,-263.66C183.4,-251.68 183.4,-237.22 183.4,-224.19"/>
<polygon fill="black" stroke="black" points="186.9,-224.12 183.4,-214.12 179.9,-224.12 186.9,-224.12"/>
</g>
<!-- μ&#45;&gt;lfc -->
<g id="edge14" class="edge">
<title>μ&#45;&gt;lfc</title>
<path fill="none" stroke="black" d="M182.69,-160.89C182.39,-149.98 182.03,-136.89 181.69,-124.35"/>
<polygon fill="black" stroke="black" points="185.18,-123.9 181.4,-114 178.18,-124.09 185.18,-123.9"/>
</g>
</g>
</svg>
