<?xml version="1.0" encoding="UTF-8" standalone="no"?>
<!DOCTYPE svg PUBLIC "-//W3C//DTD SVG 1.1//EN"
 "http://www.w3.org/Graphics/SVG/1.1/DTD/svg11.dtd">
<!-- Generated by graphviz version 2.47.0 (20210327.0129)
 -->
<!-- Pages: 1 -->
<svg width="482pt" height="813pt"
 viewBox="0.00 0.00 482.09 812.67" xmlns="http://www.w3.org/2000/svg" xmlns:xlink="http://www.w3.org/1999/xlink">
<g id="graph0" class="graph" transform="scale(1 1) rotate(0) translate(4 808.67)">
<polygon fill="white" stroke="transparent" points="-4,4 -4,-808.67 478.09,-808.67 478.09,4 -4,4"/>
<g id="clust1" class="cluster">
<title>cluster25 x 2</title>
<path fill="none" stroke="black" d="M139.79,-587.77C139.79,-587.77 229.79,-587.77 229.79,-587.77 235.79,-587.77 241.79,-593.77 241.79,-599.77 241.79,-599.77 241.79,-689.72 241.79,-689.72 241.79,-695.72 235.79,-701.72 229.79,-701.72 229.79,-701.72 139.79,-701.72 139.79,-701.72 133.79,-701.72 127.79,-695.72 127.79,-689.72 127.79,-689.72 127.79,-599.77 127.79,-599.77 127.79,-593.77 133.79,-587.77 139.79,-587.77"/>
<text text-anchor="middle" x="211.29" y="-595.57" font-family="Times-Roman" font-size="14.00">25 x 2</text>
</g>
<g id="clust2" class="cluster">
<title>cluster1 x 12</title>
<path fill="none" stroke="black" d="M264.79,-587.77C264.79,-587.77 394.79,-587.77 394.79,-587.77 400.79,-587.77 406.79,-593.77 406.79,-599.77 406.79,-599.77 406.79,-689.72 406.79,-689.72 406.79,-695.72 400.79,-701.72 394.79,-701.72 394.79,-701.72 264.79,-701.72 264.79,-701.72 258.79,-701.72 252.79,-695.72 252.79,-689.72 252.79,-689.72 252.79,-599.77 252.79,-599.77 252.79,-593.77 258.79,-587.77 264.79,-587.77"/>
<text text-anchor="middle" x="376.29" y="-595.57" font-family="Times-Roman" font-size="14.00">1 x 12</text>
</g>
<g id="clust3" class="cluster">
<title>cluster25 x 12</title>
<path fill="none" stroke="black" d="M135.79,-365.84C135.79,-365.84 239.79,-365.84 239.79,-365.84 245.79,-365.84 251.79,-371.84 251.79,-377.84 251.79,-377.84 251.79,-567.77 251.79,-567.77 251.79,-573.77 245.79,-579.77 239.79,-579.77 239.79,-579.77 135.79,-579.77 135.79,-579.77 129.79,-579.77 123.79,-573.77 123.79,-567.77 123.79,-567.77 123.79,-377.84 123.79,-377.84 123.79,-371.84 129.79,-365.84 135.79,-365.84"/>
<text text-anchor="middle" x="216.79" y="-373.64" font-family="Times-Roman" font-size="14.00">25 x 12</text>
</g>
<g id="clust4" class="cluster">
<title>cluster125 x 1</title>
<path fill="none" stroke="black" d="M271.79,-354.86C271.79,-354.86 401.79,-354.86 401.79,-354.86 407.79,-354.86 413.79,-360.86 413.79,-366.86 413.79,-366.86 413.79,-456.81 413.79,-456.81 413.79,-462.81 407.79,-468.81 401.79,-468.81 401.79,-468.81 271.79,-468.81 271.79,-468.81 265.79,-468.81 259.79,-462.81 259.79,-456.81 259.79,-456.81 259.79,-366.86 259.79,-366.86 259.79,-360.86 265.79,-354.86 271.79,-354.86"/>
<text text-anchor="middle" x="378.79" y="-362.66" font-family="Times-Roman" font-size="14.00">125 x 1</text>
</g>
<g id="clust5" class="cluster">
<title>cluster125 x 12</title>
<path fill="none" stroke="black" d="M216.79,-232.91C216.79,-232.91 306.79,-232.91 306.79,-232.91 312.79,-232.91 318.79,-238.91 318.79,-244.91 318.79,-244.91 318.79,-334.86 318.79,-334.86 318.79,-340.86 312.79,-346.86 306.79,-346.86 306.79,-346.86 216.79,-346.86 216.79,-346.86 210.79,-346.86 204.79,-340.86 204.79,-334.86 204.79,-334.86 204.79,-244.91 204.79,-244.91 204.79,-238.91 210.79,-232.91 216.79,-232.91"/>
<text text-anchor="middle" x="279.29" y="-240.71" font-family="Times-Roman" font-size="14.00">125 x 12</text>
</g>
<g id="clust6" class="cluster">
<title>cluster1,500</title>
<path fill="none" stroke="black" d="M209.79,-8C209.79,-8 313.79,-8 313.79,-8 319.79,-8 325.79,-14 325.79,-20 325.79,-20 325.79,-209.93 325.79,-209.93 325.79,-215.93 319.79,-221.93 313.79,-221.93 313.79,-221.93 209.79,-221.93 209.79,-221.93 203.79,-221.93 197.79,-215.93 197.79,-209.93 197.79,-209.93 197.79,-20 197.79,-20 197.79,-14 203.79,-8 209.79,-8"/>
<text text-anchor="middle" x="297.29" y="-15.8" font-family="Times-Roman" font-size="14.00">1,500</text>
</g>
<!-- μ_μ_h -->
<g id="node1" class="node">
<title>μ_μ_h</title>
<ellipse fill="none" stroke="black" cx="48.79" cy="-767.2" rx="48.58" ry="37.45"/>
<text text-anchor="middle" x="48.79" y="-778.5" font-family="Times-Roman" font-size="14.00">μ_μ_h</text>
<text text-anchor="middle" x="48.79" y="-763.5" font-family="Times-Roman" font-size="14.00">~</text>
<text text-anchor="middle" x="48.79" y="-748.5" font-family="Times-Roman" font-size="14.00">Normal</text>
</g>
<!-- μ_h -->
<g id="node6" class="node">
<title>μ_h</title>
<ellipse fill="none" stroke="black" cx="184.79" cy="-656.24" rx="48.58" ry="37.45"/>
<text text-anchor="middle" x="184.79" y="-667.54" font-family="Times-Roman" font-size="14.00">μ_h</text>
<text text-anchor="middle" x="184.79" y="-652.54" font-family="Times-Roman" font-size="14.00">~</text>
<text text-anchor="middle" x="184.79" y="-637.54" font-family="Times-Roman" font-size="14.00">Normal</text>
</g>
<!-- μ_μ_h&#45;&gt;μ_h -->
<g id="edge1" class="edge">
<title>μ_μ_h&#45;&gt;μ_h</title>
<path fill="none" stroke="black" d="M82.06,-739.54C100.58,-724.7 123.81,-706.1 143.48,-690.34"/>
<polygon fill="black" stroke="black" points="145.78,-692.98 151.39,-684 141.4,-687.52 145.78,-692.98"/>
</g>
<!-- σ_μ_h -->
<g id="node2" class="node">
<title>σ_μ_h</title>
<ellipse fill="none" stroke="black" cx="184.79" cy="-767.2" rx="69.09" ry="37.45"/>
<text text-anchor="middle" x="184.79" y="-778.5" font-family="Times-Roman" font-size="14.00">σ_μ_h</text>
<text text-anchor="middle" x="184.79" y="-763.5" font-family="Times-Roman" font-size="14.00">~</text>
<text text-anchor="middle" x="184.79" y="-748.5" font-family="Times-Roman" font-size="14.00">HalfNormal</text>
</g>
<!-- σ_μ_h&#45;&gt;μ_h -->
<g id="edge2" class="edge">
<title>σ_μ_h&#45;&gt;μ_h</title>
<path fill="none" stroke="black" d="M184.79,-729.61C184.79,-721.44 184.79,-712.66 184.79,-704.13"/>
<polygon fill="black" stroke="black" points="188.29,-703.92 184.79,-693.92 181.29,-703.92 188.29,-703.92"/>
</g>
<!-- σ_σ_a -->
<g id="node3" class="node">
<title>σ_σ_a</title>
<ellipse fill="none" stroke="black" cx="336.79" cy="-534.29" rx="69.09" ry="37.45"/>
<text text-anchor="middle" x="336.79" y="-545.59" font-family="Times-Roman" font-size="14.00">σ_σ_a</text>
<text text-anchor="middle" x="336.79" y="-530.59" font-family="Times-Roman" font-size="14.00">~</text>
<text text-anchor="middle" x="336.79" y="-515.59" font-family="Times-Roman" font-size="14.00">HalfNormal</text>
</g>
<!-- σ_a -->
<g id="node10" class="node">
<title>σ_a</title>
<ellipse fill="none" stroke="black" cx="336.79" cy="-423.34" rx="69.09" ry="37.45"/>
<text text-anchor="middle" x="336.79" y="-434.64" font-family="Times-Roman" font-size="14.00">σ_a</text>
<text text-anchor="middle" x="336.79" y="-419.64" font-family="Times-Roman" font-size="14.00">~</text>
<text text-anchor="middle" x="336.79" y="-404.64" font-family="Times-Roman" font-size="14.00">HalfNormal</text>
</g>
<!-- σ_σ_a&#45;&gt;σ_a -->
<g id="edge7" class="edge">
<title>σ_σ_a&#45;&gt;σ_a</title>
<path fill="none" stroke="black" d="M336.79,-496.71C336.79,-488.53 336.79,-479.75 336.79,-471.23"/>
<polygon fill="black" stroke="black" points="340.29,-471.01 336.79,-461.01 333.29,-471.01 340.29,-471.01"/>
</g>
<!-- σ_σ_h -->
<g id="node4" class="node">
<title>σ_σ_h</title>
<ellipse fill="none" stroke="black" cx="341.79" cy="-767.2" rx="69.09" ry="37.45"/>
<text text-anchor="middle" x="341.79" y="-778.5" font-family="Times-Roman" font-size="14.00">σ_σ_h</text>
<text text-anchor="middle" x="341.79" y="-763.5" font-family="Times-Roman" font-size="14.00">~</text>
<text text-anchor="middle" x="341.79" y="-748.5" font-family="Times-Roman" font-size="14.00">HalfNormal</text>
</g>
<!-- σ_h -->
<g id="node7" class="node">
<title>σ_h</title>
<ellipse fill="none" stroke="black" cx="329.79" cy="-656.24" rx="69.09" ry="37.45"/>
<text text-anchor="middle" x="329.79" y="-667.54" font-family="Times-Roman" font-size="14.00">σ_h</text>
<text text-anchor="middle" x="329.79" y="-652.54" font-family="Times-Roman" font-size="14.00">~</text>
<text text-anchor="middle" x="329.79" y="-637.54" font-family="Times-Roman" font-size="14.00">HalfNormal</text>
</g>
<!-- σ_σ_h&#45;&gt;σ_h -->
<g id="edge3" class="edge">
<title>σ_σ_h&#45;&gt;σ_h</title>
<path fill="none" stroke="black" d="M337.76,-729.61C336.86,-721.44 335.89,-712.66 334.95,-704.13"/>
<polygon fill="black" stroke="black" points="338.4,-703.47 333.83,-693.92 331.45,-704.24 338.4,-703.47"/>
</g>
<!-- σ -->
<g id="node5" class="node">
<title>σ</title>
<ellipse fill="none" stroke="black" cx="404.79" cy="-187.43" rx="69.09" ry="37.45"/>
<text text-anchor="middle" x="404.79" y="-198.73" font-family="Times-Roman" font-size="14.00">σ</text>
<text text-anchor="middle" x="404.79" y="-183.73" font-family="Times-Roman" font-size="14.00">~</text>
<text text-anchor="middle" x="404.79" y="-168.73" font-family="Times-Roman" font-size="14.00">HalfNormal</text>
</g>
<!-- lfc -->
<g id="node12" class="node">
<title>lfc</title>
<ellipse fill="lightgrey" stroke="black" cx="264.79" cy="-76.48" rx="48.58" ry="37.45"/>
<text text-anchor="middle" x="264.79" y="-87.78" font-family="Times-Roman" font-size="14.00">lfc</text>
<text text-anchor="middle" x="264.79" y="-72.78" font-family="Times-Roman" font-size="14.00">~</text>
<text text-anchor="middle" x="264.79" y="-57.78" font-family="Times-Roman" font-size="14.00">Normal</text>
</g>
<!-- σ&#45;&gt;lfc -->
<g id="edge11" class="edge">
<title>σ&#45;&gt;lfc</title>
<path fill="none" stroke="black" d="M365.79,-156.08C347.47,-141.82 325.59,-124.79 306.89,-110.24"/>
<polygon fill="black" stroke="black" points="308.86,-107.34 298.82,-103.96 304.56,-112.86 308.86,-107.34"/>
</g>
<!-- h -->
<g id="node9" class="node">
<title>h</title>
<ellipse fill="none" stroke="black" cx="187.79" cy="-534.29" rx="48.58" ry="37.45"/>
<text text-anchor="middle" x="187.79" y="-545.59" font-family="Times-Roman" font-size="14.00">h</text>
<text text-anchor="middle" x="187.79" y="-530.59" font-family="Times-Roman" font-size="14.00">~</text>
<text text-anchor="middle" x="187.79" y="-515.59" font-family="Times-Roman" font-size="14.00">Normal</text>
</g>
<!-- μ_h&#45;&gt;h -->
<g id="edge5" class="edge">
<title>μ_h&#45;&gt;h</title>
<path fill="none" stroke="black" d="M185.71,-618.6C185.99,-607.2 186.31,-594.46 186.61,-582.44"/>
<polygon fill="black" stroke="black" points="190.12,-582.21 186.87,-572.12 183.12,-582.03 190.12,-582.21"/>
</g>
<!-- σ_h&#45;&gt;h -->
<g id="edge4" class="edge">
<title>σ_h&#45;&gt;h</title>
<path fill="none" stroke="black" d="M293.22,-624.35C273.34,-607.56 248.72,-586.76 228.26,-569.48"/>
<polygon fill="black" stroke="black" points="230.26,-566.58 220.36,-562.8 225.74,-571.93 230.26,-566.58"/>
</g>
<!-- μ_a -->
<g id="node8" class="node">
<title>μ_a</title>
<polygon fill="none" stroke="black" points="243.79,-449.84 131.79,-449.84 131.79,-396.84 243.79,-396.84 243.79,-449.84"/>
<text text-anchor="middle" x="187.79" y="-434.64" font-family="Times-Roman" font-size="14.00">μ_a</text>
<text text-anchor="middle" x="187.79" y="-419.64" font-family="Times-Roman" font-size="14.00">~</text>
<text text-anchor="middle" x="187.79" y="-404.64" font-family="Times-Roman" font-size="14.00">Deterministic</text>
</g>
<!-- a -->
<g id="node11" class="node">
<title>a</title>
<ellipse fill="none" stroke="black" cx="261.79" cy="-301.38" rx="48.58" ry="37.45"/>
<text text-anchor="middle" x="261.79" y="-312.68" font-family="Times-Roman" font-size="14.00">a</text>
<text text-anchor="middle" x="261.79" y="-297.68" font-family="Times-Roman" font-size="14.00">~</text>
<text text-anchor="middle" x="261.79" y="-282.68" font-family="Times-Roman" font-size="14.00">Normal</text>
</g>
<!-- μ_a&#45;&gt;a -->
<g id="edge9" class="edge">
<title>μ_a&#45;&gt;a</title>
<path fill="none" stroke="black" d="M203.67,-396.6C213,-381.48 225.02,-361.99 235.71,-344.66"/>
<polygon fill="black" stroke="black" points="238.89,-346.18 241.16,-335.83 232.93,-342.5 238.89,-346.18"/>
</g>
<!-- h&#45;&gt;μ_a -->
<g id="edge6" class="edge">
<title>h&#45;&gt;μ_a</title>
<path fill="none" stroke="black" d="M187.79,-496.71C187.79,-484.97 187.79,-471.98 187.79,-460.29"/>
<polygon fill="black" stroke="black" points="191.29,-459.99 187.79,-449.99 184.29,-459.99 191.29,-459.99"/>
</g>
<!-- σ_a&#45;&gt;a -->
<g id="edge8" class="edge">
<title>σ_a&#45;&gt;a</title>
<path fill="none" stroke="black" d="M315.1,-387.64C306.57,-374 296.71,-358.23 287.8,-343.99"/>
<polygon fill="black" stroke="black" points="290.67,-341.98 282.4,-335.35 284.74,-345.69 290.67,-341.98"/>
</g>
<!-- μ -->
<g id="node13" class="node">
<title>μ</title>
<polygon fill="none" stroke="black" points="317.79,-213.93 205.79,-213.93 205.79,-160.93 317.79,-160.93 317.79,-213.93"/>
<text text-anchor="middle" x="261.79" y="-198.73" font-family="Times-Roman" font-size="14.00">μ</text>
<text text-anchor="middle" x="261.79" y="-183.73" font-family="Times-Roman" font-size="14.00">~</text>
<text text-anchor="middle" x="261.79" y="-168.73" font-family="Times-Roman" font-size="14.00">Deterministic</text>
</g>
<!-- a&#45;&gt;μ -->
<g id="edge10" class="edge">
<title>a&#45;&gt;μ</title>
<path fill="none" stroke="black" d="M261.79,-263.73C261.79,-251.07 261.79,-236.92 261.79,-224.32"/>
<polygon fill="black" stroke="black" points="265.29,-224.18 261.79,-214.18 258.29,-224.18 265.29,-224.18"/>
</g>
<!-- μ&#45;&gt;lfc -->
<g id="edge12" class="edge">
<title>μ&#45;&gt;lfc</title>
<path fill="none" stroke="black" d="M262.49,-160.89C262.79,-149.98 263.15,-136.89 263.5,-124.35"/>
<polygon fill="black" stroke="black" points="267.01,-124.09 263.78,-114 260.01,-123.9 267.01,-124.09"/>
</g>
</g>
</svg>
