<?xml version="1.0" encoding="UTF-8" standalone="no"?>
<!DOCTYPE svg PUBLIC "-//W3C//DTD SVG 1.1//EN"
 "http://www.w3.org/Graphics/SVG/1.1/DTD/svg11.dtd">
<!-- Generated by graphviz version 2.42.3 (20191010.1750)
 -->
<!-- Title: %3 Pages: 1 -->
<svg width="552pt" height="791pt"
 viewBox="0.00 0.00 551.69 790.72" xmlns="http://www.w3.org/2000/svg" xmlns:xlink="http://www.w3.org/1999/xlink">
<g id="graph0" class="graph" transform="scale(1 1) rotate(0) translate(4 786.72)">
<title>%3</title>
<polygon fill="white" stroke="transparent" points="-4,4 -4,-786.72 547.69,-786.72 547.69,4 -4,4"/>
<g id="clust1" class="cluster">
<title>cluster22,960</title>
<path fill="none" stroke="black" d="M20,-8C20,-8 176,-8 176,-8 182,-8 188,-14 188,-20 188,-20 188,-412.88 188,-412.88 188,-418.88 182,-424.88 176,-424.88 176,-424.88 20,-424.88 20,-424.88 14,-424.88 8,-418.88 8,-412.88 8,-412.88 8,-20 8,-20 8,-14 14,-8 20,-8"/>
<text text-anchor="middle" x="161" y="-15.8" font-family="Times,serif" font-size="14.00">22,960</text>
</g>
<g id="clust2" class="cluster">
<title>cluster132</title>
<path fill="none" stroke="black" d="M30,-454.84C30,-454.84 166,-454.84 166,-454.84 172,-454.84 178,-460.84 178,-466.84 178,-466.84 178,-534.84 178,-534.84 178,-540.84 172,-546.84 166,-546.84 166,-546.84 30,-546.84 30,-546.84 24,-546.84 18,-540.84 18,-534.84 18,-534.84 18,-466.84 18,-466.84 18,-460.84 24,-454.84 30,-454.84"/>
<text text-anchor="middle" x="159.5" y="-462.64" font-family="Times,serif" font-size="14.00">132</text>
</g>
<g id="clust3" class="cluster">
<title>cluster20 x 1</title>
<path fill="none" stroke="black" d="M385,-565.81C385,-565.81 461,-565.81 461,-565.81 467,-565.81 473,-571.81 473,-577.81 473,-577.81 473,-667.77 473,-667.77 473,-673.77 467,-679.77 461,-679.77 461,-679.77 385,-679.77 385,-679.77 379,-679.77 373,-673.77 373,-667.77 373,-667.77 373,-577.81 373,-577.81 373,-571.81 379,-565.81 385,-565.81"/>
<text text-anchor="middle" x="447.5" y="-573.61" font-family="Times,serif" font-size="14.00">20 x 1</text>
</g>
<g id="clust4" class="cluster">
<title>cluster20 x 4</title>
<path fill="none" stroke="black" d="M326,-443.86C326,-443.86 402,-443.86 402,-443.86 408,-443.86 414,-449.86 414,-455.86 414,-455.86 414,-545.81 414,-545.81 414,-551.81 408,-557.81 402,-557.81 402,-557.81 326,-557.81 326,-557.81 320,-557.81 314,-551.81 314,-545.81 314,-545.81 314,-455.86 314,-455.86 314,-449.86 320,-443.86 326,-443.86"/>
<text text-anchor="middle" x="388.5" y="-451.66" font-family="Times,serif" font-size="14.00">20 x 4</text>
</g>
<g id="clust5" class="cluster">
<title>cluster20 x 132</title>
<path fill="none" stroke="black" d="M208,-321.91C208,-321.91 284,-321.91 284,-321.91 290,-321.91 296,-327.91 296,-333.91 296,-333.91 296,-423.86 296,-423.86 296,-429.86 290,-435.86 284,-435.86 284,-435.86 208,-435.86 208,-435.86 202,-435.86 196,-429.86 196,-423.86 196,-423.86 196,-333.91 196,-333.91 196,-327.91 202,-321.91 208,-321.91"/>
<text text-anchor="middle" x="263.5" y="-329.71" font-family="Times,serif" font-size="14.00">20 x 132</text>
</g>
<!-- lfc -->
<g id="node1" class="node">
<title>lfc</title>
<path fill="lightgrey" stroke="black" d="M151,-92C151,-92 121,-92 121,-92 115,-92 109,-86 109,-80 109,-80 109,-51 109,-51 109,-45 115,-39 121,-39 121,-39 151,-39 151,-39 157,-39 163,-45 163,-51 163,-51 163,-80 163,-80 163,-86 157,-92 151,-92"/>
<text text-anchor="middle" x="136" y="-76.8" font-family="Times,serif" font-size="14.00">lfc</text>
<text text-anchor="middle" x="136" y="-61.8" font-family="Times,serif" font-size="14.00">~</text>
<text text-anchor="middle" x="136" y="-46.8" font-family="Times,serif" font-size="14.00">Data</text>
</g>
<!-- μ -->
<g id="node2" class="node">
<title>μ</title>
<polygon fill="none" stroke="black" points="179.5,-302.93 88.5,-302.93 88.5,-249.93 179.5,-249.93 179.5,-302.93"/>
<text text-anchor="middle" x="134" y="-287.73" font-family="Times,serif" font-size="14.00">μ</text>
<text text-anchor="middle" x="134" y="-272.73" font-family="Times,serif" font-size="14.00">~</text>
<text text-anchor="middle" x="134" y="-257.73" font-family="Times,serif" font-size="14.00">Deterministic</text>
</g>
<!-- y -->
<g id="node5" class="node">
<title>y</title>
<ellipse fill="lightgrey" stroke="black" cx="136" cy="-165.48" rx="41.94" ry="37.45"/>
<text text-anchor="middle" x="136" y="-176.78" font-family="Times,serif" font-size="14.00">y</text>
<text text-anchor="middle" x="136" y="-161.78" font-family="Times,serif" font-size="14.00">~</text>
<text text-anchor="middle" x="136" y="-146.78" font-family="Times,serif" font-size="14.00">Normal</text>
</g>
<!-- μ&#45;&gt;y -->
<g id="edge12" class="edge">
<title>μ&#45;&gt;y</title>
<path fill="none" stroke="black" d="M134.47,-249.89C134.67,-238.98 134.91,-225.89 135.14,-213.35"/>
<polygon fill="black" stroke="black" points="138.65,-213.06 135.33,-203 131.65,-212.94 138.65,-213.06"/>
</g>
<!-- gene_idx -->
<g id="node3" class="node">
<title>gene_idx</title>
<path fill="lightgrey" stroke="black" d="M167.5,-416.88C167.5,-416.88 126.5,-416.88 126.5,-416.88 120.5,-416.88 114.5,-410.88 114.5,-404.88 114.5,-404.88 114.5,-375.88 114.5,-375.88 114.5,-369.88 120.5,-363.88 126.5,-363.88 126.5,-363.88 167.5,-363.88 167.5,-363.88 173.5,-363.88 179.5,-369.88 179.5,-375.88 179.5,-375.88 179.5,-404.88 179.5,-404.88 179.5,-410.88 173.5,-416.88 167.5,-416.88"/>
<text text-anchor="middle" x="147" y="-401.68" font-family="Times,serif" font-size="14.00">gene_idx</text>
<text text-anchor="middle" x="147" y="-386.68" font-family="Times,serif" font-size="14.00">~</text>
<text text-anchor="middle" x="147" y="-371.68" font-family="Times,serif" font-size="14.00">Data</text>
</g>
<!-- gene_idx&#45;&gt;μ -->
<g id="edge11" class="edge">
<title>gene_idx&#45;&gt;μ</title>
<path fill="none" stroke="black" d="M144.02,-363.7C142.28,-348.77 140.07,-329.72 138.17,-313.32"/>
<polygon fill="black" stroke="black" points="141.6,-312.52 136.97,-302.99 134.65,-313.33 141.6,-312.52"/>
</g>
<!-- cellline_idx -->
<g id="node4" class="node">
<title>cellline_idx</title>
<path fill="lightgrey" stroke="black" d="M84,-416.88C84,-416.88 28,-416.88 28,-416.88 22,-416.88 16,-410.88 16,-404.88 16,-404.88 16,-375.88 16,-375.88 16,-369.88 22,-363.88 28,-363.88 28,-363.88 84,-363.88 84,-363.88 90,-363.88 96,-369.88 96,-375.88 96,-375.88 96,-404.88 96,-404.88 96,-410.88 90,-416.88 84,-416.88"/>
<text text-anchor="middle" x="56" y="-401.68" font-family="Times,serif" font-size="14.00">cellline_idx</text>
<text text-anchor="middle" x="56" y="-386.68" font-family="Times,serif" font-size="14.00">~</text>
<text text-anchor="middle" x="56" y="-371.68" font-family="Times,serif" font-size="14.00">Data</text>
</g>
<!-- cellline_idx&#45;&gt;μ -->
<g id="edge10" class="edge">
<title>cellline_idx&#45;&gt;μ</title>
<path fill="none" stroke="black" d="M73.89,-363.7C84.7,-348.2 98.59,-328.26 110.29,-311.46"/>
<polygon fill="black" stroke="black" points="113.34,-313.2 116.19,-302.99 107.6,-309.2 113.34,-313.2"/>
</g>
<!-- y&#45;&gt;lfc -->
<g id="edge1" class="edge">
<title>y&#45;&gt;lfc</title>
<path fill="none" stroke="black" d="M136,-127.99C136,-119.58 136,-110.63 136,-102.25"/>
<polygon fill="black" stroke="black" points="139.5,-102.01 136,-92.01 132.5,-102.01 139.5,-102.01"/>
</g>
<!-- cellline_to_lineage_idx -->
<g id="node6" class="node">
<title>cellline_to_lineage_idx</title>
<path fill="lightgrey" stroke="black" d="M157.5,-538.84C157.5,-538.84 38.5,-538.84 38.5,-538.84 32.5,-538.84 26.5,-532.84 26.5,-526.84 26.5,-526.84 26.5,-497.84 26.5,-497.84 26.5,-491.84 32.5,-485.84 38.5,-485.84 38.5,-485.84 157.5,-485.84 157.5,-485.84 163.5,-485.84 169.5,-491.84 169.5,-497.84 169.5,-497.84 169.5,-526.84 169.5,-526.84 169.5,-532.84 163.5,-538.84 157.5,-538.84"/>
<text text-anchor="middle" x="98" y="-523.64" font-family="Times,serif" font-size="14.00">cellline_to_lineage_idx</text>
<text text-anchor="middle" x="98" y="-508.64" font-family="Times,serif" font-size="14.00">~</text>
<text text-anchor="middle" x="98" y="-493.64" font-family="Times,serif" font-size="14.00">Data</text>
</g>
<!-- γ -->
<g id="node14" class="node">
<title>γ</title>
<ellipse fill="none" stroke="black" cx="246" cy="-390.38" rx="41.94" ry="37.45"/>
<text text-anchor="middle" x="246" y="-401.68" font-family="Times,serif" font-size="14.00">γ</text>
<text text-anchor="middle" x="246" y="-386.68" font-family="Times,serif" font-size="14.00">~</text>
<text text-anchor="middle" x="246" y="-371.68" font-family="Times,serif" font-size="14.00">Normal</text>
</g>
<!-- cellline_to_lineage_idx&#45;&gt;γ -->
<g id="edge8" class="edge">
<title>cellline_to_lineage_idx&#45;&gt;γ</title>
<path fill="none" stroke="black" d="M125.88,-485.66C140.81,-472.48 159.83,-456.56 178,-443.86 183.87,-439.76 186.1,-439.93 192,-435.86 197.51,-432.06 203.15,-427.83 208.6,-423.54"/>
<polygon fill="black" stroke="black" points="210.83,-426.25 216.43,-417.25 206.44,-420.79 210.83,-426.25"/>
</g>
<!-- μ_μ_μ_γ -->
<g id="node7" class="node">
<title>μ_μ_μ_γ</title>
<ellipse fill="none" stroke="black" cx="362" cy="-745.24" rx="45.92" ry="37.45"/>
<text text-anchor="middle" x="362" y="-756.54" font-family="Times,serif" font-size="14.00">μ_μ_μ_γ</text>
<text text-anchor="middle" x="362" y="-741.54" font-family="Times,serif" font-size="14.00">~</text>
<text text-anchor="middle" x="362" y="-726.54" font-family="Times,serif" font-size="14.00">Normal</text>
</g>
<!-- μ_μ_γ -->
<g id="node12" class="node">
<title>μ_μ_γ</title>
<ellipse fill="none" stroke="black" cx="423" cy="-634.29" rx="41.94" ry="37.45"/>
<text text-anchor="middle" x="423" y="-645.59" font-family="Times,serif" font-size="14.00">μ_μ_γ</text>
<text text-anchor="middle" x="423" y="-630.59" font-family="Times,serif" font-size="14.00">~</text>
<text text-anchor="middle" x="423" y="-615.59" font-family="Times,serif" font-size="14.00">Normal</text>
</g>
<!-- μ_μ_μ_γ&#45;&gt;μ_μ_γ -->
<g id="edge2" class="edge">
<title>μ_μ_μ_γ&#45;&gt;μ_μ_γ</title>
<path fill="none" stroke="black" d="M380.63,-710.96C386.66,-700.2 393.42,-688.12 399.74,-676.84"/>
<polygon fill="black" stroke="black" points="402.86,-678.43 404.69,-667.99 396.75,-675.01 402.86,-678.43"/>
</g>
<!-- σ_μ_γ -->
<g id="node8" class="node">
<title>σ_μ_γ</title>
<ellipse fill="none" stroke="black" cx="305" cy="-634.29" rx="58.88" ry="37.45"/>
<text text-anchor="middle" x="305" y="-645.59" font-family="Times,serif" font-size="14.00">σ_μ_γ</text>
<text text-anchor="middle" x="305" y="-630.59" font-family="Times,serif" font-size="14.00">~</text>
<text text-anchor="middle" x="305" y="-615.59" font-family="Times,serif" font-size="14.00">HalfNormal</text>
</g>
<!-- μ_γ -->
<g id="node13" class="node">
<title>μ_γ</title>
<ellipse fill="none" stroke="black" cx="364" cy="-512.34" rx="41.94" ry="37.45"/>
<text text-anchor="middle" x="364" y="-523.64" font-family="Times,serif" font-size="14.00">μ_γ</text>
<text text-anchor="middle" x="364" y="-508.64" font-family="Times,serif" font-size="14.00">~</text>
<text text-anchor="middle" x="364" y="-493.64" font-family="Times,serif" font-size="14.00">Normal</text>
</g>
<!-- σ_μ_γ&#45;&gt;μ_γ -->
<g id="edge4" class="edge">
<title>σ_μ_γ&#45;&gt;μ_γ</title>
<path fill="none" stroke="black" d="M322.22,-598.27C328.69,-585.12 336.12,-570.03 342.89,-556.25"/>
<polygon fill="black" stroke="black" points="346.19,-557.47 347.47,-546.95 339.91,-554.38 346.19,-557.47"/>
</g>
<!-- σ_μ_μ_γ -->
<g id="node9" class="node">
<title>σ_μ_μ_γ</title>
<ellipse fill="none" stroke="black" cx="485" cy="-745.24" rx="58.88" ry="37.45"/>
<text text-anchor="middle" x="485" y="-756.54" font-family="Times,serif" font-size="14.00">σ_μ_μ_γ</text>
<text text-anchor="middle" x="485" y="-741.54" font-family="Times,serif" font-size="14.00">~</text>
<text text-anchor="middle" x="485" y="-726.54" font-family="Times,serif" font-size="14.00">HalfNormal</text>
</g>
<!-- σ_μ_μ_γ&#45;&gt;μ_μ_γ -->
<g id="edge3" class="edge">
<title>σ_μ_μ_γ&#45;&gt;μ_μ_γ</title>
<path fill="none" stroke="black" d="M465.38,-709.77C459.45,-699.35 452.87,-687.79 446.71,-676.95"/>
<polygon fill="black" stroke="black" points="449.63,-675.01 441.64,-668.05 443.55,-678.48 449.63,-675.01"/>
</g>
<!-- σ -->
<g id="node10" class="node">
<title>σ</title>
<ellipse fill="none" stroke="black" cx="256" cy="-276.43" rx="58.88" ry="37.45"/>
<text text-anchor="middle" x="256" y="-287.73" font-family="Times,serif" font-size="14.00">σ</text>
<text text-anchor="middle" x="256" y="-272.73" font-family="Times,serif" font-size="14.00">~</text>
<text text-anchor="middle" x="256" y="-257.73" font-family="Times,serif" font-size="14.00">HalfNormal</text>
</g>
<!-- σ&#45;&gt;y -->
<g id="edge13" class="edge">
<title>σ&#45;&gt;y</title>
<path fill="none" stroke="black" d="M222.89,-245.37C207.27,-231.19 188.59,-214.22 172.55,-199.66"/>
<polygon fill="black" stroke="black" points="174.67,-196.86 164.92,-192.73 169.97,-202.05 174.67,-196.86"/>
</g>
<!-- σ_γ -->
<g id="node11" class="node">
<title>σ_γ</title>
<ellipse fill="none" stroke="black" cx="246" cy="-512.34" rx="58.88" ry="37.45"/>
<text text-anchor="middle" x="246" y="-523.64" font-family="Times,serif" font-size="14.00">σ_γ</text>
<text text-anchor="middle" x="246" y="-508.64" font-family="Times,serif" font-size="14.00">~</text>
<text text-anchor="middle" x="246" y="-493.64" font-family="Times,serif" font-size="14.00">HalfNormal</text>
</g>
<!-- σ_γ&#45;&gt;γ -->
<g id="edge7" class="edge">
<title>σ_γ&#45;&gt;γ</title>
<path fill="none" stroke="black" d="M246,-474.69C246,-463.29 246,-450.55 246,-438.54"/>
<polygon fill="black" stroke="black" points="249.5,-438.21 246,-428.21 242.5,-438.21 249.5,-438.21"/>
</g>
<!-- μ_μ_γ&#45;&gt;μ_γ -->
<g id="edge5" class="edge">
<title>μ_μ_γ&#45;&gt;μ_γ</title>
<path fill="none" stroke="black" d="M406.41,-599.56C399.75,-586.03 392.01,-570.28 384.97,-555.97"/>
<polygon fill="black" stroke="black" points="388.02,-554.24 380.47,-546.82 381.74,-557.33 388.02,-554.24"/>
</g>
<!-- μ_γ&#45;&gt;γ -->
<g id="edge6" class="edge">
<title>μ_γ&#45;&gt;γ</title>
<path fill="none" stroke="black" d="M343.28,-479.67C334.86,-467.85 324.62,-454.69 314,-443.86 305.76,-435.46 296.15,-427.25 286.78,-419.92"/>
<polygon fill="black" stroke="black" points="288.73,-417 278.66,-413.72 284.48,-422.57 288.73,-417"/>
</g>
<!-- γ&#45;&gt;μ -->
<g id="edge9" class="edge">
<title>γ&#45;&gt;μ</title>
<path fill="none" stroke="black" d="M223.81,-358.49C214.57,-346.52 203.36,-333.04 192,-321.91 187.7,-317.7 183.01,-313.52 178.21,-309.51"/>
<polygon fill="black" stroke="black" points="180.07,-306.51 170.09,-302.94 175.66,-311.95 180.07,-306.51"/>
</g>
</g>
</svg>
