<?xml version="1.0" encoding="UTF-8" standalone="no"?>
<!DOCTYPE svg PUBLIC "-//W3C//DTD SVG 1.1//EN"
 "http://www.w3.org/Graphics/SVG/1.1/DTD/svg11.dtd">
<!-- Generated by graphviz version 2.42.3 (20191010.1750)
 -->
<!-- Title: %3 Pages: 1 -->
<svg width="500pt" height="791pt"
 viewBox="0.00 0.00 499.96 790.72" xmlns="http://www.w3.org/2000/svg" xmlns:xlink="http://www.w3.org/1999/xlink">
<g id="graph0" class="graph" transform="scale(1 1) rotate(0) translate(4 786.72)">
<title>%3</title>
<polygon fill="white" stroke="transparent" points="-4,4 -4,-786.72 495.96,-786.72 495.96,4 -4,4"/>
<g id="clust1" class="cluster">
<title>cluster22,960</title>
<path fill="none" stroke="black" d="M60.96,-8C60.96,-8 216.96,-8 216.96,-8 222.96,-8 228.96,-14 228.96,-20 228.96,-20 228.96,-412.88 228.96,-412.88 228.96,-418.88 222.96,-424.88 216.96,-424.88 216.96,-424.88 60.96,-424.88 60.96,-424.88 54.96,-424.88 48.96,-418.88 48.96,-412.88 48.96,-412.88 48.96,-20 48.96,-20 48.96,-14 54.96,-8 60.96,-8"/>
<text text-anchor="middle" x="201.96" y="-15.8" font-family="Times,serif" font-size="14.00">22,960</text>
</g>
<g id="clust2" class="cluster">
<title>cluster132</title>
<path fill="none" stroke="black" d="M80.96,-454.84C80.96,-454.84 216.96,-454.84 216.96,-454.84 222.96,-454.84 228.96,-460.84 228.96,-466.84 228.96,-466.84 228.96,-534.84 228.96,-534.84 228.96,-540.84 222.96,-546.84 216.96,-546.84 216.96,-546.84 80.96,-546.84 80.96,-546.84 74.96,-546.84 68.96,-540.84 68.96,-534.84 68.96,-534.84 68.96,-466.84 68.96,-466.84 68.96,-460.84 74.96,-454.84 80.96,-454.84"/>
<text text-anchor="middle" x="210.46" y="-462.64" font-family="Times,serif" font-size="14.00">132</text>
</g>
<g id="clust3" class="cluster">
<title>cluster20 x 1</title>
<path fill="none" stroke="black" d="M130.96,-565.81C130.96,-565.81 341.96,-565.81 341.96,-565.81 347.96,-565.81 353.96,-571.81 353.96,-577.81 353.96,-577.81 353.96,-667.77 353.96,-667.77 353.96,-673.77 347.96,-679.77 341.96,-679.77 341.96,-679.77 130.96,-679.77 130.96,-679.77 124.96,-679.77 118.96,-673.77 118.96,-667.77 118.96,-667.77 118.96,-577.81 118.96,-577.81 118.96,-571.81 124.96,-565.81 130.96,-565.81"/>
<text text-anchor="middle" x="328.46" y="-573.61" font-family="Times,serif" font-size="14.00">20 x 1</text>
</g>
<g id="clust4" class="cluster">
<title>cluster20 x 4</title>
<path fill="none" stroke="black" d="M248.96,-443.86C248.96,-443.86 324.96,-443.86 324.96,-443.86 330.96,-443.86 336.96,-449.86 336.96,-455.86 336.96,-455.86 336.96,-545.81 336.96,-545.81 336.96,-551.81 330.96,-557.81 324.96,-557.81 324.96,-557.81 248.96,-557.81 248.96,-557.81 242.96,-557.81 236.96,-551.81 236.96,-545.81 236.96,-545.81 236.96,-455.86 236.96,-455.86 236.96,-449.86 242.96,-443.86 248.96,-443.86"/>
<text text-anchor="middle" x="311.46" y="-451.66" font-family="Times,serif" font-size="14.00">20 x 4</text>
</g>
<g id="clust5" class="cluster">
<title>cluster4</title>
<path fill="none" stroke="black" d="M361.96,-443.86C361.96,-443.86 471.96,-443.86 471.96,-443.86 477.96,-443.86 483.96,-449.86 483.96,-455.86 483.96,-455.86 483.96,-545.81 483.96,-545.81 483.96,-551.81 477.96,-557.81 471.96,-557.81 471.96,-557.81 361.96,-557.81 361.96,-557.81 355.96,-557.81 349.96,-551.81 349.96,-545.81 349.96,-545.81 349.96,-455.86 349.96,-455.86 349.96,-449.86 355.96,-443.86 361.96,-443.86"/>
<text text-anchor="middle" x="472.46" y="-451.66" font-family="Times,serif" font-size="14.00">4</text>
</g>
<g id="clust6" class="cluster">
<title>cluster20 x 132</title>
<path fill="none" stroke="black" d="M248.96,-321.91C248.96,-321.91 324.96,-321.91 324.96,-321.91 330.96,-321.91 336.96,-327.91 336.96,-333.91 336.96,-333.91 336.96,-423.86 336.96,-423.86 336.96,-429.86 330.96,-435.86 324.96,-435.86 324.96,-435.86 248.96,-435.86 248.96,-435.86 242.96,-435.86 236.96,-429.86 236.96,-423.86 236.96,-423.86 236.96,-333.91 236.96,-333.91 236.96,-327.91 242.96,-321.91 248.96,-321.91"/>
<text text-anchor="middle" x="304.46" y="-329.71" font-family="Times,serif" font-size="14.00">20 x 132</text>
</g>
<!-- cellline_idx -->
<g id="node1" class="node">
<title>cellline_idx</title>
<path fill="lightgrey" stroke="black" d="M208.96,-416.88C208.96,-416.88 152.96,-416.88 152.96,-416.88 146.96,-416.88 140.96,-410.88 140.96,-404.88 140.96,-404.88 140.96,-375.88 140.96,-375.88 140.96,-369.88 146.96,-363.88 152.96,-363.88 152.96,-363.88 208.96,-363.88 208.96,-363.88 214.96,-363.88 220.96,-369.88 220.96,-375.88 220.96,-375.88 220.96,-404.88 220.96,-404.88 220.96,-410.88 214.96,-416.88 208.96,-416.88"/>
<text text-anchor="middle" x="180.96" y="-401.68" font-family="Times,serif" font-size="14.00">cellline_idx</text>
<text text-anchor="middle" x="180.96" y="-386.68" font-family="Times,serif" font-size="14.00">~</text>
<text text-anchor="middle" x="180.96" y="-371.68" font-family="Times,serif" font-size="14.00">Data</text>
</g>
<!-- μ -->
<g id="node5" class="node">
<title>μ</title>
<polygon fill="none" stroke="black" points="220.46,-302.93 129.46,-302.93 129.46,-249.93 220.46,-249.93 220.46,-302.93"/>
<text text-anchor="middle" x="174.96" y="-287.73" font-family="Times,serif" font-size="14.00">μ</text>
<text text-anchor="middle" x="174.96" y="-272.73" font-family="Times,serif" font-size="14.00">~</text>
<text text-anchor="middle" x="174.96" y="-257.73" font-family="Times,serif" font-size="14.00">Deterministic</text>
</g>
<!-- cellline_idx&#45;&gt;μ -->
<g id="edge11" class="edge">
<title>cellline_idx&#45;&gt;μ</title>
<path fill="none" stroke="black" d="M179.59,-363.7C178.79,-348.77 177.76,-329.72 176.89,-313.32"/>
<polygon fill="black" stroke="black" points="180.36,-312.79 176.33,-302.99 173.37,-313.17 180.36,-312.79"/>
</g>
<!-- lfc -->
<g id="node2" class="node">
<title>lfc</title>
<path fill="lightgrey" stroke="black" d="M191.96,-92C191.96,-92 161.96,-92 161.96,-92 155.96,-92 149.96,-86 149.96,-80 149.96,-80 149.96,-51 149.96,-51 149.96,-45 155.96,-39 161.96,-39 161.96,-39 191.96,-39 191.96,-39 197.96,-39 203.96,-45 203.96,-51 203.96,-51 203.96,-80 203.96,-80 203.96,-86 197.96,-92 191.96,-92"/>
<text text-anchor="middle" x="176.96" y="-76.8" font-family="Times,serif" font-size="14.00">lfc</text>
<text text-anchor="middle" x="176.96" y="-61.8" font-family="Times,serif" font-size="14.00">~</text>
<text text-anchor="middle" x="176.96" y="-46.8" font-family="Times,serif" font-size="14.00">Data</text>
</g>
<!-- y -->
<g id="node3" class="node">
<title>y</title>
<ellipse fill="lightgrey" stroke="black" cx="176.96" cy="-165.48" rx="41.94" ry="37.45"/>
<text text-anchor="middle" x="176.96" y="-176.78" font-family="Times,serif" font-size="14.00">y</text>
<text text-anchor="middle" x="176.96" y="-161.78" font-family="Times,serif" font-size="14.00">~</text>
<text text-anchor="middle" x="176.96" y="-146.78" font-family="Times,serif" font-size="14.00">Normal</text>
</g>
<!-- y&#45;&gt;lfc -->
<g id="edge1" class="edge">
<title>y&#45;&gt;lfc</title>
<path fill="none" stroke="black" d="M176.96,-127.99C176.96,-119.58 176.96,-110.63 176.96,-102.25"/>
<polygon fill="black" stroke="black" points="180.46,-102.01 176.96,-92.01 173.46,-102.01 180.46,-102.01"/>
</g>
<!-- gene_idx -->
<g id="node4" class="node">
<title>gene_idx</title>
<path fill="lightgrey" stroke="black" d="M110.46,-416.88C110.46,-416.88 69.46,-416.88 69.46,-416.88 63.46,-416.88 57.46,-410.88 57.46,-404.88 57.46,-404.88 57.46,-375.88 57.46,-375.88 57.46,-369.88 63.46,-363.88 69.46,-363.88 69.46,-363.88 110.46,-363.88 110.46,-363.88 116.46,-363.88 122.46,-369.88 122.46,-375.88 122.46,-375.88 122.46,-404.88 122.46,-404.88 122.46,-410.88 116.46,-416.88 110.46,-416.88"/>
<text text-anchor="middle" x="89.96" y="-401.68" font-family="Times,serif" font-size="14.00">gene_idx</text>
<text text-anchor="middle" x="89.96" y="-386.68" font-family="Times,serif" font-size="14.00">~</text>
<text text-anchor="middle" x="89.96" y="-371.68" font-family="Times,serif" font-size="14.00">Data</text>
</g>
<!-- gene_idx&#45;&gt;μ -->
<g id="edge12" class="edge">
<title>gene_idx&#45;&gt;μ</title>
<path fill="none" stroke="black" d="M104.11,-363.86C111.75,-350.86 121.69,-335.07 131.96,-321.91 134.87,-318.19 138.04,-314.43 141.3,-310.77"/>
<polygon fill="black" stroke="black" points="143.88,-313.13 148.08,-303.41 138.73,-308.39 143.88,-313.13"/>
</g>
<!-- μ&#45;&gt;y -->
<g id="edge15" class="edge">
<title>μ&#45;&gt;y</title>
<path fill="none" stroke="black" d="M175.43,-249.89C175.63,-238.98 175.87,-225.89 176.1,-213.35"/>
<polygon fill="black" stroke="black" points="179.61,-213.06 176.29,-203 172.61,-212.94 179.61,-213.06"/>
</g>
<!-- cellline_to_lineage_idx -->
<g id="node6" class="node">
<title>cellline_to_lineage_idx</title>
<path fill="lightgrey" stroke="black" d="M208.46,-538.84C208.46,-538.84 89.46,-538.84 89.46,-538.84 83.46,-538.84 77.46,-532.84 77.46,-526.84 77.46,-526.84 77.46,-497.84 77.46,-497.84 77.46,-491.84 83.46,-485.84 89.46,-485.84 89.46,-485.84 208.46,-485.84 208.46,-485.84 214.46,-485.84 220.46,-491.84 220.46,-497.84 220.46,-497.84 220.46,-526.84 220.46,-526.84 220.46,-532.84 214.46,-538.84 208.46,-538.84"/>
<text text-anchor="middle" x="148.96" y="-523.64" font-family="Times,serif" font-size="14.00">cellline_to_lineage_idx</text>
<text text-anchor="middle" x="148.96" y="-508.64" font-family="Times,serif" font-size="14.00">~</text>
<text text-anchor="middle" x="148.96" y="-493.64" font-family="Times,serif" font-size="14.00">Data</text>
</g>
<!-- γ -->
<g id="node16" class="node">
<title>γ</title>
<ellipse fill="none" stroke="black" cx="286.96" cy="-390.38" rx="41.94" ry="37.45"/>
<text text-anchor="middle" x="286.96" y="-401.68" font-family="Times,serif" font-size="14.00">γ</text>
<text text-anchor="middle" x="286.96" y="-386.68" font-family="Times,serif" font-size="14.00">~</text>
<text text-anchor="middle" x="286.96" y="-371.68" font-family="Times,serif" font-size="14.00">Normal</text>
</g>
<!-- cellline_to_lineage_idx&#45;&gt;γ -->
<g id="edge8" class="edge">
<title>cellline_to_lineage_idx&#45;&gt;γ</title>
<path fill="none" stroke="black" d="M178.57,-485.6C199.39,-467.5 227.43,-443.13 249.76,-423.72"/>
<polygon fill="black" stroke="black" points="252.16,-426.28 257.41,-417.07 247.56,-420.99 252.16,-426.28"/>
</g>
<!-- σ -->
<g id="node7" class="node">
<title>σ</title>
<ellipse fill="none" stroke="black" cx="296.96" cy="-276.43" rx="58.88" ry="37.45"/>
<text text-anchor="middle" x="296.96" y="-287.73" font-family="Times,serif" font-size="14.00">σ</text>
<text text-anchor="middle" x="296.96" y="-272.73" font-family="Times,serif" font-size="14.00">~</text>
<text text-anchor="middle" x="296.96" y="-257.73" font-family="Times,serif" font-size="14.00">HalfNormal</text>
</g>
<!-- σ&#45;&gt;y -->
<g id="edge14" class="edge">
<title>σ&#45;&gt;y</title>
<path fill="none" stroke="black" d="M263.85,-245.37C248.23,-231.19 229.55,-214.22 213.51,-199.66"/>
<polygon fill="black" stroke="black" points="215.64,-196.86 205.88,-192.73 210.93,-202.05 215.64,-196.86"/>
</g>
<!-- μ_μ_μ_γ -->
<g id="node8" class="node">
<title>μ_μ_μ_γ</title>
<ellipse fill="none" stroke="black" cx="45.96" cy="-745.24" rx="45.92" ry="37.45"/>
<text text-anchor="middle" x="45.96" y="-756.54" font-family="Times,serif" font-size="14.00">μ_μ_μ_γ</text>
<text text-anchor="middle" x="45.96" y="-741.54" font-family="Times,serif" font-size="14.00">~</text>
<text text-anchor="middle" x="45.96" y="-726.54" font-family="Times,serif" font-size="14.00">Normal</text>
</g>
<!-- μ_μ_γ -->
<g id="node12" class="node">
<title>μ_μ_γ</title>
<ellipse fill="none" stroke="black" cx="168.96" cy="-634.29" rx="41.94" ry="37.45"/>
<text text-anchor="middle" x="168.96" y="-645.59" font-family="Times,serif" font-size="14.00">μ_μ_γ</text>
<text text-anchor="middle" x="168.96" y="-630.59" font-family="Times,serif" font-size="14.00">~</text>
<text text-anchor="middle" x="168.96" y="-615.59" font-family="Times,serif" font-size="14.00">Normal</text>
</g>
<!-- μ_μ_μ_γ&#45;&gt;μ_μ_γ -->
<g id="edge3" class="edge">
<title>μ_μ_μ_γ&#45;&gt;μ_μ_γ</title>
<path fill="none" stroke="black" d="M76.68,-717.03C93.34,-702.27 114.06,-683.92 131.65,-668.34"/>
<polygon fill="black" stroke="black" points="134.31,-670.66 139.48,-661.41 129.67,-665.42 134.31,-670.66"/>
</g>
<!-- σ_μ_μ_γ -->
<g id="node9" class="node">
<title>σ_μ_μ_γ</title>
<ellipse fill="none" stroke="black" cx="168.96" cy="-745.24" rx="58.88" ry="37.45"/>
<text text-anchor="middle" x="168.96" y="-756.54" font-family="Times,serif" font-size="14.00">σ_μ_μ_γ</text>
<text text-anchor="middle" x="168.96" y="-741.54" font-family="Times,serif" font-size="14.00">~</text>
<text text-anchor="middle" x="168.96" y="-726.54" font-family="Times,serif" font-size="14.00">HalfNormal</text>
</g>
<!-- σ_μ_μ_γ&#45;&gt;μ_μ_γ -->
<g id="edge2" class="edge">
<title>σ_μ_μ_γ&#45;&gt;μ_μ_γ</title>
<path fill="none" stroke="black" d="M168.96,-707.66C168.96,-699.49 168.96,-690.71 168.96,-682.18"/>
<polygon fill="black" stroke="black" points="172.46,-681.96 168.96,-671.96 165.46,-681.96 172.46,-681.96"/>
</g>
<!-- σ_σ_μ_γ -->
<g id="node10" class="node">
<title>σ_σ_μ_γ</title>
<ellipse fill="none" stroke="black" cx="303.96" cy="-745.24" rx="58.88" ry="37.45"/>
<text text-anchor="middle" x="303.96" y="-756.54" font-family="Times,serif" font-size="14.00">σ_σ_μ_γ</text>
<text text-anchor="middle" x="303.96" y="-741.54" font-family="Times,serif" font-size="14.00">~</text>
<text text-anchor="middle" x="303.96" y="-726.54" font-family="Times,serif" font-size="14.00">HalfNormal</text>
</g>
<!-- σ_μ_γ -->
<g id="node13" class="node">
<title>σ_μ_γ</title>
<ellipse fill="none" stroke="black" cx="286.96" cy="-634.29" rx="58.88" ry="37.45"/>
<text text-anchor="middle" x="286.96" y="-645.59" font-family="Times,serif" font-size="14.00">σ_μ_γ</text>
<text text-anchor="middle" x="286.96" y="-630.59" font-family="Times,serif" font-size="14.00">~</text>
<text text-anchor="middle" x="286.96" y="-615.59" font-family="Times,serif" font-size="14.00">HalfNormal</text>
</g>
<!-- σ_σ_μ_γ&#45;&gt;σ_μ_γ -->
<g id="edge4" class="edge">
<title>σ_σ_μ_γ&#45;&gt;σ_μ_γ</title>
<path fill="none" stroke="black" d="M298.25,-707.66C296.96,-699.4 295.58,-690.51 294.23,-681.9"/>
<polygon fill="black" stroke="black" points="297.68,-681.3 292.68,-671.96 290.77,-682.38 297.68,-681.3"/>
</g>
<!-- σ_σ_γ -->
<g id="node11" class="node">
<title>σ_σ_γ</title>
<ellipse fill="none" stroke="black" cx="421.96" cy="-634.29" rx="58.88" ry="37.45"/>
<text text-anchor="middle" x="421.96" y="-645.59" font-family="Times,serif" font-size="14.00">σ_σ_γ</text>
<text text-anchor="middle" x="421.96" y="-630.59" font-family="Times,serif" font-size="14.00">~</text>
<text text-anchor="middle" x="421.96" y="-615.59" font-family="Times,serif" font-size="14.00">HalfNormal</text>
</g>
<!-- σ_γ -->
<g id="node15" class="node">
<title>σ_γ</title>
<ellipse fill="none" stroke="black" cx="416.96" cy="-512.34" rx="58.88" ry="37.45"/>
<text text-anchor="middle" x="416.96" y="-523.64" font-family="Times,serif" font-size="14.00">σ_γ</text>
<text text-anchor="middle" x="416.96" y="-508.64" font-family="Times,serif" font-size="14.00">~</text>
<text text-anchor="middle" x="416.96" y="-493.64" font-family="Times,serif" font-size="14.00">HalfNormal</text>
</g>
<!-- σ_σ_γ&#45;&gt;σ_γ -->
<g id="edge7" class="edge">
<title>σ_σ_γ&#45;&gt;σ_γ</title>
<path fill="none" stroke="black" d="M420.43,-596.65C419.96,-585.24 419.43,-572.51 418.93,-560.49"/>
<polygon fill="black" stroke="black" points="422.41,-560.01 418.5,-550.17 415.42,-560.3 422.41,-560.01"/>
</g>
<!-- μ_γ -->
<g id="node14" class="node">
<title>μ_γ</title>
<ellipse fill="none" stroke="black" cx="286.96" cy="-512.34" rx="41.94" ry="37.45"/>
<text text-anchor="middle" x="286.96" y="-523.64" font-family="Times,serif" font-size="14.00">μ_γ</text>
<text text-anchor="middle" x="286.96" y="-508.64" font-family="Times,serif" font-size="14.00">~</text>
<text text-anchor="middle" x="286.96" y="-493.64" font-family="Times,serif" font-size="14.00">Normal</text>
</g>
<!-- μ_μ_γ&#45;&gt;μ_γ -->
<g id="edge5" class="edge">
<title>μ_μ_γ&#45;&gt;μ_γ</title>
<path fill="none" stroke="black" d="M188.68,-601.17C197.05,-589.16 207.51,-575.98 218.96,-565.81 224.32,-561.05 227.06,-561.88 232.96,-557.81 238.47,-554.01 244.11,-549.79 249.56,-545.5"/>
<polygon fill="black" stroke="black" points="251.79,-548.2 257.39,-539.21 247.41,-542.74 251.79,-548.2"/>
</g>
<!-- σ_μ_γ&#45;&gt;μ_γ -->
<g id="edge6" class="edge">
<title>σ_μ_γ&#45;&gt;μ_γ</title>
<path fill="none" stroke="black" d="M286.96,-596.65C286.96,-585.24 286.96,-572.51 286.96,-560.49"/>
<polygon fill="black" stroke="black" points="290.46,-560.17 286.96,-550.17 283.46,-560.17 290.46,-560.17"/>
</g>
<!-- μ_γ&#45;&gt;γ -->
<g id="edge9" class="edge">
<title>μ_γ&#45;&gt;γ</title>
<path fill="none" stroke="black" d="M286.96,-474.69C286.96,-463.29 286.96,-450.55 286.96,-438.54"/>
<polygon fill="black" stroke="black" points="290.46,-438.21 286.96,-428.21 283.46,-438.21 290.46,-438.21"/>
</g>
<!-- σ_γ&#45;&gt;γ -->
<g id="edge10" class="edge">
<title>σ_γ&#45;&gt;γ</title>
<path fill="none" stroke="black" d="M384.16,-481.07C365.56,-463.91 342.27,-442.42 323.15,-424.77"/>
<polygon fill="black" stroke="black" points="325.5,-422.18 315.77,-417.97 320.75,-427.32 325.5,-422.18"/>
</g>
<!-- γ&#45;&gt;μ -->
<g id="edge13" class="edge">
<title>γ&#45;&gt;μ</title>
<path fill="none" stroke="black" d="M264.77,-358.49C255.53,-346.52 244.32,-333.04 232.96,-321.91 228.66,-317.7 223.97,-313.52 219.17,-309.51"/>
<polygon fill="black" stroke="black" points="221.03,-306.51 211.05,-302.94 216.63,-311.95 221.03,-306.51"/>
</g>
</g>
</svg>
