<?xml version="1.0" encoding="UTF-8" standalone="no"?>
<!DOCTYPE svg PUBLIC "-//W3C//DTD SVG 1.1//EN"
 "http://www.w3.org/Graphics/SVG/1.1/DTD/svg11.dtd">
<!-- Generated by graphviz version 2.47.0 (20210327.0129)
 -->
<!-- Pages: 1 -->
<svg width="577pt" height="469pt"
 viewBox="0.00 0.00 576.79 468.81" xmlns="http://www.w3.org/2000/svg" xmlns:xlink="http://www.w3.org/1999/xlink">
<g id="graph0" class="graph" transform="scale(1 1) rotate(0) translate(4 464.81)">
<polygon fill="white" stroke="transparent" points="-4,4 -4,-464.81 572.79,-464.81 572.79,4 -4,4"/>
<g id="clust1" class="cluster">
<title>cluster64 x 10</title>
<path fill="none" stroke="black" d="M296.79,-243.91C296.79,-243.91 386.79,-243.91 386.79,-243.91 392.79,-243.91 398.79,-249.91 398.79,-255.91 398.79,-255.91 398.79,-345.86 398.79,-345.86 398.79,-351.86 392.79,-357.86 386.79,-357.86 386.79,-357.86 296.79,-357.86 296.79,-357.86 290.79,-357.86 284.79,-351.86 284.79,-345.86 284.79,-345.86 284.79,-255.91 284.79,-255.91 284.79,-249.91 290.79,-243.91 296.79,-243.91"/>
<text text-anchor="middle" x="363.79" y="-251.71" font-family="Times-Roman" font-size="14.00">64 x 10</text>
</g>
<g id="clust2" class="cluster">
<title>cluster4</title>
<path fill="none" stroke="black" d="M139.79,-243.91C139.79,-243.91 229.79,-243.91 229.79,-243.91 235.79,-243.91 241.79,-249.91 241.79,-255.91 241.79,-255.91 241.79,-345.86 241.79,-345.86 241.79,-351.86 235.79,-357.86 229.79,-357.86 229.79,-357.86 139.79,-357.86 139.79,-357.86 133.79,-357.86 127.79,-351.86 127.79,-345.86 127.79,-345.86 127.79,-255.91 127.79,-255.91 127.79,-249.91 133.79,-243.91 139.79,-243.91"/>
<text text-anchor="middle" x="228.79" y="-251.71" font-family="Times-Roman" font-size="14.00">4</text>
</g>
<g id="clust3" class="cluster">
<title>cluster1,443</title>
<path fill="none" stroke="black" d="M282.79,-8C282.79,-8 386.79,-8 386.79,-8 392.79,-8 398.79,-14 398.79,-20 398.79,-20 398.79,-212.93 398.79,-212.93 398.79,-218.93 392.79,-224.93 386.79,-224.93 386.79,-224.93 282.79,-224.93 282.79,-224.93 276.79,-224.93 270.79,-218.93 270.79,-212.93 270.79,-212.93 270.79,-20 270.79,-20 270.79,-14 276.79,-8 282.79,-8"/>
<text text-anchor="middle" x="370.29" y="-15.8" font-family="Times-Roman" font-size="14.00">1,443</text>
</g>
<g id="clust4" class="cluster">
<title>cluster192</title>
<path fill="none" stroke="black" d="M418.79,-121.95C418.79,-121.95 548.79,-121.95 548.79,-121.95 554.79,-121.95 560.79,-127.95 560.79,-133.95 560.79,-133.95 560.79,-223.91 560.79,-223.91 560.79,-229.91 554.79,-235.91 548.79,-235.91 548.79,-235.91 418.79,-235.91 418.79,-235.91 412.79,-235.91 406.79,-229.91 406.79,-223.91 406.79,-223.91 406.79,-133.95 406.79,-133.95 406.79,-127.95 412.79,-121.95 418.79,-121.95"/>
<text text-anchor="middle" x="538.79" y="-129.75" font-family="Times-Roman" font-size="14.00">192</text>
</g>
<!-- μ_η -->
<g id="node1" class="node">
<title>μ_η</title>
<ellipse fill="none" stroke="black" cx="48.79" cy="-423.34" rx="48.58" ry="37.45"/>
<text text-anchor="middle" x="48.79" y="-434.64" font-family="Times-Roman" font-size="14.00">μ_η</text>
<text text-anchor="middle" x="48.79" y="-419.64" font-family="Times-Roman" font-size="14.00">~</text>
<text text-anchor="middle" x="48.79" y="-404.64" font-family="Times-Roman" font-size="14.00">Normal</text>
</g>
<!-- η -->
<g id="node7" class="node">
<title>η</title>
<ellipse fill="none" stroke="black" cx="184.79" cy="-312.38" rx="48.58" ry="37.45"/>
<text text-anchor="middle" x="184.79" y="-323.68" font-family="Times-Roman" font-size="14.00">η</text>
<text text-anchor="middle" x="184.79" y="-308.68" font-family="Times-Roman" font-size="14.00">~</text>
<text text-anchor="middle" x="184.79" y="-293.68" font-family="Times-Roman" font-size="14.00">Normal</text>
</g>
<!-- μ_η&#45;&gt;η -->
<g id="edge3" class="edge">
<title>μ_η&#45;&gt;η</title>
<path fill="none" stroke="black" d="M82.06,-395.68C100.58,-380.84 123.81,-362.24 143.48,-346.48"/>
<polygon fill="black" stroke="black" points="145.78,-349.12 151.39,-340.14 141.4,-343.66 145.78,-349.12"/>
</g>
<!-- σ_α -->
<g id="node2" class="node">
<title>σ_α</title>
<ellipse fill="none" stroke="black" cx="341.79" cy="-423.34" rx="69.09" ry="37.45"/>
<text text-anchor="middle" x="341.79" y="-434.64" font-family="Times-Roman" font-size="14.00">σ_α</text>
<text text-anchor="middle" x="341.79" y="-419.64" font-family="Times-Roman" font-size="14.00">~</text>
<text text-anchor="middle" x="341.79" y="-404.64" font-family="Times-Roman" font-size="14.00">HalfNormal</text>
</g>
<!-- α -->
<g id="node6" class="node">
<title>α</title>
<ellipse fill="none" stroke="black" cx="341.79" cy="-312.38" rx="48.58" ry="37.45"/>
<text text-anchor="middle" x="341.79" y="-323.68" font-family="Times-Roman" font-size="14.00">α</text>
<text text-anchor="middle" x="341.79" y="-308.68" font-family="Times-Roman" font-size="14.00">~</text>
<text text-anchor="middle" x="341.79" y="-293.68" font-family="Times-Roman" font-size="14.00">Normal</text>
</g>
<!-- σ_α&#45;&gt;α -->
<g id="edge2" class="edge">
<title>σ_α&#45;&gt;α</title>
<path fill="none" stroke="black" d="M341.79,-385.75C341.79,-377.58 341.79,-368.8 341.79,-360.27"/>
<polygon fill="black" stroke="black" points="345.29,-360.06 341.79,-350.06 338.29,-360.06 345.29,-360.06"/>
</g>
<!-- μ_α -->
<g id="node3" class="node">
<title>μ_α</title>
<ellipse fill="none" stroke="black" cx="477.79" cy="-423.34" rx="48.58" ry="37.45"/>
<text text-anchor="middle" x="477.79" y="-434.64" font-family="Times-Roman" font-size="14.00">μ_α</text>
<text text-anchor="middle" x="477.79" y="-419.64" font-family="Times-Roman" font-size="14.00">~</text>
<text text-anchor="middle" x="477.79" y="-404.64" font-family="Times-Roman" font-size="14.00">Normal</text>
</g>
<!-- μ_α&#45;&gt;α -->
<g id="edge1" class="edge">
<title>μ_α&#45;&gt;α</title>
<path fill="none" stroke="black" d="M444.52,-395.68C426,-380.84 402.78,-362.24 383.1,-346.48"/>
<polygon fill="black" stroke="black" points="385.18,-343.66 375.19,-340.14 380.8,-349.12 385.18,-343.66"/>
</g>
<!-- σ_σ -->
<g id="node4" class="node">
<title>σ_σ</title>
<ellipse fill="none" stroke="black" cx="483.79" cy="-312.38" rx="69.09" ry="37.45"/>
<text text-anchor="middle" x="483.79" y="-323.68" font-family="Times-Roman" font-size="14.00">σ_σ</text>
<text text-anchor="middle" x="483.79" y="-308.68" font-family="Times-Roman" font-size="14.00">~</text>
<text text-anchor="middle" x="483.79" y="-293.68" font-family="Times-Roman" font-size="14.00">HalfNormal</text>
</g>
<!-- σ -->
<g id="node10" class="node">
<title>σ</title>
<ellipse fill="none" stroke="black" cx="483.79" cy="-190.43" rx="69.09" ry="37.45"/>
<text text-anchor="middle" x="483.79" y="-201.73" font-family="Times-Roman" font-size="14.00">σ</text>
<text text-anchor="middle" x="483.79" y="-186.73" font-family="Times-Roman" font-size="14.00">~</text>
<text text-anchor="middle" x="483.79" y="-171.73" font-family="Times-Roman" font-size="14.00">HalfNormal</text>
</g>
<!-- σ_σ&#45;&gt;σ -->
<g id="edge7" class="edge">
<title>σ_σ&#45;&gt;σ</title>
<path fill="none" stroke="black" d="M483.79,-274.74C483.79,-263.34 483.79,-250.6 483.79,-238.58"/>
<polygon fill="black" stroke="black" points="487.29,-238.26 483.79,-228.26 480.29,-238.26 487.29,-238.26"/>
</g>
<!-- σ_η -->
<g id="node5" class="node">
<title>σ_η</title>
<ellipse fill="none" stroke="black" cx="184.79" cy="-423.34" rx="69.09" ry="37.45"/>
<text text-anchor="middle" x="184.79" y="-434.64" font-family="Times-Roman" font-size="14.00">σ_η</text>
<text text-anchor="middle" x="184.79" y="-419.64" font-family="Times-Roman" font-size="14.00">~</text>
<text text-anchor="middle" x="184.79" y="-404.64" font-family="Times-Roman" font-size="14.00">HalfNormal</text>
</g>
<!-- σ_η&#45;&gt;η -->
<g id="edge4" class="edge">
<title>σ_η&#45;&gt;η</title>
<path fill="none" stroke="black" d="M184.79,-385.75C184.79,-377.58 184.79,-368.8 184.79,-360.27"/>
<polygon fill="black" stroke="black" points="188.29,-360.06 184.79,-350.06 181.29,-360.06 188.29,-360.06"/>
</g>
<!-- μ -->
<g id="node9" class="node">
<title>μ</title>
<polygon fill="none" stroke="black" points="390.79,-216.93 278.79,-216.93 278.79,-163.93 390.79,-163.93 390.79,-216.93"/>
<text text-anchor="middle" x="334.79" y="-201.73" font-family="Times-Roman" font-size="14.00">μ</text>
<text text-anchor="middle" x="334.79" y="-186.73" font-family="Times-Roman" font-size="14.00">~</text>
<text text-anchor="middle" x="334.79" y="-171.73" font-family="Times-Roman" font-size="14.00">Deterministic</text>
</g>
<!-- α&#45;&gt;μ -->
<g id="edge5" class="edge">
<title>α&#45;&gt;μ</title>
<path fill="none" stroke="black" d="M339.65,-274.74C338.78,-259.77 337.77,-242.51 336.9,-227.59"/>
<polygon fill="black" stroke="black" points="340.37,-226.98 336.29,-217.2 333.38,-227.39 340.37,-226.98"/>
</g>
<!-- η&#45;&gt;μ -->
<g id="edge6" class="edge">
<title>η&#45;&gt;μ</title>
<path fill="none" stroke="black" d="M218.08,-284.76C240.8,-266.59 271.01,-242.43 295,-223.25"/>
<polygon fill="black" stroke="black" points="297.25,-225.93 302.88,-216.95 292.88,-220.46 297.25,-225.93"/>
</g>
<!-- lfc -->
<g id="node8" class="node">
<title>lfc</title>
<ellipse fill="lightgrey" stroke="black" cx="337.79" cy="-76.48" rx="48.58" ry="37.45"/>
<text text-anchor="middle" x="337.79" y="-87.78" font-family="Times-Roman" font-size="14.00">lfc</text>
<text text-anchor="middle" x="337.79" y="-72.78" font-family="Times-Roman" font-size="14.00">~</text>
<text text-anchor="middle" x="337.79" y="-57.78" font-family="Times-Roman" font-size="14.00">Normal</text>
</g>
<!-- μ&#45;&gt;lfc -->
<g id="edge9" class="edge">
<title>μ&#45;&gt;lfc</title>
<path fill="none" stroke="black" d="M335.48,-163.75C335.79,-152.02 336.18,-137.75 336.54,-124.22"/>
<polygon fill="black" stroke="black" points="340.04,-124.16 336.81,-114.07 333.04,-123.98 340.04,-124.16"/>
</g>
<!-- σ&#45;&gt;lfc -->
<g id="edge8" class="edge">
<title>σ&#45;&gt;lfc</title>
<path fill="none" stroke="black" d="M447.69,-158.12C433.88,-146.47 417.83,-133.32 402.79,-121.95 396.42,-117.14 389.58,-112.21 382.81,-107.47"/>
<polygon fill="black" stroke="black" points="384.53,-104.4 374.32,-101.58 380.55,-110.15 384.53,-104.4"/>
</g>
</g>
</svg>
