<?xml version="1.0" encoding="UTF-8" standalone="no"?>
<!DOCTYPE svg PUBLIC "-//W3C//DTD SVG 1.1//EN"
 "http://www.w3.org/Graphics/SVG/1.1/DTD/svg11.dtd">
<!-- Generated by graphviz version 2.47.0 (20210327.0129)
 -->
<!-- Pages: 1 -->
<svg width="576pt" height="469pt"
 viewBox="0.00 0.00 576.30 468.81" xmlns="http://www.w3.org/2000/svg" xmlns:xlink="http://www.w3.org/1999/xlink">
<g id="graph0" class="graph" transform="scale(1 1) rotate(0) translate(4 464.81)">
<polygon fill="white" stroke="transparent" points="-4,4 -4,-464.81 572.3,-464.81 572.3,4 -4,4"/>
<g id="clust1" class="cluster">
<title>cluster64 x 10</title>
<path fill="none" stroke="black" d="M296.3,-243.91C296.3,-243.91 386.3,-243.91 386.3,-243.91 392.3,-243.91 398.3,-249.91 398.3,-255.91 398.3,-255.91 398.3,-345.86 398.3,-345.86 398.3,-351.86 392.3,-357.86 386.3,-357.86 386.3,-357.86 296.3,-357.86 296.3,-357.86 290.3,-357.86 284.3,-351.86 284.3,-345.86 284.3,-345.86 284.3,-255.91 284.3,-255.91 284.3,-249.91 290.3,-243.91 296.3,-243.91"/>
<text text-anchor="middle" x="363.3" y="-251.71" font-family="Times-Roman" font-size="14.00">64 x 10</text>
</g>
<g id="clust2" class="cluster">
<title>cluster4</title>
<path fill="none" stroke="black" d="M160.3,-243.91C160.3,-243.91 250.3,-243.91 250.3,-243.91 256.3,-243.91 262.3,-249.91 262.3,-255.91 262.3,-255.91 262.3,-345.86 262.3,-345.86 262.3,-351.86 256.3,-357.86 250.3,-357.86 250.3,-357.86 160.3,-357.86 160.3,-357.86 154.3,-357.86 148.3,-351.86 148.3,-345.86 148.3,-345.86 148.3,-255.91 148.3,-255.91 148.3,-249.91 154.3,-243.91 160.3,-243.91"/>
<text text-anchor="middle" x="249.3" y="-251.71" font-family="Times-Roman" font-size="14.00">4</text>
</g>
<g id="clust3" class="cluster">
<title>cluster1,443</title>
<path fill="none" stroke="black" d="M282.3,-8C282.3,-8 386.3,-8 386.3,-8 392.3,-8 398.3,-14 398.3,-20 398.3,-20 398.3,-212.93 398.3,-212.93 398.3,-218.93 392.3,-224.93 386.3,-224.93 386.3,-224.93 282.3,-224.93 282.3,-224.93 276.3,-224.93 270.3,-218.93 270.3,-212.93 270.3,-212.93 270.3,-20 270.3,-20 270.3,-14 276.3,-8 282.3,-8"/>
<text text-anchor="middle" x="369.8" y="-15.8" font-family="Times-Roman" font-size="14.00">1,443</text>
</g>
<g id="clust4" class="cluster">
<title>cluster192</title>
<path fill="none" stroke="black" d="M418.3,-121.95C418.3,-121.95 548.3,-121.95 548.3,-121.95 554.3,-121.95 560.3,-127.95 560.3,-133.95 560.3,-133.95 560.3,-223.91 560.3,-223.91 560.3,-229.91 554.3,-235.91 548.3,-235.91 548.3,-235.91 418.3,-235.91 418.3,-235.91 412.3,-235.91 406.3,-229.91 406.3,-223.91 406.3,-223.91 406.3,-133.95 406.3,-133.95 406.3,-127.95 412.3,-121.95 418.3,-121.95"/>
<text text-anchor="middle" x="538.3" y="-129.75" font-family="Times-Roman" font-size="14.00">192</text>
</g>
<!-- σ_η -->
<g id="node1" class="node">
<title>σ_η</title>
<ellipse fill="none" stroke="black" cx="69.3" cy="-423.34" rx="69.09" ry="37.45"/>
<text text-anchor="middle" x="69.3" y="-434.64" font-family="Times-Roman" font-size="14.00">σ_η</text>
<text text-anchor="middle" x="69.3" y="-419.64" font-family="Times-Roman" font-size="14.00">~</text>
<text text-anchor="middle" x="69.3" y="-404.64" font-family="Times-Roman" font-size="14.00">HalfNormal</text>
</g>
<!-- η -->
<g id="node7" class="node">
<title>η</title>
<ellipse fill="none" stroke="black" cx="205.3" cy="-312.38" rx="48.58" ry="37.45"/>
<text text-anchor="middle" x="205.3" y="-323.68" font-family="Times-Roman" font-size="14.00">η</text>
<text text-anchor="middle" x="205.3" y="-308.68" font-family="Times-Roman" font-size="14.00">~</text>
<text text-anchor="middle" x="205.3" y="-293.68" font-family="Times-Roman" font-size="14.00">Normal</text>
</g>
<!-- σ_η&#45;&gt;η -->
<g id="edge3" class="edge">
<title>σ_η&#45;&gt;η</title>
<path fill="none" stroke="black" d="M107.54,-391.7C125.12,-377.62 146,-360.89 163.94,-346.51"/>
<polygon fill="black" stroke="black" points="166.34,-349.08 171.96,-340.09 161.97,-343.61 166.34,-349.08"/>
</g>
<!-- σ_α -->
<g id="node2" class="node">
<title>σ_α</title>
<ellipse fill="none" stroke="black" cx="341.3" cy="-423.34" rx="69.09" ry="37.45"/>
<text text-anchor="middle" x="341.3" y="-434.64" font-family="Times-Roman" font-size="14.00">σ_α</text>
<text text-anchor="middle" x="341.3" y="-419.64" font-family="Times-Roman" font-size="14.00">~</text>
<text text-anchor="middle" x="341.3" y="-404.64" font-family="Times-Roman" font-size="14.00">HalfNormal</text>
</g>
<!-- α -->
<g id="node6" class="node">
<title>α</title>
<ellipse fill="none" stroke="black" cx="341.3" cy="-312.38" rx="48.58" ry="37.45"/>
<text text-anchor="middle" x="341.3" y="-323.68" font-family="Times-Roman" font-size="14.00">α</text>
<text text-anchor="middle" x="341.3" y="-308.68" font-family="Times-Roman" font-size="14.00">~</text>
<text text-anchor="middle" x="341.3" y="-293.68" font-family="Times-Roman" font-size="14.00">Normal</text>
</g>
<!-- σ_α&#45;&gt;α -->
<g id="edge1" class="edge">
<title>σ_α&#45;&gt;α</title>
<path fill="none" stroke="black" d="M341.3,-385.75C341.3,-377.58 341.3,-368.8 341.3,-360.27"/>
<polygon fill="black" stroke="black" points="344.8,-360.06 341.3,-350.06 337.8,-360.06 344.8,-360.06"/>
</g>
<!-- μ_α -->
<g id="node3" class="node">
<title>μ_α</title>
<ellipse fill="none" stroke="black" cx="477.3" cy="-423.34" rx="48.58" ry="37.45"/>
<text text-anchor="middle" x="477.3" y="-434.64" font-family="Times-Roman" font-size="14.00">μ_α</text>
<text text-anchor="middle" x="477.3" y="-419.64" font-family="Times-Roman" font-size="14.00">~</text>
<text text-anchor="middle" x="477.3" y="-404.64" font-family="Times-Roman" font-size="14.00">Normal</text>
</g>
<!-- μ_α&#45;&gt;α -->
<g id="edge2" class="edge">
<title>μ_α&#45;&gt;α</title>
<path fill="none" stroke="black" d="M444.03,-395.68C425.5,-380.84 402.28,-362.24 382.6,-346.48"/>
<polygon fill="black" stroke="black" points="384.69,-343.66 374.69,-340.14 380.31,-349.12 384.69,-343.66"/>
</g>
<!-- μ_η -->
<g id="node4" class="node">
<title>μ_η</title>
<ellipse fill="none" stroke="black" cx="205.3" cy="-423.34" rx="48.58" ry="37.45"/>
<text text-anchor="middle" x="205.3" y="-434.64" font-family="Times-Roman" font-size="14.00">μ_η</text>
<text text-anchor="middle" x="205.3" y="-419.64" font-family="Times-Roman" font-size="14.00">~</text>
<text text-anchor="middle" x="205.3" y="-404.64" font-family="Times-Roman" font-size="14.00">Normal</text>
</g>
<!-- μ_η&#45;&gt;η -->
<g id="edge4" class="edge">
<title>μ_η&#45;&gt;η</title>
<path fill="none" stroke="black" d="M205.3,-385.75C205.3,-377.58 205.3,-368.8 205.3,-360.27"/>
<polygon fill="black" stroke="black" points="208.8,-360.06 205.3,-350.06 201.8,-360.06 208.8,-360.06"/>
</g>
<!-- σ_σ -->
<g id="node5" class="node">
<title>σ_σ</title>
<ellipse fill="none" stroke="black" cx="483.3" cy="-312.38" rx="69.09" ry="37.45"/>
<text text-anchor="middle" x="483.3" y="-323.68" font-family="Times-Roman" font-size="14.00">σ_σ</text>
<text text-anchor="middle" x="483.3" y="-308.68" font-family="Times-Roman" font-size="14.00">~</text>
<text text-anchor="middle" x="483.3" y="-293.68" font-family="Times-Roman" font-size="14.00">HalfNormal</text>
</g>
<!-- σ -->
<g id="node10" class="node">
<title>σ</title>
<ellipse fill="none" stroke="black" cx="483.3" cy="-190.43" rx="69.09" ry="37.45"/>
<text text-anchor="middle" x="483.3" y="-201.73" font-family="Times-Roman" font-size="14.00">σ</text>
<text text-anchor="middle" x="483.3" y="-186.73" font-family="Times-Roman" font-size="14.00">~</text>
<text text-anchor="middle" x="483.3" y="-171.73" font-family="Times-Roman" font-size="14.00">HalfNormal</text>
</g>
<!-- σ_σ&#45;&gt;σ -->
<g id="edge7" class="edge">
<title>σ_σ&#45;&gt;σ</title>
<path fill="none" stroke="black" d="M483.3,-274.74C483.3,-263.34 483.3,-250.6 483.3,-238.58"/>
<polygon fill="black" stroke="black" points="486.8,-238.26 483.3,-228.26 479.8,-238.26 486.8,-238.26"/>
</g>
<!-- μ -->
<g id="node8" class="node">
<title>μ</title>
<polygon fill="none" stroke="black" points="390.3,-216.93 278.3,-216.93 278.3,-163.93 390.3,-163.93 390.3,-216.93"/>
<text text-anchor="middle" x="334.3" y="-201.73" font-family="Times-Roman" font-size="14.00">μ</text>
<text text-anchor="middle" x="334.3" y="-186.73" font-family="Times-Roman" font-size="14.00">~</text>
<text text-anchor="middle" x="334.3" y="-171.73" font-family="Times-Roman" font-size="14.00">Deterministic</text>
</g>
<!-- α&#45;&gt;μ -->
<g id="edge5" class="edge">
<title>α&#45;&gt;μ</title>
<path fill="none" stroke="black" d="M339.16,-274.74C338.28,-259.77 337.28,-242.51 336.41,-227.59"/>
<polygon fill="black" stroke="black" points="339.88,-226.98 335.8,-217.2 332.89,-227.39 339.88,-226.98"/>
</g>
<!-- η&#45;&gt;μ -->
<g id="edge6" class="edge">
<title>η&#45;&gt;μ</title>
<path fill="none" stroke="black" d="M235.87,-282.96C254.89,-265.26 279.43,-242.45 299.24,-224.03"/>
<polygon fill="black" stroke="black" points="301.64,-226.57 306.58,-217.2 296.88,-221.45 301.64,-226.57"/>
</g>
<!-- lfc -->
<g id="node9" class="node">
<title>lfc</title>
<ellipse fill="lightgrey" stroke="black" cx="337.3" cy="-76.48" rx="48.58" ry="37.45"/>
<text text-anchor="middle" x="337.3" y="-87.78" font-family="Times-Roman" font-size="14.00">lfc</text>
<text text-anchor="middle" x="337.3" y="-72.78" font-family="Times-Roman" font-size="14.00">~</text>
<text text-anchor="middle" x="337.3" y="-57.78" font-family="Times-Roman" font-size="14.00">Normal</text>
</g>
<!-- μ&#45;&gt;lfc -->
<g id="edge8" class="edge">
<title>μ&#45;&gt;lfc</title>
<path fill="none" stroke="black" d="M334.98,-163.75C335.3,-152.02 335.68,-137.75 336.04,-124.22"/>
<polygon fill="black" stroke="black" points="339.55,-124.16 336.32,-114.07 332.55,-123.98 339.55,-124.16"/>
</g>
<!-- σ&#45;&gt;lfc -->
<g id="edge9" class="edge">
<title>σ&#45;&gt;lfc</title>
<path fill="none" stroke="black" d="M447.2,-158.12C433.38,-146.47 417.33,-133.32 402.3,-121.95 395.93,-117.14 389.09,-112.21 382.32,-107.47"/>
<polygon fill="black" stroke="black" points="384.04,-104.4 373.83,-101.58 380.05,-110.15 384.04,-104.4"/>
</g>
</g>
</svg>
