<?xml version="1.0" encoding="UTF-8" standalone="no"?>
<!DOCTYPE svg PUBLIC "-//W3C//DTD SVG 1.1//EN"
 "http://www.w3.org/Graphics/SVG/1.1/DTD/svg11.dtd">
<!-- Generated by graphviz version 2.42.3 (20191010.1750)
 -->
<!-- Title: %3 Pages: 1 -->
<svg width="488pt" height="458pt"
 viewBox="0.00 0.00 488.09 457.81" xmlns="http://www.w3.org/2000/svg" xmlns:xlink="http://www.w3.org/1999/xlink">
<g id="graph0" class="graph" transform="scale(1 1) rotate(0) translate(4 453.81)">
<title>%3</title>
<polygon fill="white" stroke="transparent" points="-4,4 -4,-453.81 484.09,-453.81 484.09,4 -4,4"/>
<g id="clust1" class="cluster">
<title>cluster10</title>
<path fill="none" stroke="black" d="M253.98,-232.91C253.98,-232.91 329.98,-232.91 329.98,-232.91 335.98,-232.91 341.98,-238.91 341.98,-244.91 341.98,-244.91 341.98,-334.86 341.98,-334.86 341.98,-340.86 335.98,-346.86 329.98,-346.86 329.98,-346.86 253.98,-346.86 253.98,-346.86 247.98,-346.86 241.98,-340.86 241.98,-334.86 241.98,-334.86 241.98,-244.91 241.98,-244.91 241.98,-238.91 247.98,-232.91 253.98,-232.91"/>
<text text-anchor="middle" x="326.98" y="-240.71" font-family="Times,serif" font-size="14.00">10</text>
</g>
<g id="clust2" class="cluster">
<title>cluster20</title>
<path fill="none" stroke="black" d="M140.98,-232.91C140.98,-232.91 216.98,-232.91 216.98,-232.91 222.98,-232.91 228.98,-238.91 228.98,-244.91 228.98,-244.91 228.98,-334.86 228.98,-334.86 228.98,-340.86 222.98,-346.86 216.98,-346.86 216.98,-346.86 140.98,-346.86 140.98,-346.86 134.98,-346.86 128.98,-340.86 128.98,-334.86 128.98,-334.86 128.98,-244.91 128.98,-244.91 128.98,-238.91 134.98,-232.91 140.98,-232.91"/>
<text text-anchor="middle" x="213.98" y="-240.71" font-family="Times,serif" font-size="14.00">20</text>
</g>
<g id="clust3" class="cluster">
<title>cluster1,100</title>
<path fill="none" stroke="black" d="M191.98,-8C191.98,-8 275.98,-8 275.98,-8 281.98,-8 287.98,-14 287.98,-20 287.98,-20 287.98,-209.93 287.98,-209.93 287.98,-215.93 281.98,-221.93 275.98,-221.93 275.98,-221.93 191.98,-221.93 191.98,-221.93 185.98,-221.93 179.98,-215.93 179.98,-209.93 179.98,-209.93 179.98,-20 179.98,-20 179.98,-14 185.98,-8 191.98,-8"/>
<text text-anchor="middle" x="264.48" y="-15.8" font-family="Times,serif" font-size="14.00">1,100</text>
</g>
<!-- sigma_beta -->
<g id="node1" class="node">
<title>sigma_beta</title>
<ellipse fill="none" stroke="black" cx="57.98" cy="-412.34" rx="57.97" ry="37.45"/>
<text text-anchor="middle" x="57.98" y="-423.64" font-family="Times,serif" font-size="14.00">sigma_beta</text>
<text text-anchor="middle" x="57.98" y="-408.64" font-family="Times,serif" font-size="14.00">~</text>
<text text-anchor="middle" x="57.98" y="-393.64" font-family="Times,serif" font-size="14.00">Exponential</text>
</g>
<!-- beta_c -->
<g id="node7" class="node">
<title>beta_c</title>
<ellipse fill="none" stroke="black" cx="178.98" cy="-301.38" rx="41.94" ry="37.45"/>
<text text-anchor="middle" x="178.98" y="-312.68" font-family="Times,serif" font-size="14.00">beta_c</text>
<text text-anchor="middle" x="178.98" y="-297.68" font-family="Times,serif" font-size="14.00">~</text>
<text text-anchor="middle" x="178.98" y="-282.68" font-family="Times,serif" font-size="14.00">Normal</text>
</g>
<!-- sigma_beta&#45;&gt;beta_c -->
<g id="edge4" class="edge">
<title>sigma_beta&#45;&gt;beta_c</title>
<path fill="none" stroke="black" d="M91.37,-381.28C107.12,-367.09 125.96,-350.13 142.13,-335.57"/>
<polygon fill="black" stroke="black" points="144.73,-337.93 149.82,-328.64 140.05,-332.73 144.73,-337.93"/>
</g>
<!-- sigma -->
<g id="node2" class="node">
<title>sigma</title>
<ellipse fill="none" stroke="black" cx="354.98" cy="-187.43" rx="57.97" ry="37.45"/>
<text text-anchor="middle" x="354.98" y="-198.73" font-family="Times,serif" font-size="14.00">sigma</text>
<text text-anchor="middle" x="354.98" y="-183.73" font-family="Times,serif" font-size="14.00">~</text>
<text text-anchor="middle" x="354.98" y="-168.73" font-family="Times,serif" font-size="14.00">Exponential</text>
</g>
<!-- log_fc -->
<g id="node8" class="node">
<title>log_fc</title>
<ellipse fill="lightgrey" stroke="black" cx="235.98" cy="-76.48" rx="41.94" ry="37.45"/>
<text text-anchor="middle" x="235.98" y="-87.78" font-family="Times,serif" font-size="14.00">log_fc</text>
<text text-anchor="middle" x="235.98" y="-72.78" font-family="Times,serif" font-size="14.00">~</text>
<text text-anchor="middle" x="235.98" y="-57.78" font-family="Times,serif" font-size="14.00">Normal</text>
</g>
<!-- sigma&#45;&gt;log_fc -->
<g id="edge8" class="edge">
<title>sigma&#45;&gt;log_fc</title>
<path fill="none" stroke="black" d="M322.15,-156.37C306.66,-142.19 288.13,-125.22 272.23,-110.66"/>
<polygon fill="black" stroke="black" points="274.4,-107.9 264.66,-103.73 269.67,-113.07 274.4,-107.9"/>
</g>
<!-- mu_beta -->
<g id="node3" class="node">
<title>mu_beta</title>
<ellipse fill="none" stroke="black" cx="178.98" cy="-412.34" rx="45.01" ry="37.45"/>
<text text-anchor="middle" x="178.98" y="-423.64" font-family="Times,serif" font-size="14.00">mu_beta</text>
<text text-anchor="middle" x="178.98" y="-408.64" font-family="Times,serif" font-size="14.00">~</text>
<text text-anchor="middle" x="178.98" y="-393.64" font-family="Times,serif" font-size="14.00">Normal</text>
</g>
<!-- mu_beta&#45;&gt;beta_c -->
<g id="edge3" class="edge">
<title>mu_beta&#45;&gt;beta_c</title>
<path fill="none" stroke="black" d="M178.98,-374.75C178.98,-366.58 178.98,-357.8 178.98,-349.27"/>
<polygon fill="black" stroke="black" points="182.48,-349.06 178.98,-339.06 175.48,-349.06 182.48,-349.06"/>
</g>
<!-- mu_alpha -->
<g id="node4" class="node">
<title>mu_alpha</title>
<ellipse fill="none" stroke="black" cx="291.98" cy="-412.34" rx="50.41" ry="37.45"/>
<text text-anchor="middle" x="291.98" y="-423.64" font-family="Times,serif" font-size="14.00">mu_alpha</text>
<text text-anchor="middle" x="291.98" y="-408.64" font-family="Times,serif" font-size="14.00">~</text>
<text text-anchor="middle" x="291.98" y="-393.64" font-family="Times,serif" font-size="14.00">Normal</text>
</g>
<!-- alpha_g -->
<g id="node6" class="node">
<title>alpha_g</title>
<ellipse fill="none" stroke="black" cx="291.98" cy="-301.38" rx="41.94" ry="37.45"/>
<text text-anchor="middle" x="291.98" y="-312.68" font-family="Times,serif" font-size="14.00">alpha_g</text>
<text text-anchor="middle" x="291.98" y="-297.68" font-family="Times,serif" font-size="14.00">~</text>
<text text-anchor="middle" x="291.98" y="-282.68" font-family="Times,serif" font-size="14.00">Normal</text>
</g>
<!-- mu_alpha&#45;&gt;alpha_g -->
<g id="edge1" class="edge">
<title>mu_alpha&#45;&gt;alpha_g</title>
<path fill="none" stroke="black" d="M291.98,-374.75C291.98,-366.58 291.98,-357.8 291.98,-349.27"/>
<polygon fill="black" stroke="black" points="295.48,-349.06 291.98,-339.06 288.48,-349.06 295.48,-349.06"/>
</g>
<!-- sigma_alpha -->
<g id="node5" class="node">
<title>sigma_alpha</title>
<ellipse fill="none" stroke="black" cx="419.98" cy="-412.34" rx="60.21" ry="37.45"/>
<text text-anchor="middle" x="419.98" y="-423.64" font-family="Times,serif" font-size="14.00">sigma_alpha</text>
<text text-anchor="middle" x="419.98" y="-408.64" font-family="Times,serif" font-size="14.00">~</text>
<text text-anchor="middle" x="419.98" y="-393.64" font-family="Times,serif" font-size="14.00">Exponential</text>
</g>
<!-- sigma_alpha&#45;&gt;alpha_g -->
<g id="edge2" class="edge">
<title>sigma_alpha&#45;&gt;alpha_g</title>
<path fill="none" stroke="black" d="M385.01,-381.56C367.8,-366.92 347.05,-349.26 329.52,-334.33"/>
<polygon fill="black" stroke="black" points="331.59,-331.5 321.71,-327.69 327.06,-336.83 331.59,-331.5"/>
</g>
<!-- mu_gc -->
<g id="node9" class="node">
<title>mu_gc</title>
<polygon fill="none" stroke="black" points="279.48,-213.93 188.48,-213.93 188.48,-160.93 279.48,-160.93 279.48,-213.93"/>
<text text-anchor="middle" x="233.98" y="-198.73" font-family="Times,serif" font-size="14.00">mu_gc</text>
<text text-anchor="middle" x="233.98" y="-183.73" font-family="Times,serif" font-size="14.00">~</text>
<text text-anchor="middle" x="233.98" y="-168.73" font-family="Times,serif" font-size="14.00">Deterministic</text>
</g>
<!-- alpha_g&#45;&gt;mu_gc -->
<g id="edge6" class="edge">
<title>alpha_g&#45;&gt;mu_gc</title>
<path fill="none" stroke="black" d="M274.74,-267.1C267.51,-253.14 259.1,-236.91 251.81,-222.84"/>
<polygon fill="black" stroke="black" points="254.91,-221.21 247.2,-213.94 248.69,-224.43 254.91,-221.21"/>
</g>
<!-- beta_c&#45;&gt;mu_gc -->
<g id="edge5" class="edge">
<title>beta_c&#45;&gt;mu_gc</title>
<path fill="none" stroke="black" d="M195.48,-266.79C202.22,-253.08 210.01,-237.23 216.81,-223.38"/>
<polygon fill="black" stroke="black" points="220.07,-224.68 221.34,-214.16 213.79,-221.6 220.07,-224.68"/>
</g>
<!-- mu_gc&#45;&gt;log_fc -->
<g id="edge7" class="edge">
<title>mu_gc&#45;&gt;log_fc</title>
<path fill="none" stroke="black" d="M234.45,-160.89C234.65,-149.98 234.89,-136.89 235.12,-124.35"/>
<polygon fill="black" stroke="black" points="238.63,-124.06 235.31,-114 231.63,-123.94 238.63,-124.06"/>
</g>
</g>
</svg>
