<?xml version="1.0" encoding="UTF-8" standalone="no"?>
<!DOCTYPE svg PUBLIC "-//W3C//DTD SVG 1.1//EN"
 "http://www.w3.org/Graphics/SVG/1.1/DTD/svg11.dtd">
<!-- Generated by graphviz version 2.42.3 (20191010.1750)
 -->
<!-- Title: %3 Pages: 1 -->
<svg width="779pt" height="458pt"
 viewBox="0.00 0.00 778.57 457.81" xmlns="http://www.w3.org/2000/svg" xmlns:xlink="http://www.w3.org/1999/xlink">
<g id="graph0" class="graph" transform="scale(1 1) rotate(0) translate(4 453.81)">
<title>%3</title>
<polygon fill="white" stroke="transparent" points="-4,4 -4,-453.81 774.57,-453.81 774.57,4 -4,4"/>
<g id="clust1" class="cluster">
<title>cluster5</title>
<path fill="none" stroke="black" d="M152.98,-232.91C152.98,-232.91 329.98,-232.91 329.98,-232.91 335.98,-232.91 341.98,-238.91 341.98,-244.91 341.98,-244.91 341.98,-334.86 341.98,-334.86 341.98,-340.86 335.98,-346.86 329.98,-346.86 329.98,-346.86 152.98,-346.86 152.98,-346.86 146.98,-346.86 140.98,-340.86 140.98,-334.86 140.98,-334.86 140.98,-244.91 140.98,-244.91 140.98,-238.91 146.98,-232.91 152.98,-232.91"/>
<text text-anchor="middle" x="330.48" y="-240.71" font-family="Times,serif" font-size="14.00">5</text>
</g>
<g id="clust2" class="cluster">
<title>cluster20</title>
<path fill="none" stroke="black" d="M510.98,-232.91C510.98,-232.91 602.98,-232.91 602.98,-232.91 608.98,-232.91 614.98,-238.91 614.98,-244.91 614.98,-244.91 614.98,-334.86 614.98,-334.86 614.98,-340.86 608.98,-346.86 602.98,-346.86 602.98,-346.86 510.98,-346.86 510.98,-346.86 504.98,-346.86 498.98,-340.86 498.98,-334.86 498.98,-334.86 498.98,-244.91 498.98,-244.91 498.98,-238.91 504.98,-232.91 510.98,-232.91"/>
<text text-anchor="middle" x="599.98" y="-240.71" font-family="Times,serif" font-size="14.00">20</text>
</g>
<g id="clust3" class="cluster">
<title>cluster300</title>
<path fill="none" stroke="black" d="M249.98,-8C249.98,-8 333.98,-8 333.98,-8 339.98,-8 345.98,-14 345.98,-20 345.98,-20 345.98,-209.93 345.98,-209.93 345.98,-215.93 339.98,-221.93 333.98,-221.93 333.98,-221.93 249.98,-221.93 249.98,-221.93 243.98,-221.93 237.98,-215.93 237.98,-209.93 237.98,-209.93 237.98,-20 237.98,-20 237.98,-14 243.98,-8 249.98,-8"/>
<text text-anchor="middle" x="327.48" y="-15.8" font-family="Times,serif" font-size="14.00">300</text>
</g>
<!-- sigma -->
<g id="node1" class="node">
<title>sigma</title>
<ellipse fill="none" stroke="black" cx="170.98" cy="-187.43" rx="57.97" ry="37.45"/>
<text text-anchor="middle" x="170.98" y="-198.73" font-family="Times,serif" font-size="14.00">sigma</text>
<text text-anchor="middle" x="170.98" y="-183.73" font-family="Times,serif" font-size="14.00">~</text>
<text text-anchor="middle" x="170.98" y="-168.73" font-family="Times,serif" font-size="14.00">Exponential</text>
</g>
<!-- logfc -->
<g id="node11" class="node">
<title>logfc</title>
<ellipse fill="lightgrey" stroke="black" cx="289.98" cy="-76.48" rx="41.94" ry="37.45"/>
<text text-anchor="middle" x="289.98" y="-87.78" font-family="Times,serif" font-size="14.00">logfc</text>
<text text-anchor="middle" x="289.98" y="-72.78" font-family="Times,serif" font-size="14.00">~</text>
<text text-anchor="middle" x="289.98" y="-57.78" font-family="Times,serif" font-size="14.00">Normal</text>
</g>
<!-- sigma&#45;&gt;logfc -->
<g id="edge10" class="edge">
<title>sigma&#45;&gt;logfc</title>
<path fill="none" stroke="black" d="M203.82,-156.37C219.3,-142.19 237.83,-125.22 253.74,-110.66"/>
<polygon fill="black" stroke="black" points="256.29,-113.07 261.31,-103.73 251.57,-107.9 256.29,-113.07"/>
</g>
<!-- mu_gamma -->
<g id="node2" class="node">
<title>mu_gamma</title>
<ellipse fill="none" stroke="black" cx="556.98" cy="-412.34" rx="58.88" ry="37.45"/>
<text text-anchor="middle" x="556.98" y="-423.64" font-family="Times,serif" font-size="14.00">mu_gamma</text>
<text text-anchor="middle" x="556.98" y="-408.64" font-family="Times,serif" font-size="14.00">~</text>
<text text-anchor="middle" x="556.98" y="-393.64" font-family="Times,serif" font-size="14.00">Normal</text>
</g>
<!-- gamma_c -->
<g id="node10" class="node">
<title>gamma_c</title>
<ellipse fill="none" stroke="black" cx="556.98" cy="-301.38" rx="50.41" ry="37.45"/>
<text text-anchor="middle" x="556.98" y="-312.68" font-family="Times,serif" font-size="14.00">gamma_c</text>
<text text-anchor="middle" x="556.98" y="-297.68" font-family="Times,serif" font-size="14.00">~</text>
<text text-anchor="middle" x="556.98" y="-282.68" font-family="Times,serif" font-size="14.00">Normal</text>
</g>
<!-- mu_gamma&#45;&gt;gamma_c -->
<g id="edge3" class="edge">
<title>mu_gamma&#45;&gt;gamma_c</title>
<path fill="none" stroke="black" d="M556.98,-374.75C556.98,-366.58 556.98,-357.8 556.98,-349.27"/>
<polygon fill="black" stroke="black" points="560.48,-349.06 556.98,-339.06 553.48,-349.06 560.48,-349.06"/>
</g>
<!-- sigma_beta -->
<g id="node3" class="node">
<title>sigma_beta</title>
<ellipse fill="none" stroke="black" cx="57.98" cy="-412.34" rx="57.97" ry="37.45"/>
<text text-anchor="middle" x="57.98" y="-423.64" font-family="Times,serif" font-size="14.00">sigma_beta</text>
<text text-anchor="middle" x="57.98" y="-408.64" font-family="Times,serif" font-size="14.00">~</text>
<text text-anchor="middle" x="57.98" y="-393.64" font-family="Times,serif" font-size="14.00">Exponential</text>
</g>
<!-- beta_g -->
<g id="node8" class="node">
<title>beta_g</title>
<ellipse fill="none" stroke="black" cx="190.98" cy="-301.38" rx="41.94" ry="37.45"/>
<text text-anchor="middle" x="190.98" y="-312.68" font-family="Times,serif" font-size="14.00">beta_g</text>
<text text-anchor="middle" x="190.98" y="-297.68" font-family="Times,serif" font-size="14.00">~</text>
<text text-anchor="middle" x="190.98" y="-282.68" font-family="Times,serif" font-size="14.00">Normal</text>
</g>
<!-- sigma_beta&#45;&gt;beta_g -->
<g id="edge6" class="edge">
<title>sigma_beta&#45;&gt;beta_g</title>
<path fill="none" stroke="black" d="M93.28,-382.43C111.59,-367.42 133.99,-349.07 152.72,-333.73"/>
<polygon fill="black" stroke="black" points="154.98,-336.4 160.5,-327.35 150.55,-330.98 154.98,-336.4"/>
</g>
<!-- sigma_gamma -->
<g id="node4" class="node">
<title>sigma_gamma</title>
<ellipse fill="none" stroke="black" cx="701.98" cy="-412.34" rx="68.68" ry="37.45"/>
<text text-anchor="middle" x="701.98" y="-423.64" font-family="Times,serif" font-size="14.00">sigma_gamma</text>
<text text-anchor="middle" x="701.98" y="-408.64" font-family="Times,serif" font-size="14.00">~</text>
<text text-anchor="middle" x="701.98" y="-393.64" font-family="Times,serif" font-size="14.00">Exponential</text>
</g>
<!-- sigma_gamma&#45;&gt;gamma_c -->
<g id="edge4" class="edge">
<title>sigma_gamma&#45;&gt;gamma_c</title>
<path fill="none" stroke="black" d="M662.36,-381.56C643.14,-367.12 620,-349.74 600.31,-334.94"/>
<polygon fill="black" stroke="black" points="602.2,-331.98 592.11,-328.78 598,-337.58 602.2,-331.98"/>
</g>
<!-- mu_alpha -->
<g id="node5" class="node">
<title>mu_alpha</title>
<ellipse fill="none" stroke="black" cx="291.98" cy="-412.34" rx="50.41" ry="37.45"/>
<text text-anchor="middle" x="291.98" y="-423.64" font-family="Times,serif" font-size="14.00">mu_alpha</text>
<text text-anchor="middle" x="291.98" y="-408.64" font-family="Times,serif" font-size="14.00">~</text>
<text text-anchor="middle" x="291.98" y="-393.64" font-family="Times,serif" font-size="14.00">Normal</text>
</g>
<!-- alpha_g -->
<g id="node9" class="node">
<title>alpha_g</title>
<ellipse fill="none" stroke="black" cx="291.98" cy="-301.38" rx="41.94" ry="37.45"/>
<text text-anchor="middle" x="291.98" y="-312.68" font-family="Times,serif" font-size="14.00">alpha_g</text>
<text text-anchor="middle" x="291.98" y="-297.68" font-family="Times,serif" font-size="14.00">~</text>
<text text-anchor="middle" x="291.98" y="-282.68" font-family="Times,serif" font-size="14.00">Normal</text>
</g>
<!-- mu_alpha&#45;&gt;alpha_g -->
<g id="edge1" class="edge">
<title>mu_alpha&#45;&gt;alpha_g</title>
<path fill="none" stroke="black" d="M291.98,-374.75C291.98,-366.58 291.98,-357.8 291.98,-349.27"/>
<polygon fill="black" stroke="black" points="295.48,-349.06 291.98,-339.06 288.48,-349.06 295.48,-349.06"/>
</g>
<!-- mu_beta -->
<g id="node6" class="node">
<title>mu_beta</title>
<ellipse fill="none" stroke="black" cx="178.98" cy="-412.34" rx="45.01" ry="37.45"/>
<text text-anchor="middle" x="178.98" y="-423.64" font-family="Times,serif" font-size="14.00">mu_beta</text>
<text text-anchor="middle" x="178.98" y="-408.64" font-family="Times,serif" font-size="14.00">~</text>
<text text-anchor="middle" x="178.98" y="-393.64" font-family="Times,serif" font-size="14.00">Normal</text>
</g>
<!-- mu_beta&#45;&gt;beta_g -->
<g id="edge5" class="edge">
<title>mu_beta&#45;&gt;beta_g</title>
<path fill="none" stroke="black" d="M183.01,-374.75C183.91,-366.58 184.88,-357.8 185.82,-349.27"/>
<polygon fill="black" stroke="black" points="189.33,-349.38 186.94,-339.06 182.37,-348.61 189.33,-349.38"/>
</g>
<!-- sigma_alpha -->
<g id="node7" class="node">
<title>sigma_alpha</title>
<ellipse fill="none" stroke="black" cx="419.98" cy="-412.34" rx="60.21" ry="37.45"/>
<text text-anchor="middle" x="419.98" y="-423.64" font-family="Times,serif" font-size="14.00">sigma_alpha</text>
<text text-anchor="middle" x="419.98" y="-408.64" font-family="Times,serif" font-size="14.00">~</text>
<text text-anchor="middle" x="419.98" y="-393.64" font-family="Times,serif" font-size="14.00">Exponential</text>
</g>
<!-- sigma_alpha&#45;&gt;alpha_g -->
<g id="edge2" class="edge">
<title>sigma_alpha&#45;&gt;alpha_g</title>
<path fill="none" stroke="black" d="M385.01,-381.56C367.8,-366.92 347.05,-349.26 329.52,-334.33"/>
<polygon fill="black" stroke="black" points="331.59,-331.5 321.71,-327.69 327.06,-336.83 331.59,-331.5"/>
</g>
<!-- mu_gc -->
<g id="node12" class="node">
<title>mu_gc</title>
<polygon fill="none" stroke="black" points="337.48,-213.93 246.48,-213.93 246.48,-160.93 337.48,-160.93 337.48,-213.93"/>
<text text-anchor="middle" x="291.98" y="-198.73" font-family="Times,serif" font-size="14.00">mu_gc</text>
<text text-anchor="middle" x="291.98" y="-183.73" font-family="Times,serif" font-size="14.00">~</text>
<text text-anchor="middle" x="291.98" y="-168.73" font-family="Times,serif" font-size="14.00">Deterministic</text>
</g>
<!-- beta_g&#45;&gt;mu_gc -->
<g id="edge7" class="edge">
<title>beta_g&#45;&gt;mu_gc</title>
<path fill="none" stroke="black" d="M212.3,-268.71C220.71,-257.02 230.79,-243.94 240.98,-232.91 244.72,-228.86 248.8,-224.81 252.97,-220.88"/>
<polygon fill="black" stroke="black" points="255.49,-223.31 260.52,-213.98 250.77,-218.14 255.49,-223.31"/>
</g>
<!-- alpha_g&#45;&gt;mu_gc -->
<g id="edge8" class="edge">
<title>alpha_g&#45;&gt;mu_gc</title>
<path fill="none" stroke="black" d="M291.98,-263.73C291.98,-251.07 291.98,-236.92 291.98,-224.32"/>
<polygon fill="black" stroke="black" points="295.48,-224.18 291.98,-214.18 288.48,-224.18 295.48,-224.18"/>
</g>
<!-- gamma_c&#45;&gt;mu_gc -->
<g id="edge9" class="edge">
<title>gamma_c&#45;&gt;mu_gc</title>
<path fill="none" stroke="black" d="M513.82,-282.15C468.35,-262.94 396.61,-232.63 347.09,-211.71"/>
<polygon fill="black" stroke="black" points="348.37,-208.45 337.8,-207.79 345.65,-214.9 348.37,-208.45"/>
</g>
<!-- mu_gc&#45;&gt;logfc -->
<g id="edge11" class="edge">
<title>mu_gc&#45;&gt;logfc</title>
<path fill="none" stroke="black" d="M291.51,-160.89C291.31,-149.98 291.07,-136.89 290.84,-124.35"/>
<polygon fill="black" stroke="black" points="294.34,-123.94 290.65,-114 287.34,-124.06 294.34,-123.94"/>
</g>
</g>
</svg>
