<?xml version="1.0" encoding="UTF-8" standalone="no"?>
<!DOCTYPE svg PUBLIC "-//W3C//DTD SVG 1.1//EN"
 "http://www.w3.org/Graphics/SVG/1.1/DTD/svg11.dtd">
<!-- Generated by graphviz version 2.42.3 (20191010.1750)
 -->
<!-- Title: %3 Pages: 1 -->
<svg width="976pt" height="452pt"
 viewBox="0.00 0.00 976.00 451.86" xmlns="http://www.w3.org/2000/svg" xmlns:xlink="http://www.w3.org/1999/xlink">
<g id="graph0" class="graph" transform="scale(1 1) rotate(0) translate(4 447.86)">
<title>%3</title>
<polygon fill="white" stroke="transparent" points="-4,4 -4,-447.86 972,-447.86 972,4 -4,4"/>
<g id="clust1" class="cluster">
<title>cluster60,049</title>
<path fill="none" stroke="black" d="M20,-8C20,-8 440,-8 440,-8 446,-8 452,-14 452,-20 452,-20 452,-412.88 452,-412.88 452,-418.88 446,-424.88 440,-424.88 440,-424.88 20,-424.88 20,-424.88 14,-424.88 8,-418.88 8,-412.88 8,-412.88 8,-20 8,-20 8,-14 14,-8 20,-8"/>
<text text-anchor="middle" x="425" y="-15.8" font-family="Times,serif" font-size="14.00">60,049</text>
</g>
<g id="clust2" class="cluster">
<title>cluster103</title>
<path fill="none" stroke="black" d="M472,-321.91C472,-321.91 624,-321.91 624,-321.91 630,-321.91 636,-327.91 636,-333.91 636,-333.91 636,-423.86 636,-423.86 636,-429.86 630,-435.86 624,-435.86 624,-435.86 472,-435.86 472,-435.86 466,-435.86 460,-429.86 460,-423.86 460,-423.86 460,-333.91 460,-333.91 460,-327.91 466,-321.91 472,-321.91"/>
<text text-anchor="middle" x="617.5" y="-329.71" font-family="Times,serif" font-size="14.00">103</text>
</g>
<g id="clust3" class="cluster">
<title>cluster26</title>
<path fill="none" stroke="black" d="M656,-321.91C656,-321.91 732,-321.91 732,-321.91 738,-321.91 744,-327.91 744,-333.91 744,-333.91 744,-423.86 744,-423.86 744,-429.86 738,-435.86 732,-435.86 732,-435.86 656,-435.86 656,-435.86 650,-435.86 644,-429.86 644,-423.86 644,-423.86 644,-333.91 644,-333.91 644,-327.91 650,-321.91 656,-321.91"/>
<text text-anchor="middle" x="729" y="-329.71" font-family="Times,serif" font-size="14.00">26</text>
</g>
<g id="clust4" class="cluster">
<title>cluster26 x 258</title>
<path fill="none" stroke="black" d="M764,-321.91C764,-321.91 840,-321.91 840,-321.91 846,-321.91 852,-327.91 852,-333.91 852,-333.91 852,-423.86 852,-423.86 852,-429.86 846,-435.86 840,-435.86 840,-435.86 764,-435.86 764,-435.86 758,-435.86 752,-429.86 752,-423.86 752,-423.86 752,-333.91 752,-333.91 752,-327.91 758,-321.91 764,-321.91"/>
<text text-anchor="middle" x="819.5" y="-329.71" font-family="Times,serif" font-size="14.00">26 x 258</text>
</g>
<g id="clust5" class="cluster">
<title>cluster258</title>
<path fill="none" stroke="black" d="M872,-321.91C872,-321.91 948,-321.91 948,-321.91 954,-321.91 960,-327.91 960,-333.91 960,-333.91 960,-423.86 960,-423.86 960,-429.86 954,-435.86 948,-435.86 948,-435.86 872,-435.86 872,-435.86 866,-435.86 860,-429.86 860,-423.86 860,-423.86 860,-333.91 860,-333.91 860,-327.91 866,-321.91 872,-321.91"/>
<text text-anchor="middle" x="941.5" y="-329.71" font-family="Times,serif" font-size="14.00">258</text>
</g>
<!-- gene_idx_shared -->
<g id="node1" class="node">
<title>gene_idx_shared</title>
<path fill="lightgrey" stroke="black" d="M432.5,-416.88C432.5,-416.88 349.5,-416.88 349.5,-416.88 343.5,-416.88 337.5,-410.88 337.5,-404.88 337.5,-404.88 337.5,-375.88 337.5,-375.88 337.5,-369.88 343.5,-363.88 349.5,-363.88 349.5,-363.88 432.5,-363.88 432.5,-363.88 438.5,-363.88 444.5,-369.88 444.5,-375.88 444.5,-375.88 444.5,-404.88 444.5,-404.88 444.5,-410.88 438.5,-416.88 432.5,-416.88"/>
<text text-anchor="middle" x="391" y="-401.68" font-family="Times,serif" font-size="14.00">gene_idx_shared</text>
<text text-anchor="middle" x="391" y="-386.68" font-family="Times,serif" font-size="14.00">~</text>
<text text-anchor="middle" x="391" y="-371.68" font-family="Times,serif" font-size="14.00">Data</text>
</g>
<!-- μ -->
<g id="node7" class="node">
<title>μ</title>
<polygon fill="none" stroke="black" points="443.5,-302.93 352.5,-302.93 352.5,-249.93 443.5,-249.93 443.5,-302.93"/>
<text text-anchor="middle" x="398" y="-287.73" font-family="Times,serif" font-size="14.00">μ</text>
<text text-anchor="middle" x="398" y="-272.73" font-family="Times,serif" font-size="14.00">~</text>
<text text-anchor="middle" x="398" y="-257.73" font-family="Times,serif" font-size="14.00">Deterministic</text>
</g>
<!-- gene_idx_shared&#45;&gt;μ -->
<g id="edge5" class="edge">
<title>gene_idx_shared&#45;&gt;μ</title>
<path fill="none" stroke="black" d="M392.61,-363.7C393.54,-348.77 394.73,-329.72 395.76,-313.32"/>
<polygon fill="black" stroke="black" points="399.27,-313.19 396.4,-302.99 392.28,-312.76 399.27,-313.19"/>
</g>
<!-- sgrna_idx_shared -->
<g id="node2" class="node">
<title>sgrna_idx_shared</title>
<path fill="lightgrey" stroke="black" d="M307.5,-416.88C307.5,-416.88 220.5,-416.88 220.5,-416.88 214.5,-416.88 208.5,-410.88 208.5,-404.88 208.5,-404.88 208.5,-375.88 208.5,-375.88 208.5,-369.88 214.5,-363.88 220.5,-363.88 220.5,-363.88 307.5,-363.88 307.5,-363.88 313.5,-363.88 319.5,-369.88 319.5,-375.88 319.5,-375.88 319.5,-404.88 319.5,-404.88 319.5,-410.88 313.5,-416.88 307.5,-416.88"/>
<text text-anchor="middle" x="264" y="-401.68" font-family="Times,serif" font-size="14.00">sgrna_idx_shared</text>
<text text-anchor="middle" x="264" y="-386.68" font-family="Times,serif" font-size="14.00">~</text>
<text text-anchor="middle" x="264" y="-371.68" font-family="Times,serif" font-size="14.00">Data</text>
</g>
<!-- sgrna_idx_shared&#45;&gt;μ -->
<g id="edge4" class="edge">
<title>sgrna_idx_shared&#45;&gt;μ</title>
<path fill="none" stroke="black" d="M286.19,-363.64C298.19,-350.43 313.67,-334.51 329,-321.91 334.52,-317.36 340.53,-312.89 346.63,-308.64"/>
<polygon fill="black" stroke="black" points="348.64,-311.5 354.95,-302.99 344.71,-305.71 348.64,-311.5"/>
</g>
<!-- C -->
<g id="node3" class="node">
<title>C</title>
<path fill="lightgrey" stroke="black" d="M178,-416.88C178,-416.88 148,-416.88 148,-416.88 142,-416.88 136,-410.88 136,-404.88 136,-404.88 136,-375.88 136,-375.88 136,-369.88 142,-363.88 148,-363.88 148,-363.88 178,-363.88 178,-363.88 184,-363.88 190,-369.88 190,-375.88 190,-375.88 190,-404.88 190,-404.88 190,-410.88 184,-416.88 178,-416.88"/>
<text text-anchor="middle" x="163" y="-401.68" font-family="Times,serif" font-size="14.00">C</text>
<text text-anchor="middle" x="163" y="-386.68" font-family="Times,serif" font-size="14.00">~</text>
<text text-anchor="middle" x="163" y="-371.68" font-family="Times,serif" font-size="14.00">Data</text>
</g>
<!-- C&#45;&gt;μ -->
<g id="edge6" class="edge">
<title>C&#45;&gt;μ</title>
<path fill="none" stroke="black" d="M171.12,-363.69C176.94,-349.32 186.23,-332.27 200,-321.91 240.96,-291.08 299.32,-280.93 342.07,-277.91"/>
<polygon fill="black" stroke="black" points="342.54,-281.39 352.31,-277.3 342.12,-274.4 342.54,-281.39"/>
</g>
<!-- cell_idx_shared -->
<g id="node4" class="node">
<title>cell_idx_shared</title>
<path fill="lightgrey" stroke="black" d="M106,-416.88C106,-416.88 28,-416.88 28,-416.88 22,-416.88 16,-410.88 16,-404.88 16,-404.88 16,-375.88 16,-375.88 16,-369.88 22,-363.88 28,-363.88 28,-363.88 106,-363.88 106,-363.88 112,-363.88 118,-369.88 118,-375.88 118,-375.88 118,-404.88 118,-404.88 118,-410.88 112,-416.88 106,-416.88"/>
<text text-anchor="middle" x="67" y="-401.68" font-family="Times,serif" font-size="14.00">cell_idx_shared</text>
<text text-anchor="middle" x="67" y="-386.68" font-family="Times,serif" font-size="14.00">~</text>
<text text-anchor="middle" x="67" y="-371.68" font-family="Times,serif" font-size="14.00">Data</text>
</g>
<!-- cell_idx_shared&#45;&gt;μ -->
<g id="edge7" class="edge">
<title>cell_idx_shared&#45;&gt;μ</title>
<path fill="none" stroke="black" d="M83.32,-363.58C93.95,-348.98 109.15,-331.74 127,-321.91 163.1,-302.03 274.03,-288.72 342.26,-282.17"/>
<polygon fill="black" stroke="black" points="342.78,-285.63 352.41,-281.21 342.13,-278.66 342.78,-285.63"/>
</g>
<!-- D -->
<g id="node5" class="node">
<title>D</title>
<ellipse fill="lightgrey" stroke="black" cx="400" cy="-165.48" rx="41.94" ry="37.45"/>
<text text-anchor="middle" x="400" y="-176.78" font-family="Times,serif" font-size="14.00">D</text>
<text text-anchor="middle" x="400" y="-161.78" font-family="Times,serif" font-size="14.00">~</text>
<text text-anchor="middle" x="400" y="-146.78" font-family="Times,serif" font-size="14.00">Normal</text>
</g>
<!-- lfc -->
<g id="node6" class="node">
<title>lfc</title>
<path fill="lightgrey" stroke="black" d="M415,-92C415,-92 385,-92 385,-92 379,-92 373,-86 373,-80 373,-80 373,-51 373,-51 373,-45 379,-39 385,-39 385,-39 415,-39 415,-39 421,-39 427,-45 427,-51 427,-51 427,-80 427,-80 427,-86 421,-92 415,-92"/>
<text text-anchor="middle" x="400" y="-76.8" font-family="Times,serif" font-size="14.00">lfc</text>
<text text-anchor="middle" x="400" y="-61.8" font-family="Times,serif" font-size="14.00">~</text>
<text text-anchor="middle" x="400" y="-46.8" font-family="Times,serif" font-size="14.00">Data</text>
</g>
<!-- D&#45;&gt;lfc -->
<g id="edge1" class="edge">
<title>D&#45;&gt;lfc</title>
<path fill="none" stroke="black" d="M400,-127.99C400,-119.58 400,-110.63 400,-102.25"/>
<polygon fill="black" stroke="black" points="403.5,-102.01 400,-92.01 396.5,-102.01 403.5,-102.01"/>
</g>
<!-- μ&#45;&gt;D -->
<g id="edge12" class="edge">
<title>μ&#45;&gt;D</title>
<path fill="none" stroke="black" d="M398.47,-249.89C398.67,-238.98 398.91,-225.89 399.14,-213.35"/>
<polygon fill="black" stroke="black" points="402.65,-213.06 399.33,-203 395.65,-212.94 402.65,-213.06"/>
</g>
<!-- q -->
<g id="node8" class="node">
<title>q</title>
<ellipse fill="none" stroke="black" cx="599" cy="-390.38" rx="28.98" ry="37.45"/>
<text text-anchor="middle" x="599" y="-401.68" font-family="Times,serif" font-size="14.00">q</text>
<text text-anchor="middle" x="599" y="-386.68" font-family="Times,serif" font-size="14.00">~</text>
<text text-anchor="middle" x="599" y="-371.68" font-family="Times,serif" font-size="14.00">Beta</text>
</g>
<!-- q&#45;&gt;μ -->
<g id="edge9" class="edge">
<title>q&#45;&gt;μ</title>
<path fill="none" stroke="black" d="M587.88,-355.6C581.94,-342.91 573.26,-329.69 561,-321.91 540.49,-308.89 474.95,-321.86 452,-313.91 447.67,-312.41 443.37,-310.47 439.18,-308.27"/>
<polygon fill="black" stroke="black" points="440.65,-305.08 430.25,-303.11 437.15,-311.14 440.65,-305.08"/>
</g>
<!-- o -->
<g id="node9" class="node">
<title>o</title>
<ellipse fill="none" stroke="black" cx="510" cy="-390.38" rx="41.94" ry="37.45"/>
<text text-anchor="middle" x="510" y="-401.68" font-family="Times,serif" font-size="14.00">o</text>
<text text-anchor="middle" x="510" y="-386.68" font-family="Times,serif" font-size="14.00">~</text>
<text text-anchor="middle" x="510" y="-371.68" font-family="Times,serif" font-size="14.00">Normal</text>
</g>
<!-- o&#45;&gt;μ -->
<g id="edge3" class="edge">
<title>o&#45;&gt;μ</title>
<path fill="none" stroke="black" d="M487.81,-358.49C478.57,-346.52 467.36,-333.04 456,-321.91 451.7,-317.7 447.01,-313.52 442.21,-309.51"/>
<polygon fill="black" stroke="black" points="444.07,-306.51 434.09,-302.94 439.66,-311.95 444.07,-306.51"/>
</g>
<!-- h -->
<g id="node10" class="node">
<title>h</title>
<ellipse fill="none" stroke="black" cx="694" cy="-390.38" rx="41.94" ry="37.45"/>
<text text-anchor="middle" x="694" y="-401.68" font-family="Times,serif" font-size="14.00">h</text>
<text text-anchor="middle" x="694" y="-386.68" font-family="Times,serif" font-size="14.00">~</text>
<text text-anchor="middle" x="694" y="-371.68" font-family="Times,serif" font-size="14.00">Normal</text>
</g>
<!-- h&#45;&gt;μ -->
<g id="edge2" class="edge">
<title>h&#45;&gt;μ</title>
<path fill="none" stroke="black" d="M675.95,-356.21C666.98,-343.12 654.85,-329.44 640,-321.91 602.7,-303 491.72,-326.99 452,-313.91 447.47,-312.41 442.97,-310.42 438.61,-308.14"/>
<polygon fill="black" stroke="black" points="440.3,-305.08 429.89,-303.11 436.8,-311.14 440.3,-305.08"/>
</g>
<!-- g -->
<g id="node11" class="node">
<title>g</title>
<ellipse fill="none" stroke="black" cx="802" cy="-390.38" rx="41.94" ry="37.45"/>
<text text-anchor="middle" x="802" y="-401.68" font-family="Times,serif" font-size="14.00">g</text>
<text text-anchor="middle" x="802" y="-386.68" font-family="Times,serif" font-size="14.00">~</text>
<text text-anchor="middle" x="802" y="-371.68" font-family="Times,serif" font-size="14.00">Normal</text>
</g>
<!-- g&#45;&gt;μ -->
<g id="edge10" class="edge">
<title>g&#45;&gt;μ</title>
<path fill="none" stroke="black" d="M784.25,-356.45C775.26,-343.24 763.05,-329.39 748,-321.91 718.54,-307.26 483.33,-323.96 452,-313.91 447.39,-312.43 442.82,-310.43 438.4,-308.12"/>
<polygon fill="black" stroke="black" points="439.98,-304.99 429.57,-303.02 436.48,-311.05 439.98,-304.99"/>
</g>
<!-- β -->
<g id="node12" class="node">
<title>β</title>
<ellipse fill="none" stroke="black" cx="910" cy="-390.38" rx="41.94" ry="37.45"/>
<text text-anchor="middle" x="910" y="-401.68" font-family="Times,serif" font-size="14.00">β</text>
<text text-anchor="middle" x="910" y="-386.68" font-family="Times,serif" font-size="14.00">~</text>
<text text-anchor="middle" x="910" y="-371.68" font-family="Times,serif" font-size="14.00">Normal</text>
</g>
<!-- β&#45;&gt;μ -->
<g id="edge8" class="edge">
<title>β&#45;&gt;μ</title>
<path fill="none" stroke="black" d="M892.27,-356.4C883.29,-343.18 871.07,-329.33 856,-321.91 815.73,-302.06 494.8,-327.47 452,-313.91 447.39,-312.45 442.81,-310.45 438.39,-308.15"/>
<polygon fill="black" stroke="black" points="439.97,-305.02 429.55,-303.06 436.47,-311.09 439.97,-305.02"/>
</g>
<!-- σ -->
<g id="node13" class="node">
<title>σ</title>
<ellipse fill="none" stroke="black" cx="520" cy="-276.43" rx="58.88" ry="37.45"/>
<text text-anchor="middle" x="520" y="-287.73" font-family="Times,serif" font-size="14.00">σ</text>
<text text-anchor="middle" x="520" y="-272.73" font-family="Times,serif" font-size="14.00">~</text>
<text text-anchor="middle" x="520" y="-257.73" font-family="Times,serif" font-size="14.00">HalfNormal</text>
</g>
<!-- σ&#45;&gt;D -->
<g id="edge11" class="edge">
<title>σ&#45;&gt;D</title>
<path fill="none" stroke="black" d="M486.89,-245.37C471.27,-231.19 452.59,-214.22 436.55,-199.66"/>
<polygon fill="black" stroke="black" points="438.67,-196.86 428.92,-192.73 433.97,-202.05 438.67,-196.86"/>
</g>
</g>
</svg>
