<?xml version="1.0" encoding="UTF-8" standalone="no"?>
<!DOCTYPE svg PUBLIC "-//W3C//DTD SVG 1.1//EN"
 "http://www.w3.org/Graphics/SVG/1.1/DTD/svg11.dtd">
<!-- Generated by graphviz version 2.42.3 (20191010.1750)
 -->
<!-- Title: %3 Pages: 1 -->
<svg width="976pt" height="452pt"
 viewBox="0.00 0.00 976.00 451.86" xmlns="http://www.w3.org/2000/svg" xmlns:xlink="http://www.w3.org/1999/xlink">
<g id="graph0" class="graph" transform="scale(1 1) rotate(0) translate(4 447.86)">
<title>%3</title>
<polygon fill="white" stroke="transparent" points="-4,4 -4,-447.86 972,-447.86 972,4 -4,4"/>
<g id="clust1" class="cluster">
<title>cluster60,049</title>
<path fill="none" stroke="black" d="M20,-8C20,-8 440,-8 440,-8 446,-8 452,-14 452,-20 452,-20 452,-412.88 452,-412.88 452,-418.88 446,-424.88 440,-424.88 440,-424.88 20,-424.88 20,-424.88 14,-424.88 8,-418.88 8,-412.88 8,-412.88 8,-20 8,-20 8,-14 14,-8 20,-8"/>
<text text-anchor="middle" x="425" y="-15.8" font-family="Times,serif" font-size="14.00">60,049</text>
</g>
<g id="clust2" class="cluster">
<title>cluster103</title>
<path fill="none" stroke="black" d="M472,-321.91C472,-321.91 624,-321.91 624,-321.91 630,-321.91 636,-327.91 636,-333.91 636,-333.91 636,-423.86 636,-423.86 636,-429.86 630,-435.86 624,-435.86 624,-435.86 472,-435.86 472,-435.86 466,-435.86 460,-429.86 460,-423.86 460,-423.86 460,-333.91 460,-333.91 460,-327.91 466,-321.91 472,-321.91"/>
<text text-anchor="middle" x="617.5" y="-329.71" font-family="Times,serif" font-size="14.00">103</text>
</g>
<g id="clust3" class="cluster">
<title>cluster26</title>
<path fill="none" stroke="black" d="M656,-321.91C656,-321.91 732,-321.91 732,-321.91 738,-321.91 744,-327.91 744,-333.91 744,-333.91 744,-423.86 744,-423.86 744,-429.86 738,-435.86 732,-435.86 732,-435.86 656,-435.86 656,-435.86 650,-435.86 644,-429.86 644,-423.86 644,-423.86 644,-333.91 644,-333.91 644,-327.91 650,-321.91 656,-321.91"/>
<text text-anchor="middle" x="729" y="-329.71" font-family="Times,serif" font-size="14.00">26</text>
</g>
<g id="clust4" class="cluster">
<title>cluster26 x 258</title>
<path fill="none" stroke="black" d="M764,-321.91C764,-321.91 840,-321.91 840,-321.91 846,-321.91 852,-327.91 852,-333.91 852,-333.91 852,-423.86 852,-423.86 852,-429.86 846,-435.86 840,-435.86 840,-435.86 764,-435.86 764,-435.86 758,-435.86 752,-429.86 752,-423.86 752,-423.86 752,-333.91 752,-333.91 752,-327.91 758,-321.91 764,-321.91"/>
<text text-anchor="middle" x="819.5" y="-329.71" font-family="Times,serif" font-size="14.00">26 x 258</text>
</g>
<g id="clust5" class="cluster">
<title>cluster258</title>
<path fill="none" stroke="black" d="M872,-321.91C872,-321.91 948,-321.91 948,-321.91 954,-321.91 960,-327.91 960,-333.91 960,-333.91 960,-423.86 960,-423.86 960,-429.86 954,-435.86 948,-435.86 948,-435.86 872,-435.86 872,-435.86 866,-435.86 860,-429.86 860,-423.86 860,-423.86 860,-333.91 860,-333.91 860,-327.91 866,-321.91 872,-321.91"/>
<text text-anchor="middle" x="941.5" y="-329.71" font-family="Times,serif" font-size="14.00">258</text>
</g>
<!-- D -->
<g id="node1" class="node">
<title>D</title>
<ellipse fill="lightgrey" stroke="black" cx="400" cy="-165.48" rx="41.94" ry="37.45"/>
<text text-anchor="middle" x="400" y="-176.78" font-family="Times,serif" font-size="14.00">D</text>
<text text-anchor="middle" x="400" y="-161.78" font-family="Times,serif" font-size="14.00">~</text>
<text text-anchor="middle" x="400" y="-146.78" font-family="Times,serif" font-size="14.00">Normal</text>
</g>
<!-- lfc -->
<g id="node5" class="node">
<title>lfc</title>
<path fill="lightgrey" stroke="black" d="M415,-92C415,-92 385,-92 385,-92 379,-92 373,-86 373,-80 373,-80 373,-51 373,-51 373,-45 379,-39 385,-39 385,-39 415,-39 415,-39 421,-39 427,-45 427,-51 427,-51 427,-80 427,-80 427,-86 421,-92 415,-92"/>
<text text-anchor="middle" x="400" y="-76.8" font-family="Times,serif" font-size="14.00">lfc</text>
<text text-anchor="middle" x="400" y="-61.8" font-family="Times,serif" font-size="14.00">~</text>
<text text-anchor="middle" x="400" y="-46.8" font-family="Times,serif" font-size="14.00">Data</text>
</g>
<!-- D&#45;&gt;lfc -->
<g id="edge1" class="edge">
<title>D&#45;&gt;lfc</title>
<path fill="none" stroke="black" d="M400,-127.99C400,-119.58 400,-110.63 400,-102.25"/>
<polygon fill="black" stroke="black" points="403.5,-102.01 400,-92.01 396.5,-102.01 403.5,-102.01"/>
</g>
<!-- gene_idx_shared -->
<g id="node2" class="node">
<title>gene_idx_shared</title>
<path fill="lightgrey" stroke="black" d="M432.5,-416.88C432.5,-416.88 349.5,-416.88 349.5,-416.88 343.5,-416.88 337.5,-410.88 337.5,-404.88 337.5,-404.88 337.5,-375.88 337.5,-375.88 337.5,-369.88 343.5,-363.88 349.5,-363.88 349.5,-363.88 432.5,-363.88 432.5,-363.88 438.5,-363.88 444.5,-369.88 444.5,-375.88 444.5,-375.88 444.5,-404.88 444.5,-404.88 444.5,-410.88 438.5,-416.88 432.5,-416.88"/>
<text text-anchor="middle" x="391" y="-401.68" font-family="Times,serif" font-size="14.00">gene_idx_shared</text>
<text text-anchor="middle" x="391" y="-386.68" font-family="Times,serif" font-size="14.00">~</text>
<text text-anchor="middle" x="391" y="-371.68" font-family="Times,serif" font-size="14.00">Data</text>
</g>
<!-- μ -->
<g id="node4" class="node">
<title>μ</title>
<polygon fill="none" stroke="black" points="443.5,-302.93 352.5,-302.93 352.5,-249.93 443.5,-249.93 443.5,-302.93"/>
<text text-anchor="middle" x="398" y="-287.73" font-family="Times,serif" font-size="14.00">μ</text>
<text text-anchor="middle" x="398" y="-272.73" font-family="Times,serif" font-size="14.00">~</text>
<text text-anchor="middle" x="398" y="-257.73" font-family="Times,serif" font-size="14.00">Deterministic</text>
</g>
<!-- gene_idx_shared&#45;&gt;μ -->
<g id="edge3" class="edge">
<title>gene_idx_shared&#45;&gt;μ</title>
<path fill="none" stroke="black" d="M392.61,-363.7C393.54,-348.77 394.73,-329.72 395.76,-313.32"/>
<polygon fill="black" stroke="black" points="399.27,-313.19 396.4,-302.99 392.28,-312.76 399.27,-313.19"/>
</g>
<!-- C -->
<g id="node3" class="node">
<title>C</title>
<path fill="lightgrey" stroke="black" d="M307,-416.88C307,-416.88 277,-416.88 277,-416.88 271,-416.88 265,-410.88 265,-404.88 265,-404.88 265,-375.88 265,-375.88 265,-369.88 271,-363.88 277,-363.88 277,-363.88 307,-363.88 307,-363.88 313,-363.88 319,-369.88 319,-375.88 319,-375.88 319,-404.88 319,-404.88 319,-410.88 313,-416.88 307,-416.88"/>
<text text-anchor="middle" x="292" y="-401.68" font-family="Times,serif" font-size="14.00">C</text>
<text text-anchor="middle" x="292" y="-386.68" font-family="Times,serif" font-size="14.00">~</text>
<text text-anchor="middle" x="292" y="-371.68" font-family="Times,serif" font-size="14.00">Data</text>
</g>
<!-- C&#45;&gt;μ -->
<g id="edge5" class="edge">
<title>C&#45;&gt;μ</title>
<path fill="none" stroke="black" d="M302.36,-363.73C308.67,-350.24 317.71,-334.03 329,-321.91 333.57,-317 338.79,-312.4 344.26,-308.15"/>
<polygon fill="black" stroke="black" points="346.41,-310.91 352.42,-302.19 342.28,-305.26 346.41,-310.91"/>
</g>
<!-- μ&#45;&gt;D -->
<g id="edge11" class="edge">
<title>μ&#45;&gt;D</title>
<path fill="none" stroke="black" d="M398.47,-249.89C398.67,-238.98 398.91,-225.89 399.14,-213.35"/>
<polygon fill="black" stroke="black" points="402.65,-213.06 399.33,-203 395.65,-212.94 402.65,-213.06"/>
</g>
<!-- cell_idx_shared -->
<g id="node6" class="node">
<title>cell_idx_shared</title>
<path fill="lightgrey" stroke="black" d="M235,-416.88C235,-416.88 157,-416.88 157,-416.88 151,-416.88 145,-410.88 145,-404.88 145,-404.88 145,-375.88 145,-375.88 145,-369.88 151,-363.88 157,-363.88 157,-363.88 235,-363.88 235,-363.88 241,-363.88 247,-369.88 247,-375.88 247,-375.88 247,-404.88 247,-404.88 247,-410.88 241,-416.88 235,-416.88"/>
<text text-anchor="middle" x="196" y="-401.68" font-family="Times,serif" font-size="14.00">cell_idx_shared</text>
<text text-anchor="middle" x="196" y="-386.68" font-family="Times,serif" font-size="14.00">~</text>
<text text-anchor="middle" x="196" y="-371.68" font-family="Times,serif" font-size="14.00">Data</text>
</g>
<!-- cell_idx_shared&#45;&gt;μ -->
<g id="edge8" class="edge">
<title>cell_idx_shared&#45;&gt;μ</title>
<path fill="none" stroke="black" d="M213.36,-363.81C224.15,-349.67 239.15,-332.8 256,-321.91 282.09,-305.05 314.99,-294.21 342.56,-287.46"/>
<polygon fill="black" stroke="black" points="343.5,-290.84 352.45,-285.16 341.92,-284.02 343.5,-290.84"/>
</g>
<!-- sgrna_idx_shared -->
<g id="node7" class="node">
<title>sgrna_idx_shared</title>
<path fill="lightgrey" stroke="black" d="M114.5,-416.88C114.5,-416.88 27.5,-416.88 27.5,-416.88 21.5,-416.88 15.5,-410.88 15.5,-404.88 15.5,-404.88 15.5,-375.88 15.5,-375.88 15.5,-369.88 21.5,-363.88 27.5,-363.88 27.5,-363.88 114.5,-363.88 114.5,-363.88 120.5,-363.88 126.5,-369.88 126.5,-375.88 126.5,-375.88 126.5,-404.88 126.5,-404.88 126.5,-410.88 120.5,-416.88 114.5,-416.88"/>
<text text-anchor="middle" x="71" y="-401.68" font-family="Times,serif" font-size="14.00">sgrna_idx_shared</text>
<text text-anchor="middle" x="71" y="-386.68" font-family="Times,serif" font-size="14.00">~</text>
<text text-anchor="middle" x="71" y="-371.68" font-family="Times,serif" font-size="14.00">Data</text>
</g>
<!-- sgrna_idx_shared&#45;&gt;μ -->
<g id="edge9" class="edge">
<title>sgrna_idx_shared&#45;&gt;μ</title>
<path fill="none" stroke="black" d="M89.15,-363.62C100.83,-349.03 117.3,-331.79 136,-321.91 200.96,-287.58 286.47,-278.75 341.84,-276.98"/>
<polygon fill="black" stroke="black" points="342.25,-280.47 352.16,-276.72 342.07,-273.47 342.25,-280.47"/>
</g>
<!-- o -->
<g id="node8" class="node">
<title>o</title>
<ellipse fill="none" stroke="black" cx="586" cy="-390.38" rx="41.94" ry="37.45"/>
<text text-anchor="middle" x="586" y="-401.68" font-family="Times,serif" font-size="14.00">o</text>
<text text-anchor="middle" x="586" y="-386.68" font-family="Times,serif" font-size="14.00">~</text>
<text text-anchor="middle" x="586" y="-371.68" font-family="Times,serif" font-size="14.00">Normal</text>
</g>
<!-- o&#45;&gt;μ -->
<g id="edge2" class="edge">
<title>o&#45;&gt;μ</title>
<path fill="none" stroke="black" d="M568.68,-355.92C560.29,-343.11 548.97,-329.72 535,-321.91 502.65,-303.82 486.87,-326.44 452,-313.91 447.69,-312.36 443.4,-310.39 439.22,-308.17"/>
<polygon fill="black" stroke="black" points="440.7,-304.98 430.29,-302.97 437.18,-311.03 440.7,-304.98"/>
</g>
<!-- q -->
<g id="node9" class="node">
<title>q</title>
<ellipse fill="none" stroke="black" cx="497" cy="-390.38" rx="28.98" ry="37.45"/>
<text text-anchor="middle" x="497" y="-401.68" font-family="Times,serif" font-size="14.00">q</text>
<text text-anchor="middle" x="497" y="-386.68" font-family="Times,serif" font-size="14.00">~</text>
<text text-anchor="middle" x="497" y="-371.68" font-family="Times,serif" font-size="14.00">Beta</text>
</g>
<!-- q&#45;&gt;μ -->
<g id="edge4" class="edge">
<title>q&#45;&gt;μ</title>
<path fill="none" stroke="black" d="M481.46,-358.51C474.57,-346.4 465.8,-332.82 456,-321.91 452.15,-317.61 447.83,-313.44 443.34,-309.48"/>
<polygon fill="black" stroke="black" points="445.57,-306.78 435.66,-303.04 441.07,-312.15 445.57,-306.78"/>
</g>
<!-- h -->
<g id="node10" class="node">
<title>h</title>
<ellipse fill="none" stroke="black" cx="694" cy="-390.38" rx="41.94" ry="37.45"/>
<text text-anchor="middle" x="694" y="-401.68" font-family="Times,serif" font-size="14.00">h</text>
<text text-anchor="middle" x="694" y="-386.68" font-family="Times,serif" font-size="14.00">~</text>
<text text-anchor="middle" x="694" y="-371.68" font-family="Times,serif" font-size="14.00">Normal</text>
</g>
<!-- h&#45;&gt;μ -->
<g id="edge6" class="edge">
<title>h&#45;&gt;μ</title>
<path fill="none" stroke="black" d="M675.95,-356.21C666.98,-343.12 654.85,-329.44 640,-321.91 602.7,-303 491.72,-326.99 452,-313.91 447.47,-312.41 442.97,-310.42 438.61,-308.14"/>
<polygon fill="black" stroke="black" points="440.3,-305.08 429.89,-303.11 436.8,-311.14 440.3,-305.08"/>
</g>
<!-- g -->
<g id="node11" class="node">
<title>g</title>
<ellipse fill="none" stroke="black" cx="802" cy="-390.38" rx="41.94" ry="37.45"/>
<text text-anchor="middle" x="802" y="-401.68" font-family="Times,serif" font-size="14.00">g</text>
<text text-anchor="middle" x="802" y="-386.68" font-family="Times,serif" font-size="14.00">~</text>
<text text-anchor="middle" x="802" y="-371.68" font-family="Times,serif" font-size="14.00">Normal</text>
</g>
<!-- g&#45;&gt;μ -->
<g id="edge10" class="edge">
<title>g&#45;&gt;μ</title>
<path fill="none" stroke="black" d="M784.25,-356.45C775.26,-343.24 763.05,-329.39 748,-321.91 718.54,-307.26 483.33,-323.96 452,-313.91 447.39,-312.43 442.82,-310.43 438.4,-308.12"/>
<polygon fill="black" stroke="black" points="439.98,-304.99 429.57,-303.02 436.48,-311.05 439.98,-304.99"/>
</g>
<!-- β -->
<g id="node12" class="node">
<title>β</title>
<ellipse fill="none" stroke="black" cx="910" cy="-390.38" rx="41.94" ry="37.45"/>
<text text-anchor="middle" x="910" y="-401.68" font-family="Times,serif" font-size="14.00">β</text>
<text text-anchor="middle" x="910" y="-386.68" font-family="Times,serif" font-size="14.00">~</text>
<text text-anchor="middle" x="910" y="-371.68" font-family="Times,serif" font-size="14.00">Normal</text>
</g>
<!-- β&#45;&gt;μ -->
<g id="edge7" class="edge">
<title>β&#45;&gt;μ</title>
<path fill="none" stroke="black" d="M892.27,-356.4C883.29,-343.18 871.07,-329.33 856,-321.91 815.73,-302.06 494.8,-327.47 452,-313.91 447.39,-312.45 442.81,-310.45 438.39,-308.15"/>
<polygon fill="black" stroke="black" points="439.97,-305.02 429.55,-303.06 436.47,-311.09 439.97,-305.02"/>
</g>
<!-- σ -->
<g id="node13" class="node">
<title>σ</title>
<ellipse fill="none" stroke="black" cx="520" cy="-276.43" rx="58.88" ry="37.45"/>
<text text-anchor="middle" x="520" y="-287.73" font-family="Times,serif" font-size="14.00">σ</text>
<text text-anchor="middle" x="520" y="-272.73" font-family="Times,serif" font-size="14.00">~</text>
<text text-anchor="middle" x="520" y="-257.73" font-family="Times,serif" font-size="14.00">HalfNormal</text>
</g>
<!-- σ&#45;&gt;D -->
<g id="edge12" class="edge">
<title>σ&#45;&gt;D</title>
<path fill="none" stroke="black" d="M486.89,-245.37C471.27,-231.19 452.59,-214.22 436.55,-199.66"/>
<polygon fill="black" stroke="black" points="438.67,-196.86 428.92,-192.73 433.97,-202.05 438.67,-196.86"/>
</g>
</g>
</svg>
