<?xml version="1.0" encoding="UTF-8" standalone="no"?>
<!DOCTYPE svg PUBLIC "-//W3C//DTD SVG 1.1//EN"
 "http://www.w3.org/Graphics/SVG/1.1/DTD/svg11.dtd">
<!-- Generated by graphviz version 2.42.3 (20191010.1750)
 -->
<!-- Title: %3 Pages: 1 -->
<svg width="1374pt" height="547pt"
 viewBox="0.00 0.00 1373.69 546.81" xmlns="http://www.w3.org/2000/svg" xmlns:xlink="http://www.w3.org/1999/xlink">
<g id="graph0" class="graph" transform="scale(1 1) rotate(0) translate(4 542.81)">
<title>%3</title>
<polygon fill="white" stroke="transparent" points="-4,4 -4,-542.81 1369.69,-542.81 1369.69,4 -4,4"/>
<g id="clust1" class="cluster">
<title>cluster60,049</title>
<path fill="none" stroke="black" d="M20,-8C20,-8 440,-8 440,-8 446,-8 452,-14 452,-20 452,-20 452,-412.88 452,-412.88 452,-418.88 446,-424.88 440,-424.88 440,-424.88 20,-424.88 20,-424.88 14,-424.88 8,-418.88 8,-412.88 8,-412.88 8,-20 8,-20 8,-14 14,-8 20,-8"/>
<text text-anchor="middle" x="425" y="-15.8" font-family="Times,serif" font-size="14.00">60,049</text>
</g>
<g id="clust2" class="cluster">
<title>cluster103</title>
<path fill="none" stroke="black" d="M472,-321.91C472,-321.91 624,-321.91 624,-321.91 630,-321.91 636,-327.91 636,-333.91 636,-333.91 636,-423.86 636,-423.86 636,-429.86 630,-435.86 624,-435.86 624,-435.86 472,-435.86 472,-435.86 466,-435.86 460,-429.86 460,-423.86 460,-423.86 460,-333.91 460,-333.91 460,-327.91 466,-321.91 472,-321.91"/>
<text text-anchor="middle" x="617.5" y="-329.71" font-family="Times,serif" font-size="14.00">103</text>
</g>
<g id="clust3" class="cluster">
<title>cluster26</title>
<path fill="none" stroke="black" d="M679,-321.91C679,-321.91 755,-321.91 755,-321.91 761,-321.91 767,-327.91 767,-333.91 767,-333.91 767,-423.86 767,-423.86 767,-429.86 761,-435.86 755,-435.86 755,-435.86 679,-435.86 679,-435.86 673,-435.86 667,-429.86 667,-423.86 667,-423.86 667,-333.91 667,-333.91 667,-327.91 673,-321.91 679,-321.91"/>
<text text-anchor="middle" x="752" y="-329.71" font-family="Times,serif" font-size="14.00">26</text>
</g>
<g id="clust4" class="cluster">
<title>cluster26 x 258</title>
<path fill="none" stroke="black" d="M932,-321.91C932,-321.91 1008,-321.91 1008,-321.91 1014,-321.91 1020,-327.91 1020,-333.91 1020,-333.91 1020,-423.86 1020,-423.86 1020,-429.86 1014,-435.86 1008,-435.86 1008,-435.86 932,-435.86 932,-435.86 926,-435.86 920,-429.86 920,-423.86 920,-423.86 920,-333.91 920,-333.91 920,-327.91 926,-321.91 932,-321.91"/>
<text text-anchor="middle" x="987.5" y="-329.71" font-family="Times,serif" font-size="14.00">26 x 258</text>
</g>
<g id="clust5" class="cluster">
<title>cluster258</title>
<path fill="none" stroke="black" d="M1151,-321.91C1151,-321.91 1227,-321.91 1227,-321.91 1233,-321.91 1239,-327.91 1239,-333.91 1239,-333.91 1239,-423.86 1239,-423.86 1239,-429.86 1233,-435.86 1227,-435.86 1227,-435.86 1151,-435.86 1151,-435.86 1145,-435.86 1139,-429.86 1139,-423.86 1139,-423.86 1139,-333.91 1139,-333.91 1139,-327.91 1145,-321.91 1151,-321.91"/>
<text text-anchor="middle" x="1220.5" y="-329.71" font-family="Times,serif" font-size="14.00">258</text>
</g>
<!-- D -->
<g id="node1" class="node">
<title>D</title>
<ellipse fill="lightgrey" stroke="black" cx="400" cy="-165.48" rx="41.94" ry="37.45"/>
<text text-anchor="middle" x="400" y="-176.78" font-family="Times,serif" font-size="14.00">D</text>
<text text-anchor="middle" x="400" y="-161.78" font-family="Times,serif" font-size="14.00">~</text>
<text text-anchor="middle" x="400" y="-146.78" font-family="Times,serif" font-size="14.00">Normal</text>
</g>
<!-- lfc -->
<g id="node5" class="node">
<title>lfc</title>
<path fill="lightgrey" stroke="black" d="M415,-92C415,-92 385,-92 385,-92 379,-92 373,-86 373,-80 373,-80 373,-51 373,-51 373,-45 379,-39 385,-39 385,-39 415,-39 415,-39 421,-39 427,-45 427,-51 427,-51 427,-80 427,-80 427,-86 421,-92 415,-92"/>
<text text-anchor="middle" x="400" y="-76.8" font-family="Times,serif" font-size="14.00">lfc</text>
<text text-anchor="middle" x="400" y="-61.8" font-family="Times,serif" font-size="14.00">~</text>
<text text-anchor="middle" x="400" y="-46.8" font-family="Times,serif" font-size="14.00">Data</text>
</g>
<!-- D&#45;&gt;lfc -->
<g id="edge1" class="edge">
<title>D&#45;&gt;lfc</title>
<path fill="none" stroke="black" d="M400,-127.99C400,-119.58 400,-110.63 400,-102.25"/>
<polygon fill="black" stroke="black" points="403.5,-102.01 400,-92.01 396.5,-102.01 403.5,-102.01"/>
</g>
<!-- gene_idx_shared -->
<g id="node2" class="node">
<title>gene_idx_shared</title>
<path fill="lightgrey" stroke="black" d="M432.5,-416.88C432.5,-416.88 349.5,-416.88 349.5,-416.88 343.5,-416.88 337.5,-410.88 337.5,-404.88 337.5,-404.88 337.5,-375.88 337.5,-375.88 337.5,-369.88 343.5,-363.88 349.5,-363.88 349.5,-363.88 432.5,-363.88 432.5,-363.88 438.5,-363.88 444.5,-369.88 444.5,-375.88 444.5,-375.88 444.5,-404.88 444.5,-404.88 444.5,-410.88 438.5,-416.88 432.5,-416.88"/>
<text text-anchor="middle" x="391" y="-401.68" font-family="Times,serif" font-size="14.00">gene_idx_shared</text>
<text text-anchor="middle" x="391" y="-386.68" font-family="Times,serif" font-size="14.00">~</text>
<text text-anchor="middle" x="391" y="-371.68" font-family="Times,serif" font-size="14.00">Data</text>
</g>
<!-- μ -->
<g id="node4" class="node">
<title>μ</title>
<polygon fill="none" stroke="black" points="443.5,-302.93 352.5,-302.93 352.5,-249.93 443.5,-249.93 443.5,-302.93"/>
<text text-anchor="middle" x="398" y="-287.73" font-family="Times,serif" font-size="14.00">μ</text>
<text text-anchor="middle" x="398" y="-272.73" font-family="Times,serif" font-size="14.00">~</text>
<text text-anchor="middle" x="398" y="-257.73" font-family="Times,serif" font-size="14.00">Deterministic</text>
</g>
<!-- gene_idx_shared&#45;&gt;μ -->
<g id="edge13" class="edge">
<title>gene_idx_shared&#45;&gt;μ</title>
<path fill="none" stroke="black" d="M392.61,-363.7C393.54,-348.77 394.73,-329.72 395.76,-313.32"/>
<polygon fill="black" stroke="black" points="399.27,-313.19 396.4,-302.99 392.28,-312.76 399.27,-313.19"/>
</g>
<!-- C -->
<g id="node3" class="node">
<title>C</title>
<path fill="lightgrey" stroke="black" d="M307,-416.88C307,-416.88 277,-416.88 277,-416.88 271,-416.88 265,-410.88 265,-404.88 265,-404.88 265,-375.88 265,-375.88 265,-369.88 271,-363.88 277,-363.88 277,-363.88 307,-363.88 307,-363.88 313,-363.88 319,-369.88 319,-375.88 319,-375.88 319,-404.88 319,-404.88 319,-410.88 313,-416.88 307,-416.88"/>
<text text-anchor="middle" x="292" y="-401.68" font-family="Times,serif" font-size="14.00">C</text>
<text text-anchor="middle" x="292" y="-386.68" font-family="Times,serif" font-size="14.00">~</text>
<text text-anchor="middle" x="292" y="-371.68" font-family="Times,serif" font-size="14.00">Data</text>
</g>
<!-- C&#45;&gt;μ -->
<g id="edge14" class="edge">
<title>C&#45;&gt;μ</title>
<path fill="none" stroke="black" d="M302.36,-363.73C308.67,-350.24 317.71,-334.03 329,-321.91 333.57,-317 338.79,-312.4 344.26,-308.15"/>
<polygon fill="black" stroke="black" points="346.41,-310.91 352.42,-302.19 342.28,-305.26 346.41,-310.91"/>
</g>
<!-- μ&#45;&gt;D -->
<g id="edge21" class="edge">
<title>μ&#45;&gt;D</title>
<path fill="none" stroke="black" d="M398.47,-249.89C398.67,-238.98 398.91,-225.89 399.14,-213.35"/>
<polygon fill="black" stroke="black" points="402.65,-213.06 399.33,-203 395.65,-212.94 402.65,-213.06"/>
</g>
<!-- cell_idx_shared -->
<g id="node6" class="node">
<title>cell_idx_shared</title>
<path fill="lightgrey" stroke="black" d="M235,-416.88C235,-416.88 157,-416.88 157,-416.88 151,-416.88 145,-410.88 145,-404.88 145,-404.88 145,-375.88 145,-375.88 145,-369.88 151,-363.88 157,-363.88 157,-363.88 235,-363.88 235,-363.88 241,-363.88 247,-369.88 247,-375.88 247,-375.88 247,-404.88 247,-404.88 247,-410.88 241,-416.88 235,-416.88"/>
<text text-anchor="middle" x="196" y="-401.68" font-family="Times,serif" font-size="14.00">cell_idx_shared</text>
<text text-anchor="middle" x="196" y="-386.68" font-family="Times,serif" font-size="14.00">~</text>
<text text-anchor="middle" x="196" y="-371.68" font-family="Times,serif" font-size="14.00">Data</text>
</g>
<!-- cell_idx_shared&#45;&gt;μ -->
<g id="edge18" class="edge">
<title>cell_idx_shared&#45;&gt;μ</title>
<path fill="none" stroke="black" d="M213.36,-363.81C224.15,-349.67 239.15,-332.8 256,-321.91 282.09,-305.05 314.99,-294.21 342.56,-287.46"/>
<polygon fill="black" stroke="black" points="343.5,-290.84 352.45,-285.16 341.92,-284.02 343.5,-290.84"/>
</g>
<!-- sgrna_idx_shared -->
<g id="node7" class="node">
<title>sgrna_idx_shared</title>
<path fill="lightgrey" stroke="black" d="M114.5,-416.88C114.5,-416.88 27.5,-416.88 27.5,-416.88 21.5,-416.88 15.5,-410.88 15.5,-404.88 15.5,-404.88 15.5,-375.88 15.5,-375.88 15.5,-369.88 21.5,-363.88 27.5,-363.88 27.5,-363.88 114.5,-363.88 114.5,-363.88 120.5,-363.88 126.5,-369.88 126.5,-375.88 126.5,-375.88 126.5,-404.88 126.5,-404.88 126.5,-410.88 120.5,-416.88 114.5,-416.88"/>
<text text-anchor="middle" x="71" y="-401.68" font-family="Times,serif" font-size="14.00">sgrna_idx_shared</text>
<text text-anchor="middle" x="71" y="-386.68" font-family="Times,serif" font-size="14.00">~</text>
<text text-anchor="middle" x="71" y="-371.68" font-family="Times,serif" font-size="14.00">Data</text>
</g>
<!-- sgrna_idx_shared&#45;&gt;μ -->
<g id="edge19" class="edge">
<title>sgrna_idx_shared&#45;&gt;μ</title>
<path fill="none" stroke="black" d="M89.15,-363.62C100.83,-349.03 117.3,-331.79 136,-321.91 200.96,-287.58 286.47,-278.75 341.84,-276.98"/>
<polygon fill="black" stroke="black" points="342.25,-280.47 352.16,-276.72 342.07,-273.47 342.25,-280.47"/>
</g>
<!-- σ_g -->
<g id="node8" class="node">
<title>σ_g</title>
<ellipse fill="none" stroke="black" cx="970" cy="-501.34" rx="58.88" ry="37.45"/>
<text text-anchor="middle" x="970" y="-512.64" font-family="Times,serif" font-size="14.00">σ_g</text>
<text text-anchor="middle" x="970" y="-497.64" font-family="Times,serif" font-size="14.00">~</text>
<text text-anchor="middle" x="970" y="-482.64" font-family="Times,serif" font-size="14.00">HalfNormal</text>
</g>
<!-- g -->
<g id="node22" class="node">
<title>g</title>
<ellipse fill="none" stroke="black" cx="970" cy="-390.38" rx="41.94" ry="37.45"/>
<text text-anchor="middle" x="970" y="-401.68" font-family="Times,serif" font-size="14.00">g</text>
<text text-anchor="middle" x="970" y="-386.68" font-family="Times,serif" font-size="14.00">~</text>
<text text-anchor="middle" x="970" y="-371.68" font-family="Times,serif" font-size="14.00">Normal</text>
</g>
<!-- σ_g&#45;&gt;g -->
<g id="edge6" class="edge">
<title>σ_g&#45;&gt;g</title>
<path fill="none" stroke="black" d="M970,-463.75C970,-455.58 970,-446.8 970,-438.27"/>
<polygon fill="black" stroke="black" points="973.5,-438.06 970,-428.06 966.5,-438.06 973.5,-438.06"/>
</g>
<!-- σ_o -->
<g id="node9" class="node">
<title>σ_o</title>
<ellipse fill="none" stroke="black" cx="229" cy="-501.34" rx="58.88" ry="37.45"/>
<text text-anchor="middle" x="229" y="-512.64" font-family="Times,serif" font-size="14.00">σ_o</text>
<text text-anchor="middle" x="229" y="-497.64" font-family="Times,serif" font-size="14.00">~</text>
<text text-anchor="middle" x="229" y="-482.64" font-family="Times,serif" font-size="14.00">HalfNormal</text>
</g>
<!-- o -->
<g id="node19" class="node">
<title>o</title>
<ellipse fill="none" stroke="black" cx="510" cy="-390.38" rx="41.94" ry="37.45"/>
<text text-anchor="middle" x="510" y="-401.68" font-family="Times,serif" font-size="14.00">o</text>
<text text-anchor="middle" x="510" y="-386.68" font-family="Times,serif" font-size="14.00">~</text>
<text text-anchor="middle" x="510" y="-371.68" font-family="Times,serif" font-size="14.00">Normal</text>
</g>
<!-- σ_o&#45;&gt;o -->
<g id="edge11" class="edge">
<title>σ_o&#45;&gt;o</title>
<path fill="none" stroke="black" d="M270.94,-474.83C279.04,-470.68 287.62,-466.78 296,-463.86 364.16,-440.06 390.41,-466.03 456,-435.86 462.3,-432.96 468.48,-429.14 474.27,-424.96"/>
<polygon fill="black" stroke="black" points="476.69,-427.52 482.46,-418.63 472.41,-421.98 476.69,-427.52"/>
</g>
<!-- q_b -->
<g id="node10" class="node">
<title>q_b</title>
<ellipse fill="none" stroke="black" cx="465" cy="-501.34" rx="57.97" ry="37.45"/>
<text text-anchor="middle" x="465" y="-512.64" font-family="Times,serif" font-size="14.00">q_b</text>
<text text-anchor="middle" x="465" y="-497.64" font-family="Times,serif" font-size="14.00">~</text>
<text text-anchor="middle" x="465" y="-482.64" font-family="Times,serif" font-size="14.00">Exponential</text>
</g>
<!-- q -->
<g id="node20" class="node">
<title>q</title>
<ellipse fill="none" stroke="black" cx="599" cy="-390.38" rx="28.98" ry="37.45"/>
<text text-anchor="middle" x="599" y="-401.68" font-family="Times,serif" font-size="14.00">q</text>
<text text-anchor="middle" x="599" y="-386.68" font-family="Times,serif" font-size="14.00">~</text>
<text text-anchor="middle" x="599" y="-371.68" font-family="Times,serif" font-size="14.00">Beta</text>
</g>
<!-- q_b&#45;&gt;q -->
<g id="edge2" class="edge">
<title>q_b&#45;&gt;q</title>
<path fill="none" stroke="black" d="M507.44,-475.37C524.83,-464.26 544.66,-450.41 561,-435.86 564.79,-432.48 568.55,-428.73 572.14,-424.88"/>
<polygon fill="black" stroke="black" points="574.76,-427.2 578.82,-417.42 569.54,-422.54 574.76,-427.2"/>
</g>
<!-- μ_h -->
<g id="node11" class="node">
<title>μ_h</title>
<ellipse fill="none" stroke="black" cx="717" cy="-501.34" rx="41.94" ry="37.45"/>
<text text-anchor="middle" x="717" y="-512.64" font-family="Times,serif" font-size="14.00">μ_h</text>
<text text-anchor="middle" x="717" y="-497.64" font-family="Times,serif" font-size="14.00">~</text>
<text text-anchor="middle" x="717" y="-482.64" font-family="Times,serif" font-size="14.00">Normal</text>
</g>
<!-- h -->
<g id="node21" class="node">
<title>h</title>
<ellipse fill="none" stroke="black" cx="717" cy="-390.38" rx="41.94" ry="37.45"/>
<text text-anchor="middle" x="717" y="-401.68" font-family="Times,serif" font-size="14.00">h</text>
<text text-anchor="middle" x="717" y="-386.68" font-family="Times,serif" font-size="14.00">~</text>
<text text-anchor="middle" x="717" y="-371.68" font-family="Times,serif" font-size="14.00">Normal</text>
</g>
<!-- μ_h&#45;&gt;h -->
<g id="edge4" class="edge">
<title>μ_h&#45;&gt;h</title>
<path fill="none" stroke="black" d="M717,-463.75C717,-455.58 717,-446.8 717,-438.27"/>
<polygon fill="black" stroke="black" points="720.5,-438.06 717,-428.06 713.5,-438.06 720.5,-438.06"/>
</g>
<!-- μ_β -->
<g id="node12" class="node">
<title>μ_β</title>
<ellipse fill="none" stroke="black" cx="1189" cy="-501.34" rx="41.94" ry="37.45"/>
<text text-anchor="middle" x="1189" y="-512.64" font-family="Times,serif" font-size="14.00">μ_β</text>
<text text-anchor="middle" x="1189" y="-497.64" font-family="Times,serif" font-size="14.00">~</text>
<text text-anchor="middle" x="1189" y="-482.64" font-family="Times,serif" font-size="14.00">Normal</text>
</g>
<!-- β -->
<g id="node23" class="node">
<title>β</title>
<ellipse fill="none" stroke="black" cx="1189" cy="-390.38" rx="41.94" ry="37.45"/>
<text text-anchor="middle" x="1189" y="-401.68" font-family="Times,serif" font-size="14.00">β</text>
<text text-anchor="middle" x="1189" y="-386.68" font-family="Times,serif" font-size="14.00">~</text>
<text text-anchor="middle" x="1189" y="-371.68" font-family="Times,serif" font-size="14.00">Normal</text>
</g>
<!-- μ_β&#45;&gt;β -->
<g id="edge8" class="edge">
<title>μ_β&#45;&gt;β</title>
<path fill="none" stroke="black" d="M1189,-463.75C1189,-455.58 1189,-446.8 1189,-438.27"/>
<polygon fill="black" stroke="black" points="1192.5,-438.06 1189,-428.06 1185.5,-438.06 1192.5,-438.06"/>
</g>
<!-- σ_β -->
<g id="node13" class="node">
<title>σ_β</title>
<ellipse fill="none" stroke="black" cx="1307" cy="-501.34" rx="58.88" ry="37.45"/>
<text text-anchor="middle" x="1307" y="-512.64" font-family="Times,serif" font-size="14.00">σ_β</text>
<text text-anchor="middle" x="1307" y="-497.64" font-family="Times,serif" font-size="14.00">~</text>
<text text-anchor="middle" x="1307" y="-482.64" font-family="Times,serif" font-size="14.00">HalfNormal</text>
</g>
<!-- σ_β&#45;&gt;β -->
<g id="edge9" class="edge">
<title>σ_β&#45;&gt;β</title>
<path fill="none" stroke="black" d="M1274.13,-469.99C1258.89,-455.92 1240.74,-439.16 1225.12,-424.74"/>
<polygon fill="black" stroke="black" points="1227.4,-422.08 1217.68,-417.87 1222.65,-427.22 1227.4,-422.08"/>
</g>
<!-- q_a -->
<g id="node14" class="node">
<title>q_a</title>
<ellipse fill="none" stroke="black" cx="599" cy="-501.34" rx="57.97" ry="37.45"/>
<text text-anchor="middle" x="599" y="-512.64" font-family="Times,serif" font-size="14.00">q_a</text>
<text text-anchor="middle" x="599" y="-497.64" font-family="Times,serif" font-size="14.00">~</text>
<text text-anchor="middle" x="599" y="-482.64" font-family="Times,serif" font-size="14.00">Exponential</text>
</g>
<!-- q_a&#45;&gt;q -->
<g id="edge3" class="edge">
<title>q_a&#45;&gt;q</title>
<path fill="none" stroke="black" d="M599,-463.75C599,-455.58 599,-446.8 599,-438.27"/>
<polygon fill="black" stroke="black" points="602.5,-438.06 599,-428.06 595.5,-438.06 602.5,-438.06"/>
</g>
<!-- σ_h -->
<g id="node15" class="node">
<title>σ_h</title>
<ellipse fill="none" stroke="black" cx="835" cy="-501.34" rx="58.88" ry="37.45"/>
<text text-anchor="middle" x="835" y="-512.64" font-family="Times,serif" font-size="14.00">σ_h</text>
<text text-anchor="middle" x="835" y="-497.64" font-family="Times,serif" font-size="14.00">~</text>
<text text-anchor="middle" x="835" y="-482.64" font-family="Times,serif" font-size="14.00">HalfNormal</text>
</g>
<!-- σ_h&#45;&gt;h -->
<g id="edge5" class="edge">
<title>σ_h&#45;&gt;h</title>
<path fill="none" stroke="black" d="M802.13,-469.99C786.89,-455.92 768.74,-439.16 753.12,-424.74"/>
<polygon fill="black" stroke="black" points="755.4,-422.08 745.68,-417.87 750.65,-427.22 755.4,-422.08"/>
</g>
<!-- μ_o -->
<g id="node16" class="node">
<title>μ_o</title>
<ellipse fill="none" stroke="black" cx="347" cy="-501.34" rx="41.94" ry="37.45"/>
<text text-anchor="middle" x="347" y="-512.64" font-family="Times,serif" font-size="14.00">μ_o</text>
<text text-anchor="middle" x="347" y="-497.64" font-family="Times,serif" font-size="14.00">~</text>
<text text-anchor="middle" x="347" y="-482.64" font-family="Times,serif" font-size="14.00">Normal</text>
</g>
<!-- μ_o&#45;&gt;o -->
<g id="edge10" class="edge">
<title>μ_o&#45;&gt;o</title>
<path fill="none" stroke="black" d="M378.54,-476.51C384.86,-472.11 391.54,-467.69 398,-463.86 422.62,-449.26 431.89,-451.29 456,-435.86 461.7,-432.21 467.49,-428.04 473.04,-423.75"/>
<polygon fill="black" stroke="black" points="475.34,-426.39 480.98,-417.42 470.98,-420.91 475.34,-426.39"/>
</g>
<!-- μ_g -->
<g id="node17" class="node">
<title>μ_g</title>
<ellipse fill="none" stroke="black" cx="1088" cy="-501.34" rx="41.94" ry="37.45"/>
<text text-anchor="middle" x="1088" y="-512.64" font-family="Times,serif" font-size="14.00">μ_g</text>
<text text-anchor="middle" x="1088" y="-497.64" font-family="Times,serif" font-size="14.00">~</text>
<text text-anchor="middle" x="1088" y="-482.64" font-family="Times,serif" font-size="14.00">Normal</text>
</g>
<!-- μ_g&#45;&gt;g -->
<g id="edge7" class="edge">
<title>μ_g&#45;&gt;g</title>
<path fill="none" stroke="black" d="M1059.44,-473.96C1043.47,-459.22 1023.4,-440.69 1006.32,-424.92"/>
<polygon fill="black" stroke="black" points="1008.43,-422.1 998.71,-417.89 1003.68,-427.25 1008.43,-422.1"/>
</g>
<!-- σ -->
<g id="node18" class="node">
<title>σ</title>
<ellipse fill="none" stroke="black" cx="520" cy="-276.43" rx="58.88" ry="37.45"/>
<text text-anchor="middle" x="520" y="-287.73" font-family="Times,serif" font-size="14.00">σ</text>
<text text-anchor="middle" x="520" y="-272.73" font-family="Times,serif" font-size="14.00">~</text>
<text text-anchor="middle" x="520" y="-257.73" font-family="Times,serif" font-size="14.00">HalfNormal</text>
</g>
<!-- σ&#45;&gt;D -->
<g id="edge22" class="edge">
<title>σ&#45;&gt;D</title>
<path fill="none" stroke="black" d="M486.89,-245.37C471.27,-231.19 452.59,-214.22 436.55,-199.66"/>
<polygon fill="black" stroke="black" points="438.67,-196.86 428.92,-192.73 433.97,-202.05 438.67,-196.86"/>
</g>
<!-- o&#45;&gt;μ -->
<g id="edge12" class="edge">
<title>o&#45;&gt;μ</title>
<path fill="none" stroke="black" d="M487.81,-358.49C478.57,-346.52 467.36,-333.04 456,-321.91 451.7,-317.7 447.01,-313.52 442.21,-309.51"/>
<polygon fill="black" stroke="black" points="444.07,-306.51 434.09,-302.94 439.66,-311.95 444.07,-306.51"/>
</g>
<!-- q&#45;&gt;μ -->
<g id="edge15" class="edge">
<title>q&#45;&gt;μ</title>
<path fill="none" stroke="black" d="M587.88,-355.6C581.94,-342.91 573.26,-329.69 561,-321.91 540.49,-308.89 474.95,-321.86 452,-313.91 447.67,-312.41 443.37,-310.47 439.18,-308.27"/>
<polygon fill="black" stroke="black" points="440.65,-305.08 430.25,-303.11 437.15,-311.14 440.65,-305.08"/>
</g>
<!-- h&#45;&gt;μ -->
<g id="edge16" class="edge">
<title>h&#45;&gt;μ</title>
<path fill="none" stroke="black" d="M692.34,-359.9C678.56,-345.67 660.13,-329.97 640,-321.91 601.18,-306.36 491.72,-326.99 452,-313.91 447.47,-312.41 442.97,-310.42 438.61,-308.14"/>
<polygon fill="black" stroke="black" points="440.3,-305.08 429.89,-303.11 436.8,-311.14 440.3,-305.08"/>
</g>
<!-- g&#45;&gt;μ -->
<g id="edge20" class="edge">
<title>g&#45;&gt;μ</title>
<path fill="none" stroke="black" d="M932.75,-372.96C893.42,-356.53 829.19,-332.25 771,-321.91 736.09,-315.7 485.77,-324.71 452,-313.91 447.39,-312.43 442.82,-310.43 438.4,-308.13"/>
<polygon fill="black" stroke="black" points="439.97,-305 429.56,-303.03 436.47,-311.06 439.97,-305"/>
</g>
<!-- β&#45;&gt;μ -->
<g id="edge17" class="edge">
<title>β&#45;&gt;μ</title>
<path fill="none" stroke="black" d="M1153.53,-370.32C1120.92,-353.91 1070.7,-331.43 1024,-321.91 961.72,-309.21 512.65,-332.94 452,-313.91 447.39,-312.46 442.81,-310.48 438.38,-308.18"/>
<polygon fill="black" stroke="black" points="439.96,-305.05 429.54,-303.09 436.46,-311.12 439.96,-305.05"/>
</g>
</g>
</svg>
