<?xml version="1.0" encoding="UTF-8" standalone="no"?>
<!DOCTYPE svg PUBLIC "-//W3C//DTD SVG 1.1//EN"
 "http://www.w3.org/Graphics/SVG/1.1/DTD/svg11.dtd">
<!-- Generated by graphviz version 2.42.3 (20191010.1750)
 -->
<!-- Title: %3 Pages: 1 -->
<svg width="280pt" height="344pt"
 viewBox="0.00 0.00 280.41 343.86" xmlns="http://www.w3.org/2000/svg" xmlns:xlink="http://www.w3.org/1999/xlink">
<g id="graph0" class="graph" transform="scale(1 1) rotate(0) translate(4 339.86)">
<title>%3</title>
<polygon fill="white" stroke="transparent" points="-4,4 -4,-339.86 276.41,-339.86 276.41,4 -4,4"/>
<g id="clust1" class="cluster">
<title>cluster20</title>
<path fill="none" stroke="black" d="M138.69,-8C138.69,-8 222.69,-8 222.69,-8 228.69,-8 234.69,-14 234.69,-20 234.69,-20 234.69,-209.93 234.69,-209.93 234.69,-215.93 228.69,-221.93 222.69,-221.93 222.69,-221.93 138.69,-221.93 138.69,-221.93 132.69,-221.93 126.69,-215.93 126.69,-209.93 126.69,-209.93 126.69,-20 126.69,-20 126.69,-14 132.69,-8 138.69,-8"/>
<text text-anchor="middle" x="219.69" y="-15.8" font-family="Times,serif" font-size="14.00">20</text>
</g>
<!-- sigma -->
<g id="node1" class="node">
<title>sigma</title>
<ellipse fill="none" stroke="black" cx="58.69" cy="-187.43" rx="58.88" ry="37.45"/>
<text text-anchor="middle" x="58.69" y="-198.73" font-family="Times,serif" font-size="14.00">sigma</text>
<text text-anchor="middle" x="58.69" y="-183.73" font-family="Times,serif" font-size="14.00">~</text>
<text text-anchor="middle" x="58.69" y="-168.73" font-family="Times,serif" font-size="14.00">HalfNormal</text>
</g>
<!-- logfc -->
<g id="node4" class="node">
<title>logfc</title>
<ellipse fill="lightgrey" stroke="black" cx="178.69" cy="-76.48" rx="41.94" ry="37.45"/>
<text text-anchor="middle" x="178.69" y="-87.78" font-family="Times,serif" font-size="14.00">logfc</text>
<text text-anchor="middle" x="178.69" y="-72.78" font-family="Times,serif" font-size="14.00">~</text>
<text text-anchor="middle" x="178.69" y="-57.78" font-family="Times,serif" font-size="14.00">Normal</text>
</g>
<!-- sigma&#45;&gt;logfc -->
<g id="edge3" class="edge">
<title>sigma&#45;&gt;logfc</title>
<path fill="none" stroke="black" d="M91.8,-156.37C107.42,-142.19 126.1,-125.22 142.14,-110.66"/>
<polygon fill="black" stroke="black" points="144.72,-113.05 149.77,-103.73 140.02,-107.86 144.72,-113.05"/>
</g>
<!-- alpha -->
<g id="node2" class="node">
<title>alpha</title>
<ellipse fill="none" stroke="black" cx="129.69" cy="-298.38" rx="41.94" ry="37.45"/>
<text text-anchor="middle" x="129.69" y="-309.68" font-family="Times,serif" font-size="14.00">alpha</text>
<text text-anchor="middle" x="129.69" y="-294.68" font-family="Times,serif" font-size="14.00">~</text>
<text text-anchor="middle" x="129.69" y="-279.68" font-family="Times,serif" font-size="14.00">Normal</text>
</g>
<!-- mu -->
<g id="node5" class="node">
<title>mu</title>
<polygon fill="none" stroke="black" points="226.19,-213.93 135.19,-213.93 135.19,-160.93 226.19,-160.93 226.19,-213.93"/>
<text text-anchor="middle" x="180.69" y="-198.73" font-family="Times,serif" font-size="14.00">mu</text>
<text text-anchor="middle" x="180.69" y="-183.73" font-family="Times,serif" font-size="14.00">~</text>
<text text-anchor="middle" x="180.69" y="-168.73" font-family="Times,serif" font-size="14.00">Deterministic</text>
</g>
<!-- alpha&#45;&gt;mu -->
<g id="edge1" class="edge">
<title>alpha&#45;&gt;mu</title>
<path fill="none" stroke="black" d="M145.55,-263.51C151.57,-250.64 158.44,-235.97 164.49,-223.04"/>
<polygon fill="black" stroke="black" points="167.66,-224.52 168.73,-213.97 161.32,-221.55 167.66,-224.52"/>
</g>
<!-- beta -->
<g id="node3" class="node">
<title>beta</title>
<ellipse fill="none" stroke="black" cx="230.69" cy="-298.38" rx="41.94" ry="37.45"/>
<text text-anchor="middle" x="230.69" y="-309.68" font-family="Times,serif" font-size="14.00">beta</text>
<text text-anchor="middle" x="230.69" y="-294.68" font-family="Times,serif" font-size="14.00">~</text>
<text text-anchor="middle" x="230.69" y="-279.68" font-family="Times,serif" font-size="14.00">Normal</text>
</g>
<!-- beta&#45;&gt;mu -->
<g id="edge2" class="edge">
<title>beta&#45;&gt;mu</title>
<path fill="none" stroke="black" d="M215.14,-263.51C209.3,-250.76 202.64,-236.26 196.74,-223.41"/>
<polygon fill="black" stroke="black" points="199.76,-221.6 192.41,-213.97 193.4,-224.52 199.76,-221.6"/>
</g>
<!-- mu&#45;&gt;logfc -->
<g id="edge4" class="edge">
<title>mu&#45;&gt;logfc</title>
<path fill="none" stroke="black" d="M180.22,-160.89C180.02,-149.98 179.78,-136.89 179.55,-124.35"/>
<polygon fill="black" stroke="black" points="183.04,-123.94 179.36,-114 176.04,-124.06 183.04,-123.94"/>
</g>
</g>
</svg>
