<?xml version="1.0" encoding="UTF-8" standalone="no"?>
<!DOCTYPE svg PUBLIC "-//W3C//DTD SVG 1.1//EN"
 "http://www.w3.org/Graphics/SVG/1.1/DTD/svg11.dtd">
<!-- Generated by graphviz version 2.50.0 (0)
 -->
<!-- Pages: 1 -->
<svg width="1987pt" height="571pt"
 viewBox="0.00 0.00 1987.38 570.81" xmlns="http://www.w3.org/2000/svg" xmlns:xlink="http://www.w3.org/1999/xlink">
<g id="graph0" class="graph" transform="scale(1 1) rotate(0) translate(4 566.81)">
<polygon fill="white" stroke="transparent" points="-4,4 -4,-566.81 1983.38,-566.81 1983.38,4 -4,4"/>
<g id="clust1" class="cluster">
<title>clustersgrna (332)</title>
<path fill="none" stroke="black" d="M952.69,-329.91C952.69,-329.91 1028.69,-329.91 1028.69,-329.91 1034.69,-329.91 1040.69,-335.91 1040.69,-341.91 1040.69,-341.91 1040.69,-431.86 1040.69,-431.86 1040.69,-437.86 1034.69,-443.86 1028.69,-443.86 1028.69,-443.86 952.69,-443.86 952.69,-443.86 946.69,-443.86 940.69,-437.86 940.69,-431.86 940.69,-431.86 940.69,-341.91 940.69,-341.91 940.69,-335.91 946.69,-329.91 952.69,-329.91"/>
<text text-anchor="middle" x="1001.19" y="-337.71" font-family="Times,serif" font-size="14.00">sgrna (332)</text>
</g>
<g id="clust2" class="cluster">
<title>clustercell_line (10)</title>
<path fill="none" stroke="black" d="M1069.69,-340.88C1069.69,-340.88 1262.69,-340.88 1262.69,-340.88 1268.69,-340.88 1274.69,-346.88 1274.69,-352.88 1274.69,-352.88 1274.69,-542.81 1274.69,-542.81 1274.69,-548.81 1268.69,-554.81 1262.69,-554.81 1262.69,-554.81 1069.69,-554.81 1069.69,-554.81 1063.69,-554.81 1057.69,-548.81 1057.69,-542.81 1057.69,-542.81 1057.69,-352.88 1057.69,-352.88 1057.69,-346.88 1063.69,-340.88 1069.69,-340.88"/>
<text text-anchor="middle" x="1230.19" y="-348.68" font-family="Times,serif" font-size="14.00">cell_line (10)</text>
</g>
<g id="clust4" class="cluster">
<title>clustergene (113)</title>
<path fill="none" stroke="black" d="M1656.69,-340.88C1656.69,-340.88 1740.69,-340.88 1740.69,-340.88 1746.69,-340.88 1752.69,-346.88 1752.69,-352.88 1752.69,-352.88 1752.69,-542.81 1752.69,-542.81 1752.69,-548.81 1746.69,-554.81 1740.69,-554.81 1740.69,-554.81 1656.69,-554.81 1656.69,-554.81 1650.69,-554.81 1644.69,-548.81 1644.69,-542.81 1644.69,-542.81 1644.69,-352.88 1644.69,-352.88 1644.69,-346.88 1650.69,-340.88 1656.69,-340.88"/>
<text text-anchor="middle" x="1715.19" y="-348.68" font-family="Times,serif" font-size="14.00">gene (113)</text>
</g>
<g id="clust5" class="cluster">
<title>cluster1976</title>
<path fill="none" stroke="black" d="M879.69,-8C879.69,-8 1017.69,-8 1017.69,-8 1023.69,-8 1029.69,-14 1029.69,-20 1029.69,-20 1029.69,-309.91 1029.69,-309.91 1029.69,-315.91 1023.69,-321.91 1017.69,-321.91 1017.69,-321.91 879.69,-321.91 879.69,-321.91 873.69,-321.91 867.69,-315.91 867.69,-309.91 867.69,-309.91 867.69,-20 867.69,-20 867.69,-14 873.69,-8 879.69,-8"/>
<text text-anchor="middle" x="1007.69" y="-15.8" font-family="Times,serif" font-size="14.00">1976</text>
</g>
<g id="clust3" class="cluster">
<title>clustergene (113) x lineage (2)</title>
<path fill="none" stroke="black" d="M137.69,-340.88C137.69,-340.88 439.69,-340.88 439.69,-340.88 445.69,-340.88 451.69,-346.88 451.69,-352.88 451.69,-352.88 451.69,-542.81 451.69,-542.81 451.69,-548.81 445.69,-554.81 439.69,-554.81 439.69,-554.81 137.69,-554.81 137.69,-554.81 131.69,-554.81 125.69,-548.81 125.69,-542.81 125.69,-542.81 125.69,-352.88 125.69,-352.88 125.69,-346.88 131.69,-340.88 137.69,-340.88"/>
<text text-anchor="middle" x="377.69" y="-348.68" font-family="Times,serif" font-size="14.00">gene (113) x lineage (2)</text>
</g>
<!-- sigma_k -->
<g id="node1" class="node">
<title>sigma_k</title>
<ellipse fill="none" stroke="black" cx="58.69" cy="-509.34" rx="58.88" ry="37.45"/>
<text text-anchor="middle" x="58.69" y="-520.64" font-family="Times,serif" font-size="14.00">sigma_k</text>
<text text-anchor="middle" x="58.69" y="-505.64" font-family="Times,serif" font-size="14.00">~</text>
<text text-anchor="middle" x="58.69" y="-490.64" font-family="Times,serif" font-size="14.00">HalfNormal</text>
</g>
<!-- k -->
<g id="node23" class="node">
<title>k</title>
<polygon fill="none" stroke="black" points="225.19,-424.88 134.19,-424.88 134.19,-371.88 225.19,-371.88 225.19,-424.88"/>
<text text-anchor="middle" x="179.69" y="-409.68" font-family="Times,serif" font-size="14.00">k</text>
<text text-anchor="middle" x="179.69" y="-394.68" font-family="Times,serif" font-size="14.00">~</text>
<text text-anchor="middle" x="179.69" y="-379.68" font-family="Times,serif" font-size="14.00">Deterministic</text>
</g>
<!-- sigma_k&#45;&gt;k -->
<g id="edge12" class="edge">
<title>sigma_k&#45;&gt;k</title>
<path fill="none" stroke="black" d="M92.07,-478.28C108.06,-463.88 127.24,-446.61 143.57,-431.91"/>
<polygon fill="black" stroke="black" points="146.24,-434.21 151.33,-424.92 141.56,-429.01 146.24,-434.21"/>
</g>
<!-- sigma_m -->
<g id="node2" class="node">
<title>sigma_m</title>
<ellipse fill="none" stroke="black" cx="855.69" cy="-509.34" rx="58.88" ry="37.45"/>
<text text-anchor="middle" x="855.69" y="-520.64" font-family="Times,serif" font-size="14.00">sigma_m</text>
<text text-anchor="middle" x="855.69" y="-505.64" font-family="Times,serif" font-size="14.00">~</text>
<text text-anchor="middle" x="855.69" y="-490.64" font-family="Times,serif" font-size="14.00">HalfNormal</text>
</g>
<!-- m -->
<g id="node24" class="node">
<title>m</title>
<polygon fill="none" stroke="black" points="443.19,-424.88 352.19,-424.88 352.19,-371.88 443.19,-371.88 443.19,-424.88"/>
<text text-anchor="middle" x="397.69" y="-409.68" font-family="Times,serif" font-size="14.00">m</text>
<text text-anchor="middle" x="397.69" y="-394.68" font-family="Times,serif" font-size="14.00">~</text>
<text text-anchor="middle" x="397.69" y="-379.68" font-family="Times,serif" font-size="14.00">Deterministic</text>
</g>
<!-- sigma_m&#45;&gt;m -->
<g id="edge17" class="edge">
<title>sigma_m&#45;&gt;m</title>
<path fill="none" stroke="black" d="M813.73,-482.9C805.63,-478.74 797.05,-474.83 788.69,-471.86 673.49,-430.99 530.61,-411.99 453.45,-404.15"/>
<polygon fill="black" stroke="black" points="453.75,-400.66 443.46,-403.16 453.06,-407.63 453.75,-400.66"/>
</g>
<!-- mu_f -->
<g id="node3" class="node">
<title>mu_f</title>
<ellipse fill="none" stroke="black" cx="1594.69" cy="-509.34" rx="41.94" ry="37.45"/>
<text text-anchor="middle" x="1594.69" y="-520.64" font-family="Times,serif" font-size="14.00">mu_f</text>
<text text-anchor="middle" x="1594.69" y="-505.64" font-family="Times,serif" font-size="14.00">~</text>
<text text-anchor="middle" x="1594.69" y="-490.64" font-family="Times,serif" font-size="14.00">Normal</text>
</g>
<!-- f -->
<g id="node16" class="node">
<title>f</title>
<polygon fill="none" stroke="black" points="1266.19,-424.88 1175.19,-424.88 1175.19,-371.88 1266.19,-371.88 1266.19,-424.88"/>
<text text-anchor="middle" x="1220.69" y="-409.68" font-family="Times,serif" font-size="14.00">f</text>
<text text-anchor="middle" x="1220.69" y="-394.68" font-family="Times,serif" font-size="14.00">~</text>
<text text-anchor="middle" x="1220.69" y="-379.68" font-family="Times,serif" font-size="14.00">Deterministic</text>
</g>
<!-- mu_f&#45;&gt;f -->
<g id="edge8" class="edge">
<title>mu_f&#45;&gt;f</title>
<path fill="none" stroke="black" d="M1564.44,-483.28C1558.19,-478.98 1551.44,-474.92 1544.69,-471.86 1455.85,-431.63 1342.91,-412.92 1276.54,-404.86"/>
<polygon fill="black" stroke="black" points="1276.63,-401.34 1266.29,-403.65 1275.82,-408.3 1276.63,-401.34"/>
</g>
<!-- sigma_a -->
<g id="node4" class="node">
<title>sigma_a</title>
<ellipse fill="none" stroke="black" cx="990.69" cy="-509.34" rx="58.88" ry="37.45"/>
<text text-anchor="middle" x="990.69" y="-520.64" font-family="Times,serif" font-size="14.00">sigma_a</text>
<text text-anchor="middle" x="990.69" y="-505.64" font-family="Times,serif" font-size="14.00">~</text>
<text text-anchor="middle" x="990.69" y="-490.64" font-family="Times,serif" font-size="14.00">HalfNormal</text>
</g>
<!-- a -->
<g id="node14" class="node">
<title>a</title>
<ellipse fill="none" stroke="black" cx="990.69" cy="-398.38" rx="41.94" ry="37.45"/>
<text text-anchor="middle" x="990.69" y="-409.68" font-family="Times,serif" font-size="14.00">a</text>
<text text-anchor="middle" x="990.69" y="-394.68" font-family="Times,serif" font-size="14.00">~</text>
<text text-anchor="middle" x="990.69" y="-379.68" font-family="Times,serif" font-size="14.00">Normal</text>
</g>
<!-- sigma_a&#45;&gt;a -->
<g id="edge1" class="edge">
<title>sigma_a&#45;&gt;a</title>
<path fill="none" stroke="black" d="M990.69,-471.75C990.69,-463.58 990.69,-454.8 990.69,-446.27"/>
<polygon fill="black" stroke="black" points="994.19,-446.06 990.69,-436.06 987.19,-446.06 994.19,-446.06"/>
</g>
<!-- z -->
<g id="node5" class="node">
<title>z</title>
<ellipse fill="none" stroke="black" cx="889.69" cy="-398.38" rx="41.94" ry="37.45"/>
<text text-anchor="middle" x="889.69" y="-409.68" font-family="Times,serif" font-size="14.00">z</text>
<text text-anchor="middle" x="889.69" y="-394.68" font-family="Times,serif" font-size="14.00">~</text>
<text text-anchor="middle" x="889.69" y="-379.68" font-family="Times,serif" font-size="14.00">Normal</text>
</g>
<!-- eta -->
<g id="node28" class="node">
<title>eta</title>
<polygon fill="none" stroke="black" points="985.19,-313.91 894.19,-313.91 894.19,-260.91 985.19,-260.91 985.19,-313.91"/>
<text text-anchor="middle" x="939.69" y="-298.71" font-family="Times,serif" font-size="14.00">eta</text>
<text text-anchor="middle" x="939.69" y="-283.71" font-family="Times,serif" font-size="14.00">~</text>
<text text-anchor="middle" x="939.69" y="-268.71" font-family="Times,serif" font-size="14.00">Deterministic</text>
</g>
<!-- z&#45;&gt;eta -->
<g id="edge25" class="edge">
<title>z&#45;&gt;eta</title>
<path fill="none" stroke="black" d="M905.24,-363.5C911.08,-350.75 917.74,-336.24 923.64,-323.4"/>
<polygon fill="black" stroke="black" points="926.98,-324.51 927.97,-313.96 920.62,-321.59 926.98,-324.51"/>
</g>
<!-- sigma_b -->
<g id="node6" class="node">
<title>sigma_b</title>
<ellipse fill="none" stroke="black" cx="1341.69" cy="-509.34" rx="58.88" ry="37.45"/>
<text text-anchor="middle" x="1341.69" y="-520.64" font-family="Times,serif" font-size="14.00">sigma_b</text>
<text text-anchor="middle" x="1341.69" y="-505.64" font-family="Times,serif" font-size="14.00">~</text>
<text text-anchor="middle" x="1341.69" y="-490.64" font-family="Times,serif" font-size="14.00">HalfNormal</text>
</g>
<!-- b -->
<g id="node18" class="node">
<title>b</title>
<polygon fill="none" stroke="black" points="1157.19,-424.88 1066.19,-424.88 1066.19,-371.88 1157.19,-371.88 1157.19,-424.88"/>
<text text-anchor="middle" x="1111.69" y="-409.68" font-family="Times,serif" font-size="14.00">b</text>
<text text-anchor="middle" x="1111.69" y="-394.68" font-family="Times,serif" font-size="14.00">~</text>
<text text-anchor="middle" x="1111.69" y="-379.68" font-family="Times,serif" font-size="14.00">Deterministic</text>
</g>
<!-- sigma_b&#45;&gt;b -->
<g id="edge3" class="edge">
<title>sigma_b&#45;&gt;b</title>
<path fill="none" stroke="black" d="M1300.5,-482.31C1293.39,-478.46 1285.95,-474.8 1278.69,-471.86 1231.13,-452.59 1212.61,-466.75 1166.69,-443.86 1159.89,-440.47 1153.16,-436.12 1146.87,-431.47"/>
<polygon fill="black" stroke="black" points="1148.64,-428.41 1138.6,-425.01 1144.33,-433.93 1148.64,-428.41"/>
</g>
<!-- alpha -->
<g id="node7" class="node">
<title>alpha</title>
<ellipse fill="none" stroke="black" cx="1080.69" cy="-187.43" rx="43.27" ry="37.45"/>
<text text-anchor="middle" x="1080.69" y="-198.73" font-family="Times,serif" font-size="14.00">alpha</text>
<text text-anchor="middle" x="1080.69" y="-183.73" font-family="Times,serif" font-size="14.00">~</text>
<text text-anchor="middle" x="1080.69" y="-168.73" font-family="Times,serif" font-size="14.00">Gamma</text>
</g>
<!-- ct_final -->
<g id="node29" class="node">
<title>ct_final</title>
<ellipse fill="lightgrey" stroke="black" cx="939.69" cy="-76.48" rx="63.78" ry="37.45"/>
<text text-anchor="middle" x="939.69" y="-87.78" font-family="Times,serif" font-size="14.00">ct_final</text>
<text text-anchor="middle" x="939.69" y="-72.78" font-family="Times,serif" font-size="14.00">~</text>
<text text-anchor="middle" x="939.69" y="-57.78" font-family="Times,serif" font-size="14.00">NegBinomial</text>
</g>
<!-- alpha&#45;&gt;ct_final -->
<g id="edge28" class="edge">
<title>alpha&#45;&gt;ct_final</title>
<path fill="none" stroke="black" d="M1049.1,-161.89C1043.95,-157.9 1038.67,-153.81 1033.69,-149.95 1018.15,-137.93 1001.15,-124.81 985.92,-113.08"/>
<polygon fill="black" stroke="black" points="987.73,-110.05 977.67,-106.72 983.46,-115.6 987.73,-110.05"/>
</g>
<!-- mu_k -->
<g id="node8" class="node">
<title>mu_k</title>
<ellipse fill="none" stroke="black" cx="501.69" cy="-509.34" rx="41.94" ry="37.45"/>
<text text-anchor="middle" x="501.69" y="-520.64" font-family="Times,serif" font-size="14.00">mu_k</text>
<text text-anchor="middle" x="501.69" y="-505.64" font-family="Times,serif" font-size="14.00">~</text>
<text text-anchor="middle" x="501.69" y="-490.64" font-family="Times,serif" font-size="14.00">Normal</text>
</g>
<!-- mu_k&#45;&gt;k -->
<g id="edge13" class="edge">
<title>mu_k&#45;&gt;k</title>
<path fill="none" stroke="black" d="M473.02,-481.83C467.58,-477.93 461.7,-474.39 455.69,-471.86 364.43,-433.47 325.77,-482.69 234.69,-443.86 227.3,-440.71 220.1,-436.27 213.47,-431.4"/>
<polygon fill="black" stroke="black" points="215.44,-428.49 205.41,-425.07 211.11,-434 215.44,-428.49"/>
</g>
<!-- mu_m -->
<g id="node9" class="node">
<title>mu_m</title>
<ellipse fill="none" stroke="black" cx="737.69" cy="-509.34" rx="41.94" ry="37.45"/>
<text text-anchor="middle" x="737.69" y="-520.64" font-family="Times,serif" font-size="14.00">mu_m</text>
<text text-anchor="middle" x="737.69" y="-505.64" font-family="Times,serif" font-size="14.00">~</text>
<text text-anchor="middle" x="737.69" y="-490.64" font-family="Times,serif" font-size="14.00">Normal</text>
</g>
<!-- mu_m&#45;&gt;m -->
<g id="edge16" class="edge">
<title>mu_m&#45;&gt;m</title>
<path fill="none" stroke="black" d="M707.38,-483.41C701.13,-479.1 694.41,-475 687.69,-471.86 610.59,-435.79 513.25,-416.19 453.25,-406.76"/>
<polygon fill="black" stroke="black" points="453.64,-403.28 443.22,-405.23 452.58,-410.2 453.64,-403.28"/>
</g>
<!-- sigma_h -->
<g id="node10" class="node">
<title>sigma_h</title>
<ellipse fill="none" stroke="black" cx="1920.69" cy="-509.34" rx="58.88" ry="37.45"/>
<text text-anchor="middle" x="1920.69" y="-520.64" font-family="Times,serif" font-size="14.00">sigma_h</text>
<text text-anchor="middle" x="1920.69" y="-505.64" font-family="Times,serif" font-size="14.00">~</text>
<text text-anchor="middle" x="1920.69" y="-490.64" font-family="Times,serif" font-size="14.00">HalfNormal</text>
</g>
<!-- h -->
<g id="node26" class="node">
<title>h</title>
<polygon fill="none" stroke="black" points="1744.19,-424.88 1653.19,-424.88 1653.19,-371.88 1744.19,-371.88 1744.19,-424.88"/>
<text text-anchor="middle" x="1698.69" y="-409.68" font-family="Times,serif" font-size="14.00">h</text>
<text text-anchor="middle" x="1698.69" y="-394.68" font-family="Times,serif" font-size="14.00">~</text>
<text text-anchor="middle" x="1698.69" y="-379.68" font-family="Times,serif" font-size="14.00">Deterministic</text>
</g>
<!-- sigma_h&#45;&gt;h -->
<g id="edge11" class="edge">
<title>sigma_h&#45;&gt;h</title>
<path fill="none" stroke="black" d="M1876.92,-484.01C1869.22,-479.87 1861.25,-475.68 1853.69,-471.86 1820.91,-455.3 1783.65,-437.83 1753.87,-424.19"/>
<polygon fill="black" stroke="black" points="1755.03,-420.87 1744.48,-419.91 1752.13,-427.24 1755.03,-420.87"/>
</g>
<!-- sigma_f -->
<g id="node11" class="node">
<title>sigma_f</title>
<ellipse fill="none" stroke="black" cx="1476.69" cy="-509.34" rx="58.88" ry="37.45"/>
<text text-anchor="middle" x="1476.69" y="-520.64" font-family="Times,serif" font-size="14.00">sigma_f</text>
<text text-anchor="middle" x="1476.69" y="-505.64" font-family="Times,serif" font-size="14.00">~</text>
<text text-anchor="middle" x="1476.69" y="-490.64" font-family="Times,serif" font-size="14.00">HalfNormal</text>
</g>
<!-- sigma_f&#45;&gt;f -->
<g id="edge6" class="edge">
<title>sigma_f&#45;&gt;f</title>
<path fill="none" stroke="black" d="M1433.51,-483.74C1425.67,-479.59 1417.51,-475.47 1409.69,-471.86 1365.75,-451.58 1314.4,-432.15 1276.32,-418.52"/>
<polygon fill="black" stroke="black" points="1277.04,-415.06 1266.45,-415.01 1274.7,-421.66 1277.04,-415.06"/>
</g>
<!-- sigma_d -->
<g id="node12" class="node">
<title>sigma_d</title>
<ellipse fill="none" stroke="black" cx="619.69" cy="-509.34" rx="58.88" ry="37.45"/>
<text text-anchor="middle" x="619.69" y="-520.64" font-family="Times,serif" font-size="14.00">sigma_d</text>
<text text-anchor="middle" x="619.69" y="-505.64" font-family="Times,serif" font-size="14.00">~</text>
<text text-anchor="middle" x="619.69" y="-490.64" font-family="Times,serif" font-size="14.00">HalfNormal</text>
</g>
<!-- d -->
<g id="node21" class="node">
<title>d</title>
<polygon fill="none" stroke="black" points="334.19,-424.88 243.19,-424.88 243.19,-371.88 334.19,-371.88 334.19,-424.88"/>
<text text-anchor="middle" x="288.69" y="-409.68" font-family="Times,serif" font-size="14.00">d</text>
<text text-anchor="middle" x="288.69" y="-394.68" font-family="Times,serif" font-size="14.00">~</text>
<text text-anchor="middle" x="288.69" y="-379.68" font-family="Times,serif" font-size="14.00">Deterministic</text>
</g>
<!-- sigma_d&#45;&gt;d -->
<g id="edge5" class="edge">
<title>sigma_d&#45;&gt;d</title>
<path fill="none" stroke="black" d="M578.21,-482.74C569.99,-478.54 561.25,-474.66 552.69,-471.86 463.61,-442.75 429.77,-480.92 343.69,-443.86 336.31,-440.68 329.12,-436.23 322.49,-431.36"/>
<polygon fill="black" stroke="black" points="324.46,-428.45 314.43,-425.02 320.13,-433.95 324.46,-428.45"/>
</g>
<!-- mu_h -->
<g id="node13" class="node">
<title>mu_h</title>
<ellipse fill="none" stroke="black" cx="1802.69" cy="-509.34" rx="41.94" ry="37.45"/>
<text text-anchor="middle" x="1802.69" y="-520.64" font-family="Times,serif" font-size="14.00">mu_h</text>
<text text-anchor="middle" x="1802.69" y="-505.64" font-family="Times,serif" font-size="14.00">~</text>
<text text-anchor="middle" x="1802.69" y="-490.64" font-family="Times,serif" font-size="14.00">Normal</text>
</g>
<!-- mu_h&#45;&gt;h -->
<g id="edge10" class="edge">
<title>mu_h&#45;&gt;h</title>
<path fill="none" stroke="black" d="M1775.91,-480.28C1761.94,-465.65 1744.78,-447.66 1730.18,-432.37"/>
<polygon fill="black" stroke="black" points="1732.68,-429.92 1723.24,-425.11 1727.62,-434.76 1732.68,-429.92"/>
</g>
<!-- a&#45;&gt;eta -->
<g id="edge20" class="edge">
<title>a&#45;&gt;eta</title>
<path fill="none" stroke="black" d="M974.83,-363.5C968.81,-350.63 961.94,-335.96 955.89,-323.02"/>
<polygon fill="black" stroke="black" points="959.06,-321.53 951.65,-313.96 952.72,-324.5 959.06,-321.53"/>
</g>
<!-- delta_b -->
<g id="node15" class="node">
<title>delta_b</title>
<ellipse fill="none" stroke="black" cx="1111.69" cy="-509.34" rx="41.94" ry="37.45"/>
<text text-anchor="middle" x="1111.69" y="-520.64" font-family="Times,serif" font-size="14.00">delta_b</text>
<text text-anchor="middle" x="1111.69" y="-505.64" font-family="Times,serif" font-size="14.00">~</text>
<text text-anchor="middle" x="1111.69" y="-490.64" font-family="Times,serif" font-size="14.00">Normal</text>
</g>
<!-- delta_b&#45;&gt;b -->
<g id="edge2" class="edge">
<title>delta_b&#45;&gt;b</title>
<path fill="none" stroke="black" d="M1111.69,-471.75C1111.69,-460.02 1111.69,-447.03 1111.69,-435.34"/>
<polygon fill="black" stroke="black" points="1115.19,-435.04 1111.69,-425.04 1108.19,-435.04 1115.19,-435.04"/>
</g>
<!-- f&#45;&gt;eta -->
<g id="edge24" class="edge">
<title>f&#45;&gt;eta</title>
<path fill="none" stroke="black" d="M1206.49,-371.7C1197.1,-357.15 1183.44,-339.91 1166.69,-329.91 1114.46,-298.71 1044.32,-289.92 995.89,-287.94"/>
<polygon fill="black" stroke="black" points="995.71,-284.43 985.6,-287.6 995.48,-291.42 995.71,-284.43"/>
</g>
<!-- delta_f -->
<g id="node17" class="node">
<title>delta_f</title>
<ellipse fill="none" stroke="black" cx="1220.69" cy="-509.34" rx="41.94" ry="37.45"/>
<text text-anchor="middle" x="1220.69" y="-520.64" font-family="Times,serif" font-size="14.00">delta_f</text>
<text text-anchor="middle" x="1220.69" y="-505.64" font-family="Times,serif" font-size="14.00">~</text>
<text text-anchor="middle" x="1220.69" y="-490.64" font-family="Times,serif" font-size="14.00">Normal</text>
</g>
<!-- delta_f&#45;&gt;f -->
<g id="edge7" class="edge">
<title>delta_f&#45;&gt;f</title>
<path fill="none" stroke="black" d="M1220.69,-471.75C1220.69,-460.02 1220.69,-447.03 1220.69,-435.34"/>
<polygon fill="black" stroke="black" points="1224.19,-435.04 1220.69,-425.04 1217.19,-435.04 1224.19,-435.04"/>
</g>
<!-- b&#45;&gt;eta -->
<g id="edge21" class="edge">
<title>b&#45;&gt;eta</title>
<path fill="none" stroke="black" d="M1090.84,-371.71C1078.56,-357.88 1062.06,-341.35 1044.69,-329.91 1029.57,-319.94 1011.69,-311.77 995.01,-305.39"/>
<polygon fill="black" stroke="black" points="995.96,-302 985.36,-301.84 993.54,-308.57 995.96,-302"/>
</g>
<!-- delta_d -->
<g id="node19" class="node">
<title>delta_d</title>
<ellipse fill="none" stroke="black" cx="288.69" cy="-509.34" rx="41.94" ry="37.45"/>
<text text-anchor="middle" x="288.69" y="-520.64" font-family="Times,serif" font-size="14.00">delta_d</text>
<text text-anchor="middle" x="288.69" y="-505.64" font-family="Times,serif" font-size="14.00">~</text>
<text text-anchor="middle" x="288.69" y="-490.64" font-family="Times,serif" font-size="14.00">Normal</text>
</g>
<!-- delta_d&#45;&gt;d -->
<g id="edge4" class="edge">
<title>delta_d&#45;&gt;d</title>
<path fill="none" stroke="black" d="M288.69,-471.75C288.69,-460.02 288.69,-447.03 288.69,-435.34"/>
<polygon fill="black" stroke="black" points="292.19,-435.04 288.69,-425.04 285.19,-435.04 292.19,-435.04"/>
</g>
<!-- delta_m -->
<g id="node20" class="node">
<title>delta_m</title>
<ellipse fill="none" stroke="black" cx="397.69" cy="-509.34" rx="43.27" ry="37.45"/>
<text text-anchor="middle" x="397.69" y="-520.64" font-family="Times,serif" font-size="14.00">delta_m</text>
<text text-anchor="middle" x="397.69" y="-505.64" font-family="Times,serif" font-size="14.00">~</text>
<text text-anchor="middle" x="397.69" y="-490.64" font-family="Times,serif" font-size="14.00">Normal</text>
</g>
<!-- delta_m&#45;&gt;m -->
<g id="edge15" class="edge">
<title>delta_m&#45;&gt;m</title>
<path fill="none" stroke="black" d="M397.69,-471.75C397.69,-460.02 397.69,-447.03 397.69,-435.34"/>
<polygon fill="black" stroke="black" points="401.19,-435.04 397.69,-425.04 394.19,-435.04 401.19,-435.04"/>
</g>
<!-- d&#45;&gt;eta -->
<g id="edge18" class="edge">
<title>d&#45;&gt;eta</title>
<path fill="none" stroke="black" d="M302.43,-371.69C311.91,-356.74 325.98,-339.09 343.69,-329.91 390.91,-305.43 745.08,-293.53 884.01,-289.77"/>
<polygon fill="black" stroke="black" points="884.12,-293.27 894.03,-289.51 883.94,-286.27 884.12,-293.27"/>
</g>
<!-- delta_k -->
<g id="node22" class="node">
<title>delta_k</title>
<ellipse fill="none" stroke="black" cx="179.69" cy="-509.34" rx="41.94" ry="37.45"/>
<text text-anchor="middle" x="179.69" y="-520.64" font-family="Times,serif" font-size="14.00">delta_k</text>
<text text-anchor="middle" x="179.69" y="-505.64" font-family="Times,serif" font-size="14.00">~</text>
<text text-anchor="middle" x="179.69" y="-490.64" font-family="Times,serif" font-size="14.00">Normal</text>
</g>
<!-- delta_k&#45;&gt;k -->
<g id="edge14" class="edge">
<title>delta_k&#45;&gt;k</title>
<path fill="none" stroke="black" d="M179.69,-471.75C179.69,-460.02 179.69,-447.03 179.69,-435.34"/>
<polygon fill="black" stroke="black" points="183.19,-435.04 179.69,-425.04 176.19,-435.04 183.19,-435.04"/>
</g>
<!-- k&#45;&gt;eta -->
<g id="edge22" class="edge">
<title>k&#45;&gt;eta</title>
<path fill="none" stroke="black" d="M193.4,-371.62C202.86,-356.65 216.93,-338.99 234.69,-329.91 291.81,-300.69 726.84,-291.51 883.6,-289.13"/>
<polygon fill="black" stroke="black" points="884.01,-292.62 893.96,-288.98 883.91,-285.62 884.01,-292.62"/>
</g>
<!-- m&#45;&gt;eta -->
<g id="edge23" class="edge">
<title>m&#45;&gt;eta</title>
<path fill="none" stroke="black" d="M443.43,-388.19C542.45,-368.28 776.37,-321.24 883.88,-299.63"/>
<polygon fill="black" stroke="black" points="884.76,-303.02 893.88,-297.62 883.38,-296.16 884.76,-303.02"/>
</g>
<!-- delta_h -->
<g id="node25" class="node">
<title>delta_h</title>
<ellipse fill="none" stroke="black" cx="1698.69" cy="-509.34" rx="41.94" ry="37.45"/>
<text text-anchor="middle" x="1698.69" y="-520.64" font-family="Times,serif" font-size="14.00">delta_h</text>
<text text-anchor="middle" x="1698.69" y="-505.64" font-family="Times,serif" font-size="14.00">~</text>
<text text-anchor="middle" x="1698.69" y="-490.64" font-family="Times,serif" font-size="14.00">Normal</text>
</g>
<!-- delta_h&#45;&gt;h -->
<g id="edge9" class="edge">
<title>delta_h&#45;&gt;h</title>
<path fill="none" stroke="black" d="M1698.69,-471.75C1698.69,-460.02 1698.69,-447.03 1698.69,-435.34"/>
<polygon fill="black" stroke="black" points="1702.19,-435.04 1698.69,-425.04 1695.19,-435.04 1702.19,-435.04"/>
</g>
<!-- h&#45;&gt;eta -->
<g id="edge19" class="edge">
<title>h&#45;&gt;eta</title>
<path fill="none" stroke="black" d="M1653.09,-389.48C1576.08,-376.27 1415.25,-349.23 1278.69,-329.91 1179.01,-315.8 1062.44,-302.15 995.22,-294.56"/>
<polygon fill="black" stroke="black" points="995.6,-291.08 985.27,-293.44 994.82,-298.03 995.6,-291.08"/>
</g>
<!-- mu -->
<g id="node27" class="node">
<title>mu</title>
<polygon fill="none" stroke="black" points="985.19,-213.93 894.19,-213.93 894.19,-160.93 985.19,-160.93 985.19,-213.93"/>
<text text-anchor="middle" x="939.69" y="-198.73" font-family="Times,serif" font-size="14.00">mu</text>
<text text-anchor="middle" x="939.69" y="-183.73" font-family="Times,serif" font-size="14.00">~</text>
<text text-anchor="middle" x="939.69" y="-168.73" font-family="Times,serif" font-size="14.00">Deterministic</text>
</g>
<!-- mu&#45;&gt;ct_final -->
<g id="edge27" class="edge">
<title>mu&#45;&gt;ct_final</title>
<path fill="none" stroke="black" d="M939.69,-160.89C939.69,-149.98 939.69,-136.89 939.69,-124.35"/>
<polygon fill="black" stroke="black" points="943.19,-124 939.69,-114 936.19,-124 943.19,-124"/>
</g>
<!-- eta&#45;&gt;mu -->
<g id="edge26" class="edge">
<title>eta&#45;&gt;mu</title>
<path fill="none" stroke="black" d="M939.69,-260.66C939.69,-249.53 939.69,-236.3 939.69,-224.23"/>
<polygon fill="black" stroke="black" points="943.19,-224 939.69,-214 936.19,-224 943.19,-224"/>
</g>
<!-- ct_final&#45;&gt;ct_final -->
<g id="edge29" class="edge">
<title>ct_final&#45;&gt;ct_final</title>
<path fill="none" stroke="black" d="M993.08,-97.06C1008.97,-96.44 1021.33,-89.58 1021.33,-76.48 1021.33,-66.34 1013.94,-59.94 1003.23,-57.28"/>
<polygon fill="black" stroke="black" points="1003.46,-53.78 993.08,-55.9 1002.52,-60.71 1003.46,-53.78"/>
</g>
</g>
</svg>
