<?xml version="1.0" encoding="UTF-8" standalone="no"?>
<!DOCTYPE svg PUBLIC "-//W3C//DTD SVG 1.1//EN"
 "http://www.w3.org/Graphics/SVG/1.1/DTD/svg11.dtd">
<!-- Generated by graphviz version 2.47.0 (20210327.0129)
 -->
<!-- Pages: 1 -->
<svg width="1343pt" height="474pt"
 viewBox="0.00 0.00 1342.59 473.84" xmlns="http://www.w3.org/2000/svg" xmlns:xlink="http://www.w3.org/1999/xlink">
<g id="graph0" class="graph" transform="scale(1 1) rotate(0) translate(4 469.84)">
<polygon fill="white" stroke="transparent" points="-4,4 -4,-469.84 1338.59,-469.84 1338.59,4 -4,4"/>
<g id="clust1" class="cluster">
<title>cluster64</title>
<path fill="none" stroke="black" d="M160.3,-243.91C160.3,-243.91 264.3,-243.91 264.3,-243.91 270.3,-243.91 276.3,-249.91 276.3,-255.91 276.3,-255.91 276.3,-445.84 276.3,-445.84 276.3,-451.84 270.3,-457.84 264.3,-457.84 264.3,-457.84 160.3,-457.84 160.3,-457.84 154.3,-457.84 148.3,-451.84 148.3,-445.84 148.3,-445.84 148.3,-255.91 148.3,-255.91 148.3,-249.91 154.3,-243.91 160.3,-243.91"/>
<text text-anchor="middle" x="258.8" y="-251.71" font-family="Times-Roman" font-size="14.00">64</text>
</g>
<g id="clust2" class="cluster">
<title>cluster64 x 10</title>
<path fill="none" stroke="black" d="M558.3,-243.91C558.3,-243.91 662.3,-243.91 662.3,-243.91 668.3,-243.91 674.3,-249.91 674.3,-255.91 674.3,-255.91 674.3,-445.84 674.3,-445.84 674.3,-451.84 668.3,-457.84 662.3,-457.84 662.3,-457.84 558.3,-457.84 558.3,-457.84 552.3,-457.84 546.3,-451.84 546.3,-445.84 546.3,-445.84 546.3,-255.91 546.3,-255.91 546.3,-249.91 552.3,-243.91 558.3,-243.91"/>
<text text-anchor="middle" x="639.3" y="-251.71" font-family="Times-Roman" font-size="14.00">64 x 10</text>
</g>
<g id="clust3" class="cluster">
<title>cluster4</title>
<path fill="none" stroke="black" d="M956.3,-243.91C956.3,-243.91 1060.3,-243.91 1060.3,-243.91 1066.3,-243.91 1072.3,-249.91 1072.3,-255.91 1072.3,-255.91 1072.3,-445.84 1072.3,-445.84 1072.3,-451.84 1066.3,-457.84 1060.3,-457.84 1060.3,-457.84 956.3,-457.84 956.3,-457.84 950.3,-457.84 944.3,-451.84 944.3,-445.84 944.3,-445.84 944.3,-255.91 944.3,-255.91 944.3,-249.91 950.3,-243.91 956.3,-243.91"/>
<text text-anchor="middle" x="1059.3" y="-251.71" font-family="Times-Roman" font-size="14.00">4</text>
</g>
<g id="clust4" class="cluster">
<title>cluster1,443</title>
<path fill="none" stroke="black" d="M362.3,-8C362.3,-8 466.3,-8 466.3,-8 472.3,-8 478.3,-14 478.3,-20 478.3,-20 478.3,-212.93 478.3,-212.93 478.3,-218.93 472.3,-224.93 466.3,-224.93 466.3,-224.93 362.3,-224.93 362.3,-224.93 356.3,-224.93 350.3,-218.93 350.3,-212.93 350.3,-212.93 350.3,-20 350.3,-20 350.3,-14 356.3,-8 362.3,-8"/>
<text text-anchor="middle" x="449.8" y="-15.8" font-family="Times-Roman" font-size="14.00">1,443</text>
</g>
<g id="clust5" class="cluster">
<title>cluster192</title>
<path fill="none" stroke="black" d="M141.3,-121.95C141.3,-121.95 271.3,-121.95 271.3,-121.95 277.3,-121.95 283.3,-127.95 283.3,-133.95 283.3,-133.95 283.3,-223.91 283.3,-223.91 283.3,-229.91 277.3,-235.91 271.3,-235.91 271.3,-235.91 141.3,-235.91 141.3,-235.91 135.3,-235.91 129.3,-229.91 129.3,-223.91 129.3,-223.91 129.3,-133.95 129.3,-133.95 129.3,-127.95 135.3,-121.95 141.3,-121.95"/>
<text text-anchor="middle" x="261.3" y="-129.75" font-family="Times-Roman" font-size="14.00">192</text>
</g>
<!-- σ_σ -->
<g id="node1" class="node">
<title>σ_σ</title>
<ellipse fill="none" stroke="black" cx="69.3" cy="-301.41" rx="69.09" ry="37.45"/>
<text text-anchor="middle" x="69.3" y="-312.71" font-family="Times-Roman" font-size="14.00">σ_σ</text>
<text text-anchor="middle" x="69.3" y="-297.71" font-family="Times-Roman" font-size="14.00">~</text>
<text text-anchor="middle" x="69.3" y="-282.71" font-family="Times-Roman" font-size="14.00">HalfNormal</text>
</g>
<!-- σ -->
<g id="node16" class="node">
<title>σ</title>
<ellipse fill="none" stroke="black" cx="206.3" cy="-190.43" rx="69.09" ry="37.45"/>
<text text-anchor="middle" x="206.3" y="-201.73" font-family="Times-Roman" font-size="14.00">σ</text>
<text text-anchor="middle" x="206.3" y="-186.73" font-family="Times-Roman" font-size="14.00">~</text>
<text text-anchor="middle" x="206.3" y="-171.73" font-family="Times-Roman" font-size="14.00">HalfNormal</text>
</g>
<!-- σ_σ&#45;&gt;σ -->
<g id="edge13" class="edge">
<title>σ_σ&#45;&gt;σ</title>
<path fill="none" stroke="black" d="M107.46,-270.05C123.65,-257.17 142.68,-242.03 159.69,-228.5"/>
<polygon fill="black" stroke="black" points="162.22,-230.97 167.86,-222 157.86,-225.49 162.22,-230.97"/>
</g>
<!-- μ_η -->
<g id="node2" class="node">
<title>μ_η</title>
<ellipse fill="none" stroke="black" cx="1129.3" cy="-412.36" rx="48.58" ry="37.45"/>
<text text-anchor="middle" x="1129.3" y="-423.66" font-family="Times-Roman" font-size="14.00">μ_η</text>
<text text-anchor="middle" x="1129.3" y="-408.66" font-family="Times-Roman" font-size="14.00">~</text>
<text text-anchor="middle" x="1129.3" y="-393.66" font-family="Times-Roman" font-size="14.00">Normal</text>
</g>
<!-- η -->
<g id="node12" class="node">
<title>η</title>
<polygon fill="none" stroke="black" points="1064.3,-327.91 952.3,-327.91 952.3,-274.91 1064.3,-274.91 1064.3,-327.91"/>
<text text-anchor="middle" x="1008.3" y="-312.71" font-family="Times-Roman" font-size="14.00">η</text>
<text text-anchor="middle" x="1008.3" y="-297.71" font-family="Times-Roman" font-size="14.00">~</text>
<text text-anchor="middle" x="1008.3" y="-282.71" font-family="Times-Roman" font-size="14.00">Deterministic</text>
</g>
<!-- μ_η&#45;&gt;η -->
<g id="edge9" class="edge">
<title>μ_η&#45;&gt;η</title>
<path fill="none" stroke="black" d="M1098.14,-383.3C1081.74,-368.54 1061.55,-350.36 1044.47,-334.98"/>
<polygon fill="black" stroke="black" points="1046.64,-332.22 1036.86,-328.13 1041.95,-337.42 1046.64,-332.22"/>
</g>
<!-- σ_η -->
<g id="node3" class="node">
<title>σ_η</title>
<ellipse fill="none" stroke="black" cx="1265.3" cy="-412.36" rx="69.09" ry="37.45"/>
<text text-anchor="middle" x="1265.3" y="-423.66" font-family="Times-Roman" font-size="14.00">σ_η</text>
<text text-anchor="middle" x="1265.3" y="-408.66" font-family="Times-Roman" font-size="14.00">~</text>
<text text-anchor="middle" x="1265.3" y="-393.66" font-family="Times-Roman" font-size="14.00">HalfNormal</text>
</g>
<!-- σ_η&#45;&gt;η -->
<g id="edge7" class="edge">
<title>σ_η&#45;&gt;η</title>
<path fill="none" stroke="black" d="M1213.86,-386.84C1205.04,-382.77 1195.93,-378.65 1187.3,-374.88 1150.07,-358.66 1108.01,-341.56 1074.01,-328.05"/>
<polygon fill="black" stroke="black" points="1075.23,-324.77 1064.65,-324.34 1072.65,-331.28 1075.23,-324.77"/>
</g>
<!-- μ_d -->
<g id="node4" class="node">
<title>μ_d</title>
<ellipse fill="none" stroke="black" cx="731.3" cy="-412.36" rx="48.58" ry="37.45"/>
<text text-anchor="middle" x="731.3" y="-423.66" font-family="Times-Roman" font-size="14.00">μ_d</text>
<text text-anchor="middle" x="731.3" y="-408.66" font-family="Times-Roman" font-size="14.00">~</text>
<text text-anchor="middle" x="731.3" y="-393.66" font-family="Times-Roman" font-size="14.00">Normal</text>
</g>
<!-- d -->
<g id="node10" class="node">
<title>d</title>
<polygon fill="none" stroke="black" points="666.3,-327.91 554.3,-327.91 554.3,-274.91 666.3,-274.91 666.3,-327.91"/>
<text text-anchor="middle" x="610.3" y="-312.71" font-family="Times-Roman" font-size="14.00">d</text>
<text text-anchor="middle" x="610.3" y="-297.71" font-family="Times-Roman" font-size="14.00">~</text>
<text text-anchor="middle" x="610.3" y="-282.71" font-family="Times-Roman" font-size="14.00">Deterministic</text>
</g>
<!-- μ_d&#45;&gt;d -->
<g id="edge6" class="edge">
<title>μ_d&#45;&gt;d</title>
<path fill="none" stroke="black" d="M700.14,-383.3C683.74,-368.54 663.55,-350.36 646.47,-334.98"/>
<polygon fill="black" stroke="black" points="648.64,-332.22 638.86,-328.13 643.95,-337.42 648.64,-332.22"/>
</g>
<!-- σ_h -->
<g id="node5" class="node">
<title>σ_h</title>
<ellipse fill="none" stroke="black" cx="353.3" cy="-412.36" rx="69.09" ry="37.45"/>
<text text-anchor="middle" x="353.3" y="-423.66" font-family="Times-Roman" font-size="14.00">σ_h</text>
<text text-anchor="middle" x="353.3" y="-408.66" font-family="Times-Roman" font-size="14.00">~</text>
<text text-anchor="middle" x="353.3" y="-393.66" font-family="Times-Roman" font-size="14.00">HalfNormal</text>
</g>
<!-- h -->
<g id="node9" class="node">
<title>h</title>
<polygon fill="none" stroke="black" points="268.3,-327.91 156.3,-327.91 156.3,-274.91 268.3,-274.91 268.3,-327.91"/>
<text text-anchor="middle" x="212.3" y="-312.71" font-family="Times-Roman" font-size="14.00">h</text>
<text text-anchor="middle" x="212.3" y="-297.71" font-family="Times-Roman" font-size="14.00">~</text>
<text text-anchor="middle" x="212.3" y="-282.71" font-family="Times-Roman" font-size="14.00">Deterministic</text>
</g>
<!-- σ_h&#45;&gt;h -->
<g id="edge1" class="edge">
<title>σ_h&#45;&gt;h</title>
<path fill="none" stroke="black" d="M314.39,-381.3C295.42,-366.64 272.6,-349 253.35,-334.13"/>
<polygon fill="black" stroke="black" points="255.39,-331.28 245.34,-327.94 251.11,-336.82 255.39,-331.28"/>
</g>
<!-- μ_h -->
<g id="node6" class="node">
<title>μ_h</title>
<ellipse fill="none" stroke="black" cx="489.3" cy="-412.36" rx="48.58" ry="37.45"/>
<text text-anchor="middle" x="489.3" y="-423.66" font-family="Times-Roman" font-size="14.00">μ_h</text>
<text text-anchor="middle" x="489.3" y="-408.66" font-family="Times-Roman" font-size="14.00">~</text>
<text text-anchor="middle" x="489.3" y="-393.66" font-family="Times-Roman" font-size="14.00">Normal</text>
</g>
<!-- μ_h&#45;&gt;h -->
<g id="edge3" class="edge">
<title>μ_h&#45;&gt;h</title>
<path fill="none" stroke="black" d="M453.24,-386.82C446.14,-382.52 438.61,-378.33 431.3,-374.88 381.79,-351.55 322.73,-332.47 278.42,-319.76"/>
<polygon fill="black" stroke="black" points="279.21,-316.34 268.63,-316.98 277.3,-323.08 279.21,-316.34"/>
</g>
<!-- σ_d -->
<g id="node7" class="node">
<title>σ_d</title>
<ellipse fill="none" stroke="black" cx="867.3" cy="-412.36" rx="69.09" ry="37.45"/>
<text text-anchor="middle" x="867.3" y="-423.66" font-family="Times-Roman" font-size="14.00">σ_d</text>
<text text-anchor="middle" x="867.3" y="-408.66" font-family="Times-Roman" font-size="14.00">~</text>
<text text-anchor="middle" x="867.3" y="-393.66" font-family="Times-Roman" font-size="14.00">HalfNormal</text>
</g>
<!-- σ_d&#45;&gt;d -->
<g id="edge5" class="edge">
<title>σ_d&#45;&gt;d</title>
<path fill="none" stroke="black" d="M815.86,-386.84C807.04,-382.77 797.93,-378.65 789.3,-374.88 752.07,-358.66 710.01,-341.56 676.01,-328.05"/>
<polygon fill="black" stroke="black" points="677.23,-324.77 666.65,-324.34 674.65,-331.28 677.23,-324.77"/>
</g>
<!-- h_offset -->
<g id="node8" class="node">
<title>h_offset</title>
<ellipse fill="none" stroke="black" cx="212.3" cy="-412.36" rx="52.15" ry="37.45"/>
<text text-anchor="middle" x="212.3" y="-423.66" font-family="Times-Roman" font-size="14.00">h_offset</text>
<text text-anchor="middle" x="212.3" y="-408.66" font-family="Times-Roman" font-size="14.00">~</text>
<text text-anchor="middle" x="212.3" y="-393.66" font-family="Times-Roman" font-size="14.00">Normal</text>
</g>
<!-- h_offset&#45;&gt;h -->
<g id="edge2" class="edge">
<title>h_offset&#45;&gt;h</title>
<path fill="none" stroke="black" d="M212.3,-374.78C212.3,-363.04 212.3,-350.05 212.3,-338.36"/>
<polygon fill="black" stroke="black" points="215.8,-338.06 212.3,-328.06 208.8,-338.06 215.8,-338.06"/>
</g>
<!-- μ -->
<g id="node14" class="node">
<title>μ</title>
<polygon fill="none" stroke="black" points="470.3,-216.93 358.3,-216.93 358.3,-163.93 470.3,-163.93 470.3,-216.93"/>
<text text-anchor="middle" x="414.3" y="-201.73" font-family="Times-Roman" font-size="14.00">μ</text>
<text text-anchor="middle" x="414.3" y="-186.73" font-family="Times-Roman" font-size="14.00">~</text>
<text text-anchor="middle" x="414.3" y="-171.73" font-family="Times-Roman" font-size="14.00">Deterministic</text>
</g>
<!-- h&#45;&gt;μ -->
<g id="edge12" class="edge">
<title>h&#45;&gt;μ</title>
<path fill="none" stroke="black" d="M259.66,-274.86C289.06,-259 327,-238.53 357.94,-221.83"/>
<polygon fill="black" stroke="black" points="359.74,-224.84 366.88,-217.01 356.42,-218.68 359.74,-224.84"/>
</g>
<!-- d&#45;&gt;μ -->
<g id="edge11" class="edge">
<title>d&#45;&gt;μ</title>
<path fill="none" stroke="black" d="M564.34,-274.86C535.94,-259.06 499.32,-238.7 469.37,-222.05"/>
<polygon fill="black" stroke="black" points="470.74,-218.81 460.3,-217.01 467.34,-224.93 470.74,-218.81"/>
</g>
<!-- d_offset -->
<g id="node11" class="node">
<title>d_offset</title>
<ellipse fill="none" stroke="black" cx="610.3" cy="-412.36" rx="52.15" ry="37.45"/>
<text text-anchor="middle" x="610.3" y="-423.66" font-family="Times-Roman" font-size="14.00">d_offset</text>
<text text-anchor="middle" x="610.3" y="-408.66" font-family="Times-Roman" font-size="14.00">~</text>
<text text-anchor="middle" x="610.3" y="-393.66" font-family="Times-Roman" font-size="14.00">Normal</text>
</g>
<!-- d_offset&#45;&gt;d -->
<g id="edge4" class="edge">
<title>d_offset&#45;&gt;d</title>
<path fill="none" stroke="black" d="M610.3,-374.78C610.3,-363.04 610.3,-350.05 610.3,-338.36"/>
<polygon fill="black" stroke="black" points="613.8,-338.06 610.3,-328.06 606.8,-338.06 613.8,-338.06"/>
</g>
<!-- η&#45;&gt;μ -->
<g id="edge10" class="edge">
<title>η&#45;&gt;μ</title>
<path fill="none" stroke="black" d="M952.15,-290.11C841.99,-269.9 598.06,-225.14 480.36,-203.55"/>
<polygon fill="black" stroke="black" points="480.87,-200.08 470.4,-201.72 479.6,-206.97 480.87,-200.08"/>
</g>
<!-- η_offset -->
<g id="node13" class="node">
<title>η_offset</title>
<ellipse fill="none" stroke="black" cx="1008.3" cy="-412.36" rx="52.15" ry="37.45"/>
<text text-anchor="middle" x="1008.3" y="-423.66" font-family="Times-Roman" font-size="14.00">η_offset</text>
<text text-anchor="middle" x="1008.3" y="-408.66" font-family="Times-Roman" font-size="14.00">~</text>
<text text-anchor="middle" x="1008.3" y="-393.66" font-family="Times-Roman" font-size="14.00">Normal</text>
</g>
<!-- η_offset&#45;&gt;η -->
<g id="edge8" class="edge">
<title>η_offset&#45;&gt;η</title>
<path fill="none" stroke="black" d="M1008.3,-374.78C1008.3,-363.04 1008.3,-350.05 1008.3,-338.36"/>
<polygon fill="black" stroke="black" points="1011.8,-338.06 1008.3,-328.06 1004.8,-338.06 1011.8,-338.06"/>
</g>
<!-- lfc -->
<g id="node15" class="node">
<title>lfc</title>
<ellipse fill="lightgrey" stroke="black" cx="410.3" cy="-76.48" rx="48.58" ry="37.45"/>
<text text-anchor="middle" x="410.3" y="-87.78" font-family="Times-Roman" font-size="14.00">lfc</text>
<text text-anchor="middle" x="410.3" y="-72.78" font-family="Times-Roman" font-size="14.00">~</text>
<text text-anchor="middle" x="410.3" y="-57.78" font-family="Times-Roman" font-size="14.00">Normal</text>
</g>
<!-- μ&#45;&gt;lfc -->
<g id="edge14" class="edge">
<title>μ&#45;&gt;lfc</title>
<path fill="none" stroke="black" d="M413.38,-163.75C412.96,-152.02 412.45,-137.75 411.97,-124.22"/>
<polygon fill="black" stroke="black" points="415.46,-123.94 411.6,-114.07 408.46,-124.19 415.46,-123.94"/>
</g>
<!-- σ&#45;&gt;lfc -->
<g id="edge15" class="edge">
<title>σ&#45;&gt;lfc</title>
<path fill="none" stroke="black" d="M254.13,-163.18C286.63,-145.34 329.49,-121.82 362.08,-103.94"/>
<polygon fill="black" stroke="black" points="363.9,-106.93 370.98,-99.05 360.53,-100.8 363.9,-106.93"/>
</g>
</g>
</svg>
