<?xml version="1.0" encoding="UTF-8" standalone="no"?>
<!DOCTYPE svg PUBLIC "-//W3C//DTD SVG 1.1//EN"
 "http://www.w3.org/Graphics/SVG/1.1/DTD/svg11.dtd">
<!-- Generated by graphviz version 2.48.0 (0)
 -->
<!-- Pages: 1 -->
<svg width="327pt" height="555pt"
 viewBox="0.00 0.00 327.12 554.81" xmlns="http://www.w3.org/2000/svg" xmlns:xlink="http://www.w3.org/1999/xlink">
<g id="graph0" class="graph" transform="scale(1 1) rotate(0) translate(4 550.81)">
<polygon fill="white" stroke="transparent" points="-4,4 -4,-550.81 323.12,-550.81 323.12,4 -4,4"/>
<g id="clust1" class="cluster">
<title>cluster10</title>
<path fill="none" stroke="black" d="M62.72,-329.91C62.72,-329.91 138.72,-329.91 138.72,-329.91 144.72,-329.91 150.72,-335.91 150.72,-341.91 150.72,-341.91 150.72,-431.86 150.72,-431.86 150.72,-437.86 144.72,-443.86 138.72,-443.86 138.72,-443.86 62.72,-443.86 62.72,-443.86 56.72,-443.86 50.72,-437.86 50.72,-431.86 50.72,-431.86 50.72,-341.91 50.72,-341.91 50.72,-335.91 56.72,-329.91 62.72,-329.91"/>
<text text-anchor="middle" x="135.72" y="-337.71" font-family="Times,serif" font-size="14.00">10</text>
</g>
<g id="clust2" class="cluster">
<title>cluster100</title>
<path fill="none" stroke="black" d="M20.72,-8C20.72,-8 180.72,-8 180.72,-8 186.72,-8 192.72,-14 192.72,-20 192.72,-20 192.72,-309.91 192.72,-309.91 192.72,-315.91 186.72,-321.91 180.72,-321.91 180.72,-321.91 20.72,-321.91 20.72,-321.91 14.72,-321.91 8.72,-315.91 8.72,-309.91 8.72,-309.91 8.72,-20 8.72,-20 8.72,-14 14.72,-8 20.72,-8"/>
<text text-anchor="middle" x="174.22" y="-15.8" font-family="Times,serif" font-size="14.00">100</text>
</g>
<!-- μ_β -->
<g id="node1" class="node">
<title>μ_β</title>
<ellipse fill="none" stroke="black" cx="41.72" cy="-509.34" rx="41.94" ry="37.45"/>
<text text-anchor="middle" x="41.72" y="-520.64" font-family="Times,serif" font-size="14.00">μ_β</text>
<text text-anchor="middle" x="41.72" y="-505.64" font-family="Times,serif" font-size="14.00">~</text>
<text text-anchor="middle" x="41.72" y="-490.64" font-family="Times,serif" font-size="14.00">Normal</text>
</g>
<!-- β -->
<g id="node4" class="node">
<title>β</title>
<ellipse fill="none" stroke="black" cx="100.72" cy="-398.38" rx="41.94" ry="37.45"/>
<text text-anchor="middle" x="100.72" y="-409.68" font-family="Times,serif" font-size="14.00">β</text>
<text text-anchor="middle" x="100.72" y="-394.68" font-family="Times,serif" font-size="14.00">~</text>
<text text-anchor="middle" x="100.72" y="-379.68" font-family="Times,serif" font-size="14.00">Normal</text>
</g>
<!-- μ_β&#45;&gt;β -->
<g id="edge1" class="edge">
<title>μ_β&#45;&gt;β</title>
<path fill="none" stroke="black" d="M59.58,-475.35C65.36,-464.68 71.85,-452.69 77.94,-441.45"/>
<polygon fill="black" stroke="black" points="81.03,-443.09 82.71,-432.63 74.87,-439.76 81.03,-443.09"/>
</g>
<!-- σ_β -->
<g id="node2" class="node">
<title>σ_β</title>
<ellipse fill="none" stroke="black" cx="160.72" cy="-509.34" rx="59.29" ry="37.45"/>
<text text-anchor="middle" x="160.72" y="-520.64" font-family="Times,serif" font-size="14.00">σ_β</text>
<text text-anchor="middle" x="160.72" y="-505.64" font-family="Times,serif" font-size="14.00">~</text>
<text text-anchor="middle" x="160.72" y="-490.64" font-family="Times,serif" font-size="14.00">HalfNormal</text>
</g>
<!-- σ_β&#45;&gt;β -->
<g id="edge2" class="edge">
<title>σ_β&#45;&gt;β</title>
<path fill="none" stroke="black" d="M141.57,-473.56C135.89,-463.25 129.61,-451.85 123.71,-441.14"/>
<polygon fill="black" stroke="black" points="126.76,-439.41 118.87,-432.34 120.63,-442.79 126.76,-439.41"/>
</g>
<!-- α -->
<g id="node3" class="node">
<title>α</title>
<ellipse fill="none" stroke="black" cx="259.72" cy="-187.43" rx="59.29" ry="37.45"/>
<text text-anchor="middle" x="259.72" y="-198.73" font-family="Times,serif" font-size="14.00">α</text>
<text text-anchor="middle" x="259.72" y="-183.73" font-family="Times,serif" font-size="14.00">~</text>
<text text-anchor="middle" x="259.72" y="-168.73" font-family="Times,serif" font-size="14.00">HalfNormal</text>
</g>
<!-- y -->
<g id="node7" class="node">
<title>y</title>
<ellipse fill="lightgrey" stroke="black" cx="100.72" cy="-76.48" rx="84.29" ry="37.45"/>
<text text-anchor="middle" x="100.72" y="-87.78" font-family="Times,serif" font-size="14.00">y</text>
<text text-anchor="middle" x="100.72" y="-72.78" font-family="Times,serif" font-size="14.00">~</text>
<text text-anchor="middle" x="100.72" y="-57.78" font-family="Times,serif" font-size="14.00">NegativeBinomial</text>
</g>
<!-- α&#45;&gt;y -->
<g id="edge5" class="edge">
<title>α&#45;&gt;y</title>
<path fill="none" stroke="black" d="M220.01,-159.22C200.11,-145.58 175.74,-128.88 154.22,-114.14"/>
<polygon fill="black" stroke="black" points="156.05,-111.15 145.82,-108.38 152.09,-116.92 156.05,-111.15"/>
</g>
<!-- η -->
<g id="node5" class="node">
<title>η</title>
<polygon fill="none" stroke="black" points="147.22,-313.91 54.22,-313.91 54.22,-260.91 147.22,-260.91 147.22,-313.91"/>
<text text-anchor="middle" x="100.72" y="-298.71" font-family="Times,serif" font-size="14.00">η</text>
<text text-anchor="middle" x="100.72" y="-283.71" font-family="Times,serif" font-size="14.00">~</text>
<text text-anchor="middle" x="100.72" y="-268.71" font-family="Times,serif" font-size="14.00">Deterministic</text>
</g>
<!-- β&#45;&gt;η -->
<g id="edge3" class="edge">
<title>β&#45;&gt;η</title>
<path fill="none" stroke="black" d="M100.72,-360.79C100.72,-349.05 100.72,-336.06 100.72,-324.37"/>
<polygon fill="black" stroke="black" points="104.22,-324.06 100.72,-314.06 97.22,-324.06 104.22,-324.06"/>
</g>
<!-- μ -->
<g id="node6" class="node">
<title>μ</title>
<polygon fill="none" stroke="black" points="147.22,-213.93 54.22,-213.93 54.22,-160.93 147.22,-160.93 147.22,-213.93"/>
<text text-anchor="middle" x="100.72" y="-198.73" font-family="Times,serif" font-size="14.00">μ</text>
<text text-anchor="middle" x="100.72" y="-183.73" font-family="Times,serif" font-size="14.00">~</text>
<text text-anchor="middle" x="100.72" y="-168.73" font-family="Times,serif" font-size="14.00">Deterministic</text>
</g>
<!-- η&#45;&gt;μ -->
<g id="edge4" class="edge">
<title>η&#45;&gt;μ</title>
<path fill="none" stroke="black" d="M100.72,-260.66C100.72,-249.53 100.72,-236.3 100.72,-224.23"/>
<polygon fill="black" stroke="black" points="104.22,-224 100.72,-214 97.22,-224 104.22,-224"/>
</g>
<!-- μ&#45;&gt;y -->
<g id="edge6" class="edge">
<title>μ&#45;&gt;y</title>
<path fill="none" stroke="black" d="M100.72,-160.89C100.72,-149.98 100.72,-136.89 100.72,-124.35"/>
<polygon fill="black" stroke="black" points="104.22,-124 100.72,-114 97.22,-124 104.22,-124"/>
</g>
</g>
</svg>
