<?xml version="1.0" encoding="UTF-8" standalone="no"?>
<!DOCTYPE svg PUBLIC "-//W3C//DTD SVG 1.1//EN"
 "http://www.w3.org/Graphics/SVG/1.1/DTD/svg11.dtd">
<!-- Generated by graphviz version 2.48.0 (0)
 -->
<!-- Pages: 1 -->
<svg width="326pt" height="433pt"
 viewBox="0.00 0.00 326.40 432.86" xmlns="http://www.w3.org/2000/svg" xmlns:xlink="http://www.w3.org/1999/xlink">
<g id="graph0" class="graph" transform="scale(1 1) rotate(0) translate(4 428.86)">
<polygon fill="white" stroke="transparent" points="-4,4 -4,-428.86 322.4,-428.86 322.4,4 -4,4"/>
<g id="clust1" class="cluster">
<title>cluster100</title>
<path fill="none" stroke="black" d="M20,-8C20,-8 180,-8 180,-8 186,-8 192,-14 192,-20 192,-20 192,-309.91 192,-309.91 192,-315.91 186,-321.91 180,-321.91 180,-321.91 20,-321.91 20,-321.91 14,-321.91 8,-315.91 8,-309.91 8,-309.91 8,-20 8,-20 8,-14 14,-8 20,-8"/>
<text text-anchor="middle" x="173.5" y="-15.8" font-family="Times,serif" font-size="14.00">100</text>
</g>
<!-- β -->
<g id="node1" class="node">
<title>β</title>
<ellipse fill="none" stroke="black" cx="50" cy="-387.38" rx="41.94" ry="37.45"/>
<text text-anchor="middle" x="50" y="-398.68" font-family="Times,serif" font-size="14.00">β</text>
<text text-anchor="middle" x="50" y="-383.68" font-family="Times,serif" font-size="14.00">~</text>
<text text-anchor="middle" x="50" y="-368.68" font-family="Times,serif" font-size="14.00">Normal</text>
</g>
<!-- η -->
<g id="node5" class="node">
<title>η</title>
<polygon fill="none" stroke="black" points="146.5,-313.91 53.5,-313.91 53.5,-260.91 146.5,-260.91 146.5,-313.91"/>
<text text-anchor="middle" x="100" y="-298.71" font-family="Times,serif" font-size="14.00">η</text>
<text text-anchor="middle" x="100" y="-283.71" font-family="Times,serif" font-size="14.00">~</text>
<text text-anchor="middle" x="100" y="-268.71" font-family="Times,serif" font-size="14.00">Deterministic</text>
</g>
<!-- β&#45;&gt;η -->
<g id="edge1" class="edge">
<title>β&#45;&gt;η</title>
<path fill="none" stroke="black" d="M67.07,-352.94C72,-343.28 77.39,-332.71 82.35,-322.98"/>
<polygon fill="black" stroke="black" points="85.53,-324.47 86.96,-313.97 79.29,-321.28 85.53,-324.47"/>
</g>
<!-- β_s -->
<g id="node2" class="node">
<title>β_s</title>
<ellipse fill="none" stroke="black" cx="151" cy="-387.38" rx="41.94" ry="37.45"/>
<text text-anchor="middle" x="151" y="-398.68" font-family="Times,serif" font-size="14.00">β_s</text>
<text text-anchor="middle" x="151" y="-383.68" font-family="Times,serif" font-size="14.00">~</text>
<text text-anchor="middle" x="151" y="-368.68" font-family="Times,serif" font-size="14.00">Normal</text>
</g>
<!-- β_s&#45;&gt;η -->
<g id="edge2" class="edge">
<title>β_s&#45;&gt;η</title>
<path fill="none" stroke="black" d="M133.73,-353.21C128.7,-343.54 123.18,-332.94 118.09,-323.17"/>
<polygon fill="black" stroke="black" points="121.1,-321.36 113.38,-314.11 114.89,-324.6 121.1,-321.36"/>
</g>
<!-- α -->
<g id="node3" class="node">
<title>α</title>
<ellipse fill="none" stroke="black" cx="259" cy="-187.43" rx="59.29" ry="37.45"/>
<text text-anchor="middle" x="259" y="-198.73" font-family="Times,serif" font-size="14.00">α</text>
<text text-anchor="middle" x="259" y="-183.73" font-family="Times,serif" font-size="14.00">~</text>
<text text-anchor="middle" x="259" y="-168.73" font-family="Times,serif" font-size="14.00">HalfNormal</text>
</g>
<!-- y -->
<g id="node4" class="node">
<title>y</title>
<ellipse fill="lightgrey" stroke="black" cx="100" cy="-76.48" rx="84.29" ry="37.45"/>
<text text-anchor="middle" x="100" y="-87.78" font-family="Times,serif" font-size="14.00">y</text>
<text text-anchor="middle" x="100" y="-72.78" font-family="Times,serif" font-size="14.00">~</text>
<text text-anchor="middle" x="100" y="-57.78" font-family="Times,serif" font-size="14.00">NegativeBinomial</text>
</g>
<!-- α&#45;&gt;y -->
<g id="edge4" class="edge">
<title>α&#45;&gt;y</title>
<path fill="none" stroke="black" d="M219.29,-159.22C199.39,-145.58 175.02,-128.88 153.5,-114.14"/>
<polygon fill="black" stroke="black" points="155.33,-111.15 145.1,-108.38 151.37,-116.92 155.33,-111.15"/>
</g>
<!-- μ -->
<g id="node6" class="node">
<title>μ</title>
<polygon fill="none" stroke="black" points="146.5,-213.93 53.5,-213.93 53.5,-160.93 146.5,-160.93 146.5,-213.93"/>
<text text-anchor="middle" x="100" y="-198.73" font-family="Times,serif" font-size="14.00">μ</text>
<text text-anchor="middle" x="100" y="-183.73" font-family="Times,serif" font-size="14.00">~</text>
<text text-anchor="middle" x="100" y="-168.73" font-family="Times,serif" font-size="14.00">Deterministic</text>
</g>
<!-- η&#45;&gt;μ -->
<g id="edge3" class="edge">
<title>η&#45;&gt;μ</title>
<path fill="none" stroke="black" d="M100,-260.66C100,-249.53 100,-236.3 100,-224.23"/>
<polygon fill="black" stroke="black" points="103.5,-224 100,-214 96.5,-224 103.5,-224"/>
</g>
<!-- μ&#45;&gt;y -->
<g id="edge5" class="edge">
<title>μ&#45;&gt;y</title>
<path fill="none" stroke="black" d="M100,-160.89C100,-149.98 100,-136.89 100,-124.35"/>
<polygon fill="black" stroke="black" points="103.5,-124 100,-114 96.5,-124 103.5,-124"/>
</g>
</g>
</svg>
