<?xml version="1.0" encoding="UTF-8" standalone="no"?>
<!DOCTYPE svg PUBLIC "-//W3C//DTD SVG 1.1//EN"
 "http://www.w3.org/Graphics/SVG/1.1/DTD/svg11.dtd">
<!-- Generated by graphviz version 2.48.0 (20210717.2242)
 -->
<!-- Pages: 1 -->
<svg width="322pt" height="433pt"
 viewBox="0.00 0.00 321.69 432.86" xmlns="http://www.w3.org/2000/svg" xmlns:xlink="http://www.w3.org/1999/xlink">
<g id="graph0" class="graph" transform="scale(1 1) rotate(0) translate(4 428.86)">
<polygon fill="white" stroke="transparent" points="-4,4 -4,-428.86 317.69,-428.86 317.69,4 -4,4"/>
<g id="clust1" class="cluster">
<title>cluster100</title>
<path fill="none" stroke="black" d="M137.69,-8C137.69,-8 293.69,-8 293.69,-8 299.69,-8 305.69,-14 305.69,-20 305.69,-20 305.69,-309.91 305.69,-309.91 305.69,-315.91 299.69,-321.91 293.69,-321.91 293.69,-321.91 137.69,-321.91 137.69,-321.91 131.69,-321.91 125.69,-315.91 125.69,-309.91 125.69,-309.91 125.69,-20 125.69,-20 125.69,-14 131.69,-8 137.69,-8"/>
<text text-anchor="middle" x="287.19" y="-15.8" font-family="Times,serif" font-size="14.00">100</text>
</g>
<!-- α -->
<g id="node1" class="node">
<title>α</title>
<ellipse fill="none" stroke="black" cx="58.69" cy="-187.43" rx="58.88" ry="37.45"/>
<text text-anchor="middle" x="58.69" y="-198.73" font-family="Times,serif" font-size="14.00">α</text>
<text text-anchor="middle" x="58.69" y="-183.73" font-family="Times,serif" font-size="14.00">~</text>
<text text-anchor="middle" x="58.69" y="-168.73" font-family="Times,serif" font-size="14.00">HalfNormal</text>
</g>
<!-- y -->
<g id="node4" class="node">
<title>y</title>
<ellipse fill="lightgrey" stroke="black" cx="215.69" cy="-76.48" rx="82.05" ry="37.45"/>
<text text-anchor="middle" x="215.69" y="-87.78" font-family="Times,serif" font-size="14.00">y</text>
<text text-anchor="middle" x="215.69" y="-72.78" font-family="Times,serif" font-size="14.00">~</text>
<text text-anchor="middle" x="215.69" y="-57.78" font-family="Times,serif" font-size="14.00">NegativeBinomial</text>
</g>
<!-- α&#45;&gt;y -->
<g id="edge4" class="edge">
<title>α&#45;&gt;y</title>
<path fill="none" stroke="black" d="M97.9,-159.22C117.63,-145.53 141.81,-128.75 163.12,-113.96"/>
<polygon fill="black" stroke="black" points="165.22,-116.76 171.44,-108.19 161.23,-111.01 165.22,-116.76"/>
</g>
<!-- β_s -->
<g id="node2" class="node">
<title>β_s</title>
<ellipse fill="none" stroke="black" cx="165.69" cy="-387.38" rx="41.94" ry="37.45"/>
<text text-anchor="middle" x="165.69" y="-398.68" font-family="Times,serif" font-size="14.00">β_s</text>
<text text-anchor="middle" x="165.69" y="-383.68" font-family="Times,serif" font-size="14.00">~</text>
<text text-anchor="middle" x="165.69" y="-368.68" font-family="Times,serif" font-size="14.00">Normal</text>
</g>
<!-- η -->
<g id="node5" class="node">
<title>η</title>
<polygon fill="none" stroke="black" points="261.69,-313.91 169.69,-313.91 169.69,-260.91 261.69,-260.91 261.69,-313.91"/>
<text text-anchor="middle" x="215.69" y="-298.71" font-family="Times,serif" font-size="14.00">η</text>
<text text-anchor="middle" x="215.69" y="-283.71" font-family="Times,serif" font-size="14.00">~</text>
<text text-anchor="middle" x="215.69" y="-268.71" font-family="Times,serif" font-size="14.00">Deterministic</text>
</g>
<!-- β_s&#45;&gt;η -->
<g id="edge1" class="edge">
<title>β_s&#45;&gt;η</title>
<path fill="none" stroke="black" d="M182.76,-352.94C187.69,-343.28 193.08,-332.71 198.04,-322.98"/>
<polygon fill="black" stroke="black" points="201.22,-324.47 202.65,-313.97 194.98,-321.28 201.22,-324.47"/>
</g>
<!-- β -->
<g id="node3" class="node">
<title>β</title>
<ellipse fill="none" stroke="black" cx="266.69" cy="-387.38" rx="41.94" ry="37.45"/>
<text text-anchor="middle" x="266.69" y="-398.68" font-family="Times,serif" font-size="14.00">β</text>
<text text-anchor="middle" x="266.69" y="-383.68" font-family="Times,serif" font-size="14.00">~</text>
<text text-anchor="middle" x="266.69" y="-368.68" font-family="Times,serif" font-size="14.00">Normal</text>
</g>
<!-- β&#45;&gt;η -->
<g id="edge2" class="edge">
<title>β&#45;&gt;η</title>
<path fill="none" stroke="black" d="M249.42,-353.21C244.39,-343.54 238.87,-332.94 233.78,-323.17"/>
<polygon fill="black" stroke="black" points="236.79,-321.36 229.07,-314.11 230.58,-324.6 236.79,-321.36"/>
</g>
<!-- μ -->
<g id="node6" class="node">
<title>μ</title>
<polygon fill="none" stroke="black" points="261.69,-213.93 169.69,-213.93 169.69,-160.93 261.69,-160.93 261.69,-213.93"/>
<text text-anchor="middle" x="215.69" y="-198.73" font-family="Times,serif" font-size="14.00">μ</text>
<text text-anchor="middle" x="215.69" y="-183.73" font-family="Times,serif" font-size="14.00">~</text>
<text text-anchor="middle" x="215.69" y="-168.73" font-family="Times,serif" font-size="14.00">Deterministic</text>
</g>
<!-- η&#45;&gt;μ -->
<g id="edge3" class="edge">
<title>η&#45;&gt;μ</title>
<path fill="none" stroke="black" d="M215.69,-260.66C215.69,-249.53 215.69,-236.3 215.69,-224.23"/>
<polygon fill="black" stroke="black" points="219.19,-224 215.69,-214 212.19,-224 219.19,-224"/>
</g>
<!-- μ&#45;&gt;y -->
<g id="edge5" class="edge">
<title>μ&#45;&gt;y</title>
<path fill="none" stroke="black" d="M215.69,-160.89C215.69,-149.98 215.69,-136.89 215.69,-124.35"/>
<polygon fill="black" stroke="black" points="219.19,-124 215.69,-114 212.19,-124 219.19,-124"/>
</g>
</g>
</svg>
