<?xml version="1.0" encoding="UTF-8" standalone="no"?>
<!DOCTYPE svg PUBLIC "-//W3C//DTD SVG 1.1//EN"
 "http://www.w3.org/Graphics/SVG/1.1/DTD/svg11.dtd">
<!-- Generated by graphviz version 2.47.0 (20210327.0129)
 -->
<!-- Pages: 1 -->
<svg width="765pt" height="688pt"
 viewBox="0.00 0.00 765.03 687.77" xmlns="http://www.w3.org/2000/svg" xmlns:xlink="http://www.w3.org/1999/xlink">
<g id="graph0" class="graph" transform="scale(1 1) rotate(0) translate(4 683.77)">
<polygon fill="white" stroke="transparent" points="-4,4 -4,-683.77 761.03,-683.77 761.03,4 -4,4"/>
<g id="clust1" class="cluster">
<title>cluster1 x 10</title>
<path fill="none" stroke="black" d="M456.03,-446.86C456.03,-446.86 586.03,-446.86 586.03,-446.86 592.03,-446.86 598.03,-452.86 598.03,-458.86 598.03,-458.86 598.03,-548.81 598.03,-548.81 598.03,-554.81 592.03,-560.81 586.03,-560.81 586.03,-560.81 456.03,-560.81 456.03,-560.81 450.03,-560.81 444.03,-554.81 444.03,-548.81 444.03,-548.81 444.03,-458.86 444.03,-458.86 444.03,-452.86 450.03,-446.86 456.03,-446.86"/>
<text text-anchor="middle" x="567.53" y="-454.66" font-family="Times-Roman" font-size="14.00">1 x 10</text>
</g>
<g id="clust2" class="cluster">
<title>cluster192 x 1</title>
<path fill="none" stroke="black" d="M607.03,-324.91C607.03,-324.91 737.03,-324.91 737.03,-324.91 743.03,-324.91 749.03,-330.91 749.03,-336.91 749.03,-336.91 749.03,-426.86 749.03,-426.86 749.03,-432.86 743.03,-438.86 737.03,-438.86 737.03,-438.86 607.03,-438.86 607.03,-438.86 601.03,-438.86 595.03,-432.86 595.03,-426.86 595.03,-426.86 595.03,-336.91 595.03,-336.91 595.03,-330.91 601.03,-324.91 607.03,-324.91"/>
<text text-anchor="middle" x="714.03" y="-332.71" font-family="Times-Roman" font-size="14.00">192 x 1</text>
</g>
<g id="clust3" class="cluster">
<title>cluster64 x 1</title>
<path fill="none" stroke="black" d="M128.03,-457.84C128.03,-457.84 272.03,-457.84 272.03,-457.84 278.03,-457.84 284.03,-463.84 284.03,-469.84 284.03,-469.84 284.03,-659.77 284.03,-659.77 284.03,-665.77 278.03,-671.77 272.03,-671.77 272.03,-671.77 128.03,-671.77 128.03,-671.77 122.03,-671.77 116.03,-665.77 116.03,-659.77 116.03,-659.77 116.03,-469.84 116.03,-469.84 116.03,-463.84 122.03,-457.84 128.03,-457.84"/>
<text text-anchor="middle" x="253.53" y="-465.64" font-family="Times-Roman" font-size="14.00">64 x 1</text>
</g>
<g id="clust4" class="cluster">
<title>cluster64 x 10</title>
<path fill="none" stroke="black" d="M304.03,-335.88C304.03,-335.88 424.03,-335.88 424.03,-335.88 430.03,-335.88 436.03,-341.88 436.03,-347.88 436.03,-347.88 436.03,-548.81 436.03,-548.81 436.03,-554.81 430.03,-560.81 424.03,-560.81 424.03,-560.81 304.03,-560.81 304.03,-560.81 298.03,-560.81 292.03,-554.81 292.03,-548.81 292.03,-548.81 292.03,-347.88 292.03,-347.88 292.03,-341.88 298.03,-335.88 304.03,-335.88"/>
<text text-anchor="middle" x="401.03" y="-343.68" font-family="Times-Roman" font-size="14.00">64 x 10</text>
</g>
<g id="clust5" class="cluster">
<title>cluster192 x 10</title>
<path fill="none" stroke="black" d="M461.03,-232.91C461.03,-232.91 565.03,-232.91 565.03,-232.91 571.03,-232.91 577.03,-238.91 577.03,-244.91 577.03,-244.91 577.03,-426.86 577.03,-426.86 577.03,-432.86 571.03,-438.86 565.03,-438.86 565.03,-438.86 461.03,-438.86 461.03,-438.86 455.03,-438.86 449.03,-432.86 449.03,-426.86 449.03,-426.86 449.03,-244.91 449.03,-244.91 449.03,-238.91 455.03,-232.91 461.03,-232.91"/>
<text text-anchor="middle" x="537.53" y="-240.71" font-family="Times-Roman" font-size="14.00">192 x 10</text>
</g>
<g id="clust6" class="cluster">
<title>cluster1,443</title>
<path fill="none" stroke="black" d="M461.03,-8C461.03,-8 565.03,-8 565.03,-8 571.03,-8 577.03,-14 577.03,-20 577.03,-20 577.03,-209.93 577.03,-209.93 577.03,-215.93 571.03,-221.93 565.03,-221.93 565.03,-221.93 461.03,-221.93 461.03,-221.93 455.03,-221.93 449.03,-215.93 449.03,-209.93 449.03,-209.93 449.03,-20 449.03,-20 449.03,-14 455.03,-8 461.03,-8"/>
<text text-anchor="middle" x="548.53" y="-15.8" font-family="Times-Roman" font-size="14.00">1,443</text>
</g>
<!-- μ_μ_μ_a -->
<g id="node1" class="node">
<title>μ_μ_μ_a</title>
<ellipse fill="none" stroke="black" cx="53.03" cy="-626.29" rx="53.07" ry="37.45"/>
<text text-anchor="middle" x="53.03" y="-637.59" font-family="Times-Roman" font-size="14.00">μ_μ_μ_a</text>
<text text-anchor="middle" x="53.03" y="-622.59" font-family="Times-Roman" font-size="14.00">~</text>
<text text-anchor="middle" x="53.03" y="-607.59" font-family="Times-Roman" font-size="14.00">Normal</text>
</g>
<!-- μ_μ_a -->
<g id="node9" class="node">
<title>μ_μ_a</title>
<polygon fill="none" stroke="black" points="266.03,-541.84 154.03,-541.84 154.03,-488.84 266.03,-488.84 266.03,-541.84"/>
<text text-anchor="middle" x="210.03" y="-526.64" font-family="Times-Roman" font-size="14.00">μ_μ_a</text>
<text text-anchor="middle" x="210.03" y="-511.64" font-family="Times-Roman" font-size="14.00">~</text>
<text text-anchor="middle" x="210.03" y="-496.64" font-family="Times-Roman" font-size="14.00">Deterministic</text>
</g>
<!-- μ_μ_μ_a&#45;&gt;μ_μ_a -->
<g id="edge4" class="edge">
<title>μ_μ_μ_a&#45;&gt;μ_μ_a</title>
<path fill="none" stroke="black" d="M90.24,-599.47C112.53,-584 141.03,-564.22 164.64,-547.84"/>
<polygon fill="black" stroke="black" points="166.87,-550.55 173.09,-541.97 162.88,-544.8 166.87,-550.55"/>
</g>
<!-- σ_σ_a -->
<g id="node2" class="node">
<title>σ_σ_a</title>
<ellipse fill="none" stroke="black" cx="678.03" cy="-515.34" rx="69.09" ry="37.45"/>
<text text-anchor="middle" x="678.03" y="-526.64" font-family="Times-Roman" font-size="14.00">σ_σ_a</text>
<text text-anchor="middle" x="678.03" y="-511.64" font-family="Times-Roman" font-size="14.00">~</text>
<text text-anchor="middle" x="678.03" y="-496.64" font-family="Times-Roman" font-size="14.00">HalfNormal</text>
</g>
<!-- σ_a -->
<g id="node7" class="node">
<title>σ_a</title>
<ellipse fill="none" stroke="black" cx="672.03" cy="-393.38" rx="69.09" ry="37.45"/>
<text text-anchor="middle" x="672.03" y="-404.68" font-family="Times-Roman" font-size="14.00">σ_a</text>
<text text-anchor="middle" x="672.03" y="-389.68" font-family="Times-Roman" font-size="14.00">~</text>
<text text-anchor="middle" x="672.03" y="-374.68" font-family="Times-Roman" font-size="14.00">HalfNormal</text>
</g>
<!-- σ_σ_a&#45;&gt;σ_a -->
<g id="edge2" class="edge">
<title>σ_σ_a&#45;&gt;σ_a</title>
<path fill="none" stroke="black" d="M676.2,-477.69C675.63,-466.29 674.99,-453.55 674.39,-441.54"/>
<polygon fill="black" stroke="black" points="677.87,-441.03 673.88,-431.21 670.88,-441.38 677.87,-441.03"/>
</g>
<!-- σ -->
<g id="node3" class="node">
<title>σ</title>
<ellipse fill="none" stroke="black" cx="656.03" cy="-187.43" rx="69.09" ry="37.45"/>
<text text-anchor="middle" x="656.03" y="-198.73" font-family="Times-Roman" font-size="14.00">σ</text>
<text text-anchor="middle" x="656.03" y="-183.73" font-family="Times-Roman" font-size="14.00">~</text>
<text text-anchor="middle" x="656.03" y="-168.73" font-family="Times-Roman" font-size="14.00">HalfNormal</text>
</g>
<!-- lfc -->
<g id="node15" class="node">
<title>lfc</title>
<ellipse fill="lightgrey" stroke="black" cx="516.03" cy="-76.48" rx="48.58" ry="37.45"/>
<text text-anchor="middle" x="516.03" y="-87.78" font-family="Times-Roman" font-size="14.00">lfc</text>
<text text-anchor="middle" x="516.03" y="-72.78" font-family="Times-Roman" font-size="14.00">~</text>
<text text-anchor="middle" x="516.03" y="-57.78" font-family="Times-Roman" font-size="14.00">Normal</text>
</g>
<!-- σ&#45;&gt;lfc -->
<g id="edge14" class="edge">
<title>σ&#45;&gt;lfc</title>
<path fill="none" stroke="black" d="M617.04,-156.08C598.71,-141.82 576.83,-124.79 558.13,-110.24"/>
<polygon fill="black" stroke="black" points="560.1,-107.34 550.06,-103.96 555.8,-112.86 560.1,-107.34"/>
</g>
<!-- σ_μ_μ_a -->
<g id="node4" class="node">
<title>σ_μ_μ_a</title>
<ellipse fill="none" stroke="black" cx="363.03" cy="-626.29" rx="69.09" ry="37.45"/>
<text text-anchor="middle" x="363.03" y="-637.59" font-family="Times-Roman" font-size="14.00">σ_μ_μ_a</text>
<text text-anchor="middle" x="363.03" y="-622.59" font-family="Times-Roman" font-size="14.00">~</text>
<text text-anchor="middle" x="363.03" y="-607.59" font-family="Times-Roman" font-size="14.00">HalfNormal</text>
</g>
<!-- σ_μ_μ_a&#45;&gt;μ_μ_a -->
<g id="edge5" class="edge">
<title>σ_μ_μ_a&#45;&gt;μ_μ_a</title>
<path fill="none" stroke="black" d="M321.63,-595.81C300.77,-580.95 275.46,-562.93 254.23,-547.81"/>
<polygon fill="black" stroke="black" points="256.18,-544.9 246.01,-541.95 252.12,-550.6 256.18,-544.9"/>
</g>
<!-- σ_σ_μ_a -->
<g id="node5" class="node">
<title>σ_σ_μ_a</title>
<ellipse fill="none" stroke="black" cx="521.03" cy="-626.29" rx="69.09" ry="37.45"/>
<text text-anchor="middle" x="521.03" y="-637.59" font-family="Times-Roman" font-size="14.00">σ_σ_μ_a</text>
<text text-anchor="middle" x="521.03" y="-622.59" font-family="Times-Roman" font-size="14.00">~</text>
<text text-anchor="middle" x="521.03" y="-607.59" font-family="Times-Roman" font-size="14.00">HalfNormal</text>
</g>
<!-- σ_μ_a -->
<g id="node6" class="node">
<title>σ_μ_a</title>
<ellipse fill="none" stroke="black" cx="521.03" cy="-515.34" rx="69.09" ry="37.45"/>
<text text-anchor="middle" x="521.03" y="-526.64" font-family="Times-Roman" font-size="14.00">σ_μ_a</text>
<text text-anchor="middle" x="521.03" y="-511.64" font-family="Times-Roman" font-size="14.00">~</text>
<text text-anchor="middle" x="521.03" y="-496.64" font-family="Times-Roman" font-size="14.00">HalfNormal</text>
</g>
<!-- σ_σ_μ_a&#45;&gt;σ_μ_a -->
<g id="edge1" class="edge">
<title>σ_σ_μ_a&#45;&gt;σ_μ_a</title>
<path fill="none" stroke="black" d="M521.03,-588.71C521.03,-580.53 521.03,-571.75 521.03,-563.23"/>
<polygon fill="black" stroke="black" points="524.53,-563.01 521.03,-553.01 517.53,-563.01 524.53,-563.01"/>
</g>
<!-- μ_a -->
<g id="node11" class="node">
<title>μ_a</title>
<polygon fill="none" stroke="black" points="424.03,-419.88 312.03,-419.88 312.03,-366.88 424.03,-366.88 424.03,-419.88"/>
<text text-anchor="middle" x="368.03" y="-404.68" font-family="Times-Roman" font-size="14.00">μ_a</text>
<text text-anchor="middle" x="368.03" y="-389.68" font-family="Times-Roman" font-size="14.00">~</text>
<text text-anchor="middle" x="368.03" y="-374.68" font-family="Times-Roman" font-size="14.00">Deterministic</text>
</g>
<!-- σ_μ_a&#45;&gt;μ_a -->
<g id="edge8" class="edge">
<title>σ_μ_a&#45;&gt;μ_a</title>
<path fill="none" stroke="black" d="M484.75,-483.26C470.92,-471.64 454.9,-458.45 440.03,-446.86 431.25,-440.02 421.72,-432.87 412.55,-426.14"/>
<polygon fill="black" stroke="black" points="414.4,-423.16 404.26,-420.09 410.28,-428.81 414.4,-423.16"/>
</g>
<!-- a -->
<g id="node12" class="node">
<title>a</title>
<polygon fill="none" stroke="black" points="569.03,-316.91 457.03,-316.91 457.03,-263.91 569.03,-263.91 569.03,-316.91"/>
<text text-anchor="middle" x="513.03" y="-301.71" font-family="Times-Roman" font-size="14.00">a</text>
<text text-anchor="middle" x="513.03" y="-286.71" font-family="Times-Roman" font-size="14.00">~</text>
<text text-anchor="middle" x="513.03" y="-271.71" font-family="Times-Roman" font-size="14.00">Deterministic</text>
</g>
<!-- σ_a&#45;&gt;a -->
<g id="edge9" class="edge">
<title>σ_a&#45;&gt;a</title>
<path fill="none" stroke="black" d="M634.14,-361.9C618.19,-349.71 599.17,-335.97 581.03,-324.91 579.53,-323.99 577.99,-323.07 576.44,-322.16"/>
<polygon fill="black" stroke="black" points="577.77,-318.9 567.34,-317.05 574.34,-325 577.77,-318.9"/>
</g>
<!-- μ_μ_a_offset -->
<g id="node8" class="node">
<title>μ_μ_a_offset</title>
<ellipse fill="none" stroke="black" cx="200.03" cy="-626.29" rx="75.82" ry="37.45"/>
<text text-anchor="middle" x="200.03" y="-637.59" font-family="Times-Roman" font-size="14.00">μ_μ_a_offset</text>
<text text-anchor="middle" x="200.03" y="-622.59" font-family="Times-Roman" font-size="14.00">~</text>
<text text-anchor="middle" x="200.03" y="-607.59" font-family="Times-Roman" font-size="14.00">Normal</text>
</g>
<!-- μ_μ_a_offset&#45;&gt;μ_μ_a -->
<g id="edge3" class="edge">
<title>μ_μ_a_offset&#45;&gt;μ_μ_a</title>
<path fill="none" stroke="black" d="M203.39,-588.71C204.47,-576.97 205.66,-563.98 206.73,-552.29"/>
<polygon fill="black" stroke="black" points="210.25,-552.27 207.68,-541.99 203.28,-551.63 210.25,-552.27"/>
</g>
<!-- μ_μ_a&#45;&gt;μ_a -->
<g id="edge7" class="edge">
<title>μ_μ_a&#45;&gt;μ_a</title>
<path fill="none" stroke="black" d="M237.81,-488.73C252.37,-475.71 270.74,-459.92 288.03,-446.86 297.56,-439.66 308.04,-432.37 318.2,-425.61"/>
<polygon fill="black" stroke="black" points="320.19,-428.48 326.62,-420.06 316.34,-422.64 320.19,-428.48"/>
</g>
<!-- μ_a_offset -->
<g id="node10" class="node">
<title>μ_a_offset</title>
<ellipse fill="none" stroke="black" cx="364.03" cy="-515.34" rx="63.78" ry="37.45"/>
<text text-anchor="middle" x="364.03" y="-526.64" font-family="Times-Roman" font-size="14.00">μ_a_offset</text>
<text text-anchor="middle" x="364.03" y="-511.64" font-family="Times-Roman" font-size="14.00">~</text>
<text text-anchor="middle" x="364.03" y="-496.64" font-family="Times-Roman" font-size="14.00">Normal</text>
</g>
<!-- μ_a_offset&#45;&gt;μ_a -->
<g id="edge6" class="edge">
<title>μ_a_offset&#45;&gt;μ_a</title>
<path fill="none" stroke="black" d="M365.25,-477.69C365.75,-462.73 366.33,-445.46 366.83,-430.54"/>
<polygon fill="black" stroke="black" points="370.34,-430.27 367.17,-420.16 363.34,-430.04 370.34,-430.27"/>
</g>
<!-- μ_a&#45;&gt;a -->
<g id="edge11" class="edge">
<title>μ_a&#45;&gt;a</title>
<path fill="none" stroke="black" d="M393.72,-366.83C408.06,-353.36 426.7,-337.14 445.03,-324.91 446.3,-324.06 447.59,-323.22 448.9,-322.4"/>
<polygon fill="black" stroke="black" points="451,-325.22 457.77,-317.07 447.4,-319.21 451,-325.22"/>
</g>
<!-- μ -->
<g id="node14" class="node">
<title>μ</title>
<polygon fill="none" stroke="black" points="569.03,-213.93 457.03,-213.93 457.03,-160.93 569.03,-160.93 569.03,-213.93"/>
<text text-anchor="middle" x="513.03" y="-198.73" font-family="Times-Roman" font-size="14.00">μ</text>
<text text-anchor="middle" x="513.03" y="-183.73" font-family="Times-Roman" font-size="14.00">~</text>
<text text-anchor="middle" x="513.03" y="-168.73" font-family="Times-Roman" font-size="14.00">Deterministic</text>
</g>
<!-- a&#45;&gt;μ -->
<g id="edge12" class="edge">
<title>a&#45;&gt;μ</title>
<path fill="none" stroke="black" d="M513.03,-263.66C513.03,-251.68 513.03,-237.22 513.03,-224.19"/>
<polygon fill="black" stroke="black" points="516.53,-224.12 513.03,-214.12 509.53,-224.12 516.53,-224.12"/>
</g>
<!-- a_offset -->
<g id="node13" class="node">
<title>a_offset</title>
<ellipse fill="none" stroke="black" cx="513.03" cy="-393.38" rx="52.15" ry="37.45"/>
<text text-anchor="middle" x="513.03" y="-404.68" font-family="Times-Roman" font-size="14.00">a_offset</text>
<text text-anchor="middle" x="513.03" y="-389.68" font-family="Times-Roman" font-size="14.00">~</text>
<text text-anchor="middle" x="513.03" y="-374.68" font-family="Times-Roman" font-size="14.00">Normal</text>
</g>
<!-- a_offset&#45;&gt;a -->
<g id="edge10" class="edge">
<title>a_offset&#45;&gt;a</title>
<path fill="none" stroke="black" d="M513.03,-355.64C513.03,-346.38 513.03,-336.46 513.03,-327.24"/>
<polygon fill="black" stroke="black" points="516.53,-327.22 513.03,-317.22 509.53,-327.22 516.53,-327.22"/>
</g>
<!-- μ&#45;&gt;lfc -->
<g id="edge13" class="edge">
<title>μ&#45;&gt;lfc</title>
<path fill="none" stroke="black" d="M513.74,-160.89C514.04,-149.98 514.4,-136.89 514.74,-124.35"/>
<polygon fill="black" stroke="black" points="518.25,-124.09 515.03,-114 511.25,-123.9 518.25,-124.09"/>
</g>
</g>
</svg>
