<?xml version="1.0" encoding="UTF-8" standalone="no"?>
<!DOCTYPE svg PUBLIC "-//W3C//DTD SVG 1.1//EN"
 "http://www.w3.org/Graphics/SVG/1.1/DTD/svg11.dtd">
<!-- Generated by graphviz version 2.47.0 (20210316.1410)
 -->
<!-- Pages: 1 -->
<svg width="827pt" height="580pt"
 viewBox="0.00 0.00 827.09 579.77" xmlns="http://www.w3.org/2000/svg" xmlns:xlink="http://www.w3.org/1999/xlink">
<g id="graph0" class="graph" transform="scale(1 1) rotate(0) translate(4 575.77)">
<polygon fill="white" stroke="transparent" points="-4,4 -4,-575.77 823.09,-575.77 823.09,4 -4,4"/>
<g id="clust1" class="cluster">
<title>cluster100</title>
<path fill="none" stroke="black" d="M25.3,-354.86C25.3,-354.86 271.3,-354.86 271.3,-354.86 277.3,-354.86 283.3,-360.86 283.3,-366.86 283.3,-366.86 283.3,-456.81 283.3,-456.81 283.3,-462.81 277.3,-468.81 271.3,-468.81 271.3,-468.81 25.3,-468.81 25.3,-468.81 19.3,-468.81 13.3,-462.81 13.3,-456.81 13.3,-456.81 13.3,-366.86 13.3,-366.86 13.3,-360.86 19.3,-354.86 25.3,-354.86"/>
<text text-anchor="middle" x="261.3" y="-362.66" font-family="Times-Roman" font-size="14.00">100</text>
</g>
<g id="clust2" class="cluster">
<title>cluster395</title>
<path fill="none" stroke="black" d="M181.3,-232.91C181.3,-232.91 271.3,-232.91 271.3,-232.91 277.3,-232.91 283.3,-238.91 283.3,-244.91 283.3,-244.91 283.3,-334.86 283.3,-334.86 283.3,-340.86 277.3,-346.86 271.3,-346.86 271.3,-346.86 181.3,-346.86 181.3,-346.86 175.3,-346.86 169.3,-340.86 169.3,-334.86 169.3,-334.86 169.3,-244.91 169.3,-244.91 169.3,-238.91 175.3,-232.91 181.3,-232.91"/>
<text text-anchor="middle" x="261.3" y="-240.71" font-family="Times-Roman" font-size="14.00">395</text>
</g>
<g id="clust3" class="cluster">
<title>cluster36</title>
<path fill="none" stroke="black" d="M385.3,-232.91C385.3,-232.91 475.3,-232.91 475.3,-232.91 481.3,-232.91 487.3,-238.91 487.3,-244.91 487.3,-244.91 487.3,-334.86 487.3,-334.86 487.3,-340.86 481.3,-346.86 475.3,-346.86 475.3,-346.86 385.3,-346.86 385.3,-346.86 379.3,-346.86 373.3,-340.86 373.3,-334.86 373.3,-334.86 373.3,-244.91 373.3,-244.91 373.3,-238.91 379.3,-232.91 385.3,-232.91"/>
<text text-anchor="middle" x="469.8" y="-240.71" font-family="Times-Roman" font-size="14.00">36</text>
</g>
<g id="clust4" class="cluster">
<title>cluster2</title>
<path fill="none" stroke="black" d="M589.3,-232.91C589.3,-232.91 679.3,-232.91 679.3,-232.91 685.3,-232.91 691.3,-238.91 691.3,-244.91 691.3,-244.91 691.3,-334.86 691.3,-334.86 691.3,-340.86 685.3,-346.86 679.3,-346.86 679.3,-346.86 589.3,-346.86 589.3,-346.86 583.3,-346.86 577.3,-340.86 577.3,-334.86 577.3,-334.86 577.3,-244.91 577.3,-244.91 577.3,-238.91 583.3,-232.91 589.3,-232.91"/>
<text text-anchor="middle" x="678.3" y="-240.71" font-family="Times-Roman" font-size="14.00">2</text>
</g>
<g id="clust5" class="cluster">
<title>cluster34,760</title>
<path fill="none" stroke="black" d="M378.3,-8C378.3,-8 482.3,-8 482.3,-8 488.3,-8 494.3,-14 494.3,-20 494.3,-20 494.3,-209.93 494.3,-209.93 494.3,-215.93 488.3,-221.93 482.3,-221.93 482.3,-221.93 378.3,-221.93 378.3,-221.93 372.3,-221.93 366.3,-215.93 366.3,-209.93 366.3,-209.93 366.3,-20 366.3,-20 366.3,-14 372.3,-8 378.3,-8"/>
<text text-anchor="middle" x="461.3" y="-15.8" font-family="Times-Roman" font-size="14.00">34,760</text>
</g>
<!-- σ_σ_α -->
<g id="node1" class="node">
<title>σ_σ_α</title>
<ellipse fill="none" stroke="black" cx="69.3" cy="-534.29" rx="69.09" ry="37.45"/>
<text text-anchor="middle" x="69.3" y="-545.59" font-family="Times-Roman" font-size="14.00">σ_σ_α</text>
<text text-anchor="middle" x="69.3" y="-530.59" font-family="Times-Roman" font-size="14.00">~</text>
<text text-anchor="middle" x="69.3" y="-515.59" font-family="Times-Roman" font-size="14.00">HalfNormal</text>
</g>
<!-- σ_α -->
<g id="node10" class="node">
<title>σ_α</title>
<ellipse fill="none" stroke="black" cx="90.3" cy="-423.34" rx="69.09" ry="37.45"/>
<text text-anchor="middle" x="90.3" y="-434.64" font-family="Times-Roman" font-size="14.00">σ_α</text>
<text text-anchor="middle" x="90.3" y="-419.64" font-family="Times-Roman" font-size="14.00">~</text>
<text text-anchor="middle" x="90.3" y="-404.64" font-family="Times-Roman" font-size="14.00">HalfNormal</text>
</g>
<!-- σ_σ_α&#45;&gt;σ_α -->
<g id="edge3" class="edge">
<title>σ_σ_α&#45;&gt;σ_α</title>
<path fill="none" stroke="black" d="M76.35,-496.71C77.96,-488.35 79.69,-479.37 81.37,-470.67"/>
<polygon fill="black" stroke="black" points="84.84,-471.12 83.3,-460.64 77.97,-469.79 84.84,-471.12"/>
</g>
<!-- σ_β -->
<g id="node2" class="node">
<title>σ_β</title>
<ellipse fill="none" stroke="black" cx="362.3" cy="-423.34" rx="69.09" ry="37.45"/>
<text text-anchor="middle" x="362.3" y="-434.64" font-family="Times-Roman" font-size="14.00">σ_β</text>
<text text-anchor="middle" x="362.3" y="-419.64" font-family="Times-Roman" font-size="14.00">~</text>
<text text-anchor="middle" x="362.3" y="-404.64" font-family="Times-Roman" font-size="14.00">HalfNormal</text>
</g>
<!-- β_l -->
<g id="node12" class="node">
<title>β_l</title>
<ellipse fill="none" stroke="black" cx="430.3" cy="-301.38" rx="48.58" ry="37.45"/>
<text text-anchor="middle" x="430.3" y="-312.68" font-family="Times-Roman" font-size="14.00">β_l</text>
<text text-anchor="middle" x="430.3" y="-297.68" font-family="Times-Roman" font-size="14.00">~</text>
<text text-anchor="middle" x="430.3" y="-282.68" font-family="Times-Roman" font-size="14.00">Normal</text>
</g>
<!-- σ_β&#45;&gt;β_l -->
<g id="edge6" class="edge">
<title>σ_β&#45;&gt;β_l</title>
<path fill="none" stroke="black" d="M382.15,-387.32C389.67,-374.04 398.32,-358.79 406.2,-344.9"/>
<polygon fill="black" stroke="black" points="409.35,-346.43 411.24,-336 403.26,-342.97 409.35,-346.43"/>
</g>
<!-- σ_η -->
<g id="node3" class="node">
<title>σ_η</title>
<ellipse fill="none" stroke="black" cx="634.3" cy="-423.34" rx="69.09" ry="37.45"/>
<text text-anchor="middle" x="634.3" y="-434.64" font-family="Times-Roman" font-size="14.00">σ_η</text>
<text text-anchor="middle" x="634.3" y="-419.64" font-family="Times-Roman" font-size="14.00">~</text>
<text text-anchor="middle" x="634.3" y="-404.64" font-family="Times-Roman" font-size="14.00">HalfNormal</text>
</g>
<!-- η_b -->
<g id="node13" class="node">
<title>η_b</title>
<ellipse fill="none" stroke="black" cx="634.3" cy="-301.38" rx="48.58" ry="37.45"/>
<text text-anchor="middle" x="634.3" y="-312.68" font-family="Times-Roman" font-size="14.00">η_b</text>
<text text-anchor="middle" x="634.3" y="-297.68" font-family="Times-Roman" font-size="14.00">~</text>
<text text-anchor="middle" x="634.3" y="-282.68" font-family="Times-Roman" font-size="14.00">Normal</text>
</g>
<!-- σ_η&#45;&gt;η_b -->
<g id="edge8" class="edge">
<title>σ_η&#45;&gt;η_b</title>
<path fill="none" stroke="black" d="M634.3,-385.69C634.3,-374.29 634.3,-361.55 634.3,-349.54"/>
<polygon fill="black" stroke="black" points="637.8,-349.21 634.3,-339.21 630.8,-349.21 637.8,-349.21"/>
</g>
<!-- σ -->
<g id="node4" class="node">
<title>σ</title>
<ellipse fill="none" stroke="black" cx="573.3" cy="-187.43" rx="69.09" ry="37.45"/>
<text text-anchor="middle" x="573.3" y="-198.73" font-family="Times-Roman" font-size="14.00">σ</text>
<text text-anchor="middle" x="573.3" y="-183.73" font-family="Times-Roman" font-size="14.00">~</text>
<text text-anchor="middle" x="573.3" y="-168.73" font-family="Times-Roman" font-size="14.00">HalfNormal</text>
</g>
<!-- lfc -->
<g id="node15" class="node">
<title>lfc</title>
<ellipse fill="lightgrey" stroke="black" cx="433.3" cy="-76.48" rx="48.58" ry="37.45"/>
<text text-anchor="middle" x="433.3" y="-87.78" font-family="Times-Roman" font-size="14.00">lfc</text>
<text text-anchor="middle" x="433.3" y="-72.78" font-family="Times-Roman" font-size="14.00">~</text>
<text text-anchor="middle" x="433.3" y="-57.78" font-family="Times-Roman" font-size="14.00">Normal</text>
</g>
<!-- σ&#45;&gt;lfc -->
<g id="edge13" class="edge">
<title>σ&#45;&gt;lfc</title>
<path fill="none" stroke="black" d="M534.3,-156.08C515.97,-141.82 494.1,-124.79 475.4,-110.24"/>
<polygon fill="black" stroke="black" points="477.37,-107.34 467.33,-103.96 473.07,-112.86 477.37,-107.34"/>
</g>
<!-- μ_β -->
<g id="node5" class="node">
<title>μ_β</title>
<ellipse fill="none" stroke="black" cx="498.3" cy="-423.34" rx="48.58" ry="37.45"/>
<text text-anchor="middle" x="498.3" y="-434.64" font-family="Times-Roman" font-size="14.00">μ_β</text>
<text text-anchor="middle" x="498.3" y="-419.64" font-family="Times-Roman" font-size="14.00">~</text>
<text text-anchor="middle" x="498.3" y="-404.64" font-family="Times-Roman" font-size="14.00">Normal</text>
</g>
<!-- μ_β&#45;&gt;β_l -->
<g id="edge7" class="edge">
<title>μ_β&#45;&gt;β_l</title>
<path fill="none" stroke="black" d="M479.17,-388.6C471.57,-375.19 462.73,-359.59 454.67,-345.38"/>
<polygon fill="black" stroke="black" points="457.49,-343.25 449.51,-336.28 451.4,-346.7 457.49,-343.25"/>
</g>
<!-- μ_η -->
<g id="node6" class="node">
<title>μ_η</title>
<ellipse fill="none" stroke="black" cx="770.3" cy="-423.34" rx="48.58" ry="37.45"/>
<text text-anchor="middle" x="770.3" y="-434.64" font-family="Times-Roman" font-size="14.00">μ_η</text>
<text text-anchor="middle" x="770.3" y="-419.64" font-family="Times-Roman" font-size="14.00">~</text>
<text text-anchor="middle" x="770.3" y="-404.64" font-family="Times-Roman" font-size="14.00">Normal</text>
</g>
<!-- μ_η&#45;&gt;η_b -->
<g id="edge9" class="edge">
<title>μ_η&#45;&gt;η_b</title>
<path fill="none" stroke="black" d="M745.94,-390.51C736.13,-378.67 724.31,-365.53 712.3,-354.86 702.67,-346.31 691.57,-338.04 680.81,-330.7"/>
<polygon fill="black" stroke="black" points="682.56,-327.65 672.3,-325.02 678.68,-333.48 682.56,-327.65"/>
</g>
<!-- σ_g -->
<g id="node7" class="node">
<title>σ_g</title>
<ellipse fill="none" stroke="black" cx="226.3" cy="-534.29" rx="69.09" ry="37.45"/>
<text text-anchor="middle" x="226.3" y="-545.59" font-family="Times-Roman" font-size="14.00">σ_g</text>
<text text-anchor="middle" x="226.3" y="-530.59" font-family="Times-Roman" font-size="14.00">~</text>
<text text-anchor="middle" x="226.3" y="-515.59" font-family="Times-Roman" font-size="14.00">HalfNormal</text>
</g>
<!-- μ_α -->
<g id="node9" class="node">
<title>μ_α</title>
<ellipse fill="none" stroke="black" cx="226.3" cy="-423.34" rx="48.58" ry="37.45"/>
<text text-anchor="middle" x="226.3" y="-434.64" font-family="Times-Roman" font-size="14.00">μ_α</text>
<text text-anchor="middle" x="226.3" y="-419.64" font-family="Times-Roman" font-size="14.00">~</text>
<text text-anchor="middle" x="226.3" y="-404.64" font-family="Times-Roman" font-size="14.00">Normal</text>
</g>
<!-- σ_g&#45;&gt;μ_α -->
<g id="edge2" class="edge">
<title>σ_g&#45;&gt;μ_α</title>
<path fill="none" stroke="black" d="M226.3,-496.71C226.3,-488.53 226.3,-479.75 226.3,-471.23"/>
<polygon fill="black" stroke="black" points="229.8,-471.01 226.3,-461.01 222.8,-471.01 229.8,-471.01"/>
</g>
<!-- μ_g -->
<g id="node8" class="node">
<title>μ_g</title>
<ellipse fill="none" stroke="black" cx="362.3" cy="-534.29" rx="48.58" ry="37.45"/>
<text text-anchor="middle" x="362.3" y="-545.59" font-family="Times-Roman" font-size="14.00">μ_g</text>
<text text-anchor="middle" x="362.3" y="-530.59" font-family="Times-Roman" font-size="14.00">~</text>
<text text-anchor="middle" x="362.3" y="-515.59" font-family="Times-Roman" font-size="14.00">Normal</text>
</g>
<!-- μ_g&#45;&gt;μ_α -->
<g id="edge1" class="edge">
<title>μ_g&#45;&gt;μ_α</title>
<path fill="none" stroke="black" d="M329.03,-506.64C310.5,-491.8 287.28,-473.19 267.6,-457.43"/>
<polygon fill="black" stroke="black" points="269.69,-454.61 259.69,-451.09 265.31,-460.08 269.69,-454.61"/>
</g>
<!-- α_s -->
<g id="node11" class="node">
<title>α_s</title>
<ellipse fill="none" stroke="black" cx="226.3" cy="-301.38" rx="48.58" ry="37.45"/>
<text text-anchor="middle" x="226.3" y="-312.68" font-family="Times-Roman" font-size="14.00">α_s</text>
<text text-anchor="middle" x="226.3" y="-297.68" font-family="Times-Roman" font-size="14.00">~</text>
<text text-anchor="middle" x="226.3" y="-282.68" font-family="Times-Roman" font-size="14.00">Normal</text>
</g>
<!-- μ_α&#45;&gt;α_s -->
<g id="edge4" class="edge">
<title>μ_α&#45;&gt;α_s</title>
<path fill="none" stroke="black" d="M226.3,-385.69C226.3,-374.29 226.3,-361.55 226.3,-349.54"/>
<polygon fill="black" stroke="black" points="229.8,-349.21 226.3,-339.21 222.8,-349.21 229.8,-349.21"/>
</g>
<!-- σ_α&#45;&gt;α_s -->
<g id="edge5" class="edge">
<title>σ_α&#45;&gt;α_s</title>
<path fill="none" stroke="black" d="M126.03,-390.82C144.7,-374.35 167.61,-354.15 186.81,-337.21"/>
<polygon fill="black" stroke="black" points="189.33,-339.66 194.51,-330.42 184.7,-334.41 189.33,-339.66"/>
</g>
<!-- μ -->
<g id="node14" class="node">
<title>μ</title>
<polygon fill="none" stroke="black" points="486.3,-213.93 374.3,-213.93 374.3,-160.93 486.3,-160.93 486.3,-213.93"/>
<text text-anchor="middle" x="430.3" y="-198.73" font-family="Times-Roman" font-size="14.00">μ</text>
<text text-anchor="middle" x="430.3" y="-183.73" font-family="Times-Roman" font-size="14.00">~</text>
<text text-anchor="middle" x="430.3" y="-168.73" font-family="Times-Roman" font-size="14.00">Deterministic</text>
</g>
<!-- α_s&#45;&gt;μ -->
<g id="edge11" class="edge">
<title>α_s&#45;&gt;μ</title>
<path fill="none" stroke="black" d="M265.63,-278.8C296.56,-261.82 340.04,-237.96 374.55,-219.02"/>
<polygon fill="black" stroke="black" points="376.49,-221.95 383.57,-214.07 373.12,-215.81 376.49,-221.95"/>
</g>
<!-- β_l&#45;&gt;μ -->
<g id="edge10" class="edge">
<title>β_l&#45;&gt;μ</title>
<path fill="none" stroke="black" d="M430.3,-263.73C430.3,-251.07 430.3,-236.92 430.3,-224.32"/>
<polygon fill="black" stroke="black" points="433.8,-224.18 430.3,-214.18 426.8,-224.18 433.8,-224.18"/>
</g>
<!-- η_b&#45;&gt;μ -->
<g id="edge12" class="edge">
<title>η_b&#45;&gt;μ</title>
<path fill="none" stroke="black" d="M594.67,-279.06C566.82,-264.02 528.71,-243.35 495.3,-224.91 491.83,-222.99 488.26,-221.01 484.66,-219.01"/>
<polygon fill="black" stroke="black" points="486.15,-215.83 475.71,-214.02 482.74,-221.95 486.15,-215.83"/>
</g>
<!-- μ&#45;&gt;lfc -->
<g id="edge14" class="edge">
<title>μ&#45;&gt;lfc</title>
<path fill="none" stroke="black" d="M431,-160.89C431.3,-149.98 431.66,-136.89 432.01,-124.35"/>
<polygon fill="black" stroke="black" points="435.51,-124.09 432.29,-114 428.52,-123.9 435.51,-124.09"/>
</g>
</g>
</svg>
