<?xml version="1.0" encoding="UTF-8" standalone="no"?>
<!DOCTYPE svg PUBLIC "-//W3C//DTD SVG 1.1//EN"
 "http://www.w3.org/Graphics/SVG/1.1/DTD/svg11.dtd">
<!-- Generated by graphviz version 2.48.0 (0)
 -->
<!-- Pages: 1 -->
<svg width="850pt" height="991pt"
 viewBox="0.00 0.00 850.47 990.67" xmlns="http://www.w3.org/2000/svg" xmlns:xlink="http://www.w3.org/1999/xlink">
<g id="graph0" class="graph" transform="scale(1 1) rotate(0) translate(4 986.67)">
<polygon fill="white" stroke="transparent" points="-4,4 -4,-986.67 846.47,-986.67 846.47,4 -4,4"/>
<g id="clust1" class="cluster">
<title>cluster1,120</title>
<path fill="none" stroke="black" d="M129.93,-8C129.93,-8 301.93,-8 301.93,-8 307.93,-8 313.93,-14 313.93,-20 313.93,-20 313.93,-501.88 313.93,-501.88 313.93,-507.88 307.93,-513.88 301.93,-513.88 301.93,-513.88 129.93,-513.88 129.93,-513.88 123.93,-513.88 117.93,-507.88 117.93,-501.88 117.93,-501.88 117.93,-20 117.93,-20 117.93,-14 123.93,-8 129.93,-8"/>
<text text-anchor="middle" x="289.93" y="-15.8" font-family="Times,serif" font-size="14.00">1,120</text>
</g>
<g id="clust2" class="cluster">
<title>cluster160</title>
<path fill="none" stroke="black" d="M96.93,-543.84C96.93,-543.84 212.93,-543.84 212.93,-543.84 218.93,-543.84 224.93,-549.84 224.93,-555.84 224.93,-555.84 224.93,-623.84 224.93,-623.84 224.93,-629.84 218.93,-635.84 212.93,-635.84 212.93,-635.84 96.93,-635.84 96.93,-635.84 90.93,-635.84 84.93,-629.84 84.93,-623.84 84.93,-623.84 84.93,-555.84 84.93,-555.84 84.93,-549.84 90.93,-543.84 96.93,-543.84"/>
<text text-anchor="middle" x="206.43" y="-551.64" font-family="Times,serif" font-size="14.00">160</text>
</g>
<g id="clust3" class="cluster">
<title>cluster7</title>
<path fill="none" stroke="black" d="M64.93,-776.74C64.93,-776.74 212.93,-776.74 212.93,-776.74 218.93,-776.74 224.93,-782.74 224.93,-788.74 224.93,-788.74 224.93,-856.74 224.93,-856.74 224.93,-862.74 218.93,-868.74 212.93,-868.74 212.93,-868.74 64.93,-868.74 64.93,-868.74 58.93,-868.74 52.93,-862.74 52.93,-856.74 52.93,-856.74 52.93,-788.74 52.93,-788.74 52.93,-782.74 58.93,-776.74 64.93,-776.74"/>
<text text-anchor="middle" x="213.43" y="-784.54" font-family="Times,serif" font-size="14.00">7</text>
</g>
<g id="clust4" class="cluster">
<title>cluster101 x 7</title>
<path fill="none" stroke="black" d="M244.93,-543.84C244.93,-543.84 558.93,-543.84 558.93,-543.84 564.93,-543.84 570.93,-549.84 570.93,-555.84 570.93,-555.84 570.93,-745.77 570.93,-745.77 570.93,-751.77 564.93,-757.77 558.93,-757.77 558.93,-757.77 244.93,-757.77 244.93,-757.77 238.93,-757.77 232.93,-751.77 232.93,-745.77 232.93,-745.77 232.93,-555.84 232.93,-555.84 232.93,-549.84 238.93,-543.84 244.93,-543.84"/>
<text text-anchor="middle" x="541.93" y="-551.64" font-family="Times,serif" font-size="14.00">101 x 7</text>
</g>
<g id="clust5" class="cluster">
<title>cluster101 x 2</title>
<path fill="none" stroke="black" d="M244.93,-765.77C244.93,-765.77 421.93,-765.77 421.93,-765.77 427.93,-765.77 433.93,-771.77 433.93,-777.77 433.93,-777.77 433.93,-867.72 433.93,-867.72 433.93,-873.72 427.93,-879.72 421.93,-879.72 421.93,-879.72 244.93,-879.72 244.93,-879.72 238.93,-879.72 232.93,-873.72 232.93,-867.72 232.93,-867.72 232.93,-777.77 232.93,-777.77 232.93,-771.77 238.93,-765.77 244.93,-765.77"/>
<text text-anchor="middle" x="404.93" y="-773.57" font-family="Times,serif" font-size="14.00">101 x 2</text>
</g>
<g id="clust6" class="cluster">
<title>cluster2</title>
<path fill="none" stroke="black" d="M453.93,-765.77C453.93,-765.77 700.93,-765.77 700.93,-765.77 706.93,-765.77 712.93,-771.77 712.93,-777.77 712.93,-777.77 712.93,-867.72 712.93,-867.72 712.93,-873.72 706.93,-879.72 700.93,-879.72 700.93,-879.72 453.93,-879.72 453.93,-879.72 447.93,-879.72 441.93,-873.72 441.93,-867.72 441.93,-867.72 441.93,-777.77 441.93,-777.77 441.93,-771.77 447.93,-765.77 453.93,-765.77"/>
<text text-anchor="middle" x="701.43" y="-773.57" font-family="Times,serif" font-size="14.00">2</text>
</g>
<g id="clust7" class="cluster">
<title>cluster101</title>
<path fill="none" stroke="black" d="M600.93,-532.86C600.93,-532.86 710.93,-532.86 710.93,-532.86 716.93,-532.86 722.93,-538.86 722.93,-544.86 722.93,-544.86 722.93,-634.81 722.93,-634.81 722.93,-640.81 716.93,-646.81 710.93,-646.81 710.93,-646.81 600.93,-646.81 600.93,-646.81 594.93,-646.81 588.93,-640.81 588.93,-634.81 588.93,-634.81 588.93,-544.86 588.93,-544.86 588.93,-538.86 594.93,-532.86 600.93,-532.86"/>
<text text-anchor="middle" x="704.43" y="-540.66" font-family="Times,serif" font-size="14.00">101</text>
</g>
<g id="clust8" class="cluster">
<title>cluster160 x 7</title>
<path fill="none" stroke="black" d="M333.93,-410.91C333.93,-410.91 433.93,-410.91 433.93,-410.91 439.93,-410.91 445.93,-416.91 445.93,-422.91 445.93,-422.91 445.93,-512.86 445.93,-512.86 445.93,-518.86 439.93,-524.86 433.93,-524.86 433.93,-524.86 333.93,-524.86 333.93,-524.86 327.93,-524.86 321.93,-518.86 321.93,-512.86 321.93,-512.86 321.93,-422.91 321.93,-422.91 321.93,-416.91 327.93,-410.91 333.93,-410.91"/>
<text text-anchor="middle" x="416.93" y="-418.71" font-family="Times,serif" font-size="14.00">160 x 7</text>
</g>
<!-- counts_final -->
<g id="node1" class="node">
<title>counts_final</title>
<path fill="lightgrey" stroke="black" d="M252.43,-92C252.43,-92 191.43,-92 191.43,-92 185.43,-92 179.43,-86 179.43,-80 179.43,-80 179.43,-51 179.43,-51 179.43,-45 185.43,-39 191.43,-39 191.43,-39 252.43,-39 252.43,-39 258.43,-39 264.43,-45 264.43,-51 264.43,-51 264.43,-80 264.43,-80 264.43,-86 258.43,-92 252.43,-92"/>
<text text-anchor="middle" x="221.93" y="-76.8" font-family="Times,serif" font-size="14.00">counts_final</text>
<text text-anchor="middle" x="221.93" y="-61.8" font-family="Times,serif" font-size="14.00">~</text>
<text text-anchor="middle" x="221.93" y="-46.8" font-family="Times,serif" font-size="14.00">Data</text>
</g>
<!-- eta -->
<g id="node2" class="node">
<title>eta</title>
<polygon fill="none" stroke="black" points="304.43,-402.91 211.43,-402.91 211.43,-349.91 304.43,-349.91 304.43,-402.91"/>
<text text-anchor="middle" x="257.93" y="-387.71" font-family="Times,serif" font-size="14.00">eta</text>
<text text-anchor="middle" x="257.93" y="-372.71" font-family="Times,serif" font-size="14.00">~</text>
<text text-anchor="middle" x="257.93" y="-357.71" font-family="Times,serif" font-size="14.00">Deterministic</text>
</g>
<!-- mu -->
<g id="node5" class="node">
<title>mu</title>
<polygon fill="none" stroke="black" points="304.43,-302.93 211.43,-302.93 211.43,-249.93 304.43,-249.93 304.43,-302.93"/>
<text text-anchor="middle" x="257.93" y="-287.73" font-family="Times,serif" font-size="14.00">mu</text>
<text text-anchor="middle" x="257.93" y="-272.73" font-family="Times,serif" font-size="14.00">~</text>
<text text-anchor="middle" x="257.93" y="-257.73" font-family="Times,serif" font-size="14.00">Deterministic</text>
</g>
<!-- eta&#45;&gt;mu -->
<g id="edge24" class="edge">
<title>eta&#45;&gt;mu</title>
<path fill="none" stroke="black" d="M257.93,-349.66C257.93,-338.53 257.93,-325.3 257.93,-313.23"/>
<polygon fill="black" stroke="black" points="261.43,-313 257.93,-303 254.43,-313 261.43,-313"/>
</g>
<!-- sgrna_idx -->
<g id="node3" class="node">
<title>sgrna_idx</title>
<path fill="lightgrey" stroke="black" d="M185.93,-505.88C185.93,-505.88 137.93,-505.88 137.93,-505.88 131.93,-505.88 125.93,-499.88 125.93,-493.88 125.93,-493.88 125.93,-464.88 125.93,-464.88 125.93,-458.88 131.93,-452.88 137.93,-452.88 137.93,-452.88 185.93,-452.88 185.93,-452.88 191.93,-452.88 197.93,-458.88 197.93,-464.88 197.93,-464.88 197.93,-493.88 197.93,-493.88 197.93,-499.88 191.93,-505.88 185.93,-505.88"/>
<text text-anchor="middle" x="161.93" y="-490.68" font-family="Times,serif" font-size="14.00">sgrna_idx</text>
<text text-anchor="middle" x="161.93" y="-475.68" font-family="Times,serif" font-size="14.00">~</text>
<text text-anchor="middle" x="161.93" y="-460.68" font-family="Times,serif" font-size="14.00">Data</text>
</g>
<!-- sgrna_idx&#45;&gt;eta -->
<g id="edge23" class="edge">
<title>sgrna_idx&#45;&gt;eta</title>
<path fill="none" stroke="black" d="M175.61,-452.88C183.6,-439.43 194.54,-423.21 206.93,-410.91 207.37,-410.48 207.81,-410.05 208.25,-409.62"/>
<polygon fill="black" stroke="black" points="210.68,-412.15 215.93,-402.95 206.08,-406.87 210.68,-412.15"/>
</g>
<!-- x_initial -->
<g id="node4" class="node">
<title>x_initial</title>
<path fill="lightgrey" stroke="black" d="M181.43,-302.93C181.43,-302.93 142.43,-302.93 142.43,-302.93 136.43,-302.93 130.43,-296.93 130.43,-290.93 130.43,-290.93 130.43,-261.93 130.43,-261.93 130.43,-255.93 136.43,-249.93 142.43,-249.93 142.43,-249.93 181.43,-249.93 181.43,-249.93 187.43,-249.93 193.43,-255.93 193.43,-261.93 193.43,-261.93 193.43,-290.93 193.43,-290.93 193.43,-296.93 187.43,-302.93 181.43,-302.93"/>
<text text-anchor="middle" x="161.93" y="-287.73" font-family="Times,serif" font-size="14.00">x_initial</text>
<text text-anchor="middle" x="161.93" y="-272.73" font-family="Times,serif" font-size="14.00">~</text>
<text text-anchor="middle" x="161.93" y="-257.73" font-family="Times,serif" font-size="14.00">Data</text>
</g>
<!-- y -->
<g id="node7" class="node">
<title>y</title>
<ellipse fill="lightgrey" stroke="black" cx="221.93" cy="-165.48" rx="84.29" ry="37.45"/>
<text text-anchor="middle" x="221.93" y="-176.78" font-family="Times,serif" font-size="14.00">y</text>
<text text-anchor="middle" x="221.93" y="-161.78" font-family="Times,serif" font-size="14.00">~</text>
<text text-anchor="middle" x="221.93" y="-146.78" font-family="Times,serif" font-size="14.00">NegativeBinomial</text>
</g>
<!-- x_initial&#45;&gt;y -->
<g id="edge26" class="edge">
<title>x_initial&#45;&gt;y</title>
<path fill="none" stroke="black" d="M176,-249.89C182.36,-238.34 190.07,-224.34 197.33,-211.14"/>
<polygon fill="black" stroke="black" points="200.52,-212.62 202.28,-202.17 194.39,-209.24 200.52,-212.62"/>
</g>
<!-- mu&#45;&gt;y -->
<g id="edge27" class="edge">
<title>mu&#45;&gt;y</title>
<path fill="none" stroke="black" d="M249.49,-249.89C245.78,-238.66 241.31,-225.12 237.06,-212.25"/>
<polygon fill="black" stroke="black" points="240.32,-210.98 233.86,-202.59 233.68,-213.18 240.32,-210.98"/>
</g>
<!-- cell_line_idx -->
<g id="node6" class="node">
<title>cell_line_idx</title>
<path fill="lightgrey" stroke="black" d="M293.93,-505.88C293.93,-505.88 227.93,-505.88 227.93,-505.88 221.93,-505.88 215.93,-499.88 215.93,-493.88 215.93,-493.88 215.93,-464.88 215.93,-464.88 215.93,-458.88 221.93,-452.88 227.93,-452.88 227.93,-452.88 293.93,-452.88 293.93,-452.88 299.93,-452.88 305.93,-458.88 305.93,-464.88 305.93,-464.88 305.93,-493.88 305.93,-493.88 305.93,-499.88 299.93,-505.88 293.93,-505.88"/>
<text text-anchor="middle" x="260.93" y="-490.68" font-family="Times,serif" font-size="14.00">cell_line_idx</text>
<text text-anchor="middle" x="260.93" y="-475.68" font-family="Times,serif" font-size="14.00">~</text>
<text text-anchor="middle" x="260.93" y="-460.68" font-family="Times,serif" font-size="14.00">Data</text>
</g>
<!-- cell_line_idx&#45;&gt;eta -->
<g id="edge21" class="edge">
<title>cell_line_idx&#45;&gt;eta</title>
<path fill="none" stroke="black" d="M260.17,-452.64C259.81,-440.65 259.38,-426.19 258.99,-413.17"/>
<polygon fill="black" stroke="black" points="262.49,-412.99 258.7,-403.1 255.49,-413.2 262.49,-412.99"/>
</g>
<!-- y&#45;&gt;counts_final -->
<g id="edge1" class="edge">
<title>y&#45;&gt;counts_final</title>
<path fill="none" stroke="black" d="M221.93,-127.99C221.93,-119.58 221.93,-110.63 221.93,-102.25"/>
<polygon fill="black" stroke="black" points="225.43,-102.01 221.93,-92.01 218.43,-102.01 225.43,-102.01"/>
</g>
<!-- sgrna_to_gene_idx -->
<g id="node8" class="node">
<title>sgrna_to_gene_idx</title>
<path fill="lightgrey" stroke="black" d="M204.43,-627.84C204.43,-627.84 105.43,-627.84 105.43,-627.84 99.43,-627.84 93.43,-621.84 93.43,-615.84 93.43,-615.84 93.43,-586.84 93.43,-586.84 93.43,-580.84 99.43,-574.84 105.43,-574.84 105.43,-574.84 204.43,-574.84 204.43,-574.84 210.43,-574.84 216.43,-580.84 216.43,-586.84 216.43,-586.84 216.43,-615.84 216.43,-615.84 216.43,-621.84 210.43,-627.84 204.43,-627.84"/>
<text text-anchor="middle" x="154.93" y="-612.64" font-family="Times,serif" font-size="14.00">sgrna_to_gene_idx</text>
<text text-anchor="middle" x="154.93" y="-597.64" font-family="Times,serif" font-size="14.00">~</text>
<text text-anchor="middle" x="154.93" y="-582.64" font-family="Times,serif" font-size="14.00">Data</text>
</g>
<!-- beta_sgrna -->
<g id="node27" class="node">
<title>beta_sgrna</title>
<ellipse fill="none" stroke="black" cx="383.93" cy="-479.38" rx="54.39" ry="37.45"/>
<text text-anchor="middle" x="383.93" y="-490.68" font-family="Times,serif" font-size="14.00">beta_sgrna</text>
<text text-anchor="middle" x="383.93" y="-475.68" font-family="Times,serif" font-size="14.00">~</text>
<text text-anchor="middle" x="383.93" y="-460.68" font-family="Times,serif" font-size="14.00">Normal</text>
</g>
<!-- sgrna_to_gene_idx&#45;&gt;beta_sgrna -->
<g id="edge20" class="edge">
<title>sgrna_to_gene_idx&#45;&gt;beta_sgrna</title>
<path fill="none" stroke="black" d="M175.41,-574.68C188.91,-559.75 207.93,-542.1 228.93,-532.86 265.28,-516.87 280.51,-538.15 317.93,-524.86 325.62,-522.13 333.28,-518.29 340.5,-514"/>
<polygon fill="black" stroke="black" points="342.82,-516.68 349.4,-508.38 339.08,-510.76 342.82,-516.68"/>
</g>
<!-- cell_line_to_lineage_idx -->
<g id="node9" class="node">
<title>cell_line_to_lineage_idx</title>
<path fill="lightgrey" stroke="black" d="M204.43,-860.74C204.43,-860.74 73.43,-860.74 73.43,-860.74 67.43,-860.74 61.43,-854.74 61.43,-848.74 61.43,-848.74 61.43,-819.74 61.43,-819.74 61.43,-813.74 67.43,-807.74 73.43,-807.74 73.43,-807.74 204.43,-807.74 204.43,-807.74 210.43,-807.74 216.43,-813.74 216.43,-819.74 216.43,-819.74 216.43,-848.74 216.43,-848.74 216.43,-854.74 210.43,-860.74 204.43,-860.74"/>
<text text-anchor="middle" x="138.93" y="-845.54" font-family="Times,serif" font-size="14.00">cell_line_to_lineage_idx</text>
<text text-anchor="middle" x="138.93" y="-830.54" font-family="Times,serif" font-size="14.00">~</text>
<text text-anchor="middle" x="138.93" y="-815.54" font-family="Times,serif" font-size="14.00">Data</text>
</g>
<!-- q -->
<g id="node11" class="node">
<title>q</title>
<ellipse fill="none" stroke="black" cx="383.93" cy="-712.29" rx="41.94" ry="37.45"/>
<text text-anchor="middle" x="383.93" y="-723.59" font-family="Times,serif" font-size="14.00">q</text>
<text text-anchor="middle" x="383.93" y="-708.59" font-family="Times,serif" font-size="14.00">~</text>
<text text-anchor="middle" x="383.93" y="-693.59" font-family="Times,serif" font-size="14.00">Normal</text>
</g>
<!-- cell_line_to_lineage_idx&#45;&gt;q -->
<g id="edge12" class="edge">
<title>cell_line_to_lineage_idx&#45;&gt;q</title>
<path fill="none" stroke="black" d="M164.84,-807.47C181.63,-792.5 204.8,-774.84 228.93,-765.77 272.74,-749.29 290.85,-776.06 333.93,-757.77 339.69,-755.32 345.23,-751.94 350.4,-748.12"/>
<polygon fill="black" stroke="black" points="352.6,-750.84 358.19,-741.84 348.21,-745.4 352.6,-750.84"/>
</g>
<!-- h -->
<g id="node13" class="node">
<title>h</title>
<ellipse fill="none" stroke="black" cx="282.93" cy="-712.29" rx="41.94" ry="37.45"/>
<text text-anchor="middle" x="282.93" y="-723.59" font-family="Times,serif" font-size="14.00">h</text>
<text text-anchor="middle" x="282.93" y="-708.59" font-family="Times,serif" font-size="14.00">~</text>
<text text-anchor="middle" x="282.93" y="-693.59" font-family="Times,serif" font-size="14.00">Normal</text>
</g>
<!-- cell_line_to_lineage_idx&#45;&gt;h -->
<g id="edge6" class="edge">
<title>cell_line_to_lineage_idx&#45;&gt;h</title>
<path fill="none" stroke="black" d="M169.82,-807.51C191.8,-789.2 221.46,-764.49 244.9,-744.97"/>
<polygon fill="black" stroke="black" points="247.14,-747.66 252.59,-738.57 242.66,-742.28 247.14,-747.66"/>
</g>
<!-- rna_expression_gl -->
<g id="node10" class="node">
<title>rna_expression_gl</title>
<path fill="lightgrey" stroke="black" d="M550.43,-738.79C550.43,-738.79 455.43,-738.79 455.43,-738.79 449.43,-738.79 443.43,-732.79 443.43,-726.79 443.43,-726.79 443.43,-697.79 443.43,-697.79 443.43,-691.79 449.43,-685.79 455.43,-685.79 455.43,-685.79 550.43,-685.79 550.43,-685.79 556.43,-685.79 562.43,-691.79 562.43,-697.79 562.43,-697.79 562.43,-726.79 562.43,-726.79 562.43,-732.79 556.43,-738.79 550.43,-738.79"/>
<text text-anchor="middle" x="502.93" y="-723.59" font-family="Times,serif" font-size="14.00">rna_expression_gl</text>
<text text-anchor="middle" x="502.93" y="-708.59" font-family="Times,serif" font-size="14.00">~</text>
<text text-anchor="middle" x="502.93" y="-693.59" font-family="Times,serif" font-size="14.00">Data</text>
</g>
<!-- mu_beta -->
<g id="node12" class="node">
<title>mu_beta</title>
<polygon fill="none" stroke="black" points="430.43,-627.84 337.43,-627.84 337.43,-574.84 430.43,-574.84 430.43,-627.84"/>
<text text-anchor="middle" x="383.93" y="-612.64" font-family="Times,serif" font-size="14.00">mu_beta</text>
<text text-anchor="middle" x="383.93" y="-597.64" font-family="Times,serif" font-size="14.00">~</text>
<text text-anchor="middle" x="383.93" y="-582.64" font-family="Times,serif" font-size="14.00">Deterministic</text>
</g>
<!-- rna_expression_gl&#45;&gt;mu_beta -->
<g id="edge14" class="edge">
<title>rna_expression_gl&#45;&gt;mu_beta</title>
<path fill="none" stroke="black" d="M475.03,-685.75C458.44,-670.56 437.23,-651.14 419.46,-634.86"/>
<polygon fill="black" stroke="black" points="421.81,-632.27 412.07,-628.1 417.08,-637.43 421.81,-632.27"/>
</g>
<!-- q&#45;&gt;mu_beta -->
<g id="edge15" class="edge">
<title>q&#45;&gt;mu_beta</title>
<path fill="none" stroke="black" d="M383.93,-674.71C383.93,-662.97 383.93,-649.98 383.93,-638.29"/>
<polygon fill="black" stroke="black" points="387.43,-637.99 383.93,-627.99 380.43,-637.99 387.43,-637.99"/>
</g>
<!-- mu_beta&#45;&gt;beta_sgrna -->
<g id="edge18" class="edge">
<title>mu_beta&#45;&gt;beta_sgrna</title>
<path fill="none" stroke="black" d="M383.93,-574.6C383.93,-560.82 383.93,-543.42 383.93,-527.33"/>
<polygon fill="black" stroke="black" points="387.43,-527 383.93,-517 380.43,-527 387.43,-527"/>
</g>
<!-- h&#45;&gt;mu_beta -->
<g id="edge16" class="edge">
<title>h&#45;&gt;mu_beta</title>
<path fill="none" stroke="black" d="M309.21,-682.95C322.64,-668.45 339.08,-650.72 353.12,-635.58"/>
<polygon fill="black" stroke="black" points="355.98,-637.64 360.21,-627.93 350.84,-632.88 355.98,-637.64"/>
</g>
<!-- sigma_mu_h -->
<g id="node14" class="node">
<title>sigma_mu_h</title>
<ellipse fill="none" stroke="black" cx="62.93" cy="-945.2" rx="62.87" ry="37.45"/>
<text text-anchor="middle" x="62.93" y="-956.5" font-family="Times,serif" font-size="14.00">sigma_mu_h</text>
<text text-anchor="middle" x="62.93" y="-941.5" font-family="Times,serif" font-size="14.00">~</text>
<text text-anchor="middle" x="62.93" y="-926.5" font-family="Times,serif" font-size="14.00">HalfNormal</text>
</g>
<!-- mu_h -->
<g id="node23" class="node">
<title>mu_h</title>
<ellipse fill="none" stroke="black" cx="282.93" cy="-834.24" rx="41.94" ry="37.45"/>
<text text-anchor="middle" x="282.93" y="-845.54" font-family="Times,serif" font-size="14.00">mu_h</text>
<text text-anchor="middle" x="282.93" y="-830.54" font-family="Times,serif" font-size="14.00">~</text>
<text text-anchor="middle" x="282.93" y="-815.54" font-family="Times,serif" font-size="14.00">Normal</text>
</g>
<!-- sigma_mu_h&#45;&gt;mu_h -->
<g id="edge2" class="edge">
<title>sigma_mu_h&#45;&gt;mu_h</title>
<path fill="none" stroke="black" d="M108.85,-919.4C117.39,-915.23 126.34,-911.14 134.93,-907.72 175.43,-891.58 190.45,-900.21 228.93,-879.72 234.98,-876.5 240.99,-872.54 246.68,-868.32"/>
<polygon fill="black" stroke="black" points="249.03,-870.92 254.75,-862 244.72,-865.4 249.03,-870.92"/>
</g>
<!-- sigma_sigma_q -->
<g id="node15" class="node">
<title>sigma_sigma_q</title>
<ellipse fill="none" stroke="black" cx="768.93" cy="-945.2" rx="73.58" ry="37.45"/>
<text text-anchor="middle" x="768.93" y="-956.5" font-family="Times,serif" font-size="14.00">sigma_sigma_q</text>
<text text-anchor="middle" x="768.93" y="-941.5" font-family="Times,serif" font-size="14.00">~</text>
<text text-anchor="middle" x="768.93" y="-926.5" font-family="Times,serif" font-size="14.00">HalfNormal</text>
</g>
<!-- sigma_q -->
<g id="node24" class="node">
<title>sigma_q</title>
<ellipse fill="none" stroke="black" cx="645.93" cy="-834.24" rx="59.29" ry="37.45"/>
<text text-anchor="middle" x="645.93" y="-845.54" font-family="Times,serif" font-size="14.00">sigma_q</text>
<text text-anchor="middle" x="645.93" y="-830.54" font-family="Times,serif" font-size="14.00">~</text>
<text text-anchor="middle" x="645.93" y="-815.54" font-family="Times,serif" font-size="14.00">HalfNormal</text>
</g>
<!-- sigma_sigma_q&#45;&gt;sigma_q -->
<g id="edge10" class="edge">
<title>sigma_sigma_q&#45;&gt;sigma_q</title>
<path fill="none" stroke="black" d="M733.03,-912.39C718.77,-899.77 702.29,-885.17 687.53,-872.09"/>
<polygon fill="black" stroke="black" points="689.79,-869.42 679.98,-865.41 685.15,-874.66 689.79,-869.42"/>
</g>
<!-- mu_mu_q -->
<g id="node16" class="node">
<title>mu_mu_q</title>
<ellipse fill="none" stroke="black" cx="316.93" cy="-945.2" rx="51.74" ry="37.45"/>
<text text-anchor="middle" x="316.93" y="-956.5" font-family="Times,serif" font-size="14.00">mu_mu_q</text>
<text text-anchor="middle" x="316.93" y="-941.5" font-family="Times,serif" font-size="14.00">~</text>
<text text-anchor="middle" x="316.93" y="-926.5" font-family="Times,serif" font-size="14.00">Normal</text>
</g>
<!-- mu_q -->
<g id="node22" class="node">
<title>mu_q</title>
<ellipse fill="none" stroke="black" cx="383.93" cy="-834.24" rx="41.94" ry="37.45"/>
<text text-anchor="middle" x="383.93" y="-845.54" font-family="Times,serif" font-size="14.00">mu_q</text>
<text text-anchor="middle" x="383.93" y="-830.54" font-family="Times,serif" font-size="14.00">~</text>
<text text-anchor="middle" x="383.93" y="-815.54" font-family="Times,serif" font-size="14.00">Normal</text>
</g>
<!-- mu_mu_q&#45;&gt;mu_q -->
<g id="edge8" class="edge">
<title>mu_mu_q&#45;&gt;mu_q</title>
<path fill="none" stroke="black" d="M337.58,-910.62C344.32,-899.66 351.88,-887.36 358.91,-875.94"/>
<polygon fill="black" stroke="black" points="361.9,-877.76 364.15,-867.41 355.93,-874.09 361.9,-877.76"/>
</g>
<!-- sigma_sigma_beta -->
<g id="node17" class="node">
<title>sigma_sigma_beta</title>
<ellipse fill="none" stroke="black" cx="665.93" cy="-712.29" rx="85.62" ry="37.45"/>
<text text-anchor="middle" x="665.93" y="-723.59" font-family="Times,serif" font-size="14.00">sigma_sigma_beta</text>
<text text-anchor="middle" x="665.93" y="-708.59" font-family="Times,serif" font-size="14.00">~</text>
<text text-anchor="middle" x="665.93" y="-693.59" font-family="Times,serif" font-size="14.00">HalfNormal</text>
</g>
<!-- sigma_beta -->
<g id="node26" class="node">
<title>sigma_beta</title>
<ellipse fill="none" stroke="black" cx="655.93" cy="-601.34" rx="59.29" ry="37.45"/>
<text text-anchor="middle" x="655.93" y="-612.64" font-family="Times,serif" font-size="14.00">sigma_beta</text>
<text text-anchor="middle" x="655.93" y="-597.64" font-family="Times,serif" font-size="14.00">~</text>
<text text-anchor="middle" x="655.93" y="-582.64" font-family="Times,serif" font-size="14.00">HalfNormal</text>
</g>
<!-- sigma_sigma_beta&#45;&gt;sigma_beta -->
<g id="edge17" class="edge">
<title>sigma_sigma_beta&#45;&gt;sigma_beta</title>
<path fill="none" stroke="black" d="M662.57,-674.71C661.82,-666.53 661.02,-657.75 660.24,-649.23"/>
<polygon fill="black" stroke="black" points="663.7,-648.65 659.3,-639.01 656.73,-649.29 663.7,-648.65"/>
</g>
<!-- mu_mu_h -->
<g id="node18" class="node">
<title>mu_mu_h</title>
<ellipse fill="none" stroke="black" cx="195.93" cy="-945.2" rx="51.74" ry="37.45"/>
<text text-anchor="middle" x="195.93" y="-956.5" font-family="Times,serif" font-size="14.00">mu_mu_h</text>
<text text-anchor="middle" x="195.93" y="-941.5" font-family="Times,serif" font-size="14.00">~</text>
<text text-anchor="middle" x="195.93" y="-926.5" font-family="Times,serif" font-size="14.00">Normal</text>
</g>
<!-- mu_mu_h&#45;&gt;mu_h -->
<g id="edge3" class="edge">
<title>mu_mu_h&#45;&gt;mu_h</title>
<path fill="none" stroke="black" d="M221.33,-912.39C231.12,-900.13 242.4,-886 252.61,-873.21"/>
<polygon fill="black" stroke="black" points="255.64,-875.03 259.14,-865.03 250.17,-870.66 255.64,-875.03"/>
</g>
<!-- alpha -->
<g id="node19" class="node">
<title>alpha</title>
<ellipse fill="none" stroke="black" cx="381.93" cy="-276.43" rx="59.29" ry="37.45"/>
<text text-anchor="middle" x="381.93" y="-287.73" font-family="Times,serif" font-size="14.00">alpha</text>
<text text-anchor="middle" x="381.93" y="-272.73" font-family="Times,serif" font-size="14.00">~</text>
<text text-anchor="middle" x="381.93" y="-257.73" font-family="Times,serif" font-size="14.00">HalfCauchy</text>
</g>
<!-- alpha&#45;&gt;y -->
<g id="edge25" class="edge">
<title>alpha&#45;&gt;y</title>
<path fill="none" stroke="black" d="M341.97,-248.22C321.87,-234.53 297.22,-217.75 275.51,-202.96"/>
<polygon fill="black" stroke="black" points="277.26,-199.92 267.03,-197.19 273.32,-205.71 277.26,-199.92"/>
</g>
<!-- sigma_sigma_h -->
<g id="node20" class="node">
<title>sigma_sigma_h</title>
<ellipse fill="none" stroke="black" cx="603.93" cy="-945.2" rx="73.58" ry="37.45"/>
<text text-anchor="middle" x="603.93" y="-956.5" font-family="Times,serif" font-size="14.00">sigma_sigma_h</text>
<text text-anchor="middle" x="603.93" y="-941.5" font-family="Times,serif" font-size="14.00">~</text>
<text text-anchor="middle" x="603.93" y="-926.5" font-family="Times,serif" font-size="14.00">HalfNormal</text>
</g>
<!-- sigma_h -->
<g id="node25" class="node">
<title>sigma_h</title>
<ellipse fill="none" stroke="black" cx="508.93" cy="-834.24" rx="59.29" ry="37.45"/>
<text text-anchor="middle" x="508.93" y="-845.54" font-family="Times,serif" font-size="14.00">sigma_h</text>
<text text-anchor="middle" x="508.93" y="-830.54" font-family="Times,serif" font-size="14.00">~</text>
<text text-anchor="middle" x="508.93" y="-815.54" font-family="Times,serif" font-size="14.00">HalfNormal</text>
</g>
<!-- sigma_sigma_h&#45;&gt;sigma_h -->
<g id="edge4" class="edge">
<title>sigma_sigma_h&#45;&gt;sigma_h</title>
<path fill="none" stroke="black" d="M574.65,-910.62C564.91,-899.44 553.96,-886.88 543.83,-875.27"/>
<polygon fill="black" stroke="black" points="546.19,-872.64 536.98,-867.41 540.91,-877.24 546.19,-872.64"/>
</g>
<!-- sigma_mu_q -->
<g id="node21" class="node">
<title>sigma_mu_q</title>
<ellipse fill="none" stroke="black" cx="449.93" cy="-945.2" rx="62.87" ry="37.45"/>
<text text-anchor="middle" x="449.93" y="-956.5" font-family="Times,serif" font-size="14.00">sigma_mu_q</text>
<text text-anchor="middle" x="449.93" y="-941.5" font-family="Times,serif" font-size="14.00">~</text>
<text text-anchor="middle" x="449.93" y="-926.5" font-family="Times,serif" font-size="14.00">HalfNormal</text>
</g>
<!-- sigma_mu_q&#45;&gt;mu_q -->
<g id="edge9" class="edge">
<title>sigma_mu_q&#45;&gt;mu_q</title>
<path fill="none" stroke="black" d="M429.05,-909.72C422.61,-899.1 415.46,-887.29 408.79,-876.27"/>
<polygon fill="black" stroke="black" points="411.73,-874.38 403.56,-867.64 405.74,-878 411.73,-874.38"/>
</g>
<!-- mu_q&#45;&gt;q -->
<g id="edge13" class="edge">
<title>mu_q&#45;&gt;q</title>
<path fill="none" stroke="black" d="M383.93,-796.6C383.93,-785.2 383.93,-772.46 383.93,-760.44"/>
<polygon fill="black" stroke="black" points="387.43,-760.12 383.93,-750.12 380.43,-760.12 387.43,-760.12"/>
</g>
<!-- mu_h&#45;&gt;h -->
<g id="edge7" class="edge">
<title>mu_h&#45;&gt;h</title>
<path fill="none" stroke="black" d="M282.93,-796.6C282.93,-785.2 282.93,-772.46 282.93,-760.44"/>
<polygon fill="black" stroke="black" points="286.43,-760.12 282.93,-750.12 279.43,-760.12 286.43,-760.12"/>
</g>
<!-- sigma_q&#45;&gt;q -->
<g id="edge11" class="edge">
<title>sigma_q&#45;&gt;q</title>
<path fill="none" stroke="black" d="M620.98,-800.04C609.18,-786.95 593.95,-773.27 576.93,-765.77 548.01,-753.02 464.2,-769.69 434.93,-757.77 429.01,-755.35 423.29,-751.95 417.97,-748.1"/>
<polygon fill="black" stroke="black" points="419.96,-745.21 409.95,-741.73 415.61,-750.69 419.96,-745.21"/>
</g>
<!-- sigma_h&#45;&gt;h -->
<g id="edge5" class="edge">
<title>sigma_h&#45;&gt;h</title>
<path fill="none" stroke="black" d="M483,-800.2C470.82,-787.13 455.18,-773.43 437.93,-765.77 395.16,-746.77 376.01,-776.06 332.93,-757.77 327.18,-755.32 321.63,-751.94 316.46,-748.12"/>
<polygon fill="black" stroke="black" points="318.66,-745.4 308.68,-741.84 314.26,-750.84 318.66,-745.4"/>
</g>
<!-- sigma_beta&#45;&gt;beta_sgrna -->
<g id="edge19" class="edge">
<title>sigma_beta&#45;&gt;beta_sgrna</title>
<path fill="none" stroke="black" d="M624.74,-568.97C610.56,-556.2 592.94,-542.27 574.93,-532.86 534.78,-511.89 485.38,-498.6 446.88,-490.65"/>
<polygon fill="black" stroke="black" points="447.32,-487.17 436.83,-488.64 445.95,-494.03 447.32,-487.17"/>
</g>
<!-- beta_sgrna&#45;&gt;eta -->
<g id="edge22" class="edge">
<title>beta_sgrna&#45;&gt;eta</title>
<path fill="none" stroke="black" d="M356.72,-446.9C345.42,-434.84 331.73,-421.46 317.93,-410.91 316.37,-409.71 314.76,-408.53 313.11,-407.37"/>
<polygon fill="black" stroke="black" points="314.91,-404.36 304.65,-401.72 311.02,-410.18 314.91,-404.36"/>
</g>
</g>
</svg>
