<?xml version="1.0" encoding="UTF-8" standalone="no"?>
<!DOCTYPE svg PUBLIC "-//W3C//DTD SVG 1.1//EN"
 "http://www.w3.org/Graphics/SVG/1.1/DTD/svg11.dtd">
<!-- Generated by graphviz version 2.48.0 (20210717.2242)
 -->
<!-- Pages: 1 -->
<svg width="341pt" height="555pt"
 viewBox="0.00 0.00 341.38 554.81" xmlns="http://www.w3.org/2000/svg" xmlns:xlink="http://www.w3.org/1999/xlink">
<g id="graph0" class="graph" transform="scale(1 1) rotate(0) translate(4 550.81)">
<polygon fill="white" stroke="transparent" points="-4,4 -4,-550.81 337.38,-550.81 337.38,4 -4,4"/>
<g id="clust1" class="cluster">
<title>cluster10</title>
<path fill="none" stroke="black" d="M79.69,-329.91C79.69,-329.91 155.69,-329.91 155.69,-329.91 161.69,-329.91 167.69,-335.91 167.69,-341.91 167.69,-341.91 167.69,-431.86 167.69,-431.86 167.69,-437.86 161.69,-443.86 155.69,-443.86 155.69,-443.86 79.69,-443.86 79.69,-443.86 73.69,-443.86 67.69,-437.86 67.69,-431.86 67.69,-431.86 67.69,-341.91 67.69,-341.91 67.69,-335.91 73.69,-329.91 79.69,-329.91"/>
<text text-anchor="middle" x="152.69" y="-337.71" font-family="Times,serif" font-size="14.00">10</text>
</g>
<g id="clust2" class="cluster">
<title>cluster100</title>
<path fill="none" stroke="black" d="M39.69,-8C39.69,-8 195.69,-8 195.69,-8 201.69,-8 207.69,-14 207.69,-20 207.69,-20 207.69,-309.91 207.69,-309.91 207.69,-315.91 201.69,-321.91 195.69,-321.91 195.69,-321.91 39.69,-321.91 39.69,-321.91 33.69,-321.91 27.69,-315.91 27.69,-309.91 27.69,-309.91 27.69,-20 27.69,-20 27.69,-14 33.69,-8 39.69,-8"/>
<text text-anchor="middle" x="189.19" y="-15.8" font-family="Times,serif" font-size="14.00">100</text>
</g>
<!-- σ_β -->
<g id="node1" class="node">
<title>σ_β</title>
<ellipse fill="none" stroke="black" cx="58.69" cy="-509.34" rx="58.88" ry="37.45"/>
<text text-anchor="middle" x="58.69" y="-520.64" font-family="Times,serif" font-size="14.00">σ_β</text>
<text text-anchor="middle" x="58.69" y="-505.64" font-family="Times,serif" font-size="14.00">~</text>
<text text-anchor="middle" x="58.69" y="-490.64" font-family="Times,serif" font-size="14.00">HalfNormal</text>
</g>
<!-- β -->
<g id="node4" class="node">
<title>β</title>
<ellipse fill="none" stroke="black" cx="117.69" cy="-398.38" rx="41.94" ry="37.45"/>
<text text-anchor="middle" x="117.69" y="-409.68" font-family="Times,serif" font-size="14.00">β</text>
<text text-anchor="middle" x="117.69" y="-394.68" font-family="Times,serif" font-size="14.00">~</text>
<text text-anchor="middle" x="117.69" y="-379.68" font-family="Times,serif" font-size="14.00">Normal</text>
</g>
<!-- σ_β&#45;&gt;β -->
<g id="edge1" class="edge">
<title>σ_β&#45;&gt;β</title>
<path fill="none" stroke="black" d="M77.52,-473.56C83.05,-463.35 89.16,-452.07 94.91,-441.46"/>
<polygon fill="black" stroke="black" points="98.16,-442.8 99.84,-432.34 92,-439.47 98.16,-442.8"/>
</g>
<!-- α -->
<g id="node2" class="node">
<title>α</title>
<ellipse fill="none" stroke="black" cx="274.69" cy="-187.43" rx="58.88" ry="37.45"/>
<text text-anchor="middle" x="274.69" y="-198.73" font-family="Times,serif" font-size="14.00">α</text>
<text text-anchor="middle" x="274.69" y="-183.73" font-family="Times,serif" font-size="14.00">~</text>
<text text-anchor="middle" x="274.69" y="-168.73" font-family="Times,serif" font-size="14.00">HalfNormal</text>
</g>
<!-- y -->
<g id="node5" class="node">
<title>y</title>
<ellipse fill="lightgrey" stroke="black" cx="117.69" cy="-76.48" rx="82.05" ry="37.45"/>
<text text-anchor="middle" x="117.69" y="-87.78" font-family="Times,serif" font-size="14.00">y</text>
<text text-anchor="middle" x="117.69" y="-72.78" font-family="Times,serif" font-size="14.00">~</text>
<text text-anchor="middle" x="117.69" y="-57.78" font-family="Times,serif" font-size="14.00">NegativeBinomial</text>
</g>
<!-- α&#45;&gt;y -->
<g id="edge5" class="edge">
<title>α&#45;&gt;y</title>
<path fill="none" stroke="black" d="M235.48,-159.22C215.75,-145.53 191.57,-128.75 170.26,-113.96"/>
<polygon fill="black" stroke="black" points="172.15,-111.01 161.94,-108.19 168.16,-116.76 172.15,-111.01"/>
</g>
<!-- μ_β -->
<g id="node3" class="node">
<title>μ_β</title>
<ellipse fill="none" stroke="black" cx="176.69" cy="-509.34" rx="41.94" ry="37.45"/>
<text text-anchor="middle" x="176.69" y="-520.64" font-family="Times,serif" font-size="14.00">μ_β</text>
<text text-anchor="middle" x="176.69" y="-505.64" font-family="Times,serif" font-size="14.00">~</text>
<text text-anchor="middle" x="176.69" y="-490.64" font-family="Times,serif" font-size="14.00">Normal</text>
</g>
<!-- μ_β&#45;&gt;β -->
<g id="edge2" class="edge">
<title>μ_β&#45;&gt;β</title>
<path fill="none" stroke="black" d="M158.83,-475.35C153.05,-464.68 146.56,-452.69 140.47,-441.45"/>
<polygon fill="black" stroke="black" points="143.53,-439.76 135.69,-432.63 137.38,-443.09 143.53,-439.76"/>
</g>
<!-- η -->
<g id="node6" class="node">
<title>η</title>
<polygon fill="none" stroke="black" points="163.69,-313.91 71.69,-313.91 71.69,-260.91 163.69,-260.91 163.69,-313.91"/>
<text text-anchor="middle" x="117.69" y="-298.71" font-family="Times,serif" font-size="14.00">η</text>
<text text-anchor="middle" x="117.69" y="-283.71" font-family="Times,serif" font-size="14.00">~</text>
<text text-anchor="middle" x="117.69" y="-268.71" font-family="Times,serif" font-size="14.00">Deterministic</text>
</g>
<!-- β&#45;&gt;η -->
<g id="edge3" class="edge">
<title>β&#45;&gt;η</title>
<path fill="none" stroke="black" d="M117.69,-360.79C117.69,-349.05 117.69,-336.06 117.69,-324.37"/>
<polygon fill="black" stroke="black" points="121.19,-324.06 117.69,-314.06 114.19,-324.06 121.19,-324.06"/>
</g>
<!-- μ -->
<g id="node7" class="node">
<title>μ</title>
<polygon fill="none" stroke="black" points="163.69,-213.93 71.69,-213.93 71.69,-160.93 163.69,-160.93 163.69,-213.93"/>
<text text-anchor="middle" x="117.69" y="-198.73" font-family="Times,serif" font-size="14.00">μ</text>
<text text-anchor="middle" x="117.69" y="-183.73" font-family="Times,serif" font-size="14.00">~</text>
<text text-anchor="middle" x="117.69" y="-168.73" font-family="Times,serif" font-size="14.00">Deterministic</text>
</g>
<!-- η&#45;&gt;μ -->
<g id="edge4" class="edge">
<title>η&#45;&gt;μ</title>
<path fill="none" stroke="black" d="M117.69,-260.66C117.69,-249.53 117.69,-236.3 117.69,-224.23"/>
<polygon fill="black" stroke="black" points="121.19,-224 117.69,-214 114.19,-224 121.19,-224"/>
</g>
<!-- μ&#45;&gt;y -->
<g id="edge6" class="edge">
<title>μ&#45;&gt;y</title>
<path fill="none" stroke="black" d="M117.69,-160.89C117.69,-149.98 117.69,-136.89 117.69,-124.35"/>
<polygon fill="black" stroke="black" points="121.19,-124 117.69,-114 114.19,-124 121.19,-124"/>
</g>
</g>
</svg>
